{"metadata": {"schema_version": "0.1", "title": "RWC-MDB-P-2001 No. 38: 1999 / Kousuke Morimoto", "copyright": "RWC Music Database. Copyright (C) 2001 Real World Computing Partnership (contact: Masataka GOTO <m.goto@aist.go.jp>)", "source_filename": "RM-P038.SMF_SYNC.MID", "source_format": "midi"}, "resolution": 480, "tempos": [{"time": 0, "qpm": 96.0}, {"time": 24960, "qpm": 125.0}, {"time": 248400, "qpm": 123.06859227990721}, {"time": 248880, "qpm": 121.1132732073217}, {"time": 249360, "qpm": 119.15093046947453}, {"time": 249840, "qpm": 117.20718714471572}, {"time": 250320, "qpm": 113.29818571838602}, {"time": 250800, "qpm": 109.39203553053314}, {"time": 251280, "qpm": 105.47855620952261}, {"time": 251760, "qpm": 101.57062035949228}, {"time": 252240, "qpm": 97.66642358579018}], "key_signatures": [{"time": 0, "root": 11, "mode": "minor"}], "time_signatures": [{"time": 0, "numerator": 4, "denominator": 4}, {"time": 236160, "numerator": 3, "denominator": 4}, {"time": 239040, "numerator": 4, "denominator": 4}, {"time": 240960, "numerator": 3, "denominator": 4}, {"time": 242400, "numerator": 9, "denominator": 8}, {"time": 244560, "numerator": 4, "denominator": 4}, {"time": 246480, "numerator": 3, "denominator": 4}, {"time": 262320, "numerator": 4, "denominator": 4}], "tracks": [{"program": 0, "is_drum": false, "name": "Piano", "notes": [{"time": 47250, "pitch": 48, "duration": 60, "velocity": 100}, {"time": 47290, "pitch": 50, "duration": 60, "velocity": 100}, {"time": 47340, "pitch": 52, "duration": 60, "velocity": 100}, {"time": 47380, "pitch": 54, "duration": 60, "velocity": 100}, {"time": 47430, "pitch": 55, "duration": 60, "velocity": 100}, {"time": 47470, "pitch": 57, "duration": 60, "velocity": 100}, {"time": 47520, "pitch": 59, "duration": 60, "velocity": 100}, {"time": 47560, "pitch": 60, "duration": 60, "velocity": 100}, {"time": 47610, "pitch": 62, "duration": 60, "velocity": 100}, {"time": 47650, "pitch": 64, "duration": 60, "velocity": 100}, {"time": 47700, "pitch": 66, "duration": 60, "velocity": 100}, {"time": 47740, "pitch": 67, "duration": 60, "velocity": 100}, {"time": 47790, "pitch": 69, "duration": 60, "velocity": 100}, {"time": 47830, "pitch": 71, "duration": 50, "velocity": 100}, {"time": 47880, "pitch": 71, "duration": 1900, "velocity": 100}, {"time": 47880, "pitch": 74, "duration": 1900, "velocity": 90}, {"time": 47880, "pitch": 78, "duration": 1900, "velocity": 100}, {"time": 49800, "pitch": 69, "duration": 1900, "velocity": 100}, {"time": 49800, "pitch": 73, "duration": 1900, "velocity": 90}, {"time": 49800, "pitch": 76, "duration": 1900, "velocity": 100}, {"time": 51720, "pitch": 67, "duration": 1900, "velocity": 100}, {"time": 51720, "pitch": 71, "duration": 1900, "velocity": 90}, {"time": 51720, "pitch": 74, "duration": 1900, "velocity": 100}, {"time": 53640, "pitch": 69, "duration": 1900, "velocity": 100}, {"time": 53640, "pitch": 73, "duration": 1900, "velocity": 90}, {"time": 53640, "pitch": 76, "duration": 1900, "velocity": 100}, {"time": 55560, "pitch": 71, "duration": 1900, "velocity": 100}, {"time": 55560, "pitch": 74, "duration": 1900, "velocity": 90}, {"time": 55560, "pitch": 78, "duration": 1900, "velocity": 100}, {"time": 57480, "pitch": 69, "duration": 1900, "velocity": 100}, {"time": 57480, "pitch": 73, "duration": 1900, "velocity": 90}, {"time": 57480, "pitch": 76, "duration": 1900, "velocity": 100}, {"time": 59400, "pitch": 67, "duration": 1900, "velocity": 100}, {"time": 59400, "pitch": 71, "duration": 1900, "velocity": 90}, {"time": 59400, "pitch": 74, "duration": 1900, "velocity": 100}, {"time": 61320, "pitch": 69, "duration": 1540, "velocity": 100}, {"time": 61320, "pitch": 73, "duration": 1540, "velocity": 90}, {"time": 61320, "pitch": 76, "duration": 1540, "velocity": 100}, {"time": 62880, "pitch": 69, "duration": 100, "velocity": 100}, {"time": 62880, "pitch": 73, "duration": 100, "velocity": 90}, {"time": 62880, "pitch": 76, "duration": 100, "velocity": 100}, {"time": 63000, "pitch": 69, "duration": 100, "velocity": 100}, {"time": 63000, "pitch": 73, "duration": 100, "velocity": 90}, {"time": 63000, "pitch": 75, "duration": 100, "velocity": 100}, {"time": 63240, "pitch": 67, "duration": 1900, "velocity": 100}, {"time": 63240, "pitch": 71, "duration": 1900, "velocity": 90}, {"time": 63240, "pitch": 74, "duration": 1900, "velocity": 100}, {"time": 65160, "pitch": 67, "duration": 1900, "velocity": 100}, {"time": 65160, "pitch": 71, "duration": 1900, "velocity": 90}, {"time": 65160, "pitch": 74, "duration": 1900, "velocity": 100}, {"time": 67080, "pitch": 69, "duration": 1770, "velocity": 100}, {"time": 67080, "pitch": 73, "duration": 1770, "velocity": 90}, {"time": 67080, "pitch": 76, "duration": 1770, "velocity": 100}, {"time": 70920, "pitch": 67, "duration": 1900, "velocity": 100}, {"time": 70920, "pitch": 71, "duration": 1900, "velocity": 90}, {"time": 70920, "pitch": 74, "duration": 1900, "velocity": 100}, {"time": 72840, "pitch": 67, "duration": 1900, "velocity": 100}, {"time": 72840, "pitch": 71, "duration": 1900, "velocity": 90}, {"time": 72840, "pitch": 74, "duration": 1900, "velocity": 100}, {"time": 74760, "pitch": 69, "duration": 1540, "velocity": 100}, {"time": 74760, "pitch": 73, "duration": 1540, "velocity": 90}, {"time": 74760, "pitch": 76, "duration": 1540, "velocity": 100}, {"time": 76320, "pitch": 69, "duration": 100, "velocity": 100}, {"time": 76320, "pitch": 73, "duration": 100, "velocity": 90}, {"time": 76320, "pitch": 76, "duration": 100, "velocity": 100}, {"time": 76440, "pitch": 69, "duration": 100, "velocity": 100}, {"time": 76440, "pitch": 73, "duration": 100, "velocity": 90}, {"time": 76440, "pitch": 76, "duration": 100, "velocity": 100}, {"time": 76680, "pitch": 66, "duration": 570, "velocity": 100}, {"time": 76680, "pitch": 70, "duration": 570, "velocity": 90}, {"time": 76680, "pitch": 73, "duration": 570, "velocity": 100}, {"time": 77280, "pitch": 59, "duration": 100, "velocity": 90}, {"time": 77280, "pitch": 71, "duration": 100, "velocity": 100}, {"time": 77400, "pitch": 60, "duration": 100, "velocity": 90}, {"time": 77400, "pitch": 72, "duration": 100, "velocity": 100}, {"time": 77640, "pitch": 61, "duration": 100, "velocity": 90}, {"time": 77640, "pitch": 73, "duration": 100, "velocity": 100}, {"time": 99090, "pitch": 48, "duration": 60, "velocity": 100}, {"time": 99130, "pitch": 50, "duration": 60, "velocity": 100}, {"time": 99180, "pitch": 52, "duration": 60, "velocity": 100}, {"time": 99220, "pitch": 54, "duration": 60, "velocity": 100}, {"time": 99270, "pitch": 55, "duration": 60, "velocity": 100}, {"time": 99310, "pitch": 57, "duration": 60, "velocity": 100}, {"time": 99360, "pitch": 59, "duration": 60, "velocity": 100}, {"time": 99400, "pitch": 60, "duration": 60, "velocity": 100}, {"time": 99450, "pitch": 62, "duration": 60, "velocity": 100}, {"time": 99490, "pitch": 64, "duration": 60, "velocity": 100}, {"time": 99540, "pitch": 66, "duration": 60, "velocity": 100}, {"time": 99580, "pitch": 67, "duration": 60, "velocity": 100}, {"time": 99630, "pitch": 69, "duration": 60, "velocity": 100}, {"time": 99670, "pitch": 71, "duration": 50, "velocity": 100}, {"time": 99720, "pitch": 71, "duration": 1900, "velocity": 100}, {"time": 99720, "pitch": 74, "duration": 1900, "velocity": 90}, {"time": 99720, "pitch": 78, "duration": 1900, "velocity": 100}, {"time": 101640, "pitch": 69, "duration": 1900, "velocity": 100}, {"time": 101640, "pitch": 73, "duration": 1900, "velocity": 90}, {"time": 101640, "pitch": 76, "duration": 1900, "velocity": 100}, {"time": 103560, "pitch": 67, "duration": 1900, "velocity": 100}, {"time": 103560, "pitch": 71, "duration": 1900, "velocity": 90}, {"time": 103560, "pitch": 74, "duration": 1900, "velocity": 100}, {"time": 105480, "pitch": 69, "duration": 1900, "velocity": 100}, {"time": 105480, "pitch": 73, "duration": 1900, "velocity": 90}, {"time": 105480, "pitch": 76, "duration": 1900, "velocity": 100}, {"time": 107400, "pitch": 71, "duration": 1900, "velocity": 100}, {"time": 107400, "pitch": 74, "duration": 1900, "velocity": 90}, {"time": 107400, "pitch": 78, "duration": 1900, "velocity": 100}, {"time": 109320, "pitch": 69, "duration": 1900, "velocity": 100}, {"time": 109320, "pitch": 73, "duration": 1900, "velocity": 90}, {"time": 109320, "pitch": 76, "duration": 1900, "velocity": 100}, {"time": 111240, "pitch": 67, "duration": 1900, "velocity": 100}, {"time": 111240, "pitch": 71, "duration": 1900, "velocity": 90}, {"time": 111240, "pitch": 74, "duration": 1900, "velocity": 100}, {"time": 113160, "pitch": 69, "duration": 1540, "velocity": 100}, {"time": 113160, "pitch": 73, "duration": 1540, "velocity": 90}, {"time": 113160, "pitch": 76, "duration": 1540, "velocity": 100}, {"time": 114720, "pitch": 69, "duration": 100, "velocity": 100}, {"time": 114720, "pitch": 73, "duration": 100, "velocity": 90}, {"time": 114720, "pitch": 76, "duration": 100, "velocity": 100}, {"time": 114840, "pitch": 69, "duration": 100, "velocity": 100}, {"time": 114840, "pitch": 73, "duration": 100, "velocity": 90}, {"time": 114840, "pitch": 75, "duration": 100, "velocity": 100}, {"time": 115080, "pitch": 67, "duration": 1900, "velocity": 100}, {"time": 115080, "pitch": 71, "duration": 1900, "velocity": 90}, {"time": 115080, "pitch": 74, "duration": 1900, "velocity": 100}, {"time": 117000, "pitch": 67, "duration": 1900, "velocity": 100}, {"time": 117000, "pitch": 71, "duration": 1900, "velocity": 90}, {"time": 117000, "pitch": 74, "duration": 1900, "velocity": 100}, {"time": 118920, "pitch": 69, "duration": 1770, "velocity": 100}, {"time": 118920, "pitch": 73, "duration": 1770, "velocity": 90}, {"time": 118920, "pitch": 76, "duration": 1770, "velocity": 100}, {"time": 122760, "pitch": 67, "duration": 1900, "velocity": 100}, {"time": 122760, "pitch": 71, "duration": 1900, "velocity": 90}, {"time": 122760, "pitch": 74, "duration": 1900, "velocity": 100}, {"time": 124680, "pitch": 67, "duration": 1900, "velocity": 100}, {"time": 124680, "pitch": 71, "duration": 1900, "velocity": 90}, {"time": 124680, "pitch": 74, "duration": 1900, "velocity": 100}, {"time": 126600, "pitch": 69, "duration": 1540, "velocity": 100}, {"time": 126600, "pitch": 73, "duration": 1540, "velocity": 90}, {"time": 126600, "pitch": 76, "duration": 1540, "velocity": 100}, {"time": 128160, "pitch": 69, "duration": 100, "velocity": 100}, {"time": 128160, "pitch": 73, "duration": 100, "velocity": 90}, {"time": 128160, "pitch": 76, "duration": 100, "velocity": 100}, {"time": 128280, "pitch": 69, "duration": 100, "velocity": 100}, {"time": 128280, "pitch": 73, "duration": 100, "velocity": 90}, {"time": 128280, "pitch": 76, "duration": 100, "velocity": 100}, {"time": 128520, "pitch": 66, "duration": 570, "velocity": 100}, {"time": 128520, "pitch": 70, "duration": 570, "velocity": 90}, {"time": 128520, "pitch": 73, "duration": 570, "velocity": 100}, {"time": 129120, "pitch": 59, "duration": 100, "velocity": 90}, {"time": 129120, "pitch": 71, "duration": 100, "velocity": 100}, {"time": 129240, "pitch": 60, "duration": 100, "velocity": 90}, {"time": 129240, "pitch": 72, "duration": 100, "velocity": 100}, {"time": 129480, "pitch": 61, "duration": 100, "velocity": 90}, {"time": 129480, "pitch": 73, "duration": 100, "velocity": 100}, {"time": 149640, "pitch": 66, "duration": 1900, "velocity": 100}, {"time": 149640, "pitch": 71, "duration": 1900, "velocity": 100}, {"time": 149640, "pitch": 74, "duration": 1900, "velocity": 90}, {"time": 151560, "pitch": 64, "duration": 1900, "velocity": 100}, {"time": 151560, "pitch": 69, "duration": 1900, "velocity": 90}, {"time": 151560, "pitch": 73, "duration": 1900, "velocity": 100}, {"time": 153480, "pitch": 67, "duration": 1900, "velocity": 100}, {"time": 153480, "pitch": 71, "duration": 1900, "velocity": 90}, {"time": 153480, "pitch": 74, "duration": 1900, "velocity": 100}, {"time": 155400, "pitch": 64, "duration": 1900, "velocity": 100}, {"time": 155400, "pitch": 69, "duration": 1900, "velocity": 90}, {"time": 155400, "pitch": 73, "duration": 1900, "velocity": 100}, {"time": 157320, "pitch": 66, "duration": 1900, "velocity": 100}, {"time": 157320, "pitch": 71, "duration": 1900, "velocity": 100}, {"time": 157320, "pitch": 74, "duration": 1900, "velocity": 90}, {"time": 159240, "pitch": 64, "duration": 1900, "velocity": 100}, {"time": 159240, "pitch": 69, "duration": 1900, "velocity": 90}, {"time": 159240, "pitch": 73, "duration": 1900, "velocity": 100}, {"time": 161160, "pitch": 67, "duration": 1900, "velocity": 100}, {"time": 161160, "pitch": 71, "duration": 1900, "velocity": 90}, {"time": 161160, "pitch": 74, "duration": 1900, "velocity": 100}, {"time": 163080, "pitch": 64, "duration": 1540, "velocity": 100}, {"time": 163080, "pitch": 69, "duration": 1540, "velocity": 90}, {"time": 163080, "pitch": 73, "duration": 1540, "velocity": 100}, {"time": 164640, "pitch": 57, "duration": 100, "velocity": 90}, {"time": 164640, "pitch": 69, "duration": 100, "velocity": 100}, {"time": 164760, "pitch": 56, "duration": 100, "velocity": 90}, {"time": 164760, "pitch": 68, "duration": 100, "velocity": 100}, {"time": 165000, "pitch": 62, "duration": 1900, "velocity": 90}, {"time": 165000, "pitch": 67, "duration": 1900, "velocity": 90}, {"time": 165000, "pitch": 71, "duration": 1900, "velocity": 100}, {"time": 166920, "pitch": 64, "duration": 1900, "velocity": 100}, {"time": 166920, "pitch": 69, "duration": 1900, "velocity": 90}, {"time": 166920, "pitch": 73, "duration": 1900, "velocity": 100}, {"time": 168840, "pitch": 66, "duration": 1900, "velocity": 100}, {"time": 168840, "pitch": 70, "duration": 1900, "velocity": 90}, {"time": 168840, "pitch": 73, "duration": 1900, "velocity": 100}, {"time": 170760, "pitch": 66, "duration": 1540, "velocity": 100}, {"time": 170760, "pitch": 70, "duration": 1540, "velocity": 90}, {"time": 170760, "pitch": 73, "duration": 1540, "velocity": 100}, {"time": 172320, "pitch": 62, "duration": 100, "velocity": 100}, {"time": 172320, "pitch": 74, "duration": 100, "velocity": 90}, {"time": 172440, "pitch": 61, "duration": 100, "velocity": 90}, {"time": 172440, "pitch": 73, "duration": 100, "velocity": 100}, {"time": 172680, "pitch": 67, "duration": 1900, "velocity": 100}, {"time": 172680, "pitch": 71, "duration": 1900, "velocity": 90}, {"time": 172680, "pitch": 74, "duration": 1900, "velocity": 100}, {"time": 174600, "pitch": 67, "duration": 1900, "velocity": 100}, {"time": 174600, "pitch": 71, "duration": 1900, "velocity": 90}, {"time": 174600, "pitch": 74, "duration": 1900, "velocity": 100}, {"time": 176520, "pitch": 69, "duration": 1770, "velocity": 100}, {"time": 176520, "pitch": 73, "duration": 1770, "velocity": 90}, {"time": 176520, "pitch": 76, "duration": 1770, "velocity": 100}, {"time": 180360, "pitch": 67, "duration": 1900, "velocity": 100}, {"time": 180360, "pitch": 71, "duration": 1900, "velocity": 90}, {"time": 180360, "pitch": 74, "duration": 1900, "velocity": 100}, {"time": 182280, "pitch": 67, "duration": 1900, "velocity": 100}, {"time": 182280, "pitch": 71, "duration": 1900, "velocity": 90}, {"time": 182280, "pitch": 74, "duration": 1900, "velocity": 100}, {"time": 184200, "pitch": 69, "duration": 1540, "velocity": 100}, {"time": 184200, "pitch": 73, "duration": 1540, "velocity": 90}, {"time": 184200, "pitch": 76, "duration": 1540, "velocity": 100}, {"time": 185760, "pitch": 69, "duration": 100, "velocity": 100}, {"time": 185760, "pitch": 73, "duration": 100, "velocity": 90}, {"time": 185760, "pitch": 76, "duration": 100, "velocity": 100}, {"time": 185880, "pitch": 69, "duration": 100, "velocity": 100}, {"time": 185880, "pitch": 73, "duration": 100, "velocity": 90}, {"time": 185880, "pitch": 76, "duration": 100, "velocity": 100}, {"time": 186120, "pitch": 66, "duration": 570, "velocity": 100}, {"time": 186120, "pitch": 70, "duration": 570, "velocity": 90}, {"time": 186120, "pitch": 73, "duration": 570, "velocity": 100}, {"time": 186720, "pitch": 59, "duration": 100, "velocity": 90}, {"time": 186720, "pitch": 71, "duration": 100, "velocity": 100}, {"time": 186840, "pitch": 60, "duration": 100, "velocity": 90}, {"time": 186840, "pitch": 72, "duration": 100, "velocity": 100}, {"time": 187080, "pitch": 61, "duration": 100, "velocity": 90}, {"time": 187080, "pitch": 73, "duration": 100, "velocity": 100}, {"time": 218130, "pitch": 48, "duration": 60, "velocity": 100}, {"time": 218170, "pitch": 50, "duration": 60, "velocity": 100}, {"time": 218220, "pitch": 52, "duration": 60, "velocity": 100}, {"time": 218260, "pitch": 54, "duration": 60, "velocity": 100}, {"time": 218310, "pitch": 55, "duration": 60, "velocity": 100}, {"time": 218350, "pitch": 57, "duration": 60, "velocity": 100}, {"time": 218400, "pitch": 59, "duration": 60, "velocity": 100}, {"time": 218440, "pitch": 60, "duration": 60, "velocity": 100}, {"time": 218490, "pitch": 62, "duration": 60, "velocity": 100}, {"time": 218530, "pitch": 64, "duration": 60, "velocity": 100}, {"time": 218580, "pitch": 66, "duration": 60, "velocity": 100}, {"time": 218620, "pitch": 67, "duration": 60, "velocity": 100}, {"time": 218670, "pitch": 69, "duration": 60, "velocity": 100}, {"time": 218710, "pitch": 71, "duration": 50, "velocity": 100}, {"time": 218760, "pitch": 67, "duration": 1800, "velocity": 100}, {"time": 218760, "pitch": 71, "duration": 1800, "velocity": 100}, {"time": 218760, "pitch": 74, "duration": 1800, "velocity": 90}, {"time": 218760, "pitch": 78, "duration": 1800, "velocity": 100}, {"time": 220560, "pitch": 66, "duration": 50, "velocity": 100}, {"time": 220600, "pitch": 64, "duration": 50, "velocity": 90}, {"time": 220640, "pitch": 62, "duration": 50, "velocity": 80}, {"time": 220680, "pitch": 66, "duration": 1860, "velocity": 100}, {"time": 220680, "pitch": 69, "duration": 1860, "velocity": 100}, {"time": 220680, "pitch": 73, "duration": 1860, "velocity": 90}, {"time": 220680, "pitch": 76, "duration": 1860, "velocity": 100}, {"time": 222600, "pitch": 64, "duration": 1800, "velocity": 100}, {"time": 222600, "pitch": 67, "duration": 1800, "velocity": 100}, {"time": 222600, "pitch": 71, "duration": 1810, "velocity": 90}, {"time": 222600, "pitch": 74, "duration": 1820, "velocity": 100}, {"time": 224420, "pitch": 62, "duration": 50, "velocity": 100}, {"time": 224450, "pitch": 60, "duration": 50, "velocity": 90}, {"time": 224490, "pitch": 59, "duration": 50, "velocity": 80}, {"time": 224520, "pitch": 66, "duration": 1860, "velocity": 100}, {"time": 224520, "pitch": 69, "duration": 1860, "velocity": 100}, {"time": 224520, "pitch": 73, "duration": 1860, "velocity": 90}, {"time": 224520, "pitch": 76, "duration": 1860, "velocity": 100}, {"time": 226440, "pitch": 67, "duration": 1800, "velocity": 100}, {"time": 226440, "pitch": 71, "duration": 1800, "velocity": 100}, {"time": 226440, "pitch": 74, "duration": 1800, "velocity": 90}, {"time": 226440, "pitch": 78, "duration": 1800, "velocity": 100}, {"time": 228240, "pitch": 66, "duration": 50, "velocity": 100}, {"time": 228280, "pitch": 64, "duration": 50, "velocity": 90}, {"time": 228320, "pitch": 62, "duration": 50, "velocity": 80}, {"time": 228360, "pitch": 66, "duration": 1860, "velocity": 100}, {"time": 228360, "pitch": 69, "duration": 1860, "velocity": 100}, {"time": 228360, "pitch": 73, "duration": 1860, "velocity": 90}, {"time": 228360, "pitch": 76, "duration": 1860, "velocity": 100}, {"time": 230280, "pitch": 64, "duration": 1800, "velocity": 100}, {"time": 230280, "pitch": 67, "duration": 1800, "velocity": 100}, {"time": 230280, "pitch": 71, "duration": 1810, "velocity": 90}, {"time": 230280, "pitch": 74, "duration": 1820, "velocity": 100}, {"time": 232100, "pitch": 62, "duration": 50, "velocity": 100}, {"time": 232130, "pitch": 60, "duration": 50, "velocity": 90}, {"time": 232170, "pitch": 59, "duration": 50, "velocity": 80}, {"time": 232200, "pitch": 66, "duration": 930, "velocity": 100}, {"time": 232200, "pitch": 69, "duration": 930, "velocity": 100}, {"time": 232200, "pitch": 73, "duration": 930, "velocity": 90}, {"time": 232200, "pitch": 76, "duration": 930, "velocity": 100}, {"time": 233160, "pitch": 66, "duration": 860, "velocity": 100}, {"time": 233160, "pitch": 70, "duration": 860, "velocity": 100}, {"time": 233160, "pitch": 73, "duration": 870, "velocity": 90}, {"time": 233160, "pitch": 76, "duration": 870, "velocity": 100}, {"time": 234030, "pitch": 66, "duration": 50, "velocity": 100}, {"time": 234060, "pitch": 64, "duration": 50, "velocity": 90}, {"time": 234090, "pitch": 62, "duration": 50, "velocity": 80}, {"time": 234120, "pitch": 59, "duration": 1900, "velocity": 100}, {"time": 234120, "pitch": 71, "duration": 1900, "velocity": 100}, {"time": 234120, "pitch": 74, "duration": 1900, "velocity": 90}, {"time": 234120, "pitch": 78, "duration": 1900, "velocity": 100}, {"time": 236040, "pitch": 59, "duration": 1540, "velocity": 100}, {"time": 236040, "pitch": 69, "duration": 1540, "velocity": 100}, {"time": 236040, "pitch": 73, "duration": 1540, "velocity": 90}, {"time": 236040, "pitch": 76, "duration": 1540, "velocity": 100}, {"time": 237600, "pitch": 65, "duration": 680, "velocity": 100}, {"time": 237600, "pitch": 69, "duration": 680, "velocity": 90}, {"time": 237600, "pitch": 72, "duration": 680, "velocity": 100}, {"time": 238320, "pitch": 65, "duration": 680, "velocity": 100}, {"time": 238320, "pitch": 69, "duration": 680, "velocity": 90}, {"time": 238320, "pitch": 72, "duration": 680, "velocity": 100}, {"time": 239040, "pitch": 59, "duration": 1780, "velocity": 100}, {"time": 239040, "pitch": 71, "duration": 1780, "velocity": 100}, {"time": 239040, "pitch": 74, "duration": 1780, "velocity": 90}, {"time": 239040, "pitch": 78, "duration": 1780, "velocity": 100}, {"time": 240840, "pitch": 59, "duration": 1540, "velocity": 100}, {"time": 240840, "pitch": 69, "duration": 1540, "velocity": 100}, {"time": 240840, "pitch": 73, "duration": 1540, "velocity": 90}, {"time": 240840, "pitch": 76, "duration": 1540, "velocity": 100}, {"time": 242400, "pitch": 65, "duration": 680, "velocity": 100}, {"time": 242400, "pitch": 69, "duration": 680, "velocity": 90}, {"time": 242400, "pitch": 72, "duration": 680, "velocity": 100}, {"time": 243120, "pitch": 65, "duration": 680, "velocity": 100}, {"time": 243120, "pitch": 69, "duration": 680, "velocity": 90}, {"time": 243120, "pitch": 72, "duration": 680, "velocity": 100}, {"time": 243840, "pitch": 65, "duration": 680, "velocity": 100}, {"time": 243840, "pitch": 69, "duration": 680, "velocity": 90}, {"time": 243840, "pitch": 72, "duration": 680, "velocity": 100}, {"time": 244560, "pitch": 59, "duration": 1780, "velocity": 100}, {"time": 244560, "pitch": 71, "duration": 1780, "velocity": 100}, {"time": 244560, "pitch": 74, "duration": 1780, "velocity": 90}, {"time": 244560, "pitch": 78, "duration": 1780, "velocity": 100}, {"time": 246360, "pitch": 59, "duration": 1540, "velocity": 100}, {"time": 246360, "pitch": 69, "duration": 1540, "velocity": 100}, {"time": 246360, "pitch": 73, "duration": 1540, "velocity": 90}, {"time": 246360, "pitch": 76, "duration": 1540, "velocity": 100}, {"time": 247920, "pitch": 65, "duration": 680, "velocity": 100}, {"time": 247920, "pitch": 69, "duration": 680, "velocity": 90}, {"time": 247920, "pitch": 72, "duration": 680, "velocity": 100}, {"time": 248640, "pitch": 65, "duration": 680, "velocity": 100}, {"time": 248640, "pitch": 69, "duration": 680, "velocity": 90}, {"time": 248640, "pitch": 72, "duration": 680, "velocity": 100}, {"time": 249360, "pitch": 65, "duration": 680, "velocity": 100}, {"time": 249360, "pitch": 69, "duration": 680, "velocity": 90}, {"time": 249360, "pitch": 72, "duration": 680, "velocity": 100}, {"time": 250080, "pitch": 65, "duration": 680, "velocity": 100}, {"time": 250080, "pitch": 69, "duration": 680, "velocity": 90}, {"time": 250080, "pitch": 72, "duration": 680, "velocity": 100}, {"time": 250800, "pitch": 65, "duration": 680, "velocity": 100}, {"time": 250800, "pitch": 69, "duration": 680, "velocity": 90}, {"time": 250800, "pitch": 72, "duration": 680, "velocity": 100}, {"time": 251520, "pitch": 65, "duration": 680, "velocity": 100}, {"time": 251520, "pitch": 69, "duration": 680, "velocity": 90}, {"time": 251520, "pitch": 72, "duration": 680, "velocity": 100}, {"time": 252240, "pitch": 65, "duration": 1420, "velocity": 100}, {"time": 252240, "pitch": 69, "duration": 1420, "velocity": 90}, {"time": 252240, "pitch": 72, "duration": 1420, "velocity": 100}, {"time": 253680, "pitch": 66, "duration": 1420, "velocity": 100}, {"time": 253680, "pitch": 70, "duration": 1420, "velocity": 90}, {"time": 253680, "pitch": 73, "duration": 1420, "velocity": 100}, {"time": 255120, "pitch": 59, "duration": 5880, "velocity": 100}, {"time": 255120, "pitch": 71, "duration": 5880, "velocity": 100}, {"time": 255120, "pitch": 74, "duration": 5880, "velocity": 90}, {"time": 255120, "pitch": 78, "duration": 5880, "velocity": 100}, {"time": 26760, "pitch": 35, "duration": 340, "velocity": 110}, {"time": 27120, "pitch": 35, "duration": 100, "velocity": 100}, {"time": 27240, "pitch": 35, "duration": 100, "velocity": 100}, {"time": 27360, "pitch": 35, "duration": 100, "velocity": 110}, {"time": 27480, "pitch": 35, "duration": 100, "velocity": 100}, {"time": 27600, "pitch": 35, "duration": 100, "velocity": 100}, {"time": 27720, "pitch": 35, "duration": 100, "velocity": 100}, {"time": 27840, "pitch": 35, "duration": 100, "velocity": 110}, {"time": 27960, "pitch": 35, "duration": 100, "velocity": 100}, {"time": 28080, "pitch": 35, "duration": 100, "velocity": 100}, {"time": 28200, "pitch": 35, "duration": 100, "velocity": 100}, {"time": 28320, "pitch": 35, "duration": 100, "velocity": 110}, {"time": 28440, "pitch": 35, "duration": 100, "velocity": 100}, {"time": 28560, "pitch": 35, "duration": 100, "velocity": 100}, {"time": 28680, "pitch": 35, "duration": 100, "velocity": 100}, {"time": 28800, "pitch": 35, "duration": 100, "velocity": 110}, {"time": 28920, "pitch": 35, "duration": 100, "velocity": 100}, {"time": 29040, "pitch": 35, "duration": 100, "velocity": 100}, {"time": 29160, "pitch": 35, "duration": 100, "velocity": 100}, {"time": 29280, "pitch": 35, "duration": 100, "velocity": 110}, {"time": 29400, "pitch": 35, "duration": 100, "velocity": 100}, {"time": 29520, "pitch": 35, "duration": 100, "velocity": 100}, {"time": 29640, "pitch": 35, "duration": 100, "velocity": 100}, {"time": 29760, "pitch": 35, "duration": 100, "velocity": 110}, {"time": 29880, "pitch": 35, "duration": 100, "velocity": 100}, {"time": 30000, "pitch": 33, "duration": 100, "velocity": 110}, {"time": 30240, "pitch": 33, "duration": 100, "velocity": 110}, {"time": 30480, "pitch": 33, "duration": 100, "velocity": 100}, {"time": 30600, "pitch": 35, "duration": 340, "velocity": 110}, {"time": 30960, "pitch": 35, "duration": 100, "velocity": 100}, {"time": 31080, "pitch": 35, "duration": 100, "velocity": 100}, {"time": 31200, "pitch": 35, "duration": 100, "velocity": 110}, {"time": 31320, "pitch": 35, "duration": 100, "velocity": 100}, {"time": 31440, "pitch": 35, "duration": 100, "velocity": 100}, {"time": 31560, "pitch": 35, "duration": 100, "velocity": 100}, {"time": 31680, "pitch": 35, "duration": 100, "velocity": 110}, {"time": 31800, "pitch": 35, "duration": 100, "velocity": 100}, {"time": 31920, "pitch": 35, "duration": 100, "velocity": 100}, {"time": 32040, "pitch": 35, "duration": 100, "velocity": 100}, {"time": 32160, "pitch": 35, "duration": 100, "velocity": 110}, {"time": 32280, "pitch": 35, "duration": 100, "velocity": 100}, {"time": 32400, "pitch": 35, "duration": 100, "velocity": 100}, {"time": 32520, "pitch": 35, "duration": 100, "velocity": 100}, {"time": 32640, "pitch": 35, "duration": 100, "velocity": 110}, {"time": 32760, "pitch": 35, "duration": 100, "velocity": 100}, {"time": 32880, "pitch": 35, "duration": 100, "velocity": 100}, {"time": 33000, "pitch": 35, "duration": 100, "velocity": 100}, {"time": 33120, "pitch": 35, "duration": 100, "velocity": 110}, {"time": 33240, "pitch": 35, "duration": 100, "velocity": 100}, {"time": 33360, "pitch": 35, "duration": 100, "velocity": 100}, {"time": 33480, "pitch": 35, "duration": 100, "velocity": 100}, {"time": 33600, "pitch": 35, "duration": 100, "velocity": 110}, {"time": 33720, "pitch": 35, "duration": 100, "velocity": 100}, {"time": 33840, "pitch": 33, "duration": 100, "velocity": 110}, {"time": 34080, "pitch": 33, "duration": 100, "velocity": 110}, {"time": 34320, "pitch": 33, "duration": 100, "velocity": 100}, {"time": 34440, "pitch": 35, "duration": 340, "velocity": 110}, {"time": 34800, "pitch": 35, "duration": 100, "velocity": 100}, {"time": 34920, "pitch": 35, "duration": 100, "velocity": 100}, {"time": 35040, "pitch": 35, "duration": 100, "velocity": 110}, {"time": 35160, "pitch": 35, "duration": 100, "velocity": 100}, {"time": 35280, "pitch": 35, "duration": 100, "velocity": 100}, {"time": 35400, "pitch": 35, "duration": 100, "velocity": 100}, {"time": 35520, "pitch": 35, "duration": 100, "velocity": 110}, {"time": 35640, "pitch": 35, "duration": 100, "velocity": 100}, {"time": 35760, "pitch": 35, "duration": 100, "velocity": 100}, {"time": 35880, "pitch": 35, "duration": 100, "velocity": 100}, {"time": 36000, "pitch": 35, "duration": 100, "velocity": 110}, {"time": 36120, "pitch": 35, "duration": 100, "velocity": 100}, {"time": 36240, "pitch": 35, "duration": 100, "velocity": 100}, {"time": 36360, "pitch": 35, "duration": 100, "velocity": 100}, {"time": 36480, "pitch": 35, "duration": 100, "velocity": 110}, {"time": 36600, "pitch": 35, "duration": 100, "velocity": 100}, {"time": 36720, "pitch": 35, "duration": 100, "velocity": 100}, {"time": 36840, "pitch": 35, "duration": 100, "velocity": 100}, {"time": 36960, "pitch": 35, "duration": 100, "velocity": 110}, {"time": 37080, "pitch": 35, "duration": 100, "velocity": 100}, {"time": 37200, "pitch": 35, "duration": 100, "velocity": 100}, {"time": 37320, "pitch": 35, "duration": 100, "velocity": 100}, {"time": 37440, "pitch": 35, "duration": 100, "velocity": 110}, {"time": 37560, "pitch": 35, "duration": 100, "velocity": 100}, {"time": 37680, "pitch": 33, "duration": 100, "velocity": 110}, {"time": 37920, "pitch": 33, "duration": 100, "velocity": 110}, {"time": 38160, "pitch": 33, "duration": 100, "velocity": 100}, {"time": 38280, "pitch": 35, "duration": 340, "velocity": 110}, {"time": 38640, "pitch": 35, "duration": 100, "velocity": 100}, {"time": 38760, "pitch": 35, "duration": 100, "velocity": 100}, {"time": 38880, "pitch": 35, "duration": 100, "velocity": 110}, {"time": 39000, "pitch": 35, "duration": 100, "velocity": 100}, {"time": 39120, "pitch": 35, "duration": 100, "velocity": 100}, {"time": 39240, "pitch": 35, "duration": 100, "velocity": 100}, {"time": 39360, "pitch": 35, "duration": 100, "velocity": 110}, {"time": 39480, "pitch": 35, "duration": 100, "velocity": 100}, {"time": 39600, "pitch": 35, "duration": 100, "velocity": 100}, {"time": 39720, "pitch": 35, "duration": 100, "velocity": 100}, {"time": 39840, "pitch": 35, "duration": 100, "velocity": 110}, {"time": 39960, "pitch": 35, "duration": 100, "velocity": 100}, {"time": 40080, "pitch": 35, "duration": 100, "velocity": 100}, {"time": 40200, "pitch": 35, "duration": 100, "velocity": 100}, {"time": 40320, "pitch": 35, "duration": 100, "velocity": 110}, {"time": 40440, "pitch": 35, "duration": 100, "velocity": 100}, {"time": 40560, "pitch": 35, "duration": 100, "velocity": 100}, {"time": 40680, "pitch": 35, "duration": 100, "velocity": 100}, {"time": 40800, "pitch": 35, "duration": 100, "velocity": 110}, {"time": 40920, "pitch": 35, "duration": 100, "velocity": 100}, {"time": 41040, "pitch": 35, "duration": 100, "velocity": 100}, {"time": 41160, "pitch": 35, "duration": 100, "velocity": 100}, {"time": 41280, "pitch": 35, "duration": 100, "velocity": 110}, {"time": 41400, "pitch": 35, "duration": 100, "velocity": 100}, {"time": 41520, "pitch": 35, "duration": 100, "velocity": 110}, {"time": 41640, "pitch": 35, "duration": 100, "velocity": 100}, {"time": 41760, "pitch": 33, "duration": 100, "velocity": 110}, {"time": 41880, "pitch": 32, "duration": 100, "velocity": 100}, {"time": 42120, "pitch": 31, "duration": 220, "velocity": 110}, {"time": 42360, "pitch": 31, "duration": 100, "velocity": 100}, {"time": 42480, "pitch": 31, "duration": 220, "velocity": 100}, {"time": 42720, "pitch": 31, "duration": 100, "velocity": 110}, {"time": 42840, "pitch": 31, "duration": 100, "velocity": 100}, {"time": 42960, "pitch": 31, "duration": 100, "velocity": 100}, {"time": 43080, "pitch": 33, "duration": 220, "velocity": 110}, {"time": 43320, "pitch": 33, "duration": 100, "velocity": 100}, {"time": 43440, "pitch": 33, "duration": 220, "velocity": 100}, {"time": 43680, "pitch": 33, "duration": 100, "velocity": 110}, {"time": 43800, "pitch": 33, "duration": 100, "velocity": 110}, {"time": 43920, "pitch": 33, "duration": 100, "velocity": 110}, {"time": 44040, "pitch": 35, "duration": 100, "velocity": 110}, {"time": 45840, "pitch": 33, "duration": 100, "velocity": 110}, {"time": 45960, "pitch": 35, "duration": 100, "velocity": 110}, {"time": 47880, "pitch": 35, "duration": 340, "velocity": 110}, {"time": 48240, "pitch": 35, "duration": 220, "velocity": 100}, {"time": 48480, "pitch": 30, "duration": 100, "velocity": 100}, {"time": 48600, "pitch": 33, "duration": 340, "velocity": 110}, {"time": 48960, "pitch": 33, "duration": 220, "velocity": 110}, {"time": 49200, "pitch": 35, "duration": 100, "velocity": 100}, {"time": 49320, "pitch": 35, "duration": 100, "velocity": 100}, {"time": 49440, "pitch": 38, "duration": 100, "velocity": 110}, {"time": 49560, "pitch": 37, "duration": 220, "velocity": 100}, {"time": 49800, "pitch": 33, "duration": 340, "velocity": 110}, {"time": 50160, "pitch": 33, "duration": 220, "velocity": 100}, {"time": 50400, "pitch": 28, "duration": 100, "velocity": 100}, {"time": 50520, "pitch": 33, "duration": 340, "velocity": 110}, {"time": 50880, "pitch": 33, "duration": 220, "velocity": 110}, {"time": 51120, "pitch": 35, "duration": 100, "velocity": 100}, {"time": 51240, "pitch": 35, "duration": 100, "velocity": 100}, {"time": 51360, "pitch": 38, "duration": 100, "velocity": 110}, {"time": 51480, "pitch": 37, "duration": 220, "velocity": 100}, {"time": 51720, "pitch": 31, "duration": 340, "velocity": 110}, {"time": 52080, "pitch": 31, "duration": 220, "velocity": 100}, {"time": 52320, "pitch": 30, "duration": 100, "velocity": 100}, {"time": 52440, "pitch": 31, "duration": 340, "velocity": 110}, {"time": 52800, "pitch": 33, "duration": 220, "velocity": 110}, {"time": 53040, "pitch": 35, "duration": 100, "velocity": 100}, {"time": 53160, "pitch": 35, "duration": 100, "velocity": 100}, {"time": 53280, "pitch": 38, "duration": 100, "velocity": 110}, {"time": 53400, "pitch": 37, "duration": 220, "velocity": 100}, {"time": 53640, "pitch": 33, "duration": 340, "velocity": 110}, {"time": 54000, "pitch": 33, "duration": 220, "velocity": 100}, {"time": 54240, "pitch": 28, "duration": 100, "velocity": 100}, {"time": 54360, "pitch": 33, "duration": 340, "velocity": 110}, {"time": 54720, "pitch": 33, "duration": 220, "velocity": 110}, {"time": 54960, "pitch": 35, "duration": 100, "velocity": 100}, {"time": 55080, "pitch": 35, "duration": 100, "velocity": 100}, {"time": 55200, "pitch": 40, "duration": 100, "velocity": 110}, {"time": 55320, "pitch": 38, "duration": 220, "velocity": 100}, {"time": 55560, "pitch": 35, "duration": 340, "velocity": 110}, {"time": 55920, "pitch": 35, "duration": 220, "velocity": 100}, {"time": 56160, "pitch": 30, "duration": 100, "velocity": 100}, {"time": 56280, "pitch": 33, "duration": 340, "velocity": 110}, {"time": 56640, "pitch": 33, "duration": 220, "velocity": 110}, {"time": 56880, "pitch": 35, "duration": 100, "velocity": 100}, {"time": 57000, "pitch": 35, "duration": 100, "velocity": 100}, {"time": 57120, "pitch": 38, "duration": 100, "velocity": 110}, {"time": 57240, "pitch": 37, "duration": 220, "velocity": 100}, {"time": 57480, "pitch": 33, "duration": 340, "velocity": 110}, {"time": 57840, "pitch": 33, "duration": 220, "velocity": 100}, {"time": 58080, "pitch": 28, "duration": 100, "velocity": 100}, {"time": 58200, "pitch": 33, "duration": 340, "velocity": 110}, {"time": 58560, "pitch": 33, "duration": 220, "velocity": 110}, {"time": 58800, "pitch": 35, "duration": 100, "velocity": 100}, {"time": 58920, "pitch": 35, "duration": 100, "velocity": 100}, {"time": 59040, "pitch": 38, "duration": 100, "velocity": 110}, {"time": 59160, "pitch": 37, "duration": 220, "velocity": 100}, {"time": 59400, "pitch": 31, "duration": 340, "velocity": 110}, {"time": 59760, "pitch": 31, "duration": 220, "velocity": 100}, {"time": 60000, "pitch": 30, "duration": 100, "velocity": 100}, {"time": 60120, "pitch": 31, "duration": 340, "velocity": 110}, {"time": 60480, "pitch": 33, "duration": 220, "velocity": 110}, {"time": 60720, "pitch": 35, "duration": 100, "velocity": 100}, {"time": 60840, "pitch": 35, "duration": 100, "velocity": 100}, {"time": 60960, "pitch": 38, "duration": 100, "velocity": 110}, {"time": 61080, "pitch": 37, "duration": 220, "velocity": 100}, {"time": 61320, "pitch": 33, "duration": 340, "velocity": 110}, {"time": 61680, "pitch": 33, "duration": 220, "velocity": 100}, {"time": 61920, "pitch": 30, "duration": 100, "velocity": 100}, {"time": 62040, "pitch": 33, "duration": 340, "velocity": 110}, {"time": 62400, "pitch": 33, "duration": 220, "velocity": 110}, {"time": 62640, "pitch": 35, "duration": 100, "velocity": 110}, {"time": 62880, "pitch": 33, "duration": 100, "velocity": 110}, {"time": 63000, "pitch": 32, "duration": 100, "velocity": 100}, {"time": 63240, "pitch": 31, "duration": 220, "velocity": 110}, {"time": 63480, "pitch": 31, "duration": 100, "velocity": 100}, {"time": 63600, "pitch": 31, "duration": 220, "velocity": 100}, {"time": 63840, "pitch": 31, "duration": 100, "velocity": 110}, {"time": 63960, "pitch": 31, "duration": 100, "velocity": 100}, {"time": 64080, "pitch": 31, "duration": 220, "velocity": 100}, {"time": 64320, "pitch": 31, "duration": 220, "velocity": 110}, {"time": 64560, "pitch": 31, "duration": 100, "velocity": 100}, {"time": 64680, "pitch": 31, "duration": 100, "velocity": 100}, {"time": 64800, "pitch": 31, "duration": 100, "velocity": 110}, {"time": 64920, "pitch": 31, "duration": 100, "velocity": 100}, {"time": 65040, "pitch": 31, "duration": 100, "velocity": 100}, {"time": 65160, "pitch": 31, "duration": 220, "velocity": 110}, {"time": 65400, "pitch": 31, "duration": 100, "velocity": 100}, {"time": 65520, "pitch": 31, "duration": 220, "velocity": 100}, {"time": 65760, "pitch": 31, "duration": 100, "velocity": 110}, {"time": 65880, "pitch": 31, "duration": 100, "velocity": 100}, {"time": 66000, "pitch": 31, "duration": 220, "velocity": 100}, {"time": 66240, "pitch": 31, "duration": 220, "velocity": 110}, {"time": 66480, "pitch": 31, "duration": 100, "velocity": 100}, {"time": 66600, "pitch": 31, "duration": 100, "velocity": 100}, {"time": 66720, "pitch": 31, "duration": 100, "velocity": 110}, {"time": 66840, "pitch": 31, "duration": 100, "velocity": 100}, {"time": 66960, "pitch": 31, "duration": 100, "velocity": 100}, {"time": 67080, "pitch": 33, "duration": 220, "velocity": 110}, {"time": 67320, "pitch": 33, "duration": 100, "velocity": 100}, {"time": 67440, "pitch": 33, "duration": 220, "velocity": 100}, {"time": 67680, "pitch": 33, "duration": 100, "velocity": 110}, {"time": 67800, "pitch": 33, "duration": 100, "velocity": 100}, {"time": 67920, "pitch": 33, "duration": 220, "velocity": 100}, {"time": 68160, "pitch": 33, "duration": 220, "velocity": 110}, {"time": 68400, "pitch": 33, "duration": 100, "velocity": 100}, {"time": 68520, "pitch": 33, "duration": 100, "velocity": 100}, {"time": 68640, "pitch": 33, "duration": 100, "velocity": 110}, {"time": 68760, "pitch": 33, "duration": 100, "velocity": 100}, {"time": 68880, "pitch": 35, "duration": 1660, "velocity": 110}, {"time": 70560, "pitch": 35, "duration": 100, "velocity": 110}, {"time": 70680, "pitch": 33, "duration": 100, "velocity": 110}, {"time": 70920, "pitch": 31, "duration": 220, "velocity": 110}, {"time": 71160, "pitch": 31, "duration": 100, "velocity": 100}, {"time": 71280, "pitch": 31, "duration": 220, "velocity": 100}, {"time": 71520, "pitch": 31, "duration": 100, "velocity": 110}, {"time": 71640, "pitch": 31, "duration": 100, "velocity": 100}, {"time": 71760, "pitch": 31, "duration": 220, "velocity": 100}, {"time": 72000, "pitch": 31, "duration": 220, "velocity": 110}, {"time": 72240, "pitch": 31, "duration": 100, "velocity": 100}, {"time": 72360, "pitch": 31, "duration": 100, "velocity": 100}, {"time": 72480, "pitch": 31, "duration": 100, "velocity": 110}, {"time": 72600, "pitch": 31, "duration": 100, "velocity": 100}, {"time": 72720, "pitch": 31, "duration": 100, "velocity": 100}, {"time": 72840, "pitch": 31, "duration": 220, "velocity": 110}, {"time": 73080, "pitch": 31, "duration": 100, "velocity": 100}, {"time": 73200, "pitch": 31, "duration": 220, "velocity": 100}, {"time": 73440, "pitch": 31, "duration": 100, "velocity": 110}, {"time": 73560, "pitch": 31, "duration": 100, "velocity": 100}, {"time": 73680, "pitch": 31, "duration": 220, "velocity": 100}, {"time": 73920, "pitch": 31, "duration": 220, "velocity": 110}, {"time": 74160, "pitch": 31, "duration": 100, "velocity": 100}, {"time": 74280, "pitch": 31, "duration": 100, "velocity": 100}, {"time": 74400, "pitch": 31, "duration": 100, "velocity": 110}, {"time": 74520, "pitch": 31, "duration": 100, "velocity": 100}, {"time": 74640, "pitch": 31, "duration": 100, "velocity": 100}, {"time": 74760, "pitch": 33, "duration": 220, "velocity": 110}, {"time": 75000, "pitch": 33, "duration": 100, "velocity": 100}, {"time": 75120, "pitch": 33, "duration": 220, "velocity": 100}, {"time": 75360, "pitch": 33, "duration": 100, "velocity": 110}, {"time": 75480, "pitch": 33, "duration": 100, "velocity": 100}, {"time": 75600, "pitch": 33, "duration": 220, "velocity": 100}, {"time": 75840, "pitch": 33, "duration": 220, "velocity": 110}, {"time": 76080, "pitch": 33, "duration": 100, "velocity": 100}, {"time": 76200, "pitch": 33, "duration": 100, "velocity": 100}, {"time": 76320, "pitch": 33, "duration": 100, "velocity": 110}, {"time": 76440, "pitch": 33, "duration": 100, "velocity": 100}, {"time": 76680, "pitch": 42, "duration": 220, "velocity": 110}, {"time": 76920, "pitch": 42, "duration": 100, "velocity": 100}, {"time": 77040, "pitch": 42, "duration": 220, "velocity": 100}, {"time": 77280, "pitch": 40, "duration": 100, "velocity": 110}, {"time": 77400, "pitch": 41, "duration": 120, "velocity": 100}, {"time": 77640, "pitch": 42, "duration": 150, "velocity": 110}, {"time": 78600, "pitch": 35, "duration": 340, "velocity": 110}, {"time": 78960, "pitch": 35, "duration": 220, "velocity": 100}, {"time": 79200, "pitch": 30, "duration": 100, "velocity": 100}, {"time": 79320, "pitch": 33, "duration": 220, "velocity": 110}, {"time": 79560, "pitch": 35, "duration": 220, "velocity": 110}, {"time": 79800, "pitch": 35, "duration": 100, "velocity": 100}, {"time": 79920, "pitch": 35, "duration": 100, "velocity": 100}, {"time": 80040, "pitch": 35, "duration": 100, "velocity": 100}, {"time": 80160, "pitch": 38, "duration": 100, "velocity": 110}, {"time": 80280, "pitch": 37, "duration": 220, "velocity": 100}, {"time": 80520, "pitch": 33, "duration": 340, "velocity": 110}, {"time": 80880, "pitch": 33, "duration": 220, "velocity": 100}, {"time": 81120, "pitch": 30, "duration": 100, "velocity": 100}, {"time": 81240, "pitch": 33, "duration": 220, "velocity": 110}, {"time": 81480, "pitch": 33, "duration": 220, "velocity": 110}, {"time": 81720, "pitch": 33, "duration": 100, "velocity": 100}, {"time": 81840, "pitch": 33, "duration": 100, "velocity": 100}, {"time": 81960, "pitch": 33, "duration": 100, "velocity": 100}, {"time": 82080, "pitch": 38, "duration": 100, "velocity": 110}, {"time": 82200, "pitch": 37, "duration": 220, "velocity": 100}, {"time": 82440, "pitch": 31, "duration": 340, "velocity": 110}, {"time": 82800, "pitch": 31, "duration": 220, "velocity": 100}, {"time": 83040, "pitch": 30, "duration": 100, "velocity": 100}, {"time": 83160, "pitch": 31, "duration": 220, "velocity": 110}, {"time": 83400, "pitch": 31, "duration": 220, "velocity": 110}, {"time": 83640, "pitch": 31, "duration": 100, "velocity": 100}, {"time": 83760, "pitch": 31, "duration": 100, "velocity": 100}, {"time": 83880, "pitch": 31, "duration": 100, "velocity": 100}, {"time": 84000, "pitch": 38, "duration": 100, "velocity": 110}, {"time": 84120, "pitch": 37, "duration": 220, "velocity": 100}, {"time": 84360, "pitch": 33, "duration": 340, "velocity": 110}, {"time": 84720, "pitch": 33, "duration": 220, "velocity": 100}, {"time": 84960, "pitch": 30, "duration": 100, "velocity": 100}, {"time": 85080, "pitch": 33, "duration": 220, "velocity": 110}, {"time": 85320, "pitch": 33, "duration": 220, "velocity": 110}, {"time": 85560, "pitch": 33, "duration": 100, "velocity": 100}, {"time": 85680, "pitch": 33, "duration": 100, "velocity": 100}, {"time": 85800, "pitch": 33, "duration": 100, "velocity": 100}, {"time": 85920, "pitch": 40, "duration": 100, "velocity": 110}, {"time": 86040, "pitch": 38, "duration": 220, "velocity": 100}, {"time": 86280, "pitch": 35, "duration": 340, "velocity": 110}, {"time": 86640, "pitch": 35, "duration": 220, "velocity": 100}, {"time": 86880, "pitch": 30, "duration": 100, "velocity": 100}, {"time": 87000, "pitch": 33, "duration": 220, "velocity": 110}, {"time": 87240, "pitch": 35, "duration": 220, "velocity": 110}, {"time": 87480, "pitch": 35, "duration": 100, "velocity": 100}, {"time": 87600, "pitch": 35, "duration": 100, "velocity": 100}, {"time": 87720, "pitch": 35, "duration": 100, "velocity": 100}, {"time": 87840, "pitch": 38, "duration": 100, "velocity": 110}, {"time": 87960, "pitch": 37, "duration": 220, "velocity": 100}, {"time": 88200, "pitch": 33, "duration": 340, "velocity": 110}, {"time": 88560, "pitch": 33, "duration": 220, "velocity": 100}, {"time": 88800, "pitch": 30, "duration": 100, "velocity": 100}, {"time": 88920, "pitch": 33, "duration": 220, "velocity": 110}, {"time": 89160, "pitch": 33, "duration": 220, "velocity": 110}, {"time": 89400, "pitch": 33, "duration": 100, "velocity": 100}, {"time": 89520, "pitch": 33, "duration": 100, "velocity": 100}, {"time": 89640, "pitch": 33, "duration": 100, "velocity": 100}, {"time": 89760, "pitch": 38, "duration": 100, "velocity": 110}, {"time": 89880, "pitch": 37, "duration": 220, "velocity": 100}, {"time": 90120, "pitch": 31, "duration": 340, "velocity": 110}, {"time": 90480, "pitch": 31, "duration": 220, "velocity": 100}, {"time": 90720, "pitch": 30, "duration": 100, "velocity": 100}, {"time": 90840, "pitch": 31, "duration": 220, "velocity": 110}, {"time": 91080, "pitch": 31, "duration": 220, "velocity": 110}, {"time": 91320, "pitch": 31, "duration": 100, "velocity": 100}, {"time": 91440, "pitch": 31, "duration": 100, "velocity": 100}, {"time": 91560, "pitch": 31, "duration": 100, "velocity": 100}, {"time": 91680, "pitch": 38, "duration": 100, "velocity": 110}, {"time": 91800, "pitch": 37, "duration": 220, "velocity": 100}, {"time": 92040, "pitch": 33, "duration": 340, "velocity": 110}, {"time": 92400, "pitch": 33, "duration": 220, "velocity": 100}, {"time": 92640, "pitch": 30, "duration": 100, "velocity": 100}, {"time": 92760, "pitch": 33, "duration": 220, "velocity": 110}, {"time": 93000, "pitch": 33, "duration": 220, "velocity": 110}, {"time": 93240, "pitch": 33, "duration": 100, "velocity": 100}, {"time": 93360, "pitch": 33, "duration": 100, "velocity": 100}, {"time": 93480, "pitch": 33, "duration": 100, "velocity": 100}, {"time": 93600, "pitch": 33, "duration": 100, "velocity": 110}, {"time": 93720, "pitch": 32, "duration": 100, "velocity": 100}, {"time": 93960, "pitch": 31, "duration": 220, "velocity": 110}, {"time": 94200, "pitch": 31, "duration": 100, "velocity": 100}, {"time": 94320, "pitch": 31, "duration": 220, "velocity": 100}, {"time": 94560, "pitch": 31, "duration": 100, "velocity": 110}, {"time": 94680, "pitch": 31, "duration": 100, "velocity": 100}, {"time": 94800, "pitch": 31, "duration": 100, "velocity": 100}, {"time": 94920, "pitch": 33, "duration": 220, "velocity": 110}, {"time": 95160, "pitch": 33, "duration": 100, "velocity": 100}, {"time": 95280, "pitch": 33, "duration": 220, "velocity": 100}, {"time": 95520, "pitch": 33, "duration": 100, "velocity": 110}, {"time": 95640, "pitch": 33, "duration": 100, "velocity": 110}, {"time": 95760, "pitch": 33, "duration": 100, "velocity": 110}, {"time": 95880, "pitch": 35, "duration": 150, "velocity": 110}, {"time": 97680, "pitch": 33, "duration": 100, "velocity": 110}, {"time": 97800, "pitch": 35, "duration": 100, "velocity": 110}, {"time": 99720, "pitch": 35, "duration": 340, "velocity": 110}, {"time": 100080, "pitch": 35, "duration": 220, "velocity": 100}, {"time": 100320, "pitch": 30, "duration": 100, "velocity": 100}, {"time": 100440, "pitch": 33, "duration": 340, "velocity": 110}, {"time": 100800, "pitch": 33, "duration": 220, "velocity": 110}, {"time": 101040, "pitch": 35, "duration": 100, "velocity": 100}, {"time": 101160, "pitch": 35, "duration": 100, "velocity": 100}, {"time": 101280, "pitch": 38, "duration": 100, "velocity": 110}, {"time": 101400, "pitch": 37, "duration": 220, "velocity": 100}, {"time": 101640, "pitch": 33, "duration": 340, "velocity": 110}, {"time": 102000, "pitch": 33, "duration": 220, "velocity": 100}, {"time": 102240, "pitch": 28, "duration": 100, "velocity": 100}, {"time": 102360, "pitch": 33, "duration": 340, "velocity": 110}, {"time": 102720, "pitch": 33, "duration": 220, "velocity": 110}, {"time": 102960, "pitch": 35, "duration": 100, "velocity": 100}, {"time": 103080, "pitch": 35, "duration": 100, "velocity": 100}, {"time": 103200, "pitch": 38, "duration": 100, "velocity": 110}, {"time": 103320, "pitch": 37, "duration": 220, "velocity": 100}, {"time": 103560, "pitch": 31, "duration": 340, "velocity": 110}, {"time": 103920, "pitch": 31, "duration": 220, "velocity": 100}, {"time": 104160, "pitch": 30, "duration": 100, "velocity": 100}, {"time": 104280, "pitch": 31, "duration": 340, "velocity": 110}, {"time": 104640, "pitch": 33, "duration": 220, "velocity": 110}, {"time": 104880, "pitch": 35, "duration": 100, "velocity": 100}, {"time": 105000, "pitch": 35, "duration": 100, "velocity": 100}, {"time": 105120, "pitch": 38, "duration": 100, "velocity": 110}, {"time": 105240, "pitch": 37, "duration": 220, "velocity": 100}, {"time": 105480, "pitch": 33, "duration": 340, "velocity": 110}, {"time": 105840, "pitch": 33, "duration": 220, "velocity": 100}, {"time": 106080, "pitch": 28, "duration": 100, "velocity": 100}, {"time": 106200, "pitch": 33, "duration": 340, "velocity": 110}, {"time": 106560, "pitch": 33, "duration": 220, "velocity": 110}, {"time": 106800, "pitch": 35, "duration": 100, "velocity": 100}, {"time": 106920, "pitch": 35, "duration": 100, "velocity": 100}, {"time": 107040, "pitch": 40, "duration": 100, "velocity": 110}, {"time": 107160, "pitch": 38, "duration": 220, "velocity": 100}, {"time": 107400, "pitch": 35, "duration": 340, "velocity": 110}, {"time": 107760, "pitch": 35, "duration": 220, "velocity": 100}, {"time": 108000, "pitch": 30, "duration": 100, "velocity": 100}, {"time": 108120, "pitch": 33, "duration": 340, "velocity": 110}, {"time": 108480, "pitch": 33, "duration": 220, "velocity": 110}, {"time": 108720, "pitch": 35, "duration": 100, "velocity": 100}, {"time": 108840, "pitch": 35, "duration": 100, "velocity": 100}, {"time": 108960, "pitch": 38, "duration": 100, "velocity": 110}, {"time": 109080, "pitch": 37, "duration": 220, "velocity": 100}, {"time": 109320, "pitch": 33, "duration": 340, "velocity": 110}, {"time": 109680, "pitch": 33, "duration": 220, "velocity": 100}, {"time": 109920, "pitch": 28, "duration": 100, "velocity": 100}, {"time": 110040, "pitch": 33, "duration": 340, "velocity": 110}, {"time": 110400, "pitch": 33, "duration": 220, "velocity": 110}, {"time": 110640, "pitch": 35, "duration": 100, "velocity": 100}, {"time": 110760, "pitch": 35, "duration": 100, "velocity": 100}, {"time": 110880, "pitch": 38, "duration": 100, "velocity": 110}, {"time": 111000, "pitch": 37, "duration": 220, "velocity": 100}, {"time": 111240, "pitch": 31, "duration": 340, "velocity": 110}, {"time": 111600, "pitch": 31, "duration": 220, "velocity": 100}, {"time": 111840, "pitch": 30, "duration": 100, "velocity": 100}, {"time": 111960, "pitch": 31, "duration": 340, "velocity": 110}, {"time": 112320, "pitch": 33, "duration": 220, "velocity": 110}, {"time": 112560, "pitch": 35, "duration": 100, "velocity": 100}, {"time": 112680, "pitch": 35, "duration": 100, "velocity": 100}, {"time": 112800, "pitch": 38, "duration": 100, "velocity": 110}, {"time": 112920, "pitch": 37, "duration": 220, "velocity": 100}, {"time": 113160, "pitch": 33, "duration": 340, "velocity": 110}, {"time": 113520, "pitch": 33, "duration": 220, "velocity": 100}, {"time": 113760, "pitch": 30, "duration": 100, "velocity": 100}, {"time": 113880, "pitch": 33, "duration": 340, "velocity": 110}, {"time": 114240, "pitch": 33, "duration": 220, "velocity": 110}, {"time": 114480, "pitch": 35, "duration": 100, "velocity": 110}, {"time": 114720, "pitch": 33, "duration": 100, "velocity": 110}, {"time": 114840, "pitch": 32, "duration": 100, "velocity": 100}, {"time": 115080, "pitch": 31, "duration": 220, "velocity": 110}, {"time": 115320, "pitch": 31, "duration": 100, "velocity": 100}, {"time": 115440, "pitch": 31, "duration": 220, "velocity": 100}, {"time": 115680, "pitch": 31, "duration": 100, "velocity": 110}, {"time": 115800, "pitch": 31, "duration": 100, "velocity": 100}, {"time": 115920, "pitch": 31, "duration": 220, "velocity": 100}, {"time": 116160, "pitch": 31, "duration": 220, "velocity": 110}, {"time": 116400, "pitch": 31, "duration": 100, "velocity": 100}, {"time": 116520, "pitch": 31, "duration": 100, "velocity": 100}, {"time": 116640, "pitch": 31, "duration": 100, "velocity": 110}, {"time": 116760, "pitch": 31, "duration": 100, "velocity": 100}, {"time": 116880, "pitch": 31, "duration": 100, "velocity": 100}, {"time": 117000, "pitch": 31, "duration": 220, "velocity": 110}, {"time": 117240, "pitch": 31, "duration": 100, "velocity": 100}, {"time": 117360, "pitch": 31, "duration": 220, "velocity": 100}, {"time": 117600, "pitch": 31, "duration": 100, "velocity": 110}, {"time": 117720, "pitch": 31, "duration": 100, "velocity": 100}, {"time": 117840, "pitch": 31, "duration": 220, "velocity": 100}, {"time": 118080, "pitch": 31, "duration": 220, "velocity": 110}, {"time": 118320, "pitch": 31, "duration": 100, "velocity": 100}, {"time": 118440, "pitch": 31, "duration": 100, "velocity": 100}, {"time": 118560, "pitch": 31, "duration": 100, "velocity": 110}, {"time": 118680, "pitch": 31, "duration": 100, "velocity": 100}, {"time": 118800, "pitch": 31, "duration": 100, "velocity": 100}, {"time": 118920, "pitch": 33, "duration": 220, "velocity": 110}, {"time": 119160, "pitch": 33, "duration": 100, "velocity": 100}, {"time": 119280, "pitch": 33, "duration": 220, "velocity": 100}, {"time": 119520, "pitch": 33, "duration": 100, "velocity": 110}, {"time": 119640, "pitch": 33, "duration": 100, "velocity": 100}, {"time": 119760, "pitch": 33, "duration": 220, "velocity": 100}, {"time": 120000, "pitch": 33, "duration": 220, "velocity": 110}, {"time": 120240, "pitch": 33, "duration": 100, "velocity": 100}, {"time": 120360, "pitch": 33, "duration": 100, "velocity": 100}, {"time": 120480, "pitch": 33, "duration": 100, "velocity": 110}, {"time": 120600, "pitch": 33, "duration": 100, "velocity": 100}, {"time": 120720, "pitch": 35, "duration": 1660, "velocity": 110}, {"time": 122400, "pitch": 35, "duration": 100, "velocity": 110}, {"time": 122520, "pitch": 33, "duration": 100, "velocity": 110}, {"time": 122760, "pitch": 31, "duration": 220, "velocity": 110}, {"time": 123000, "pitch": 31, "duration": 100, "velocity": 100}, {"time": 123120, "pitch": 31, "duration": 220, "velocity": 100}, {"time": 123360, "pitch": 31, "duration": 100, "velocity": 110}, {"time": 123480, "pitch": 31, "duration": 100, "velocity": 100}, {"time": 123600, "pitch": 31, "duration": 220, "velocity": 100}, {"time": 123840, "pitch": 31, "duration": 220, "velocity": 110}, {"time": 124080, "pitch": 31, "duration": 100, "velocity": 100}, {"time": 124200, "pitch": 31, "duration": 100, "velocity": 100}, {"time": 124320, "pitch": 31, "duration": 100, "velocity": 110}, {"time": 124440, "pitch": 31, "duration": 100, "velocity": 100}, {"time": 124560, "pitch": 31, "duration": 100, "velocity": 100}, {"time": 124680, "pitch": 31, "duration": 220, "velocity": 110}, {"time": 124920, "pitch": 31, "duration": 100, "velocity": 100}, {"time": 125040, "pitch": 31, "duration": 220, "velocity": 100}, {"time": 125280, "pitch": 31, "duration": 100, "velocity": 110}, {"time": 125400, "pitch": 31, "duration": 100, "velocity": 100}, {"time": 125520, "pitch": 31, "duration": 220, "velocity": 100}, {"time": 125760, "pitch": 31, "duration": 220, "velocity": 110}, {"time": 126000, "pitch": 31, "duration": 100, "velocity": 100}, {"time": 126120, "pitch": 31, "duration": 100, "velocity": 100}, {"time": 126240, "pitch": 31, "duration": 100, "velocity": 110}, {"time": 126360, "pitch": 31, "duration": 100, "velocity": 100}, {"time": 126480, "pitch": 31, "duration": 100, "velocity": 100}, {"time": 126600, "pitch": 33, "duration": 220, "velocity": 110}, {"time": 126840, "pitch": 33, "duration": 100, "velocity": 100}, {"time": 126960, "pitch": 33, "duration": 220, "velocity": 100}, {"time": 127200, "pitch": 33, "duration": 100, "velocity": 110}, {"time": 127320, "pitch": 33, "duration": 100, "velocity": 100}, {"time": 127440, "pitch": 33, "duration": 220, "velocity": 100}, {"time": 127680, "pitch": 33, "duration": 220, "velocity": 110}, {"time": 127920, "pitch": 33, "duration": 100, "velocity": 100}, {"time": 128040, "pitch": 33, "duration": 100, "velocity": 100}, {"time": 128160, "pitch": 33, "duration": 100, "velocity": 110}, {"time": 128280, "pitch": 33, "duration": 100, "velocity": 100}, {"time": 128520, "pitch": 42, "duration": 220, "velocity": 110}, {"time": 128760, "pitch": 42, "duration": 100, "velocity": 100}, {"time": 128880, "pitch": 42, "duration": 220, "velocity": 100}, {"time": 129120, "pitch": 40, "duration": 100, "velocity": 110}, {"time": 129240, "pitch": 41, "duration": 120, "velocity": 100}, {"time": 129480, "pitch": 42, "duration": 150, "velocity": 110}, {"time": 130440, "pitch": 35, "duration": 340, "velocity": 110}, {"time": 130800, "pitch": 35, "duration": 220, "velocity": 100}, {"time": 131040, "pitch": 30, "duration": 100, "velocity": 100}, {"time": 131160, "pitch": 33, "duration": 220, "velocity": 110}, {"time": 131400, "pitch": 35, "duration": 220, "velocity": 110}, {"time": 131640, "pitch": 35, "duration": 100, "velocity": 100}, {"time": 131760, "pitch": 35, "duration": 100, "velocity": 100}, {"time": 131880, "pitch": 35, "duration": 100, "velocity": 100}, {"time": 132000, "pitch": 38, "duration": 100, "velocity": 110}, {"time": 132120, "pitch": 37, "duration": 220, "velocity": 100}, {"time": 132360, "pitch": 33, "duration": 340, "velocity": 110}, {"time": 132720, "pitch": 33, "duration": 220, "velocity": 100}, {"time": 132960, "pitch": 30, "duration": 100, "velocity": 100}, {"time": 133080, "pitch": 33, "duration": 220, "velocity": 110}, {"time": 133320, "pitch": 33, "duration": 220, "velocity": 110}, {"time": 133560, "pitch": 33, "duration": 100, "velocity": 100}, {"time": 133680, "pitch": 33, "duration": 100, "velocity": 100}, {"time": 133800, "pitch": 33, "duration": 100, "velocity": 100}, {"time": 133920, "pitch": 38, "duration": 100, "velocity": 110}, {"time": 134040, "pitch": 37, "duration": 220, "velocity": 100}, {"time": 134280, "pitch": 31, "duration": 340, "velocity": 110}, {"time": 134640, "pitch": 31, "duration": 220, "velocity": 100}, {"time": 134880, "pitch": 30, "duration": 100, "velocity": 100}, {"time": 135000, "pitch": 31, "duration": 220, "velocity": 110}, {"time": 135240, "pitch": 31, "duration": 220, "velocity": 110}, {"time": 135480, "pitch": 31, "duration": 100, "velocity": 100}, {"time": 135600, "pitch": 31, "duration": 100, "velocity": 100}, {"time": 135720, "pitch": 31, "duration": 100, "velocity": 100}, {"time": 135840, "pitch": 38, "duration": 100, "velocity": 110}, {"time": 135960, "pitch": 37, "duration": 220, "velocity": 100}, {"time": 136200, "pitch": 33, "duration": 340, "velocity": 110}, {"time": 136560, "pitch": 33, "duration": 220, "velocity": 100}, {"time": 136800, "pitch": 30, "duration": 100, "velocity": 100}, {"time": 136920, "pitch": 33, "duration": 220, "velocity": 110}, {"time": 137160, "pitch": 33, "duration": 220, "velocity": 110}, {"time": 137400, "pitch": 33, "duration": 100, "velocity": 100}, {"time": 137520, "pitch": 33, "duration": 100, "velocity": 100}, {"time": 137640, "pitch": 33, "duration": 100, "velocity": 100}, {"time": 137760, "pitch": 40, "duration": 100, "velocity": 110}, {"time": 137880, "pitch": 38, "duration": 220, "velocity": 100}, {"time": 138120, "pitch": 35, "duration": 340, "velocity": 110}, {"time": 138480, "pitch": 35, "duration": 220, "velocity": 100}, {"time": 138720, "pitch": 30, "duration": 100, "velocity": 100}, {"time": 138840, "pitch": 33, "duration": 220, "velocity": 110}, {"time": 139080, "pitch": 35, "duration": 220, "velocity": 110}, {"time": 139320, "pitch": 35, "duration": 100, "velocity": 100}, {"time": 139440, "pitch": 35, "duration": 100, "velocity": 100}, {"time": 139560, "pitch": 35, "duration": 100, "velocity": 100}, {"time": 139680, "pitch": 38, "duration": 100, "velocity": 110}, {"time": 139800, "pitch": 37, "duration": 220, "velocity": 100}, {"time": 140040, "pitch": 33, "duration": 340, "velocity": 110}, {"time": 140400, "pitch": 33, "duration": 220, "velocity": 100}, {"time": 140640, "pitch": 30, "duration": 100, "velocity": 100}, {"time": 140760, "pitch": 33, "duration": 220, "velocity": 110}, {"time": 141000, "pitch": 33, "duration": 220, "velocity": 110}, {"time": 141240, "pitch": 33, "duration": 100, "velocity": 100}, {"time": 141360, "pitch": 33, "duration": 100, "velocity": 100}, {"time": 141480, "pitch": 33, "duration": 100, "velocity": 100}, {"time": 141600, "pitch": 38, "duration": 100, "velocity": 110}, {"time": 141720, "pitch": 37, "duration": 220, "velocity": 100}, {"time": 141960, "pitch": 31, "duration": 340, "velocity": 110}, {"time": 142320, "pitch": 31, "duration": 220, "velocity": 100}, {"time": 142560, "pitch": 30, "duration": 100, "velocity": 100}, {"time": 142680, "pitch": 31, "duration": 220, "velocity": 110}, {"time": 142920, "pitch": 31, "duration": 220, "velocity": 110}, {"time": 143160, "pitch": 31, "duration": 100, "velocity": 100}, {"time": 143280, "pitch": 31, "duration": 100, "velocity": 100}, {"time": 143400, "pitch": 31, "duration": 100, "velocity": 100}, {"time": 143520, "pitch": 38, "duration": 100, "velocity": 110}, {"time": 143640, "pitch": 37, "duration": 220, "velocity": 100}, {"time": 143880, "pitch": 33, "duration": 340, "velocity": 110}, {"time": 144240, "pitch": 33, "duration": 220, "velocity": 100}, {"time": 144480, "pitch": 30, "duration": 100, "velocity": 100}, {"time": 144600, "pitch": 33, "duration": 220, "velocity": 110}, {"time": 144840, "pitch": 33, "duration": 220, "velocity": 110}, {"time": 145080, "pitch": 33, "duration": 100, "velocity": 100}, {"time": 145200, "pitch": 33, "duration": 100, "velocity": 100}, {"time": 145320, "pitch": 33, "duration": 100, "velocity": 100}, {"time": 145440, "pitch": 33, "duration": 100, "velocity": 110}, {"time": 145560, "pitch": 32, "duration": 100, "velocity": 100}, {"time": 145800, "pitch": 31, "duration": 220, "velocity": 110}, {"time": 146040, "pitch": 31, "duration": 100, "velocity": 100}, {"time": 146160, "pitch": 31, "duration": 220, "velocity": 100}, {"time": 146400, "pitch": 31, "duration": 100, "velocity": 110}, {"time": 146520, "pitch": 31, "duration": 100, "velocity": 100}, {"time": 146640, "pitch": 31, "duration": 100, "velocity": 100}, {"time": 146760, "pitch": 33, "duration": 220, "velocity": 110}, {"time": 147000, "pitch": 33, "duration": 100, "velocity": 100}, {"time": 147120, "pitch": 33, "duration": 220, "velocity": 100}, {"time": 147360, "pitch": 33, "duration": 100, "velocity": 110}, {"time": 147480, "pitch": 33, "duration": 100, "velocity": 110}, {"time": 147600, "pitch": 33, "duration": 100, "velocity": 110}, {"time": 147720, "pitch": 35, "duration": 100, "velocity": 110}, {"time": 149640, "pitch": 35, "duration": 340, "velocity": 110}, {"time": 150000, "pitch": 35, "duration": 220, "velocity": 100}, {"time": 150240, "pitch": 30, "duration": 100, "velocity": 100}, {"time": 150360, "pitch": 33, "duration": 340, "velocity": 110}, {"time": 150720, "pitch": 33, "duration": 220, "velocity": 110}, {"time": 150960, "pitch": 35, "duration": 100, "velocity": 100}, {"time": 151080, "pitch": 35, "duration": 100, "velocity": 100}, {"time": 151200, "pitch": 38, "duration": 100, "velocity": 110}, {"time": 151320, "pitch": 37, "duration": 220, "velocity": 100}, {"time": 151560, "pitch": 33, "duration": 340, "velocity": 110}, {"time": 151920, "pitch": 33, "duration": 220, "velocity": 100}, {"time": 152160, "pitch": 28, "duration": 100, "velocity": 100}, {"time": 152280, "pitch": 33, "duration": 340, "velocity": 110}, {"time": 152640, "pitch": 33, "duration": 220, "velocity": 110}, {"time": 152880, "pitch": 35, "duration": 100, "velocity": 100}, {"time": 153000, "pitch": 35, "duration": 100, "velocity": 100}, {"time": 153120, "pitch": 38, "duration": 100, "velocity": 110}, {"time": 153240, "pitch": 37, "duration": 220, "velocity": 100}, {"time": 153480, "pitch": 31, "duration": 340, "velocity": 110}, {"time": 153840, "pitch": 31, "duration": 220, "velocity": 100}, {"time": 154080, "pitch": 30, "duration": 100, "velocity": 100}, {"time": 154200, "pitch": 31, "duration": 340, "velocity": 110}, {"time": 154560, "pitch": 33, "duration": 220, "velocity": 110}, {"time": 154800, "pitch": 35, "duration": 100, "velocity": 100}, {"time": 154920, "pitch": 35, "duration": 100, "velocity": 100}, {"time": 155040, "pitch": 38, "duration": 100, "velocity": 110}, {"time": 155160, "pitch": 37, "duration": 220, "velocity": 100}, {"time": 155400, "pitch": 33, "duration": 220, "velocity": 110}, {"time": 155640, "pitch": 38, "duration": 100, "velocity": 100}, {"time": 155760, "pitch": 37, "duration": 100, "velocity": 100}, {"time": 155880, "pitch": 38, "duration": 100, "velocity": 110}, {"time": 156000, "pitch": 40, "duration": 100, "velocity": 110}, {"time": 156120, "pitch": 38, "duration": 100, "velocity": 100}, {"time": 156240, "pitch": 42, "duration": 100, "velocity": 100}, {"time": 156360, "pitch": 40, "duration": 100, "velocity": 110}, {"time": 156480, "pitch": 38, "duration": 100, "velocity": 100}, {"time": 156600, "pitch": 37, "duration": 100, "velocity": 110}, {"time": 156720, "pitch": 35, "duration": 100, "velocity": 100}, {"time": 156840, "pitch": 38, "duration": 100, "velocity": 110}, {"time": 156960, "pitch": 37, "duration": 100, "velocity": 100}, {"time": 157080, "pitch": 35, "duration": 100, "velocity": 110}, {"time": 157200, "pitch": 33, "duration": 100, "velocity": 100}, {"time": 157320, "pitch": 35, "duration": 340, "velocity": 110}, {"time": 157680, "pitch": 35, "duration": 220, "velocity": 100}, {"time": 157920, "pitch": 30, "duration": 100, "velocity": 100}, {"time": 158040, "pitch": 33, "duration": 340, "velocity": 110}, {"time": 158400, "pitch": 33, "duration": 220, "velocity": 110}, {"time": 158640, "pitch": 35, "duration": 100, "velocity": 100}, {"time": 158760, "pitch": 35, "duration": 100, "velocity": 100}, {"time": 158880, "pitch": 38, "duration": 100, "velocity": 110}, {"time": 159000, "pitch": 37, "duration": 220, "velocity": 100}, {"time": 159240, "pitch": 33, "duration": 340, "velocity": 110}, {"time": 159600, "pitch": 33, "duration": 220, "velocity": 100}, {"time": 159840, "pitch": 28, "duration": 100, "velocity": 100}, {"time": 159960, "pitch": 33, "duration": 340, "velocity": 110}, {"time": 160320, "pitch": 33, "duration": 220, "velocity": 110}, {"time": 160560, "pitch": 35, "duration": 100, "velocity": 100}, {"time": 160680, "pitch": 35, "duration": 100, "velocity": 100}, {"time": 160800, "pitch": 38, "duration": 100, "velocity": 110}, {"time": 160920, "pitch": 37, "duration": 220, "velocity": 100}, {"time": 161160, "pitch": 31, "duration": 340, "velocity": 110}, {"time": 161520, "pitch": 31, "duration": 220, "velocity": 100}, {"time": 161760, "pitch": 30, "duration": 100, "velocity": 100}, {"time": 161880, "pitch": 31, "duration": 340, "velocity": 110}, {"time": 162240, "pitch": 33, "duration": 220, "velocity": 110}, {"time": 162480, "pitch": 35, "duration": 100, "velocity": 100}, {"time": 162600, "pitch": 35, "duration": 100, "velocity": 100}, {"time": 162720, "pitch": 38, "duration": 100, "velocity": 110}, {"time": 162840, "pitch": 37, "duration": 220, "velocity": 100}, {"time": 163080, "pitch": 33, "duration": 340, "velocity": 110}, {"time": 163440, "pitch": 33, "duration": 220, "velocity": 100}, {"time": 163680, "pitch": 30, "duration": 100, "velocity": 100}, {"time": 163800, "pitch": 33, "duration": 340, "velocity": 110}, {"time": 164160, "pitch": 33, "duration": 220, "velocity": 110}, {"time": 164400, "pitch": 35, "duration": 100, "velocity": 100}, {"time": 164520, "pitch": 35, "duration": 100, "velocity": 100}, {"time": 164640, "pitch": 35, "duration": 100, "velocity": 110}, {"time": 164760, "pitch": 33, "duration": 100, "velocity": 100}, {"time": 165000, "pitch": 31, "duration": 220, "velocity": 110}, {"time": 165240, "pitch": 31, "duration": 100, "velocity": 100}, {"time": 165360, "pitch": 31, "duration": 220, "velocity": 100}, {"time": 165600, "pitch": 31, "duration": 100, "velocity": 110}, {"time": 165720, "pitch": 31, "duration": 100, "velocity": 100}, {"time": 165840, "pitch": 31, "duration": 220, "velocity": 100}, {"time": 166080, "pitch": 31, "duration": 220, "velocity": 110}, {"time": 166320, "pitch": 31, "duration": 100, "velocity": 100}, {"time": 166440, "pitch": 31, "duration": 100, "velocity": 100}, {"time": 166560, "pitch": 31, "duration": 100, "velocity": 110}, {"time": 166680, "pitch": 31, "duration": 100, "velocity": 100}, {"time": 166800, "pitch": 31, "duration": 100, "velocity": 100}, {"time": 166920, "pitch": 33, "duration": 220, "velocity": 110}, {"time": 167160, "pitch": 33, "duration": 100, "velocity": 100}, {"time": 167280, "pitch": 33, "duration": 220, "velocity": 100}, {"time": 167520, "pitch": 33, "duration": 100, "velocity": 110}, {"time": 167640, "pitch": 33, "duration": 100, "velocity": 100}, {"time": 167760, "pitch": 33, "duration": 220, "velocity": 100}, {"time": 168000, "pitch": 33, "duration": 220, "velocity": 110}, {"time": 168240, "pitch": 33, "duration": 100, "velocity": 100}, {"time": 168360, "pitch": 33, "duration": 100, "velocity": 100}, {"time": 168480, "pitch": 33, "duration": 100, "velocity": 110}, {"time": 168600, "pitch": 33, "duration": 100, "velocity": 100}, {"time": 168720, "pitch": 33, "duration": 100, "velocity": 100}, {"time": 168840, "pitch": 34, "duration": 220, "velocity": 110}, {"time": 169080, "pitch": 34, "duration": 100, "velocity": 100}, {"time": 169200, "pitch": 34, "duration": 220, "velocity": 100}, {"time": 169440, "pitch": 34, "duration": 100, "velocity": 110}, {"time": 169560, "pitch": 34, "duration": 100, "velocity": 100}, {"time": 169680, "pitch": 34, "duration": 220, "velocity": 100}, {"time": 169920, "pitch": 34, "duration": 220, "velocity": 110}, {"time": 170160, "pitch": 34, "duration": 100, "velocity": 100}, {"time": 170280, "pitch": 34, "duration": 100, "velocity": 100}, {"time": 170400, "pitch": 34, "duration": 100, "velocity": 110}, {"time": 170520, "pitch": 34, "duration": 100, "velocity": 100}, {"time": 170640, "pitch": 34, "duration": 100, "velocity": 100}, {"time": 170760, "pitch": 42, "duration": 220, "velocity": 110}, {"time": 171000, "pitch": 42, "duration": 100, "velocity": 100}, {"time": 171120, "pitch": 42, "duration": 220, "velocity": 100}, {"time": 171360, "pitch": 42, "duration": 100, "velocity": 110}, {"time": 171480, "pitch": 42, "duration": 100, "velocity": 100}, {"time": 171600, "pitch": 42, "duration": 220, "velocity": 100}, {"time": 171840, "pitch": 42, "duration": 220, "velocity": 110}, {"time": 172080, "pitch": 42, "duration": 220, "velocity": 100}, {"time": 172320, "pitch": 35, "duration": 100, "velocity": 110}, {"time": 172440, "pitch": 33, "duration": 100, "velocity": 100}, {"time": 172680, "pitch": 31, "duration": 220, "velocity": 110}, {"time": 172920, "pitch": 31, "duration": 100, "velocity": 100}, {"time": 173040, "pitch": 31, "duration": 220, "velocity": 100}, {"time": 173280, "pitch": 31, "duration": 100, "velocity": 110}, {"time": 173400, "pitch": 31, "duration": 100, "velocity": 100}, {"time": 173520, "pitch": 31, "duration": 220, "velocity": 100}, {"time": 173760, "pitch": 31, "duration": 220, "velocity": 110}, {"time": 174000, "pitch": 31, "duration": 100, "velocity": 100}, {"time": 174120, "pitch": 31, "duration": 100, "velocity": 100}, {"time": 174240, "pitch": 31, "duration": 100, "velocity": 110}, {"time": 174360, "pitch": 31, "duration": 100, "velocity": 100}, {"time": 174480, "pitch": 31, "duration": 100, "velocity": 100}, {"time": 174600, "pitch": 31, "duration": 220, "velocity": 110}, {"time": 174840, "pitch": 31, "duration": 100, "velocity": 100}, {"time": 174960, "pitch": 31, "duration": 220, "velocity": 100}, {"time": 175200, "pitch": 31, "duration": 100, "velocity": 110}, {"time": 175320, "pitch": 31, "duration": 100, "velocity": 100}, {"time": 175440, "pitch": 31, "duration": 220, "velocity": 100}, {"time": 175680, "pitch": 31, "duration": 220, "velocity": 110}, {"time": 175920, "pitch": 31, "duration": 100, "velocity": 100}, {"time": 176040, "pitch": 31, "duration": 100, "velocity": 100}, {"time": 176160, "pitch": 31, "duration": 100, "velocity": 110}, {"time": 176280, "pitch": 31, "duration": 100, "velocity": 100}, {"time": 176400, "pitch": 31, "duration": 100, "velocity": 100}, {"time": 176520, "pitch": 33, "duration": 220, "velocity": 110}, {"time": 176760, "pitch": 33, "duration": 100, "velocity": 100}, {"time": 176880, "pitch": 33, "duration": 220, "velocity": 100}, {"time": 177120, "pitch": 33, "duration": 100, "velocity": 110}, {"time": 177240, "pitch": 33, "duration": 100, "velocity": 100}, {"time": 177360, "pitch": 33, "duration": 220, "velocity": 100}, {"time": 177600, "pitch": 33, "duration": 220, "velocity": 110}, {"time": 177840, "pitch": 33, "duration": 100, "velocity": 100}, {"time": 177960, "pitch": 33, "duration": 100, "velocity": 100}, {"time": 178080, "pitch": 33, "duration": 100, "velocity": 110}, {"time": 178200, "pitch": 33, "duration": 100, "velocity": 100}, {"time": 178320, "pitch": 35, "duration": 1660, "velocity": 110}, {"time": 180000, "pitch": 35, "duration": 100, "velocity": 110}, {"time": 180120, "pitch": 33, "duration": 100, "velocity": 110}, {"time": 180360, "pitch": 31, "duration": 220, "velocity": 110}, {"time": 180600, "pitch": 31, "duration": 100, "velocity": 100}, {"time": 180720, "pitch": 31, "duration": 220, "velocity": 100}, {"time": 180960, "pitch": 31, "duration": 100, "velocity": 110}, {"time": 181080, "pitch": 31, "duration": 100, "velocity": 100}, {"time": 181200, "pitch": 31, "duration": 220, "velocity": 100}, {"time": 181440, "pitch": 31, "duration": 220, "velocity": 110}, {"time": 181680, "pitch": 31, "duration": 100, "velocity": 100}, {"time": 181800, "pitch": 31, "duration": 100, "velocity": 100}, {"time": 181920, "pitch": 31, "duration": 100, "velocity": 110}, {"time": 182040, "pitch": 31, "duration": 100, "velocity": 100}, {"time": 182160, "pitch": 31, "duration": 100, "velocity": 100}, {"time": 182280, "pitch": 31, "duration": 220, "velocity": 110}, {"time": 182520, "pitch": 31, "duration": 100, "velocity": 100}, {"time": 182640, "pitch": 31, "duration": 220, "velocity": 100}, {"time": 182880, "pitch": 31, "duration": 100, "velocity": 110}, {"time": 183000, "pitch": 31, "duration": 100, "velocity": 100}, {"time": 183120, "pitch": 31, "duration": 220, "velocity": 100}, {"time": 183360, "pitch": 31, "duration": 220, "velocity": 110}, {"time": 183600, "pitch": 31, "duration": 100, "velocity": 100}, {"time": 183720, "pitch": 31, "duration": 100, "velocity": 100}, {"time": 183840, "pitch": 31, "duration": 100, "velocity": 110}, {"time": 183960, "pitch": 31, "duration": 100, "velocity": 100}, {"time": 184080, "pitch": 31, "duration": 100, "velocity": 100}, {"time": 184200, "pitch": 33, "duration": 220, "velocity": 110}, {"time": 184440, "pitch": 33, "duration": 100, "velocity": 100}, {"time": 184560, "pitch": 33, "duration": 220, "velocity": 100}, {"time": 184800, "pitch": 33, "duration": 100, "velocity": 110}, {"time": 184920, "pitch": 33, "duration": 100, "velocity": 100}, {"time": 185040, "pitch": 33, "duration": 220, "velocity": 100}, {"time": 185280, "pitch": 33, "duration": 220, "velocity": 110}, {"time": 185520, "pitch": 33, "duration": 100, "velocity": 100}, {"time": 185640, "pitch": 33, "duration": 100, "velocity": 100}, {"time": 185760, "pitch": 33, "duration": 100, "velocity": 110}, {"time": 185880, "pitch": 33, "duration": 100, "velocity": 100}, {"time": 186120, "pitch": 42, "duration": 220, "velocity": 110}, {"time": 186360, "pitch": 42, "duration": 100, "velocity": 100}, {"time": 186480, "pitch": 42, "duration": 220, "velocity": 100}, {"time": 186720, "pitch": 40, "duration": 100, "velocity": 110}, {"time": 186840, "pitch": 41, "duration": 100, "velocity": 100}, {"time": 187080, "pitch": 42, "duration": 150, "velocity": 110}, {"time": 188040, "pitch": 43, "duration": 570, "velocity": 110}, {"time": 218760, "pitch": 31, "duration": 220, "velocity": 110}, {"time": 219000, "pitch": 31, "duration": 100, "velocity": 110}, {"time": 219120, "pitch": 38, "duration": 220, "velocity": 100}, {"time": 219360, "pitch": 43, "duration": 100, "velocity": 100}, {"time": 219480, "pitch": 43, "duration": 100, "velocity": 110}, {"time": 219600, "pitch": 38, "duration": 100, "velocity": 110}, {"time": 219720, "pitch": 43, "duration": 220, "velocity": 110}, {"time": 219960, "pitch": 43, "duration": 100, "velocity": 100}, {"time": 220080, "pitch": 38, "duration": 220, "velocity": 100}, {"time": 220320, "pitch": 43, "duration": 100, "velocity": 110}, {"time": 220440, "pitch": 45, "duration": 100, "velocity": 110}, {"time": 220560, "pitch": 43, "duration": 100, "velocity": 100}, {"time": 220680, "pitch": 42, "duration": 220, "velocity": 110}, {"time": 220920, "pitch": 42, "duration": 100, "velocity": 110}, {"time": 221040, "pitch": 37, "duration": 220, "velocity": 100}, {"time": 221280, "pitch": 42, "duration": 100, "velocity": 110}, {"time": 221400, "pitch": 42, "duration": 100, "velocity": 110}, {"time": 221520, "pitch": 37, "duration": 100, "velocity": 100}, {"time": 221640, "pitch": 42, "duration": 220, "velocity": 110}, {"time": 221880, "pitch": 42, "duration": 100, "velocity": 100}, {"time": 222000, "pitch": 37, "duration": 220, "velocity": 100}, {"time": 222240, "pitch": 42, "duration": 100, "velocity": 110}, {"time": 222360, "pitch": 42, "duration": 100, "velocity": 100}, {"time": 222480, "pitch": 37, "duration": 100, "velocity": 100}, {"time": 222600, "pitch": 40, "duration": 220, "velocity": 110}, {"time": 222840, "pitch": 40, "duration": 100, "velocity": 100}, {"time": 222960, "pitch": 35, "duration": 220, "velocity": 100}, {"time": 223200, "pitch": 40, "duration": 100, "velocity": 110}, {"time": 223320, "pitch": 40, "duration": 100, "velocity": 110}, {"time": 223440, "pitch": 35, "duration": 100, "velocity": 100}, {"time": 223560, "pitch": 40, "duration": 220, "velocity": 110}, {"time": 223800, "pitch": 40, "duration": 100, "velocity": 110}, {"time": 223920, "pitch": 35, "duration": 220, "velocity": 100}, {"time": 224160, "pitch": 40, "duration": 100, "velocity": 110}, {"time": 224280, "pitch": 40, "duration": 100, "velocity": 100}, {"time": 224400, "pitch": 41, "duration": 100, "velocity": 100}, {"time": 224520, "pitch": 42, "duration": 220, "velocity": 110}, {"time": 224760, "pitch": 42, "duration": 100, "velocity": 110}, {"time": 224880, "pitch": 37, "duration": 220, "velocity": 100}, {"time": 225120, "pitch": 42, "duration": 100, "velocity": 110}, {"time": 225240, "pitch": 42, "duration": 100, "velocity": 110}, {"time": 225360, "pitch": 37, "duration": 220, "velocity": 100}, {"time": 225600, "pitch": 45, "duration": 220, "velocity": 110}, {"time": 225840, "pitch": 43, "duration": 220, "velocity": 110}, {"time": 226080, "pitch": 42, "duration": 220, "velocity": 100}, {"time": 226320, "pitch": 40, "duration": 100, "velocity": 100}, {"time": 226440, "pitch": 43, "duration": 220, "velocity": 110}, {"time": 226680, "pitch": 43, "duration": 100, "velocity": 110}, {"time": 226800, "pitch": 38, "duration": 220, "velocity": 100}, {"time": 227040, "pitch": 43, "duration": 100, "velocity": 100}, {"time": 227160, "pitch": 43, "duration": 100, "velocity": 110}, {"time": 227280, "pitch": 38, "duration": 100, "velocity": 110}, {"time": 227400, "pitch": 43, "duration": 220, "velocity": 110}, {"time": 227640, "pitch": 43, "duration": 100, "velocity": 100}, {"time": 227760, "pitch": 38, "duration": 220, "velocity": 100}, {"time": 228000, "pitch": 43, "duration": 100, "velocity": 110}, {"time": 228120, "pitch": 45, "duration": 100, "velocity": 110}, {"time": 228240, "pitch": 43, "duration": 100, "velocity": 100}, {"time": 228360, "pitch": 42, "duration": 220, "velocity": 110}, {"time": 228600, "pitch": 42, "duration": 100, "velocity": 110}, {"time": 228720, "pitch": 37, "duration": 220, "velocity": 100}, {"time": 228960, "pitch": 42, "duration": 100, "velocity": 110}, {"time": 229080, "pitch": 42, "duration": 100, "velocity": 110}, {"time": 229200, "pitch": 37, "duration": 100, "velocity": 100}, {"time": 229320, "pitch": 42, "duration": 220, "velocity": 110}, {"time": 229560, "pitch": 42, "duration": 100, "velocity": 100}, {"time": 229680, "pitch": 37, "duration": 220, "velocity": 100}, {"time": 229920, "pitch": 42, "duration": 100, "velocity": 110}, {"time": 230040, "pitch": 42, "duration": 100, "velocity": 100}, {"time": 230160, "pitch": 37, "duration": 100, "velocity": 100}, {"time": 230280, "pitch": 40, "duration": 220, "velocity": 110}, {"time": 230520, "pitch": 40, "duration": 100, "velocity": 100}, {"time": 230640, "pitch": 35, "duration": 220, "velocity": 100}, {"time": 230880, "pitch": 40, "duration": 100, "velocity": 110}, {"time": 231000, "pitch": 40, "duration": 100, "velocity": 110}, {"time": 231120, "pitch": 35, "duration": 100, "velocity": 100}, {"time": 231240, "pitch": 40, "duration": 220, "velocity": 110}, {"time": 231480, "pitch": 40, "duration": 100, "velocity": 110}, {"time": 231600, "pitch": 35, "duration": 220, "velocity": 100}, {"time": 231840, "pitch": 40, "duration": 100, "velocity": 110}, {"time": 231960, "pitch": 40, "duration": 100, "velocity": 100}, {"time": 232080, "pitch": 41, "duration": 100, "velocity": 100}, {"time": 232200, "pitch": 42, "duration": 220, "velocity": 110}, {"time": 232440, "pitch": 42, "duration": 100, "velocity": 110}, {"time": 232560, "pitch": 42, "duration": 220, "velocity": 100}, {"time": 232800, "pitch": 42, "duration": 100, "velocity": 110}, {"time": 232920, "pitch": 42, "duration": 100, "velocity": 110}, {"time": 233040, "pitch": 42, "duration": 220, "velocity": 100}, {"time": 233280, "pitch": 42, "duration": 220, "velocity": 110}, {"time": 233520, "pitch": 37, "duration": 220, "velocity": 110}, {"time": 233760, "pitch": 30, "duration": 220, "velocity": 100}, {"time": 234000, "pitch": 30, "duration": 100, "velocity": 100}, {"time": 234120, "pitch": 35, "duration": 340, "velocity": 110}, {"time": 234480, "pitch": 35, "duration": 100, "velocity": 100}, {"time": 234600, "pitch": 35, "duration": 100, "velocity": 100}, {"time": 234720, "pitch": 35, "duration": 100, "velocity": 110}, {"time": 234840, "pitch": 35, "duration": 100, "velocity": 100}, {"time": 234960, "pitch": 35, "duration": 100, "velocity": 100}, {"time": 235080, "pitch": 35, "duration": 100, "velocity": 100}, {"time": 235200, "pitch": 35, "duration": 100, "velocity": 110}, {"time": 235320, "pitch": 35, "duration": 100, "velocity": 100}, {"time": 235440, "pitch": 35, "duration": 100, "velocity": 100}, {"time": 235560, "pitch": 35, "duration": 100, "velocity": 100}, {"time": 235680, "pitch": 35, "duration": 100, "velocity": 110}, {"time": 235800, "pitch": 35, "duration": 100, "velocity": 100}, {"time": 235920, "pitch": 35, "duration": 100, "velocity": 100}, {"time": 236040, "pitch": 35, "duration": 220, "velocity": 110}, {"time": 236280, "pitch": 35, "duration": 100, "velocity": 100}, {"time": 236400, "pitch": 35, "duration": 100, "velocity": 100}, {"time": 236520, "pitch": 35, "duration": 100, "velocity": 100}, {"time": 236640, "pitch": 35, "duration": 100, "velocity": 110}, {"time": 236760, "pitch": 35, "duration": 100, "velocity": 100}, {"time": 236880, "pitch": 35, "duration": 100, "velocity": 100}, {"time": 237000, "pitch": 35, "duration": 100, "velocity": 100}, {"time": 237120, "pitch": 35, "duration": 100, "velocity": 110}, {"time": 237240, "pitch": 35, "duration": 100, "velocity": 100}, {"time": 237360, "pitch": 35, "duration": 100, "velocity": 100}, {"time": 237480, "pitch": 35, "duration": 100, "velocity": 100}, {"time": 237600, "pitch": 29, "duration": 680, "velocity": 110}, {"time": 238320, "pitch": 29, "duration": 680, "velocity": 100}, {"time": 239040, "pitch": 35, "duration": 220, "velocity": 110}, {"time": 239280, "pitch": 35, "duration": 100, "velocity": 100}, {"time": 239400, "pitch": 35, "duration": 100, "velocity": 100}, {"time": 239520, "pitch": 35, "duration": 100, "velocity": 110}, {"time": 239640, "pitch": 35, "duration": 100, "velocity": 100}, {"time": 239760, "pitch": 35, "duration": 100, "velocity": 100}, {"time": 239880, "pitch": 35, "duration": 100, "velocity": 100}, {"time": 240000, "pitch": 35, "duration": 100, "velocity": 110}, {"time": 240120, "pitch": 35, "duration": 100, "velocity": 100}, {"time": 240240, "pitch": 35, "duration": 100, "velocity": 100}, {"time": 240360, "pitch": 35, "duration": 100, "velocity": 100}, {"time": 240480, "pitch": 35, "duration": 100, "velocity": 110}, {"time": 240600, "pitch": 35, "duration": 100, "velocity": 100}, {"time": 240720, "pitch": 35, "duration": 100, "velocity": 100}, {"time": 240840, "pitch": 35, "duration": 340, "velocity": 100}, {"time": 241200, "pitch": 35, "duration": 100, "velocity": 100}, {"time": 241320, "pitch": 35, "duration": 100, "velocity": 100}, {"time": 241440, "pitch": 35, "duration": 100, "velocity": 110}, {"time": 241560, "pitch": 35, "duration": 100, "velocity": 100}, {"time": 241680, "pitch": 35, "duration": 100, "velocity": 100}, {"time": 241800, "pitch": 35, "duration": 100, "velocity": 100}, {"time": 241920, "pitch": 35, "duration": 100, "velocity": 110}, {"time": 242040, "pitch": 35, "duration": 100, "velocity": 100}, {"time": 242160, "pitch": 35, "duration": 100, "velocity": 100}, {"time": 242280, "pitch": 35, "duration": 100, "velocity": 100}, {"time": 242400, "pitch": 29, "duration": 680, "velocity": 110}, {"time": 243120, "pitch": 29, "duration": 680, "velocity": 100}, {"time": 243840, "pitch": 29, "duration": 680, "velocity": 110}, {"time": 244560, "pitch": 35, "duration": 220, "velocity": 110}, {"time": 244800, "pitch": 35, "duration": 100, "velocity": 100}, {"time": 244920, "pitch": 35, "duration": 100, "velocity": 100}, {"time": 245040, "pitch": 35, "duration": 100, "velocity": 110}, {"time": 245160, "pitch": 35, "duration": 100, "velocity": 100}, {"time": 245280, "pitch": 35, "duration": 100, "velocity": 100}, {"time": 245400, "pitch": 35, "duration": 100, "velocity": 100}, {"time": 245520, "pitch": 35, "duration": 100, "velocity": 110}, {"time": 245640, "pitch": 35, "duration": 100, "velocity": 100}, {"time": 245760, "pitch": 35, "duration": 100, "velocity": 100}, {"time": 245880, "pitch": 35, "duration": 100, "velocity": 100}, {"time": 246000, "pitch": 35, "duration": 100, "velocity": 110}, {"time": 246120, "pitch": 35, "duration": 100, "velocity": 100}, {"time": 246240, "pitch": 35, "duration": 100, "velocity": 100}, {"time": 246360, "pitch": 35, "duration": 340, "velocity": 100}, {"time": 246720, "pitch": 35, "duration": 100, "velocity": 100}, {"time": 246840, "pitch": 35, "duration": 100, "velocity": 100}, {"time": 246960, "pitch": 35, "duration": 100, "velocity": 110}, {"time": 247080, "pitch": 35, "duration": 100, "velocity": 100}, {"time": 247200, "pitch": 35, "duration": 100, "velocity": 100}, {"time": 247320, "pitch": 35, "duration": 100, "velocity": 100}, {"time": 247440, "pitch": 35, "duration": 100, "velocity": 110}, {"time": 247560, "pitch": 35, "duration": 100, "velocity": 100}, {"time": 247680, "pitch": 35, "duration": 100, "velocity": 100}, {"time": 247800, "pitch": 35, "duration": 100, "velocity": 100}, {"time": 247920, "pitch": 29, "duration": 680, "velocity": 110}, {"time": 248640, "pitch": 29, "duration": 680, "velocity": 100}, {"time": 249360, "pitch": 29, "duration": 680, "velocity": 110}, {"time": 250080, "pitch": 29, "duration": 680, "velocity": 100}, {"time": 250800, "pitch": 29, "duration": 680, "velocity": 110}, {"time": 251520, "pitch": 29, "duration": 680, "velocity": 100}, {"time": 252240, "pitch": 29, "duration": 1420, "velocity": 110}, {"time": 253680, "pitch": 30, "duration": 1420, "velocity": 100}, {"time": 255120, "pitch": 35, "duration": 5740, "velocity": 100}, {"time": 25920, "pitch": 38, "duration": 50, "velocity": 80}, {"time": 25970, "pitch": 40, "duration": 50, "velocity": 90}, {"time": 26020, "pitch": 42, "duration": 50, "velocity": 90}, {"time": 26070, "pitch": 43, "duration": 50, "velocity": 100}, {"time": 26120, "pitch": 45, "duration": 50, "velocity": 100}, {"time": 26170, "pitch": 47, "duration": 50, "velocity": 100}, {"time": 26220, "pitch": 48, "duration": 50, "velocity": 100}, {"time": 26270, "pitch": 50, "duration": 50, "velocity": 100}, {"time": 26320, "pitch": 52, "duration": 50, "velocity": 100}, {"time": 26370, "pitch": 54, "duration": 50, "velocity": 100}, {"time": 26420, "pitch": 55, "duration": 50, "velocity": 100}, {"time": 26470, "pitch": 57, "duration": 50, "velocity": 100}, {"time": 26520, "pitch": 59, "duration": 50, "velocity": 100}, {"time": 26570, "pitch": 60, "duration": 50, "velocity": 100}, {"time": 26620, "pitch": 62, "duration": 50, "velocity": 100}, {"time": 26670, "pitch": 64, "duration": 50, "velocity": 100}, {"time": 26720, "pitch": 66, "duration": 40, "velocity": 100}, {"time": 26760, "pitch": 71, "duration": 720, "velocity": 100}, {"time": 26760, "pitch": 74, "duration": 720, "velocity": 90}, {"time": 26760, "pitch": 78, "duration": 720, "velocity": 100}, {"time": 27480, "pitch": 69, "duration": 50, "velocity": 100}, {"time": 27530, "pitch": 67, "duration": 50, "velocity": 100}, {"time": 27580, "pitch": 66, "duration": 50, "velocity": 100}, {"time": 27630, "pitch": 64, "duration": 50, "velocity": 100}, {"time": 27680, "pitch": 62, "duration": 50, "velocity": 100}, {"time": 27730, "pitch": 60, "duration": 50, "velocity": 100}, {"time": 27780, "pitch": 59, "duration": 50, "velocity": 100}, {"time": 27830, "pitch": 57, "duration": 50, "velocity": 100}, {"time": 27880, "pitch": 55, "duration": 50, "velocity": 90}, {"time": 27930, "pitch": 54, "duration": 50, "velocity": 90}, {"time": 27980, "pitch": 52, "duration": 50, "velocity": 80}, {"time": 28030, "pitch": 50, "duration": 50, "velocity": 80}, {"time": 29180, "pitch": 30, "duration": 40, "velocity": 80}, {"time": 29220, "pitch": 31, "duration": 40, "velocity": 80}, {"time": 29260, "pitch": 33, "duration": 40, "velocity": 90}, {"time": 29300, "pitch": 35, "duration": 50, "velocity": 90}, {"time": 29350, "pitch": 36, "duration": 50, "velocity": 98}, {"time": 29400, "pitch": 38, "duration": 50, "velocity": 100}, {"time": 29450, "pitch": 40, "duration": 50, "velocity": 100}, {"time": 29500, "pitch": 42, "duration": 50, "velocity": 100}, {"time": 29550, "pitch": 43, "duration": 50, "velocity": 100}, {"time": 29600, "pitch": 45, "duration": 50, "velocity": 100}, {"time": 29650, "pitch": 47, "duration": 50, "velocity": 100}, {"time": 29700, "pitch": 48, "duration": 50, "velocity": 100}, {"time": 29750, "pitch": 50, "duration": 50, "velocity": 100}, {"time": 29800, "pitch": 52, "duration": 50, "velocity": 100}, {"time": 29850, "pitch": 54, "duration": 50, "velocity": 100}, {"time": 29900, "pitch": 55, "duration": 50, "velocity": 100}, {"time": 29950, "pitch": 57, "duration": 50, "velocity": 100}, {"time": 30000, "pitch": 59, "duration": 50, "velocity": 100}, {"time": 30050, "pitch": 60, "duration": 50, "velocity": 100}, {"time": 30100, "pitch": 62, "duration": 50, "velocity": 100}, {"time": 30150, "pitch": 64, "duration": 50, "velocity": 100}, {"time": 30200, "pitch": 66, "duration": 40, "velocity": 100}, {"time": 30240, "pitch": 69, "duration": 130, "velocity": 100}, {"time": 30240, "pitch": 73, "duration": 130, "velocity": 90}, {"time": 30240, "pitch": 76, "duration": 130, "velocity": 100}, {"time": 30480, "pitch": 69, "duration": 100, "velocity": 100}, {"time": 30480, "pitch": 73, "duration": 100, "velocity": 90}, {"time": 30480, "pitch": 76, "duration": 100, "velocity": 100}, {"time": 30600, "pitch": 71, "duration": 980, "velocity": 100}, {"time": 30600, "pitch": 74, "duration": 980, "velocity": 90}, {"time": 30600, "pitch": 78, "duration": 980, "velocity": 100}, {"time": 31580, "pitch": 69, "duration": 50, "velocity": 100}, {"time": 31630, "pitch": 67, "duration": 50, "velocity": 100}, {"time": 31680, "pitch": 66, "duration": 50, "velocity": 100}, {"time": 31730, "pitch": 64, "duration": 50, "velocity": 100}, {"time": 31780, "pitch": 62, "duration": 50, "velocity": 100}, {"time": 31830, "pitch": 60, "duration": 50, "velocity": 100}, {"time": 31880, "pitch": 59, "duration": 50, "velocity": 100}, {"time": 31930, "pitch": 57, "duration": 50, "velocity": 100}, {"time": 31980, "pitch": 55, "duration": 50, "velocity": 90}, {"time": 32030, "pitch": 54, "duration": 50, "velocity": 90}, {"time": 32080, "pitch": 52, "duration": 50, "velocity": 80}, {"time": 32130, "pitch": 50, "duration": 50, "velocity": 80}, {"time": 33020, "pitch": 30, "duration": 40, "velocity": 80}, {"time": 33060, "pitch": 31, "duration": 40, "velocity": 80}, {"time": 33100, "pitch": 33, "duration": 40, "velocity": 90}, {"time": 33140, "pitch": 35, "duration": 50, "velocity": 90}, {"time": 33190, "pitch": 36, "duration": 50, "velocity": 96}, {"time": 33240, "pitch": 38, "duration": 50, "velocity": 100}, {"time": 33290, "pitch": 40, "duration": 50, "velocity": 100}, {"time": 33340, "pitch": 42, "duration": 50, "velocity": 100}, {"time": 33390, "pitch": 43, "duration": 50, "velocity": 100}, {"time": 33440, "pitch": 45, "duration": 50, "velocity": 100}, {"time": 33490, "pitch": 47, "duration": 50, "velocity": 100}, {"time": 33540, "pitch": 48, "duration": 50, "velocity": 100}, {"time": 33590, "pitch": 50, "duration": 50, "velocity": 100}, {"time": 33640, "pitch": 52, "duration": 50, "velocity": 100}, {"time": 33690, "pitch": 54, "duration": 50, "velocity": 100}, {"time": 33740, "pitch": 55, "duration": 50, "velocity": 100}, {"time": 33790, "pitch": 57, "duration": 50, "velocity": 100}, {"time": 33840, "pitch": 59, "duration": 50, "velocity": 100}, {"time": 33890, "pitch": 60, "duration": 50, "velocity": 100}, {"time": 33940, "pitch": 62, "duration": 50, "velocity": 100}, {"time": 33990, "pitch": 64, "duration": 50, "velocity": 100}, {"time": 34040, "pitch": 66, "duration": 40, "velocity": 100}, {"time": 34080, "pitch": 69, "duration": 130, "velocity": 100}, {"time": 34080, "pitch": 73, "duration": 130, "velocity": 90}, {"time": 34080, "pitch": 76, "duration": 130, "velocity": 100}, {"time": 34320, "pitch": 69, "duration": 100, "velocity": 100}, {"time": 34320, "pitch": 73, "duration": 100, "velocity": 90}, {"time": 34320, "pitch": 76, "duration": 100, "velocity": 100}, {"time": 34440, "pitch": 71, "duration": 980, "velocity": 100}, {"time": 34440, "pitch": 74, "duration": 980, "velocity": 90}, {"time": 34440, "pitch": 78, "duration": 980, "velocity": 100}, {"time": 35420, "pitch": 69, "duration": 50, "velocity": 100}, {"time": 35470, "pitch": 67, "duration": 50, "velocity": 100}, {"time": 35520, "pitch": 66, "duration": 50, "velocity": 100}, {"time": 35570, "pitch": 64, "duration": 50, "velocity": 100}, {"time": 35620, "pitch": 62, "duration": 50, "velocity": 100}, {"time": 35670, "pitch": 60, "duration": 50, "velocity": 100}, {"time": 35720, "pitch": 59, "duration": 50, "velocity": 100}, {"time": 35770, "pitch": 57, "duration": 50, "velocity": 96}, {"time": 35820, "pitch": 55, "duration": 50, "velocity": 90}, {"time": 35870, "pitch": 54, "duration": 50, "velocity": 90}, {"time": 35920, "pitch": 52, "duration": 50, "velocity": 80}, {"time": 35970, "pitch": 50, "duration": 50, "velocity": 80}, {"time": 36860, "pitch": 30, "duration": 40, "velocity": 80}, {"time": 36900, "pitch": 31, "duration": 40, "velocity": 80}, {"time": 36940, "pitch": 33, "duration": 40, "velocity": 90}, {"time": 36980, "pitch": 35, "duration": 50, "velocity": 90}, {"time": 37030, "pitch": 36, "duration": 50, "velocity": 100}, {"time": 37080, "pitch": 38, "duration": 50, "velocity": 100}, {"time": 37130, "pitch": 40, "duration": 50, "velocity": 100}, {"time": 37180, "pitch": 42, "duration": 50, "velocity": 100}, {"time": 37230, "pitch": 43, "duration": 50, "velocity": 100}, {"time": 37280, "pitch": 45, "duration": 50, "velocity": 100}, {"time": 37330, "pitch": 47, "duration": 50, "velocity": 100}, {"time": 37380, "pitch": 48, "duration": 50, "velocity": 100}, {"time": 37430, "pitch": 50, "duration": 50, "velocity": 100}, {"time": 37480, "pitch": 52, "duration": 50, "velocity": 100}, {"time": 37530, "pitch": 54, "duration": 50, "velocity": 100}, {"time": 37580, "pitch": 55, "duration": 50, "velocity": 100}, {"time": 37630, "pitch": 57, "duration": 50, "velocity": 100}, {"time": 37680, "pitch": 59, "duration": 50, "velocity": 100}, {"time": 37730, "pitch": 60, "duration": 50, "velocity": 100}, {"time": 37780, "pitch": 62, "duration": 50, "velocity": 100}, {"time": 37830, "pitch": 64, "duration": 50, "velocity": 100}, {"time": 37880, "pitch": 66, "duration": 40, "velocity": 100}, {"time": 37920, "pitch": 69, "duration": 130, "velocity": 100}, {"time": 37920, "pitch": 73, "duration": 130, "velocity": 90}, {"time": 37920, "pitch": 76, "duration": 130, "velocity": 100}, {"time": 38160, "pitch": 69, "duration": 100, "velocity": 100}, {"time": 38160, "pitch": 73, "duration": 100, "velocity": 90}, {"time": 38160, "pitch": 76, "duration": 100, "velocity": 100}, {"time": 38280, "pitch": 71, "duration": 980, "velocity": 100}, {"time": 38280, "pitch": 74, "duration": 980, "velocity": 90}, {"time": 38280, "pitch": 78, "duration": 980, "velocity": 100}, {"time": 39260, "pitch": 69, "duration": 50, "velocity": 100}, {"time": 39310, "pitch": 67, "duration": 50, "velocity": 100}, {"time": 39360, "pitch": 66, "duration": 50, "velocity": 100}, {"time": 39410, "pitch": 64, "duration": 50, "velocity": 100}, {"time": 39460, "pitch": 62, "duration": 50, "velocity": 100}, {"time": 39510, "pitch": 60, "duration": 50, "velocity": 100}, {"time": 39560, "pitch": 59, "duration": 50, "velocity": 100}, {"time": 39610, "pitch": 57, "duration": 50, "velocity": 96}, {"time": 39660, "pitch": 55, "duration": 50, "velocity": 90}, {"time": 39710, "pitch": 54, "duration": 50, "velocity": 90}, {"time": 39760, "pitch": 52, "duration": 50, "velocity": 80}, {"time": 39810, "pitch": 50, "duration": 50, "velocity": 80}, {"time": 40700, "pitch": 30, "duration": 40, "velocity": 80}, {"time": 40740, "pitch": 31, "duration": 40, "velocity": 80}, {"time": 40780, "pitch": 33, "duration": 40, "velocity": 90}, {"time": 40820, "pitch": 35, "duration": 50, "velocity": 90}, {"time": 40870, "pitch": 36, "duration": 50, "velocity": 97}, {"time": 40920, "pitch": 38, "duration": 50, "velocity": 100}, {"time": 40970, "pitch": 40, "duration": 50, "velocity": 100}, {"time": 41020, "pitch": 42, "duration": 50, "velocity": 100}, {"time": 41070, "pitch": 43, "duration": 50, "velocity": 100}, {"time": 41120, "pitch": 45, "duration": 50, "velocity": 100}, {"time": 41170, "pitch": 47, "duration": 50, "velocity": 100}, {"time": 41220, "pitch": 48, "duration": 50, "velocity": 100}, {"time": 41270, "pitch": 50, "duration": 50, "velocity": 100}, {"time": 41320, "pitch": 52, "duration": 50, "velocity": 100}, {"time": 41370, "pitch": 54, "duration": 50, "velocity": 100}, {"time": 41420, "pitch": 55, "duration": 50, "velocity": 100}, {"time": 41470, "pitch": 57, "duration": 50, "velocity": 100}, {"time": 41520, "pitch": 59, "duration": 50, "velocity": 100}, {"time": 41570, "pitch": 60, "duration": 50, "velocity": 100}, {"time": 41620, "pitch": 62, "duration": 50, "velocity": 100}, {"time": 41670, "pitch": 64, "duration": 50, "velocity": 100}, {"time": 41720, "pitch": 66, "duration": 40, "velocity": 100}, {"time": 41760, "pitch": 69, "duration": 80, "velocity": 100}, {"time": 41760, "pitch": 73, "duration": 80, "velocity": 90}, {"time": 41760, "pitch": 76, "duration": 80, "velocity": 100}, {"time": 41880, "pitch": 69, "duration": 80, "velocity": 100}, {"time": 41880, "pitch": 72, "duration": 80, "velocity": 90}, {"time": 41880, "pitch": 75, "duration": 80, "velocity": 100}, {"time": 42120, "pitch": 67, "duration": 950, "velocity": 100}, {"time": 42120, "pitch": 71, "duration": 950, "velocity": 90}, {"time": 42120, "pitch": 74, "duration": 950, "velocity": 100}, {"time": 43080, "pitch": 69, "duration": 950, "velocity": 100}, {"time": 43080, "pitch": 73, "duration": 950, "velocity": 90}, {"time": 43080, "pitch": 76, "duration": 950, "velocity": 100}, {"time": 44040, "pitch": 71, "duration": 100, "velocity": 100}, {"time": 44040, "pitch": 74, "duration": 100, "velocity": 90}, {"time": 44040, "pitch": 78, "duration": 100, "velocity": 100}, {"time": 45840, "pitch": 69, "duration": 100, "velocity": 100}, {"time": 45840, "pitch": 73, "duration": 100, "velocity": 90}, {"time": 45840, "pitch": 76, "duration": 100, "velocity": 100}, {"time": 45960, "pitch": 71, "duration": 100, "velocity": 100}, {"time": 45960, "pitch": 74, "duration": 100, "velocity": 90}, {"time": 45960, "pitch": 78, "duration": 100, "velocity": 100}, {"time": 65160, "pitch": 67, "duration": 1040, "velocity": 100}, {"time": 65160, "pitch": 71, "duration": 1040, "velocity": 90}, {"time": 65160, "pitch": 78, "duration": 1040, "velocity": 100}, {"time": 66240, "pitch": 67, "duration": 820, "velocity": 100}, {"time": 66240, "pitch": 71, "duration": 820, "velocity": 90}, {"time": 66240, "pitch": 76, "duration": 820, "velocity": 100}, {"time": 67080, "pitch": 69, "duration": 1770, "velocity": 100}, {"time": 67080, "pitch": 73, "duration": 1770, "velocity": 90}, {"time": 67080, "pitch": 76, "duration": 1770, "velocity": 100}, {"time": 68880, "pitch": 66, "duration": 1060, "velocity": 100}, {"time": 68880, "pitch": 71, "duration": 1060, "velocity": 90}, {"time": 68880, "pitch": 76, "duration": 1060, "velocity": 100}, {"time": 69960, "pitch": 66, "duration": 680, "velocity": 100}, {"time": 69960, "pitch": 71, "duration": 680, "velocity": 90}, {"time": 69960, "pitch": 75, "duration": 680, "velocity": 100}, {"time": 72840, "pitch": 67, "duration": 1040, "velocity": 100}, {"time": 72840, "pitch": 71, "duration": 1040, "velocity": 90}, {"time": 72840, "pitch": 78, "duration": 1040, "velocity": 100}, {"time": 73920, "pitch": 67, "duration": 820, "velocity": 100}, {"time": 73920, "pitch": 71, "duration": 820, "velocity": 90}, {"time": 73920, "pitch": 76, "duration": 820, "velocity": 100}, {"time": 74760, "pitch": 69, "duration": 1540, "velocity": 100}, {"time": 74760, "pitch": 73, "duration": 1540, "velocity": 90}, {"time": 74760, "pitch": 76, "duration": 1540, "velocity": 100}, {"time": 76320, "pitch": 69, "duration": 100, "velocity": 100}, {"time": 76320, "pitch": 73, "duration": 100, "velocity": 90}, {"time": 76320, "pitch": 76, "duration": 100, "velocity": 100}, {"time": 76440, "pitch": 69, "duration": 100, "velocity": 100}, {"time": 76440, "pitch": 73, "duration": 100, "velocity": 90}, {"time": 76440, "pitch": 76, "duration": 100, "velocity": 100}, {"time": 76680, "pitch": 66, "duration": 570, "velocity": 100}, {"time": 76680, "pitch": 70, "duration": 570, "velocity": 90}, {"time": 76680, "pitch": 73, "duration": 570, "velocity": 100}, {"time": 77280, "pitch": 59, "duration": 100, "velocity": 80}, {"time": 77280, "pitch": 71, "duration": 100, "velocity": 100}, {"time": 77400, "pitch": 60, "duration": 100, "velocity": 80}, {"time": 77400, "pitch": 72, "duration": 100, "velocity": 100}, {"time": 77640, "pitch": 61, "duration": 100, "velocity": 80}, {"time": 77640, "pitch": 73, "duration": 100, "velocity": 100}, {"time": 79200, "pitch": 78, "duration": 450, "velocity": 100}, {"time": 79680, "pitch": 78, "duration": 450, "velocity": 100}, {"time": 80160, "pitch": 78, "duration": 220, "velocity": 100}, {"time": 80400, "pitch": 76, "duration": 100, "velocity": 100}, {"time": 80520, "pitch": 79, "duration": 340, "velocity": 100}, {"time": 80880, "pitch": 78, "duration": 2130, "velocity": 100}, {"time": 83040, "pitch": 74, "duration": 450, "velocity": 100}, {"time": 83520, "pitch": 74, "duration": 450, "velocity": 100}, {"time": 84000, "pitch": 71, "duration": 340, "velocity": 100}, {"time": 84360, "pitch": 78, "duration": 570, "velocity": 100}, {"time": 84960, "pitch": 76, "duration": 450, "velocity": 100}, {"time": 85440, "pitch": 74, "duration": 220, "velocity": 100}, {"time": 85680, "pitch": 78, "duration": 740, "velocity": 100}, {"time": 86880, "pitch": 78, "duration": 450, "velocity": 100}, {"time": 87360, "pitch": 78, "duration": 450, "velocity": 100}, {"time": 87840, "pitch": 78, "duration": 220, "velocity": 100}, {"time": 88080, "pitch": 76, "duration": 100, "velocity": 100}, {"time": 88200, "pitch": 79, "duration": 340, "velocity": 100}, {"time": 88560, "pitch": 78, "duration": 2130, "velocity": 100}, {"time": 90720, "pitch": 74, "duration": 450, "velocity": 100}, {"time": 91200, "pitch": 74, "duration": 450, "velocity": 100}, {"time": 91680, "pitch": 71, "duration": 340, "velocity": 100}, {"time": 92040, "pitch": 78, "duration": 570, "velocity": 100}, {"time": 92640, "pitch": 76, "duration": 220, "velocity": 100}, {"time": 92880, "pitch": 76, "duration": 220, "velocity": 100}, {"time": 93120, "pitch": 74, "duration": 220, "velocity": 100}, {"time": 93360, "pitch": 74, "duration": 220, "velocity": 100}, {"time": 93600, "pitch": 73, "duration": 220, "velocity": 100}, {"time": 93840, "pitch": 73, "duration": 100, "velocity": 100}, {"time": 93960, "pitch": 71, "duration": 940, "velocity": 100}, {"time": 94920, "pitch": 73, "duration": 960, "velocity": 100}, {"time": 95880, "pitch": 74, "duration": 100, "velocity": 100}, {"time": 97680, "pitch": 73, "duration": 100, "velocity": 100}, {"time": 97800, "pitch": 74, "duration": 100, "velocity": 100}, {"time": 117000, "pitch": 67, "duration": 1040, "velocity": 100}, {"time": 117000, "pitch": 71, "duration": 1040, "velocity": 90}, {"time": 117000, "pitch": 78, "duration": 1040, "velocity": 100}, {"time": 118080, "pitch": 67, "duration": 820, "velocity": 100}, {"time": 118080, "pitch": 71, "duration": 820, "velocity": 90}, {"time": 118080, "pitch": 76, "duration": 820, "velocity": 100}, {"time": 118920, "pitch": 69, "duration": 1770, "velocity": 100}, {"time": 118920, "pitch": 73, "duration": 1770, "velocity": 90}, {"time": 118920, "pitch": 76, "duration": 1770, "velocity": 100}, {"time": 120720, "pitch": 66, "duration": 1060, "velocity": 100}, {"time": 120720, "pitch": 71, "duration": 1060, "velocity": 90}, {"time": 120720, "pitch": 76, "duration": 1060, "velocity": 100}, {"time": 121800, "pitch": 66, "duration": 680, "velocity": 100}, {"time": 121800, "pitch": 71, "duration": 680, "velocity": 90}, {"time": 121800, "pitch": 75, "duration": 680, "velocity": 100}, {"time": 124680, "pitch": 67, "duration": 1040, "velocity": 100}, {"time": 124680, "pitch": 71, "duration": 1040, "velocity": 90}, {"time": 124680, "pitch": 78, "duration": 1040, "velocity": 100}, {"time": 125760, "pitch": 67, "duration": 820, "velocity": 100}, {"time": 125760, "pitch": 71, "duration": 820, "velocity": 90}, {"time": 125760, "pitch": 76, "duration": 820, "velocity": 100}, {"time": 126600, "pitch": 69, "duration": 1540, "velocity": 100}, {"time": 126600, "pitch": 73, "duration": 1540, "velocity": 90}, {"time": 126600, "pitch": 76, "duration": 1540, "velocity": 100}, {"time": 128160, "pitch": 69, "duration": 100, "velocity": 100}, {"time": 128160, "pitch": 73, "duration": 100, "velocity": 90}, {"time": 128160, "pitch": 76, "duration": 100, "velocity": 100}, {"time": 128280, "pitch": 69, "duration": 100, "velocity": 100}, {"time": 128280, "pitch": 73, "duration": 100, "velocity": 90}, {"time": 128280, "pitch": 76, "duration": 100, "velocity": 100}, {"time": 128520, "pitch": 66, "duration": 570, "velocity": 100}, {"time": 128520, "pitch": 70, "duration": 570, "velocity": 90}, {"time": 128520, "pitch": 73, "duration": 570, "velocity": 100}, {"time": 129120, "pitch": 59, "duration": 100, "velocity": 80}, {"time": 129120, "pitch": 71, "duration": 100, "velocity": 100}, {"time": 129240, "pitch": 60, "duration": 100, "velocity": 80}, {"time": 129240, "pitch": 72, "duration": 100, "velocity": 100}, {"time": 129480, "pitch": 61, "duration": 100, "velocity": 80}, {"time": 129480, "pitch": 73, "duration": 100, "velocity": 100}, {"time": 131040, "pitch": 78, "duration": 450, "velocity": 100}, {"time": 131520, "pitch": 78, "duration": 450, "velocity": 100}, {"time": 132000, "pitch": 78, "duration": 220, "velocity": 100}, {"time": 132240, "pitch": 76, "duration": 100, "velocity": 100}, {"time": 132360, "pitch": 79, "duration": 340, "velocity": 100}, {"time": 132720, "pitch": 78, "duration": 2130, "velocity": 100}, {"time": 134880, "pitch": 74, "duration": 450, "velocity": 100}, {"time": 135360, "pitch": 74, "duration": 450, "velocity": 100}, {"time": 135840, "pitch": 71, "duration": 340, "velocity": 100}, {"time": 136200, "pitch": 78, "duration": 570, "velocity": 100}, {"time": 136800, "pitch": 76, "duration": 450, "velocity": 100}, {"time": 137280, "pitch": 74, "duration": 220, "velocity": 100}, {"time": 137520, "pitch": 78, "duration": 740, "velocity": 100}, {"time": 138720, "pitch": 78, "duration": 450, "velocity": 100}, {"time": 139200, "pitch": 78, "duration": 450, "velocity": 100}, {"time": 139680, "pitch": 78, "duration": 220, "velocity": 100}, {"time": 139920, "pitch": 76, "duration": 100, "velocity": 100}, {"time": 140040, "pitch": 79, "duration": 340, "velocity": 100}, {"time": 140400, "pitch": 78, "duration": 2130, "velocity": 100}, {"time": 142560, "pitch": 74, "duration": 450, "velocity": 100}, {"time": 143040, "pitch": 74, "duration": 450, "velocity": 100}, {"time": 143520, "pitch": 71, "duration": 340, "velocity": 100}, {"time": 143880, "pitch": 78, "duration": 570, "velocity": 100}, {"time": 144480, "pitch": 76, "duration": 220, "velocity": 100}, {"time": 144720, "pitch": 76, "duration": 220, "velocity": 100}, {"time": 144960, "pitch": 74, "duration": 220, "velocity": 100}, {"time": 145200, "pitch": 74, "duration": 220, "velocity": 100}, {"time": 145440, "pitch": 73, "duration": 220, "velocity": 100}, {"time": 145680, "pitch": 73, "duration": 100, "velocity": 100}, {"time": 145800, "pitch": 71, "duration": 940, "velocity": 100}, {"time": 146760, "pitch": 73, "duration": 960, "velocity": 100}, {"time": 147720, "pitch": 74, "duration": 100, "velocity": 100}, {"time": 174600, "pitch": 67, "duration": 1040, "velocity": 100}, {"time": 174600, "pitch": 71, "duration": 1040, "velocity": 90}, {"time": 174600, "pitch": 78, "duration": 1040, "velocity": 100}, {"time": 175680, "pitch": 67, "duration": 820, "velocity": 100}, {"time": 175680, "pitch": 71, "duration": 820, "velocity": 90}, {"time": 175680, "pitch": 76, "duration": 820, "velocity": 100}, {"time": 176520, "pitch": 69, "duration": 1770, "velocity": 100}, {"time": 176520, "pitch": 73, "duration": 1770, "velocity": 90}, {"time": 176520, "pitch": 76, "duration": 1770, "velocity": 100}, {"time": 178320, "pitch": 66, "duration": 1060, "velocity": 100}, {"time": 178320, "pitch": 71, "duration": 1060, "velocity": 90}, {"time": 178320, "pitch": 76, "duration": 1060, "velocity": 100}, {"time": 179400, "pitch": 66, "duration": 680, "velocity": 100}, {"time": 179400, "pitch": 71, "duration": 680, "velocity": 90}, {"time": 179400, "pitch": 75, "duration": 680, "velocity": 100}, {"time": 182280, "pitch": 67, "duration": 1040, "velocity": 100}, {"time": 182280, "pitch": 71, "duration": 1040, "velocity": 90}, {"time": 182280, "pitch": 78, "duration": 1040, "velocity": 100}, {"time": 183360, "pitch": 67, "duration": 820, "velocity": 100}, {"time": 183360, "pitch": 71, "duration": 820, "velocity": 90}, {"time": 183360, "pitch": 76, "duration": 820, "velocity": 100}, {"time": 184200, "pitch": 69, "duration": 1540, "velocity": 100}, {"time": 184200, "pitch": 73, "duration": 1540, "velocity": 90}, {"time": 184200, "pitch": 76, "duration": 1540, "velocity": 100}, {"time": 185760, "pitch": 69, "duration": 100, "velocity": 100}, {"time": 185760, "pitch": 73, "duration": 100, "velocity": 90}, {"time": 185760, "pitch": 76, "duration": 100, "velocity": 100}, {"time": 185880, "pitch": 69, "duration": 100, "velocity": 100}, {"time": 185880, "pitch": 73, "duration": 100, "velocity": 90}, {"time": 185880, "pitch": 76, "duration": 100, "velocity": 100}, {"time": 186120, "pitch": 66, "duration": 570, "velocity": 100}, {"time": 186120, "pitch": 70, "duration": 570, "velocity": 90}, {"time": 186120, "pitch": 73, "duration": 570, "velocity": 100}, {"time": 186720, "pitch": 59, "duration": 100, "velocity": 80}, {"time": 186720, "pitch": 71, "duration": 100, "velocity": 100}, {"time": 186840, "pitch": 60, "duration": 100, "velocity": 80}, {"time": 186840, "pitch": 72, "duration": 100, "velocity": 100}, {"time": 187080, "pitch": 61, "duration": 100, "velocity": 80}, {"time": 187080, "pitch": 73, "duration": 100, "velocity": 100}, {"time": 219360, "pitch": 78, "duration": 450, "velocity": 100}, {"time": 219840, "pitch": 78, "duration": 450, "velocity": 100}, {"time": 220320, "pitch": 78, "duration": 220, "velocity": 100}, {"time": 220560, "pitch": 79, "duration": 100, "velocity": 100}, {"time": 220680, "pitch": 81, "duration": 800, "velocity": 100}, {"time": 221520, "pitch": 79, "duration": 100, "velocity": 100}, {"time": 221640, "pitch": 78, "duration": 100, "velocity": 100}, {"time": 221760, "pitch": 76, "duration": 1410, "velocity": 100}, {"time": 223200, "pitch": 74, "duration": 450, "velocity": 100}, {"time": 223680, "pitch": 74, "duration": 450, "velocity": 100}, {"time": 224160, "pitch": 71, "duration": 340, "velocity": 100}, {"time": 224520, "pitch": 78, "duration": 570, "velocity": 100}, {"time": 225120, "pitch": 76, "duration": 450, "velocity": 100}, {"time": 225600, "pitch": 74, "duration": 220, "velocity": 100}, {"time": 225840, "pitch": 78, "duration": 1170, "velocity": 100}, {"time": 227040, "pitch": 78, "duration": 450, "velocity": 100}, {"time": 227520, "pitch": 78, "duration": 450, "velocity": 100}, {"time": 228000, "pitch": 78, "duration": 220, "velocity": 100}, {"time": 228240, "pitch": 79, "duration": 100, "velocity": 100}, {"time": 228360, "pitch": 81, "duration": 800, "velocity": 100}, {"time": 229200, "pitch": 79, "duration": 100, "velocity": 100}, {"time": 229320, "pitch": 78, "duration": 100, "velocity": 100}, {"time": 229440, "pitch": 76, "duration": 1410, "velocity": 100}, {"time": 230880, "pitch": 74, "duration": 450, "velocity": 100}, {"time": 231360, "pitch": 74, "duration": 450, "velocity": 100}, {"time": 231840, "pitch": 71, "duration": 340, "velocity": 100}, {"time": 232200, "pitch": 78, "duration": 570, "velocity": 100}, {"time": 232800, "pitch": 76, "duration": 450, "velocity": 100}, {"time": 233280, "pitch": 74, "duration": 220, "velocity": 100}, {"time": 233520, "pitch": 78, "duration": 1170, "velocity": 100}, {"time": 234720, "pitch": 78, "duration": 450, "velocity": 100}, {"time": 235200, "pitch": 78, "duration": 450, "velocity": 100}, {"time": 235680, "pitch": 78, "duration": 220, "velocity": 100}, {"time": 235920, "pitch": 76, "duration": 100, "velocity": 100}, {"time": 236040, "pitch": 79, "duration": 340, "velocity": 100}, {"time": 236400, "pitch": 78, "duration": 1200, "velocity": 100}, {"time": 239520, "pitch": 78, "duration": 450, "velocity": 100}, {"time": 240000, "pitch": 78, "duration": 450, "velocity": 100}, {"time": 240480, "pitch": 78, "duration": 220, "velocity": 100}, {"time": 240720, "pitch": 76, "duration": 100, "velocity": 100}, {"time": 240840, "pitch": 79, "duration": 340, "velocity": 100}, {"time": 241200, "pitch": 78, "duration": 1200, "velocity": 100}, {"time": 245040, "pitch": 78, "duration": 450, "velocity": 100}, {"time": 245520, "pitch": 78, "duration": 450, "velocity": 100}, {"time": 246000, "pitch": 78, "duration": 220, "velocity": 100}, {"time": 246240, "pitch": 76, "duration": 100, "velocity": 100}, {"time": 246360, "pitch": 79, "duration": 340, "velocity": 100}, {"time": 246720, "pitch": 78, "duration": 4060, "velocity": 100}, {"time": 47520, "pitch": 71, "duration": 100, "velocity": 100}, {"time": 47640, "pitch": 71, "duration": 100, "velocity": 100}, {"time": 47880, "pitch": 78, "duration": 1540, "velocity": 100}, {"time": 49440, "pitch": 76, "duration": 220, "velocity": 100}, {"time": 49680, "pitch": 74, "duration": 100, "velocity": 100}, {"time": 49800, "pitch": 76, "duration": 340, "velocity": 100}, {"time": 50160, "pitch": 73, "duration": 450, "velocity": 100}, {"time": 51360, "pitch": 71, "duration": 100, "velocity": 100}, {"time": 51480, "pitch": 71, "duration": 100, "velocity": 100}, {"time": 51720, "pitch": 74, "duration": 320, "velocity": 100}, {"time": 52320, "pitch": 71, "duration": 240, "velocity": 100}, {"time": 52800, "pitch": 74, "duration": 240, "velocity": 100}, {"time": 53280, "pitch": 78, "duration": 340, "velocity": 100}, {"time": 53640, "pitch": 76, "duration": 340, "velocity": 100}, {"time": 54000, "pitch": 78, "duration": 920, "velocity": 100}, {"time": 55200, "pitch": 71, "duration": 100, "velocity": 100}, {"time": 55320, "pitch": 71, "duration": 100, "velocity": 100}, {"time": 55560, "pitch": 78, "duration": 1540, "velocity": 100}, {"time": 57120, "pitch": 76, "duration": 220, "velocity": 100}, {"time": 57360, "pitch": 74, "duration": 100, "velocity": 100}, {"time": 57480, "pitch": 76, "duration": 340, "velocity": 100}, {"time": 57840, "pitch": 73, "duration": 450, "velocity": 100}, {"time": 59040, "pitch": 71, "duration": 100, "velocity": 100}, {"time": 59160, "pitch": 71, "duration": 100, "velocity": 100}, {"time": 59400, "pitch": 74, "duration": 320, "velocity": 100}, {"time": 60000, "pitch": 71, "duration": 240, "velocity": 100}, {"time": 60480, "pitch": 74, "duration": 240, "velocity": 100}, {"time": 60960, "pitch": 78, "duration": 340, "velocity": 100}, {"time": 61320, "pitch": 76, "duration": 340, "velocity": 100}, {"time": 61680, "pitch": 78, "duration": 1420, "velocity": 100}, {"time": 64080, "pitch": 71, "duration": 120, "velocity": 100}, {"time": 64320, "pitch": 74, "duration": 220, "velocity": 100}, {"time": 64560, "pitch": 71, "duration": 120, "velocity": 100}, {"time": 64800, "pitch": 74, "duration": 220, "velocity": 100}, {"time": 65040, "pitch": 71, "duration": 100, "velocity": 100}, {"time": 65160, "pitch": 74, "duration": 340, "velocity": 100}, {"time": 65520, "pitch": 78, "duration": 920, "velocity": 100}, {"time": 66720, "pitch": 71, "duration": 100, "velocity": 100}, {"time": 66840, "pitch": 71, "duration": 100, "velocity": 100}, {"time": 67080, "pitch": 76, "duration": 570, "velocity": 100}, {"time": 68160, "pitch": 69, "duration": 220, "velocity": 100}, {"time": 68400, "pitch": 71, "duration": 220, "velocity": 100}, {"time": 68640, "pitch": 73, "duration": 220, "velocity": 100}, {"time": 68880, "pitch": 71, "duration": 1160, "velocity": 100}, {"time": 71760, "pitch": 71, "duration": 120, "velocity": 100}, {"time": 72000, "pitch": 74, "duration": 220, "velocity": 100}, {"time": 72240, "pitch": 71, "duration": 120, "velocity": 100}, {"time": 72480, "pitch": 74, "duration": 220, "velocity": 100}, {"time": 72720, "pitch": 71, "duration": 100, "velocity": 100}, {"time": 72840, "pitch": 74, "duration": 340, "velocity": 100}, {"time": 73200, "pitch": 78, "duration": 1420, "velocity": 100}, {"time": 75360, "pitch": 76, "duration": 400, "velocity": 100}, {"time": 75840, "pitch": 76, "duration": 400, "velocity": 100}, {"time": 76320, "pitch": 74, "duration": 340, "velocity": 100}, {"time": 76680, "pitch": 73, "duration": 570, "velocity": 100}, {"time": 77280, "pitch": 79, "duration": 340, "velocity": 100}, {"time": 77640, "pitch": 78, "duration": 570, "velocity": 100}, {"time": 79200, "pitch": 78, "duration": 450, "velocity": 100}, {"time": 79680, "pitch": 78, "duration": 450, "velocity": 100}, {"time": 80160, "pitch": 78, "duration": 220, "velocity": 100}, {"time": 80400, "pitch": 76, "duration": 100, "velocity": 100}, {"time": 80520, "pitch": 79, "duration": 340, "velocity": 100}, {"time": 80880, "pitch": 78, "duration": 1650, "velocity": 100}, {"time": 83040, "pitch": 74, "duration": 450, "velocity": 100}, {"time": 83520, "pitch": 74, "duration": 450, "velocity": 100}, {"time": 84000, "pitch": 71, "duration": 340, "velocity": 100}, {"time": 84360, "pitch": 78, "duration": 570, "velocity": 100}, {"time": 84960, "pitch": 76, "duration": 450, "velocity": 100}, {"time": 85440, "pitch": 74, "duration": 220, "velocity": 100}, {"time": 85680, "pitch": 78, "duration": 680, "velocity": 100}, {"time": 86880, "pitch": 78, "duration": 450, "velocity": 100}, {"time": 87360, "pitch": 78, "duration": 450, "velocity": 100}, {"time": 87840, "pitch": 78, "duration": 220, "velocity": 100}, {"time": 88080, "pitch": 76, "duration": 100, "velocity": 100}, {"time": 88200, "pitch": 79, "duration": 340, "velocity": 100}, {"time": 88560, "pitch": 78, "duration": 1650, "velocity": 100}, {"time": 90720, "pitch": 74, "duration": 450, "velocity": 100}, {"time": 91200, "pitch": 74, "duration": 450, "velocity": 100}, {"time": 91680, "pitch": 71, "duration": 340, "velocity": 100}, {"time": 92040, "pitch": 78, "duration": 570, "velocity": 100}, {"time": 92640, "pitch": 76, "duration": 220, "velocity": 100}, {"time": 92880, "pitch": 76, "duration": 220, "velocity": 100}, {"time": 93120, "pitch": 74, "duration": 220, "velocity": 100}, {"time": 93360, "pitch": 74, "duration": 220, "velocity": 100}, {"time": 93600, "pitch": 73, "duration": 220, "velocity": 100}, {"time": 93840, "pitch": 73, "duration": 100, "velocity": 100}, {"time": 93960, "pitch": 71, "duration": 1040, "velocity": 100}, {"time": 99360, "pitch": 71, "duration": 100, "velocity": 100}, {"time": 99480, "pitch": 71, "duration": 100, "velocity": 100}, {"time": 99720, "pitch": 78, "duration": 1540, "velocity": 100}, {"time": 101280, "pitch": 76, "duration": 220, "velocity": 100}, {"time": 101520, "pitch": 74, "duration": 100, "velocity": 100}, {"time": 101640, "pitch": 76, "duration": 340, "velocity": 100}, {"time": 102000, "pitch": 73, "duration": 450, "velocity": 100}, {"time": 103200, "pitch": 71, "duration": 100, "velocity": 100}, {"time": 103320, "pitch": 71, "duration": 100, "velocity": 100}, {"time": 103560, "pitch": 74, "duration": 320, "velocity": 100}, {"time": 104160, "pitch": 71, "duration": 240, "velocity": 100}, {"time": 104640, "pitch": 74, "duration": 240, "velocity": 100}, {"time": 105120, "pitch": 78, "duration": 340, "velocity": 100}, {"time": 105480, "pitch": 76, "duration": 340, "velocity": 100}, {"time": 105840, "pitch": 78, "duration": 920, "velocity": 100}, {"time": 107040, "pitch": 71, "duration": 100, "velocity": 100}, {"time": 107160, "pitch": 71, "duration": 100, "velocity": 100}, {"time": 107400, "pitch": 78, "duration": 1540, "velocity": 100}, {"time": 108960, "pitch": 76, "duration": 220, "velocity": 100}, {"time": 109200, "pitch": 74, "duration": 100, "velocity": 100}, {"time": 109320, "pitch": 76, "duration": 340, "velocity": 100}, {"time": 109680, "pitch": 73, "duration": 450, "velocity": 100}, {"time": 110880, "pitch": 71, "duration": 100, "velocity": 100}, {"time": 111000, "pitch": 71, "duration": 100, "velocity": 100}, {"time": 111240, "pitch": 74, "duration": 320, "velocity": 100}, {"time": 111840, "pitch": 71, "duration": 240, "velocity": 100}, {"time": 112320, "pitch": 74, "duration": 240, "velocity": 100}, {"time": 112800, "pitch": 78, "duration": 340, "velocity": 100}, {"time": 113160, "pitch": 76, "duration": 340, "velocity": 100}, {"time": 113520, "pitch": 78, "duration": 1420, "velocity": 100}, {"time": 115920, "pitch": 71, "duration": 120, "velocity": 100}, {"time": 116160, "pitch": 74, "duration": 220, "velocity": 100}, {"time": 116400, "pitch": 71, "duration": 120, "velocity": 100}, {"time": 116640, "pitch": 74, "duration": 220, "velocity": 100}, {"time": 116880, "pitch": 71, "duration": 100, "velocity": 100}, {"time": 117000, "pitch": 74, "duration": 340, "velocity": 100}, {"time": 117360, "pitch": 78, "duration": 920, "velocity": 100}, {"time": 118560, "pitch": 71, "duration": 100, "velocity": 100}, {"time": 118680, "pitch": 71, "duration": 100, "velocity": 100}, {"time": 118920, "pitch": 76, "duration": 800, "velocity": 100}, {"time": 120000, "pitch": 69, "duration": 220, "velocity": 100}, {"time": 120240, "pitch": 71, "duration": 220, "velocity": 100}, {"time": 120480, "pitch": 73, "duration": 220, "velocity": 100}, {"time": 120720, "pitch": 71, "duration": 1160, "velocity": 100}, {"time": 123600, "pitch": 71, "duration": 120, "velocity": 100}, {"time": 123840, "pitch": 74, "duration": 220, "velocity": 100}, {"time": 124080, "pitch": 71, "duration": 120, "velocity": 100}, {"time": 124320, "pitch": 74, "duration": 220, "velocity": 100}, {"time": 124560, "pitch": 71, "duration": 100, "velocity": 100}, {"time": 124680, "pitch": 74, "duration": 340, "velocity": 100}, {"time": 125040, "pitch": 78, "duration": 1420, "velocity": 100}, {"time": 127200, "pitch": 76, "duration": 400, "velocity": 100}, {"time": 127680, "pitch": 76, "duration": 400, "velocity": 100}, {"time": 128160, "pitch": 74, "duration": 340, "velocity": 100}, {"time": 128520, "pitch": 73, "duration": 570, "velocity": 100}, {"time": 129120, "pitch": 79, "duration": 340, "velocity": 100}, {"time": 129480, "pitch": 78, "duration": 1040, "velocity": 100}, {"time": 131040, "pitch": 78, "duration": 450, "velocity": 100}, {"time": 131520, "pitch": 78, "duration": 450, "velocity": 100}, {"time": 132000, "pitch": 78, "duration": 220, "velocity": 100}, {"time": 132240, "pitch": 76, "duration": 100, "velocity": 100}, {"time": 132360, "pitch": 79, "duration": 340, "velocity": 100}, {"time": 132720, "pitch": 78, "duration": 1650, "velocity": 100}, {"time": 134880, "pitch": 74, "duration": 450, "velocity": 100}, {"time": 135360, "pitch": 74, "duration": 450, "velocity": 100}, {"time": 135840, "pitch": 71, "duration": 340, "velocity": 100}, {"time": 136200, "pitch": 78, "duration": 570, "velocity": 100}, {"time": 136800, "pitch": 76, "duration": 450, "velocity": 100}, {"time": 137280, "pitch": 74, "duration": 220, "velocity": 100}, {"time": 137520, "pitch": 78, "duration": 680, "velocity": 100}, {"time": 138720, "pitch": 78, "duration": 450, "velocity": 100}, {"time": 139200, "pitch": 78, "duration": 450, "velocity": 100}, {"time": 139680, "pitch": 78, "duration": 220, "velocity": 100}, {"time": 139920, "pitch": 76, "duration": 100, "velocity": 100}, {"time": 140040, "pitch": 79, "duration": 340, "velocity": 100}, {"time": 140400, "pitch": 78, "duration": 1650, "velocity": 100}, {"time": 142560, "pitch": 74, "duration": 450, "velocity": 100}, {"time": 143040, "pitch": 74, "duration": 450, "velocity": 100}, {"time": 143520, "pitch": 71, "duration": 340, "velocity": 100}, {"time": 143880, "pitch": 78, "duration": 570, "velocity": 100}, {"time": 144480, "pitch": 76, "duration": 220, "velocity": 100}, {"time": 144720, "pitch": 76, "duration": 220, "velocity": 100}, {"time": 144960, "pitch": 74, "duration": 220, "velocity": 100}, {"time": 145200, "pitch": 74, "duration": 220, "velocity": 100}, {"time": 145440, "pitch": 73, "duration": 220, "velocity": 100}, {"time": 145680, "pitch": 73, "duration": 100, "velocity": 100}, {"time": 145800, "pitch": 71, "duration": 1040, "velocity": 100}, {"time": 173520, "pitch": 71, "duration": 120, "velocity": 100}, {"time": 173760, "pitch": 74, "duration": 220, "velocity": 100}, {"time": 174000, "pitch": 71, "duration": 120, "velocity": 100}, {"time": 174240, "pitch": 74, "duration": 220, "velocity": 100}, {"time": 174480, "pitch": 71, "duration": 100, "velocity": 100}, {"time": 174600, "pitch": 74, "duration": 340, "velocity": 100}, {"time": 174960, "pitch": 78, "duration": 920, "velocity": 100}, {"time": 176160, "pitch": 71, "duration": 100, "velocity": 100}, {"time": 176280, "pitch": 71, "duration": 100, "velocity": 100}, {"time": 176520, "pitch": 76, "duration": 570, "velocity": 100}, {"time": 177600, "pitch": 69, "duration": 220, "velocity": 100}, {"time": 177840, "pitch": 71, "duration": 220, "velocity": 100}, {"time": 178080, "pitch": 73, "duration": 220, "velocity": 100}, {"time": 178320, "pitch": 71, "duration": 1160, "velocity": 100}, {"time": 181200, "pitch": 71, "duration": 120, "velocity": 100}, {"time": 181440, "pitch": 74, "duration": 220, "velocity": 100}, {"time": 181680, "pitch": 71, "duration": 120, "velocity": 100}, {"time": 181920, "pitch": 74, "duration": 220, "velocity": 100}, {"time": 182160, "pitch": 71, "duration": 100, "velocity": 100}, {"time": 182280, "pitch": 74, "duration": 340, "velocity": 100}, {"time": 182640, "pitch": 78, "duration": 1420, "velocity": 100}, {"time": 184800, "pitch": 76, "duration": 400, "velocity": 100}, {"time": 185280, "pitch": 76, "duration": 400, "velocity": 100}, {"time": 185760, "pitch": 74, "duration": 340, "velocity": 100}, {"time": 186120, "pitch": 73, "duration": 570, "velocity": 100}, {"time": 186720, "pitch": 79, "duration": 340, "velocity": 100}, {"time": 187080, "pitch": 78, "duration": 800, "velocity": 100}, {"time": 188640, "pitch": 78, "duration": 450, "velocity": 100}, {"time": 189120, "pitch": 78, "duration": 450, "velocity": 100}, {"time": 189600, "pitch": 78, "duration": 220, "velocity": 100}, {"time": 189840, "pitch": 76, "duration": 100, "velocity": 100}, {"time": 189960, "pitch": 79, "duration": 340, "velocity": 100}, {"time": 190320, "pitch": 78, "duration": 1650, "velocity": 100}, {"time": 192480, "pitch": 74, "duration": 450, "velocity": 100}, {"time": 192960, "pitch": 74, "duration": 450, "velocity": 100}, {"time": 193440, "pitch": 71, "duration": 340, "velocity": 100}, {"time": 193800, "pitch": 78, "duration": 570, "velocity": 100}, {"time": 194400, "pitch": 76, "duration": 450, "velocity": 100}, {"time": 194880, "pitch": 74, "duration": 220, "velocity": 100}, {"time": 195120, "pitch": 78, "duration": 680, "velocity": 100}, {"time": 196320, "pitch": 78, "duration": 450, "velocity": 100}, {"time": 196800, "pitch": 78, "duration": 450, "velocity": 100}, {"time": 197280, "pitch": 78, "duration": 220, "velocity": 100}, {"time": 197520, "pitch": 76, "duration": 100, "velocity": 100}, {"time": 197640, "pitch": 79, "duration": 340, "velocity": 100}, {"time": 198000, "pitch": 78, "duration": 1650, "velocity": 100}, {"time": 200160, "pitch": 74, "duration": 450, "velocity": 100}, {"time": 200640, "pitch": 74, "duration": 450, "velocity": 100}, {"time": 201120, "pitch": 71, "duration": 340, "velocity": 100}, {"time": 201480, "pitch": 78, "duration": 570, "velocity": 100}, {"time": 202080, "pitch": 76, "duration": 450, "velocity": 100}, {"time": 202560, "pitch": 74, "duration": 220, "velocity": 100}, {"time": 202800, "pitch": 78, "duration": 680, "velocity": 100}, {"time": 204000, "pitch": 78, "duration": 450, "velocity": 100}, {"time": 204480, "pitch": 78, "duration": 450, "velocity": 100}, {"time": 204960, "pitch": 78, "duration": 220, "velocity": 100}, {"time": 205200, "pitch": 76, "duration": 100, "velocity": 100}, {"time": 205320, "pitch": 79, "duration": 340, "velocity": 100}, {"time": 205680, "pitch": 78, "duration": 1650, "velocity": 100}, {"time": 207840, "pitch": 74, "duration": 450, "velocity": 100}, {"time": 208320, "pitch": 74, "duration": 450, "velocity": 100}, {"time": 208800, "pitch": 71, "duration": 340, "velocity": 100}, {"time": 209160, "pitch": 78, "duration": 570, "velocity": 100}, {"time": 209760, "pitch": 76, "duration": 450, "velocity": 100}, {"time": 210240, "pitch": 74, "duration": 220, "velocity": 100}, {"time": 210480, "pitch": 78, "duration": 680, "velocity": 100}, {"time": 211680, "pitch": 78, "duration": 450, "velocity": 100}, {"time": 212160, "pitch": 78, "duration": 450, "velocity": 100}, {"time": 212640, "pitch": 78, "duration": 220, "velocity": 100}, {"time": 212880, "pitch": 76, "duration": 100, "velocity": 100}, {"time": 213000, "pitch": 79, "duration": 340, "velocity": 100}, {"time": 213360, "pitch": 78, "duration": 1650, "velocity": 100}, {"time": 215520, "pitch": 74, "duration": 450, "velocity": 100}, {"time": 216000, "pitch": 74, "duration": 450, "velocity": 100}, {"time": 216480, "pitch": 71, "duration": 340, "velocity": 100}, {"time": 216840, "pitch": 78, "duration": 570, "velocity": 100}, {"time": 217440, "pitch": 76, "duration": 450, "velocity": 100}, {"time": 217920, "pitch": 74, "duration": 220, "velocity": 100}, {"time": 218160, "pitch": 78, "duration": 680, "velocity": 100}, {"time": 219360, "pitch": 78, "duration": 450, "velocity": 100}, {"time": 219840, "pitch": 78, "duration": 450, "velocity": 100}, {"time": 220320, "pitch": 78, "duration": 220, "velocity": 100}, {"time": 220560, "pitch": 79, "duration": 100, "velocity": 100}, {"time": 220680, "pitch": 81, "duration": 800, "velocity": 100}, {"time": 221520, "pitch": 79, "duration": 100, "velocity": 100}, {"time": 221640, "pitch": 78, "duration": 100, "velocity": 100}, {"time": 221760, "pitch": 76, "duration": 920, "velocity": 100}, {"time": 227040, "pitch": 78, "duration": 450, "velocity": 100}, {"time": 227520, "pitch": 78, "duration": 450, "velocity": 100}, {"time": 228000, "pitch": 78, "duration": 220, "velocity": 100}, {"time": 228240, "pitch": 79, "duration": 100, "velocity": 100}, {"time": 228360, "pitch": 81, "duration": 800, "velocity": 100}, {"time": 229200, "pitch": 79, "duration": 100, "velocity": 100}, {"time": 229320, "pitch": 78, "duration": 100, "velocity": 100}, {"time": 229440, "pitch": 76, "duration": 920, "velocity": 100}, {"time": 234720, "pitch": 78, "duration": 450, "velocity": 100}, {"time": 235200, "pitch": 78, "duration": 450, "velocity": 100}, {"time": 235680, "pitch": 78, "duration": 220, "velocity": 100}, {"time": 235920, "pitch": 76, "duration": 100, "velocity": 100}, {"time": 236040, "pitch": 79, "duration": 340, "velocity": 100}, {"time": 236400, "pitch": 78, "duration": 1200, "velocity": 100}, {"time": 239520, "pitch": 78, "duration": 450, "velocity": 100}, {"time": 240000, "pitch": 78, "duration": 450, "velocity": 100}, {"time": 240480, "pitch": 78, "duration": 220, "velocity": 100}, {"time": 240720, "pitch": 76, "duration": 100, "velocity": 100}, {"time": 240840, "pitch": 79, "duration": 340, "velocity": 100}, {"time": 241200, "pitch": 78, "duration": 1200, "velocity": 100}, {"time": 245040, "pitch": 78, "duration": 450, "velocity": 100}, {"time": 245520, "pitch": 78, "duration": 450, "velocity": 100}, {"time": 246000, "pitch": 78, "duration": 220, "velocity": 100}, {"time": 246240, "pitch": 76, "duration": 100, "velocity": 100}, {"time": 246360, "pitch": 79, "duration": 340, "velocity": 100}, {"time": 246720, "pitch": 78, "duration": 9820, "velocity": 100}, {"time": 18240, "pitch": 35, "duration": 240, "velocity": 100}, {"time": 18240, "pitch": 47, "duration": 240, "velocity": 100}, {"time": 18600, "pitch": 35, "duration": 240, "velocity": 100}, {"time": 18600, "pitch": 47, "duration": 240, "velocity": 100}, {"time": 19200, "pitch": 35, "duration": 240, "velocity": 100}, {"time": 19200, "pitch": 47, "duration": 240, "velocity": 100}, {"time": 19560, "pitch": 35, "duration": 240, "velocity": 100}, {"time": 19560, "pitch": 47, "duration": 240, "velocity": 100}, {"time": 19920, "pitch": 35, "duration": 240, "velocity": 100}, {"time": 19920, "pitch": 47, "duration": 240, "velocity": 100}, {"time": 79200, "pitch": 59, "duration": 450, "velocity": 100}, {"time": 79200, "pitch": 62, "duration": 450, "velocity": 100}, {"time": 79680, "pitch": 59, "duration": 450, "velocity": 100}, {"time": 79680, "pitch": 62, "duration": 450, "velocity": 100}, {"time": 80160, "pitch": 59, "duration": 220, "velocity": 100}, {"time": 80160, "pitch": 62, "duration": 220, "velocity": 100}, {"time": 80400, "pitch": 57, "duration": 100, "velocity": 100}, {"time": 80400, "pitch": 61, "duration": 100, "velocity": 100}, {"time": 80520, "pitch": 61, "duration": 340, "velocity": 100}, {"time": 80520, "pitch": 64, "duration": 340, "velocity": 100}, {"time": 80880, "pitch": 59, "duration": 1650, "velocity": 100}, {"time": 80880, "pitch": 62, "duration": 1650, "velocity": 100}, {"time": 86880, "pitch": 59, "duration": 450, "velocity": 100}, {"time": 86880, "pitch": 62, "duration": 450, "velocity": 100}, {"time": 87360, "pitch": 59, "duration": 450, "velocity": 100}, {"time": 87360, "pitch": 62, "duration": 450, "velocity": 100}, {"time": 87840, "pitch": 59, "duration": 220, "velocity": 100}, {"time": 87840, "pitch": 62, "duration": 220, "velocity": 100}, {"time": 88080, "pitch": 57, "duration": 100, "velocity": 100}, {"time": 88080, "pitch": 61, "duration": 100, "velocity": 100}, {"time": 88200, "pitch": 61, "duration": 340, "velocity": 100}, {"time": 88200, "pitch": 64, "duration": 340, "velocity": 100}, {"time": 88560, "pitch": 59, "duration": 1650, "velocity": 100}, {"time": 88560, "pitch": 62, "duration": 1650, "velocity": 100}, {"time": 131040, "pitch": 59, "duration": 450, "velocity": 100}, {"time": 131040, "pitch": 62, "duration": 450, "velocity": 100}, {"time": 131520, "pitch": 59, "duration": 450, "velocity": 100}, {"time": 131520, "pitch": 62, "duration": 450, "velocity": 100}, {"time": 132000, "pitch": 59, "duration": 220, "velocity": 100}, {"time": 132000, "pitch": 62, "duration": 220, "velocity": 100}, {"time": 132240, "pitch": 57, "duration": 100, "velocity": 100}, {"time": 132240, "pitch": 61, "duration": 100, "velocity": 100}, {"time": 132360, "pitch": 61, "duration": 340, "velocity": 100}, {"time": 132360, "pitch": 64, "duration": 340, "velocity": 100}, {"time": 132720, "pitch": 59, "duration": 1650, "velocity": 100}, {"time": 132720, "pitch": 62, "duration": 1650, "velocity": 100}, {"time": 138720, "pitch": 59, "duration": 450, "velocity": 100}, {"time": 138720, "pitch": 62, "duration": 450, "velocity": 100}, {"time": 139200, "pitch": 59, "duration": 450, "velocity": 100}, {"time": 139200, "pitch": 62, "duration": 450, "velocity": 100}, {"time": 139680, "pitch": 59, "duration": 220, "velocity": 100}, {"time": 139680, "pitch": 62, "duration": 220, "velocity": 100}, {"time": 139920, "pitch": 57, "duration": 100, "velocity": 100}, {"time": 139920, "pitch": 61, "duration": 100, "velocity": 100}, {"time": 140040, "pitch": 61, "duration": 340, "velocity": 100}, {"time": 140040, "pitch": 64, "duration": 340, "velocity": 100}, {"time": 140400, "pitch": 59, "duration": 1650, "velocity": 100}, {"time": 140400, "pitch": 62, "duration": 1650, "velocity": 100}, {"time": 219360, "pitch": 59, "duration": 450, "velocity": 100}, {"time": 219360, "pitch": 62, "duration": 450, "velocity": 100}, {"time": 219840, "pitch": 59, "duration": 450, "velocity": 100}, {"time": 219840, "pitch": 62, "duration": 450, "velocity": 100}, {"time": 220320, "pitch": 59, "duration": 220, "velocity": 100}, {"time": 220320, "pitch": 62, "duration": 220, "velocity": 100}, {"time": 220560, "pitch": 61, "duration": 100, "velocity": 100}, {"time": 220560, "pitch": 64, "duration": 100, "velocity": 100}, {"time": 220680, "pitch": 61, "duration": 800, "velocity": 100}, {"time": 220680, "pitch": 66, "duration": 800, "velocity": 100}, {"time": 221520, "pitch": 61, "duration": 100, "velocity": 100}, {"time": 221520, "pitch": 64, "duration": 100, "velocity": 100}, {"time": 221640, "pitch": 59, "duration": 100, "velocity": 100}, {"time": 221640, "pitch": 62, "duration": 100, "velocity": 100}, {"time": 221760, "pitch": 57, "duration": 920, "velocity": 100}, {"time": 221760, "pitch": 61, "duration": 920, "velocity": 100}, {"time": 227040, "pitch": 59, "duration": 450, "velocity": 100}, {"time": 227040, "pitch": 62, "duration": 450, "velocity": 100}, {"time": 227520, "pitch": 59, "duration": 450, "velocity": 100}, {"time": 227520, "pitch": 62, "duration": 450, "velocity": 100}, {"time": 228000, "pitch": 59, "duration": 220, "velocity": 100}, {"time": 228000, "pitch": 62, "duration": 220, "velocity": 100}, {"time": 228240, "pitch": 61, "duration": 100, "velocity": 100}, {"time": 228240, "pitch": 64, "duration": 100, "velocity": 100}, {"time": 228360, "pitch": 61, "duration": 800, "velocity": 100}, {"time": 228360, "pitch": 66, "duration": 800, "velocity": 100}, {"time": 229200, "pitch": 61, "duration": 100, "velocity": 100}, {"time": 229200, "pitch": 64, "duration": 100, "velocity": 100}, {"time": 229320, "pitch": 59, "duration": 100, "velocity": 100}, {"time": 229320, "pitch": 62, "duration": 100, "velocity": 100}, {"time": 229440, "pitch": 57, "duration": 920, "velocity": 100}, {"time": 229440, "pitch": 61, "duration": 920, "velocity": 100}, {"time": 234720, "pitch": 59, "duration": 450, "velocity": 100}, {"time": 234720, "pitch": 62, "duration": 450, "velocity": 100}, {"time": 235200, "pitch": 59, "duration": 450, "velocity": 100}, {"time": 235200, "pitch": 62, "duration": 450, "velocity": 100}, {"time": 235680, "pitch": 59, "duration": 220, "velocity": 100}, {"time": 235680, "pitch": 62, "duration": 220, "velocity": 100}, {"time": 235920, "pitch": 57, "duration": 100, "velocity": 100}, {"time": 235920, "pitch": 61, "duration": 100, "velocity": 100}, {"time": 236040, "pitch": 61, "duration": 340, "velocity": 100}, {"time": 236040, "pitch": 64, "duration": 340, "velocity": 100}, {"time": 236400, "pitch": 59, "duration": 1200, "velocity": 100}, {"time": 236400, "pitch": 62, "duration": 1200, "velocity": 100}, {"time": 239520, "pitch": 59, "duration": 450, "velocity": 100}, {"time": 239520, "pitch": 62, "duration": 450, "velocity": 100}, {"time": 240000, "pitch": 59, "duration": 450, "velocity": 100}, {"time": 240000, "pitch": 62, "duration": 450, "velocity": 100}, {"time": 240480, "pitch": 59, "duration": 220, "velocity": 100}, {"time": 240480, "pitch": 62, "duration": 220, "velocity": 100}, {"time": 240720, "pitch": 57, "duration": 100, "velocity": 100}, {"time": 240720, "pitch": 61, "duration": 100, "velocity": 100}, {"time": 240840, "pitch": 61, "duration": 340, "velocity": 100}, {"time": 240840, "pitch": 64, "duration": 340, "velocity": 100}, {"time": 241200, "pitch": 59, "duration": 1200, "velocity": 100}, {"time": 241200, "pitch": 62, "duration": 1200, "velocity": 100}, {"time": 245040, "pitch": 59, "duration": 450, "velocity": 100}, {"time": 245040, "pitch": 62, "duration": 450, "velocity": 100}, {"time": 245520, "pitch": 59, "duration": 450, "velocity": 100}, {"time": 245520, "pitch": 62, "duration": 450, "velocity": 100}, {"time": 246000, "pitch": 59, "duration": 220, "velocity": 100}, {"time": 246000, "pitch": 62, "duration": 220, "velocity": 100}, {"time": 246240, "pitch": 57, "duration": 100, "velocity": 100}, {"time": 246240, "pitch": 61, "duration": 100, "velocity": 100}, {"time": 246360, "pitch": 61, "duration": 340, "velocity": 100}, {"time": 246360, "pitch": 64, "duration": 340, "velocity": 100}, {"time": 246720, "pitch": 59, "duration": 1880, "velocity": 100}, {"time": 246720, "pitch": 62, "duration": 1880, "velocity": 100}, {"time": 188040, "pitch": 43, "duration": 830, "velocity": 100}, {"time": 188040, "pitch": 50, "duration": 2020, "velocity": 100}, {"time": 188040, "pitch": 62, "duration": 540, "velocity": 100}, {"time": 188050, "pitch": 66, "duration": 560, "velocity": 110}, {"time": 188050, "pitch": 67, "duration": 560, "velocity": 110}, {"time": 188070, "pitch": 71, "duration": 540, "velocity": 110}, {"time": 188400, "pitch": 55, "duration": 620, "velocity": 90}, {"time": 188640, "pitch": 62, "duration": 950, "velocity": 100}, {"time": 188650, "pitch": 66, "duration": 450, "velocity": 110}, {"time": 188650, "pitch": 67, "duration": 450, "velocity": 110}, {"time": 188670, "pitch": 71, "duration": 450, "velocity": 110}, {"time": 188890, "pitch": 31, "duration": 460, "velocity": 95}, {"time": 188890, "pitch": 43, "duration": 1000, "velocity": 100}, {"time": 189120, "pitch": 64, "duration": 450, "velocity": 100}, {"time": 189120, "pitch": 67, "duration": 450, "velocity": 110}, {"time": 189130, "pitch": 71, "duration": 450, "velocity": 110}, {"time": 189130, "pitch": 74, "duration": 450, "velocity": 120}, {"time": 189360, "pitch": 31, "duration": 600, "velocity": 94}, {"time": 189600, "pitch": 55, "duration": 350, "velocity": 100}, {"time": 189600, "pitch": 59, "duration": 350, "velocity": 90}, {"time": 189600, "pitch": 62, "duration": 350, "velocity": 110}, {"time": 189610, "pitch": 64, "duration": 350, "velocity": 100}, {"time": 189960, "pitch": 42, "duration": 830, "velocity": 100}, {"time": 189960, "pitch": 49, "duration": 2020, "velocity": 100}, {"time": 189960, "pitch": 61, "duration": 550, "velocity": 100}, {"time": 189970, "pitch": 64, "duration": 540, "velocity": 110}, {"time": 189970, "pitch": 66, "duration": 560, "velocity": 100}, {"time": 189970, "pitch": 69, "duration": 560, "velocity": 120}, {"time": 190320, "pitch": 54, "duration": 620, "velocity": 90}, {"time": 190560, "pitch": 57, "duration": 850, "velocity": 100}, {"time": 190560, "pitch": 61, "duration": 450, "velocity": 110}, {"time": 190570, "pitch": 64, "duration": 450, "velocity": 110}, {"time": 190580, "pitch": 66, "duration": 830, "velocity": 100}, {"time": 190580, "pitch": 69, "duration": 430, "velocity": 120}, {"time": 190800, "pitch": 30, "duration": 470, "velocity": 95}, {"time": 190800, "pitch": 42, "duration": 900, "velocity": 100}, {"time": 191040, "pitch": 64, "duration": 450, "velocity": 100}, {"time": 191040, "pitch": 69, "duration": 450, "velocity": 110}, {"time": 191050, "pitch": 73, "duration": 450, "velocity": 127}, {"time": 191280, "pitch": 30, "duration": 600, "velocity": 104}, {"time": 191520, "pitch": 57, "duration": 340, "velocity": 90}, {"time": 191520, "pitch": 61, "duration": 340, "velocity": 90}, {"time": 191520, "pitch": 64, "duration": 340, "velocity": 100}, {"time": 191530, "pitch": 69, "duration": 340, "velocity": 120}, {"time": 191880, "pitch": 40, "duration": 830, "velocity": 100}, {"time": 191880, "pitch": 47, "duration": 2020, "velocity": 100}, {"time": 191880, "pitch": 59, "duration": 600, "velocity": 100}, {"time": 191890, "pitch": 62, "duration": 590, "velocity": 110}, {"time": 191890, "pitch": 64, "duration": 590, "velocity": 100}, {"time": 191890, "pitch": 67, "duration": 590, "velocity": 120}, {"time": 192240, "pitch": 52, "duration": 620, "velocity": 90}, {"time": 192480, "pitch": 55, "duration": 850, "velocity": 100}, {"time": 192480, "pitch": 59, "duration": 480, "velocity": 100}, {"time": 192480, "pitch": 62, "duration": 470, "velocity": 110}, {"time": 192480, "pitch": 64, "duration": 470, "velocity": 100}, {"time": 192480, "pitch": 67, "duration": 480, "velocity": 120}, {"time": 192720, "pitch": 28, "duration": 460, "velocity": 94}, {"time": 192720, "pitch": 40, "duration": 900, "velocity": 100}, {"time": 192950, "pitch": 62, "duration": 450, "velocity": 100}, {"time": 192950, "pitch": 64, "duration": 450, "velocity": 110}, {"time": 192960, "pitch": 67, "duration": 450, "velocity": 110}, {"time": 192970, "pitch": 71, "duration": 450, "velocity": 127}, {"time": 193200, "pitch": 28, "duration": 700, "velocity": 94}, {"time": 193440, "pitch": 59, "duration": 340, "velocity": 100}, {"time": 193440, "pitch": 62, "duration": 340, "velocity": 90}, {"time": 193450, "pitch": 64, "duration": 340, "velocity": 100}, {"time": 193450, "pitch": 67, "duration": 340, "velocity": 110}, {"time": 193800, "pitch": 42, "duration": 830, "velocity": 100}, {"time": 193800, "pitch": 49, "duration": 2020, "velocity": 100}, {"time": 193800, "pitch": 57, "duration": 600, "velocity": 100}, {"time": 193810, "pitch": 61, "duration": 590, "velocity": 110}, {"time": 193810, "pitch": 64, "duration": 590, "velocity": 100}, {"time": 193810, "pitch": 69, "duration": 590, "velocity": 127}, {"time": 194160, "pitch": 54, "duration": 620, "velocity": 100}, {"time": 194400, "pitch": 62, "duration": 850, "velocity": 100}, {"time": 194410, "pitch": 64, "duration": 450, "velocity": 110}, {"time": 194420, "pitch": 71, "duration": 450, "velocity": 120}, {"time": 194650, "pitch": 30, "duration": 450, "velocity": 105}, {"time": 194650, "pitch": 42, "duration": 470, "velocity": 110}, {"time": 194880, "pitch": 64, "duration": 450, "velocity": 100}, {"time": 194880, "pitch": 69, "duration": 450, "velocity": 110}, {"time": 194890, "pitch": 73, "duration": 450, "velocity": 127}, {"time": 195120, "pitch": 30, "duration": 470, "velocity": 124}, {"time": 195120, "pitch": 42, "duration": 470, "velocity": 114}, {"time": 195360, "pitch": 64, "duration": 340, "velocity": 100}, {"time": 195360, "pitch": 66, "duration": 340, "velocity": 100}, {"time": 195360, "pitch": 69, "duration": 340, "velocity": 110}, {"time": 195370, "pitch": 71, "duration": 340, "velocity": 127}, {"time": 195600, "pitch": 30, "duration": 110, "velocity": 127}, {"time": 195720, "pitch": 43, "duration": 830, "velocity": 100}, {"time": 195720, "pitch": 62, "duration": 540, "velocity": 100}, {"time": 195720, "pitch": 66, "duration": 570, "velocity": 110}, {"time": 195730, "pitch": 67, "duration": 560, "velocity": 113}, {"time": 195730, "pitch": 71, "duration": 560, "velocity": 110}, {"time": 195740, "pitch": 50, "duration": 2000, "velocity": 120}, {"time": 196080, "pitch": 55, "duration": 620, "velocity": 90}, {"time": 196320, "pitch": 62, "duration": 950, "velocity": 100}, {"time": 196330, "pitch": 66, "duration": 450, "velocity": 110}, {"time": 196330, "pitch": 67, "duration": 450, "velocity": 110}, {"time": 196350, "pitch": 71, "duration": 450, "velocity": 110}, {"time": 196570, "pitch": 31, "duration": 460, "velocity": 95}, {"time": 196570, "pitch": 43, "duration": 1000, "velocity": 100}, {"time": 196800, "pitch": 64, "duration": 450, "velocity": 100}, {"time": 196800, "pitch": 67, "duration": 450, "velocity": 110}, {"time": 196810, "pitch": 71, "duration": 450, "velocity": 110}, {"time": 196810, "pitch": 74, "duration": 450, "velocity": 120}, {"time": 197040, "pitch": 31, "duration": 600, "velocity": 94}, {"time": 197280, "pitch": 55, "duration": 350, "velocity": 100}, {"time": 197280, "pitch": 59, "duration": 350, "velocity": 90}, {"time": 197280, "pitch": 62, "duration": 350, "velocity": 110}, {"time": 197290, "pitch": 64, "duration": 350, "velocity": 100}, {"time": 197640, "pitch": 42, "duration": 830, "velocity": 100}, {"time": 197640, "pitch": 49, "duration": 2020, "velocity": 100}, {"time": 197640, "pitch": 61, "duration": 550, "velocity": 100}, {"time": 197650, "pitch": 64, "duration": 540, "velocity": 110}, {"time": 197650, "pitch": 66, "duration": 560, "velocity": 100}, {"time": 197650, "pitch": 69, "duration": 560, "velocity": 120}, {"time": 198000, "pitch": 54, "duration": 620, "velocity": 90}, {"time": 198240, "pitch": 57, "duration": 850, "velocity": 100}, {"time": 198240, "pitch": 61, "duration": 450, "velocity": 110}, {"time": 198250, "pitch": 64, "duration": 450, "velocity": 110}, {"time": 198260, "pitch": 66, "duration": 830, "velocity": 100}, {"time": 198260, "pitch": 69, "duration": 430, "velocity": 120}, {"time": 198480, "pitch": 30, "duration": 470, "velocity": 95}, {"time": 198480, "pitch": 42, "duration": 900, "velocity": 100}, {"time": 198720, "pitch": 64, "duration": 450, "velocity": 100}, {"time": 198720, "pitch": 69, "duration": 450, "velocity": 110}, {"time": 198730, "pitch": 73, "duration": 450, "velocity": 127}, {"time": 198960, "pitch": 30, "duration": 600, "velocity": 104}, {"time": 199200, "pitch": 57, "duration": 340, "velocity": 90}, {"time": 199200, "pitch": 61, "duration": 340, "velocity": 90}, {"time": 199200, "pitch": 64, "duration": 340, "velocity": 100}, {"time": 199210, "pitch": 69, "duration": 340, "velocity": 120}, {"time": 199560, "pitch": 40, "duration": 830, "velocity": 100}, {"time": 199560, "pitch": 47, "duration": 2020, "velocity": 100}, {"time": 199560, "pitch": 59, "duration": 600, "velocity": 100}, {"time": 199570, "pitch": 62, "duration": 590, "velocity": 110}, {"time": 199570, "pitch": 64, "duration": 590, "velocity": 100}, {"time": 199570, "pitch": 67, "duration": 590, "velocity": 120}, {"time": 199920, "pitch": 52, "duration": 620, "velocity": 90}, {"time": 200160, "pitch": 55, "duration": 850, "velocity": 100}, {"time": 200160, "pitch": 59, "duration": 480, "velocity": 100}, {"time": 200160, "pitch": 62, "duration": 470, "velocity": 110}, {"time": 200160, "pitch": 64, "duration": 470, "velocity": 100}, {"time": 200160, "pitch": 67, "duration": 480, "velocity": 120}, {"time": 200400, "pitch": 28, "duration": 460, "velocity": 94}, {"time": 200400, "pitch": 40, "duration": 900, "velocity": 100}, {"time": 200630, "pitch": 62, "duration": 450, "velocity": 100}, {"time": 200630, "pitch": 64, "duration": 450, "velocity": 110}, {"time": 200640, "pitch": 67, "duration": 450, "velocity": 110}, {"time": 200650, "pitch": 71, "duration": 450, "velocity": 127}, {"time": 200880, "pitch": 28, "duration": 700, "velocity": 94}, {"time": 201120, "pitch": 59, "duration": 340, "velocity": 100}, {"time": 201120, "pitch": 62, "duration": 340, "velocity": 90}, {"time": 201130, "pitch": 64, "duration": 340, "velocity": 100}, {"time": 201130, "pitch": 67, "duration": 340, "velocity": 110}, {"time": 201480, "pitch": 42, "duration": 830, "velocity": 100}, {"time": 201480, "pitch": 49, "duration": 2020, "velocity": 100}, {"time": 201480, "pitch": 57, "duration": 1070, "velocity": 100}, {"time": 201490, "pitch": 61, "duration": 460, "velocity": 110}, {"time": 201490, "pitch": 64, "duration": 590, "velocity": 100}, {"time": 201490, "pitch": 69, "duration": 590, "velocity": 127}, {"time": 201840, "pitch": 54, "duration": 620, "velocity": 100}, {"time": 202080, "pitch": 61, "duration": 850, "velocity": 100}, {"time": 202090, "pitch": 64, "duration": 450, "velocity": 110}, {"time": 202090, "pitch": 66, "duration": 450, "velocity": 110}, {"time": 202110, "pitch": 71, "duration": 450, "velocity": 110}, {"time": 202330, "pitch": 30, "duration": 450, "velocity": 110}, {"time": 202330, "pitch": 42, "duration": 450, "velocity": 110}, {"time": 202560, "pitch": 64, "duration": 450, "velocity": 100}, {"time": 202560, "pitch": 66, "duration": 450, "velocity": 100}, {"time": 202570, "pitch": 69, "duration": 450, "velocity": 110}, {"time": 202570, "pitch": 73, "duration": 450, "velocity": 127}, {"time": 202800, "pitch": 30, "duration": 470, "velocity": 124}, {"time": 202800, "pitch": 42, "duration": 470, "velocity": 124}, {"time": 203040, "pitch": 64, "duration": 340, "velocity": 101}, {"time": 203040, "pitch": 69, "duration": 340, "velocity": 100}, {"time": 203040, "pitch": 73, "duration": 340, "velocity": 110}, {"time": 203050, "pitch": 76, "duration": 340, "velocity": 127}, {"time": 203280, "pitch": 30, "duration": 110, "velocity": 127}, {"time": 203280, "pitch": 42, "duration": 110, "velocity": 127}, {"time": 203400, "pitch": 31, "duration": 830, "velocity": 120}, {"time": 203400, "pitch": 43, "duration": 730, "velocity": 120}, {"time": 203400, "pitch": 50, "duration": 2020, "velocity": 100}, {"time": 203400, "pitch": 62, "duration": 570, "velocity": 100}, {"time": 203410, "pitch": 66, "duration": 560, "velocity": 120}, {"time": 203410, "pitch": 74, "duration": 690, "velocity": 120}, {"time": 203760, "pitch": 55, "duration": 620, "velocity": 90}, {"time": 204000, "pitch": 62, "duration": 1250, "velocity": 107}, {"time": 204000, "pitch": 66, "duration": 840, "velocity": 110}, {"time": 204010, "pitch": 67, "duration": 1250, "velocity": 110}, {"time": 204020, "pitch": 71, "duration": 650, "velocity": 110}, {"time": 204240, "pitch": 31, "duration": 700, "velocity": 110}, {"time": 204240, "pitch": 43, "duration": 700, "velocity": 110}, {"time": 204480, "pitch": 78, "duration": 150, "velocity": 127}, {"time": 204600, "pitch": 74, "duration": 150, "velocity": 110}, {"time": 204720, "pitch": 71, "duration": 150, "velocity": 120}, {"time": 204840, "pitch": 66, "duration": 150, "velocity": 104}, {"time": 204960, "pitch": 31, "duration": 1000, "velocity": 110}, {"time": 204960, "pitch": 43, "duration": 1000, "velocity": 110}, {"time": 204960, "pitch": 64, "duration": 150, "velocity": 127}, {"time": 205080, "pitch": 59, "duration": 150, "velocity": 110}, {"time": 205200, "pitch": 55, "duration": 150, "velocity": 127}, {"time": 205320, "pitch": 30, "duration": 830, "velocity": 110}, {"time": 205320, "pitch": 42, "duration": 830, "velocity": 110}, {"time": 205320, "pitch": 49, "duration": 2020, "velocity": 100}, {"time": 205320, "pitch": 61, "duration": 570, "velocity": 100}, {"time": 205330, "pitch": 64, "duration": 560, "velocity": 120}, {"time": 205330, "pitch": 73, "duration": 590, "velocity": 120}, {"time": 205680, "pitch": 54, "duration": 620, "velocity": 90}, {"time": 205920, "pitch": 61, "duration": 950, "velocity": 100}, {"time": 205930, "pitch": 64, "duration": 750, "velocity": 110}, {"time": 205940, "pitch": 69, "duration": 650, "velocity": 120}, {"time": 206160, "pitch": 30, "duration": 700, "velocity": 110}, {"time": 206160, "pitch": 42, "duration": 700, "velocity": 110}, {"time": 206400, "pitch": 76, "duration": 150, "velocity": 127}, {"time": 206520, "pitch": 73, "duration": 150, "velocity": 110}, {"time": 206640, "pitch": 69, "duration": 150, "velocity": 120}, {"time": 206760, "pitch": 64, "duration": 150, "velocity": 104}, {"time": 206880, "pitch": 30, "duration": 900, "velocity": 110}, {"time": 206880, "pitch": 42, "duration": 900, "velocity": 110}, {"time": 206880, "pitch": 61, "duration": 150, "velocity": 127}, {"time": 207000, "pitch": 57, "duration": 150, "velocity": 110}, {"time": 207120, "pitch": 52, "duration": 150, "velocity": 127}, {"time": 207240, "pitch": 28, "duration": 830, "velocity": 110}, {"time": 207240, "pitch": 40, "duration": 830, "velocity": 110}, {"time": 207240, "pitch": 47, "duration": 830, "velocity": 100}, {"time": 207240, "pitch": 55, "duration": 830, "velocity": 110}, {"time": 207250, "pitch": 59, "duration": 820, "velocity": 100}, {"time": 207250, "pitch": 62, "duration": 580, "velocity": 110}, {"time": 207250, "pitch": 71, "duration": 580, "velocity": 120}, {"time": 207600, "pitch": 52, "duration": 620, "velocity": 90}, {"time": 207840, "pitch": 62, "duration": 450, "velocity": 100}, {"time": 207850, "pitch": 67, "duration": 450, "velocity": 110}, {"time": 207870, "pitch": 71, "duration": 450, "velocity": 110}, {"time": 208090, "pitch": 28, "duration": 700, "velocity": 110}, {"time": 208090, "pitch": 40, "duration": 700, "velocity": 120}, {"time": 208320, "pitch": 74, "duration": 150, "velocity": 127}, {"time": 208440, "pitch": 71, "duration": 150, "velocity": 110}, {"time": 208560, "pitch": 67, "duration": 150, "velocity": 120}, {"time": 208680, "pitch": 62, "duration": 150, "velocity": 104}, {"time": 208800, "pitch": 28, "duration": 900, "velocity": 110}, {"time": 208800, "pitch": 40, "duration": 900, "velocity": 120}, {"time": 208800, "pitch": 59, "duration": 150, "velocity": 127}, {"time": 208920, "pitch": 55, "duration": 150, "velocity": 110}, {"time": 209040, "pitch": 50, "duration": 150, "velocity": 127}, {"time": 209160, "pitch": 30, "duration": 830, "velocity": 110}, {"time": 209160, "pitch": 42, "duration": 830, "velocity": 110}, {"time": 209160, "pitch": 49, "duration": 2020, "velocity": 100}, {"time": 209160, "pitch": 57, "duration": 2020, "velocity": 110}, {"time": 209170, "pitch": 61, "duration": 590, "velocity": 100}, {"time": 209170, "pitch": 64, "duration": 590, "velocity": 110}, {"time": 209170, "pitch": 73, "duration": 590, "velocity": 120}, {"time": 209520, "pitch": 54, "duration": 450, "velocity": 100}, {"time": 209760, "pitch": 61, "duration": 220, "velocity": 110}, {"time": 209760, "pitch": 64, "duration": 220, "velocity": 100}, {"time": 209760, "pitch": 69, "duration": 220, "velocity": 120}, {"time": 210000, "pitch": 30, "duration": 450, "velocity": 110}, {"time": 210000, "pitch": 42, "duration": 450, "velocity": 110}, {"time": 210000, "pitch": 54, "duration": 900, "velocity": 110}, {"time": 210240, "pitch": 61, "duration": 450, "velocity": 100}, {"time": 210240, "pitch": 64, "duration": 450, "velocity": 110}, {"time": 210250, "pitch": 69, "duration": 450, "velocity": 110}, {"time": 210250, "pitch": 71, "duration": 450, "velocity": 127}, {"time": 210480, "pitch": 30, "duration": 470, "velocity": 124}, {"time": 210480, "pitch": 42, "duration": 470, "velocity": 124}, {"time": 210720, "pitch": 64, "duration": 340, "velocity": 100}, {"time": 210720, "pitch": 66, "duration": 340, "velocity": 100}, {"time": 210720, "pitch": 69, "duration": 340, "velocity": 110}, {"time": 210730, "pitch": 73, "duration": 340, "velocity": 127}, {"time": 210960, "pitch": 30, "duration": 110, "velocity": 127}, {"time": 210960, "pitch": 42, "duration": 110, "velocity": 127}, {"time": 211080, "pitch": 31, "duration": 2020, "velocity": 120}, {"time": 211080, "pitch": 43, "duration": 2020, "velocity": 120}, {"time": 211080, "pitch": 50, "duration": 1620, "velocity": 100}, {"time": 211080, "pitch": 62, "duration": 310, "velocity": 120}, {"time": 211080, "pitch": 74, "duration": 260, "velocity": 127}, {"time": 211320, "pitch": 67, "duration": 150, "velocity": 107}, {"time": 211440, "pitch": 71, "duration": 150, "velocity": 117}, {"time": 211560, "pitch": 74, "duration": 150, "velocity": 127}, {"time": 211680, "pitch": 78, "duration": 150, "velocity": 127}, {"time": 211800, "pitch": 74, "duration": 150, "velocity": 107}, {"time": 211920, "pitch": 71, "duration": 150, "velocity": 120}, {"time": 212040, "pitch": 67, "duration": 150, "velocity": 107}, {"time": 212160, "pitch": 71, "duration": 150, "velocity": 117}, {"time": 212280, "pitch": 67, "duration": 150, "velocity": 107}, {"time": 212400, "pitch": 62, "duration": 150, "velocity": 117}, {"time": 212520, "pitch": 59, "duration": 150, "velocity": 127}, {"time": 212640, "pitch": 55, "duration": 150, "velocity": 107}, {"time": 212760, "pitch": 50, "duration": 150, "velocity": 127}, {"time": 212880, "pitch": 47, "duration": 150, "velocity": 127}, {"time": 213000, "pitch": 30, "duration": 2020, "velocity": 120}, {"time": 213000, "pitch": 42, "duration": 2020, "velocity": 120}, {"time": 213000, "pitch": 49, "duration": 1620, "velocity": 100}, {"time": 213000, "pitch": 61, "duration": 310, "velocity": 120}, {"time": 213000, "pitch": 73, "duration": 260, "velocity": 127}, {"time": 213240, "pitch": 66, "duration": 150, "velocity": 107}, {"time": 213360, "pitch": 69, "duration": 150, "velocity": 117}, {"time": 213480, "pitch": 73, "duration": 150, "velocity": 127}, {"time": 213600, "pitch": 76, "duration": 150, "velocity": 127}, {"time": 213720, "pitch": 73, "duration": 150, "velocity": 107}, {"time": 213840, "pitch": 69, "duration": 150, "velocity": 120}, {"time": 213960, "pitch": 66, "duration": 150, "velocity": 107}, {"time": 214080, "pitch": 69, "duration": 150, "velocity": 117}, {"time": 214200, "pitch": 66, "duration": 150, "velocity": 107}, {"time": 214320, "pitch": 61, "duration": 150, "velocity": 117}, {"time": 214440, "pitch": 57, "duration": 150, "velocity": 127}, {"time": 214560, "pitch": 54, "duration": 150, "velocity": 107}, {"time": 214680, "pitch": 49, "duration": 150, "velocity": 127}, {"time": 214800, "pitch": 45, "duration": 150, "velocity": 127}, {"time": 214920, "pitch": 28, "duration": 2020, "velocity": 120}, {"time": 214920, "pitch": 40, "duration": 2020, "velocity": 120}, {"time": 214920, "pitch": 47, "duration": 2020, "velocity": 100}, {"time": 214920, "pitch": 59, "duration": 310, "velocity": 120}, {"time": 214920, "pitch": 71, "duration": 260, "velocity": 127}, {"time": 215160, "pitch": 64, "duration": 150, "velocity": 107}, {"time": 215280, "pitch": 67, "duration": 150, "velocity": 117}, {"time": 215400, "pitch": 71, "duration": 150, "velocity": 127}, {"time": 215520, "pitch": 74, "duration": 150, "velocity": 127}, {"time": 215640, "pitch": 71, "duration": 150, "velocity": 107}, {"time": 215760, "pitch": 67, "duration": 150, "velocity": 120}, {"time": 215880, "pitch": 64, "duration": 150, "velocity": 107}, {"time": 216000, "pitch": 67, "duration": 150, "velocity": 117}, {"time": 216120, "pitch": 71, "duration": 150, "velocity": 117}, {"time": 216240, "pitch": 76, "duration": 150, "velocity": 107}, {"time": 216360, "pitch": 79, "duration": 150, "velocity": 127}, {"time": 216480, "pitch": 83, "duration": 150, "velocity": 127}, {"time": 216600, "pitch": 88, "duration": 150, "velocity": 107}, {"time": 216720, "pitch": 91, "duration": 150, "velocity": 127}, {"time": 216840, "pitch": 30, "duration": 2020, "velocity": 120}, {"time": 216840, "pitch": 42, "duration": 1620, "velocity": 120}, {"time": 216840, "pitch": 49, "duration": 1420, "velocity": 100}, {"time": 216840, "pitch": 61, "duration": 1020, "velocity": 120}, {"time": 216840, "pitch": 73, "duration": 720, "velocity": 127}, {"time": 217080, "pitch": 90, "duration": 150, "velocity": 107}, {"time": 217200, "pitch": 85, "duration": 150, "velocity": 127}, {"time": 217320, "pitch": 81, "duration": 150, "velocity": 120}, {"time": 217440, "pitch": 76, "duration": 150, "velocity": 127}, {"time": 217560, "pitch": 73, "duration": 1250, "velocity": 107}, {"time": 217680, "pitch": 69, "duration": 150, "velocity": 117}, {"time": 217800, "pitch": 66, "duration": 150, "velocity": 107}, {"time": 217920, "pitch": 61, "duration": 950, "velocity": 117}, {"time": 218040, "pitch": 57, "duration": 150, "velocity": 127}, {"time": 218160, "pitch": 54, "duration": 150, "velocity": 107}, {"time": 218280, "pitch": 49, "duration": 550, "velocity": 127}, {"time": 218400, "pitch": 45, "duration": 150, "velocity": 127}, {"time": 218520, "pitch": 42, "duration": 340, "velocity": 107}, {"time": 195720, "pitch": 78, "duration": 3820, "velocity": 80}, {"time": 199560, "pitch": 76, "duration": 1880, "velocity": 80}, {"time": 201480, "pitch": 78, "duration": 1890, "velocity": 80}, {"time": 203400, "pitch": 78, "duration": 3820, "velocity": 80}, {"time": 207240, "pitch": 76, "duration": 1880, "velocity": 80}, {"time": 209160, "pitch": 78, "duration": 1890, "velocity": 80}, {"time": 211080, "pitch": 78, "duration": 3820, "velocity": 80}, {"time": 214920, "pitch": 76, "duration": 1880, "velocity": 80}, {"time": 216840, "pitch": 78, "duration": 1890, "velocity": 80}, {"time": 188040, "pitch": 55, "duration": 1920, "velocity": 90}, {"time": 189960, "pitch": 54, "duration": 600, "velocity": 90}, {"time": 190560, "pitch": 61, "duration": 490, "velocity": 100}, {"time": 191040, "pitch": 57, "duration": 500, "velocity": 90}, {"time": 191520, "pitch": 52, "duration": 340, "velocity": 95}, {"time": 191880, "pitch": 55, "duration": 1890, "velocity": 105}, {"time": 193800, "pitch": 57, "duration": 800, "velocity": 105}, {"time": 194640, "pitch": 57, "duration": 130, "velocity": 100}, {"time": 194760, "pitch": 59, "duration": 130, "velocity": 90}, {"time": 194880, "pitch": 61, "duration": 480, "velocity": 105}, {"time": 195360, "pitch": 64, "duration": 370, "velocity": 110}, {"time": 195720, "pitch": 62, "duration": 1890, "velocity": 105}, {"time": 197640, "pitch": 61, "duration": 600, "velocity": 100}, {"time": 198240, "pitch": 69, "duration": 500, "velocity": 110}, {"time": 198720, "pitch": 64, "duration": 480, "velocity": 105}, {"time": 199200, "pitch": 61, "duration": 370, "velocity": 95}, {"time": 199560, "pitch": 67, "duration": 800, "velocity": 105}, {"time": 200400, "pitch": 67, "duration": 130, "velocity": 105}, {"time": 200520, "pitch": 69, "duration": 130, "velocity": 95}, {"time": 200640, "pitch": 71, "duration": 820, "velocity": 110}, {"time": 201480, "pitch": 69, "duration": 800, "velocity": 110}, {"time": 202320, "pitch": 69, "duration": 130, "velocity": 100}, {"time": 202440, "pitch": 71, "duration": 130, "velocity": 90}, {"time": 202560, "pitch": 73, "duration": 490, "velocity": 105}, {"time": 203040, "pitch": 76, "duration": 340, "velocity": 110}, {"time": 203400, "pitch": 62, "duration": 1890, "velocity": 90}, {"time": 203400, "pitch": 74, "duration": 1890, "velocity": 105}, {"time": 205320, "pitch": 61, "duration": 600, "velocity": 85}, {"time": 205320, "pitch": 73, "duration": 600, "velocity": 100}, {"time": 205920, "pitch": 69, "duration": 500, "velocity": 95}, {"time": 205920, "pitch": 81, "duration": 500, "velocity": 110}, {"time": 206400, "pitch": 64, "duration": 480, "velocity": 90}, {"time": 206400, "pitch": 76, "duration": 480, "velocity": 105}, {"time": 206880, "pitch": 61, "duration": 340, "velocity": 80}, {"time": 206880, "pitch": 73, "duration": 340, "velocity": 95}, {"time": 207240, "pitch": 67, "duration": 800, "velocity": 90}, {"time": 207240, "pitch": 79, "duration": 800, "velocity": 105}, {"time": 208080, "pitch": 67, "duration": 130, "velocity": 90}, {"time": 208080, "pitch": 79, "duration": 130, "velocity": 105}, {"time": 208200, "pitch": 69, "duration": 130, "velocity": 80}, {"time": 208200, "pitch": 81, "duration": 130, "velocity": 95}, {"time": 208320, "pitch": 71, "duration": 820, "velocity": 95}, {"time": 208320, "pitch": 83, "duration": 820, "velocity": 110}, {"time": 209160, "pitch": 69, "duration": 800, "velocity": 95}, {"time": 209160, "pitch": 81, "duration": 800, "velocity": 110}, {"time": 210000, "pitch": 69, "duration": 150, "velocity": 85}, {"time": 210000, "pitch": 81, "duration": 150, "velocity": 100}, {"time": 210120, "pitch": 71, "duration": 130, "velocity": 75}, {"time": 210120, "pitch": 83, "duration": 130, "velocity": 90}, {"time": 210240, "pitch": 73, "duration": 480, "velocity": 90}, {"time": 210240, "pitch": 85, "duration": 480, "velocity": 105}, {"time": 210720, "pitch": 76, "duration": 340, "velocity": 95}, {"time": 210720, "pitch": 88, "duration": 340, "velocity": 110}, {"time": 211080, "pitch": 74, "duration": 1890, "velocity": 90}, {"time": 211080, "pitch": 86, "duration": 1890, "velocity": 105}, {"time": 213000, "pitch": 73, "duration": 600, "velocity": 85}, {"time": 213000, "pitch": 85, "duration": 600, "velocity": 100}, {"time": 213600, "pitch": 81, "duration": 490, "velocity": 95}, {"time": 213600, "pitch": 93, "duration": 490, "velocity": 110}, {"time": 214080, "pitch": 76, "duration": 500, "velocity": 90}, {"time": 214080, "pitch": 88, "duration": 500, "velocity": 105}, {"time": 214560, "pitch": 73, "duration": 340, "velocity": 80}, {"time": 214560, "pitch": 85, "duration": 340, "velocity": 95}, {"time": 214920, "pitch": 79, "duration": 800, "velocity": 90}, {"time": 214920, "pitch": 91, "duration": 800, "velocity": 105}, {"time": 215760, "pitch": 79, "duration": 100, "velocity": 90}, {"time": 215760, "pitch": 91, "duration": 100, "velocity": 105}, {"time": 215880, "pitch": 76, "duration": 100, "velocity": 80}, {"time": 215880, "pitch": 88, "duration": 100, "velocity": 95}, {"time": 216000, "pitch": 71, "duration": 820, "velocity": 95}, {"time": 216000, "pitch": 83, "duration": 820, "velocity": 110}, {"time": 216840, "pitch": 69, "duration": 230, "velocity": 95}, {"time": 216840, "pitch": 81, "duration": 230, "velocity": 110}, {"time": 217080, "pitch": 78, "duration": 150, "velocity": 92}, {"time": 217080, "pitch": 90, "duration": 150, "velocity": 107}, {"time": 217200, "pitch": 73, "duration": 150, "velocity": 112}, {"time": 217200, "pitch": 85, "duration": 150, "velocity": 127}, {"time": 217320, "pitch": 69, "duration": 150, "velocity": 105}, {"time": 217320, "pitch": 81, "duration": 150, "velocity": 120}, {"time": 217440, "pitch": 64, "duration": 150, "velocity": 112}, {"time": 217440, "pitch": 76, "duration": 150, "velocity": 127}, {"time": 217560, "pitch": 61, "duration": 150, "velocity": 92}, {"time": 217560, "pitch": 73, "duration": 150, "velocity": 107}, {"time": 217680, "pitch": 57, "duration": 150, "velocity": 102}, {"time": 217680, "pitch": 69, "duration": 150, "velocity": 117}, {"time": 217800, "pitch": 54, "duration": 150, "velocity": 92}, {"time": 217800, "pitch": 66, "duration": 150, "velocity": 107}, {"time": 217920, "pitch": 49, "duration": 150, "velocity": 102}, {"time": 217920, "pitch": 61, "duration": 150, "velocity": 117}, {"time": 218040, "pitch": 45, "duration": 150, "velocity": 112}, {"time": 218040, "pitch": 57, "duration": 150, "velocity": 127}, {"time": 218160, "pitch": 42, "duration": 150, "velocity": 92}, {"time": 218160, "pitch": 54, "duration": 150, "velocity": 107}, {"time": 218280, "pitch": 37, "duration": 150, "velocity": 112}, {"time": 218280, "pitch": 49, "duration": 150, "velocity": 127}, {"time": 218400, "pitch": 33, "duration": 150, "velocity": 112}, {"time": 218400, "pitch": 45, "duration": 150, "velocity": 127}, {"time": 218520, "pitch": 30, "duration": 340, "velocity": 92}, {"time": 218520, "pitch": 42, "duration": 340, "velocity": 107}, {"time": 188040, "pitch": 43, "duration": 1900, "velocity": 80}, {"time": 188040, "pitch": 50, "duration": 1900, "velocity": 80}, {"time": 189960, "pitch": 42, "duration": 1910, "velocity": 80}, {"time": 189960, "pitch": 49, "duration": 1910, "velocity": 80}, {"time": 191880, "pitch": 40, "duration": 1910, "velocity": 80}, {"time": 191880, "pitch": 47, "duration": 1910, "velocity": 80}, {"time": 193800, "pitch": 42, "duration": 1910, "velocity": 80}, {"time": 193800, "pitch": 49, "duration": 1910, "velocity": 80}, {"time": 195720, "pitch": 43, "duration": 1900, "velocity": 80}, {"time": 195720, "pitch": 50, "duration": 1900, "velocity": 80}, {"time": 197640, "pitch": 42, "duration": 1910, "velocity": 80}, {"time": 197640, "pitch": 49, "duration": 1910, "velocity": 80}, {"time": 199560, "pitch": 40, "duration": 1910, "velocity": 80}, {"time": 199560, "pitch": 47, "duration": 1910, "velocity": 80}, {"time": 201480, "pitch": 42, "duration": 1910, "velocity": 80}, {"time": 201480, "pitch": 49, "duration": 1910, "velocity": 80}, {"time": 203400, "pitch": 43, "duration": 1900, "velocity": 80}, {"time": 203400, "pitch": 50, "duration": 1900, "velocity": 80}, {"time": 205320, "pitch": 42, "duration": 1910, "velocity": 80}, {"time": 205320, "pitch": 49, "duration": 1910, "velocity": 80}, {"time": 207240, "pitch": 40, "duration": 1910, "velocity": 80}, {"time": 207240, "pitch": 47, "duration": 1910, "velocity": 80}, {"time": 209160, "pitch": 42, "duration": 1910, "velocity": 80}, {"time": 209160, "pitch": 49, "duration": 1910, "velocity": 80}, {"time": 211080, "pitch": 43, "duration": 1900, "velocity": 80}, {"time": 211080, "pitch": 50, "duration": 1900, "velocity": 80}, {"time": 213000, "pitch": 42, "duration": 1910, "velocity": 80}, {"time": 213000, "pitch": 49, "duration": 1910, "velocity": 80}, {"time": 214920, "pitch": 40, "duration": 1910, "velocity": 80}, {"time": 214920, "pitch": 47, "duration": 1910, "velocity": 80}, {"time": 216840, "pitch": 42, "duration": 1800, "velocity": 80}, {"time": 216840, "pitch": 49, "duration": 1800, "velocity": 80}, {"time": 24960, "pitch": 36, "duration": 10, "velocity": 106}, {"time": 24960, "pitch": 57, "duration": 10, "velocity": 78}, {"time": 25320, "pitch": 36, "duration": 10, "velocity": 92}, {"time": 25440, "pitch": 38, "duration": 10, "velocity": 106}, {"time": 25440, "pitch": 53, "duration": 10, "velocity": 92}, {"time": 25680, "pitch": 36, "duration": 10, "velocity": 92}, {"time": 25680, "pitch": 53, "duration": 10, "velocity": 92}, {"time": 25920, "pitch": 36, "duration": 10, "velocity": 106}, {"time": 25920, "pitch": 53, "duration": 10, "velocity": 92}, {"time": 26040, "pitch": 38, "duration": 10, "velocity": 106}, {"time": 26160, "pitch": 53, "duration": 10, "velocity": 92}, {"time": 26280, "pitch": 36, "duration": 10, "velocity": 92}, {"time": 26400, "pitch": 38, "duration": 10, "velocity": 106}, {"time": 26400, "pitch": 53, "duration": 10, "velocity": 92}, {"time": 26640, "pitch": 38, "duration": 10, "velocity": 106}, {"time": 26760, "pitch": 36, "duration": 10, "velocity": 106}, {"time": 26760, "pitch": 49, "duration": 10, "velocity": 78}, {"time": 26880, "pitch": 36, "duration": 10, "velocity": 106}, {"time": 27000, "pitch": 36, "duration": 10, "velocity": 92}, {"time": 27120, "pitch": 36, "duration": 10, "velocity": 106}, {"time": 27120, "pitch": 38, "duration": 10, "velocity": 106}, {"time": 27120, "pitch": 53, "duration": 10, "velocity": 92}, {"time": 27240, "pitch": 36, "duration": 10, "velocity": 92}, {"time": 27360, "pitch": 36, "duration": 10, "velocity": 106}, {"time": 27360, "pitch": 53, "duration": 10, "velocity": 92}, {"time": 27480, "pitch": 36, "duration": 10, "velocity": 92}, {"time": 27600, "pitch": 36, "duration": 10, "velocity": 106}, {"time": 27600, "pitch": 38, "duration": 10, "velocity": 106}, {"time": 27600, "pitch": 53, "duration": 10, "velocity": 92}, {"time": 27720, "pitch": 36, "duration": 10, "velocity": 92}, {"time": 27840, "pitch": 36, "duration": 10, "velocity": 106}, {"time": 27840, "pitch": 53, "duration": 10, "velocity": 92}, {"time": 27960, "pitch": 36, "duration": 10, "velocity": 92}, {"time": 28080, "pitch": 36, "duration": 10, "velocity": 106}, {"time": 28080, "pitch": 38, "duration": 10, "velocity": 106}, {"time": 28080, "pitch": 53, "duration": 10, "velocity": 92}, {"time": 28200, "pitch": 36, "duration": 10, "velocity": 92}, {"time": 28320, "pitch": 36, "duration": 10, "velocity": 106}, {"time": 28320, "pitch": 53, "duration": 10, "velocity": 92}, {"time": 28440, "pitch": 36, "duration": 10, "velocity": 92}, {"time": 28560, "pitch": 36, "duration": 10, "velocity": 106}, {"time": 28560, "pitch": 38, "duration": 10, "velocity": 106}, {"time": 28560, "pitch": 53, "duration": 10, "velocity": 92}, {"time": 28680, "pitch": 36, "duration": 10, "velocity": 92}, {"time": 28800, "pitch": 36, "duration": 10, "velocity": 106}, {"time": 28800, "pitch": 53, "duration": 10, "velocity": 92}, {"time": 28920, "pitch": 36, "duration": 10, "velocity": 92}, {"time": 29040, "pitch": 36, "duration": 10, "velocity": 106}, {"time": 29040, "pitch": 38, "duration": 10, "velocity": 106}, {"time": 29040, "pitch": 53, "duration": 10, "velocity": 92}, {"time": 29160, "pitch": 36, "duration": 10, "velocity": 92}, {"time": 29280, "pitch": 36, "duration": 10, "velocity": 106}, {"time": 29280, "pitch": 53, "duration": 10, "velocity": 92}, {"time": 29400, "pitch": 36, "duration": 10, "velocity": 92}, {"time": 29520, "pitch": 36, "duration": 10, "velocity": 106}, {"time": 29520, "pitch": 38, "duration": 10, "velocity": 106}, {"time": 29520, "pitch": 53, "duration": 10, "velocity": 92}, {"time": 29640, "pitch": 36, "duration": 10, "velocity": 92}, {"time": 29760, "pitch": 36, "duration": 10, "velocity": 106}, {"time": 29760, "pitch": 53, "duration": 10, "velocity": 92}, {"time": 29880, "pitch": 36, "duration": 10, "velocity": 92}, {"time": 30000, "pitch": 36, "duration": 10, "velocity": 106}, {"time": 30000, "pitch": 38, "duration": 10, "velocity": 106}, {"time": 30000, "pitch": 53, "duration": 10, "velocity": 92}, {"time": 30120, "pitch": 36, "duration": 10, "velocity": 92}, {"time": 30240, "pitch": 36, "duration": 10, "velocity": 106}, {"time": 30240, "pitch": 53, "duration": 10, "velocity": 92}, {"time": 30360, "pitch": 36, "duration": 10, "velocity": 92}, {"time": 30480, "pitch": 36, "duration": 10, "velocity": 106}, {"time": 30480, "pitch": 38, "duration": 10, "velocity": 106}, {"time": 30600, "pitch": 36, "duration": 10, "velocity": 92}, {"time": 30600, "pitch": 49, "duration": 10, "velocity": 78}, {"time": 30720, "pitch": 36, "duration": 10, "velocity": 106}, {"time": 30840, "pitch": 36, "duration": 10, "velocity": 92}, {"time": 30960, "pitch": 36, "duration": 10, "velocity": 106}, {"time": 30960, "pitch": 38, "duration": 10, "velocity": 106}, {"time": 30960, "pitch": 53, "duration": 10, "velocity": 92}, {"time": 31080, "pitch": 36, "duration": 10, "velocity": 92}, {"time": 31200, "pitch": 36, "duration": 10, "velocity": 106}, {"time": 31200, "pitch": 53, "duration": 10, "velocity": 92}, {"time": 31320, "pitch": 36, "duration": 10, "velocity": 92}, {"time": 31440, "pitch": 36, "duration": 10, "velocity": 106}, {"time": 31440, "pitch": 38, "duration": 10, "velocity": 106}, {"time": 31440, "pitch": 53, "duration": 10, "velocity": 92}, {"time": 31560, "pitch": 36, "duration": 10, "velocity": 92}, {"time": 31680, "pitch": 36, "duration": 10, "velocity": 106}, {"time": 31680, "pitch": 53, "duration": 10, "velocity": 92}, {"time": 31800, "pitch": 36, "duration": 10, "velocity": 92}, {"time": 31920, "pitch": 36, "duration": 10, "velocity": 106}, {"time": 31920, "pitch": 38, "duration": 10, "velocity": 106}, {"time": 31920, "pitch": 53, "duration": 10, "velocity": 92}, {"time": 32040, "pitch": 36, "duration": 10, "velocity": 92}, {"time": 32160, "pitch": 36, "duration": 10, "velocity": 106}, {"time": 32160, "pitch": 53, "duration": 10, "velocity": 92}, {"time": 32280, "pitch": 36, "duration": 10, "velocity": 92}, {"time": 32400, "pitch": 36, "duration": 10, "velocity": 106}, {"time": 32400, "pitch": 38, "duration": 10, "velocity": 106}, {"time": 32400, "pitch": 53, "duration": 10, "velocity": 92}, {"time": 32520, "pitch": 36, "duration": 10, "velocity": 92}, {"time": 32640, "pitch": 36, "duration": 10, "velocity": 106}, {"time": 32640, "pitch": 53, "duration": 10, "velocity": 92}, {"time": 32760, "pitch": 36, "duration": 10, "velocity": 92}, {"time": 32880, "pitch": 36, "duration": 10, "velocity": 106}, {"time": 32880, "pitch": 38, "duration": 10, "velocity": 106}, {"time": 32880, "pitch": 53, "duration": 10, "velocity": 92}, {"time": 33000, "pitch": 36, "duration": 10, "velocity": 92}, {"time": 33120, "pitch": 36, "duration": 10, "velocity": 106}, {"time": 33120, "pitch": 53, "duration": 10, "velocity": 92}, {"time": 33240, "pitch": 36, "duration": 10, "velocity": 92}, {"time": 33360, "pitch": 36, "duration": 10, "velocity": 106}, {"time": 33360, "pitch": 38, "duration": 10, "velocity": 106}, {"time": 33360, "pitch": 53, "duration": 10, "velocity": 92}, {"time": 33480, "pitch": 36, "duration": 10, "velocity": 92}, {"time": 33600, "pitch": 36, "duration": 10, "velocity": 106}, {"time": 33600, "pitch": 53, "duration": 10, "velocity": 92}, {"time": 33720, "pitch": 36, "duration": 10, "velocity": 92}, {"time": 33840, "pitch": 36, "duration": 10, "velocity": 106}, {"time": 33840, "pitch": 38, "duration": 10, "velocity": 106}, {"time": 33840, "pitch": 53, "duration": 10, "velocity": 92}, {"time": 33960, "pitch": 36, "duration": 10, "velocity": 92}, {"time": 34080, "pitch": 36, "duration": 10, "velocity": 106}, {"time": 34080, "pitch": 53, "duration": 10, "velocity": 92}, {"time": 34200, "pitch": 36, "duration": 10, "velocity": 92}, {"time": 34320, "pitch": 36, "duration": 10, "velocity": 106}, {"time": 34320, "pitch": 38, "duration": 10, "velocity": 106}, {"time": 34440, "pitch": 36, "duration": 10, "velocity": 92}, {"time": 34440, "pitch": 49, "duration": 10, "velocity": 78}, {"time": 34560, "pitch": 36, "duration": 10, "velocity": 106}, {"time": 34680, "pitch": 36, "duration": 10, "velocity": 92}, {"time": 34800, "pitch": 36, "duration": 10, "velocity": 106}, {"time": 34800, "pitch": 38, "duration": 10, "velocity": 106}, {"time": 34800, "pitch": 53, "duration": 10, "velocity": 92}, {"time": 34920, "pitch": 36, "duration": 10, "velocity": 92}, {"time": 35040, "pitch": 36, "duration": 10, "velocity": 106}, {"time": 35040, "pitch": 53, "duration": 10, "velocity": 92}, {"time": 35160, "pitch": 36, "duration": 10, "velocity": 92}, {"time": 35280, "pitch": 36, "duration": 10, "velocity": 106}, {"time": 35280, "pitch": 38, "duration": 10, "velocity": 106}, {"time": 35280, "pitch": 53, "duration": 10, "velocity": 92}, {"time": 35400, "pitch": 36, "duration": 10, "velocity": 92}, {"time": 35520, "pitch": 36, "duration": 10, "velocity": 106}, {"time": 35520, "pitch": 53, "duration": 10, "velocity": 92}, {"time": 35640, "pitch": 36, "duration": 10, "velocity": 92}, {"time": 35760, "pitch": 36, "duration": 10, "velocity": 106}, {"time": 35760, "pitch": 38, "duration": 10, "velocity": 106}, {"time": 35760, "pitch": 53, "duration": 10, "velocity": 92}, {"time": 35880, "pitch": 36, "duration": 10, "velocity": 92}, {"time": 36000, "pitch": 36, "duration": 10, "velocity": 106}, {"time": 36000, "pitch": 53, "duration": 10, "velocity": 92}, {"time": 36120, "pitch": 36, "duration": 10, "velocity": 92}, {"time": 36240, "pitch": 36, "duration": 10, "velocity": 106}, {"time": 36240, "pitch": 38, "duration": 10, "velocity": 106}, {"time": 36240, "pitch": 53, "duration": 10, "velocity": 92}, {"time": 36360, "pitch": 36, "duration": 10, "velocity": 92}, {"time": 36480, "pitch": 36, "duration": 10, "velocity": 106}, {"time": 36480, "pitch": 53, "duration": 10, "velocity": 92}, {"time": 36600, "pitch": 36, "duration": 10, "velocity": 92}, {"time": 36720, "pitch": 36, "duration": 10, "velocity": 106}, {"time": 36720, "pitch": 38, "duration": 10, "velocity": 106}, {"time": 36720, "pitch": 53, "duration": 10, "velocity": 92}, {"time": 36840, "pitch": 36, "duration": 10, "velocity": 92}, {"time": 36960, "pitch": 36, "duration": 10, "velocity": 106}, {"time": 36960, "pitch": 53, "duration": 10, "velocity": 92}, {"time": 37080, "pitch": 36, "duration": 10, "velocity": 92}, {"time": 37200, "pitch": 36, "duration": 10, "velocity": 106}, {"time": 37200, "pitch": 38, "duration": 10, "velocity": 106}, {"time": 37200, "pitch": 53, "duration": 10, "velocity": 92}, {"time": 37320, "pitch": 36, "duration": 10, "velocity": 92}, {"time": 37440, "pitch": 36, "duration": 10, "velocity": 106}, {"time": 37440, "pitch": 53, "duration": 10, "velocity": 92}, {"time": 37560, "pitch": 36, "duration": 10, "velocity": 92}, {"time": 37680, "pitch": 36, "duration": 10, "velocity": 106}, {"time": 37680, "pitch": 38, "duration": 10, "velocity": 106}, {"time": 37680, "pitch": 53, "duration": 10, "velocity": 92}, {"time": 37800, "pitch": 36, "duration": 10, "velocity": 92}, {"time": 37920, "pitch": 36, "duration": 10, "velocity": 106}, {"time": 37920, "pitch": 53, "duration": 10, "velocity": 92}, {"time": 38040, "pitch": 36, "duration": 10, "velocity": 92}, {"time": 38160, "pitch": 36, "duration": 10, "velocity": 106}, {"time": 38160, "pitch": 38, "duration": 10, "velocity": 106}, {"time": 38280, "pitch": 36, "duration": 10, "velocity": 92}, {"time": 38280, "pitch": 49, "duration": 10, "velocity": 78}, {"time": 38400, "pitch": 36, "duration": 10, "velocity": 106}, {"time": 38520, "pitch": 36, "duration": 10, "velocity": 92}, {"time": 38640, "pitch": 36, "duration": 10, "velocity": 106}, {"time": 38640, "pitch": 38, "duration": 10, "velocity": 106}, {"time": 38640, "pitch": 53, "duration": 10, "velocity": 92}, {"time": 38760, "pitch": 36, "duration": 10, "velocity": 92}, {"time": 38880, "pitch": 36, "duration": 10, "velocity": 106}, {"time": 38880, "pitch": 53, "duration": 10, "velocity": 92}, {"time": 39000, "pitch": 36, "duration": 10, "velocity": 92}, {"time": 39120, "pitch": 36, "duration": 10, "velocity": 106}, {"time": 39120, "pitch": 38, "duration": 10, "velocity": 106}, {"time": 39120, "pitch": 53, "duration": 10, "velocity": 92}, {"time": 39240, "pitch": 36, "duration": 10, "velocity": 92}, {"time": 39360, "pitch": 36, "duration": 10, "velocity": 106}, {"time": 39360, "pitch": 53, "duration": 10, "velocity": 92}, {"time": 39480, "pitch": 36, "duration": 10, "velocity": 92}, {"time": 39600, "pitch": 36, "duration": 10, "velocity": 106}, {"time": 39600, "pitch": 38, "duration": 10, "velocity": 106}, {"time": 39600, "pitch": 53, "duration": 10, "velocity": 92}, {"time": 39720, "pitch": 36, "duration": 10, "velocity": 92}, {"time": 39840, "pitch": 36, "duration": 10, "velocity": 106}, {"time": 39840, "pitch": 53, "duration": 10, "velocity": 92}, {"time": 39960, "pitch": 36, "duration": 10, "velocity": 92}, {"time": 40080, "pitch": 36, "duration": 10, "velocity": 106}, {"time": 40080, "pitch": 38, "duration": 10, "velocity": 106}, {"time": 40080, "pitch": 53, "duration": 10, "velocity": 92}, {"time": 40200, "pitch": 36, "duration": 10, "velocity": 92}, {"time": 40320, "pitch": 36, "duration": 10, "velocity": 106}, {"time": 40320, "pitch": 53, "duration": 10, "velocity": 92}, {"time": 40440, "pitch": 36, "duration": 10, "velocity": 92}, {"time": 40560, "pitch": 36, "duration": 10, "velocity": 106}, {"time": 40560, "pitch": 38, "duration": 10, "velocity": 106}, {"time": 40560, "pitch": 53, "duration": 10, "velocity": 92}, {"time": 40680, "pitch": 36, "duration": 10, "velocity": 92}, {"time": 40800, "pitch": 36, "duration": 10, "velocity": 106}, {"time": 40800, "pitch": 53, "duration": 10, "velocity": 92}, {"time": 40920, "pitch": 36, "duration": 10, "velocity": 92}, {"time": 41040, "pitch": 36, "duration": 10, "velocity": 106}, {"time": 41040, "pitch": 38, "duration": 10, "velocity": 106}, {"time": 41040, "pitch": 53, "duration": 10, "velocity": 92}, {"time": 41160, "pitch": 36, "duration": 10, "velocity": 92}, {"time": 41280, "pitch": 36, "duration": 10, "velocity": 106}, {"time": 41280, "pitch": 53, "duration": 10, "velocity": 92}, {"time": 41400, "pitch": 36, "duration": 10, "velocity": 92}, {"time": 41520, "pitch": 36, "duration": 10, "velocity": 106}, {"time": 41520, "pitch": 38, "duration": 10, "velocity": 106}, {"time": 41520, "pitch": 53, "duration": 10, "velocity": 92}, {"time": 41640, "pitch": 36, "duration": 10, "velocity": 92}, {"time": 41760, "pitch": 36, "duration": 10, "velocity": 106}, {"time": 41760, "pitch": 53, "duration": 10, "velocity": 92}, {"time": 41880, "pitch": 36, "duration": 10, "velocity": 92}, {"time": 41880, "pitch": 53, "duration": 10, "velocity": 92}, {"time": 42000, "pitch": 36, "duration": 10, "velocity": 106}, {"time": 42000, "pitch": 38, "duration": 10, "velocity": 106}, {"time": 42120, "pitch": 36, "duration": 10, "velocity": 92}, {"time": 42120, "pitch": 49, "duration": 10, "velocity": 78}, {"time": 42360, "pitch": 36, "duration": 10, "velocity": 92}, {"time": 42480, "pitch": 38, "duration": 10, "velocity": 106}, {"time": 42480, "pitch": 53, "duration": 10, "velocity": 92}, {"time": 42720, "pitch": 36, "duration": 10, "velocity": 106}, {"time": 42720, "pitch": 53, "duration": 10, "velocity": 92}, {"time": 42840, "pitch": 36, "duration": 10, "velocity": 92}, {"time": 42840, "pitch": 53, "duration": 10, "velocity": 92}, {"time": 42960, "pitch": 38, "duration": 10, "velocity": 106}, {"time": 43080, "pitch": 36, "duration": 10, "velocity": 92}, {"time": 43080, "pitch": 57, "duration": 10, "velocity": 78}, {"time": 43320, "pitch": 36, "duration": 10, "velocity": 92}, {"time": 43440, "pitch": 38, "duration": 10, "velocity": 106}, {"time": 43440, "pitch": 53, "duration": 10, "velocity": 92}, {"time": 43680, "pitch": 36, "duration": 10, "velocity": 106}, {"time": 43680, "pitch": 53, "duration": 10, "velocity": 92}, {"time": 43800, "pitch": 36, "duration": 10, "velocity": 92}, {"time": 43800, "pitch": 53, "duration": 10, "velocity": 92}, {"time": 43920, "pitch": 38, "duration": 10, "velocity": 106}, {"time": 44040, "pitch": 36, "duration": 10, "velocity": 92}, {"time": 44040, "pitch": 46, "duration": 10, "velocity": 92}, {"time": 44160, "pitch": 44, "duration": 10, "velocity": 50}, {"time": 44400, "pitch": 44, "duration": 10, "velocity": 78}, {"time": 44880, "pitch": 44, "duration": 10, "velocity": 78}, {"time": 45360, "pitch": 44, "duration": 10, "velocity": 78}, {"time": 45840, "pitch": 38, "duration": 10, "velocity": 106}, {"time": 45840, "pitch": 44, "duration": 10, "velocity": 78}, {"time": 45960, "pitch": 36, "duration": 10, "velocity": 92}, {"time": 45960, "pitch": 46, "duration": 10, "velocity": 92}, {"time": 46080, "pitch": 44, "duration": 10, "velocity": 50}, {"time": 46320, "pitch": 44, "duration": 10, "velocity": 78}, {"time": 46800, "pitch": 44, "duration": 10, "velocity": 78}, {"time": 47280, "pitch": 44, "duration": 10, "velocity": 78}, {"time": 47760, "pitch": 44, "duration": 10, "velocity": 78}, {"time": 47880, "pitch": 36, "duration": 10, "velocity": 106}, {"time": 47880, "pitch": 49, "duration": 10, "velocity": 78}, {"time": 48120, "pitch": 36, "duration": 10, "velocity": 92}, {"time": 48240, "pitch": 38, "duration": 10, "velocity": 106}, {"time": 48240, "pitch": 42, "duration": 10, "velocity": 64}, {"time": 48480, "pitch": 36, "duration": 10, "velocity": 106}, {"time": 48480, "pitch": 42, "duration": 10, "velocity": 78}, {"time": 48600, "pitch": 36, "duration": 10, "velocity": 92}, {"time": 48720, "pitch": 38, "duration": 10, "velocity": 106}, {"time": 48720, "pitch": 42, "duration": 10, "velocity": 64}, {"time": 48960, "pitch": 36, "duration": 10, "velocity": 106}, {"time": 48960, "pitch": 42, "duration": 10, "velocity": 78}, {"time": 49200, "pitch": 38, "duration": 10, "velocity": 106}, {"time": 49200, "pitch": 42, "duration": 10, "velocity": 64}, {"time": 49320, "pitch": 36, "duration": 10, "velocity": 92}, {"time": 49440, "pitch": 42, "duration": 10, "velocity": 78}, {"time": 49560, "pitch": 36, "duration": 10, "velocity": 92}, {"time": 49680, "pitch": 38, "duration": 10, "velocity": 106}, {"time": 49680, "pitch": 42, "duration": 10, "velocity": 64}, {"time": 49800, "pitch": 36, "duration": 10, "velocity": 106}, {"time": 49800, "pitch": 46, "duration": 10, "velocity": 92}, {"time": 49920, "pitch": 44, "duration": 10, "velocity": 50}, {"time": 50040, "pitch": 36, "duration": 10, "velocity": 92}, {"time": 50160, "pitch": 38, "duration": 10, "velocity": 106}, {"time": 50160, "pitch": 42, "duration": 10, "velocity": 64}, {"time": 50400, "pitch": 36, "duration": 10, "velocity": 106}, {"time": 50400, "pitch": 42, "duration": 10, "velocity": 78}, {"time": 50520, "pitch": 36, "duration": 10, "velocity": 92}, {"time": 50640, "pitch": 38, "duration": 10, "velocity": 106}, {"time": 50640, "pitch": 42, "duration": 10, "velocity": 64}, {"time": 50880, "pitch": 36, "duration": 10, "velocity": 106}, {"time": 50880, "pitch": 42, "duration": 10, "velocity": 78}, {"time": 51120, "pitch": 38, "duration": 10, "velocity": 106}, {"time": 51120, "pitch": 42, "duration": 10, "velocity": 64}, {"time": 51240, "pitch": 36, "duration": 10, "velocity": 92}, {"time": 51360, "pitch": 42, "duration": 10, "velocity": 78}, {"time": 51480, "pitch": 36, "duration": 10, "velocity": 92}, {"time": 51600, "pitch": 38, "duration": 10, "velocity": 106}, {"time": 51600, "pitch": 42, "duration": 10, "velocity": 64}, {"time": 51720, "pitch": 36, "duration": 10, "velocity": 106}, {"time": 51720, "pitch": 46, "duration": 10, "velocity": 92}, {"time": 51840, "pitch": 44, "duration": 10, "velocity": 50}, {"time": 51960, "pitch": 36, "duration": 10, "velocity": 92}, {"time": 52080, "pitch": 38, "duration": 10, "velocity": 106}, {"time": 52080, "pitch": 42, "duration": 10, "velocity": 64}, {"time": 52320, "pitch": 36, "duration": 10, "velocity": 106}, {"time": 52320, "pitch": 42, "duration": 10, "velocity": 78}, {"time": 52440, "pitch": 36, "duration": 10, "velocity": 92}, {"time": 52560, "pitch": 38, "duration": 10, "velocity": 106}, {"time": 52560, "pitch": 42, "duration": 10, "velocity": 64}, {"time": 52800, "pitch": 36, "duration": 10, "velocity": 106}, {"time": 52800, "pitch": 42, "duration": 10, "velocity": 78}, {"time": 53040, "pitch": 38, "duration": 10, "velocity": 106}, {"time": 53040, "pitch": 42, "duration": 10, "velocity": 64}, {"time": 53160, "pitch": 36, "duration": 10, "velocity": 92}, {"time": 53280, "pitch": 42, "duration": 10, "velocity": 78}, {"time": 53400, "pitch": 36, "duration": 10, "velocity": 92}, {"time": 53520, "pitch": 38, "duration": 10, "velocity": 106}, {"time": 53520, "pitch": 42, "duration": 10, "velocity": 64}, {"time": 53640, "pitch": 36, "duration": 10, "velocity": 106}, {"time": 53640, "pitch": 46, "duration": 10, "velocity": 92}, {"time": 53760, "pitch": 44, "duration": 10, "velocity": 50}, {"time": 53880, "pitch": 36, "duration": 10, "velocity": 92}, {"time": 54000, "pitch": 38, "duration": 10, "velocity": 106}, {"time": 54000, "pitch": 42, "duration": 10, "velocity": 64}, {"time": 54240, "pitch": 36, "duration": 10, "velocity": 106}, {"time": 54240, "pitch": 42, "duration": 10, "velocity": 78}, {"time": 54360, "pitch": 36, "duration": 10, "velocity": 92}, {"time": 54480, "pitch": 38, "duration": 10, "velocity": 106}, {"time": 54480, "pitch": 42, "duration": 10, "velocity": 64}, {"time": 54720, "pitch": 36, "duration": 10, "velocity": 106}, {"time": 54720, "pitch": 42, "duration": 10, "velocity": 78}, {"time": 54960, "pitch": 38, "duration": 10, "velocity": 106}, {"time": 54960, "pitch": 42, "duration": 10, "velocity": 64}, {"time": 55080, "pitch": 36, "duration": 10, "velocity": 92}, {"time": 55200, "pitch": 42, "duration": 10, "velocity": 78}, {"time": 55320, "pitch": 36, "duration": 10, "velocity": 92}, {"time": 55440, "pitch": 38, "duration": 10, "velocity": 106}, {"time": 55440, "pitch": 42, "duration": 10, "velocity": 64}, {"time": 55560, "pitch": 36, "duration": 10, "velocity": 106}, {"time": 55560, "pitch": 49, "duration": 10, "velocity": 78}, {"time": 55800, "pitch": 36, "duration": 10, "velocity": 92}, {"time": 55920, "pitch": 38, "duration": 10, "velocity": 106}, {"time": 55920, "pitch": 42, "duration": 10, "velocity": 64}, {"time": 56160, "pitch": 36, "duration": 10, "velocity": 106}, {"time": 56160, "pitch": 42, "duration": 10, "velocity": 78}, {"time": 56280, "pitch": 36, "duration": 10, "velocity": 92}, {"time": 56400, "pitch": 38, "duration": 10, "velocity": 106}, {"time": 56400, "pitch": 42, "duration": 10, "velocity": 64}, {"time": 56640, "pitch": 36, "duration": 10, "velocity": 106}, {"time": 56640, "pitch": 42, "duration": 10, "velocity": 78}, {"time": 56880, "pitch": 38, "duration": 10, "velocity": 106}, {"time": 56880, "pitch": 42, "duration": 10, "velocity": 64}, {"time": 57000, "pitch": 36, "duration": 10, "velocity": 92}, {"time": 57120, "pitch": 42, "duration": 10, "velocity": 78}, {"time": 57240, "pitch": 36, "duration": 10, "velocity": 92}, {"time": 57360, "pitch": 38, "duration": 10, "velocity": 106}, {"time": 57360, "pitch": 42, "duration": 10, "velocity": 64}, {"time": 57480, "pitch": 36, "duration": 10, "velocity": 106}, {"time": 57480, "pitch": 46, "duration": 10, "velocity": 92}, {"time": 57600, "pitch": 44, "duration": 10, "velocity": 50}, {"time": 57720, "pitch": 36, "duration": 10, "velocity": 92}, {"time": 57840, "pitch": 38, "duration": 10, "velocity": 106}, {"time": 57840, "pitch": 42, "duration": 10, "velocity": 64}, {"time": 58080, "pitch": 36, "duration": 10, "velocity": 106}, {"time": 58080, "pitch": 42, "duration": 10, "velocity": 78}, {"time": 58200, "pitch": 36, "duration": 10, "velocity": 92}, {"time": 58320, "pitch": 38, "duration": 10, "velocity": 106}, {"time": 58320, "pitch": 42, "duration": 10, "velocity": 64}, {"time": 58560, "pitch": 36, "duration": 10, "velocity": 106}, {"time": 58560, "pitch": 42, "duration": 10, "velocity": 78}, {"time": 58800, "pitch": 38, "duration": 10, "velocity": 106}, {"time": 58800, "pitch": 42, "duration": 10, "velocity": 64}, {"time": 58920, "pitch": 36, "duration": 10, "velocity": 92}, {"time": 59040, "pitch": 42, "duration": 10, "velocity": 78}, {"time": 59160, "pitch": 36, "duration": 10, "velocity": 92}, {"time": 59280, "pitch": 38, "duration": 10, "velocity": 106}, {"time": 59280, "pitch": 42, "duration": 10, "velocity": 64}, {"time": 59400, "pitch": 36, "duration": 10, "velocity": 106}, {"time": 59400, "pitch": 46, "duration": 10, "velocity": 92}, {"time": 59520, "pitch": 44, "duration": 10, "velocity": 50}, {"time": 59640, "pitch": 36, "duration": 10, "velocity": 92}, {"time": 59760, "pitch": 38, "duration": 10, "velocity": 106}, {"time": 59760, "pitch": 42, "duration": 10, "velocity": 64}, {"time": 60000, "pitch": 36, "duration": 10, "velocity": 106}, {"time": 60000, "pitch": 42, "duration": 10, "velocity": 78}, {"time": 60120, "pitch": 36, "duration": 10, "velocity": 92}, {"time": 60240, "pitch": 38, "duration": 10, "velocity": 106}, {"time": 60240, "pitch": 42, "duration": 10, "velocity": 64}, {"time": 60480, "pitch": 36, "duration": 10, "velocity": 106}, {"time": 60480, "pitch": 42, "duration": 10, "velocity": 78}, {"time": 60720, "pitch": 38, "duration": 10, "velocity": 106}, {"time": 60720, "pitch": 42, "duration": 10, "velocity": 64}, {"time": 60840, "pitch": 36, "duration": 10, "velocity": 92}, {"time": 60960, "pitch": 42, "duration": 10, "velocity": 78}, {"time": 61080, "pitch": 36, "duration": 10, "velocity": 92}, {"time": 61200, "pitch": 38, "duration": 10, "velocity": 106}, {"time": 61200, "pitch": 42, "duration": 10, "velocity": 64}, {"time": 61320, "pitch": 36, "duration": 10, "velocity": 106}, {"time": 61320, "pitch": 57, "duration": 10, "velocity": 78}, {"time": 61440, "pitch": 42, "duration": 10, "velocity": 78}, {"time": 61560, "pitch": 36, "duration": 10, "velocity": 92}, {"time": 61680, "pitch": 38, "duration": 10, "velocity": 106}, {"time": 61680, "pitch": 42, "duration": 10, "velocity": 64}, {"time": 61920, "pitch": 36, "duration": 10, "velocity": 106}, {"time": 61920, "pitch": 42, "duration": 10, "velocity": 78}, {"time": 62040, "pitch": 36, "duration": 10, "velocity": 92}, {"time": 62160, "pitch": 38, "duration": 10, "velocity": 106}, {"time": 62160, "pitch": 42, "duration": 10, "velocity": 64}, {"time": 62400, "pitch": 36, "duration": 10, "velocity": 106}, {"time": 62400, "pitch": 42, "duration": 10, "velocity": 78}, {"time": 62640, "pitch": 38, "duration": 10, "velocity": 106}, {"time": 62640, "pitch": 46, "duration": 10, "velocity": 78}, {"time": 62880, "pitch": 38, "duration": 10, "velocity": 106}, {"time": 63000, "pitch": 38, "duration": 10, "velocity": 106}, {"time": 63240, "pitch": 36, "duration": 10, "velocity": 106}, {"time": 63240, "pitch": 49, "duration": 10, "velocity": 78}, {"time": 63480, "pitch": 36, "duration": 10, "velocity": 92}, {"time": 63600, "pitch": 38, "duration": 10, "velocity": 106}, {"time": 63600, "pitch": 42, "duration": 10, "velocity": 64}, {"time": 63840, "pitch": 36, "duration": 10, "velocity": 106}, {"time": 63840, "pitch": 42, "duration": 10, "velocity": 78}, {"time": 63960, "pitch": 36, "duration": 10, "velocity": 92}, {"time": 64080, "pitch": 38, "duration": 10, "velocity": 106}, {"time": 64080, "pitch": 42, "duration": 10, "velocity": 64}, {"time": 64320, "pitch": 36, "duration": 10, "velocity": 106}, {"time": 64320, "pitch": 42, "duration": 10, "velocity": 78}, {"time": 64560, "pitch": 38, "duration": 10, "velocity": 106}, {"time": 64560, "pitch": 42, "duration": 10, "velocity": 64}, {"time": 64680, "pitch": 36, "duration": 10, "velocity": 92}, {"time": 64800, "pitch": 42, "duration": 10, "velocity": 78}, {"time": 64920, "pitch": 36, "duration": 10, "velocity": 92}, {"time": 65040, "pitch": 38, "duration": 10, "velocity": 106}, {"time": 65040, "pitch": 42, "duration": 10, "velocity": 64}, {"time": 65160, "pitch": 36, "duration": 10, "velocity": 106}, {"time": 65280, "pitch": 42, "duration": 10, "velocity": 78}, {"time": 65400, "pitch": 36, "duration": 10, "velocity": 92}, {"time": 65520, "pitch": 38, "duration": 10, "velocity": 106}, {"time": 65520, "pitch": 42, "duration": 10, "velocity": 64}, {"time": 65760, "pitch": 36, "duration": 10, "velocity": 106}, {"time": 65760, "pitch": 42, "duration": 10, "velocity": 78}, {"time": 65880, "pitch": 36, "duration": 10, "velocity": 92}, {"time": 66000, "pitch": 38, "duration": 10, "velocity": 106}, {"time": 66000, "pitch": 42, "duration": 10, "velocity": 64}, {"time": 66240, "pitch": 36, "duration": 10, "velocity": 106}, {"time": 66240, "pitch": 42, "duration": 10, "velocity": 78}, {"time": 66480, "pitch": 38, "duration": 10, "velocity": 106}, {"time": 66480, "pitch": 42, "duration": 10, "velocity": 64}, {"time": 66600, "pitch": 36, "duration": 10, "velocity": 92}, {"time": 66720, "pitch": 42, "duration": 10, "velocity": 78}, {"time": 66840, "pitch": 36, "duration": 10, "velocity": 92}, {"time": 66960, "pitch": 38, "duration": 10, "velocity": 106}, {"time": 66960, "pitch": 42, "duration": 10, "velocity": 64}, {"time": 67080, "pitch": 36, "duration": 10, "velocity": 106}, {"time": 67080, "pitch": 46, "duration": 10, "velocity": 92}, {"time": 67200, "pitch": 44, "duration": 10, "velocity": 50}, {"time": 67320, "pitch": 36, "duration": 10, "velocity": 92}, {"time": 67440, "pitch": 38, "duration": 10, "velocity": 106}, {"time": 67440, "pitch": 42, "duration": 10, "velocity": 64}, {"time": 67680, "pitch": 36, "duration": 10, "velocity": 106}, {"time": 67680, "pitch": 42, "duration": 10, "velocity": 78}, {"time": 67800, "pitch": 36, "duration": 10, "velocity": 92}, {"time": 67920, "pitch": 38, "duration": 10, "velocity": 106}, {"time": 67920, "pitch": 42, "duration": 10, "velocity": 64}, {"time": 68160, "pitch": 36, "duration": 10, "velocity": 106}, {"time": 68160, "pitch": 46, "duration": 10, "velocity": 78}, {"time": 68400, "pitch": 38, "duration": 10, "velocity": 78}, {"time": 68520, "pitch": 38, "duration": 10, "velocity": 92}, {"time": 68640, "pitch": 38, "duration": 10, "velocity": 106}, {"time": 68760, "pitch": 38, "duration": 10, "velocity": 106}, {"time": 68880, "pitch": 36, "duration": 10, "velocity": 106}, {"time": 68880, "pitch": 57, "duration": 10, "velocity": 78}, {"time": 69360, "pitch": 36, "duration": 10, "velocity": 106}, {"time": 69600, "pitch": 38, "duration": 10, "velocity": 106}, {"time": 69600, "pitch": 53, "duration": 10, "velocity": 92}, {"time": 69840, "pitch": 36, "duration": 10, "velocity": 106}, {"time": 69840, "pitch": 53, "duration": 10, "velocity": 92}, {"time": 70080, "pitch": 36, "duration": 10, "velocity": 106}, {"time": 70080, "pitch": 53, "duration": 10, "velocity": 92}, {"time": 70200, "pitch": 38, "duration": 10, "velocity": 92}, {"time": 70320, "pitch": 36, "duration": 10, "velocity": 92}, {"time": 70320, "pitch": 53, "duration": 10, "velocity": 92}, {"time": 70560, "pitch": 38, "duration": 10, "velocity": 106}, {"time": 70560, "pitch": 53, "duration": 10, "velocity": 92}, {"time": 70800, "pitch": 38, "duration": 10, "velocity": 106}, {"time": 70920, "pitch": 36, "duration": 10, "velocity": 106}, {"time": 70920, "pitch": 49, "duration": 10, "velocity": 78}, {"time": 71160, "pitch": 36, "duration": 10, "velocity": 92}, {"time": 71280, "pitch": 38, "duration": 10, "velocity": 106}, {"time": 71280, "pitch": 42, "duration": 10, "velocity": 64}, {"time": 71520, "pitch": 36, "duration": 10, "velocity": 106}, {"time": 71520, "pitch": 42, "duration": 10, "velocity": 78}, {"time": 71640, "pitch": 36, "duration": 10, "velocity": 92}, {"time": 71760, "pitch": 38, "duration": 10, "velocity": 106}, {"time": 71760, "pitch": 42, "duration": 10, "velocity": 64}, {"time": 72000, "pitch": 36, "duration": 10, "velocity": 106}, {"time": 72000, "pitch": 42, "duration": 10, "velocity": 78}, {"time": 72240, "pitch": 38, "duration": 10, "velocity": 106}, {"time": 72240, "pitch": 42, "duration": 10, "velocity": 64}, {"time": 72360, "pitch": 36, "duration": 10, "velocity": 92}, {"time": 72480, "pitch": 42, "duration": 10, "velocity": 78}, {"time": 72600, "pitch": 36, "duration": 10, "velocity": 92}, {"time": 72720, "pitch": 38, "duration": 10, "velocity": 106}, {"time": 72720, "pitch": 42, "duration": 10, "velocity": 64}, {"time": 72840, "pitch": 36, "duration": 10, "velocity": 106}, {"time": 72840, "pitch": 57, "duration": 10, "velocity": 78}, {"time": 73080, "pitch": 36, "duration": 10, "velocity": 92}, {"time": 73200, "pitch": 38, "duration": 10, "velocity": 106}, {"time": 73200, "pitch": 42, "duration": 10, "velocity": 64}, {"time": 73440, "pitch": 36, "duration": 10, "velocity": 106}, {"time": 73440, "pitch": 42, "duration": 10, "velocity": 78}, {"time": 73560, "pitch": 36, "duration": 10, "velocity": 92}, {"time": 73680, "pitch": 38, "duration": 10, "velocity": 106}, {"time": 73680, "pitch": 42, "duration": 10, "velocity": 64}, {"time": 73920, "pitch": 36, "duration": 10, "velocity": 106}, {"time": 73920, "pitch": 42, "duration": 10, "velocity": 78}, {"time": 74160, "pitch": 38, "duration": 10, "velocity": 106}, {"time": 74160, "pitch": 42, "duration": 10, "velocity": 64}, {"time": 74280, "pitch": 36, "duration": 10, "velocity": 92}, {"time": 74400, "pitch": 42, "duration": 10, "velocity": 78}, {"time": 74520, "pitch": 36, "duration": 10, "velocity": 92}, {"time": 74640, "pitch": 38, "duration": 10, "velocity": 106}, {"time": 74640, "pitch": 42, "duration": 10, "velocity": 64}, {"time": 74760, "pitch": 36, "duration": 10, "velocity": 106}, {"time": 74760, "pitch": 49, "duration": 10, "velocity": 78}, {"time": 74880, "pitch": 42, "duration": 10, "velocity": 78}, {"time": 75000, "pitch": 36, "duration": 10, "velocity": 92}, {"time": 75120, "pitch": 38, "duration": 10, "velocity": 106}, {"time": 75120, "pitch": 42, "duration": 10, "velocity": 64}, {"time": 75360, "pitch": 36, "duration": 10, "velocity": 106}, {"time": 75360, "pitch": 42, "duration": 10, "velocity": 78}, {"time": 75480, "pitch": 36, "duration": 10, "velocity": 92}, {"time": 75600, "pitch": 38, "duration": 10, "velocity": 106}, {"time": 75600, "pitch": 42, "duration": 10, "velocity": 64}, {"time": 75840, "pitch": 36, "duration": 10, "velocity": 106}, {"time": 75840, "pitch": 42, "duration": 10, "velocity": 78}, {"time": 76080, "pitch": 38, "duration": 10, "velocity": 106}, {"time": 76080, "pitch": 42, "duration": 10, "velocity": 64}, {"time": 76320, "pitch": 36, "duration": 10, "velocity": 92}, {"time": 76320, "pitch": 38, "duration": 10, "velocity": 106}, {"time": 76440, "pitch": 38, "duration": 10, "velocity": 106}, {"time": 76680, "pitch": 36, "duration": 10, "velocity": 106}, {"time": 76680, "pitch": 57, "duration": 10, "velocity": 78}, {"time": 76920, "pitch": 36, "duration": 10, "velocity": 92}, {"time": 77040, "pitch": 38, "duration": 10, "velocity": 106}, {"time": 77280, "pitch": 43, "duration": 10, "velocity": 92}, {"time": 77400, "pitch": 43, "duration": 10, "velocity": 92}, {"time": 77520, "pitch": 42, "duration": 10, "velocity": 64}, {"time": 77640, "pitch": 36, "duration": 10, "velocity": 106}, {"time": 77640, "pitch": 46, "duration": 10, "velocity": 92}, {"time": 77760, "pitch": 44, "duration": 10, "velocity": 50}, {"time": 78600, "pitch": 36, "duration": 10, "velocity": 106}, {"time": 78600, "pitch": 49, "duration": 10, "velocity": 78}, {"time": 78840, "pitch": 36, "duration": 10, "velocity": 92}, {"time": 78960, "pitch": 38, "duration": 10, "velocity": 106}, {"time": 78960, "pitch": 53, "duration": 10, "velocity": 92}, {"time": 79200, "pitch": 36, "duration": 10, "velocity": 106}, {"time": 79200, "pitch": 53, "duration": 10, "velocity": 92}, {"time": 79320, "pitch": 36, "duration": 10, "velocity": 92}, {"time": 79440, "pitch": 38, "duration": 10, "velocity": 106}, {"time": 79440, "pitch": 53, "duration": 10, "velocity": 92}, {"time": 79560, "pitch": 36, "duration": 10, "velocity": 92}, {"time": 79680, "pitch": 53, "duration": 10, "velocity": 92}, {"time": 79800, "pitch": 36, "duration": 10, "velocity": 92}, {"time": 79920, "pitch": 38, "duration": 10, "velocity": 106}, {"time": 79920, "pitch": 53, "duration": 10, "velocity": 92}, {"time": 80160, "pitch": 36, "duration": 10, "velocity": 106}, {"time": 80160, "pitch": 53, "duration": 10, "velocity": 92}, {"time": 80280, "pitch": 36, "duration": 10, "velocity": 92}, {"time": 80400, "pitch": 38, "duration": 10, "velocity": 106}, {"time": 80400, "pitch": 53, "duration": 10, "velocity": 92}, {"time": 80520, "pitch": 36, "duration": 10, "velocity": 106}, {"time": 80640, "pitch": 53, "duration": 10, "velocity": 92}, {"time": 80760, "pitch": 36, "duration": 10, "velocity": 92}, {"time": 80880, "pitch": 38, "duration": 10, "velocity": 106}, {"time": 80880, "pitch": 53, "duration": 10, "velocity": 92}, {"time": 81120, "pitch": 36, "duration": 10, "velocity": 106}, {"time": 81120, "pitch": 53, "duration": 10, "velocity": 92}, {"time": 81240, "pitch": 36, "duration": 10, "velocity": 92}, {"time": 81360, "pitch": 38, "duration": 10, "velocity": 106}, {"time": 81360, "pitch": 53, "duration": 10, "velocity": 92}, {"time": 81480, "pitch": 36, "duration": 10, "velocity": 92}, {"time": 81600, "pitch": 53, "duration": 10, "velocity": 92}, {"time": 81720, "pitch": 36, "duration": 10, "velocity": 92}, {"time": 81840, "pitch": 38, "duration": 10, "velocity": 106}, {"time": 81840, "pitch": 53, "duration": 10, "velocity": 92}, {"time": 82080, "pitch": 36, "duration": 10, "velocity": 106}, {"time": 82080, "pitch": 53, "duration": 10, "velocity": 92}, {"time": 82200, "pitch": 36, "duration": 10, "velocity": 92}, {"time": 82320, "pitch": 38, "duration": 10, "velocity": 106}, {"time": 82320, "pitch": 53, "duration": 10, "velocity": 92}, {"time": 82440, "pitch": 36, "duration": 10, "velocity": 106}, {"time": 82440, "pitch": 57, "duration": 10, "velocity": 78}, {"time": 82680, "pitch": 36, "duration": 10, "velocity": 92}, {"time": 82800, "pitch": 38, "duration": 10, "velocity": 106}, {"time": 82800, "pitch": 53, "duration": 10, "velocity": 92}, {"time": 83040, "pitch": 36, "duration": 10, "velocity": 106}, {"time": 83040, "pitch": 53, "duration": 10, "velocity": 92}, {"time": 83160, "pitch": 36, "duration": 10, "velocity": 92}, {"time": 83280, "pitch": 38, "duration": 10, "velocity": 106}, {"time": 83280, "pitch": 53, "duration": 10, "velocity": 92}, {"time": 83400, "pitch": 36, "duration": 10, "velocity": 92}, {"time": 83520, "pitch": 53, "duration": 10, "velocity": 92}, {"time": 83640, "pitch": 36, "duration": 10, "velocity": 92}, {"time": 83760, "pitch": 38, "duration": 10, "velocity": 106}, {"time": 83760, "pitch": 53, "duration": 10, "velocity": 92}, {"time": 84000, "pitch": 36, "duration": 10, "velocity": 106}, {"time": 84000, "pitch": 53, "duration": 10, "velocity": 92}, {"time": 84120, "pitch": 36, "duration": 10, "velocity": 92}, {"time": 84240, "pitch": 38, "duration": 10, "velocity": 106}, {"time": 84240, "pitch": 53, "duration": 10, "velocity": 92}, {"time": 84360, "pitch": 36, "duration": 10, "velocity": 106}, {"time": 84480, "pitch": 53, "duration": 10, "velocity": 92}, {"time": 84600, "pitch": 36, "duration": 10, "velocity": 92}, {"time": 84720, "pitch": 38, "duration": 10, "velocity": 106}, {"time": 84720, "pitch": 53, "duration": 10, "velocity": 92}, {"time": 84960, "pitch": 36, "duration": 10, "velocity": 106}, {"time": 84960, "pitch": 53, "duration": 10, "velocity": 92}, {"time": 85080, "pitch": 36, "duration": 10, "velocity": 92}, {"time": 85200, "pitch": 38, "duration": 10, "velocity": 106}, {"time": 85200, "pitch": 53, "duration": 10, "velocity": 92}, {"time": 85320, "pitch": 36, "duration": 10, "velocity": 92}, {"time": 85440, "pitch": 53, "duration": 10, "velocity": 92}, {"time": 85560, "pitch": 36, "duration": 10, "velocity": 92}, {"time": 85680, "pitch": 38, "duration": 10, "velocity": 106}, {"time": 85680, "pitch": 53, "duration": 10, "velocity": 92}, {"time": 85920, "pitch": 36, "duration": 10, "velocity": 106}, {"time": 85920, "pitch": 53, "duration": 10, "velocity": 92}, {"time": 86040, "pitch": 36, "duration": 10, "velocity": 92}, {"time": 86160, "pitch": 38, "duration": 10, "velocity": 106}, {"time": 86280, "pitch": 36, "duration": 10, "velocity": 106}, {"time": 86280, "pitch": 49, "duration": 10, "velocity": 78}, {"time": 86520, "pitch": 36, "duration": 10, "velocity": 92}, {"time": 86640, "pitch": 38, "duration": 10, "velocity": 106}, {"time": 86640, "pitch": 53, "duration": 10, "velocity": 92}, {"time": 86880, "pitch": 36, "duration": 10, "velocity": 106}, {"time": 86880, "pitch": 53, "duration": 10, "velocity": 92}, {"time": 87000, "pitch": 36, "duration": 10, "velocity": 92}, {"time": 87120, "pitch": 38, "duration": 10, "velocity": 106}, {"time": 87120, "pitch": 53, "duration": 10, "velocity": 92}, {"time": 87240, "pitch": 36, "duration": 10, "velocity": 92}, {"time": 87360, "pitch": 53, "duration": 10, "velocity": 92}, {"time": 87480, "pitch": 36, "duration": 10, "velocity": 92}, {"time": 87600, "pitch": 38, "duration": 10, "velocity": 106}, {"time": 87600, "pitch": 53, "duration": 10, "velocity": 92}, {"time": 87840, "pitch": 36, "duration": 10, "velocity": 106}, {"time": 87840, "pitch": 53, "duration": 10, "velocity": 92}, {"time": 87960, "pitch": 36, "duration": 10, "velocity": 92}, {"time": 88080, "pitch": 38, "duration": 10, "velocity": 106}, {"time": 88080, "pitch": 53, "duration": 10, "velocity": 92}, {"time": 88200, "pitch": 36, "duration": 10, "velocity": 106}, {"time": 88320, "pitch": 53, "duration": 10, "velocity": 92}, {"time": 88440, "pitch": 36, "duration": 10, "velocity": 92}, {"time": 88560, "pitch": 38, "duration": 10, "velocity": 106}, {"time": 88560, "pitch": 53, "duration": 10, "velocity": 92}, {"time": 88800, "pitch": 36, "duration": 10, "velocity": 106}, {"time": 88800, "pitch": 53, "duration": 10, "velocity": 92}, {"time": 88920, "pitch": 36, "duration": 10, "velocity": 92}, {"time": 89040, "pitch": 38, "duration": 10, "velocity": 106}, {"time": 89040, "pitch": 53, "duration": 10, "velocity": 92}, {"time": 89160, "pitch": 36, "duration": 10, "velocity": 92}, {"time": 89280, "pitch": 53, "duration": 10, "velocity": 92}, {"time": 89400, "pitch": 36, "duration": 10, "velocity": 92}, {"time": 89520, "pitch": 38, "duration": 10, "velocity": 106}, {"time": 89520, "pitch": 53, "duration": 10, "velocity": 92}, {"time": 89760, "pitch": 36, "duration": 10, "velocity": 106}, {"time": 89760, "pitch": 53, "duration": 10, "velocity": 92}, {"time": 89880, "pitch": 36, "duration": 10, "velocity": 92}, {"time": 90000, "pitch": 38, "duration": 10, "velocity": 106}, {"time": 90000, "pitch": 53, "duration": 10, "velocity": 92}, {"time": 90120, "pitch": 36, "duration": 10, "velocity": 106}, {"time": 90120, "pitch": 57, "duration": 10, "velocity": 78}, {"time": 90360, "pitch": 36, "duration": 10, "velocity": 92}, {"time": 90480, "pitch": 38, "duration": 10, "velocity": 106}, {"time": 90480, "pitch": 53, "duration": 10, "velocity": 92}, {"time": 90720, "pitch": 36, "duration": 10, "velocity": 106}, {"time": 90720, "pitch": 53, "duration": 10, "velocity": 92}, {"time": 90840, "pitch": 36, "duration": 10, "velocity": 92}, {"time": 90960, "pitch": 38, "duration": 10, "velocity": 106}, {"time": 90960, "pitch": 53, "duration": 10, "velocity": 92}, {"time": 91080, "pitch": 36, "duration": 10, "velocity": 92}, {"time": 91200, "pitch": 53, "duration": 10, "velocity": 92}, {"time": 91320, "pitch": 36, "duration": 10, "velocity": 92}, {"time": 91440, "pitch": 38, "duration": 10, "velocity": 106}, {"time": 91440, "pitch": 53, "duration": 10, "velocity": 92}, {"time": 91680, "pitch": 36, "duration": 10, "velocity": 106}, {"time": 91680, "pitch": 53, "duration": 10, "velocity": 92}, {"time": 91800, "pitch": 36, "duration": 10, "velocity": 92}, {"time": 91920, "pitch": 38, "duration": 10, "velocity": 106}, {"time": 91920, "pitch": 53, "duration": 10, "velocity": 92}, {"time": 92040, "pitch": 36, "duration": 10, "velocity": 106}, {"time": 92160, "pitch": 53, "duration": 10, "velocity": 92}, {"time": 92280, "pitch": 36, "duration": 10, "velocity": 92}, {"time": 92400, "pitch": 38, "duration": 10, "velocity": 106}, {"time": 92400, "pitch": 53, "duration": 10, "velocity": 92}, {"time": 92640, "pitch": 36, "duration": 10, "velocity": 106}, {"time": 92640, "pitch": 53, "duration": 10, "velocity": 92}, {"time": 92760, "pitch": 36, "duration": 10, "velocity": 92}, {"time": 92880, "pitch": 38, "duration": 10, "velocity": 106}, {"time": 92880, "pitch": 53, "duration": 10, "velocity": 92}, {"time": 93120, "pitch": 36, "duration": 10, "velocity": 106}, {"time": 93120, "pitch": 53, "duration": 10, "velocity": 92}, {"time": 93360, "pitch": 48, "duration": 10, "velocity": 106}, {"time": 93480, "pitch": 48, "duration": 10, "velocity": 92}, {"time": 93600, "pitch": 45, "duration": 10, "velocity": 106}, {"time": 93720, "pitch": 45, "duration": 10, "velocity": 92}, {"time": 93840, "pitch": 41, "duration": 10, "velocity": 92}, {"time": 93960, "pitch": 36, "duration": 10, "velocity": 106}, {"time": 93960, "pitch": 49, "duration": 10, "velocity": 78}, {"time": 94200, "pitch": 36, "duration": 10, "velocity": 92}, {"time": 94320, "pitch": 38, "duration": 10, "velocity": 106}, {"time": 94320, "pitch": 53, "duration": 10, "velocity": 92}, {"time": 94560, "pitch": 36, "duration": 10, "velocity": 106}, {"time": 94560, "pitch": 53, "duration": 10, "velocity": 92}, {"time": 94680, "pitch": 36, "duration": 10, "velocity": 92}, {"time": 94680, "pitch": 53, "duration": 10, "velocity": 92}, {"time": 94800, "pitch": 38, "duration": 10, "velocity": 106}, {"time": 94920, "pitch": 36, "duration": 10, "velocity": 92}, {"time": 94920, "pitch": 57, "duration": 10, "velocity": 78}, {"time": 95160, "pitch": 36, "duration": 10, "velocity": 92}, {"time": 95280, "pitch": 38, "duration": 10, "velocity": 106}, {"time": 95280, "pitch": 53, "duration": 10, "velocity": 92}, {"time": 95520, "pitch": 36, "duration": 10, "velocity": 106}, {"time": 95520, "pitch": 53, "duration": 10, "velocity": 92}, {"time": 95640, "pitch": 36, "duration": 10, "velocity": 92}, {"time": 95640, "pitch": 53, "duration": 10, "velocity": 92}, {"time": 95760, "pitch": 38, "duration": 10, "velocity": 106}, {"time": 95880, "pitch": 36, "duration": 10, "velocity": 92}, {"time": 95880, "pitch": 46, "duration": 10, "velocity": 92}, {"time": 96000, "pitch": 44, "duration": 10, "velocity": 50}, {"time": 96240, "pitch": 44, "duration": 10, "velocity": 78}, {"time": 96720, "pitch": 44, "duration": 10, "velocity": 78}, {"time": 97200, "pitch": 44, "duration": 10, "velocity": 78}, {"time": 97680, "pitch": 38, "duration": 10, "velocity": 106}, {"time": 97680, "pitch": 44, "duration": 10, "velocity": 78}, {"time": 97800, "pitch": 36, "duration": 10, "velocity": 92}, {"time": 97800, "pitch": 46, "duration": 10, "velocity": 92}, {"time": 97920, "pitch": 44, "duration": 10, "velocity": 50}, {"time": 98160, "pitch": 44, "duration": 10, "velocity": 78}, {"time": 98640, "pitch": 44, "duration": 10, "velocity": 78}, {"time": 99120, "pitch": 44, "duration": 10, "velocity": 78}, {"time": 99600, "pitch": 44, "duration": 10, "velocity": 78}, {"time": 99720, "pitch": 36, "duration": 10, "velocity": 106}, {"time": 99720, "pitch": 49, "duration": 10, "velocity": 78}, {"time": 99960, "pitch": 36, "duration": 10, "velocity": 92}, {"time": 100080, "pitch": 38, "duration": 10, "velocity": 106}, {"time": 100080, "pitch": 42, "duration": 10, "velocity": 64}, {"time": 100320, "pitch": 36, "duration": 10, "velocity": 106}, {"time": 100320, "pitch": 42, "duration": 10, "velocity": 78}, {"time": 100440, "pitch": 36, "duration": 10, "velocity": 92}, {"time": 100560, "pitch": 38, "duration": 10, "velocity": 106}, {"time": 100560, "pitch": 42, "duration": 10, "velocity": 64}, {"time": 100800, "pitch": 36, "duration": 10, "velocity": 106}, {"time": 100800, "pitch": 42, "duration": 10, "velocity": 78}, {"time": 101040, "pitch": 38, "duration": 10, "velocity": 106}, {"time": 101040, "pitch": 42, "duration": 10, "velocity": 64}, {"time": 101160, "pitch": 36, "duration": 10, "velocity": 92}, {"time": 101280, "pitch": 42, "duration": 10, "velocity": 78}, {"time": 101400, "pitch": 36, "duration": 10, "velocity": 92}, {"time": 101520, "pitch": 38, "duration": 10, "velocity": 106}, {"time": 101520, "pitch": 42, "duration": 10, "velocity": 64}, {"time": 101640, "pitch": 36, "duration": 10, "velocity": 106}, {"time": 101640, "pitch": 46, "duration": 10, "velocity": 92}, {"time": 101760, "pitch": 44, "duration": 10, "velocity": 50}, {"time": 101880, "pitch": 36, "duration": 10, "velocity": 92}, {"time": 102000, "pitch": 38, "duration": 10, "velocity": 106}, {"time": 102000, "pitch": 42, "duration": 10, "velocity": 64}, {"time": 102240, "pitch": 36, "duration": 10, "velocity": 106}, {"time": 102240, "pitch": 42, "duration": 10, "velocity": 78}, {"time": 102360, "pitch": 36, "duration": 10, "velocity": 92}, {"time": 102480, "pitch": 38, "duration": 10, "velocity": 106}, {"time": 102480, "pitch": 42, "duration": 10, "velocity": 64}, {"time": 102720, "pitch": 36, "duration": 10, "velocity": 106}, {"time": 102720, "pitch": 42, "duration": 10, "velocity": 78}, {"time": 102960, "pitch": 38, "duration": 10, "velocity": 106}, {"time": 102960, "pitch": 42, "duration": 10, "velocity": 64}, {"time": 103080, "pitch": 36, "duration": 10, "velocity": 92}, {"time": 103200, "pitch": 42, "duration": 10, "velocity": 78}, {"time": 103320, "pitch": 36, "duration": 10, "velocity": 92}, {"time": 103440, "pitch": 38, "duration": 10, "velocity": 106}, {"time": 103440, "pitch": 42, "duration": 10, "velocity": 64}, {"time": 103560, "pitch": 36, "duration": 10, "velocity": 106}, {"time": 103560, "pitch": 46, "duration": 10, "velocity": 92}, {"time": 103680, "pitch": 44, "duration": 10, "velocity": 50}, {"time": 103800, "pitch": 36, "duration": 10, "velocity": 92}, {"time": 103920, "pitch": 38, "duration": 10, "velocity": 106}, {"time": 103920, "pitch": 42, "duration": 10, "velocity": 64}, {"time": 104160, "pitch": 36, "duration": 10, "velocity": 106}, {"time": 104160, "pitch": 42, "duration": 10, "velocity": 78}, {"time": 104280, "pitch": 36, "duration": 10, "velocity": 92}, {"time": 104400, "pitch": 38, "duration": 10, "velocity": 106}, {"time": 104400, "pitch": 42, "duration": 10, "velocity": 64}, {"time": 104640, "pitch": 36, "duration": 10, "velocity": 106}, {"time": 104640, "pitch": 42, "duration": 10, "velocity": 78}, {"time": 104880, "pitch": 38, "duration": 10, "velocity": 106}, {"time": 104880, "pitch": 42, "duration": 10, "velocity": 64}, {"time": 105000, "pitch": 36, "duration": 10, "velocity": 92}, {"time": 105120, "pitch": 42, "duration": 10, "velocity": 78}, {"time": 105240, "pitch": 36, "duration": 10, "velocity": 92}, {"time": 105360, "pitch": 38, "duration": 10, "velocity": 106}, {"time": 105360, "pitch": 42, "duration": 10, "velocity": 64}, {"time": 105480, "pitch": 36, "duration": 10, "velocity": 106}, {"time": 105480, "pitch": 46, "duration": 10, "velocity": 92}, {"time": 105600, "pitch": 44, "duration": 10, "velocity": 50}, {"time": 105720, "pitch": 36, "duration": 10, "velocity": 92}, {"time": 105840, "pitch": 38, "duration": 10, "velocity": 106}, {"time": 105840, "pitch": 42, "duration": 10, "velocity": 64}, {"time": 106080, "pitch": 36, "duration": 10, "velocity": 106}, {"time": 106080, "pitch": 42, "duration": 10, "velocity": 78}, {"time": 106200, "pitch": 36, "duration": 10, "velocity": 92}, {"time": 106320, "pitch": 38, "duration": 10, "velocity": 106}, {"time": 106320, "pitch": 42, "duration": 10, "velocity": 64}, {"time": 106560, "pitch": 36, "duration": 10, "velocity": 106}, {"time": 106560, "pitch": 42, "duration": 10, "velocity": 78}, {"time": 106800, "pitch": 38, "duration": 10, "velocity": 106}, {"time": 106800, "pitch": 42, "duration": 10, "velocity": 64}, {"time": 106920, "pitch": 36, "duration": 10, "velocity": 92}, {"time": 107040, "pitch": 42, "duration": 10, "velocity": 78}, {"time": 107160, "pitch": 36, "duration": 10, "velocity": 92}, {"time": 107280, "pitch": 38, "duration": 10, "velocity": 106}, {"time": 107280, "pitch": 42, "duration": 10, "velocity": 64}, {"time": 107400, "pitch": 36, "duration": 10, "velocity": 106}, {"time": 107400, "pitch": 49, "duration": 10, "velocity": 78}, {"time": 107640, "pitch": 36, "duration": 10, "velocity": 92}, {"time": 107760, "pitch": 38, "duration": 10, "velocity": 106}, {"time": 107760, "pitch": 42, "duration": 10, "velocity": 64}, {"time": 108000, "pitch": 36, "duration": 10, "velocity": 106}, {"time": 108000, "pitch": 42, "duration": 10, "velocity": 78}, {"time": 108120, "pitch": 36, "duration": 10, "velocity": 92}, {"time": 108240, "pitch": 38, "duration": 10, "velocity": 106}, {"time": 108240, "pitch": 42, "duration": 10, "velocity": 64}, {"time": 108480, "pitch": 36, "duration": 10, "velocity": 106}, {"time": 108480, "pitch": 42, "duration": 10, "velocity": 78}, {"time": 108720, "pitch": 38, "duration": 10, "velocity": 106}, {"time": 108720, "pitch": 42, "duration": 10, "velocity": 64}, {"time": 108840, "pitch": 36, "duration": 10, "velocity": 92}, {"time": 108960, "pitch": 42, "duration": 10, "velocity": 78}, {"time": 109080, "pitch": 36, "duration": 10, "velocity": 92}, {"time": 109200, "pitch": 38, "duration": 10, "velocity": 106}, {"time": 109200, "pitch": 42, "duration": 10, "velocity": 64}, {"time": 109320, "pitch": 36, "duration": 10, "velocity": 106}, {"time": 109320, "pitch": 46, "duration": 10, "velocity": 92}, {"time": 109440, "pitch": 44, "duration": 10, "velocity": 50}, {"time": 109560, "pitch": 36, "duration": 10, "velocity": 92}, {"time": 109680, "pitch": 38, "duration": 10, "velocity": 106}, {"time": 109680, "pitch": 42, "duration": 10, "velocity": 64}, {"time": 109920, "pitch": 36, "duration": 10, "velocity": 106}, {"time": 109920, "pitch": 42, "duration": 10, "velocity": 78}, {"time": 110040, "pitch": 36, "duration": 10, "velocity": 92}, {"time": 110160, "pitch": 38, "duration": 10, "velocity": 106}, {"time": 110160, "pitch": 42, "duration": 10, "velocity": 64}, {"time": 110400, "pitch": 36, "duration": 10, "velocity": 106}, {"time": 110400, "pitch": 42, "duration": 10, "velocity": 78}, {"time": 110640, "pitch": 38, "duration": 10, "velocity": 106}, {"time": 110640, "pitch": 42, "duration": 10, "velocity": 64}, {"time": 110760, "pitch": 36, "duration": 10, "velocity": 92}, {"time": 110880, "pitch": 42, "duration": 10, "velocity": 78}, {"time": 111000, "pitch": 36, "duration": 10, "velocity": 92}, {"time": 111120, "pitch": 38, "duration": 10, "velocity": 106}, {"time": 111120, "pitch": 42, "duration": 10, "velocity": 64}, {"time": 111240, "pitch": 36, "duration": 10, "velocity": 106}, {"time": 111240, "pitch": 46, "duration": 10, "velocity": 92}, {"time": 111360, "pitch": 44, "duration": 10, "velocity": 50}, {"time": 111480, "pitch": 36, "duration": 10, "velocity": 92}, {"time": 111600, "pitch": 38, "duration": 10, "velocity": 106}, {"time": 111600, "pitch": 42, "duration": 10, "velocity": 64}, {"time": 111840, "pitch": 36, "duration": 10, "velocity": 106}, {"time": 111840, "pitch": 42, "duration": 10, "velocity": 78}, {"time": 111960, "pitch": 36, "duration": 10, "velocity": 92}, {"time": 112080, "pitch": 38, "duration": 10, "velocity": 106}, {"time": 112080, "pitch": 42, "duration": 10, "velocity": 64}, {"time": 112320, "pitch": 36, "duration": 10, "velocity": 106}, {"time": 112320, "pitch": 42, "duration": 10, "velocity": 78}, {"time": 112560, "pitch": 38, "duration": 10, "velocity": 106}, {"time": 112560, "pitch": 42, "duration": 10, "velocity": 64}, {"time": 112680, "pitch": 36, "duration": 10, "velocity": 92}, {"time": 112800, "pitch": 42, "duration": 10, "velocity": 78}, {"time": 112920, "pitch": 36, "duration": 10, "velocity": 92}, {"time": 113040, "pitch": 38, "duration": 10, "velocity": 106}, {"time": 113040, "pitch": 42, "duration": 10, "velocity": 64}, {"time": 113160, "pitch": 36, "duration": 10, "velocity": 106}, {"time": 113160, "pitch": 57, "duration": 10, "velocity": 78}, {"time": 113280, "pitch": 42, "duration": 10, "velocity": 78}, {"time": 113400, "pitch": 36, "duration": 10, "velocity": 92}, {"time": 113520, "pitch": 38, "duration": 10, "velocity": 106}, {"time": 113520, "pitch": 42, "duration": 10, "velocity": 64}, {"time": 113760, "pitch": 36, "duration": 10, "velocity": 106}, {"time": 113760, "pitch": 42, "duration": 10, "velocity": 78}, {"time": 113880, "pitch": 36, "duration": 10, "velocity": 92}, {"time": 114000, "pitch": 38, "duration": 10, "velocity": 106}, {"time": 114000, "pitch": 42, "duration": 10, "velocity": 64}, {"time": 114240, "pitch": 36, "duration": 10, "velocity": 106}, {"time": 114240, "pitch": 42, "duration": 10, "velocity": 78}, {"time": 114480, "pitch": 38, "duration": 10, "velocity": 106}, {"time": 114480, "pitch": 46, "duration": 10, "velocity": 78}, {"time": 114720, "pitch": 38, "duration": 10, "velocity": 106}, {"time": 114840, "pitch": 38, "duration": 10, "velocity": 106}, {"time": 115080, "pitch": 36, "duration": 10, "velocity": 106}, {"time": 115080, "pitch": 49, "duration": 10, "velocity": 78}, {"time": 115320, "pitch": 36, "duration": 10, "velocity": 92}, {"time": 115440, "pitch": 38, "duration": 10, "velocity": 106}, {"time": 115440, "pitch": 42, "duration": 10, "velocity": 64}, {"time": 115680, "pitch": 36, "duration": 10, "velocity": 106}, {"time": 115680, "pitch": 42, "duration": 10, "velocity": 78}, {"time": 115800, "pitch": 36, "duration": 10, "velocity": 92}, {"time": 115920, "pitch": 38, "duration": 10, "velocity": 106}, {"time": 115920, "pitch": 42, "duration": 10, "velocity": 64}, {"time": 116160, "pitch": 36, "duration": 10, "velocity": 106}, {"time": 116160, "pitch": 42, "duration": 10, "velocity": 78}, {"time": 116400, "pitch": 38, "duration": 10, "velocity": 106}, {"time": 116400, "pitch": 42, "duration": 10, "velocity": 64}, {"time": 116520, "pitch": 36, "duration": 10, "velocity": 92}, {"time": 116640, "pitch": 42, "duration": 10, "velocity": 78}, {"time": 116760, "pitch": 36, "duration": 10, "velocity": 92}, {"time": 116880, "pitch": 38, "duration": 10, "velocity": 106}, {"time": 116880, "pitch": 42, "duration": 10, "velocity": 64}, {"time": 117000, "pitch": 36, "duration": 10, "velocity": 106}, {"time": 117120, "pitch": 42, "duration": 10, "velocity": 78}, {"time": 117240, "pitch": 36, "duration": 10, "velocity": 92}, {"time": 117360, "pitch": 38, "duration": 10, "velocity": 106}, {"time": 117360, "pitch": 42, "duration": 10, "velocity": 64}, {"time": 117600, "pitch": 36, "duration": 10, "velocity": 106}, {"time": 117600, "pitch": 42, "duration": 10, "velocity": 78}, {"time": 117720, "pitch": 36, "duration": 10, "velocity": 92}, {"time": 117840, "pitch": 38, "duration": 10, "velocity": 106}, {"time": 117840, "pitch": 42, "duration": 10, "velocity": 64}, {"time": 118080, "pitch": 36, "duration": 10, "velocity": 106}, {"time": 118080, "pitch": 42, "duration": 10, "velocity": 78}, {"time": 118320, "pitch": 38, "duration": 10, "velocity": 106}, {"time": 118320, "pitch": 42, "duration": 10, "velocity": 64}, {"time": 118440, "pitch": 36, "duration": 10, "velocity": 92}, {"time": 118560, "pitch": 42, "duration": 10, "velocity": 78}, {"time": 118680, "pitch": 36, "duration": 10, "velocity": 92}, {"time": 118800, "pitch": 38, "duration": 10, "velocity": 106}, {"time": 118800, "pitch": 42, "duration": 10, "velocity": 64}, {"time": 118920, "pitch": 36, "duration": 10, "velocity": 106}, {"time": 118920, "pitch": 46, "duration": 10, "velocity": 92}, {"time": 119040, "pitch": 44, "duration": 10, "velocity": 50}, {"time": 119160, "pitch": 36, "duration": 10, "velocity": 92}, {"time": 119280, "pitch": 38, "duration": 10, "velocity": 106}, {"time": 119280, "pitch": 42, "duration": 10, "velocity": 64}, {"time": 119520, "pitch": 36, "duration": 10, "velocity": 106}, {"time": 119520, "pitch": 42, "duration": 10, "velocity": 78}, {"time": 119640, "pitch": 36, "duration": 10, "velocity": 92}, {"time": 119760, "pitch": 38, "duration": 10, "velocity": 106}, {"time": 119760, "pitch": 42, "duration": 10, "velocity": 64}, {"time": 120000, "pitch": 36, "duration": 10, "velocity": 106}, {"time": 120000, "pitch": 46, "duration": 10, "velocity": 78}, {"time": 120240, "pitch": 38, "duration": 10, "velocity": 78}, {"time": 120360, "pitch": 38, "duration": 10, "velocity": 92}, {"time": 120480, "pitch": 38, "duration": 10, "velocity": 106}, {"time": 120600, "pitch": 38, "duration": 10, "velocity": 106}, {"time": 120720, "pitch": 36, "duration": 10, "velocity": 106}, {"time": 120720, "pitch": 57, "duration": 10, "velocity": 78}, {"time": 121200, "pitch": 36, "duration": 10, "velocity": 106}, {"time": 121440, "pitch": 38, "duration": 10, "velocity": 106}, {"time": 121440, "pitch": 53, "duration": 10, "velocity": 92}, {"time": 121680, "pitch": 36, "duration": 10, "velocity": 106}, {"time": 121680, "pitch": 53, "duration": 10, "velocity": 92}, {"time": 121920, "pitch": 36, "duration": 10, "velocity": 106}, {"time": 121920, "pitch": 53, "duration": 10, "velocity": 92}, {"time": 122040, "pitch": 38, "duration": 10, "velocity": 92}, {"time": 122160, "pitch": 36, "duration": 10, "velocity": 92}, {"time": 122160, "pitch": 53, "duration": 10, "velocity": 92}, {"time": 122400, "pitch": 38, "duration": 10, "velocity": 106}, {"time": 122400, "pitch": 53, "duration": 10, "velocity": 92}, {"time": 122640, "pitch": 38, "duration": 10, "velocity": 106}, {"time": 122760, "pitch": 36, "duration": 10, "velocity": 106}, {"time": 122760, "pitch": 49, "duration": 10, "velocity": 78}, {"time": 123000, "pitch": 36, "duration": 10, "velocity": 92}, {"time": 123120, "pitch": 38, "duration": 10, "velocity": 106}, {"time": 123120, "pitch": 42, "duration": 10, "velocity": 64}, {"time": 123360, "pitch": 36, "duration": 10, "velocity": 106}, {"time": 123360, "pitch": 42, "duration": 10, "velocity": 78}, {"time": 123480, "pitch": 36, "duration": 10, "velocity": 92}, {"time": 123600, "pitch": 38, "duration": 10, "velocity": 106}, {"time": 123600, "pitch": 42, "duration": 10, "velocity": 64}, {"time": 123840, "pitch": 36, "duration": 10, "velocity": 106}, {"time": 123840, "pitch": 42, "duration": 10, "velocity": 78}, {"time": 124080, "pitch": 38, "duration": 10, "velocity": 106}, {"time": 124080, "pitch": 42, "duration": 10, "velocity": 64}, {"time": 124200, "pitch": 36, "duration": 10, "velocity": 92}, {"time": 124320, "pitch": 42, "duration": 10, "velocity": 78}, {"time": 124440, "pitch": 36, "duration": 10, "velocity": 92}, {"time": 124560, "pitch": 38, "duration": 10, "velocity": 106}, {"time": 124560, "pitch": 42, "duration": 10, "velocity": 64}, {"time": 124680, "pitch": 36, "duration": 10, "velocity": 106}, {"time": 124680, "pitch": 57, "duration": 10, "velocity": 78}, {"time": 124920, "pitch": 36, "duration": 10, "velocity": 92}, {"time": 125040, "pitch": 38, "duration": 10, "velocity": 106}, {"time": 125040, "pitch": 42, "duration": 10, "velocity": 64}, {"time": 125280, "pitch": 36, "duration": 10, "velocity": 106}, {"time": 125280, "pitch": 42, "duration": 10, "velocity": 78}, {"time": 125400, "pitch": 36, "duration": 10, "velocity": 92}, {"time": 125520, "pitch": 38, "duration": 10, "velocity": 106}, {"time": 125520, "pitch": 42, "duration": 10, "velocity": 64}, {"time": 125760, "pitch": 36, "duration": 10, "velocity": 106}, {"time": 125760, "pitch": 42, "duration": 10, "velocity": 78}, {"time": 126000, "pitch": 38, "duration": 10, "velocity": 106}, {"time": 126000, "pitch": 42, "duration": 10, "velocity": 64}, {"time": 126120, "pitch": 36, "duration": 10, "velocity": 92}, {"time": 126240, "pitch": 42, "duration": 10, "velocity": 78}, {"time": 126360, "pitch": 36, "duration": 10, "velocity": 92}, {"time": 126480, "pitch": 38, "duration": 10, "velocity": 106}, {"time": 126480, "pitch": 42, "duration": 10, "velocity": 64}, {"time": 126600, "pitch": 36, "duration": 10, "velocity": 106}, {"time": 126600, "pitch": 49, "duration": 10, "velocity": 78}, {"time": 126720, "pitch": 42, "duration": 10, "velocity": 78}, {"time": 126840, "pitch": 36, "duration": 10, "velocity": 92}, {"time": 126960, "pitch": 38, "duration": 10, "velocity": 106}, {"time": 126960, "pitch": 42, "duration": 10, "velocity": 64}, {"time": 127200, "pitch": 36, "duration": 10, "velocity": 106}, {"time": 127200, "pitch": 42, "duration": 10, "velocity": 78}, {"time": 127320, "pitch": 36, "duration": 10, "velocity": 92}, {"time": 127440, "pitch": 38, "duration": 10, "velocity": 106}, {"time": 127440, "pitch": 42, "duration": 10, "velocity": 64}, {"time": 127680, "pitch": 36, "duration": 10, "velocity": 106}, {"time": 127680, "pitch": 42, "duration": 10, "velocity": 78}, {"time": 127920, "pitch": 38, "duration": 10, "velocity": 106}, {"time": 127920, "pitch": 42, "duration": 10, "velocity": 64}, {"time": 128160, "pitch": 36, "duration": 10, "velocity": 92}, {"time": 128160, "pitch": 38, "duration": 10, "velocity": 106}, {"time": 128280, "pitch": 38, "duration": 10, "velocity": 106}, {"time": 128520, "pitch": 36, "duration": 10, "velocity": 106}, {"time": 128520, "pitch": 57, "duration": 10, "velocity": 78}, {"time": 128760, "pitch": 36, "duration": 10, "velocity": 92}, {"time": 128880, "pitch": 38, "duration": 10, "velocity": 106}, {"time": 129120, "pitch": 43, "duration": 10, "velocity": 92}, {"time": 129240, "pitch": 43, "duration": 10, "velocity": 92}, {"time": 129360, "pitch": 42, "duration": 10, "velocity": 64}, {"time": 129480, "pitch": 36, "duration": 10, "velocity": 106}, {"time": 129480, "pitch": 46, "duration": 10, "velocity": 92}, {"time": 129600, "pitch": 44, "duration": 10, "velocity": 50}, {"time": 130440, "pitch": 36, "duration": 10, "velocity": 106}, {"time": 130440, "pitch": 49, "duration": 10, "velocity": 78}, {"time": 130680, "pitch": 36, "duration": 10, "velocity": 92}, {"time": 130800, "pitch": 38, "duration": 10, "velocity": 106}, {"time": 130800, "pitch": 53, "duration": 10, "velocity": 92}, {"time": 131040, "pitch": 36, "duration": 10, "velocity": 106}, {"time": 131040, "pitch": 53, "duration": 10, "velocity": 92}, {"time": 131160, "pitch": 36, "duration": 10, "velocity": 92}, {"time": 131280, "pitch": 38, "duration": 10, "velocity": 106}, {"time": 131280, "pitch": 53, "duration": 10, "velocity": 92}, {"time": 131400, "pitch": 36, "duration": 10, "velocity": 92}, {"time": 131520, "pitch": 53, "duration": 10, "velocity": 92}, {"time": 131640, "pitch": 36, "duration": 10, "velocity": 92}, {"time": 131760, "pitch": 38, "duration": 10, "velocity": 106}, {"time": 131760, "pitch": 53, "duration": 10, "velocity": 92}, {"time": 132000, "pitch": 36, "duration": 10, "velocity": 106}, {"time": 132000, "pitch": 53, "duration": 10, "velocity": 92}, {"time": 132120, "pitch": 36, "duration": 10, "velocity": 92}, {"time": 132240, "pitch": 38, "duration": 10, "velocity": 106}, {"time": 132240, "pitch": 53, "duration": 10, "velocity": 92}, {"time": 132360, "pitch": 36, "duration": 10, "velocity": 106}, {"time": 132480, "pitch": 53, "duration": 10, "velocity": 92}, {"time": 132600, "pitch": 36, "duration": 10, "velocity": 92}, {"time": 132720, "pitch": 38, "duration": 10, "velocity": 106}, {"time": 132720, "pitch": 53, "duration": 10, "velocity": 92}, {"time": 132960, "pitch": 36, "duration": 10, "velocity": 106}, {"time": 132960, "pitch": 53, "duration": 10, "velocity": 92}, {"time": 133080, "pitch": 36, "duration": 10, "velocity": 92}, {"time": 133200, "pitch": 38, "duration": 10, "velocity": 106}, {"time": 133200, "pitch": 53, "duration": 10, "velocity": 92}, {"time": 133320, "pitch": 36, "duration": 10, "velocity": 92}, {"time": 133440, "pitch": 53, "duration": 10, "velocity": 92}, {"time": 133560, "pitch": 36, "duration": 10, "velocity": 92}, {"time": 133680, "pitch": 38, "duration": 10, "velocity": 106}, {"time": 133680, "pitch": 53, "duration": 10, "velocity": 92}, {"time": 133920, "pitch": 36, "duration": 10, "velocity": 106}, {"time": 133920, "pitch": 53, "duration": 10, "velocity": 92}, {"time": 134040, "pitch": 36, "duration": 10, "velocity": 92}, {"time": 134160, "pitch": 38, "duration": 10, "velocity": 106}, {"time": 134160, "pitch": 53, "duration": 10, "velocity": 92}, {"time": 134280, "pitch": 36, "duration": 10, "velocity": 106}, {"time": 134280, "pitch": 57, "duration": 10, "velocity": 78}, {"time": 134520, "pitch": 36, "duration": 10, "velocity": 92}, {"time": 134640, "pitch": 38, "duration": 10, "velocity": 106}, {"time": 134640, "pitch": 53, "duration": 10, "velocity": 92}, {"time": 134880, "pitch": 36, "duration": 10, "velocity": 106}, {"time": 134880, "pitch": 53, "duration": 10, "velocity": 92}, {"time": 135000, "pitch": 36, "duration": 10, "velocity": 92}, {"time": 135120, "pitch": 38, "duration": 10, "velocity": 106}, {"time": 135120, "pitch": 53, "duration": 10, "velocity": 92}, {"time": 135240, "pitch": 36, "duration": 10, "velocity": 92}, {"time": 135360, "pitch": 53, "duration": 10, "velocity": 92}, {"time": 135480, "pitch": 36, "duration": 10, "velocity": 92}, {"time": 135600, "pitch": 38, "duration": 10, "velocity": 106}, {"time": 135600, "pitch": 53, "duration": 10, "velocity": 92}, {"time": 135840, "pitch": 36, "duration": 10, "velocity": 106}, {"time": 135840, "pitch": 53, "duration": 10, "velocity": 92}, {"time": 135960, "pitch": 36, "duration": 10, "velocity": 92}, {"time": 136080, "pitch": 38, "duration": 10, "velocity": 106}, {"time": 136080, "pitch": 53, "duration": 10, "velocity": 92}, {"time": 136200, "pitch": 36, "duration": 10, "velocity": 106}, {"time": 136320, "pitch": 53, "duration": 10, "velocity": 92}, {"time": 136440, "pitch": 36, "duration": 10, "velocity": 92}, {"time": 136560, "pitch": 38, "duration": 10, "velocity": 106}, {"time": 136560, "pitch": 53, "duration": 10, "velocity": 92}, {"time": 136800, "pitch": 36, "duration": 10, "velocity": 106}, {"time": 136800, "pitch": 53, "duration": 10, "velocity": 92}, {"time": 136920, "pitch": 36, "duration": 10, "velocity": 92}, {"time": 137040, "pitch": 38, "duration": 10, "velocity": 106}, {"time": 137040, "pitch": 53, "duration": 10, "velocity": 92}, {"time": 137160, "pitch": 36, "duration": 10, "velocity": 92}, {"time": 137280, "pitch": 53, "duration": 10, "velocity": 92}, {"time": 137400, "pitch": 36, "duration": 10, "velocity": 92}, {"time": 137520, "pitch": 38, "duration": 10, "velocity": 106}, {"time": 137520, "pitch": 53, "duration": 10, "velocity": 92}, {"time": 137760, "pitch": 36, "duration": 10, "velocity": 106}, {"time": 137760, "pitch": 53, "duration": 10, "velocity": 92}, {"time": 137880, "pitch": 36, "duration": 10, "velocity": 92}, {"time": 138000, "pitch": 38, "duration": 10, "velocity": 106}, {"time": 138120, "pitch": 36, "duration": 10, "velocity": 106}, {"time": 138120, "pitch": 49, "duration": 10, "velocity": 78}, {"time": 138360, "pitch": 36, "duration": 10, "velocity": 92}, {"time": 138480, "pitch": 38, "duration": 10, "velocity": 106}, {"time": 138480, "pitch": 53, "duration": 10, "velocity": 92}, {"time": 138720, "pitch": 36, "duration": 10, "velocity": 106}, {"time": 138720, "pitch": 53, "duration": 10, "velocity": 92}, {"time": 138840, "pitch": 36, "duration": 10, "velocity": 92}, {"time": 138960, "pitch": 38, "duration": 10, "velocity": 106}, {"time": 138960, "pitch": 53, "duration": 10, "velocity": 92}, {"time": 139080, "pitch": 36, "duration": 10, "velocity": 92}, {"time": 139200, "pitch": 53, "duration": 10, "velocity": 92}, {"time": 139320, "pitch": 36, "duration": 10, "velocity": 92}, {"time": 139440, "pitch": 38, "duration": 10, "velocity": 106}, {"time": 139440, "pitch": 53, "duration": 10, "velocity": 92}, {"time": 139680, "pitch": 36, "duration": 10, "velocity": 106}, {"time": 139680, "pitch": 53, "duration": 10, "velocity": 92}, {"time": 139800, "pitch": 36, "duration": 10, "velocity": 92}, {"time": 139920, "pitch": 38, "duration": 10, "velocity": 106}, {"time": 139920, "pitch": 53, "duration": 10, "velocity": 92}, {"time": 140040, "pitch": 36, "duration": 10, "velocity": 106}, {"time": 140160, "pitch": 53, "duration": 10, "velocity": 92}, {"time": 140280, "pitch": 36, "duration": 10, "velocity": 92}, {"time": 140400, "pitch": 38, "duration": 10, "velocity": 106}, {"time": 140400, "pitch": 53, "duration": 10, "velocity": 92}, {"time": 140640, "pitch": 36, "duration": 10, "velocity": 106}, {"time": 140640, "pitch": 53, "duration": 10, "velocity": 92}, {"time": 140760, "pitch": 36, "duration": 10, "velocity": 92}, {"time": 140880, "pitch": 38, "duration": 10, "velocity": 106}, {"time": 140880, "pitch": 53, "duration": 10, "velocity": 92}, {"time": 141000, "pitch": 36, "duration": 10, "velocity": 92}, {"time": 141120, "pitch": 53, "duration": 10, "velocity": 92}, {"time": 141240, "pitch": 36, "duration": 10, "velocity": 92}, {"time": 141360, "pitch": 38, "duration": 10, "velocity": 106}, {"time": 141360, "pitch": 53, "duration": 10, "velocity": 92}, {"time": 141600, "pitch": 36, "duration": 10, "velocity": 106}, {"time": 141600, "pitch": 53, "duration": 10, "velocity": 92}, {"time": 141720, "pitch": 36, "duration": 10, "velocity": 92}, {"time": 141840, "pitch": 38, "duration": 10, "velocity": 106}, {"time": 141840, "pitch": 53, "duration": 10, "velocity": 92}, {"time": 141960, "pitch": 36, "duration": 10, "velocity": 106}, {"time": 141960, "pitch": 57, "duration": 10, "velocity": 78}, {"time": 142200, "pitch": 36, "duration": 10, "velocity": 92}, {"time": 142320, "pitch": 38, "duration": 10, "velocity": 106}, {"time": 142320, "pitch": 53, "duration": 10, "velocity": 92}, {"time": 142560, "pitch": 36, "duration": 10, "velocity": 106}, {"time": 142560, "pitch": 53, "duration": 10, "velocity": 92}, {"time": 142680, "pitch": 36, "duration": 10, "velocity": 92}, {"time": 142800, "pitch": 38, "duration": 10, "velocity": 106}, {"time": 142800, "pitch": 53, "duration": 10, "velocity": 92}, {"time": 142920, "pitch": 36, "duration": 10, "velocity": 92}, {"time": 143040, "pitch": 53, "duration": 10, "velocity": 92}, {"time": 143160, "pitch": 36, "duration": 10, "velocity": 92}, {"time": 143280, "pitch": 38, "duration": 10, "velocity": 106}, {"time": 143280, "pitch": 53, "duration": 10, "velocity": 92}, {"time": 143520, "pitch": 36, "duration": 10, "velocity": 106}, {"time": 143520, "pitch": 53, "duration": 10, "velocity": 92}, {"time": 143640, "pitch": 36, "duration": 10, "velocity": 92}, {"time": 143760, "pitch": 38, "duration": 10, "velocity": 106}, {"time": 143760, "pitch": 53, "duration": 10, "velocity": 92}, {"time": 143880, "pitch": 36, "duration": 10, "velocity": 106}, {"time": 144000, "pitch": 53, "duration": 10, "velocity": 92}, {"time": 144120, "pitch": 36, "duration": 10, "velocity": 92}, {"time": 144240, "pitch": 38, "duration": 10, "velocity": 106}, {"time": 144240, "pitch": 53, "duration": 10, "velocity": 92}, {"time": 144480, "pitch": 36, "duration": 10, "velocity": 106}, {"time": 144480, "pitch": 53, "duration": 10, "velocity": 92}, {"time": 144600, "pitch": 36, "duration": 10, "velocity": 92}, {"time": 144720, "pitch": 38, "duration": 10, "velocity": 106}, {"time": 144720, "pitch": 53, "duration": 10, "velocity": 92}, {"time": 144960, "pitch": 36, "duration": 10, "velocity": 106}, {"time": 144960, "pitch": 53, "duration": 10, "velocity": 92}, {"time": 145200, "pitch": 48, "duration": 10, "velocity": 106}, {"time": 145320, "pitch": 48, "duration": 10, "velocity": 92}, {"time": 145440, "pitch": 45, "duration": 10, "velocity": 106}, {"time": 145560, "pitch": 45, "duration": 10, "velocity": 92}, {"time": 145680, "pitch": 41, "duration": 10, "velocity": 92}, {"time": 145800, "pitch": 36, "duration": 10, "velocity": 106}, {"time": 145800, "pitch": 49, "duration": 10, "velocity": 78}, {"time": 146040, "pitch": 36, "duration": 10, "velocity": 92}, {"time": 146160, "pitch": 38, "duration": 10, "velocity": 106}, {"time": 146160, "pitch": 53, "duration": 10, "velocity": 92}, {"time": 146400, "pitch": 36, "duration": 10, "velocity": 106}, {"time": 146400, "pitch": 53, "duration": 10, "velocity": 92}, {"time": 146520, "pitch": 36, "duration": 10, "velocity": 92}, {"time": 146520, "pitch": 53, "duration": 10, "velocity": 92}, {"time": 146640, "pitch": 38, "duration": 10, "velocity": 106}, {"time": 146760, "pitch": 36, "duration": 10, "velocity": 92}, {"time": 146760, "pitch": 57, "duration": 10, "velocity": 78}, {"time": 147000, "pitch": 36, "duration": 10, "velocity": 92}, {"time": 147120, "pitch": 38, "duration": 10, "velocity": 106}, {"time": 147120, "pitch": 53, "duration": 10, "velocity": 92}, {"time": 147360, "pitch": 36, "duration": 10, "velocity": 106}, {"time": 147360, "pitch": 53, "duration": 10, "velocity": 92}, {"time": 147480, "pitch": 36, "duration": 10, "velocity": 92}, {"time": 147480, "pitch": 53, "duration": 10, "velocity": 92}, {"time": 147600, "pitch": 38, "duration": 10, "velocity": 106}, {"time": 147720, "pitch": 36, "duration": 10, "velocity": 92}, {"time": 147720, "pitch": 46, "duration": 10, "velocity": 92}, {"time": 147840, "pitch": 44, "duration": 10, "velocity": 50}, {"time": 148080, "pitch": 48, "duration": 10, "velocity": 106}, {"time": 148140, "pitch": 48, "duration": 10, "velocity": 92}, {"time": 148200, "pitch": 48, "duration": 10, "velocity": 92}, {"time": 148320, "pitch": 48, "duration": 10, "velocity": 92}, {"time": 148440, "pitch": 45, "duration": 10, "velocity": 106}, {"time": 148560, "pitch": 45, "duration": 10, "velocity": 92}, {"time": 148680, "pitch": 45, "duration": 10, "velocity": 92}, {"time": 148800, "pitch": 45, "duration": 10, "velocity": 106}, {"time": 148860, "pitch": 45, "duration": 10, "velocity": 92}, {"time": 148920, "pitch": 45, "duration": 10, "velocity": 92}, {"time": 149040, "pitch": 45, "duration": 10, "velocity": 92}, {"time": 149160, "pitch": 41, "duration": 10, "velocity": 106}, {"time": 149280, "pitch": 41, "duration": 10, "velocity": 92}, {"time": 149400, "pitch": 41, "duration": 10, "velocity": 92}, {"time": 149520, "pitch": 41, "duration": 10, "velocity": 92}, {"time": 149640, "pitch": 36, "duration": 10, "velocity": 106}, {"time": 149640, "pitch": 49, "duration": 10, "velocity": 78}, {"time": 149880, "pitch": 36, "duration": 10, "velocity": 92}, {"time": 150000, "pitch": 38, "duration": 10, "velocity": 106}, {"time": 150000, "pitch": 53, "duration": 10, "velocity": 92}, {"time": 150240, "pitch": 36, "duration": 10, "velocity": 106}, {"time": 150240, "pitch": 53, "duration": 10, "velocity": 92}, {"time": 150360, "pitch": 36, "duration": 10, "velocity": 92}, {"time": 150480, "pitch": 38, "duration": 10, "velocity": 106}, {"time": 150480, "pitch": 53, "duration": 10, "velocity": 92}, {"time": 150720, "pitch": 36, "duration": 10, "velocity": 106}, {"time": 150720, "pitch": 53, "duration": 10, "velocity": 92}, {"time": 150960, "pitch": 38, "duration": 10, "velocity": 106}, {"time": 150960, "pitch": 53, "duration": 10, "velocity": 92}, {"time": 151080, "pitch": 36, "duration": 10, "velocity": 92}, {"time": 151200, "pitch": 53, "duration": 10, "velocity": 92}, {"time": 151320, "pitch": 36, "duration": 10, "velocity": 92}, {"time": 151440, "pitch": 38, "duration": 10, "velocity": 106}, {"time": 151440, "pitch": 53, "duration": 10, "velocity": 92}, {"time": 151560, "pitch": 36, "duration": 10, "velocity": 106}, {"time": 151680, "pitch": 53, "duration": 10, "velocity": 92}, {"time": 151800, "pitch": 36, "duration": 10, "velocity": 92}, {"time": 151920, "pitch": 38, "duration": 10, "velocity": 106}, {"time": 151920, "pitch": 53, "duration": 10, "velocity": 92}, {"time": 152160, "pitch": 36, "duration": 10, "velocity": 106}, {"time": 152160, "pitch": 53, "duration": 10, "velocity": 92}, {"time": 152280, "pitch": 36, "duration": 10, "velocity": 92}, {"time": 152400, "pitch": 38, "duration": 10, "velocity": 106}, {"time": 152400, "pitch": 53, "duration": 10, "velocity": 92}, {"time": 152640, "pitch": 36, "duration": 10, "velocity": 106}, {"time": 152640, "pitch": 53, "duration": 10, "velocity": 92}, {"time": 152880, "pitch": 38, "duration": 10, "velocity": 106}, {"time": 152880, "pitch": 53, "duration": 10, "velocity": 92}, {"time": 153000, "pitch": 36, "duration": 10, "velocity": 92}, {"time": 153120, "pitch": 53, "duration": 10, "velocity": 92}, {"time": 153240, "pitch": 36, "duration": 10, "velocity": 92}, {"time": 153360, "pitch": 38, "duration": 10, "velocity": 106}, {"time": 153360, "pitch": 53, "duration": 10, "velocity": 92}, {"time": 153480, "pitch": 36, "duration": 10, "velocity": 106}, {"time": 153480, "pitch": 49, "duration": 10, "velocity": 78}, {"time": 153720, "pitch": 36, "duration": 10, "velocity": 92}, {"time": 153840, "pitch": 38, "duration": 10, "velocity": 106}, {"time": 153840, "pitch": 53, "duration": 10, "velocity": 92}, {"time": 154080, "pitch": 36, "duration": 10, "velocity": 106}, {"time": 154080, "pitch": 53, "duration": 10, "velocity": 92}, {"time": 154200, "pitch": 36, "duration": 10, "velocity": 92}, {"time": 154320, "pitch": 38, "duration": 10, "velocity": 106}, {"time": 154320, "pitch": 53, "duration": 10, "velocity": 92}, {"time": 154560, "pitch": 36, "duration": 10, "velocity": 106}, {"time": 154560, "pitch": 53, "duration": 10, "velocity": 92}, {"time": 154800, "pitch": 38, "duration": 10, "velocity": 106}, {"time": 154800, "pitch": 53, "duration": 10, "velocity": 92}, {"time": 154920, "pitch": 36, "duration": 10, "velocity": 92}, {"time": 155040, "pitch": 53, "duration": 10, "velocity": 92}, {"time": 155160, "pitch": 36, "duration": 10, "velocity": 92}, {"time": 155280, "pitch": 38, "duration": 10, "velocity": 106}, {"time": 155280, "pitch": 53, "duration": 10, "velocity": 92}, {"time": 155400, "pitch": 36, "duration": 10, "velocity": 106}, {"time": 155520, "pitch": 53, "duration": 10, "velocity": 92}, {"time": 155640, "pitch": 36, "duration": 10, "velocity": 92}, {"time": 155760, "pitch": 38, "duration": 10, "velocity": 106}, {"time": 155760, "pitch": 53, "duration": 10, "velocity": 92}, {"time": 156000, "pitch": 36, "duration": 10, "velocity": 106}, {"time": 156000, "pitch": 53, "duration": 10, "velocity": 92}, {"time": 156120, "pitch": 36, "duration": 10, "velocity": 92}, {"time": 156240, "pitch": 38, "duration": 10, "velocity": 106}, {"time": 156240, "pitch": 53, "duration": 10, "velocity": 92}, {"time": 156480, "pitch": 36, "duration": 10, "velocity": 106}, {"time": 156480, "pitch": 53, "duration": 10, "velocity": 92}, {"time": 156720, "pitch": 38, "duration": 10, "velocity": 106}, {"time": 156720, "pitch": 53, "duration": 10, "velocity": 92}, {"time": 156840, "pitch": 36, "duration": 10, "velocity": 92}, {"time": 156960, "pitch": 53, "duration": 10, "velocity": 92}, {"time": 157080, "pitch": 36, "duration": 10, "velocity": 92}, {"time": 157200, "pitch": 38, "duration": 10, "velocity": 106}, {"time": 157200, "pitch": 53, "duration": 10, "velocity": 92}, {"time": 157320, "pitch": 36, "duration": 10, "velocity": 106}, {"time": 157320, "pitch": 49, "duration": 10, "velocity": 78}, {"time": 157560, "pitch": 36, "duration": 10, "velocity": 92}, {"time": 157680, "pitch": 38, "duration": 10, "velocity": 106}, {"time": 157680, "pitch": 53, "duration": 10, "velocity": 92}, {"time": 157920, "pitch": 36, "duration": 10, "velocity": 106}, {"time": 157920, "pitch": 53, "duration": 10, "velocity": 92}, {"time": 158040, "pitch": 36, "duration": 10, "velocity": 92}, {"time": 158160, "pitch": 38, "duration": 10, "velocity": 106}, {"time": 158160, "pitch": 53, "duration": 10, "velocity": 92}, {"time": 158400, "pitch": 36, "duration": 10, "velocity": 106}, {"time": 158400, "pitch": 53, "duration": 10, "velocity": 92}, {"time": 158640, "pitch": 38, "duration": 10, "velocity": 106}, {"time": 158640, "pitch": 53, "duration": 10, "velocity": 92}, {"time": 158760, "pitch": 36, "duration": 10, "velocity": 92}, {"time": 158880, "pitch": 53, "duration": 10, "velocity": 92}, {"time": 159000, "pitch": 36, "duration": 10, "velocity": 92}, {"time": 159120, "pitch": 38, "duration": 10, "velocity": 106}, {"time": 159120, "pitch": 53, "duration": 10, "velocity": 92}, {"time": 159240, "pitch": 36, "duration": 10, "velocity": 106}, {"time": 159360, "pitch": 53, "duration": 10, "velocity": 92}, {"time": 159480, "pitch": 36, "duration": 10, "velocity": 92}, {"time": 159600, "pitch": 38, "duration": 10, "velocity": 106}, {"time": 159600, "pitch": 53, "duration": 10, "velocity": 92}, {"time": 159840, "pitch": 36, "duration": 10, "velocity": 106}, {"time": 159840, "pitch": 53, "duration": 10, "velocity": 92}, {"time": 159960, "pitch": 36, "duration": 10, "velocity": 92}, {"time": 160080, "pitch": 38, "duration": 10, "velocity": 106}, {"time": 160080, "pitch": 53, "duration": 10, "velocity": 92}, {"time": 160320, "pitch": 36, "duration": 10, "velocity": 106}, {"time": 160320, "pitch": 53, "duration": 10, "velocity": 92}, {"time": 160560, "pitch": 38, "duration": 10, "velocity": 106}, {"time": 160560, "pitch": 53, "duration": 10, "velocity": 92}, {"time": 160680, "pitch": 36, "duration": 10, "velocity": 92}, {"time": 160800, "pitch": 53, "duration": 10, "velocity": 92}, {"time": 160920, "pitch": 36, "duration": 10, "velocity": 92}, {"time": 161040, "pitch": 38, "duration": 10, "velocity": 106}, {"time": 161040, "pitch": 53, "duration": 10, "velocity": 92}, {"time": 161160, "pitch": 36, "duration": 10, "velocity": 106}, {"time": 161160, "pitch": 49, "duration": 10, "velocity": 78}, {"time": 161400, "pitch": 36, "duration": 10, "velocity": 92}, {"time": 161520, "pitch": 38, "duration": 10, "velocity": 106}, {"time": 161520, "pitch": 53, "duration": 10, "velocity": 92}, {"time": 161760, "pitch": 36, "duration": 10, "velocity": 106}, {"time": 161760, "pitch": 53, "duration": 10, "velocity": 92}, {"time": 161880, "pitch": 36, "duration": 10, "velocity": 92}, {"time": 162000, "pitch": 38, "duration": 10, "velocity": 106}, {"time": 162000, "pitch": 53, "duration": 10, "velocity": 92}, {"time": 162240, "pitch": 36, "duration": 10, "velocity": 106}, {"time": 162240, "pitch": 53, "duration": 10, "velocity": 92}, {"time": 162480, "pitch": 38, "duration": 10, "velocity": 106}, {"time": 162480, "pitch": 53, "duration": 10, "velocity": 92}, {"time": 162600, "pitch": 36, "duration": 10, "velocity": 92}, {"time": 162720, "pitch": 53, "duration": 10, "velocity": 92}, {"time": 162840, "pitch": 36, "duration": 10, "velocity": 92}, {"time": 162960, "pitch": 38, "duration": 10, "velocity": 106}, {"time": 162960, "pitch": 53, "duration": 10, "velocity": 92}, {"time": 163080, "pitch": 36, "duration": 10, "velocity": 106}, {"time": 163200, "pitch": 53, "duration": 10, "velocity": 92}, {"time": 163320, "pitch": 36, "duration": 10, "velocity": 92}, {"time": 163440, "pitch": 38, "duration": 10, "velocity": 106}, {"time": 163440, "pitch": 53, "duration": 10, "velocity": 92}, {"time": 163680, "pitch": 36, "duration": 10, "velocity": 106}, {"time": 163680, "pitch": 53, "duration": 10, "velocity": 92}, {"time": 163800, "pitch": 36, "duration": 10, "velocity": 92}, {"time": 163920, "pitch": 38, "duration": 10, "velocity": 106}, {"time": 163920, "pitch": 53, "duration": 10, "velocity": 92}, {"time": 164160, "pitch": 36, "duration": 10, "velocity": 106}, {"time": 164160, "pitch": 53, "duration": 10, "velocity": 92}, {"time": 164280, "pitch": 38, "duration": 10, "velocity": 106}, {"time": 164400, "pitch": 48, "duration": 10, "velocity": 106}, {"time": 164520, "pitch": 45, "duration": 10, "velocity": 106}, {"time": 164640, "pitch": 41, "duration": 10, "velocity": 106}, {"time": 164760, "pitch": 41, "duration": 10, "velocity": 92}, {"time": 165000, "pitch": 36, "duration": 10, "velocity": 106}, {"time": 165000, "pitch": 49, "duration": 10, "velocity": 78}, {"time": 165240, "pitch": 36, "duration": 10, "velocity": 92}, {"time": 165360, "pitch": 38, "duration": 10, "velocity": 106}, {"time": 165360, "pitch": 53, "duration": 10, "velocity": 92}, {"time": 165600, "pitch": 36, "duration": 10, "velocity": 106}, {"time": 165600, "pitch": 53, "duration": 10, "velocity": 92}, {"time": 165720, "pitch": 36, "duration": 10, "velocity": 92}, {"time": 165840, "pitch": 38, "duration": 10, "velocity": 106}, {"time": 165840, "pitch": 53, "duration": 10, "velocity": 92}, {"time": 166080, "pitch": 36, "duration": 10, "velocity": 106}, {"time": 166080, "pitch": 53, "duration": 10, "velocity": 92}, {"time": 166320, "pitch": 38, "duration": 10, "velocity": 106}, {"time": 166320, "pitch": 53, "duration": 10, "velocity": 92}, {"time": 166440, "pitch": 36, "duration": 10, "velocity": 92}, {"time": 166560, "pitch": 53, "duration": 10, "velocity": 92}, {"time": 166680, "pitch": 36, "duration": 10, "velocity": 92}, {"time": 166800, "pitch": 38, "duration": 10, "velocity": 106}, {"time": 166920, "pitch": 36, "duration": 10, "velocity": 106}, {"time": 166920, "pitch": 57, "duration": 10, "velocity": 78}, {"time": 167040, "pitch": 53, "duration": 10, "velocity": 92}, {"time": 167160, "pitch": 36, "duration": 10, "velocity": 92}, {"time": 167280, "pitch": 38, "duration": 10, "velocity": 106}, {"time": 167280, "pitch": 53, "duration": 10, "velocity": 92}, {"time": 167520, "pitch": 36, "duration": 10, "velocity": 106}, {"time": 167520, "pitch": 53, "duration": 10, "velocity": 92}, {"time": 167640, "pitch": 36, "duration": 10, "velocity": 92}, {"time": 167760, "pitch": 38, "duration": 10, "velocity": 106}, {"time": 167760, "pitch": 53, "duration": 10, "velocity": 92}, {"time": 168000, "pitch": 36, "duration": 10, "velocity": 106}, {"time": 168000, "pitch": 53, "duration": 10, "velocity": 92}, {"time": 168240, "pitch": 38, "duration": 10, "velocity": 106}, {"time": 168240, "pitch": 53, "duration": 10, "velocity": 92}, {"time": 168360, "pitch": 36, "duration": 10, "velocity": 92}, {"time": 168480, "pitch": 53, "duration": 10, "velocity": 92}, {"time": 168600, "pitch": 36, "duration": 10, "velocity": 92}, {"time": 168720, "pitch": 38, "duration": 10, "velocity": 106}, {"time": 168720, "pitch": 53, "duration": 10, "velocity": 92}, {"time": 168840, "pitch": 36, "duration": 10, "velocity": 106}, {"time": 168840, "pitch": 49, "duration": 10, "velocity": 78}, {"time": 169080, "pitch": 36, "duration": 10, "velocity": 92}, {"time": 169200, "pitch": 38, "duration": 10, "velocity": 106}, {"time": 169200, "pitch": 53, "duration": 10, "velocity": 92}, {"time": 169440, "pitch": 36, "duration": 10, "velocity": 106}, {"time": 169440, "pitch": 53, "duration": 10, "velocity": 92}, {"time": 169560, "pitch": 36, "duration": 10, "velocity": 92}, {"time": 169680, "pitch": 38, "duration": 10, "velocity": 106}, {"time": 169680, "pitch": 53, "duration": 10, "velocity": 92}, {"time": 169920, "pitch": 36, "duration": 10, "velocity": 106}, {"time": 169920, "pitch": 53, "duration": 10, "velocity": 92}, {"time": 170160, "pitch": 38, "duration": 10, "velocity": 106}, {"time": 170160, "pitch": 53, "duration": 10, "velocity": 92}, {"time": 170280, "pitch": 36, "duration": 10, "velocity": 92}, {"time": 170400, "pitch": 53, "duration": 10, "velocity": 92}, {"time": 170520, "pitch": 36, "duration": 10, "velocity": 92}, {"time": 170640, "pitch": 38, "duration": 10, "velocity": 106}, {"time": 170640, "pitch": 53, "duration": 10, "velocity": 92}, {"time": 170760, "pitch": 36, "duration": 10, "velocity": 106}, {"time": 170880, "pitch": 53, "duration": 10, "velocity": 92}, {"time": 171000, "pitch": 36, "duration": 10, "velocity": 92}, {"time": 171120, "pitch": 38, "duration": 10, "velocity": 106}, {"time": 171120, "pitch": 53, "duration": 10, "velocity": 92}, {"time": 171360, "pitch": 36, "duration": 10, "velocity": 106}, {"time": 171360, "pitch": 53, "duration": 10, "velocity": 92}, {"time": 171480, "pitch": 36, "duration": 10, "velocity": 92}, {"time": 171600, "pitch": 38, "duration": 10, "velocity": 106}, {"time": 171600, "pitch": 53, "duration": 10, "velocity": 92}, {"time": 171840, "pitch": 36, "duration": 10, "velocity": 106}, {"time": 171840, "pitch": 53, "duration": 10, "velocity": 92}, {"time": 172080, "pitch": 38, "duration": 10, "velocity": 106}, {"time": 172080, "pitch": 53, "duration": 10, "velocity": 92}, {"time": 172320, "pitch": 38, "duration": 10, "velocity": 106}, {"time": 172440, "pitch": 38, "duration": 10, "velocity": 106}, {"time": 172680, "pitch": 36, "duration": 10, "velocity": 106}, {"time": 172680, "pitch": 49, "duration": 10, "velocity": 78}, {"time": 172920, "pitch": 36, "duration": 10, "velocity": 92}, {"time": 173040, "pitch": 38, "duration": 10, "velocity": 106}, {"time": 173040, "pitch": 42, "duration": 10, "velocity": 64}, {"time": 173280, "pitch": 36, "duration": 10, "velocity": 106}, {"time": 173280, "pitch": 42, "duration": 10, "velocity": 78}, {"time": 173400, "pitch": 36, "duration": 10, "velocity": 92}, {"time": 173520, "pitch": 38, "duration": 10, "velocity": 106}, {"time": 173520, "pitch": 42, "duration": 10, "velocity": 64}, {"time": 173760, "pitch": 36, "duration": 10, "velocity": 106}, {"time": 173760, "pitch": 42, "duration": 10, "velocity": 78}, {"time": 174000, "pitch": 38, "duration": 10, "velocity": 106}, {"time": 174000, "pitch": 42, "duration": 10, "velocity": 64}, {"time": 174120, "pitch": 36, "duration": 10, "velocity": 92}, {"time": 174240, "pitch": 42, "duration": 10, "velocity": 78}, {"time": 174360, "pitch": 36, "duration": 10, "velocity": 92}, {"time": 174480, "pitch": 38, "duration": 10, "velocity": 106}, {"time": 174480, "pitch": 42, "duration": 10, "velocity": 64}, {"time": 174600, "pitch": 36, "duration": 10, "velocity": 106}, {"time": 174720, "pitch": 42, "duration": 10, "velocity": 78}, {"time": 174840, "pitch": 36, "duration": 10, "velocity": 92}, {"time": 174960, "pitch": 38, "duration": 10, "velocity": 106}, {"time": 174960, "pitch": 42, "duration": 10, "velocity": 64}, {"time": 175200, "pitch": 36, "duration": 10, "velocity": 106}, {"time": 175200, "pitch": 42, "duration": 10, "velocity": 78}, {"time": 175320, "pitch": 36, "duration": 10, "velocity": 92}, {"time": 175440, "pitch": 38, "duration": 10, "velocity": 106}, {"time": 175440, "pitch": 42, "duration": 10, "velocity": 64}, {"time": 175680, "pitch": 36, "duration": 10, "velocity": 106}, {"time": 175680, "pitch": 42, "duration": 10, "velocity": 78}, {"time": 175920, "pitch": 38, "duration": 10, "velocity": 106}, {"time": 175920, "pitch": 42, "duration": 10, "velocity": 64}, {"time": 176040, "pitch": 36, "duration": 10, "velocity": 92}, {"time": 176160, "pitch": 42, "duration": 10, "velocity": 78}, {"time": 176280, "pitch": 36, "duration": 10, "velocity": 92}, {"time": 176400, "pitch": 38, "duration": 10, "velocity": 106}, {"time": 176400, "pitch": 42, "duration": 10, "velocity": 64}, {"time": 176520, "pitch": 36, "duration": 10, "velocity": 106}, {"time": 176520, "pitch": 46, "duration": 10, "velocity": 92}, {"time": 176640, "pitch": 44, "duration": 10, "velocity": 50}, {"time": 176760, "pitch": 36, "duration": 10, "velocity": 92}, {"time": 176880, "pitch": 38, "duration": 10, "velocity": 106}, {"time": 176880, "pitch": 42, "duration": 10, "velocity": 64}, {"time": 177120, "pitch": 36, "duration": 10, "velocity": 106}, {"time": 177120, "pitch": 42, "duration": 10, "velocity": 78}, {"time": 177240, "pitch": 36, "duration": 10, "velocity": 92}, {"time": 177360, "pitch": 38, "duration": 10, "velocity": 106}, {"time": 177360, "pitch": 42, "duration": 10, "velocity": 64}, {"time": 177600, "pitch": 36, "duration": 10, "velocity": 106}, {"time": 177600, "pitch": 46, "duration": 10, "velocity": 78}, {"time": 177840, "pitch": 38, "duration": 10, "velocity": 78}, {"time": 177960, "pitch": 38, "duration": 10, "velocity": 92}, {"time": 178080, "pitch": 38, "duration": 10, "velocity": 106}, {"time": 178200, "pitch": 38, "duration": 10, "velocity": 106}, {"time": 178320, "pitch": 36, "duration": 10, "velocity": 106}, {"time": 178320, "pitch": 57, "duration": 10, "velocity": 78}, {"time": 178800, "pitch": 36, "duration": 10, "velocity": 106}, {"time": 179040, "pitch": 38, "duration": 10, "velocity": 106}, {"time": 179040, "pitch": 53, "duration": 10, "velocity": 92}, {"time": 179280, "pitch": 36, "duration": 10, "velocity": 106}, {"time": 179280, "pitch": 53, "duration": 10, "velocity": 92}, {"time": 179520, "pitch": 36, "duration": 10, "velocity": 106}, {"time": 179520, "pitch": 53, "duration": 10, "velocity": 92}, {"time": 179640, "pitch": 38, "duration": 10, "velocity": 92}, {"time": 179760, "pitch": 36, "duration": 10, "velocity": 92}, {"time": 179760, "pitch": 53, "duration": 10, "velocity": 92}, {"time": 180000, "pitch": 38, "duration": 10, "velocity": 106}, {"time": 180000, "pitch": 53, "duration": 10, "velocity": 92}, {"time": 180240, "pitch": 38, "duration": 10, "velocity": 106}, {"time": 180360, "pitch": 36, "duration": 10, "velocity": 106}, {"time": 180360, "pitch": 49, "duration": 10, "velocity": 78}, {"time": 180600, "pitch": 36, "duration": 10, "velocity": 92}, {"time": 180720, "pitch": 38, "duration": 10, "velocity": 106}, {"time": 180720, "pitch": 42, "duration": 10, "velocity": 64}, {"time": 180960, "pitch": 36, "duration": 10, "velocity": 106}, {"time": 180960, "pitch": 42, "duration": 10, "velocity": 78}, {"time": 181080, "pitch": 36, "duration": 10, "velocity": 92}, {"time": 181200, "pitch": 38, "duration": 10, "velocity": 106}, {"time": 181200, "pitch": 42, "duration": 10, "velocity": 64}, {"time": 181440, "pitch": 36, "duration": 10, "velocity": 106}, {"time": 181440, "pitch": 42, "duration": 10, "velocity": 78}, {"time": 181680, "pitch": 38, "duration": 10, "velocity": 106}, {"time": 181680, "pitch": 42, "duration": 10, "velocity": 64}, {"time": 181800, "pitch": 36, "duration": 10, "velocity": 92}, {"time": 181920, "pitch": 42, "duration": 10, "velocity": 78}, {"time": 182040, "pitch": 36, "duration": 10, "velocity": 92}, {"time": 182160, "pitch": 38, "duration": 10, "velocity": 106}, {"time": 182160, "pitch": 42, "duration": 10, "velocity": 64}, {"time": 182280, "pitch": 36, "duration": 10, "velocity": 106}, {"time": 182280, "pitch": 57, "duration": 10, "velocity": 78}, {"time": 182520, "pitch": 36, "duration": 10, "velocity": 92}, {"time": 182640, "pitch": 38, "duration": 10, "velocity": 106}, {"time": 182640, "pitch": 42, "duration": 10, "velocity": 64}, {"time": 182880, "pitch": 36, "duration": 10, "velocity": 106}, {"time": 182880, "pitch": 42, "duration": 10, "velocity": 78}, {"time": 183000, "pitch": 36, "duration": 10, "velocity": 92}, {"time": 183120, "pitch": 38, "duration": 10, "velocity": 106}, {"time": 183120, "pitch": 42, "duration": 10, "velocity": 64}, {"time": 183360, "pitch": 36, "duration": 10, "velocity": 106}, {"time": 183360, "pitch": 42, "duration": 10, "velocity": 78}, {"time": 183600, "pitch": 38, "duration": 10, "velocity": 106}, {"time": 183600, "pitch": 42, "duration": 10, "velocity": 64}, {"time": 183720, "pitch": 36, "duration": 10, "velocity": 92}, {"time": 183840, "pitch": 42, "duration": 10, "velocity": 78}, {"time": 183960, "pitch": 36, "duration": 10, "velocity": 92}, {"time": 184080, "pitch": 38, "duration": 10, "velocity": 106}, {"time": 184080, "pitch": 42, "duration": 10, "velocity": 64}, {"time": 184200, "pitch": 36, "duration": 10, "velocity": 106}, {"time": 184200, "pitch": 49, "duration": 10, "velocity": 78}, {"time": 184320, "pitch": 42, "duration": 10, "velocity": 78}, {"time": 184440, "pitch": 36, "duration": 10, "velocity": 92}, {"time": 184560, "pitch": 38, "duration": 10, "velocity": 106}, {"time": 184560, "pitch": 42, "duration": 10, "velocity": 64}, {"time": 184800, "pitch": 36, "duration": 10, "velocity": 106}, {"time": 184800, "pitch": 42, "duration": 10, "velocity": 78}, {"time": 184920, "pitch": 36, "duration": 10, "velocity": 92}, {"time": 185040, "pitch": 38, "duration": 10, "velocity": 106}, {"time": 185040, "pitch": 42, "duration": 10, "velocity": 64}, {"time": 185280, "pitch": 36, "duration": 10, "velocity": 106}, {"time": 185280, "pitch": 42, "duration": 10, "velocity": 78}, {"time": 185520, "pitch": 38, "duration": 10, "velocity": 106}, {"time": 185520, "pitch": 42, "duration": 10, "velocity": 64}, {"time": 185760, "pitch": 36, "duration": 10, "velocity": 92}, {"time": 185760, "pitch": 38, "duration": 10, "velocity": 106}, {"time": 185880, "pitch": 38, "duration": 10, "velocity": 106}, {"time": 186120, "pitch": 36, "duration": 10, "velocity": 106}, {"time": 186120, "pitch": 57, "duration": 10, "velocity": 78}, {"time": 186360, "pitch": 36, "duration": 10, "velocity": 92}, {"time": 186480, "pitch": 38, "duration": 10, "velocity": 106}, {"time": 186720, "pitch": 43, "duration": 10, "velocity": 92}, {"time": 186840, "pitch": 43, "duration": 10, "velocity": 92}, {"time": 186960, "pitch": 42, "duration": 10, "velocity": 64}, {"time": 187080, "pitch": 36, "duration": 10, "velocity": 106}, {"time": 187080, "pitch": 46, "duration": 10, "velocity": 92}, {"time": 187200, "pitch": 44, "duration": 10, "velocity": 50}, {"time": 188040, "pitch": 36, "duration": 10, "velocity": 106}, {"time": 188040, "pitch": 49, "duration": 10, "velocity": 78}, {"time": 216840, "pitch": 38, "duration": 10, "velocity": 106}, {"time": 216840, "pitch": 53, "duration": 10, "velocity": 92}, {"time": 217080, "pitch": 38, "duration": 10, "velocity": 106}, {"time": 217080, "pitch": 53, "duration": 10, "velocity": 92}, {"time": 217320, "pitch": 36, "duration": 10, "velocity": 106}, {"time": 217440, "pitch": 38, "duration": 10, "velocity": 106}, {"time": 217440, "pitch": 53, "duration": 10, "velocity": 92}, {"time": 217680, "pitch": 38, "duration": 10, "velocity": 106}, {"time": 217680, "pitch": 53, "duration": 10, "velocity": 92}, {"time": 217920, "pitch": 48, "duration": 10, "velocity": 106}, {"time": 218000, "pitch": 45, "duration": 10, "velocity": 92}, {"time": 218080, "pitch": 36, "duration": 10, "velocity": 92}, {"time": 218160, "pitch": 45, "duration": 10, "velocity": 106}, {"time": 218240, "pitch": 41, "duration": 10, "velocity": 92}, {"time": 218320, "pitch": 36, "duration": 10, "velocity": 92}, {"time": 218400, "pitch": 48, "duration": 10, "velocity": 106}, {"time": 218480, "pitch": 45, "duration": 10, "velocity": 92}, {"time": 218560, "pitch": 41, "duration": 10, "velocity": 92}, {"time": 218640, "pitch": 36, "duration": 10, "velocity": 96}, {"time": 218640, "pitch": 38, "duration": 10, "velocity": 106}, {"time": 218760, "pitch": 36, "duration": 10, "velocity": 82}, {"time": 218760, "pitch": 57, "duration": 10, "velocity": 78}, {"time": 219000, "pitch": 36, "duration": 10, "velocity": 82}, {"time": 219120, "pitch": 36, "duration": 10, "velocity": 96}, {"time": 219120, "pitch": 38, "duration": 10, "velocity": 106}, {"time": 219120, "pitch": 53, "duration": 10, "velocity": 92}, {"time": 219240, "pitch": 36, "duration": 10, "velocity": 82}, {"time": 219360, "pitch": 36, "duration": 10, "velocity": 96}, {"time": 219360, "pitch": 53, "duration": 10, "velocity": 92}, {"time": 219480, "pitch": 36, "duration": 10, "velocity": 82}, {"time": 219600, "pitch": 36, "duration": 10, "velocity": 96}, {"time": 219600, "pitch": 38, "duration": 10, "velocity": 106}, {"time": 219600, "pitch": 53, "duration": 10, "velocity": 92}, {"time": 219720, "pitch": 36, "duration": 10, "velocity": 82}, {"time": 219840, "pitch": 36, "duration": 10, "velocity": 96}, {"time": 219840, "pitch": 53, "duration": 10, "velocity": 92}, {"time": 219960, "pitch": 36, "duration": 10, "velocity": 82}, {"time": 220080, "pitch": 36, "duration": 10, "velocity": 96}, {"time": 220080, "pitch": 38, "duration": 10, "velocity": 106}, {"time": 220080, "pitch": 53, "duration": 10, "velocity": 92}, {"time": 220200, "pitch": 36, "duration": 10, "velocity": 82}, {"time": 220320, "pitch": 36, "duration": 10, "velocity": 96}, {"time": 220320, "pitch": 53, "duration": 10, "velocity": 92}, {"time": 220440, "pitch": 36, "duration": 10, "velocity": 82}, {"time": 220560, "pitch": 36, "duration": 10, "velocity": 96}, {"time": 220560, "pitch": 38, "duration": 10, "velocity": 106}, {"time": 220680, "pitch": 36, "duration": 10, "velocity": 82}, {"time": 220680, "pitch": 57, "duration": 10, "velocity": 78}, {"time": 220800, "pitch": 36, "duration": 10, "velocity": 96}, {"time": 220800, "pitch": 53, "duration": 10, "velocity": 92}, {"time": 220920, "pitch": 36, "duration": 10, "velocity": 82}, {"time": 221040, "pitch": 36, "duration": 10, "velocity": 96}, {"time": 221040, "pitch": 38, "duration": 10, "velocity": 106}, {"time": 221040, "pitch": 53, "duration": 10, "velocity": 92}, {"time": 221160, "pitch": 36, "duration": 10, "velocity": 82}, {"time": 221280, "pitch": 36, "duration": 10, "velocity": 96}, {"time": 221280, "pitch": 53, "duration": 10, "velocity": 92}, {"time": 221400, "pitch": 36, "duration": 10, "velocity": 82}, {"time": 221520, "pitch": 36, "duration": 10, "velocity": 96}, {"time": 221520, "pitch": 38, "duration": 10, "velocity": 106}, {"time": 221520, "pitch": 53, "duration": 10, "velocity": 92}, {"time": 221640, "pitch": 36, "duration": 10, "velocity": 82}, {"time": 221760, "pitch": 36, "duration": 10, "velocity": 96}, {"time": 221760, "pitch": 53, "duration": 10, "velocity": 92}, {"time": 221880, "pitch": 36, "duration": 10, "velocity": 82}, {"time": 222000, "pitch": 36, "duration": 10, "velocity": 96}, {"time": 222000, "pitch": 38, "duration": 10, "velocity": 106}, {"time": 222000, "pitch": 53, "duration": 10, "velocity": 92}, {"time": 222120, "pitch": 36, "duration": 10, "velocity": 82}, {"time": 222240, "pitch": 36, "duration": 10, "velocity": 96}, {"time": 222240, "pitch": 53, "duration": 10, "velocity": 92}, {"time": 222360, "pitch": 36, "duration": 10, "velocity": 82}, {"time": 222480, "pitch": 36, "duration": 10, "velocity": 96}, {"time": 222480, "pitch": 38, "duration": 10, "velocity": 106}, {"time": 222600, "pitch": 36, "duration": 10, "velocity": 82}, {"time": 222600, "pitch": 49, "duration": 10, "velocity": 78}, {"time": 222720, "pitch": 36, "duration": 10, "velocity": 96}, {"time": 222840, "pitch": 36, "duration": 10, "velocity": 82}, {"time": 222960, "pitch": 36, "duration": 10, "velocity": 96}, {"time": 222960, "pitch": 38, "duration": 10, "velocity": 106}, {"time": 222960, "pitch": 53, "duration": 10, "velocity": 92}, {"time": 223080, "pitch": 36, "duration": 10, "velocity": 82}, {"time": 223200, "pitch": 36, "duration": 10, "velocity": 96}, {"time": 223200, "pitch": 53, "duration": 10, "velocity": 92}, {"time": 223320, "pitch": 36, "duration": 10, "velocity": 82}, {"time": 223440, "pitch": 36, "duration": 10, "velocity": 96}, {"time": 223440, "pitch": 38, "duration": 10, "velocity": 106}, {"time": 223440, "pitch": 53, "duration": 10, "velocity": 92}, {"time": 223560, "pitch": 36, "duration": 10, "velocity": 82}, {"time": 223680, "pitch": 36, "duration": 10, "velocity": 96}, {"time": 223680, "pitch": 53, "duration": 10, "velocity": 92}, {"time": 223800, "pitch": 36, "duration": 10, "velocity": 82}, {"time": 223920, "pitch": 36, "duration": 10, "velocity": 96}, {"time": 223920, "pitch": 38, "duration": 10, "velocity": 106}, {"time": 223920, "pitch": 53, "duration": 10, "velocity": 92}, {"time": 224040, "pitch": 36, "duration": 10, "velocity": 82}, {"time": 224160, "pitch": 36, "duration": 10, "velocity": 96}, {"time": 224160, "pitch": 53, "duration": 10, "velocity": 92}, {"time": 224280, "pitch": 36, "duration": 10, "velocity": 82}, {"time": 224400, "pitch": 36, "duration": 10, "velocity": 96}, {"time": 224400, "pitch": 38, "duration": 10, "velocity": 106}, {"time": 224520, "pitch": 36, "duration": 10, "velocity": 82}, {"time": 224520, "pitch": 57, "duration": 10, "velocity": 78}, {"time": 224640, "pitch": 36, "duration": 10, "velocity": 96}, {"time": 224640, "pitch": 53, "duration": 10, "velocity": 92}, {"time": 224760, "pitch": 36, "duration": 10, "velocity": 82}, {"time": 224880, "pitch": 36, "duration": 10, "velocity": 96}, {"time": 224880, "pitch": 38, "duration": 10, "velocity": 106}, {"time": 224880, "pitch": 53, "duration": 10, "velocity": 92}, {"time": 225000, "pitch": 36, "duration": 10, "velocity": 82}, {"time": 225120, "pitch": 36, "duration": 10, "velocity": 96}, {"time": 225120, "pitch": 53, "duration": 10, "velocity": 92}, {"time": 225240, "pitch": 36, "duration": 10, "velocity": 82}, {"time": 225360, "pitch": 36, "duration": 10, "velocity": 96}, {"time": 225360, "pitch": 38, "duration": 10, "velocity": 106}, {"time": 225360, "pitch": 53, "duration": 10, "velocity": 92}, {"time": 225480, "pitch": 36, "duration": 10, "velocity": 82}, {"time": 225600, "pitch": 36, "duration": 10, "velocity": 96}, {"time": 225600, "pitch": 53, "duration": 10, "velocity": 92}, {"time": 225720, "pitch": 36, "duration": 10, "velocity": 82}, {"time": 225840, "pitch": 36, "duration": 10, "velocity": 96}, {"time": 225840, "pitch": 38, "duration": 10, "velocity": 106}, {"time": 225840, "pitch": 53, "duration": 10, "velocity": 92}, {"time": 225960, "pitch": 36, "duration": 10, "velocity": 82}, {"time": 226080, "pitch": 36, "duration": 10, "velocity": 96}, {"time": 226080, "pitch": 53, "duration": 10, "velocity": 92}, {"time": 226200, "pitch": 36, "duration": 10, "velocity": 82}, {"time": 226320, "pitch": 36, "duration": 10, "velocity": 96}, {"time": 226320, "pitch": 38, "duration": 10, "velocity": 106}, {"time": 226440, "pitch": 36, "duration": 10, "velocity": 82}, {"time": 226440, "pitch": 49, "duration": 10, "velocity": 78}, {"time": 226560, "pitch": 36, "duration": 10, "velocity": 96}, {"time": 226680, "pitch": 36, "duration": 10, "velocity": 82}, {"time": 226800, "pitch": 36, "duration": 10, "velocity": 96}, {"time": 226800, "pitch": 38, "duration": 10, "velocity": 106}, {"time": 226800, "pitch": 53, "duration": 10, "velocity": 92}, {"time": 226920, "pitch": 36, "duration": 10, "velocity": 82}, {"time": 227040, "pitch": 36, "duration": 10, "velocity": 96}, {"time": 227040, "pitch": 53, "duration": 10, "velocity": 92}, {"time": 227160, "pitch": 36, "duration": 10, "velocity": 82}, {"time": 227280, "pitch": 36, "duration": 10, "velocity": 96}, {"time": 227280, "pitch": 38, "duration": 10, "velocity": 106}, {"time": 227280, "pitch": 53, "duration": 10, "velocity": 92}, {"time": 227400, "pitch": 36, "duration": 10, "velocity": 82}, {"time": 227520, "pitch": 36, "duration": 10, "velocity": 96}, {"time": 227520, "pitch": 53, "duration": 10, "velocity": 92}, {"time": 227640, "pitch": 36, "duration": 10, "velocity": 82}, {"time": 227760, "pitch": 36, "duration": 10, "velocity": 96}, {"time": 227760, "pitch": 38, "duration": 10, "velocity": 106}, {"time": 227760, "pitch": 53, "duration": 10, "velocity": 92}, {"time": 227880, "pitch": 36, "duration": 10, "velocity": 82}, {"time": 228000, "pitch": 36, "duration": 10, "velocity": 96}, {"time": 228000, "pitch": 53, "duration": 10, "velocity": 92}, {"time": 228120, "pitch": 36, "duration": 10, "velocity": 82}, {"time": 228240, "pitch": 36, "duration": 10, "velocity": 96}, {"time": 228240, "pitch": 38, "duration": 10, "velocity": 106}, {"time": 228360, "pitch": 36, "duration": 10, "velocity": 82}, {"time": 228360, "pitch": 57, "duration": 10, "velocity": 78}, {"time": 228480, "pitch": 36, "duration": 10, "velocity": 96}, {"time": 228480, "pitch": 53, "duration": 10, "velocity": 92}, {"time": 228600, "pitch": 36, "duration": 10, "velocity": 82}, {"time": 228720, "pitch": 36, "duration": 10, "velocity": 96}, {"time": 228720, "pitch": 38, "duration": 10, "velocity": 106}, {"time": 228720, "pitch": 53, "duration": 10, "velocity": 92}, {"time": 228840, "pitch": 36, "duration": 10, "velocity": 82}, {"time": 228960, "pitch": 36, "duration": 10, "velocity": 96}, {"time": 228960, "pitch": 53, "duration": 10, "velocity": 92}, {"time": 229080, "pitch": 36, "duration": 10, "velocity": 82}, {"time": 229200, "pitch": 36, "duration": 10, "velocity": 96}, {"time": 229200, "pitch": 38, "duration": 10, "velocity": 106}, {"time": 229200, "pitch": 53, "duration": 10, "velocity": 92}, {"time": 229320, "pitch": 36, "duration": 10, "velocity": 82}, {"time": 229440, "pitch": 36, "duration": 10, "velocity": 96}, {"time": 229440, "pitch": 53, "duration": 10, "velocity": 92}, {"time": 229560, "pitch": 36, "duration": 10, "velocity": 82}, {"time": 229680, "pitch": 36, "duration": 10, "velocity": 96}, {"time": 229680, "pitch": 38, "duration": 10, "velocity": 106}, {"time": 229680, "pitch": 53, "duration": 10, "velocity": 92}, {"time": 229800, "pitch": 36, "duration": 10, "velocity": 82}, {"time": 229920, "pitch": 36, "duration": 10, "velocity": 96}, {"time": 229920, "pitch": 53, "duration": 10, "velocity": 92}, {"time": 230040, "pitch": 36, "duration": 10, "velocity": 82}, {"time": 230160, "pitch": 36, "duration": 10, "velocity": 96}, {"time": 230160, "pitch": 38, "duration": 10, "velocity": 106}, {"time": 230280, "pitch": 36, "duration": 10, "velocity": 82}, {"time": 230280, "pitch": 49, "duration": 10, "velocity": 78}, {"time": 230400, "pitch": 36, "duration": 10, "velocity": 96}, {"time": 230520, "pitch": 36, "duration": 10, "velocity": 82}, {"time": 230640, "pitch": 36, "duration": 10, "velocity": 96}, {"time": 230640, "pitch": 38, "duration": 10, "velocity": 106}, {"time": 230640, "pitch": 53, "duration": 10, "velocity": 92}, {"time": 230760, "pitch": 36, "duration": 10, "velocity": 82}, {"time": 230880, "pitch": 36, "duration": 10, "velocity": 96}, {"time": 230880, "pitch": 53, "duration": 10, "velocity": 92}, {"time": 231000, "pitch": 36, "duration": 10, "velocity": 82}, {"time": 231120, "pitch": 36, "duration": 10, "velocity": 96}, {"time": 231120, "pitch": 38, "duration": 10, "velocity": 106}, {"time": 231120, "pitch": 53, "duration": 10, "velocity": 92}, {"time": 231240, "pitch": 36, "duration": 10, "velocity": 82}, {"time": 231360, "pitch": 36, "duration": 10, "velocity": 96}, {"time": 231360, "pitch": 53, "duration": 10, "velocity": 92}, {"time": 231480, "pitch": 36, "duration": 10, "velocity": 82}, {"time": 231600, "pitch": 36, "duration": 10, "velocity": 96}, {"time": 231600, "pitch": 38, "duration": 10, "velocity": 106}, {"time": 231600, "pitch": 53, "duration": 10, "velocity": 92}, {"time": 231720, "pitch": 36, "duration": 10, "velocity": 82}, {"time": 231840, "pitch": 36, "duration": 10, "velocity": 96}, {"time": 231840, "pitch": 53, "duration": 10, "velocity": 92}, {"time": 231960, "pitch": 36, "duration": 10, "velocity": 82}, {"time": 232080, "pitch": 36, "duration": 10, "velocity": 96}, {"time": 232080, "pitch": 38, "duration": 10, "velocity": 106}, {"time": 232200, "pitch": 36, "duration": 10, "velocity": 82}, {"time": 232200, "pitch": 57, "duration": 10, "velocity": 78}, {"time": 232320, "pitch": 36, "duration": 10, "velocity": 96}, {"time": 232320, "pitch": 53, "duration": 10, "velocity": 92}, {"time": 232440, "pitch": 36, "duration": 10, "velocity": 82}, {"time": 232560, "pitch": 36, "duration": 10, "velocity": 96}, {"time": 232560, "pitch": 38, "duration": 10, "velocity": 106}, {"time": 232560, "pitch": 53, "duration": 10, "velocity": 92}, {"time": 232680, "pitch": 36, "duration": 10, "velocity": 82}, {"time": 232800, "pitch": 36, "duration": 10, "velocity": 96}, {"time": 232800, "pitch": 53, "duration": 10, "velocity": 92}, {"time": 232920, "pitch": 36, "duration": 10, "velocity": 82}, {"time": 233040, "pitch": 36, "duration": 10, "velocity": 96}, {"time": 233040, "pitch": 38, "duration": 10, "velocity": 106}, {"time": 233040, "pitch": 53, "duration": 10, "velocity": 92}, {"time": 233160, "pitch": 36, "duration": 10, "velocity": 82}, {"time": 233280, "pitch": 36, "duration": 10, "velocity": 96}, {"time": 233280, "pitch": 53, "duration": 10, "velocity": 92}, {"time": 233400, "pitch": 36, "duration": 10, "velocity": 82}, {"time": 233520, "pitch": 36, "duration": 10, "velocity": 96}, {"time": 233520, "pitch": 48, "duration": 10, "velocity": 106}, {"time": 233640, "pitch": 36, "duration": 10, "velocity": 82}, {"time": 233640, "pitch": 48, "duration": 10, "velocity": 92}, {"time": 233760, "pitch": 36, "duration": 10, "velocity": 96}, {"time": 233760, "pitch": 45, "duration": 10, "velocity": 106}, {"time": 233880, "pitch": 36, "duration": 10, "velocity": 82}, {"time": 233880, "pitch": 45, "duration": 10, "velocity": 92}, {"time": 234000, "pitch": 36, "duration": 10, "velocity": 96}, {"time": 234000, "pitch": 41, "duration": 10, "velocity": 92}, {"time": 234120, "pitch": 36, "duration": 10, "velocity": 82}, {"time": 234120, "pitch": 49, "duration": 10, "velocity": 78}, {"time": 234240, "pitch": 36, "duration": 10, "velocity": 92}, {"time": 234360, "pitch": 36, "duration": 10, "velocity": 82}, {"time": 234480, "pitch": 36, "duration": 10, "velocity": 96}, {"time": 234480, "pitch": 38, "duration": 10, "velocity": 106}, {"time": 234480, "pitch": 53, "duration": 10, "velocity": 92}, {"time": 234600, "pitch": 36, "duration": 10, "velocity": 82}, {"time": 234720, "pitch": 36, "duration": 10, "velocity": 96}, {"time": 234720, "pitch": 53, "duration": 10, "velocity": 92}, {"time": 234840, "pitch": 36, "duration": 10, "velocity": 82}, {"time": 234960, "pitch": 36, "duration": 10, "velocity": 96}, {"time": 234960, "pitch": 38, "duration": 10, "velocity": 106}, {"time": 234960, "pitch": 53, "duration": 10, "velocity": 92}, {"time": 235080, "pitch": 36, "duration": 10, "velocity": 82}, {"time": 235200, "pitch": 36, "duration": 10, "velocity": 96}, {"time": 235200, "pitch": 53, "duration": 10, "velocity": 92}, {"time": 235320, "pitch": 36, "duration": 10, "velocity": 82}, {"time": 235440, "pitch": 36, "duration": 10, "velocity": 96}, {"time": 235440, "pitch": 38, "duration": 10, "velocity": 106}, {"time": 235440, "pitch": 53, "duration": 10, "velocity": 92}, {"time": 235560, "pitch": 36, "duration": 10, "velocity": 82}, {"time": 235680, "pitch": 36, "duration": 10, "velocity": 96}, {"time": 235680, "pitch": 53, "duration": 10, "velocity": 92}, {"time": 235800, "pitch": 36, "duration": 10, "velocity": 82}, {"time": 235920, "pitch": 36, "duration": 10, "velocity": 96}, {"time": 235920, "pitch": 38, "duration": 10, "velocity": 106}, {"time": 235920, "pitch": 53, "duration": 10, "velocity": 92}, {"time": 236040, "pitch": 36, "duration": 10, "velocity": 82}, {"time": 236160, "pitch": 36, "duration": 10, "velocity": 96}, {"time": 236160, "pitch": 53, "duration": 10, "velocity": 92}, {"time": 236280, "pitch": 36, "duration": 10, "velocity": 82}, {"time": 236400, "pitch": 36, "duration": 10, "velocity": 96}, {"time": 236400, "pitch": 38, "duration": 10, "velocity": 106}, {"time": 236400, "pitch": 53, "duration": 10, "velocity": 92}, {"time": 236520, "pitch": 36, "duration": 10, "velocity": 82}, {"time": 236640, "pitch": 36, "duration": 10, "velocity": 96}, {"time": 236640, "pitch": 53, "duration": 10, "velocity": 92}, {"time": 236760, "pitch": 36, "duration": 10, "velocity": 82}, {"time": 236880, "pitch": 36, "duration": 10, "velocity": 96}, {"time": 236880, "pitch": 38, "duration": 10, "velocity": 106}, {"time": 236880, "pitch": 53, "duration": 10, "velocity": 92}, {"time": 237000, "pitch": 36, "duration": 10, "velocity": 82}, {"time": 237120, "pitch": 36, "duration": 10, "velocity": 96}, {"time": 237120, "pitch": 53, "duration": 10, "velocity": 92}, {"time": 237240, "pitch": 36, "duration": 10, "velocity": 82}, {"time": 237360, "pitch": 38, "duration": 10, "velocity": 106}, {"time": 237360, "pitch": 53, "duration": 10, "velocity": 92}, {"time": 237600, "pitch": 36, "duration": 10, "velocity": 106}, {"time": 237600, "pitch": 49, "duration": 10, "velocity": 78}, {"time": 238320, "pitch": 36, "duration": 10, "velocity": 106}, {"time": 238320, "pitch": 57, "duration": 10, "velocity": 78}, {"time": 239040, "pitch": 36, "duration": 10, "velocity": 92}, {"time": 239040, "pitch": 49, "duration": 10, "velocity": 78}, {"time": 239160, "pitch": 36, "duration": 10, "velocity": 82}, {"time": 239280, "pitch": 36, "duration": 10, "velocity": 96}, {"time": 239280, "pitch": 38, "duration": 10, "velocity": 106}, {"time": 239280, "pitch": 53, "duration": 10, "velocity": 92}, {"time": 239400, "pitch": 36, "duration": 10, "velocity": 82}, {"time": 239520, "pitch": 36, "duration": 10, "velocity": 96}, {"time": 239520, "pitch": 53, "duration": 10, "velocity": 92}, {"time": 239640, "pitch": 36, "duration": 10, "velocity": 82}, {"time": 239760, "pitch": 36, "duration": 10, "velocity": 96}, {"time": 239760, "pitch": 38, "duration": 10, "velocity": 106}, {"time": 239760, "pitch": 53, "duration": 10, "velocity": 92}, {"time": 239880, "pitch": 36, "duration": 10, "velocity": 82}, {"time": 240000, "pitch": 36, "duration": 10, "velocity": 96}, {"time": 240000, "pitch": 53, "duration": 10, "velocity": 92}, {"time": 240120, "pitch": 36, "duration": 10, "velocity": 82}, {"time": 240240, "pitch": 36, "duration": 10, "velocity": 96}, {"time": 240240, "pitch": 38, "duration": 10, "velocity": 106}, {"time": 240240, "pitch": 53, "duration": 10, "velocity": 92}, {"time": 240360, "pitch": 36, "duration": 10, "velocity": 82}, {"time": 240480, "pitch": 36, "duration": 10, "velocity": 96}, {"time": 240480, "pitch": 53, "duration": 10, "velocity": 92}, {"time": 240600, "pitch": 36, "duration": 10, "velocity": 82}, {"time": 240720, "pitch": 36, "duration": 10, "velocity": 96}, {"time": 240720, "pitch": 38, "duration": 10, "velocity": 106}, {"time": 240840, "pitch": 36, "duration": 10, "velocity": 82}, {"time": 240840, "pitch": 57, "duration": 10, "velocity": 78}, {"time": 240960, "pitch": 36, "duration": 10, "velocity": 96}, {"time": 241080, "pitch": 36, "duration": 10, "velocity": 82}, {"time": 241200, "pitch": 36, "duration": 10, "velocity": 96}, {"time": 241200, "pitch": 38, "duration": 10, "velocity": 106}, {"time": 241200, "pitch": 53, "duration": 10, "velocity": 92}, {"time": 241320, "pitch": 36, "duration": 10, "velocity": 82}, {"time": 241440, "pitch": 36, "duration": 10, "velocity": 96}, {"time": 241440, "pitch": 53, "duration": 10, "velocity": 92}, {"time": 241560, "pitch": 36, "duration": 10, "velocity": 82}, {"time": 241680, "pitch": 36, "duration": 10, "velocity": 96}, {"time": 241680, "pitch": 38, "duration": 10, "velocity": 106}, {"time": 241680, "pitch": 53, "duration": 10, "velocity": 92}, {"time": 241800, "pitch": 36, "duration": 10, "velocity": 82}, {"time": 241920, "pitch": 36, "duration": 10, "velocity": 96}, {"time": 241920, "pitch": 53, "duration": 10, "velocity": 92}, {"time": 242040, "pitch": 36, "duration": 10, "velocity": 82}, {"time": 242160, "pitch": 38, "duration": 10, "velocity": 106}, {"time": 242160, "pitch": 53, "duration": 10, "velocity": 92}, {"time": 242400, "pitch": 36, "duration": 10, "velocity": 106}, {"time": 242400, "pitch": 49, "duration": 10, "velocity": 78}, {"time": 243120, "pitch": 36, "duration": 10, "velocity": 106}, {"time": 243120, "pitch": 57, "duration": 10, "velocity": 78}, {"time": 243840, "pitch": 36, "duration": 10, "velocity": 106}, {"time": 243840, "pitch": 49, "duration": 10, "velocity": 78}, {"time": 244560, "pitch": 36, "duration": 10, "velocity": 92}, {"time": 244560, "pitch": 57, "duration": 10, "velocity": 78}, {"time": 244680, "pitch": 36, "duration": 10, "velocity": 82}, {"time": 244800, "pitch": 36, "duration": 10, "velocity": 96}, {"time": 244800, "pitch": 38, "duration": 10, "velocity": 106}, {"time": 244800, "pitch": 53, "duration": 10, "velocity": 92}, {"time": 244920, "pitch": 36, "duration": 10, "velocity": 82}, {"time": 245040, "pitch": 36, "duration": 10, "velocity": 96}, {"time": 245040, "pitch": 53, "duration": 10, "velocity": 92}, {"time": 245160, "pitch": 36, "duration": 10, "velocity": 82}, {"time": 245280, "pitch": 36, "duration": 10, "velocity": 96}, {"time": 245280, "pitch": 38, "duration": 10, "velocity": 106}, {"time": 245280, "pitch": 53, "duration": 10, "velocity": 92}, {"time": 245400, "pitch": 36, "duration": 10, "velocity": 82}, {"time": 245520, "pitch": 36, "duration": 10, "velocity": 96}, {"time": 245520, "pitch": 53, "duration": 10, "velocity": 92}, {"time": 245640, "pitch": 36, "duration": 10, "velocity": 82}, {"time": 245760, "pitch": 36, "duration": 10, "velocity": 96}, {"time": 245760, "pitch": 38, "duration": 10, "velocity": 106}, {"time": 245760, "pitch": 53, "duration": 10, "velocity": 92}, {"time": 245880, "pitch": 36, "duration": 10, "velocity": 82}, {"time": 246000, "pitch": 36, "duration": 10, "velocity": 96}, {"time": 246000, "pitch": 53, "duration": 10, "velocity": 92}, {"time": 246120, "pitch": 36, "duration": 10, "velocity": 82}, {"time": 246240, "pitch": 36, "duration": 10, "velocity": 96}, {"time": 246240, "pitch": 38, "duration": 10, "velocity": 106}, {"time": 246360, "pitch": 36, "duration": 10, "velocity": 82}, {"time": 246360, "pitch": 49, "duration": 10, "velocity": 78}, {"time": 246480, "pitch": 36, "duration": 10, "velocity": 96}, {"time": 246600, "pitch": 36, "duration": 10, "velocity": 82}, {"time": 246720, "pitch": 36, "duration": 10, "velocity": 96}, {"time": 246720, "pitch": 38, "duration": 10, "velocity": 106}, {"time": 246720, "pitch": 53, "duration": 10, "velocity": 92}, {"time": 246840, "pitch": 36, "duration": 10, "velocity": 82}, {"time": 246960, "pitch": 36, "duration": 10, "velocity": 96}, {"time": 246960, "pitch": 53, "duration": 10, "velocity": 92}, {"time": 247080, "pitch": 36, "duration": 10, "velocity": 82}, {"time": 247200, "pitch": 36, "duration": 10, "velocity": 96}, {"time": 247200, "pitch": 38, "duration": 10, "velocity": 106}, {"time": 247200, "pitch": 53, "duration": 10, "velocity": 92}, {"time": 247320, "pitch": 36, "duration": 10, "velocity": 82}, {"time": 247440, "pitch": 36, "duration": 10, "velocity": 96}, {"time": 247440, "pitch": 53, "duration": 10, "velocity": 92}, {"time": 247560, "pitch": 36, "duration": 10, "velocity": 82}, {"time": 247680, "pitch": 38, "duration": 10, "velocity": 106}, {"time": 247680, "pitch": 53, "duration": 10, "velocity": 92}, {"time": 247920, "pitch": 36, "duration": 10, "velocity": 106}, {"time": 247920, "pitch": 49, "duration": 10, "velocity": 78}, {"time": 248640, "pitch": 36, "duration": 10, "velocity": 106}, {"time": 248640, "pitch": 57, "duration": 10, "velocity": 78}, {"time": 249360, "pitch": 36, "duration": 10, "velocity": 106}, {"time": 249360, "pitch": 49, "duration": 10, "velocity": 78}, {"time": 250080, "pitch": 36, "duration": 10, "velocity": 106}, {"time": 250080, "pitch": 57, "duration": 10, "velocity": 78}, {"time": 250800, "pitch": 36, "duration": 10, "velocity": 106}, {"time": 250800, "pitch": 49, "duration": 10, "velocity": 78}, {"time": 251520, "pitch": 36, "duration": 10, "velocity": 106}, {"time": 251520, "pitch": 57, "duration": 10, "velocity": 78}, {"time": 252240, "pitch": 36, "duration": 10, "velocity": 106}, {"time": 252240, "pitch": 49, "duration": 10, "velocity": 78}, {"time": 252840, "pitch": 36, "duration": 10, "velocity": 92}, {"time": 252900, "pitch": 36, "duration": 10, "velocity": 92}, {"time": 252960, "pitch": 38, "duration": 10, "velocity": 106}, {"time": 253680, "pitch": 36, "duration": 10, "velocity": 106}, {"time": 253680, "pitch": 49, "duration": 10, "velocity": 78}, {"time": 254280, "pitch": 36, "duration": 10, "velocity": 92}, {"time": 254340, "pitch": 36, "duration": 10, "velocity": 92}, {"time": 254400, "pitch": 38, "duration": 10, "velocity": 106}, {"time": 255120, "pitch": 36, "duration": 10, "velocity": 106}, {"time": 255120, "pitch": 49, "duration": 10, "velocity": 78}, {"time": 260640, "pitch": 36, "duration": 10, "velocity": 106}, {"time": 260720, "pitch": 36, "duration": 10, "velocity": 96}, {"time": 260800, "pitch": 36, "duration": 10, "velocity": 96}, {"time": 260880, "pitch": 38, "duration": 10, "velocity": 106}, {"time": 1920, "pitch": 36, "duration": 10, "velocity": 106}, {"time": 1920, "pitch": 42, "duration": 10, "velocity": 92}, {"time": 2400, "pitch": 36, "duration": 10, "velocity": 106}, {"time": 2400, "pitch": 42, "duration": 10, "velocity": 92}, {"time": 2880, "pitch": 42, "duration": 10, "velocity": 92}, {"time": 2890, "pitch": 40, "duration": 10, "velocity": 120}, {"time": 3360, "pitch": 42, "duration": 10, "velocity": 92}, {"time": 3840, "pitch": 36, "duration": 10, "velocity": 106}, {"time": 3840, "pitch": 42, "duration": 10, "velocity": 92}, {"time": 4320, "pitch": 36, "duration": 10, "velocity": 106}, {"time": 4320, "pitch": 42, "duration": 10, "velocity": 92}, {"time": 4800, "pitch": 42, "duration": 10, "velocity": 92}, {"time": 4810, "pitch": 40, "duration": 10, "velocity": 120}, {"time": 5280, "pitch": 42, "duration": 10, "velocity": 92}, {"time": 5760, "pitch": 36, "duration": 10, "velocity": 106}, {"time": 5760, "pitch": 42, "duration": 10, "velocity": 92}, {"time": 6240, "pitch": 36, "duration": 10, "velocity": 106}, {"time": 6240, "pitch": 42, "duration": 10, "velocity": 92}, {"time": 6720, "pitch": 42, "duration": 10, "velocity": 92}, {"time": 6730, "pitch": 40, "duration": 10, "velocity": 120}, {"time": 7200, "pitch": 42, "duration": 10, "velocity": 92}, {"time": 7680, "pitch": 36, "duration": 10, "velocity": 106}, {"time": 7680, "pitch": 42, "duration": 10, "velocity": 92}, {"time": 8160, "pitch": 36, "duration": 10, "velocity": 106}, {"time": 8160, "pitch": 42, "duration": 10, "velocity": 92}, {"time": 8640, "pitch": 42, "duration": 10, "velocity": 92}, {"time": 8650, "pitch": 40, "duration": 10, "velocity": 120}, {"time": 9120, "pitch": 42, "duration": 10, "velocity": 92}, {"time": 9600, "pitch": 36, "duration": 10, "velocity": 106}, {"time": 9600, "pitch": 42, "duration": 10, "velocity": 92}, {"time": 10080, "pitch": 36, "duration": 10, "velocity": 106}, {"time": 10080, "pitch": 42, "duration": 10, "velocity": 92}, {"time": 10560, "pitch": 42, "duration": 10, "velocity": 92}, {"time": 10570, "pitch": 40, "duration": 10, "velocity": 120}, {"time": 11040, "pitch": 42, "duration": 10, "velocity": 92}, {"time": 11520, "pitch": 36, "duration": 10, "velocity": 106}, {"time": 11520, "pitch": 42, "duration": 10, "velocity": 92}, {"time": 12000, "pitch": 36, "duration": 10, "velocity": 106}, {"time": 12000, "pitch": 42, "duration": 10, "velocity": 92}, {"time": 12480, "pitch": 42, "duration": 10, "velocity": 92}, {"time": 12490, "pitch": 40, "duration": 10, "velocity": 120}, {"time": 12960, "pitch": 42, "duration": 10, "velocity": 92}, {"time": 13440, "pitch": 36, "duration": 10, "velocity": 106}, {"time": 13440, "pitch": 42, "duration": 10, "velocity": 92}, {"time": 13920, "pitch": 36, "duration": 10, "velocity": 106}, {"time": 13920, "pitch": 42, "duration": 10, "velocity": 92}, {"time": 14400, "pitch": 42, "duration": 10, "velocity": 92}, {"time": 14410, "pitch": 40, "duration": 10, "velocity": 120}, {"time": 14880, "pitch": 42, "duration": 10, "velocity": 92}, {"time": 15360, "pitch": 36, "duration": 10, "velocity": 106}, {"time": 15360, "pitch": 42, "duration": 10, "velocity": 92}, {"time": 15840, "pitch": 36, "duration": 10, "velocity": 106}, {"time": 15840, "pitch": 42, "duration": 10, "velocity": 92}, {"time": 16320, "pitch": 42, "duration": 10, "velocity": 92}, {"time": 16330, "pitch": 40, "duration": 10, "velocity": 120}, {"time": 16800, "pitch": 42, "duration": 10, "velocity": 92}, {"time": 17280, "pitch": 36, "duration": 10, "velocity": 106}, {"time": 17280, "pitch": 49, "duration": 10, "velocity": 78}, {"time": 2880, "pitch": 40, "duration": 1440, "velocity": 100}, {"time": 4320, "pitch": 40, "duration": 1420, "velocity": 100}, {"time": 5760, "pitch": 40, "duration": 1420, "velocity": 100}, {"time": 7200, "pitch": 40, "duration": 2380, "velocity": 100}, {"time": 9600, "pitch": 40, "duration": 450, "velocity": 100}, {"time": 10080, "pitch": 40, "duration": 1420, "velocity": 100}, {"time": 11520, "pitch": 48, "duration": 1900, "velocity": 100}, {"time": 13440, "pitch": 47, "duration": 1420, "velocity": 100}, {"time": 14880, "pitch": 40, "duration": 450, "velocity": 100}, {"time": 15360, "pitch": 50, "duration": 1900, "velocity": 100}, {"time": 17280, "pitch": 46, "duration": 1930, "velocity": 100}, {"time": 19200, "pitch": 47, "duration": 950, "velocity": 100}, {"time": 20160, "pitch": 47, "duration": 160, "velocity": 100}, {"time": 20320, "pitch": 52, "duration": 160, "velocity": 100}, {"time": 20480, "pitch": 59, "duration": 160, "velocity": 100}, {"time": 20880, "pitch": 47, "duration": 4060, "velocity": 127}, {"time": 20880, "pitch": 54, "duration": 4060, "velocity": 127}, {"time": 20880, "pitch": 59, "duration": 4060, "velocity": 127}, {"time": 20880, "pitch": 61, "duration": 4060, "velocity": 127}, {"time": 149280, "pitch": 78, "duration": 1900, "velocity": 119}, {"time": 149640, "pitch": 81, "duration": 1540, "velocity": 100}, {"time": 151200, "pitch": 81, "duration": 240, "velocity": 110}, {"time": 151440, "pitch": 76, "duration": 120, "velocity": 100}, {"time": 151560, "pitch": 76, "duration": 570, "velocity": 110}, {"time": 152160, "pitch": 74, "duration": 100, "velocity": 100}, {"time": 152280, "pitch": 76, "duration": 100, "velocity": 110}, {"time": 152520, "pitch": 71, "duration": 860, "velocity": 110}, {"time": 153480, "pitch": 64, "duration": 700, "velocity": 110}, {"time": 154200, "pitch": 66, "duration": 100, "velocity": 110}, {"time": 154320, "pitch": 69, "duration": 100, "velocity": 120}, {"time": 154440, "pitch": 64, "duration": 100, "velocity": 110}, {"time": 154560, "pitch": 66, "duration": 100, "velocity": 120}, {"time": 154680, "pitch": 64, "duration": 220, "velocity": 110}, {"time": 154920, "pitch": 59, "duration": 100, "velocity": 110}, {"time": 155040, "pitch": 62, "duration": 240, "velocity": 120}, {"time": 155280, "pitch": 61, "duration": 240, "velocity": 120}, {"time": 155520, "pitch": 59, "duration": 240, "velocity": 120}, {"time": 155760, "pitch": 61, "duration": 240, "velocity": 120}, {"time": 156000, "pitch": 59, "duration": 240, "velocity": 120}, {"time": 156240, "pitch": 57, "duration": 240, "velocity": 120}, {"time": 156480, "pitch": 56, "duration": 240, "velocity": 110}, {"time": 156720, "pitch": 56, "duration": 590, "velocity": 120}, {"time": 157320, "pitch": 71, "duration": 790, "velocity": 120}, {"time": 158160, "pitch": 73, "duration": 680, "velocity": 120}, {"time": 158880, "pitch": 74, "duration": 580, "velocity": 120}, {"time": 159480, "pitch": 74, "duration": 100, "velocity": 110}, {"time": 159600, "pitch": 76, "duration": 100, "velocity": 120}, {"time": 159720, "pitch": 73, "duration": 100, "velocity": 110}, {"time": 159840, "pitch": 74, "duration": 100, "velocity": 120}, {"time": 160000, "pitch": 76, "duration": 100, "velocity": 120}, {"time": 160160, "pitch": 78, "duration": 100, "velocity": 120}, {"time": 160320, "pitch": 76, "duration": 240, "velocity": 120}, {"time": 160560, "pitch": 74, "duration": 100, "velocity": 120}, {"time": 160720, "pitch": 76, "duration": 100, "velocity": 120}, {"time": 160880, "pitch": 78, "duration": 100, "velocity": 120}, {"time": 161040, "pitch": 76, "duration": 240, "velocity": 120}, {"time": 161280, "pitch": 74, "duration": 360, "velocity": 120}, {"time": 161640, "pitch": 74, "duration": 360, "velocity": 120}, {"time": 162000, "pitch": 74, "duration": 360, "velocity": 120}, {"time": 162360, "pitch": 74, "duration": 360, "velocity": 120}, {"time": 162720, "pitch": 74, "duration": 360, "velocity": 120}, {"time": 163080, "pitch": 81, "duration": 60, "velocity": 120}, {"time": 163140, "pitch": 81, "duration": 60, "velocity": 120}, {"time": 163200, "pitch": 81, "duration": 60, "velocity": 120}, {"time": 163260, "pitch": 81, "duration": 60, "velocity": 120}, {"time": 163320, "pitch": 81, "duration": 60, "velocity": 120}, {"time": 163380, "pitch": 81, "duration": 60, "velocity": 120}, {"time": 163440, "pitch": 81, "duration": 80, "velocity": 110}, {"time": 163520, "pitch": 79, "duration": 80, "velocity": 110}, {"time": 163600, "pitch": 78, "duration": 80, "velocity": 100}, {"time": 163680, "pitch": 81, "duration": 60, "velocity": 120}, {"time": 163740, "pitch": 81, "duration": 60, "velocity": 120}, {"time": 163800, "pitch": 81, "duration": 60, "velocity": 120}, {"time": 163860, "pitch": 81, "duration": 60, "velocity": 120}, {"time": 163920, "pitch": 81, "duration": 80, "velocity": 110}, {"time": 164000, "pitch": 79, "duration": 80, "velocity": 100}, {"time": 164080, "pitch": 78, "duration": 80, "velocity": 100}, {"time": 164160, "pitch": 83, "duration": 730, "velocity": 120}, {"time": 165000, "pitch": 74, "duration": 240, "velocity": 120}, {"time": 165240, "pitch": 71, "duration": 100, "velocity": 110}, {"time": 165360, "pitch": 67, "duration": 120, "velocity": 109}, {"time": 165480, "pitch": 71, "duration": 100, "velocity": 120}, {"time": 165600, "pitch": 74, "duration": 120, "velocity": 120}, {"time": 165720, "pitch": 71, "duration": 100, "velocity": 110}, {"time": 165840, "pitch": 67, "duration": 120, "velocity": 109}, {"time": 165960, "pitch": 71, "duration": 100, "velocity": 120}, {"time": 166080, "pitch": 74, "duration": 120, "velocity": 120}, {"time": 166200, "pitch": 71, "duration": 100, "velocity": 110}, {"time": 166320, "pitch": 67, "duration": 120, "velocity": 109}, {"time": 166440, "pitch": 71, "duration": 100, "velocity": 120}, {"time": 166560, "pitch": 74, "duration": 120, "velocity": 120}, {"time": 166680, "pitch": 71, "duration": 100, "velocity": 110}, {"time": 166920, "pitch": 76, "duration": 240, "velocity": 120}, {"time": 167160, "pitch": 73, "duration": 100, "velocity": 110}, {"time": 167280, "pitch": 69, "duration": 120, "velocity": 109}, {"time": 167400, "pitch": 73, "duration": 100, "velocity": 120}, {"time": 167520, "pitch": 76, "duration": 120, "velocity": 120}, {"time": 167640, "pitch": 73, "duration": 100, "velocity": 110}, {"time": 167760, "pitch": 69, "duration": 120, "velocity": 109}, {"time": 167880, "pitch": 73, "duration": 100, "velocity": 120}, {"time": 168000, "pitch": 76, "duration": 120, "velocity": 120}, {"time": 168120, "pitch": 73, "duration": 100, "velocity": 110}, {"time": 168240, "pitch": 69, "duration": 120, "velocity": 109}, {"time": 168360, "pitch": 73, "duration": 100, "velocity": 120}, {"time": 168480, "pitch": 76, "duration": 120, "velocity": 120}, {"time": 168600, "pitch": 73, "duration": 100, "velocity": 110}, {"time": 168840, "pitch": 76, "duration": 240, "velocity": 120}, {"time": 169080, "pitch": 73, "duration": 100, "velocity": 110}, {"time": 169200, "pitch": 70, "duration": 120, "velocity": 109}, {"time": 169320, "pitch": 73, "duration": 100, "velocity": 120}, {"time": 169440, "pitch": 76, "duration": 120, "velocity": 120}, {"time": 169560, "pitch": 73, "duration": 100, "velocity": 110}, {"time": 169680, "pitch": 70, "duration": 120, "velocity": 109}, {"time": 169800, "pitch": 73, "duration": 100, "velocity": 120}, {"time": 169920, "pitch": 76, "duration": 120, "velocity": 120}, {"time": 170040, "pitch": 73, "duration": 100, "velocity": 110}, {"time": 170160, "pitch": 70, "duration": 120, "velocity": 109}, {"time": 170280, "pitch": 73, "duration": 100, "velocity": 120}, {"time": 170400, "pitch": 76, "duration": 120, "velocity": 120}, {"time": 170520, "pitch": 73, "duration": 100, "velocity": 110}, {"time": 170760, "pitch": 78, "duration": 240, "velocity": 120}, {"time": 171000, "pitch": 78, "duration": 100, "velocity": 110}, {"time": 171120, "pitch": 78, "duration": 240, "velocity": 120}, {"time": 171360, "pitch": 76, "duration": 100, "velocity": 110}, {"time": 171480, "pitch": 76, "duration": 240, "velocity": 120}, {"time": 171720, "pitch": 74, "duration": 100, "velocity": 110}, {"time": 171840, "pitch": 74, "duration": 240, "velocity": 120}, {"time": 172080, "pitch": 73, "duration": 100, "velocity": 110}, {"time": 172200, "pitch": 73, "duration": 120, "velocity": 120}, {"time": 172320, "pitch": 73, "duration": 120, "velocity": 110}, {"time": 172440, "pitch": 74, "duration": 100, "velocity": 120}, {"time": 172680, "pitch": 71, "duration": 3460, "velocity": 120}, {"time": 255120, "pitch": 71, "duration": 450, "velocity": 120}, {"time": 255570, "pitch": 71, "duration": 140, "velocity": 110}, {"time": 255710, "pitch": 74, "duration": 140, "velocity": 120}, {"time": 255850, "pitch": 69, "duration": 140, "velocity": 110}, {"time": 255990, "pitch": 71, "duration": 100, "velocity": 120}, {"time": 256100, "pitch": 69, "duration": 100, "velocity": 110}, {"time": 256210, "pitch": 66, "duration": 240, "velocity": 120}, {"time": 256450, "pitch": 64, "duration": 100, "velocity": 110}, {"time": 256560, "pitch": 66, "duration": 100, "velocity": 110}, {"time": 256670, "pitch": 69, "duration": 100, "velocity": 110}, {"time": 256780, "pitch": 71, "duration": 220, "velocity": 120}, {"time": 256990, "pitch": 69, "duration": 100, "velocity": 110}, {"time": 257100, "pitch": 71, "duration": 220, "velocity": 120}, {"time": 257310, "pitch": 69, "duration": 100, "velocity": 110}, {"time": 257420, "pitch": 71, "duration": 70, "velocity": 100}, {"time": 257490, "pitch": 73, "duration": 80, "velocity": 110}, {"time": 257570, "pitch": 74, "duration": 70, "velocity": 120}, {"time": 257640, "pitch": 76, "duration": 60, "velocity": 110}, {"time": 257710, "pitch": 74, "duration": 70, "velocity": 110}, {"time": 257780, "pitch": 73, "duration": 50, "velocity": 100}, {"time": 257840, "pitch": 71, "duration": 70, "velocity": 100}, {"time": 257910, "pitch": 73, "duration": 60, "velocity": 110}, {"time": 257970, "pitch": 74, "duration": 90, "velocity": 120}, {"time": 258040, "pitch": 76, "duration": 60, "velocity": 110}, {"time": 258100, "pitch": 74, "duration": 70, "velocity": 110}, {"time": 258170, "pitch": 73, "duration": 60, "velocity": 100}, {"time": 258230, "pitch": 71, "duration": 60, "velocity": 100}, {"time": 258300, "pitch": 73, "duration": 60, "velocity": 110}, {"time": 258360, "pitch": 74, "duration": 60, "velocity": 120}, {"time": 258430, "pitch": 76, "duration": 70, "velocity": 110}, {"time": 258500, "pitch": 74, "duration": 60, "velocity": 110}, {"time": 258560, "pitch": 73, "duration": 70, "velocity": 100}, {"time": 258630, "pitch": 73, "duration": 70, "velocity": 100}, {"time": 258700, "pitch": 74, "duration": 70, "velocity": 110}, {"time": 258770, "pitch": 76, "duration": 70, "velocity": 110}, {"time": 258840, "pitch": 78, "duration": 60, "velocity": 120}, {"time": 258900, "pitch": 76, "duration": 70, "velocity": 110}, {"time": 258970, "pitch": 74, "duration": 60, "velocity": 100}, {"time": 259030, "pitch": 73, "duration": 70, "velocity": 100}, {"time": 259100, "pitch": 74, "duration": 60, "velocity": 110}, {"time": 259160, "pitch": 76, "duration": 70, "velocity": 110}, {"time": 259230, "pitch": 78, "duration": 60, "velocity": 120}, {"time": 259300, "pitch": 76, "duration": 70, "velocity": 110}, {"time": 259370, "pitch": 74, "duration": 60, "velocity": 100}, {"time": 259440, "pitch": 73, "duration": 70, "velocity": 100}, {"time": 259510, "pitch": 74, "duration": 60, "velocity": 110}, {"time": 259570, "pitch": 76, "duration": 70, "velocity": 110}, {"time": 259640, "pitch": 78, "duration": 60, "velocity": 120}, {"time": 259700, "pitch": 76, "duration": 70, "velocity": 110}, {"time": 259770, "pitch": 74, "duration": 60, "velocity": 100}, {"time": 259830, "pitch": 73, "duration": 70, "velocity": 100}, {"time": 259900, "pitch": 74, "duration": 60, "velocity": 110}, {"time": 259960, "pitch": 76, "duration": 70, "velocity": 110}, {"time": 260030, "pitch": 78, "duration": 60, "velocity": 120}, {"time": 260090, "pitch": 76, "duration": 70, "velocity": 110}, {"time": 260160, "pitch": 74, "duration": 60, "velocity": 100}, {"time": 260220, "pitch": 74, "duration": 70, "velocity": 110}, {"time": 260290, "pitch": 76, "duration": 60, "velocity": 110}, {"time": 260350, "pitch": 78, "duration": 70, "velocity": 120}, {"time": 260420, "pitch": 79, "duration": 60, "velocity": 120}, {"time": 260480, "pitch": 81, "duration": 60, "velocity": 120}, {"time": 260550, "pitch": 81, "duration": 60, "velocity": 120}, {"time": 260610, "pitch": 81, "duration": 60, "velocity": 120}, {"time": 260680, "pitch": 81, "duration": 60, "velocity": 120}, {"time": 260740, "pitch": 79, "duration": 60, "velocity": 120}, {"time": 260810, "pitch": 78, "duration": 60, "velocity": 120}, {"time": 260880, "pitch": 83, "duration": 450, "velocity": 120}, {"time": 165000, "pitch": 71, "duration": 240, "velocity": 120}, {"time": 165240, "pitch": 67, "duration": 100, "velocity": 110}, {"time": 165360, "pitch": 62, "duration": 120, "velocity": 109}, {"time": 165480, "pitch": 67, "duration": 100, "velocity": 120}, {"time": 165600, "pitch": 71, "duration": 120, "velocity": 120}, {"time": 165720, "pitch": 67, "duration": 100, "velocity": 110}, {"time": 165840, "pitch": 62, "duration": 120, "velocity": 109}, {"time": 165960, "pitch": 67, "duration": 100, "velocity": 120}, {"time": 166080, "pitch": 71, "duration": 120, "velocity": 120}, {"time": 166200, "pitch": 67, "duration": 100, "velocity": 110}, {"time": 166320, "pitch": 62, "duration": 120, "velocity": 109}, {"time": 166440, "pitch": 67, "duration": 100, "velocity": 120}, {"time": 166560, "pitch": 71, "duration": 120, "velocity": 120}, {"time": 166680, "pitch": 67, "duration": 100, "velocity": 110}, {"time": 166920, "pitch": 73, "duration": 240, "velocity": 120}, {"time": 167160, "pitch": 69, "duration": 100, "velocity": 110}, {"time": 167280, "pitch": 64, "duration": 120, "velocity": 109}, {"time": 167400, "pitch": 69, "duration": 100, "velocity": 120}, {"time": 167520, "pitch": 73, "duration": 120, "velocity": 120}, {"time": 167640, "pitch": 69, "duration": 100, "velocity": 110}, {"time": 167760, "pitch": 64, "duration": 120, "velocity": 109}, {"time": 167880, "pitch": 69, "duration": 100, "velocity": 120}, {"time": 168000, "pitch": 73, "duration": 120, "velocity": 120}, {"time": 168120, "pitch": 69, "duration": 100, "velocity": 110}, {"time": 168240, "pitch": 64, "duration": 120, "velocity": 109}, {"time": 168360, "pitch": 69, "duration": 100, "velocity": 120}, {"time": 168480, "pitch": 73, "duration": 120, "velocity": 120}, {"time": 168600, "pitch": 69, "duration": 100, "velocity": 110}, {"time": 168840, "pitch": 73, "duration": 240, "velocity": 120}, {"time": 169080, "pitch": 70, "duration": 100, "velocity": 110}, {"time": 169200, "pitch": 64, "duration": 120, "velocity": 109}, {"time": 169320, "pitch": 70, "duration": 100, "velocity": 120}, {"time": 169440, "pitch": 73, "duration": 120, "velocity": 120}, {"time": 169560, "pitch": 70, "duration": 100, "velocity": 110}, {"time": 169680, "pitch": 64, "duration": 120, "velocity": 109}, {"time": 169800, "pitch": 70, "duration": 100, "velocity": 120}, {"time": 169920, "pitch": 73, "duration": 120, "velocity": 120}, {"time": 170040, "pitch": 70, "duration": 100, "velocity": 110}, {"time": 170160, "pitch": 64, "duration": 120, "velocity": 109}, {"time": 170280, "pitch": 70, "duration": 100, "velocity": 120}, {"time": 170400, "pitch": 73, "duration": 120, "velocity": 120}, {"time": 170520, "pitch": 70, "duration": 100, "velocity": 110}, {"time": 170760, "pitch": 74, "duration": 240, "velocity": 120}, {"time": 171000, "pitch": 74, "duration": 100, "velocity": 110}, {"time": 171120, "pitch": 74, "duration": 240, "velocity": 120}, {"time": 171360, "pitch": 73, "duration": 100, "velocity": 110}, {"time": 171480, "pitch": 73, "duration": 240, "velocity": 120}, {"time": 171720, "pitch": 71, "duration": 100, "velocity": 110}, {"time": 171840, "pitch": 71, "duration": 240, "velocity": 120}, {"time": 172080, "pitch": 69, "duration": 100, "velocity": 110}, {"time": 172200, "pitch": 69, "duration": 120, "velocity": 120}, {"time": 172320, "pitch": 69, "duration": 120, "velocity": 110}, {"time": 172440, "pitch": 71, "duration": 100, "velocity": 120}, {"time": 172680, "pitch": 67, "duration": 3460, "velocity": 120}, {"time": 26760, "pitch": 47, "duration": 340, "velocity": 110}, {"time": 26760, "pitch": 54, "duration": 340, "velocity": 110}, {"time": 28680, "pitch": 47, "duration": 340, "velocity": 110}, {"time": 28680, "pitch": 54, "duration": 340, "velocity": 100}, {"time": 30000, "pitch": 45, "duration": 100, "velocity": 110}, {"time": 30000, "pitch": 52, "duration": 100, "velocity": 110}, {"time": 30240, "pitch": 45, "duration": 100, "velocity": 110}, {"time": 30240, "pitch": 52, "duration": 100, "velocity": 110}, {"time": 30480, "pitch": 45, "duration": 100, "velocity": 100}, {"time": 30480, "pitch": 52, "duration": 100, "velocity": 100}, {"time": 30600, "pitch": 47, "duration": 340, "velocity": 110}, {"time": 30600, "pitch": 54, "duration": 340, "velocity": 110}, {"time": 32520, "pitch": 47, "duration": 340, "velocity": 110}, {"time": 32520, "pitch": 54, "duration": 340, "velocity": 100}, {"time": 33840, "pitch": 45, "duration": 100, "velocity": 110}, {"time": 33840, "pitch": 52, "duration": 100, "velocity": 110}, {"time": 34080, "pitch": 45, "duration": 100, "velocity": 110}, {"time": 34080, "pitch": 52, "duration": 100, "velocity": 110}, {"time": 34320, "pitch": 45, "duration": 100, "velocity": 100}, {"time": 34320, "pitch": 52, "duration": 100, "velocity": 100}, {"time": 34440, "pitch": 47, "duration": 340, "velocity": 110}, {"time": 34440, "pitch": 54, "duration": 340, "velocity": 110}, {"time": 36360, "pitch": 47, "duration": 340, "velocity": 110}, {"time": 36360, "pitch": 54, "duration": 340, "velocity": 100}, {"time": 37680, "pitch": 45, "duration": 100, "velocity": 110}, {"time": 37680, "pitch": 52, "duration": 100, "velocity": 110}, {"time": 37920, "pitch": 45, "duration": 100, "velocity": 110}, {"time": 37920, "pitch": 52, "duration": 100, "velocity": 110}, {"time": 38160, "pitch": 45, "duration": 100, "velocity": 100}, {"time": 38160, "pitch": 52, "duration": 100, "velocity": 100}, {"time": 38280, "pitch": 47, "duration": 340, "velocity": 110}, {"time": 38280, "pitch": 54, "duration": 340, "velocity": 110}, {"time": 40200, "pitch": 47, "duration": 340, "velocity": 110}, {"time": 40200, "pitch": 54, "duration": 340, "velocity": 100}, {"time": 41760, "pitch": 45, "duration": 100, "velocity": 110}, {"time": 41760, "pitch": 52, "duration": 100, "velocity": 110}, {"time": 41880, "pitch": 44, "duration": 100, "velocity": 110}, {"time": 41880, "pitch": 51, "duration": 100, "velocity": 110}, {"time": 42120, "pitch": 43, "duration": 920, "velocity": 110}, {"time": 42120, "pitch": 50, "duration": 920, "velocity": 110}, {"time": 42480, "pitch": 64, "duration": 820, "velocity": 110}, {"time": 42720, "pitch": 59, "duration": 640, "velocity": 110}, {"time": 43080, "pitch": 45, "duration": 800, "velocity": 110}, {"time": 43080, "pitch": 52, "duration": 800, "velocity": 110}, {"time": 43440, "pitch": 64, "duration": 590, "velocity": 110}, {"time": 43680, "pitch": 59, "duration": 360, "velocity": 110}, {"time": 44040, "pitch": 47, "duration": 150, "velocity": 110}, {"time": 44040, "pitch": 54, "duration": 150, "velocity": 110}, {"time": 45840, "pitch": 45, "duration": 120, "velocity": 110}, {"time": 45840, "pitch": 52, "duration": 120, "velocity": 110}, {"time": 45960, "pitch": 47, "duration": 150, "velocity": 110}, {"time": 45960, "pitch": 54, "duration": 150, "velocity": 110}, {"time": 47880, "pitch": 47, "duration": 340, "velocity": 110}, {"time": 47880, "pitch": 54, "duration": 340, "velocity": 110}, {"time": 49800, "pitch": 45, "duration": 340, "velocity": 110}, {"time": 49800, "pitch": 52, "duration": 340, "velocity": 100}, {"time": 50880, "pitch": 45, "duration": 210, "velocity": 110}, {"time": 51000, "pitch": 52, "duration": 220, "velocity": 110}, {"time": 51240, "pitch": 45, "duration": 220, "velocity": 110}, {"time": 51360, "pitch": 52, "duration": 220, "velocity": 110}, {"time": 51600, "pitch": 45, "duration": 120, "velocity": 110}, {"time": 51720, "pitch": 43, "duration": 340, "velocity": 110}, {"time": 51720, "pitch": 50, "duration": 340, "velocity": 110}, {"time": 53640, "pitch": 45, "duration": 340, "velocity": 110}, {"time": 53640, "pitch": 52, "duration": 340, "velocity": 100}, {"time": 54720, "pitch": 45, "duration": 210, "velocity": 110}, {"time": 54840, "pitch": 52, "duration": 220, "velocity": 110}, {"time": 55080, "pitch": 45, "duration": 220, "velocity": 110}, {"time": 55200, "pitch": 52, "duration": 220, "velocity": 110}, {"time": 55440, "pitch": 45, "duration": 120, "velocity": 110}, {"time": 55560, "pitch": 47, "duration": 340, "velocity": 110}, {"time": 55560, "pitch": 54, "duration": 340, "velocity": 110}, {"time": 57480, "pitch": 45, "duration": 340, "velocity": 110}, {"time": 57480, "pitch": 52, "duration": 340, "velocity": 100}, {"time": 58560, "pitch": 45, "duration": 210, "velocity": 110}, {"time": 58680, "pitch": 52, "duration": 220, "velocity": 110}, {"time": 58920, "pitch": 45, "duration": 220, "velocity": 110}, {"time": 59040, "pitch": 52, "duration": 220, "velocity": 110}, {"time": 59280, "pitch": 45, "duration": 120, "velocity": 110}, {"time": 59400, "pitch": 43, "duration": 340, "velocity": 110}, {"time": 59400, "pitch": 50, "duration": 340, "velocity": 110}, {"time": 61320, "pitch": 45, "duration": 340, "velocity": 110}, {"time": 61320, "pitch": 52, "duration": 340, "velocity": 100}, {"time": 62880, "pitch": 45, "duration": 100, "velocity": 110}, {"time": 62880, "pitch": 52, "duration": 100, "velocity": 110}, {"time": 63000, "pitch": 44, "duration": 100, "velocity": 110}, {"time": 63000, "pitch": 51, "duration": 100, "velocity": 110}, {"time": 63240, "pitch": 43, "duration": 1900, "velocity": 110}, {"time": 63240, "pitch": 50, "duration": 1900, "velocity": 110}, {"time": 65160, "pitch": 43, "duration": 340, "velocity": 100}, {"time": 65160, "pitch": 50, "duration": 340, "velocity": 110}, {"time": 67080, "pitch": 45, "duration": 340, "velocity": 110}, {"time": 67080, "pitch": 52, "duration": 340, "velocity": 100}, {"time": 68880, "pitch": 47, "duration": 920, "velocity": 100}, {"time": 68880, "pitch": 54, "duration": 920, "velocity": 100}, {"time": 68890, "pitch": 59, "duration": 910, "velocity": 100}, {"time": 68890, "pitch": 64, "duration": 910, "velocity": 110}, {"time": 69840, "pitch": 47, "duration": 40, "velocity": 100}, {"time": 69840, "pitch": 54, "duration": 40, "velocity": 100}, {"time": 69840, "pitch": 59, "duration": 40, "velocity": 100}, {"time": 69840, "pitch": 64, "duration": 40, "velocity": 110}, {"time": 69960, "pitch": 59, "duration": 570, "velocity": 100}, {"time": 69960, "pitch": 63, "duration": 570, "velocity": 110}, {"time": 69970, "pitch": 47, "duration": 560, "velocity": 100}, {"time": 69970, "pitch": 54, "duration": 560, "velocity": 100}, {"time": 70560, "pitch": 47, "duration": 100, "velocity": 110}, {"time": 70560, "pitch": 54, "duration": 100, "velocity": 110}, {"time": 70680, "pitch": 45, "duration": 100, "velocity": 110}, {"time": 70680, "pitch": 52, "duration": 100, "velocity": 110}, {"time": 70920, "pitch": 43, "duration": 340, "velocity": 110}, {"time": 70920, "pitch": 50, "duration": 340, "velocity": 110}, {"time": 72840, "pitch": 43, "duration": 340, "velocity": 110}, {"time": 72840, "pitch": 50, "duration": 340, "velocity": 100}, {"time": 74760, "pitch": 45, "duration": 340, "velocity": 110}, {"time": 74760, "pitch": 52, "duration": 340, "velocity": 100}, {"time": 76320, "pitch": 45, "duration": 100, "velocity": 110}, {"time": 76320, "pitch": 52, "duration": 100, "velocity": 100}, {"time": 76440, "pitch": 45, "duration": 100, "velocity": 100}, {"time": 76440, "pitch": 52, "duration": 100, "velocity": 90}, {"time": 76680, "pitch": 42, "duration": 340, "velocity": 110}, {"time": 76680, "pitch": 49, "duration": 340, "velocity": 100}, {"time": 77040, "pitch": 42, "duration": 100, "velocity": 100}, {"time": 77040, "pitch": 49, "duration": 100, "velocity": 110}, {"time": 77160, "pitch": 42, "duration": 100, "velocity": 100}, {"time": 77160, "pitch": 49, "duration": 100, "velocity": 110}, {"time": 77280, "pitch": 40, "duration": 100, "velocity": 100}, {"time": 77280, "pitch": 47, "duration": 100, "velocity": 110}, {"time": 77400, "pitch": 41, "duration": 100, "velocity": 100}, {"time": 77400, "pitch": 48, "duration": 100, "velocity": 110}, {"time": 77640, "pitch": 42, "duration": 100, "velocity": 100}, {"time": 77640, "pitch": 49, "duration": 100, "velocity": 110}, {"time": 78600, "pitch": 47, "duration": 340, "velocity": 110}, {"time": 78600, "pitch": 54, "duration": 340, "velocity": 110}, {"time": 80520, "pitch": 45, "duration": 340, "velocity": 110}, {"time": 80520, "pitch": 52, "duration": 340, "velocity": 100}, {"time": 81600, "pitch": 45, "duration": 210, "velocity": 110}, {"time": 81720, "pitch": 52, "duration": 220, "velocity": 110}, {"time": 81960, "pitch": 45, "duration": 220, "velocity": 110}, {"time": 82080, "pitch": 52, "duration": 220, "velocity": 110}, {"time": 82320, "pitch": 45, "duration": 120, "velocity": 110}, {"time": 82440, "pitch": 43, "duration": 340, "velocity": 110}, {"time": 82440, "pitch": 50, "duration": 340, "velocity": 110}, {"time": 84360, "pitch": 45, "duration": 340, "velocity": 110}, {"time": 84360, "pitch": 52, "duration": 340, "velocity": 100}, {"time": 85440, "pitch": 45, "duration": 210, "velocity": 110}, {"time": 85560, "pitch": 52, "duration": 220, "velocity": 110}, {"time": 85800, "pitch": 45, "duration": 220, "velocity": 110}, {"time": 85920, "pitch": 52, "duration": 220, "velocity": 110}, {"time": 86160, "pitch": 45, "duration": 120, "velocity": 110}, {"time": 86280, "pitch": 47, "duration": 340, "velocity": 110}, {"time": 86280, "pitch": 54, "duration": 340, "velocity": 110}, {"time": 88200, "pitch": 45, "duration": 340, "velocity": 110}, {"time": 88200, "pitch": 52, "duration": 340, "velocity": 100}, {"time": 89280, "pitch": 45, "duration": 210, "velocity": 110}, {"time": 89400, "pitch": 52, "duration": 220, "velocity": 110}, {"time": 89640, "pitch": 45, "duration": 220, "velocity": 110}, {"time": 89760, "pitch": 52, "duration": 220, "velocity": 110}, {"time": 90000, "pitch": 45, "duration": 120, "velocity": 110}, {"time": 90120, "pitch": 43, "duration": 340, "velocity": 110}, {"time": 90120, "pitch": 50, "duration": 340, "velocity": 110}, {"time": 92040, "pitch": 45, "duration": 340, "velocity": 110}, {"time": 92040, "pitch": 52, "duration": 340, "velocity": 100}, {"time": 93600, "pitch": 45, "duration": 100, "velocity": 110}, {"time": 93600, "pitch": 52, "duration": 100, "velocity": 110}, {"time": 93720, "pitch": 44, "duration": 100, "velocity": 110}, {"time": 93720, "pitch": 51, "duration": 100, "velocity": 110}, {"time": 93960, "pitch": 43, "duration": 920, "velocity": 110}, {"time": 93960, "pitch": 50, "duration": 920, "velocity": 110}, {"time": 94320, "pitch": 64, "duration": 820, "velocity": 110}, {"time": 94560, "pitch": 59, "duration": 640, "velocity": 110}, {"time": 94920, "pitch": 45, "duration": 800, "velocity": 110}, {"time": 94920, "pitch": 52, "duration": 800, "velocity": 110}, {"time": 95280, "pitch": 64, "duration": 590, "velocity": 110}, {"time": 95520, "pitch": 59, "duration": 360, "velocity": 110}, {"time": 95880, "pitch": 47, "duration": 150, "velocity": 110}, {"time": 95880, "pitch": 54, "duration": 150, "velocity": 110}, {"time": 97680, "pitch": 45, "duration": 120, "velocity": 110}, {"time": 97680, "pitch": 52, "duration": 120, "velocity": 110}, {"time": 97800, "pitch": 47, "duration": 150, "velocity": 110}, {"time": 97800, "pitch": 54, "duration": 150, "velocity": 110}, {"time": 99720, "pitch": 47, "duration": 340, "velocity": 110}, {"time": 99720, "pitch": 54, "duration": 340, "velocity": 110}, {"time": 101640, "pitch": 45, "duration": 340, "velocity": 110}, {"time": 101640, "pitch": 52, "duration": 340, "velocity": 100}, {"time": 102720, "pitch": 45, "duration": 210, "velocity": 110}, {"time": 102840, "pitch": 52, "duration": 220, "velocity": 110}, {"time": 103080, "pitch": 45, "duration": 220, "velocity": 110}, {"time": 103200, "pitch": 52, "duration": 220, "velocity": 110}, {"time": 103440, "pitch": 45, "duration": 120, "velocity": 110}, {"time": 103560, "pitch": 43, "duration": 340, "velocity": 110}, {"time": 103560, "pitch": 50, "duration": 340, "velocity": 110}, {"time": 105480, "pitch": 45, "duration": 340, "velocity": 110}, {"time": 105480, "pitch": 52, "duration": 340, "velocity": 100}, {"time": 106560, "pitch": 45, "duration": 210, "velocity": 110}, {"time": 106680, "pitch": 52, "duration": 220, "velocity": 110}, {"time": 106920, "pitch": 45, "duration": 220, "velocity": 110}, {"time": 107040, "pitch": 52, "duration": 220, "velocity": 110}, {"time": 107280, "pitch": 45, "duration": 120, "velocity": 110}, {"time": 107400, "pitch": 47, "duration": 340, "velocity": 110}, {"time": 107400, "pitch": 54, "duration": 340, "velocity": 110}, {"time": 109320, "pitch": 45, "duration": 340, "velocity": 110}, {"time": 109320, "pitch": 52, "duration": 340, "velocity": 100}, {"time": 110400, "pitch": 45, "duration": 210, "velocity": 110}, {"time": 110520, "pitch": 52, "duration": 220, "velocity": 110}, {"time": 110760, "pitch": 45, "duration": 220, "velocity": 110}, {"time": 110880, "pitch": 52, "duration": 220, "velocity": 110}, {"time": 111120, "pitch": 45, "duration": 120, "velocity": 110}, {"time": 111240, "pitch": 43, "duration": 340, "velocity": 110}, {"time": 111240, "pitch": 50, "duration": 340, "velocity": 110}, {"time": 113160, "pitch": 45, "duration": 340, "velocity": 110}, {"time": 113160, "pitch": 52, "duration": 340, "velocity": 100}, {"time": 114720, "pitch": 45, "duration": 100, "velocity": 110}, {"time": 114720, "pitch": 52, "duration": 100, "velocity": 110}, {"time": 114840, "pitch": 44, "duration": 100, "velocity": 110}, {"time": 114840, "pitch": 51, "duration": 100, "velocity": 110}, {"time": 115080, "pitch": 43, "duration": 1900, "velocity": 110}, {"time": 115080, "pitch": 50, "duration": 1900, "velocity": 110}, {"time": 117000, "pitch": 43, "duration": 340, "velocity": 100}, {"time": 117000, "pitch": 50, "duration": 340, "velocity": 110}, {"time": 118920, "pitch": 45, "duration": 340, "velocity": 110}, {"time": 118920, "pitch": 52, "duration": 340, "velocity": 100}, {"time": 120720, "pitch": 47, "duration": 920, "velocity": 100}, {"time": 120720, "pitch": 54, "duration": 920, "velocity": 100}, {"time": 120730, "pitch": 59, "duration": 910, "velocity": 100}, {"time": 120730, "pitch": 64, "duration": 910, "velocity": 110}, {"time": 121680, "pitch": 47, "duration": 40, "velocity": 100}, {"time": 121680, "pitch": 54, "duration": 40, "velocity": 100}, {"time": 121680, "pitch": 59, "duration": 40, "velocity": 100}, {"time": 121680, "pitch": 64, "duration": 40, "velocity": 110}, {"time": 121800, "pitch": 59, "duration": 570, "velocity": 100}, {"time": 121800, "pitch": 63, "duration": 570, "velocity": 110}, {"time": 121810, "pitch": 47, "duration": 560, "velocity": 100}, {"time": 121810, "pitch": 54, "duration": 560, "velocity": 100}, {"time": 122400, "pitch": 47, "duration": 100, "velocity": 110}, {"time": 122400, "pitch": 54, "duration": 100, "velocity": 110}, {"time": 122520, "pitch": 45, "duration": 100, "velocity": 110}, {"time": 122520, "pitch": 52, "duration": 100, "velocity": 110}, {"time": 122760, "pitch": 43, "duration": 340, "velocity": 110}, {"time": 122760, "pitch": 50, "duration": 340, "velocity": 110}, {"time": 124680, "pitch": 43, "duration": 340, "velocity": 110}, {"time": 124680, "pitch": 50, "duration": 340, "velocity": 100}, {"time": 126600, "pitch": 45, "duration": 340, "velocity": 110}, {"time": 126600, "pitch": 52, "duration": 340, "velocity": 100}, {"time": 128160, "pitch": 45, "duration": 100, "velocity": 110}, {"time": 128160, "pitch": 52, "duration": 100, "velocity": 100}, {"time": 128280, "pitch": 45, "duration": 100, "velocity": 100}, {"time": 128280, "pitch": 52, "duration": 100, "velocity": 90}, {"time": 128520, "pitch": 42, "duration": 340, "velocity": 110}, {"time": 128520, "pitch": 49, "duration": 340, "velocity": 100}, {"time": 128880, "pitch": 42, "duration": 100, "velocity": 100}, {"time": 128880, "pitch": 49, "duration": 100, "velocity": 110}, {"time": 129000, "pitch": 42, "duration": 100, "velocity": 100}, {"time": 129000, "pitch": 49, "duration": 100, "velocity": 110}, {"time": 129120, "pitch": 40, "duration": 100, "velocity": 100}, {"time": 129120, "pitch": 47, "duration": 100, "velocity": 110}, {"time": 129240, "pitch": 41, "duration": 100, "velocity": 100}, {"time": 129240, "pitch": 48, "duration": 100, "velocity": 110}, {"time": 129480, "pitch": 42, "duration": 100, "velocity": 100}, {"time": 129480, "pitch": 49, "duration": 100, "velocity": 110}, {"time": 130440, "pitch": 47, "duration": 340, "velocity": 110}, {"time": 130440, "pitch": 54, "duration": 340, "velocity": 110}, {"time": 132360, "pitch": 45, "duration": 340, "velocity": 110}, {"time": 132360, "pitch": 52, "duration": 340, "velocity": 100}, {"time": 133440, "pitch": 45, "duration": 210, "velocity": 110}, {"time": 133560, "pitch": 52, "duration": 220, "velocity": 110}, {"time": 133800, "pitch": 45, "duration": 220, "velocity": 110}, {"time": 133920, "pitch": 52, "duration": 220, "velocity": 110}, {"time": 134160, "pitch": 45, "duration": 120, "velocity": 110}, {"time": 134280, "pitch": 43, "duration": 340, "velocity": 110}, {"time": 134280, "pitch": 50, "duration": 340, "velocity": 110}, {"time": 136200, "pitch": 45, "duration": 340, "velocity": 110}, {"time": 136200, "pitch": 52, "duration": 340, "velocity": 100}, {"time": 137280, "pitch": 45, "duration": 210, "velocity": 110}, {"time": 137400, "pitch": 52, "duration": 220, "velocity": 110}, {"time": 137640, "pitch": 45, "duration": 220, "velocity": 110}, {"time": 137760, "pitch": 52, "duration": 220, "velocity": 110}, {"time": 138000, "pitch": 45, "duration": 120, "velocity": 110}, {"time": 138120, "pitch": 47, "duration": 340, "velocity": 110}, {"time": 138120, "pitch": 54, "duration": 340, "velocity": 110}, {"time": 140040, "pitch": 45, "duration": 340, "velocity": 110}, {"time": 140040, "pitch": 52, "duration": 340, "velocity": 100}, {"time": 141120, "pitch": 45, "duration": 210, "velocity": 110}, {"time": 141240, "pitch": 52, "duration": 220, "velocity": 110}, {"time": 141480, "pitch": 45, "duration": 220, "velocity": 110}, {"time": 141600, "pitch": 52, "duration": 220, "velocity": 110}, {"time": 141840, "pitch": 45, "duration": 120, "velocity": 110}, {"time": 141960, "pitch": 43, "duration": 340, "velocity": 110}, {"time": 141960, "pitch": 50, "duration": 340, "velocity": 110}, {"time": 143880, "pitch": 45, "duration": 340, "velocity": 110}, {"time": 143880, "pitch": 52, "duration": 340, "velocity": 100}, {"time": 145440, "pitch": 45, "duration": 100, "velocity": 110}, {"time": 145440, "pitch": 52, "duration": 100, "velocity": 110}, {"time": 145560, "pitch": 44, "duration": 100, "velocity": 110}, {"time": 145560, "pitch": 51, "duration": 100, "velocity": 110}, {"time": 145800, "pitch": 43, "duration": 920, "velocity": 110}, {"time": 145800, "pitch": 50, "duration": 920, "velocity": 110}, {"time": 146160, "pitch": 64, "duration": 820, "velocity": 110}, {"time": 146400, "pitch": 59, "duration": 640, "velocity": 110}, {"time": 146760, "pitch": 45, "duration": 800, "velocity": 110}, {"time": 146760, "pitch": 52, "duration": 800, "velocity": 110}, {"time": 147120, "pitch": 64, "duration": 590, "velocity": 110}, {"time": 147360, "pitch": 59, "duration": 360, "velocity": 110}, {"time": 147720, "pitch": 47, "duration": 150, "velocity": 110}, {"time": 147720, "pitch": 54, "duration": 150, "velocity": 110}, {"time": 149640, "pitch": 47, "duration": 340, "velocity": 110}, {"time": 149640, "pitch": 54, "duration": 340, "velocity": 110}, {"time": 151560, "pitch": 45, "duration": 340, "velocity": 110}, {"time": 151560, "pitch": 52, "duration": 340, "velocity": 100}, {"time": 152640, "pitch": 45, "duration": 210, "velocity": 110}, {"time": 152760, "pitch": 52, "duration": 220, "velocity": 110}, {"time": 153000, "pitch": 45, "duration": 220, "velocity": 110}, {"time": 153120, "pitch": 52, "duration": 220, "velocity": 110}, {"time": 153360, "pitch": 45, "duration": 120, "velocity": 110}, {"time": 153480, "pitch": 43, "duration": 340, "velocity": 110}, {"time": 153480, "pitch": 50, "duration": 340, "velocity": 110}, {"time": 155400, "pitch": 45, "duration": 340, "velocity": 110}, {"time": 155400, "pitch": 52, "duration": 340, "velocity": 100}, {"time": 156480, "pitch": 45, "duration": 210, "velocity": 110}, {"time": 156600, "pitch": 52, "duration": 220, "velocity": 110}, {"time": 156840, "pitch": 45, "duration": 220, "velocity": 110}, {"time": 156960, "pitch": 52, "duration": 220, "velocity": 110}, {"time": 157200, "pitch": 45, "duration": 120, "velocity": 110}, {"time": 157320, "pitch": 47, "duration": 340, "velocity": 110}, {"time": 157320, "pitch": 54, "duration": 340, "velocity": 110}, {"time": 159240, "pitch": 45, "duration": 340, "velocity": 110}, {"time": 159240, "pitch": 52, "duration": 340, "velocity": 100}, {"time": 160320, "pitch": 45, "duration": 210, "velocity": 110}, {"time": 160440, "pitch": 52, "duration": 220, "velocity": 110}, {"time": 160680, "pitch": 45, "duration": 220, "velocity": 110}, {"time": 160800, "pitch": 52, "duration": 220, "velocity": 110}, {"time": 161040, "pitch": 45, "duration": 120, "velocity": 110}, {"time": 161160, "pitch": 43, "duration": 340, "velocity": 110}, {"time": 161160, "pitch": 50, "duration": 340, "velocity": 110}, {"time": 163080, "pitch": 45, "duration": 340, "velocity": 110}, {"time": 163080, "pitch": 52, "duration": 340, "velocity": 100}, {"time": 164640, "pitch": 45, "duration": 100, "velocity": 110}, {"time": 164640, "pitch": 52, "duration": 100, "velocity": 110}, {"time": 164760, "pitch": 44, "duration": 100, "velocity": 110}, {"time": 164760, "pitch": 51, "duration": 100, "velocity": 110}, {"time": 165000, "pitch": 43, "duration": 340, "velocity": 110}, {"time": 165000, "pitch": 50, "duration": 340, "velocity": 110}, {"time": 166920, "pitch": 45, "duration": 340, "velocity": 110}, {"time": 166920, "pitch": 52, "duration": 340, "velocity": 100}, {"time": 168840, "pitch": 46, "duration": 340, "velocity": 110}, {"time": 168840, "pitch": 54, "duration": 340, "velocity": 100}, {"time": 170760, "pitch": 42, "duration": 340, "velocity": 110}, {"time": 170760, "pitch": 49, "duration": 340, "velocity": 100}, {"time": 172320, "pitch": 45, "duration": 100, "velocity": 110}, {"time": 172320, "pitch": 52, "duration": 100, "velocity": 110}, {"time": 172440, "pitch": 44, "duration": 100, "velocity": 110}, {"time": 172440, "pitch": 51, "duration": 100, "velocity": 110}, {"time": 172680, "pitch": 43, "duration": 1900, "velocity": 110}, {"time": 172680, "pitch": 50, "duration": 1900, "velocity": 110}, {"time": 174600, "pitch": 43, "duration": 340, "velocity": 100}, {"time": 174600, "pitch": 50, "duration": 340, "velocity": 110}, {"time": 176520, "pitch": 45, "duration": 340, "velocity": 110}, {"time": 176520, "pitch": 52, "duration": 340, "velocity": 100}, {"time": 178320, "pitch": 47, "duration": 920, "velocity": 100}, {"time": 178320, "pitch": 54, "duration": 920, "velocity": 100}, {"time": 178330, "pitch": 59, "duration": 910, "velocity": 100}, {"time": 178330, "pitch": 64, "duration": 910, "velocity": 110}, {"time": 179280, "pitch": 47, "duration": 40, "velocity": 100}, {"time": 179280, "pitch": 54, "duration": 40, "velocity": 100}, {"time": 179280, "pitch": 59, "duration": 40, "velocity": 100}, {"time": 179280, "pitch": 64, "duration": 40, "velocity": 110}, {"time": 179400, "pitch": 59, "duration": 570, "velocity": 100}, {"time": 179400, "pitch": 63, "duration": 570, "velocity": 110}, {"time": 179410, "pitch": 47, "duration": 560, "velocity": 100}, {"time": 179410, "pitch": 54, "duration": 560, "velocity": 100}, {"time": 180000, "pitch": 47, "duration": 100, "velocity": 110}, {"time": 180000, "pitch": 54, "duration": 100, "velocity": 110}, {"time": 180120, "pitch": 45, "duration": 100, "velocity": 110}, {"time": 180120, "pitch": 52, "duration": 100, "velocity": 110}, {"time": 180360, "pitch": 43, "duration": 340, "velocity": 110}, {"time": 180360, "pitch": 50, "duration": 340, "velocity": 110}, {"time": 182280, "pitch": 43, "duration": 340, "velocity": 110}, {"time": 182280, "pitch": 50, "duration": 340, "velocity": 100}, {"time": 184200, "pitch": 45, "duration": 340, "velocity": 110}, {"time": 184200, "pitch": 52, "duration": 340, "velocity": 100}, {"time": 185760, "pitch": 45, "duration": 100, "velocity": 110}, {"time": 185760, "pitch": 52, "duration": 100, "velocity": 100}, {"time": 185880, "pitch": 45, "duration": 100, "velocity": 100}, {"time": 185880, "pitch": 52, "duration": 100, "velocity": 90}, {"time": 186120, "pitch": 42, "duration": 340, "velocity": 110}, {"time": 186120, "pitch": 49, "duration": 340, "velocity": 100}, {"time": 186480, "pitch": 42, "duration": 100, "velocity": 100}, {"time": 186480, "pitch": 49, "duration": 100, "velocity": 110}, {"time": 186600, "pitch": 42, "duration": 100, "velocity": 100}, {"time": 186600, "pitch": 49, "duration": 100, "velocity": 110}, {"time": 186720, "pitch": 40, "duration": 100, "velocity": 100}, {"time": 186720, "pitch": 47, "duration": 100, "velocity": 110}, {"time": 186840, "pitch": 41, "duration": 100, "velocity": 100}, {"time": 186840, "pitch": 48, "duration": 100, "velocity": 110}, {"time": 187080, "pitch": 42, "duration": 100, "velocity": 100}, {"time": 187080, "pitch": 49, "duration": 100, "velocity": 110}, {"time": 218760, "pitch": 43, "duration": 340, "velocity": 110}, {"time": 218760, "pitch": 50, "duration": 340, "velocity": 110}, {"time": 220680, "pitch": 42, "duration": 340, "velocity": 110}, {"time": 220680, "pitch": 49, "duration": 340, "velocity": 100}, {"time": 222600, "pitch": 40, "duration": 340, "velocity": 110}, {"time": 222600, "pitch": 47, "duration": 340, "velocity": 100}, {"time": 224520, "pitch": 42, "duration": 340, "velocity": 110}, {"time": 224520, "pitch": 49, "duration": 340, "velocity": 100}, {"time": 226440, "pitch": 43, "duration": 340, "velocity": 110}, {"time": 226440, "pitch": 50, "duration": 340, "velocity": 100}, {"time": 228360, "pitch": 42, "duration": 340, "velocity": 110}, {"time": 228360, "pitch": 49, "duration": 340, "velocity": 100}, {"time": 230280, "pitch": 40, "duration": 340, "velocity": 110}, {"time": 230280, "pitch": 47, "duration": 340, "velocity": 100}, {"time": 232200, "pitch": 42, "duration": 340, "velocity": 110}, {"time": 232200, "pitch": 49, "duration": 340, "velocity": 100}, {"time": 233160, "pitch": 54, "duration": 340, "velocity": 100}, {"time": 233160, "pitch": 58, "duration": 340, "velocity": 90}, {"time": 233170, "pitch": 42, "duration": 340, "velocity": 100}, {"time": 233170, "pitch": 49, "duration": 340, "velocity": 110}, {"time": 233520, "pitch": 54, "duration": 220, "velocity": 90}, {"time": 233520, "pitch": 58, "duration": 220, "velocity": 80}, {"time": 233530, "pitch": 42, "duration": 220, "velocity": 90}, {"time": 233530, "pitch": 49, "duration": 220, "velocity": 100}, {"time": 233760, "pitch": 54, "duration": 340, "velocity": 100}, {"time": 233760, "pitch": 58, "duration": 340, "velocity": 90}, {"time": 233770, "pitch": 42, "duration": 340, "velocity": 100}, {"time": 233770, "pitch": 49, "duration": 340, "velocity": 110}, {"time": 234120, "pitch": 47, "duration": 340, "velocity": 110}, {"time": 234120, "pitch": 54, "duration": 340, "velocity": 100}, {"time": 236040, "pitch": 47, "duration": 340, "velocity": 110}, {"time": 236040, "pitch": 52, "duration": 340, "velocity": 100}, {"time": 236040, "pitch": 57, "duration": 340, "velocity": 100}, {"time": 237600, "pitch": 41, "duration": 680, "velocity": 110}, {"time": 237600, "pitch": 48, "duration": 680, "velocity": 100}, {"time": 237610, "pitch": 53, "duration": 680, "velocity": 110}, {"time": 238320, "pitch": 41, "duration": 680, "velocity": 110}, {"time": 238320, "pitch": 48, "duration": 680, "velocity": 100}, {"time": 238330, "pitch": 53, "duration": 680, "velocity": 110}, {"time": 239040, "pitch": 47, "duration": 220, "velocity": 110}, {"time": 239040, "pitch": 54, "duration": 220, "velocity": 110}, {"time": 240840, "pitch": 47, "duration": 340, "velocity": 110}, {"time": 240840, "pitch": 52, "duration": 340, "velocity": 100}, {"time": 240840, "pitch": 57, "duration": 340, "velocity": 100}, {"time": 242400, "pitch": 41, "duration": 680, "velocity": 110}, {"time": 242400, "pitch": 48, "duration": 680, "velocity": 100}, {"time": 242410, "pitch": 53, "duration": 680, "velocity": 110}, {"time": 243120, "pitch": 41, "duration": 680, "velocity": 110}, {"time": 243120, "pitch": 48, "duration": 680, "velocity": 100}, {"time": 243130, "pitch": 53, "duration": 680, "velocity": 110}, {"time": 243840, "pitch": 41, "duration": 680, "velocity": 110}, {"time": 243840, "pitch": 48, "duration": 680, "velocity": 100}, {"time": 243850, "pitch": 53, "duration": 680, "velocity": 110}, {"time": 244560, "pitch": 47, "duration": 220, "velocity": 110}, {"time": 244560, "pitch": 54, "duration": 220, "velocity": 110}, {"time": 246360, "pitch": 47, "duration": 340, "velocity": 110}, {"time": 246360, "pitch": 52, "duration": 340, "velocity": 100}, {"time": 246360, "pitch": 57, "duration": 340, "velocity": 100}, {"time": 247920, "pitch": 41, "duration": 680, "velocity": 110}, {"time": 247920, "pitch": 48, "duration": 680, "velocity": 100}, {"time": 247930, "pitch": 53, "duration": 680, "velocity": 110}, {"time": 248640, "pitch": 41, "duration": 680, "velocity": 110}, {"time": 248640, "pitch": 48, "duration": 680, "velocity": 100}, {"time": 248650, "pitch": 53, "duration": 680, "velocity": 110}, {"time": 249360, "pitch": 41, "duration": 680, "velocity": 110}, {"time": 249360, "pitch": 48, "duration": 680, "velocity": 100}, {"time": 249370, "pitch": 53, "duration": 680, "velocity": 110}, {"time": 250080, "pitch": 41, "duration": 680, "velocity": 110}, {"time": 250080, "pitch": 48, "duration": 680, "velocity": 100}, {"time": 250090, "pitch": 53, "duration": 680, "velocity": 110}, {"time": 250800, "pitch": 41, "duration": 680, "velocity": 110}, {"time": 250800, "pitch": 48, "duration": 680, "velocity": 100}, {"time": 250810, "pitch": 53, "duration": 680, "velocity": 110}, {"time": 251520, "pitch": 41, "duration": 680, "velocity": 110}, {"time": 251520, "pitch": 48, "duration": 680, "velocity": 100}, {"time": 251530, "pitch": 53, "duration": 680, "velocity": 110}, {"time": 252240, "pitch": 41, "duration": 1420, "velocity": 110}, {"time": 252240, "pitch": 48, "duration": 1420, "velocity": 100}, {"time": 252250, "pitch": 53, "duration": 1420, "velocity": 110}, {"time": 253680, "pitch": 42, "duration": 1420, "velocity": 110}, {"time": 253680, "pitch": 49, "duration": 1420, "velocity": 100}, {"time": 253690, "pitch": 54, "duration": 1420, "velocity": 110}, {"time": 255120, "pitch": 47, "duration": 5770, "velocity": 110}, {"time": 255120, "pitch": 54, "duration": 5770, "velocity": 100}, {"time": 255130, "pitch": 59, "duration": 1440, "velocity": 110}, {"time": 256570, "pitch": 59, "duration": 1440, "velocity": 110}, {"time": 258010, "pitch": 59, "duration": 1440, "velocity": 110}, {"time": 259450, "pitch": 59, "duration": 1450, "velocity": 110}, {"time": 27120, "pitch": 47, "duration": 100, "velocity": 100}, {"time": 27120, "pitch": 54, "duration": 100, "velocity": 90}, {"time": 27240, "pitch": 47, "duration": 100, "velocity": 100}, {"time": 27240, "pitch": 54, "duration": 100, "velocity": 90}, {"time": 27360, "pitch": 47, "duration": 100, "velocity": 110}, {"time": 27360, "pitch": 54, "duration": 100, "velocity": 100}, {"time": 27480, "pitch": 47, "duration": 100, "velocity": 100}, {"time": 27480, "pitch": 54, "duration": 100, "velocity": 90}, {"time": 27600, "pitch": 47, "duration": 100, "velocity": 100}, {"time": 27600, "pitch": 54, "duration": 100, "velocity": 90}, {"time": 27720, "pitch": 47, "duration": 100, "velocity": 100}, {"time": 27720, "pitch": 54, "duration": 100, "velocity": 90}, {"time": 27840, "pitch": 47, "duration": 100, "velocity": 110}, {"time": 27840, "pitch": 54, "duration": 100, "velocity": 100}, {"time": 27960, "pitch": 47, "duration": 100, "velocity": 100}, {"time": 27960, "pitch": 54, "duration": 100, "velocity": 90}, {"time": 28080, "pitch": 47, "duration": 100, "velocity": 100}, {"time": 28080, "pitch": 54, "duration": 100, "velocity": 90}, {"time": 28200, "pitch": 47, "duration": 100, "velocity": 100}, {"time": 28200, "pitch": 54, "duration": 100, "velocity": 90}, {"time": 28320, "pitch": 47, "duration": 100, "velocity": 110}, {"time": 28320, "pitch": 54, "duration": 100, "velocity": 100}, {"time": 28440, "pitch": 47, "duration": 100, "velocity": 100}, {"time": 28440, "pitch": 54, "duration": 100, "velocity": 90}, {"time": 28560, "pitch": 47, "duration": 100, "velocity": 100}, {"time": 28560, "pitch": 54, "duration": 100, "velocity": 90}, {"time": 29040, "pitch": 47, "duration": 100, "velocity": 100}, {"time": 29040, "pitch": 54, "duration": 100, "velocity": 90}, {"time": 29160, "pitch": 47, "duration": 100, "velocity": 100}, {"time": 29160, "pitch": 54, "duration": 100, "velocity": 90}, {"time": 29280, "pitch": 47, "duration": 100, "velocity": 110}, {"time": 29280, "pitch": 54, "duration": 100, "velocity": 100}, {"time": 29400, "pitch": 47, "duration": 100, "velocity": 100}, {"time": 29400, "pitch": 54, "duration": 100, "velocity": 90}, {"time": 29520, "pitch": 47, "duration": 100, "velocity": 100}, {"time": 29520, "pitch": 54, "duration": 100, "velocity": 90}, {"time": 29640, "pitch": 47, "duration": 100, "velocity": 100}, {"time": 29640, "pitch": 54, "duration": 100, "velocity": 90}, {"time": 29760, "pitch": 47, "duration": 100, "velocity": 110}, {"time": 29760, "pitch": 54, "duration": 100, "velocity": 100}, {"time": 29880, "pitch": 47, "duration": 100, "velocity": 100}, {"time": 29880, "pitch": 54, "duration": 100, "velocity": 90}, {"time": 30960, "pitch": 47, "duration": 100, "velocity": 100}, {"time": 30960, "pitch": 54, "duration": 100, "velocity": 90}, {"time": 31080, "pitch": 47, "duration": 100, "velocity": 100}, {"time": 31080, "pitch": 54, "duration": 100, "velocity": 90}, {"time": 31200, "pitch": 47, "duration": 100, "velocity": 110}, {"time": 31200, "pitch": 54, "duration": 100, "velocity": 100}, {"time": 31320, "pitch": 47, "duration": 100, "velocity": 100}, {"time": 31320, "pitch": 54, "duration": 100, "velocity": 90}, {"time": 31440, "pitch": 47, "duration": 100, "velocity": 100}, {"time": 31440, "pitch": 54, "duration": 100, "velocity": 90}, {"time": 31560, "pitch": 47, "duration": 100, "velocity": 100}, {"time": 31560, "pitch": 54, "duration": 100, "velocity": 90}, {"time": 31680, "pitch": 47, "duration": 100, "velocity": 110}, {"time": 31680, "pitch": 54, "duration": 100, "velocity": 100}, {"time": 31800, "pitch": 47, "duration": 100, "velocity": 100}, {"time": 31800, "pitch": 54, "duration": 100, "velocity": 90}, {"time": 31920, "pitch": 47, "duration": 100, "velocity": 100}, {"time": 31920, "pitch": 54, "duration": 100, "velocity": 90}, {"time": 32040, "pitch": 47, "duration": 100, "velocity": 100}, {"time": 32040, "pitch": 54, "duration": 100, "velocity": 90}, {"time": 32160, "pitch": 47, "duration": 100, "velocity": 110}, {"time": 32160, "pitch": 54, "duration": 100, "velocity": 100}, {"time": 32280, "pitch": 47, "duration": 100, "velocity": 100}, {"time": 32280, "pitch": 54, "duration": 100, "velocity": 90}, {"time": 32400, "pitch": 47, "duration": 100, "velocity": 100}, {"time": 32400, "pitch": 54, "duration": 100, "velocity": 90}, {"time": 32880, "pitch": 47, "duration": 100, "velocity": 100}, {"time": 32880, "pitch": 54, "duration": 100, "velocity": 90}, {"time": 33000, "pitch": 47, "duration": 100, "velocity": 100}, {"time": 33000, "pitch": 54, "duration": 100, "velocity": 90}, {"time": 33120, "pitch": 47, "duration": 100, "velocity": 110}, {"time": 33120, "pitch": 54, "duration": 100, "velocity": 100}, {"time": 33240, "pitch": 47, "duration": 100, "velocity": 100}, {"time": 33240, "pitch": 54, "duration": 100, "velocity": 90}, {"time": 33360, "pitch": 47, "duration": 100, "velocity": 100}, {"time": 33360, "pitch": 54, "duration": 100, "velocity": 90}, {"time": 33480, "pitch": 47, "duration": 100, "velocity": 100}, {"time": 33480, "pitch": 54, "duration": 100, "velocity": 90}, {"time": 33600, "pitch": 47, "duration": 100, "velocity": 110}, {"time": 33600, "pitch": 54, "duration": 100, "velocity": 100}, {"time": 33720, "pitch": 47, "duration": 100, "velocity": 100}, {"time": 33720, "pitch": 54, "duration": 100, "velocity": 90}, {"time": 34800, "pitch": 47, "duration": 100, "velocity": 100}, {"time": 34800, "pitch": 54, "duration": 100, "velocity": 90}, {"time": 34920, "pitch": 47, "duration": 100, "velocity": 100}, {"time": 34920, "pitch": 54, "duration": 100, "velocity": 90}, {"time": 35040, "pitch": 47, "duration": 100, "velocity": 110}, {"time": 35040, "pitch": 54, "duration": 100, "velocity": 100}, {"time": 35160, "pitch": 47, "duration": 100, "velocity": 100}, {"time": 35160, "pitch": 54, "duration": 100, "velocity": 90}, {"time": 35280, "pitch": 47, "duration": 100, "velocity": 100}, {"time": 35280, "pitch": 54, "duration": 100, "velocity": 90}, {"time": 35400, "pitch": 47, "duration": 100, "velocity": 100}, {"time": 35400, "pitch": 54, "duration": 100, "velocity": 90}, {"time": 35520, "pitch": 47, "duration": 100, "velocity": 110}, {"time": 35520, "pitch": 54, "duration": 100, "velocity": 100}, {"time": 35640, "pitch": 47, "duration": 100, "velocity": 100}, {"time": 35640, "pitch": 54, "duration": 100, "velocity": 90}, {"time": 35760, "pitch": 47, "duration": 100, "velocity": 100}, {"time": 35760, "pitch": 54, "duration": 100, "velocity": 90}, {"time": 35880, "pitch": 47, "duration": 100, "velocity": 100}, {"time": 35880, "pitch": 54, "duration": 100, "velocity": 90}, {"time": 36000, "pitch": 47, "duration": 100, "velocity": 110}, {"time": 36000, "pitch": 54, "duration": 100, "velocity": 100}, {"time": 36120, "pitch": 47, "duration": 100, "velocity": 100}, {"time": 36120, "pitch": 54, "duration": 100, "velocity": 90}, {"time": 36240, "pitch": 47, "duration": 100, "velocity": 100}, {"time": 36240, "pitch": 54, "duration": 100, "velocity": 90}, {"time": 36720, "pitch": 47, "duration": 100, "velocity": 100}, {"time": 36720, "pitch": 54, "duration": 100, "velocity": 90}, {"time": 36840, "pitch": 47, "duration": 100, "velocity": 100}, {"time": 36840, "pitch": 54, "duration": 100, "velocity": 90}, {"time": 36960, "pitch": 47, "duration": 100, "velocity": 110}, {"time": 36960, "pitch": 54, "duration": 100, "velocity": 100}, {"time": 37080, "pitch": 47, "duration": 100, "velocity": 100}, {"time": 37080, "pitch": 54, "duration": 100, "velocity": 90}, {"time": 37200, "pitch": 47, "duration": 100, "velocity": 100}, {"time": 37200, "pitch": 54, "duration": 100, "velocity": 90}, {"time": 37320, "pitch": 47, "duration": 100, "velocity": 100}, {"time": 37320, "pitch": 54, "duration": 100, "velocity": 90}, {"time": 37440, "pitch": 47, "duration": 100, "velocity": 110}, {"time": 37440, "pitch": 54, "duration": 100, "velocity": 100}, {"time": 37560, "pitch": 47, "duration": 100, "velocity": 100}, {"time": 37560, "pitch": 54, "duration": 100, "velocity": 90}, {"time": 38640, "pitch": 47, "duration": 100, "velocity": 100}, {"time": 38640, "pitch": 54, "duration": 100, "velocity": 90}, {"time": 38760, "pitch": 47, "duration": 100, "velocity": 100}, {"time": 38760, "pitch": 54, "duration": 100, "velocity": 90}, {"time": 38880, "pitch": 47, "duration": 100, "velocity": 110}, {"time": 38880, "pitch": 54, "duration": 100, "velocity": 100}, {"time": 39000, "pitch": 47, "duration": 100, "velocity": 100}, {"time": 39000, "pitch": 54, "duration": 100, "velocity": 90}, {"time": 39120, "pitch": 47, "duration": 100, "velocity": 100}, {"time": 39120, "pitch": 54, "duration": 100, "velocity": 90}, {"time": 39240, "pitch": 47, "duration": 100, "velocity": 100}, {"time": 39240, "pitch": 54, "duration": 100, "velocity": 90}, {"time": 39360, "pitch": 47, "duration": 100, "velocity": 110}, {"time": 39360, "pitch": 54, "duration": 100, "velocity": 100}, {"time": 39480, "pitch": 47, "duration": 100, "velocity": 100}, {"time": 39480, "pitch": 54, "duration": 100, "velocity": 90}, {"time": 39600, "pitch": 47, "duration": 100, "velocity": 100}, {"time": 39600, "pitch": 54, "duration": 100, "velocity": 90}, {"time": 39720, "pitch": 47, "duration": 100, "velocity": 100}, {"time": 39720, "pitch": 54, "duration": 100, "velocity": 90}, {"time": 39840, "pitch": 47, "duration": 100, "velocity": 110}, {"time": 39840, "pitch": 54, "duration": 100, "velocity": 100}, {"time": 39960, "pitch": 47, "duration": 100, "velocity": 100}, {"time": 39960, "pitch": 54, "duration": 100, "velocity": 90}, {"time": 40080, "pitch": 47, "duration": 100, "velocity": 100}, {"time": 40080, "pitch": 54, "duration": 100, "velocity": 90}, {"time": 40560, "pitch": 47, "duration": 100, "velocity": 100}, {"time": 40560, "pitch": 54, "duration": 100, "velocity": 90}, {"time": 40680, "pitch": 47, "duration": 100, "velocity": 100}, {"time": 40680, "pitch": 54, "duration": 100, "velocity": 90}, {"time": 40800, "pitch": 47, "duration": 100, "velocity": 110}, {"time": 40800, "pitch": 54, "duration": 100, "velocity": 100}, {"time": 40920, "pitch": 47, "duration": 100, "velocity": 100}, {"time": 40920, "pitch": 54, "duration": 100, "velocity": 90}, {"time": 41040, "pitch": 47, "duration": 100, "velocity": 100}, {"time": 41040, "pitch": 54, "duration": 100, "velocity": 90}, {"time": 41160, "pitch": 47, "duration": 100, "velocity": 100}, {"time": 41160, "pitch": 54, "duration": 100, "velocity": 90}, {"time": 41280, "pitch": 47, "duration": 100, "velocity": 110}, {"time": 41280, "pitch": 54, "duration": 100, "velocity": 100}, {"time": 41400, "pitch": 47, "duration": 100, "velocity": 100}, {"time": 41400, "pitch": 54, "duration": 100, "velocity": 90}, {"time": 41520, "pitch": 47, "duration": 100, "velocity": 100}, {"time": 41520, "pitch": 54, "duration": 100, "velocity": 90}, {"time": 41640, "pitch": 47, "duration": 100, "velocity": 100}, {"time": 41640, "pitch": 54, "duration": 100, "velocity": 90}, {"time": 48240, "pitch": 47, "duration": 100, "velocity": 100}, {"time": 48240, "pitch": 54, "duration": 100, "velocity": 90}, {"time": 48360, "pitch": 47, "duration": 100, "velocity": 100}, {"time": 48360, "pitch": 54, "duration": 100, "velocity": 90}, {"time": 48480, "pitch": 47, "duration": 100, "velocity": 110}, {"time": 48480, "pitch": 54, "duration": 100, "velocity": 100}, {"time": 48600, "pitch": 47, "duration": 100, "velocity": 100}, {"time": 48600, "pitch": 54, "duration": 100, "velocity": 90}, {"time": 48720, "pitch": 47, "duration": 100, "velocity": 100}, {"time": 48720, "pitch": 54, "duration": 100, "velocity": 90}, {"time": 48840, "pitch": 47, "duration": 100, "velocity": 100}, {"time": 48840, "pitch": 54, "duration": 100, "velocity": 90}, {"time": 48960, "pitch": 47, "duration": 100, "velocity": 110}, {"time": 48960, "pitch": 54, "duration": 100, "velocity": 100}, {"time": 49080, "pitch": 47, "duration": 100, "velocity": 100}, {"time": 49080, "pitch": 54, "duration": 100, "velocity": 90}, {"time": 49200, "pitch": 47, "duration": 100, "velocity": 100}, {"time": 49200, "pitch": 54, "duration": 100, "velocity": 90}, {"time": 49320, "pitch": 47, "duration": 100, "velocity": 100}, {"time": 49320, "pitch": 54, "duration": 100, "velocity": 90}, {"time": 49440, "pitch": 47, "duration": 100, "velocity": 110}, {"time": 49440, "pitch": 54, "duration": 100, "velocity": 100}, {"time": 49560, "pitch": 47, "duration": 100, "velocity": 100}, {"time": 49560, "pitch": 54, "duration": 100, "velocity": 90}, {"time": 49680, "pitch": 47, "duration": 100, "velocity": 100}, {"time": 49680, "pitch": 54, "duration": 100, "velocity": 90}, {"time": 50160, "pitch": 45, "duration": 100, "velocity": 100}, {"time": 50160, "pitch": 52, "duration": 100, "velocity": 90}, {"time": 50280, "pitch": 45, "duration": 100, "velocity": 100}, {"time": 50280, "pitch": 52, "duration": 100, "velocity": 90}, {"time": 50400, "pitch": 45, "duration": 100, "velocity": 110}, {"time": 50400, "pitch": 52, "duration": 100, "velocity": 100}, {"time": 50520, "pitch": 45, "duration": 100, "velocity": 100}, {"time": 50520, "pitch": 52, "duration": 100, "velocity": 90}, {"time": 50640, "pitch": 45, "duration": 100, "velocity": 100}, {"time": 50640, "pitch": 52, "duration": 100, "velocity": 90}, {"time": 50760, "pitch": 45, "duration": 100, "velocity": 100}, {"time": 50760, "pitch": 52, "duration": 100, "velocity": 90}, {"time": 52080, "pitch": 43, "duration": 100, "velocity": 100}, {"time": 52080, "pitch": 50, "duration": 100, "velocity": 90}, {"time": 52200, "pitch": 43, "duration": 100, "velocity": 100}, {"time": 52200, "pitch": 50, "duration": 100, "velocity": 90}, {"time": 52320, "pitch": 43, "duration": 100, "velocity": 110}, {"time": 52320, "pitch": 50, "duration": 100, "velocity": 100}, {"time": 52440, "pitch": 43, "duration": 100, "velocity": 100}, {"time": 52440, "pitch": 50, "duration": 100, "velocity": 90}, {"time": 52560, "pitch": 43, "duration": 100, "velocity": 100}, {"time": 52560, "pitch": 50, "duration": 100, "velocity": 90}, {"time": 52680, "pitch": 43, "duration": 100, "velocity": 100}, {"time": 52680, "pitch": 50, "duration": 100, "velocity": 90}, {"time": 52800, "pitch": 43, "duration": 100, "velocity": 110}, {"time": 52800, "pitch": 50, "duration": 100, "velocity": 100}, {"time": 52920, "pitch": 43, "duration": 100, "velocity": 100}, {"time": 52920, "pitch": 50, "duration": 100, "velocity": 90}, {"time": 53040, "pitch": 43, "duration": 100, "velocity": 100}, {"time": 53040, "pitch": 50, "duration": 100, "velocity": 90}, {"time": 53160, "pitch": 43, "duration": 100, "velocity": 100}, {"time": 53160, "pitch": 50, "duration": 100, "velocity": 90}, {"time": 53280, "pitch": 43, "duration": 100, "velocity": 110}, {"time": 53280, "pitch": 50, "duration": 100, "velocity": 100}, {"time": 53400, "pitch": 43, "duration": 100, "velocity": 100}, {"time": 53400, "pitch": 50, "duration": 100, "velocity": 90}, {"time": 53520, "pitch": 43, "duration": 100, "velocity": 100}, {"time": 53520, "pitch": 50, "duration": 100, "velocity": 90}, {"time": 54000, "pitch": 45, "duration": 100, "velocity": 100}, {"time": 54000, "pitch": 52, "duration": 100, "velocity": 90}, {"time": 54120, "pitch": 45, "duration": 100, "velocity": 100}, {"time": 54120, "pitch": 52, "duration": 100, "velocity": 90}, {"time": 54240, "pitch": 45, "duration": 100, "velocity": 110}, {"time": 54240, "pitch": 52, "duration": 100, "velocity": 100}, {"time": 54360, "pitch": 45, "duration": 100, "velocity": 100}, {"time": 54360, "pitch": 52, "duration": 100, "velocity": 90}, {"time": 54480, "pitch": 45, "duration": 100, "velocity": 100}, {"time": 54480, "pitch": 52, "duration": 100, "velocity": 90}, {"time": 54600, "pitch": 45, "duration": 100, "velocity": 100}, {"time": 54600, "pitch": 52, "duration": 100, "velocity": 90}, {"time": 55920, "pitch": 47, "duration": 100, "velocity": 100}, {"time": 55920, "pitch": 54, "duration": 100, "velocity": 90}, {"time": 56040, "pitch": 47, "duration": 100, "velocity": 100}, {"time": 56040, "pitch": 54, "duration": 100, "velocity": 90}, {"time": 56160, "pitch": 47, "duration": 100, "velocity": 110}, {"time": 56160, "pitch": 54, "duration": 100, "velocity": 100}, {"time": 56280, "pitch": 47, "duration": 100, "velocity": 100}, {"time": 56280, "pitch": 54, "duration": 100, "velocity": 90}, {"time": 56400, "pitch": 47, "duration": 100, "velocity": 100}, {"time": 56400, "pitch": 54, "duration": 100, "velocity": 90}, {"time": 56520, "pitch": 47, "duration": 100, "velocity": 100}, {"time": 56520, "pitch": 54, "duration": 100, "velocity": 90}, {"time": 56640, "pitch": 47, "duration": 100, "velocity": 110}, {"time": 56640, "pitch": 54, "duration": 100, "velocity": 100}, {"time": 56760, "pitch": 47, "duration": 100, "velocity": 100}, {"time": 56760, "pitch": 54, "duration": 100, "velocity": 90}, {"time": 56880, "pitch": 47, "duration": 100, "velocity": 100}, {"time": 56880, "pitch": 54, "duration": 100, "velocity": 90}, {"time": 57000, "pitch": 47, "duration": 100, "velocity": 100}, {"time": 57000, "pitch": 54, "duration": 100, "velocity": 90}, {"time": 57120, "pitch": 47, "duration": 100, "velocity": 110}, {"time": 57120, "pitch": 54, "duration": 100, "velocity": 100}, {"time": 57240, "pitch": 47, "duration": 100, "velocity": 100}, {"time": 57240, "pitch": 54, "duration": 100, "velocity": 90}, {"time": 57360, "pitch": 47, "duration": 100, "velocity": 100}, {"time": 57360, "pitch": 54, "duration": 100, "velocity": 90}, {"time": 57840, "pitch": 45, "duration": 100, "velocity": 100}, {"time": 57840, "pitch": 52, "duration": 100, "velocity": 90}, {"time": 57960, "pitch": 45, "duration": 100, "velocity": 100}, {"time": 57960, "pitch": 52, "duration": 100, "velocity": 90}, {"time": 58080, "pitch": 45, "duration": 100, "velocity": 110}, {"time": 58080, "pitch": 52, "duration": 100, "velocity": 100}, {"time": 58200, "pitch": 45, "duration": 100, "velocity": 100}, {"time": 58200, "pitch": 52, "duration": 100, "velocity": 90}, {"time": 58320, "pitch": 45, "duration": 100, "velocity": 100}, {"time": 58320, "pitch": 52, "duration": 100, "velocity": 90}, {"time": 58440, "pitch": 45, "duration": 100, "velocity": 100}, {"time": 58440, "pitch": 52, "duration": 100, "velocity": 90}, {"time": 59760, "pitch": 43, "duration": 100, "velocity": 100}, {"time": 59760, "pitch": 50, "duration": 100, "velocity": 90}, {"time": 59880, "pitch": 43, "duration": 100, "velocity": 100}, {"time": 59880, "pitch": 50, "duration": 100, "velocity": 90}, {"time": 60000, "pitch": 43, "duration": 100, "velocity": 110}, {"time": 60000, "pitch": 50, "duration": 100, "velocity": 100}, {"time": 60120, "pitch": 43, "duration": 100, "velocity": 100}, {"time": 60120, "pitch": 50, "duration": 100, "velocity": 90}, {"time": 60240, "pitch": 43, "duration": 100, "velocity": 100}, {"time": 60240, "pitch": 50, "duration": 100, "velocity": 90}, {"time": 60360, "pitch": 43, "duration": 100, "velocity": 100}, {"time": 60360, "pitch": 50, "duration": 100, "velocity": 90}, {"time": 60480, "pitch": 43, "duration": 100, "velocity": 110}, {"time": 60480, "pitch": 50, "duration": 100, "velocity": 100}, {"time": 60600, "pitch": 43, "duration": 100, "velocity": 100}, {"time": 60600, "pitch": 50, "duration": 100, "velocity": 90}, {"time": 60720, "pitch": 43, "duration": 100, "velocity": 100}, {"time": 60720, "pitch": 50, "duration": 100, "velocity": 90}, {"time": 60840, "pitch": 43, "duration": 100, "velocity": 100}, {"time": 60840, "pitch": 50, "duration": 100, "velocity": 90}, {"time": 60960, "pitch": 43, "duration": 100, "velocity": 110}, {"time": 60960, "pitch": 50, "duration": 100, "velocity": 100}, {"time": 61080, "pitch": 43, "duration": 100, "velocity": 100}, {"time": 61080, "pitch": 50, "duration": 100, "velocity": 90}, {"time": 61200, "pitch": 43, "duration": 100, "velocity": 100}, {"time": 61200, "pitch": 50, "duration": 100, "velocity": 90}, {"time": 61680, "pitch": 45, "duration": 100, "velocity": 100}, {"time": 61680, "pitch": 52, "duration": 100, "velocity": 90}, {"time": 61800, "pitch": 45, "duration": 100, "velocity": 100}, {"time": 61800, "pitch": 52, "duration": 100, "velocity": 90}, {"time": 61920, "pitch": 45, "duration": 100, "velocity": 110}, {"time": 61920, "pitch": 52, "duration": 100, "velocity": 100}, {"time": 62040, "pitch": 45, "duration": 100, "velocity": 100}, {"time": 62040, "pitch": 52, "duration": 100, "velocity": 90}, {"time": 62160, "pitch": 45, "duration": 100, "velocity": 100}, {"time": 62160, "pitch": 52, "duration": 100, "velocity": 90}, {"time": 62280, "pitch": 45, "duration": 100, "velocity": 100}, {"time": 62280, "pitch": 52, "duration": 100, "velocity": 90}, {"time": 62400, "pitch": 45, "duration": 100, "velocity": 110}, {"time": 62400, "pitch": 52, "duration": 100, "velocity": 100}, {"time": 62520, "pitch": 45, "duration": 100, "velocity": 100}, {"time": 62520, "pitch": 52, "duration": 100, "velocity": 90}, {"time": 62640, "pitch": 45, "duration": 100, "velocity": 100}, {"time": 62640, "pitch": 52, "duration": 100, "velocity": 90}, {"time": 62760, "pitch": 45, "duration": 100, "velocity": 100}, {"time": 62760, "pitch": 52, "duration": 100, "velocity": 90}, {"time": 65520, "pitch": 43, "duration": 100, "velocity": 100}, {"time": 65520, "pitch": 50, "duration": 100, "velocity": 90}, {"time": 65640, "pitch": 43, "duration": 100, "velocity": 100}, {"time": 65640, "pitch": 50, "duration": 100, "velocity": 90}, {"time": 65760, "pitch": 43, "duration": 100, "velocity": 110}, {"time": 65760, "pitch": 50, "duration": 100, "velocity": 100}, {"time": 65880, "pitch": 43, "duration": 100, "velocity": 100}, {"time": 65880, "pitch": 50, "duration": 100, "velocity": 90}, {"time": 66000, "pitch": 43, "duration": 100, "velocity": 100}, {"time": 66000, "pitch": 50, "duration": 100, "velocity": 90}, {"time": 66120, "pitch": 43, "duration": 100, "velocity": 100}, {"time": 66120, "pitch": 50, "duration": 100, "velocity": 90}, {"time": 66240, "pitch": 43, "duration": 100, "velocity": 110}, {"time": 66240, "pitch": 50, "duration": 100, "velocity": 100}, {"time": 66360, "pitch": 43, "duration": 100, "velocity": 100}, {"time": 66360, "pitch": 50, "duration": 100, "velocity": 90}, {"time": 66480, "pitch": 43, "duration": 100, "velocity": 100}, {"time": 66480, "pitch": 50, "duration": 100, "velocity": 90}, {"time": 66600, "pitch": 43, "duration": 100, "velocity": 100}, {"time": 66600, "pitch": 50, "duration": 100, "velocity": 90}, {"time": 66720, "pitch": 43, "duration": 100, "velocity": 110}, {"time": 66720, "pitch": 50, "duration": 100, "velocity": 100}, {"time": 66840, "pitch": 43, "duration": 100, "velocity": 100}, {"time": 66840, "pitch": 50, "duration": 100, "velocity": 90}, {"time": 66960, "pitch": 43, "duration": 100, "velocity": 100}, {"time": 66960, "pitch": 50, "duration": 100, "velocity": 90}, {"time": 67440, "pitch": 45, "duration": 100, "velocity": 100}, {"time": 67440, "pitch": 52, "duration": 100, "velocity": 90}, {"time": 67560, "pitch": 45, "duration": 100, "velocity": 100}, {"time": 67560, "pitch": 52, "duration": 100, "velocity": 90}, {"time": 67680, "pitch": 45, "duration": 100, "velocity": 110}, {"time": 67680, "pitch": 52, "duration": 100, "velocity": 100}, {"time": 67800, "pitch": 45, "duration": 100, "velocity": 100}, {"time": 67800, "pitch": 52, "duration": 100, "velocity": 90}, {"time": 67920, "pitch": 45, "duration": 100, "velocity": 100}, {"time": 67920, "pitch": 52, "duration": 100, "velocity": 90}, {"time": 68040, "pitch": 45, "duration": 100, "velocity": 100}, {"time": 68040, "pitch": 52, "duration": 100, "velocity": 90}, {"time": 68160, "pitch": 45, "duration": 100, "velocity": 110}, {"time": 68160, "pitch": 52, "duration": 100, "velocity": 100}, {"time": 68280, "pitch": 45, "duration": 100, "velocity": 100}, {"time": 68280, "pitch": 52, "duration": 100, "velocity": 90}, {"time": 68400, "pitch": 45, "duration": 100, "velocity": 100}, {"time": 68400, "pitch": 52, "duration": 100, "velocity": 90}, {"time": 68520, "pitch": 45, "duration": 100, "velocity": 100}, {"time": 68520, "pitch": 52, "duration": 100, "velocity": 90}, {"time": 68640, "pitch": 45, "duration": 100, "velocity": 110}, {"time": 68640, "pitch": 52, "duration": 100, "velocity": 100}, {"time": 68760, "pitch": 45, "duration": 100, "velocity": 100}, {"time": 68760, "pitch": 52, "duration": 100, "velocity": 90}, {"time": 71280, "pitch": 43, "duration": 100, "velocity": 100}, {"time": 71280, "pitch": 50, "duration": 100, "velocity": 90}, {"time": 71400, "pitch": 43, "duration": 100, "velocity": 100}, {"time": 71400, "pitch": 50, "duration": 100, "velocity": 90}, {"time": 71520, "pitch": 43, "duration": 100, "velocity": 110}, {"time": 71520, "pitch": 50, "duration": 100, "velocity": 100}, {"time": 71640, "pitch": 43, "duration": 100, "velocity": 100}, {"time": 71640, "pitch": 50, "duration": 100, "velocity": 90}, {"time": 71760, "pitch": 43, "duration": 100, "velocity": 100}, {"time": 71760, "pitch": 50, "duration": 100, "velocity": 90}, {"time": 71880, "pitch": 43, "duration": 100, "velocity": 100}, {"time": 71880, "pitch": 50, "duration": 100, "velocity": 90}, {"time": 72000, "pitch": 43, "duration": 100, "velocity": 110}, {"time": 72000, "pitch": 50, "duration": 100, "velocity": 100}, {"time": 72120, "pitch": 43, "duration": 100, "velocity": 100}, {"time": 72120, "pitch": 50, "duration": 100, "velocity": 90}, {"time": 72240, "pitch": 43, "duration": 100, "velocity": 100}, {"time": 72240, "pitch": 50, "duration": 100, "velocity": 90}, {"time": 72360, "pitch": 43, "duration": 100, "velocity": 100}, {"time": 72360, "pitch": 50, "duration": 100, "velocity": 90}, {"time": 72480, "pitch": 43, "duration": 100, "velocity": 110}, {"time": 72480, "pitch": 50, "duration": 100, "velocity": 100}, {"time": 72600, "pitch": 43, "duration": 100, "velocity": 100}, {"time": 72600, "pitch": 50, "duration": 100, "velocity": 90}, {"time": 72720, "pitch": 43, "duration": 100, "velocity": 100}, {"time": 72720, "pitch": 50, "duration": 100, "velocity": 90}, {"time": 73200, "pitch": 43, "duration": 100, "velocity": 100}, {"time": 73200, "pitch": 50, "duration": 100, "velocity": 90}, {"time": 73320, "pitch": 43, "duration": 100, "velocity": 100}, {"time": 73320, "pitch": 50, "duration": 100, "velocity": 90}, {"time": 73440, "pitch": 43, "duration": 100, "velocity": 110}, {"time": 73440, "pitch": 50, "duration": 100, "velocity": 100}, {"time": 73560, "pitch": 43, "duration": 100, "velocity": 100}, {"time": 73560, "pitch": 50, "duration": 100, "velocity": 90}, {"time": 73680, "pitch": 43, "duration": 100, "velocity": 100}, {"time": 73680, "pitch": 50, "duration": 100, "velocity": 90}, {"time": 73800, "pitch": 43, "duration": 100, "velocity": 100}, {"time": 73800, "pitch": 50, "duration": 100, "velocity": 90}, {"time": 73920, "pitch": 43, "duration": 100, "velocity": 110}, {"time": 73920, "pitch": 50, "duration": 100, "velocity": 100}, {"time": 74040, "pitch": 43, "duration": 100, "velocity": 100}, {"time": 74040, "pitch": 50, "duration": 100, "velocity": 90}, {"time": 74160, "pitch": 43, "duration": 100, "velocity": 100}, {"time": 74160, "pitch": 50, "duration": 100, "velocity": 90}, {"time": 74280, "pitch": 43, "duration": 100, "velocity": 100}, {"time": 74280, "pitch": 50, "duration": 100, "velocity": 90}, {"time": 74400, "pitch": 43, "duration": 100, "velocity": 110}, {"time": 74400, "pitch": 50, "duration": 100, "velocity": 100}, {"time": 74520, "pitch": 43, "duration": 100, "velocity": 100}, {"time": 74520, "pitch": 50, "duration": 100, "velocity": 90}, {"time": 74640, "pitch": 43, "duration": 100, "velocity": 100}, {"time": 74640, "pitch": 50, "duration": 100, "velocity": 90}, {"time": 75120, "pitch": 45, "duration": 100, "velocity": 100}, {"time": 75120, "pitch": 52, "duration": 100, "velocity": 90}, {"time": 75240, "pitch": 45, "duration": 100, "velocity": 100}, {"time": 75240, "pitch": 52, "duration": 100, "velocity": 90}, {"time": 75360, "pitch": 45, "duration": 100, "velocity": 110}, {"time": 75360, "pitch": 52, "duration": 100, "velocity": 100}, {"time": 75480, "pitch": 45, "duration": 100, "velocity": 100}, {"time": 75480, "pitch": 52, "duration": 100, "velocity": 90}, {"time": 75600, "pitch": 45, "duration": 100, "velocity": 100}, {"time": 75600, "pitch": 52, "duration": 100, "velocity": 90}, {"time": 75720, "pitch": 45, "duration": 100, "velocity": 100}, {"time": 75720, "pitch": 52, "duration": 100, "velocity": 90}, {"time": 75840, "pitch": 45, "duration": 100, "velocity": 110}, {"time": 75840, "pitch": 52, "duration": 100, "velocity": 100}, {"time": 75960, "pitch": 45, "duration": 100, "velocity": 100}, {"time": 75960, "pitch": 52, "duration": 100, "velocity": 90}, {"time": 76080, "pitch": 45, "duration": 100, "velocity": 100}, {"time": 76080, "pitch": 52, "duration": 100, "velocity": 90}, {"time": 76200, "pitch": 45, "duration": 100, "velocity": 100}, {"time": 76200, "pitch": 52, "duration": 100, "velocity": 90}, {"time": 78960, "pitch": 47, "duration": 100, "velocity": 100}, {"time": 78960, "pitch": 54, "duration": 100, "velocity": 90}, {"time": 79080, "pitch": 47, "duration": 100, "velocity": 100}, {"time": 79080, "pitch": 54, "duration": 100, "velocity": 90}, {"time": 79200, "pitch": 47, "duration": 100, "velocity": 110}, {"time": 79200, "pitch": 54, "duration": 100, "velocity": 100}, {"time": 79320, "pitch": 47, "duration": 100, "velocity": 100}, {"time": 79320, "pitch": 54, "duration": 100, "velocity": 90}, {"time": 79440, "pitch": 47, "duration": 100, "velocity": 100}, {"time": 79440, "pitch": 54, "duration": 100, "velocity": 90}, {"time": 79560, "pitch": 47, "duration": 100, "velocity": 100}, {"time": 79560, "pitch": 54, "duration": 100, "velocity": 90}, {"time": 79680, "pitch": 47, "duration": 100, "velocity": 110}, {"time": 79680, "pitch": 54, "duration": 100, "velocity": 100}, {"time": 79800, "pitch": 47, "duration": 100, "velocity": 100}, {"time": 79800, "pitch": 54, "duration": 100, "velocity": 90}, {"time": 79920, "pitch": 47, "duration": 100, "velocity": 100}, {"time": 79920, "pitch": 54, "duration": 100, "velocity": 90}, {"time": 80040, "pitch": 47, "duration": 100, "velocity": 100}, {"time": 80040, "pitch": 54, "duration": 100, "velocity": 90}, {"time": 80160, "pitch": 47, "duration": 100, "velocity": 110}, {"time": 80160, "pitch": 54, "duration": 100, "velocity": 100}, {"time": 80280, "pitch": 47, "duration": 100, "velocity": 100}, {"time": 80280, "pitch": 54, "duration": 100, "velocity": 90}, {"time": 80400, "pitch": 47, "duration": 100, "velocity": 100}, {"time": 80400, "pitch": 54, "duration": 100, "velocity": 90}, {"time": 80880, "pitch": 45, "duration": 100, "velocity": 100}, {"time": 80880, "pitch": 52, "duration": 100, "velocity": 90}, {"time": 81000, "pitch": 45, "duration": 100, "velocity": 100}, {"time": 81000, "pitch": 52, "duration": 100, "velocity": 90}, {"time": 81120, "pitch": 45, "duration": 100, "velocity": 110}, {"time": 81120, "pitch": 52, "duration": 100, "velocity": 100}, {"time": 81240, "pitch": 45, "duration": 100, "velocity": 100}, {"time": 81240, "pitch": 52, "duration": 100, "velocity": 90}, {"time": 81360, "pitch": 45, "duration": 100, "velocity": 100}, {"time": 81360, "pitch": 52, "duration": 100, "velocity": 90}, {"time": 81480, "pitch": 45, "duration": 100, "velocity": 100}, {"time": 81480, "pitch": 52, "duration": 100, "velocity": 90}, {"time": 82800, "pitch": 43, "duration": 100, "velocity": 100}, {"time": 82800, "pitch": 50, "duration": 100, "velocity": 90}, {"time": 82920, "pitch": 43, "duration": 100, "velocity": 100}, {"time": 82920, "pitch": 50, "duration": 100, "velocity": 90}, {"time": 83040, "pitch": 43, "duration": 100, "velocity": 110}, {"time": 83040, "pitch": 50, "duration": 100, "velocity": 100}, {"time": 83160, "pitch": 43, "duration": 100, "velocity": 100}, {"time": 83160, "pitch": 50, "duration": 100, "velocity": 90}, {"time": 83280, "pitch": 43, "duration": 100, "velocity": 100}, {"time": 83280, "pitch": 50, "duration": 100, "velocity": 90}, {"time": 83400, "pitch": 43, "duration": 100, "velocity": 100}, {"time": 83400, "pitch": 50, "duration": 100, "velocity": 90}, {"time": 83520, "pitch": 43, "duration": 100, "velocity": 110}, {"time": 83520, "pitch": 50, "duration": 100, "velocity": 100}, {"time": 83640, "pitch": 43, "duration": 100, "velocity": 100}, {"time": 83640, "pitch": 50, "duration": 100, "velocity": 90}, {"time": 83760, "pitch": 43, "duration": 100, "velocity": 100}, {"time": 83760, "pitch": 50, "duration": 100, "velocity": 90}, {"time": 83880, "pitch": 43, "duration": 100, "velocity": 100}, {"time": 83880, "pitch": 50, "duration": 100, "velocity": 90}, {"time": 84000, "pitch": 43, "duration": 100, "velocity": 110}, {"time": 84000, "pitch": 50, "duration": 100, "velocity": 100}, {"time": 84120, "pitch": 43, "duration": 100, "velocity": 100}, {"time": 84120, "pitch": 50, "duration": 100, "velocity": 90}, {"time": 84240, "pitch": 43, "duration": 100, "velocity": 100}, {"time": 84240, "pitch": 50, "duration": 100, "velocity": 90}, {"time": 84720, "pitch": 45, "duration": 100, "velocity": 100}, {"time": 84720, "pitch": 52, "duration": 100, "velocity": 90}, {"time": 84840, "pitch": 45, "duration": 100, "velocity": 100}, {"time": 84840, "pitch": 52, "duration": 100, "velocity": 90}, {"time": 84960, "pitch": 45, "duration": 100, "velocity": 110}, {"time": 84960, "pitch": 52, "duration": 100, "velocity": 100}, {"time": 85080, "pitch": 45, "duration": 100, "velocity": 100}, {"time": 85080, "pitch": 52, "duration": 100, "velocity": 90}, {"time": 85200, "pitch": 45, "duration": 100, "velocity": 100}, {"time": 85200, "pitch": 52, "duration": 100, "velocity": 90}, {"time": 85320, "pitch": 45, "duration": 100, "velocity": 100}, {"time": 85320, "pitch": 52, "duration": 100, "velocity": 90}, {"time": 86640, "pitch": 47, "duration": 100, "velocity": 100}, {"time": 86640, "pitch": 54, "duration": 100, "velocity": 90}, {"time": 86760, "pitch": 47, "duration": 100, "velocity": 100}, {"time": 86760, "pitch": 54, "duration": 100, "velocity": 90}, {"time": 86880, "pitch": 47, "duration": 100, "velocity": 110}, {"time": 86880, "pitch": 54, "duration": 100, "velocity": 100}, {"time": 87000, "pitch": 47, "duration": 100, "velocity": 100}, {"time": 87000, "pitch": 54, "duration": 100, "velocity": 90}, {"time": 87120, "pitch": 47, "duration": 100, "velocity": 100}, {"time": 87120, "pitch": 54, "duration": 100, "velocity": 90}, {"time": 87240, "pitch": 47, "duration": 100, "velocity": 100}, {"time": 87240, "pitch": 54, "duration": 100, "velocity": 90}, {"time": 87360, "pitch": 47, "duration": 100, "velocity": 110}, {"time": 87360, "pitch": 54, "duration": 100, "velocity": 100}, {"time": 87480, "pitch": 47, "duration": 100, "velocity": 100}, {"time": 87480, "pitch": 54, "duration": 100, "velocity": 90}, {"time": 87600, "pitch": 47, "duration": 100, "velocity": 100}, {"time": 87600, "pitch": 54, "duration": 100, "velocity": 90}, {"time": 87720, "pitch": 47, "duration": 100, "velocity": 100}, {"time": 87720, "pitch": 54, "duration": 100, "velocity": 90}, {"time": 87840, "pitch": 47, "duration": 100, "velocity": 110}, {"time": 87840, "pitch": 54, "duration": 100, "velocity": 100}, {"time": 87960, "pitch": 47, "duration": 100, "velocity": 100}, {"time": 87960, "pitch": 54, "duration": 100, "velocity": 90}, {"time": 88080, "pitch": 47, "duration": 100, "velocity": 100}, {"time": 88080, "pitch": 54, "duration": 100, "velocity": 90}, {"time": 88560, "pitch": 45, "duration": 100, "velocity": 100}, {"time": 88560, "pitch": 52, "duration": 100, "velocity": 90}, {"time": 88680, "pitch": 45, "duration": 100, "velocity": 100}, {"time": 88680, "pitch": 52, "duration": 100, "velocity": 90}, {"time": 88800, "pitch": 45, "duration": 100, "velocity": 110}, {"time": 88800, "pitch": 52, "duration": 100, "velocity": 100}, {"time": 88920, "pitch": 45, "duration": 100, "velocity": 100}, {"time": 88920, "pitch": 52, "duration": 100, "velocity": 90}, {"time": 89040, "pitch": 45, "duration": 100, "velocity": 100}, {"time": 89040, "pitch": 52, "duration": 100, "velocity": 90}, {"time": 89160, "pitch": 45, "duration": 100, "velocity": 100}, {"time": 89160, "pitch": 52, "duration": 100, "velocity": 90}, {"time": 90480, "pitch": 43, "duration": 100, "velocity": 100}, {"time": 90480, "pitch": 50, "duration": 100, "velocity": 90}, {"time": 90600, "pitch": 43, "duration": 100, "velocity": 100}, {"time": 90600, "pitch": 50, "duration": 100, "velocity": 90}, {"time": 90720, "pitch": 43, "duration": 100, "velocity": 110}, {"time": 90720, "pitch": 50, "duration": 100, "velocity": 100}, {"time": 90840, "pitch": 43, "duration": 100, "velocity": 100}, {"time": 90840, "pitch": 50, "duration": 100, "velocity": 90}, {"time": 90960, "pitch": 43, "duration": 100, "velocity": 100}, {"time": 90960, "pitch": 50, "duration": 100, "velocity": 90}, {"time": 91080, "pitch": 43, "duration": 100, "velocity": 100}, {"time": 91080, "pitch": 50, "duration": 100, "velocity": 90}, {"time": 91200, "pitch": 43, "duration": 100, "velocity": 110}, {"time": 91200, "pitch": 50, "duration": 100, "velocity": 100}, {"time": 91320, "pitch": 43, "duration": 100, "velocity": 100}, {"time": 91320, "pitch": 50, "duration": 100, "velocity": 90}, {"time": 91440, "pitch": 43, "duration": 100, "velocity": 100}, {"time": 91440, "pitch": 50, "duration": 100, "velocity": 90}, {"time": 91560, "pitch": 43, "duration": 100, "velocity": 100}, {"time": 91560, "pitch": 50, "duration": 100, "velocity": 90}, {"time": 91680, "pitch": 43, "duration": 100, "velocity": 110}, {"time": 91680, "pitch": 50, "duration": 100, "velocity": 100}, {"time": 91800, "pitch": 43, "duration": 100, "velocity": 100}, {"time": 91800, "pitch": 50, "duration": 100, "velocity": 90}, {"time": 91920, "pitch": 43, "duration": 100, "velocity": 100}, {"time": 91920, "pitch": 50, "duration": 100, "velocity": 90}, {"time": 92400, "pitch": 45, "duration": 100, "velocity": 100}, {"time": 92400, "pitch": 52, "duration": 100, "velocity": 90}, {"time": 92520, "pitch": 45, "duration": 100, "velocity": 100}, {"time": 92520, "pitch": 52, "duration": 100, "velocity": 90}, {"time": 92640, "pitch": 45, "duration": 100, "velocity": 110}, {"time": 92640, "pitch": 52, "duration": 100, "velocity": 100}, {"time": 92760, "pitch": 45, "duration": 100, "velocity": 100}, {"time": 92760, "pitch": 52, "duration": 100, "velocity": 90}, {"time": 92880, "pitch": 45, "duration": 100, "velocity": 100}, {"time": 92880, "pitch": 52, "duration": 100, "velocity": 90}, {"time": 93000, "pitch": 45, "duration": 100, "velocity": 100}, {"time": 93000, "pitch": 52, "duration": 100, "velocity": 90}, {"time": 93120, "pitch": 45, "duration": 100, "velocity": 110}, {"time": 93120, "pitch": 52, "duration": 100, "velocity": 100}, {"time": 93240, "pitch": 45, "duration": 100, "velocity": 100}, {"time": 93240, "pitch": 52, "duration": 100, "velocity": 90}, {"time": 93360, "pitch": 45, "duration": 100, "velocity": 100}, {"time": 93360, "pitch": 52, "duration": 100, "velocity": 90}, {"time": 93480, "pitch": 45, "duration": 100, "velocity": 100}, {"time": 93480, "pitch": 52, "duration": 100, "velocity": 90}, {"time": 100080, "pitch": 47, "duration": 100, "velocity": 100}, {"time": 100080, "pitch": 54, "duration": 100, "velocity": 90}, {"time": 100200, "pitch": 47, "duration": 100, "velocity": 100}, {"time": 100200, "pitch": 54, "duration": 100, "velocity": 90}, {"time": 100320, "pitch": 47, "duration": 100, "velocity": 110}, {"time": 100320, "pitch": 54, "duration": 100, "velocity": 100}, {"time": 100440, "pitch": 47, "duration": 100, "velocity": 100}, {"time": 100440, "pitch": 54, "duration": 100, "velocity": 90}, {"time": 100560, "pitch": 47, "duration": 100, "velocity": 100}, {"time": 100560, "pitch": 54, "duration": 100, "velocity": 90}, {"time": 100680, "pitch": 47, "duration": 100, "velocity": 100}, {"time": 100680, "pitch": 54, "duration": 100, "velocity": 90}, {"time": 100800, "pitch": 47, "duration": 100, "velocity": 110}, {"time": 100800, "pitch": 54, "duration": 100, "velocity": 100}, {"time": 100920, "pitch": 47, "duration": 100, "velocity": 100}, {"time": 100920, "pitch": 54, "duration": 100, "velocity": 90}, {"time": 101040, "pitch": 47, "duration": 100, "velocity": 100}, {"time": 101040, "pitch": 54, "duration": 100, "velocity": 90}, {"time": 101160, "pitch": 47, "duration": 100, "velocity": 100}, {"time": 101160, "pitch": 54, "duration": 100, "velocity": 90}, {"time": 101280, "pitch": 47, "duration": 100, "velocity": 110}, {"time": 101280, "pitch": 54, "duration": 100, "velocity": 100}, {"time": 101400, "pitch": 47, "duration": 100, "velocity": 100}, {"time": 101400, "pitch": 54, "duration": 100, "velocity": 90}, {"time": 101520, "pitch": 47, "duration": 100, "velocity": 100}, {"time": 101520, "pitch": 54, "duration": 100, "velocity": 90}, {"time": 102000, "pitch": 45, "duration": 100, "velocity": 100}, {"time": 102000, "pitch": 52, "duration": 100, "velocity": 90}, {"time": 102120, "pitch": 45, "duration": 100, "velocity": 100}, {"time": 102120, "pitch": 52, "duration": 100, "velocity": 90}, {"time": 102240, "pitch": 45, "duration": 100, "velocity": 110}, {"time": 102240, "pitch": 52, "duration": 100, "velocity": 100}, {"time": 102360, "pitch": 45, "duration": 100, "velocity": 100}, {"time": 102360, "pitch": 52, "duration": 100, "velocity": 90}, {"time": 102480, "pitch": 45, "duration": 100, "velocity": 100}, {"time": 102480, "pitch": 52, "duration": 100, "velocity": 90}, {"time": 102600, "pitch": 45, "duration": 100, "velocity": 100}, {"time": 102600, "pitch": 52, "duration": 100, "velocity": 90}, {"time": 103920, "pitch": 43, "duration": 100, "velocity": 100}, {"time": 103920, "pitch": 50, "duration": 100, "velocity": 90}, {"time": 104040, "pitch": 43, "duration": 100, "velocity": 100}, {"time": 104040, "pitch": 50, "duration": 100, "velocity": 90}, {"time": 104160, "pitch": 43, "duration": 100, "velocity": 110}, {"time": 104160, "pitch": 50, "duration": 100, "velocity": 100}, {"time": 104280, "pitch": 43, "duration": 100, "velocity": 100}, {"time": 104280, "pitch": 50, "duration": 100, "velocity": 90}, {"time": 104400, "pitch": 43, "duration": 100, "velocity": 100}, {"time": 104400, "pitch": 50, "duration": 100, "velocity": 90}, {"time": 104520, "pitch": 43, "duration": 100, "velocity": 100}, {"time": 104520, "pitch": 50, "duration": 100, "velocity": 90}, {"time": 104640, "pitch": 43, "duration": 100, "velocity": 110}, {"time": 104640, "pitch": 50, "duration": 100, "velocity": 100}, {"time": 104760, "pitch": 43, "duration": 100, "velocity": 100}, {"time": 104760, "pitch": 50, "duration": 100, "velocity": 90}, {"time": 104880, "pitch": 43, "duration": 100, "velocity": 100}, {"time": 104880, "pitch": 50, "duration": 100, "velocity": 90}, {"time": 105000, "pitch": 43, "duration": 100, "velocity": 100}, {"time": 105000, "pitch": 50, "duration": 100, "velocity": 90}, {"time": 105120, "pitch": 43, "duration": 100, "velocity": 110}, {"time": 105120, "pitch": 50, "duration": 100, "velocity": 100}, {"time": 105240, "pitch": 43, "duration": 100, "velocity": 100}, {"time": 105240, "pitch": 50, "duration": 100, "velocity": 90}, {"time": 105360, "pitch": 43, "duration": 100, "velocity": 100}, {"time": 105360, "pitch": 50, "duration": 100, "velocity": 90}, {"time": 105840, "pitch": 45, "duration": 100, "velocity": 100}, {"time": 105840, "pitch": 52, "duration": 100, "velocity": 90}, {"time": 105960, "pitch": 45, "duration": 100, "velocity": 100}, {"time": 105960, "pitch": 52, "duration": 100, "velocity": 90}, {"time": 106080, "pitch": 45, "duration": 100, "velocity": 110}, {"time": 106080, "pitch": 52, "duration": 100, "velocity": 100}, {"time": 106200, "pitch": 45, "duration": 100, "velocity": 100}, {"time": 106200, "pitch": 52, "duration": 100, "velocity": 90}, {"time": 106320, "pitch": 45, "duration": 100, "velocity": 100}, {"time": 106320, "pitch": 52, "duration": 100, "velocity": 90}, {"time": 106440, "pitch": 45, "duration": 100, "velocity": 100}, {"time": 106440, "pitch": 52, "duration": 100, "velocity": 90}, {"time": 107760, "pitch": 47, "duration": 100, "velocity": 100}, {"time": 107760, "pitch": 54, "duration": 100, "velocity": 90}, {"time": 107880, "pitch": 47, "duration": 100, "velocity": 100}, {"time": 107880, "pitch": 54, "duration": 100, "velocity": 90}, {"time": 108000, "pitch": 47, "duration": 100, "velocity": 110}, {"time": 108000, "pitch": 54, "duration": 100, "velocity": 100}, {"time": 108120, "pitch": 47, "duration": 100, "velocity": 100}, {"time": 108120, "pitch": 54, "duration": 100, "velocity": 90}, {"time": 108240, "pitch": 47, "duration": 100, "velocity": 100}, {"time": 108240, "pitch": 54, "duration": 100, "velocity": 90}, {"time": 108360, "pitch": 47, "duration": 100, "velocity": 100}, {"time": 108360, "pitch": 54, "duration": 100, "velocity": 90}, {"time": 108480, "pitch": 47, "duration": 100, "velocity": 110}, {"time": 108480, "pitch": 54, "duration": 100, "velocity": 100}, {"time": 108600, "pitch": 47, "duration": 100, "velocity": 100}, {"time": 108600, "pitch": 54, "duration": 100, "velocity": 90}, {"time": 108720, "pitch": 47, "duration": 100, "velocity": 100}, {"time": 108720, "pitch": 54, "duration": 100, "velocity": 90}, {"time": 108840, "pitch": 47, "duration": 100, "velocity": 100}, {"time": 108840, "pitch": 54, "duration": 100, "velocity": 90}, {"time": 108960, "pitch": 47, "duration": 100, "velocity": 110}, {"time": 108960, "pitch": 54, "duration": 100, "velocity": 100}, {"time": 109080, "pitch": 47, "duration": 100, "velocity": 100}, {"time": 109080, "pitch": 54, "duration": 100, "velocity": 90}, {"time": 109200, "pitch": 47, "duration": 100, "velocity": 100}, {"time": 109200, "pitch": 54, "duration": 100, "velocity": 90}, {"time": 109680, "pitch": 45, "duration": 100, "velocity": 100}, {"time": 109680, "pitch": 52, "duration": 100, "velocity": 90}, {"time": 109800, "pitch": 45, "duration": 100, "velocity": 100}, {"time": 109800, "pitch": 52, "duration": 100, "velocity": 90}, {"time": 109920, "pitch": 45, "duration": 100, "velocity": 110}, {"time": 109920, "pitch": 52, "duration": 100, "velocity": 100}, {"time": 110040, "pitch": 45, "duration": 100, "velocity": 100}, {"time": 110040, "pitch": 52, "duration": 100, "velocity": 90}, {"time": 110160, "pitch": 45, "duration": 100, "velocity": 100}, {"time": 110160, "pitch": 52, "duration": 100, "velocity": 90}, {"time": 110280, "pitch": 45, "duration": 100, "velocity": 100}, {"time": 110280, "pitch": 52, "duration": 100, "velocity": 90}, {"time": 111600, "pitch": 43, "duration": 100, "velocity": 100}, {"time": 111600, "pitch": 50, "duration": 100, "velocity": 90}, {"time": 111720, "pitch": 43, "duration": 100, "velocity": 100}, {"time": 111720, "pitch": 50, "duration": 100, "velocity": 90}, {"time": 111840, "pitch": 43, "duration": 100, "velocity": 110}, {"time": 111840, "pitch": 50, "duration": 100, "velocity": 100}, {"time": 111960, "pitch": 43, "duration": 100, "velocity": 100}, {"time": 111960, "pitch": 50, "duration": 100, "velocity": 90}, {"time": 112080, "pitch": 43, "duration": 100, "velocity": 100}, {"time": 112080, "pitch": 50, "duration": 100, "velocity": 90}, {"time": 112200, "pitch": 43, "duration": 100, "velocity": 100}, {"time": 112200, "pitch": 50, "duration": 100, "velocity": 90}, {"time": 112320, "pitch": 43, "duration": 100, "velocity": 110}, {"time": 112320, "pitch": 50, "duration": 100, "velocity": 100}, {"time": 112440, "pitch": 43, "duration": 100, "velocity": 100}, {"time": 112440, "pitch": 50, "duration": 100, "velocity": 90}, {"time": 112560, "pitch": 43, "duration": 100, "velocity": 100}, {"time": 112560, "pitch": 50, "duration": 100, "velocity": 90}, {"time": 112680, "pitch": 43, "duration": 100, "velocity": 100}, {"time": 112680, "pitch": 50, "duration": 100, "velocity": 90}, {"time": 112800, "pitch": 43, "duration": 100, "velocity": 110}, {"time": 112800, "pitch": 50, "duration": 100, "velocity": 100}, {"time": 112920, "pitch": 43, "duration": 100, "velocity": 100}, {"time": 112920, "pitch": 50, "duration": 100, "velocity": 90}, {"time": 113040, "pitch": 43, "duration": 100, "velocity": 100}, {"time": 113040, "pitch": 50, "duration": 100, "velocity": 90}, {"time": 113520, "pitch": 45, "duration": 100, "velocity": 100}, {"time": 113520, "pitch": 52, "duration": 100, "velocity": 90}, {"time": 113640, "pitch": 45, "duration": 100, "velocity": 100}, {"time": 113640, "pitch": 52, "duration": 100, "velocity": 90}, {"time": 113760, "pitch": 45, "duration": 100, "velocity": 110}, {"time": 113760, "pitch": 52, "duration": 100, "velocity": 100}, {"time": 113880, "pitch": 45, "duration": 100, "velocity": 100}, {"time": 113880, "pitch": 52, "duration": 100, "velocity": 90}, {"time": 114000, "pitch": 45, "duration": 100, "velocity": 100}, {"time": 114000, "pitch": 52, "duration": 100, "velocity": 90}, {"time": 114120, "pitch": 45, "duration": 100, "velocity": 100}, {"time": 114120, "pitch": 52, "duration": 100, "velocity": 90}, {"time": 114240, "pitch": 45, "duration": 100, "velocity": 110}, {"time": 114240, "pitch": 52, "duration": 100, "velocity": 100}, {"time": 114360, "pitch": 45, "duration": 100, "velocity": 100}, {"time": 114360, "pitch": 52, "duration": 100, "velocity": 90}, {"time": 114480, "pitch": 45, "duration": 100, "velocity": 100}, {"time": 114480, "pitch": 52, "duration": 100, "velocity": 90}, {"time": 114600, "pitch": 45, "duration": 100, "velocity": 100}, {"time": 114600, "pitch": 52, "duration": 100, "velocity": 90}, {"time": 117360, "pitch": 43, "duration": 100, "velocity": 100}, {"time": 117360, "pitch": 50, "duration": 100, "velocity": 90}, {"time": 117480, "pitch": 43, "duration": 100, "velocity": 100}, {"time": 117480, "pitch": 50, "duration": 100, "velocity": 90}, {"time": 117600, "pitch": 43, "duration": 100, "velocity": 110}, {"time": 117600, "pitch": 50, "duration": 100, "velocity": 100}, {"time": 117720, "pitch": 43, "duration": 100, "velocity": 100}, {"time": 117720, "pitch": 50, "duration": 100, "velocity": 90}, {"time": 117840, "pitch": 43, "duration": 100, "velocity": 100}, {"time": 117840, "pitch": 50, "duration": 100, "velocity": 90}, {"time": 117960, "pitch": 43, "duration": 100, "velocity": 100}, {"time": 117960, "pitch": 50, "duration": 100, "velocity": 90}, {"time": 118080, "pitch": 43, "duration": 100, "velocity": 110}, {"time": 118080, "pitch": 50, "duration": 100, "velocity": 100}, {"time": 118200, "pitch": 43, "duration": 100, "velocity": 100}, {"time": 118200, "pitch": 50, "duration": 100, "velocity": 90}, {"time": 118320, "pitch": 43, "duration": 100, "velocity": 100}, {"time": 118320, "pitch": 50, "duration": 100, "velocity": 90}, {"time": 118440, "pitch": 43, "duration": 100, "velocity": 100}, {"time": 118440, "pitch": 50, "duration": 100, "velocity": 90}, {"time": 118560, "pitch": 43, "duration": 100, "velocity": 110}, {"time": 118560, "pitch": 50, "duration": 100, "velocity": 100}, {"time": 118680, "pitch": 43, "duration": 100, "velocity": 100}, {"time": 118680, "pitch": 50, "duration": 100, "velocity": 90}, {"time": 118800, "pitch": 43, "duration": 100, "velocity": 100}, {"time": 118800, "pitch": 50, "duration": 100, "velocity": 90}, {"time": 119280, "pitch": 45, "duration": 100, "velocity": 100}, {"time": 119280, "pitch": 52, "duration": 100, "velocity": 90}, {"time": 119400, "pitch": 45, "duration": 100, "velocity": 100}, {"time": 119400, "pitch": 52, "duration": 100, "velocity": 90}, {"time": 119520, "pitch": 45, "duration": 100, "velocity": 110}, {"time": 119520, "pitch": 52, "duration": 100, "velocity": 100}, {"time": 119640, "pitch": 45, "duration": 100, "velocity": 100}, {"time": 119640, "pitch": 52, "duration": 100, "velocity": 90}, {"time": 119760, "pitch": 45, "duration": 100, "velocity": 100}, {"time": 119760, "pitch": 52, "duration": 100, "velocity": 90}, {"time": 119880, "pitch": 45, "duration": 100, "velocity": 100}, {"time": 119880, "pitch": 52, "duration": 100, "velocity": 90}, {"time": 120000, "pitch": 45, "duration": 100, "velocity": 110}, {"time": 120000, "pitch": 52, "duration": 100, "velocity": 100}, {"time": 120120, "pitch": 45, "duration": 100, "velocity": 100}, {"time": 120120, "pitch": 52, "duration": 100, "velocity": 90}, {"time": 120240, "pitch": 45, "duration": 100, "velocity": 100}, {"time": 120240, "pitch": 52, "duration": 100, "velocity": 90}, {"time": 120360, "pitch": 45, "duration": 100, "velocity": 100}, {"time": 120360, "pitch": 52, "duration": 100, "velocity": 90}, {"time": 120480, "pitch": 45, "duration": 100, "velocity": 110}, {"time": 120480, "pitch": 52, "duration": 100, "velocity": 100}, {"time": 120600, "pitch": 45, "duration": 100, "velocity": 100}, {"time": 120600, "pitch": 52, "duration": 100, "velocity": 90}, {"time": 123120, "pitch": 43, "duration": 100, "velocity": 100}, {"time": 123120, "pitch": 50, "duration": 100, "velocity": 90}, {"time": 123240, "pitch": 43, "duration": 100, "velocity": 100}, {"time": 123240, "pitch": 50, "duration": 100, "velocity": 90}, {"time": 123360, "pitch": 43, "duration": 100, "velocity": 110}, {"time": 123360, "pitch": 50, "duration": 100, "velocity": 100}, {"time": 123480, "pitch": 43, "duration": 100, "velocity": 100}, {"time": 123480, "pitch": 50, "duration": 100, "velocity": 90}, {"time": 123600, "pitch": 43, "duration": 100, "velocity": 100}, {"time": 123600, "pitch": 50, "duration": 100, "velocity": 90}, {"time": 123720, "pitch": 43, "duration": 100, "velocity": 100}, {"time": 123720, "pitch": 50, "duration": 100, "velocity": 90}, {"time": 123840, "pitch": 43, "duration": 100, "velocity": 110}, {"time": 123840, "pitch": 50, "duration": 100, "velocity": 100}, {"time": 123960, "pitch": 43, "duration": 100, "velocity": 100}, {"time": 123960, "pitch": 50, "duration": 100, "velocity": 90}, {"time": 124080, "pitch": 43, "duration": 100, "velocity": 100}, {"time": 124080, "pitch": 50, "duration": 100, "velocity": 90}, {"time": 124200, "pitch": 43, "duration": 100, "velocity": 100}, {"time": 124200, "pitch": 50, "duration": 100, "velocity": 90}, {"time": 124320, "pitch": 43, "duration": 100, "velocity": 110}, {"time": 124320, "pitch": 50, "duration": 100, "velocity": 100}, {"time": 124440, "pitch": 43, "duration": 100, "velocity": 100}, {"time": 124440, "pitch": 50, "duration": 100, "velocity": 90}, {"time": 124560, "pitch": 43, "duration": 100, "velocity": 100}, {"time": 124560, "pitch": 50, "duration": 100, "velocity": 90}, {"time": 125040, "pitch": 43, "duration": 100, "velocity": 100}, {"time": 125040, "pitch": 50, "duration": 100, "velocity": 90}, {"time": 125160, "pitch": 43, "duration": 100, "velocity": 100}, {"time": 125160, "pitch": 50, "duration": 100, "velocity": 90}, {"time": 125280, "pitch": 43, "duration": 100, "velocity": 110}, {"time": 125280, "pitch": 50, "duration": 100, "velocity": 100}, {"time": 125400, "pitch": 43, "duration": 100, "velocity": 100}, {"time": 125400, "pitch": 50, "duration": 100, "velocity": 90}, {"time": 125520, "pitch": 43, "duration": 100, "velocity": 100}, {"time": 125520, "pitch": 50, "duration": 100, "velocity": 90}, {"time": 125640, "pitch": 43, "duration": 100, "velocity": 100}, {"time": 125640, "pitch": 50, "duration": 100, "velocity": 90}, {"time": 125760, "pitch": 43, "duration": 100, "velocity": 110}, {"time": 125760, "pitch": 50, "duration": 100, "velocity": 100}, {"time": 125880, "pitch": 43, "duration": 100, "velocity": 100}, {"time": 125880, "pitch": 50, "duration": 100, "velocity": 90}, {"time": 126000, "pitch": 43, "duration": 100, "velocity": 100}, {"time": 126000, "pitch": 50, "duration": 100, "velocity": 90}, {"time": 126120, "pitch": 43, "duration": 100, "velocity": 100}, {"time": 126120, "pitch": 50, "duration": 100, "velocity": 90}, {"time": 126240, "pitch": 43, "duration": 100, "velocity": 110}, {"time": 126240, "pitch": 50, "duration": 100, "velocity": 100}, {"time": 126360, "pitch": 43, "duration": 100, "velocity": 100}, {"time": 126360, "pitch": 50, "duration": 100, "velocity": 90}, {"time": 126480, "pitch": 43, "duration": 100, "velocity": 100}, {"time": 126480, "pitch": 50, "duration": 100, "velocity": 90}, {"time": 126960, "pitch": 45, "duration": 100, "velocity": 100}, {"time": 126960, "pitch": 52, "duration": 100, "velocity": 90}, {"time": 127080, "pitch": 45, "duration": 100, "velocity": 100}, {"time": 127080, "pitch": 52, "duration": 100, "velocity": 90}, {"time": 127200, "pitch": 45, "duration": 100, "velocity": 110}, {"time": 127200, "pitch": 52, "duration": 100, "velocity": 100}, {"time": 127320, "pitch": 45, "duration": 100, "velocity": 100}, {"time": 127320, "pitch": 52, "duration": 100, "velocity": 90}, {"time": 127440, "pitch": 45, "duration": 100, "velocity": 100}, {"time": 127440, "pitch": 52, "duration": 100, "velocity": 90}, {"time": 127560, "pitch": 45, "duration": 100, "velocity": 100}, {"time": 127560, "pitch": 52, "duration": 100, "velocity": 90}, {"time": 127680, "pitch": 45, "duration": 100, "velocity": 110}, {"time": 127680, "pitch": 52, "duration": 100, "velocity": 100}, {"time": 127800, "pitch": 45, "duration": 100, "velocity": 100}, {"time": 127800, "pitch": 52, "duration": 100, "velocity": 90}, {"time": 127920, "pitch": 45, "duration": 100, "velocity": 100}, {"time": 127920, "pitch": 52, "duration": 100, "velocity": 90}, {"time": 128040, "pitch": 45, "duration": 100, "velocity": 100}, {"time": 128040, "pitch": 52, "duration": 100, "velocity": 90}, {"time": 130800, "pitch": 47, "duration": 100, "velocity": 100}, {"time": 130800, "pitch": 54, "duration": 100, "velocity": 90}, {"time": 130920, "pitch": 47, "duration": 100, "velocity": 100}, {"time": 130920, "pitch": 54, "duration": 100, "velocity": 90}, {"time": 131040, "pitch": 47, "duration": 100, "velocity": 110}, {"time": 131040, "pitch": 54, "duration": 100, "velocity": 100}, {"time": 131160, "pitch": 47, "duration": 100, "velocity": 100}, {"time": 131160, "pitch": 54, "duration": 100, "velocity": 90}, {"time": 131280, "pitch": 47, "duration": 100, "velocity": 100}, {"time": 131280, "pitch": 54, "duration": 100, "velocity": 90}, {"time": 131400, "pitch": 47, "duration": 100, "velocity": 100}, {"time": 131400, "pitch": 54, "duration": 100, "velocity": 90}, {"time": 131520, "pitch": 47, "duration": 100, "velocity": 110}, {"time": 131520, "pitch": 54, "duration": 100, "velocity": 100}, {"time": 131640, "pitch": 47, "duration": 100, "velocity": 100}, {"time": 131640, "pitch": 54, "duration": 100, "velocity": 90}, {"time": 131760, "pitch": 47, "duration": 100, "velocity": 100}, {"time": 131760, "pitch": 54, "duration": 100, "velocity": 90}, {"time": 131880, "pitch": 47, "duration": 100, "velocity": 100}, {"time": 131880, "pitch": 54, "duration": 100, "velocity": 90}, {"time": 132000, "pitch": 47, "duration": 100, "velocity": 110}, {"time": 132000, "pitch": 54, "duration": 100, "velocity": 100}, {"time": 132120, "pitch": 47, "duration": 100, "velocity": 100}, {"time": 132120, "pitch": 54, "duration": 100, "velocity": 90}, {"time": 132240, "pitch": 47, "duration": 100, "velocity": 100}, {"time": 132240, "pitch": 54, "duration": 100, "velocity": 90}, {"time": 132720, "pitch": 45, "duration": 100, "velocity": 100}, {"time": 132720, "pitch": 52, "duration": 100, "velocity": 90}, {"time": 132840, "pitch": 45, "duration": 100, "velocity": 100}, {"time": 132840, "pitch": 52, "duration": 100, "velocity": 90}, {"time": 132960, "pitch": 45, "duration": 100, "velocity": 110}, {"time": 132960, "pitch": 52, "duration": 100, "velocity": 100}, {"time": 133080, "pitch": 45, "duration": 100, "velocity": 100}, {"time": 133080, "pitch": 52, "duration": 100, "velocity": 90}, {"time": 133200, "pitch": 45, "duration": 100, "velocity": 100}, {"time": 133200, "pitch": 52, "duration": 100, "velocity": 90}, {"time": 133320, "pitch": 45, "duration": 100, "velocity": 100}, {"time": 133320, "pitch": 52, "duration": 100, "velocity": 90}, {"time": 134640, "pitch": 43, "duration": 100, "velocity": 100}, {"time": 134640, "pitch": 50, "duration": 100, "velocity": 90}, {"time": 134760, "pitch": 43, "duration": 100, "velocity": 100}, {"time": 134760, "pitch": 50, "duration": 100, "velocity": 90}, {"time": 134880, "pitch": 43, "duration": 100, "velocity": 110}, {"time": 134880, "pitch": 50, "duration": 100, "velocity": 100}, {"time": 135000, "pitch": 43, "duration": 100, "velocity": 100}, {"time": 135000, "pitch": 50, "duration": 100, "velocity": 90}, {"time": 135120, "pitch": 43, "duration": 100, "velocity": 100}, {"time": 135120, "pitch": 50, "duration": 100, "velocity": 90}, {"time": 135240, "pitch": 43, "duration": 100, "velocity": 100}, {"time": 135240, "pitch": 50, "duration": 100, "velocity": 90}, {"time": 135360, "pitch": 43, "duration": 100, "velocity": 110}, {"time": 135360, "pitch": 50, "duration": 100, "velocity": 100}, {"time": 135480, "pitch": 43, "duration": 100, "velocity": 100}, {"time": 135480, "pitch": 50, "duration": 100, "velocity": 90}, {"time": 135600, "pitch": 43, "duration": 100, "velocity": 100}, {"time": 135600, "pitch": 50, "duration": 100, "velocity": 90}, {"time": 135720, "pitch": 43, "duration": 100, "velocity": 100}, {"time": 135720, "pitch": 50, "duration": 100, "velocity": 90}, {"time": 135840, "pitch": 43, "duration": 100, "velocity": 110}, {"time": 135840, "pitch": 50, "duration": 100, "velocity": 100}, {"time": 135960, "pitch": 43, "duration": 100, "velocity": 100}, {"time": 135960, "pitch": 50, "duration": 100, "velocity": 90}, {"time": 136080, "pitch": 43, "duration": 100, "velocity": 100}, {"time": 136080, "pitch": 50, "duration": 100, "velocity": 90}, {"time": 136560, "pitch": 45, "duration": 100, "velocity": 100}, {"time": 136560, "pitch": 52, "duration": 100, "velocity": 90}, {"time": 136680, "pitch": 45, "duration": 100, "velocity": 100}, {"time": 136680, "pitch": 52, "duration": 100, "velocity": 90}, {"time": 136800, "pitch": 45, "duration": 100, "velocity": 110}, {"time": 136800, "pitch": 52, "duration": 100, "velocity": 100}, {"time": 136920, "pitch": 45, "duration": 100, "velocity": 100}, {"time": 136920, "pitch": 52, "duration": 100, "velocity": 90}, {"time": 137040, "pitch": 45, "duration": 100, "velocity": 100}, {"time": 137040, "pitch": 52, "duration": 100, "velocity": 90}, {"time": 137160, "pitch": 45, "duration": 100, "velocity": 100}, {"time": 137160, "pitch": 52, "duration": 100, "velocity": 90}, {"time": 138480, "pitch": 47, "duration": 100, "velocity": 100}, {"time": 138480, "pitch": 54, "duration": 100, "velocity": 90}, {"time": 138600, "pitch": 47, "duration": 100, "velocity": 100}, {"time": 138600, "pitch": 54, "duration": 100, "velocity": 90}, {"time": 138720, "pitch": 47, "duration": 100, "velocity": 110}, {"time": 138720, "pitch": 54, "duration": 100, "velocity": 100}, {"time": 138840, "pitch": 47, "duration": 100, "velocity": 100}, {"time": 138840, "pitch": 54, "duration": 100, "velocity": 90}, {"time": 138960, "pitch": 47, "duration": 100, "velocity": 100}, {"time": 138960, "pitch": 54, "duration": 100, "velocity": 90}, {"time": 139080, "pitch": 47, "duration": 100, "velocity": 100}, {"time": 139080, "pitch": 54, "duration": 100, "velocity": 90}, {"time": 139200, "pitch": 47, "duration": 100, "velocity": 110}, {"time": 139200, "pitch": 54, "duration": 100, "velocity": 100}, {"time": 139320, "pitch": 47, "duration": 100, "velocity": 100}, {"time": 139320, "pitch": 54, "duration": 100, "velocity": 90}, {"time": 139440, "pitch": 47, "duration": 100, "velocity": 100}, {"time": 139440, "pitch": 54, "duration": 100, "velocity": 90}, {"time": 139560, "pitch": 47, "duration": 100, "velocity": 100}, {"time": 139560, "pitch": 54, "duration": 100, "velocity": 90}, {"time": 139680, "pitch": 47, "duration": 100, "velocity": 110}, {"time": 139680, "pitch": 54, "duration": 100, "velocity": 100}, {"time": 139800, "pitch": 47, "duration": 100, "velocity": 100}, {"time": 139800, "pitch": 54, "duration": 100, "velocity": 90}, {"time": 139920, "pitch": 47, "duration": 100, "velocity": 100}, {"time": 139920, "pitch": 54, "duration": 100, "velocity": 90}, {"time": 140400, "pitch": 45, "duration": 100, "velocity": 100}, {"time": 140400, "pitch": 52, "duration": 100, "velocity": 90}, {"time": 140520, "pitch": 45, "duration": 100, "velocity": 100}, {"time": 140520, "pitch": 52, "duration": 100, "velocity": 90}, {"time": 140640, "pitch": 45, "duration": 100, "velocity": 110}, {"time": 140640, "pitch": 52, "duration": 100, "velocity": 100}, {"time": 140760, "pitch": 45, "duration": 100, "velocity": 100}, {"time": 140760, "pitch": 52, "duration": 100, "velocity": 90}, {"time": 140880, "pitch": 45, "duration": 100, "velocity": 100}, {"time": 140880, "pitch": 52, "duration": 100, "velocity": 90}, {"time": 141000, "pitch": 45, "duration": 100, "velocity": 100}, {"time": 141000, "pitch": 52, "duration": 100, "velocity": 90}, {"time": 142320, "pitch": 43, "duration": 100, "velocity": 100}, {"time": 142320, "pitch": 50, "duration": 100, "velocity": 90}, {"time": 142440, "pitch": 43, "duration": 100, "velocity": 100}, {"time": 142440, "pitch": 50, "duration": 100, "velocity": 90}, {"time": 142560, "pitch": 43, "duration": 100, "velocity": 110}, {"time": 142560, "pitch": 50, "duration": 100, "velocity": 100}, {"time": 142680, "pitch": 43, "duration": 100, "velocity": 100}, {"time": 142680, "pitch": 50, "duration": 100, "velocity": 90}, {"time": 142800, "pitch": 43, "duration": 100, "velocity": 100}, {"time": 142800, "pitch": 50, "duration": 100, "velocity": 90}, {"time": 142920, "pitch": 43, "duration": 100, "velocity": 100}, {"time": 142920, "pitch": 50, "duration": 100, "velocity": 90}, {"time": 143040, "pitch": 43, "duration": 100, "velocity": 110}, {"time": 143040, "pitch": 50, "duration": 100, "velocity": 100}, {"time": 143160, "pitch": 43, "duration": 100, "velocity": 100}, {"time": 143160, "pitch": 50, "duration": 100, "velocity": 90}, {"time": 143280, "pitch": 43, "duration": 100, "velocity": 100}, {"time": 143280, "pitch": 50, "duration": 100, "velocity": 90}, {"time": 143400, "pitch": 43, "duration": 100, "velocity": 100}, {"time": 143400, "pitch": 50, "duration": 100, "velocity": 90}, {"time": 143520, "pitch": 43, "duration": 100, "velocity": 110}, {"time": 143520, "pitch": 50, "duration": 100, "velocity": 100}, {"time": 143640, "pitch": 43, "duration": 100, "velocity": 100}, {"time": 143640, "pitch": 50, "duration": 100, "velocity": 90}, {"time": 143760, "pitch": 43, "duration": 100, "velocity": 100}, {"time": 143760, "pitch": 50, "duration": 100, "velocity": 90}, {"time": 144240, "pitch": 45, "duration": 100, "velocity": 100}, {"time": 144240, "pitch": 52, "duration": 100, "velocity": 90}, {"time": 144360, "pitch": 45, "duration": 100, "velocity": 100}, {"time": 144360, "pitch": 52, "duration": 100, "velocity": 90}, {"time": 144480, "pitch": 45, "duration": 100, "velocity": 110}, {"time": 144480, "pitch": 52, "duration": 100, "velocity": 100}, {"time": 144600, "pitch": 45, "duration": 100, "velocity": 100}, {"time": 144600, "pitch": 52, "duration": 100, "velocity": 90}, {"time": 144720, "pitch": 45, "duration": 100, "velocity": 100}, {"time": 144720, "pitch": 52, "duration": 100, "velocity": 90}, {"time": 144840, "pitch": 45, "duration": 100, "velocity": 100}, {"time": 144840, "pitch": 52, "duration": 100, "velocity": 90}, {"time": 144960, "pitch": 45, "duration": 100, "velocity": 110}, {"time": 144960, "pitch": 52, "duration": 100, "velocity": 100}, {"time": 145080, "pitch": 45, "duration": 100, "velocity": 100}, {"time": 145080, "pitch": 52, "duration": 100, "velocity": 90}, {"time": 145200, "pitch": 45, "duration": 100, "velocity": 100}, {"time": 145200, "pitch": 52, "duration": 100, "velocity": 90}, {"time": 145320, "pitch": 45, "duration": 100, "velocity": 100}, {"time": 145320, "pitch": 52, "duration": 100, "velocity": 90}, {"time": 150000, "pitch": 47, "duration": 100, "velocity": 100}, {"time": 150000, "pitch": 54, "duration": 100, "velocity": 90}, {"time": 150120, "pitch": 47, "duration": 100, "velocity": 100}, {"time": 150120, "pitch": 54, "duration": 100, "velocity": 90}, {"time": 150240, "pitch": 47, "duration": 100, "velocity": 110}, {"time": 150240, "pitch": 54, "duration": 100, "velocity": 100}, {"time": 150360, "pitch": 47, "duration": 100, "velocity": 100}, {"time": 150360, "pitch": 54, "duration": 100, "velocity": 90}, {"time": 150480, "pitch": 47, "duration": 100, "velocity": 100}, {"time": 150480, "pitch": 54, "duration": 100, "velocity": 90}, {"time": 150600, "pitch": 47, "duration": 100, "velocity": 100}, {"time": 150600, "pitch": 54, "duration": 100, "velocity": 90}, {"time": 150720, "pitch": 47, "duration": 100, "velocity": 110}, {"time": 150720, "pitch": 54, "duration": 100, "velocity": 100}, {"time": 150840, "pitch": 47, "duration": 100, "velocity": 100}, {"time": 150840, "pitch": 54, "duration": 100, "velocity": 90}, {"time": 150960, "pitch": 47, "duration": 100, "velocity": 100}, {"time": 150960, "pitch": 54, "duration": 100, "velocity": 90}, {"time": 151080, "pitch": 47, "duration": 100, "velocity": 100}, {"time": 151080, "pitch": 54, "duration": 100, "velocity": 90}, {"time": 151200, "pitch": 47, "duration": 100, "velocity": 110}, {"time": 151200, "pitch": 54, "duration": 100, "velocity": 100}, {"time": 151320, "pitch": 47, "duration": 100, "velocity": 100}, {"time": 151320, "pitch": 54, "duration": 100, "velocity": 90}, {"time": 151440, "pitch": 47, "duration": 100, "velocity": 100}, {"time": 151440, "pitch": 54, "duration": 100, "velocity": 90}, {"time": 151920, "pitch": 45, "duration": 100, "velocity": 100}, {"time": 151920, "pitch": 52, "duration": 100, "velocity": 90}, {"time": 152040, "pitch": 45, "duration": 100, "velocity": 100}, {"time": 152040, "pitch": 52, "duration": 100, "velocity": 90}, {"time": 152160, "pitch": 45, "duration": 100, "velocity": 110}, {"time": 152160, "pitch": 52, "duration": 100, "velocity": 100}, {"time": 152280, "pitch": 45, "duration": 100, "velocity": 100}, {"time": 152280, "pitch": 52, "duration": 100, "velocity": 90}, {"time": 152400, "pitch": 45, "duration": 100, "velocity": 100}, {"time": 152400, "pitch": 52, "duration": 100, "velocity": 90}, {"time": 152520, "pitch": 45, "duration": 100, "velocity": 100}, {"time": 152520, "pitch": 52, "duration": 100, "velocity": 90}, {"time": 153840, "pitch": 43, "duration": 100, "velocity": 100}, {"time": 153840, "pitch": 50, "duration": 100, "velocity": 90}, {"time": 153960, "pitch": 43, "duration": 100, "velocity": 100}, {"time": 153960, "pitch": 50, "duration": 100, "velocity": 90}, {"time": 154080, "pitch": 43, "duration": 100, "velocity": 110}, {"time": 154080, "pitch": 50, "duration": 100, "velocity": 100}, {"time": 154200, "pitch": 43, "duration": 100, "velocity": 100}, {"time": 154200, "pitch": 50, "duration": 100, "velocity": 90}, {"time": 154320, "pitch": 43, "duration": 100, "velocity": 100}, {"time": 154320, "pitch": 50, "duration": 100, "velocity": 90}, {"time": 154440, "pitch": 43, "duration": 100, "velocity": 100}, {"time": 154440, "pitch": 50, "duration": 100, "velocity": 90}, {"time": 154560, "pitch": 43, "duration": 100, "velocity": 110}, {"time": 154560, "pitch": 50, "duration": 100, "velocity": 100}, {"time": 154680, "pitch": 43, "duration": 100, "velocity": 100}, {"time": 154680, "pitch": 50, "duration": 100, "velocity": 90}, {"time": 154800, "pitch": 43, "duration": 100, "velocity": 100}, {"time": 154800, "pitch": 50, "duration": 100, "velocity": 90}, {"time": 154920, "pitch": 43, "duration": 100, "velocity": 100}, {"time": 154920, "pitch": 50, "duration": 100, "velocity": 90}, {"time": 155040, "pitch": 43, "duration": 100, "velocity": 110}, {"time": 155040, "pitch": 50, "duration": 100, "velocity": 100}, {"time": 155160, "pitch": 43, "duration": 100, "velocity": 100}, {"time": 155160, "pitch": 50, "duration": 100, "velocity": 90}, {"time": 155280, "pitch": 43, "duration": 100, "velocity": 100}, {"time": 155280, "pitch": 50, "duration": 100, "velocity": 90}, {"time": 155760, "pitch": 45, "duration": 100, "velocity": 100}, {"time": 155760, "pitch": 52, "duration": 100, "velocity": 90}, {"time": 155880, "pitch": 45, "duration": 100, "velocity": 100}, {"time": 155880, "pitch": 52, "duration": 100, "velocity": 90}, {"time": 156000, "pitch": 45, "duration": 100, "velocity": 110}, {"time": 156000, "pitch": 52, "duration": 100, "velocity": 100}, {"time": 156120, "pitch": 45, "duration": 100, "velocity": 100}, {"time": 156120, "pitch": 52, "duration": 100, "velocity": 90}, {"time": 156240, "pitch": 45, "duration": 100, "velocity": 100}, {"time": 156240, "pitch": 52, "duration": 100, "velocity": 90}, {"time": 156360, "pitch": 45, "duration": 100, "velocity": 100}, {"time": 156360, "pitch": 52, "duration": 100, "velocity": 90}, {"time": 157680, "pitch": 47, "duration": 100, "velocity": 100}, {"time": 157680, "pitch": 54, "duration": 100, "velocity": 90}, {"time": 157800, "pitch": 47, "duration": 100, "velocity": 100}, {"time": 157800, "pitch": 54, "duration": 100, "velocity": 90}, {"time": 157920, "pitch": 47, "duration": 100, "velocity": 110}, {"time": 157920, "pitch": 54, "duration": 100, "velocity": 100}, {"time": 158040, "pitch": 47, "duration": 100, "velocity": 100}, {"time": 158040, "pitch": 54, "duration": 100, "velocity": 90}, {"time": 158160, "pitch": 47, "duration": 100, "velocity": 100}, {"time": 158160, "pitch": 54, "duration": 100, "velocity": 90}, {"time": 158280, "pitch": 47, "duration": 100, "velocity": 100}, {"time": 158280, "pitch": 54, "duration": 100, "velocity": 90}, {"time": 158400, "pitch": 47, "duration": 100, "velocity": 110}, {"time": 158400, "pitch": 54, "duration": 100, "velocity": 100}, {"time": 158520, "pitch": 47, "duration": 100, "velocity": 100}, {"time": 158520, "pitch": 54, "duration": 100, "velocity": 90}, {"time": 158640, "pitch": 47, "duration": 100, "velocity": 100}, {"time": 158640, "pitch": 54, "duration": 100, "velocity": 90}, {"time": 158760, "pitch": 47, "duration": 100, "velocity": 100}, {"time": 158760, "pitch": 54, "duration": 100, "velocity": 90}, {"time": 158880, "pitch": 47, "duration": 100, "velocity": 110}, {"time": 158880, "pitch": 54, "duration": 100, "velocity": 100}, {"time": 159000, "pitch": 47, "duration": 100, "velocity": 100}, {"time": 159000, "pitch": 54, "duration": 100, "velocity": 90}, {"time": 159120, "pitch": 47, "duration": 100, "velocity": 100}, {"time": 159120, "pitch": 54, "duration": 100, "velocity": 90}, {"time": 159600, "pitch": 45, "duration": 100, "velocity": 100}, {"time": 159600, "pitch": 52, "duration": 100, "velocity": 90}, {"time": 159720, "pitch": 45, "duration": 100, "velocity": 100}, {"time": 159720, "pitch": 52, "duration": 100, "velocity": 90}, {"time": 159840, "pitch": 45, "duration": 100, "velocity": 110}, {"time": 159840, "pitch": 52, "duration": 100, "velocity": 100}, {"time": 159960, "pitch": 45, "duration": 100, "velocity": 100}, {"time": 159960, "pitch": 52, "duration": 100, "velocity": 90}, {"time": 160080, "pitch": 45, "duration": 100, "velocity": 100}, {"time": 160080, "pitch": 52, "duration": 100, "velocity": 90}, {"time": 160200, "pitch": 45, "duration": 100, "velocity": 100}, {"time": 160200, "pitch": 52, "duration": 100, "velocity": 90}, {"time": 161520, "pitch": 43, "duration": 100, "velocity": 100}, {"time": 161520, "pitch": 50, "duration": 100, "velocity": 90}, {"time": 161640, "pitch": 43, "duration": 100, "velocity": 100}, {"time": 161640, "pitch": 50, "duration": 100, "velocity": 90}, {"time": 161760, "pitch": 43, "duration": 100, "velocity": 110}, {"time": 161760, "pitch": 50, "duration": 100, "velocity": 100}, {"time": 161880, "pitch": 43, "duration": 100, "velocity": 100}, {"time": 161880, "pitch": 50, "duration": 100, "velocity": 90}, {"time": 162000, "pitch": 43, "duration": 100, "velocity": 100}, {"time": 162000, "pitch": 50, "duration": 100, "velocity": 90}, {"time": 162120, "pitch": 43, "duration": 100, "velocity": 100}, {"time": 162120, "pitch": 50, "duration": 100, "velocity": 90}, {"time": 162240, "pitch": 43, "duration": 100, "velocity": 110}, {"time": 162240, "pitch": 50, "duration": 100, "velocity": 100}, {"time": 162360, "pitch": 43, "duration": 100, "velocity": 100}, {"time": 162360, "pitch": 50, "duration": 100, "velocity": 90}, {"time": 162480, "pitch": 43, "duration": 100, "velocity": 100}, {"time": 162480, "pitch": 50, "duration": 100, "velocity": 90}, {"time": 162600, "pitch": 43, "duration": 100, "velocity": 100}, {"time": 162600, "pitch": 50, "duration": 100, "velocity": 90}, {"time": 162720, "pitch": 43, "duration": 100, "velocity": 110}, {"time": 162720, "pitch": 50, "duration": 100, "velocity": 100}, {"time": 162840, "pitch": 43, "duration": 100, "velocity": 100}, {"time": 162840, "pitch": 50, "duration": 100, "velocity": 90}, {"time": 162960, "pitch": 43, "duration": 100, "velocity": 100}, {"time": 162960, "pitch": 50, "duration": 100, "velocity": 90}, {"time": 163440, "pitch": 45, "duration": 100, "velocity": 100}, {"time": 163440, "pitch": 52, "duration": 100, "velocity": 90}, {"time": 163560, "pitch": 45, "duration": 100, "velocity": 100}, {"time": 163560, "pitch": 52, "duration": 100, "velocity": 90}, {"time": 163680, "pitch": 45, "duration": 100, "velocity": 110}, {"time": 163680, "pitch": 52, "duration": 100, "velocity": 100}, {"time": 163800, "pitch": 45, "duration": 100, "velocity": 100}, {"time": 163800, "pitch": 52, "duration": 100, "velocity": 90}, {"time": 163920, "pitch": 45, "duration": 100, "velocity": 100}, {"time": 163920, "pitch": 52, "duration": 100, "velocity": 90}, {"time": 164040, "pitch": 45, "duration": 100, "velocity": 100}, {"time": 164040, "pitch": 52, "duration": 100, "velocity": 90}, {"time": 164160, "pitch": 45, "duration": 100, "velocity": 110}, {"time": 164160, "pitch": 52, "duration": 100, "velocity": 100}, {"time": 164280, "pitch": 45, "duration": 100, "velocity": 100}, {"time": 164280, "pitch": 52, "duration": 100, "velocity": 90}, {"time": 164400, "pitch": 45, "duration": 100, "velocity": 100}, {"time": 164400, "pitch": 52, "duration": 100, "velocity": 90}, {"time": 164520, "pitch": 45, "duration": 100, "velocity": 100}, {"time": 164520, "pitch": 52, "duration": 100, "velocity": 90}, {"time": 165360, "pitch": 43, "duration": 100, "velocity": 100}, {"time": 165360, "pitch": 50, "duration": 100, "velocity": 90}, {"time": 165480, "pitch": 43, "duration": 100, "velocity": 100}, {"time": 165480, "pitch": 50, "duration": 100, "velocity": 90}, {"time": 165600, "pitch": 43, "duration": 100, "velocity": 110}, {"time": 165600, "pitch": 50, "duration": 100, "velocity": 100}, {"time": 165720, "pitch": 43, "duration": 100, "velocity": 100}, {"time": 165720, "pitch": 50, "duration": 100, "velocity": 90}, {"time": 165840, "pitch": 43, "duration": 100, "velocity": 100}, {"time": 165840, "pitch": 50, "duration": 100, "velocity": 90}, {"time": 165960, "pitch": 43, "duration": 100, "velocity": 100}, {"time": 165960, "pitch": 50, "duration": 100, "velocity": 90}, {"time": 166080, "pitch": 43, "duration": 100, "velocity": 110}, {"time": 166080, "pitch": 50, "duration": 100, "velocity": 100}, {"time": 166200, "pitch": 43, "duration": 100, "velocity": 100}, {"time": 166200, "pitch": 50, "duration": 100, "velocity": 90}, {"time": 166320, "pitch": 43, "duration": 100, "velocity": 100}, {"time": 166320, "pitch": 50, "duration": 100, "velocity": 90}, {"time": 166440, "pitch": 43, "duration": 100, "velocity": 100}, {"time": 166440, "pitch": 50, "duration": 100, "velocity": 90}, {"time": 166560, "pitch": 43, "duration": 100, "velocity": 110}, {"time": 166560, "pitch": 50, "duration": 100, "velocity": 100}, {"time": 166680, "pitch": 43, "duration": 100, "velocity": 100}, {"time": 166680, "pitch": 50, "duration": 100, "velocity": 90}, {"time": 166800, "pitch": 43, "duration": 100, "velocity": 100}, {"time": 166800, "pitch": 50, "duration": 100, "velocity": 90}, {"time": 167280, "pitch": 45, "duration": 100, "velocity": 100}, {"time": 167280, "pitch": 52, "duration": 100, "velocity": 90}, {"time": 167400, "pitch": 45, "duration": 100, "velocity": 100}, {"time": 167400, "pitch": 52, "duration": 100, "velocity": 90}, {"time": 167520, "pitch": 45, "duration": 100, "velocity": 110}, {"time": 167520, "pitch": 52, "duration": 100, "velocity": 100}, {"time": 167640, "pitch": 45, "duration": 100, "velocity": 100}, {"time": 167640, "pitch": 52, "duration": 100, "velocity": 90}, {"time": 167760, "pitch": 45, "duration": 100, "velocity": 100}, {"time": 167760, "pitch": 52, "duration": 100, "velocity": 90}, {"time": 167880, "pitch": 45, "duration": 100, "velocity": 100}, {"time": 167880, "pitch": 52, "duration": 100, "velocity": 90}, {"time": 168000, "pitch": 45, "duration": 100, "velocity": 110}, {"time": 168000, "pitch": 52, "duration": 100, "velocity": 100}, {"time": 168120, "pitch": 45, "duration": 100, "velocity": 100}, {"time": 168120, "pitch": 52, "duration": 100, "velocity": 90}, {"time": 168240, "pitch": 45, "duration": 100, "velocity": 100}, {"time": 168240, "pitch": 52, "duration": 100, "velocity": 90}, {"time": 168360, "pitch": 45, "duration": 100, "velocity": 100}, {"time": 168360, "pitch": 52, "duration": 100, "velocity": 90}, {"time": 168480, "pitch": 45, "duration": 100, "velocity": 110}, {"time": 168480, "pitch": 52, "duration": 100, "velocity": 100}, {"time": 168600, "pitch": 45, "duration": 100, "velocity": 100}, {"time": 168600, "pitch": 52, "duration": 100, "velocity": 90}, {"time": 168720, "pitch": 45, "duration": 100, "velocity": 100}, {"time": 168720, "pitch": 52, "duration": 100, "velocity": 90}, {"time": 169200, "pitch": 46, "duration": 100, "velocity": 100}, {"time": 169200, "pitch": 54, "duration": 100, "velocity": 90}, {"time": 169320, "pitch": 46, "duration": 100, "velocity": 100}, {"time": 169320, "pitch": 54, "duration": 100, "velocity": 90}, {"time": 169440, "pitch": 46, "duration": 100, "velocity": 110}, {"time": 169440, "pitch": 54, "duration": 100, "velocity": 100}, {"time": 169560, "pitch": 46, "duration": 100, "velocity": 100}, {"time": 169560, "pitch": 54, "duration": 100, "velocity": 90}, {"time": 169680, "pitch": 46, "duration": 100, "velocity": 100}, {"time": 169680, "pitch": 54, "duration": 100, "velocity": 90}, {"time": 169800, "pitch": 46, "duration": 100, "velocity": 100}, {"time": 169800, "pitch": 54, "duration": 100, "velocity": 90}, {"time": 169920, "pitch": 46, "duration": 100, "velocity": 110}, {"time": 169920, "pitch": 54, "duration": 100, "velocity": 100}, {"time": 170040, "pitch": 46, "duration": 100, "velocity": 100}, {"time": 170040, "pitch": 54, "duration": 100, "velocity": 90}, {"time": 170160, "pitch": 46, "duration": 100, "velocity": 100}, {"time": 170160, "pitch": 54, "duration": 100, "velocity": 90}, {"time": 170280, "pitch": 46, "duration": 100, "velocity": 100}, {"time": 170280, "pitch": 54, "duration": 100, "velocity": 90}, {"time": 170400, "pitch": 46, "duration": 100, "velocity": 110}, {"time": 170400, "pitch": 54, "duration": 100, "velocity": 100}, {"time": 170520, "pitch": 46, "duration": 100, "velocity": 100}, {"time": 170520, "pitch": 54, "duration": 100, "velocity": 90}, {"time": 170640, "pitch": 46, "duration": 100, "velocity": 100}, {"time": 170640, "pitch": 54, "duration": 100, "velocity": 90}, {"time": 171120, "pitch": 42, "duration": 100, "velocity": 100}, {"time": 171120, "pitch": 49, "duration": 100, "velocity": 90}, {"time": 171240, "pitch": 42, "duration": 100, "velocity": 100}, {"time": 171240, "pitch": 49, "duration": 100, "velocity": 90}, {"time": 171360, "pitch": 42, "duration": 100, "velocity": 110}, {"time": 171360, "pitch": 49, "duration": 100, "velocity": 100}, {"time": 171480, "pitch": 42, "duration": 100, "velocity": 100}, {"time": 171480, "pitch": 49, "duration": 100, "velocity": 90}, {"time": 171600, "pitch": 42, "duration": 100, "velocity": 100}, {"time": 171600, "pitch": 49, "duration": 100, "velocity": 90}, {"time": 171720, "pitch": 42, "duration": 100, "velocity": 100}, {"time": 171720, "pitch": 49, "duration": 100, "velocity": 90}, {"time": 171840, "pitch": 42, "duration": 100, "velocity": 110}, {"time": 171840, "pitch": 49, "duration": 100, "velocity": 100}, {"time": 171960, "pitch": 42, "duration": 100, "velocity": 100}, {"time": 171960, "pitch": 49, "duration": 100, "velocity": 90}, {"time": 172080, "pitch": 42, "duration": 100, "velocity": 100}, {"time": 172080, "pitch": 49, "duration": 100, "velocity": 90}, {"time": 172200, "pitch": 42, "duration": 100, "velocity": 100}, {"time": 172200, "pitch": 49, "duration": 100, "velocity": 90}, {"time": 174960, "pitch": 43, "duration": 100, "velocity": 100}, {"time": 174960, "pitch": 50, "duration": 100, "velocity": 90}, {"time": 175080, "pitch": 43, "duration": 100, "velocity": 100}, {"time": 175080, "pitch": 50, "duration": 100, "velocity": 90}, {"time": 175200, "pitch": 43, "duration": 100, "velocity": 110}, {"time": 175200, "pitch": 50, "duration": 100, "velocity": 100}, {"time": 175320, "pitch": 43, "duration": 100, "velocity": 100}, {"time": 175320, "pitch": 50, "duration": 100, "velocity": 90}, {"time": 175440, "pitch": 43, "duration": 100, "velocity": 100}, {"time": 175440, "pitch": 50, "duration": 100, "velocity": 90}, {"time": 175560, "pitch": 43, "duration": 100, "velocity": 100}, {"time": 175560, "pitch": 50, "duration": 100, "velocity": 90}, {"time": 175680, "pitch": 43, "duration": 100, "velocity": 110}, {"time": 175680, "pitch": 50, "duration": 100, "velocity": 100}, {"time": 175800, "pitch": 43, "duration": 100, "velocity": 100}, {"time": 175800, "pitch": 50, "duration": 100, "velocity": 90}, {"time": 175920, "pitch": 43, "duration": 100, "velocity": 100}, {"time": 175920, "pitch": 50, "duration": 100, "velocity": 90}, {"time": 176040, "pitch": 43, "duration": 100, "velocity": 100}, {"time": 176040, "pitch": 50, "duration": 100, "velocity": 90}, {"time": 176160, "pitch": 43, "duration": 100, "velocity": 110}, {"time": 176160, "pitch": 50, "duration": 100, "velocity": 100}, {"time": 176280, "pitch": 43, "duration": 100, "velocity": 100}, {"time": 176280, "pitch": 50, "duration": 100, "velocity": 90}, {"time": 176400, "pitch": 43, "duration": 100, "velocity": 100}, {"time": 176400, "pitch": 50, "duration": 100, "velocity": 90}, {"time": 176880, "pitch": 45, "duration": 100, "velocity": 100}, {"time": 176880, "pitch": 52, "duration": 100, "velocity": 90}, {"time": 177000, "pitch": 45, "duration": 100, "velocity": 100}, {"time": 177000, "pitch": 52, "duration": 100, "velocity": 90}, {"time": 177120, "pitch": 45, "duration": 100, "velocity": 110}, {"time": 177120, "pitch": 52, "duration": 100, "velocity": 100}, {"time": 177240, "pitch": 45, "duration": 100, "velocity": 100}, {"time": 177240, "pitch": 52, "duration": 100, "velocity": 90}, {"time": 177360, "pitch": 45, "duration": 100, "velocity": 100}, {"time": 177360, "pitch": 52, "duration": 100, "velocity": 90}, {"time": 177480, "pitch": 45, "duration": 100, "velocity": 100}, {"time": 177480, "pitch": 52, "duration": 100, "velocity": 90}, {"time": 177600, "pitch": 45, "duration": 100, "velocity": 110}, {"time": 177600, "pitch": 52, "duration": 100, "velocity": 100}, {"time": 177720, "pitch": 45, "duration": 100, "velocity": 100}, {"time": 177720, "pitch": 52, "duration": 100, "velocity": 90}, {"time": 177840, "pitch": 45, "duration": 100, "velocity": 100}, {"time": 177840, "pitch": 52, "duration": 100, "velocity": 90}, {"time": 177960, "pitch": 45, "duration": 100, "velocity": 100}, {"time": 177960, "pitch": 52, "duration": 100, "velocity": 90}, {"time": 178080, "pitch": 45, "duration": 100, "velocity": 110}, {"time": 178080, "pitch": 52, "duration": 100, "velocity": 100}, {"time": 178200, "pitch": 45, "duration": 100, "velocity": 100}, {"time": 178200, "pitch": 52, "duration": 100, "velocity": 90}, {"time": 180720, "pitch": 43, "duration": 100, "velocity": 100}, {"time": 180720, "pitch": 50, "duration": 100, "velocity": 90}, {"time": 180840, "pitch": 43, "duration": 100, "velocity": 100}, {"time": 180840, "pitch": 50, "duration": 100, "velocity": 90}, {"time": 180960, "pitch": 43, "duration": 100, "velocity": 110}, {"time": 180960, "pitch": 50, "duration": 100, "velocity": 100}, {"time": 181080, "pitch": 43, "duration": 100, "velocity": 100}, {"time": 181080, "pitch": 50, "duration": 100, "velocity": 90}, {"time": 181200, "pitch": 43, "duration": 100, "velocity": 100}, {"time": 181200, "pitch": 50, "duration": 100, "velocity": 90}, {"time": 181320, "pitch": 43, "duration": 100, "velocity": 100}, {"time": 181320, "pitch": 50, "duration": 100, "velocity": 90}, {"time": 181440, "pitch": 43, "duration": 100, "velocity": 110}, {"time": 181440, "pitch": 50, "duration": 100, "velocity": 100}, {"time": 181560, "pitch": 43, "duration": 100, "velocity": 100}, {"time": 181560, "pitch": 50, "duration": 100, "velocity": 90}, {"time": 181680, "pitch": 43, "duration": 100, "velocity": 100}, {"time": 181680, "pitch": 50, "duration": 100, "velocity": 90}, {"time": 181800, "pitch": 43, "duration": 100, "velocity": 100}, {"time": 181800, "pitch": 50, "duration": 100, "velocity": 90}, {"time": 181920, "pitch": 43, "duration": 100, "velocity": 110}, {"time": 181920, "pitch": 50, "duration": 100, "velocity": 100}, {"time": 182040, "pitch": 43, "duration": 100, "velocity": 100}, {"time": 182040, "pitch": 50, "duration": 100, "velocity": 90}, {"time": 182160, "pitch": 43, "duration": 100, "velocity": 100}, {"time": 182160, "pitch": 50, "duration": 100, "velocity": 90}, {"time": 182640, "pitch": 43, "duration": 100, "velocity": 100}, {"time": 182640, "pitch": 50, "duration": 100, "velocity": 90}, {"time": 182760, "pitch": 43, "duration": 100, "velocity": 100}, {"time": 182760, "pitch": 50, "duration": 100, "velocity": 90}, {"time": 182880, "pitch": 43, "duration": 100, "velocity": 110}, {"time": 182880, "pitch": 50, "duration": 100, "velocity": 100}, {"time": 183000, "pitch": 43, "duration": 100, "velocity": 100}, {"time": 183000, "pitch": 50, "duration": 100, "velocity": 90}, {"time": 183120, "pitch": 43, "duration": 100, "velocity": 100}, {"time": 183120, "pitch": 50, "duration": 100, "velocity": 90}, {"time": 183240, "pitch": 43, "duration": 100, "velocity": 100}, {"time": 183240, "pitch": 50, "duration": 100, "velocity": 90}, {"time": 183360, "pitch": 43, "duration": 100, "velocity": 110}, {"time": 183360, "pitch": 50, "duration": 100, "velocity": 100}, {"time": 183480, "pitch": 43, "duration": 100, "velocity": 100}, {"time": 183480, "pitch": 50, "duration": 100, "velocity": 90}, {"time": 183600, "pitch": 43, "duration": 100, "velocity": 100}, {"time": 183600, "pitch": 50, "duration": 100, "velocity": 90}, {"time": 183720, "pitch": 43, "duration": 100, "velocity": 100}, {"time": 183720, "pitch": 50, "duration": 100, "velocity": 90}, {"time": 183840, "pitch": 43, "duration": 100, "velocity": 110}, {"time": 183840, "pitch": 50, "duration": 100, "velocity": 100}, {"time": 183960, "pitch": 43, "duration": 100, "velocity": 100}, {"time": 183960, "pitch": 50, "duration": 100, "velocity": 90}, {"time": 184080, "pitch": 43, "duration": 100, "velocity": 100}, {"time": 184080, "pitch": 50, "duration": 100, "velocity": 90}, {"time": 184560, "pitch": 45, "duration": 100, "velocity": 100}, {"time": 184560, "pitch": 52, "duration": 100, "velocity": 90}, {"time": 184680, "pitch": 45, "duration": 100, "velocity": 100}, {"time": 184680, "pitch": 52, "duration": 100, "velocity": 90}, {"time": 184800, "pitch": 45, "duration": 100, "velocity": 110}, {"time": 184800, "pitch": 52, "duration": 100, "velocity": 100}, {"time": 184920, "pitch": 45, "duration": 100, "velocity": 100}, {"time": 184920, "pitch": 52, "duration": 100, "velocity": 90}, {"time": 185040, "pitch": 45, "duration": 100, "velocity": 100}, {"time": 185040, "pitch": 52, "duration": 100, "velocity": 90}, {"time": 185160, "pitch": 45, "duration": 100, "velocity": 100}, {"time": 185160, "pitch": 52, "duration": 100, "velocity": 90}, {"time": 185280, "pitch": 45, "duration": 100, "velocity": 110}, {"time": 185280, "pitch": 52, "duration": 100, "velocity": 100}, {"time": 185400, "pitch": 45, "duration": 100, "velocity": 100}, {"time": 185400, "pitch": 52, "duration": 100, "velocity": 90}, {"time": 185520, "pitch": 45, "duration": 100, "velocity": 100}, {"time": 185520, "pitch": 52, "duration": 100, "velocity": 90}, {"time": 185640, "pitch": 45, "duration": 100, "velocity": 100}, {"time": 185640, "pitch": 52, "duration": 100, "velocity": 90}, {"time": 219120, "pitch": 43, "duration": 100, "velocity": 100}, {"time": 219120, "pitch": 50, "duration": 100, "velocity": 90}, {"time": 219240, "pitch": 43, "duration": 100, "velocity": 100}, {"time": 219240, "pitch": 50, "duration": 100, "velocity": 90}, {"time": 219360, "pitch": 43, "duration": 100, "velocity": 110}, {"time": 219360, "pitch": 50, "duration": 100, "velocity": 100}, {"time": 219480, "pitch": 43, "duration": 100, "velocity": 100}, {"time": 219480, "pitch": 50, "duration": 100, "velocity": 90}, {"time": 219600, "pitch": 43, "duration": 100, "velocity": 100}, {"time": 219600, "pitch": 50, "duration": 100, "velocity": 90}, {"time": 219720, "pitch": 43, "duration": 100, "velocity": 100}, {"time": 219720, "pitch": 50, "duration": 100, "velocity": 90}, {"time": 219840, "pitch": 43, "duration": 100, "velocity": 110}, {"time": 219840, "pitch": 50, "duration": 100, "velocity": 100}, {"time": 219960, "pitch": 43, "duration": 100, "velocity": 100}, {"time": 219960, "pitch": 50, "duration": 100, "velocity": 90}, {"time": 220080, "pitch": 43, "duration": 100, "velocity": 100}, {"time": 220080, "pitch": 50, "duration": 100, "velocity": 90}, {"time": 220200, "pitch": 43, "duration": 100, "velocity": 100}, {"time": 220200, "pitch": 50, "duration": 100, "velocity": 90}, {"time": 220320, "pitch": 43, "duration": 100, "velocity": 110}, {"time": 220320, "pitch": 50, "duration": 100, "velocity": 100}, {"time": 220440, "pitch": 43, "duration": 100, "velocity": 100}, {"time": 220440, "pitch": 50, "duration": 100, "velocity": 90}, {"time": 220560, "pitch": 43, "duration": 100, "velocity": 100}, {"time": 220560, "pitch": 50, "duration": 100, "velocity": 90}, {"time": 221040, "pitch": 42, "duration": 100, "velocity": 100}, {"time": 221040, "pitch": 49, "duration": 100, "velocity": 90}, {"time": 221160, "pitch": 42, "duration": 100, "velocity": 100}, {"time": 221160, "pitch": 49, "duration": 100, "velocity": 90}, {"time": 221280, "pitch": 42, "duration": 100, "velocity": 110}, {"time": 221280, "pitch": 49, "duration": 100, "velocity": 100}, {"time": 221400, "pitch": 42, "duration": 100, "velocity": 100}, {"time": 221400, "pitch": 49, "duration": 100, "velocity": 90}, {"time": 221520, "pitch": 42, "duration": 100, "velocity": 100}, {"time": 221520, "pitch": 49, "duration": 100, "velocity": 90}, {"time": 221640, "pitch": 42, "duration": 100, "velocity": 100}, {"time": 221640, "pitch": 49, "duration": 100, "velocity": 90}, {"time": 221760, "pitch": 42, "duration": 100, "velocity": 110}, {"time": 221760, "pitch": 49, "duration": 100, "velocity": 100}, {"time": 221880, "pitch": 42, "duration": 100, "velocity": 100}, {"time": 221880, "pitch": 49, "duration": 100, "velocity": 90}, {"time": 222000, "pitch": 42, "duration": 100, "velocity": 100}, {"time": 222000, "pitch": 49, "duration": 100, "velocity": 90}, {"time": 222120, "pitch": 42, "duration": 100, "velocity": 100}, {"time": 222120, "pitch": 49, "duration": 100, "velocity": 90}, {"time": 222240, "pitch": 42, "duration": 100, "velocity": 110}, {"time": 222240, "pitch": 49, "duration": 100, "velocity": 100}, {"time": 222360, "pitch": 42, "duration": 100, "velocity": 100}, {"time": 222360, "pitch": 49, "duration": 100, "velocity": 90}, {"time": 222480, "pitch": 42, "duration": 100, "velocity": 100}, {"time": 222480, "pitch": 49, "duration": 100, "velocity": 90}, {"time": 222960, "pitch": 40, "duration": 100, "velocity": 100}, {"time": 222960, "pitch": 47, "duration": 100, "velocity": 90}, {"time": 223080, "pitch": 40, "duration": 100, "velocity": 100}, {"time": 223080, "pitch": 47, "duration": 100, "velocity": 90}, {"time": 223200, "pitch": 40, "duration": 100, "velocity": 110}, {"time": 223200, "pitch": 47, "duration": 100, "velocity": 100}, {"time": 223320, "pitch": 40, "duration": 100, "velocity": 100}, {"time": 223320, "pitch": 47, "duration": 100, "velocity": 90}, {"time": 223440, "pitch": 40, "duration": 100, "velocity": 100}, {"time": 223440, "pitch": 47, "duration": 100, "velocity": 90}, {"time": 223560, "pitch": 40, "duration": 100, "velocity": 100}, {"time": 223560, "pitch": 47, "duration": 100, "velocity": 90}, {"time": 223680, "pitch": 40, "duration": 100, "velocity": 110}, {"time": 223680, "pitch": 47, "duration": 100, "velocity": 100}, {"time": 223800, "pitch": 40, "duration": 100, "velocity": 100}, {"time": 223800, "pitch": 47, "duration": 100, "velocity": 90}, {"time": 223920, "pitch": 40, "duration": 100, "velocity": 100}, {"time": 223920, "pitch": 47, "duration": 100, "velocity": 90}, {"time": 224040, "pitch": 40, "duration": 100, "velocity": 100}, {"time": 224040, "pitch": 47, "duration": 100, "velocity": 90}, {"time": 224160, "pitch": 40, "duration": 100, "velocity": 110}, {"time": 224160, "pitch": 47, "duration": 100, "velocity": 100}, {"time": 224280, "pitch": 40, "duration": 100, "velocity": 100}, {"time": 224280, "pitch": 47, "duration": 100, "velocity": 90}, {"time": 224400, "pitch": 40, "duration": 100, "velocity": 100}, {"time": 224400, "pitch": 47, "duration": 100, "velocity": 90}, {"time": 224880, "pitch": 42, "duration": 100, "velocity": 100}, {"time": 224880, "pitch": 49, "duration": 100, "velocity": 90}, {"time": 225000, "pitch": 42, "duration": 100, "velocity": 100}, {"time": 225000, "pitch": 49, "duration": 100, "velocity": 90}, {"time": 225120, "pitch": 42, "duration": 100, "velocity": 110}, {"time": 225120, "pitch": 49, "duration": 100, "velocity": 100}, {"time": 225240, "pitch": 42, "duration": 100, "velocity": 100}, {"time": 225240, "pitch": 49, "duration": 100, "velocity": 90}, {"time": 225360, "pitch": 42, "duration": 100, "velocity": 100}, {"time": 225360, "pitch": 49, "duration": 100, "velocity": 90}, {"time": 225480, "pitch": 42, "duration": 100, "velocity": 100}, {"time": 225480, "pitch": 49, "duration": 100, "velocity": 90}, {"time": 225600, "pitch": 42, "duration": 100, "velocity": 110}, {"time": 225600, "pitch": 49, "duration": 100, "velocity": 100}, {"time": 225720, "pitch": 42, "duration": 100, "velocity": 100}, {"time": 225720, "pitch": 49, "duration": 100, "velocity": 90}, {"time": 225840, "pitch": 42, "duration": 100, "velocity": 100}, {"time": 225840, "pitch": 49, "duration": 100, "velocity": 90}, {"time": 225960, "pitch": 42, "duration": 100, "velocity": 100}, {"time": 225960, "pitch": 49, "duration": 100, "velocity": 90}, {"time": 226080, "pitch": 42, "duration": 100, "velocity": 110}, {"time": 226080, "pitch": 49, "duration": 100, "velocity": 100}, {"time": 226200, "pitch": 42, "duration": 100, "velocity": 100}, {"time": 226200, "pitch": 49, "duration": 100, "velocity": 90}, {"time": 226320, "pitch": 42, "duration": 100, "velocity": 100}, {"time": 226320, "pitch": 49, "duration": 100, "velocity": 90}, {"time": 226800, "pitch": 43, "duration": 100, "velocity": 100}, {"time": 226800, "pitch": 50, "duration": 100, "velocity": 90}, {"time": 226920, "pitch": 43, "duration": 100, "velocity": 100}, {"time": 226920, "pitch": 50, "duration": 100, "velocity": 90}, {"time": 227040, "pitch": 43, "duration": 100, "velocity": 110}, {"time": 227040, "pitch": 50, "duration": 100, "velocity": 100}, {"time": 227160, "pitch": 43, "duration": 100, "velocity": 100}, {"time": 227160, "pitch": 50, "duration": 100, "velocity": 90}, {"time": 227280, "pitch": 43, "duration": 100, "velocity": 100}, {"time": 227280, "pitch": 50, "duration": 100, "velocity": 90}, {"time": 227400, "pitch": 43, "duration": 100, "velocity": 100}, {"time": 227400, "pitch": 50, "duration": 100, "velocity": 90}, {"time": 227520, "pitch": 43, "duration": 100, "velocity": 110}, {"time": 227520, "pitch": 50, "duration": 100, "velocity": 100}, {"time": 227640, "pitch": 43, "duration": 100, "velocity": 100}, {"time": 227640, "pitch": 50, "duration": 100, "velocity": 90}, {"time": 227760, "pitch": 43, "duration": 100, "velocity": 100}, {"time": 227760, "pitch": 50, "duration": 100, "velocity": 90}, {"time": 227880, "pitch": 43, "duration": 100, "velocity": 100}, {"time": 227880, "pitch": 50, "duration": 100, "velocity": 90}, {"time": 228000, "pitch": 43, "duration": 100, "velocity": 110}, {"time": 228000, "pitch": 50, "duration": 100, "velocity": 100}, {"time": 228120, "pitch": 43, "duration": 100, "velocity": 100}, {"time": 228120, "pitch": 50, "duration": 100, "velocity": 90}, {"time": 228240, "pitch": 43, "duration": 100, "velocity": 100}, {"time": 228240, "pitch": 50, "duration": 100, "velocity": 90}, {"time": 228720, "pitch": 42, "duration": 100, "velocity": 100}, {"time": 228720, "pitch": 49, "duration": 100, "velocity": 90}, {"time": 228840, "pitch": 42, "duration": 100, "velocity": 100}, {"time": 228840, "pitch": 49, "duration": 100, "velocity": 90}, {"time": 228960, "pitch": 42, "duration": 100, "velocity": 110}, {"time": 228960, "pitch": 49, "duration": 100, "velocity": 100}, {"time": 229080, "pitch": 42, "duration": 100, "velocity": 100}, {"time": 229080, "pitch": 49, "duration": 100, "velocity": 90}, {"time": 229200, "pitch": 42, "duration": 100, "velocity": 100}, {"time": 229200, "pitch": 49, "duration": 100, "velocity": 90}, {"time": 229320, "pitch": 42, "duration": 100, "velocity": 100}, {"time": 229320, "pitch": 49, "duration": 100, "velocity": 90}, {"time": 229440, "pitch": 42, "duration": 100, "velocity": 110}, {"time": 229440, "pitch": 49, "duration": 100, "velocity": 100}, {"time": 229560, "pitch": 42, "duration": 100, "velocity": 100}, {"time": 229560, "pitch": 49, "duration": 100, "velocity": 90}, {"time": 229680, "pitch": 42, "duration": 100, "velocity": 100}, {"time": 229680, "pitch": 49, "duration": 100, "velocity": 90}, {"time": 229800, "pitch": 42, "duration": 100, "velocity": 100}, {"time": 229800, "pitch": 49, "duration": 100, "velocity": 90}, {"time": 229920, "pitch": 42, "duration": 100, "velocity": 110}, {"time": 229920, "pitch": 49, "duration": 100, "velocity": 100}, {"time": 230040, "pitch": 42, "duration": 100, "velocity": 100}, {"time": 230040, "pitch": 49, "duration": 100, "velocity": 90}, {"time": 230160, "pitch": 42, "duration": 100, "velocity": 100}, {"time": 230160, "pitch": 49, "duration": 100, "velocity": 90}, {"time": 230640, "pitch": 40, "duration": 100, "velocity": 100}, {"time": 230640, "pitch": 47, "duration": 100, "velocity": 90}, {"time": 230760, "pitch": 40, "duration": 100, "velocity": 100}, {"time": 230760, "pitch": 47, "duration": 100, "velocity": 90}, {"time": 230880, "pitch": 40, "duration": 100, "velocity": 110}, {"time": 230880, "pitch": 47, "duration": 100, "velocity": 100}, {"time": 231000, "pitch": 40, "duration": 100, "velocity": 100}, {"time": 231000, "pitch": 47, "duration": 100, "velocity": 90}, {"time": 231120, "pitch": 40, "duration": 100, "velocity": 100}, {"time": 231120, "pitch": 47, "duration": 100, "velocity": 90}, {"time": 231240, "pitch": 40, "duration": 100, "velocity": 100}, {"time": 231240, "pitch": 47, "duration": 100, "velocity": 90}, {"time": 231360, "pitch": 40, "duration": 100, "velocity": 110}, {"time": 231360, "pitch": 47, "duration": 100, "velocity": 100}, {"time": 231480, "pitch": 40, "duration": 100, "velocity": 100}, {"time": 231480, "pitch": 47, "duration": 100, "velocity": 90}, {"time": 231600, "pitch": 40, "duration": 100, "velocity": 100}, {"time": 231600, "pitch": 47, "duration": 100, "velocity": 90}, {"time": 231720, "pitch": 40, "duration": 100, "velocity": 100}, {"time": 231720, "pitch": 47, "duration": 100, "velocity": 90}, {"time": 231840, "pitch": 40, "duration": 100, "velocity": 110}, {"time": 231840, "pitch": 47, "duration": 100, "velocity": 100}, {"time": 231960, "pitch": 40, "duration": 100, "velocity": 100}, {"time": 231960, "pitch": 47, "duration": 100, "velocity": 90}, {"time": 232080, "pitch": 40, "duration": 100, "velocity": 100}, {"time": 232080, "pitch": 47, "duration": 100, "velocity": 90}, {"time": 232560, "pitch": 42, "duration": 100, "velocity": 100}, {"time": 232560, "pitch": 49, "duration": 100, "velocity": 90}, {"time": 232680, "pitch": 42, "duration": 100, "velocity": 100}, {"time": 232680, "pitch": 49, "duration": 100, "velocity": 90}, {"time": 232800, "pitch": 42, "duration": 100, "velocity": 110}, {"time": 232800, "pitch": 49, "duration": 100, "velocity": 100}, {"time": 232920, "pitch": 42, "duration": 100, "velocity": 100}, {"time": 232920, "pitch": 49, "duration": 100, "velocity": 90}, {"time": 233040, "pitch": 42, "duration": 100, "velocity": 100}, {"time": 233040, "pitch": 49, "duration": 100, "velocity": 90}, {"time": 234480, "pitch": 47, "duration": 100, "velocity": 100}, {"time": 234480, "pitch": 54, "duration": 100, "velocity": 90}, {"time": 234600, "pitch": 47, "duration": 100, "velocity": 100}, {"time": 234600, "pitch": 54, "duration": 100, "velocity": 90}, {"time": 234720, "pitch": 47, "duration": 100, "velocity": 110}, {"time": 234720, "pitch": 54, "duration": 100, "velocity": 100}, {"time": 234840, "pitch": 47, "duration": 100, "velocity": 100}, {"time": 234840, "pitch": 54, "duration": 100, "velocity": 90}, {"time": 234960, "pitch": 47, "duration": 100, "velocity": 100}, {"time": 234960, "pitch": 54, "duration": 100, "velocity": 90}, {"time": 235080, "pitch": 47, "duration": 100, "velocity": 100}, {"time": 235080, "pitch": 54, "duration": 100, "velocity": 90}, {"time": 235200, "pitch": 47, "duration": 100, "velocity": 110}, {"time": 235200, "pitch": 54, "duration": 100, "velocity": 100}, {"time": 235320, "pitch": 47, "duration": 100, "velocity": 100}, {"time": 235320, "pitch": 54, "duration": 100, "velocity": 90}, {"time": 235440, "pitch": 47, "duration": 100, "velocity": 100}, {"time": 235440, "pitch": 54, "duration": 100, "velocity": 90}, {"time": 235560, "pitch": 47, "duration": 100, "velocity": 100}, {"time": 235560, "pitch": 54, "duration": 100, "velocity": 90}, {"time": 235680, "pitch": 47, "duration": 100, "velocity": 110}, {"time": 235680, "pitch": 54, "duration": 100, "velocity": 100}, {"time": 235800, "pitch": 47, "duration": 100, "velocity": 100}, {"time": 235800, "pitch": 54, "duration": 100, "velocity": 90}, {"time": 235920, "pitch": 47, "duration": 100, "velocity": 100}, {"time": 235920, "pitch": 54, "duration": 100, "velocity": 90}, {"time": 236400, "pitch": 47, "duration": 100, "velocity": 100}, {"time": 236400, "pitch": 52, "duration": 100, "velocity": 90}, {"time": 236520, "pitch": 47, "duration": 100, "velocity": 100}, {"time": 236520, "pitch": 52, "duration": 100, "velocity": 90}, {"time": 236640, "pitch": 47, "duration": 100, "velocity": 110}, {"time": 236640, "pitch": 52, "duration": 100, "velocity": 100}, {"time": 236760, "pitch": 47, "duration": 100, "velocity": 100}, {"time": 236760, "pitch": 52, "duration": 100, "velocity": 90}, {"time": 236880, "pitch": 47, "duration": 100, "velocity": 100}, {"time": 236880, "pitch": 52, "duration": 100, "velocity": 90}, {"time": 237000, "pitch": 47, "duration": 100, "velocity": 100}, {"time": 237000, "pitch": 52, "duration": 100, "velocity": 90}, {"time": 237120, "pitch": 47, "duration": 100, "velocity": 110}, {"time": 237120, "pitch": 52, "duration": 100, "velocity": 100}, {"time": 237240, "pitch": 47, "duration": 100, "velocity": 100}, {"time": 237240, "pitch": 52, "duration": 100, "velocity": 90}, {"time": 237360, "pitch": 47, "duration": 100, "velocity": 100}, {"time": 237360, "pitch": 52, "duration": 100, "velocity": 90}, {"time": 237480, "pitch": 47, "duration": 100, "velocity": 100}, {"time": 237480, "pitch": 52, "duration": 100, "velocity": 90}, {"time": 239280, "pitch": 47, "duration": 100, "velocity": 100}, {"time": 239280, "pitch": 54, "duration": 100, "velocity": 90}, {"time": 239400, "pitch": 47, "duration": 100, "velocity": 100}, {"time": 239400, "pitch": 54, "duration": 100, "velocity": 90}, {"time": 239520, "pitch": 47, "duration": 100, "velocity": 110}, {"time": 239520, "pitch": 54, "duration": 100, "velocity": 100}, {"time": 239640, "pitch": 47, "duration": 100, "velocity": 100}, {"time": 239640, "pitch": 54, "duration": 100, "velocity": 90}, {"time": 239760, "pitch": 47, "duration": 100, "velocity": 100}, {"time": 239760, "pitch": 54, "duration": 100, "velocity": 90}, {"time": 239880, "pitch": 47, "duration": 100, "velocity": 100}, {"time": 239880, "pitch": 54, "duration": 100, "velocity": 90}, {"time": 240000, "pitch": 47, "duration": 100, "velocity": 110}, {"time": 240000, "pitch": 54, "duration": 100, "velocity": 100}, {"time": 240120, "pitch": 47, "duration": 100, "velocity": 100}, {"time": 240120, "pitch": 54, "duration": 100, "velocity": 90}, {"time": 240240, "pitch": 47, "duration": 100, "velocity": 100}, {"time": 240240, "pitch": 54, "duration": 100, "velocity": 90}, {"time": 240360, "pitch": 47, "duration": 100, "velocity": 100}, {"time": 240360, "pitch": 54, "duration": 100, "velocity": 90}, {"time": 240480, "pitch": 47, "duration": 100, "velocity": 110}, {"time": 240480, "pitch": 54, "duration": 100, "velocity": 100}, {"time": 240600, "pitch": 47, "duration": 100, "velocity": 100}, {"time": 240600, "pitch": 54, "duration": 100, "velocity": 90}, {"time": 240720, "pitch": 47, "duration": 100, "velocity": 100}, {"time": 240720, "pitch": 54, "duration": 100, "velocity": 90}, {"time": 241200, "pitch": 47, "duration": 100, "velocity": 100}, {"time": 241200, "pitch": 52, "duration": 100, "velocity": 90}, {"time": 241320, "pitch": 47, "duration": 100, "velocity": 100}, {"time": 241320, "pitch": 52, "duration": 100, "velocity": 90}, {"time": 241440, "pitch": 47, "duration": 100, "velocity": 110}, {"time": 241440, "pitch": 52, "duration": 100, "velocity": 100}, {"time": 241560, "pitch": 47, "duration": 100, "velocity": 100}, {"time": 241560, "pitch": 52, "duration": 100, "velocity": 90}, {"time": 241680, "pitch": 47, "duration": 100, "velocity": 100}, {"time": 241680, "pitch": 52, "duration": 100, "velocity": 90}, {"time": 241800, "pitch": 47, "duration": 100, "velocity": 100}, {"time": 241800, "pitch": 52, "duration": 100, "velocity": 90}, {"time": 241920, "pitch": 47, "duration": 100, "velocity": 110}, {"time": 241920, "pitch": 52, "duration": 100, "velocity": 100}, {"time": 242040, "pitch": 47, "duration": 100, "velocity": 100}, {"time": 242040, "pitch": 52, "duration": 100, "velocity": 90}, {"time": 242160, "pitch": 47, "duration": 100, "velocity": 100}, {"time": 242160, "pitch": 52, "duration": 100, "velocity": 90}, {"time": 242280, "pitch": 47, "duration": 100, "velocity": 100}, {"time": 242280, "pitch": 52, "duration": 100, "velocity": 90}, {"time": 244800, "pitch": 47, "duration": 100, "velocity": 100}, {"time": 244800, "pitch": 54, "duration": 100, "velocity": 90}, {"time": 244920, "pitch": 47, "duration": 100, "velocity": 100}, {"time": 244920, "pitch": 54, "duration": 100, "velocity": 90}, {"time": 245040, "pitch": 47, "duration": 100, "velocity": 110}, {"time": 245040, "pitch": 54, "duration": 100, "velocity": 100}, {"time": 245160, "pitch": 47, "duration": 100, "velocity": 100}, {"time": 245160, "pitch": 54, "duration": 100, "velocity": 90}, {"time": 245280, "pitch": 47, "duration": 100, "velocity": 100}, {"time": 245280, "pitch": 54, "duration": 100, "velocity": 90}, {"time": 245400, "pitch": 47, "duration": 100, "velocity": 100}, {"time": 245400, "pitch": 54, "duration": 100, "velocity": 90}, {"time": 245520, "pitch": 47, "duration": 100, "velocity": 110}, {"time": 245520, "pitch": 54, "duration": 100, "velocity": 100}, {"time": 245640, "pitch": 47, "duration": 100, "velocity": 100}, {"time": 245640, "pitch": 54, "duration": 100, "velocity": 90}, {"time": 245760, "pitch": 47, "duration": 100, "velocity": 100}, {"time": 245760, "pitch": 54, "duration": 100, "velocity": 90}, {"time": 245880, "pitch": 47, "duration": 100, "velocity": 100}, {"time": 245880, "pitch": 54, "duration": 100, "velocity": 90}, {"time": 246000, "pitch": 47, "duration": 100, "velocity": 110}, {"time": 246000, "pitch": 54, "duration": 100, "velocity": 100}, {"time": 246120, "pitch": 47, "duration": 100, "velocity": 100}, {"time": 246120, "pitch": 54, "duration": 100, "velocity": 90}, {"time": 246240, "pitch": 47, "duration": 100, "velocity": 100}, {"time": 246240, "pitch": 54, "duration": 100, "velocity": 90}, {"time": 246720, "pitch": 47, "duration": 100, "velocity": 100}, {"time": 246720, "pitch": 52, "duration": 100, "velocity": 90}, {"time": 246840, "pitch": 47, "duration": 100, "velocity": 100}, {"time": 246840, "pitch": 52, "duration": 100, "velocity": 90}, {"time": 246960, "pitch": 47, "duration": 100, "velocity": 110}, {"time": 246960, "pitch": 52, "duration": 100, "velocity": 100}, {"time": 247080, "pitch": 47, "duration": 100, "velocity": 100}, {"time": 247080, "pitch": 52, "duration": 100, "velocity": 90}, {"time": 247200, "pitch": 47, "duration": 100, "velocity": 100}, {"time": 247200, "pitch": 52, "duration": 100, "velocity": 90}, {"time": 247320, "pitch": 47, "duration": 100, "velocity": 100}, {"time": 247320, "pitch": 52, "duration": 100, "velocity": 90}, {"time": 247440, "pitch": 47, "duration": 100, "velocity": 110}, {"time": 247440, "pitch": 52, "duration": 100, "velocity": 100}, {"time": 247560, "pitch": 47, "duration": 100, "velocity": 100}, {"time": 247560, "pitch": 52, "duration": 100, "velocity": 90}, {"time": 247680, "pitch": 47, "duration": 100, "velocity": 100}, {"time": 247680, "pitch": 52, "duration": 100, "velocity": 90}, {"time": 247800, "pitch": 47, "duration": 100, "velocity": 100}, {"time": 247800, "pitch": 52, "duration": 100, "velocity": 90}, {"time": 217440, "pitch": 54, "duration": 450, "velocity": 110}, {"time": 217920, "pitch": 50, "duration": 820, "velocity": 110}, {"time": 26760, "pitch": 47, "duration": 340, "velocity": 110}, {"time": 26760, "pitch": 54, "duration": 340, "velocity": 110}, {"time": 28680, "pitch": 47, "duration": 340, "velocity": 110}, {"time": 28680, "pitch": 54, "duration": 340, "velocity": 100}, {"time": 30000, "pitch": 45, "duration": 100, "velocity": 110}, {"time": 30000, "pitch": 52, "duration": 100, "velocity": 110}, {"time": 30240, "pitch": 45, "duration": 100, "velocity": 110}, {"time": 30240, "pitch": 52, "duration": 100, "velocity": 110}, {"time": 30480, "pitch": 45, "duration": 100, "velocity": 100}, {"time": 30480, "pitch": 52, "duration": 100, "velocity": 100}, {"time": 30600, "pitch": 47, "duration": 340, "velocity": 110}, {"time": 30600, "pitch": 54, "duration": 340, "velocity": 110}, {"time": 32520, "pitch": 47, "duration": 340, "velocity": 110}, {"time": 32520, "pitch": 54, "duration": 340, "velocity": 100}, {"time": 33840, "pitch": 45, "duration": 100, "velocity": 110}, {"time": 33840, "pitch": 52, "duration": 100, "velocity": 110}, {"time": 34080, "pitch": 45, "duration": 100, "velocity": 110}, {"time": 34080, "pitch": 52, "duration": 100, "velocity": 110}, {"time": 34320, "pitch": 45, "duration": 100, "velocity": 100}, {"time": 34320, "pitch": 52, "duration": 100, "velocity": 100}, {"time": 34440, "pitch": 47, "duration": 340, "velocity": 110}, {"time": 34440, "pitch": 54, "duration": 340, "velocity": 110}, {"time": 36360, "pitch": 47, "duration": 340, "velocity": 110}, {"time": 36360, "pitch": 54, "duration": 340, "velocity": 100}, {"time": 37680, "pitch": 45, "duration": 100, "velocity": 110}, {"time": 37680, "pitch": 52, "duration": 100, "velocity": 110}, {"time": 37920, "pitch": 45, "duration": 100, "velocity": 110}, {"time": 37920, "pitch": 52, "duration": 100, "velocity": 110}, {"time": 38160, "pitch": 45, "duration": 100, "velocity": 100}, {"time": 38160, "pitch": 52, "duration": 100, "velocity": 100}, {"time": 38280, "pitch": 47, "duration": 340, "velocity": 110}, {"time": 38280, "pitch": 54, "duration": 340, "velocity": 110}, {"time": 40200, "pitch": 47, "duration": 340, "velocity": 110}, {"time": 40200, "pitch": 54, "duration": 340, "velocity": 100}, {"time": 41760, "pitch": 45, "duration": 100, "velocity": 110}, {"time": 41760, "pitch": 52, "duration": 100, "velocity": 110}, {"time": 41880, "pitch": 44, "duration": 100, "velocity": 110}, {"time": 41880, "pitch": 51, "duration": 100, "velocity": 110}, {"time": 42120, "pitch": 43, "duration": 920, "velocity": 110}, {"time": 42120, "pitch": 50, "duration": 920, "velocity": 110}, {"time": 42480, "pitch": 64, "duration": 820, "velocity": 110}, {"time": 42720, "pitch": 59, "duration": 640, "velocity": 110}, {"time": 43080, "pitch": 45, "duration": 800, "velocity": 110}, {"time": 43080, "pitch": 52, "duration": 800, "velocity": 110}, {"time": 43440, "pitch": 64, "duration": 590, "velocity": 110}, {"time": 43680, "pitch": 59, "duration": 360, "velocity": 110}, {"time": 44040, "pitch": 47, "duration": 150, "velocity": 110}, {"time": 44040, "pitch": 54, "duration": 150, "velocity": 110}, {"time": 45840, "pitch": 45, "duration": 120, "velocity": 110}, {"time": 45840, "pitch": 52, "duration": 120, "velocity": 110}, {"time": 45960, "pitch": 47, "duration": 130, "velocity": 110}, {"time": 45960, "pitch": 54, "duration": 130, "velocity": 110}, {"time": 47880, "pitch": 47, "duration": 340, "velocity": 110}, {"time": 47880, "pitch": 54, "duration": 340, "velocity": 110}, {"time": 49800, "pitch": 45, "duration": 340, "velocity": 110}, {"time": 49800, "pitch": 52, "duration": 340, "velocity": 100}, {"time": 50880, "pitch": 45, "duration": 210, "velocity": 110}, {"time": 51000, "pitch": 52, "duration": 220, "velocity": 110}, {"time": 51240, "pitch": 45, "duration": 220, "velocity": 110}, {"time": 51360, "pitch": 52, "duration": 220, "velocity": 110}, {"time": 51600, "pitch": 45, "duration": 120, "velocity": 110}, {"time": 51720, "pitch": 43, "duration": 340, "velocity": 110}, {"time": 51720, "pitch": 50, "duration": 340, "velocity": 110}, {"time": 53640, "pitch": 45, "duration": 340, "velocity": 110}, {"time": 53640, "pitch": 52, "duration": 340, "velocity": 100}, {"time": 54720, "pitch": 45, "duration": 210, "velocity": 110}, {"time": 54840, "pitch": 52, "duration": 220, "velocity": 110}, {"time": 55080, "pitch": 45, "duration": 220, "velocity": 110}, {"time": 55200, "pitch": 52, "duration": 220, "velocity": 110}, {"time": 55440, "pitch": 45, "duration": 120, "velocity": 110}, {"time": 55560, "pitch": 47, "duration": 340, "velocity": 110}, {"time": 55560, "pitch": 54, "duration": 340, "velocity": 110}, {"time": 57480, "pitch": 45, "duration": 340, "velocity": 110}, {"time": 57480, "pitch": 52, "duration": 340, "velocity": 100}, {"time": 58560, "pitch": 45, "duration": 210, "velocity": 110}, {"time": 58680, "pitch": 52, "duration": 220, "velocity": 110}, {"time": 58920, "pitch": 45, "duration": 220, "velocity": 110}, {"time": 59040, "pitch": 52, "duration": 220, "velocity": 110}, {"time": 59280, "pitch": 45, "duration": 120, "velocity": 110}, {"time": 59400, "pitch": 43, "duration": 340, "velocity": 110}, {"time": 59400, "pitch": 50, "duration": 340, "velocity": 110}, {"time": 61320, "pitch": 45, "duration": 340, "velocity": 110}, {"time": 61320, "pitch": 52, "duration": 340, "velocity": 100}, {"time": 62880, "pitch": 45, "duration": 100, "velocity": 110}, {"time": 62880, "pitch": 52, "duration": 100, "velocity": 110}, {"time": 63000, "pitch": 44, "duration": 100, "velocity": 110}, {"time": 63000, "pitch": 51, "duration": 100, "velocity": 110}, {"time": 63240, "pitch": 43, "duration": 1900, "velocity": 110}, {"time": 63240, "pitch": 50, "duration": 1900, "velocity": 110}, {"time": 65160, "pitch": 43, "duration": 340, "velocity": 100}, {"time": 65160, "pitch": 50, "duration": 340, "velocity": 110}, {"time": 67080, "pitch": 45, "duration": 340, "velocity": 110}, {"time": 67080, "pitch": 52, "duration": 340, "velocity": 100}, {"time": 68880, "pitch": 47, "duration": 920, "velocity": 100}, {"time": 68880, "pitch": 54, "duration": 920, "velocity": 100}, {"time": 68890, "pitch": 59, "duration": 910, "velocity": 100}, {"time": 68890, "pitch": 64, "duration": 910, "velocity": 110}, {"time": 69840, "pitch": 47, "duration": 40, "velocity": 100}, {"time": 69840, "pitch": 54, "duration": 40, "velocity": 100}, {"time": 69840, "pitch": 59, "duration": 40, "velocity": 100}, {"time": 69840, "pitch": 64, "duration": 40, "velocity": 110}, {"time": 69960, "pitch": 59, "duration": 570, "velocity": 100}, {"time": 69960, "pitch": 63, "duration": 570, "velocity": 110}, {"time": 69970, "pitch": 47, "duration": 560, "velocity": 100}, {"time": 69970, "pitch": 54, "duration": 560, "velocity": 100}, {"time": 70560, "pitch": 47, "duration": 100, "velocity": 110}, {"time": 70560, "pitch": 54, "duration": 100, "velocity": 110}, {"time": 70680, "pitch": 45, "duration": 100, "velocity": 110}, {"time": 70680, "pitch": 52, "duration": 100, "velocity": 110}, {"time": 70920, "pitch": 43, "duration": 340, "velocity": 110}, {"time": 70920, "pitch": 50, "duration": 340, "velocity": 110}, {"time": 72840, "pitch": 43, "duration": 340, "velocity": 110}, {"time": 72840, "pitch": 50, "duration": 340, "velocity": 100}, {"time": 74760, "pitch": 45, "duration": 340, "velocity": 110}, {"time": 74760, "pitch": 52, "duration": 340, "velocity": 100}, {"time": 76320, "pitch": 45, "duration": 100, "velocity": 110}, {"time": 76320, "pitch": 52, "duration": 100, "velocity": 100}, {"time": 76440, "pitch": 45, "duration": 100, "velocity": 100}, {"time": 76440, "pitch": 52, "duration": 100, "velocity": 90}, {"time": 76680, "pitch": 42, "duration": 340, "velocity": 110}, {"time": 76680, "pitch": 49, "duration": 340, "velocity": 100}, {"time": 77040, "pitch": 42, "duration": 100, "velocity": 100}, {"time": 77040, "pitch": 49, "duration": 100, "velocity": 110}, {"time": 77160, "pitch": 42, "duration": 100, "velocity": 100}, {"time": 77160, "pitch": 49, "duration": 100, "velocity": 110}, {"time": 77280, "pitch": 40, "duration": 100, "velocity": 100}, {"time": 77280, "pitch": 47, "duration": 100, "velocity": 110}, {"time": 77400, "pitch": 41, "duration": 100, "velocity": 100}, {"time": 77400, "pitch": 48, "duration": 100, "velocity": 110}, {"time": 77640, "pitch": 42, "duration": 100, "velocity": 100}, {"time": 77640, "pitch": 49, "duration": 100, "velocity": 110}, {"time": 78600, "pitch": 47, "duration": 340, "velocity": 110}, {"time": 78600, "pitch": 54, "duration": 340, "velocity": 110}, {"time": 80520, "pitch": 45, "duration": 340, "velocity": 110}, {"time": 80520, "pitch": 52, "duration": 340, "velocity": 100}, {"time": 81600, "pitch": 45, "duration": 210, "velocity": 110}, {"time": 81720, "pitch": 52, "duration": 220, "velocity": 110}, {"time": 81960, "pitch": 45, "duration": 220, "velocity": 110}, {"time": 82080, "pitch": 52, "duration": 220, "velocity": 110}, {"time": 82320, "pitch": 45, "duration": 120, "velocity": 110}, {"time": 82440, "pitch": 43, "duration": 340, "velocity": 110}, {"time": 82440, "pitch": 50, "duration": 340, "velocity": 110}, {"time": 84360, "pitch": 45, "duration": 340, "velocity": 110}, {"time": 84360, "pitch": 52, "duration": 340, "velocity": 100}, {"time": 85440, "pitch": 45, "duration": 210, "velocity": 110}, {"time": 85560, "pitch": 52, "duration": 220, "velocity": 110}, {"time": 85800, "pitch": 45, "duration": 220, "velocity": 110}, {"time": 85920, "pitch": 52, "duration": 220, "velocity": 110}, {"time": 86160, "pitch": 45, "duration": 120, "velocity": 110}, {"time": 86280, "pitch": 47, "duration": 340, "velocity": 110}, {"time": 86280, "pitch": 54, "duration": 340, "velocity": 110}, {"time": 88200, "pitch": 45, "duration": 340, "velocity": 110}, {"time": 88200, "pitch": 52, "duration": 340, "velocity": 100}, {"time": 89280, "pitch": 45, "duration": 210, "velocity": 110}, {"time": 89400, "pitch": 52, "duration": 220, "velocity": 110}, {"time": 89640, "pitch": 45, "duration": 220, "velocity": 110}, {"time": 89760, "pitch": 52, "duration": 220, "velocity": 110}, {"time": 90000, "pitch": 45, "duration": 120, "velocity": 110}, {"time": 90120, "pitch": 43, "duration": 340, "velocity": 110}, {"time": 90120, "pitch": 50, "duration": 340, "velocity": 110}, {"time": 92040, "pitch": 45, "duration": 340, "velocity": 110}, {"time": 92040, "pitch": 52, "duration": 340, "velocity": 100}, {"time": 93600, "pitch": 45, "duration": 100, "velocity": 110}, {"time": 93600, "pitch": 52, "duration": 100, "velocity": 110}, {"time": 93720, "pitch": 44, "duration": 100, "velocity": 110}, {"time": 93720, "pitch": 51, "duration": 100, "velocity": 110}, {"time": 93960, "pitch": 43, "duration": 920, "velocity": 110}, {"time": 93960, "pitch": 50, "duration": 920, "velocity": 110}, {"time": 94320, "pitch": 64, "duration": 820, "velocity": 110}, {"time": 94560, "pitch": 59, "duration": 640, "velocity": 110}, {"time": 94920, "pitch": 45, "duration": 800, "velocity": 110}, {"time": 94920, "pitch": 52, "duration": 800, "velocity": 110}, {"time": 95280, "pitch": 64, "duration": 590, "velocity": 110}, {"time": 95520, "pitch": 59, "duration": 360, "velocity": 110}, {"time": 95880, "pitch": 47, "duration": 150, "velocity": 110}, {"time": 95880, "pitch": 54, "duration": 150, "velocity": 110}, {"time": 97680, "pitch": 45, "duration": 120, "velocity": 110}, {"time": 97680, "pitch": 52, "duration": 120, "velocity": 110}, {"time": 97800, "pitch": 47, "duration": 130, "velocity": 110}, {"time": 97800, "pitch": 54, "duration": 130, "velocity": 110}, {"time": 99720, "pitch": 47, "duration": 340, "velocity": 110}, {"time": 99720, "pitch": 54, "duration": 340, "velocity": 110}, {"time": 101640, "pitch": 45, "duration": 340, "velocity": 110}, {"time": 101640, "pitch": 52, "duration": 340, "velocity": 100}, {"time": 102720, "pitch": 45, "duration": 210, "velocity": 110}, {"time": 102840, "pitch": 52, "duration": 220, "velocity": 110}, {"time": 103080, "pitch": 45, "duration": 220, "velocity": 110}, {"time": 103200, "pitch": 52, "duration": 220, "velocity": 110}, {"time": 103440, "pitch": 45, "duration": 120, "velocity": 110}, {"time": 103560, "pitch": 43, "duration": 340, "velocity": 110}, {"time": 103560, "pitch": 50, "duration": 340, "velocity": 110}, {"time": 105480, "pitch": 45, "duration": 340, "velocity": 110}, {"time": 105480, "pitch": 52, "duration": 340, "velocity": 100}, {"time": 106560, "pitch": 45, "duration": 210, "velocity": 110}, {"time": 106680, "pitch": 52, "duration": 220, "velocity": 110}, {"time": 106920, "pitch": 45, "duration": 220, "velocity": 110}, {"time": 107040, "pitch": 52, "duration": 220, "velocity": 110}, {"time": 107280, "pitch": 45, "duration": 120, "velocity": 110}, {"time": 107400, "pitch": 47, "duration": 340, "velocity": 110}, {"time": 107400, "pitch": 54, "duration": 340, "velocity": 110}, {"time": 109320, "pitch": 45, "duration": 340, "velocity": 110}, {"time": 109320, "pitch": 52, "duration": 340, "velocity": 100}, {"time": 110400, "pitch": 45, "duration": 210, "velocity": 110}, {"time": 110520, "pitch": 52, "duration": 220, "velocity": 110}, {"time": 110760, "pitch": 45, "duration": 220, "velocity": 110}, {"time": 110880, "pitch": 52, "duration": 220, "velocity": 110}, {"time": 111120, "pitch": 45, "duration": 120, "velocity": 110}, {"time": 111240, "pitch": 43, "duration": 340, "velocity": 110}, {"time": 111240, "pitch": 50, "duration": 340, "velocity": 110}, {"time": 113160, "pitch": 45, "duration": 340, "velocity": 110}, {"time": 113160, "pitch": 52, "duration": 340, "velocity": 100}, {"time": 114720, "pitch": 45, "duration": 100, "velocity": 110}, {"time": 114720, "pitch": 52, "duration": 100, "velocity": 110}, {"time": 114840, "pitch": 44, "duration": 100, "velocity": 110}, {"time": 114840, "pitch": 51, "duration": 100, "velocity": 110}, {"time": 115080, "pitch": 43, "duration": 1900, "velocity": 110}, {"time": 115080, "pitch": 50, "duration": 1900, "velocity": 110}, {"time": 117000, "pitch": 43, "duration": 340, "velocity": 100}, {"time": 117000, "pitch": 50, "duration": 340, "velocity": 110}, {"time": 118920, "pitch": 45, "duration": 340, "velocity": 110}, {"time": 118920, "pitch": 52, "duration": 340, "velocity": 100}, {"time": 120720, "pitch": 47, "duration": 920, "velocity": 100}, {"time": 120720, "pitch": 54, "duration": 920, "velocity": 100}, {"time": 120730, "pitch": 59, "duration": 910, "velocity": 100}, {"time": 120730, "pitch": 64, "duration": 910, "velocity": 110}, {"time": 121680, "pitch": 47, "duration": 40, "velocity": 100}, {"time": 121680, "pitch": 54, "duration": 40, "velocity": 100}, {"time": 121680, "pitch": 59, "duration": 40, "velocity": 100}, {"time": 121680, "pitch": 64, "duration": 40, "velocity": 110}, {"time": 121800, "pitch": 59, "duration": 570, "velocity": 100}, {"time": 121800, "pitch": 63, "duration": 570, "velocity": 110}, {"time": 121810, "pitch": 47, "duration": 560, "velocity": 100}, {"time": 121810, "pitch": 54, "duration": 560, "velocity": 100}, {"time": 122400, "pitch": 47, "duration": 100, "velocity": 110}, {"time": 122400, "pitch": 54, "duration": 100, "velocity": 110}, {"time": 122520, "pitch": 45, "duration": 100, "velocity": 110}, {"time": 122520, "pitch": 52, "duration": 100, "velocity": 110}, {"time": 122760, "pitch": 43, "duration": 340, "velocity": 110}, {"time": 122760, "pitch": 50, "duration": 340, "velocity": 110}, {"time": 124680, "pitch": 43, "duration": 340, "velocity": 110}, {"time": 124680, "pitch": 50, "duration": 340, "velocity": 100}, {"time": 126600, "pitch": 45, "duration": 340, "velocity": 110}, {"time": 126600, "pitch": 52, "duration": 340, "velocity": 100}, {"time": 128160, "pitch": 45, "duration": 100, "velocity": 110}, {"time": 128160, "pitch": 52, "duration": 100, "velocity": 100}, {"time": 128280, "pitch": 45, "duration": 100, "velocity": 100}, {"time": 128280, "pitch": 52, "duration": 100, "velocity": 90}, {"time": 128520, "pitch": 42, "duration": 340, "velocity": 110}, {"time": 128520, "pitch": 49, "duration": 340, "velocity": 100}, {"time": 128880, "pitch": 42, "duration": 100, "velocity": 100}, {"time": 128880, "pitch": 49, "duration": 100, "velocity": 110}, {"time": 129000, "pitch": 42, "duration": 100, "velocity": 100}, {"time": 129000, "pitch": 49, "duration": 100, "velocity": 110}, {"time": 129120, "pitch": 40, "duration": 100, "velocity": 100}, {"time": 129120, "pitch": 47, "duration": 100, "velocity": 110}, {"time": 129240, "pitch": 41, "duration": 100, "velocity": 100}, {"time": 129240, "pitch": 48, "duration": 100, "velocity": 110}, {"time": 129480, "pitch": 42, "duration": 100, "velocity": 100}, {"time": 129480, "pitch": 49, "duration": 100, "velocity": 110}, {"time": 130440, "pitch": 47, "duration": 340, "velocity": 110}, {"time": 130440, "pitch": 54, "duration": 340, "velocity": 110}, {"time": 132360, "pitch": 45, "duration": 340, "velocity": 110}, {"time": 132360, "pitch": 52, "duration": 340, "velocity": 100}, {"time": 133440, "pitch": 45, "duration": 210, "velocity": 110}, {"time": 133560, "pitch": 52, "duration": 220, "velocity": 110}, {"time": 133800, "pitch": 45, "duration": 220, "velocity": 110}, {"time": 133920, "pitch": 52, "duration": 220, "velocity": 110}, {"time": 134160, "pitch": 45, "duration": 120, "velocity": 110}, {"time": 134280, "pitch": 43, "duration": 340, "velocity": 110}, {"time": 134280, "pitch": 50, "duration": 340, "velocity": 110}, {"time": 136200, "pitch": 45, "duration": 340, "velocity": 110}, {"time": 136200, "pitch": 52, "duration": 340, "velocity": 100}, {"time": 137280, "pitch": 45, "duration": 210, "velocity": 110}, {"time": 137400, "pitch": 52, "duration": 220, "velocity": 110}, {"time": 137640, "pitch": 45, "duration": 220, "velocity": 110}, {"time": 137760, "pitch": 52, "duration": 220, "velocity": 110}, {"time": 138000, "pitch": 45, "duration": 120, "velocity": 110}, {"time": 138120, "pitch": 47, "duration": 340, "velocity": 110}, {"time": 138120, "pitch": 54, "duration": 340, "velocity": 110}, {"time": 140040, "pitch": 45, "duration": 340, "velocity": 110}, {"time": 140040, "pitch": 52, "duration": 340, "velocity": 100}, {"time": 141120, "pitch": 45, "duration": 210, "velocity": 110}, {"time": 141240, "pitch": 52, "duration": 220, "velocity": 110}, {"time": 141480, "pitch": 45, "duration": 220, "velocity": 110}, {"time": 141600, "pitch": 52, "duration": 220, "velocity": 110}, {"time": 141840, "pitch": 45, "duration": 120, "velocity": 110}, {"time": 141960, "pitch": 43, "duration": 340, "velocity": 110}, {"time": 141960, "pitch": 50, "duration": 340, "velocity": 110}, {"time": 143880, "pitch": 45, "duration": 340, "velocity": 110}, {"time": 143880, "pitch": 52, "duration": 340, "velocity": 100}, {"time": 145440, "pitch": 45, "duration": 100, "velocity": 110}, {"time": 145440, "pitch": 52, "duration": 100, "velocity": 110}, {"time": 145560, "pitch": 44, "duration": 100, "velocity": 110}, {"time": 145560, "pitch": 51, "duration": 100, "velocity": 110}, {"time": 145800, "pitch": 43, "duration": 920, "velocity": 110}, {"time": 145800, "pitch": 50, "duration": 920, "velocity": 110}, {"time": 146160, "pitch": 64, "duration": 820, "velocity": 110}, {"time": 146400, "pitch": 59, "duration": 640, "velocity": 110}, {"time": 146760, "pitch": 45, "duration": 800, "velocity": 110}, {"time": 146760, "pitch": 52, "duration": 800, "velocity": 110}, {"time": 147120, "pitch": 64, "duration": 590, "velocity": 110}, {"time": 147360, "pitch": 59, "duration": 360, "velocity": 110}, {"time": 147720, "pitch": 47, "duration": 130, "velocity": 110}, {"time": 147720, "pitch": 54, "duration": 130, "velocity": 110}, {"time": 149640, "pitch": 47, "duration": 340, "velocity": 110}, {"time": 149640, "pitch": 54, "duration": 340, "velocity": 110}, {"time": 151560, "pitch": 45, "duration": 340, "velocity": 110}, {"time": 151560, "pitch": 52, "duration": 340, "velocity": 100}, {"time": 152640, "pitch": 45, "duration": 210, "velocity": 110}, {"time": 152760, "pitch": 52, "duration": 220, "velocity": 110}, {"time": 153000, "pitch": 45, "duration": 220, "velocity": 110}, {"time": 153120, "pitch": 52, "duration": 220, "velocity": 110}, {"time": 153360, "pitch": 45, "duration": 120, "velocity": 110}, {"time": 153480, "pitch": 43, "duration": 340, "velocity": 110}, {"time": 153480, "pitch": 50, "duration": 340, "velocity": 110}, {"time": 155400, "pitch": 45, "duration": 340, "velocity": 110}, {"time": 155400, "pitch": 52, "duration": 340, "velocity": 100}, {"time": 156480, "pitch": 45, "duration": 210, "velocity": 110}, {"time": 156600, "pitch": 52, "duration": 220, "velocity": 110}, {"time": 156840, "pitch": 45, "duration": 220, "velocity": 110}, {"time": 156960, "pitch": 52, "duration": 220, "velocity": 110}, {"time": 157200, "pitch": 45, "duration": 120, "velocity": 110}, {"time": 157320, "pitch": 47, "duration": 340, "velocity": 110}, {"time": 157320, "pitch": 54, "duration": 340, "velocity": 110}, {"time": 159240, "pitch": 45, "duration": 340, "velocity": 110}, {"time": 159240, "pitch": 52, "duration": 340, "velocity": 100}, {"time": 160320, "pitch": 45, "duration": 210, "velocity": 110}, {"time": 160440, "pitch": 52, "duration": 220, "velocity": 110}, {"time": 160680, "pitch": 45, "duration": 220, "velocity": 110}, {"time": 160800, "pitch": 52, "duration": 220, "velocity": 110}, {"time": 161040, "pitch": 45, "duration": 120, "velocity": 110}, {"time": 161160, "pitch": 43, "duration": 340, "velocity": 110}, {"time": 161160, "pitch": 50, "duration": 340, "velocity": 110}, {"time": 163080, "pitch": 45, "duration": 340, "velocity": 110}, {"time": 163080, "pitch": 52, "duration": 340, "velocity": 100}, {"time": 164640, "pitch": 45, "duration": 100, "velocity": 110}, {"time": 164640, "pitch": 52, "duration": 100, "velocity": 110}, {"time": 164760, "pitch": 44, "duration": 100, "velocity": 110}, {"time": 164760, "pitch": 51, "duration": 100, "velocity": 110}, {"time": 165000, "pitch": 43, "duration": 340, "velocity": 110}, {"time": 165000, "pitch": 50, "duration": 340, "velocity": 110}, {"time": 166920, "pitch": 45, "duration": 340, "velocity": 110}, {"time": 166920, "pitch": 52, "duration": 340, "velocity": 100}, {"time": 168840, "pitch": 46, "duration": 340, "velocity": 110}, {"time": 168840, "pitch": 54, "duration": 340, "velocity": 100}, {"time": 170760, "pitch": 42, "duration": 340, "velocity": 110}, {"time": 170760, "pitch": 49, "duration": 340, "velocity": 100}, {"time": 172320, "pitch": 45, "duration": 100, "velocity": 110}, {"time": 172320, "pitch": 52, "duration": 100, "velocity": 110}, {"time": 172440, "pitch": 44, "duration": 100, "velocity": 110}, {"time": 172440, "pitch": 51, "duration": 100, "velocity": 110}, {"time": 172680, "pitch": 43, "duration": 1900, "velocity": 110}, {"time": 172680, "pitch": 50, "duration": 1900, "velocity": 110}, {"time": 174600, "pitch": 43, "duration": 340, "velocity": 100}, {"time": 174600, "pitch": 50, "duration": 340, "velocity": 110}, {"time": 176520, "pitch": 45, "duration": 340, "velocity": 110}, {"time": 176520, "pitch": 52, "duration": 340, "velocity": 100}, {"time": 178320, "pitch": 47, "duration": 920, "velocity": 100}, {"time": 178320, "pitch": 54, "duration": 920, "velocity": 100}, {"time": 178330, "pitch": 59, "duration": 910, "velocity": 100}, {"time": 178330, "pitch": 64, "duration": 910, "velocity": 110}, {"time": 179280, "pitch": 47, "duration": 40, "velocity": 100}, {"time": 179280, "pitch": 54, "duration": 40, "velocity": 100}, {"time": 179280, "pitch": 59, "duration": 40, "velocity": 100}, {"time": 179280, "pitch": 64, "duration": 40, "velocity": 110}, {"time": 179400, "pitch": 59, "duration": 570, "velocity": 100}, {"time": 179400, "pitch": 63, "duration": 570, "velocity": 110}, {"time": 179410, "pitch": 47, "duration": 560, "velocity": 100}, {"time": 179410, "pitch": 54, "duration": 560, "velocity": 100}, {"time": 180000, "pitch": 47, "duration": 100, "velocity": 110}, {"time": 180000, "pitch": 54, "duration": 100, "velocity": 110}, {"time": 180120, "pitch": 45, "duration": 100, "velocity": 110}, {"time": 180120, "pitch": 52, "duration": 100, "velocity": 110}, {"time": 180360, "pitch": 43, "duration": 340, "velocity": 110}, {"time": 180360, "pitch": 50, "duration": 340, "velocity": 110}, {"time": 182280, "pitch": 43, "duration": 340, "velocity": 110}, {"time": 182280, "pitch": 50, "duration": 340, "velocity": 100}, {"time": 184200, "pitch": 45, "duration": 340, "velocity": 110}, {"time": 184200, "pitch": 52, "duration": 340, "velocity": 100}, {"time": 185760, "pitch": 45, "duration": 100, "velocity": 110}, {"time": 185760, "pitch": 52, "duration": 100, "velocity": 100}, {"time": 185880, "pitch": 45, "duration": 100, "velocity": 100}, {"time": 185880, "pitch": 52, "duration": 100, "velocity": 90}, {"time": 186120, "pitch": 42, "duration": 340, "velocity": 110}, {"time": 186120, "pitch": 49, "duration": 340, "velocity": 100}, {"time": 186480, "pitch": 42, "duration": 100, "velocity": 100}, {"time": 186480, "pitch": 49, "duration": 100, "velocity": 110}, {"time": 186600, "pitch": 42, "duration": 100, "velocity": 100}, {"time": 186600, "pitch": 49, "duration": 100, "velocity": 110}, {"time": 186720, "pitch": 40, "duration": 100, "velocity": 100}, {"time": 186720, "pitch": 47, "duration": 100, "velocity": 110}, {"time": 186840, "pitch": 41, "duration": 100, "velocity": 100}, {"time": 186840, "pitch": 48, "duration": 100, "velocity": 110}, {"time": 187080, "pitch": 42, "duration": 100, "velocity": 100}, {"time": 187080, "pitch": 49, "duration": 100, "velocity": 110}, {"time": 218760, "pitch": 43, "duration": 340, "velocity": 110}, {"time": 218760, "pitch": 50, "duration": 340, "velocity": 110}, {"time": 220680, "pitch": 42, "duration": 340, "velocity": 110}, {"time": 220680, "pitch": 49, "duration": 340, "velocity": 100}, {"time": 222600, "pitch": 40, "duration": 340, "velocity": 110}, {"time": 222600, "pitch": 47, "duration": 340, "velocity": 100}, {"time": 224520, "pitch": 42, "duration": 340, "velocity": 110}, {"time": 224520, "pitch": 49, "duration": 340, "velocity": 100}, {"time": 226440, "pitch": 43, "duration": 340, "velocity": 110}, {"time": 226440, "pitch": 50, "duration": 340, "velocity": 100}, {"time": 228360, "pitch": 42, "duration": 340, "velocity": 110}, {"time": 228360, "pitch": 49, "duration": 340, "velocity": 100}, {"time": 230280, "pitch": 40, "duration": 340, "velocity": 110}, {"time": 230280, "pitch": 47, "duration": 340, "velocity": 100}, {"time": 232200, "pitch": 42, "duration": 340, "velocity": 110}, {"time": 232200, "pitch": 49, "duration": 340, "velocity": 100}, {"time": 233160, "pitch": 54, "duration": 340, "velocity": 100}, {"time": 233160, "pitch": 58, "duration": 340, "velocity": 90}, {"time": 233170, "pitch": 42, "duration": 340, "velocity": 100}, {"time": 233170, "pitch": 49, "duration": 340, "velocity": 110}, {"time": 233520, "pitch": 54, "duration": 220, "velocity": 90}, {"time": 233520, "pitch": 58, "duration": 220, "velocity": 80}, {"time": 233530, "pitch": 42, "duration": 220, "velocity": 90}, {"time": 233530, "pitch": 49, "duration": 220, "velocity": 100}, {"time": 233760, "pitch": 54, "duration": 340, "velocity": 100}, {"time": 233760, "pitch": 58, "duration": 340, "velocity": 90}, {"time": 233770, "pitch": 42, "duration": 340, "velocity": 100}, {"time": 233770, "pitch": 49, "duration": 340, "velocity": 110}, {"time": 234120, "pitch": 47, "duration": 340, "velocity": 110}, {"time": 234120, "pitch": 54, "duration": 340, "velocity": 100}, {"time": 236040, "pitch": 47, "duration": 340, "velocity": 110}, {"time": 236040, "pitch": 52, "duration": 340, "velocity": 100}, {"time": 236040, "pitch": 57, "duration": 340, "velocity": 100}, {"time": 237600, "pitch": 41, "duration": 680, "velocity": 110}, {"time": 237600, "pitch": 48, "duration": 680, "velocity": 100}, {"time": 237610, "pitch": 53, "duration": 680, "velocity": 110}, {"time": 238320, "pitch": 41, "duration": 680, "velocity": 110}, {"time": 238320, "pitch": 48, "duration": 680, "velocity": 100}, {"time": 238330, "pitch": 53, "duration": 680, "velocity": 110}, {"time": 239040, "pitch": 47, "duration": 220, "velocity": 110}, {"time": 239040, "pitch": 54, "duration": 220, "velocity": 110}, {"time": 240840, "pitch": 47, "duration": 340, "velocity": 110}, {"time": 240840, "pitch": 52, "duration": 340, "velocity": 100}, {"time": 240840, "pitch": 57, "duration": 340, "velocity": 100}, {"time": 242400, "pitch": 41, "duration": 680, "velocity": 110}, {"time": 242400, "pitch": 48, "duration": 680, "velocity": 100}, {"time": 242410, "pitch": 53, "duration": 680, "velocity": 110}, {"time": 243120, "pitch": 41, "duration": 680, "velocity": 110}, {"time": 243120, "pitch": 48, "duration": 680, "velocity": 100}, {"time": 243130, "pitch": 53, "duration": 680, "velocity": 110}, {"time": 243840, "pitch": 41, "duration": 680, "velocity": 110}, {"time": 243840, "pitch": 48, "duration": 680, "velocity": 100}, {"time": 243850, "pitch": 53, "duration": 680, "velocity": 110}, {"time": 244560, "pitch": 47, "duration": 220, "velocity": 110}, {"time": 244560, "pitch": 54, "duration": 220, "velocity": 110}, {"time": 246360, "pitch": 47, "duration": 340, "velocity": 110}, {"time": 246360, "pitch": 52, "duration": 340, "velocity": 100}, {"time": 246360, "pitch": 57, "duration": 340, "velocity": 100}, {"time": 247920, "pitch": 41, "duration": 680, "velocity": 110}, {"time": 247920, "pitch": 48, "duration": 680, "velocity": 100}, {"time": 247930, "pitch": 53, "duration": 680, "velocity": 110}, {"time": 248640, "pitch": 41, "duration": 680, "velocity": 110}, {"time": 248640, "pitch": 48, "duration": 680, "velocity": 100}, {"time": 248650, "pitch": 53, "duration": 680, "velocity": 110}, {"time": 249360, "pitch": 41, "duration": 680, "velocity": 110}, {"time": 249360, "pitch": 48, "duration": 680, "velocity": 100}, {"time": 249370, "pitch": 53, "duration": 680, "velocity": 110}, {"time": 250080, "pitch": 41, "duration": 680, "velocity": 110}, {"time": 250080, "pitch": 48, "duration": 680, "velocity": 100}, {"time": 250090, "pitch": 53, "duration": 680, "velocity": 110}, {"time": 250800, "pitch": 41, "duration": 680, "velocity": 110}, {"time": 250800, "pitch": 48, "duration": 680, "velocity": 100}, {"time": 250810, "pitch": 53, "duration": 680, "velocity": 110}, {"time": 251520, "pitch": 41, "duration": 680, "velocity": 110}, {"time": 251520, "pitch": 48, "duration": 680, "velocity": 100}, {"time": 251530, "pitch": 53, "duration": 680, "velocity": 110}, {"time": 252240, "pitch": 41, "duration": 1420, "velocity": 110}, {"time": 252240, "pitch": 48, "duration": 1420, "velocity": 100}, {"time": 252250, "pitch": 53, "duration": 1420, "velocity": 110}, {"time": 253680, "pitch": 42, "duration": 1420, "velocity": 110}, {"time": 253680, "pitch": 49, "duration": 1420, "velocity": 100}, {"time": 253690, "pitch": 54, "duration": 1420, "velocity": 110}, {"time": 255120, "pitch": 47, "duration": 5770, "velocity": 110}, {"time": 255120, "pitch": 54, "duration": 5770, "velocity": 100}, {"time": 255130, "pitch": 59, "duration": 5770, "velocity": 110}, {"time": 27120, "pitch": 47, "duration": 100, "velocity": 100}, {"time": 27120, "pitch": 54, "duration": 100, "velocity": 90}, {"time": 27240, "pitch": 47, "duration": 100, "velocity": 100}, {"time": 27240, "pitch": 54, "duration": 100, "velocity": 90}, {"time": 27360, "pitch": 47, "duration": 100, "velocity": 110}, {"time": 27360, "pitch": 54, "duration": 100, "velocity": 100}, {"time": 27480, "pitch": 47, "duration": 100, "velocity": 100}, {"time": 27480, "pitch": 54, "duration": 100, "velocity": 90}, {"time": 27600, "pitch": 47, "duration": 100, "velocity": 100}, {"time": 27600, "pitch": 54, "duration": 100, "velocity": 90}, {"time": 27720, "pitch": 47, "duration": 100, "velocity": 100}, {"time": 27720, "pitch": 54, "duration": 100, "velocity": 90}, {"time": 27840, "pitch": 47, "duration": 100, "velocity": 110}, {"time": 27840, "pitch": 54, "duration": 100, "velocity": 100}, {"time": 27960, "pitch": 47, "duration": 100, "velocity": 100}, {"time": 27960, "pitch": 54, "duration": 100, "velocity": 90}, {"time": 28080, "pitch": 47, "duration": 100, "velocity": 100}, {"time": 28080, "pitch": 54, "duration": 100, "velocity": 90}, {"time": 28200, "pitch": 47, "duration": 100, "velocity": 100}, {"time": 28200, "pitch": 54, "duration": 100, "velocity": 90}, {"time": 28320, "pitch": 47, "duration": 100, "velocity": 110}, {"time": 28320, "pitch": 54, "duration": 100, "velocity": 100}, {"time": 28440, "pitch": 47, "duration": 100, "velocity": 100}, {"time": 28440, "pitch": 54, "duration": 100, "velocity": 90}, {"time": 28560, "pitch": 47, "duration": 100, "velocity": 100}, {"time": 28560, "pitch": 54, "duration": 100, "velocity": 90}, {"time": 29040, "pitch": 47, "duration": 100, "velocity": 100}, {"time": 29040, "pitch": 54, "duration": 100, "velocity": 90}, {"time": 29160, "pitch": 47, "duration": 100, "velocity": 100}, {"time": 29160, "pitch": 54, "duration": 100, "velocity": 90}, {"time": 29280, "pitch": 47, "duration": 100, "velocity": 110}, {"time": 29280, "pitch": 54, "duration": 100, "velocity": 100}, {"time": 29400, "pitch": 47, "duration": 100, "velocity": 100}, {"time": 29400, "pitch": 54, "duration": 100, "velocity": 90}, {"time": 29520, "pitch": 47, "duration": 100, "velocity": 100}, {"time": 29520, "pitch": 54, "duration": 100, "velocity": 90}, {"time": 29640, "pitch": 47, "duration": 100, "velocity": 100}, {"time": 29640, "pitch": 54, "duration": 100, "velocity": 90}, {"time": 29760, "pitch": 47, "duration": 100, "velocity": 110}, {"time": 29760, "pitch": 54, "duration": 100, "velocity": 100}, {"time": 29880, "pitch": 47, "duration": 100, "velocity": 100}, {"time": 29880, "pitch": 54, "duration": 100, "velocity": 90}, {"time": 30960, "pitch": 47, "duration": 100, "velocity": 100}, {"time": 30960, "pitch": 54, "duration": 100, "velocity": 90}, {"time": 31080, "pitch": 47, "duration": 100, "velocity": 100}, {"time": 31080, "pitch": 54, "duration": 100, "velocity": 90}, {"time": 31200, "pitch": 47, "duration": 100, "velocity": 110}, {"time": 31200, "pitch": 54, "duration": 100, "velocity": 100}, {"time": 31320, "pitch": 47, "duration": 100, "velocity": 100}, {"time": 31320, "pitch": 54, "duration": 100, "velocity": 90}, {"time": 31440, "pitch": 47, "duration": 100, "velocity": 100}, {"time": 31440, "pitch": 54, "duration": 100, "velocity": 90}, {"time": 31560, "pitch": 47, "duration": 100, "velocity": 100}, {"time": 31560, "pitch": 54, "duration": 100, "velocity": 90}, {"time": 31680, "pitch": 47, "duration": 100, "velocity": 110}, {"time": 31680, "pitch": 54, "duration": 100, "velocity": 100}, {"time": 31800, "pitch": 47, "duration": 100, "velocity": 100}, {"time": 31800, "pitch": 54, "duration": 100, "velocity": 90}, {"time": 31920, "pitch": 47, "duration": 100, "velocity": 100}, {"time": 31920, "pitch": 54, "duration": 100, "velocity": 90}, {"time": 32040, "pitch": 47, "duration": 100, "velocity": 100}, {"time": 32040, "pitch": 54, "duration": 100, "velocity": 90}, {"time": 32160, "pitch": 47, "duration": 100, "velocity": 110}, {"time": 32160, "pitch": 54, "duration": 100, "velocity": 100}, {"time": 32280, "pitch": 47, "duration": 100, "velocity": 100}, {"time": 32280, "pitch": 54, "duration": 100, "velocity": 90}, {"time": 32400, "pitch": 47, "duration": 100, "velocity": 100}, {"time": 32400, "pitch": 54, "duration": 100, "velocity": 90}, {"time": 32880, "pitch": 47, "duration": 100, "velocity": 100}, {"time": 32880, "pitch": 54, "duration": 100, "velocity": 90}, {"time": 33000, "pitch": 47, "duration": 100, "velocity": 100}, {"time": 33000, "pitch": 54, "duration": 100, "velocity": 90}, {"time": 33120, "pitch": 47, "duration": 100, "velocity": 110}, {"time": 33120, "pitch": 54, "duration": 100, "velocity": 100}, {"time": 33240, "pitch": 47, "duration": 100, "velocity": 100}, {"time": 33240, "pitch": 54, "duration": 100, "velocity": 90}, {"time": 33360, "pitch": 47, "duration": 100, "velocity": 100}, {"time": 33360, "pitch": 54, "duration": 100, "velocity": 90}, {"time": 33480, "pitch": 47, "duration": 100, "velocity": 100}, {"time": 33480, "pitch": 54, "duration": 100, "velocity": 90}, {"time": 33600, "pitch": 47, "duration": 100, "velocity": 110}, {"time": 33600, "pitch": 54, "duration": 100, "velocity": 100}, {"time": 33720, "pitch": 47, "duration": 100, "velocity": 100}, {"time": 33720, "pitch": 54, "duration": 100, "velocity": 90}, {"time": 34800, "pitch": 47, "duration": 100, "velocity": 100}, {"time": 34800, "pitch": 54, "duration": 100, "velocity": 90}, {"time": 34920, "pitch": 47, "duration": 100, "velocity": 100}, {"time": 34920, "pitch": 54, "duration": 100, "velocity": 90}, {"time": 35040, "pitch": 47, "duration": 100, "velocity": 110}, {"time": 35040, "pitch": 54, "duration": 100, "velocity": 100}, {"time": 35160, "pitch": 47, "duration": 100, "velocity": 100}, {"time": 35160, "pitch": 54, "duration": 100, "velocity": 90}, {"time": 35280, "pitch": 47, "duration": 100, "velocity": 100}, {"time": 35280, "pitch": 54, "duration": 100, "velocity": 90}, {"time": 35400, "pitch": 47, "duration": 100, "velocity": 100}, {"time": 35400, "pitch": 54, "duration": 100, "velocity": 90}, {"time": 35520, "pitch": 47, "duration": 100, "velocity": 110}, {"time": 35520, "pitch": 54, "duration": 100, "velocity": 100}, {"time": 35640, "pitch": 47, "duration": 100, "velocity": 100}, {"time": 35640, "pitch": 54, "duration": 100, "velocity": 90}, {"time": 35760, "pitch": 47, "duration": 100, "velocity": 100}, {"time": 35760, "pitch": 54, "duration": 100, "velocity": 90}, {"time": 35880, "pitch": 47, "duration": 100, "velocity": 100}, {"time": 35880, "pitch": 54, "duration": 100, "velocity": 90}, {"time": 36000, "pitch": 47, "duration": 100, "velocity": 110}, {"time": 36000, "pitch": 54, "duration": 100, "velocity": 100}, {"time": 36120, "pitch": 47, "duration": 100, "velocity": 100}, {"time": 36120, "pitch": 54, "duration": 100, "velocity": 90}, {"time": 36240, "pitch": 47, "duration": 100, "velocity": 100}, {"time": 36240, "pitch": 54, "duration": 100, "velocity": 90}, {"time": 36720, "pitch": 47, "duration": 100, "velocity": 100}, {"time": 36720, "pitch": 54, "duration": 100, "velocity": 90}, {"time": 36840, "pitch": 47, "duration": 100, "velocity": 100}, {"time": 36840, "pitch": 54, "duration": 100, "velocity": 90}, {"time": 36960, "pitch": 47, "duration": 100, "velocity": 110}, {"time": 36960, "pitch": 54, "duration": 100, "velocity": 100}, {"time": 37080, "pitch": 47, "duration": 100, "velocity": 100}, {"time": 37080, "pitch": 54, "duration": 100, "velocity": 90}, {"time": 37200, "pitch": 47, "duration": 100, "velocity": 100}, {"time": 37200, "pitch": 54, "duration": 100, "velocity": 90}, {"time": 37320, "pitch": 47, "duration": 100, "velocity": 100}, {"time": 37320, "pitch": 54, "duration": 100, "velocity": 90}, {"time": 37440, "pitch": 47, "duration": 100, "velocity": 110}, {"time": 37440, "pitch": 54, "duration": 100, "velocity": 100}, {"time": 37560, "pitch": 47, "duration": 100, "velocity": 100}, {"time": 37560, "pitch": 54, "duration": 100, "velocity": 90}, {"time": 38640, "pitch": 47, "duration": 100, "velocity": 100}, {"time": 38640, "pitch": 54, "duration": 100, "velocity": 90}, {"time": 38760, "pitch": 47, "duration": 100, "velocity": 100}, {"time": 38760, "pitch": 54, "duration": 100, "velocity": 90}, {"time": 38880, "pitch": 47, "duration": 100, "velocity": 110}, {"time": 38880, "pitch": 54, "duration": 100, "velocity": 100}, {"time": 39000, "pitch": 47, "duration": 100, "velocity": 100}, {"time": 39000, "pitch": 54, "duration": 100, "velocity": 90}, {"time": 39120, "pitch": 47, "duration": 100, "velocity": 100}, {"time": 39120, "pitch": 54, "duration": 100, "velocity": 90}, {"time": 39240, "pitch": 47, "duration": 100, "velocity": 100}, {"time": 39240, "pitch": 54, "duration": 100, "velocity": 90}, {"time": 39360, "pitch": 47, "duration": 100, "velocity": 110}, {"time": 39360, "pitch": 54, "duration": 100, "velocity": 100}, {"time": 39480, "pitch": 47, "duration": 100, "velocity": 100}, {"time": 39480, "pitch": 54, "duration": 100, "velocity": 90}, {"time": 39600, "pitch": 47, "duration": 100, "velocity": 100}, {"time": 39600, "pitch": 54, "duration": 100, "velocity": 90}, {"time": 39720, "pitch": 47, "duration": 100, "velocity": 100}, {"time": 39720, "pitch": 54, "duration": 100, "velocity": 90}, {"time": 39840, "pitch": 47, "duration": 100, "velocity": 110}, {"time": 39840, "pitch": 54, "duration": 100, "velocity": 100}, {"time": 39960, "pitch": 47, "duration": 100, "velocity": 100}, {"time": 39960, "pitch": 54, "duration": 100, "velocity": 90}, {"time": 40080, "pitch": 47, "duration": 100, "velocity": 100}, {"time": 40080, "pitch": 54, "duration": 100, "velocity": 90}, {"time": 40560, "pitch": 47, "duration": 100, "velocity": 100}, {"time": 40560, "pitch": 54, "duration": 100, "velocity": 90}, {"time": 40680, "pitch": 47, "duration": 100, "velocity": 100}, {"time": 40680, "pitch": 54, "duration": 100, "velocity": 90}, {"time": 40800, "pitch": 47, "duration": 100, "velocity": 110}, {"time": 40800, "pitch": 54, "duration": 100, "velocity": 100}, {"time": 40920, "pitch": 47, "duration": 100, "velocity": 100}, {"time": 40920, "pitch": 54, "duration": 100, "velocity": 90}, {"time": 41040, "pitch": 47, "duration": 100, "velocity": 100}, {"time": 41040, "pitch": 54, "duration": 100, "velocity": 90}, {"time": 41160, "pitch": 47, "duration": 100, "velocity": 100}, {"time": 41160, "pitch": 54, "duration": 100, "velocity": 90}, {"time": 41280, "pitch": 47, "duration": 100, "velocity": 110}, {"time": 41280, "pitch": 54, "duration": 100, "velocity": 100}, {"time": 41400, "pitch": 47, "duration": 100, "velocity": 100}, {"time": 41400, "pitch": 54, "duration": 100, "velocity": 90}, {"time": 41520, "pitch": 47, "duration": 100, "velocity": 100}, {"time": 41520, "pitch": 54, "duration": 100, "velocity": 90}, {"time": 41640, "pitch": 47, "duration": 100, "velocity": 100}, {"time": 41640, "pitch": 54, "duration": 100, "velocity": 90}, {"time": 48240, "pitch": 47, "duration": 100, "velocity": 100}, {"time": 48240, "pitch": 54, "duration": 100, "velocity": 90}, {"time": 48360, "pitch": 47, "duration": 100, "velocity": 100}, {"time": 48360, "pitch": 54, "duration": 100, "velocity": 90}, {"time": 48480, "pitch": 47, "duration": 100, "velocity": 110}, {"time": 48480, "pitch": 54, "duration": 100, "velocity": 100}, {"time": 48600, "pitch": 47, "duration": 100, "velocity": 100}, {"time": 48600, "pitch": 54, "duration": 100, "velocity": 90}, {"time": 48720, "pitch": 47, "duration": 100, "velocity": 100}, {"time": 48720, "pitch": 54, "duration": 100, "velocity": 90}, {"time": 48840, "pitch": 47, "duration": 100, "velocity": 100}, {"time": 48840, "pitch": 54, "duration": 100, "velocity": 90}, {"time": 48960, "pitch": 47, "duration": 100, "velocity": 110}, {"time": 48960, "pitch": 54, "duration": 100, "velocity": 100}, {"time": 49080, "pitch": 47, "duration": 100, "velocity": 100}, {"time": 49080, "pitch": 54, "duration": 100, "velocity": 90}, {"time": 49200, "pitch": 47, "duration": 100, "velocity": 100}, {"time": 49200, "pitch": 54, "duration": 100, "velocity": 90}, {"time": 49320, "pitch": 47, "duration": 100, "velocity": 100}, {"time": 49320, "pitch": 54, "duration": 100, "velocity": 90}, {"time": 49440, "pitch": 47, "duration": 100, "velocity": 110}, {"time": 49440, "pitch": 54, "duration": 100, "velocity": 100}, {"time": 49560, "pitch": 47, "duration": 100, "velocity": 100}, {"time": 49560, "pitch": 54, "duration": 100, "velocity": 90}, {"time": 49680, "pitch": 47, "duration": 100, "velocity": 100}, {"time": 49680, "pitch": 54, "duration": 100, "velocity": 90}, {"time": 50160, "pitch": 45, "duration": 100, "velocity": 100}, {"time": 50160, "pitch": 52, "duration": 100, "velocity": 90}, {"time": 50280, "pitch": 45, "duration": 100, "velocity": 100}, {"time": 50280, "pitch": 52, "duration": 100, "velocity": 90}, {"time": 50400, "pitch": 45, "duration": 100, "velocity": 110}, {"time": 50400, "pitch": 52, "duration": 100, "velocity": 100}, {"time": 50520, "pitch": 45, "duration": 100, "velocity": 100}, {"time": 50520, "pitch": 52, "duration": 100, "velocity": 90}, {"time": 50640, "pitch": 45, "duration": 100, "velocity": 100}, {"time": 50640, "pitch": 52, "duration": 100, "velocity": 90}, {"time": 50760, "pitch": 45, "duration": 100, "velocity": 100}, {"time": 50760, "pitch": 52, "duration": 100, "velocity": 90}, {"time": 52080, "pitch": 43, "duration": 100, "velocity": 100}, {"time": 52080, "pitch": 50, "duration": 100, "velocity": 90}, {"time": 52200, "pitch": 43, "duration": 100, "velocity": 100}, {"time": 52200, "pitch": 50, "duration": 100, "velocity": 90}, {"time": 52320, "pitch": 43, "duration": 100, "velocity": 110}, {"time": 52320, "pitch": 50, "duration": 100, "velocity": 100}, {"time": 52440, "pitch": 43, "duration": 100, "velocity": 100}, {"time": 52440, "pitch": 50, "duration": 100, "velocity": 90}, {"time": 52560, "pitch": 43, "duration": 100, "velocity": 100}, {"time": 52560, "pitch": 50, "duration": 100, "velocity": 90}, {"time": 52680, "pitch": 43, "duration": 100, "velocity": 100}, {"time": 52680, "pitch": 50, "duration": 100, "velocity": 90}, {"time": 52800, "pitch": 43, "duration": 100, "velocity": 110}, {"time": 52800, "pitch": 50, "duration": 100, "velocity": 100}, {"time": 52920, "pitch": 43, "duration": 100, "velocity": 100}, {"time": 52920, "pitch": 50, "duration": 100, "velocity": 90}, {"time": 53040, "pitch": 43, "duration": 100, "velocity": 100}, {"time": 53040, "pitch": 50, "duration": 100, "velocity": 90}, {"time": 53160, "pitch": 43, "duration": 100, "velocity": 100}, {"time": 53160, "pitch": 50, "duration": 100, "velocity": 90}, {"time": 53280, "pitch": 43, "duration": 100, "velocity": 110}, {"time": 53280, "pitch": 50, "duration": 100, "velocity": 100}, {"time": 53400, "pitch": 43, "duration": 100, "velocity": 100}, {"time": 53400, "pitch": 50, "duration": 100, "velocity": 90}, {"time": 53520, "pitch": 43, "duration": 100, "velocity": 100}, {"time": 53520, "pitch": 50, "duration": 100, "velocity": 90}, {"time": 54000, "pitch": 45, "duration": 100, "velocity": 100}, {"time": 54000, "pitch": 52, "duration": 100, "velocity": 90}, {"time": 54120, "pitch": 45, "duration": 100, "velocity": 100}, {"time": 54120, "pitch": 52, "duration": 100, "velocity": 90}, {"time": 54240, "pitch": 45, "duration": 100, "velocity": 110}, {"time": 54240, "pitch": 52, "duration": 100, "velocity": 100}, {"time": 54360, "pitch": 45, "duration": 100, "velocity": 100}, {"time": 54360, "pitch": 52, "duration": 100, "velocity": 90}, {"time": 54480, "pitch": 45, "duration": 100, "velocity": 100}, {"time": 54480, "pitch": 52, "duration": 100, "velocity": 90}, {"time": 54600, "pitch": 45, "duration": 100, "velocity": 100}, {"time": 54600, "pitch": 52, "duration": 100, "velocity": 90}, {"time": 55920, "pitch": 47, "duration": 100, "velocity": 100}, {"time": 55920, "pitch": 54, "duration": 100, "velocity": 90}, {"time": 56040, "pitch": 47, "duration": 100, "velocity": 100}, {"time": 56040, "pitch": 54, "duration": 100, "velocity": 90}, {"time": 56160, "pitch": 47, "duration": 100, "velocity": 110}, {"time": 56160, "pitch": 54, "duration": 100, "velocity": 100}, {"time": 56280, "pitch": 47, "duration": 100, "velocity": 100}, {"time": 56280, "pitch": 54, "duration": 100, "velocity": 90}, {"time": 56400, "pitch": 47, "duration": 100, "velocity": 100}, {"time": 56400, "pitch": 54, "duration": 100, "velocity": 90}, {"time": 56520, "pitch": 47, "duration": 100, "velocity": 100}, {"time": 56520, "pitch": 54, "duration": 100, "velocity": 90}, {"time": 56640, "pitch": 47, "duration": 100, "velocity": 110}, {"time": 56640, "pitch": 54, "duration": 100, "velocity": 100}, {"time": 56760, "pitch": 47, "duration": 100, "velocity": 100}, {"time": 56760, "pitch": 54, "duration": 100, "velocity": 90}, {"time": 56880, "pitch": 47, "duration": 100, "velocity": 100}, {"time": 56880, "pitch": 54, "duration": 100, "velocity": 90}, {"time": 57000, "pitch": 47, "duration": 100, "velocity": 100}, {"time": 57000, "pitch": 54, "duration": 100, "velocity": 90}, {"time": 57120, "pitch": 47, "duration": 100, "velocity": 110}, {"time": 57120, "pitch": 54, "duration": 100, "velocity": 100}, {"time": 57240, "pitch": 47, "duration": 100, "velocity": 100}, {"time": 57240, "pitch": 54, "duration": 100, "velocity": 90}, {"time": 57360, "pitch": 47, "duration": 100, "velocity": 100}, {"time": 57360, "pitch": 54, "duration": 100, "velocity": 90}, {"time": 57840, "pitch": 45, "duration": 100, "velocity": 100}, {"time": 57840, "pitch": 52, "duration": 100, "velocity": 90}, {"time": 57960, "pitch": 45, "duration": 100, "velocity": 100}, {"time": 57960, "pitch": 52, "duration": 100, "velocity": 90}, {"time": 58080, "pitch": 45, "duration": 100, "velocity": 110}, {"time": 58080, "pitch": 52, "duration": 100, "velocity": 100}, {"time": 58200, "pitch": 45, "duration": 100, "velocity": 100}, {"time": 58200, "pitch": 52, "duration": 100, "velocity": 90}, {"time": 58320, "pitch": 45, "duration": 100, "velocity": 100}, {"time": 58320, "pitch": 52, "duration": 100, "velocity": 90}, {"time": 58440, "pitch": 45, "duration": 100, "velocity": 100}, {"time": 58440, "pitch": 52, "duration": 100, "velocity": 90}, {"time": 59760, "pitch": 43, "duration": 100, "velocity": 100}, {"time": 59760, "pitch": 50, "duration": 100, "velocity": 90}, {"time": 59880, "pitch": 43, "duration": 100, "velocity": 100}, {"time": 59880, "pitch": 50, "duration": 100, "velocity": 90}, {"time": 60000, "pitch": 43, "duration": 100, "velocity": 110}, {"time": 60000, "pitch": 50, "duration": 100, "velocity": 100}, {"time": 60120, "pitch": 43, "duration": 100, "velocity": 100}, {"time": 60120, "pitch": 50, "duration": 100, "velocity": 90}, {"time": 60240, "pitch": 43, "duration": 100, "velocity": 100}, {"time": 60240, "pitch": 50, "duration": 100, "velocity": 90}, {"time": 60360, "pitch": 43, "duration": 100, "velocity": 100}, {"time": 60360, "pitch": 50, "duration": 100, "velocity": 90}, {"time": 60480, "pitch": 43, "duration": 100, "velocity": 110}, {"time": 60480, "pitch": 50, "duration": 100, "velocity": 100}, {"time": 60600, "pitch": 43, "duration": 100, "velocity": 100}, {"time": 60600, "pitch": 50, "duration": 100, "velocity": 90}, {"time": 60720, "pitch": 43, "duration": 100, "velocity": 100}, {"time": 60720, "pitch": 50, "duration": 100, "velocity": 90}, {"time": 60840, "pitch": 43, "duration": 100, "velocity": 100}, {"time": 60840, "pitch": 50, "duration": 100, "velocity": 90}, {"time": 60960, "pitch": 43, "duration": 100, "velocity": 110}, {"time": 60960, "pitch": 50, "duration": 100, "velocity": 100}, {"time": 61080, "pitch": 43, "duration": 100, "velocity": 100}, {"time": 61080, "pitch": 50, "duration": 100, "velocity": 90}, {"time": 61200, "pitch": 43, "duration": 100, "velocity": 100}, {"time": 61200, "pitch": 50, "duration": 100, "velocity": 90}, {"time": 61680, "pitch": 45, "duration": 100, "velocity": 100}, {"time": 61680, "pitch": 52, "duration": 100, "velocity": 90}, {"time": 61800, "pitch": 45, "duration": 100, "velocity": 100}, {"time": 61800, "pitch": 52, "duration": 100, "velocity": 90}, {"time": 61920, "pitch": 45, "duration": 100, "velocity": 110}, {"time": 61920, "pitch": 52, "duration": 100, "velocity": 100}, {"time": 62040, "pitch": 45, "duration": 100, "velocity": 100}, {"time": 62040, "pitch": 52, "duration": 100, "velocity": 90}, {"time": 62160, "pitch": 45, "duration": 100, "velocity": 100}, {"time": 62160, "pitch": 52, "duration": 100, "velocity": 90}, {"time": 62280, "pitch": 45, "duration": 100, "velocity": 100}, {"time": 62280, "pitch": 52, "duration": 100, "velocity": 90}, {"time": 62400, "pitch": 45, "duration": 100, "velocity": 110}, {"time": 62400, "pitch": 52, "duration": 100, "velocity": 100}, {"time": 62520, "pitch": 45, "duration": 100, "velocity": 100}, {"time": 62520, "pitch": 52, "duration": 100, "velocity": 90}, {"time": 62640, "pitch": 45, "duration": 100, "velocity": 100}, {"time": 62640, "pitch": 52, "duration": 100, "velocity": 90}, {"time": 62760, "pitch": 45, "duration": 100, "velocity": 100}, {"time": 62760, "pitch": 52, "duration": 100, "velocity": 90}, {"time": 65520, "pitch": 43, "duration": 100, "velocity": 100}, {"time": 65520, "pitch": 50, "duration": 100, "velocity": 90}, {"time": 65640, "pitch": 43, "duration": 100, "velocity": 100}, {"time": 65640, "pitch": 50, "duration": 100, "velocity": 90}, {"time": 65760, "pitch": 43, "duration": 100, "velocity": 110}, {"time": 65760, "pitch": 50, "duration": 100, "velocity": 100}, {"time": 65880, "pitch": 43, "duration": 100, "velocity": 100}, {"time": 65880, "pitch": 50, "duration": 100, "velocity": 90}, {"time": 66000, "pitch": 43, "duration": 100, "velocity": 100}, {"time": 66000, "pitch": 50, "duration": 100, "velocity": 90}, {"time": 66120, "pitch": 43, "duration": 100, "velocity": 100}, {"time": 66120, "pitch": 50, "duration": 100, "velocity": 90}, {"time": 66240, "pitch": 43, "duration": 100, "velocity": 110}, {"time": 66240, "pitch": 50, "duration": 100, "velocity": 100}, {"time": 66360, "pitch": 43, "duration": 100, "velocity": 100}, {"time": 66360, "pitch": 50, "duration": 100, "velocity": 90}, {"time": 66480, "pitch": 43, "duration": 100, "velocity": 100}, {"time": 66480, "pitch": 50, "duration": 100, "velocity": 90}, {"time": 66600, "pitch": 43, "duration": 100, "velocity": 100}, {"time": 66600, "pitch": 50, "duration": 100, "velocity": 90}, {"time": 66720, "pitch": 43, "duration": 100, "velocity": 110}, {"time": 66720, "pitch": 50, "duration": 100, "velocity": 100}, {"time": 66840, "pitch": 43, "duration": 100, "velocity": 100}, {"time": 66840, "pitch": 50, "duration": 100, "velocity": 90}, {"time": 66960, "pitch": 43, "duration": 100, "velocity": 100}, {"time": 66960, "pitch": 50, "duration": 100, "velocity": 90}, {"time": 67440, "pitch": 45, "duration": 100, "velocity": 100}, {"time": 67440, "pitch": 52, "duration": 100, "velocity": 90}, {"time": 67560, "pitch": 45, "duration": 100, "velocity": 100}, {"time": 67560, "pitch": 52, "duration": 100, "velocity": 90}, {"time": 67680, "pitch": 45, "duration": 100, "velocity": 110}, {"time": 67680, "pitch": 52, "duration": 100, "velocity": 100}, {"time": 67800, "pitch": 45, "duration": 100, "velocity": 100}, {"time": 67800, "pitch": 52, "duration": 100, "velocity": 90}, {"time": 67920, "pitch": 45, "duration": 100, "velocity": 100}, {"time": 67920, "pitch": 52, "duration": 100, "velocity": 90}, {"time": 68040, "pitch": 45, "duration": 100, "velocity": 100}, {"time": 68040, "pitch": 52, "duration": 100, "velocity": 90}, {"time": 68160, "pitch": 45, "duration": 100, "velocity": 110}, {"time": 68160, "pitch": 52, "duration": 100, "velocity": 100}, {"time": 68280, "pitch": 45, "duration": 100, "velocity": 100}, {"time": 68280, "pitch": 52, "duration": 100, "velocity": 90}, {"time": 68400, "pitch": 45, "duration": 100, "velocity": 100}, {"time": 68400, "pitch": 52, "duration": 100, "velocity": 90}, {"time": 68520, "pitch": 45, "duration": 100, "velocity": 100}, {"time": 68520, "pitch": 52, "duration": 100, "velocity": 90}, {"time": 68640, "pitch": 45, "duration": 100, "velocity": 110}, {"time": 68640, "pitch": 52, "duration": 100, "velocity": 100}, {"time": 68760, "pitch": 45, "duration": 100, "velocity": 100}, {"time": 68760, "pitch": 52, "duration": 100, "velocity": 90}, {"time": 71280, "pitch": 43, "duration": 100, "velocity": 100}, {"time": 71280, "pitch": 50, "duration": 100, "velocity": 90}, {"time": 71400, "pitch": 43, "duration": 100, "velocity": 100}, {"time": 71400, "pitch": 50, "duration": 100, "velocity": 90}, {"time": 71520, "pitch": 43, "duration": 100, "velocity": 110}, {"time": 71520, "pitch": 50, "duration": 100, "velocity": 100}, {"time": 71640, "pitch": 43, "duration": 100, "velocity": 100}, {"time": 71640, "pitch": 50, "duration": 100, "velocity": 90}, {"time": 71760, "pitch": 43, "duration": 100, "velocity": 100}, {"time": 71760, "pitch": 50, "duration": 100, "velocity": 90}, {"time": 71880, "pitch": 43, "duration": 100, "velocity": 100}, {"time": 71880, "pitch": 50, "duration": 100, "velocity": 90}, {"time": 72000, "pitch": 43, "duration": 100, "velocity": 110}, {"time": 72000, "pitch": 50, "duration": 100, "velocity": 100}, {"time": 72120, "pitch": 43, "duration": 100, "velocity": 100}, {"time": 72120, "pitch": 50, "duration": 100, "velocity": 90}, {"time": 72240, "pitch": 43, "duration": 100, "velocity": 100}, {"time": 72240, "pitch": 50, "duration": 100, "velocity": 90}, {"time": 72360, "pitch": 43, "duration": 100, "velocity": 100}, {"time": 72360, "pitch": 50, "duration": 100, "velocity": 90}, {"time": 72480, "pitch": 43, "duration": 100, "velocity": 110}, {"time": 72480, "pitch": 50, "duration": 100, "velocity": 100}, {"time": 72600, "pitch": 43, "duration": 100, "velocity": 100}, {"time": 72600, "pitch": 50, "duration": 100, "velocity": 90}, {"time": 72720, "pitch": 43, "duration": 100, "velocity": 100}, {"time": 72720, "pitch": 50, "duration": 100, "velocity": 90}, {"time": 73200, "pitch": 43, "duration": 100, "velocity": 100}, {"time": 73200, "pitch": 50, "duration": 100, "velocity": 90}, {"time": 73320, "pitch": 43, "duration": 100, "velocity": 100}, {"time": 73320, "pitch": 50, "duration": 100, "velocity": 90}, {"time": 73440, "pitch": 43, "duration": 100, "velocity": 110}, {"time": 73440, "pitch": 50, "duration": 100, "velocity": 100}, {"time": 73560, "pitch": 43, "duration": 100, "velocity": 100}, {"time": 73560, "pitch": 50, "duration": 100, "velocity": 90}, {"time": 73680, "pitch": 43, "duration": 100, "velocity": 100}, {"time": 73680, "pitch": 50, "duration": 100, "velocity": 90}, {"time": 73800, "pitch": 43, "duration": 100, "velocity": 100}, {"time": 73800, "pitch": 50, "duration": 100, "velocity": 90}, {"time": 73920, "pitch": 43, "duration": 100, "velocity": 110}, {"time": 73920, "pitch": 50, "duration": 100, "velocity": 100}, {"time": 74040, "pitch": 43, "duration": 100, "velocity": 100}, {"time": 74040, "pitch": 50, "duration": 100, "velocity": 90}, {"time": 74160, "pitch": 43, "duration": 100, "velocity": 100}, {"time": 74160, "pitch": 50, "duration": 100, "velocity": 90}, {"time": 74280, "pitch": 43, "duration": 100, "velocity": 100}, {"time": 74280, "pitch": 50, "duration": 100, "velocity": 90}, {"time": 74400, "pitch": 43, "duration": 100, "velocity": 110}, {"time": 74400, "pitch": 50, "duration": 100, "velocity": 100}, {"time": 74520, "pitch": 43, "duration": 100, "velocity": 100}, {"time": 74520, "pitch": 50, "duration": 100, "velocity": 90}, {"time": 74640, "pitch": 43, "duration": 100, "velocity": 100}, {"time": 74640, "pitch": 50, "duration": 100, "velocity": 90}, {"time": 75120, "pitch": 45, "duration": 100, "velocity": 100}, {"time": 75120, "pitch": 52, "duration": 100, "velocity": 90}, {"time": 75240, "pitch": 45, "duration": 100, "velocity": 100}, {"time": 75240, "pitch": 52, "duration": 100, "velocity": 90}, {"time": 75360, "pitch": 45, "duration": 100, "velocity": 110}, {"time": 75360, "pitch": 52, "duration": 100, "velocity": 100}, {"time": 75480, "pitch": 45, "duration": 100, "velocity": 100}, {"time": 75480, "pitch": 52, "duration": 100, "velocity": 90}, {"time": 75600, "pitch": 45, "duration": 100, "velocity": 100}, {"time": 75600, "pitch": 52, "duration": 100, "velocity": 90}, {"time": 75720, "pitch": 45, "duration": 100, "velocity": 100}, {"time": 75720, "pitch": 52, "duration": 100, "velocity": 90}, {"time": 75840, "pitch": 45, "duration": 100, "velocity": 110}, {"time": 75840, "pitch": 52, "duration": 100, "velocity": 100}, {"time": 75960, "pitch": 45, "duration": 100, "velocity": 100}, {"time": 75960, "pitch": 52, "duration": 100, "velocity": 90}, {"time": 76080, "pitch": 45, "duration": 100, "velocity": 100}, {"time": 76080, "pitch": 52, "duration": 100, "velocity": 90}, {"time": 76200, "pitch": 45, "duration": 100, "velocity": 100}, {"time": 76200, "pitch": 52, "duration": 100, "velocity": 90}, {"time": 78960, "pitch": 47, "duration": 100, "velocity": 100}, {"time": 78960, "pitch": 54, "duration": 100, "velocity": 90}, {"time": 79080, "pitch": 47, "duration": 100, "velocity": 100}, {"time": 79080, "pitch": 54, "duration": 100, "velocity": 90}, {"time": 79200, "pitch": 47, "duration": 100, "velocity": 110}, {"time": 79200, "pitch": 54, "duration": 100, "velocity": 100}, {"time": 79320, "pitch": 47, "duration": 100, "velocity": 100}, {"time": 79320, "pitch": 54, "duration": 100, "velocity": 90}, {"time": 79440, "pitch": 47, "duration": 100, "velocity": 100}, {"time": 79440, "pitch": 54, "duration": 100, "velocity": 90}, {"time": 79560, "pitch": 47, "duration": 100, "velocity": 100}, {"time": 79560, "pitch": 54, "duration": 100, "velocity": 90}, {"time": 79680, "pitch": 47, "duration": 100, "velocity": 110}, {"time": 79680, "pitch": 54, "duration": 100, "velocity": 100}, {"time": 79800, "pitch": 47, "duration": 100, "velocity": 100}, {"time": 79800, "pitch": 54, "duration": 100, "velocity": 90}, {"time": 79920, "pitch": 47, "duration": 100, "velocity": 100}, {"time": 79920, "pitch": 54, "duration": 100, "velocity": 90}, {"time": 80040, "pitch": 47, "duration": 100, "velocity": 100}, {"time": 80040, "pitch": 54, "duration": 100, "velocity": 90}, {"time": 80160, "pitch": 47, "duration": 100, "velocity": 110}, {"time": 80160, "pitch": 54, "duration": 100, "velocity": 100}, {"time": 80280, "pitch": 47, "duration": 100, "velocity": 100}, {"time": 80280, "pitch": 54, "duration": 100, "velocity": 90}, {"time": 80400, "pitch": 47, "duration": 100, "velocity": 100}, {"time": 80400, "pitch": 54, "duration": 100, "velocity": 90}, {"time": 80880, "pitch": 45, "duration": 100, "velocity": 100}, {"time": 80880, "pitch": 52, "duration": 100, "velocity": 90}, {"time": 81000, "pitch": 45, "duration": 100, "velocity": 100}, {"time": 81000, "pitch": 52, "duration": 100, "velocity": 90}, {"time": 81120, "pitch": 45, "duration": 100, "velocity": 110}, {"time": 81120, "pitch": 52, "duration": 100, "velocity": 100}, {"time": 81240, "pitch": 45, "duration": 100, "velocity": 100}, {"time": 81240, "pitch": 52, "duration": 100, "velocity": 90}, {"time": 81360, "pitch": 45, "duration": 100, "velocity": 100}, {"time": 81360, "pitch": 52, "duration": 100, "velocity": 90}, {"time": 81480, "pitch": 45, "duration": 100, "velocity": 100}, {"time": 81480, "pitch": 52, "duration": 100, "velocity": 90}, {"time": 82800, "pitch": 43, "duration": 100, "velocity": 100}, {"time": 82800, "pitch": 50, "duration": 100, "velocity": 90}, {"time": 82920, "pitch": 43, "duration": 100, "velocity": 100}, {"time": 82920, "pitch": 50, "duration": 100, "velocity": 90}, {"time": 83040, "pitch": 43, "duration": 100, "velocity": 110}, {"time": 83040, "pitch": 50, "duration": 100, "velocity": 100}, {"time": 83160, "pitch": 43, "duration": 100, "velocity": 100}, {"time": 83160, "pitch": 50, "duration": 100, "velocity": 90}, {"time": 83280, "pitch": 43, "duration": 100, "velocity": 100}, {"time": 83280, "pitch": 50, "duration": 100, "velocity": 90}, {"time": 83400, "pitch": 43, "duration": 100, "velocity": 100}, {"time": 83400, "pitch": 50, "duration": 100, "velocity": 90}, {"time": 83520, "pitch": 43, "duration": 100, "velocity": 110}, {"time": 83520, "pitch": 50, "duration": 100, "velocity": 100}, {"time": 83640, "pitch": 43, "duration": 100, "velocity": 100}, {"time": 83640, "pitch": 50, "duration": 100, "velocity": 90}, {"time": 83760, "pitch": 43, "duration": 100, "velocity": 100}, {"time": 83760, "pitch": 50, "duration": 100, "velocity": 90}, {"time": 83880, "pitch": 43, "duration": 100, "velocity": 100}, {"time": 83880, "pitch": 50, "duration": 100, "velocity": 90}, {"time": 84000, "pitch": 43, "duration": 100, "velocity": 110}, {"time": 84000, "pitch": 50, "duration": 100, "velocity": 100}, {"time": 84120, "pitch": 43, "duration": 100, "velocity": 100}, {"time": 84120, "pitch": 50, "duration": 100, "velocity": 90}, {"time": 84240, "pitch": 43, "duration": 100, "velocity": 100}, {"time": 84240, "pitch": 50, "duration": 100, "velocity": 90}, {"time": 84720, "pitch": 45, "duration": 100, "velocity": 100}, {"time": 84720, "pitch": 52, "duration": 100, "velocity": 90}, {"time": 84840, "pitch": 45, "duration": 100, "velocity": 100}, {"time": 84840, "pitch": 52, "duration": 100, "velocity": 90}, {"time": 84960, "pitch": 45, "duration": 100, "velocity": 110}, {"time": 84960, "pitch": 52, "duration": 100, "velocity": 100}, {"time": 85080, "pitch": 45, "duration": 100, "velocity": 100}, {"time": 85080, "pitch": 52, "duration": 100, "velocity": 90}, {"time": 85200, "pitch": 45, "duration": 100, "velocity": 100}, {"time": 85200, "pitch": 52, "duration": 100, "velocity": 90}, {"time": 85320, "pitch": 45, "duration": 100, "velocity": 100}, {"time": 85320, "pitch": 52, "duration": 100, "velocity": 90}, {"time": 86640, "pitch": 47, "duration": 100, "velocity": 100}, {"time": 86640, "pitch": 54, "duration": 100, "velocity": 90}, {"time": 86760, "pitch": 47, "duration": 100, "velocity": 100}, {"time": 86760, "pitch": 54, "duration": 100, "velocity": 90}, {"time": 86880, "pitch": 47, "duration": 100, "velocity": 110}, {"time": 86880, "pitch": 54, "duration": 100, "velocity": 100}, {"time": 87000, "pitch": 47, "duration": 100, "velocity": 100}, {"time": 87000, "pitch": 54, "duration": 100, "velocity": 90}, {"time": 87120, "pitch": 47, "duration": 100, "velocity": 100}, {"time": 87120, "pitch": 54, "duration": 100, "velocity": 90}, {"time": 87240, "pitch": 47, "duration": 100, "velocity": 100}, {"time": 87240, "pitch": 54, "duration": 100, "velocity": 90}, {"time": 87360, "pitch": 47, "duration": 100, "velocity": 110}, {"time": 87360, "pitch": 54, "duration": 100, "velocity": 100}, {"time": 87480, "pitch": 47, "duration": 100, "velocity": 100}, {"time": 87480, "pitch": 54, "duration": 100, "velocity": 90}, {"time": 87600, "pitch": 47, "duration": 100, "velocity": 100}, {"time": 87600, "pitch": 54, "duration": 100, "velocity": 90}, {"time": 87720, "pitch": 47, "duration": 100, "velocity": 100}, {"time": 87720, "pitch": 54, "duration": 100, "velocity": 90}, {"time": 87840, "pitch": 47, "duration": 100, "velocity": 110}, {"time": 87840, "pitch": 54, "duration": 100, "velocity": 100}, {"time": 87960, "pitch": 47, "duration": 100, "velocity": 100}, {"time": 87960, "pitch": 54, "duration": 100, "velocity": 90}, {"time": 88080, "pitch": 47, "duration": 100, "velocity": 100}, {"time": 88080, "pitch": 54, "duration": 100, "velocity": 90}, {"time": 88560, "pitch": 45, "duration": 100, "velocity": 100}, {"time": 88560, "pitch": 52, "duration": 100, "velocity": 90}, {"time": 88680, "pitch": 45, "duration": 100, "velocity": 100}, {"time": 88680, "pitch": 52, "duration": 100, "velocity": 90}, {"time": 88800, "pitch": 45, "duration": 100, "velocity": 110}, {"time": 88800, "pitch": 52, "duration": 100, "velocity": 100}, {"time": 88920, "pitch": 45, "duration": 100, "velocity": 100}, {"time": 88920, "pitch": 52, "duration": 100, "velocity": 90}, {"time": 89040, "pitch": 45, "duration": 100, "velocity": 100}, {"time": 89040, "pitch": 52, "duration": 100, "velocity": 90}, {"time": 89160, "pitch": 45, "duration": 100, "velocity": 100}, {"time": 89160, "pitch": 52, "duration": 100, "velocity": 90}, {"time": 90480, "pitch": 43, "duration": 100, "velocity": 100}, {"time": 90480, "pitch": 50, "duration": 100, "velocity": 90}, {"time": 90600, "pitch": 43, "duration": 100, "velocity": 100}, {"time": 90600, "pitch": 50, "duration": 100, "velocity": 90}, {"time": 90720, "pitch": 43, "duration": 100, "velocity": 110}, {"time": 90720, "pitch": 50, "duration": 100, "velocity": 100}, {"time": 90840, "pitch": 43, "duration": 100, "velocity": 100}, {"time": 90840, "pitch": 50, "duration": 100, "velocity": 90}, {"time": 90960, "pitch": 43, "duration": 100, "velocity": 100}, {"time": 90960, "pitch": 50, "duration": 100, "velocity": 90}, {"time": 91080, "pitch": 43, "duration": 100, "velocity": 100}, {"time": 91080, "pitch": 50, "duration": 100, "velocity": 90}, {"time": 91200, "pitch": 43, "duration": 100, "velocity": 110}, {"time": 91200, "pitch": 50, "duration": 100, "velocity": 100}, {"time": 91320, "pitch": 43, "duration": 100, "velocity": 100}, {"time": 91320, "pitch": 50, "duration": 100, "velocity": 90}, {"time": 91440, "pitch": 43, "duration": 100, "velocity": 100}, {"time": 91440, "pitch": 50, "duration": 100, "velocity": 90}, {"time": 91560, "pitch": 43, "duration": 100, "velocity": 100}, {"time": 91560, "pitch": 50, "duration": 100, "velocity": 90}, {"time": 91680, "pitch": 43, "duration": 100, "velocity": 110}, {"time": 91680, "pitch": 50, "duration": 100, "velocity": 100}, {"time": 91800, "pitch": 43, "duration": 100, "velocity": 100}, {"time": 91800, "pitch": 50, "duration": 100, "velocity": 90}, {"time": 91920, "pitch": 43, "duration": 100, "velocity": 100}, {"time": 91920, "pitch": 50, "duration": 100, "velocity": 90}, {"time": 92400, "pitch": 45, "duration": 100, "velocity": 100}, {"time": 92400, "pitch": 52, "duration": 100, "velocity": 90}, {"time": 92520, "pitch": 45, "duration": 100, "velocity": 100}, {"time": 92520, "pitch": 52, "duration": 100, "velocity": 90}, {"time": 92640, "pitch": 45, "duration": 100, "velocity": 110}, {"time": 92640, "pitch": 52, "duration": 100, "velocity": 100}, {"time": 92760, "pitch": 45, "duration": 100, "velocity": 100}, {"time": 92760, "pitch": 52, "duration": 100, "velocity": 90}, {"time": 92880, "pitch": 45, "duration": 100, "velocity": 100}, {"time": 92880, "pitch": 52, "duration": 100, "velocity": 90}, {"time": 93000, "pitch": 45, "duration": 100, "velocity": 100}, {"time": 93000, "pitch": 52, "duration": 100, "velocity": 90}, {"time": 93120, "pitch": 45, "duration": 100, "velocity": 110}, {"time": 93120, "pitch": 52, "duration": 100, "velocity": 100}, {"time": 93240, "pitch": 45, "duration": 100, "velocity": 100}, {"time": 93240, "pitch": 52, "duration": 100, "velocity": 90}, {"time": 93360, "pitch": 45, "duration": 100, "velocity": 100}, {"time": 93360, "pitch": 52, "duration": 100, "velocity": 90}, {"time": 93480, "pitch": 45, "duration": 100, "velocity": 100}, {"time": 93480, "pitch": 52, "duration": 100, "velocity": 90}, {"time": 100080, "pitch": 47, "duration": 100, "velocity": 100}, {"time": 100080, "pitch": 54, "duration": 100, "velocity": 90}, {"time": 100200, "pitch": 47, "duration": 100, "velocity": 100}, {"time": 100200, "pitch": 54, "duration": 100, "velocity": 90}, {"time": 100320, "pitch": 47, "duration": 100, "velocity": 110}, {"time": 100320, "pitch": 54, "duration": 100, "velocity": 100}, {"time": 100440, "pitch": 47, "duration": 100, "velocity": 100}, {"time": 100440, "pitch": 54, "duration": 100, "velocity": 90}, {"time": 100560, "pitch": 47, "duration": 100, "velocity": 100}, {"time": 100560, "pitch": 54, "duration": 100, "velocity": 90}, {"time": 100680, "pitch": 47, "duration": 100, "velocity": 100}, {"time": 100680, "pitch": 54, "duration": 100, "velocity": 90}, {"time": 100800, "pitch": 47, "duration": 100, "velocity": 110}, {"time": 100800, "pitch": 54, "duration": 100, "velocity": 100}, {"time": 100920, "pitch": 47, "duration": 100, "velocity": 100}, {"time": 100920, "pitch": 54, "duration": 100, "velocity": 90}, {"time": 101040, "pitch": 47, "duration": 100, "velocity": 100}, {"time": 101040, "pitch": 54, "duration": 100, "velocity": 90}, {"time": 101160, "pitch": 47, "duration": 100, "velocity": 100}, {"time": 101160, "pitch": 54, "duration": 100, "velocity": 90}, {"time": 101280, "pitch": 47, "duration": 100, "velocity": 110}, {"time": 101280, "pitch": 54, "duration": 100, "velocity": 100}, {"time": 101400, "pitch": 47, "duration": 100, "velocity": 100}, {"time": 101400, "pitch": 54, "duration": 100, "velocity": 90}, {"time": 101520, "pitch": 47, "duration": 100, "velocity": 100}, {"time": 101520, "pitch": 54, "duration": 100, "velocity": 90}, {"time": 102000, "pitch": 45, "duration": 100, "velocity": 100}, {"time": 102000, "pitch": 52, "duration": 100, "velocity": 90}, {"time": 102120, "pitch": 45, "duration": 100, "velocity": 100}, {"time": 102120, "pitch": 52, "duration": 100, "velocity": 90}, {"time": 102240, "pitch": 45, "duration": 100, "velocity": 110}, {"time": 102240, "pitch": 52, "duration": 100, "velocity": 100}, {"time": 102360, "pitch": 45, "duration": 100, "velocity": 100}, {"time": 102360, "pitch": 52, "duration": 100, "velocity": 90}, {"time": 102480, "pitch": 45, "duration": 100, "velocity": 100}, {"time": 102480, "pitch": 52, "duration": 100, "velocity": 90}, {"time": 102600, "pitch": 45, "duration": 100, "velocity": 100}, {"time": 102600, "pitch": 52, "duration": 100, "velocity": 90}, {"time": 103920, "pitch": 43, "duration": 100, "velocity": 100}, {"time": 103920, "pitch": 50, "duration": 100, "velocity": 90}, {"time": 104040, "pitch": 43, "duration": 100, "velocity": 100}, {"time": 104040, "pitch": 50, "duration": 100, "velocity": 90}, {"time": 104160, "pitch": 43, "duration": 100, "velocity": 110}, {"time": 104160, "pitch": 50, "duration": 100, "velocity": 100}, {"time": 104280, "pitch": 43, "duration": 100, "velocity": 100}, {"time": 104280, "pitch": 50, "duration": 100, "velocity": 90}, {"time": 104400, "pitch": 43, "duration": 100, "velocity": 100}, {"time": 104400, "pitch": 50, "duration": 100, "velocity": 90}, {"time": 104520, "pitch": 43, "duration": 100, "velocity": 100}, {"time": 104520, "pitch": 50, "duration": 100, "velocity": 90}, {"time": 104640, "pitch": 43, "duration": 100, "velocity": 110}, {"time": 104640, "pitch": 50, "duration": 100, "velocity": 100}, {"time": 104760, "pitch": 43, "duration": 100, "velocity": 100}, {"time": 104760, "pitch": 50, "duration": 100, "velocity": 90}, {"time": 104880, "pitch": 43, "duration": 100, "velocity": 100}, {"time": 104880, "pitch": 50, "duration": 100, "velocity": 90}, {"time": 105000, "pitch": 43, "duration": 100, "velocity": 100}, {"time": 105000, "pitch": 50, "duration": 100, "velocity": 90}, {"time": 105120, "pitch": 43, "duration": 100, "velocity": 110}, {"time": 105120, "pitch": 50, "duration": 100, "velocity": 100}, {"time": 105240, "pitch": 43, "duration": 100, "velocity": 100}, {"time": 105240, "pitch": 50, "duration": 100, "velocity": 90}, {"time": 105360, "pitch": 43, "duration": 100, "velocity": 100}, {"time": 105360, "pitch": 50, "duration": 100, "velocity": 90}, {"time": 105840, "pitch": 45, "duration": 100, "velocity": 100}, {"time": 105840, "pitch": 52, "duration": 100, "velocity": 90}, {"time": 105960, "pitch": 45, "duration": 100, "velocity": 100}, {"time": 105960, "pitch": 52, "duration": 100, "velocity": 90}, {"time": 106080, "pitch": 45, "duration": 100, "velocity": 110}, {"time": 106080, "pitch": 52, "duration": 100, "velocity": 100}, {"time": 106200, "pitch": 45, "duration": 100, "velocity": 100}, {"time": 106200, "pitch": 52, "duration": 100, "velocity": 90}, {"time": 106320, "pitch": 45, "duration": 100, "velocity": 100}, {"time": 106320, "pitch": 52, "duration": 100, "velocity": 90}, {"time": 106440, "pitch": 45, "duration": 100, "velocity": 100}, {"time": 106440, "pitch": 52, "duration": 100, "velocity": 90}, {"time": 107760, "pitch": 47, "duration": 100, "velocity": 100}, {"time": 107760, "pitch": 54, "duration": 100, "velocity": 90}, {"time": 107880, "pitch": 47, "duration": 100, "velocity": 100}, {"time": 107880, "pitch": 54, "duration": 100, "velocity": 90}, {"time": 108000, "pitch": 47, "duration": 100, "velocity": 110}, {"time": 108000, "pitch": 54, "duration": 100, "velocity": 100}, {"time": 108120, "pitch": 47, "duration": 100, "velocity": 100}, {"time": 108120, "pitch": 54, "duration": 100, "velocity": 90}, {"time": 108240, "pitch": 47, "duration": 100, "velocity": 100}, {"time": 108240, "pitch": 54, "duration": 100, "velocity": 90}, {"time": 108360, "pitch": 47, "duration": 100, "velocity": 100}, {"time": 108360, "pitch": 54, "duration": 100, "velocity": 90}, {"time": 108480, "pitch": 47, "duration": 100, "velocity": 110}, {"time": 108480, "pitch": 54, "duration": 100, "velocity": 100}, {"time": 108600, "pitch": 47, "duration": 100, "velocity": 100}, {"time": 108600, "pitch": 54, "duration": 100, "velocity": 90}, {"time": 108720, "pitch": 47, "duration": 100, "velocity": 100}, {"time": 108720, "pitch": 54, "duration": 100, "velocity": 90}, {"time": 108840, "pitch": 47, "duration": 100, "velocity": 100}, {"time": 108840, "pitch": 54, "duration": 100, "velocity": 90}, {"time": 108960, "pitch": 47, "duration": 100, "velocity": 110}, {"time": 108960, "pitch": 54, "duration": 100, "velocity": 100}, {"time": 109080, "pitch": 47, "duration": 100, "velocity": 100}, {"time": 109080, "pitch": 54, "duration": 100, "velocity": 90}, {"time": 109200, "pitch": 47, "duration": 100, "velocity": 100}, {"time": 109200, "pitch": 54, "duration": 100, "velocity": 90}, {"time": 109680, "pitch": 45, "duration": 100, "velocity": 100}, {"time": 109680, "pitch": 52, "duration": 100, "velocity": 90}, {"time": 109800, "pitch": 45, "duration": 100, "velocity": 100}, {"time": 109800, "pitch": 52, "duration": 100, "velocity": 90}, {"time": 109920, "pitch": 45, "duration": 100, "velocity": 110}, {"time": 109920, "pitch": 52, "duration": 100, "velocity": 100}, {"time": 110040, "pitch": 45, "duration": 100, "velocity": 100}, {"time": 110040, "pitch": 52, "duration": 100, "velocity": 90}, {"time": 110160, "pitch": 45, "duration": 100, "velocity": 100}, {"time": 110160, "pitch": 52, "duration": 100, "velocity": 90}, {"time": 110280, "pitch": 45, "duration": 100, "velocity": 100}, {"time": 110280, "pitch": 52, "duration": 100, "velocity": 90}, {"time": 111600, "pitch": 43, "duration": 100, "velocity": 100}, {"time": 111600, "pitch": 50, "duration": 100, "velocity": 90}, {"time": 111720, "pitch": 43, "duration": 100, "velocity": 100}, {"time": 111720, "pitch": 50, "duration": 100, "velocity": 90}, {"time": 111840, "pitch": 43, "duration": 100, "velocity": 110}, {"time": 111840, "pitch": 50, "duration": 100, "velocity": 100}, {"time": 111960, "pitch": 43, "duration": 100, "velocity": 100}, {"time": 111960, "pitch": 50, "duration": 100, "velocity": 90}, {"time": 112080, "pitch": 43, "duration": 100, "velocity": 100}, {"time": 112080, "pitch": 50, "duration": 100, "velocity": 90}, {"time": 112200, "pitch": 43, "duration": 100, "velocity": 100}, {"time": 112200, "pitch": 50, "duration": 100, "velocity": 90}, {"time": 112320, "pitch": 43, "duration": 100, "velocity": 110}, {"time": 112320, "pitch": 50, "duration": 100, "velocity": 100}, {"time": 112440, "pitch": 43, "duration": 100, "velocity": 100}, {"time": 112440, "pitch": 50, "duration": 100, "velocity": 90}, {"time": 112560, "pitch": 43, "duration": 100, "velocity": 100}, {"time": 112560, "pitch": 50, "duration": 100, "velocity": 90}, {"time": 112680, "pitch": 43, "duration": 100, "velocity": 100}, {"time": 112680, "pitch": 50, "duration": 100, "velocity": 90}, {"time": 112800, "pitch": 43, "duration": 100, "velocity": 110}, {"time": 112800, "pitch": 50, "duration": 100, "velocity": 100}, {"time": 112920, "pitch": 43, "duration": 100, "velocity": 100}, {"time": 112920, "pitch": 50, "duration": 100, "velocity": 90}, {"time": 113040, "pitch": 43, "duration": 100, "velocity": 100}, {"time": 113040, "pitch": 50, "duration": 100, "velocity": 90}, {"time": 113520, "pitch": 45, "duration": 100, "velocity": 100}, {"time": 113520, "pitch": 52, "duration": 100, "velocity": 90}, {"time": 113640, "pitch": 45, "duration": 100, "velocity": 100}, {"time": 113640, "pitch": 52, "duration": 100, "velocity": 90}, {"time": 113760, "pitch": 45, "duration": 100, "velocity": 110}, {"time": 113760, "pitch": 52, "duration": 100, "velocity": 100}, {"time": 113880, "pitch": 45, "duration": 100, "velocity": 100}, {"time": 113880, "pitch": 52, "duration": 100, "velocity": 90}, {"time": 114000, "pitch": 45, "duration": 100, "velocity": 100}, {"time": 114000, "pitch": 52, "duration": 100, "velocity": 90}, {"time": 114120, "pitch": 45, "duration": 100, "velocity": 100}, {"time": 114120, "pitch": 52, "duration": 100, "velocity": 90}, {"time": 114240, "pitch": 45, "duration": 100, "velocity": 110}, {"time": 114240, "pitch": 52, "duration": 100, "velocity": 100}, {"time": 114360, "pitch": 45, "duration": 100, "velocity": 100}, {"time": 114360, "pitch": 52, "duration": 100, "velocity": 90}, {"time": 114480, "pitch": 45, "duration": 100, "velocity": 100}, {"time": 114480, "pitch": 52, "duration": 100, "velocity": 90}, {"time": 114600, "pitch": 45, "duration": 100, "velocity": 100}, {"time": 114600, "pitch": 52, "duration": 100, "velocity": 90}, {"time": 117360, "pitch": 43, "duration": 100, "velocity": 100}, {"time": 117360, "pitch": 50, "duration": 100, "velocity": 90}, {"time": 117480, "pitch": 43, "duration": 100, "velocity": 100}, {"time": 117480, "pitch": 50, "duration": 100, "velocity": 90}, {"time": 117600, "pitch": 43, "duration": 100, "velocity": 110}, {"time": 117600, "pitch": 50, "duration": 100, "velocity": 100}, {"time": 117720, "pitch": 43, "duration": 100, "velocity": 100}, {"time": 117720, "pitch": 50, "duration": 100, "velocity": 90}, {"time": 117840, "pitch": 43, "duration": 100, "velocity": 100}, {"time": 117840, "pitch": 50, "duration": 100, "velocity": 90}, {"time": 117960, "pitch": 43, "duration": 100, "velocity": 100}, {"time": 117960, "pitch": 50, "duration": 100, "velocity": 90}, {"time": 118080, "pitch": 43, "duration": 100, "velocity": 110}, {"time": 118080, "pitch": 50, "duration": 100, "velocity": 100}, {"time": 118200, "pitch": 43, "duration": 100, "velocity": 100}, {"time": 118200, "pitch": 50, "duration": 100, "velocity": 90}, {"time": 118320, "pitch": 43, "duration": 100, "velocity": 100}, {"time": 118320, "pitch": 50, "duration": 100, "velocity": 90}, {"time": 118440, "pitch": 43, "duration": 100, "velocity": 100}, {"time": 118440, "pitch": 50, "duration": 100, "velocity": 90}, {"time": 118560, "pitch": 43, "duration": 100, "velocity": 110}, {"time": 118560, "pitch": 50, "duration": 100, "velocity": 100}, {"time": 118680, "pitch": 43, "duration": 100, "velocity": 100}, {"time": 118680, "pitch": 50, "duration": 100, "velocity": 90}, {"time": 118800, "pitch": 43, "duration": 100, "velocity": 100}, {"time": 118800, "pitch": 50, "duration": 100, "velocity": 90}, {"time": 119280, "pitch": 45, "duration": 100, "velocity": 100}, {"time": 119280, "pitch": 52, "duration": 100, "velocity": 90}, {"time": 119400, "pitch": 45, "duration": 100, "velocity": 100}, {"time": 119400, "pitch": 52, "duration": 100, "velocity": 90}, {"time": 119520, "pitch": 45, "duration": 100, "velocity": 110}, {"time": 119520, "pitch": 52, "duration": 100, "velocity": 100}, {"time": 119640, "pitch": 45, "duration": 100, "velocity": 100}, {"time": 119640, "pitch": 52, "duration": 100, "velocity": 90}, {"time": 119760, "pitch": 45, "duration": 100, "velocity": 100}, {"time": 119760, "pitch": 52, "duration": 100, "velocity": 90}, {"time": 119880, "pitch": 45, "duration": 100, "velocity": 100}, {"time": 119880, "pitch": 52, "duration": 100, "velocity": 90}, {"time": 120000, "pitch": 45, "duration": 100, "velocity": 110}, {"time": 120000, "pitch": 52, "duration": 100, "velocity": 100}, {"time": 120120, "pitch": 45, "duration": 100, "velocity": 100}, {"time": 120120, "pitch": 52, "duration": 100, "velocity": 90}, {"time": 120240, "pitch": 45, "duration": 100, "velocity": 100}, {"time": 120240, "pitch": 52, "duration": 100, "velocity": 90}, {"time": 120360, "pitch": 45, "duration": 100, "velocity": 100}, {"time": 120360, "pitch": 52, "duration": 100, "velocity": 90}, {"time": 120480, "pitch": 45, "duration": 100, "velocity": 110}, {"time": 120480, "pitch": 52, "duration": 100, "velocity": 100}, {"time": 120600, "pitch": 45, "duration": 100, "velocity": 100}, {"time": 120600, "pitch": 52, "duration": 100, "velocity": 90}, {"time": 123120, "pitch": 43, "duration": 100, "velocity": 100}, {"time": 123120, "pitch": 50, "duration": 100, "velocity": 90}, {"time": 123240, "pitch": 43, "duration": 100, "velocity": 100}, {"time": 123240, "pitch": 50, "duration": 100, "velocity": 90}, {"time": 123360, "pitch": 43, "duration": 100, "velocity": 110}, {"time": 123360, "pitch": 50, "duration": 100, "velocity": 100}, {"time": 123480, "pitch": 43, "duration": 100, "velocity": 100}, {"time": 123480, "pitch": 50, "duration": 100, "velocity": 90}, {"time": 123600, "pitch": 43, "duration": 100, "velocity": 100}, {"time": 123600, "pitch": 50, "duration": 100, "velocity": 90}, {"time": 123720, "pitch": 43, "duration": 100, "velocity": 100}, {"time": 123720, "pitch": 50, "duration": 100, "velocity": 90}, {"time": 123840, "pitch": 43, "duration": 100, "velocity": 110}, {"time": 123840, "pitch": 50, "duration": 100, "velocity": 100}, {"time": 123960, "pitch": 43, "duration": 100, "velocity": 100}, {"time": 123960, "pitch": 50, "duration": 100, "velocity": 90}, {"time": 124080, "pitch": 43, "duration": 100, "velocity": 100}, {"time": 124080, "pitch": 50, "duration": 100, "velocity": 90}, {"time": 124200, "pitch": 43, "duration": 100, "velocity": 100}, {"time": 124200, "pitch": 50, "duration": 100, "velocity": 90}, {"time": 124320, "pitch": 43, "duration": 100, "velocity": 110}, {"time": 124320, "pitch": 50, "duration": 100, "velocity": 100}, {"time": 124440, "pitch": 43, "duration": 100, "velocity": 100}, {"time": 124440, "pitch": 50, "duration": 100, "velocity": 90}, {"time": 124560, "pitch": 43, "duration": 100, "velocity": 100}, {"time": 124560, "pitch": 50, "duration": 100, "velocity": 90}, {"time": 125040, "pitch": 43, "duration": 100, "velocity": 100}, {"time": 125040, "pitch": 50, "duration": 100, "velocity": 90}, {"time": 125160, "pitch": 43, "duration": 100, "velocity": 100}, {"time": 125160, "pitch": 50, "duration": 100, "velocity": 90}, {"time": 125280, "pitch": 43, "duration": 100, "velocity": 110}, {"time": 125280, "pitch": 50, "duration": 100, "velocity": 100}, {"time": 125400, "pitch": 43, "duration": 100, "velocity": 100}, {"time": 125400, "pitch": 50, "duration": 100, "velocity": 90}, {"time": 125520, "pitch": 43, "duration": 100, "velocity": 100}, {"time": 125520, "pitch": 50, "duration": 100, "velocity": 90}, {"time": 125640, "pitch": 43, "duration": 100, "velocity": 100}, {"time": 125640, "pitch": 50, "duration": 100, "velocity": 90}, {"time": 125760, "pitch": 43, "duration": 100, "velocity": 110}, {"time": 125760, "pitch": 50, "duration": 100, "velocity": 100}, {"time": 125880, "pitch": 43, "duration": 100, "velocity": 100}, {"time": 125880, "pitch": 50, "duration": 100, "velocity": 90}, {"time": 126000, "pitch": 43, "duration": 100, "velocity": 100}, {"time": 126000, "pitch": 50, "duration": 100, "velocity": 90}, {"time": 126120, "pitch": 43, "duration": 100, "velocity": 100}, {"time": 126120, "pitch": 50, "duration": 100, "velocity": 90}, {"time": 126240, "pitch": 43, "duration": 100, "velocity": 110}, {"time": 126240, "pitch": 50, "duration": 100, "velocity": 100}, {"time": 126360, "pitch": 43, "duration": 100, "velocity": 100}, {"time": 126360, "pitch": 50, "duration": 100, "velocity": 90}, {"time": 126480, "pitch": 43, "duration": 100, "velocity": 100}, {"time": 126480, "pitch": 50, "duration": 100, "velocity": 90}, {"time": 126960, "pitch": 45, "duration": 100, "velocity": 100}, {"time": 126960, "pitch": 52, "duration": 100, "velocity": 90}, {"time": 127080, "pitch": 45, "duration": 100, "velocity": 100}, {"time": 127080, "pitch": 52, "duration": 100, "velocity": 90}, {"time": 127200, "pitch": 45, "duration": 100, "velocity": 110}, {"time": 127200, "pitch": 52, "duration": 100, "velocity": 100}, {"time": 127320, "pitch": 45, "duration": 100, "velocity": 100}, {"time": 127320, "pitch": 52, "duration": 100, "velocity": 90}, {"time": 127440, "pitch": 45, "duration": 100, "velocity": 100}, {"time": 127440, "pitch": 52, "duration": 100, "velocity": 90}, {"time": 127560, "pitch": 45, "duration": 100, "velocity": 100}, {"time": 127560, "pitch": 52, "duration": 100, "velocity": 90}, {"time": 127680, "pitch": 45, "duration": 100, "velocity": 110}, {"time": 127680, "pitch": 52, "duration": 100, "velocity": 100}, {"time": 127800, "pitch": 45, "duration": 100, "velocity": 100}, {"time": 127800, "pitch": 52, "duration": 100, "velocity": 90}, {"time": 127920, "pitch": 45, "duration": 100, "velocity": 100}, {"time": 127920, "pitch": 52, "duration": 100, "velocity": 90}, {"time": 128040, "pitch": 45, "duration": 100, "velocity": 100}, {"time": 128040, "pitch": 52, "duration": 100, "velocity": 90}, {"time": 130800, "pitch": 47, "duration": 100, "velocity": 100}, {"time": 130800, "pitch": 54, "duration": 100, "velocity": 90}, {"time": 130920, "pitch": 47, "duration": 100, "velocity": 100}, {"time": 130920, "pitch": 54, "duration": 100, "velocity": 90}, {"time": 131040, "pitch": 47, "duration": 100, "velocity": 110}, {"time": 131040, "pitch": 54, "duration": 100, "velocity": 100}, {"time": 131160, "pitch": 47, "duration": 100, "velocity": 100}, {"time": 131160, "pitch": 54, "duration": 100, "velocity": 90}, {"time": 131280, "pitch": 47, "duration": 100, "velocity": 100}, {"time": 131280, "pitch": 54, "duration": 100, "velocity": 90}, {"time": 131400, "pitch": 47, "duration": 100, "velocity": 100}, {"time": 131400, "pitch": 54, "duration": 100, "velocity": 90}, {"time": 131520, "pitch": 47, "duration": 100, "velocity": 110}, {"time": 131520, "pitch": 54, "duration": 100, "velocity": 100}, {"time": 131640, "pitch": 47, "duration": 100, "velocity": 100}, {"time": 131640, "pitch": 54, "duration": 100, "velocity": 90}, {"time": 131760, "pitch": 47, "duration": 100, "velocity": 100}, {"time": 131760, "pitch": 54, "duration": 100, "velocity": 90}, {"time": 131880, "pitch": 47, "duration": 100, "velocity": 100}, {"time": 131880, "pitch": 54, "duration": 100, "velocity": 90}, {"time": 132000, "pitch": 47, "duration": 100, "velocity": 110}, {"time": 132000, "pitch": 54, "duration": 100, "velocity": 100}, {"time": 132120, "pitch": 47, "duration": 100, "velocity": 100}, {"time": 132120, "pitch": 54, "duration": 100, "velocity": 90}, {"time": 132240, "pitch": 47, "duration": 100, "velocity": 100}, {"time": 132240, "pitch": 54, "duration": 100, "velocity": 90}, {"time": 132720, "pitch": 45, "duration": 100, "velocity": 100}, {"time": 132720, "pitch": 52, "duration": 100, "velocity": 90}, {"time": 132840, "pitch": 45, "duration": 100, "velocity": 100}, {"time": 132840, "pitch": 52, "duration": 100, "velocity": 90}, {"time": 132960, "pitch": 45, "duration": 100, "velocity": 110}, {"time": 132960, "pitch": 52, "duration": 100, "velocity": 100}, {"time": 133080, "pitch": 45, "duration": 100, "velocity": 100}, {"time": 133080, "pitch": 52, "duration": 100, "velocity": 90}, {"time": 133200, "pitch": 45, "duration": 100, "velocity": 100}, {"time": 133200, "pitch": 52, "duration": 100, "velocity": 90}, {"time": 133320, "pitch": 45, "duration": 100, "velocity": 100}, {"time": 133320, "pitch": 52, "duration": 100, "velocity": 90}, {"time": 134640, "pitch": 43, "duration": 100, "velocity": 100}, {"time": 134640, "pitch": 50, "duration": 100, "velocity": 90}, {"time": 134760, "pitch": 43, "duration": 100, "velocity": 100}, {"time": 134760, "pitch": 50, "duration": 100, "velocity": 90}, {"time": 134880, "pitch": 43, "duration": 100, "velocity": 110}, {"time": 134880, "pitch": 50, "duration": 100, "velocity": 100}, {"time": 135000, "pitch": 43, "duration": 100, "velocity": 100}, {"time": 135000, "pitch": 50, "duration": 100, "velocity": 90}, {"time": 135120, "pitch": 43, "duration": 100, "velocity": 100}, {"time": 135120, "pitch": 50, "duration": 100, "velocity": 90}, {"time": 135240, "pitch": 43, "duration": 100, "velocity": 100}, {"time": 135240, "pitch": 50, "duration": 100, "velocity": 90}, {"time": 135360, "pitch": 43, "duration": 100, "velocity": 110}, {"time": 135360, "pitch": 50, "duration": 100, "velocity": 100}, {"time": 135480, "pitch": 43, "duration": 100, "velocity": 100}, {"time": 135480, "pitch": 50, "duration": 100, "velocity": 90}, {"time": 135600, "pitch": 43, "duration": 100, "velocity": 100}, {"time": 135600, "pitch": 50, "duration": 100, "velocity": 90}, {"time": 135720, "pitch": 43, "duration": 100, "velocity": 100}, {"time": 135720, "pitch": 50, "duration": 100, "velocity": 90}, {"time": 135840, "pitch": 43, "duration": 100, "velocity": 110}, {"time": 135840, "pitch": 50, "duration": 100, "velocity": 100}, {"time": 135960, "pitch": 43, "duration": 100, "velocity": 100}, {"time": 135960, "pitch": 50, "duration": 100, "velocity": 90}, {"time": 136080, "pitch": 43, "duration": 100, "velocity": 100}, {"time": 136080, "pitch": 50, "duration": 100, "velocity": 90}, {"time": 136560, "pitch": 45, "duration": 100, "velocity": 100}, {"time": 136560, "pitch": 52, "duration": 100, "velocity": 90}, {"time": 136680, "pitch": 45, "duration": 100, "velocity": 100}, {"time": 136680, "pitch": 52, "duration": 100, "velocity": 90}, {"time": 136800, "pitch": 45, "duration": 100, "velocity": 110}, {"time": 136800, "pitch": 52, "duration": 100, "velocity": 100}, {"time": 136920, "pitch": 45, "duration": 100, "velocity": 100}, {"time": 136920, "pitch": 52, "duration": 100, "velocity": 90}, {"time": 137040, "pitch": 45, "duration": 100, "velocity": 100}, {"time": 137040, "pitch": 52, "duration": 100, "velocity": 90}, {"time": 137160, "pitch": 45, "duration": 100, "velocity": 100}, {"time": 137160, "pitch": 52, "duration": 100, "velocity": 90}, {"time": 138480, "pitch": 47, "duration": 100, "velocity": 100}, {"time": 138480, "pitch": 54, "duration": 100, "velocity": 90}, {"time": 138600, "pitch": 47, "duration": 100, "velocity": 100}, {"time": 138600, "pitch": 54, "duration": 100, "velocity": 90}, {"time": 138720, "pitch": 47, "duration": 100, "velocity": 110}, {"time": 138720, "pitch": 54, "duration": 100, "velocity": 100}, {"time": 138840, "pitch": 47, "duration": 100, "velocity": 100}, {"time": 138840, "pitch": 54, "duration": 100, "velocity": 90}, {"time": 138960, "pitch": 47, "duration": 100, "velocity": 100}, {"time": 138960, "pitch": 54, "duration": 100, "velocity": 90}, {"time": 139080, "pitch": 47, "duration": 100, "velocity": 100}, {"time": 139080, "pitch": 54, "duration": 100, "velocity": 90}, {"time": 139200, "pitch": 47, "duration": 100, "velocity": 110}, {"time": 139200, "pitch": 54, "duration": 100, "velocity": 100}, {"time": 139320, "pitch": 47, "duration": 100, "velocity": 100}, {"time": 139320, "pitch": 54, "duration": 100, "velocity": 90}, {"time": 139440, "pitch": 47, "duration": 100, "velocity": 100}, {"time": 139440, "pitch": 54, "duration": 100, "velocity": 90}, {"time": 139560, "pitch": 47, "duration": 100, "velocity": 100}, {"time": 139560, "pitch": 54, "duration": 100, "velocity": 90}, {"time": 139680, "pitch": 47, "duration": 100, "velocity": 110}, {"time": 139680, "pitch": 54, "duration": 100, "velocity": 100}, {"time": 139800, "pitch": 47, "duration": 100, "velocity": 100}, {"time": 139800, "pitch": 54, "duration": 100, "velocity": 90}, {"time": 139920, "pitch": 47, "duration": 100, "velocity": 100}, {"time": 139920, "pitch": 54, "duration": 100, "velocity": 90}, {"time": 140400, "pitch": 45, "duration": 100, "velocity": 100}, {"time": 140400, "pitch": 52, "duration": 100, "velocity": 90}, {"time": 140520, "pitch": 45, "duration": 100, "velocity": 100}, {"time": 140520, "pitch": 52, "duration": 100, "velocity": 90}, {"time": 140640, "pitch": 45, "duration": 100, "velocity": 110}, {"time": 140640, "pitch": 52, "duration": 100, "velocity": 100}, {"time": 140760, "pitch": 45, "duration": 100, "velocity": 100}, {"time": 140760, "pitch": 52, "duration": 100, "velocity": 90}, {"time": 140880, "pitch": 45, "duration": 100, "velocity": 100}, {"time": 140880, "pitch": 52, "duration": 100, "velocity": 90}, {"time": 141000, "pitch": 45, "duration": 100, "velocity": 100}, {"time": 141000, "pitch": 52, "duration": 100, "velocity": 90}, {"time": 142320, "pitch": 43, "duration": 100, "velocity": 100}, {"time": 142320, "pitch": 50, "duration": 100, "velocity": 90}, {"time": 142440, "pitch": 43, "duration": 100, "velocity": 100}, {"time": 142440, "pitch": 50, "duration": 100, "velocity": 90}, {"time": 142560, "pitch": 43, "duration": 100, "velocity": 110}, {"time": 142560, "pitch": 50, "duration": 100, "velocity": 100}, {"time": 142680, "pitch": 43, "duration": 100, "velocity": 100}, {"time": 142680, "pitch": 50, "duration": 100, "velocity": 90}, {"time": 142800, "pitch": 43, "duration": 100, "velocity": 100}, {"time": 142800, "pitch": 50, "duration": 100, "velocity": 90}, {"time": 142920, "pitch": 43, "duration": 100, "velocity": 100}, {"time": 142920, "pitch": 50, "duration": 100, "velocity": 90}, {"time": 143040, "pitch": 43, "duration": 100, "velocity": 110}, {"time": 143040, "pitch": 50, "duration": 100, "velocity": 100}, {"time": 143160, "pitch": 43, "duration": 100, "velocity": 100}, {"time": 143160, "pitch": 50, "duration": 100, "velocity": 90}, {"time": 143280, "pitch": 43, "duration": 100, "velocity": 100}, {"time": 143280, "pitch": 50, "duration": 100, "velocity": 90}, {"time": 143400, "pitch": 43, "duration": 100, "velocity": 100}, {"time": 143400, "pitch": 50, "duration": 100, "velocity": 90}, {"time": 143520, "pitch": 43, "duration": 100, "velocity": 110}, {"time": 143520, "pitch": 50, "duration": 100, "velocity": 100}, {"time": 143640, "pitch": 43, "duration": 100, "velocity": 100}, {"time": 143640, "pitch": 50, "duration": 100, "velocity": 90}, {"time": 143760, "pitch": 43, "duration": 100, "velocity": 100}, {"time": 143760, "pitch": 50, "duration": 100, "velocity": 90}, {"time": 144240, "pitch": 45, "duration": 100, "velocity": 100}, {"time": 144240, "pitch": 52, "duration": 100, "velocity": 90}, {"time": 144360, "pitch": 45, "duration": 100, "velocity": 100}, {"time": 144360, "pitch": 52, "duration": 100, "velocity": 90}, {"time": 144480, "pitch": 45, "duration": 100, "velocity": 110}, {"time": 144480, "pitch": 52, "duration": 100, "velocity": 100}, {"time": 144600, "pitch": 45, "duration": 100, "velocity": 100}, {"time": 144600, "pitch": 52, "duration": 100, "velocity": 90}, {"time": 144720, "pitch": 45, "duration": 100, "velocity": 100}, {"time": 144720, "pitch": 52, "duration": 100, "velocity": 90}, {"time": 144840, "pitch": 45, "duration": 100, "velocity": 100}, {"time": 144840, "pitch": 52, "duration": 100, "velocity": 90}, {"time": 144960, "pitch": 45, "duration": 100, "velocity": 110}, {"time": 144960, "pitch": 52, "duration": 100, "velocity": 100}, {"time": 145080, "pitch": 45, "duration": 100, "velocity": 100}, {"time": 145080, "pitch": 52, "duration": 100, "velocity": 90}, {"time": 145200, "pitch": 45, "duration": 100, "velocity": 100}, {"time": 145200, "pitch": 52, "duration": 100, "velocity": 90}, {"time": 145320, "pitch": 45, "duration": 100, "velocity": 100}, {"time": 145320, "pitch": 52, "duration": 100, "velocity": 90}, {"time": 150000, "pitch": 47, "duration": 100, "velocity": 100}, {"time": 150000, "pitch": 54, "duration": 100, "velocity": 90}, {"time": 150120, "pitch": 47, "duration": 100, "velocity": 100}, {"time": 150120, "pitch": 54, "duration": 100, "velocity": 90}, {"time": 150240, "pitch": 47, "duration": 100, "velocity": 110}, {"time": 150240, "pitch": 54, "duration": 100, "velocity": 100}, {"time": 150360, "pitch": 47, "duration": 100, "velocity": 100}, {"time": 150360, "pitch": 54, "duration": 100, "velocity": 90}, {"time": 150480, "pitch": 47, "duration": 100, "velocity": 100}, {"time": 150480, "pitch": 54, "duration": 100, "velocity": 90}, {"time": 150600, "pitch": 47, "duration": 100, "velocity": 100}, {"time": 150600, "pitch": 54, "duration": 100, "velocity": 90}, {"time": 150720, "pitch": 47, "duration": 100, "velocity": 110}, {"time": 150720, "pitch": 54, "duration": 100, "velocity": 100}, {"time": 150840, "pitch": 47, "duration": 100, "velocity": 100}, {"time": 150840, "pitch": 54, "duration": 100, "velocity": 90}, {"time": 150960, "pitch": 47, "duration": 100, "velocity": 100}, {"time": 150960, "pitch": 54, "duration": 100, "velocity": 90}, {"time": 151080, "pitch": 47, "duration": 100, "velocity": 100}, {"time": 151080, "pitch": 54, "duration": 100, "velocity": 90}, {"time": 151200, "pitch": 47, "duration": 100, "velocity": 110}, {"time": 151200, "pitch": 54, "duration": 100, "velocity": 100}, {"time": 151320, "pitch": 47, "duration": 100, "velocity": 100}, {"time": 151320, "pitch": 54, "duration": 100, "velocity": 90}, {"time": 151440, "pitch": 47, "duration": 100, "velocity": 100}, {"time": 151440, "pitch": 54, "duration": 100, "velocity": 90}, {"time": 151920, "pitch": 45, "duration": 100, "velocity": 100}, {"time": 151920, "pitch": 52, "duration": 100, "velocity": 90}, {"time": 152040, "pitch": 45, "duration": 100, "velocity": 100}, {"time": 152040, "pitch": 52, "duration": 100, "velocity": 90}, {"time": 152160, "pitch": 45, "duration": 100, "velocity": 110}, {"time": 152160, "pitch": 52, "duration": 100, "velocity": 100}, {"time": 152280, "pitch": 45, "duration": 100, "velocity": 100}, {"time": 152280, "pitch": 52, "duration": 100, "velocity": 90}, {"time": 152400, "pitch": 45, "duration": 100, "velocity": 100}, {"time": 152400, "pitch": 52, "duration": 100, "velocity": 90}, {"time": 152520, "pitch": 45, "duration": 100, "velocity": 100}, {"time": 152520, "pitch": 52, "duration": 100, "velocity": 90}, {"time": 153840, "pitch": 43, "duration": 100, "velocity": 100}, {"time": 153840, "pitch": 50, "duration": 100, "velocity": 90}, {"time": 153960, "pitch": 43, "duration": 100, "velocity": 100}, {"time": 153960, "pitch": 50, "duration": 100, "velocity": 90}, {"time": 154080, "pitch": 43, "duration": 100, "velocity": 110}, {"time": 154080, "pitch": 50, "duration": 100, "velocity": 100}, {"time": 154200, "pitch": 43, "duration": 100, "velocity": 100}, {"time": 154200, "pitch": 50, "duration": 100, "velocity": 90}, {"time": 154320, "pitch": 43, "duration": 100, "velocity": 100}, {"time": 154320, "pitch": 50, "duration": 100, "velocity": 90}, {"time": 154440, "pitch": 43, "duration": 100, "velocity": 100}, {"time": 154440, "pitch": 50, "duration": 100, "velocity": 90}, {"time": 154560, "pitch": 43, "duration": 100, "velocity": 110}, {"time": 154560, "pitch": 50, "duration": 100, "velocity": 100}, {"time": 154680, "pitch": 43, "duration": 100, "velocity": 100}, {"time": 154680, "pitch": 50, "duration": 100, "velocity": 90}, {"time": 154800, "pitch": 43, "duration": 100, "velocity": 100}, {"time": 154800, "pitch": 50, "duration": 100, "velocity": 90}, {"time": 154920, "pitch": 43, "duration": 100, "velocity": 100}, {"time": 154920, "pitch": 50, "duration": 100, "velocity": 90}, {"time": 155040, "pitch": 43, "duration": 100, "velocity": 110}, {"time": 155040, "pitch": 50, "duration": 100, "velocity": 100}, {"time": 155160, "pitch": 43, "duration": 100, "velocity": 100}, {"time": 155160, "pitch": 50, "duration": 100, "velocity": 90}, {"time": 155280, "pitch": 43, "duration": 100, "velocity": 100}, {"time": 155280, "pitch": 50, "duration": 100, "velocity": 90}, {"time": 155760, "pitch": 45, "duration": 100, "velocity": 100}, {"time": 155760, "pitch": 52, "duration": 100, "velocity": 90}, {"time": 155880, "pitch": 45, "duration": 100, "velocity": 100}, {"time": 155880, "pitch": 52, "duration": 100, "velocity": 90}, {"time": 156000, "pitch": 45, "duration": 100, "velocity": 110}, {"time": 156000, "pitch": 52, "duration": 100, "velocity": 100}, {"time": 156120, "pitch": 45, "duration": 100, "velocity": 100}, {"time": 156120, "pitch": 52, "duration": 100, "velocity": 90}, {"time": 156240, "pitch": 45, "duration": 100, "velocity": 100}, {"time": 156240, "pitch": 52, "duration": 100, "velocity": 90}, {"time": 156360, "pitch": 45, "duration": 100, "velocity": 100}, {"time": 156360, "pitch": 52, "duration": 100, "velocity": 90}, {"time": 157680, "pitch": 47, "duration": 100, "velocity": 100}, {"time": 157680, "pitch": 54, "duration": 100, "velocity": 90}, {"time": 157800, "pitch": 47, "duration": 100, "velocity": 100}, {"time": 157800, "pitch": 54, "duration": 100, "velocity": 90}, {"time": 157920, "pitch": 47, "duration": 100, "velocity": 110}, {"time": 157920, "pitch": 54, "duration": 100, "velocity": 100}, {"time": 158040, "pitch": 47, "duration": 100, "velocity": 100}, {"time": 158040, "pitch": 54, "duration": 100, "velocity": 90}, {"time": 158160, "pitch": 47, "duration": 100, "velocity": 100}, {"time": 158160, "pitch": 54, "duration": 100, "velocity": 90}, {"time": 158280, "pitch": 47, "duration": 100, "velocity": 100}, {"time": 158280, "pitch": 54, "duration": 100, "velocity": 90}, {"time": 158400, "pitch": 47, "duration": 100, "velocity": 110}, {"time": 158400, "pitch": 54, "duration": 100, "velocity": 100}, {"time": 158520, "pitch": 47, "duration": 100, "velocity": 100}, {"time": 158520, "pitch": 54, "duration": 100, "velocity": 90}, {"time": 158640, "pitch": 47, "duration": 100, "velocity": 100}, {"time": 158640, "pitch": 54, "duration": 100, "velocity": 90}, {"time": 158760, "pitch": 47, "duration": 100, "velocity": 100}, {"time": 158760, "pitch": 54, "duration": 100, "velocity": 90}, {"time": 158880, "pitch": 47, "duration": 100, "velocity": 110}, {"time": 158880, "pitch": 54, "duration": 100, "velocity": 100}, {"time": 159000, "pitch": 47, "duration": 100, "velocity": 100}, {"time": 159000, "pitch": 54, "duration": 100, "velocity": 90}, {"time": 159120, "pitch": 47, "duration": 100, "velocity": 100}, {"time": 159120, "pitch": 54, "duration": 100, "velocity": 90}, {"time": 159600, "pitch": 45, "duration": 100, "velocity": 100}, {"time": 159600, "pitch": 52, "duration": 100, "velocity": 90}, {"time": 159720, "pitch": 45, "duration": 100, "velocity": 100}, {"time": 159720, "pitch": 52, "duration": 100, "velocity": 90}, {"time": 159840, "pitch": 45, "duration": 100, "velocity": 110}, {"time": 159840, "pitch": 52, "duration": 100, "velocity": 100}, {"time": 159960, "pitch": 45, "duration": 100, "velocity": 100}, {"time": 159960, "pitch": 52, "duration": 100, "velocity": 90}, {"time": 160080, "pitch": 45, "duration": 100, "velocity": 100}, {"time": 160080, "pitch": 52, "duration": 100, "velocity": 90}, {"time": 160200, "pitch": 45, "duration": 100, "velocity": 100}, {"time": 160200, "pitch": 52, "duration": 100, "velocity": 90}, {"time": 161520, "pitch": 43, "duration": 100, "velocity": 100}, {"time": 161520, "pitch": 50, "duration": 100, "velocity": 90}, {"time": 161640, "pitch": 43, "duration": 100, "velocity": 100}, {"time": 161640, "pitch": 50, "duration": 100, "velocity": 90}, {"time": 161760, "pitch": 43, "duration": 100, "velocity": 110}, {"time": 161760, "pitch": 50, "duration": 100, "velocity": 100}, {"time": 161880, "pitch": 43, "duration": 100, "velocity": 100}, {"time": 161880, "pitch": 50, "duration": 100, "velocity": 90}, {"time": 162000, "pitch": 43, "duration": 100, "velocity": 100}, {"time": 162000, "pitch": 50, "duration": 100, "velocity": 90}, {"time": 162120, "pitch": 43, "duration": 100, "velocity": 100}, {"time": 162120, "pitch": 50, "duration": 100, "velocity": 90}, {"time": 162240, "pitch": 43, "duration": 100, "velocity": 110}, {"time": 162240, "pitch": 50, "duration": 100, "velocity": 100}, {"time": 162360, "pitch": 43, "duration": 100, "velocity": 100}, {"time": 162360, "pitch": 50, "duration": 100, "velocity": 90}, {"time": 162480, "pitch": 43, "duration": 100, "velocity": 100}, {"time": 162480, "pitch": 50, "duration": 100, "velocity": 90}, {"time": 162600, "pitch": 43, "duration": 100, "velocity": 100}, {"time": 162600, "pitch": 50, "duration": 100, "velocity": 90}, {"time": 162720, "pitch": 43, "duration": 100, "velocity": 110}, {"time": 162720, "pitch": 50, "duration": 100, "velocity": 100}, {"time": 162840, "pitch": 43, "duration": 100, "velocity": 100}, {"time": 162840, "pitch": 50, "duration": 100, "velocity": 90}, {"time": 162960, "pitch": 43, "duration": 100, "velocity": 100}, {"time": 162960, "pitch": 50, "duration": 100, "velocity": 90}, {"time": 163440, "pitch": 45, "duration": 100, "velocity": 100}, {"time": 163440, "pitch": 52, "duration": 100, "velocity": 90}, {"time": 163560, "pitch": 45, "duration": 100, "velocity": 100}, {"time": 163560, "pitch": 52, "duration": 100, "velocity": 90}, {"time": 163680, "pitch": 45, "duration": 100, "velocity": 110}, {"time": 163680, "pitch": 52, "duration": 100, "velocity": 100}, {"time": 163800, "pitch": 45, "duration": 100, "velocity": 100}, {"time": 163800, "pitch": 52, "duration": 100, "velocity": 90}, {"time": 163920, "pitch": 45, "duration": 100, "velocity": 100}, {"time": 163920, "pitch": 52, "duration": 100, "velocity": 90}, {"time": 164040, "pitch": 45, "duration": 100, "velocity": 100}, {"time": 164040, "pitch": 52, "duration": 100, "velocity": 90}, {"time": 164160, "pitch": 45, "duration": 100, "velocity": 110}, {"time": 164160, "pitch": 52, "duration": 100, "velocity": 100}, {"time": 164280, "pitch": 45, "duration": 100, "velocity": 100}, {"time": 164280, "pitch": 52, "duration": 100, "velocity": 90}, {"time": 164400, "pitch": 45, "duration": 100, "velocity": 100}, {"time": 164400, "pitch": 52, "duration": 100, "velocity": 90}, {"time": 164520, "pitch": 45, "duration": 100, "velocity": 100}, {"time": 164520, "pitch": 52, "duration": 100, "velocity": 90}, {"time": 165360, "pitch": 43, "duration": 100, "velocity": 100}, {"time": 165360, "pitch": 50, "duration": 100, "velocity": 90}, {"time": 165480, "pitch": 43, "duration": 100, "velocity": 100}, {"time": 165480, "pitch": 50, "duration": 100, "velocity": 90}, {"time": 165600, "pitch": 43, "duration": 100, "velocity": 110}, {"time": 165600, "pitch": 50, "duration": 100, "velocity": 100}, {"time": 165720, "pitch": 43, "duration": 100, "velocity": 100}, {"time": 165720, "pitch": 50, "duration": 100, "velocity": 90}, {"time": 165840, "pitch": 43, "duration": 100, "velocity": 100}, {"time": 165840, "pitch": 50, "duration": 100, "velocity": 90}, {"time": 165960, "pitch": 43, "duration": 100, "velocity": 100}, {"time": 165960, "pitch": 50, "duration": 100, "velocity": 90}, {"time": 166080, "pitch": 43, "duration": 100, "velocity": 110}, {"time": 166080, "pitch": 50, "duration": 100, "velocity": 100}, {"time": 166200, "pitch": 43, "duration": 100, "velocity": 100}, {"time": 166200, "pitch": 50, "duration": 100, "velocity": 90}, {"time": 166320, "pitch": 43, "duration": 100, "velocity": 100}, {"time": 166320, "pitch": 50, "duration": 100, "velocity": 90}, {"time": 166440, "pitch": 43, "duration": 100, "velocity": 100}, {"time": 166440, "pitch": 50, "duration": 100, "velocity": 90}, {"time": 166560, "pitch": 43, "duration": 100, "velocity": 110}, {"time": 166560, "pitch": 50, "duration": 100, "velocity": 100}, {"time": 166680, "pitch": 43, "duration": 100, "velocity": 100}, {"time": 166680, "pitch": 50, "duration": 100, "velocity": 90}, {"time": 166800, "pitch": 43, "duration": 100, "velocity": 100}, {"time": 166800, "pitch": 50, "duration": 100, "velocity": 90}, {"time": 167280, "pitch": 45, "duration": 100, "velocity": 100}, {"time": 167280, "pitch": 52, "duration": 100, "velocity": 90}, {"time": 167400, "pitch": 45, "duration": 100, "velocity": 100}, {"time": 167400, "pitch": 52, "duration": 100, "velocity": 90}, {"time": 167520, "pitch": 45, "duration": 100, "velocity": 110}, {"time": 167520, "pitch": 52, "duration": 100, "velocity": 100}, {"time": 167640, "pitch": 45, "duration": 100, "velocity": 100}, {"time": 167640, "pitch": 52, "duration": 100, "velocity": 90}, {"time": 167760, "pitch": 45, "duration": 100, "velocity": 100}, {"time": 167760, "pitch": 52, "duration": 100, "velocity": 90}, {"time": 167880, "pitch": 45, "duration": 100, "velocity": 100}, {"time": 167880, "pitch": 52, "duration": 100, "velocity": 90}, {"time": 168000, "pitch": 45, "duration": 100, "velocity": 110}, {"time": 168000, "pitch": 52, "duration": 100, "velocity": 100}, {"time": 168120, "pitch": 45, "duration": 100, "velocity": 100}, {"time": 168120, "pitch": 52, "duration": 100, "velocity": 90}, {"time": 168240, "pitch": 45, "duration": 100, "velocity": 100}, {"time": 168240, "pitch": 52, "duration": 100, "velocity": 90}, {"time": 168360, "pitch": 45, "duration": 100, "velocity": 100}, {"time": 168360, "pitch": 52, "duration": 100, "velocity": 90}, {"time": 168480, "pitch": 45, "duration": 100, "velocity": 110}, {"time": 168480, "pitch": 52, "duration": 100, "velocity": 100}, {"time": 168600, "pitch": 45, "duration": 100, "velocity": 100}, {"time": 168600, "pitch": 52, "duration": 100, "velocity": 90}, {"time": 168720, "pitch": 45, "duration": 100, "velocity": 100}, {"time": 168720, "pitch": 52, "duration": 100, "velocity": 90}, {"time": 169200, "pitch": 46, "duration": 100, "velocity": 100}, {"time": 169200, "pitch": 54, "duration": 100, "velocity": 90}, {"time": 169320, "pitch": 46, "duration": 100, "velocity": 100}, {"time": 169320, "pitch": 54, "duration": 100, "velocity": 90}, {"time": 169440, "pitch": 46, "duration": 100, "velocity": 110}, {"time": 169440, "pitch": 54, "duration": 100, "velocity": 100}, {"time": 169560, "pitch": 46, "duration": 100, "velocity": 100}, {"time": 169560, "pitch": 54, "duration": 100, "velocity": 90}, {"time": 169680, "pitch": 46, "duration": 100, "velocity": 100}, {"time": 169680, "pitch": 54, "duration": 100, "velocity": 90}, {"time": 169800, "pitch": 46, "duration": 100, "velocity": 100}, {"time": 169800, "pitch": 54, "duration": 100, "velocity": 90}, {"time": 169920, "pitch": 46, "duration": 100, "velocity": 110}, {"time": 169920, "pitch": 54, "duration": 100, "velocity": 100}, {"time": 170040, "pitch": 46, "duration": 100, "velocity": 100}, {"time": 170040, "pitch": 54, "duration": 100, "velocity": 90}, {"time": 170160, "pitch": 46, "duration": 100, "velocity": 100}, {"time": 170160, "pitch": 54, "duration": 100, "velocity": 90}, {"time": 170280, "pitch": 46, "duration": 100, "velocity": 100}, {"time": 170280, "pitch": 54, "duration": 100, "velocity": 90}, {"time": 170400, "pitch": 46, "duration": 100, "velocity": 110}, {"time": 170400, "pitch": 54, "duration": 100, "velocity": 100}, {"time": 170520, "pitch": 46, "duration": 100, "velocity": 100}, {"time": 170520, "pitch": 54, "duration": 100, "velocity": 90}, {"time": 170640, "pitch": 46, "duration": 100, "velocity": 100}, {"time": 170640, "pitch": 54, "duration": 100, "velocity": 90}, {"time": 171120, "pitch": 42, "duration": 100, "velocity": 100}, {"time": 171120, "pitch": 49, "duration": 100, "velocity": 90}, {"time": 171240, "pitch": 42, "duration": 100, "velocity": 100}, {"time": 171240, "pitch": 49, "duration": 100, "velocity": 90}, {"time": 171360, "pitch": 42, "duration": 100, "velocity": 110}, {"time": 171360, "pitch": 49, "duration": 100, "velocity": 100}, {"time": 171480, "pitch": 42, "duration": 100, "velocity": 100}, {"time": 171480, "pitch": 49, "duration": 100, "velocity": 90}, {"time": 171600, "pitch": 42, "duration": 100, "velocity": 100}, {"time": 171600, "pitch": 49, "duration": 100, "velocity": 90}, {"time": 171720, "pitch": 42, "duration": 100, "velocity": 100}, {"time": 171720, "pitch": 49, "duration": 100, "velocity": 90}, {"time": 171840, "pitch": 42, "duration": 100, "velocity": 110}, {"time": 171840, "pitch": 49, "duration": 100, "velocity": 100}, {"time": 171960, "pitch": 42, "duration": 100, "velocity": 100}, {"time": 171960, "pitch": 49, "duration": 100, "velocity": 90}, {"time": 172080, "pitch": 42, "duration": 100, "velocity": 100}, {"time": 172080, "pitch": 49, "duration": 100, "velocity": 90}, {"time": 172200, "pitch": 42, "duration": 100, "velocity": 100}, {"time": 172200, "pitch": 49, "duration": 100, "velocity": 90}, {"time": 174960, "pitch": 43, "duration": 100, "velocity": 100}, {"time": 174960, "pitch": 50, "duration": 100, "velocity": 90}, {"time": 175080, "pitch": 43, "duration": 100, "velocity": 100}, {"time": 175080, "pitch": 50, "duration": 100, "velocity": 90}, {"time": 175200, "pitch": 43, "duration": 100, "velocity": 110}, {"time": 175200, "pitch": 50, "duration": 100, "velocity": 100}, {"time": 175320, "pitch": 43, "duration": 100, "velocity": 100}, {"time": 175320, "pitch": 50, "duration": 100, "velocity": 90}, {"time": 175440, "pitch": 43, "duration": 100, "velocity": 100}, {"time": 175440, "pitch": 50, "duration": 100, "velocity": 90}, {"time": 175560, "pitch": 43, "duration": 100, "velocity": 100}, {"time": 175560, "pitch": 50, "duration": 100, "velocity": 90}, {"time": 175680, "pitch": 43, "duration": 100, "velocity": 110}, {"time": 175680, "pitch": 50, "duration": 100, "velocity": 100}, {"time": 175800, "pitch": 43, "duration": 100, "velocity": 100}, {"time": 175800, "pitch": 50, "duration": 100, "velocity": 90}, {"time": 175920, "pitch": 43, "duration": 100, "velocity": 100}, {"time": 175920, "pitch": 50, "duration": 100, "velocity": 90}, {"time": 176040, "pitch": 43, "duration": 100, "velocity": 100}, {"time": 176040, "pitch": 50, "duration": 100, "velocity": 90}, {"time": 176160, "pitch": 43, "duration": 100, "velocity": 110}, {"time": 176160, "pitch": 50, "duration": 100, "velocity": 100}, {"time": 176280, "pitch": 43, "duration": 100, "velocity": 100}, {"time": 176280, "pitch": 50, "duration": 100, "velocity": 90}, {"time": 176400, "pitch": 43, "duration": 100, "velocity": 100}, {"time": 176400, "pitch": 50, "duration": 100, "velocity": 90}, {"time": 176880, "pitch": 45, "duration": 100, "velocity": 100}, {"time": 176880, "pitch": 52, "duration": 100, "velocity": 90}, {"time": 177000, "pitch": 45, "duration": 100, "velocity": 100}, {"time": 177000, "pitch": 52, "duration": 100, "velocity": 90}, {"time": 177120, "pitch": 45, "duration": 100, "velocity": 110}, {"time": 177120, "pitch": 52, "duration": 100, "velocity": 100}, {"time": 177240, "pitch": 45, "duration": 100, "velocity": 100}, {"time": 177240, "pitch": 52, "duration": 100, "velocity": 90}, {"time": 177360, "pitch": 45, "duration": 100, "velocity": 100}, {"time": 177360, "pitch": 52, "duration": 100, "velocity": 90}, {"time": 177480, "pitch": 45, "duration": 100, "velocity": 100}, {"time": 177480, "pitch": 52, "duration": 100, "velocity": 90}, {"time": 177600, "pitch": 45, "duration": 100, "velocity": 110}, {"time": 177600, "pitch": 52, "duration": 100, "velocity": 100}, {"time": 177720, "pitch": 45, "duration": 100, "velocity": 100}, {"time": 177720, "pitch": 52, "duration": 100, "velocity": 90}, {"time": 177840, "pitch": 45, "duration": 100, "velocity": 100}, {"time": 177840, "pitch": 52, "duration": 100, "velocity": 90}, {"time": 177960, "pitch": 45, "duration": 100, "velocity": 100}, {"time": 177960, "pitch": 52, "duration": 100, "velocity": 90}, {"time": 178080, "pitch": 45, "duration": 100, "velocity": 110}, {"time": 178080, "pitch": 52, "duration": 100, "velocity": 100}, {"time": 178200, "pitch": 45, "duration": 100, "velocity": 100}, {"time": 178200, "pitch": 52, "duration": 100, "velocity": 90}, {"time": 180720, "pitch": 43, "duration": 100, "velocity": 100}, {"time": 180720, "pitch": 50, "duration": 100, "velocity": 90}, {"time": 180840, "pitch": 43, "duration": 100, "velocity": 100}, {"time": 180840, "pitch": 50, "duration": 100, "velocity": 90}, {"time": 180960, "pitch": 43, "duration": 100, "velocity": 110}, {"time": 180960, "pitch": 50, "duration": 100, "velocity": 100}, {"time": 181080, "pitch": 43, "duration": 100, "velocity": 100}, {"time": 181080, "pitch": 50, "duration": 100, "velocity": 90}, {"time": 181200, "pitch": 43, "duration": 100, "velocity": 100}, {"time": 181200, "pitch": 50, "duration": 100, "velocity": 90}, {"time": 181320, "pitch": 43, "duration": 100, "velocity": 100}, {"time": 181320, "pitch": 50, "duration": 100, "velocity": 90}, {"time": 181440, "pitch": 43, "duration": 100, "velocity": 110}, {"time": 181440, "pitch": 50, "duration": 100, "velocity": 100}, {"time": 181560, "pitch": 43, "duration": 100, "velocity": 100}, {"time": 181560, "pitch": 50, "duration": 100, "velocity": 90}, {"time": 181680, "pitch": 43, "duration": 100, "velocity": 100}, {"time": 181680, "pitch": 50, "duration": 100, "velocity": 90}, {"time": 181800, "pitch": 43, "duration": 100, "velocity": 100}, {"time": 181800, "pitch": 50, "duration": 100, "velocity": 90}, {"time": 181920, "pitch": 43, "duration": 100, "velocity": 110}, {"time": 181920, "pitch": 50, "duration": 100, "velocity": 100}, {"time": 182040, "pitch": 43, "duration": 100, "velocity": 100}, {"time": 182040, "pitch": 50, "duration": 100, "velocity": 90}, {"time": 182160, "pitch": 43, "duration": 100, "velocity": 100}, {"time": 182160, "pitch": 50, "duration": 100, "velocity": 90}, {"time": 182640, "pitch": 43, "duration": 100, "velocity": 100}, {"time": 182640, "pitch": 50, "duration": 100, "velocity": 90}, {"time": 182760, "pitch": 43, "duration": 100, "velocity": 100}, {"time": 182760, "pitch": 50, "duration": 100, "velocity": 90}, {"time": 182880, "pitch": 43, "duration": 100, "velocity": 110}, {"time": 182880, "pitch": 50, "duration": 100, "velocity": 100}, {"time": 183000, "pitch": 43, "duration": 100, "velocity": 100}, {"time": 183000, "pitch": 50, "duration": 100, "velocity": 90}, {"time": 183120, "pitch": 43, "duration": 100, "velocity": 100}, {"time": 183120, "pitch": 50, "duration": 100, "velocity": 90}, {"time": 183240, "pitch": 43, "duration": 100, "velocity": 100}, {"time": 183240, "pitch": 50, "duration": 100, "velocity": 90}, {"time": 183360, "pitch": 43, "duration": 100, "velocity": 110}, {"time": 183360, "pitch": 50, "duration": 100, "velocity": 100}, {"time": 183480, "pitch": 43, "duration": 100, "velocity": 100}, {"time": 183480, "pitch": 50, "duration": 100, "velocity": 90}, {"time": 183600, "pitch": 43, "duration": 100, "velocity": 100}, {"time": 183600, "pitch": 50, "duration": 100, "velocity": 90}, {"time": 183720, "pitch": 43, "duration": 100, "velocity": 100}, {"time": 183720, "pitch": 50, "duration": 100, "velocity": 90}, {"time": 183840, "pitch": 43, "duration": 100, "velocity": 110}, {"time": 183840, "pitch": 50, "duration": 100, "velocity": 100}, {"time": 183960, "pitch": 43, "duration": 100, "velocity": 100}, {"time": 183960, "pitch": 50, "duration": 100, "velocity": 90}, {"time": 184080, "pitch": 43, "duration": 100, "velocity": 100}, {"time": 184080, "pitch": 50, "duration": 100, "velocity": 90}, {"time": 184560, "pitch": 45, "duration": 100, "velocity": 100}, {"time": 184560, "pitch": 52, "duration": 100, "velocity": 90}, {"time": 184680, "pitch": 45, "duration": 100, "velocity": 100}, {"time": 184680, "pitch": 52, "duration": 100, "velocity": 90}, {"time": 184800, "pitch": 45, "duration": 100, "velocity": 110}, {"time": 184800, "pitch": 52, "duration": 100, "velocity": 100}, {"time": 184920, "pitch": 45, "duration": 100, "velocity": 100}, {"time": 184920, "pitch": 52, "duration": 100, "velocity": 90}, {"time": 185040, "pitch": 45, "duration": 100, "velocity": 100}, {"time": 185040, "pitch": 52, "duration": 100, "velocity": 90}, {"time": 185160, "pitch": 45, "duration": 100, "velocity": 100}, {"time": 185160, "pitch": 52, "duration": 100, "velocity": 90}, {"time": 185280, "pitch": 45, "duration": 100, "velocity": 110}, {"time": 185280, "pitch": 52, "duration": 100, "velocity": 100}, {"time": 185400, "pitch": 45, "duration": 100, "velocity": 100}, {"time": 185400, "pitch": 52, "duration": 100, "velocity": 90}, {"time": 185520, "pitch": 45, "duration": 100, "velocity": 100}, {"time": 185520, "pitch": 52, "duration": 100, "velocity": 90}, {"time": 185640, "pitch": 45, "duration": 100, "velocity": 100}, {"time": 185640, "pitch": 52, "duration": 100, "velocity": 90}, {"time": 219120, "pitch": 43, "duration": 100, "velocity": 100}, {"time": 219120, "pitch": 50, "duration": 100, "velocity": 90}, {"time": 219240, "pitch": 43, "duration": 100, "velocity": 100}, {"time": 219240, "pitch": 50, "duration": 100, "velocity": 90}, {"time": 219360, "pitch": 43, "duration": 100, "velocity": 110}, {"time": 219360, "pitch": 50, "duration": 100, "velocity": 100}, {"time": 219480, "pitch": 43, "duration": 100, "velocity": 100}, {"time": 219480, "pitch": 50, "duration": 100, "velocity": 90}, {"time": 219600, "pitch": 43, "duration": 100, "velocity": 100}, {"time": 219600, "pitch": 50, "duration": 100, "velocity": 90}, {"time": 219720, "pitch": 43, "duration": 100, "velocity": 100}, {"time": 219720, "pitch": 50, "duration": 100, "velocity": 90}, {"time": 219840, "pitch": 43, "duration": 100, "velocity": 110}, {"time": 219840, "pitch": 50, "duration": 100, "velocity": 100}, {"time": 219960, "pitch": 43, "duration": 100, "velocity": 100}, {"time": 219960, "pitch": 50, "duration": 100, "velocity": 90}, {"time": 220080, "pitch": 43, "duration": 100, "velocity": 100}, {"time": 220080, "pitch": 50, "duration": 100, "velocity": 90}, {"time": 220200, "pitch": 43, "duration": 100, "velocity": 100}, {"time": 220200, "pitch": 50, "duration": 100, "velocity": 90}, {"time": 220320, "pitch": 43, "duration": 100, "velocity": 110}, {"time": 220320, "pitch": 50, "duration": 100, "velocity": 100}, {"time": 220440, "pitch": 43, "duration": 100, "velocity": 100}, {"time": 220440, "pitch": 50, "duration": 100, "velocity": 90}, {"time": 220560, "pitch": 43, "duration": 100, "velocity": 100}, {"time": 220560, "pitch": 50, "duration": 100, "velocity": 90}, {"time": 221040, "pitch": 42, "duration": 100, "velocity": 100}, {"time": 221040, "pitch": 49, "duration": 100, "velocity": 90}, {"time": 221160, "pitch": 42, "duration": 100, "velocity": 100}, {"time": 221160, "pitch": 49, "duration": 100, "velocity": 90}, {"time": 221280, "pitch": 42, "duration": 100, "velocity": 110}, {"time": 221280, "pitch": 49, "duration": 100, "velocity": 100}, {"time": 221400, "pitch": 42, "duration": 100, "velocity": 100}, {"time": 221400, "pitch": 49, "duration": 100, "velocity": 90}, {"time": 221520, "pitch": 42, "duration": 100, "velocity": 100}, {"time": 221520, "pitch": 49, "duration": 100, "velocity": 90}, {"time": 221640, "pitch": 42, "duration": 100, "velocity": 100}, {"time": 221640, "pitch": 49, "duration": 100, "velocity": 90}, {"time": 221760, "pitch": 42, "duration": 100, "velocity": 110}, {"time": 221760, "pitch": 49, "duration": 100, "velocity": 100}, {"time": 221880, "pitch": 42, "duration": 100, "velocity": 100}, {"time": 221880, "pitch": 49, "duration": 100, "velocity": 90}, {"time": 222000, "pitch": 42, "duration": 100, "velocity": 100}, {"time": 222000, "pitch": 49, "duration": 100, "velocity": 90}, {"time": 222120, "pitch": 42, "duration": 100, "velocity": 100}, {"time": 222120, "pitch": 49, "duration": 100, "velocity": 90}, {"time": 222240, "pitch": 42, "duration": 100, "velocity": 110}, {"time": 222240, "pitch": 49, "duration": 100, "velocity": 100}, {"time": 222360, "pitch": 42, "duration": 100, "velocity": 100}, {"time": 222360, "pitch": 49, "duration": 100, "velocity": 90}, {"time": 222480, "pitch": 42, "duration": 100, "velocity": 100}, {"time": 222480, "pitch": 49, "duration": 100, "velocity": 90}, {"time": 222960, "pitch": 40, "duration": 100, "velocity": 100}, {"time": 222960, "pitch": 47, "duration": 100, "velocity": 90}, {"time": 223080, "pitch": 40, "duration": 100, "velocity": 100}, {"time": 223080, "pitch": 47, "duration": 100, "velocity": 90}, {"time": 223200, "pitch": 40, "duration": 100, "velocity": 110}, {"time": 223200, "pitch": 47, "duration": 100, "velocity": 100}, {"time": 223320, "pitch": 40, "duration": 100, "velocity": 100}, {"time": 223320, "pitch": 47, "duration": 100, "velocity": 90}, {"time": 223440, "pitch": 40, "duration": 100, "velocity": 100}, {"time": 223440, "pitch": 47, "duration": 100, "velocity": 90}, {"time": 223560, "pitch": 40, "duration": 100, "velocity": 100}, {"time": 223560, "pitch": 47, "duration": 100, "velocity": 90}, {"time": 223680, "pitch": 40, "duration": 100, "velocity": 110}, {"time": 223680, "pitch": 47, "duration": 100, "velocity": 100}, {"time": 223800, "pitch": 40, "duration": 100, "velocity": 100}, {"time": 223800, "pitch": 47, "duration": 100, "velocity": 90}, {"time": 223920, "pitch": 40, "duration": 100, "velocity": 100}, {"time": 223920, "pitch": 47, "duration": 100, "velocity": 90}, {"time": 224040, "pitch": 40, "duration": 100, "velocity": 100}, {"time": 224040, "pitch": 47, "duration": 100, "velocity": 90}, {"time": 224160, "pitch": 40, "duration": 100, "velocity": 110}, {"time": 224160, "pitch": 47, "duration": 100, "velocity": 100}, {"time": 224280, "pitch": 40, "duration": 100, "velocity": 100}, {"time": 224280, "pitch": 47, "duration": 100, "velocity": 90}, {"time": 224400, "pitch": 40, "duration": 100, "velocity": 100}, {"time": 224400, "pitch": 47, "duration": 100, "velocity": 90}, {"time": 224880, "pitch": 42, "duration": 100, "velocity": 100}, {"time": 224880, "pitch": 49, "duration": 100, "velocity": 90}, {"time": 225000, "pitch": 42, "duration": 100, "velocity": 100}, {"time": 225000, "pitch": 49, "duration": 100, "velocity": 90}, {"time": 225120, "pitch": 42, "duration": 100, "velocity": 110}, {"time": 225120, "pitch": 49, "duration": 100, "velocity": 100}, {"time": 225240, "pitch": 42, "duration": 100, "velocity": 100}, {"time": 225240, "pitch": 49, "duration": 100, "velocity": 90}, {"time": 225360, "pitch": 42, "duration": 100, "velocity": 100}, {"time": 225360, "pitch": 49, "duration": 100, "velocity": 90}, {"time": 225480, "pitch": 42, "duration": 100, "velocity": 100}, {"time": 225480, "pitch": 49, "duration": 100, "velocity": 90}, {"time": 225600, "pitch": 42, "duration": 100, "velocity": 110}, {"time": 225600, "pitch": 49, "duration": 100, "velocity": 100}, {"time": 225720, "pitch": 42, "duration": 100, "velocity": 100}, {"time": 225720, "pitch": 49, "duration": 100, "velocity": 90}, {"time": 225840, "pitch": 42, "duration": 100, "velocity": 100}, {"time": 225840, "pitch": 49, "duration": 100, "velocity": 90}, {"time": 225960, "pitch": 42, "duration": 100, "velocity": 100}, {"time": 225960, "pitch": 49, "duration": 100, "velocity": 90}, {"time": 226080, "pitch": 42, "duration": 100, "velocity": 110}, {"time": 226080, "pitch": 49, "duration": 100, "velocity": 100}, {"time": 226200, "pitch": 42, "duration": 100, "velocity": 100}, {"time": 226200, "pitch": 49, "duration": 100, "velocity": 90}, {"time": 226320, "pitch": 42, "duration": 100, "velocity": 100}, {"time": 226320, "pitch": 49, "duration": 100, "velocity": 90}, {"time": 226800, "pitch": 43, "duration": 100, "velocity": 100}, {"time": 226800, "pitch": 50, "duration": 100, "velocity": 90}, {"time": 226920, "pitch": 43, "duration": 100, "velocity": 100}, {"time": 226920, "pitch": 50, "duration": 100, "velocity": 90}, {"time": 227040, "pitch": 43, "duration": 100, "velocity": 110}, {"time": 227040, "pitch": 50, "duration": 100, "velocity": 100}, {"time": 227160, "pitch": 43, "duration": 100, "velocity": 100}, {"time": 227160, "pitch": 50, "duration": 100, "velocity": 90}, {"time": 227280, "pitch": 43, "duration": 100, "velocity": 100}, {"time": 227280, "pitch": 50, "duration": 100, "velocity": 90}, {"time": 227400, "pitch": 43, "duration": 100, "velocity": 100}, {"time": 227400, "pitch": 50, "duration": 100, "velocity": 90}, {"time": 227520, "pitch": 43, "duration": 100, "velocity": 110}, {"time": 227520, "pitch": 50, "duration": 100, "velocity": 100}, {"time": 227640, "pitch": 43, "duration": 100, "velocity": 100}, {"time": 227640, "pitch": 50, "duration": 100, "velocity": 90}, {"time": 227760, "pitch": 43, "duration": 100, "velocity": 100}, {"time": 227760, "pitch": 50, "duration": 100, "velocity": 90}, {"time": 227880, "pitch": 43, "duration": 100, "velocity": 100}, {"time": 227880, "pitch": 50, "duration": 100, "velocity": 90}, {"time": 228000, "pitch": 43, "duration": 100, "velocity": 110}, {"time": 228000, "pitch": 50, "duration": 100, "velocity": 100}, {"time": 228120, "pitch": 43, "duration": 100, "velocity": 100}, {"time": 228120, "pitch": 50, "duration": 100, "velocity": 90}, {"time": 228240, "pitch": 43, "duration": 100, "velocity": 100}, {"time": 228240, "pitch": 50, "duration": 100, "velocity": 90}, {"time": 228720, "pitch": 42, "duration": 100, "velocity": 100}, {"time": 228720, "pitch": 49, "duration": 100, "velocity": 90}, {"time": 228840, "pitch": 42, "duration": 100, "velocity": 100}, {"time": 228840, "pitch": 49, "duration": 100, "velocity": 90}, {"time": 228960, "pitch": 42, "duration": 100, "velocity": 110}, {"time": 228960, "pitch": 49, "duration": 100, "velocity": 100}, {"time": 229080, "pitch": 42, "duration": 100, "velocity": 100}, {"time": 229080, "pitch": 49, "duration": 100, "velocity": 90}, {"time": 229200, "pitch": 42, "duration": 100, "velocity": 100}, {"time": 229200, "pitch": 49, "duration": 100, "velocity": 90}, {"time": 229320, "pitch": 42, "duration": 100, "velocity": 100}, {"time": 229320, "pitch": 49, "duration": 100, "velocity": 90}, {"time": 229440, "pitch": 42, "duration": 100, "velocity": 110}, {"time": 229440, "pitch": 49, "duration": 100, "velocity": 100}, {"time": 229560, "pitch": 42, "duration": 100, "velocity": 100}, {"time": 229560, "pitch": 49, "duration": 100, "velocity": 90}, {"time": 229680, "pitch": 42, "duration": 100, "velocity": 100}, {"time": 229680, "pitch": 49, "duration": 100, "velocity": 90}, {"time": 229800, "pitch": 42, "duration": 100, "velocity": 100}, {"time": 229800, "pitch": 49, "duration": 100, "velocity": 90}, {"time": 229920, "pitch": 42, "duration": 100, "velocity": 110}, {"time": 229920, "pitch": 49, "duration": 100, "velocity": 100}, {"time": 230040, "pitch": 42, "duration": 100, "velocity": 100}, {"time": 230040, "pitch": 49, "duration": 100, "velocity": 90}, {"time": 230160, "pitch": 42, "duration": 100, "velocity": 100}, {"time": 230160, "pitch": 49, "duration": 100, "velocity": 90}, {"time": 230640, "pitch": 40, "duration": 100, "velocity": 100}, {"time": 230640, "pitch": 47, "duration": 100, "velocity": 90}, {"time": 230760, "pitch": 40, "duration": 100, "velocity": 100}, {"time": 230760, "pitch": 47, "duration": 100, "velocity": 90}, {"time": 230880, "pitch": 40, "duration": 100, "velocity": 110}, {"time": 230880, "pitch": 47, "duration": 100, "velocity": 100}, {"time": 231000, "pitch": 40, "duration": 100, "velocity": 100}, {"time": 231000, "pitch": 47, "duration": 100, "velocity": 90}, {"time": 231120, "pitch": 40, "duration": 100, "velocity": 100}, {"time": 231120, "pitch": 47, "duration": 100, "velocity": 90}, {"time": 231240, "pitch": 40, "duration": 100, "velocity": 100}, {"time": 231240, "pitch": 47, "duration": 100, "velocity": 90}, {"time": 231360, "pitch": 40, "duration": 100, "velocity": 110}, {"time": 231360, "pitch": 47, "duration": 100, "velocity": 100}, {"time": 231480, "pitch": 40, "duration": 100, "velocity": 100}, {"time": 231480, "pitch": 47, "duration": 100, "velocity": 90}, {"time": 231600, "pitch": 40, "duration": 100, "velocity": 100}, {"time": 231600, "pitch": 47, "duration": 100, "velocity": 90}, {"time": 231720, "pitch": 40, "duration": 100, "velocity": 100}, {"time": 231720, "pitch": 47, "duration": 100, "velocity": 90}, {"time": 231840, "pitch": 40, "duration": 100, "velocity": 110}, {"time": 231840, "pitch": 47, "duration": 100, "velocity": 100}, {"time": 231960, "pitch": 40, "duration": 100, "velocity": 100}, {"time": 231960, "pitch": 47, "duration": 100, "velocity": 90}, {"time": 232080, "pitch": 40, "duration": 100, "velocity": 100}, {"time": 232080, "pitch": 47, "duration": 100, "velocity": 90}, {"time": 232560, "pitch": 42, "duration": 100, "velocity": 100}, {"time": 232560, "pitch": 49, "duration": 100, "velocity": 90}, {"time": 232680, "pitch": 42, "duration": 100, "velocity": 100}, {"time": 232680, "pitch": 49, "duration": 100, "velocity": 90}, {"time": 232800, "pitch": 42, "duration": 100, "velocity": 110}, {"time": 232800, "pitch": 49, "duration": 100, "velocity": 100}, {"time": 232920, "pitch": 42, "duration": 100, "velocity": 100}, {"time": 232920, "pitch": 49, "duration": 100, "velocity": 90}, {"time": 233040, "pitch": 42, "duration": 100, "velocity": 100}, {"time": 233040, "pitch": 49, "duration": 100, "velocity": 90}, {"time": 234480, "pitch": 47, "duration": 100, "velocity": 100}, {"time": 234480, "pitch": 54, "duration": 100, "velocity": 90}, {"time": 234600, "pitch": 47, "duration": 100, "velocity": 100}, {"time": 234600, "pitch": 54, "duration": 100, "velocity": 90}, {"time": 234720, "pitch": 47, "duration": 100, "velocity": 110}, {"time": 234720, "pitch": 54, "duration": 100, "velocity": 100}, {"time": 234840, "pitch": 47, "duration": 100, "velocity": 100}, {"time": 234840, "pitch": 54, "duration": 100, "velocity": 90}, {"time": 234960, "pitch": 47, "duration": 100, "velocity": 100}, {"time": 234960, "pitch": 54, "duration": 100, "velocity": 90}, {"time": 235080, "pitch": 47, "duration": 100, "velocity": 100}, {"time": 235080, "pitch": 54, "duration": 100, "velocity": 90}, {"time": 235200, "pitch": 47, "duration": 100, "velocity": 110}, {"time": 235200, "pitch": 54, "duration": 100, "velocity": 100}, {"time": 235320, "pitch": 47, "duration": 100, "velocity": 100}, {"time": 235320, "pitch": 54, "duration": 100, "velocity": 90}, {"time": 235440, "pitch": 47, "duration": 100, "velocity": 100}, {"time": 235440, "pitch": 54, "duration": 100, "velocity": 90}, {"time": 235560, "pitch": 47, "duration": 100, "velocity": 100}, {"time": 235560, "pitch": 54, "duration": 100, "velocity": 90}, {"time": 235680, "pitch": 47, "duration": 100, "velocity": 110}, {"time": 235680, "pitch": 54, "duration": 100, "velocity": 100}, {"time": 235800, "pitch": 47, "duration": 100, "velocity": 100}, {"time": 235800, "pitch": 54, "duration": 100, "velocity": 90}, {"time": 235920, "pitch": 47, "duration": 100, "velocity": 100}, {"time": 235920, "pitch": 54, "duration": 100, "velocity": 90}, {"time": 236400, "pitch": 47, "duration": 100, "velocity": 100}, {"time": 236400, "pitch": 52, "duration": 100, "velocity": 90}, {"time": 236520, "pitch": 47, "duration": 100, "velocity": 100}, {"time": 236520, "pitch": 52, "duration": 100, "velocity": 90}, {"time": 236640, "pitch": 47, "duration": 100, "velocity": 110}, {"time": 236640, "pitch": 52, "duration": 100, "velocity": 100}, {"time": 236760, "pitch": 47, "duration": 100, "velocity": 100}, {"time": 236760, "pitch": 52, "duration": 100, "velocity": 90}, {"time": 236880, "pitch": 47, "duration": 100, "velocity": 100}, {"time": 236880, "pitch": 52, "duration": 100, "velocity": 90}, {"time": 237000, "pitch": 47, "duration": 100, "velocity": 100}, {"time": 237000, "pitch": 52, "duration": 100, "velocity": 90}, {"time": 237120, "pitch": 47, "duration": 100, "velocity": 110}, {"time": 237120, "pitch": 52, "duration": 100, "velocity": 100}, {"time": 237240, "pitch": 47, "duration": 100, "velocity": 100}, {"time": 237240, "pitch": 52, "duration": 100, "velocity": 90}, {"time": 237360, "pitch": 47, "duration": 100, "velocity": 100}, {"time": 237360, "pitch": 52, "duration": 100, "velocity": 90}, {"time": 237480, "pitch": 47, "duration": 100, "velocity": 100}, {"time": 237480, "pitch": 52, "duration": 100, "velocity": 90}, {"time": 239280, "pitch": 47, "duration": 100, "velocity": 100}, {"time": 239280, "pitch": 54, "duration": 100, "velocity": 90}, {"time": 239400, "pitch": 47, "duration": 100, "velocity": 100}, {"time": 239400, "pitch": 54, "duration": 100, "velocity": 90}, {"time": 239520, "pitch": 47, "duration": 100, "velocity": 110}, {"time": 239520, "pitch": 54, "duration": 100, "velocity": 100}, {"time": 239640, "pitch": 47, "duration": 100, "velocity": 100}, {"time": 239640, "pitch": 54, "duration": 100, "velocity": 90}, {"time": 239760, "pitch": 47, "duration": 100, "velocity": 100}, {"time": 239760, "pitch": 54, "duration": 100, "velocity": 90}, {"time": 239880, "pitch": 47, "duration": 100, "velocity": 100}, {"time": 239880, "pitch": 54, "duration": 100, "velocity": 90}, {"time": 240000, "pitch": 47, "duration": 100, "velocity": 110}, {"time": 240000, "pitch": 54, "duration": 100, "velocity": 100}, {"time": 240120, "pitch": 47, "duration": 100, "velocity": 100}, {"time": 240120, "pitch": 54, "duration": 100, "velocity": 90}, {"time": 240240, "pitch": 47, "duration": 100, "velocity": 100}, {"time": 240240, "pitch": 54, "duration": 100, "velocity": 90}, {"time": 240360, "pitch": 47, "duration": 100, "velocity": 100}, {"time": 240360, "pitch": 54, "duration": 100, "velocity": 90}, {"time": 240480, "pitch": 47, "duration": 100, "velocity": 110}, {"time": 240480, "pitch": 54, "duration": 100, "velocity": 100}, {"time": 240600, "pitch": 47, "duration": 100, "velocity": 100}, {"time": 240600, "pitch": 54, "duration": 100, "velocity": 90}, {"time": 240720, "pitch": 47, "duration": 100, "velocity": 100}, {"time": 240720, "pitch": 54, "duration": 100, "velocity": 90}, {"time": 241200, "pitch": 47, "duration": 100, "velocity": 100}, {"time": 241200, "pitch": 52, "duration": 100, "velocity": 90}, {"time": 241320, "pitch": 47, "duration": 100, "velocity": 100}, {"time": 241320, "pitch": 52, "duration": 100, "velocity": 90}, {"time": 241440, "pitch": 47, "duration": 100, "velocity": 110}, {"time": 241440, "pitch": 52, "duration": 100, "velocity": 100}, {"time": 241560, "pitch": 47, "duration": 100, "velocity": 100}, {"time": 241560, "pitch": 52, "duration": 100, "velocity": 90}, {"time": 241680, "pitch": 47, "duration": 100, "velocity": 100}, {"time": 241680, "pitch": 52, "duration": 100, "velocity": 90}, {"time": 241800, "pitch": 47, "duration": 100, "velocity": 100}, {"time": 241800, "pitch": 52, "duration": 100, "velocity": 90}, {"time": 241920, "pitch": 47, "duration": 100, "velocity": 110}, {"time": 241920, "pitch": 52, "duration": 100, "velocity": 100}, {"time": 242040, "pitch": 47, "duration": 100, "velocity": 100}, {"time": 242040, "pitch": 52, "duration": 100, "velocity": 90}, {"time": 242160, "pitch": 47, "duration": 100, "velocity": 100}, {"time": 242160, "pitch": 52, "duration": 100, "velocity": 90}, {"time": 242280, "pitch": 47, "duration": 100, "velocity": 100}, {"time": 242280, "pitch": 52, "duration": 100, "velocity": 90}, {"time": 244800, "pitch": 47, "duration": 100, "velocity": 100}, {"time": 244800, "pitch": 54, "duration": 100, "velocity": 90}, {"time": 244920, "pitch": 47, "duration": 100, "velocity": 100}, {"time": 244920, "pitch": 54, "duration": 100, "velocity": 90}, {"time": 245040, "pitch": 47, "duration": 100, "velocity": 110}, {"time": 245040, "pitch": 54, "duration": 100, "velocity": 100}, {"time": 245160, "pitch": 47, "duration": 100, "velocity": 100}, {"time": 245160, "pitch": 54, "duration": 100, "velocity": 90}, {"time": 245280, "pitch": 47, "duration": 100, "velocity": 100}, {"time": 245280, "pitch": 54, "duration": 100, "velocity": 90}, {"time": 245400, "pitch": 47, "duration": 100, "velocity": 100}, {"time": 245400, "pitch": 54, "duration": 100, "velocity": 90}, {"time": 245520, "pitch": 47, "duration": 100, "velocity": 110}, {"time": 245520, "pitch": 54, "duration": 100, "velocity": 100}, {"time": 245640, "pitch": 47, "duration": 100, "velocity": 100}, {"time": 245640, "pitch": 54, "duration": 100, "velocity": 90}, {"time": 245760, "pitch": 47, "duration": 100, "velocity": 100}, {"time": 245760, "pitch": 54, "duration": 100, "velocity": 90}, {"time": 245880, "pitch": 47, "duration": 100, "velocity": 100}, {"time": 245880, "pitch": 54, "duration": 100, "velocity": 90}, {"time": 246000, "pitch": 47, "duration": 100, "velocity": 110}, {"time": 246000, "pitch": 54, "duration": 100, "velocity": 100}, {"time": 246120, "pitch": 47, "duration": 100, "velocity": 100}, {"time": 246120, "pitch": 54, "duration": 100, "velocity": 90}, {"time": 246240, "pitch": 47, "duration": 100, "velocity": 100}, {"time": 246240, "pitch": 54, "duration": 100, "velocity": 90}, {"time": 246720, "pitch": 47, "duration": 100, "velocity": 100}, {"time": 246720, "pitch": 52, "duration": 100, "velocity": 90}, {"time": 246840, "pitch": 47, "duration": 100, "velocity": 100}, {"time": 246840, "pitch": 52, "duration": 100, "velocity": 90}, {"time": 246960, "pitch": 47, "duration": 100, "velocity": 110}, {"time": 246960, "pitch": 52, "duration": 100, "velocity": 100}, {"time": 247080, "pitch": 47, "duration": 100, "velocity": 100}, {"time": 247080, "pitch": 52, "duration": 100, "velocity": 90}, {"time": 247200, "pitch": 47, "duration": 100, "velocity": 100}, {"time": 247200, "pitch": 52, "duration": 100, "velocity": 90}, {"time": 247320, "pitch": 47, "duration": 100, "velocity": 100}, {"time": 247320, "pitch": 52, "duration": 100, "velocity": 90}, {"time": 247440, "pitch": 47, "duration": 100, "velocity": 110}, {"time": 247440, "pitch": 52, "duration": 100, "velocity": 100}, {"time": 247560, "pitch": 47, "duration": 100, "velocity": 100}, {"time": 247560, "pitch": 52, "duration": 100, "velocity": 90}, {"time": 247680, "pitch": 47, "duration": 100, "velocity": 100}, {"time": 247680, "pitch": 52, "duration": 100, "velocity": 90}, {"time": 247800, "pitch": 47, "duration": 100, "velocity": 100}, {"time": 247800, "pitch": 52, "duration": 100, "velocity": 90}, {"time": 217920, "pitch": 55, "duration": 820, "velocity": 110}, {"time": 1920, "pitch": 23, "duration": 1420, "velocity": 85}, {"time": 1920, "pitch": 35, "duration": 1420, "velocity": 85}, {"time": 3360, "pitch": 30, "duration": 450, "velocity": 85}, {"time": 3360, "pitch": 42, "duration": 450, "velocity": 85}, {"time": 3840, "pitch": 24, "duration": 1900, "velocity": 85}, {"time": 3840, "pitch": 36, "duration": 1900, "velocity": 85}, {"time": 5760, "pitch": 23, "duration": 1420, "velocity": 85}, {"time": 5760, "pitch": 35, "duration": 1420, "velocity": 85}, {"time": 7200, "pitch": 30, "duration": 450, "velocity": 85}, {"time": 7200, "pitch": 42, "duration": 450, "velocity": 85}, {"time": 7680, "pitch": 24, "duration": 1900, "velocity": 85}, {"time": 7680, "pitch": 36, "duration": 1900, "velocity": 85}, {"time": 9600, "pitch": 23, "duration": 1420, "velocity": 85}, {"time": 9600, "pitch": 35, "duration": 1420, "velocity": 85}, {"time": 9600, "pitch": 47, "duration": 1420, "velocity": 95}, {"time": 11040, "pitch": 30, "duration": 450, "velocity": 85}, {"time": 11040, "pitch": 42, "duration": 450, "velocity": 85}, {"time": 11040, "pitch": 54, "duration": 450, "velocity": 95}, {"time": 11520, "pitch": 24, "duration": 1900, "velocity": 85}, {"time": 11520, "pitch": 36, "duration": 1900, "velocity": 85}, {"time": 11520, "pitch": 48, "duration": 1900, "velocity": 95}, {"time": 13440, "pitch": 23, "duration": 1420, "velocity": 85}, {"time": 13440, "pitch": 35, "duration": 1420, "velocity": 85}, {"time": 13440, "pitch": 47, "duration": 1420, "velocity": 85}, {"time": 13440, "pitch": 59, "duration": 1420, "velocity": 85}, {"time": 14880, "pitch": 30, "duration": 450, "velocity": 85}, {"time": 14880, "pitch": 42, "duration": 450, "velocity": 85}, {"time": 14880, "pitch": 54, "duration": 450, "velocity": 85}, {"time": 14880, "pitch": 66, "duration": 450, "velocity": 85}, {"time": 15360, "pitch": 24, "duration": 1900, "velocity": 85}, {"time": 15360, "pitch": 36, "duration": 1900, "velocity": 85}, {"time": 15360, "pitch": 48, "duration": 1900, "velocity": 85}, {"time": 15360, "pitch": 60, "duration": 1900, "velocity": 85}, {"time": 17280, "pitch": 23, "duration": 7660, "velocity": 85}, {"time": 17280, "pitch": 35, "duration": 7660, "velocity": 85}, {"time": 17280, "pitch": 47, "duration": 7660, "velocity": 75}]}]}