{"metadata": {"schema_version": "0.1", "title": "RWC-MDB-P-2001 No. 94: Life / Betty", "copyright": "RWC Music Database. Copyright (C) 2001 Real World Computing Partnership (contact: Masataka GOTO <m.goto@aist.go.jp>)", "source_filename": "RM-P094.SMF_SYNC.MID", "source_format": "midi"}, "resolution": 480, "tempos": [{"time": 0, "qpm": 39.735099337748345}, {"time": 480, "qpm": 78.94736842105263}, {"time": 2400, "qpm": 77.92207792207792}, {"time": 3360, "qpm": 76.92307692307692}, {"time": 4320, "qpm": 77.92207792207792}, {"time": 4800, "qpm": 78.94736842105263}, {"time": 5760, "qpm": 77.92207792207792}, {"time": 6240, "qpm": 78.94736842105263}, {"time": 6720, "qpm": 77.92207792207792}, {"time": 7200, "qpm": 78.94736842105263}, {"time": 7680, "qpm": 76.92307692307692}, {"time": 8160, "qpm": 77.92207792207792}, {"time": 9600, "qpm": 76.92307692307692}, {"time": 11040, "qpm": 78.94736842105263}, {"time": 11520, "qpm": 76.92307692307692}, {"time": 12000, "qpm": 78.94736842105263}, {"time": 13920, "qpm": 77.92207792207792}, {"time": 14400, "qpm": 76.92307692307692}, {"time": 16320, "qpm": 78.94736842105263}, {"time": 16800, "qpm": 76.92307692307692}, {"time": 17280, "qpm": 77.92207792207792}, {"time": 17760, "qpm": 78.94736842105263}, {"time": 18720, "qpm": 76.92307692307692}, {"time": 19680, "qpm": 77.92207792207792}, {"time": 20160, "qpm": 78.94736842105263}, {"time": 21120, "qpm": 76.92307692307692}, {"time": 21600, "qpm": 77.92207792207792}, {"time": 23520, "qpm": 78.94736842105263}, {"time": 24000, "qpm": 77.92207792207792}, {"time": 25440, "qpm": 78.94736842105263}, {"time": 25920, "qpm": 77.92207792207792}, {"time": 27840, "qpm": 76.92307692307692}, {"time": 28320, "qpm": 77.92207792207792}, {"time": 29760, "qpm": 78.94736842105263}, {"time": 31200, "qpm": 77.92207792207792}, {"time": 31680, "qpm": 76.92307692307692}, {"time": 32160, "qpm": 77.92207792207792}, {"time": 33600, "qpm": 76.92307692307692}, {"time": 34080, "qpm": 78.94736842105263}, {"time": 35520, "qpm": 77.92207792207792}, {"time": 36480, "qpm": 76.92307692307692}, {"time": 37440, "qpm": 77.92207792207792}, {"time": 37920, "qpm": 78.94736842105263}, {"time": 38880, "qpm": 77.92207792207792}, {"time": 39360, "qpm": 76.92307692307692}, {"time": 40800, "qpm": 78.94736842105263}, {"time": 42240, "qpm": 77.92207792207792}, {"time": 43200, "qpm": 76.92307692307692}, {"time": 43680, "qpm": 77.92207792207792}, {"time": 45120, "qpm": 76.92307692307692}, {"time": 45600, "qpm": 78.94736842105263}, {"time": 46560, "qpm": 76.92307692307692}, {"time": 47520, "qpm": 78.94736842105263}, {"time": 48000, "qpm": 77.92207792207792}, {"time": 48480, "qpm": 78.94736842105263}, {"time": 48960, "qpm": 77.92207792207792}, {"time": 49920, "qpm": 76.92307692307692}, {"time": 50400, "qpm": 78.94736842105263}, {"time": 50880, "qpm": 77.92207792207792}, {"time": 52320, "qpm": 78.94736842105263}, {"time": 53280, "qpm": 76.92307692307692}, {"time": 54240, "qpm": 77.92207792207792}, {"time": 54720, "qpm": 78.94736842105263}, {"time": 55200, "qpm": 76.92307692307692}, {"time": 56160, "qpm": 77.92207792207792}, {"time": 57120, "qpm": 78.94736842105263}, {"time": 59040, "qpm": 76.92307692307692}, {"time": 59520, "qpm": 77.92207792207792}, {"time": 60000, "qpm": 78.94736842105263}, {"time": 60960, "qpm": 76.92307692307692}, {"time": 61920, "qpm": 78.94736842105263}, {"time": 62880, "qpm": 77.92207792207792}, {"time": 63360, "qpm": 76.92307692307692}, {"time": 63840, "qpm": 77.92207792207792}, {"time": 64320, "qpm": 78.94736842105263}, {"time": 65280, "qpm": 77.92207792207792}, {"time": 66240, "qpm": 76.92307692307692}, {"time": 67680, "qpm": 77.92207792207792}, {"time": 68640, "qpm": 78.94736842105263}, {"time": 69600, "qpm": 76.92307692307692}, {"time": 71040, "qpm": 77.92207792207792}, {"time": 71520, "qpm": 78.94736842105263}, {"time": 73920, "qpm": 77.92207792207792}, {"time": 74880, "qpm": 76.92307692307692}, {"time": 75360, "qpm": 77.92207792207792}, {"time": 75840, "qpm": 76.92307692307692}, {"time": 76320, "qpm": 77.92207792207792}, {"time": 76800, "qpm": 76.92307692307692}, {"time": 77280, "qpm": 78.94736842105263}, {"time": 78240, "qpm": 77.92207792207792}, {"time": 78720, "qpm": 76.92307692307692}, {"time": 79200, "qpm": 78.94736842105263}, {"time": 79680, "qpm": 77.92207792207792}, {"time": 80160, "qpm": 78.94736842105263}, {"time": 80640, "qpm": 77.92207792207792}, {"time": 81120, "qpm": 76.92307692307692}, {"time": 82080, "qpm": 77.92207792207792}, {"time": 82560, "qpm": 78.94736842105263}, {"time": 83040, "qpm": 76.92307692307692}, {"time": 84000, "qpm": 78.94736842105263}, {"time": 85440, "qpm": 77.92207792207792}, {"time": 86400, "qpm": 78.94736842105263}, {"time": 86880, "qpm": 76.92307692307692}, {"time": 87840, "qpm": 78.94736842105263}, {"time": 88320, "qpm": 76.92307692307692}, {"time": 88800, "qpm": 77.92207792207792}, {"time": 89280, "qpm": 78.94736842105263}, {"time": 91200, "qpm": 76.92307692307692}, {"time": 92640, "qpm": 78.94736842105263}, {"time": 93120, "qpm": 77.92207792207792}, {"time": 98400, "qpm": 78.94736842105263}, {"time": 98880, "qpm": 77.92207792207792}, {"time": 99360, "qpm": 78.94736842105263}, {"time": 100320, "qpm": 76.92307692307692}, {"time": 102240, "qpm": 77.92207792207792}, {"time": 103200, "qpm": 78.94736842105263}, {"time": 103680, "qpm": 77.92207792207792}, {"time": 104160, "qpm": 78.94736842105263}, {"time": 105120, "qpm": 76.92307692307692}, {"time": 106080, "qpm": 77.92207792207792}, {"time": 106560, "qpm": 78.94736842105263}, {"time": 107040, "qpm": 77.92207792207792}, {"time": 107520, "qpm": 78.94736842105263}, {"time": 108000, "qpm": 77.92207792207792}, {"time": 109440, "qpm": 76.92307692307692}, {"time": 109920, "qpm": 78.94736842105263}, {"time": 110400, "qpm": 77.92207792207792}, {"time": 111360, "qpm": 76.92307692307692}, {"time": 111840, "qpm": 78.94736842105263}, {"time": 112320, "qpm": 77.92207792207792}, {"time": 112800, "qpm": 80.0}, {"time": 113280, "qpm": 76.92307692307692}, {"time": 113760, "qpm": 77.92207792207792}, {"time": 114240, "qpm": 76.92307692307692}, {"time": 114720, "qpm": 77.92207792207792}, {"time": 115200, "qpm": 78.94736842105263}, {"time": 115680, "qpm": 76.92307692307692}, {"time": 116160, "qpm": 78.94736842105263}, {"time": 116640, "qpm": 77.92207792207792}, {"time": 117600, "qpm": 78.94736842105263}, {"time": 119040, "qpm": 76.92307692307692}, {"time": 119520, "qpm": 78.94736842105263}, {"time": 120480, "qpm": 77.92207792207792}, {"time": 120960, "qpm": 76.92307692307692}, {"time": 122400, "qpm": 77.92207792207792}, {"time": 122880, "qpm": 76.92307692307692}, {"time": 123360, "qpm": 78.94736842105263}, {"time": 124320, "qpm": 77.92207792207792}, {"time": 124800, "qpm": 76.92307692307692}, {"time": 125280, "qpm": 78.94736842105263}, {"time": 126720, "qpm": 77.92207792207792}, {"time": 127200, "qpm": 76.92307692307692}, {"time": 128160, "qpm": 77.92207792207792}, {"time": 128640, "qpm": 78.94736842105263}, {"time": 129600, "qpm": 77.92207792207792}, {"time": 130560, "qpm": 76.92307692307692}, {"time": 131040, "qpm": 77.92207792207792}, {"time": 131520, "qpm": 76.92307692307692}, {"time": 132000, "qpm": 80.0}, {"time": 132480, "qpm": 78.94736842105263}, {"time": 132960, "qpm": 77.92207792207792}, {"time": 133440, "qpm": 76.92307692307692}, {"time": 133920, "qpm": 77.92207792207792}, {"time": 134400, "qpm": 76.92307692307692}], "key_signatures": [{"time": 21, "root": 1, "mode": "major"}], "time_signatures": [{"time": 0, "numerator": 1, "denominator": 4}, {"time": 480, "numerator": 4, "denominator": 4}], "tracks": [{"program": 0, "is_drum": false, "name": "Piano", "notes": [{"time": 8163, "pitch": 53, "duration": 1898, "velocity": 105}, {"time": 8163, "pitch": 56, "duration": 1179, "velocity": 108}, {"time": 8163, "pitch": 61, "duration": 1299, "velocity": 109}, {"time": 9122, "pitch": 65, "duration": 579, "velocity": 111}, {"time": 9362, "pitch": 56, "duration": 699, "velocity": 95}, {"time": 9482, "pitch": 61, "duration": 579, "velocity": 85}, {"time": 9721, "pitch": 65, "duration": 340, "velocity": 111}, {"time": 10081, "pitch": 53, "duration": 1299, "velocity": 103}, {"time": 10081, "pitch": 56, "duration": 939, "velocity": 105}, {"time": 10081, "pitch": 60, "duration": 1898, "velocity": 107}, {"time": 11040, "pitch": 56, "duration": 939, "velocity": 101}, {"time": 11400, "pitch": 53, "duration": 579, "velocity": 108}, {"time": 11999, "pitch": 53, "duration": 1898, "velocity": 103}, {"time": 11999, "pitch": 58, "duration": 1898, "velocity": 104}, {"time": 11999, "pitch": 61, "duration": 1898, "velocity": 107}, {"time": 12718, "pitch": 65, "duration": 580, "velocity": 108}, {"time": 12718, "pitch": 70, "duration": 1179, "velocity": 109}, {"time": 13318, "pitch": 65, "duration": 579, "velocity": 97}, {"time": 13917, "pitch": 54, "duration": 1904, "velocity": 103}, {"time": 13917, "pitch": 57, "duration": 945, "velocity": 105}, {"time": 13917, "pitch": 61, "duration": 1425, "velocity": 106}, {"time": 14882, "pitch": 56, "duration": 939, "velocity": 104}, {"time": 14882, "pitch": 68, "duration": 939, "velocity": 108}, {"time": 15362, "pitch": 60, "duration": 459, "velocity": 99}, {"time": 15362, "pitch": 72, "duration": 459, "velocity": 101}, {"time": 15841, "pitch": 61, "duration": 700, "velocity": 101}, {"time": 15841, "pitch": 65, "duration": 1899, "velocity": 103}, {"time": 15841, "pitch": 68, "duration": 1419, "velocity": 104}, {"time": 15841, "pitch": 80, "duration": 1899, "velocity": 107}, {"time": 16561, "pitch": 61, "duration": 1179, "velocity": 103}, {"time": 17280, "pitch": 68, "duration": 460, "velocity": 105}, {"time": 17280, "pitch": 73, "duration": 460, "velocity": 110}, {"time": 17760, "pitch": 60, "duration": 939, "velocity": 103}, {"time": 17760, "pitch": 65, "duration": 1898, "velocity": 105}, {"time": 17760, "pitch": 68, "duration": 1898, "velocity": 106}, {"time": 18719, "pitch": 60, "duration": 939, "velocity": 111}, {"time": 18958, "pitch": 56, "duration": 700, "velocity": 95}, {"time": 19078, "pitch": 63, "duration": 580, "velocity": 109}, {"time": 19678, "pitch": 58, "duration": 1904, "velocity": 103}, {"time": 19678, "pitch": 61, "duration": 1664, "velocity": 105}, {"time": 19678, "pitch": 65, "duration": 945, "velocity": 107}, {"time": 20643, "pitch": 65, "duration": 939, "velocity": 111}, {"time": 21002, "pitch": 63, "duration": 580, "velocity": 103}, {"time": 21362, "pitch": 61, "duration": 220, "velocity": 96}, {"time": 21602, "pitch": 66, "duration": 939, "velocity": 103}, {"time": 21602, "pitch": 69, "duration": 939, "velocity": 105}, {"time": 21602, "pitch": 73, "duration": 459, "velocity": 108}, {"time": 22081, "pitch": 73, "duration": 460, "velocity": 101}, {"time": 22081, "pitch": 76, "duration": 460, "velocity": 103}, {"time": 22561, "pitch": 68, "duration": 939, "velocity": 108}, {"time": 22561, "pitch": 72, "duration": 459, "velocity": 111}, {"time": 22561, "pitch": 78, "duration": 939, "velocity": 112}, {"time": 23040, "pitch": 72, "duration": 460, "velocity": 109}, {"time": 23520, "pitch": 69, "duration": 1918, "velocity": 71}, {"time": 23520, "pitch": 73, "duration": 1918, "velocity": 113}, {"time": 23520, "pitch": 76, "duration": 1918, "velocity": 87}, {"time": 25438, "pitch": 71, "duration": 1924, "velocity": 68}, {"time": 25438, "pitch": 75, "duration": 1924, "velocity": 117}, {"time": 25438, "pitch": 78, "duration": 1924, "velocity": 97}, {"time": 26397, "pitch": 81, "duration": 965, "velocity": 80}, {"time": 59989, "pitch": 53, "duration": 1898, "velocity": 105}, {"time": 59989, "pitch": 56, "duration": 1179, "velocity": 108}, {"time": 59989, "pitch": 61, "duration": 1299, "velocity": 109}, {"time": 60947, "pitch": 65, "duration": 580, "velocity": 111}, {"time": 61188, "pitch": 56, "duration": 699, "velocity": 95}, {"time": 61308, "pitch": 61, "duration": 579, "velocity": 85}, {"time": 61547, "pitch": 65, "duration": 340, "velocity": 111}, {"time": 61907, "pitch": 53, "duration": 1299, "velocity": 103}, {"time": 61907, "pitch": 56, "duration": 938, "velocity": 105}, {"time": 61907, "pitch": 60, "duration": 1898, "velocity": 107}, {"time": 62865, "pitch": 56, "duration": 940, "velocity": 101}, {"time": 63226, "pitch": 53, "duration": 579, "velocity": 108}, {"time": 63825, "pitch": 53, "duration": 1904, "velocity": 103}, {"time": 63825, "pitch": 58, "duration": 1904, "velocity": 104}, {"time": 63825, "pitch": 61, "duration": 1904, "velocity": 107}, {"time": 64557, "pitch": 65, "duration": 579, "velocity": 108}, {"time": 64557, "pitch": 70, "duration": 1172, "velocity": 109}, {"time": 65156, "pitch": 65, "duration": 573, "velocity": 97}, {"time": 65749, "pitch": 54, "duration": 1904, "velocity": 103}, {"time": 65749, "pitch": 57, "duration": 951, "velocity": 105}, {"time": 65749, "pitch": 61, "duration": 1431, "velocity": 106}, {"time": 66720, "pitch": 56, "duration": 933, "velocity": 104}, {"time": 66720, "pitch": 68, "duration": 933, "velocity": 108}, {"time": 67200, "pitch": 60, "duration": 453, "velocity": 99}, {"time": 67200, "pitch": 72, "duration": 453, "velocity": 101}, {"time": 67673, "pitch": 61, "duration": 712, "velocity": 101}, {"time": 67673, "pitch": 65, "duration": 1911, "velocity": 103}, {"time": 67673, "pitch": 68, "duration": 1431, "velocity": 104}, {"time": 67673, "pitch": 80, "duration": 1911, "velocity": 107}, {"time": 68405, "pitch": 61, "duration": 1179, "velocity": 103}, {"time": 69124, "pitch": 68, "duration": 460, "velocity": 105}, {"time": 69124, "pitch": 73, "duration": 460, "velocity": 110}, {"time": 69604, "pitch": 60, "duration": 933, "velocity": 103}, {"time": 69604, "pitch": 65, "duration": 1892, "velocity": 105}, {"time": 69604, "pitch": 68, "duration": 1892, "velocity": 106}, {"time": 70557, "pitch": 60, "duration": 939, "velocity": 111}, {"time": 70794, "pitch": 56, "duration": 702, "velocity": 95}, {"time": 70911, "pitch": 63, "duration": 585, "velocity": 109}, {"time": 71516, "pitch": 58, "duration": 1898, "velocity": 103}, {"time": 71516, "pitch": 61, "duration": 1658, "velocity": 105}, {"time": 71516, "pitch": 65, "duration": 939, "velocity": 107}, {"time": 72475, "pitch": 65, "duration": 939, "velocity": 111}, {"time": 72835, "pitch": 63, "duration": 579, "velocity": 103}, {"time": 73194, "pitch": 61, "duration": 220, "velocity": 96}, {"time": 73434, "pitch": 66, "duration": 945, "velocity": 103}, {"time": 73434, "pitch": 69, "duration": 945, "velocity": 105}, {"time": 73434, "pitch": 73, "duration": 465, "velocity": 108}, {"time": 73919, "pitch": 73, "duration": 460, "velocity": 101}, {"time": 73919, "pitch": 76, "duration": 460, "velocity": 103}, {"time": 74399, "pitch": 68, "duration": 945, "velocity": 108}, {"time": 74399, "pitch": 72, "duration": 460, "velocity": 111}, {"time": 74399, "pitch": 78, "duration": 945, "velocity": 112}, {"time": 74878, "pitch": 72, "duration": 466, "velocity": 109}, {"time": 75364, "pitch": 69, "duration": 1912, "velocity": 71}, {"time": 75364, "pitch": 73, "duration": 1912, "velocity": 113}, {"time": 75364, "pitch": 76, "duration": 1912, "velocity": 87}, {"time": 77276, "pitch": 71, "duration": 1924, "velocity": 68}, {"time": 77276, "pitch": 75, "duration": 1924, "velocity": 117}, {"time": 77276, "pitch": 78, "duration": 1924, "velocity": 97}, {"time": 78235, "pitch": 81, "duration": 965, "velocity": 80}, {"time": 127202, "pitch": 61, "duration": 1918, "velocity": 106}, {"time": 127202, "pitch": 65, "duration": 1918, "velocity": 110}, {"time": 127202, "pitch": 68, "duration": 1918, "velocity": 106}, {"time": 129120, "pitch": 64, "duration": 959, "velocity": 97}, {"time": 129120, "pitch": 68, "duration": 959, "velocity": 112}, {"time": 129120, "pitch": 71, "duration": 959, "velocity": 79}, {"time": 130079, "pitch": 66, "duration": 959, "velocity": 108}, {"time": 130079, "pitch": 70, "duration": 959, "velocity": 110}, {"time": 130079, "pitch": 73, "duration": 959, "velocity": 102}, {"time": 131038, "pitch": 61, "duration": 1925, "velocity": 106}, {"time": 131038, "pitch": 65, "duration": 1925, "velocity": 115}, {"time": 131038, "pitch": 68, "duration": 1925, "velocity": 108}, {"time": 132963, "pitch": 64, "duration": 959, "velocity": 97}, {"time": 132963, "pitch": 68, "duration": 959, "velocity": 115}, {"time": 132963, "pitch": 71, "duration": 959, "velocity": 89}, {"time": 133922, "pitch": 66, "duration": 959, "velocity": 101}, {"time": 133922, "pitch": 70, "duration": 959, "velocity": 92}, {"time": 133922, "pitch": 73, "duration": 959, "velocity": 104}, {"time": 134881, "pitch": 61, "duration": 1906, "velocity": 104}, {"time": 134881, "pitch": 65, "duration": 1906, "velocity": 108}, {"time": 134881, "pitch": 68, "duration": 1906, "velocity": 108}, {"time": 479, "pitch": 35, "duration": 1674, "velocity": 107}, {"time": 2163, "pitch": 42, "duration": 229, "velocity": 100}, {"time": 2402, "pitch": 40, "duration": 949, "velocity": 102}, {"time": 3361, "pitch": 42, "duration": 949, "velocity": 101}, {"time": 4320, "pitch": 35, "duration": 1189, "velocity": 107}, {"time": 5519, "pitch": 32, "duration": 110, "velocity": 100}, {"time": 5759, "pitch": 37, "duration": 110, "velocity": 97}, {"time": 5999, "pitch": 42, "duration": 180, "velocity": 92}, {"time": 6239, "pitch": 40, "duration": 949, "velocity": 102}, {"time": 7198, "pitch": 42, "duration": 469, "velocity": 107}, {"time": 7677, "pitch": 30, "duration": 476, "velocity": 104}, {"time": 8163, "pitch": 37, "duration": 220, "velocity": 107}, {"time": 8403, "pitch": 37, "duration": 219, "velocity": 102}, {"time": 8642, "pitch": 37, "duration": 220, "velocity": 104}, {"time": 8882, "pitch": 37, "duration": 220, "velocity": 102}, {"time": 9122, "pitch": 37, "duration": 220, "velocity": 107}, {"time": 9362, "pitch": 37, "duration": 219, "velocity": 102}, {"time": 9601, "pitch": 37, "duration": 220, "velocity": 104}, {"time": 9841, "pitch": 37, "duration": 220, "velocity": 102}, {"time": 10081, "pitch": 36, "duration": 220, "velocity": 107}, {"time": 10321, "pitch": 36, "duration": 219, "velocity": 102}, {"time": 10560, "pitch": 36, "duration": 220, "velocity": 104}, {"time": 10800, "pitch": 36, "duration": 220, "velocity": 102}, {"time": 11040, "pitch": 36, "duration": 220, "velocity": 107}, {"time": 11280, "pitch": 36, "duration": 220, "velocity": 102}, {"time": 11520, "pitch": 36, "duration": 219, "velocity": 104}, {"time": 11759, "pitch": 36, "duration": 220, "velocity": 102}, {"time": 11999, "pitch": 34, "duration": 220, "velocity": 107}, {"time": 12239, "pitch": 34, "duration": 220, "velocity": 102}, {"time": 12479, "pitch": 34, "duration": 219, "velocity": 104}, {"time": 12718, "pitch": 34, "duration": 220, "velocity": 102}, {"time": 12958, "pitch": 34, "duration": 220, "velocity": 107}, {"time": 13198, "pitch": 34, "duration": 220, "velocity": 102}, {"time": 13438, "pitch": 34, "duration": 219, "velocity": 104}, {"time": 13677, "pitch": 34, "duration": 220, "velocity": 102}, {"time": 13917, "pitch": 30, "duration": 223, "velocity": 107}, {"time": 14160, "pitch": 30, "duration": 223, "velocity": 102}, {"time": 14403, "pitch": 30, "duration": 220, "velocity": 104}, {"time": 14643, "pitch": 30, "duration": 219, "velocity": 102}, {"time": 14882, "pitch": 32, "duration": 220, "velocity": 107}, {"time": 15122, "pitch": 32, "duration": 220, "velocity": 102}, {"time": 15362, "pitch": 36, "duration": 220, "velocity": 104}, {"time": 15602, "pitch": 32, "duration": 219, "velocity": 102}, {"time": 15841, "pitch": 37, "duration": 220, "velocity": 107}, {"time": 16081, "pitch": 37, "duration": 220, "velocity": 102}, {"time": 16321, "pitch": 37, "duration": 220, "velocity": 104}, {"time": 16561, "pitch": 37, "duration": 219, "velocity": 102}, {"time": 16800, "pitch": 37, "duration": 220, "velocity": 107}, {"time": 17040, "pitch": 37, "duration": 220, "velocity": 102}, {"time": 17280, "pitch": 37, "duration": 220, "velocity": 104}, {"time": 17520, "pitch": 37, "duration": 220, "velocity": 102}, {"time": 17760, "pitch": 36, "duration": 219, "velocity": 107}, {"time": 17999, "pitch": 36, "duration": 220, "velocity": 102}, {"time": 18239, "pitch": 36, "duration": 220, "velocity": 104}, {"time": 18479, "pitch": 36, "duration": 220, "velocity": 102}, {"time": 18719, "pitch": 36, "duration": 219, "velocity": 107}, {"time": 18958, "pitch": 36, "duration": 220, "velocity": 102}, {"time": 19198, "pitch": 36, "duration": 220, "velocity": 104}, {"time": 19438, "pitch": 36, "duration": 220, "velocity": 102}, {"time": 19678, "pitch": 34, "duration": 219, "velocity": 107}, {"time": 19917, "pitch": 34, "duration": 220, "velocity": 102}, {"time": 20157, "pitch": 34, "duration": 223, "velocity": 104}, {"time": 20400, "pitch": 34, "duration": 223, "velocity": 102}, {"time": 20643, "pitch": 34, "duration": 220, "velocity": 107}, {"time": 20883, "pitch": 34, "duration": 219, "velocity": 102}, {"time": 21122, "pitch": 34, "duration": 220, "velocity": 104}, {"time": 21362, "pitch": 34, "duration": 220, "velocity": 102}, {"time": 21602, "pitch": 30, "duration": 220, "velocity": 107}, {"time": 21842, "pitch": 30, "duration": 219, "velocity": 102}, {"time": 22081, "pitch": 30, "duration": 220, "velocity": 104}, {"time": 22321, "pitch": 30, "duration": 220, "velocity": 102}, {"time": 22561, "pitch": 36, "duration": 220, "velocity": 107}, {"time": 22801, "pitch": 32, "duration": 219, "velocity": 102}, {"time": 23040, "pitch": 36, "duration": 460, "velocity": 104}, {"time": 23520, "pitch": 33, "duration": 210, "velocity": 107}, {"time": 23760, "pitch": 33, "duration": 210, "velocity": 102}, {"time": 23999, "pitch": 33, "duration": 210, "velocity": 104}, {"time": 24239, "pitch": 33, "duration": 210, "velocity": 102}, {"time": 24479, "pitch": 33, "duration": 210, "velocity": 107}, {"time": 24719, "pitch": 33, "duration": 210, "velocity": 102}, {"time": 24959, "pitch": 33, "duration": 209, "velocity": 104}, {"time": 25198, "pitch": 33, "duration": 210, "velocity": 102}, {"time": 25438, "pitch": 35, "duration": 210, "velocity": 107}, {"time": 25678, "pitch": 35, "duration": 210, "velocity": 102}, {"time": 25918, "pitch": 35, "duration": 209, "velocity": 104}, {"time": 26157, "pitch": 35, "duration": 210, "velocity": 102}, {"time": 26397, "pitch": 35, "duration": 213, "velocity": 107}, {"time": 26640, "pitch": 35, "duration": 213, "velocity": 102}, {"time": 26883, "pitch": 39, "duration": 210, "velocity": 104}, {"time": 27123, "pitch": 35, "duration": 209, "velocity": 102}, {"time": 27362, "pitch": 37, "duration": 210, "velocity": 107}, {"time": 27602, "pitch": 37, "duration": 210, "velocity": 102}, {"time": 27842, "pitch": 37, "duration": 210, "velocity": 104}, {"time": 28082, "pitch": 37, "duration": 209, "velocity": 102}, {"time": 28321, "pitch": 36, "duration": 210, "velocity": 107}, {"time": 28561, "pitch": 36, "duration": 210, "velocity": 102}, {"time": 28801, "pitch": 36, "duration": 210, "velocity": 104}, {"time": 29041, "pitch": 36, "duration": 209, "velocity": 102}, {"time": 29280, "pitch": 34, "duration": 210, "velocity": 107}, {"time": 29520, "pitch": 34, "duration": 210, "velocity": 102}, {"time": 29760, "pitch": 34, "duration": 210, "velocity": 104}, {"time": 30000, "pitch": 34, "duration": 210, "velocity": 102}, {"time": 30239, "pitch": 32, "duration": 210, "velocity": 107}, {"time": 30479, "pitch": 32, "duration": 210, "velocity": 102}, {"time": 30719, "pitch": 32, "duration": 210, "velocity": 104}, {"time": 30959, "pitch": 32, "duration": 210, "velocity": 102}, {"time": 31199, "pitch": 30, "duration": 209, "velocity": 107}, {"time": 31438, "pitch": 30, "duration": 210, "velocity": 102}, {"time": 31678, "pitch": 30, "duration": 210, "velocity": 104}, {"time": 31918, "pitch": 30, "duration": 210, "velocity": 102}, {"time": 32158, "pitch": 29, "duration": 209, "velocity": 107}, {"time": 32397, "pitch": 29, "duration": 210, "velocity": 102}, {"time": 32637, "pitch": 29, "duration": 213, "velocity": 104}, {"time": 32880, "pitch": 29, "duration": 213, "velocity": 102}, {"time": 33123, "pitch": 39, "duration": 210, "velocity": 107}, {"time": 33363, "pitch": 39, "duration": 209, "velocity": 102}, {"time": 33602, "pitch": 39, "duration": 210, "velocity": 104}, {"time": 33842, "pitch": 39, "duration": 210, "velocity": 102}, {"time": 34082, "pitch": 32, "duration": 210, "velocity": 107}, {"time": 34322, "pitch": 32, "duration": 209, "velocity": 102}, {"time": 34561, "pitch": 32, "duration": 210, "velocity": 104}, {"time": 34801, "pitch": 32, "duration": 210, "velocity": 102}, {"time": 35041, "pitch": 30, "duration": 210, "velocity": 107}, {"time": 35281, "pitch": 30, "duration": 209, "velocity": 102}, {"time": 35520, "pitch": 30, "duration": 210, "velocity": 104}, {"time": 35760, "pitch": 30, "duration": 210, "velocity": 102}, {"time": 36000, "pitch": 32, "duration": 210, "velocity": 107}, {"time": 36240, "pitch": 32, "duration": 210, "velocity": 102}, {"time": 36479, "pitch": 32, "duration": 210, "velocity": 104}, {"time": 36719, "pitch": 32, "duration": 210, "velocity": 102}, {"time": 36959, "pitch": 29, "duration": 210, "velocity": 107}, {"time": 37199, "pitch": 29, "duration": 210, "velocity": 102}, {"time": 37439, "pitch": 29, "duration": 209, "velocity": 104}, {"time": 37678, "pitch": 29, "duration": 210, "velocity": 102}, {"time": 37918, "pitch": 34, "duration": 210, "velocity": 107}, {"time": 38158, "pitch": 34, "duration": 210, "velocity": 102}, {"time": 38398, "pitch": 32, "duration": 209, "velocity": 104}, {"time": 38637, "pitch": 32, "duration": 210, "velocity": 102}, {"time": 38877, "pitch": 28, "duration": 1675, "velocity": 107}, {"time": 40562, "pitch": 47, "duration": 229, "velocity": 100}, {"time": 40801, "pitch": 44, "duration": 710, "velocity": 102}, {"time": 41521, "pitch": 46, "duration": 709, "velocity": 102}, {"time": 42240, "pitch": 34, "duration": 469, "velocity": 101}, {"time": 42719, "pitch": 39, "duration": 223, "velocity": 108}, {"time": 42962, "pitch": 34, "duration": 223, "velocity": 100}, {"time": 43205, "pitch": 39, "duration": 180, "velocity": 107}, {"time": 43445, "pitch": 38, "duration": 449, "velocity": 109}, {"time": 43924, "pitch": 44, "duration": 230, "velocity": 98}, {"time": 44164, "pitch": 50, "duration": 120, "velocity": 104}, {"time": 44294, "pitch": 50, "duration": 100, "velocity": 92}, {"time": 44404, "pitch": 38, "duration": 230, "velocity": 100}, {"time": 44644, "pitch": 31, "duration": 219, "velocity": 108}, {"time": 44883, "pitch": 38, "duration": 220, "velocity": 100}, {"time": 45123, "pitch": 31, "duration": 180, "velocity": 107}, {"time": 45363, "pitch": 36, "duration": 689, "velocity": 109}, {"time": 46082, "pitch": 34, "duration": 450, "velocity": 107}, {"time": 46562, "pitch": 32, "duration": 217, "velocity": 108}, {"time": 46799, "pitch": 39, "duration": 216, "velocity": 100}, {"time": 47035, "pitch": 32, "duration": 180, "velocity": 107}, {"time": 47275, "pitch": 34, "duration": 450, "velocity": 109}, {"time": 47755, "pitch": 39, "duration": 229, "velocity": 98}, {"time": 47994, "pitch": 46, "duration": 121, "velocity": 104}, {"time": 48125, "pitch": 46, "duration": 102, "velocity": 92}, {"time": 48237, "pitch": 34, "duration": 233, "velocity": 100}, {"time": 48480, "pitch": 31, "duration": 485, "velocity": 87}, {"time": 48965, "pitch": 31, "duration": 240, "velocity": 91}, {"time": 49205, "pitch": 34, "duration": 140, "velocity": 108}, {"time": 49345, "pitch": 38, "duration": 100, "velocity": 76}, {"time": 49445, "pitch": 36, "duration": 480, "velocity": 101}, {"time": 49925, "pitch": 34, "duration": 473, "velocity": 104}, {"time": 50398, "pitch": 29, "duration": 220, "velocity": 108}, {"time": 50638, "pitch": 32, "duration": 220, "velocity": 100}, {"time": 50878, "pitch": 36, "duration": 179, "velocity": 107}, {"time": 51117, "pitch": 34, "duration": 450, "velocity": 109}, {"time": 51597, "pitch": 36, "duration": 230, "velocity": 98}, {"time": 51837, "pitch": 41, "duration": 122, "velocity": 104}, {"time": 51969, "pitch": 41, "duration": 101, "velocity": 92}, {"time": 52080, "pitch": 38, "duration": 232, "velocity": 100}, {"time": 52322, "pitch": 31, "duration": 220, "velocity": 108}, {"time": 52562, "pitch": 38, "duration": 220, "velocity": 100}, {"time": 52802, "pitch": 34, "duration": 180, "velocity": 107}, {"time": 53042, "pitch": 36, "duration": 689, "velocity": 109}, {"time": 53761, "pitch": 34, "duration": 443, "velocity": 107}, {"time": 54234, "pitch": 29, "duration": 220, "velocity": 108}, {"time": 54474, "pitch": 36, "duration": 220, "velocity": 100}, {"time": 54714, "pitch": 29, "duration": 182, "velocity": 107}, {"time": 54957, "pitch": 31, "duration": 452, "velocity": 109}, {"time": 55439, "pitch": 36, "duration": 230, "velocity": 98}, {"time": 55679, "pitch": 43, "duration": 120, "velocity": 104}, {"time": 55809, "pitch": 43, "duration": 100, "velocity": 92}, {"time": 55919, "pitch": 31, "duration": 230, "velocity": 100}, {"time": 56159, "pitch": 32, "duration": 216, "velocity": 108}, {"time": 56395, "pitch": 35, "duration": 217, "velocity": 100}, {"time": 56631, "pitch": 32, "duration": 180, "velocity": 107}, {"time": 56871, "pitch": 39, "duration": 1201, "velocity": 127}, {"time": 58084, "pitch": 40, "duration": 712, "velocity": 104}, {"time": 58796, "pitch": 42, "duration": 1193, "velocity": 122}, {"time": 59989, "pitch": 37, "duration": 220, "velocity": 107}, {"time": 60229, "pitch": 37, "duration": 218, "velocity": 102}, {"time": 60468, "pitch": 37, "duration": 219, "velocity": 104}, {"time": 60707, "pitch": 37, "duration": 220, "velocity": 102}, {"time": 60947, "pitch": 37, "duration": 221, "velocity": 107}, {"time": 61188, "pitch": 37, "duration": 219, "velocity": 102}, {"time": 61427, "pitch": 37, "duration": 220, "velocity": 104}, {"time": 61667, "pitch": 37, "duration": 220, "velocity": 102}, {"time": 61907, "pitch": 36, "duration": 220, "velocity": 107}, {"time": 62146, "pitch": 36, "duration": 220, "velocity": 102}, {"time": 62386, "pitch": 36, "duration": 219, "velocity": 104}, {"time": 62625, "pitch": 36, "duration": 220, "velocity": 102}, {"time": 62865, "pitch": 36, "duration": 221, "velocity": 107}, {"time": 63106, "pitch": 36, "duration": 220, "velocity": 102}, {"time": 63346, "pitch": 36, "duration": 219, "velocity": 104}, {"time": 63585, "pitch": 36, "duration": 220, "velocity": 102}, {"time": 63825, "pitch": 34, "duration": 225, "velocity": 107}, {"time": 64071, "pitch": 34, "duration": 226, "velocity": 102}, {"time": 64317, "pitch": 34, "duration": 220, "velocity": 104}, {"time": 64557, "pitch": 34, "duration": 219, "velocity": 102}, {"time": 64796, "pitch": 34, "duration": 220, "velocity": 107}, {"time": 65036, "pitch": 34, "duration": 220, "velocity": 102}, {"time": 65276, "pitch": 34, "duration": 217, "velocity": 104}, {"time": 65513, "pitch": 34, "duration": 216, "velocity": 102}, {"time": 65749, "pitch": 30, "duration": 225, "velocity": 107}, {"time": 65995, "pitch": 30, "duration": 225, "velocity": 102}, {"time": 66241, "pitch": 30, "duration": 220, "velocity": 104}, {"time": 66481, "pitch": 30, "duration": 219, "velocity": 102}, {"time": 66720, "pitch": 32, "duration": 220, "velocity": 107}, {"time": 66960, "pitch": 32, "duration": 220, "velocity": 102}, {"time": 67200, "pitch": 36, "duration": 217, "velocity": 104}, {"time": 67437, "pitch": 32, "duration": 216, "velocity": 102}, {"time": 67673, "pitch": 37, "duration": 226, "velocity": 107}, {"time": 67919, "pitch": 37, "duration": 226, "velocity": 102}, {"time": 68165, "pitch": 37, "duration": 220, "velocity": 104}, {"time": 68405, "pitch": 37, "duration": 220, "velocity": 102}, {"time": 68644, "pitch": 37, "duration": 220, "velocity": 107}, {"time": 68884, "pitch": 37, "duration": 220, "velocity": 102}, {"time": 69124, "pitch": 37, "duration": 220, "velocity": 104}, {"time": 69364, "pitch": 37, "duration": 220, "velocity": 102}, {"time": 69604, "pitch": 36, "duration": 213, "velocity": 107}, {"time": 69837, "pitch": 36, "duration": 214, "velocity": 102}, {"time": 70071, "pitch": 36, "duration": 223, "velocity": 104}, {"time": 70314, "pitch": 36, "duration": 223, "velocity": 102}, {"time": 70557, "pitch": 36, "duration": 217, "velocity": 107}, {"time": 70794, "pitch": 36, "duration": 216, "velocity": 102}, {"time": 71030, "pitch": 36, "duration": 223, "velocity": 104}, {"time": 71273, "pitch": 36, "duration": 223, "velocity": 102}, {"time": 71516, "pitch": 34, "duration": 220, "velocity": 107}, {"time": 71756, "pitch": 34, "duration": 219, "velocity": 102}, {"time": 71995, "pitch": 34, "duration": 220, "velocity": 104}, {"time": 72235, "pitch": 34, "duration": 220, "velocity": 102}, {"time": 72475, "pitch": 34, "duration": 220, "velocity": 107}, {"time": 72715, "pitch": 34, "duration": 219, "velocity": 102}, {"time": 72954, "pitch": 34, "duration": 220, "velocity": 104}, {"time": 73194, "pitch": 34, "duration": 220, "velocity": 102}, {"time": 73434, "pitch": 30, "duration": 223, "velocity": 107}, {"time": 73677, "pitch": 30, "duration": 222, "velocity": 102}, {"time": 73919, "pitch": 30, "duration": 220, "velocity": 104}, {"time": 74159, "pitch": 30, "duration": 220, "velocity": 102}, {"time": 74399, "pitch": 36, "duration": 220, "velocity": 107}, {"time": 74639, "pitch": 32, "duration": 220, "velocity": 102}, {"time": 74878, "pitch": 36, "duration": 466, "velocity": 104}, {"time": 75364, "pitch": 33, "duration": 207, "velocity": 107}, {"time": 75601, "pitch": 33, "duration": 207, "velocity": 102}, {"time": 75838, "pitch": 33, "duration": 209, "velocity": 104}, {"time": 76077, "pitch": 33, "duration": 210, "velocity": 102}, {"time": 76317, "pitch": 33, "duration": 210, "velocity": 107}, {"time": 76557, "pitch": 33, "duration": 209, "velocity": 102}, {"time": 76797, "pitch": 33, "duration": 210, "velocity": 104}, {"time": 77037, "pitch": 33, "duration": 209, "velocity": 102}, {"time": 77276, "pitch": 35, "duration": 209, "velocity": 107}, {"time": 77516, "pitch": 35, "duration": 210, "velocity": 102}, {"time": 77756, "pitch": 35, "duration": 210, "velocity": 104}, {"time": 77996, "pitch": 35, "duration": 209, "velocity": 102}, {"time": 78235, "pitch": 35, "duration": 210, "velocity": 107}, {"time": 78475, "pitch": 35, "duration": 210, "velocity": 102}, {"time": 78715, "pitch": 39, "duration": 213, "velocity": 104}, {"time": 78958, "pitch": 35, "duration": 212, "velocity": 102}, {"time": 79200, "pitch": 37, "duration": 210, "velocity": 107}, {"time": 79440, "pitch": 37, "duration": 210, "velocity": 102}, {"time": 79680, "pitch": 37, "duration": 210, "velocity": 104}, {"time": 79920, "pitch": 37, "duration": 209, "velocity": 102}, {"time": 80159, "pitch": 36, "duration": 210, "velocity": 107}, {"time": 80399, "pitch": 36, "duration": 210, "velocity": 102}, {"time": 80639, "pitch": 36, "duration": 207, "velocity": 104}, {"time": 80876, "pitch": 36, "duration": 207, "velocity": 102}, {"time": 81112, "pitch": 34, "duration": 207, "velocity": 107}, {"time": 81349, "pitch": 34, "duration": 207, "velocity": 102}, {"time": 81586, "pitch": 34, "duration": 210, "velocity": 104}, {"time": 81826, "pitch": 34, "duration": 210, "velocity": 102}, {"time": 82066, "pitch": 32, "duration": 209, "velocity": 107}, {"time": 82305, "pitch": 32, "duration": 210, "velocity": 102}, {"time": 82545, "pitch": 32, "duration": 212, "velocity": 104}, {"time": 82787, "pitch": 32, "duration": 212, "velocity": 102}, {"time": 83030, "pitch": 30, "duration": 216, "velocity": 107}, {"time": 83277, "pitch": 30, "duration": 214, "velocity": 102}, {"time": 83522, "pitch": 30, "duration": 210, "velocity": 104}, {"time": 83762, "pitch": 30, "duration": 210, "velocity": 102}, {"time": 84002, "pitch": 29, "duration": 210, "velocity": 107}, {"time": 84242, "pitch": 29, "duration": 209, "velocity": 102}, {"time": 84481, "pitch": 29, "duration": 210, "velocity": 104}, {"time": 84721, "pitch": 29, "duration": 210, "velocity": 102}, {"time": 84961, "pitch": 39, "duration": 210, "velocity": 107}, {"time": 85201, "pitch": 39, "duration": 209, "velocity": 102}, {"time": 85440, "pitch": 39, "duration": 213, "velocity": 104}, {"time": 85683, "pitch": 39, "duration": 213, "velocity": 102}, {"time": 85926, "pitch": 32, "duration": 213, "velocity": 107}, {"time": 86169, "pitch": 32, "duration": 212, "velocity": 102}, {"time": 86411, "pitch": 32, "duration": 208, "velocity": 104}, {"time": 86648, "pitch": 32, "duration": 208, "velocity": 102}, {"time": 86885, "pitch": 30, "duration": 207, "velocity": 107}, {"time": 87122, "pitch": 30, "duration": 207, "velocity": 102}, {"time": 87358, "pitch": 30, "duration": 210, "velocity": 104}, {"time": 87598, "pitch": 30, "duration": 210, "velocity": 102}, {"time": 87838, "pitch": 32, "duration": 210, "velocity": 107}, {"time": 88078, "pitch": 32, "duration": 210, "velocity": 102}, {"time": 88318, "pitch": 32, "duration": 209, "velocity": 104}, {"time": 88557, "pitch": 32, "duration": 210, "velocity": 102}, {"time": 88797, "pitch": 29, "duration": 213, "velocity": 107}, {"time": 89040, "pitch": 29, "duration": 212, "velocity": 102}, {"time": 89283, "pitch": 29, "duration": 210, "velocity": 104}, {"time": 89523, "pitch": 29, "duration": 209, "velocity": 102}, {"time": 89762, "pitch": 34, "duration": 210, "velocity": 107}, {"time": 90002, "pitch": 34, "duration": 210, "velocity": 102}, {"time": 90242, "pitch": 32, "duration": 210, "velocity": 104}, {"time": 90482, "pitch": 32, "duration": 209, "velocity": 102}, {"time": 90721, "pitch": 28, "duration": 1669, "velocity": 107}, {"time": 92400, "pitch": 47, "duration": 229, "velocity": 100}, {"time": 92639, "pitch": 44, "duration": 710, "velocity": 102}, {"time": 93359, "pitch": 46, "duration": 709, "velocity": 102}, {"time": 94078, "pitch": 34, "duration": 470, "velocity": 101}, {"time": 94558, "pitch": 39, "duration": 219, "velocity": 108}, {"time": 94797, "pitch": 34, "duration": 220, "velocity": 100}, {"time": 95037, "pitch": 39, "duration": 182, "velocity": 107}, {"time": 95280, "pitch": 38, "duration": 453, "velocity": 109}, {"time": 95763, "pitch": 44, "duration": 229, "velocity": 98}, {"time": 96002, "pitch": 50, "duration": 120, "velocity": 104}, {"time": 96132, "pitch": 50, "duration": 100, "velocity": 92}, {"time": 96242, "pitch": 38, "duration": 230, "velocity": 100}, {"time": 96482, "pitch": 31, "duration": 220, "velocity": 108}, {"time": 96722, "pitch": 38, "duration": 219, "velocity": 100}, {"time": 96961, "pitch": 31, "duration": 180, "velocity": 107}, {"time": 97201, "pitch": 36, "duration": 689, "velocity": 109}, {"time": 97920, "pitch": 34, "duration": 450, "velocity": 107}, {"time": 98400, "pitch": 32, "duration": 220, "velocity": 108}, {"time": 98640, "pitch": 39, "duration": 219, "velocity": 100}, {"time": 98879, "pitch": 32, "duration": 180, "velocity": 107}, {"time": 99119, "pitch": 34, "duration": 450, "velocity": 109}, {"time": 99599, "pitch": 39, "duration": 229, "velocity": 98}, {"time": 99838, "pitch": 46, "duration": 120, "velocity": 104}, {"time": 99968, "pitch": 46, "duration": 100, "velocity": 92}, {"time": 100078, "pitch": 34, "duration": 230, "velocity": 100}, {"time": 100318, "pitch": 31, "duration": 480, "velocity": 87}, {"time": 100798, "pitch": 31, "duration": 239, "velocity": 91}, {"time": 101037, "pitch": 34, "duration": 140, "velocity": 108}, {"time": 101177, "pitch": 38, "duration": 100, "velocity": 76}, {"time": 101277, "pitch": 36, "duration": 486, "velocity": 101}, {"time": 101763, "pitch": 34, "duration": 479, "velocity": 104}, {"time": 102242, "pitch": 29, "duration": 220, "velocity": 108}, {"time": 102482, "pitch": 32, "duration": 220, "velocity": 100}, {"time": 102722, "pitch": 36, "duration": 180, "velocity": 107}, {"time": 102962, "pitch": 34, "duration": 449, "velocity": 109}, {"time": 103441, "pitch": 36, "duration": 230, "velocity": 98}, {"time": 103681, "pitch": 41, "duration": 120, "velocity": 104}, {"time": 103811, "pitch": 41, "duration": 100, "velocity": 92}, {"time": 103921, "pitch": 38, "duration": 229, "velocity": 100}, {"time": 104160, "pitch": 31, "duration": 220, "velocity": 108}, {"time": 104400, "pitch": 38, "duration": 220, "velocity": 100}, {"time": 104640, "pitch": 34, "duration": 180, "velocity": 107}, {"time": 104880, "pitch": 36, "duration": 689, "velocity": 109}, {"time": 105599, "pitch": 34, "duration": 449, "velocity": 107}, {"time": 106078, "pitch": 29, "duration": 220, "velocity": 108}, {"time": 106318, "pitch": 36, "duration": 220, "velocity": 100}, {"time": 106558, "pitch": 29, "duration": 180, "velocity": 107}, {"time": 106798, "pitch": 31, "duration": 449, "velocity": 109}, {"time": 107277, "pitch": 36, "duration": 230, "velocity": 98}, {"time": 107517, "pitch": 43, "duration": 121, "velocity": 104}, {"time": 107649, "pitch": 43, "duration": 101, "velocity": 92}, {"time": 107760, "pitch": 31, "duration": 233, "velocity": 100}, {"time": 108003, "pitch": 32, "duration": 220, "velocity": 108}, {"time": 108243, "pitch": 35, "duration": 219, "velocity": 100}, {"time": 108482, "pitch": 32, "duration": 180, "velocity": 107}, {"time": 108722, "pitch": 39, "duration": 1188, "velocity": 127}, {"time": 109921, "pitch": 39, "duration": 220, "velocity": 108}, {"time": 110161, "pitch": 39, "duration": 219, "velocity": 100}, {"time": 110640, "pitch": 38, "duration": 450, "velocity": 109}, {"time": 111120, "pitch": 44, "duration": 229, "velocity": 98}, {"time": 111359, "pitch": 50, "duration": 120, "velocity": 104}, {"time": 111489, "pitch": 50, "duration": 100, "velocity": 92}, {"time": 111599, "pitch": 38, "duration": 230, "velocity": 100}, {"time": 111839, "pitch": 31, "duration": 220, "velocity": 108}, {"time": 112079, "pitch": 31, "duration": 219, "velocity": 100}, {"time": 112558, "pitch": 36, "duration": 690, "velocity": 109}, {"time": 113277, "pitch": 34, "duration": 450, "velocity": 107}, {"time": 113757, "pitch": 32, "duration": 223, "velocity": 108}, {"time": 114000, "pitch": 32, "duration": 223, "velocity": 100}, {"time": 114483, "pitch": 34, "duration": 449, "velocity": 109}, {"time": 114962, "pitch": 39, "duration": 230, "velocity": 98}, {"time": 115202, "pitch": 46, "duration": 120, "velocity": 104}, {"time": 115332, "pitch": 46, "duration": 100, "velocity": 92}, {"time": 115442, "pitch": 34, "duration": 229, "velocity": 100}, {"time": 115681, "pitch": 31, "duration": 480, "velocity": 87}, {"time": 116161, "pitch": 31, "duration": 240, "velocity": 91}, {"time": 116401, "pitch": 34, "duration": 139, "velocity": 108}, {"time": 116540, "pitch": 38, "duration": 100, "velocity": 76}, {"time": 116640, "pitch": 36, "duration": 480, "velocity": 101}, {"time": 117120, "pitch": 34, "duration": 479, "velocity": 104}, {"time": 117599, "pitch": 29, "duration": 220, "velocity": 108}, {"time": 117839, "pitch": 32, "duration": 220, "velocity": 100}, {"time": 118079, "pitch": 36, "duration": 180, "velocity": 107}, {"time": 118319, "pitch": 34, "duration": 449, "velocity": 109}, {"time": 118798, "pitch": 36, "duration": 230, "velocity": 98}, {"time": 119038, "pitch": 41, "duration": 120, "velocity": 104}, {"time": 119168, "pitch": 41, "duration": 100, "velocity": 92}, {"time": 119278, "pitch": 38, "duration": 229, "velocity": 100}, {"time": 119517, "pitch": 31, "duration": 220, "velocity": 108}, {"time": 119757, "pitch": 38, "duration": 220, "velocity": 100}, {"time": 119997, "pitch": 34, "duration": 182, "velocity": 107}, {"time": 120240, "pitch": 36, "duration": 692, "velocity": 109}, {"time": 120962, "pitch": 34, "duration": 450, "velocity": 107}, {"time": 121442, "pitch": 29, "duration": 220, "velocity": 108}, {"time": 121682, "pitch": 36, "duration": 219, "velocity": 100}, {"time": 121921, "pitch": 29, "duration": 180, "velocity": 107}, {"time": 122161, "pitch": 31, "duration": 450, "velocity": 109}, {"time": 122641, "pitch": 36, "duration": 229, "velocity": 98}, {"time": 122880, "pitch": 43, "duration": 120, "velocity": 104}, {"time": 123010, "pitch": 43, "duration": 100, "velocity": 92}, {"time": 123120, "pitch": 31, "duration": 230, "velocity": 100}, {"time": 123360, "pitch": 32, "duration": 1888, "velocity": 105}, {"time": 125278, "pitch": 39, "duration": 220, "velocity": 108}, {"time": 125518, "pitch": 43, "duration": 219, "velocity": 100}, {"time": 125757, "pitch": 46, "duration": 180, "velocity": 107}, {"time": 125997, "pitch": 39, "duration": 1194, "velocity": 127}, {"time": 127202, "pitch": 35, "duration": 1669, "velocity": 107}, {"time": 128881, "pitch": 42, "duration": 229, "velocity": 100}, {"time": 129120, "pitch": 40, "duration": 949, "velocity": 102}, {"time": 130079, "pitch": 42, "duration": 949, "velocity": 101}, {"time": 131038, "pitch": 35, "duration": 1189, "velocity": 107}, {"time": 132237, "pitch": 32, "duration": 110, "velocity": 100}, {"time": 132477, "pitch": 37, "duration": 111, "velocity": 97}, {"time": 132720, "pitch": 42, "duration": 182, "velocity": 92}, {"time": 132963, "pitch": 40, "duration": 949, "velocity": 102}, {"time": 133922, "pitch": 42, "duration": 469, "velocity": 107}, {"time": 134401, "pitch": 30, "duration": 470, "velocity": 104}, {"time": 134881, "pitch": 37, "duration": 2813, "velocity": 104}, {"time": 479, "pitch": 37, "duration": 234, "velocity": 103}, {"time": 479, "pitch": 44, "duration": 239, "velocity": 105}, {"time": 479, "pitch": 49, "duration": 244, "velocity": 107}, {"time": 483, "pitch": 53, "duration": 465, "velocity": 109}, {"time": 488, "pitch": 56, "duration": 460, "velocity": 110}, {"time": 493, "pitch": 61, "duration": 455, "velocity": 112}, {"time": 718, "pitch": 37, "duration": 230, "velocity": 84}, {"time": 723, "pitch": 44, "duration": 230, "velocity": 92}, {"time": 728, "pitch": 49, "duration": 220, "velocity": 96}, {"time": 958, "pitch": 37, "duration": 234, "velocity": 103}, {"time": 958, "pitch": 44, "duration": 239, "velocity": 105}, {"time": 958, "pitch": 49, "duration": 244, "velocity": 107}, {"time": 963, "pitch": 53, "duration": 464, "velocity": 109}, {"time": 968, "pitch": 56, "duration": 459, "velocity": 110}, {"time": 973, "pitch": 61, "duration": 454, "velocity": 112}, {"time": 1197, "pitch": 37, "duration": 230, "velocity": 84}, {"time": 1202, "pitch": 44, "duration": 230, "velocity": 92}, {"time": 1207, "pitch": 49, "duration": 220, "velocity": 96}, {"time": 1437, "pitch": 37, "duration": 238, "velocity": 103}, {"time": 1437, "pitch": 44, "duration": 243, "velocity": 105}, {"time": 1437, "pitch": 49, "duration": 248, "velocity": 107}, {"time": 1442, "pitch": 53, "duration": 471, "velocity": 109}, {"time": 1447, "pitch": 56, "duration": 466, "velocity": 110}, {"time": 1452, "pitch": 61, "duration": 461, "velocity": 112}, {"time": 1680, "pitch": 37, "duration": 233, "velocity": 84}, {"time": 1685, "pitch": 44, "duration": 233, "velocity": 92}, {"time": 1690, "pitch": 49, "duration": 223, "velocity": 96}, {"time": 1923, "pitch": 37, "duration": 235, "velocity": 103}, {"time": 1923, "pitch": 44, "duration": 240, "velocity": 105}, {"time": 1923, "pitch": 49, "duration": 245, "velocity": 107}, {"time": 1928, "pitch": 53, "duration": 235, "velocity": 109}, {"time": 1933, "pitch": 56, "duration": 230, "velocity": 110}, {"time": 1938, "pitch": 61, "duration": 225, "velocity": 112}, {"time": 2163, "pitch": 37, "duration": 134, "velocity": 82}, {"time": 2163, "pitch": 44, "duration": 139, "velocity": 84}, {"time": 2163, "pitch": 49, "duration": 5, "velocity": 85}, {"time": 2168, "pitch": 53, "duration": 134, "velocity": 87}, {"time": 2173, "pitch": 56, "duration": 129, "velocity": 88}, {"time": 2178, "pitch": 61, "duration": 124, "velocity": 89}, {"time": 2306, "pitch": 61, "duration": 80, "velocity": 89}, {"time": 2309, "pitch": 49, "duration": 90, "velocity": 85}, {"time": 2309, "pitch": 53, "duration": 90, "velocity": 87}, {"time": 2309, "pitch": 56, "duration": 85, "velocity": 88}, {"time": 2310, "pitch": 44, "duration": 90, "velocity": 84}, {"time": 2312, "pitch": 37, "duration": 90, "velocity": 82}, {"time": 2402, "pitch": 40, "duration": 710, "velocity": 105}, {"time": 2402, "pitch": 47, "duration": 949, "velocity": 107}, {"time": 2402, "pitch": 52, "duration": 230, "velocity": 109}, {"time": 2407, "pitch": 56, "duration": 465, "velocity": 111}, {"time": 2412, "pitch": 59, "duration": 460, "velocity": 112}, {"time": 2642, "pitch": 52, "duration": 230, "velocity": 99}, {"time": 2882, "pitch": 52, "duration": 469, "velocity": 111}, {"time": 2887, "pitch": 56, "duration": 464, "velocity": 114}, {"time": 2892, "pitch": 59, "duration": 459, "velocity": 117}, {"time": 3122, "pitch": 40, "duration": 229, "velocity": 100}, {"time": 3361, "pitch": 42, "duration": 710, "velocity": 103}, {"time": 3361, "pitch": 49, "duration": 710, "velocity": 103}, {"time": 3361, "pitch": 54, "duration": 230, "velocity": 105}, {"time": 3366, "pitch": 58, "duration": 465, "velocity": 107}, {"time": 3601, "pitch": 54, "duration": 230, "velocity": 99}, {"time": 3841, "pitch": 54, "duration": 230, "velocity": 109}, {"time": 3846, "pitch": 58, "duration": 225, "velocity": 112}, {"time": 4081, "pitch": 42, "duration": 145, "velocity": 85}, {"time": 4086, "pitch": 49, "duration": 135, "velocity": 87}, {"time": 4091, "pitch": 54, "duration": 130, "velocity": 88}, {"time": 4096, "pitch": 58, "duration": 125, "velocity": 89}, {"time": 4225, "pitch": 58, "duration": 79, "velocity": 89}, {"time": 4228, "pitch": 42, "duration": 89, "velocity": 85}, {"time": 4228, "pitch": 49, "duration": 89, "velocity": 87}, {"time": 4228, "pitch": 54, "duration": 84, "velocity": 88}, {"time": 4320, "pitch": 37, "duration": 235, "velocity": 103}, {"time": 4320, "pitch": 44, "duration": 240, "velocity": 105}, {"time": 4320, "pitch": 49, "duration": 245, "velocity": 107}, {"time": 4325, "pitch": 53, "duration": 465, "velocity": 109}, {"time": 4330, "pitch": 56, "duration": 460, "velocity": 110}, {"time": 4335, "pitch": 61, "duration": 455, "velocity": 112}, {"time": 4560, "pitch": 37, "duration": 230, "velocity": 84}, {"time": 4565, "pitch": 44, "duration": 230, "velocity": 92}, {"time": 4570, "pitch": 49, "duration": 220, "velocity": 96}, {"time": 4800, "pitch": 37, "duration": 235, "velocity": 103}, {"time": 4800, "pitch": 44, "duration": 240, "velocity": 105}, {"time": 4800, "pitch": 49, "duration": 245, "velocity": 107}, {"time": 4805, "pitch": 53, "duration": 465, "velocity": 109}, {"time": 4810, "pitch": 56, "duration": 460, "velocity": 110}, {"time": 4815, "pitch": 61, "duration": 455, "velocity": 112}, {"time": 5040, "pitch": 37, "duration": 230, "velocity": 84}, {"time": 5045, "pitch": 44, "duration": 230, "velocity": 92}, {"time": 5050, "pitch": 49, "duration": 220, "velocity": 96}, {"time": 5280, "pitch": 37, "duration": 234, "velocity": 103}, {"time": 5280, "pitch": 44, "duration": 239, "velocity": 105}, {"time": 5280, "pitch": 49, "duration": 244, "velocity": 107}, {"time": 5285, "pitch": 53, "duration": 464, "velocity": 109}, {"time": 5290, "pitch": 56, "duration": 459, "velocity": 110}, {"time": 5294, "pitch": 61, "duration": 455, "velocity": 112}, {"time": 5519, "pitch": 37, "duration": 230, "velocity": 84}, {"time": 5524, "pitch": 44, "duration": 230, "velocity": 92}, {"time": 5529, "pitch": 49, "duration": 220, "velocity": 96}, {"time": 5759, "pitch": 37, "duration": 235, "velocity": 103}, {"time": 5759, "pitch": 44, "duration": 240, "velocity": 105}, {"time": 5759, "pitch": 49, "duration": 245, "velocity": 107}, {"time": 5764, "pitch": 53, "duration": 235, "velocity": 109}, {"time": 5769, "pitch": 56, "duration": 230, "velocity": 110}, {"time": 5774, "pitch": 61, "duration": 225, "velocity": 112}, {"time": 5999, "pitch": 37, "duration": 135, "velocity": 82}, {"time": 5999, "pitch": 44, "duration": 140, "velocity": 84}, {"time": 5999, "pitch": 49, "duration": 5, "velocity": 85}, {"time": 6004, "pitch": 53, "duration": 135, "velocity": 87}, {"time": 6009, "pitch": 56, "duration": 130, "velocity": 88}, {"time": 6014, "pitch": 61, "duration": 125, "velocity": 89}, {"time": 6143, "pitch": 61, "duration": 80, "velocity": 89}, {"time": 6146, "pitch": 49, "duration": 90, "velocity": 85}, {"time": 6146, "pitch": 53, "duration": 90, "velocity": 87}, {"time": 6146, "pitch": 56, "duration": 85, "velocity": 88}, {"time": 6147, "pitch": 44, "duration": 90, "velocity": 84}, {"time": 6149, "pitch": 37, "duration": 90, "velocity": 82}, {"time": 6239, "pitch": 40, "duration": 709, "velocity": 105}, {"time": 6239, "pitch": 47, "duration": 949, "velocity": 107}, {"time": 6239, "pitch": 52, "duration": 229, "velocity": 109}, {"time": 6244, "pitch": 56, "duration": 464, "velocity": 111}, {"time": 6249, "pitch": 59, "duration": 459, "velocity": 112}, {"time": 6478, "pitch": 52, "duration": 230, "velocity": 99}, {"time": 6718, "pitch": 52, "duration": 470, "velocity": 111}, {"time": 6723, "pitch": 56, "duration": 465, "velocity": 114}, {"time": 6728, "pitch": 59, "duration": 460, "velocity": 117}, {"time": 6958, "pitch": 40, "duration": 230, "velocity": 100}, {"time": 7198, "pitch": 42, "duration": 712, "velocity": 103}, {"time": 7198, "pitch": 49, "duration": 955, "velocity": 103}, {"time": 7198, "pitch": 54, "duration": 229, "velocity": 105}, {"time": 7203, "pitch": 58, "duration": 464, "velocity": 107}, {"time": 7437, "pitch": 54, "duration": 230, "velocity": 99}, {"time": 7677, "pitch": 54, "duration": 476, "velocity": 109}, {"time": 7682, "pitch": 58, "duration": 471, "velocity": 112}, {"time": 7920, "pitch": 42, "duration": 233, "velocity": 97}, {"time": 8163, "pitch": 37, "duration": 235, "velocity": 103}, {"time": 8163, "pitch": 44, "duration": 240, "velocity": 105}, {"time": 8163, "pitch": 49, "duration": 245, "velocity": 107}, {"time": 8168, "pitch": 53, "duration": 464, "velocity": 109}, {"time": 8173, "pitch": 56, "duration": 459, "velocity": 110}, {"time": 8178, "pitch": 61, "duration": 454, "velocity": 112}, {"time": 8403, "pitch": 37, "duration": 229, "velocity": 84}, {"time": 8408, "pitch": 44, "duration": 229, "velocity": 92}, {"time": 8413, "pitch": 49, "duration": 219, "velocity": 96}, {"time": 8642, "pitch": 37, "duration": 235, "velocity": 103}, {"time": 8642, "pitch": 44, "duration": 240, "velocity": 105}, {"time": 8642, "pitch": 49, "duration": 245, "velocity": 107}, {"time": 8647, "pitch": 53, "duration": 465, "velocity": 109}, {"time": 8652, "pitch": 56, "duration": 460, "velocity": 110}, {"time": 8657, "pitch": 61, "duration": 455, "velocity": 112}, {"time": 8882, "pitch": 37, "duration": 230, "velocity": 84}, {"time": 8887, "pitch": 44, "duration": 230, "velocity": 92}, {"time": 8892, "pitch": 49, "duration": 220, "velocity": 96}, {"time": 9122, "pitch": 37, "duration": 235, "velocity": 103}, {"time": 9122, "pitch": 44, "duration": 240, "velocity": 105}, {"time": 9122, "pitch": 49, "duration": 245, "velocity": 107}, {"time": 9127, "pitch": 53, "duration": 464, "velocity": 109}, {"time": 9132, "pitch": 56, "duration": 459, "velocity": 110}, {"time": 9137, "pitch": 61, "duration": 454, "velocity": 112}, {"time": 9362, "pitch": 37, "duration": 229, "velocity": 84}, {"time": 9367, "pitch": 44, "duration": 229, "velocity": 92}, {"time": 9372, "pitch": 49, "duration": 219, "velocity": 96}, {"time": 9601, "pitch": 37, "duration": 235, "velocity": 103}, {"time": 9601, "pitch": 44, "duration": 240, "velocity": 105}, {"time": 9601, "pitch": 49, "duration": 245, "velocity": 107}, {"time": 9606, "pitch": 53, "duration": 465, "velocity": 109}, {"time": 9611, "pitch": 56, "duration": 460, "velocity": 110}, {"time": 9616, "pitch": 61, "duration": 455, "velocity": 112}, {"time": 9841, "pitch": 37, "duration": 230, "velocity": 84}, {"time": 9846, "pitch": 44, "duration": 230, "velocity": 92}, {"time": 9851, "pitch": 49, "duration": 220, "velocity": 96}, {"time": 10081, "pitch": 41, "duration": 709, "velocity": 103}, {"time": 10081, "pitch": 48, "duration": 949, "velocity": 105}, {"time": 10081, "pitch": 53, "duration": 230, "velocity": 107}, {"time": 10086, "pitch": 56, "duration": 464, "velocity": 109}, {"time": 10091, "pitch": 60, "duration": 459, "velocity": 110}, {"time": 10321, "pitch": 53, "duration": 229, "velocity": 89}, {"time": 10560, "pitch": 53, "duration": 470, "velocity": 109}, {"time": 10565, "pitch": 56, "duration": 465, "velocity": 112}, {"time": 10570, "pitch": 60, "duration": 460, "velocity": 115}, {"time": 10800, "pitch": 41, "duration": 230, "velocity": 90}, {"time": 11040, "pitch": 41, "duration": 709, "velocity": 103}, {"time": 11040, "pitch": 48, "duration": 949, "velocity": 103}, {"time": 11040, "pitch": 53, "duration": 230, "velocity": 105}, {"time": 11045, "pitch": 56, "duration": 465, "velocity": 107}, {"time": 11050, "pitch": 60, "duration": 460, "velocity": 109}, {"time": 11280, "pitch": 53, "duration": 230, "velocity": 91}, {"time": 11520, "pitch": 53, "duration": 469, "velocity": 109}, {"time": 11525, "pitch": 56, "duration": 464, "velocity": 112}, {"time": 11529, "pitch": 60, "duration": 460, "velocity": 115}, {"time": 11759, "pitch": 41, "duration": 230, "velocity": 89}, {"time": 11999, "pitch": 46, "duration": 709, "velocity": 103}, {"time": 11999, "pitch": 53, "duration": 949, "velocity": 105}, {"time": 11999, "pitch": 58, "duration": 230, "velocity": 107}, {"time": 12004, "pitch": 61, "duration": 465, "velocity": 109}, {"time": 12009, "pitch": 65, "duration": 460, "velocity": 110}, {"time": 12239, "pitch": 58, "duration": 230, "velocity": 89}, {"time": 12479, "pitch": 58, "duration": 469, "velocity": 109}, {"time": 12484, "pitch": 61, "duration": 464, "velocity": 112}, {"time": 12489, "pitch": 65, "duration": 459, "velocity": 115}, {"time": 12718, "pitch": 46, "duration": 230, "velocity": 90}, {"time": 12958, "pitch": 46, "duration": 709, "velocity": 103}, {"time": 12958, "pitch": 53, "duration": 949, "velocity": 103}, {"time": 12958, "pitch": 58, "duration": 230, "velocity": 105}, {"time": 12963, "pitch": 61, "duration": 465, "velocity": 107}, {"time": 12968, "pitch": 65, "duration": 460, "velocity": 109}, {"time": 13198, "pitch": 58, "duration": 230, "velocity": 91}, {"time": 13438, "pitch": 58, "duration": 469, "velocity": 109}, {"time": 13443, "pitch": 61, "duration": 464, "velocity": 112}, {"time": 13448, "pitch": 65, "duration": 459, "velocity": 115}, {"time": 13677, "pitch": 46, "duration": 230, "velocity": 89}, {"time": 13917, "pitch": 42, "duration": 476, "velocity": 103}, {"time": 13917, "pitch": 49, "duration": 476, "velocity": 105}, {"time": 13917, "pitch": 53, "duration": 233, "velocity": 107}, {"time": 13922, "pitch": 57, "duration": 471, "velocity": 109}, {"time": 13927, "pitch": 61, "duration": 466, "velocity": 110}, {"time": 14160, "pitch": 53, "duration": 233, "velocity": 89}, {"time": 14403, "pitch": 42, "duration": 240, "velocity": 105}, {"time": 14403, "pitch": 49, "duration": 245, "velocity": 107}, {"time": 14408, "pitch": 53, "duration": 235, "velocity": 109}, {"time": 14413, "pitch": 57, "duration": 230, "velocity": 110}, {"time": 14418, "pitch": 61, "duration": 225, "velocity": 112}, {"time": 14643, "pitch": 42, "duration": 139, "velocity": 84}, {"time": 14643, "pitch": 49, "duration": 5, "velocity": 85}, {"time": 14648, "pitch": 53, "duration": 134, "velocity": 87}, {"time": 14653, "pitch": 57, "duration": 129, "velocity": 88}, {"time": 14658, "pitch": 61, "duration": 124, "velocity": 89}, {"time": 14786, "pitch": 61, "duration": 80, "velocity": 89}, {"time": 14789, "pitch": 49, "duration": 90, "velocity": 85}, {"time": 14789, "pitch": 53, "duration": 90, "velocity": 87}, {"time": 14789, "pitch": 57, "duration": 85, "velocity": 88}, {"time": 14790, "pitch": 42, "duration": 90, "velocity": 84}, {"time": 14882, "pitch": 44, "duration": 710, "velocity": 103}, {"time": 14882, "pitch": 51, "duration": 710, "velocity": 103}, {"time": 14882, "pitch": 56, "duration": 230, "velocity": 105}, {"time": 14887, "pitch": 60, "duration": 465, "velocity": 107}, {"time": 14892, "pitch": 63, "duration": 460, "velocity": 109}, {"time": 15122, "pitch": 56, "duration": 230, "velocity": 91}, {"time": 15362, "pitch": 56, "duration": 230, "velocity": 109}, {"time": 15367, "pitch": 60, "duration": 225, "velocity": 112}, {"time": 15372, "pitch": 63, "duration": 220, "velocity": 115}, {"time": 15602, "pitch": 44, "duration": 140, "velocity": 84}, {"time": 15602, "pitch": 51, "duration": 145, "velocity": 85}, {"time": 15607, "pitch": 56, "duration": 135, "velocity": 87}, {"time": 15612, "pitch": 60, "duration": 130, "velocity": 88}, {"time": 15617, "pitch": 63, "duration": 125, "velocity": 89}, {"time": 15746, "pitch": 63, "duration": 79, "velocity": 89}, {"time": 15749, "pitch": 51, "duration": 89, "velocity": 85}, {"time": 15749, "pitch": 56, "duration": 89, "velocity": 87}, {"time": 15749, "pitch": 60, "duration": 84, "velocity": 88}, {"time": 15750, "pitch": 44, "duration": 89, "velocity": 84}, {"time": 15841, "pitch": 37, "duration": 710, "velocity": 103}, {"time": 15841, "pitch": 44, "duration": 949, "velocity": 105}, {"time": 15841, "pitch": 49, "duration": 230, "velocity": 107}, {"time": 15846, "pitch": 53, "duration": 465, "velocity": 109}, {"time": 15851, "pitch": 56, "duration": 460, "velocity": 110}, {"time": 16081, "pitch": 49, "duration": 230, "velocity": 89}, {"time": 16321, "pitch": 49, "duration": 469, "velocity": 109}, {"time": 16326, "pitch": 53, "duration": 464, "velocity": 112}, {"time": 16331, "pitch": 56, "duration": 459, "velocity": 115}, {"time": 16561, "pitch": 37, "duration": 229, "velocity": 90}, {"time": 16800, "pitch": 37, "duration": 710, "velocity": 103}, {"time": 16800, "pitch": 44, "duration": 950, "velocity": 103}, {"time": 16800, "pitch": 49, "duration": 230, "velocity": 105}, {"time": 16805, "pitch": 53, "duration": 465, "velocity": 107}, {"time": 16810, "pitch": 56, "duration": 460, "velocity": 109}, {"time": 17040, "pitch": 49, "duration": 230, "velocity": 91}, {"time": 17280, "pitch": 49, "duration": 470, "velocity": 109}, {"time": 17285, "pitch": 53, "duration": 465, "velocity": 112}, {"time": 17290, "pitch": 56, "duration": 460, "velocity": 115}, {"time": 17520, "pitch": 37, "duration": 230, "velocity": 89}, {"time": 17760, "pitch": 41, "duration": 709, "velocity": 103}, {"time": 17760, "pitch": 48, "duration": 949, "velocity": 105}, {"time": 17760, "pitch": 53, "duration": 229, "velocity": 107}, {"time": 17764, "pitch": 56, "duration": 465, "velocity": 109}, {"time": 17769, "pitch": 60, "duration": 460, "velocity": 110}, {"time": 17999, "pitch": 53, "duration": 230, "velocity": 89}, {"time": 18239, "pitch": 53, "duration": 470, "velocity": 109}, {"time": 18244, "pitch": 56, "duration": 465, "velocity": 112}, {"time": 18249, "pitch": 60, "duration": 460, "velocity": 115}, {"time": 18479, "pitch": 41, "duration": 230, "velocity": 90}, {"time": 18719, "pitch": 41, "duration": 709, "velocity": 103}, {"time": 18719, "pitch": 48, "duration": 709, "velocity": 103}, {"time": 18719, "pitch": 53, "duration": 229, "velocity": 105}, {"time": 18724, "pitch": 56, "duration": 464, "velocity": 107}, {"time": 18729, "pitch": 60, "duration": 459, "velocity": 109}, {"time": 18958, "pitch": 53, "duration": 230, "velocity": 91}, {"time": 19198, "pitch": 53, "duration": 230, "velocity": 109}, {"time": 19203, "pitch": 56, "duration": 225, "velocity": 112}, {"time": 19208, "pitch": 60, "duration": 220, "velocity": 115}, {"time": 19438, "pitch": 41, "duration": 140, "velocity": 84}, {"time": 19438, "pitch": 48, "duration": 145, "velocity": 85}, {"time": 19443, "pitch": 53, "duration": 135, "velocity": 87}, {"time": 19448, "pitch": 56, "duration": 130, "velocity": 88}, {"time": 19453, "pitch": 60, "duration": 125, "velocity": 89}, {"time": 19582, "pitch": 60, "duration": 80, "velocity": 89}, {"time": 19585, "pitch": 48, "duration": 90, "velocity": 85}, {"time": 19585, "pitch": 53, "duration": 90, "velocity": 87}, {"time": 19585, "pitch": 56, "duration": 85, "velocity": 88}, {"time": 19586, "pitch": 41, "duration": 90, "velocity": 84}, {"time": 19678, "pitch": 46, "duration": 712, "velocity": 103}, {"time": 19678, "pitch": 53, "duration": 955, "velocity": 105}, {"time": 19678, "pitch": 58, "duration": 229, "velocity": 107}, {"time": 19683, "pitch": 61, "duration": 464, "velocity": 109}, {"time": 19688, "pitch": 65, "duration": 459, "velocity": 110}, {"time": 19917, "pitch": 58, "duration": 230, "velocity": 89}, {"time": 20157, "pitch": 58, "duration": 476, "velocity": 109}, {"time": 20162, "pitch": 61, "duration": 471, "velocity": 112}, {"time": 20167, "pitch": 65, "duration": 466, "velocity": 115}, {"time": 20400, "pitch": 46, "duration": 233, "velocity": 90}, {"time": 20643, "pitch": 46, "duration": 709, "velocity": 103}, {"time": 20643, "pitch": 53, "duration": 949, "velocity": 103}, {"time": 20643, "pitch": 58, "duration": 230, "velocity": 105}, {"time": 20648, "pitch": 61, "duration": 464, "velocity": 107}, {"time": 20653, "pitch": 65, "duration": 459, "velocity": 109}, {"time": 20883, "pitch": 58, "duration": 229, "velocity": 91}, {"time": 21122, "pitch": 58, "duration": 470, "velocity": 109}, {"time": 21127, "pitch": 61, "duration": 465, "velocity": 112}, {"time": 21132, "pitch": 65, "duration": 460, "velocity": 115}, {"time": 21362, "pitch": 46, "duration": 230, "velocity": 89}, {"time": 21602, "pitch": 42, "duration": 709, "velocity": 103}, {"time": 21602, "pitch": 49, "duration": 949, "velocity": 105}, {"time": 21602, "pitch": 53, "duration": 230, "velocity": 107}, {"time": 21607, "pitch": 57, "duration": 464, "velocity": 109}, {"time": 21612, "pitch": 61, "duration": 459, "velocity": 110}, {"time": 21842, "pitch": 53, "duration": 229, "velocity": 89}, {"time": 22081, "pitch": 53, "duration": 470, "velocity": 109}, {"time": 22086, "pitch": 57, "duration": 465, "velocity": 112}, {"time": 22091, "pitch": 61, "duration": 460, "velocity": 115}, {"time": 22321, "pitch": 42, "duration": 230, "velocity": 90}, {"time": 22561, "pitch": 44, "duration": 709, "velocity": 103}, {"time": 22561, "pitch": 51, "duration": 709, "velocity": 103}, {"time": 22561, "pitch": 56, "duration": 230, "velocity": 105}, {"time": 22566, "pitch": 60, "duration": 464, "velocity": 107}, {"time": 22571, "pitch": 63, "duration": 459, "velocity": 109}, {"time": 22801, "pitch": 56, "duration": 229, "velocity": 91}, {"time": 23040, "pitch": 56, "duration": 230, "velocity": 109}, {"time": 23045, "pitch": 60, "duration": 225, "velocity": 112}, {"time": 23050, "pitch": 63, "duration": 220, "velocity": 115}, {"time": 23280, "pitch": 44, "duration": 140, "velocity": 84}, {"time": 23280, "pitch": 51, "duration": 145, "velocity": 85}, {"time": 23285, "pitch": 56, "duration": 135, "velocity": 87}, {"time": 23290, "pitch": 60, "duration": 130, "velocity": 88}, {"time": 23295, "pitch": 63, "duration": 125, "velocity": 89}, {"time": 23424, "pitch": 63, "duration": 80, "velocity": 89}, {"time": 23427, "pitch": 51, "duration": 90, "velocity": 85}, {"time": 23427, "pitch": 56, "duration": 90, "velocity": 87}, {"time": 23427, "pitch": 60, "duration": 85, "velocity": 88}, {"time": 23428, "pitch": 44, "duration": 90, "velocity": 84}, {"time": 23520, "pitch": 45, "duration": 1429, "velocity": 110}, {"time": 23520, "pitch": 52, "duration": 1429, "velocity": 112}, {"time": 23520, "pitch": 57, "duration": 1429, "velocity": 114}, {"time": 23525, "pitch": 61, "duration": 1424, "velocity": 116}, {"time": 23530, "pitch": 64, "duration": 1419, "velocity": 117}, {"time": 24959, "pitch": 45, "duration": 229, "velocity": 110}, {"time": 24959, "pitch": 52, "duration": 229, "velocity": 112}, {"time": 24959, "pitch": 57, "duration": 229, "velocity": 114}, {"time": 24964, "pitch": 61, "duration": 224, "velocity": 116}, {"time": 24969, "pitch": 64, "duration": 219, "velocity": 117}, {"time": 25198, "pitch": 45, "duration": 140, "velocity": 84}, {"time": 25198, "pitch": 52, "duration": 145, "velocity": 85}, {"time": 25203, "pitch": 57, "duration": 135, "velocity": 87}, {"time": 25208, "pitch": 61, "duration": 130, "velocity": 88}, {"time": 25213, "pitch": 64, "duration": 125, "velocity": 89}, {"time": 25342, "pitch": 64, "duration": 80, "velocity": 89}, {"time": 25345, "pitch": 52, "duration": 90, "velocity": 85}, {"time": 25345, "pitch": 57, "duration": 90, "velocity": 87}, {"time": 25345, "pitch": 61, "duration": 85, "velocity": 88}, {"time": 25346, "pitch": 45, "duration": 90, "velocity": 84}, {"time": 25438, "pitch": 47, "duration": 709, "velocity": 110}, {"time": 25438, "pitch": 54, "duration": 709, "velocity": 112}, {"time": 25438, "pitch": 59, "duration": 709, "velocity": 114}, {"time": 25443, "pitch": 63, "duration": 704, "velocity": 116}, {"time": 25448, "pitch": 66, "duration": 699, "velocity": 117}, {"time": 26157, "pitch": 47, "duration": 140, "velocity": 84}, {"time": 26157, "pitch": 54, "duration": 145, "velocity": 85}, {"time": 26162, "pitch": 59, "duration": 135, "velocity": 87}, {"time": 26167, "pitch": 63, "duration": 130, "velocity": 88}, {"time": 26172, "pitch": 66, "duration": 125, "velocity": 89}, {"time": 26301, "pitch": 66, "duration": 80, "velocity": 89}, {"time": 26304, "pitch": 54, "duration": 90, "velocity": 85}, {"time": 26304, "pitch": 59, "duration": 90, "velocity": 87}, {"time": 26304, "pitch": 63, "duration": 85, "velocity": 88}, {"time": 26305, "pitch": 47, "duration": 90, "velocity": 84}, {"time": 26397, "pitch": 47, "duration": 716, "velocity": 110}, {"time": 26397, "pitch": 54, "duration": 716, "velocity": 110}, {"time": 26397, "pitch": 57, "duration": 716, "velocity": 112}, {"time": 26402, "pitch": 63, "duration": 711, "velocity": 114}, {"time": 26407, "pitch": 66, "duration": 706, "velocity": 116}, {"time": 27123, "pitch": 47, "duration": 139, "velocity": 84}, {"time": 27123, "pitch": 54, "duration": 144, "velocity": 85}, {"time": 27128, "pitch": 57, "duration": 134, "velocity": 87}, {"time": 27133, "pitch": 63, "duration": 129, "velocity": 88}, {"time": 27138, "pitch": 66, "duration": 124, "velocity": 89}, {"time": 27266, "pitch": 66, "duration": 80, "velocity": 89}, {"time": 27269, "pitch": 54, "duration": 90, "velocity": 85}, {"time": 27269, "pitch": 57, "duration": 90, "velocity": 87}, {"time": 27269, "pitch": 63, "duration": 85, "velocity": 88}, {"time": 27270, "pitch": 47, "duration": 90, "velocity": 84}, {"time": 27362, "pitch": 49, "duration": 710, "velocity": 110}, {"time": 27362, "pitch": 56, "duration": 949, "velocity": 112}, {"time": 27362, "pitch": 61, "duration": 230, "velocity": 114}, {"time": 27367, "pitch": 65, "duration": 465, "velocity": 116}, {"time": 27372, "pitch": 68, "duration": 460, "velocity": 117}, {"time": 27377, "pitch": 73, "duration": 455, "velocity": 119}, {"time": 27602, "pitch": 61, "duration": 230, "velocity": 96}, {"time": 27842, "pitch": 61, "duration": 469, "velocity": 116}, {"time": 27847, "pitch": 65, "duration": 464, "velocity": 119}, {"time": 27852, "pitch": 68, "duration": 459, "velocity": 122}, {"time": 27857, "pitch": 73, "duration": 454, "velocity": 124}, {"time": 28082, "pitch": 49, "duration": 229, "velocity": 97}, {"time": 28321, "pitch": 48, "duration": 710, "velocity": 110}, {"time": 28321, "pitch": 56, "duration": 949, "velocity": 110}, {"time": 28321, "pitch": 60, "duration": 230, "velocity": 112}, {"time": 28326, "pitch": 65, "duration": 465, "velocity": 114}, {"time": 28331, "pitch": 68, "duration": 460, "velocity": 116}, {"time": 28336, "pitch": 72, "duration": 455, "velocity": 120}, {"time": 28561, "pitch": 60, "duration": 230, "velocity": 98}, {"time": 28801, "pitch": 60, "duration": 469, "velocity": 116}, {"time": 28806, "pitch": 65, "duration": 464, "velocity": 119}, {"time": 28811, "pitch": 68, "duration": 459, "velocity": 122}, {"time": 28816, "pitch": 72, "duration": 454, "velocity": 124}, {"time": 29041, "pitch": 48, "duration": 229, "velocity": 96}, {"time": 29280, "pitch": 46, "duration": 710, "velocity": 110}, {"time": 29280, "pitch": 53, "duration": 949, "velocity": 112}, {"time": 29280, "pitch": 56, "duration": 230, "velocity": 114}, {"time": 29285, "pitch": 61, "duration": 465, "velocity": 116}, {"time": 29290, "pitch": 65, "duration": 460, "velocity": 117}, {"time": 29295, "pitch": 70, "duration": 455, "velocity": 119}, {"time": 29520, "pitch": 56, "duration": 230, "velocity": 96}, {"time": 29760, "pitch": 56, "duration": 469, "velocity": 116}, {"time": 29765, "pitch": 61, "duration": 464, "velocity": 119}, {"time": 29770, "pitch": 65, "duration": 459, "velocity": 122}, {"time": 29775, "pitch": 70, "duration": 454, "velocity": 124}, {"time": 30000, "pitch": 46, "duration": 229, "velocity": 97}, {"time": 30239, "pitch": 44, "duration": 470, "velocity": 110}, {"time": 30239, "pitch": 51, "duration": 470, "velocity": 111}, {"time": 30239, "pitch": 56, "duration": 230, "velocity": 114}, {"time": 30244, "pitch": 60, "duration": 465, "velocity": 117}, {"time": 30249, "pitch": 63, "duration": 460, "velocity": 118}, {"time": 30479, "pitch": 56, "duration": 230, "velocity": 98}, {"time": 30719, "pitch": 44, "duration": 230, "velocity": 97}, {"time": 30719, "pitch": 51, "duration": 470, "velocity": 117}, {"time": 30719, "pitch": 56, "duration": 470, "velocity": 119}, {"time": 30724, "pitch": 60, "duration": 465, "velocity": 121}, {"time": 30729, "pitch": 63, "duration": 460, "velocity": 124}, {"time": 30959, "pitch": 44, "duration": 230, "velocity": 96}, {"time": 31199, "pitch": 42, "duration": 709, "velocity": 110}, {"time": 31199, "pitch": 49, "duration": 949, "velocity": 112}, {"time": 31199, "pitch": 53, "duration": 229, "velocity": 114}, {"time": 31204, "pitch": 58, "duration": 464, "velocity": 116}, {"time": 31209, "pitch": 61, "duration": 459, "velocity": 117}, {"time": 31214, "pitch": 66, "duration": 454, "velocity": 119}, {"time": 31438, "pitch": 53, "duration": 230, "velocity": 96}, {"time": 31678, "pitch": 53, "duration": 470, "velocity": 116}, {"time": 31683, "pitch": 58, "duration": 465, "velocity": 119}, {"time": 31688, "pitch": 61, "duration": 460, "velocity": 122}, {"time": 31693, "pitch": 66, "duration": 455, "velocity": 124}, {"time": 31918, "pitch": 42, "duration": 230, "velocity": 97}, {"time": 32158, "pitch": 41, "duration": 712, "velocity": 110}, {"time": 32158, "pitch": 49, "duration": 955, "velocity": 110}, {"time": 32158, "pitch": 54, "duration": 229, "velocity": 112}, {"time": 32163, "pitch": 58, "duration": 464, "velocity": 114}, {"time": 32168, "pitch": 61, "duration": 459, "velocity": 116}, {"time": 32397, "pitch": 54, "duration": 230, "velocity": 98}, {"time": 32637, "pitch": 54, "duration": 476, "velocity": 116}, {"time": 32642, "pitch": 58, "duration": 471, "velocity": 119}, {"time": 32647, "pitch": 61, "duration": 466, "velocity": 122}, {"time": 32880, "pitch": 41, "duration": 233, "velocity": 96}, {"time": 33123, "pitch": 46, "duration": 709, "velocity": 110}, {"time": 33123, "pitch": 51, "duration": 949, "velocity": 112}, {"time": 33123, "pitch": 58, "duration": 230, "velocity": 114}, {"time": 33128, "pitch": 61, "duration": 464, "velocity": 116}, {"time": 33133, "pitch": 66, "duration": 459, "velocity": 117}, {"time": 33363, "pitch": 58, "duration": 229, "velocity": 96}, {"time": 33602, "pitch": 58, "duration": 470, "velocity": 116}, {"time": 33607, "pitch": 61, "duration": 465, "velocity": 119}, {"time": 33612, "pitch": 66, "duration": 460, "velocity": 122}, {"time": 33842, "pitch": 46, "duration": 230, "velocity": 97}, {"time": 34082, "pitch": 44, "duration": 709, "velocity": 110}, {"time": 34082, "pitch": 51, "duration": 949, "velocity": 110}, {"time": 34082, "pitch": 54, "duration": 230, "velocity": 112}, {"time": 34087, "pitch": 60, "duration": 464, "velocity": 114}, {"time": 34092, "pitch": 63, "duration": 459, "velocity": 116}, {"time": 34322, "pitch": 54, "duration": 229, "velocity": 98}, {"time": 34561, "pitch": 54, "duration": 470, "velocity": 116}, {"time": 34566, "pitch": 60, "duration": 465, "velocity": 119}, {"time": 34571, "pitch": 63, "duration": 460, "velocity": 122}, {"time": 34801, "pitch": 44, "duration": 230, "velocity": 96}, {"time": 35041, "pitch": 42, "duration": 709, "velocity": 110}, {"time": 35041, "pitch": 49, "duration": 949, "velocity": 112}, {"time": 35041, "pitch": 53, "duration": 230, "velocity": 114}, {"time": 35046, "pitch": 58, "duration": 464, "velocity": 116}, {"time": 35051, "pitch": 61, "duration": 459, "velocity": 117}, {"time": 35056, "pitch": 66, "duration": 454, "velocity": 119}, {"time": 35281, "pitch": 53, "duration": 229, "velocity": 96}, {"time": 35520, "pitch": 53, "duration": 470, "velocity": 116}, {"time": 35525, "pitch": 58, "duration": 465, "velocity": 119}, {"time": 35530, "pitch": 61, "duration": 460, "velocity": 122}, {"time": 35535, "pitch": 66, "duration": 455, "velocity": 124}, {"time": 35760, "pitch": 42, "duration": 230, "velocity": 97}, {"time": 36000, "pitch": 44, "duration": 709, "velocity": 110}, {"time": 36000, "pitch": 51, "duration": 949, "velocity": 110}, {"time": 36000, "pitch": 54, "duration": 230, "velocity": 112}, {"time": 36005, "pitch": 60, "duration": 464, "velocity": 114}, {"time": 36010, "pitch": 63, "duration": 459, "velocity": 116}, {"time": 36015, "pitch": 68, "duration": 454, "velocity": 120}, {"time": 36240, "pitch": 54, "duration": 229, "velocity": 98}, {"time": 36479, "pitch": 54, "duration": 470, "velocity": 116}, {"time": 36484, "pitch": 60, "duration": 465, "velocity": 119}, {"time": 36489, "pitch": 63, "duration": 460, "velocity": 122}, {"time": 36494, "pitch": 68, "duration": 455, "velocity": 124}, {"time": 36719, "pitch": 44, "duration": 230, "velocity": 96}, {"time": 36959, "pitch": 41, "duration": 709, "velocity": 110}, {"time": 36959, "pitch": 48, "duration": 949, "velocity": 112}, {"time": 36959, "pitch": 51, "duration": 230, "velocity": 114}, {"time": 36964, "pitch": 56, "duration": 465, "velocity": 116}, {"time": 36969, "pitch": 60, "duration": 460, "velocity": 117}, {"time": 36974, "pitch": 65, "duration": 455, "velocity": 119}, {"time": 37199, "pitch": 51, "duration": 230, "velocity": 96}, {"time": 37439, "pitch": 51, "duration": 469, "velocity": 116}, {"time": 37444, "pitch": 56, "duration": 464, "velocity": 119}, {"time": 37449, "pitch": 60, "duration": 459, "velocity": 122}, {"time": 37454, "pitch": 65, "duration": 454, "velocity": 124}, {"time": 37678, "pitch": 41, "duration": 230, "velocity": 97}, {"time": 37918, "pitch": 46, "duration": 470, "velocity": 110}, {"time": 37918, "pitch": 53, "duration": 470, "velocity": 111}, {"time": 37918, "pitch": 56, "duration": 230, "velocity": 114}, {"time": 37923, "pitch": 61, "duration": 465, "velocity": 117}, {"time": 37928, "pitch": 65, "duration": 460, "velocity": 118}, {"time": 38158, "pitch": 56, "duration": 230, "velocity": 98}, {"time": 38398, "pitch": 44, "duration": 229, "velocity": 97}, {"time": 38398, "pitch": 53, "duration": 469, "velocity": 117}, {"time": 38398, "pitch": 56, "duration": 469, "velocity": 119}, {"time": 38403, "pitch": 61, "duration": 464, "velocity": 121}, {"time": 38408, "pitch": 65, "duration": 459, "velocity": 124}, {"time": 38637, "pitch": 44, "duration": 230, "velocity": 96}, {"time": 38877, "pitch": 42, "duration": 716, "velocity": 103}, {"time": 38877, "pitch": 49, "duration": 955, "velocity": 105}, {"time": 38877, "pitch": 51, "duration": 233, "velocity": 107}, {"time": 38882, "pitch": 58, "duration": 471, "velocity": 109}, {"time": 38887, "pitch": 61, "duration": 466, "velocity": 110}, {"time": 38892, "pitch": 65, "duration": 461, "velocity": 112}, {"time": 39120, "pitch": 51, "duration": 233, "velocity": 97}, {"time": 39363, "pitch": 51, "duration": 469, "velocity": 109}, {"time": 39368, "pitch": 58, "duration": 464, "velocity": 112}, {"time": 39373, "pitch": 61, "duration": 459, "velocity": 115}, {"time": 39378, "pitch": 65, "duration": 454, "velocity": 117}, {"time": 39603, "pitch": 42, "duration": 229, "velocity": 98}, {"time": 39842, "pitch": 42, "duration": 710, "velocity": 103}, {"time": 39842, "pitch": 49, "duration": 949, "velocity": 103}, {"time": 39842, "pitch": 51, "duration": 230, "velocity": 105}, {"time": 39847, "pitch": 58, "duration": 465, "velocity": 107}, {"time": 39852, "pitch": 61, "duration": 460, "velocity": 109}, {"time": 39857, "pitch": 65, "duration": 455, "velocity": 113}, {"time": 40082, "pitch": 51, "duration": 230, "velocity": 99}, {"time": 40322, "pitch": 51, "duration": 469, "velocity": 109}, {"time": 40327, "pitch": 58, "duration": 464, "velocity": 112}, {"time": 40332, "pitch": 61, "duration": 459, "velocity": 115}, {"time": 40337, "pitch": 65, "duration": 454, "velocity": 117}, {"time": 40562, "pitch": 42, "duration": 229, "velocity": 97}, {"time": 40801, "pitch": 44, "duration": 710, "velocity": 103}, {"time": 40801, "pitch": 51, "duration": 710, "velocity": 105}, {"time": 40801, "pitch": 56, "duration": 230, "velocity": 107}, {"time": 40806, "pitch": 60, "duration": 465, "velocity": 109}, {"time": 40811, "pitch": 63, "duration": 460, "velocity": 110}, {"time": 40816, "pitch": 68, "duration": 455, "velocity": 112}, {"time": 41041, "pitch": 56, "duration": 230, "velocity": 97}, {"time": 41281, "pitch": 56, "duration": 230, "velocity": 109}, {"time": 41286, "pitch": 60, "duration": 225, "velocity": 112}, {"time": 41291, "pitch": 63, "duration": 220, "velocity": 115}, {"time": 41296, "pitch": 68, "duration": 215, "velocity": 117}, {"time": 41521, "pitch": 44, "duration": 140, "velocity": 84}, {"time": 41521, "pitch": 51, "duration": 145, "velocity": 85}, {"time": 41526, "pitch": 56, "duration": 135, "velocity": 87}, {"time": 41531, "pitch": 60, "duration": 130, "velocity": 88}, {"time": 41536, "pitch": 63, "duration": 125, "velocity": 89}, {"time": 41536, "pitch": 68, "duration": 125, "velocity": 89}, {"time": 41665, "pitch": 63, "duration": 79, "velocity": 89}, {"time": 41665, "pitch": 68, "duration": 79, "velocity": 89}, {"time": 41668, "pitch": 51, "duration": 89, "velocity": 85}, {"time": 41668, "pitch": 56, "duration": 89, "velocity": 87}, {"time": 41668, "pitch": 60, "duration": 84, "velocity": 88}, {"time": 41669, "pitch": 44, "duration": 89, "velocity": 84}, {"time": 41760, "pitch": 46, "duration": 710, "velocity": 103}, {"time": 41760, "pitch": 53, "duration": 949, "velocity": 103}, {"time": 41760, "pitch": 56, "duration": 230, "velocity": 105}, {"time": 41765, "pitch": 63, "duration": 465, "velocity": 107}, {"time": 41770, "pitch": 65, "duration": 460, "velocity": 109}, {"time": 41775, "pitch": 70, "duration": 455, "velocity": 113}, {"time": 42000, "pitch": 56, "duration": 230, "velocity": 99}, {"time": 42240, "pitch": 56, "duration": 469, "velocity": 109}, {"time": 42245, "pitch": 62, "duration": 464, "velocity": 112}, {"time": 42250, "pitch": 65, "duration": 459, "velocity": 115}, {"time": 42255, "pitch": 70, "duration": 454, "velocity": 117}, {"time": 42480, "pitch": 46, "duration": 229, "velocity": 97}, {"time": 42719, "pitch": 51, "duration": 476, "velocity": 107}, {"time": 42962, "pitch": 58, "duration": 233, "velocity": 107}, {"time": 42962, "pitch": 63, "duration": 233, "velocity": 110}, {"time": 42967, "pitch": 67, "duration": 228, "velocity": 112}, {"time": 42972, "pitch": 70, "duration": 223, "velocity": 114}, {"time": 43205, "pitch": 51, "duration": 110, "velocity": 94}, {"time": 43445, "pitch": 50, "duration": 469, "velocity": 112}, {"time": 43445, "pitch": 58, "duration": 469, "velocity": 114}, {"time": 43450, "pitch": 62, "duration": 464, "velocity": 117}, {"time": 43455, "pitch": 65, "duration": 459, "velocity": 120}, {"time": 43924, "pitch": 50, "duration": 230, "velocity": 92}, {"time": 44164, "pitch": 50, "duration": 440, "velocity": 110}, {"time": 44164, "pitch": 58, "duration": 440, "velocity": 112}, {"time": 44169, "pitch": 62, "duration": 440, "velocity": 114}, {"time": 44174, "pitch": 65, "duration": 440, "velocity": 117}, {"time": 44644, "pitch": 53, "duration": 469, "velocity": 107}, {"time": 44883, "pitch": 60, "duration": 230, "velocity": 110}, {"time": 44888, "pitch": 63, "duration": 225, "velocity": 112}, {"time": 44893, "pitch": 68, "duration": 220, "velocity": 114}, {"time": 45123, "pitch": 55, "duration": 110, "velocity": 94}, {"time": 45363, "pitch": 48, "duration": 470, "velocity": 112}, {"time": 45363, "pitch": 55, "duration": 470, "velocity": 114}, {"time": 45368, "pitch": 58, "duration": 465, "velocity": 117}, {"time": 45373, "pitch": 63, "duration": 460, "velocity": 120}, {"time": 45843, "pitch": 48, "duration": 229, "velocity": 92}, {"time": 46082, "pitch": 46, "duration": 440, "velocity": 110}, {"time": 46082, "pitch": 55, "duration": 440, "velocity": 112}, {"time": 46087, "pitch": 58, "duration": 440, "velocity": 114}, {"time": 46092, "pitch": 63, "duration": 440, "velocity": 117}, {"time": 46562, "pitch": 44, "duration": 463, "velocity": 107}, {"time": 46799, "pitch": 51, "duration": 226, "velocity": 107}, {"time": 46799, "pitch": 56, "duration": 226, "velocity": 110}, {"time": 46804, "pitch": 60, "duration": 221, "velocity": 112}, {"time": 46809, "pitch": 63, "duration": 216, "velocity": 114}, {"time": 47035, "pitch": 44, "duration": 110, "velocity": 94}, {"time": 47275, "pitch": 46, "duration": 470, "velocity": 112}, {"time": 47275, "pitch": 53, "duration": 470, "velocity": 114}, {"time": 47280, "pitch": 58, "duration": 465, "velocity": 117}, {"time": 47285, "pitch": 62, "duration": 460, "velocity": 120}, {"time": 47755, "pitch": 46, "duration": 229, "velocity": 92}, {"time": 47994, "pitch": 46, "duration": 445, "velocity": 110}, {"time": 47994, "pitch": 53, "duration": 445, "velocity": 112}, {"time": 47999, "pitch": 58, "duration": 446, "velocity": 114}, {"time": 48004, "pitch": 62, "duration": 446, "velocity": 117}, {"time": 48480, "pitch": 43, "duration": 715, "velocity": 110}, {"time": 48480, "pitch": 50, "duration": 955, "velocity": 112}, {"time": 48480, "pitch": 53, "duration": 233, "velocity": 114}, {"time": 48485, "pitch": 58, "duration": 470, "velocity": 116}, {"time": 48723, "pitch": 53, "duration": 232, "velocity": 96}, {"time": 48965, "pitch": 53, "duration": 470, "velocity": 116}, {"time": 48970, "pitch": 58, "duration": 465, "velocity": 119}, {"time": 49205, "pitch": 43, "duration": 230, "velocity": 97}, {"time": 49445, "pitch": 48, "duration": 706, "velocity": 110}, {"time": 49445, "pitch": 55, "duration": 943, "velocity": 110}, {"time": 49445, "pitch": 58, "duration": 230, "velocity": 112}, {"time": 49450, "pitch": 63, "duration": 465, "velocity": 114}, {"time": 49685, "pitch": 58, "duration": 230, "velocity": 98}, {"time": 49925, "pitch": 58, "duration": 463, "velocity": 116}, {"time": 49930, "pitch": 63, "duration": 458, "velocity": 119}, {"time": 50161, "pitch": 48, "duration": 227, "velocity": 96}, {"time": 50398, "pitch": 41, "duration": 709, "velocity": 110}, {"time": 50398, "pitch": 48, "duration": 949, "velocity": 112}, {"time": 50398, "pitch": 51, "duration": 230, "velocity": 114}, {"time": 50403, "pitch": 56, "duration": 465, "velocity": 116}, {"time": 50638, "pitch": 51, "duration": 230, "velocity": 96}, {"time": 50878, "pitch": 51, "duration": 469, "velocity": 116}, {"time": 50883, "pitch": 56, "duration": 464, "velocity": 119}, {"time": 51117, "pitch": 41, "duration": 230, "velocity": 97}, {"time": 51357, "pitch": 46, "duration": 713, "velocity": 110}, {"time": 51357, "pitch": 53, "duration": 955, "velocity": 110}, {"time": 51357, "pitch": 56, "duration": 230, "velocity": 112}, {"time": 51362, "pitch": 62, "duration": 465, "velocity": 114}, {"time": 51597, "pitch": 56, "duration": 230, "velocity": 98}, {"time": 51837, "pitch": 56, "duration": 475, "velocity": 116}, {"time": 51842, "pitch": 62, "duration": 470, "velocity": 119}, {"time": 52080, "pitch": 46, "duration": 232, "velocity": 96}, {"time": 52322, "pitch": 43, "duration": 710, "velocity": 110}, {"time": 52322, "pitch": 50, "duration": 949, "velocity": 112}, {"time": 52322, "pitch": 53, "duration": 230, "velocity": 114}, {"time": 52327, "pitch": 58, "duration": 465, "velocity": 116}, {"time": 52562, "pitch": 53, "duration": 230, "velocity": 96}, {"time": 52802, "pitch": 53, "duration": 469, "velocity": 116}, {"time": 52807, "pitch": 58, "duration": 464, "velocity": 119}, {"time": 53042, "pitch": 43, "duration": 229, "velocity": 97}, {"time": 53281, "pitch": 48, "duration": 470, "velocity": 110}, {"time": 53281, "pitch": 55, "duration": 470, "velocity": 111}, {"time": 53281, "pitch": 58, "duration": 230, "velocity": 114}, {"time": 53286, "pitch": 63, "duration": 465, "velocity": 117}, {"time": 53521, "pitch": 58, "duration": 230, "velocity": 98}, {"time": 53761, "pitch": 46, "duration": 227, "velocity": 97}, {"time": 53761, "pitch": 55, "duration": 463, "velocity": 117}, {"time": 53761, "pitch": 58, "duration": 463, "velocity": 119}, {"time": 53766, "pitch": 63, "duration": 458, "velocity": 121}, {"time": 53998, "pitch": 46, "duration": 226, "velocity": 96}, {"time": 54234, "pitch": 41, "duration": 470, "velocity": 107}, {"time": 54474, "pitch": 48, "duration": 230, "velocity": 107}, {"time": 54474, "pitch": 51, "duration": 230, "velocity": 110}, {"time": 54479, "pitch": 56, "duration": 225, "velocity": 112}, {"time": 54484, "pitch": 60, "duration": 220, "velocity": 114}, {"time": 54714, "pitch": 41, "duration": 111, "velocity": 94}, {"time": 54957, "pitch": 43, "duration": 472, "velocity": 112}, {"time": 54957, "pitch": 50, "duration": 472, "velocity": 114}, {"time": 54962, "pitch": 53, "duration": 467, "velocity": 117}, {"time": 54967, "pitch": 58, "duration": 462, "velocity": 120}, {"time": 55439, "pitch": 43, "duration": 230, "velocity": 92}, {"time": 55679, "pitch": 43, "duration": 440, "velocity": 110}, {"time": 55679, "pitch": 50, "duration": 440, "velocity": 112}, {"time": 55684, "pitch": 53, "duration": 441, "velocity": 114}, {"time": 55689, "pitch": 58, "duration": 440, "velocity": 117}, {"time": 56159, "pitch": 41, "duration": 702, "velocity": 110}, {"time": 56159, "pitch": 47, "duration": 943, "velocity": 112}, {"time": 56159, "pitch": 51, "duration": 226, "velocity": 114}, {"time": 56163, "pitch": 56, "duration": 458, "velocity": 116}, {"time": 56395, "pitch": 51, "duration": 226, "velocity": 96}, {"time": 56631, "pitch": 51, "duration": 471, "velocity": 116}, {"time": 56636, "pitch": 56, "duration": 466, "velocity": 119}, {"time": 56871, "pitch": 41, "duration": 231, "velocity": 97}, {"time": 57112, "pitch": 51, "duration": 469, "velocity": 110}, {"time": 57112, "pitch": 58, "duration": 469, "velocity": 111}, {"time": 57112, "pitch": 63, "duration": 229, "velocity": 114}, {"time": 57117, "pitch": 67, "duration": 464, "velocity": 117}, {"time": 57351, "pitch": 63, "duration": 230, "velocity": 98}, {"time": 57591, "pitch": 51, "duration": 236, "velocity": 97}, {"time": 57591, "pitch": 58, "duration": 482, "velocity": 117}, {"time": 57591, "pitch": 63, "duration": 482, "velocity": 119}, {"time": 57596, "pitch": 67, "duration": 477, "velocity": 121}, {"time": 57837, "pitch": 51, "duration": 236, "velocity": 96}, {"time": 58084, "pitch": 40, "duration": 698, "velocity": 102}, {"time": 58084, "pitch": 47, "duration": 698, "velocity": 97}, {"time": 58094, "pitch": 52, "duration": 695, "velocity": 98}, {"time": 58103, "pitch": 56, "duration": 692, "velocity": 100}, {"time": 58113, "pitch": 59, "duration": 688, "velocity": 102}, {"time": 58123, "pitch": 64, "duration": 684, "velocity": 104}, {"time": 58796, "pitch": 42, "duration": 1164, "velocity": 102}, {"time": 58796, "pitch": 49, "duration": 1164, "velocity": 97}, {"time": 58806, "pitch": 54, "duration": 1159, "velocity": 98}, {"time": 58816, "pitch": 58, "duration": 1153, "velocity": 100}, {"time": 58826, "pitch": 61, "duration": 1146, "velocity": 102}, {"time": 58836, "pitch": 66, "duration": 1140, "velocity": 104}, {"time": 59989, "pitch": 37, "duration": 233, "velocity": 103}, {"time": 59989, "pitch": 44, "duration": 240, "velocity": 105}, {"time": 59989, "pitch": 49, "duration": 245, "velocity": 107}, {"time": 59993, "pitch": 53, "duration": 465, "velocity": 109}, {"time": 59997, "pitch": 56, "duration": 461, "velocity": 110}, {"time": 60002, "pitch": 61, "duration": 456, "velocity": 112}, {"time": 60229, "pitch": 37, "duration": 229, "velocity": 84}, {"time": 60234, "pitch": 44, "duration": 229, "velocity": 92}, {"time": 60239, "pitch": 49, "duration": 219, "velocity": 96}, {"time": 60468, "pitch": 37, "duration": 234, "velocity": 103}, {"time": 60468, "pitch": 44, "duration": 239, "velocity": 105}, {"time": 60468, "pitch": 49, "duration": 244, "velocity": 107}, {"time": 60473, "pitch": 53, "duration": 464, "velocity": 109}, {"time": 60477, "pitch": 56, "duration": 460, "velocity": 110}, {"time": 60482, "pitch": 61, "duration": 455, "velocity": 112}, {"time": 60707, "pitch": 37, "duration": 230, "velocity": 84}, {"time": 60712, "pitch": 44, "duration": 230, "velocity": 92}, {"time": 60717, "pitch": 49, "duration": 220, "velocity": 96}, {"time": 60947, "pitch": 37, "duration": 236, "velocity": 103}, {"time": 60947, "pitch": 44, "duration": 241, "velocity": 105}, {"time": 60947, "pitch": 49, "duration": 246, "velocity": 107}, {"time": 60953, "pitch": 53, "duration": 464, "velocity": 109}, {"time": 60958, "pitch": 56, "duration": 459, "velocity": 110}, {"time": 60963, "pitch": 61, "duration": 454, "velocity": 112}, {"time": 61188, "pitch": 37, "duration": 229, "velocity": 84}, {"time": 61193, "pitch": 44, "duration": 229, "velocity": 92}, {"time": 61198, "pitch": 49, "duration": 219, "velocity": 96}, {"time": 61427, "pitch": 37, "duration": 235, "velocity": 103}, {"time": 61427, "pitch": 44, "duration": 240, "velocity": 105}, {"time": 61427, "pitch": 49, "duration": 245, "velocity": 107}, {"time": 61432, "pitch": 53, "duration": 465, "velocity": 109}, {"time": 61437, "pitch": 56, "duration": 460, "velocity": 110}, {"time": 61442, "pitch": 61, "duration": 455, "velocity": 112}, {"time": 61667, "pitch": 37, "duration": 230, "velocity": 84}, {"time": 61672, "pitch": 44, "duration": 230, "velocity": 92}, {"time": 61677, "pitch": 49, "duration": 220, "velocity": 96}, {"time": 61907, "pitch": 41, "duration": 708, "velocity": 103}, {"time": 61907, "pitch": 48, "duration": 948, "velocity": 105}, {"time": 61907, "pitch": 53, "duration": 229, "velocity": 107}, {"time": 61912, "pitch": 56, "duration": 465, "velocity": 109}, {"time": 61916, "pitch": 60, "duration": 461, "velocity": 110}, {"time": 62146, "pitch": 53, "duration": 231, "velocity": 89}, {"time": 62386, "pitch": 53, "duration": 469, "velocity": 109}, {"time": 62391, "pitch": 56, "duration": 464, "velocity": 112}, {"time": 62395, "pitch": 60, "duration": 460, "velocity": 115}, {"time": 62625, "pitch": 41, "duration": 230, "velocity": 90}, {"time": 62865, "pitch": 41, "duration": 710, "velocity": 103}, {"time": 62865, "pitch": 48, "duration": 950, "velocity": 103}, {"time": 62865, "pitch": 53, "duration": 231, "velocity": 105}, {"time": 62870, "pitch": 56, "duration": 466, "velocity": 107}, {"time": 62875, "pitch": 60, "duration": 461, "velocity": 109}, {"time": 63106, "pitch": 53, "duration": 230, "velocity": 91}, {"time": 63346, "pitch": 53, "duration": 469, "velocity": 109}, {"time": 63351, "pitch": 56, "duration": 464, "velocity": 112}, {"time": 63356, "pitch": 60, "duration": 459, "velocity": 115}, {"time": 63585, "pitch": 41, "duration": 230, "velocity": 89}, {"time": 63825, "pitch": 46, "duration": 722, "velocity": 103}, {"time": 63825, "pitch": 53, "duration": 961, "velocity": 105}, {"time": 63825, "pitch": 58, "duration": 235, "velocity": 107}, {"time": 63830, "pitch": 61, "duration": 477, "velocity": 109}, {"time": 63835, "pitch": 65, "duration": 472, "velocity": 110}, {"time": 64071, "pitch": 58, "duration": 236, "velocity": 89}, {"time": 64317, "pitch": 58, "duration": 469, "velocity": 109}, {"time": 64322, "pitch": 61, "duration": 464, "velocity": 112}, {"time": 64327, "pitch": 65, "duration": 459, "velocity": 115}, {"time": 64557, "pitch": 46, "duration": 229, "velocity": 90}, {"time": 64796, "pitch": 46, "duration": 707, "velocity": 103}, {"time": 64796, "pitch": 53, "duration": 943, "velocity": 103}, {"time": 64796, "pitch": 58, "duration": 230, "velocity": 105}, {"time": 64801, "pitch": 61, "duration": 465, "velocity": 107}, {"time": 64806, "pitch": 65, "duration": 460, "velocity": 109}, {"time": 65036, "pitch": 58, "duration": 230, "velocity": 91}, {"time": 65276, "pitch": 58, "duration": 463, "velocity": 109}, {"time": 65281, "pitch": 61, "duration": 458, "velocity": 112}, {"time": 65286, "pitch": 65, "duration": 453, "velocity": 115}, {"time": 65513, "pitch": 46, "duration": 226, "velocity": 89}, {"time": 65749, "pitch": 42, "duration": 482, "velocity": 103}, {"time": 65749, "pitch": 49, "duration": 482, "velocity": 105}, {"time": 65749, "pitch": 53, "duration": 235, "velocity": 107}, {"time": 65754, "pitch": 57, "duration": 477, "velocity": 109}, {"time": 65759, "pitch": 61, "duration": 472, "velocity": 110}, {"time": 65995, "pitch": 53, "duration": 236, "velocity": 89}, {"time": 66241, "pitch": 42, "duration": 240, "velocity": 105}, {"time": 66241, "pitch": 49, "duration": 245, "velocity": 107}, {"time": 66246, "pitch": 53, "duration": 235, "velocity": 109}, {"time": 66251, "pitch": 57, "duration": 230, "velocity": 110}, {"time": 66256, "pitch": 61, "duration": 225, "velocity": 112}, {"time": 66481, "pitch": 42, "duration": 140, "velocity": 84}, {"time": 66481, "pitch": 49, "duration": 5, "velocity": 85}, {"time": 66486, "pitch": 53, "duration": 135, "velocity": 87}, {"time": 66491, "pitch": 57, "duration": 130, "velocity": 88}, {"time": 66496, "pitch": 61, "duration": 125, "velocity": 89}, {"time": 66625, "pitch": 61, "duration": 79, "velocity": 89}, {"time": 66628, "pitch": 49, "duration": 89, "velocity": 85}, {"time": 66628, "pitch": 53, "duration": 89, "velocity": 87}, {"time": 66628, "pitch": 57, "duration": 84, "velocity": 88}, {"time": 66629, "pitch": 42, "duration": 89, "velocity": 84}, {"time": 66720, "pitch": 44, "duration": 707, "velocity": 103}, {"time": 66720, "pitch": 51, "duration": 707, "velocity": 103}, {"time": 66720, "pitch": 56, "duration": 230, "velocity": 105}, {"time": 66725, "pitch": 60, "duration": 465, "velocity": 107}, {"time": 66730, "pitch": 63, "duration": 460, "velocity": 109}, {"time": 66960, "pitch": 56, "duration": 230, "velocity": 91}, {"time": 67200, "pitch": 56, "duration": 227, "velocity": 109}, {"time": 67205, "pitch": 60, "duration": 222, "velocity": 112}, {"time": 67210, "pitch": 63, "duration": 217, "velocity": 115}, {"time": 67437, "pitch": 44, "duration": 138, "velocity": 84}, {"time": 67437, "pitch": 51, "duration": 143, "velocity": 85}, {"time": 67442, "pitch": 56, "duration": 133, "velocity": 87}, {"time": 67447, "pitch": 60, "duration": 128, "velocity": 88}, {"time": 67452, "pitch": 63, "duration": 123, "velocity": 89}, {"time": 67579, "pitch": 63, "duration": 78, "velocity": 89}, {"time": 67582, "pitch": 51, "duration": 88, "velocity": 85}, {"time": 67582, "pitch": 56, "duration": 88, "velocity": 87}, {"time": 67582, "pitch": 60, "duration": 83, "velocity": 88}, {"time": 67583, "pitch": 44, "duration": 88, "velocity": 84}, {"time": 67673, "pitch": 37, "duration": 722, "velocity": 103}, {"time": 67673, "pitch": 44, "duration": 962, "velocity": 105}, {"time": 67673, "pitch": 49, "duration": 236, "velocity": 107}, {"time": 67678, "pitch": 53, "duration": 477, "velocity": 109}, {"time": 67683, "pitch": 56, "duration": 472, "velocity": 110}, {"time": 67919, "pitch": 49, "duration": 236, "velocity": 89}, {"time": 68165, "pitch": 49, "duration": 470, "velocity": 109}, {"time": 68170, "pitch": 53, "duration": 465, "velocity": 112}, {"time": 68175, "pitch": 56, "duration": 460, "velocity": 115}, {"time": 68405, "pitch": 37, "duration": 230, "velocity": 90}, {"time": 68644, "pitch": 37, "duration": 710, "velocity": 103}, {"time": 68644, "pitch": 44, "duration": 950, "velocity": 103}, {"time": 68644, "pitch": 49, "duration": 230, "velocity": 105}, {"time": 68649, "pitch": 53, "duration": 465, "velocity": 107}, {"time": 68654, "pitch": 56, "duration": 460, "velocity": 109}, {"time": 68884, "pitch": 49, "duration": 230, "velocity": 91}, {"time": 69124, "pitch": 49, "duration": 470, "velocity": 109}, {"time": 69129, "pitch": 53, "duration": 465, "velocity": 112}, {"time": 69134, "pitch": 56, "duration": 460, "velocity": 115}, {"time": 69364, "pitch": 37, "duration": 230, "velocity": 89}, {"time": 69604, "pitch": 41, "duration": 700, "velocity": 103}, {"time": 69604, "pitch": 48, "duration": 943, "velocity": 105}, {"time": 69604, "pitch": 53, "duration": 223, "velocity": 107}, {"time": 69609, "pitch": 56, "duration": 452, "velocity": 109}, {"time": 69614, "pitch": 60, "duration": 447, "velocity": 110}, {"time": 69837, "pitch": 53, "duration": 224, "velocity": 89}, {"time": 70071, "pitch": 53, "duration": 476, "velocity": 109}, {"time": 70076, "pitch": 56, "duration": 471, "velocity": 112}, {"time": 70081, "pitch": 60, "duration": 466, "velocity": 115}, {"time": 70314, "pitch": 41, "duration": 233, "velocity": 90}, {"time": 70557, "pitch": 41, "duration": 706, "velocity": 103}, {"time": 70557, "pitch": 48, "duration": 706, "velocity": 103}, {"time": 70557, "pitch": 53, "duration": 227, "velocity": 105}, {"time": 70562, "pitch": 56, "duration": 458, "velocity": 107}, {"time": 70567, "pitch": 60, "duration": 453, "velocity": 109}, {"time": 70794, "pitch": 53, "duration": 226, "velocity": 91}, {"time": 71030, "pitch": 53, "duration": 233, "velocity": 109}, {"time": 71035, "pitch": 56, "duration": 228, "velocity": 112}, {"time": 71040, "pitch": 60, "duration": 223, "velocity": 115}, {"time": 71273, "pitch": 41, "duration": 142, "velocity": 84}, {"time": 71273, "pitch": 48, "duration": 147, "velocity": 85}, {"time": 71278, "pitch": 53, "duration": 137, "velocity": 87}, {"time": 71283, "pitch": 56, "duration": 132, "velocity": 88}, {"time": 71288, "pitch": 60, "duration": 127, "velocity": 89}, {"time": 71419, "pitch": 60, "duration": 81, "velocity": 89}, {"time": 71422, "pitch": 48, "duration": 91, "velocity": 85}, {"time": 71422, "pitch": 53, "duration": 91, "velocity": 87}, {"time": 71422, "pitch": 56, "duration": 86, "velocity": 88}, {"time": 71423, "pitch": 41, "duration": 91, "velocity": 84}, {"time": 71516, "pitch": 46, "duration": 709, "velocity": 103}, {"time": 71516, "pitch": 53, "duration": 949, "velocity": 105}, {"time": 71516, "pitch": 58, "duration": 230, "velocity": 107}, {"time": 71521, "pitch": 61, "duration": 464, "velocity": 109}, {"time": 71526, "pitch": 65, "duration": 459, "velocity": 110}, {"time": 71756, "pitch": 58, "duration": 229, "velocity": 89}, {"time": 71995, "pitch": 58, "duration": 470, "velocity": 109}, {"time": 72000, "pitch": 61, "duration": 465, "velocity": 112}, {"time": 72005, "pitch": 65, "duration": 460, "velocity": 115}, {"time": 72235, "pitch": 46, "duration": 230, "velocity": 90}, {"time": 72475, "pitch": 46, "duration": 709, "velocity": 103}, {"time": 72475, "pitch": 53, "duration": 949, "velocity": 103}, {"time": 72475, "pitch": 58, "duration": 230, "velocity": 105}, {"time": 72480, "pitch": 61, "duration": 464, "velocity": 107}, {"time": 72485, "pitch": 65, "duration": 459, "velocity": 109}, {"time": 72715, "pitch": 58, "duration": 229, "velocity": 91}, {"time": 72954, "pitch": 58, "duration": 470, "velocity": 109}, {"time": 72959, "pitch": 61, "duration": 465, "velocity": 112}, {"time": 72964, "pitch": 65, "duration": 460, "velocity": 115}, {"time": 73194, "pitch": 46, "duration": 230, "velocity": 89}, {"time": 73434, "pitch": 42, "duration": 715, "velocity": 103}, {"time": 73434, "pitch": 49, "duration": 955, "velocity": 105}, {"time": 73434, "pitch": 53, "duration": 233, "velocity": 107}, {"time": 73439, "pitch": 57, "duration": 470, "velocity": 109}, {"time": 73444, "pitch": 61, "duration": 465, "velocity": 110}, {"time": 73677, "pitch": 53, "duration": 232, "velocity": 89}, {"time": 73919, "pitch": 53, "duration": 470, "velocity": 109}, {"time": 73924, "pitch": 57, "duration": 465, "velocity": 112}, {"time": 73929, "pitch": 61, "duration": 460, "velocity": 115}, {"time": 74159, "pitch": 42, "duration": 230, "velocity": 90}, {"time": 74399, "pitch": 44, "duration": 712, "velocity": 103}, {"time": 74399, "pitch": 51, "duration": 712, "velocity": 103}, {"time": 74399, "pitch": 56, "duration": 230, "velocity": 105}, {"time": 74404, "pitch": 60, "duration": 464, "velocity": 107}, {"time": 74409, "pitch": 63, "duration": 459, "velocity": 109}, {"time": 74639, "pitch": 56, "duration": 229, "velocity": 91}, {"time": 74878, "pitch": 56, "duration": 233, "velocity": 109}, {"time": 74883, "pitch": 60, "duration": 228, "velocity": 112}, {"time": 74888, "pitch": 63, "duration": 223, "velocity": 115}, {"time": 75121, "pitch": 44, "duration": 142, "velocity": 84}, {"time": 75121, "pitch": 51, "duration": 147, "velocity": 85}, {"time": 75126, "pitch": 56, "duration": 137, "velocity": 87}, {"time": 75131, "pitch": 60, "duration": 132, "velocity": 88}, {"time": 75136, "pitch": 63, "duration": 127, "velocity": 89}, {"time": 75267, "pitch": 63, "duration": 81, "velocity": 89}, {"time": 75270, "pitch": 51, "duration": 91, "velocity": 85}, {"time": 75270, "pitch": 56, "duration": 91, "velocity": 87}, {"time": 75270, "pitch": 60, "duration": 86, "velocity": 88}, {"time": 75271, "pitch": 44, "duration": 91, "velocity": 84}, {"time": 75364, "pitch": 45, "duration": 1423, "velocity": 110}, {"time": 75364, "pitch": 52, "duration": 1423, "velocity": 112}, {"time": 75364, "pitch": 57, "duration": 1423, "velocity": 114}, {"time": 75369, "pitch": 61, "duration": 1418, "velocity": 116}, {"time": 75374, "pitch": 64, "duration": 1413, "velocity": 117}, {"time": 76797, "pitch": 45, "duration": 230, "velocity": 110}, {"time": 76797, "pitch": 52, "duration": 230, "velocity": 112}, {"time": 76797, "pitch": 57, "duration": 230, "velocity": 114}, {"time": 76802, "pitch": 61, "duration": 225, "velocity": 116}, {"time": 76807, "pitch": 64, "duration": 220, "velocity": 117}, {"time": 77037, "pitch": 45, "duration": 139, "velocity": 84}, {"time": 77037, "pitch": 52, "duration": 144, "velocity": 85}, {"time": 77042, "pitch": 57, "duration": 134, "velocity": 87}, {"time": 77047, "pitch": 61, "duration": 129, "velocity": 88}, {"time": 77052, "pitch": 64, "duration": 124, "velocity": 89}, {"time": 77180, "pitch": 64, "duration": 80, "velocity": 89}, {"time": 77183, "pitch": 52, "duration": 90, "velocity": 85}, {"time": 77183, "pitch": 57, "duration": 90, "velocity": 87}, {"time": 77183, "pitch": 61, "duration": 85, "velocity": 88}, {"time": 77184, "pitch": 45, "duration": 90, "velocity": 84}, {"time": 77276, "pitch": 47, "duration": 710, "velocity": 110}, {"time": 77276, "pitch": 54, "duration": 710, "velocity": 112}, {"time": 77276, "pitch": 59, "duration": 710, "velocity": 114}, {"time": 77281, "pitch": 63, "duration": 705, "velocity": 116}, {"time": 77286, "pitch": 66, "duration": 700, "velocity": 117}, {"time": 77996, "pitch": 47, "duration": 139, "velocity": 84}, {"time": 77996, "pitch": 54, "duration": 144, "velocity": 85}, {"time": 78001, "pitch": 59, "duration": 134, "velocity": 87}, {"time": 78006, "pitch": 63, "duration": 129, "velocity": 88}, {"time": 78011, "pitch": 66, "duration": 124, "velocity": 89}, {"time": 78139, "pitch": 66, "duration": 80, "velocity": 89}, {"time": 78142, "pitch": 54, "duration": 90, "velocity": 85}, {"time": 78142, "pitch": 59, "duration": 90, "velocity": 87}, {"time": 78142, "pitch": 63, "duration": 85, "velocity": 88}, {"time": 78143, "pitch": 47, "duration": 90, "velocity": 84}, {"time": 78235, "pitch": 47, "duration": 713, "velocity": 110}, {"time": 78235, "pitch": 54, "duration": 713, "velocity": 110}, {"time": 78235, "pitch": 57, "duration": 713, "velocity": 112}, {"time": 78240, "pitch": 63, "duration": 708, "velocity": 114}, {"time": 78245, "pitch": 66, "duration": 703, "velocity": 116}, {"time": 78958, "pitch": 47, "duration": 141, "velocity": 84}, {"time": 78958, "pitch": 54, "duration": 146, "velocity": 85}, {"time": 78963, "pitch": 57, "duration": 136, "velocity": 87}, {"time": 78968, "pitch": 63, "duration": 131, "velocity": 88}, {"time": 78973, "pitch": 66, "duration": 126, "velocity": 89}, {"time": 79103, "pitch": 66, "duration": 81, "velocity": 89}, {"time": 79106, "pitch": 54, "duration": 91, "velocity": 85}, {"time": 79106, "pitch": 57, "duration": 91, "velocity": 87}, {"time": 79106, "pitch": 63, "duration": 86, "velocity": 88}, {"time": 79107, "pitch": 47, "duration": 91, "velocity": 84}, {"time": 79200, "pitch": 49, "duration": 710, "velocity": 110}, {"time": 79200, "pitch": 56, "duration": 949, "velocity": 112}, {"time": 79200, "pitch": 61, "duration": 230, "velocity": 114}, {"time": 79205, "pitch": 65, "duration": 465, "velocity": 116}, {"time": 79210, "pitch": 68, "duration": 460, "velocity": 117}, {"time": 79215, "pitch": 73, "duration": 455, "velocity": 119}, {"time": 79440, "pitch": 61, "duration": 230, "velocity": 96}, {"time": 79680, "pitch": 61, "duration": 469, "velocity": 116}, {"time": 79685, "pitch": 65, "duration": 464, "velocity": 119}, {"time": 79690, "pitch": 68, "duration": 459, "velocity": 122}, {"time": 79695, "pitch": 73, "duration": 454, "velocity": 124}, {"time": 79920, "pitch": 49, "duration": 229, "velocity": 97}, {"time": 80159, "pitch": 48, "duration": 707, "velocity": 110}, {"time": 80159, "pitch": 56, "duration": 943, "velocity": 110}, {"time": 80159, "pitch": 60, "duration": 230, "velocity": 112}, {"time": 80164, "pitch": 65, "duration": 465, "velocity": 114}, {"time": 80169, "pitch": 68, "duration": 460, "velocity": 116}, {"time": 80174, "pitch": 72, "duration": 455, "velocity": 120}, {"time": 80399, "pitch": 60, "duration": 230, "velocity": 98}, {"time": 80639, "pitch": 60, "duration": 463, "velocity": 116}, {"time": 80644, "pitch": 65, "duration": 458, "velocity": 119}, {"time": 80649, "pitch": 68, "duration": 453, "velocity": 122}, {"time": 80654, "pitch": 72, "duration": 448, "velocity": 124}, {"time": 80876, "pitch": 48, "duration": 226, "velocity": 96}, {"time": 81112, "pitch": 46, "duration": 704, "velocity": 110}, {"time": 81112, "pitch": 53, "duration": 944, "velocity": 112}, {"time": 81112, "pitch": 56, "duration": 227, "velocity": 114}, {"time": 81117, "pitch": 61, "duration": 459, "velocity": 116}, {"time": 81122, "pitch": 65, "duration": 454, "velocity": 117}, {"time": 81127, "pitch": 70, "duration": 449, "velocity": 119}, {"time": 81349, "pitch": 56, "duration": 227, "velocity": 96}, {"time": 81586, "pitch": 56, "duration": 470, "velocity": 116}, {"time": 81591, "pitch": 61, "duration": 465, "velocity": 119}, {"time": 81596, "pitch": 65, "duration": 460, "velocity": 122}, {"time": 81601, "pitch": 70, "duration": 455, "velocity": 124}, {"time": 81826, "pitch": 46, "duration": 230, "velocity": 97}, {"time": 82066, "pitch": 44, "duration": 469, "velocity": 110}, {"time": 82066, "pitch": 51, "duration": 469, "velocity": 111}, {"time": 82066, "pitch": 56, "duration": 229, "velocity": 114}, {"time": 82071, "pitch": 60, "duration": 464, "velocity": 117}, {"time": 82076, "pitch": 63, "duration": 459, "velocity": 118}, {"time": 82305, "pitch": 56, "duration": 230, "velocity": 98}, {"time": 82545, "pitch": 44, "duration": 232, "velocity": 97}, {"time": 82545, "pitch": 51, "duration": 475, "velocity": 117}, {"time": 82545, "pitch": 56, "duration": 475, "velocity": 119}, {"time": 82550, "pitch": 60, "duration": 470, "velocity": 121}, {"time": 82554, "pitch": 63, "duration": 466, "velocity": 124}, {"time": 82787, "pitch": 44, "duration": 233, "velocity": 96}, {"time": 83030, "pitch": 42, "duration": 722, "velocity": 110}, {"time": 83030, "pitch": 49, "duration": 962, "velocity": 112}, {"time": 83030, "pitch": 53, "duration": 237, "velocity": 114}, {"time": 83036, "pitch": 58, "duration": 476, "velocity": 116}, {"time": 83041, "pitch": 61, "duration": 471, "velocity": 117}, {"time": 83046, "pitch": 66, "duration": 466, "velocity": 119}, {"time": 83277, "pitch": 53, "duration": 235, "velocity": 96}, {"time": 83522, "pitch": 53, "duration": 470, "velocity": 116}, {"time": 83527, "pitch": 58, "duration": 465, "velocity": 119}, {"time": 83532, "pitch": 61, "duration": 460, "velocity": 122}, {"time": 83537, "pitch": 66, "duration": 455, "velocity": 124}, {"time": 83762, "pitch": 42, "duration": 230, "velocity": 97}, {"time": 84002, "pitch": 41, "duration": 709, "velocity": 110}, {"time": 84002, "pitch": 49, "duration": 949, "velocity": 110}, {"time": 84002, "pitch": 54, "duration": 230, "velocity": 112}, {"time": 84007, "pitch": 58, "duration": 464, "velocity": 114}, {"time": 84012, "pitch": 61, "duration": 459, "velocity": 116}, {"time": 84242, "pitch": 54, "duration": 229, "velocity": 98}, {"time": 84481, "pitch": 54, "duration": 470, "velocity": 116}, {"time": 84486, "pitch": 58, "duration": 465, "velocity": 119}, {"time": 84491, "pitch": 61, "duration": 460, "velocity": 122}, {"time": 84721, "pitch": 41, "duration": 230, "velocity": 96}, {"time": 84961, "pitch": 46, "duration": 712, "velocity": 110}, {"time": 84961, "pitch": 51, "duration": 955, "velocity": 112}, {"time": 84961, "pitch": 58, "duration": 230, "velocity": 114}, {"time": 84966, "pitch": 61, "duration": 464, "velocity": 116}, {"time": 84971, "pitch": 66, "duration": 459, "velocity": 117}, {"time": 85201, "pitch": 58, "duration": 229, "velocity": 96}, {"time": 85440, "pitch": 58, "duration": 476, "velocity": 116}, {"time": 85445, "pitch": 61, "duration": 471, "velocity": 119}, {"time": 85450, "pitch": 66, "duration": 466, "velocity": 122}, {"time": 85683, "pitch": 46, "duration": 233, "velocity": 97}, {"time": 85926, "pitch": 44, "duration": 712, "velocity": 110}, {"time": 85926, "pitch": 51, "duration": 949, "velocity": 110}, {"time": 85926, "pitch": 54, "duration": 233, "velocity": 112}, {"time": 85931, "pitch": 60, "duration": 470, "velocity": 114}, {"time": 85936, "pitch": 63, "duration": 465, "velocity": 116}, {"time": 86169, "pitch": 54, "duration": 232, "velocity": 98}, {"time": 86411, "pitch": 54, "duration": 464, "velocity": 116}, {"time": 86416, "pitch": 60, "duration": 459, "velocity": 119}, {"time": 86421, "pitch": 63, "duration": 454, "velocity": 122}, {"time": 86648, "pitch": 44, "duration": 227, "velocity": 96}, {"time": 86885, "pitch": 42, "duration": 703, "velocity": 110}, {"time": 86885, "pitch": 49, "duration": 943, "velocity": 112}, {"time": 86885, "pitch": 53, "duration": 227, "velocity": 114}, {"time": 86890, "pitch": 58, "duration": 458, "velocity": 116}, {"time": 86895, "pitch": 61, "duration": 453, "velocity": 117}, {"time": 86900, "pitch": 66, "duration": 448, "velocity": 119}, {"time": 87122, "pitch": 53, "duration": 226, "velocity": 96}, {"time": 87358, "pitch": 53, "duration": 470, "velocity": 116}, {"time": 87363, "pitch": 58, "duration": 465, "velocity": 119}, {"time": 87368, "pitch": 61, "duration": 460, "velocity": 122}, {"time": 87373, "pitch": 66, "duration": 455, "velocity": 124}, {"time": 87598, "pitch": 42, "duration": 230, "velocity": 97}, {"time": 87838, "pitch": 44, "duration": 709, "velocity": 110}, {"time": 87838, "pitch": 51, "duration": 949, "velocity": 110}, {"time": 87838, "pitch": 54, "duration": 230, "velocity": 112}, {"time": 87843, "pitch": 60, "duration": 465, "velocity": 114}, {"time": 87848, "pitch": 63, "duration": 460, "velocity": 116}, {"time": 87853, "pitch": 68, "duration": 455, "velocity": 120}, {"time": 88078, "pitch": 54, "duration": 230, "velocity": 98}, {"time": 88318, "pitch": 54, "duration": 469, "velocity": 116}, {"time": 88323, "pitch": 60, "duration": 464, "velocity": 119}, {"time": 88328, "pitch": 63, "duration": 459, "velocity": 122}, {"time": 88332, "pitch": 68, "duration": 455, "velocity": 124}, {"time": 88557, "pitch": 44, "duration": 230, "velocity": 96}, {"time": 88797, "pitch": 41, "duration": 716, "velocity": 110}, {"time": 88797, "pitch": 48, "duration": 955, "velocity": 112}, {"time": 88797, "pitch": 51, "duration": 233, "velocity": 114}, {"time": 88802, "pitch": 56, "duration": 471, "velocity": 116}, {"time": 88807, "pitch": 60, "duration": 466, "velocity": 117}, {"time": 88812, "pitch": 65, "duration": 461, "velocity": 119}, {"time": 89040, "pitch": 51, "duration": 233, "velocity": 96}, {"time": 89283, "pitch": 51, "duration": 469, "velocity": 116}, {"time": 89288, "pitch": 56, "duration": 464, "velocity": 119}, {"time": 89293, "pitch": 60, "duration": 459, "velocity": 122}, {"time": 89298, "pitch": 65, "duration": 454, "velocity": 124}, {"time": 89523, "pitch": 41, "duration": 229, "velocity": 97}, {"time": 89762, "pitch": 46, "duration": 470, "velocity": 110}, {"time": 89762, "pitch": 53, "duration": 470, "velocity": 111}, {"time": 89762, "pitch": 56, "duration": 230, "velocity": 114}, {"time": 89767, "pitch": 61, "duration": 465, "velocity": 117}, {"time": 89772, "pitch": 65, "duration": 460, "velocity": 118}, {"time": 90002, "pitch": 56, "duration": 230, "velocity": 98}, {"time": 90242, "pitch": 44, "duration": 230, "velocity": 97}, {"time": 90242, "pitch": 53, "duration": 469, "velocity": 117}, {"time": 90242, "pitch": 56, "duration": 469, "velocity": 119}, {"time": 90247, "pitch": 61, "duration": 464, "velocity": 121}, {"time": 90252, "pitch": 65, "duration": 459, "velocity": 124}, {"time": 90482, "pitch": 44, "duration": 229, "velocity": 96}, {"time": 90721, "pitch": 42, "duration": 710, "velocity": 103}, {"time": 90721, "pitch": 49, "duration": 949, "velocity": 105}, {"time": 90721, "pitch": 51, "duration": 230, "velocity": 107}, {"time": 90726, "pitch": 58, "duration": 465, "velocity": 109}, {"time": 90731, "pitch": 61, "duration": 460, "velocity": 110}, {"time": 90736, "pitch": 65, "duration": 455, "velocity": 112}, {"time": 90961, "pitch": 51, "duration": 230, "velocity": 97}, {"time": 91201, "pitch": 51, "duration": 469, "velocity": 109}, {"time": 91206, "pitch": 58, "duration": 464, "velocity": 112}, {"time": 91211, "pitch": 61, "duration": 459, "velocity": 115}, {"time": 91216, "pitch": 65, "duration": 454, "velocity": 117}, {"time": 91441, "pitch": 42, "duration": 229, "velocity": 98}, {"time": 91680, "pitch": 42, "duration": 710, "velocity": 103}, {"time": 91680, "pitch": 49, "duration": 949, "velocity": 103}, {"time": 91680, "pitch": 51, "duration": 230, "velocity": 105}, {"time": 91685, "pitch": 58, "duration": 465, "velocity": 107}, {"time": 91690, "pitch": 61, "duration": 460, "velocity": 109}, {"time": 91695, "pitch": 65, "duration": 455, "velocity": 113}, {"time": 91920, "pitch": 51, "duration": 230, "velocity": 99}, {"time": 92160, "pitch": 51, "duration": 469, "velocity": 109}, {"time": 92165, "pitch": 58, "duration": 464, "velocity": 112}, {"time": 92170, "pitch": 61, "duration": 459, "velocity": 115}, {"time": 92175, "pitch": 65, "duration": 454, "velocity": 117}, {"time": 92400, "pitch": 42, "duration": 229, "velocity": 97}, {"time": 92639, "pitch": 44, "duration": 710, "velocity": 103}, {"time": 92639, "pitch": 51, "duration": 710, "velocity": 105}, {"time": 92639, "pitch": 56, "duration": 230, "velocity": 107}, {"time": 92644, "pitch": 60, "duration": 465, "velocity": 109}, {"time": 92649, "pitch": 63, "duration": 460, "velocity": 110}, {"time": 92654, "pitch": 68, "duration": 455, "velocity": 112}, {"time": 92879, "pitch": 56, "duration": 230, "velocity": 97}, {"time": 93119, "pitch": 56, "duration": 230, "velocity": 109}, {"time": 93124, "pitch": 60, "duration": 225, "velocity": 112}, {"time": 93129, "pitch": 63, "duration": 220, "velocity": 115}, {"time": 93134, "pitch": 68, "duration": 215, "velocity": 117}, {"time": 93359, "pitch": 44, "duration": 140, "velocity": 84}, {"time": 93359, "pitch": 51, "duration": 145, "velocity": 85}, {"time": 93364, "pitch": 56, "duration": 135, "velocity": 87}, {"time": 93369, "pitch": 60, "duration": 130, "velocity": 88}, {"time": 93374, "pitch": 63, "duration": 125, "velocity": 89}, {"time": 93374, "pitch": 68, "duration": 125, "velocity": 89}, {"time": 93503, "pitch": 63, "duration": 79, "velocity": 89}, {"time": 93503, "pitch": 68, "duration": 79, "velocity": 89}, {"time": 93506, "pitch": 51, "duration": 89, "velocity": 85}, {"time": 93506, "pitch": 56, "duration": 89, "velocity": 87}, {"time": 93506, "pitch": 60, "duration": 84, "velocity": 88}, {"time": 93507, "pitch": 44, "duration": 89, "velocity": 84}, {"time": 93598, "pitch": 46, "duration": 710, "velocity": 103}, {"time": 93598, "pitch": 53, "duration": 950, "velocity": 103}, {"time": 93598, "pitch": 56, "duration": 230, "velocity": 105}, {"time": 93603, "pitch": 63, "duration": 465, "velocity": 107}, {"time": 93608, "pitch": 65, "duration": 460, "velocity": 109}, {"time": 93613, "pitch": 70, "duration": 455, "velocity": 113}, {"time": 93838, "pitch": 56, "duration": 230, "velocity": 99}, {"time": 94078, "pitch": 56, "duration": 470, "velocity": 109}, {"time": 94083, "pitch": 62, "duration": 465, "velocity": 112}, {"time": 94088, "pitch": 65, "duration": 460, "velocity": 115}, {"time": 94093, "pitch": 70, "duration": 455, "velocity": 117}, {"time": 94318, "pitch": 46, "duration": 230, "velocity": 97}, {"time": 94558, "pitch": 51, "duration": 469, "velocity": 107}, {"time": 94797, "pitch": 58, "duration": 230, "velocity": 107}, {"time": 94797, "pitch": 63, "duration": 230, "velocity": 110}, {"time": 94802, "pitch": 67, "duration": 225, "velocity": 112}, {"time": 94807, "pitch": 70, "duration": 220, "velocity": 114}, {"time": 95037, "pitch": 51, "duration": 111, "velocity": 94}, {"time": 95280, "pitch": 50, "duration": 473, "velocity": 112}, {"time": 95280, "pitch": 58, "duration": 473, "velocity": 114}, {"time": 95285, "pitch": 62, "duration": 468, "velocity": 117}, {"time": 95290, "pitch": 65, "duration": 463, "velocity": 120}, {"time": 95763, "pitch": 50, "duration": 229, "velocity": 92}, {"time": 96002, "pitch": 50, "duration": 440, "velocity": 110}, {"time": 96002, "pitch": 58, "duration": 440, "velocity": 112}, {"time": 96007, "pitch": 62, "duration": 440, "velocity": 114}, {"time": 96012, "pitch": 65, "duration": 440, "velocity": 117}, {"time": 96482, "pitch": 53, "duration": 469, "velocity": 107}, {"time": 96722, "pitch": 60, "duration": 229, "velocity": 110}, {"time": 96727, "pitch": 63, "duration": 224, "velocity": 112}, {"time": 96732, "pitch": 68, "duration": 219, "velocity": 114}, {"time": 96961, "pitch": 55, "duration": 110, "velocity": 94}, {"time": 97201, "pitch": 48, "duration": 470, "velocity": 112}, {"time": 97201, "pitch": 55, "duration": 470, "velocity": 114}, {"time": 97206, "pitch": 58, "duration": 465, "velocity": 117}, {"time": 97211, "pitch": 63, "duration": 460, "velocity": 120}, {"time": 97681, "pitch": 48, "duration": 229, "velocity": 92}, {"time": 97920, "pitch": 46, "duration": 440, "velocity": 110}, {"time": 97920, "pitch": 55, "duration": 440, "velocity": 112}, {"time": 97925, "pitch": 58, "duration": 440, "velocity": 114}, {"time": 97930, "pitch": 63, "duration": 440, "velocity": 117}, {"time": 98400, "pitch": 44, "duration": 469, "velocity": 107}, {"time": 98640, "pitch": 51, "duration": 229, "velocity": 107}, {"time": 98640, "pitch": 56, "duration": 229, "velocity": 110}, {"time": 98645, "pitch": 60, "duration": 224, "velocity": 112}, {"time": 98650, "pitch": 63, "duration": 219, "velocity": 114}, {"time": 98879, "pitch": 44, "duration": 110, "velocity": 94}, {"time": 99119, "pitch": 46, "duration": 470, "velocity": 112}, {"time": 99119, "pitch": 53, "duration": 470, "velocity": 114}, {"time": 99124, "pitch": 58, "duration": 465, "velocity": 117}, {"time": 99129, "pitch": 62, "duration": 460, "velocity": 120}, {"time": 99599, "pitch": 46, "duration": 229, "velocity": 92}, {"time": 99838, "pitch": 46, "duration": 440, "velocity": 110}, {"time": 99838, "pitch": 53, "duration": 440, "velocity": 112}, {"time": 99843, "pitch": 58, "duration": 440, "velocity": 114}, {"time": 99848, "pitch": 62, "duration": 440, "velocity": 117}, {"time": 100318, "pitch": 43, "duration": 709, "velocity": 110}, {"time": 100318, "pitch": 50, "duration": 949, "velocity": 112}, {"time": 100318, "pitch": 53, "duration": 230, "velocity": 114}, {"time": 100323, "pitch": 58, "duration": 465, "velocity": 116}, {"time": 100558, "pitch": 53, "duration": 230, "velocity": 96}, {"time": 100798, "pitch": 53, "duration": 469, "velocity": 116}, {"time": 100802, "pitch": 58, "duration": 465, "velocity": 119}, {"time": 101037, "pitch": 43, "duration": 230, "velocity": 97}, {"time": 101277, "pitch": 48, "duration": 716, "velocity": 110}, {"time": 101277, "pitch": 55, "duration": 955, "velocity": 110}, {"time": 101277, "pitch": 58, "duration": 233, "velocity": 112}, {"time": 101282, "pitch": 63, "duration": 471, "velocity": 114}, {"time": 101520, "pitch": 58, "duration": 233, "velocity": 98}, {"time": 101763, "pitch": 58, "duration": 469, "velocity": 116}, {"time": 101768, "pitch": 63, "duration": 464, "velocity": 119}, {"time": 102003, "pitch": 48, "duration": 229, "velocity": 96}, {"time": 102242, "pitch": 41, "duration": 710, "velocity": 110}, {"time": 102242, "pitch": 48, "duration": 949, "velocity": 112}, {"time": 102242, "pitch": 51, "duration": 230, "velocity": 114}, {"time": 102247, "pitch": 56, "duration": 465, "velocity": 116}, {"time": 102482, "pitch": 51, "duration": 230, "velocity": 96}, {"time": 102722, "pitch": 51, "duration": 469, "velocity": 116}, {"time": 102727, "pitch": 56, "duration": 464, "velocity": 119}, {"time": 102962, "pitch": 41, "duration": 229, "velocity": 97}, {"time": 103201, "pitch": 46, "duration": 710, "velocity": 110}, {"time": 103201, "pitch": 53, "duration": 949, "velocity": 110}, {"time": 103201, "pitch": 56, "duration": 230, "velocity": 112}, {"time": 103206, "pitch": 62, "duration": 465, "velocity": 114}, {"time": 103441, "pitch": 56, "duration": 230, "velocity": 98}, {"time": 103681, "pitch": 56, "duration": 469, "velocity": 116}, {"time": 103686, "pitch": 62, "duration": 464, "velocity": 119}, {"time": 103921, "pitch": 46, "duration": 229, "velocity": 96}, {"time": 104160, "pitch": 43, "duration": 710, "velocity": 110}, {"time": 104160, "pitch": 50, "duration": 949, "velocity": 112}, {"time": 104160, "pitch": 53, "duration": 230, "velocity": 114}, {"time": 104165, "pitch": 58, "duration": 465, "velocity": 116}, {"time": 104400, "pitch": 53, "duration": 230, "velocity": 96}, {"time": 104640, "pitch": 53, "duration": 469, "velocity": 116}, {"time": 104645, "pitch": 58, "duration": 464, "velocity": 119}, {"time": 104880, "pitch": 43, "duration": 229, "velocity": 97}, {"time": 105119, "pitch": 48, "duration": 470, "velocity": 110}, {"time": 105119, "pitch": 55, "duration": 470, "velocity": 111}, {"time": 105119, "pitch": 58, "duration": 230, "velocity": 114}, {"time": 105124, "pitch": 63, "duration": 465, "velocity": 117}, {"time": 105359, "pitch": 58, "duration": 230, "velocity": 98}, {"time": 105599, "pitch": 46, "duration": 230, "velocity": 97}, {"time": 105599, "pitch": 55, "duration": 469, "velocity": 117}, {"time": 105599, "pitch": 58, "duration": 469, "velocity": 119}, {"time": 105604, "pitch": 63, "duration": 464, "velocity": 121}, {"time": 105839, "pitch": 46, "duration": 229, "velocity": 96}, {"time": 106078, "pitch": 41, "duration": 470, "velocity": 107}, {"time": 106318, "pitch": 48, "duration": 230, "velocity": 107}, {"time": 106318, "pitch": 51, "duration": 230, "velocity": 110}, {"time": 106323, "pitch": 56, "duration": 225, "velocity": 112}, {"time": 106328, "pitch": 60, "duration": 220, "velocity": 114}, {"time": 106558, "pitch": 41, "duration": 110, "velocity": 94}, {"time": 106798, "pitch": 43, "duration": 469, "velocity": 112}, {"time": 106798, "pitch": 50, "duration": 469, "velocity": 114}, {"time": 106803, "pitch": 53, "duration": 464, "velocity": 117}, {"time": 106808, "pitch": 58, "duration": 459, "velocity": 120}, {"time": 107277, "pitch": 43, "duration": 230, "velocity": 92}, {"time": 107517, "pitch": 43, "duration": 445, "velocity": 110}, {"time": 107517, "pitch": 50, "duration": 445, "velocity": 112}, {"time": 107522, "pitch": 53, "duration": 445, "velocity": 114}, {"time": 107527, "pitch": 58, "duration": 445, "velocity": 117}, {"time": 108003, "pitch": 41, "duration": 709, "velocity": 110}, {"time": 108003, "pitch": 47, "duration": 949, "velocity": 112}, {"time": 108003, "pitch": 51, "duration": 230, "velocity": 114}, {"time": 108008, "pitch": 56, "duration": 464, "velocity": 116}, {"time": 108243, "pitch": 51, "duration": 229, "velocity": 96}, {"time": 108482, "pitch": 51, "duration": 470, "velocity": 116}, {"time": 108487, "pitch": 56, "duration": 465, "velocity": 119}, {"time": 108722, "pitch": 41, "duration": 230, "velocity": 97}, {"time": 108962, "pitch": 51, "duration": 469, "velocity": 110}, {"time": 108962, "pitch": 58, "duration": 469, "velocity": 111}, {"time": 108962, "pitch": 63, "duration": 230, "velocity": 114}, {"time": 108967, "pitch": 67, "duration": 464, "velocity": 117}, {"time": 109202, "pitch": 63, "duration": 229, "velocity": 98}, {"time": 109441, "pitch": 51, "duration": 230, "velocity": 97}, {"time": 109441, "pitch": 58, "duration": 470, "velocity": 117}, {"time": 109441, "pitch": 63, "duration": 470, "velocity": 119}, {"time": 109446, "pitch": 67, "duration": 465, "velocity": 121}, {"time": 109681, "pitch": 51, "duration": 230, "velocity": 96}, {"time": 109921, "pitch": 51, "duration": 235, "velocity": 107}, {"time": 109921, "pitch": 58, "duration": 230, "velocity": 107}, {"time": 109921, "pitch": 63, "duration": 230, "velocity": 110}, {"time": 109926, "pitch": 67, "duration": 225, "velocity": 112}, {"time": 109931, "pitch": 70, "duration": 220, "velocity": 114}, {"time": 110161, "pitch": 51, "duration": 234, "velocity": 107}, {"time": 110161, "pitch": 58, "duration": 229, "velocity": 107}, {"time": 110161, "pitch": 63, "duration": 229, "velocity": 110}, {"time": 110166, "pitch": 67, "duration": 224, "velocity": 112}, {"time": 110171, "pitch": 70, "duration": 219, "velocity": 114}, {"time": 110400, "pitch": 51, "duration": 110, "velocity": 94}, {"time": 110640, "pitch": 50, "duration": 470, "velocity": 112}, {"time": 110640, "pitch": 58, "duration": 470, "velocity": 114}, {"time": 110645, "pitch": 62, "duration": 465, "velocity": 117}, {"time": 110650, "pitch": 65, "duration": 460, "velocity": 120}, {"time": 111120, "pitch": 50, "duration": 229, "velocity": 92}, {"time": 111359, "pitch": 50, "duration": 440, "velocity": 110}, {"time": 111359, "pitch": 58, "duration": 440, "velocity": 112}, {"time": 111364, "pitch": 62, "duration": 440, "velocity": 114}, {"time": 111369, "pitch": 65, "duration": 440, "velocity": 117}, {"time": 111839, "pitch": 53, "duration": 235, "velocity": 107}, {"time": 111839, "pitch": 60, "duration": 230, "velocity": 110}, {"time": 111844, "pitch": 63, "duration": 225, "velocity": 112}, {"time": 111849, "pitch": 68, "duration": 220, "velocity": 114}, {"time": 112079, "pitch": 53, "duration": 234, "velocity": 107}, {"time": 112079, "pitch": 60, "duration": 229, "velocity": 110}, {"time": 112084, "pitch": 63, "duration": 224, "velocity": 112}, {"time": 112089, "pitch": 68, "duration": 219, "velocity": 114}, {"time": 112318, "pitch": 55, "duration": 110, "velocity": 94}, {"time": 112558, "pitch": 48, "duration": 470, "velocity": 112}, {"time": 112558, "pitch": 55, "duration": 470, "velocity": 114}, {"time": 112563, "pitch": 58, "duration": 465, "velocity": 117}, {"time": 112568, "pitch": 63, "duration": 460, "velocity": 120}, {"time": 113038, "pitch": 48, "duration": 229, "velocity": 92}, {"time": 113277, "pitch": 46, "duration": 440, "velocity": 110}, {"time": 113277, "pitch": 55, "duration": 440, "velocity": 112}, {"time": 113282, "pitch": 58, "duration": 440, "velocity": 114}, {"time": 113287, "pitch": 63, "duration": 440, "velocity": 117}, {"time": 113757, "pitch": 44, "duration": 238, "velocity": 107}, {"time": 113757, "pitch": 51, "duration": 233, "velocity": 107}, {"time": 113757, "pitch": 56, "duration": 233, "velocity": 110}, {"time": 113762, "pitch": 60, "duration": 228, "velocity": 112}, {"time": 113767, "pitch": 63, "duration": 223, "velocity": 114}, {"time": 114000, "pitch": 44, "duration": 238, "velocity": 107}, {"time": 114000, "pitch": 51, "duration": 233, "velocity": 107}, {"time": 114000, "pitch": 56, "duration": 233, "velocity": 110}, {"time": 114005, "pitch": 60, "duration": 228, "velocity": 112}, {"time": 114010, "pitch": 63, "duration": 223, "velocity": 114}, {"time": 114243, "pitch": 44, "duration": 110, "velocity": 94}, {"time": 114483, "pitch": 46, "duration": 469, "velocity": 112}, {"time": 114483, "pitch": 53, "duration": 469, "velocity": 114}, {"time": 114488, "pitch": 58, "duration": 464, "velocity": 117}, {"time": 114493, "pitch": 62, "duration": 459, "velocity": 120}, {"time": 114962, "pitch": 46, "duration": 230, "velocity": 92}, {"time": 115202, "pitch": 46, "duration": 439, "velocity": 110}, {"time": 115202, "pitch": 53, "duration": 439, "velocity": 112}, {"time": 115207, "pitch": 58, "duration": 439, "velocity": 114}, {"time": 115212, "pitch": 62, "duration": 439, "velocity": 117}, {"time": 115681, "pitch": 43, "duration": 710, "velocity": 110}, {"time": 115681, "pitch": 50, "duration": 949, "velocity": 112}, {"time": 115681, "pitch": 53, "duration": 230, "velocity": 114}, {"time": 115686, "pitch": 58, "duration": 465, "velocity": 116}, {"time": 115921, "pitch": 53, "duration": 230, "velocity": 96}, {"time": 116161, "pitch": 53, "duration": 469, "velocity": 116}, {"time": 116166, "pitch": 58, "duration": 464, "velocity": 119}, {"time": 116401, "pitch": 43, "duration": 229, "velocity": 97}, {"time": 116640, "pitch": 48, "duration": 710, "velocity": 110}, {"time": 116640, "pitch": 55, "duration": 949, "velocity": 110}, {"time": 116640, "pitch": 58, "duration": 230, "velocity": 112}, {"time": 116645, "pitch": 63, "duration": 465, "velocity": 114}, {"time": 116880, "pitch": 58, "duration": 230, "velocity": 98}, {"time": 117120, "pitch": 58, "duration": 469, "velocity": 116}, {"time": 117125, "pitch": 63, "duration": 464, "velocity": 119}, {"time": 117360, "pitch": 48, "duration": 229, "velocity": 96}, {"time": 117599, "pitch": 41, "duration": 710, "velocity": 110}, {"time": 117599, "pitch": 48, "duration": 949, "velocity": 112}, {"time": 117599, "pitch": 51, "duration": 230, "velocity": 114}, {"time": 117604, "pitch": 56, "duration": 465, "velocity": 116}, {"time": 117839, "pitch": 51, "duration": 230, "velocity": 96}, {"time": 118079, "pitch": 51, "duration": 469, "velocity": 116}, {"time": 118084, "pitch": 56, "duration": 464, "velocity": 119}, {"time": 118319, "pitch": 41, "duration": 229, "velocity": 97}, {"time": 118558, "pitch": 46, "duration": 710, "velocity": 110}, {"time": 118558, "pitch": 53, "duration": 949, "velocity": 110}, {"time": 118558, "pitch": 56, "duration": 230, "velocity": 112}, {"time": 118563, "pitch": 62, "duration": 465, "velocity": 114}, {"time": 118798, "pitch": 56, "duration": 230, "velocity": 98}, {"time": 119038, "pitch": 56, "duration": 469, "velocity": 116}, {"time": 119043, "pitch": 62, "duration": 464, "velocity": 119}, {"time": 119278, "pitch": 46, "duration": 229, "velocity": 96}, {"time": 119517, "pitch": 43, "duration": 713, "velocity": 110}, {"time": 119517, "pitch": 50, "duration": 956, "velocity": 112}, {"time": 119517, "pitch": 53, "duration": 230, "velocity": 114}, {"time": 119522, "pitch": 58, "duration": 465, "velocity": 116}, {"time": 119757, "pitch": 53, "duration": 230, "velocity": 96}, {"time": 119997, "pitch": 53, "duration": 476, "velocity": 116}, {"time": 120002, "pitch": 58, "duration": 471, "velocity": 119}, {"time": 120240, "pitch": 43, "duration": 233, "velocity": 97}, {"time": 120483, "pitch": 48, "duration": 469, "velocity": 110}, {"time": 120483, "pitch": 55, "duration": 469, "velocity": 111}, {"time": 120483, "pitch": 58, "duration": 230, "velocity": 114}, {"time": 120488, "pitch": 63, "duration": 464, "velocity": 117}, {"time": 120723, "pitch": 58, "duration": 229, "velocity": 98}, {"time": 120962, "pitch": 46, "duration": 230, "velocity": 97}, {"time": 120962, "pitch": 55, "duration": 470, "velocity": 117}, {"time": 120962, "pitch": 58, "duration": 470, "velocity": 119}, {"time": 120967, "pitch": 63, "duration": 465, "velocity": 121}, {"time": 121202, "pitch": 46, "duration": 230, "velocity": 96}, {"time": 121442, "pitch": 41, "duration": 469, "velocity": 107}, {"time": 121682, "pitch": 48, "duration": 229, "velocity": 107}, {"time": 121682, "pitch": 51, "duration": 229, "velocity": 110}, {"time": 121687, "pitch": 56, "duration": 224, "velocity": 112}, {"time": 121692, "pitch": 60, "duration": 219, "velocity": 114}, {"time": 121921, "pitch": 41, "duration": 110, "velocity": 94}, {"time": 122161, "pitch": 43, "duration": 470, "velocity": 112}, {"time": 122161, "pitch": 50, "duration": 470, "velocity": 114}, {"time": 122166, "pitch": 53, "duration": 465, "velocity": 117}, {"time": 122171, "pitch": 58, "duration": 460, "velocity": 120}, {"time": 122641, "pitch": 43, "duration": 229, "velocity": 92}, {"time": 122880, "pitch": 43, "duration": 440, "velocity": 110}, {"time": 122880, "pitch": 50, "duration": 440, "velocity": 112}, {"time": 122885, "pitch": 53, "duration": 440, "velocity": 114}, {"time": 122890, "pitch": 58, "duration": 440, "velocity": 117}, {"time": 123360, "pitch": 41, "duration": 709, "velocity": 110}, {"time": 123360, "pitch": 47, "duration": 949, "velocity": 112}, {"time": 123360, "pitch": 51, "duration": 230, "velocity": 114}, {"time": 123365, "pitch": 56, "duration": 464, "velocity": 116}, {"time": 123600, "pitch": 51, "duration": 229, "velocity": 96}, {"time": 123839, "pitch": 51, "duration": 470, "velocity": 116}, {"time": 123844, "pitch": 56, "duration": 465, "velocity": 119}, {"time": 124079, "pitch": 41, "duration": 230, "velocity": 97}, {"time": 124319, "pitch": 41, "duration": 469, "velocity": 110}, {"time": 124319, "pitch": 47, "duration": 469, "velocity": 111}, {"time": 124319, "pitch": 51, "duration": 230, "velocity": 114}, {"time": 124324, "pitch": 56, "duration": 464, "velocity": 117}, {"time": 124559, "pitch": 51, "duration": 229, "velocity": 98}, {"time": 124798, "pitch": 41, "duration": 230, "velocity": 97}, {"time": 124798, "pitch": 47, "duration": 470, "velocity": 117}, {"time": 124798, "pitch": 51, "duration": 470, "velocity": 119}, {"time": 124803, "pitch": 56, "duration": 465, "velocity": 121}, {"time": 125038, "pitch": 41, "duration": 230, "velocity": 96}, {"time": 125278, "pitch": 51, "duration": 709, "velocity": 110}, {"time": 125278, "pitch": 58, "duration": 949, "velocity": 112}, {"time": 125278, "pitch": 63, "duration": 230, "velocity": 114}, {"time": 125283, "pitch": 67, "duration": 464, "velocity": 116}, {"time": 125518, "pitch": 63, "duration": 229, "velocity": 96}, {"time": 125757, "pitch": 63, "duration": 470, "velocity": 116}, {"time": 125762, "pitch": 67, "duration": 465, "velocity": 119}, {"time": 125997, "pitch": 51, "duration": 230, "velocity": 97}, {"time": 126237, "pitch": 51, "duration": 476, "velocity": 110}, {"time": 126237, "pitch": 58, "duration": 476, "velocity": 111}, {"time": 126237, "pitch": 63, "duration": 233, "velocity": 114}, {"time": 126242, "pitch": 67, "duration": 471, "velocity": 117}, {"time": 126480, "pitch": 63, "duration": 233, "velocity": 98}, {"time": 126723, "pitch": 51, "duration": 230, "velocity": 97}, {"time": 126723, "pitch": 58, "duration": 469, "velocity": 117}, {"time": 126723, "pitch": 63, "duration": 469, "velocity": 119}, {"time": 126728, "pitch": 67, "duration": 464, "velocity": 121}, {"time": 126963, "pitch": 51, "duration": 229, "velocity": 96}, {"time": 127202, "pitch": 37, "duration": 235, "velocity": 103}, {"time": 127202, "pitch": 44, "duration": 240, "velocity": 105}, {"time": 127202, "pitch": 49, "duration": 245, "velocity": 107}, {"time": 127207, "pitch": 53, "duration": 465, "velocity": 109}, {"time": 127212, "pitch": 56, "duration": 460, "velocity": 110}, {"time": 127217, "pitch": 61, "duration": 455, "velocity": 112}, {"time": 127442, "pitch": 37, "duration": 230, "velocity": 84}, {"time": 127447, "pitch": 44, "duration": 230, "velocity": 92}, {"time": 127452, "pitch": 49, "duration": 220, "velocity": 96}, {"time": 127682, "pitch": 37, "duration": 235, "velocity": 103}, {"time": 127682, "pitch": 44, "duration": 240, "velocity": 105}, {"time": 127682, "pitch": 49, "duration": 245, "velocity": 107}, {"time": 127687, "pitch": 53, "duration": 464, "velocity": 109}, {"time": 127692, "pitch": 56, "duration": 459, "velocity": 110}, {"time": 127697, "pitch": 61, "duration": 454, "velocity": 112}, {"time": 127922, "pitch": 37, "duration": 229, "velocity": 84}, {"time": 127927, "pitch": 44, "duration": 229, "velocity": 92}, {"time": 127932, "pitch": 49, "duration": 219, "velocity": 96}, {"time": 128161, "pitch": 37, "duration": 235, "velocity": 103}, {"time": 128161, "pitch": 44, "duration": 240, "velocity": 105}, {"time": 128161, "pitch": 49, "duration": 245, "velocity": 107}, {"time": 128166, "pitch": 53, "duration": 465, "velocity": 109}, {"time": 128171, "pitch": 56, "duration": 460, "velocity": 110}, {"time": 128176, "pitch": 61, "duration": 455, "velocity": 112}, {"time": 128401, "pitch": 37, "duration": 230, "velocity": 84}, {"time": 128406, "pitch": 44, "duration": 230, "velocity": 92}, {"time": 128411, "pitch": 49, "duration": 220, "velocity": 96}, {"time": 128641, "pitch": 37, "duration": 235, "velocity": 103}, {"time": 128641, "pitch": 44, "duration": 240, "velocity": 105}, {"time": 128641, "pitch": 49, "duration": 245, "velocity": 107}, {"time": 128646, "pitch": 53, "duration": 235, "velocity": 109}, {"time": 128651, "pitch": 56, "duration": 230, "velocity": 110}, {"time": 128656, "pitch": 61, "duration": 225, "velocity": 112}, {"time": 128881, "pitch": 37, "duration": 134, "velocity": 82}, {"time": 128881, "pitch": 44, "duration": 139, "velocity": 84}, {"time": 128881, "pitch": 49, "duration": 5, "velocity": 85}, {"time": 128886, "pitch": 53, "duration": 134, "velocity": 87}, {"time": 128891, "pitch": 56, "duration": 129, "velocity": 88}, {"time": 128896, "pitch": 61, "duration": 124, "velocity": 89}, {"time": 129024, "pitch": 61, "duration": 80, "velocity": 89}, {"time": 129027, "pitch": 49, "duration": 90, "velocity": 85}, {"time": 129027, "pitch": 53, "duration": 90, "velocity": 87}, {"time": 129027, "pitch": 56, "duration": 85, "velocity": 88}, {"time": 129028, "pitch": 44, "duration": 90, "velocity": 84}, {"time": 129030, "pitch": 37, "duration": 90, "velocity": 82}, {"time": 129120, "pitch": 40, "duration": 710, "velocity": 105}, {"time": 129120, "pitch": 47, "duration": 949, "velocity": 107}, {"time": 129120, "pitch": 52, "duration": 230, "velocity": 109}, {"time": 129125, "pitch": 56, "duration": 465, "velocity": 111}, {"time": 129130, "pitch": 59, "duration": 460, "velocity": 112}, {"time": 129360, "pitch": 52, "duration": 230, "velocity": 99}, {"time": 129600, "pitch": 52, "duration": 469, "velocity": 111}, {"time": 129605, "pitch": 56, "duration": 464, "velocity": 114}, {"time": 129610, "pitch": 59, "duration": 459, "velocity": 117}, {"time": 129840, "pitch": 40, "duration": 229, "velocity": 100}, {"time": 130079, "pitch": 42, "duration": 710, "velocity": 103}, {"time": 130079, "pitch": 49, "duration": 710, "velocity": 103}, {"time": 130079, "pitch": 54, "duration": 230, "velocity": 105}, {"time": 130084, "pitch": 58, "duration": 465, "velocity": 107}, {"time": 130319, "pitch": 54, "duration": 230, "velocity": 99}, {"time": 130559, "pitch": 54, "duration": 230, "velocity": 109}, {"time": 130564, "pitch": 58, "duration": 225, "velocity": 112}, {"time": 130799, "pitch": 42, "duration": 145, "velocity": 85}, {"time": 130804, "pitch": 49, "duration": 135, "velocity": 87}, {"time": 130809, "pitch": 54, "duration": 130, "velocity": 88}, {"time": 130814, "pitch": 58, "duration": 125, "velocity": 89}, {"time": 130943, "pitch": 58, "duration": 79, "velocity": 89}, {"time": 130946, "pitch": 42, "duration": 89, "velocity": 85}, {"time": 130946, "pitch": 49, "duration": 89, "velocity": 87}, {"time": 130946, "pitch": 54, "duration": 84, "velocity": 88}, {"time": 131038, "pitch": 37, "duration": 235, "velocity": 103}, {"time": 131038, "pitch": 44, "duration": 240, "velocity": 105}, {"time": 131038, "pitch": 49, "duration": 245, "velocity": 107}, {"time": 131043, "pitch": 53, "duration": 465, "velocity": 109}, {"time": 131048, "pitch": 56, "duration": 460, "velocity": 110}, {"time": 131053, "pitch": 61, "duration": 455, "velocity": 112}, {"time": 131278, "pitch": 37, "duration": 230, "velocity": 84}, {"time": 131283, "pitch": 44, "duration": 230, "velocity": 92}, {"time": 131288, "pitch": 49, "duration": 220, "velocity": 96}, {"time": 131518, "pitch": 37, "duration": 235, "velocity": 103}, {"time": 131518, "pitch": 44, "duration": 240, "velocity": 105}, {"time": 131518, "pitch": 49, "duration": 245, "velocity": 107}, {"time": 131523, "pitch": 53, "duration": 464, "velocity": 109}, {"time": 131528, "pitch": 56, "duration": 459, "velocity": 110}, {"time": 131533, "pitch": 61, "duration": 454, "velocity": 112}, {"time": 131758, "pitch": 37, "duration": 229, "velocity": 84}, {"time": 131763, "pitch": 44, "duration": 229, "velocity": 92}, {"time": 131768, "pitch": 49, "duration": 219, "velocity": 96}, {"time": 131997, "pitch": 37, "duration": 235, "velocity": 103}, {"time": 131997, "pitch": 44, "duration": 240, "velocity": 105}, {"time": 131997, "pitch": 49, "duration": 245, "velocity": 107}, {"time": 132002, "pitch": 53, "duration": 465, "velocity": 109}, {"time": 132007, "pitch": 56, "duration": 460, "velocity": 110}, {"time": 132012, "pitch": 61, "duration": 455, "velocity": 112}, {"time": 132237, "pitch": 37, "duration": 230, "velocity": 84}, {"time": 132242, "pitch": 44, "duration": 230, "velocity": 92}, {"time": 132247, "pitch": 49, "duration": 220, "velocity": 96}, {"time": 132477, "pitch": 37, "duration": 238, "velocity": 103}, {"time": 132477, "pitch": 44, "duration": 243, "velocity": 105}, {"time": 132477, "pitch": 49, "duration": 248, "velocity": 107}, {"time": 132482, "pitch": 53, "duration": 238, "velocity": 109}, {"time": 132487, "pitch": 56, "duration": 233, "velocity": 110}, {"time": 132492, "pitch": 61, "duration": 228, "velocity": 112}, {"time": 132720, "pitch": 37, "duration": 137, "velocity": 82}, {"time": 132720, "pitch": 44, "duration": 142, "velocity": 84}, {"time": 132720, "pitch": 49, "duration": 5, "velocity": 85}, {"time": 132725, "pitch": 53, "duration": 137, "velocity": 87}, {"time": 132730, "pitch": 56, "duration": 132, "velocity": 88}, {"time": 132735, "pitch": 61, "duration": 127, "velocity": 89}, {"time": 132866, "pitch": 61, "duration": 81, "velocity": 89}, {"time": 132869, "pitch": 49, "duration": 91, "velocity": 85}, {"time": 132869, "pitch": 53, "duration": 91, "velocity": 87}, {"time": 132869, "pitch": 56, "duration": 86, "velocity": 88}, {"time": 132870, "pitch": 44, "duration": 91, "velocity": 84}, {"time": 132872, "pitch": 37, "duration": 91, "velocity": 82}, {"time": 132963, "pitch": 40, "duration": 709, "velocity": 105}, {"time": 132963, "pitch": 47, "duration": 949, "velocity": 107}, {"time": 132963, "pitch": 52, "duration": 230, "velocity": 109}, {"time": 132968, "pitch": 56, "duration": 464, "velocity": 111}, {"time": 132973, "pitch": 59, "duration": 459, "velocity": 112}, {"time": 133203, "pitch": 52, "duration": 229, "velocity": 99}, {"time": 133442, "pitch": 52, "duration": 470, "velocity": 111}, {"time": 133447, "pitch": 56, "duration": 465, "velocity": 114}, {"time": 133452, "pitch": 59, "duration": 460, "velocity": 117}, {"time": 133682, "pitch": 40, "duration": 230, "velocity": 100}, {"time": 133922, "pitch": 42, "duration": 709, "velocity": 103}, {"time": 133922, "pitch": 49, "duration": 949, "velocity": 103}, {"time": 133922, "pitch": 54, "duration": 230, "velocity": 105}, {"time": 133927, "pitch": 58, "duration": 464, "velocity": 107}, {"time": 134162, "pitch": 54, "duration": 229, "velocity": 99}, {"time": 134401, "pitch": 54, "duration": 470, "velocity": 109}, {"time": 134406, "pitch": 58, "duration": 465, "velocity": 112}, {"time": 134641, "pitch": 42, "duration": 230, "velocity": 97}, {"time": 134881, "pitch": 37, "duration": 2734, "velocity": 102}, {"time": 134881, "pitch": 44, "duration": 2734, "velocity": 97}, {"time": 134891, "pitch": 49, "duration": 2734, "velocity": 98}, {"time": 134901, "pitch": 53, "duration": 2734, "velocity": 100}, {"time": 134911, "pitch": 56, "duration": 2734, "velocity": 102}, {"time": 134921, "pitch": 61, "duration": 2733, "velocity": 104}, {"time": 7677, "pitch": 73, "duration": 162, "velocity": 119}, {"time": 7839, "pitch": 75, "duration": 81, "velocity": 121}, {"time": 7920, "pitch": 77, "duration": 162, "velocity": 125}, {"time": 8082, "pitch": 78, "duration": 81, "velocity": 123}, {"time": 8163, "pitch": 73, "duration": 1390, "velocity": 120}, {"time": 9601, "pitch": 73, "duration": 160, "velocity": 116}, {"time": 9761, "pitch": 75, "duration": 80, "velocity": 116}, {"time": 9841, "pitch": 77, "duration": 160, "velocity": 111}, {"time": 10001, "pitch": 78, "duration": 80, "velocity": 123}, {"time": 10081, "pitch": 80, "duration": 683, "velocity": 120}, {"time": 10800, "pitch": 78, "duration": 152, "velocity": 125}, {"time": 10960, "pitch": 77, "duration": 76, "velocity": 117}, {"time": 11040, "pitch": 78, "duration": 456, "velocity": 116}, {"time": 11520, "pitch": 78, "duration": 151, "velocity": 115}, {"time": 11679, "pitch": 77, "duration": 76, "velocity": 116}, {"time": 11759, "pitch": 75, "duration": 152, "velocity": 119}, {"time": 11919, "pitch": 77, "duration": 76, "velocity": 125}, {"time": 11999, "pitch": 73, "duration": 228, "velocity": 116}, {"time": 12239, "pitch": 73, "duration": 1163, "velocity": 118}, {"time": 13438, "pitch": 73, "duration": 151, "velocity": 117}, {"time": 13597, "pitch": 73, "duration": 76, "velocity": 117}, {"time": 13677, "pitch": 73, "duration": 152, "velocity": 117}, {"time": 13837, "pitch": 73, "duration": 76, "velocity": 121}, {"time": 13917, "pitch": 76, "duration": 231, "velocity": 125}, {"time": 14160, "pitch": 75, "duration": 154, "velocity": 118}, {"time": 14322, "pitch": 73, "duration": 77, "velocity": 125}, {"time": 14403, "pitch": 76, "duration": 228, "velocity": 117}, {"time": 14643, "pitch": 75, "duration": 151, "velocity": 109}, {"time": 14802, "pitch": 73, "duration": 76, "velocity": 121}, {"time": 14882, "pitch": 75, "duration": 468, "velocity": 121}, {"time": 15362, "pitch": 75, "duration": 152, "velocity": 117}, {"time": 15522, "pitch": 76, "duration": 228, "velocity": 118}, {"time": 15762, "pitch": 78, "duration": 75, "velocity": 117}, {"time": 15841, "pitch": 73, "duration": 1427, "velocity": 121}, {"time": 17280, "pitch": 73, "duration": 160, "velocity": 115}, {"time": 17440, "pitch": 75, "duration": 80, "velocity": 125}, {"time": 17520, "pitch": 77, "duration": 160, "velocity": 110}, {"time": 17680, "pitch": 78, "duration": 80, "velocity": 120}, {"time": 17760, "pitch": 80, "duration": 683, "velocity": 120}, {"time": 18479, "pitch": 78, "duration": 152, "velocity": 117}, {"time": 18639, "pitch": 77, "duration": 76, "velocity": 115}, {"time": 18719, "pitch": 78, "duration": 379, "velocity": 115}, {"time": 19118, "pitch": 70, "duration": 76, "velocity": 116}, {"time": 19198, "pitch": 78, "duration": 152, "velocity": 121}, {"time": 19358, "pitch": 77, "duration": 76, "velocity": 123}, {"time": 19438, "pitch": 75, "duration": 152, "velocity": 120}, {"time": 19598, "pitch": 77, "duration": 76, "velocity": 123}, {"time": 19678, "pitch": 73, "duration": 227, "velocity": 124}, {"time": 19917, "pitch": 73, "duration": 459, "velocity": 118}, {"time": 20400, "pitch": 73, "duration": 154, "velocity": 117}, {"time": 20562, "pitch": 73, "duration": 532, "velocity": 124}, {"time": 21122, "pitch": 73, "duration": 152, "velocity": 115}, {"time": 21282, "pitch": 73, "duration": 228, "velocity": 119}, {"time": 21522, "pitch": 73, "duration": 76, "velocity": 115}, {"time": 21602, "pitch": 76, "duration": 228, "velocity": 117}, {"time": 21842, "pitch": 75, "duration": 152, "velocity": 120}, {"time": 22001, "pitch": 73, "duration": 76, "velocity": 116}, {"time": 22081, "pitch": 76, "duration": 228, "velocity": 118}, {"time": 22321, "pitch": 75, "duration": 152, "velocity": 119}, {"time": 22481, "pitch": 73, "duration": 76, "velocity": 120}, {"time": 22561, "pitch": 75, "duration": 380, "velocity": 116}, {"time": 22961, "pitch": 75, "duration": 75, "velocity": 123}, {"time": 23040, "pitch": 75, "duration": 152, "velocity": 116}, {"time": 23200, "pitch": 76, "duration": 228, "velocity": 124}, {"time": 23440, "pitch": 78, "duration": 76, "velocity": 124}, {"time": 23520, "pitch": 73, "duration": 1265, "velocity": 124}, {"time": 24959, "pitch": 73, "duration": 151, "velocity": 123}, {"time": 25118, "pitch": 73, "duration": 228, "velocity": 118}, {"time": 25358, "pitch": 73, "duration": 76, "velocity": 116}, {"time": 25438, "pitch": 75, "duration": 683, "velocity": 118}, {"time": 26157, "pitch": 73, "duration": 152, "velocity": 124}, {"time": 26317, "pitch": 71, "duration": 76, "velocity": 119}, {"time": 26397, "pitch": 78, "duration": 690, "velocity": 123}, {"time": 27121, "pitch": 78, "duration": 151, "velocity": 100}, {"time": 27272, "pitch": 80, "duration": 87, "velocity": 110}, {"time": 27362, "pitch": 77, "duration": 380, "velocity": 125}, {"time": 27762, "pitch": 73, "duration": 759, "velocity": 124}, {"time": 28561, "pitch": 77, "duration": 228, "velocity": 121}, {"time": 28801, "pitch": 77, "duration": 190, "velocity": 123}, {"time": 28961, "pitch": 78, "duration": 190, "velocity": 123}, {"time": 29121, "pitch": 80, "duration": 151, "velocity": 121}, {"time": 29280, "pitch": 80, "duration": 684, "velocity": 124}, {"time": 30000, "pitch": 75, "duration": 152, "velocity": 124}, {"time": 30160, "pitch": 75, "duration": 987, "velocity": 116}, {"time": 31918, "pitch": 70, "duration": 152, "velocity": 116}, {"time": 32078, "pitch": 72, "duration": 76, "velocity": 120}, {"time": 32158, "pitch": 73, "duration": 227, "velocity": 121}, {"time": 32397, "pitch": 70, "duration": 228, "velocity": 120}, {"time": 32637, "pitch": 73, "duration": 231, "velocity": 121}, {"time": 32880, "pitch": 77, "duration": 231, "velocity": 118}, {"time": 33121, "pitch": 77, "duration": 390, "velocity": 122}, {"time": 33510, "pitch": 77, "duration": 1, "velocity": 127}, {"time": 33842, "pitch": 78, "duration": 152, "velocity": 117}, {"time": 34002, "pitch": 77, "duration": 304, "velocity": 125}, {"time": 34322, "pitch": 75, "duration": 683, "velocity": 120}, {"time": 35039, "pitch": 70, "duration": 240, "velocity": 104}, {"time": 35434, "pitch": 70, "duration": 322, "velocity": 104}, {"time": 35760, "pitch": 73, "duration": 228, "velocity": 121}, {"time": 36000, "pitch": 72, "duration": 456, "velocity": 117}, {"time": 36479, "pitch": 73, "duration": 228, "velocity": 118}, {"time": 36719, "pitch": 75, "duration": 228, "velocity": 115}, {"time": 36959, "pitch": 80, "duration": 911, "velocity": 120}, {"time": 37918, "pitch": 77, "duration": 949, "velocity": 125}, {"time": 42160, "pitch": 70, "duration": 76, "velocity": 117}, {"time": 42240, "pitch": 82, "duration": 152, "velocity": 115}, {"time": 42400, "pitch": 80, "duration": 76, "velocity": 121}, {"time": 42480, "pitch": 79, "duration": 152, "velocity": 115}, {"time": 42640, "pitch": 77, "duration": 75, "velocity": 118}, {"time": 42719, "pitch": 79, "duration": 690, "velocity": 122}, {"time": 43445, "pitch": 80, "duration": 152, "velocity": 116}, {"time": 43605, "pitch": 82, "duration": 303, "velocity": 120}, {"time": 43924, "pitch": 74, "duration": 228, "velocity": 119}, {"time": 44164, "pitch": 74, "duration": 228, "velocity": 124}, {"time": 44404, "pitch": 77, "duration": 228, "velocity": 120}, {"time": 44644, "pitch": 77, "duration": 455, "velocity": 119}, {"time": 45123, "pitch": 75, "duration": 152, "velocity": 119}, {"time": 45283, "pitch": 74, "duration": 228, "velocity": 120}, {"time": 45523, "pitch": 75, "duration": 987, "velocity": 121}, {"time": 46562, "pitch": 84, "duration": 150, "velocity": 124}, {"time": 46720, "pitch": 84, "duration": 75, "velocity": 120}, {"time": 46799, "pitch": 84, "duration": 149, "velocity": 120}, {"time": 46956, "pitch": 84, "duration": 75, "velocity": 116}, {"time": 47035, "pitch": 84, "duration": 152, "velocity": 113}, {"time": 47195, "pitch": 84, "duration": 228, "velocity": 116}, {"time": 47435, "pitch": 84, "duration": 76, "velocity": 120}, {"time": 47515, "pitch": 86, "duration": 228, "velocity": 117}, {"time": 47755, "pitch": 86, "duration": 271, "velocity": 110}, {"time": 47994, "pitch": 86, "duration": 32, "velocity": 119}, {"time": 48237, "pitch": 84, "duration": 154, "velocity": 119}, {"time": 48399, "pitch": 84, "duration": 77, "velocity": 116}, {"time": 48480, "pitch": 82, "duration": 396, "velocity": 110}, {"time": 48876, "pitch": 80, "duration": 360, "velocity": 104}, {"time": 49205, "pitch": 80, "duration": 31, "velocity": 104}, {"time": 49356, "pitch": 80, "duration": 89, "velocity": 104}, {"time": 49445, "pitch": 80, "duration": 240, "velocity": 104}, {"time": 49685, "pitch": 79, "duration": 240, "velocity": 97}, {"time": 49925, "pitch": 79, "duration": 149, "velocity": 120}, {"time": 50082, "pitch": 80, "duration": 182, "velocity": 121}, {"time": 50240, "pitch": 82, "duration": 150, "velocity": 119}, {"time": 50398, "pitch": 84, "duration": 683, "velocity": 122}, {"time": 51117, "pitch": 75, "duration": 228, "velocity": 120}, {"time": 51357, "pitch": 74, "duration": 228, "velocity": 124}, {"time": 51597, "pitch": 74, "duration": 228, "velocity": 115}, {"time": 51837, "pitch": 74, "duration": 231, "velocity": 109}, {"time": 52080, "pitch": 84, "duration": 230, "velocity": 120}, {"time": 52322, "pitch": 84, "duration": 380, "velocity": 125}, {"time": 52722, "pitch": 82, "duration": 304, "velocity": 125}, {"time": 53042, "pitch": 80, "duration": 227, "velocity": 120}, {"time": 53281, "pitch": 80, "duration": 228, "velocity": 117}, {"time": 53521, "pitch": 79, "duration": 152, "velocity": 120}, {"time": 53681, "pitch": 79, "duration": 301, "velocity": 121}, {"time": 53998, "pitch": 72, "duration": 150, "velocity": 120}, {"time": 54156, "pitch": 74, "duration": 74, "velocity": 116}, {"time": 54234, "pitch": 75, "duration": 228, "velocity": 120}, {"time": 54474, "pitch": 75, "duration": 228, "velocity": 120}, {"time": 54714, "pitch": 75, "duration": 154, "velocity": 120}, {"time": 54876, "pitch": 75, "duration": 231, "velocity": 123}, {"time": 55119, "pitch": 79, "duration": 76, "velocity": 124}, {"time": 55199, "pitch": 77, "duration": 456, "velocity": 120}, {"time": 55679, "pitch": 74, "duration": 152, "velocity": 124}, {"time": 55839, "pitch": 74, "duration": 76, "velocity": 117}, {"time": 55919, "pitch": 75, "duration": 152, "velocity": 121}, {"time": 56079, "pitch": 77, "duration": 76, "velocity": 117}, {"time": 56159, "pitch": 77, "duration": 676, "velocity": 124}, {"time": 56871, "pitch": 75, "duration": 1244, "velocity": 120}, {"time": 59515, "pitch": 73, "duration": 158, "velocity": 119}, {"time": 59673, "pitch": 75, "duration": 79, "velocity": 121}, {"time": 59752, "pitch": 77, "duration": 158, "velocity": 125}, {"time": 59910, "pitch": 78, "duration": 79, "velocity": 123}, {"time": 59989, "pitch": 73, "duration": 1391, "velocity": 120}, {"time": 61427, "pitch": 73, "duration": 160, "velocity": 116}, {"time": 61587, "pitch": 75, "duration": 80, "velocity": 116}, {"time": 61667, "pitch": 77, "duration": 160, "velocity": 111}, {"time": 61827, "pitch": 78, "duration": 80, "velocity": 123}, {"time": 61907, "pitch": 80, "duration": 682, "velocity": 120}, {"time": 62625, "pitch": 78, "duration": 152, "velocity": 125}, {"time": 62785, "pitch": 77, "duration": 76, "velocity": 117}, {"time": 62865, "pitch": 78, "duration": 457, "velocity": 116}, {"time": 63346, "pitch": 78, "duration": 151, "velocity": 115}, {"time": 63505, "pitch": 77, "duration": 76, "velocity": 116}, {"time": 63585, "pitch": 75, "duration": 152, "velocity": 119}, {"time": 63745, "pitch": 77, "duration": 76, "velocity": 125}, {"time": 63825, "pitch": 73, "duration": 233, "velocity": 116}, {"time": 64071, "pitch": 73, "duration": 1169, "velocity": 118}, {"time": 65276, "pitch": 73, "duration": 150, "velocity": 117}, {"time": 65434, "pitch": 73, "duration": 75, "velocity": 117}, {"time": 65513, "pitch": 73, "duration": 149, "velocity": 117}, {"time": 65670, "pitch": 73, "duration": 75, "velocity": 121}, {"time": 65749, "pitch": 76, "duration": 233, "velocity": 125}, {"time": 65995, "pitch": 75, "duration": 156, "velocity": 118}, {"time": 66159, "pitch": 73, "duration": 78, "velocity": 125}, {"time": 66241, "pitch": 76, "duration": 228, "velocity": 117}, {"time": 66481, "pitch": 75, "duration": 151, "velocity": 109}, {"time": 66640, "pitch": 73, "duration": 76, "velocity": 121}, {"time": 66720, "pitch": 75, "duration": 468, "velocity": 121}, {"time": 67200, "pitch": 75, "duration": 150, "velocity": 117}, {"time": 67358, "pitch": 76, "duration": 225, "velocity": 118}, {"time": 67595, "pitch": 78, "duration": 74, "velocity": 117}, {"time": 67673, "pitch": 73, "duration": 1439, "velocity": 121}, {"time": 69124, "pitch": 73, "duration": 160, "velocity": 115}, {"time": 69284, "pitch": 75, "duration": 80, "velocity": 125}, {"time": 69364, "pitch": 77, "duration": 160, "velocity": 110}, {"time": 69524, "pitch": 78, "duration": 80, "velocity": 120}, {"time": 69604, "pitch": 80, "duration": 673, "velocity": 120}, {"time": 70314, "pitch": 78, "duration": 154, "velocity": 117}, {"time": 70476, "pitch": 77, "duration": 77, "velocity": 115}, {"time": 70557, "pitch": 78, "duration": 374, "velocity": 115}, {"time": 70951, "pitch": 70, "duration": 75, "velocity": 116}, {"time": 71030, "pitch": 78, "duration": 154, "velocity": 121}, {"time": 71192, "pitch": 77, "duration": 77, "velocity": 123}, {"time": 71273, "pitch": 75, "duration": 154, "velocity": 120}, {"time": 71435, "pitch": 77, "duration": 77, "velocity": 123}, {"time": 71516, "pitch": 73, "duration": 228, "velocity": 124}, {"time": 71756, "pitch": 73, "duration": 455, "velocity": 118}, {"time": 72235, "pitch": 73, "duration": 152, "velocity": 117}, {"time": 72395, "pitch": 73, "duration": 531, "velocity": 124}, {"time": 72954, "pitch": 73, "duration": 152, "velocity": 115}, {"time": 73114, "pitch": 73, "duration": 228, "velocity": 119}, {"time": 73354, "pitch": 73, "duration": 76, "velocity": 115}, {"time": 73434, "pitch": 76, "duration": 231, "velocity": 117}, {"time": 73677, "pitch": 75, "duration": 154, "velocity": 120}, {"time": 73839, "pitch": 73, "duration": 76, "velocity": 116}, {"time": 73919, "pitch": 76, "duration": 228, "velocity": 118}, {"time": 74159, "pitch": 75, "duration": 152, "velocity": 119}, {"time": 74319, "pitch": 73, "duration": 76, "velocity": 120}, {"time": 74399, "pitch": 75, "duration": 380, "velocity": 116}, {"time": 74799, "pitch": 75, "duration": 75, "velocity": 123}, {"time": 74878, "pitch": 75, "duration": 154, "velocity": 116}, {"time": 75040, "pitch": 76, "duration": 231, "velocity": 124}, {"time": 75283, "pitch": 78, "duration": 77, "velocity": 124}, {"time": 75364, "pitch": 73, "duration": 1259, "velocity": 124}, {"time": 76797, "pitch": 73, "duration": 152, "velocity": 123}, {"time": 76957, "pitch": 73, "duration": 227, "velocity": 118}, {"time": 77196, "pitch": 73, "duration": 76, "velocity": 116}, {"time": 77276, "pitch": 75, "duration": 684, "velocity": 118}, {"time": 77996, "pitch": 73, "duration": 151, "velocity": 124}, {"time": 78155, "pitch": 71, "duration": 76, "velocity": 119}, {"time": 78235, "pitch": 78, "duration": 687, "velocity": 123}, {"time": 78956, "pitch": 78, "duration": 153, "velocity": 100}, {"time": 79109, "pitch": 80, "duration": 88, "velocity": 110}, {"time": 79200, "pitch": 77, "duration": 380, "velocity": 125}, {"time": 79600, "pitch": 73, "duration": 759, "velocity": 124}, {"time": 80399, "pitch": 77, "duration": 228, "velocity": 121}, {"time": 80639, "pitch": 77, "duration": 187, "velocity": 123}, {"time": 80797, "pitch": 78, "duration": 187, "velocity": 123}, {"time": 80955, "pitch": 80, "duration": 149, "velocity": 121}, {"time": 81112, "pitch": 80, "duration": 678, "velocity": 124}, {"time": 81826, "pitch": 75, "duration": 152, "velocity": 124}, {"time": 81986, "pitch": 75, "duration": 991, "velocity": 116}, {"time": 83762, "pitch": 70, "duration": 152, "velocity": 116}, {"time": 83922, "pitch": 72, "duration": 76, "velocity": 120}, {"time": 84002, "pitch": 73, "duration": 228, "velocity": 121}, {"time": 84242, "pitch": 70, "duration": 227, "velocity": 120}, {"time": 84481, "pitch": 73, "duration": 228, "velocity": 121}, {"time": 84721, "pitch": 77, "duration": 228, "velocity": 118}, {"time": 84959, "pitch": 77, "duration": 390, "velocity": 122}, {"time": 85348, "pitch": 77, "duration": 1, "velocity": 127}, {"time": 85683, "pitch": 78, "duration": 154, "velocity": 117}, {"time": 85845, "pitch": 77, "duration": 308, "velocity": 125}, {"time": 86169, "pitch": 75, "duration": 681, "velocity": 120}, {"time": 86883, "pitch": 70, "duration": 237, "velocity": 104}, {"time": 87273, "pitch": 70, "duration": 321, "velocity": 104}, {"time": 87598, "pitch": 73, "duration": 228, "velocity": 121}, {"time": 87838, "pitch": 72, "duration": 456, "velocity": 117}, {"time": 88318, "pitch": 73, "duration": 227, "velocity": 118}, {"time": 88557, "pitch": 75, "duration": 228, "velocity": 115}, {"time": 88797, "pitch": 80, "duration": 917, "velocity": 120}, {"time": 89762, "pitch": 77, "duration": 949, "velocity": 125}, {"time": 93998, "pitch": 70, "duration": 76, "velocity": 117}, {"time": 94078, "pitch": 82, "duration": 152, "velocity": 115}, {"time": 94238, "pitch": 80, "duration": 76, "velocity": 121}, {"time": 94318, "pitch": 79, "duration": 152, "velocity": 115}, {"time": 94478, "pitch": 77, "duration": 76, "velocity": 118}, {"time": 94558, "pitch": 79, "duration": 685, "velocity": 122}, {"time": 95280, "pitch": 80, "duration": 154, "velocity": 116}, {"time": 95442, "pitch": 82, "duration": 305, "velocity": 120}, {"time": 95763, "pitch": 74, "duration": 227, "velocity": 119}, {"time": 96002, "pitch": 74, "duration": 228, "velocity": 124}, {"time": 96242, "pitch": 77, "duration": 228, "velocity": 120}, {"time": 96482, "pitch": 77, "duration": 455, "velocity": 119}, {"time": 96961, "pitch": 75, "duration": 152, "velocity": 119}, {"time": 97121, "pitch": 74, "duration": 228, "velocity": 120}, {"time": 97361, "pitch": 75, "duration": 987, "velocity": 121}, {"time": 98400, "pitch": 84, "duration": 152, "velocity": 124}, {"time": 98560, "pitch": 84, "duration": 76, "velocity": 120}, {"time": 98640, "pitch": 84, "duration": 152, "velocity": 120}, {"time": 98800, "pitch": 84, "duration": 75, "velocity": 116}, {"time": 98879, "pitch": 84, "duration": 152, "velocity": 113}, {"time": 99039, "pitch": 84, "duration": 228, "velocity": 116}, {"time": 99279, "pitch": 84, "duration": 76, "velocity": 120}, {"time": 99359, "pitch": 86, "duration": 228, "velocity": 117}, {"time": 99599, "pitch": 86, "duration": 271, "velocity": 110}, {"time": 99838, "pitch": 86, "duration": 32, "velocity": 119}, {"time": 100078, "pitch": 84, "duration": 152, "velocity": 119}, {"time": 100238, "pitch": 84, "duration": 76, "velocity": 116}, {"time": 100318, "pitch": 82, "duration": 391, "velocity": 110}, {"time": 100709, "pitch": 80, "duration": 359, "velocity": 104}, {"time": 101037, "pitch": 80, "duration": 31, "velocity": 104}, {"time": 101188, "pitch": 80, "duration": 89, "velocity": 104}, {"time": 101277, "pitch": 80, "duration": 243, "velocity": 104}, {"time": 101520, "pitch": 79, "duration": 243, "velocity": 97}, {"time": 101763, "pitch": 79, "duration": 152, "velocity": 120}, {"time": 101923, "pitch": 80, "duration": 183, "velocity": 121}, {"time": 102082, "pitch": 82, "duration": 152, "velocity": 119}, {"time": 102242, "pitch": 84, "duration": 684, "velocity": 122}, {"time": 102962, "pitch": 75, "duration": 227, "velocity": 120}, {"time": 103201, "pitch": 74, "duration": 228, "velocity": 124}, {"time": 103441, "pitch": 74, "duration": 228, "velocity": 115}, {"time": 103681, "pitch": 74, "duration": 228, "velocity": 109}, {"time": 103921, "pitch": 84, "duration": 227, "velocity": 120}, {"time": 104160, "pitch": 84, "duration": 380, "velocity": 125}, {"time": 104560, "pitch": 82, "duration": 304, "velocity": 125}, {"time": 104880, "pitch": 80, "duration": 227, "velocity": 120}, {"time": 105119, "pitch": 80, "duration": 228, "velocity": 117}, {"time": 105359, "pitch": 79, "duration": 152, "velocity": 120}, {"time": 105519, "pitch": 79, "duration": 304, "velocity": 121}, {"time": 105839, "pitch": 72, "duration": 152, "velocity": 120}, {"time": 105999, "pitch": 74, "duration": 75, "velocity": 116}, {"time": 106078, "pitch": 75, "duration": 228, "velocity": 120}, {"time": 106318, "pitch": 75, "duration": 228, "velocity": 120}, {"time": 106558, "pitch": 75, "duration": 152, "velocity": 120}, {"time": 106718, "pitch": 75, "duration": 228, "velocity": 123}, {"time": 106958, "pitch": 79, "duration": 75, "velocity": 124}, {"time": 107037, "pitch": 77, "duration": 456, "velocity": 120}, {"time": 107517, "pitch": 74, "duration": 154, "velocity": 124}, {"time": 107679, "pitch": 74, "duration": 77, "velocity": 117}, {"time": 107760, "pitch": 75, "duration": 154, "velocity": 121}, {"time": 107922, "pitch": 77, "duration": 77, "velocity": 117}, {"time": 108003, "pitch": 77, "duration": 683, "velocity": 124}, {"time": 108722, "pitch": 75, "duration": 631, "velocity": 120}, {"time": 109361, "pitch": 70, "duration": 76, "velocity": 117}, {"time": 109441, "pitch": 82, "duration": 152, "velocity": 115}, {"time": 109601, "pitch": 80, "duration": 76, "velocity": 121}, {"time": 109681, "pitch": 79, "duration": 152, "velocity": 115}, {"time": 109841, "pitch": 77, "duration": 76, "velocity": 118}, {"time": 109921, "pitch": 79, "duration": 683, "velocity": 122}, {"time": 110640, "pitch": 80, "duration": 152, "velocity": 116}, {"time": 110800, "pitch": 82, "duration": 304, "velocity": 120}, {"time": 111120, "pitch": 74, "duration": 227, "velocity": 119}, {"time": 111359, "pitch": 74, "duration": 228, "velocity": 124}, {"time": 111599, "pitch": 77, "duration": 228, "velocity": 120}, {"time": 111839, "pitch": 77, "duration": 455, "velocity": 119}, {"time": 112318, "pitch": 75, "duration": 152, "velocity": 119}, {"time": 112478, "pitch": 74, "duration": 228, "velocity": 120}, {"time": 112718, "pitch": 75, "duration": 987, "velocity": 121}, {"time": 113757, "pitch": 84, "duration": 154, "velocity": 124}, {"time": 113919, "pitch": 84, "duration": 77, "velocity": 120}, {"time": 114000, "pitch": 84, "duration": 154, "velocity": 120}, {"time": 114162, "pitch": 84, "duration": 77, "velocity": 116}, {"time": 114243, "pitch": 84, "duration": 152, "velocity": 113}, {"time": 114403, "pitch": 84, "duration": 227, "velocity": 116}, {"time": 114642, "pitch": 84, "duration": 76, "velocity": 120}, {"time": 114722, "pitch": 86, "duration": 228, "velocity": 117}, {"time": 114962, "pitch": 86, "duration": 272, "velocity": 110}, {"time": 115202, "pitch": 86, "duration": 32, "velocity": 119}, {"time": 115442, "pitch": 84, "duration": 151, "velocity": 119}, {"time": 115601, "pitch": 84, "duration": 76, "velocity": 116}, {"time": 115681, "pitch": 82, "duration": 391, "velocity": 110}, {"time": 116072, "pitch": 80, "duration": 360, "velocity": 104}, {"time": 116401, "pitch": 80, "duration": 31, "velocity": 104}, {"time": 116551, "pitch": 80, "duration": 89, "velocity": 104}, {"time": 116640, "pitch": 80, "duration": 240, "velocity": 104}, {"time": 116880, "pitch": 79, "duration": 240, "velocity": 97}, {"time": 117120, "pitch": 79, "duration": 152, "velocity": 120}, {"time": 117280, "pitch": 80, "duration": 184, "velocity": 121}, {"time": 117440, "pitch": 82, "duration": 151, "velocity": 119}, {"time": 117599, "pitch": 84, "duration": 684, "velocity": 122}, {"time": 118319, "pitch": 75, "duration": 227, "velocity": 120}, {"time": 118558, "pitch": 74, "duration": 228, "velocity": 124}, {"time": 118798, "pitch": 74, "duration": 228, "velocity": 115}, {"time": 119038, "pitch": 74, "duration": 228, "velocity": 109}, {"time": 119278, "pitch": 84, "duration": 227, "velocity": 120}, {"time": 119517, "pitch": 84, "duration": 380, "velocity": 125}, {"time": 119917, "pitch": 82, "duration": 307, "velocity": 125}, {"time": 120240, "pitch": 80, "duration": 231, "velocity": 120}, {"time": 120483, "pitch": 80, "duration": 228, "velocity": 117}, {"time": 120723, "pitch": 79, "duration": 151, "velocity": 120}, {"time": 120882, "pitch": 79, "duration": 304, "velocity": 121}, {"time": 121202, "pitch": 72, "duration": 152, "velocity": 120}, {"time": 121362, "pitch": 74, "duration": 76, "velocity": 116}, {"time": 121442, "pitch": 75, "duration": 228, "velocity": 120}, {"time": 121682, "pitch": 75, "duration": 227, "velocity": 120}, {"time": 121921, "pitch": 75, "duration": 152, "velocity": 120}, {"time": 122081, "pitch": 75, "duration": 228, "velocity": 123}, {"time": 122321, "pitch": 79, "duration": 76, "velocity": 124}, {"time": 122401, "pitch": 77, "duration": 455, "velocity": 120}, {"time": 122880, "pitch": 74, "duration": 152, "velocity": 124}, {"time": 123040, "pitch": 74, "duration": 76, "velocity": 117}, {"time": 123120, "pitch": 75, "duration": 152, "velocity": 121}, {"time": 123280, "pitch": 77, "duration": 76, "velocity": 117}, {"time": 123360, "pitch": 77, "duration": 1594, "velocity": 124}, {"time": 125038, "pitch": 75, "duration": 2152, "velocity": 116}, {"time": 3841, "pitch": 73, "duration": 469, "velocity": 104}, {"time": 4320, "pitch": 77, "duration": 1189, "velocity": 109}, {"time": 5519, "pitch": 78, "duration": 140, "velocity": 110}, {"time": 5759, "pitch": 80, "duration": 140, "velocity": 112}, {"time": 5999, "pitch": 80, "duration": 1189, "velocity": 109}, {"time": 7198, "pitch": 82, "duration": 955, "velocity": 109}, {"time": 23520, "pitch": 69, "duration": 1918, "velocity": 109}, {"time": 25438, "pitch": 66, "duration": 1192, "velocity": 106}, {"time": 26640, "pitch": 63, "duration": 233, "velocity": 102}, {"time": 26883, "pitch": 64, "duration": 230, "velocity": 104}, {"time": 27123, "pitch": 66, "duration": 229, "velocity": 106}, {"time": 27362, "pitch": 68, "duration": 1429, "velocity": 109}, {"time": 28801, "pitch": 72, "duration": 469, "velocity": 104}, {"time": 29280, "pitch": 73, "duration": 1439, "velocity": 117}, {"time": 30719, "pitch": 72, "duration": 230, "velocity": 110}, {"time": 30959, "pitch": 73, "duration": 110, "velocity": 112}, {"time": 31079, "pitch": 75, "duration": 110, "velocity": 106}, {"time": 31199, "pitch": 73, "duration": 949, "velocity": 109}, {"time": 32158, "pitch": 77, "duration": 469, "velocity": 106}, {"time": 32637, "pitch": 70, "duration": 476, "velocity": 108}, {"time": 33123, "pitch": 73, "duration": 959, "velocity": 104}, {"time": 34082, "pitch": 75, "duration": 719, "velocity": 104}, {"time": 34801, "pitch": 77, "duration": 110, "velocity": 110}, {"time": 34921, "pitch": 78, "duration": 110, "velocity": 106}, {"time": 35041, "pitch": 77, "duration": 709, "velocity": 109}, {"time": 35760, "pitch": 72, "duration": 110, "velocity": 110}, {"time": 35880, "pitch": 73, "duration": 110, "velocity": 106}, {"time": 36000, "pitch": 75, "duration": 479, "velocity": 110}, {"time": 36479, "pitch": 72, "duration": 480, "velocity": 104}, {"time": 36959, "pitch": 80, "duration": 1918, "velocity": 127}, {"time": 42240, "pitch": 63, "duration": 469, "velocity": 104}, {"time": 42719, "pitch": 67, "duration": 223, "velocity": 114}, {"time": 42962, "pitch": 68, "duration": 223, "velocity": 109}, {"time": 43205, "pitch": 70, "duration": 140, "velocity": 113}, {"time": 43445, "pitch": 65, "duration": 469, "velocity": 116}, {"time": 43924, "pitch": 62, "duration": 230, "velocity": 114}, {"time": 44164, "pitch": 58, "duration": 470, "velocity": 119}, {"time": 44644, "pitch": 62, "duration": 219, "velocity": 114}, {"time": 44883, "pitch": 63, "duration": 220, "velocity": 109}, {"time": 45123, "pitch": 65, "duration": 140, "velocity": 104}, {"time": 45363, "pitch": 63, "duration": 470, "velocity": 113}, {"time": 45843, "pitch": 67, "duration": 229, "velocity": 110}, {"time": 46082, "pitch": 58, "duration": 470, "velocity": 109}, {"time": 46562, "pitch": 56, "duration": 542, "velocity": 91}, {"time": 46562, "pitch": 60, "duration": 538, "velocity": 104}, {"time": 47275, "pitch": 58, "duration": 1228, "velocity": 88}, {"time": 47275, "pitch": 62, "duration": 1211, "velocity": 95}, {"time": 48480, "pitch": 62, "duration": 6, "velocity": 114}, {"time": 48723, "pitch": 62, "duration": 20, "velocity": 114}, {"time": 48965, "pitch": 62, "duration": 470, "velocity": 114}, {"time": 48965, "pitch": 65, "duration": 470, "velocity": 106}, {"time": 49445, "pitch": 60, "duration": 943, "velocity": 114}, {"time": 49445, "pitch": 67, "duration": 943, "velocity": 106}, {"time": 50398, "pitch": 60, "duration": 20, "velocity": 114}, {"time": 50638, "pitch": 60, "duration": 20, "velocity": 114}, {"time": 50878, "pitch": 60, "duration": 469, "velocity": 114}, {"time": 50878, "pitch": 68, "duration": 469, "velocity": 106}, {"time": 51357, "pitch": 62, "duration": 955, "velocity": 114}, {"time": 51357, "pitch": 68, "duration": 955, "velocity": 106}, {"time": 52322, "pitch": 62, "duration": 710, "velocity": 114}, {"time": 52322, "pitch": 67, "duration": 710, "velocity": 106}, {"time": 53042, "pitch": 62, "duration": 20, "velocity": 114}, {"time": 53281, "pitch": 63, "duration": 20, "velocity": 114}, {"time": 53521, "pitch": 63, "duration": 20, "velocity": 114}, {"time": 53761, "pitch": 63, "duration": 463, "velocity": 114}, {"time": 53761, "pitch": 67, "duration": 463, "velocity": 106}, {"time": 54234, "pitch": 60, "duration": 511, "velocity": 101}, {"time": 54234, "pitch": 63, "duration": 504, "velocity": 108}, {"time": 54957, "pitch": 62, "duration": 1167, "velocity": 73}, {"time": 54957, "pitch": 65, "duration": 1140, "velocity": 113}, {"time": 56159, "pitch": 63, "duration": 19, "velocity": 114}, {"time": 56395, "pitch": 63, "duration": 20, "velocity": 114}, {"time": 56631, "pitch": 63, "duration": 471, "velocity": 114}, {"time": 56631, "pitch": 68, "duration": 471, "velocity": 106}, {"time": 57112, "pitch": 63, "duration": 961, "velocity": 114}, {"time": 57112, "pitch": 67, "duration": 961, "velocity": 106}, {"time": 58084, "pitch": 68, "duration": 472, "velocity": 122}, {"time": 58084, "pitch": 71, "duration": 469, "velocity": 87}, {"time": 58796, "pitch": 70, "duration": 1190, "velocity": 113}, {"time": 58796, "pitch": 73, "duration": 1197, "velocity": 101}, {"time": 75364, "pitch": 69, "duration": 1912, "velocity": 109}, {"time": 77276, "pitch": 66, "duration": 1189, "velocity": 106}, {"time": 78475, "pitch": 63, "duration": 230, "velocity": 102}, {"time": 78715, "pitch": 64, "duration": 233, "velocity": 104}, {"time": 78958, "pitch": 66, "duration": 232, "velocity": 106}, {"time": 79200, "pitch": 68, "duration": 1429, "velocity": 109}, {"time": 80639, "pitch": 72, "duration": 463, "velocity": 104}, {"time": 81112, "pitch": 73, "duration": 1433, "velocity": 117}, {"time": 82545, "pitch": 72, "duration": 232, "velocity": 110}, {"time": 82787, "pitch": 73, "duration": 111, "velocity": 112}, {"time": 82908, "pitch": 75, "duration": 112, "velocity": 106}, {"time": 83030, "pitch": 73, "duration": 962, "velocity": 109}, {"time": 84002, "pitch": 77, "duration": 469, "velocity": 106}, {"time": 84481, "pitch": 70, "duration": 470, "velocity": 108}, {"time": 84961, "pitch": 73, "duration": 965, "velocity": 104}, {"time": 85926, "pitch": 75, "duration": 722, "velocity": 104}, {"time": 86648, "pitch": 77, "duration": 109, "velocity": 110}, {"time": 86767, "pitch": 78, "duration": 108, "velocity": 106}, {"time": 86885, "pitch": 77, "duration": 703, "velocity": 109}, {"time": 87598, "pitch": 72, "duration": 110, "velocity": 110}, {"time": 87718, "pitch": 73, "duration": 110, "velocity": 106}, {"time": 87838, "pitch": 75, "duration": 480, "velocity": 110}, {"time": 88318, "pitch": 72, "duration": 479, "velocity": 104}, {"time": 88797, "pitch": 80, "duration": 1924, "velocity": 127}, {"time": 94078, "pitch": 63, "duration": 470, "velocity": 104}, {"time": 94558, "pitch": 67, "duration": 219, "velocity": 114}, {"time": 94797, "pitch": 68, "duration": 220, "velocity": 109}, {"time": 95037, "pitch": 70, "duration": 142, "velocity": 113}, {"time": 95280, "pitch": 65, "duration": 473, "velocity": 116}, {"time": 95763, "pitch": 62, "duration": 229, "velocity": 114}, {"time": 96002, "pitch": 58, "duration": 470, "velocity": 119}, {"time": 96482, "pitch": 62, "duration": 220, "velocity": 114}, {"time": 96722, "pitch": 63, "duration": 219, "velocity": 109}, {"time": 96961, "pitch": 65, "duration": 140, "velocity": 104}, {"time": 97201, "pitch": 63, "duration": 470, "velocity": 113}, {"time": 97681, "pitch": 67, "duration": 229, "velocity": 110}, {"time": 97920, "pitch": 58, "duration": 470, "velocity": 109}, {"time": 98400, "pitch": 56, "duration": 548, "velocity": 91}, {"time": 98400, "pitch": 60, "duration": 544, "velocity": 104}, {"time": 99119, "pitch": 58, "duration": 1222, "velocity": 88}, {"time": 99119, "pitch": 62, "duration": 1205, "velocity": 95}, {"time": 100318, "pitch": 62, "duration": 6, "velocity": 114}, {"time": 100558, "pitch": 62, "duration": 20, "velocity": 114}, {"time": 100798, "pitch": 62, "duration": 469, "velocity": 114}, {"time": 100798, "pitch": 65, "duration": 469, "velocity": 106}, {"time": 101277, "pitch": 60, "duration": 955, "velocity": 114}, {"time": 101277, "pitch": 67, "duration": 955, "velocity": 106}, {"time": 102242, "pitch": 60, "duration": 20, "velocity": 114}, {"time": 102482, "pitch": 60, "duration": 20, "velocity": 114}, {"time": 102722, "pitch": 60, "duration": 469, "velocity": 114}, {"time": 102722, "pitch": 68, "duration": 469, "velocity": 106}, {"time": 103201, "pitch": 62, "duration": 949, "velocity": 114}, {"time": 103201, "pitch": 68, "duration": 949, "velocity": 106}, {"time": 104160, "pitch": 62, "duration": 710, "velocity": 114}, {"time": 104160, "pitch": 67, "duration": 710, "velocity": 106}, {"time": 104880, "pitch": 62, "duration": 20, "velocity": 114}, {"time": 105119, "pitch": 63, "duration": 20, "velocity": 114}, {"time": 105359, "pitch": 63, "duration": 20, "velocity": 114}, {"time": 105599, "pitch": 63, "duration": 469, "velocity": 114}, {"time": 105599, "pitch": 67, "duration": 469, "velocity": 106}, {"time": 106078, "pitch": 60, "duration": 511, "velocity": 101}, {"time": 106078, "pitch": 63, "duration": 504, "velocity": 108}, {"time": 106798, "pitch": 62, "duration": 1168, "velocity": 73}, {"time": 106798, "pitch": 65, "duration": 1143, "velocity": 113}, {"time": 108003, "pitch": 63, "duration": 20, "velocity": 114}, {"time": 108243, "pitch": 63, "duration": 20, "velocity": 114}, {"time": 108482, "pitch": 63, "duration": 470, "velocity": 114}, {"time": 108482, "pitch": 68, "duration": 470, "velocity": 106}, {"time": 108962, "pitch": 63, "duration": 949, "velocity": 114}, {"time": 108962, "pitch": 67, "duration": 949, "velocity": 106}, {"time": 109921, "pitch": 67, "duration": 220, "velocity": 114}, {"time": 110161, "pitch": 68, "duration": 219, "velocity": 109}, {"time": 110400, "pitch": 70, "duration": 140, "velocity": 113}, {"time": 110640, "pitch": 65, "duration": 470, "velocity": 116}, {"time": 111120, "pitch": 62, "duration": 229, "velocity": 114}, {"time": 111359, "pitch": 58, "duration": 470, "velocity": 119}, {"time": 111839, "pitch": 62, "duration": 220, "velocity": 114}, {"time": 112079, "pitch": 63, "duration": 219, "velocity": 109}, {"time": 112318, "pitch": 65, "duration": 140, "velocity": 104}, {"time": 112558, "pitch": 63, "duration": 470, "velocity": 113}, {"time": 113038, "pitch": 67, "duration": 229, "velocity": 110}, {"time": 113277, "pitch": 58, "duration": 470, "velocity": 109}, {"time": 113757, "pitch": 56, "duration": 555, "velocity": 91}, {"time": 113757, "pitch": 60, "duration": 551, "velocity": 104}, {"time": 114483, "pitch": 58, "duration": 1221, "velocity": 88}, {"time": 114483, "pitch": 62, "duration": 1204, "velocity": 95}, {"time": 115681, "pitch": 62, "duration": 6, "velocity": 114}, {"time": 115921, "pitch": 62, "duration": 20, "velocity": 114}, {"time": 116161, "pitch": 62, "duration": 469, "velocity": 114}, {"time": 116161, "pitch": 65, "duration": 469, "velocity": 106}, {"time": 116640, "pitch": 60, "duration": 949, "velocity": 114}, {"time": 116640, "pitch": 67, "duration": 949, "velocity": 106}, {"time": 117599, "pitch": 60, "duration": 20, "velocity": 114}, {"time": 117839, "pitch": 60, "duration": 20, "velocity": 114}, {"time": 118079, "pitch": 60, "duration": 469, "velocity": 114}, {"time": 118079, "pitch": 68, "duration": 469, "velocity": 106}, {"time": 118558, "pitch": 62, "duration": 949, "velocity": 114}, {"time": 118558, "pitch": 68, "duration": 949, "velocity": 106}, {"time": 119517, "pitch": 62, "duration": 713, "velocity": 114}, {"time": 119517, "pitch": 67, "duration": 713, "velocity": 106}, {"time": 120240, "pitch": 62, "duration": 20, "velocity": 114}, {"time": 120483, "pitch": 63, "duration": 20, "velocity": 114}, {"time": 120723, "pitch": 63, "duration": 19, "velocity": 114}, {"time": 120962, "pitch": 63, "duration": 470, "velocity": 114}, {"time": 120962, "pitch": 67, "duration": 470, "velocity": 106}, {"time": 121442, "pitch": 60, "duration": 510, "velocity": 101}, {"time": 121442, "pitch": 63, "duration": 503, "velocity": 108}, {"time": 122161, "pitch": 62, "duration": 1163, "velocity": 73}, {"time": 122161, "pitch": 65, "duration": 1138, "velocity": 113}, {"time": 123360, "pitch": 63, "duration": 20, "velocity": 114}, {"time": 123600, "pitch": 63, "duration": 20, "velocity": 114}, {"time": 123839, "pitch": 63, "duration": 1439, "velocity": 114}, {"time": 123839, "pitch": 68, "duration": 1439, "velocity": 106}, {"time": 125278, "pitch": 63, "duration": 1924, "velocity": 114}, {"time": 125278, "pitch": 67, "duration": 1924, "velocity": 106}, {"time": 127202, "pitch": 77, "duration": 1189, "velocity": 109}, {"time": 128401, "pitch": 78, "duration": 140, "velocity": 110}, {"time": 128641, "pitch": 80, "duration": 140, "velocity": 112}, {"time": 128881, "pitch": 80, "duration": 1188, "velocity": 109}, {"time": 130079, "pitch": 82, "duration": 949, "velocity": 109}, {"time": 131038, "pitch": 77, "duration": 1189, "velocity": 109}, {"time": 132237, "pitch": 78, "duration": 140, "velocity": 110}, {"time": 132477, "pitch": 80, "duration": 142, "velocity": 112}, {"time": 132720, "pitch": 80, "duration": 1192, "velocity": 109}, {"time": 133922, "pitch": 82, "duration": 479, "velocity": 108}, {"time": 134401, "pitch": 78, "duration": 480, "velocity": 95}, {"time": 134881, "pitch": 77, "duration": 1906, "velocity": 106}, {"time": 3841, "pitch": 58, "duration": 469, "velocity": 119}, {"time": 4320, "pitch": 61, "duration": 1189, "velocity": 124}, {"time": 5519, "pitch": 49, "duration": 100, "velocity": 116}, {"time": 5759, "pitch": 53, "duration": 100, "velocity": 119}, {"time": 5999, "pitch": 49, "duration": 100, "velocity": 116}, {"time": 6239, "pitch": 52, "duration": 949, "velocity": 119}, {"time": 7198, "pitch": 54, "duration": 955, "velocity": 120}, {"time": 23520, "pitch": 61, "duration": 1908, "velocity": 106}, {"time": 25438, "pitch": 63, "duration": 949, "velocity": 106}, {"time": 26397, "pitch": 59, "duration": 955, "velocity": 104}, {"time": 27362, "pitch": 56, "duration": 710, "velocity": 106}, {"time": 28082, "pitch": 58, "duration": 110, "velocity": 110}, {"time": 28202, "pitch": 56, "duration": 109, "velocity": 104}, {"time": 28321, "pitch": 56, "duration": 470, "velocity": 106}, {"time": 28801, "pitch": 53, "duration": 469, "velocity": 104}, {"time": 29280, "pitch": 46, "duration": 130, "velocity": 110}, {"time": 29520, "pitch": 49, "duration": 130, "velocity": 111}, {"time": 29760, "pitch": 53, "duration": 130, "velocity": 112}, {"time": 30000, "pitch": 56, "duration": 130, "velocity": 109}, {"time": 30239, "pitch": 60, "duration": 470, "velocity": 110}, {"time": 30719, "pitch": 56, "duration": 470, "velocity": 112}, {"time": 31199, "pitch": 58, "duration": 949, "velocity": 106}, {"time": 32158, "pitch": 58, "duration": 469, "velocity": 104}, {"time": 32637, "pitch": 61, "duration": 476, "velocity": 102}, {"time": 33123, "pitch": 58, "duration": 949, "velocity": 106}, {"time": 34082, "pitch": 54, "duration": 949, "velocity": 104}, {"time": 35041, "pitch": 49, "duration": 709, "velocity": 106}, {"time": 35760, "pitch": 51, "duration": 110, "velocity": 110}, {"time": 35880, "pitch": 53, "duration": 110, "velocity": 104}, {"time": 36000, "pitch": 56, "duration": 469, "velocity": 109}, {"time": 36479, "pitch": 51, "duration": 470, "velocity": 106}, {"time": 36959, "pitch": 53, "duration": 470, "velocity": 109}, {"time": 37439, "pitch": 53, "duration": 469, "velocity": 110}, {"time": 37918, "pitch": 58, "duration": 470, "velocity": 112}, {"time": 38398, "pitch": 56, "duration": 469, "velocity": 114}, {"time": 42240, "pitch": 48, "duration": 469, "velocity": 119}, {"time": 42719, "pitch": 51, "duration": 233, "velocity": 119}, {"time": 42962, "pitch": 51, "duration": 233, "velocity": 112}, {"time": 43205, "pitch": 51, "duration": 130, "velocity": 115}, {"time": 43445, "pitch": 50, "duration": 469, "velocity": 114}, {"time": 43924, "pitch": 46, "duration": 100, "velocity": 124}, {"time": 44164, "pitch": 50, "duration": 100, "velocity": 122}, {"time": 44404, "pitch": 53, "duration": 100, "velocity": 126}, {"time": 44644, "pitch": 46, "duration": 229, "velocity": 120}, {"time": 44883, "pitch": 43, "duration": 230, "velocity": 114}, {"time": 45123, "pitch": 46, "duration": 130, "velocity": 119}, {"time": 45363, "pitch": 48, "duration": 470, "velocity": 116}, {"time": 45843, "pitch": 50, "duration": 229, "velocity": 114}, {"time": 46082, "pitch": 51, "duration": 470, "velocity": 119}, {"time": 46562, "pitch": 51, "duration": 540, "velocity": 94}, {"time": 47275, "pitch": 53, "duration": 1229, "velocity": 88}, {"time": 48713, "pitch": 55, "duration": 20, "velocity": 121}, {"time": 48955, "pitch": 55, "duration": 470, "velocity": 121}, {"time": 49435, "pitch": 55, "duration": 943, "velocity": 121}, {"time": 50388, "pitch": 53, "duration": 20, "velocity": 121}, {"time": 50628, "pitch": 53, "duration": 20, "velocity": 121}, {"time": 50868, "pitch": 53, "duration": 469, "velocity": 121}, {"time": 51347, "pitch": 53, "duration": 955, "velocity": 121}, {"time": 52312, "pitch": 55, "duration": 710, "velocity": 121}, {"time": 53032, "pitch": 55, "duration": 20, "velocity": 121}, {"time": 53271, "pitch": 55, "duration": 20, "velocity": 121}, {"time": 53511, "pitch": 55, "duration": 20, "velocity": 121}, {"time": 53751, "pitch": 55, "duration": 463, "velocity": 121}, {"time": 54234, "pitch": 53, "duration": 512, "velocity": 108}, {"time": 54957, "pitch": 55, "duration": 1167, "velocity": 87}, {"time": 56385, "pitch": 56, "duration": 20, "velocity": 121}, {"time": 56621, "pitch": 56, "duration": 470, "velocity": 121}, {"time": 57102, "pitch": 58, "duration": 961, "velocity": 121}, {"time": 58084, "pitch": 64, "duration": 500, "velocity": 95}, {"time": 58796, "pitch": 66, "duration": 1198, "velocity": 113}, {"time": 75364, "pitch": 61, "duration": 1902, "velocity": 106}, {"time": 77276, "pitch": 63, "duration": 949, "velocity": 106}, {"time": 78235, "pitch": 59, "duration": 955, "velocity": 104}, {"time": 79200, "pitch": 56, "duration": 710, "velocity": 106}, {"time": 79920, "pitch": 58, "duration": 110, "velocity": 110}, {"time": 80040, "pitch": 56, "duration": 109, "velocity": 104}, {"time": 80159, "pitch": 56, "duration": 470, "velocity": 106}, {"time": 80639, "pitch": 53, "duration": 463, "velocity": 104}, {"time": 81112, "pitch": 46, "duration": 128, "velocity": 110}, {"time": 81349, "pitch": 49, "duration": 128, "velocity": 111}, {"time": 81586, "pitch": 53, "duration": 130, "velocity": 112}, {"time": 81826, "pitch": 56, "duration": 130, "velocity": 109}, {"time": 82066, "pitch": 60, "duration": 469, "velocity": 110}, {"time": 82545, "pitch": 56, "duration": 475, "velocity": 112}, {"time": 83030, "pitch": 58, "duration": 962, "velocity": 106}, {"time": 84002, "pitch": 58, "duration": 469, "velocity": 104}, {"time": 84481, "pitch": 61, "duration": 470, "velocity": 102}, {"time": 84961, "pitch": 58, "duration": 955, "velocity": 106}, {"time": 85926, "pitch": 54, "duration": 949, "velocity": 104}, {"time": 86885, "pitch": 49, "duration": 703, "velocity": 106}, {"time": 87598, "pitch": 51, "duration": 110, "velocity": 110}, {"time": 87718, "pitch": 53, "duration": 110, "velocity": 104}, {"time": 87838, "pitch": 56, "duration": 470, "velocity": 109}, {"time": 88318, "pitch": 51, "duration": 469, "velocity": 106}, {"time": 88797, "pitch": 51, "duration": 476, "velocity": 109}, {"time": 89283, "pitch": 51, "duration": 469, "velocity": 110}, {"time": 89762, "pitch": 58, "duration": 470, "velocity": 112}, {"time": 90242, "pitch": 56, "duration": 469, "velocity": 114}, {"time": 94078, "pitch": 48, "duration": 470, "velocity": 119}, {"time": 94558, "pitch": 51, "duration": 229, "velocity": 119}, {"time": 94797, "pitch": 51, "duration": 230, "velocity": 112}, {"time": 95037, "pitch": 51, "duration": 132, "velocity": 115}, {"time": 95280, "pitch": 50, "duration": 473, "velocity": 114}, {"time": 95763, "pitch": 46, "duration": 99, "velocity": 124}, {"time": 96002, "pitch": 50, "duration": 100, "velocity": 122}, {"time": 96242, "pitch": 53, "duration": 100, "velocity": 126}, {"time": 96482, "pitch": 46, "duration": 230, "velocity": 120}, {"time": 96722, "pitch": 43, "duration": 229, "velocity": 114}, {"time": 96961, "pitch": 46, "duration": 130, "velocity": 119}, {"time": 97201, "pitch": 48, "duration": 470, "velocity": 116}, {"time": 97681, "pitch": 50, "duration": 229, "velocity": 114}, {"time": 97920, "pitch": 51, "duration": 470, "velocity": 119}, {"time": 98400, "pitch": 51, "duration": 546, "velocity": 94}, {"time": 99119, "pitch": 53, "duration": 1223, "velocity": 88}, {"time": 100548, "pitch": 55, "duration": 20, "velocity": 121}, {"time": 100788, "pitch": 55, "duration": 469, "velocity": 121}, {"time": 101267, "pitch": 55, "duration": 955, "velocity": 121}, {"time": 102232, "pitch": 53, "duration": 20, "velocity": 121}, {"time": 102472, "pitch": 53, "duration": 20, "velocity": 121}, {"time": 102712, "pitch": 53, "duration": 469, "velocity": 121}, {"time": 103191, "pitch": 53, "duration": 949, "velocity": 121}, {"time": 104150, "pitch": 55, "duration": 710, "velocity": 121}, {"time": 104870, "pitch": 55, "duration": 20, "velocity": 121}, {"time": 105109, "pitch": 55, "duration": 20, "velocity": 121}, {"time": 105349, "pitch": 55, "duration": 20, "velocity": 121}, {"time": 105589, "pitch": 55, "duration": 469, "velocity": 121}, {"time": 106078, "pitch": 53, "duration": 512, "velocity": 108}, {"time": 106798, "pitch": 55, "duration": 1168, "velocity": 87}, {"time": 108233, "pitch": 56, "duration": 20, "velocity": 121}, {"time": 108472, "pitch": 56, "duration": 470, "velocity": 121}, {"time": 108952, "pitch": 58, "duration": 949, "velocity": 121}, {"time": 109921, "pitch": 51, "duration": 230, "velocity": 119}, {"time": 110161, "pitch": 51, "duration": 229, "velocity": 112}, {"time": 110400, "pitch": 51, "duration": 130, "velocity": 115}, {"time": 110640, "pitch": 50, "duration": 470, "velocity": 114}, {"time": 111120, "pitch": 46, "duration": 100, "velocity": 124}, {"time": 111359, "pitch": 50, "duration": 100, "velocity": 122}, {"time": 111599, "pitch": 53, "duration": 100, "velocity": 126}, {"time": 111839, "pitch": 46, "duration": 230, "velocity": 120}, {"time": 112079, "pitch": 43, "duration": 229, "velocity": 114}, {"time": 112318, "pitch": 46, "duration": 130, "velocity": 119}, {"time": 112558, "pitch": 48, "duration": 470, "velocity": 116}, {"time": 113038, "pitch": 50, "duration": 229, "velocity": 114}, {"time": 113277, "pitch": 51, "duration": 470, "velocity": 119}, {"time": 113757, "pitch": 51, "duration": 553, "velocity": 94}, {"time": 114483, "pitch": 53, "duration": 1222, "velocity": 88}, {"time": 115911, "pitch": 55, "duration": 20, "velocity": 121}, {"time": 116151, "pitch": 55, "duration": 469, "velocity": 121}, {"time": 116630, "pitch": 55, "duration": 949, "velocity": 121}, {"time": 117589, "pitch": 53, "duration": 20, "velocity": 121}, {"time": 117829, "pitch": 53, "duration": 20, "velocity": 121}, {"time": 118069, "pitch": 53, "duration": 469, "velocity": 121}, {"time": 118548, "pitch": 53, "duration": 950, "velocity": 121}, {"time": 119507, "pitch": 55, "duration": 713, "velocity": 121}, {"time": 120230, "pitch": 55, "duration": 20, "velocity": 121}, {"time": 120473, "pitch": 55, "duration": 20, "velocity": 121}, {"time": 120713, "pitch": 55, "duration": 20, "velocity": 121}, {"time": 120952, "pitch": 55, "duration": 470, "velocity": 121}, {"time": 121442, "pitch": 53, "duration": 511, "velocity": 108}, {"time": 122161, "pitch": 55, "duration": 1163, "velocity": 87}, {"time": 123590, "pitch": 56, "duration": 20, "velocity": 121}, {"time": 123829, "pitch": 56, "duration": 1439, "velocity": 121}, {"time": 125268, "pitch": 58, "duration": 1924, "velocity": 121}, {"time": 127202, "pitch": 61, "duration": 1189, "velocity": 124}, {"time": 128401, "pitch": 49, "duration": 100, "velocity": 116}, {"time": 128641, "pitch": 53, "duration": 100, "velocity": 119}, {"time": 128881, "pitch": 49, "duration": 99, "velocity": 116}, {"time": 129120, "pitch": 52, "duration": 949, "velocity": 119}, {"time": 130079, "pitch": 54, "duration": 949, "velocity": 120}, {"time": 131038, "pitch": 61, "duration": 1189, "velocity": 124}, {"time": 132237, "pitch": 49, "duration": 100, "velocity": 116}, {"time": 132477, "pitch": 53, "duration": 101, "velocity": 119}, {"time": 132720, "pitch": 49, "duration": 101, "velocity": 116}, {"time": 132963, "pitch": 52, "duration": 949, "velocity": 119}, {"time": 133922, "pitch": 54, "duration": 479, "velocity": 118}, {"time": 134401, "pitch": 49, "duration": 480, "velocity": 124}, {"time": 134881, "pitch": 49, "duration": 1906, "velocity": 121}, {"time": 29520, "pitch": 80, "duration": 240, "velocity": 82}, {"time": 29760, "pitch": 80, "duration": 240, "velocity": 76}, {"time": 30000, "pitch": 85, "duration": 239, "velocity": 86}, {"time": 30239, "pitch": 84, "duration": 400, "velocity": 74}, {"time": 30639, "pitch": 82, "duration": 320, "velocity": 83}, {"time": 30959, "pitch": 80, "duration": 240, "velocity": 75}, {"time": 31199, "pitch": 82, "duration": 1802, "velocity": 87}, {"time": 33363, "pitch": 85, "duration": 239, "velocity": 84}, {"time": 33602, "pitch": 85, "duration": 240, "velocity": 79}, {"time": 33842, "pitch": 85, "duration": 240, "velocity": 83}, {"time": 34082, "pitch": 84, "duration": 399, "velocity": 78}, {"time": 34481, "pitch": 85, "duration": 320, "velocity": 90}, {"time": 34801, "pitch": 87, "duration": 240, "velocity": 88}, {"time": 35041, "pitch": 85, "duration": 2877, "velocity": 95}, {"time": 38398, "pitch": 66, "duration": 239, "velocity": 78}, {"time": 38637, "pitch": 68, "duration": 240, "velocity": 87}, {"time": 38877, "pitch": 70, "duration": 162, "velocity": 92}, {"time": 39120, "pitch": 70, "duration": 162, "velocity": 91}, {"time": 39282, "pitch": 70, "duration": 241, "velocity": 88}, {"time": 39603, "pitch": 70, "duration": 159, "velocity": 87}, {"time": 39842, "pitch": 70, "duration": 240, "velocity": 90}, {"time": 40082, "pitch": 68, "duration": 240, "velocity": 89}, {"time": 40322, "pitch": 70, "duration": 240, "velocity": 81}, {"time": 40562, "pitch": 73, "duration": 239, "velocity": 87}, {"time": 40801, "pitch": 72, "duration": 720, "velocity": 92}, {"time": 41521, "pitch": 74, "duration": 160, "velocity": 93}, {"time": 41681, "pitch": 74, "duration": 1038, "velocity": 92}, {"time": 81349, "pitch": 80, "duration": 237, "velocity": 82}, {"time": 81586, "pitch": 80, "duration": 240, "velocity": 76}, {"time": 81826, "pitch": 85, "duration": 240, "velocity": 86}, {"time": 82066, "pitch": 84, "duration": 399, "velocity": 74}, {"time": 82465, "pitch": 82, "duration": 322, "velocity": 83}, {"time": 82787, "pitch": 80, "duration": 243, "velocity": 75}, {"time": 83030, "pitch": 82, "duration": 1811, "velocity": 87}, {"time": 85201, "pitch": 85, "duration": 239, "velocity": 84}, {"time": 85440, "pitch": 85, "duration": 243, "velocity": 79}, {"time": 85683, "pitch": 85, "duration": 243, "velocity": 83}, {"time": 85926, "pitch": 84, "duration": 406, "velocity": 78}, {"time": 86332, "pitch": 85, "duration": 316, "velocity": 90}, {"time": 86648, "pitch": 87, "duration": 237, "velocity": 88}, {"time": 86885, "pitch": 85, "duration": 2877, "velocity": 95}, {"time": 90242, "pitch": 66, "duration": 240, "velocity": 78}, {"time": 90482, "pitch": 68, "duration": 239, "velocity": 87}, {"time": 90721, "pitch": 70, "duration": 160, "velocity": 92}, {"time": 90961, "pitch": 70, "duration": 160, "velocity": 91}, {"time": 91121, "pitch": 70, "duration": 240, "velocity": 88}, {"time": 91441, "pitch": 70, "duration": 159, "velocity": 87}, {"time": 91680, "pitch": 70, "duration": 240, "velocity": 90}, {"time": 91920, "pitch": 68, "duration": 240, "velocity": 89}, {"time": 92160, "pitch": 70, "duration": 240, "velocity": 81}, {"time": 92400, "pitch": 73, "duration": 239, "velocity": 87}, {"time": 92639, "pitch": 72, "duration": 720, "velocity": 92}, {"time": 93359, "pitch": 74, "duration": 160, "velocity": 93}, {"time": 93519, "pitch": 74, "duration": 1039, "velocity": 92}, {"time": 29520, "pitch": 77, "duration": 240, "velocity": 76}, {"time": 29760, "pitch": 77, "duration": 240, "velocity": 73}, {"time": 30000, "pitch": 82, "duration": 239, "velocity": 80}, {"time": 30239, "pitch": 80, "duration": 400, "velocity": 80}, {"time": 30639, "pitch": 78, "duration": 320, "velocity": 82}, {"time": 30959, "pitch": 75, "duration": 240, "velocity": 86}, {"time": 31199, "pitch": 78, "duration": 1802, "velocity": 88}, {"time": 33363, "pitch": 82, "duration": 239, "velocity": 88}, {"time": 33602, "pitch": 82, "duration": 240, "velocity": 77}, {"time": 33842, "pitch": 82, "duration": 240, "velocity": 80}, {"time": 34082, "pitch": 80, "duration": 399, "velocity": 80}, {"time": 34481, "pitch": 82, "duration": 320, "velocity": 81}, {"time": 34801, "pitch": 84, "duration": 240, "velocity": 88}, {"time": 35041, "pitch": 82, "duration": 2757, "velocity": 89}, {"time": 38398, "pitch": 73, "duration": 239, "velocity": 88}, {"time": 38637, "pitch": 75, "duration": 240, "velocity": 90}, {"time": 38877, "pitch": 77, "duration": 243, "velocity": 89}, {"time": 39120, "pitch": 77, "duration": 162, "velocity": 92}, {"time": 39282, "pitch": 77, "duration": 321, "velocity": 94}, {"time": 39603, "pitch": 77, "duration": 239, "velocity": 87}, {"time": 39842, "pitch": 77, "duration": 240, "velocity": 91}, {"time": 40082, "pitch": 75, "duration": 240, "velocity": 92}, {"time": 40322, "pitch": 77, "duration": 240, "velocity": 92}, {"time": 40562, "pitch": 80, "duration": 239, "velocity": 87}, {"time": 40801, "pitch": 79, "duration": 720, "velocity": 91}, {"time": 41521, "pitch": 81, "duration": 160, "velocity": 85}, {"time": 41681, "pitch": 81, "duration": 1038, "velocity": 90}, {"time": 81349, "pitch": 77, "duration": 237, "velocity": 76}, {"time": 81586, "pitch": 77, "duration": 240, "velocity": 73}, {"time": 81826, "pitch": 82, "duration": 240, "velocity": 80}, {"time": 82066, "pitch": 80, "duration": 399, "velocity": 80}, {"time": 82465, "pitch": 78, "duration": 322, "velocity": 82}, {"time": 82787, "pitch": 75, "duration": 243, "velocity": 86}, {"time": 83030, "pitch": 78, "duration": 1811, "velocity": 88}, {"time": 85201, "pitch": 82, "duration": 239, "velocity": 88}, {"time": 85440, "pitch": 82, "duration": 243, "velocity": 77}, {"time": 85683, "pitch": 82, "duration": 243, "velocity": 80}, {"time": 85926, "pitch": 80, "duration": 406, "velocity": 80}, {"time": 86332, "pitch": 82, "duration": 316, "velocity": 81}, {"time": 86648, "pitch": 84, "duration": 237, "velocity": 88}, {"time": 86885, "pitch": 82, "duration": 2757, "velocity": 89}, {"time": 90242, "pitch": 73, "duration": 240, "velocity": 88}, {"time": 90482, "pitch": 75, "duration": 239, "velocity": 90}, {"time": 90721, "pitch": 77, "duration": 240, "velocity": 89}, {"time": 90961, "pitch": 77, "duration": 160, "velocity": 92}, {"time": 91121, "pitch": 77, "duration": 320, "velocity": 94}, {"time": 91441, "pitch": 77, "duration": 239, "velocity": 87}, {"time": 91680, "pitch": 77, "duration": 240, "velocity": 91}, {"time": 91920, "pitch": 75, "duration": 240, "velocity": 92}, {"time": 92160, "pitch": 77, "duration": 240, "velocity": 92}, {"time": 92400, "pitch": 80, "duration": 239, "velocity": 87}, {"time": 92639, "pitch": 79, "duration": 720, "velocity": 91}, {"time": 93359, "pitch": 81, "duration": 160, "velocity": 85}, {"time": 93519, "pitch": 81, "duration": 1039, "velocity": 90}, {"time": 488, "pitch": 61, "duration": 1921, "velocity": 91}, {"time": 955, "pitch": 68, "duration": 242, "velocity": 80}, {"time": 959, "pitch": 73, "duration": 218, "velocity": 91}, {"time": 1196, "pitch": 73, "duration": 79, "velocity": 73}, {"time": 1199, "pitch": 68, "duration": 70, "velocity": 87}, {"time": 1341, "pitch": 73, "duration": 167, "velocity": 80}, {"time": 1345, "pitch": 68, "duration": 148, "velocity": 95}, {"time": 1583, "pitch": 68, "duration": 97, "velocity": 87}, {"time": 1583, "pitch": 73, "duration": 98, "velocity": 87}, {"time": 1676, "pitch": 71, "duration": 227, "velocity": 117}, {"time": 1677, "pitch": 66, "duration": 224, "velocity": 80}, {"time": 1921, "pitch": 73, "duration": 242, "velocity": 95}, {"time": 1924, "pitch": 68, "duration": 243, "velocity": 100}, {"time": 2170, "pitch": 68, "duration": 52, "velocity": 40}, {"time": 2176, "pitch": 73, "duration": 63, "velocity": 40}, {"time": 2315, "pitch": 73, "duration": 45, "velocity": 40}, {"time": 2322, "pitch": 68, "duration": 46, "velocity": 40}, {"time": 2415, "pitch": 52, "duration": 968, "velocity": 97}, {"time": 2884, "pitch": 64, "duration": 317, "velocity": 83}, {"time": 2888, "pitch": 59, "duration": 318, "velocity": 104}, {"time": 3259, "pitch": 59, "duration": 102, "velocity": 91}, {"time": 3263, "pitch": 64, "duration": 110, "velocity": 62}, {"time": 3342, "pitch": 54, "duration": 332, "velocity": 87}, {"time": 3506, "pitch": 61, "duration": 118, "velocity": 71}, {"time": 3509, "pitch": 66, "duration": 120, "velocity": 73}, {"time": 3849, "pitch": 66, "duration": 310, "velocity": 87}, {"time": 3852, "pitch": 61, "duration": 322, "velocity": 68}, {"time": 4211, "pitch": 61, "duration": 80, "velocity": 76}, {"time": 4211, "pitch": 66, "duration": 86, "velocity": 87}, {"time": 4330, "pitch": 61, "duration": 1916, "velocity": 91}, {"time": 4797, "pitch": 68, "duration": 243, "velocity": 80}, {"time": 4801, "pitch": 73, "duration": 219, "velocity": 91}, {"time": 5039, "pitch": 73, "duration": 79, "velocity": 73}, {"time": 5042, "pitch": 68, "duration": 70, "velocity": 87}, {"time": 5184, "pitch": 73, "duration": 165, "velocity": 80}, {"time": 5188, "pitch": 68, "duration": 146, "velocity": 95}, {"time": 5423, "pitch": 68, "duration": 96, "velocity": 87}, {"time": 5423, "pitch": 73, "duration": 97, "velocity": 87}, {"time": 5515, "pitch": 71, "duration": 224, "velocity": 117}, {"time": 5516, "pitch": 66, "duration": 221, "velocity": 80}, {"time": 5757, "pitch": 73, "duration": 242, "velocity": 95}, {"time": 5760, "pitch": 68, "duration": 243, "velocity": 100}, {"time": 6006, "pitch": 68, "duration": 52, "velocity": 40}, {"time": 6012, "pitch": 73, "duration": 63, "velocity": 40}, {"time": 6152, "pitch": 73, "duration": 45, "velocity": 40}, {"time": 6159, "pitch": 68, "duration": 46, "velocity": 40}, {"time": 6252, "pitch": 52, "duration": 968, "velocity": 97}, {"time": 6720, "pitch": 64, "duration": 317, "velocity": 83}, {"time": 6724, "pitch": 59, "duration": 318, "velocity": 104}, {"time": 7095, "pitch": 59, "duration": 103, "velocity": 91}, {"time": 7099, "pitch": 64, "duration": 111, "velocity": 62}, {"time": 7184, "pitch": 54, "duration": 994, "velocity": 65}, {"time": 7342, "pitch": 66, "duration": 97, "velocity": 76}, {"time": 7346, "pitch": 61, "duration": 93, "velocity": 76}, {"time": 7441, "pitch": 61, "duration": 227, "velocity": 71}, {"time": 7448, "pitch": 66, "duration": 214, "velocity": 100}, {"time": 7682, "pitch": 61, "duration": 488, "velocity": 68}, {"time": 7693, "pitch": 66, "duration": 492, "velocity": 91}, {"time": 8169, "pitch": 61, "duration": 1, "velocity": 71}, {"time": 8181, "pitch": 65, "duration": 463, "velocity": 108}, {"time": 8188, "pitch": 68, "duration": 452, "velocity": 83}, {"time": 8190, "pitch": 73, "duration": 454, "velocity": 80}, {"time": 8642, "pitch": 61, "duration": 476, "velocity": 73}, {"time": 8657, "pitch": 65, "duration": 457, "velocity": 104}, {"time": 8661, "pitch": 68, "duration": 455, "velocity": 76}, {"time": 8661, "pitch": 73, "duration": 461, "velocity": 76}, {"time": 9125, "pitch": 73, "duration": 135, "velocity": 100}, {"time": 9263, "pitch": 73, "duration": 67, "velocity": 95}, {"time": 9327, "pitch": 68, "duration": 272, "velocity": 83}, {"time": 9602, "pitch": 65, "duration": 479, "velocity": 101}, {"time": 10077, "pitch": 60, "duration": 898, "velocity": 97}, {"time": 10324, "pitch": 65, "duration": 653, "velocity": 86}, {"time": 10559, "pitch": 68, "duration": 461, "velocity": 95}, {"time": 10943, "pitch": 72, "duration": 78, "velocity": 88}, {"time": 10943, "pitch": 75, "duration": 84, "velocity": 87}, {"time": 11185, "pitch": 72, "duration": 109, "velocity": 104}, {"time": 11191, "pitch": 75, "duration": 125, "velocity": 91}, {"time": 11280, "pitch": 60, "duration": 64, "velocity": 40}, {"time": 11285, "pitch": 65, "duration": 53, "velocity": 40}, {"time": 11445, "pitch": 60, "duration": 39, "velocity": 40}, {"time": 11448, "pitch": 65, "duration": 44, "velocity": 40}, {"time": 11509, "pitch": 68, "duration": 472, "velocity": 91}, {"time": 11522, "pitch": 72, "duration": 462, "velocity": 97}, {"time": 11998, "pitch": 58, "duration": 1395, "velocity": 73}, {"time": 12248, "pitch": 65, "duration": 715, "velocity": 104}, {"time": 12474, "pitch": 70, "duration": 469, "velocity": 83}, {"time": 12962, "pitch": 70, "duration": 75, "velocity": 91}, {"time": 13034, "pitch": 73, "duration": 62, "velocity": 75}, {"time": 13087, "pitch": 70, "duration": 106, "velocity": 83}, {"time": 13190, "pitch": 65, "duration": 253, "velocity": 83}, {"time": 13437, "pitch": 61, "duration": 291, "velocity": 80}, {"time": 13689, "pitch": 58, "duration": 201, "velocity": 95}, {"time": 13937, "pitch": 54, "duration": 903, "velocity": 73}, {"time": 14185, "pitch": 57, "duration": 652, "velocity": 101}, {"time": 14415, "pitch": 61, "duration": 453, "velocity": 76}, {"time": 14870, "pitch": 56, "duration": 419, "velocity": 61}, {"time": 14885, "pitch": 63, "duration": 403, "velocity": 87}, {"time": 14887, "pitch": 68, "duration": 409, "velocity": 65}, {"time": 14887, "pitch": 73, "duration": 423, "velocity": 80}, {"time": 15356, "pitch": 56, "duration": 480, "velocity": 68}, {"time": 15378, "pitch": 63, "duration": 458, "velocity": 87}, {"time": 15382, "pitch": 68, "duration": 483, "velocity": 71}, {"time": 15388, "pitch": 72, "duration": 484, "velocity": 88}, {"time": 15837, "pitch": 61, "duration": 962, "velocity": 83}, {"time": 16075, "pitch": 65, "duration": 476, "velocity": 86}, {"time": 16319, "pitch": 68, "duration": 365, "velocity": 63}, {"time": 16325, "pitch": 73, "duration": 328, "velocity": 54}, {"time": 16561, "pitch": 65, "duration": 249, "velocity": 94}, {"time": 16803, "pitch": 73, "duration": 135, "velocity": 100}, {"time": 16941, "pitch": 73, "duration": 67, "velocity": 95}, {"time": 17005, "pitch": 68, "duration": 273, "velocity": 83}, {"time": 17281, "pitch": 65, "duration": 259, "velocity": 101}, {"time": 17541, "pitch": 61, "duration": 228, "velocity": 87}, {"time": 17756, "pitch": 60, "duration": 898, "velocity": 97}, {"time": 18002, "pitch": 65, "duration": 654, "velocity": 86}, {"time": 18238, "pitch": 68, "duration": 461, "velocity": 95}, {"time": 18622, "pitch": 72, "duration": 78, "velocity": 88}, {"time": 18622, "pitch": 75, "duration": 84, "velocity": 87}, {"time": 18863, "pitch": 72, "duration": 109, "velocity": 104}, {"time": 18869, "pitch": 75, "duration": 125, "velocity": 91}, {"time": 18958, "pitch": 60, "duration": 64, "velocity": 40}, {"time": 18963, "pitch": 65, "duration": 53, "velocity": 40}, {"time": 19123, "pitch": 60, "duration": 39, "velocity": 40}, {"time": 19126, "pitch": 65, "duration": 44, "velocity": 40}, {"time": 19187, "pitch": 68, "duration": 473, "velocity": 91}, {"time": 19200, "pitch": 72, "duration": 463, "velocity": 97}, {"time": 19677, "pitch": 58, "duration": 1400, "velocity": 73}, {"time": 19926, "pitch": 65, "duration": 722, "velocity": 104}, {"time": 20152, "pitch": 70, "duration": 476, "velocity": 83}, {"time": 20647, "pitch": 70, "duration": 75, "velocity": 91}, {"time": 20719, "pitch": 73, "duration": 62, "velocity": 75}, {"time": 20772, "pitch": 70, "duration": 106, "velocity": 83}, {"time": 20875, "pitch": 65, "duration": 252, "velocity": 83}, {"time": 21121, "pitch": 61, "duration": 292, "velocity": 80}, {"time": 21374, "pitch": 58, "duration": 201, "velocity": 95}, {"time": 21622, "pitch": 54, "duration": 897, "velocity": 73}, {"time": 21867, "pitch": 57, "duration": 649, "velocity": 101}, {"time": 22093, "pitch": 61, "duration": 454, "velocity": 76}, {"time": 22549, "pitch": 56, "duration": 419, "velocity": 61}, {"time": 22564, "pitch": 63, "duration": 403, "velocity": 87}, {"time": 22566, "pitch": 68, "duration": 409, "velocity": 65}, {"time": 22566, "pitch": 73, "duration": 423, "velocity": 80}, {"time": 23034, "pitch": 56, "duration": 481, "velocity": 68}, {"time": 23056, "pitch": 63, "duration": 459, "velocity": 87}, {"time": 23060, "pitch": 68, "duration": 484, "velocity": 71}, {"time": 23066, "pitch": 72, "duration": 485, "velocity": 88}, {"time": 23482, "pitch": 57, "duration": 790, "velocity": 56}, {"time": 23516, "pitch": 64, "duration": 767, "velocity": 94}, {"time": 23542, "pitch": 69, "duration": 744, "velocity": 73}, {"time": 23567, "pitch": 73, "duration": 724, "velocity": 46}, {"time": 24383, "pitch": 64, "duration": 77, "velocity": 94}, {"time": 24384, "pitch": 69, "duration": 89, "velocity": 77}, {"time": 24385, "pitch": 73, "duration": 95, "velocity": 61}, {"time": 24386, "pitch": 57, "duration": 103, "velocity": 91}, {"time": 24623, "pitch": 73, "duration": 94, "velocity": 76}, {"time": 24624, "pitch": 57, "duration": 84, "velocity": 97}, {"time": 24626, "pitch": 69, "duration": 89, "velocity": 86}, {"time": 24627, "pitch": 64, "duration": 81, "velocity": 104}, {"time": 24718, "pitch": 64, "duration": 26, "velocity": 40}, {"time": 24722, "pitch": 57, "duration": 22, "velocity": 40}, {"time": 24863, "pitch": 57, "duration": 27, "velocity": 40}, {"time": 24867, "pitch": 64, "duration": 36, "velocity": 40}, {"time": 24955, "pitch": 57, "duration": 243, "velocity": 97}, {"time": 24957, "pitch": 73, "duration": 251, "velocity": 73}, {"time": 24959, "pitch": 69, "duration": 234, "velocity": 91}, {"time": 24960, "pitch": 64, "duration": 233, "velocity": 104}, {"time": 25195, "pitch": 64, "duration": 148, "velocity": 101}, {"time": 25198, "pitch": 69, "duration": 130, "velocity": 77}, {"time": 25198, "pitch": 73, "duration": 10, "velocity": 71}, {"time": 25201, "pitch": 57, "duration": 142, "velocity": 88}, {"time": 25341, "pitch": 69, "duration": 112, "velocity": 75}, {"time": 25345, "pitch": 64, "duration": 108, "velocity": 108}, {"time": 25347, "pitch": 57, "duration": 91, "velocity": 101}, {"time": 25347, "pitch": 73, "duration": 101, "velocity": 73}, {"time": 25434, "pitch": 75, "duration": 214, "velocity": 71}, {"time": 25439, "pitch": 59, "duration": 214, "velocity": 77}, {"time": 25443, "pitch": 71, "duration": 470, "velocity": 67}, {"time": 25445, "pitch": 66, "duration": 208, "velocity": 73}, {"time": 25655, "pitch": 59, "duration": 248, "velocity": 51}, {"time": 25659, "pitch": 75, "duration": 244, "velocity": 71}, {"time": 25665, "pitch": 66, "duration": 238, "velocity": 73}, {"time": 25916, "pitch": 71, "duration": 618, "velocity": 77}, {"time": 25920, "pitch": 59, "duration": 377, "velocity": 79}, {"time": 25921, "pitch": 75, "duration": 371, "velocity": 71}, {"time": 25922, "pitch": 66, "duration": 375, "velocity": 83}, {"time": 26300, "pitch": 75, "duration": 239, "velocity": 73}, {"time": 26301, "pitch": 59, "duration": 243, "velocity": 88}, {"time": 26304, "pitch": 66, "duration": 235, "velocity": 83}, {"time": 26545, "pitch": 66, "duration": 333, "velocity": 83}, {"time": 26548, "pitch": 71, "duration": 325, "velocity": 79}, {"time": 26550, "pitch": 59, "duration": 323, "velocity": 86}, {"time": 26550, "pitch": 75, "duration": 323, "velocity": 73}, {"time": 26881, "pitch": 66, "duration": 490, "velocity": 83}, {"time": 26882, "pitch": 59, "duration": 488, "velocity": 88}, {"time": 26883, "pitch": 71, "duration": 487, "velocity": 83}, {"time": 26887, "pitch": 75, "duration": 496, "velocity": 71}, {"time": 27362, "pitch": 61, "duration": 986, "velocity": 83}, {"time": 27612, "pitch": 65, "duration": 287, "velocity": 76}, {"time": 27847, "pitch": 73, "duration": 466, "velocity": 83}, {"time": 28080, "pitch": 68, "duration": 281, "velocity": 73}, {"time": 28331, "pitch": 60, "duration": 976, "velocity": 77}, {"time": 28568, "pitch": 65, "duration": 736, "velocity": 66}, {"time": 28807, "pitch": 73, "duration": 492, "velocity": 83}, {"time": 29052, "pitch": 68, "duration": 249, "velocity": 87}, {"time": 29307, "pitch": 58, "duration": 983, "velocity": 71}, {"time": 29552, "pitch": 65, "duration": 249, "velocity": 88}, {"time": 29780, "pitch": 68, "duration": 351, "velocity": 83}, {"time": 30018, "pitch": 65, "duration": 263, "velocity": 91}, {"time": 30256, "pitch": 56, "duration": 982, "velocity": 80}, {"time": 30477, "pitch": 63, "duration": 759, "velocity": 63}, {"time": 30713, "pitch": 72, "duration": 520, "velocity": 91}, {"time": 30984, "pitch": 68, "duration": 246, "velocity": 71}, {"time": 31220, "pitch": 54, "duration": 765, "velocity": 83}, {"time": 31462, "pitch": 61, "duration": 716, "velocity": 73}, {"time": 31687, "pitch": 70, "duration": 547, "velocity": 83}, {"time": 31915, "pitch": 65, "duration": 284, "velocity": 97}, {"time": 32163, "pitch": 53, "duration": 926, "velocity": 75}, {"time": 32396, "pitch": 61, "duration": 719, "velocity": 76}, {"time": 32633, "pitch": 70, "duration": 440, "velocity": 91}, {"time": 32890, "pitch": 65, "duration": 200, "velocity": 104}, {"time": 33113, "pitch": 51, "duration": 1013, "velocity": 87}, {"time": 33373, "pitch": 58, "duration": 745, "velocity": 83}, {"time": 33602, "pitch": 70, "duration": 514, "velocity": 80}, {"time": 33867, "pitch": 61, "duration": 267, "velocity": 59}, {"time": 34080, "pitch": 56, "duration": 466, "velocity": 76}, {"time": 34089, "pitch": 63, "duration": 467, "velocity": 73}, {"time": 34106, "pitch": 68, "duration": 460, "velocity": 55}, {"time": 34115, "pitch": 72, "duration": 461, "velocity": 94}, {"time": 34561, "pitch": 56, "duration": 474, "velocity": 65}, {"time": 34568, "pitch": 63, "duration": 486, "velocity": 83}, {"time": 34582, "pitch": 68, "duration": 467, "velocity": 32}, {"time": 34601, "pitch": 72, "duration": 435, "velocity": 75}, {"time": 35067, "pitch": 54, "duration": 946, "velocity": 73}, {"time": 35306, "pitch": 61, "duration": 705, "velocity": 73}, {"time": 35531, "pitch": 70, "duration": 448, "velocity": 83}, {"time": 35760, "pitch": 66, "duration": 261, "velocity": 71}, {"time": 35998, "pitch": 56, "duration": 977, "velocity": 83}, {"time": 36247, "pitch": 63, "duration": 728, "velocity": 83}, {"time": 36474, "pitch": 72, "duration": 515, "velocity": 88}, {"time": 36719, "pitch": 68, "duration": 259, "velocity": 83}, {"time": 36958, "pitch": 53, "duration": 943, "velocity": 88}, {"time": 37212, "pitch": 60, "duration": 701, "velocity": 88}, {"time": 37448, "pitch": 68, "duration": 458, "velocity": 76}, {"time": 37684, "pitch": 63, "duration": 239, "velocity": 73}, {"time": 37923, "pitch": 58, "duration": 397, "velocity": 66}, {"time": 38170, "pitch": 65, "duration": 232, "velocity": 86}, {"time": 38177, "pitch": 68, "duration": 274, "velocity": 76}, {"time": 38187, "pitch": 73, "duration": 270, "velocity": 83}, {"time": 38411, "pitch": 56, "duration": 455, "velocity": 64}, {"time": 38646, "pitch": 65, "duration": 236, "velocity": 79}, {"time": 38659, "pitch": 68, "duration": 248, "velocity": 76}, {"time": 38676, "pitch": 73, "duration": 237, "velocity": 71}, {"time": 38836, "pitch": 54, "duration": 1937, "velocity": 30}, {"time": 38868, "pitch": 61, "duration": 1911, "velocity": 80}, {"time": 38893, "pitch": 65, "duration": 1897, "velocity": 64}, {"time": 38909, "pitch": 70, "duration": 1895, "velocity": 57}, {"time": 38929, "pitch": 73, "duration": 1866, "velocity": 71}, {"time": 40805, "pitch": 63, "duration": 263, "velocity": 73}, {"time": 40808, "pitch": 68, "duration": 291, "velocity": 51}, {"time": 40812, "pitch": 72, "duration": 258, "velocity": 91}, {"time": 41050, "pitch": 56, "duration": 269, "velocity": 76}, {"time": 41299, "pitch": 63, "duration": 247, "velocity": 80}, {"time": 41309, "pitch": 68, "duration": 257, "velocity": 61}, {"time": 41323, "pitch": 72, "duration": 234, "velocity": 73}, {"time": 41536, "pitch": 56, "duration": 219, "velocity": 71}, {"time": 41765, "pitch": 58, "duration": 455, "velocity": 57}, {"time": 41776, "pitch": 65, "duration": 459, "velocity": 81}, {"time": 41787, "pitch": 70, "duration": 458, "velocity": 55}, {"time": 41791, "pitch": 75, "duration": 454, "velocity": 53}, {"time": 42243, "pitch": 58, "duration": 443, "velocity": 87}, {"time": 42256, "pitch": 65, "duration": 450, "velocity": 88}, {"time": 42265, "pitch": 70, "duration": 453, "velocity": 51}, {"time": 42276, "pitch": 74, "duration": 448, "velocity": 97}, {"time": 42723, "pitch": 63, "duration": 337, "velocity": 83}, {"time": 42971, "pitch": 67, "duration": 270, "velocity": 88}, {"time": 42974, "pitch": 70, "duration": 273, "velocity": 76}, {"time": 43219, "pitch": 63, "duration": 78, "velocity": 91}, {"time": 43457, "pitch": 67, "duration": 492, "velocity": 101}, {"time": 43466, "pitch": 70, "duration": 492, "velocity": 95}, {"time": 43944, "pitch": 72, "duration": 47, "velocity": 97}, {"time": 44168, "pitch": 74, "duration": 490, "velocity": 104}, {"time": 44640, "pitch": 55, "duration": 261, "velocity": 94}, {"time": 44876, "pitch": 62, "duration": 267, "velocity": 97}, {"time": 44880, "pitch": 65, "duration": 266, "velocity": 86}, {"time": 45127, "pitch": 55, "duration": 60, "velocity": 89}, {"time": 45373, "pitch": 72, "duration": 490, "velocity": 104}, {"time": 45838, "pitch": 74, "duration": 65, "velocity": 97}, {"time": 46082, "pitch": 75, "duration": 455, "velocity": 104}, {"time": 46553, "pitch": 56, "duration": 272, "velocity": 87}, {"time": 46789, "pitch": 68, "duration": 257, "velocity": 91}, {"time": 46794, "pitch": 63, "duration": 259, "velocity": 63}, {"time": 47036, "pitch": 56, "duration": 89, "velocity": 104}, {"time": 47284, "pitch": 65, "duration": 484, "velocity": 97}, {"time": 47286, "pitch": 70, "duration": 491, "velocity": 83}, {"time": 47763, "pitch": 72, "duration": 50, "velocity": 108}, {"time": 47998, "pitch": 74, "duration": 461, "velocity": 117}, {"time": 48462, "pitch": 65, "duration": 288, "velocity": 75}, {"time": 48464, "pitch": 70, "duration": 271, "velocity": 73}, {"time": 48469, "pitch": 74, "duration": 263, "velocity": 81}, {"time": 48718, "pitch": 55, "duration": 275, "velocity": 83}, {"time": 48963, "pitch": 65, "duration": 277, "velocity": 73}, {"time": 48973, "pitch": 70, "duration": 275, "velocity": 73}, {"time": 48978, "pitch": 74, "duration": 262, "velocity": 70}, {"time": 49230, "pitch": 55, "duration": 220, "velocity": 91}, {"time": 49452, "pitch": 63, "duration": 251, "velocity": 51}, {"time": 49475, "pitch": 67, "duration": 236, "velocity": 101}, {"time": 49484, "pitch": 72, "duration": 231, "velocity": 86}, {"time": 49709, "pitch": 60, "duration": 243, "velocity": 97}, {"time": 49932, "pitch": 63, "duration": 284, "velocity": 41}, {"time": 49941, "pitch": 67, "duration": 244, "velocity": 97}, {"time": 49944, "pitch": 72, "duration": 236, "velocity": 75}, {"time": 50181, "pitch": 60, "duration": 245, "velocity": 101}, {"time": 50383, "pitch": 63, "duration": 253, "velocity": 71}, {"time": 50388, "pitch": 68, "duration": 270, "velocity": 63}, {"time": 50404, "pitch": 72, "duration": 241, "velocity": 70}, {"time": 50634, "pitch": 56, "duration": 233, "velocity": 63}, {"time": 50875, "pitch": 63, "duration": 256, "velocity": 65}, {"time": 50881, "pitch": 68, "duration": 270, "velocity": 68}, {"time": 50892, "pitch": 72, "duration": 259, "velocity": 77}, {"time": 51123, "pitch": 56, "duration": 205, "velocity": 68}, {"time": 51352, "pitch": 65, "duration": 278, "velocity": 70}, {"time": 51361, "pitch": 70, "duration": 253, "velocity": 65}, {"time": 51367, "pitch": 74, "duration": 239, "velocity": 91}, {"time": 51598, "pitch": 58, "duration": 254, "velocity": 68}, {"time": 51833, "pitch": 65, "duration": 262, "velocity": 73}, {"time": 51838, "pitch": 74, "duration": 262, "velocity": 73}, {"time": 51841, "pitch": 70, "duration": 259, "velocity": 63}, {"time": 52083, "pitch": 58, "duration": 247, "velocity": 73}, {"time": 52318, "pitch": 65, "duration": 250, "velocity": 75}, {"time": 52333, "pitch": 70, "duration": 244, "velocity": 61}, {"time": 52337, "pitch": 74, "duration": 234, "velocity": 75}, {"time": 52574, "pitch": 55, "duration": 268, "velocity": 94}, {"time": 52809, "pitch": 65, "duration": 255, "velocity": 71}, {"time": 52812, "pitch": 74, "duration": 253, "velocity": 77}, {"time": 52814, "pitch": 70, "duration": 257, "velocity": 65}, {"time": 53068, "pitch": 55, "duration": 215, "velocity": 104}, {"time": 53289, "pitch": 63, "duration": 254, "velocity": 59}, {"time": 53298, "pitch": 67, "duration": 243, "velocity": 97}, {"time": 53318, "pitch": 72, "duration": 223, "velocity": 80}, {"time": 53532, "pitch": 60, "duration": 236, "velocity": 91}, {"time": 53766, "pitch": 63, "duration": 258, "velocity": 46}, {"time": 53771, "pitch": 67, "duration": 243, "velocity": 97}, {"time": 53781, "pitch": 72, "duration": 254, "velocity": 63}, {"time": 54011, "pitch": 58, "duration": 197, "velocity": 83}, {"time": 54240, "pitch": 60, "duration": 246, "velocity": 94}, {"time": 54463, "pitch": 68, "duration": 254, "velocity": 76}, {"time": 54466, "pitch": 65, "duration": 257, "velocity": 73}, {"time": 54469, "pitch": 72, "duration": 243, "velocity": 73}, {"time": 54715, "pitch": 60, "duration": 76, "velocity": 88}, {"time": 54965, "pitch": 70, "duration": 484, "velocity": 80}, {"time": 54968, "pitch": 74, "duration": 473, "velocity": 88}, {"time": 55438, "pitch": 75, "duration": 67, "velocity": 80}, {"time": 55678, "pitch": 77, "duration": 448, "velocity": 73}, {"time": 56129, "pitch": 65, "duration": 978, "velocity": 73}, {"time": 56169, "pitch": 68, "duration": 935, "velocity": 88}, {"time": 56182, "pitch": 71, "duration": 950, "velocity": 68}, {"time": 56194, "pitch": 77, "duration": 907, "velocity": 86}, {"time": 57096, "pitch": 63, "duration": 967, "velocity": 41}, {"time": 57127, "pitch": 67, "duration": 939, "velocity": 104}, {"time": 57156, "pitch": 70, "duration": 912, "velocity": 73}, {"time": 57185, "pitch": 75, "duration": 884, "velocity": 55}, {"time": 58071, "pitch": 64, "duration": 471, "velocity": 86}, {"time": 58087, "pitch": 71, "duration": 460, "velocity": 101}, {"time": 58094, "pitch": 76, "duration": 496, "velocity": 61}, {"time": 58102, "pitch": 80, "duration": 489, "velocity": 83}, {"time": 58555, "pitch": 64, "duration": 31, "velocity": 40}, {"time": 58558, "pitch": 71, "duration": 33, "velocity": 40}, {"time": 58703, "pitch": 71, "duration": 36, "velocity": 40}, {"time": 58707, "pitch": 64, "duration": 24, "velocity": 40}, {"time": 58789, "pitch": 66, "duration": 1154, "velocity": 91}, {"time": 58800, "pitch": 73, "duration": 1179, "velocity": 83}, {"time": 58801, "pitch": 78, "duration": 1152, "velocity": 88}, {"time": 58810, "pitch": 82, "duration": 1159, "velocity": 83}, {"time": 59994, "pitch": 61, "duration": 468, "velocity": 71}, {"time": 60007, "pitch": 65, "duration": 463, "velocity": 108}, {"time": 60014, "pitch": 68, "duration": 452, "velocity": 83}, {"time": 60016, "pitch": 73, "duration": 454, "velocity": 80}, {"time": 60468, "pitch": 61, "duration": 475, "velocity": 73}, {"time": 60482, "pitch": 65, "duration": 457, "velocity": 104}, {"time": 60486, "pitch": 68, "duration": 455, "velocity": 76}, {"time": 60486, "pitch": 73, "duration": 461, "velocity": 76}, {"time": 60950, "pitch": 73, "duration": 136, "velocity": 100}, {"time": 61089, "pitch": 73, "duration": 67, "velocity": 95}, {"time": 61153, "pitch": 68, "duration": 272, "velocity": 83}, {"time": 61428, "pitch": 65, "duration": 479, "velocity": 101}, {"time": 61903, "pitch": 60, "duration": 897, "velocity": 97}, {"time": 62150, "pitch": 65, "duration": 652, "velocity": 86}, {"time": 62385, "pitch": 68, "duration": 460, "velocity": 95}, {"time": 62768, "pitch": 72, "duration": 78, "velocity": 88}, {"time": 62768, "pitch": 75, "duration": 84, "velocity": 87}, {"time": 63011, "pitch": 72, "duration": 109, "velocity": 104}, {"time": 63017, "pitch": 75, "duration": 125, "velocity": 91}, {"time": 63106, "pitch": 60, "duration": 64, "velocity": 40}, {"time": 63111, "pitch": 65, "duration": 53, "velocity": 40}, {"time": 63271, "pitch": 60, "duration": 39, "velocity": 40}, {"time": 63274, "pitch": 65, "duration": 44, "velocity": 40}, {"time": 63335, "pitch": 68, "duration": 472, "velocity": 91}, {"time": 63348, "pitch": 72, "duration": 462, "velocity": 97}, {"time": 63824, "pitch": 58, "duration": 1407, "velocity": 73}, {"time": 64080, "pitch": 65, "duration": 721, "velocity": 104}, {"time": 64312, "pitch": 70, "duration": 469, "velocity": 83}, {"time": 64800, "pitch": 70, "duration": 75, "velocity": 91}, {"time": 64872, "pitch": 73, "duration": 62, "velocity": 75}, {"time": 64925, "pitch": 70, "duration": 106, "velocity": 83}, {"time": 65028, "pitch": 65, "duration": 253, "velocity": 83}, {"time": 65275, "pitch": 61, "duration": 288, "velocity": 80}, {"time": 65525, "pitch": 58, "duration": 197, "velocity": 95}, {"time": 65769, "pitch": 54, "duration": 909, "velocity": 73}, {"time": 66020, "pitch": 57, "duration": 655, "velocity": 101}, {"time": 66253, "pitch": 61, "duration": 453, "velocity": 76}, {"time": 66708, "pitch": 56, "duration": 419, "velocity": 61}, {"time": 66723, "pitch": 63, "duration": 403, "velocity": 87}, {"time": 66725, "pitch": 68, "duration": 409, "velocity": 65}, {"time": 66725, "pitch": 73, "duration": 423, "velocity": 80}, {"time": 67194, "pitch": 56, "duration": 474, "velocity": 68}, {"time": 67216, "pitch": 63, "duration": 452, "velocity": 87}, {"time": 67220, "pitch": 68, "duration": 477, "velocity": 71}, {"time": 67226, "pitch": 72, "duration": 478, "velocity": 88}, {"time": 67669, "pitch": 61, "duration": 974, "velocity": 83}, {"time": 67913, "pitch": 65, "duration": 482, "velocity": 86}, {"time": 68163, "pitch": 68, "duration": 365, "velocity": 63}, {"time": 68169, "pitch": 73, "duration": 328, "velocity": 54}, {"time": 68405, "pitch": 65, "duration": 249, "velocity": 94}, {"time": 68647, "pitch": 73, "duration": 135, "velocity": 100}, {"time": 68785, "pitch": 73, "duration": 67, "velocity": 95}, {"time": 68849, "pitch": 68, "duration": 273, "velocity": 83}, {"time": 69125, "pitch": 65, "duration": 259, "velocity": 101}, {"time": 69385, "pitch": 61, "duration": 229, "velocity": 87}, {"time": 69600, "pitch": 60, "duration": 891, "velocity": 97}, {"time": 69840, "pitch": 65, "duration": 653, "velocity": 86}, {"time": 70070, "pitch": 68, "duration": 467, "velocity": 95}, {"time": 70459, "pitch": 72, "duration": 79, "velocity": 88}, {"time": 70459, "pitch": 75, "duration": 85, "velocity": 87}, {"time": 70700, "pitch": 72, "duration": 108, "velocity": 104}, {"time": 70706, "pitch": 75, "duration": 124, "velocity": 91}, {"time": 70794, "pitch": 60, "duration": 63, "velocity": 40}, {"time": 70799, "pitch": 65, "duration": 52, "velocity": 40}, {"time": 70956, "pitch": 60, "duration": 38, "velocity": 40}, {"time": 70959, "pitch": 65, "duration": 43, "velocity": 40}, {"time": 71019, "pitch": 68, "duration": 479, "velocity": 91}, {"time": 71032, "pitch": 72, "duration": 469, "velocity": 97}, {"time": 71515, "pitch": 58, "duration": 1394, "velocity": 73}, {"time": 71765, "pitch": 65, "duration": 715, "velocity": 104}, {"time": 71990, "pitch": 70, "duration": 470, "velocity": 83}, {"time": 72479, "pitch": 70, "duration": 75, "velocity": 91}, {"time": 72551, "pitch": 73, "duration": 62, "velocity": 75}, {"time": 72604, "pitch": 70, "duration": 106, "velocity": 83}, {"time": 72707, "pitch": 65, "duration": 252, "velocity": 83}, {"time": 72953, "pitch": 61, "duration": 292, "velocity": 80}, {"time": 73206, "pitch": 58, "duration": 201, "velocity": 95}, {"time": 73454, "pitch": 54, "duration": 903, "velocity": 73}, {"time": 73702, "pitch": 57, "duration": 652, "velocity": 101}, {"time": 73931, "pitch": 61, "duration": 454, "velocity": 76}, {"time": 74387, "pitch": 56, "duration": 419, "velocity": 61}, {"time": 74402, "pitch": 63, "duration": 403, "velocity": 87}, {"time": 74404, "pitch": 68, "duration": 409, "velocity": 65}, {"time": 74404, "pitch": 73, "duration": 423, "velocity": 80}, {"time": 74872, "pitch": 56, "duration": 487, "velocity": 68}, {"time": 74894, "pitch": 63, "duration": 465, "velocity": 87}, {"time": 74898, "pitch": 68, "duration": 490, "velocity": 71}, {"time": 74904, "pitch": 72, "duration": 491, "velocity": 88}, {"time": 75326, "pitch": 57, "duration": 784, "velocity": 56}, {"time": 75360, "pitch": 64, "duration": 761, "velocity": 94}, {"time": 75386, "pitch": 69, "duration": 738, "velocity": 73}, {"time": 75410, "pitch": 73, "duration": 719, "velocity": 46}, {"time": 76221, "pitch": 64, "duration": 77, "velocity": 94}, {"time": 76222, "pitch": 69, "duration": 89, "velocity": 77}, {"time": 76223, "pitch": 73, "duration": 95, "velocity": 61}, {"time": 76224, "pitch": 57, "duration": 103, "velocity": 91}, {"time": 76461, "pitch": 73, "duration": 94, "velocity": 76}, {"time": 76462, "pitch": 57, "duration": 84, "velocity": 97}, {"time": 76464, "pitch": 69, "duration": 89, "velocity": 86}, {"time": 76465, "pitch": 64, "duration": 81, "velocity": 104}, {"time": 76556, "pitch": 64, "duration": 26, "velocity": 40}, {"time": 76560, "pitch": 57, "duration": 22, "velocity": 40}, {"time": 76701, "pitch": 57, "duration": 27, "velocity": 40}, {"time": 76705, "pitch": 64, "duration": 36, "velocity": 40}, {"time": 76793, "pitch": 57, "duration": 244, "velocity": 97}, {"time": 76795, "pitch": 73, "duration": 252, "velocity": 73}, {"time": 76797, "pitch": 69, "duration": 235, "velocity": 91}, {"time": 76798, "pitch": 64, "duration": 234, "velocity": 104}, {"time": 77034, "pitch": 64, "duration": 147, "velocity": 101}, {"time": 77037, "pitch": 69, "duration": 129, "velocity": 77}, {"time": 77037, "pitch": 73, "duration": 10, "velocity": 71}, {"time": 77040, "pitch": 57, "duration": 141, "velocity": 88}, {"time": 77179, "pitch": 69, "duration": 112, "velocity": 75}, {"time": 77183, "pitch": 64, "duration": 108, "velocity": 108}, {"time": 77185, "pitch": 57, "duration": 91, "velocity": 101}, {"time": 77185, "pitch": 73, "duration": 101, "velocity": 73}, {"time": 77272, "pitch": 75, "duration": 213, "velocity": 71}, {"time": 77277, "pitch": 59, "duration": 213, "velocity": 77}, {"time": 77281, "pitch": 71, "duration": 470, "velocity": 67}, {"time": 77283, "pitch": 66, "duration": 207, "velocity": 73}, {"time": 77493, "pitch": 59, "duration": 248, "velocity": 51}, {"time": 77497, "pitch": 75, "duration": 244, "velocity": 71}, {"time": 77503, "pitch": 66, "duration": 238, "velocity": 73}, {"time": 77754, "pitch": 71, "duration": 616, "velocity": 77}, {"time": 77758, "pitch": 59, "duration": 377, "velocity": 79}, {"time": 77759, "pitch": 75, "duration": 371, "velocity": 71}, {"time": 77760, "pitch": 66, "duration": 375, "velocity": 83}, {"time": 78138, "pitch": 75, "duration": 237, "velocity": 73}, {"time": 78139, "pitch": 59, "duration": 241, "velocity": 88}, {"time": 78142, "pitch": 66, "duration": 233, "velocity": 83}, {"time": 78381, "pitch": 66, "duration": 329, "velocity": 83}, {"time": 78384, "pitch": 71, "duration": 321, "velocity": 79}, {"time": 78386, "pitch": 59, "duration": 319, "velocity": 86}, {"time": 78386, "pitch": 75, "duration": 319, "velocity": 73}, {"time": 78713, "pitch": 66, "duration": 496, "velocity": 83}, {"time": 78714, "pitch": 59, "duration": 494, "velocity": 88}, {"time": 78715, "pitch": 71, "duration": 493, "velocity": 83}, {"time": 78719, "pitch": 75, "duration": 502, "velocity": 71}, {"time": 79200, "pitch": 61, "duration": 986, "velocity": 83}, {"time": 79450, "pitch": 65, "duration": 287, "velocity": 76}, {"time": 79685, "pitch": 73, "duration": 466, "velocity": 83}, {"time": 79918, "pitch": 68, "duration": 281, "velocity": 73}, {"time": 80169, "pitch": 60, "duration": 970, "velocity": 77}, {"time": 80406, "pitch": 65, "duration": 730, "velocity": 66}, {"time": 80645, "pitch": 73, "duration": 486, "velocity": 83}, {"time": 80887, "pitch": 68, "duration": 246, "velocity": 87}, {"time": 81139, "pitch": 58, "duration": 977, "velocity": 71}, {"time": 81381, "pitch": 65, "duration": 246, "velocity": 88}, {"time": 81606, "pitch": 68, "duration": 351, "velocity": 83}, {"time": 81844, "pitch": 65, "duration": 263, "velocity": 91}, {"time": 82083, "pitch": 56, "duration": 989, "velocity": 80}, {"time": 82303, "pitch": 63, "duration": 766, "velocity": 63}, {"time": 82539, "pitch": 72, "duration": 527, "velocity": 91}, {"time": 82812, "pitch": 68, "duration": 251, "velocity": 71}, {"time": 83052, "pitch": 54, "duration": 777, "velocity": 83}, {"time": 83301, "pitch": 61, "duration": 721, "velocity": 73}, {"time": 83531, "pitch": 70, "duration": 548, "velocity": 83}, {"time": 83759, "pitch": 65, "duration": 284, "velocity": 97}, {"time": 84007, "pitch": 53, "duration": 921, "velocity": 75}, {"time": 84241, "pitch": 61, "duration": 712, "velocity": 76}, {"time": 84477, "pitch": 70, "duration": 435, "velocity": 91}, {"time": 84731, "pitch": 65, "duration": 198, "velocity": 104}, {"time": 84951, "pitch": 51, "duration": 1020, "velocity": 87}, {"time": 85211, "pitch": 58, "duration": 752, "velocity": 83}, {"time": 85440, "pitch": 70, "duration": 521, "velocity": 80}, {"time": 85708, "pitch": 61, "duration": 271, "velocity": 59}, {"time": 85924, "pitch": 56, "duration": 472, "velocity": 76}, {"time": 85933, "pitch": 63, "duration": 473, "velocity": 73}, {"time": 85951, "pitch": 68, "duration": 465, "velocity": 55}, {"time": 85960, "pitch": 72, "duration": 466, "velocity": 94}, {"time": 86411, "pitch": 56, "duration": 468, "velocity": 65}, {"time": 86418, "pitch": 63, "duration": 480, "velocity": 83}, {"time": 86432, "pitch": 68, "duration": 461, "velocity": 32}, {"time": 86451, "pitch": 72, "duration": 429, "velocity": 75}, {"time": 86911, "pitch": 54, "duration": 940, "velocity": 73}, {"time": 87147, "pitch": 61, "duration": 702, "velocity": 73}, {"time": 87369, "pitch": 70, "duration": 448, "velocity": 83}, {"time": 87598, "pitch": 66, "duration": 261, "velocity": 71}, {"time": 87836, "pitch": 56, "duration": 977, "velocity": 83}, {"time": 88085, "pitch": 63, "duration": 728, "velocity": 83}, {"time": 88313, "pitch": 72, "duration": 514, "velocity": 88}, {"time": 88557, "pitch": 68, "duration": 259, "velocity": 83}, {"time": 88796, "pitch": 53, "duration": 949, "velocity": 88}, {"time": 89053, "pitch": 60, "duration": 704, "velocity": 88}, {"time": 89292, "pitch": 68, "duration": 458, "velocity": 76}, {"time": 89529, "pitch": 63, "duration": 238, "velocity": 73}, {"time": 89767, "pitch": 58, "duration": 397, "velocity": 66}, {"time": 90014, "pitch": 65, "duration": 232, "velocity": 86}, {"time": 90021, "pitch": 68, "duration": 274, "velocity": 76}, {"time": 90031, "pitch": 73, "duration": 270, "velocity": 83}, {"time": 90255, "pitch": 56, "duration": 455, "velocity": 64}, {"time": 90491, "pitch": 65, "duration": 235, "velocity": 79}, {"time": 90504, "pitch": 68, "duration": 247, "velocity": 76}, {"time": 90521, "pitch": 73, "duration": 236, "velocity": 71}, {"time": 90680, "pitch": 54, "duration": 1931, "velocity": 30}, {"time": 90712, "pitch": 61, "duration": 1905, "velocity": 80}, {"time": 90737, "pitch": 65, "duration": 1891, "velocity": 64}, {"time": 90753, "pitch": 70, "duration": 1889, "velocity": 57}, {"time": 90772, "pitch": 73, "duration": 1861, "velocity": 71}, {"time": 92643, "pitch": 63, "duration": 263, "velocity": 73}, {"time": 92646, "pitch": 68, "duration": 291, "velocity": 51}, {"time": 92650, "pitch": 72, "duration": 258, "velocity": 91}, {"time": 92888, "pitch": 56, "duration": 269, "velocity": 76}, {"time": 93137, "pitch": 63, "duration": 247, "velocity": 80}, {"time": 93147, "pitch": 68, "duration": 257, "velocity": 61}, {"time": 93161, "pitch": 72, "duration": 234, "velocity": 73}, {"time": 93374, "pitch": 56, "duration": 219, "velocity": 71}, {"time": 93603, "pitch": 58, "duration": 455, "velocity": 57}, {"time": 93614, "pitch": 65, "duration": 459, "velocity": 81}, {"time": 93625, "pitch": 70, "duration": 458, "velocity": 55}, {"time": 93629, "pitch": 75, "duration": 454, "velocity": 53}, {"time": 94081, "pitch": 58, "duration": 443, "velocity": 87}, {"time": 94094, "pitch": 65, "duration": 451, "velocity": 88}, {"time": 94103, "pitch": 70, "duration": 454, "velocity": 51}, {"time": 94114, "pitch": 74, "duration": 449, "velocity": 97}, {"time": 94562, "pitch": 63, "duration": 332, "velocity": 83}, {"time": 94806, "pitch": 67, "duration": 267, "velocity": 88}, {"time": 94809, "pitch": 70, "duration": 270, "velocity": 76}, {"time": 95051, "pitch": 63, "duration": 79, "velocity": 91}, {"time": 95292, "pitch": 67, "duration": 496, "velocity": 101}, {"time": 95301, "pitch": 70, "duration": 496, "velocity": 95}, {"time": 95783, "pitch": 72, "duration": 46, "velocity": 97}, {"time": 96006, "pitch": 74, "duration": 490, "velocity": 104}, {"time": 96478, "pitch": 55, "duration": 262, "velocity": 94}, {"time": 96715, "pitch": 62, "duration": 266, "velocity": 97}, {"time": 96719, "pitch": 65, "duration": 265, "velocity": 86}, {"time": 96965, "pitch": 55, "duration": 60, "velocity": 89}, {"time": 97211, "pitch": 72, "duration": 490, "velocity": 104}, {"time": 97676, "pitch": 74, "duration": 65, "velocity": 97}, {"time": 97920, "pitch": 75, "duration": 455, "velocity": 104}, {"time": 98391, "pitch": 56, "duration": 275, "velocity": 87}, {"time": 98630, "pitch": 68, "duration": 260, "velocity": 91}, {"time": 98635, "pitch": 63, "duration": 262, "velocity": 63}, {"time": 98880, "pitch": 56, "duration": 89, "velocity": 104}, {"time": 99128, "pitch": 65, "duration": 484, "velocity": 97}, {"time": 99130, "pitch": 70, "duration": 491, "velocity": 83}, {"time": 99607, "pitch": 72, "duration": 50, "velocity": 108}, {"time": 99842, "pitch": 74, "duration": 455, "velocity": 117}, {"time": 100300, "pitch": 65, "duration": 284, "velocity": 75}, {"time": 100302, "pitch": 70, "duration": 268, "velocity": 73}, {"time": 100307, "pitch": 74, "duration": 260, "velocity": 81}, {"time": 100553, "pitch": 55, "duration": 272, "velocity": 83}, {"time": 100796, "pitch": 65, "duration": 276, "velocity": 73}, {"time": 100805, "pitch": 70, "duration": 275, "velocity": 73}, {"time": 100810, "pitch": 74, "duration": 262, "velocity": 70}, {"time": 101062, "pitch": 55, "duration": 220, "velocity": 91}, {"time": 101284, "pitch": 63, "duration": 254, "velocity": 51}, {"time": 101307, "pitch": 67, "duration": 239, "velocity": 101}, {"time": 101316, "pitch": 72, "duration": 234, "velocity": 86}, {"time": 101544, "pitch": 60, "duration": 247, "velocity": 97}, {"time": 101770, "pitch": 63, "duration": 288, "velocity": 41}, {"time": 101780, "pitch": 67, "duration": 247, "velocity": 97}, {"time": 101783, "pitch": 72, "duration": 239, "velocity": 75}, {"time": 102023, "pitch": 60, "duration": 247, "velocity": 101}, {"time": 102227, "pitch": 63, "duration": 253, "velocity": 71}, {"time": 102232, "pitch": 68, "duration": 270, "velocity": 63}, {"time": 102248, "pitch": 72, "duration": 241, "velocity": 70}, {"time": 102478, "pitch": 56, "duration": 233, "velocity": 63}, {"time": 102719, "pitch": 63, "duration": 257, "velocity": 65}, {"time": 102725, "pitch": 68, "duration": 271, "velocity": 68}, {"time": 102736, "pitch": 72, "duration": 260, "velocity": 77}, {"time": 102968, "pitch": 56, "duration": 204, "velocity": 68}, {"time": 103196, "pitch": 65, "duration": 278, "velocity": 70}, {"time": 103205, "pitch": 70, "duration": 253, "velocity": 65}, {"time": 103211, "pitch": 74, "duration": 239, "velocity": 91}, {"time": 103442, "pitch": 58, "duration": 254, "velocity": 68}, {"time": 103677, "pitch": 65, "duration": 259, "velocity": 73}, {"time": 103682, "pitch": 74, "duration": 259, "velocity": 73}, {"time": 103685, "pitch": 70, "duration": 256, "velocity": 63}, {"time": 103924, "pitch": 58, "duration": 244, "velocity": 73}, {"time": 104156, "pitch": 65, "duration": 250, "velocity": 75}, {"time": 104171, "pitch": 70, "duration": 244, "velocity": 61}, {"time": 104175, "pitch": 74, "duration": 234, "velocity": 75}, {"time": 104412, "pitch": 55, "duration": 268, "velocity": 94}, {"time": 104647, "pitch": 65, "duration": 255, "velocity": 71}, {"time": 104650, "pitch": 74, "duration": 253, "velocity": 77}, {"time": 104652, "pitch": 70, "duration": 257, "velocity": 65}, {"time": 104906, "pitch": 55, "duration": 215, "velocity": 104}, {"time": 105127, "pitch": 63, "duration": 254, "velocity": 59}, {"time": 105136, "pitch": 67, "duration": 243, "velocity": 97}, {"time": 105156, "pitch": 72, "duration": 223, "velocity": 80}, {"time": 105370, "pitch": 60, "duration": 236, "velocity": 91}, {"time": 105604, "pitch": 63, "duration": 261, "velocity": 46}, {"time": 105609, "pitch": 67, "duration": 246, "velocity": 97}, {"time": 105619, "pitch": 72, "duration": 257, "velocity": 63}, {"time": 105852, "pitch": 58, "duration": 200, "velocity": 83}, {"time": 106084, "pitch": 60, "duration": 246, "velocity": 94}, {"time": 106307, "pitch": 68, "duration": 254, "velocity": 76}, {"time": 106310, "pitch": 65, "duration": 257, "velocity": 73}, {"time": 106313, "pitch": 72, "duration": 243, "velocity": 73}, {"time": 106559, "pitch": 60, "duration": 75, "velocity": 88}, {"time": 106806, "pitch": 70, "duration": 481, "velocity": 80}, {"time": 106809, "pitch": 74, "duration": 470, "velocity": 88}, {"time": 107276, "pitch": 75, "duration": 67, "velocity": 80}, {"time": 107516, "pitch": 77, "duration": 452, "velocity": 73}, {"time": 107972, "pitch": 65, "duration": 985, "velocity": 73}, {"time": 108014, "pitch": 68, "duration": 940, "velocity": 88}, {"time": 108027, "pitch": 71, "duration": 955, "velocity": 68}, {"time": 108039, "pitch": 77, "duration": 912, "velocity": 86}, {"time": 108947, "pitch": 63, "duration": 954, "velocity": 41}, {"time": 108977, "pitch": 67, "duration": 927, "velocity": 104}, {"time": 109007, "pitch": 70, "duration": 899, "velocity": 73}, {"time": 109036, "pitch": 75, "duration": 871, "velocity": 55}, {"time": 109925, "pitch": 63, "duration": 333, "velocity": 83}, {"time": 110170, "pitch": 67, "duration": 266, "velocity": 88}, {"time": 110173, "pitch": 70, "duration": 269, "velocity": 76}, {"time": 110414, "pitch": 63, "duration": 78, "velocity": 91}, {"time": 110652, "pitch": 67, "duration": 493, "velocity": 101}, {"time": 110661, "pitch": 70, "duration": 493, "velocity": 95}, {"time": 111140, "pitch": 72, "duration": 47, "velocity": 97}, {"time": 111363, "pitch": 74, "duration": 490, "velocity": 104}, {"time": 111835, "pitch": 55, "duration": 262, "velocity": 94}, {"time": 112072, "pitch": 62, "duration": 266, "velocity": 97}, {"time": 112076, "pitch": 65, "duration": 265, "velocity": 86}, {"time": 112322, "pitch": 55, "duration": 60, "velocity": 89}, {"time": 112568, "pitch": 72, "duration": 490, "velocity": 104}, {"time": 113033, "pitch": 74, "duration": 65, "velocity": 97}, {"time": 113277, "pitch": 75, "duration": 455, "velocity": 104}, {"time": 113748, "pitch": 56, "duration": 278, "velocity": 87}, {"time": 113990, "pitch": 68, "duration": 264, "velocity": 91}, {"time": 113995, "pitch": 63, "duration": 266, "velocity": 63}, {"time": 114244, "pitch": 56, "duration": 89, "velocity": 104}, {"time": 114492, "pitch": 65, "duration": 483, "velocity": 97}, {"time": 114494, "pitch": 70, "duration": 490, "velocity": 83}, {"time": 114970, "pitch": 72, "duration": 50, "velocity": 108}, {"time": 115206, "pitch": 74, "duration": 454, "velocity": 117}, {"time": 115663, "pitch": 65, "duration": 284, "velocity": 75}, {"time": 115665, "pitch": 70, "duration": 268, "velocity": 73}, {"time": 115670, "pitch": 74, "duration": 260, "velocity": 81}, {"time": 115916, "pitch": 55, "duration": 273, "velocity": 83}, {"time": 116159, "pitch": 65, "duration": 277, "velocity": 73}, {"time": 116169, "pitch": 70, "duration": 275, "velocity": 73}, {"time": 116174, "pitch": 74, "duration": 262, "velocity": 70}, {"time": 116426, "pitch": 55, "duration": 219, "velocity": 91}, {"time": 116647, "pitch": 63, "duration": 251, "velocity": 51}, {"time": 116670, "pitch": 67, "duration": 236, "velocity": 101}, {"time": 116679, "pitch": 72, "duration": 231, "velocity": 86}, {"time": 116904, "pitch": 60, "duration": 244, "velocity": 97}, {"time": 117127, "pitch": 63, "duration": 289, "velocity": 41}, {"time": 117137, "pitch": 67, "duration": 247, "velocity": 97}, {"time": 117140, "pitch": 72, "duration": 239, "velocity": 75}, {"time": 117380, "pitch": 60, "duration": 247, "velocity": 101}, {"time": 117584, "pitch": 63, "duration": 253, "velocity": 71}, {"time": 117589, "pitch": 68, "duration": 270, "velocity": 63}, {"time": 117605, "pitch": 72, "duration": 241, "velocity": 70}, {"time": 117835, "pitch": 56, "duration": 233, "velocity": 63}, {"time": 118076, "pitch": 63, "duration": 257, "velocity": 65}, {"time": 118082, "pitch": 68, "duration": 271, "velocity": 68}, {"time": 118093, "pitch": 72, "duration": 260, "velocity": 77}, {"time": 118325, "pitch": 56, "duration": 204, "velocity": 68}, {"time": 118553, "pitch": 65, "duration": 278, "velocity": 70}, {"time": 118562, "pitch": 70, "duration": 253, "velocity": 65}, {"time": 118568, "pitch": 74, "duration": 239, "velocity": 91}, {"time": 118799, "pitch": 58, "duration": 254, "velocity": 68}, {"time": 119034, "pitch": 65, "duration": 259, "velocity": 73}, {"time": 119039, "pitch": 74, "duration": 259, "velocity": 73}, {"time": 119042, "pitch": 70, "duration": 256, "velocity": 63}, {"time": 119281, "pitch": 58, "duration": 244, "velocity": 73}, {"time": 119513, "pitch": 65, "duration": 250, "velocity": 75}, {"time": 119528, "pitch": 70, "duration": 244, "velocity": 61}, {"time": 119532, "pitch": 74, "duration": 234, "velocity": 75}, {"time": 119769, "pitch": 55, "duration": 268, "velocity": 94}, {"time": 120004, "pitch": 65, "duration": 258, "velocity": 71}, {"time": 120007, "pitch": 74, "duration": 256, "velocity": 77}, {"time": 120009, "pitch": 70, "duration": 260, "velocity": 65}, {"time": 120266, "pitch": 55, "duration": 219, "velocity": 104}, {"time": 120491, "pitch": 63, "duration": 253, "velocity": 59}, {"time": 120500, "pitch": 67, "duration": 242, "velocity": 97}, {"time": 120520, "pitch": 72, "duration": 222, "velocity": 80}, {"time": 120734, "pitch": 60, "duration": 235, "velocity": 91}, {"time": 120967, "pitch": 63, "duration": 261, "velocity": 46}, {"time": 120972, "pitch": 67, "duration": 246, "velocity": 97}, {"time": 120982, "pitch": 72, "duration": 257, "velocity": 63}, {"time": 121215, "pitch": 58, "duration": 201, "velocity": 83}, {"time": 121448, "pitch": 60, "duration": 246, "velocity": 94}, {"time": 121671, "pitch": 68, "duration": 253, "velocity": 76}, {"time": 121674, "pitch": 65, "duration": 256, "velocity": 73}, {"time": 121677, "pitch": 72, "duration": 242, "velocity": 73}, {"time": 121922, "pitch": 60, "duration": 75, "velocity": 88}, {"time": 122169, "pitch": 70, "duration": 482, "velocity": 80}, {"time": 122172, "pitch": 74, "duration": 471, "velocity": 88}, {"time": 122640, "pitch": 75, "duration": 67, "velocity": 80}, {"time": 122879, "pitch": 77, "duration": 447, "velocity": 73}, {"time": 123330, "pitch": 65, "duration": 1943, "velocity": 73}, {"time": 123371, "pitch": 68, "duration": 1899, "velocity": 88}, {"time": 123384, "pitch": 71, "duration": 1914, "velocity": 68}, {"time": 123396, "pitch": 77, "duration": 1871, "velocity": 86}, {"time": 125263, "pitch": 63, "duration": 1440, "velocity": 41}, {"time": 125293, "pitch": 67, "duration": 1413, "velocity": 104}, {"time": 125323, "pitch": 70, "duration": 1385, "velocity": 73}, {"time": 125352, "pitch": 75, "duration": 1357, "velocity": 55}, {"time": 126718, "pitch": 63, "duration": 460, "velocity": 44}, {"time": 126724, "pitch": 70, "duration": 445, "velocity": 53}, {"time": 126729, "pitch": 67, "duration": 451, "velocity": 80}, {"time": 126732, "pitch": 75, "duration": 436, "velocity": 101}, {"time": 127212, "pitch": 61, "duration": 1915, "velocity": 91}, {"time": 127679, "pitch": 68, "duration": 243, "velocity": 80}, {"time": 127683, "pitch": 73, "duration": 219, "velocity": 91}, {"time": 127921, "pitch": 73, "duration": 78, "velocity": 73}, {"time": 127924, "pitch": 68, "duration": 69, "velocity": 87}, {"time": 128065, "pitch": 73, "duration": 166, "velocity": 80}, {"time": 128069, "pitch": 68, "duration": 147, "velocity": 95}, {"time": 128305, "pitch": 68, "duration": 96, "velocity": 87}, {"time": 128305, "pitch": 73, "duration": 97, "velocity": 87}, {"time": 128397, "pitch": 71, "duration": 224, "velocity": 117}, {"time": 128398, "pitch": 66, "duration": 221, "velocity": 80}, {"time": 128639, "pitch": 73, "duration": 242, "velocity": 95}, {"time": 128642, "pitch": 68, "duration": 243, "velocity": 100}, {"time": 128888, "pitch": 68, "duration": 52, "velocity": 40}, {"time": 128894, "pitch": 73, "duration": 63, "velocity": 40}, {"time": 129033, "pitch": 73, "duration": 45, "velocity": 40}, {"time": 129040, "pitch": 68, "duration": 46, "velocity": 40}, {"time": 129133, "pitch": 52, "duration": 968, "velocity": 97}, {"time": 129602, "pitch": 64, "duration": 317, "velocity": 83}, {"time": 129606, "pitch": 59, "duration": 318, "velocity": 104}, {"time": 129976, "pitch": 59, "duration": 103, "velocity": 91}, {"time": 129980, "pitch": 64, "duration": 111, "velocity": 62}, {"time": 130060, "pitch": 54, "duration": 332, "velocity": 87}, {"time": 130224, "pitch": 61, "duration": 118, "velocity": 71}, {"time": 130227, "pitch": 66, "duration": 120, "velocity": 73}, {"time": 130567, "pitch": 66, "duration": 310, "velocity": 87}, {"time": 130570, "pitch": 61, "duration": 322, "velocity": 68}, {"time": 130929, "pitch": 61, "duration": 79, "velocity": 76}, {"time": 130929, "pitch": 66, "duration": 86, "velocity": 87}, {"time": 131048, "pitch": 61, "duration": 1922, "velocity": 91}, {"time": 131515, "pitch": 68, "duration": 243, "velocity": 80}, {"time": 131519, "pitch": 73, "duration": 219, "velocity": 91}, {"time": 131757, "pitch": 73, "duration": 79, "velocity": 73}, {"time": 131760, "pitch": 68, "duration": 70, "velocity": 87}, {"time": 131902, "pitch": 73, "duration": 165, "velocity": 80}, {"time": 131906, "pitch": 68, "duration": 146, "velocity": 95}, {"time": 132141, "pitch": 68, "duration": 96, "velocity": 87}, {"time": 132141, "pitch": 73, "duration": 97, "velocity": 87}, {"time": 132233, "pitch": 71, "duration": 224, "velocity": 117}, {"time": 132234, "pitch": 66, "duration": 221, "velocity": 80}, {"time": 132475, "pitch": 73, "duration": 245, "velocity": 95}, {"time": 132478, "pitch": 68, "duration": 246, "velocity": 100}, {"time": 132727, "pitch": 68, "duration": 53, "velocity": 40}, {"time": 132733, "pitch": 73, "duration": 64, "velocity": 40}, {"time": 132875, "pitch": 73, "duration": 45, "velocity": 40}, {"time": 132882, "pitch": 68, "duration": 46, "velocity": 40}, {"time": 132976, "pitch": 52, "duration": 968, "velocity": 97}, {"time": 133444, "pitch": 64, "duration": 317, "velocity": 83}, {"time": 133448, "pitch": 59, "duration": 318, "velocity": 104}, {"time": 133819, "pitch": 59, "duration": 103, "velocity": 91}, {"time": 133823, "pitch": 64, "duration": 111, "velocity": 62}, {"time": 133908, "pitch": 54, "duration": 988, "velocity": 65}, {"time": 134067, "pitch": 66, "duration": 97, "velocity": 76}, {"time": 134071, "pitch": 61, "duration": 93, "velocity": 76}, {"time": 134166, "pitch": 61, "duration": 226, "velocity": 71}, {"time": 134173, "pitch": 66, "duration": 213, "velocity": 100}, {"time": 134406, "pitch": 61, "duration": 482, "velocity": 68}, {"time": 134417, "pitch": 66, "duration": 486, "velocity": 91}, {"time": 134891, "pitch": 49, "duration": 2734, "velocity": 98}, {"time": 134901, "pitch": 53, "duration": 2734, "velocity": 100}, {"time": 134911, "pitch": 56, "duration": 2734, "velocity": 102}, {"time": 134921, "pitch": 61, "duration": 2733, "velocity": 104}, {"time": 958, "pitch": 44, "duration": 10, "velocity": 78}, {"time": 1923, "pitch": 44, "duration": 10, "velocity": 78}, {"time": 2882, "pitch": 44, "duration": 10, "velocity": 78}, {"time": 3841, "pitch": 44, "duration": 10, "velocity": 78}, {"time": 4221, "pitch": 35, "duration": 10, "velocity": 36}, {"time": 4320, "pitch": 35, "duration": 10, "velocity": 77}, {"time": 4800, "pitch": 44, "duration": 10, "velocity": 78}, {"time": 5759, "pitch": 44, "duration": 10, "velocity": 78}, {"time": 6239, "pitch": 35, "duration": 10, "velocity": 77}, {"time": 6239, "pitch": 44, "duration": 10, "velocity": 78}, {"time": 6718, "pitch": 44, "duration": 10, "velocity": 78}, {"time": 7198, "pitch": 35, "duration": 10, "velocity": 77}, {"time": 7198, "pitch": 46, "duration": 10, "velocity": 78}, {"time": 7597, "pitch": 38, "duration": 10, "velocity": 50}, {"time": 7637, "pitch": 38, "duration": 10, "velocity": 64}, {"time": 7677, "pitch": 38, "duration": 10, "velocity": 116}, {"time": 7677, "pitch": 44, "duration": 10, "velocity": 78}, {"time": 7829, "pitch": 38, "duration": 10, "velocity": 109}, {"time": 7920, "pitch": 41, "duration": 10, "velocity": 94}, {"time": 7920, "pitch": 44, "duration": 10, "velocity": 78}, {"time": 8062, "pitch": 38, "duration": 10, "velocity": 36}, {"time": 8112, "pitch": 38, "duration": 10, "velocity": 50}, {"time": 8163, "pitch": 35, "duration": 10, "velocity": 77}, {"time": 8163, "pitch": 49, "duration": 10, "velocity": 78}, {"time": 8403, "pitch": 42, "duration": 10, "velocity": 60}, {"time": 8642, "pitch": 38, "duration": 10, "velocity": 104}, {"time": 8642, "pitch": 42, "duration": 10, "velocity": 90}, {"time": 8882, "pitch": 42, "duration": 10, "velocity": 60}, {"time": 9002, "pitch": 38, "duration": 10, "velocity": 22}, {"time": 9002, "pitch": 42, "duration": 10, "velocity": 36}, {"time": 9042, "pitch": 38, "duration": 10, "velocity": 36}, {"time": 9082, "pitch": 38, "duration": 10, "velocity": 36}, {"time": 9122, "pitch": 35, "duration": 10, "velocity": 77}, {"time": 9122, "pitch": 42, "duration": 10, "velocity": 80}, {"time": 9362, "pitch": 42, "duration": 10, "velocity": 60}, {"time": 9601, "pitch": 38, "duration": 10, "velocity": 104}, {"time": 9601, "pitch": 42, "duration": 10, "velocity": 90}, {"time": 9841, "pitch": 42, "duration": 10, "velocity": 60}, {"time": 10001, "pitch": 38, "duration": 10, "velocity": 50}, {"time": 10081, "pitch": 35, "duration": 10, "velocity": 77}, {"time": 10081, "pitch": 42, "duration": 10, "velocity": 80}, {"time": 10321, "pitch": 42, "duration": 10, "velocity": 60}, {"time": 10560, "pitch": 38, "duration": 10, "velocity": 104}, {"time": 10560, "pitch": 42, "duration": 10, "velocity": 90}, {"time": 10800, "pitch": 42, "duration": 10, "velocity": 60}, {"time": 10920, "pitch": 38, "duration": 10, "velocity": 22}, {"time": 10920, "pitch": 42, "duration": 10, "velocity": 36}, {"time": 10960, "pitch": 38, "duration": 10, "velocity": 36}, {"time": 11000, "pitch": 38, "duration": 10, "velocity": 36}, {"time": 11040, "pitch": 35, "duration": 10, "velocity": 65}, {"time": 11040, "pitch": 42, "duration": 10, "velocity": 80}, {"time": 11190, "pitch": 38, "duration": 10, "velocity": 64}, {"time": 11280, "pitch": 35, "duration": 10, "velocity": 76}, {"time": 11280, "pitch": 42, "duration": 10, "velocity": 60}, {"time": 11520, "pitch": 38, "duration": 9, "velocity": 104}, {"time": 11520, "pitch": 42, "duration": 9, "velocity": 90}, {"time": 11759, "pitch": 42, "duration": 10, "velocity": 60}, {"time": 11909, "pitch": 38, "duration": 10, "velocity": 50}, {"time": 11999, "pitch": 35, "duration": 10, "velocity": 77}, {"time": 11999, "pitch": 42, "duration": 10, "velocity": 80}, {"time": 12239, "pitch": 42, "duration": 10, "velocity": 60}, {"time": 12479, "pitch": 38, "duration": 10, "velocity": 104}, {"time": 12479, "pitch": 42, "duration": 10, "velocity": 90}, {"time": 12718, "pitch": 42, "duration": 10, "velocity": 60}, {"time": 12838, "pitch": 38, "duration": 10, "velocity": 22}, {"time": 12838, "pitch": 42, "duration": 10, "velocity": 36}, {"time": 12878, "pitch": 38, "duration": 10, "velocity": 36}, {"time": 12918, "pitch": 38, "duration": 10, "velocity": 36}, {"time": 12958, "pitch": 35, "duration": 10, "velocity": 77}, {"time": 12958, "pitch": 42, "duration": 10, "velocity": 80}, {"time": 13198, "pitch": 42, "duration": 10, "velocity": 60}, {"time": 13438, "pitch": 38, "duration": 10, "velocity": 104}, {"time": 13438, "pitch": 42, "duration": 10, "velocity": 90}, {"time": 13677, "pitch": 42, "duration": 10, "velocity": 60}, {"time": 13827, "pitch": 38, "duration": 10, "velocity": 50}, {"time": 13917, "pitch": 35, "duration": 10, "velocity": 77}, {"time": 13917, "pitch": 42, "duration": 10, "velocity": 80}, {"time": 14160, "pitch": 42, "duration": 10, "velocity": 60}, {"time": 14403, "pitch": 38, "duration": 10, "velocity": 104}, {"time": 14403, "pitch": 42, "duration": 10, "velocity": 90}, {"time": 14643, "pitch": 42, "duration": 10, "velocity": 60}, {"time": 14763, "pitch": 38, "duration": 9, "velocity": 22}, {"time": 14763, "pitch": 42, "duration": 9, "velocity": 36}, {"time": 14802, "pitch": 38, "duration": 10, "velocity": 36}, {"time": 14842, "pitch": 38, "duration": 10, "velocity": 36}, {"time": 14882, "pitch": 35, "duration": 10, "velocity": 65}, {"time": 14882, "pitch": 42, "duration": 10, "velocity": 80}, {"time": 15032, "pitch": 38, "duration": 10, "velocity": 64}, {"time": 15122, "pitch": 35, "duration": 10, "velocity": 72}, {"time": 15122, "pitch": 42, "duration": 10, "velocity": 60}, {"time": 15362, "pitch": 38, "duration": 10, "velocity": 104}, {"time": 15362, "pitch": 42, "duration": 10, "velocity": 90}, {"time": 15602, "pitch": 42, "duration": 10, "velocity": 60}, {"time": 15722, "pitch": 38, "duration": 10, "velocity": 22}, {"time": 15762, "pitch": 38, "duration": 9, "velocity": 36}, {"time": 15801, "pitch": 38, "duration": 10, "velocity": 50}, {"time": 15841, "pitch": 35, "duration": 10, "velocity": 77}, {"time": 15841, "pitch": 49, "duration": 10, "velocity": 78}, {"time": 16081, "pitch": 42, "duration": 10, "velocity": 60}, {"time": 16321, "pitch": 38, "duration": 10, "velocity": 104}, {"time": 16321, "pitch": 42, "duration": 10, "velocity": 90}, {"time": 16561, "pitch": 42, "duration": 10, "velocity": 60}, {"time": 16681, "pitch": 38, "duration": 10, "velocity": 22}, {"time": 16681, "pitch": 42, "duration": 10, "velocity": 36}, {"time": 16721, "pitch": 38, "duration": 10, "velocity": 36}, {"time": 16761, "pitch": 38, "duration": 9, "velocity": 36}, {"time": 16800, "pitch": 35, "duration": 10, "velocity": 77}, {"time": 16800, "pitch": 42, "duration": 10, "velocity": 80}, {"time": 17040, "pitch": 42, "duration": 10, "velocity": 60}, {"time": 17280, "pitch": 38, "duration": 10, "velocity": 104}, {"time": 17280, "pitch": 42, "duration": 10, "velocity": 90}, {"time": 17520, "pitch": 42, "duration": 10, "velocity": 60}, {"time": 17670, "pitch": 38, "duration": 10, "velocity": 50}, {"time": 17760, "pitch": 35, "duration": 9, "velocity": 77}, {"time": 17760, "pitch": 42, "duration": 9, "velocity": 80}, {"time": 17999, "pitch": 42, "duration": 10, "velocity": 60}, {"time": 18239, "pitch": 38, "duration": 10, "velocity": 104}, {"time": 18239, "pitch": 42, "duration": 10, "velocity": 90}, {"time": 18479, "pitch": 42, "duration": 10, "velocity": 60}, {"time": 18599, "pitch": 38, "duration": 10, "velocity": 22}, {"time": 18599, "pitch": 42, "duration": 10, "velocity": 36}, {"time": 18639, "pitch": 38, "duration": 10, "velocity": 36}, {"time": 18679, "pitch": 38, "duration": 10, "velocity": 36}, {"time": 18719, "pitch": 35, "duration": 10, "velocity": 65}, {"time": 18719, "pitch": 42, "duration": 10, "velocity": 80}, {"time": 18868, "pitch": 38, "duration": 10, "velocity": 64}, {"time": 18958, "pitch": 35, "duration": 10, "velocity": 76}, {"time": 18958, "pitch": 42, "duration": 10, "velocity": 60}, {"time": 19198, "pitch": 38, "duration": 10, "velocity": 104}, {"time": 19198, "pitch": 42, "duration": 10, "velocity": 90}, {"time": 19438, "pitch": 42, "duration": 10, "velocity": 60}, {"time": 19588, "pitch": 38, "duration": 10, "velocity": 50}, {"time": 19678, "pitch": 35, "duration": 10, "velocity": 77}, {"time": 19678, "pitch": 42, "duration": 10, "velocity": 80}, {"time": 19917, "pitch": 42, "duration": 10, "velocity": 60}, {"time": 20157, "pitch": 38, "duration": 10, "velocity": 104}, {"time": 20157, "pitch": 42, "duration": 10, "velocity": 90}, {"time": 20400, "pitch": 42, "duration": 10, "velocity": 60}, {"time": 20521, "pitch": 38, "duration": 11, "velocity": 22}, {"time": 20562, "pitch": 38, "duration": 10, "velocity": 36}, {"time": 20562, "pitch": 42, "duration": 10, "velocity": 40}, {"time": 20602, "pitch": 38, "duration": 11, "velocity": 36}, {"time": 20643, "pitch": 35, "duration": 10, "velocity": 77}, {"time": 20643, "pitch": 42, "duration": 10, "velocity": 80}, {"time": 20883, "pitch": 42, "duration": 10, "velocity": 78}, {"time": 21042, "pitch": 42, "duration": 1, "velocity": 50}, {"time": 21122, "pitch": 38, "duration": 10, "velocity": 104}, {"time": 21122, "pitch": 42, "duration": 10, "velocity": 90}, {"time": 21362, "pitch": 42, "duration": 10, "velocity": 60}, {"time": 21512, "pitch": 38, "duration": 10, "velocity": 50}, {"time": 21602, "pitch": 35, "duration": 10, "velocity": 77}, {"time": 21602, "pitch": 42, "duration": 10, "velocity": 80}, {"time": 21842, "pitch": 42, "duration": 10, "velocity": 60}, {"time": 22081, "pitch": 38, "duration": 10, "velocity": 104}, {"time": 22081, "pitch": 42, "duration": 10, "velocity": 90}, {"time": 22321, "pitch": 42, "duration": 10, "velocity": 60}, {"time": 22441, "pitch": 38, "duration": 10, "velocity": 22}, {"time": 22481, "pitch": 38, "duration": 10, "velocity": 36}, {"time": 22481, "pitch": 42, "duration": 10, "velocity": 40}, {"time": 22521, "pitch": 38, "duration": 10, "velocity": 36}, {"time": 22561, "pitch": 35, "duration": 10, "velocity": 65}, {"time": 22561, "pitch": 42, "duration": 10, "velocity": 80}, {"time": 22711, "pitch": 38, "duration": 10, "velocity": 64}, {"time": 22801, "pitch": 35, "duration": 10, "velocity": 76}, {"time": 22801, "pitch": 46, "duration": 10, "velocity": 92}, {"time": 22961, "pitch": 38, "duration": 10, "velocity": 36}, {"time": 23000, "pitch": 38, "duration": 10, "velocity": 36}, {"time": 23040, "pitch": 38, "duration": 10, "velocity": 109}, {"time": 23040, "pitch": 44, "duration": 10, "velocity": 78}, {"time": 23190, "pitch": 38, "duration": 10, "velocity": 102}, {"time": 23280, "pitch": 41, "duration": 10, "velocity": 92}, {"time": 23280, "pitch": 44, "duration": 10, "velocity": 78}, {"time": 23520, "pitch": 35, "duration": 10, "velocity": 77}, {"time": 23520, "pitch": 42, "duration": 10, "velocity": 80}, {"time": 23520, "pitch": 57, "duration": 10, "velocity": 80}, {"time": 23760, "pitch": 46, "duration": 10, "velocity": 78}, {"time": 23999, "pitch": 38, "duration": 10, "velocity": 104}, {"time": 23999, "pitch": 42, "duration": 10, "velocity": 90}, {"time": 24239, "pitch": 42, "duration": 10, "velocity": 60}, {"time": 24379, "pitch": 38, "duration": 10, "velocity": 38}, {"time": 24429, "pitch": 38, "duration": 10, "velocity": 54}, {"time": 24479, "pitch": 35, "duration": 10, "velocity": 65}, {"time": 24479, "pitch": 42, "duration": 10, "velocity": 80}, {"time": 24629, "pitch": 38, "duration": 10, "velocity": 64}, {"time": 24719, "pitch": 35, "duration": 10, "velocity": 76}, {"time": 24719, "pitch": 42, "duration": 10, "velocity": 60}, {"time": 24959, "pitch": 38, "duration": 10, "velocity": 104}, {"time": 24959, "pitch": 42, "duration": 10, "velocity": 90}, {"time": 25198, "pitch": 42, "duration": 10, "velocity": 60}, {"time": 25438, "pitch": 35, "duration": 10, "velocity": 77}, {"time": 25438, "pitch": 42, "duration": 10, "velocity": 64}, {"time": 25598, "pitch": 42, "duration": 1, "velocity": 36}, {"time": 25678, "pitch": 42, "duration": 10, "velocity": 78}, {"time": 25918, "pitch": 38, "duration": 10, "velocity": 104}, {"time": 25918, "pitch": 42, "duration": 10, "velocity": 90}, {"time": 26057, "pitch": 38, "duration": 10, "velocity": 50}, {"time": 26157, "pitch": 42, "duration": 10, "velocity": 60}, {"time": 26297, "pitch": 38, "duration": 10, "velocity": 38}, {"time": 26347, "pitch": 38, "duration": 10, "velocity": 54}, {"time": 26397, "pitch": 35, "duration": 10, "velocity": 65}, {"time": 26397, "pitch": 46, "duration": 10, "velocity": 65}, {"time": 26549, "pitch": 38, "duration": 10, "velocity": 78}, {"time": 26640, "pitch": 35, "duration": 10, "velocity": 76}, {"time": 26640, "pitch": 46, "duration": 10, "velocity": 50}, {"time": 26883, "pitch": 38, "duration": 10, "velocity": 104}, {"time": 26883, "pitch": 46, "duration": 10, "velocity": 92}, {"time": 27033, "pitch": 35, "duration": 10, "velocity": 56}, {"time": 27123, "pitch": 38, "duration": 10, "velocity": 103}, {"time": 27123, "pitch": 46, "duration": 10, "velocity": 50}, {"time": 27272, "pitch": 38, "duration": 10, "velocity": 96}, {"time": 27362, "pitch": 35, "duration": 10, "velocity": 77}, {"time": 27362, "pitch": 57, "duration": 10, "velocity": 80}, {"time": 27602, "pitch": 46, "duration": 10, "velocity": 64}, {"time": 27842, "pitch": 38, "duration": 10, "velocity": 104}, {"time": 27842, "pitch": 42, "duration": 10, "velocity": 90}, {"time": 28082, "pitch": 42, "duration": 10, "velocity": 60}, {"time": 28222, "pitch": 38, "duration": 9, "velocity": 38}, {"time": 28271, "pitch": 38, "duration": 10, "velocity": 54}, {"time": 28321, "pitch": 35, "duration": 10, "velocity": 65}, {"time": 28321, "pitch": 42, "duration": 10, "velocity": 80}, {"time": 28471, "pitch": 38, "duration": 10, "velocity": 64}, {"time": 28561, "pitch": 35, "duration": 10, "velocity": 76}, {"time": 28561, "pitch": 42, "duration": 10, "velocity": 60}, {"time": 28801, "pitch": 38, "duration": 10, "velocity": 104}, {"time": 28801, "pitch": 42, "duration": 10, "velocity": 90}, {"time": 29041, "pitch": 42, "duration": 10, "velocity": 60}, {"time": 29280, "pitch": 35, "duration": 10, "velocity": 77}, {"time": 29280, "pitch": 42, "duration": 10, "velocity": 80}, {"time": 29520, "pitch": 42, "duration": 10, "velocity": 60}, {"time": 29760, "pitch": 38, "duration": 10, "velocity": 104}, {"time": 29760, "pitch": 42, "duration": 10, "velocity": 90}, {"time": 30000, "pitch": 42, "duration": 10, "velocity": 60}, {"time": 30140, "pitch": 38, "duration": 10, "velocity": 38}, {"time": 30190, "pitch": 38, "duration": 10, "velocity": 54}, {"time": 30239, "pitch": 35, "duration": 10, "velocity": 65}, {"time": 30239, "pitch": 42, "duration": 10, "velocity": 80}, {"time": 30389, "pitch": 38, "duration": 10, "velocity": 64}, {"time": 30479, "pitch": 35, "duration": 10, "velocity": 76}, {"time": 30479, "pitch": 46, "duration": 10, "velocity": 78}, {"time": 30719, "pitch": 38, "duration": 10, "velocity": 104}, {"time": 30719, "pitch": 42, "duration": 10, "velocity": 90}, {"time": 30959, "pitch": 42, "duration": 10, "velocity": 64}, {"time": 31199, "pitch": 35, "duration": 10, "velocity": 77}, {"time": 31199, "pitch": 42, "duration": 10, "velocity": 90}, {"time": 31438, "pitch": 42, "duration": 10, "velocity": 60}, {"time": 31678, "pitch": 38, "duration": 10, "velocity": 104}, {"time": 31678, "pitch": 42, "duration": 10, "velocity": 90}, {"time": 31918, "pitch": 42, "duration": 10, "velocity": 60}, {"time": 32058, "pitch": 38, "duration": 10, "velocity": 38}, {"time": 32108, "pitch": 38, "duration": 10, "velocity": 54}, {"time": 32158, "pitch": 35, "duration": 10, "velocity": 65}, {"time": 32158, "pitch": 42, "duration": 10, "velocity": 80}, {"time": 32307, "pitch": 38, "duration": 10, "velocity": 64}, {"time": 32397, "pitch": 35, "duration": 10, "velocity": 76}, {"time": 32397, "pitch": 42, "duration": 10, "velocity": 60}, {"time": 32637, "pitch": 38, "duration": 10, "velocity": 104}, {"time": 32637, "pitch": 42, "duration": 10, "velocity": 90}, {"time": 32880, "pitch": 42, "duration": 10, "velocity": 60}, {"time": 33123, "pitch": 35, "duration": 10, "velocity": 77}, {"time": 33123, "pitch": 42, "duration": 10, "velocity": 80}, {"time": 33363, "pitch": 42, "duration": 10, "velocity": 60}, {"time": 33602, "pitch": 38, "duration": 10, "velocity": 104}, {"time": 33602, "pitch": 42, "duration": 10, "velocity": 90}, {"time": 33842, "pitch": 42, "duration": 10, "velocity": 60}, {"time": 33982, "pitch": 38, "duration": 10, "velocity": 38}, {"time": 34032, "pitch": 38, "duration": 10, "velocity": 54}, {"time": 34082, "pitch": 35, "duration": 10, "velocity": 65}, {"time": 34082, "pitch": 42, "duration": 10, "velocity": 80}, {"time": 34232, "pitch": 38, "duration": 10, "velocity": 64}, {"time": 34322, "pitch": 35, "duration": 10, "velocity": 76}, {"time": 34322, "pitch": 42, "duration": 10, "velocity": 60}, {"time": 34561, "pitch": 38, "duration": 10, "velocity": 104}, {"time": 34561, "pitch": 42, "duration": 10, "velocity": 90}, {"time": 34801, "pitch": 42, "duration": 10, "velocity": 60}, {"time": 35041, "pitch": 35, "duration": 10, "velocity": 77}, {"time": 35041, "pitch": 42, "duration": 10, "velocity": 80}, {"time": 35281, "pitch": 42, "duration": 10, "velocity": 60}, {"time": 35520, "pitch": 38, "duration": 10, "velocity": 104}, {"time": 35520, "pitch": 42, "duration": 10, "velocity": 90}, {"time": 35760, "pitch": 42, "duration": 10, "velocity": 60}, {"time": 35900, "pitch": 38, "duration": 10, "velocity": 38}, {"time": 35950, "pitch": 38, "duration": 10, "velocity": 54}, {"time": 36000, "pitch": 35, "duration": 10, "velocity": 65}, {"time": 36000, "pitch": 42, "duration": 10, "velocity": 80}, {"time": 36150, "pitch": 38, "duration": 10, "velocity": 64}, {"time": 36240, "pitch": 35, "duration": 10, "velocity": 76}, {"time": 36240, "pitch": 42, "duration": 10, "velocity": 60}, {"time": 36479, "pitch": 38, "duration": 10, "velocity": 104}, {"time": 36479, "pitch": 42, "duration": 10, "velocity": 90}, {"time": 36719, "pitch": 42, "duration": 10, "velocity": 60}, {"time": 36959, "pitch": 35, "duration": 10, "velocity": 77}, {"time": 36959, "pitch": 42, "duration": 10, "velocity": 80}, {"time": 37199, "pitch": 42, "duration": 10, "velocity": 60}, {"time": 37439, "pitch": 38, "duration": 10, "velocity": 104}, {"time": 37439, "pitch": 42, "duration": 10, "velocity": 90}, {"time": 37678, "pitch": 42, "duration": 10, "velocity": 60}, {"time": 37818, "pitch": 38, "duration": 10, "velocity": 38}, {"time": 37868, "pitch": 38, "duration": 10, "velocity": 54}, {"time": 37918, "pitch": 35, "duration": 10, "velocity": 65}, {"time": 37918, "pitch": 42, "duration": 10, "velocity": 92}, {"time": 38068, "pitch": 38, "duration": 10, "velocity": 78}, {"time": 38158, "pitch": 35, "duration": 10, "velocity": 76}, {"time": 38158, "pitch": 46, "duration": 10, "velocity": 64}, {"time": 38398, "pitch": 38, "duration": 10, "velocity": 92}, {"time": 38398, "pitch": 46, "duration": 10, "velocity": 92}, {"time": 38547, "pitch": 38, "duration": 10, "velocity": 106}, {"time": 38637, "pitch": 41, "duration": 10, "velocity": 92}, {"time": 38877, "pitch": 35, "duration": 10, "velocity": 72}, {"time": 38877, "pitch": 49, "duration": 10, "velocity": 80}, {"time": 39363, "pitch": 44, "duration": 10, "velocity": 78}, {"time": 40322, "pitch": 44, "duration": 10, "velocity": 78}, {"time": 41281, "pitch": 44, "duration": 10, "velocity": 78}, {"time": 42000, "pitch": 44, "duration": 10, "velocity": 78}, {"time": 42150, "pitch": 38, "duration": 10, "velocity": 106}, {"time": 42240, "pitch": 38, "duration": 10, "velocity": 114}, {"time": 42240, "pitch": 44, "duration": 10, "velocity": 78}, {"time": 42390, "pitch": 38, "duration": 10, "velocity": 120}, {"time": 42480, "pitch": 43, "duration": 10, "velocity": 109}, {"time": 42480, "pitch": 44, "duration": 10, "velocity": 78}, {"time": 42620, "pitch": 38, "duration": 10, "velocity": 36}, {"time": 42670, "pitch": 38, "duration": 10, "velocity": 50}, {"time": 42719, "pitch": 35, "duration": 10, "velocity": 77}, {"time": 42719, "pitch": 44, "duration": 10, "velocity": 78}, {"time": 42719, "pitch": 49, "duration": 10, "velocity": 80}, {"time": 42962, "pitch": 44, "duration": 10, "velocity": 50}, {"time": 42962, "pitch": 59, "duration": 10, "velocity": 50}, {"time": 43205, "pitch": 38, "duration": 10, "velocity": 104}, {"time": 43205, "pitch": 44, "duration": 10, "velocity": 78}, {"time": 43205, "pitch": 59, "duration": 10, "velocity": 90}, {"time": 43445, "pitch": 35, "duration": 10, "velocity": 76}, {"time": 43445, "pitch": 44, "duration": 10, "velocity": 50}, {"time": 43445, "pitch": 57, "duration": 10, "velocity": 82}, {"time": 43685, "pitch": 44, "duration": 10, "velocity": 78}, {"time": 43685, "pitch": 59, "duration": 10, "velocity": 78}, {"time": 43834, "pitch": 38, "duration": 10, "velocity": 64}, {"time": 43924, "pitch": 35, "duration": 10, "velocity": 63}, {"time": 43924, "pitch": 44, "duration": 10, "velocity": 50}, {"time": 43924, "pitch": 59, "duration": 10, "velocity": 50}, {"time": 44164, "pitch": 38, "duration": 10, "velocity": 104}, {"time": 44164, "pitch": 44, "duration": 10, "velocity": 78}, {"time": 44164, "pitch": 59, "duration": 10, "velocity": 92}, {"time": 44404, "pitch": 35, "duration": 10, "velocity": 67}, {"time": 44404, "pitch": 44, "duration": 10, "velocity": 50}, {"time": 44404, "pitch": 59, "duration": 10, "velocity": 50}, {"time": 44544, "pitch": 38, "duration": 10, "velocity": 36}, {"time": 44594, "pitch": 38, "duration": 10, "velocity": 50}, {"time": 44644, "pitch": 35, "duration": 10, "velocity": 72}, {"time": 44644, "pitch": 44, "duration": 10, "velocity": 78}, {"time": 44644, "pitch": 59, "duration": 10, "velocity": 78}, {"time": 44883, "pitch": 44, "duration": 10, "velocity": 50}, {"time": 44883, "pitch": 59, "duration": 10, "velocity": 50}, {"time": 45123, "pitch": 38, "duration": 10, "velocity": 114}, {"time": 45123, "pitch": 44, "duration": 10, "velocity": 78}, {"time": 45123, "pitch": 59, "duration": 10, "velocity": 92}, {"time": 45363, "pitch": 35, "duration": 10, "velocity": 76}, {"time": 45363, "pitch": 44, "duration": 10, "velocity": 50}, {"time": 45363, "pitch": 59, "duration": 10, "velocity": 50}, {"time": 45603, "pitch": 44, "duration": 10, "velocity": 78}, {"time": 45603, "pitch": 59, "duration": 10, "velocity": 78}, {"time": 45753, "pitch": 38, "duration": 10, "velocity": 64}, {"time": 45843, "pitch": 35, "duration": 10, "velocity": 76}, {"time": 45843, "pitch": 44, "duration": 10, "velocity": 50}, {"time": 45843, "pitch": 59, "duration": 10, "velocity": 50}, {"time": 46082, "pitch": 38, "duration": 10, "velocity": 114}, {"time": 46082, "pitch": 44, "duration": 10, "velocity": 78}, {"time": 46082, "pitch": 59, "duration": 10, "velocity": 92}, {"time": 46322, "pitch": 44, "duration": 10, "velocity": 50}, {"time": 46322, "pitch": 59, "duration": 10, "velocity": 50}, {"time": 46462, "pitch": 38, "duration": 10, "velocity": 36}, {"time": 46512, "pitch": 38, "duration": 10, "velocity": 50}, {"time": 46562, "pitch": 35, "duration": 10, "velocity": 72}, {"time": 46562, "pitch": 44, "duration": 10, "velocity": 78}, {"time": 46562, "pitch": 59, "duration": 10, "velocity": 78}, {"time": 46799, "pitch": 44, "duration": 10, "velocity": 50}, {"time": 46799, "pitch": 59, "duration": 10, "velocity": 50}, {"time": 47035, "pitch": 38, "duration": 10, "velocity": 114}, {"time": 47035, "pitch": 44, "duration": 10, "velocity": 78}, {"time": 47035, "pitch": 59, "duration": 10, "velocity": 92}, {"time": 47275, "pitch": 35, "duration": 10, "velocity": 65}, {"time": 47275, "pitch": 44, "duration": 10, "velocity": 50}, {"time": 47275, "pitch": 59, "duration": 10, "velocity": 50}, {"time": 47515, "pitch": 44, "duration": 10, "velocity": 78}, {"time": 47515, "pitch": 59, "duration": 10, "velocity": 78}, {"time": 47665, "pitch": 38, "duration": 10, "velocity": 64}, {"time": 47755, "pitch": 35, "duration": 10, "velocity": 76}, {"time": 47755, "pitch": 44, "duration": 10, "velocity": 50}, {"time": 47755, "pitch": 59, "duration": 10, "velocity": 50}, {"time": 47994, "pitch": 38, "duration": 10, "velocity": 115}, {"time": 47994, "pitch": 44, "duration": 10, "velocity": 78}, {"time": 47994, "pitch": 59, "duration": 10, "velocity": 92}, {"time": 48237, "pitch": 44, "duration": 10, "velocity": 50}, {"time": 48237, "pitch": 59, "duration": 10, "velocity": 50}, {"time": 48379, "pitch": 38, "duration": 10, "velocity": 36}, {"time": 48429, "pitch": 38, "duration": 10, "velocity": 50}, {"time": 48480, "pitch": 35, "duration": 10, "velocity": 72}, {"time": 48480, "pitch": 44, "duration": 10, "velocity": 78}, {"time": 48480, "pitch": 59, "duration": 10, "velocity": 78}, {"time": 48723, "pitch": 44, "duration": 10, "velocity": 50}, {"time": 48723, "pitch": 59, "duration": 10, "velocity": 50}, {"time": 48965, "pitch": 38, "duration": 10, "velocity": 114}, {"time": 48965, "pitch": 44, "duration": 10, "velocity": 78}, {"time": 48965, "pitch": 59, "duration": 10, "velocity": 92}, {"time": 49205, "pitch": 35, "duration": 10, "velocity": 65}, {"time": 49205, "pitch": 44, "duration": 10, "velocity": 50}, {"time": 49205, "pitch": 59, "duration": 10, "velocity": 50}, {"time": 49345, "pitch": 38, "duration": 10, "velocity": 36}, {"time": 49395, "pitch": 38, "duration": 10, "velocity": 50}, {"time": 49445, "pitch": 35, "duration": 10, "velocity": 65}, {"time": 49445, "pitch": 44, "duration": 10, "velocity": 78}, {"time": 49445, "pitch": 59, "duration": 10, "velocity": 78}, {"time": 49595, "pitch": 38, "duration": 10, "velocity": 92}, {"time": 49685, "pitch": 35, "duration": 10, "velocity": 76}, {"time": 49685, "pitch": 44, "duration": 10, "velocity": 78}, {"time": 49685, "pitch": 46, "duration": 10, "velocity": 92}, {"time": 49825, "pitch": 38, "duration": 10, "velocity": 36}, {"time": 49875, "pitch": 38, "duration": 10, "velocity": 50}, {"time": 49925, "pitch": 38, "duration": 10, "velocity": 118}, {"time": 49925, "pitch": 44, "duration": 10, "velocity": 92}, {"time": 50072, "pitch": 47, "duration": 10, "velocity": 64}, {"time": 50161, "pitch": 43, "duration": 10, "velocity": 92}, {"time": 50161, "pitch": 44, "duration": 10, "velocity": 92}, {"time": 50299, "pitch": 38, "duration": 10, "velocity": 36}, {"time": 50349, "pitch": 38, "duration": 9, "velocity": 50}, {"time": 50398, "pitch": 35, "duration": 10, "velocity": 72}, {"time": 50398, "pitch": 44, "duration": 10, "velocity": 78}, {"time": 50398, "pitch": 49, "duration": 10, "velocity": 83}, {"time": 50638, "pitch": 44, "duration": 10, "velocity": 50}, {"time": 50638, "pitch": 59, "duration": 10, "velocity": 50}, {"time": 50878, "pitch": 38, "duration": 10, "velocity": 114}, {"time": 50878, "pitch": 44, "duration": 10, "velocity": 78}, {"time": 50878, "pitch": 59, "duration": 10, "velocity": 92}, {"time": 51117, "pitch": 35, "duration": 10, "velocity": 65}, {"time": 51117, "pitch": 44, "duration": 10, "velocity": 50}, {"time": 51117, "pitch": 59, "duration": 10, "velocity": 50}, {"time": 51357, "pitch": 44, "duration": 10, "velocity": 78}, {"time": 51357, "pitch": 59, "duration": 10, "velocity": 78}, {"time": 51507, "pitch": 38, "duration": 10, "velocity": 64}, {"time": 51597, "pitch": 35, "duration": 10, "velocity": 76}, {"time": 51597, "pitch": 44, "duration": 10, "velocity": 50}, {"time": 51597, "pitch": 59, "duration": 10, "velocity": 50}, {"time": 51837, "pitch": 38, "duration": 10, "velocity": 115}, {"time": 51837, "pitch": 44, "duration": 10, "velocity": 78}, {"time": 51837, "pitch": 59, "duration": 10, "velocity": 92}, {"time": 52080, "pitch": 44, "duration": 10, "velocity": 50}, {"time": 52080, "pitch": 59, "duration": 10, "velocity": 50}, {"time": 52221, "pitch": 38, "duration": 10, "velocity": 36}, {"time": 52272, "pitch": 38, "duration": 10, "velocity": 50}, {"time": 52322, "pitch": 35, "duration": 10, "velocity": 72}, {"time": 52322, "pitch": 44, "duration": 10, "velocity": 78}, {"time": 52322, "pitch": 59, "duration": 10, "velocity": 78}, {"time": 52562, "pitch": 44, "duration": 10, "velocity": 50}, {"time": 52562, "pitch": 59, "duration": 10, "velocity": 50}, {"time": 52802, "pitch": 38, "duration": 10, "velocity": 114}, {"time": 52802, "pitch": 44, "duration": 10, "velocity": 78}, {"time": 52802, "pitch": 59, "duration": 10, "velocity": 92}, {"time": 53042, "pitch": 35, "duration": 10, "velocity": 65}, {"time": 53042, "pitch": 44, "duration": 10, "velocity": 50}, {"time": 53042, "pitch": 59, "duration": 10, "velocity": 50}, {"time": 53281, "pitch": 44, "duration": 10, "velocity": 78}, {"time": 53281, "pitch": 59, "duration": 10, "velocity": 78}, {"time": 53431, "pitch": 38, "duration": 10, "velocity": 64}, {"time": 53521, "pitch": 35, "duration": 10, "velocity": 76}, {"time": 53521, "pitch": 44, "duration": 10, "velocity": 50}, {"time": 53521, "pitch": 59, "duration": 10, "velocity": 50}, {"time": 53761, "pitch": 38, "duration": 10, "velocity": 114}, {"time": 53761, "pitch": 44, "duration": 10, "velocity": 78}, {"time": 53761, "pitch": 59, "duration": 10, "velocity": 92}, {"time": 53998, "pitch": 44, "duration": 10, "velocity": 50}, {"time": 53998, "pitch": 59, "duration": 10, "velocity": 50}, {"time": 54136, "pitch": 38, "duration": 10, "velocity": 36}, {"time": 54185, "pitch": 38, "duration": 10, "velocity": 50}, {"time": 54234, "pitch": 35, "duration": 10, "velocity": 76}, {"time": 54234, "pitch": 44, "duration": 10, "velocity": 78}, {"time": 54234, "pitch": 49, "duration": 10, "velocity": 82}, {"time": 54374, "pitch": 38, "duration": 10, "velocity": 50}, {"time": 54474, "pitch": 44, "duration": 10, "velocity": 50}, {"time": 54474, "pitch": 59, "duration": 10, "velocity": 50}, {"time": 54624, "pitch": 35, "duration": 10, "velocity": 65}, {"time": 54714, "pitch": 38, "duration": 10, "velocity": 118}, {"time": 54714, "pitch": 44, "duration": 10, "velocity": 78}, {"time": 54714, "pitch": 57, "duration": 10, "velocity": 84}, {"time": 54957, "pitch": 35, "duration": 10, "velocity": 72}, {"time": 54957, "pitch": 44, "duration": 10, "velocity": 50}, {"time": 54957, "pitch": 49, "duration": 10, "velocity": 84}, {"time": 55099, "pitch": 38, "duration": 10, "velocity": 50}, {"time": 55199, "pitch": 44, "duration": 10, "velocity": 78}, {"time": 55199, "pitch": 59, "duration": 10, "velocity": 78}, {"time": 55349, "pitch": 35, "duration": 10, "velocity": 68}, {"time": 55349, "pitch": 53, "duration": 10, "velocity": 78}, {"time": 55439, "pitch": 44, "duration": 10, "velocity": 50}, {"time": 55589, "pitch": 35, "duration": 10, "velocity": 56}, {"time": 55679, "pitch": 38, "duration": 10, "velocity": 117}, {"time": 55679, "pitch": 44, "duration": 10, "velocity": 78}, {"time": 55679, "pitch": 57, "duration": 10, "velocity": 82}, {"time": 55919, "pitch": 38, "duration": 10, "velocity": 115}, {"time": 55919, "pitch": 44, "duration": 10, "velocity": 50}, {"time": 55919, "pitch": 57, "duration": 10, "velocity": 83}, {"time": 56159, "pitch": 35, "duration": 8, "velocity": 72}, {"time": 56159, "pitch": 44, "duration": 8, "velocity": 78}, {"time": 56159, "pitch": 49, "duration": 8, "velocity": 81}, {"time": 56395, "pitch": 44, "duration": 10, "velocity": 50}, {"time": 56395, "pitch": 59, "duration": 10, "velocity": 50}, {"time": 56631, "pitch": 38, "duration": 10, "velocity": 119}, {"time": 56631, "pitch": 44, "duration": 10, "velocity": 78}, {"time": 56631, "pitch": 59, "duration": 10, "velocity": 92}, {"time": 56871, "pitch": 35, "duration": 10, "velocity": 68}, {"time": 56871, "pitch": 44, "duration": 10, "velocity": 50}, {"time": 56871, "pitch": 59, "duration": 10, "velocity": 50}, {"time": 57112, "pitch": 35, "duration": 10, "velocity": 72}, {"time": 57112, "pitch": 44, "duration": 10, "velocity": 78}, {"time": 57112, "pitch": 57, "duration": 10, "velocity": 83}, {"time": 57271, "pitch": 38, "duration": 10, "velocity": 92}, {"time": 57351, "pitch": 38, "duration": 10, "velocity": 120}, {"time": 57351, "pitch": 44, "duration": 10, "velocity": 92}, {"time": 57501, "pitch": 45, "duration": 10, "velocity": 104}, {"time": 57591, "pitch": 44, "duration": 10, "velocity": 92}, {"time": 57745, "pitch": 41, "duration": 10, "velocity": 64}, {"time": 57837, "pitch": 41, "duration": 10, "velocity": 106}, {"time": 57837, "pitch": 44, "duration": 10, "velocity": 92}, {"time": 58084, "pitch": 35, "duration": 10, "velocity": 77}, {"time": 58084, "pitch": 49, "duration": 10, "velocity": 80}, {"time": 58321, "pitch": 46, "duration": 9, "velocity": 64}, {"time": 58556, "pitch": 38, "duration": 10, "velocity": 104}, {"time": 58556, "pitch": 46, "duration": 10, "velocity": 92}, {"time": 58796, "pitch": 35, "duration": 10, "velocity": 76}, {"time": 58796, "pitch": 57, "duration": 10, "velocity": 82}, {"time": 59196, "pitch": 38, "duration": 10, "velocity": 92}, {"time": 59276, "pitch": 35, "duration": 10, "velocity": 76}, {"time": 59276, "pitch": 46, "duration": 10, "velocity": 92}, {"time": 59415, "pitch": 38, "duration": 10, "velocity": 36}, {"time": 59465, "pitch": 38, "duration": 10, "velocity": 50}, {"time": 59515, "pitch": 38, "duration": 10, "velocity": 104}, {"time": 59515, "pitch": 44, "duration": 10, "velocity": 92}, {"time": 59663, "pitch": 38, "duration": 10, "velocity": 96}, {"time": 59752, "pitch": 41, "duration": 10, "velocity": 94}, {"time": 59752, "pitch": 44, "duration": 10, "velocity": 92}, {"time": 59890, "pitch": 38, "duration": 10, "velocity": 36}, {"time": 59939, "pitch": 38, "duration": 10, "velocity": 50}, {"time": 59989, "pitch": 35, "duration": 8, "velocity": 77}, {"time": 59989, "pitch": 49, "duration": 8, "velocity": 78}, {"time": 60229, "pitch": 46, "duration": 10, "velocity": 78}, {"time": 60468, "pitch": 38, "duration": 9, "velocity": 104}, {"time": 60468, "pitch": 42, "duration": 9, "velocity": 90}, {"time": 60707, "pitch": 42, "duration": 10, "velocity": 60}, {"time": 60827, "pitch": 38, "duration": 10, "velocity": 22}, {"time": 60827, "pitch": 42, "duration": 10, "velocity": 36}, {"time": 60867, "pitch": 38, "duration": 10, "velocity": 36}, {"time": 60907, "pitch": 38, "duration": 10, "velocity": 36}, {"time": 60947, "pitch": 35, "duration": 11, "velocity": 77}, {"time": 60947, "pitch": 42, "duration": 11, "velocity": 80}, {"time": 61188, "pitch": 42, "duration": 10, "velocity": 60}, {"time": 61427, "pitch": 38, "duration": 10, "velocity": 104}, {"time": 61427, "pitch": 42, "duration": 10, "velocity": 90}, {"time": 61667, "pitch": 42, "duration": 10, "velocity": 60}, {"time": 61817, "pitch": 38, "duration": 10, "velocity": 50}, {"time": 61907, "pitch": 35, "duration": 9, "velocity": 77}, {"time": 61907, "pitch": 42, "duration": 9, "velocity": 80}, {"time": 62146, "pitch": 42, "duration": 11, "velocity": 64}, {"time": 62386, "pitch": 38, "duration": 9, "velocity": 104}, {"time": 62386, "pitch": 42, "duration": 9, "velocity": 90}, {"time": 62625, "pitch": 42, "duration": 10, "velocity": 60}, {"time": 62745, "pitch": 38, "duration": 10, "velocity": 22}, {"time": 62745, "pitch": 42, "duration": 10, "velocity": 36}, {"time": 62785, "pitch": 38, "duration": 10, "velocity": 36}, {"time": 62825, "pitch": 38, "duration": 10, "velocity": 36}, {"time": 62865, "pitch": 35, "duration": 10, "velocity": 65}, {"time": 62865, "pitch": 42, "duration": 10, "velocity": 80}, {"time": 63016, "pitch": 38, "duration": 10, "velocity": 64}, {"time": 63106, "pitch": 35, "duration": 10, "velocity": 76}, {"time": 63106, "pitch": 42, "duration": 10, "velocity": 60}, {"time": 63346, "pitch": 38, "duration": 10, "velocity": 104}, {"time": 63346, "pitch": 42, "duration": 10, "velocity": 90}, {"time": 63585, "pitch": 42, "duration": 10, "velocity": 60}, {"time": 63735, "pitch": 38, "duration": 10, "velocity": 50}, {"time": 63825, "pitch": 35, "duration": 10, "velocity": 77}, {"time": 63825, "pitch": 42, "duration": 10, "velocity": 80}, {"time": 64071, "pitch": 42, "duration": 10, "velocity": 64}, {"time": 64317, "pitch": 38, "duration": 10, "velocity": 104}, {"time": 64317, "pitch": 42, "duration": 10, "velocity": 90}, {"time": 64557, "pitch": 42, "duration": 10, "velocity": 60}, {"time": 64676, "pitch": 38, "duration": 10, "velocity": 22}, {"time": 64676, "pitch": 42, "duration": 10, "velocity": 36}, {"time": 64716, "pitch": 38, "duration": 10, "velocity": 36}, {"time": 64756, "pitch": 38, "duration": 10, "velocity": 36}, {"time": 64796, "pitch": 35, "duration": 10, "velocity": 77}, {"time": 64796, "pitch": 42, "duration": 10, "velocity": 80}, {"time": 65036, "pitch": 42, "duration": 10, "velocity": 60}, {"time": 65276, "pitch": 38, "duration": 10, "velocity": 104}, {"time": 65276, "pitch": 42, "duration": 10, "velocity": 90}, {"time": 65513, "pitch": 42, "duration": 10, "velocity": 60}, {"time": 65660, "pitch": 38, "duration": 10, "velocity": 50}, {"time": 65749, "pitch": 35, "duration": 10, "velocity": 77}, {"time": 65749, "pitch": 42, "duration": 10, "velocity": 80}, {"time": 65995, "pitch": 42, "duration": 10, "velocity": 64}, {"time": 66241, "pitch": 38, "duration": 10, "velocity": 104}, {"time": 66241, "pitch": 42, "duration": 10, "velocity": 90}, {"time": 66481, "pitch": 35, "duration": 10, "velocity": 72}, {"time": 66481, "pitch": 42, "duration": 10, "velocity": 60}, {"time": 66601, "pitch": 38, "duration": 10, "velocity": 22}, {"time": 66601, "pitch": 42, "duration": 10, "velocity": 36}, {"time": 66640, "pitch": 38, "duration": 10, "velocity": 36}, {"time": 66680, "pitch": 38, "duration": 10, "velocity": 36}, {"time": 66720, "pitch": 42, "duration": 10, "velocity": 80}, {"time": 66870, "pitch": 38, "duration": 10, "velocity": 78}, {"time": 66960, "pitch": 35, "duration": 10, "velocity": 72}, {"time": 66960, "pitch": 46, "duration": 10, "velocity": 78}, {"time": 67200, "pitch": 38, "duration": 10, "velocity": 92}, {"time": 67200, "pitch": 42, "duration": 10, "velocity": 90}, {"time": 67348, "pitch": 38, "duration": 10, "velocity": 106}, {"time": 67437, "pitch": 42, "duration": 10, "velocity": 60}, {"time": 67575, "pitch": 38, "duration": 10, "velocity": 36}, {"time": 67625, "pitch": 38, "duration": 9, "velocity": 50}, {"time": 67673, "pitch": 35, "duration": 10, "velocity": 77}, {"time": 67673, "pitch": 49, "duration": 10, "velocity": 78}, {"time": 67919, "pitch": 46, "duration": 10, "velocity": 78}, {"time": 68165, "pitch": 38, "duration": 10, "velocity": 104}, {"time": 68165, "pitch": 42, "duration": 10, "velocity": 90}, {"time": 68405, "pitch": 42, "duration": 10, "velocity": 60}, {"time": 68525, "pitch": 38, "duration": 10, "velocity": 22}, {"time": 68525, "pitch": 42, "duration": 10, "velocity": 36}, {"time": 68565, "pitch": 38, "duration": 10, "velocity": 36}, {"time": 68605, "pitch": 38, "duration": 10, "velocity": 36}, {"time": 68644, "pitch": 35, "duration": 10, "velocity": 77}, {"time": 68644, "pitch": 42, "duration": 10, "velocity": 80}, {"time": 68884, "pitch": 42, "duration": 10, "velocity": 60}, {"time": 69124, "pitch": 38, "duration": 10, "velocity": 104}, {"time": 69124, "pitch": 42, "duration": 10, "velocity": 90}, {"time": 69364, "pitch": 42, "duration": 10, "velocity": 60}, {"time": 69514, "pitch": 38, "duration": 10, "velocity": 50}, {"time": 69604, "pitch": 35, "duration": 10, "velocity": 77}, {"time": 69604, "pitch": 42, "duration": 10, "velocity": 80}, {"time": 69837, "pitch": 42, "duration": 10, "velocity": 60}, {"time": 70071, "pitch": 38, "duration": 10, "velocity": 104}, {"time": 70071, "pitch": 42, "duration": 10, "velocity": 90}, {"time": 70314, "pitch": 42, "duration": 10, "velocity": 60}, {"time": 70435, "pitch": 38, "duration": 11, "velocity": 22}, {"time": 70435, "pitch": 42, "duration": 11, "velocity": 36}, {"time": 70476, "pitch": 38, "duration": 10, "velocity": 36}, {"time": 70516, "pitch": 38, "duration": 10, "velocity": 36}, {"time": 70557, "pitch": 35, "duration": 10, "velocity": 65}, {"time": 70557, "pitch": 42, "duration": 10, "velocity": 80}, {"time": 70705, "pitch": 38, "duration": 10, "velocity": 64}, {"time": 70794, "pitch": 35, "duration": 10, "velocity": 76}, {"time": 70794, "pitch": 42, "duration": 10, "velocity": 60}, {"time": 71030, "pitch": 38, "duration": 10, "velocity": 104}, {"time": 71030, "pitch": 42, "duration": 10, "velocity": 90}, {"time": 71273, "pitch": 42, "duration": 10, "velocity": 60}, {"time": 71425, "pitch": 38, "duration": 10, "velocity": 50}, {"time": 71516, "pitch": 35, "duration": 10, "velocity": 77}, {"time": 71516, "pitch": 42, "duration": 10, "velocity": 80}, {"time": 71756, "pitch": 42, "duration": 10, "velocity": 60}, {"time": 71995, "pitch": 38, "duration": 10, "velocity": 104}, {"time": 71995, "pitch": 42, "duration": 10, "velocity": 90}, {"time": 72235, "pitch": 42, "duration": 10, "velocity": 60}, {"time": 72355, "pitch": 38, "duration": 10, "velocity": 22}, {"time": 72355, "pitch": 42, "duration": 10, "velocity": 36}, {"time": 72395, "pitch": 38, "duration": 10, "velocity": 36}, {"time": 72435, "pitch": 38, "duration": 10, "velocity": 36}, {"time": 72475, "pitch": 35, "duration": 10, "velocity": 77}, {"time": 72475, "pitch": 42, "duration": 10, "velocity": 80}, {"time": 72715, "pitch": 42, "duration": 10, "velocity": 60}, {"time": 72954, "pitch": 38, "duration": 10, "velocity": 104}, {"time": 72954, "pitch": 42, "duration": 10, "velocity": 90}, {"time": 73194, "pitch": 42, "duration": 10, "velocity": 60}, {"time": 73344, "pitch": 38, "duration": 10, "velocity": 50}, {"time": 73434, "pitch": 35, "duration": 10, "velocity": 77}, {"time": 73434, "pitch": 42, "duration": 10, "velocity": 80}, {"time": 73677, "pitch": 42, "duration": 10, "velocity": 60}, {"time": 73919, "pitch": 38, "duration": 10, "velocity": 104}, {"time": 73919, "pitch": 42, "duration": 10, "velocity": 90}, {"time": 74159, "pitch": 42, "duration": 10, "velocity": 60}, {"time": 74279, "pitch": 38, "duration": 10, "velocity": 22}, {"time": 74279, "pitch": 42, "duration": 10, "velocity": 36}, {"time": 74319, "pitch": 38, "duration": 10, "velocity": 36}, {"time": 74359, "pitch": 38, "duration": 10, "velocity": 36}, {"time": 74399, "pitch": 35, "duration": 10, "velocity": 65}, {"time": 74399, "pitch": 42, "duration": 10, "velocity": 80}, {"time": 74549, "pitch": 38, "duration": 10, "velocity": 64}, {"time": 74639, "pitch": 35, "duration": 10, "velocity": 76}, {"time": 74639, "pitch": 42, "duration": 10, "velocity": 60}, {"time": 74878, "pitch": 38, "duration": 10, "velocity": 92}, {"time": 74878, "pitch": 42, "duration": 10, "velocity": 90}, {"time": 75030, "pitch": 38, "duration": 10, "velocity": 102}, {"time": 75121, "pitch": 43, "duration": 10, "velocity": 92}, {"time": 75364, "pitch": 35, "duration": 10, "velocity": 77}, {"time": 75364, "pitch": 57, "duration": 10, "velocity": 80}, {"time": 75601, "pitch": 46, "duration": 10, "velocity": 78}, {"time": 75838, "pitch": 38, "duration": 10, "velocity": 104}, {"time": 75838, "pitch": 42, "duration": 10, "velocity": 90}, {"time": 76077, "pitch": 42, "duration": 10, "velocity": 60}, {"time": 76217, "pitch": 38, "duration": 10, "velocity": 38}, {"time": 76267, "pitch": 38, "duration": 10, "velocity": 54}, {"time": 76317, "pitch": 35, "duration": 10, "velocity": 65}, {"time": 76317, "pitch": 42, "duration": 10, "velocity": 80}, {"time": 76467, "pitch": 38, "duration": 10, "velocity": 64}, {"time": 76557, "pitch": 35, "duration": 10, "velocity": 76}, {"time": 76557, "pitch": 42, "duration": 10, "velocity": 60}, {"time": 76797, "pitch": 38, "duration": 10, "velocity": 104}, {"time": 76797, "pitch": 42, "duration": 10, "velocity": 90}, {"time": 77037, "pitch": 42, "duration": 10, "velocity": 60}, {"time": 77276, "pitch": 35, "duration": 10, "velocity": 77}, {"time": 77276, "pitch": 42, "duration": 10, "velocity": 80}, {"time": 77516, "pitch": 42, "duration": 10, "velocity": 60}, {"time": 77756, "pitch": 38, "duration": 10, "velocity": 104}, {"time": 77756, "pitch": 42, "duration": 10, "velocity": 90}, {"time": 77996, "pitch": 42, "duration": 10, "velocity": 60}, {"time": 78135, "pitch": 38, "duration": 10, "velocity": 38}, {"time": 78185, "pitch": 38, "duration": 10, "velocity": 54}, {"time": 78235, "pitch": 35, "duration": 10, "velocity": 65}, {"time": 78235, "pitch": 46, "duration": 10, "velocity": 64}, {"time": 78385, "pitch": 38, "duration": 10, "velocity": 64}, {"time": 78475, "pitch": 35, "duration": 10, "velocity": 76}, {"time": 78475, "pitch": 46, "duration": 10, "velocity": 50}, {"time": 78715, "pitch": 38, "duration": 10, "velocity": 104}, {"time": 78715, "pitch": 46, "duration": 10, "velocity": 78}, {"time": 78958, "pitch": 38, "duration": 10, "velocity": 103}, {"time": 78958, "pitch": 46, "duration": 10, "velocity": 92}, {"time": 79109, "pitch": 38, "duration": 10, "velocity": 96}, {"time": 79200, "pitch": 35, "duration": 10, "velocity": 77}, {"time": 79200, "pitch": 57, "duration": 10, "velocity": 80}, {"time": 79440, "pitch": 42, "duration": 10, "velocity": 60}, {"time": 79680, "pitch": 38, "duration": 10, "velocity": 104}, {"time": 79680, "pitch": 42, "duration": 10, "velocity": 90}, {"time": 79920, "pitch": 42, "duration": 10, "velocity": 60}, {"time": 80060, "pitch": 38, "duration": 10, "velocity": 38}, {"time": 80109, "pitch": 38, "duration": 10, "velocity": 54}, {"time": 80159, "pitch": 35, "duration": 10, "velocity": 65}, {"time": 80159, "pitch": 42, "duration": 10, "velocity": 80}, {"time": 80309, "pitch": 38, "duration": 10, "velocity": 64}, {"time": 80399, "pitch": 35, "duration": 10, "velocity": 76}, {"time": 80399, "pitch": 42, "duration": 10, "velocity": 60}, {"time": 80639, "pitch": 38, "duration": 10, "velocity": 104}, {"time": 80639, "pitch": 42, "duration": 10, "velocity": 90}, {"time": 80876, "pitch": 42, "duration": 10, "velocity": 60}, {"time": 81112, "pitch": 35, "duration": 10, "velocity": 77}, {"time": 81112, "pitch": 42, "duration": 10, "velocity": 80}, {"time": 81349, "pitch": 42, "duration": 10, "velocity": 60}, {"time": 81586, "pitch": 38, "duration": 10, "velocity": 104}, {"time": 81586, "pitch": 42, "duration": 10, "velocity": 90}, {"time": 81826, "pitch": 42, "duration": 10, "velocity": 60}, {"time": 81966, "pitch": 38, "duration": 10, "velocity": 38}, {"time": 82016, "pitch": 38, "duration": 10, "velocity": 54}, {"time": 82066, "pitch": 35, "duration": 10, "velocity": 65}, {"time": 82066, "pitch": 42, "duration": 10, "velocity": 80}, {"time": 82215, "pitch": 38, "duration": 10, "velocity": 64}, {"time": 82305, "pitch": 35, "duration": 10, "velocity": 76}, {"time": 82305, "pitch": 42, "duration": 10, "velocity": 60}, {"time": 82545, "pitch": 38, "duration": 9, "velocity": 104}, {"time": 82545, "pitch": 46, "duration": 9, "velocity": 92}, {"time": 83030, "pitch": 35, "duration": 11, "velocity": 77}, {"time": 83030, "pitch": 42, "duration": 11, "velocity": 90}, {"time": 83277, "pitch": 42, "duration": 10, "velocity": 60}, {"time": 83522, "pitch": 38, "duration": 10, "velocity": 104}, {"time": 83522, "pitch": 42, "duration": 10, "velocity": 90}, {"time": 83762, "pitch": 42, "duration": 10, "velocity": 60}, {"time": 83902, "pitch": 38, "duration": 10, "velocity": 38}, {"time": 83952, "pitch": 38, "duration": 10, "velocity": 54}, {"time": 84002, "pitch": 35, "duration": 10, "velocity": 65}, {"time": 84002, "pitch": 42, "duration": 10, "velocity": 80}, {"time": 84152, "pitch": 38, "duration": 10, "velocity": 64}, {"time": 84242, "pitch": 35, "duration": 10, "velocity": 76}, {"time": 84242, "pitch": 42, "duration": 10, "velocity": 60}, {"time": 84481, "pitch": 38, "duration": 10, "velocity": 104}, {"time": 84481, "pitch": 42, "duration": 10, "velocity": 90}, {"time": 84721, "pitch": 42, "duration": 10, "velocity": 60}, {"time": 84961, "pitch": 35, "duration": 10, "velocity": 77}, {"time": 84961, "pitch": 42, "duration": 10, "velocity": 80}, {"time": 85201, "pitch": 42, "duration": 10, "velocity": 60}, {"time": 85440, "pitch": 38, "duration": 10, "velocity": 104}, {"time": 85440, "pitch": 42, "duration": 10, "velocity": 90}, {"time": 85683, "pitch": 42, "duration": 10, "velocity": 60}, {"time": 85825, "pitch": 38, "duration": 10, "velocity": 38}, {"time": 85876, "pitch": 38, "duration": 10, "velocity": 54}, {"time": 85926, "pitch": 35, "duration": 10, "velocity": 65}, {"time": 85926, "pitch": 42, "duration": 10, "velocity": 80}, {"time": 86078, "pitch": 38, "duration": 10, "velocity": 64}, {"time": 86169, "pitch": 35, "duration": 11, "velocity": 76}, {"time": 86169, "pitch": 42, "duration": 11, "velocity": 60}, {"time": 86411, "pitch": 38, "duration": 10, "velocity": 104}, {"time": 86411, "pitch": 42, "duration": 10, "velocity": 90}, {"time": 86648, "pitch": 42, "duration": 10, "velocity": 60}, {"time": 86885, "pitch": 35, "duration": 10, "velocity": 77}, {"time": 86885, "pitch": 42, "duration": 10, "velocity": 80}, {"time": 87122, "pitch": 42, "duration": 10, "velocity": 60}, {"time": 87358, "pitch": 38, "duration": 10, "velocity": 104}, {"time": 87358, "pitch": 42, "duration": 10, "velocity": 90}, {"time": 87598, "pitch": 42, "duration": 10, "velocity": 60}, {"time": 87738, "pitch": 38, "duration": 10, "velocity": 38}, {"time": 87788, "pitch": 38, "duration": 10, "velocity": 54}, {"time": 87838, "pitch": 35, "duration": 10, "velocity": 65}, {"time": 87838, "pitch": 42, "duration": 10, "velocity": 80}, {"time": 87988, "pitch": 38, "duration": 10, "velocity": 64}, {"time": 88078, "pitch": 35, "duration": 10, "velocity": 76}, {"time": 88078, "pitch": 42, "duration": 10, "velocity": 60}, {"time": 88318, "pitch": 38, "duration": 10, "velocity": 104}, {"time": 88318, "pitch": 42, "duration": 10, "velocity": 90}, {"time": 88557, "pitch": 42, "duration": 10, "velocity": 60}, {"time": 88797, "pitch": 35, "duration": 10, "velocity": 77}, {"time": 88797, "pitch": 42, "duration": 10, "velocity": 80}, {"time": 89040, "pitch": 42, "duration": 10, "velocity": 60}, {"time": 89283, "pitch": 38, "duration": 10, "velocity": 104}, {"time": 89283, "pitch": 42, "duration": 10, "velocity": 90}, {"time": 89523, "pitch": 42, "duration": 10, "velocity": 60}, {"time": 89662, "pitch": 38, "duration": 10, "velocity": 38}, {"time": 89712, "pitch": 38, "duration": 10, "velocity": 54}, {"time": 89762, "pitch": 35, "duration": 10, "velocity": 65}, {"time": 89762, "pitch": 46, "duration": 10, "velocity": 78}, {"time": 89912, "pitch": 38, "duration": 10, "velocity": 92}, {"time": 90002, "pitch": 35, "duration": 10, "velocity": 76}, {"time": 90002, "pitch": 46, "duration": 10, "velocity": 106}, {"time": 90242, "pitch": 38, "duration": 10, "velocity": 104}, {"time": 90242, "pitch": 44, "duration": 10, "velocity": 78}, {"time": 90392, "pitch": 38, "duration": 10, "velocity": 96}, {"time": 90482, "pitch": 41, "duration": 10, "velocity": 103}, {"time": 90721, "pitch": 35, "duration": 10, "velocity": 72}, {"time": 90721, "pitch": 49, "duration": 10, "velocity": 80}, {"time": 91201, "pitch": 44, "duration": 10, "velocity": 78}, {"time": 92160, "pitch": 44, "duration": 10, "velocity": 78}, {"time": 92400, "pitch": 44, "duration": 10, "velocity": 78}, {"time": 92560, "pitch": 38, "duration": 9, "velocity": 36}, {"time": 92639, "pitch": 44, "duration": 10, "velocity": 78}, {"time": 92639, "pitch": 45, "duration": 10, "velocity": 78}, {"time": 92789, "pitch": 45, "duration": 10, "velocity": 92}, {"time": 92879, "pitch": 44, "duration": 10, "velocity": 78}, {"time": 92999, "pitch": 38, "duration": 10, "velocity": 22}, {"time": 93039, "pitch": 38, "duration": 10, "velocity": 36}, {"time": 93079, "pitch": 38, "duration": 10, "velocity": 50}, {"time": 93119, "pitch": 38, "duration": 10, "velocity": 120}, {"time": 93119, "pitch": 44, "duration": 10, "velocity": 78}, {"time": 93359, "pitch": 43, "duration": 10, "velocity": 78}, {"time": 93359, "pitch": 44, "duration": 10, "velocity": 78}, {"time": 93509, "pitch": 43, "duration": 10, "velocity": 92}, {"time": 93598, "pitch": 44, "duration": 10, "velocity": 78}, {"time": 93668, "pitch": 38, "duration": 10, "velocity": 22}, {"time": 93708, "pitch": 38, "duration": 10, "velocity": 36}, {"time": 93748, "pitch": 38, "duration": 10, "velocity": 50}, {"time": 93788, "pitch": 38, "duration": 10, "velocity": 50}, {"time": 93838, "pitch": 38, "duration": 10, "velocity": 106}, {"time": 93838, "pitch": 44, "duration": 10, "velocity": 78}, {"time": 93998, "pitch": 38, "duration": 10, "velocity": 36}, {"time": 94038, "pitch": 38, "duration": 10, "velocity": 50}, {"time": 94078, "pitch": 38, "duration": 10, "velocity": 114}, {"time": 94078, "pitch": 44, "duration": 10, "velocity": 78}, {"time": 94158, "pitch": 47, "duration": 10, "velocity": 64}, {"time": 94238, "pitch": 47, "duration": 10, "velocity": 92}, {"time": 94318, "pitch": 43, "duration": 10, "velocity": 64}, {"time": 94398, "pitch": 43, "duration": 10, "velocity": 92}, {"time": 94478, "pitch": 41, "duration": 10, "velocity": 92}, {"time": 94558, "pitch": 35, "duration": 9, "velocity": 77}, {"time": 94558, "pitch": 44, "duration": 9, "velocity": 78}, {"time": 94558, "pitch": 49, "duration": 9, "velocity": 80}, {"time": 94797, "pitch": 44, "duration": 10, "velocity": 78}, {"time": 94797, "pitch": 59, "duration": 10, "velocity": 50}, {"time": 95037, "pitch": 38, "duration": 10, "velocity": 104}, {"time": 95037, "pitch": 44, "duration": 10, "velocity": 78}, {"time": 95037, "pitch": 59, "duration": 10, "velocity": 92}, {"time": 95280, "pitch": 35, "duration": 10, "velocity": 76}, {"time": 95280, "pitch": 44, "duration": 10, "velocity": 78}, {"time": 95280, "pitch": 57, "duration": 10, "velocity": 82}, {"time": 95523, "pitch": 44, "duration": 10, "velocity": 78}, {"time": 95523, "pitch": 59, "duration": 10, "velocity": 78}, {"time": 95673, "pitch": 38, "duration": 10, "velocity": 78}, {"time": 95763, "pitch": 35, "duration": 10, "velocity": 63}, {"time": 95763, "pitch": 44, "duration": 10, "velocity": 78}, {"time": 95763, "pitch": 59, "duration": 10, "velocity": 50}, {"time": 96002, "pitch": 38, "duration": 10, "velocity": 104}, {"time": 96002, "pitch": 44, "duration": 10, "velocity": 78}, {"time": 96002, "pitch": 59, "duration": 10, "velocity": 92}, {"time": 96242, "pitch": 35, "duration": 10, "velocity": 67}, {"time": 96242, "pitch": 44, "duration": 10, "velocity": 78}, {"time": 96242, "pitch": 59, "duration": 10, "velocity": 50}, {"time": 96382, "pitch": 38, "duration": 10, "velocity": 36}, {"time": 96432, "pitch": 38, "duration": 10, "velocity": 50}, {"time": 96482, "pitch": 35, "duration": 10, "velocity": 65}, {"time": 96482, "pitch": 44, "duration": 10, "velocity": 78}, {"time": 96482, "pitch": 59, "duration": 10, "velocity": 78}, {"time": 96722, "pitch": 35, "duration": 10, "velocity": 76}, {"time": 96722, "pitch": 44, "duration": 10, "velocity": 78}, {"time": 96722, "pitch": 59, "duration": 10, "velocity": 50}, {"time": 96961, "pitch": 38, "duration": 10, "velocity": 114}, {"time": 96961, "pitch": 44, "duration": 10, "velocity": 78}, {"time": 96961, "pitch": 59, "duration": 10, "velocity": 92}, {"time": 97201, "pitch": 35, "duration": 10, "velocity": 76}, {"time": 97201, "pitch": 44, "duration": 10, "velocity": 78}, {"time": 97201, "pitch": 59, "duration": 10, "velocity": 50}, {"time": 97441, "pitch": 44, "duration": 10, "velocity": 78}, {"time": 97441, "pitch": 59, "duration": 10, "velocity": 78}, {"time": 97591, "pitch": 38, "duration": 10, "velocity": 78}, {"time": 97681, "pitch": 35, "duration": 10, "velocity": 76}, {"time": 97681, "pitch": 44, "duration": 10, "velocity": 78}, {"time": 97681, "pitch": 59, "duration": 10, "velocity": 50}, {"time": 97920, "pitch": 38, "duration": 10, "velocity": 114}, {"time": 97920, "pitch": 44, "duration": 10, "velocity": 78}, {"time": 97920, "pitch": 59, "duration": 10, "velocity": 92}, {"time": 98160, "pitch": 44, "duration": 10, "velocity": 78}, {"time": 98160, "pitch": 59, "duration": 10, "velocity": 50}, {"time": 98300, "pitch": 38, "duration": 10, "velocity": 36}, {"time": 98350, "pitch": 38, "duration": 10, "velocity": 50}, {"time": 98400, "pitch": 35, "duration": 10, "velocity": 72}, {"time": 98400, "pitch": 44, "duration": 10, "velocity": 78}, {"time": 98400, "pitch": 59, "duration": 10, "velocity": 78}, {"time": 98640, "pitch": 44, "duration": 10, "velocity": 78}, {"time": 98640, "pitch": 59, "duration": 10, "velocity": 50}, {"time": 98879, "pitch": 38, "duration": 10, "velocity": 114}, {"time": 98879, "pitch": 44, "duration": 10, "velocity": 78}, {"time": 98879, "pitch": 59, "duration": 10, "velocity": 92}, {"time": 99119, "pitch": 35, "duration": 10, "velocity": 76}, {"time": 99119, "pitch": 44, "duration": 10, "velocity": 78}, {"time": 99119, "pitch": 59, "duration": 10, "velocity": 50}, {"time": 99359, "pitch": 44, "duration": 10, "velocity": 78}, {"time": 99359, "pitch": 59, "duration": 10, "velocity": 78}, {"time": 99509, "pitch": 38, "duration": 10, "velocity": 78}, {"time": 99599, "pitch": 35, "duration": 10, "velocity": 76}, {"time": 99599, "pitch": 44, "duration": 10, "velocity": 78}, {"time": 99599, "pitch": 59, "duration": 10, "velocity": 50}, {"time": 99838, "pitch": 38, "duration": 10, "velocity": 115}, {"time": 99838, "pitch": 44, "duration": 10, "velocity": 78}, {"time": 99838, "pitch": 59, "duration": 10, "velocity": 92}, {"time": 100078, "pitch": 44, "duration": 10, "velocity": 78}, {"time": 100078, "pitch": 59, "duration": 10, "velocity": 50}, {"time": 100218, "pitch": 38, "duration": 10, "velocity": 36}, {"time": 100268, "pitch": 38, "duration": 10, "velocity": 50}, {"time": 100318, "pitch": 35, "duration": 10, "velocity": 72}, {"time": 100318, "pitch": 44, "duration": 10, "velocity": 78}, {"time": 100318, "pitch": 59, "duration": 10, "velocity": 78}, {"time": 100558, "pitch": 44, "duration": 10, "velocity": 78}, {"time": 100558, "pitch": 59, "duration": 10, "velocity": 50}, {"time": 100798, "pitch": 38, "duration": 9, "velocity": 114}, {"time": 100798, "pitch": 44, "duration": 9, "velocity": 78}, {"time": 100798, "pitch": 59, "duration": 9, "velocity": 92}, {"time": 101037, "pitch": 35, "duration": 10, "velocity": 65}, {"time": 101037, "pitch": 44, "duration": 10, "velocity": 78}, {"time": 101037, "pitch": 59, "duration": 10, "velocity": 50}, {"time": 101277, "pitch": 35, "duration": 10, "velocity": 76}, {"time": 101277, "pitch": 44, "duration": 10, "velocity": 78}, {"time": 101277, "pitch": 59, "duration": 10, "velocity": 78}, {"time": 101520, "pitch": 44, "duration": 10, "velocity": 78}, {"time": 101520, "pitch": 59, "duration": 10, "velocity": 50}, {"time": 101672, "pitch": 35, "duration": 10, "velocity": 45}, {"time": 101763, "pitch": 35, "duration": 10, "velocity": 76}, {"time": 101763, "pitch": 38, "duration": 10, "velocity": 118}, {"time": 101763, "pitch": 44, "duration": 10, "velocity": 78}, {"time": 101763, "pitch": 49, "duration": 10, "velocity": 64}, {"time": 101923, "pitch": 43, "duration": 10, "velocity": 50}, {"time": 102003, "pitch": 43, "duration": 10, "velocity": 92}, {"time": 102003, "pitch": 44, "duration": 10, "velocity": 78}, {"time": 102142, "pitch": 38, "duration": 10, "velocity": 36}, {"time": 102192, "pitch": 38, "duration": 10, "velocity": 50}, {"time": 102242, "pitch": 35, "duration": 10, "velocity": 72}, {"time": 102242, "pitch": 44, "duration": 10, "velocity": 78}, {"time": 102242, "pitch": 49, "duration": 10, "velocity": 83}, {"time": 102482, "pitch": 44, "duration": 10, "velocity": 78}, {"time": 102482, "pitch": 59, "duration": 10, "velocity": 50}, {"time": 102722, "pitch": 38, "duration": 10, "velocity": 114}, {"time": 102722, "pitch": 44, "duration": 10, "velocity": 78}, {"time": 102722, "pitch": 59, "duration": 10, "velocity": 92}, {"time": 102962, "pitch": 35, "duration": 10, "velocity": 65}, {"time": 102962, "pitch": 44, "duration": 10, "velocity": 78}, {"time": 102962, "pitch": 59, "duration": 10, "velocity": 50}, {"time": 103201, "pitch": 44, "duration": 10, "velocity": 78}, {"time": 103201, "pitch": 59, "duration": 10, "velocity": 78}, {"time": 103351, "pitch": 38, "duration": 10, "velocity": 78}, {"time": 103441, "pitch": 35, "duration": 10, "velocity": 76}, {"time": 103441, "pitch": 44, "duration": 10, "velocity": 78}, {"time": 103441, "pitch": 59, "duration": 10, "velocity": 50}, {"time": 103681, "pitch": 38, "duration": 10, "velocity": 115}, {"time": 103681, "pitch": 44, "duration": 10, "velocity": 78}, {"time": 103681, "pitch": 59, "duration": 10, "velocity": 92}, {"time": 103921, "pitch": 44, "duration": 10, "velocity": 78}, {"time": 103921, "pitch": 59, "duration": 10, "velocity": 50}, {"time": 104060, "pitch": 38, "duration": 10, "velocity": 36}, {"time": 104110, "pitch": 38, "duration": 10, "velocity": 50}, {"time": 104160, "pitch": 35, "duration": 10, "velocity": 72}, {"time": 104160, "pitch": 44, "duration": 10, "velocity": 78}, {"time": 104160, "pitch": 59, "duration": 10, "velocity": 78}, {"time": 104400, "pitch": 44, "duration": 10, "velocity": 78}, {"time": 104400, "pitch": 59, "duration": 10, "velocity": 50}, {"time": 104640, "pitch": 38, "duration": 10, "velocity": 114}, {"time": 104640, "pitch": 44, "duration": 10, "velocity": 78}, {"time": 104640, "pitch": 59, "duration": 10, "velocity": 92}, {"time": 104880, "pitch": 35, "duration": 10, "velocity": 65}, {"time": 104880, "pitch": 44, "duration": 10, "velocity": 78}, {"time": 104880, "pitch": 59, "duration": 10, "velocity": 50}, {"time": 105119, "pitch": 44, "duration": 10, "velocity": 78}, {"time": 105119, "pitch": 59, "duration": 10, "velocity": 78}, {"time": 105269, "pitch": 38, "duration": 10, "velocity": 78}, {"time": 105359, "pitch": 35, "duration": 10, "velocity": 56}, {"time": 105359, "pitch": 44, "duration": 10, "velocity": 78}, {"time": 105359, "pitch": 59, "duration": 10, "velocity": 50}, {"time": 105599, "pitch": 38, "duration": 10, "velocity": 114}, {"time": 105599, "pitch": 44, "duration": 10, "velocity": 78}, {"time": 105599, "pitch": 59, "duration": 10, "velocity": 92}, {"time": 105839, "pitch": 44, "duration": 10, "velocity": 78}, {"time": 105839, "pitch": 59, "duration": 10, "velocity": 50}, {"time": 105979, "pitch": 38, "duration": 10, "velocity": 36}, {"time": 106029, "pitch": 38, "duration": 9, "velocity": 50}, {"time": 106078, "pitch": 35, "duration": 10, "velocity": 76}, {"time": 106078, "pitch": 44, "duration": 10, "velocity": 78}, {"time": 106078, "pitch": 49, "duration": 10, "velocity": 82}, {"time": 106218, "pitch": 38, "duration": 10, "velocity": 64}, {"time": 106318, "pitch": 44, "duration": 10, "velocity": 78}, {"time": 106318, "pitch": 59, "duration": 10, "velocity": 50}, {"time": 106458, "pitch": 35, "duration": 10, "velocity": 65}, {"time": 106558, "pitch": 38, "duration": 10, "velocity": 118}, {"time": 106558, "pitch": 44, "duration": 10, "velocity": 78}, {"time": 106558, "pitch": 57, "duration": 10, "velocity": 84}, {"time": 106798, "pitch": 35, "duration": 10, "velocity": 72}, {"time": 106798, "pitch": 44, "duration": 10, "velocity": 78}, {"time": 106798, "pitch": 49, "duration": 10, "velocity": 84}, {"time": 107037, "pitch": 44, "duration": 10, "velocity": 78}, {"time": 107037, "pitch": 59, "duration": 10, "velocity": 64}, {"time": 107187, "pitch": 38, "duration": 10, "velocity": 106}, {"time": 107187, "pitch": 59, "duration": 10, "velocity": 92}, {"time": 107277, "pitch": 44, "duration": 10, "velocity": 78}, {"time": 107427, "pitch": 35, "duration": 10, "velocity": 56}, {"time": 107427, "pitch": 53, "duration": 10, "velocity": 78}, {"time": 107517, "pitch": 38, "duration": 10, "velocity": 117}, {"time": 107517, "pitch": 44, "duration": 10, "velocity": 78}, {"time": 107517, "pitch": 57, "duration": 10, "velocity": 82}, {"time": 107760, "pitch": 38, "duration": 10, "velocity": 115}, {"time": 107760, "pitch": 44, "duration": 10, "velocity": 78}, {"time": 107760, "pitch": 57, "duration": 10, "velocity": 83}, {"time": 108003, "pitch": 35, "duration": 10, "velocity": 72}, {"time": 108003, "pitch": 44, "duration": 10, "velocity": 78}, {"time": 108003, "pitch": 49, "duration": 10, "velocity": 81}, {"time": 108243, "pitch": 44, "duration": 10, "velocity": 78}, {"time": 108243, "pitch": 59, "duration": 10, "velocity": 50}, {"time": 108482, "pitch": 38, "duration": 10, "velocity": 119}, {"time": 108482, "pitch": 44, "duration": 10, "velocity": 78}, {"time": 108482, "pitch": 59, "duration": 10, "velocity": 92}, {"time": 108722, "pitch": 35, "duration": 10, "velocity": 68}, {"time": 108722, "pitch": 46, "duration": 10, "velocity": 92}, {"time": 108862, "pitch": 38, "duration": 10, "velocity": 50}, {"time": 108912, "pitch": 38, "duration": 10, "velocity": 64}, {"time": 108962, "pitch": 38, "duration": 10, "velocity": 120}, {"time": 108962, "pitch": 44, "duration": 10, "velocity": 78}, {"time": 108962, "pitch": 57, "duration": 10, "velocity": 83}, {"time": 109102, "pitch": 35, "duration": 10, "velocity": 65}, {"time": 109102, "pitch": 46, "duration": 10, "velocity": 106}, {"time": 109202, "pitch": 44, "duration": 10, "velocity": 78}, {"time": 109341, "pitch": 38, "duration": 10, "velocity": 50}, {"time": 109391, "pitch": 38, "duration": 10, "velocity": 78}, {"time": 109441, "pitch": 38, "duration": 10, "velocity": 120}, {"time": 109441, "pitch": 44, "duration": 10, "velocity": 78}, {"time": 109581, "pitch": 35, "duration": 10, "velocity": 76}, {"time": 109581, "pitch": 46, "duration": 10, "velocity": 106}, {"time": 109681, "pitch": 44, "duration": 10, "velocity": 78}, {"time": 109831, "pitch": 35, "duration": 10, "velocity": 56}, {"time": 109831, "pitch": 57, "duration": 10, "velocity": 78}, {"time": 109921, "pitch": 35, "duration": 10, "velocity": 77}, {"time": 109921, "pitch": 44, "duration": 10, "velocity": 78}, {"time": 109921, "pitch": 49, "duration": 10, "velocity": 80}, {"time": 110071, "pitch": 45, "duration": 10, "velocity": 92}, {"time": 110161, "pitch": 42, "duration": 10, "velocity": 78}, {"time": 110310, "pitch": 35, "duration": 10, "velocity": 56}, {"time": 110310, "pitch": 42, "duration": 10, "velocity": 50}, {"time": 110400, "pitch": 38, "duration": 10, "velocity": 104}, {"time": 110400, "pitch": 42, "duration": 10, "velocity": 90}, {"time": 110550, "pitch": 38, "duration": 10, "velocity": 50}, {"time": 110640, "pitch": 35, "duration": 10, "velocity": 76}, {"time": 110640, "pitch": 57, "duration": 10, "velocity": 82}, {"time": 110790, "pitch": 38, "duration": 10, "velocity": 64}, {"time": 110880, "pitch": 42, "duration": 10, "velocity": 80}, {"time": 111030, "pitch": 38, "duration": 10, "velocity": 92}, {"time": 111120, "pitch": 35, "duration": 10, "velocity": 76}, {"time": 111120, "pitch": 46, "duration": 10, "velocity": 92}, {"time": 111359, "pitch": 38, "duration": 10, "velocity": 104}, {"time": 111359, "pitch": 49, "duration": 10, "velocity": 78}, {"time": 111519, "pitch": 38, "duration": 10, "velocity": 96}, {"time": 111599, "pitch": 38, "duration": 10, "velocity": 36}, {"time": 111679, "pitch": 38, "duration": 10, "velocity": 64}, {"time": 111759, "pitch": 38, "duration": 10, "velocity": 92}, {"time": 111839, "pitch": 35, "duration": 10, "velocity": 77}, {"time": 111839, "pitch": 44, "duration": 10, "velocity": 78}, {"time": 111839, "pitch": 49, "duration": 10, "velocity": 78}, {"time": 111999, "pitch": 41, "duration": 10, "velocity": 64}, {"time": 112079, "pitch": 41, "duration": 10, "velocity": 92}, {"time": 112079, "pitch": 44, "duration": 10, "velocity": 78}, {"time": 112219, "pitch": 35, "duration": 10, "velocity": 36}, {"time": 112268, "pitch": 35, "duration": 10, "velocity": 56}, {"time": 112318, "pitch": 38, "duration": 10, "velocity": 78}, {"time": 112318, "pitch": 44, "duration": 10, "velocity": 78}, {"time": 112338, "pitch": 38, "duration": 10, "velocity": 106}, {"time": 112558, "pitch": 35, "duration": 10, "velocity": 76}, {"time": 112558, "pitch": 44, "duration": 10, "velocity": 78}, {"time": 112558, "pitch": 57, "duration": 10, "velocity": 85}, {"time": 112698, "pitch": 38, "duration": 10, "velocity": 50}, {"time": 112748, "pitch": 38, "duration": 10, "velocity": 64}, {"time": 112798, "pitch": 38, "duration": 10, "velocity": 106}, {"time": 112798, "pitch": 44, "duration": 10, "velocity": 78}, {"time": 112938, "pitch": 35, "duration": 10, "velocity": 76}, {"time": 112938, "pitch": 49, "duration": 10, "velocity": 92}, {"time": 113038, "pitch": 44, "duration": 10, "velocity": 78}, {"time": 113178, "pitch": 35, "duration": 10, "velocity": 76}, {"time": 113178, "pitch": 46, "duration": 10, "velocity": 106}, {"time": 113277, "pitch": 38, "duration": 10, "velocity": 106}, {"time": 113277, "pitch": 44, "duration": 10, "velocity": 50}, {"time": 113357, "pitch": 48, "duration": 10, "velocity": 78}, {"time": 113437, "pitch": 43, "duration": 10, "velocity": 78}, {"time": 113517, "pitch": 41, "duration": 10, "velocity": 92}, {"time": 113757, "pitch": 35, "duration": 10, "velocity": 72}, {"time": 113757, "pitch": 44, "duration": 10, "velocity": 78}, {"time": 113757, "pitch": 49, "duration": 10, "velocity": 78}, {"time": 113909, "pitch": 38, "duration": 10, "velocity": 64}, {"time": 114000, "pitch": 46, "duration": 10, "velocity": 92}, {"time": 114152, "pitch": 35, "duration": 10, "velocity": 65}, {"time": 114243, "pitch": 38, "duration": 10, "velocity": 114}, {"time": 114243, "pitch": 44, "duration": 10, "velocity": 78}, {"time": 114483, "pitch": 35, "duration": 10, "velocity": 65}, {"time": 114483, "pitch": 44, "duration": 10, "velocity": 78}, {"time": 114483, "pitch": 49, "duration": 10, "velocity": 78}, {"time": 114722, "pitch": 44, "duration": 10, "velocity": 78}, {"time": 114722, "pitch": 59, "duration": 10, "velocity": 78}, {"time": 114872, "pitch": 38, "duration": 10, "velocity": 64}, {"time": 114962, "pitch": 35, "duration": 10, "velocity": 76}, {"time": 114962, "pitch": 44, "duration": 10, "velocity": 78}, {"time": 114962, "pitch": 59, "duration": 10, "velocity": 50}, {"time": 115202, "pitch": 38, "duration": 10, "velocity": 115}, {"time": 115202, "pitch": 44, "duration": 10, "velocity": 78}, {"time": 115202, "pitch": 59, "duration": 10, "velocity": 92}, {"time": 115442, "pitch": 44, "duration": 10, "velocity": 78}, {"time": 115442, "pitch": 59, "duration": 10, "velocity": 50}, {"time": 115581, "pitch": 38, "duration": 10, "velocity": 36}, {"time": 115631, "pitch": 38, "duration": 10, "velocity": 50}, {"time": 115681, "pitch": 35, "duration": 10, "velocity": 72}, {"time": 115681, "pitch": 44, "duration": 10, "velocity": 78}, {"time": 115681, "pitch": 59, "duration": 10, "velocity": 78}, {"time": 115921, "pitch": 44, "duration": 10, "velocity": 78}, {"time": 115921, "pitch": 59, "duration": 10, "velocity": 50}, {"time": 116161, "pitch": 38, "duration": 10, "velocity": 114}, {"time": 116161, "pitch": 44, "duration": 10, "velocity": 78}, {"time": 116161, "pitch": 59, "duration": 10, "velocity": 92}, {"time": 116401, "pitch": 35, "duration": 10, "velocity": 65}, {"time": 116401, "pitch": 44, "duration": 10, "velocity": 78}, {"time": 116401, "pitch": 59, "duration": 10, "velocity": 50}, {"time": 116640, "pitch": 35, "duration": 10, "velocity": 76}, {"time": 116640, "pitch": 44, "duration": 10, "velocity": 78}, {"time": 116640, "pitch": 49, "duration": 10, "velocity": 78}, {"time": 116790, "pitch": 38, "duration": 10, "velocity": 78}, {"time": 116880, "pitch": 44, "duration": 10, "velocity": 78}, {"time": 117030, "pitch": 35, "duration": 10, "velocity": 45}, {"time": 117120, "pitch": 35, "duration": 10, "velocity": 76}, {"time": 117120, "pitch": 38, "duration": 10, "velocity": 120}, {"time": 117120, "pitch": 44, "duration": 10, "velocity": 78}, {"time": 117120, "pitch": 49, "duration": 10, "velocity": 78}, {"time": 117260, "pitch": 38, "duration": 10, "velocity": 36}, {"time": 117360, "pitch": 44, "duration": 10, "velocity": 78}, {"time": 117360, "pitch": 45, "duration": 10, "velocity": 92}, {"time": 117509, "pitch": 38, "duration": 10, "velocity": 36}, {"time": 117599, "pitch": 35, "duration": 10, "velocity": 72}, {"time": 117599, "pitch": 44, "duration": 10, "velocity": 78}, {"time": 117599, "pitch": 49, "duration": 10, "velocity": 83}, {"time": 117839, "pitch": 44, "duration": 10, "velocity": 78}, {"time": 117839, "pitch": 59, "duration": 10, "velocity": 50}, {"time": 118079, "pitch": 38, "duration": 10, "velocity": 114}, {"time": 118079, "pitch": 44, "duration": 10, "velocity": 78}, {"time": 118079, "pitch": 59, "duration": 10, "velocity": 92}, {"time": 118319, "pitch": 35, "duration": 10, "velocity": 76}, {"time": 118319, "pitch": 44, "duration": 10, "velocity": 78}, {"time": 118319, "pitch": 59, "duration": 10, "velocity": 50}, {"time": 118558, "pitch": 44, "duration": 10, "velocity": 78}, {"time": 118558, "pitch": 59, "duration": 10, "velocity": 78}, {"time": 118708, "pitch": 38, "duration": 10, "velocity": 78}, {"time": 118798, "pitch": 35, "duration": 10, "velocity": 71}, {"time": 118798, "pitch": 44, "duration": 10, "velocity": 78}, {"time": 118798, "pitch": 59, "duration": 10, "velocity": 50}, {"time": 119038, "pitch": 38, "duration": 10, "velocity": 115}, {"time": 119038, "pitch": 44, "duration": 10, "velocity": 78}, {"time": 119038, "pitch": 59, "duration": 10, "velocity": 92}, {"time": 119278, "pitch": 44, "duration": 10, "velocity": 78}, {"time": 119278, "pitch": 59, "duration": 10, "velocity": 50}, {"time": 119418, "pitch": 38, "duration": 10, "velocity": 36}, {"time": 119468, "pitch": 38, "duration": 10, "velocity": 50}, {"time": 119517, "pitch": 35, "duration": 10, "velocity": 72}, {"time": 119517, "pitch": 44, "duration": 10, "velocity": 78}, {"time": 119517, "pitch": 59, "duration": 10, "velocity": 78}, {"time": 119757, "pitch": 44, "duration": 10, "velocity": 78}, {"time": 119757, "pitch": 59, "duration": 10, "velocity": 50}, {"time": 119997, "pitch": 38, "duration": 10, "velocity": 114}, {"time": 119997, "pitch": 44, "duration": 10, "velocity": 78}, {"time": 119997, "pitch": 59, "duration": 10, "velocity": 78}, {"time": 120149, "pitch": 59, "duration": 10, "velocity": 50}, {"time": 120240, "pitch": 35, "duration": 10, "velocity": 76}, {"time": 120240, "pitch": 44, "duration": 10, "velocity": 78}, {"time": 120240, "pitch": 59, "duration": 10, "velocity": 92}, {"time": 120392, "pitch": 59, "duration": 10, "velocity": 64}, {"time": 120483, "pitch": 44, "duration": 10, "velocity": 78}, {"time": 120483, "pitch": 59, "duration": 10, "velocity": 78}, {"time": 120633, "pitch": 38, "duration": 10, "velocity": 92}, {"time": 120723, "pitch": 35, "duration": 10, "velocity": 76}, {"time": 120723, "pitch": 44, "duration": 10, "velocity": 78}, {"time": 120723, "pitch": 59, "duration": 10, "velocity": 50}, {"time": 120962, "pitch": 38, "duration": 10, "velocity": 114}, {"time": 120962, "pitch": 44, "duration": 10, "velocity": 78}, {"time": 120962, "pitch": 59, "duration": 10, "velocity": 92}, {"time": 121202, "pitch": 43, "duration": 10, "velocity": 92}, {"time": 121202, "pitch": 44, "duration": 10, "velocity": 78}, {"time": 121202, "pitch": 59, "duration": 10, "velocity": 50}, {"time": 121342, "pitch": 38, "duration": 10, "velocity": 36}, {"time": 121392, "pitch": 38, "duration": 10, "velocity": 50}, {"time": 121442, "pitch": 35, "duration": 10, "velocity": 65}, {"time": 121442, "pitch": 44, "duration": 10, "velocity": 78}, {"time": 121442, "pitch": 49, "duration": 10, "velocity": 82}, {"time": 121592, "pitch": 38, "duration": 10, "velocity": 36}, {"time": 121682, "pitch": 38, "duration": 10, "velocity": 78}, {"time": 121682, "pitch": 44, "duration": 10, "velocity": 78}, {"time": 121682, "pitch": 59, "duration": 10, "velocity": 50}, {"time": 121831, "pitch": 35, "duration": 10, "velocity": 65}, {"time": 121921, "pitch": 38, "duration": 10, "velocity": 118}, {"time": 121921, "pitch": 44, "duration": 10, "velocity": 78}, {"time": 121921, "pitch": 57, "duration": 10, "velocity": 84}, {"time": 122071, "pitch": 38, "duration": 10, "velocity": 64}, {"time": 122161, "pitch": 35, "duration": 10, "velocity": 72}, {"time": 122161, "pitch": 44, "duration": 10, "velocity": 78}, {"time": 122161, "pitch": 49, "duration": 10, "velocity": 84}, {"time": 122311, "pitch": 38, "duration": 10, "velocity": 78}, {"time": 122401, "pitch": 44, "duration": 10, "velocity": 78}, {"time": 122401, "pitch": 59, "duration": 10, "velocity": 78}, {"time": 122551, "pitch": 38, "duration": 10, "velocity": 78}, {"time": 122641, "pitch": 35, "duration": 10, "velocity": 65}, {"time": 122641, "pitch": 46, "duration": 10, "velocity": 92}, {"time": 122880, "pitch": 38, "duration": 10, "velocity": 117}, {"time": 122880, "pitch": 44, "duration": 10, "velocity": 78}, {"time": 122880, "pitch": 57, "duration": 10, "velocity": 82}, {"time": 123120, "pitch": 38, "duration": 10, "velocity": 115}, {"time": 123120, "pitch": 44, "duration": 10, "velocity": 78}, {"time": 123120, "pitch": 57, "duration": 10, "velocity": 83}, {"time": 123240, "pitch": 38, "duration": 10, "velocity": 36}, {"time": 123280, "pitch": 38, "duration": 10, "velocity": 50}, {"time": 123320, "pitch": 38, "duration": 10, "velocity": 64}, {"time": 123360, "pitch": 35, "duration": 10, "velocity": 72}, {"time": 123360, "pitch": 44, "duration": 10, "velocity": 78}, {"time": 123360, "pitch": 49, "duration": 10, "velocity": 81}, {"time": 123510, "pitch": 38, "duration": 10, "velocity": 50}, {"time": 123600, "pitch": 44, "duration": 10, "velocity": 78}, {"time": 123600, "pitch": 59, "duration": 10, "velocity": 50}, {"time": 123839, "pitch": 38, "duration": 10, "velocity": 114}, {"time": 123839, "pitch": 44, "duration": 10, "velocity": 78}, {"time": 123839, "pitch": 59, "duration": 10, "velocity": 92}, {"time": 124079, "pitch": 44, "duration": 10, "velocity": 78}, {"time": 124079, "pitch": 59, "duration": 10, "velocity": 50}, {"time": 124319, "pitch": 35, "duration": 10, "velocity": 65}, {"time": 124319, "pitch": 44, "duration": 10, "velocity": 78}, {"time": 124319, "pitch": 59, "duration": 10, "velocity": 78}, {"time": 124469, "pitch": 38, "duration": 10, "velocity": 64}, {"time": 124559, "pitch": 35, "duration": 10, "velocity": 76}, {"time": 124559, "pitch": 44, "duration": 10, "velocity": 78}, {"time": 124559, "pitch": 59, "duration": 10, "velocity": 50}, {"time": 124798, "pitch": 38, "duration": 10, "velocity": 114}, {"time": 124798, "pitch": 44, "duration": 10, "velocity": 78}, {"time": 124798, "pitch": 59, "duration": 10, "velocity": 92}, {"time": 125038, "pitch": 44, "duration": 10, "velocity": 78}, {"time": 125038, "pitch": 59, "duration": 10, "velocity": 50}, {"time": 125178, "pitch": 38, "duration": 10, "velocity": 36}, {"time": 125228, "pitch": 38, "duration": 10, "velocity": 50}, {"time": 125278, "pitch": 35, "duration": 10, "velocity": 72}, {"time": 125278, "pitch": 44, "duration": 10, "velocity": 78}, {"time": 125278, "pitch": 49, "duration": 10, "velocity": 81}, {"time": 125518, "pitch": 44, "duration": 10, "velocity": 78}, {"time": 125518, "pitch": 59, "duration": 10, "velocity": 50}, {"time": 125757, "pitch": 38, "duration": 10, "velocity": 119}, {"time": 125757, "pitch": 44, "duration": 10, "velocity": 78}, {"time": 125757, "pitch": 59, "duration": 10, "velocity": 92}, {"time": 125997, "pitch": 35, "duration": 10, "velocity": 76}, {"time": 125997, "pitch": 44, "duration": 10, "velocity": 78}, {"time": 125997, "pitch": 49, "duration": 10, "velocity": 78}, {"time": 126237, "pitch": 38, "duration": 10, "velocity": 78}, {"time": 126237, "pitch": 44, "duration": 10, "velocity": 92}, {"time": 126379, "pitch": 38, "duration": 10, "velocity": 106}, {"time": 126480, "pitch": 38, "duration": 10, "velocity": 36}, {"time": 126480, "pitch": 44, "duration": 10, "velocity": 92}, {"time": 126622, "pitch": 45, "duration": 10, "velocity": 92}, {"time": 126723, "pitch": 38, "duration": 10, "velocity": 36}, {"time": 126723, "pitch": 44, "duration": 10, "velocity": 92}, {"time": 126863, "pitch": 41, "duration": 10, "velocity": 64}, {"time": 126963, "pitch": 41, "duration": 9, "velocity": 106}, {"time": 126963, "pitch": 44, "duration": 9, "velocity": 92}, {"time": 127202, "pitch": 35, "duration": 10, "velocity": 72}, {"time": 127202, "pitch": 49, "duration": 10, "velocity": 83}, {"time": 127442, "pitch": 42, "duration": 10, "velocity": 50}, {"time": 127682, "pitch": 38, "duration": 10, "velocity": 114}, {"time": 127682, "pitch": 42, "duration": 10, "velocity": 108}, {"time": 127922, "pitch": 42, "duration": 10, "velocity": 50}, {"time": 128071, "pitch": 38, "duration": 10, "velocity": 50}, {"time": 128161, "pitch": 35, "duration": 10, "velocity": 65}, {"time": 128161, "pitch": 42, "duration": 10, "velocity": 106}, {"time": 128311, "pitch": 38, "duration": 10, "velocity": 64}, {"time": 128401, "pitch": 35, "duration": 10, "velocity": 76}, {"time": 128401, "pitch": 42, "duration": 10, "velocity": 50}, {"time": 128641, "pitch": 38, "duration": 10, "velocity": 115}, {"time": 128641, "pitch": 42, "duration": 10, "velocity": 108}, {"time": 128881, "pitch": 42, "duration": 10, "velocity": 50}, {"time": 129020, "pitch": 38, "duration": 10, "velocity": 36}, {"time": 129070, "pitch": 38, "duration": 10, "velocity": 50}, {"time": 129120, "pitch": 35, "duration": 10, "velocity": 72}, {"time": 129120, "pitch": 42, "duration": 10, "velocity": 102}, {"time": 129360, "pitch": 42, "duration": 10, "velocity": 50}, {"time": 129600, "pitch": 38, "duration": 10, "velocity": 114}, {"time": 129600, "pitch": 42, "duration": 10, "velocity": 104}, {"time": 129840, "pitch": 42, "duration": 10, "velocity": 50}, {"time": 129989, "pitch": 38, "duration": 10, "velocity": 50}, {"time": 130079, "pitch": 35, "duration": 10, "velocity": 65}, {"time": 130079, "pitch": 42, "duration": 10, "velocity": 108}, {"time": 130229, "pitch": 38, "duration": 10, "velocity": 64}, {"time": 130319, "pitch": 35, "duration": 10, "velocity": 76}, {"time": 130319, "pitch": 42, "duration": 10, "velocity": 50}, {"time": 130559, "pitch": 38, "duration": 10, "velocity": 114}, {"time": 130559, "pitch": 42, "duration": 10, "velocity": 102}, {"time": 130799, "pitch": 42, "duration": 10, "velocity": 50}, {"time": 130939, "pitch": 38, "duration": 10, "velocity": 36}, {"time": 130988, "pitch": 38, "duration": 10, "velocity": 50}, {"time": 131038, "pitch": 35, "duration": 10, "velocity": 72}, {"time": 131038, "pitch": 49, "duration": 10, "velocity": 83}, {"time": 131278, "pitch": 42, "duration": 10, "velocity": 50}, {"time": 131518, "pitch": 38, "duration": 10, "velocity": 114}, {"time": 131518, "pitch": 42, "duration": 10, "velocity": 108}, {"time": 131758, "pitch": 42, "duration": 10, "velocity": 50}, {"time": 131898, "pitch": 38, "duration": 10, "velocity": 36}, {"time": 131948, "pitch": 38, "duration": 10, "velocity": 50}, {"time": 131997, "pitch": 35, "duration": 10, "velocity": 65}, {"time": 131997, "pitch": 42, "duration": 10, "velocity": 106}, {"time": 132147, "pitch": 38, "duration": 10, "velocity": 64}, {"time": 132237, "pitch": 35, "duration": 10, "velocity": 76}, {"time": 132237, "pitch": 42, "duration": 10, "velocity": 50}, {"time": 132477, "pitch": 38, "duration": 10, "velocity": 115}, {"time": 132477, "pitch": 42, "duration": 10, "velocity": 108}, {"time": 132720, "pitch": 42, "duration": 10, "velocity": 50}, {"time": 132862, "pitch": 38, "duration": 10, "velocity": 36}, {"time": 132912, "pitch": 38, "duration": 10, "velocity": 50}, {"time": 132963, "pitch": 35, "duration": 10, "velocity": 72}, {"time": 132963, "pitch": 42, "duration": 10, "velocity": 106}, {"time": 133103, "pitch": 38, "duration": 10, "velocity": 64}, {"time": 133203, "pitch": 42, "duration": 9, "velocity": 50}, {"time": 133342, "pitch": 35, "duration": 10, "velocity": 56}, {"time": 133442, "pitch": 38, "duration": 10, "velocity": 116}, {"time": 133442, "pitch": 46, "duration": 10, "velocity": 78}, {"time": 133582, "pitch": 38, "duration": 10, "velocity": 64}, {"time": 133682, "pitch": 35, "duration": 10, "velocity": 56}, {"time": 133682, "pitch": 46, "duration": 10, "velocity": 106}, {"time": 133802, "pitch": 38, "duration": 10, "velocity": 36}, {"time": 133842, "pitch": 38, "duration": 10, "velocity": 36}, {"time": 133882, "pitch": 38, "duration": 10, "velocity": 50}, {"time": 133922, "pitch": 38, "duration": 10, "velocity": 106}, {"time": 133922, "pitch": 44, "duration": 10, "velocity": 92}, {"time": 133922, "pitch": 57, "duration": 10, "velocity": 80}, {"time": 134072, "pitch": 45, "duration": 10, "velocity": 92}, {"time": 134162, "pitch": 38, "duration": 10, "velocity": 36}, {"time": 134162, "pitch": 44, "duration": 10, "velocity": 92}, {"time": 134311, "pitch": 43, "duration": 10, "velocity": 78}, {"time": 134401, "pitch": 41, "duration": 10, "velocity": 64}, {"time": 134401, "pitch": 44, "duration": 10, "velocity": 92}, {"time": 134551, "pitch": 41, "duration": 10, "velocity": 78}, {"time": 134641, "pitch": 41, "duration": 10, "velocity": 106}, {"time": 134641, "pitch": 44, "duration": 10, "velocity": 92}, {"time": 134881, "pitch": 35, "duration": 10, "velocity": 76}, {"time": 134881, "pitch": 49, "duration": 10, "velocity": 80}, {"time": 963, "pitch": 73, "duration": 244, "velocity": 89}, {"time": 963, "pitch": 76, "duration": 244, "velocity": 112}, {"time": 1215, "pitch": 73, "duration": 134, "velocity": 84}, {"time": 1215, "pitch": 76, "duration": 134, "velocity": 106}, {"time": 1437, "pitch": 76, "duration": 383, "velocity": 108}, {"time": 1923, "pitch": 68, "duration": 142, "velocity": 72}, {"time": 1923, "pitch": 73, "duration": 142, "velocity": 91}, {"time": 2163, "pitch": 66, "duration": 136, "velocity": 80}, {"time": 2163, "pitch": 71, "duration": 136, "velocity": 101}, {"time": 2407, "pitch": 68, "duration": 467, "velocity": 89}, {"time": 2407, "pitch": 73, "duration": 467, "velocity": 112}, {"time": 2882, "pitch": 66, "duration": 158, "velocity": 78}, {"time": 2882, "pitch": 71, "duration": 162, "velocity": 97}, {"time": 3127, "pitch": 68, "duration": 466, "velocity": 89}, {"time": 3127, "pitch": 73, "duration": 466, "velocity": 112}, {"time": 3601, "pitch": 66, "duration": 158, "velocity": 78}, {"time": 3601, "pitch": 71, "duration": 162, "velocity": 97}, {"time": 3846, "pitch": 68, "duration": 600, "velocity": 89}, {"time": 3846, "pitch": 73, "duration": 600, "velocity": 112}, {"time": 4805, "pitch": 73, "duration": 245, "velocity": 89}, {"time": 4805, "pitch": 76, "duration": 245, "velocity": 112}, {"time": 5058, "pitch": 73, "duration": 134, "velocity": 84}, {"time": 5058, "pitch": 76, "duration": 134, "velocity": 106}, {"time": 5280, "pitch": 76, "duration": 377, "velocity": 108}, {"time": 5759, "pitch": 68, "duration": 142, "velocity": 72}, {"time": 5759, "pitch": 73, "duration": 142, "velocity": 91}, {"time": 5999, "pitch": 66, "duration": 137, "velocity": 80}, {"time": 5999, "pitch": 71, "duration": 137, "velocity": 101}, {"time": 6244, "pitch": 68, "duration": 466, "velocity": 89}, {"time": 6244, "pitch": 73, "duration": 466, "velocity": 112}, {"time": 6718, "pitch": 66, "duration": 158, "velocity": 78}, {"time": 6718, "pitch": 71, "duration": 162, "velocity": 97}, {"time": 6963, "pitch": 68, "duration": 466, "velocity": 89}, {"time": 6963, "pitch": 73, "duration": 466, "velocity": 112}, {"time": 7437, "pitch": 71, "duration": 158, "velocity": 78}, {"time": 7437, "pitch": 76, "duration": 162, "velocity": 97}, {"time": 7682, "pitch": 68, "duration": 607, "velocity": 89}, {"time": 7682, "pitch": 73, "duration": 607, "velocity": 112}, {"time": 127687, "pitch": 73, "duration": 245, "velocity": 89}, {"time": 127687, "pitch": 76, "duration": 245, "velocity": 112}, {"time": 127940, "pitch": 73, "duration": 133, "velocity": 84}, {"time": 127940, "pitch": 76, "duration": 133, "velocity": 106}, {"time": 128161, "pitch": 76, "duration": 378, "velocity": 108}, {"time": 128641, "pitch": 68, "duration": 142, "velocity": 72}, {"time": 128641, "pitch": 73, "duration": 142, "velocity": 91}, {"time": 128881, "pitch": 66, "duration": 136, "velocity": 80}, {"time": 128881, "pitch": 71, "duration": 136, "velocity": 101}, {"time": 129125, "pitch": 68, "duration": 467, "velocity": 89}, {"time": 129125, "pitch": 73, "duration": 467, "velocity": 112}, {"time": 129600, "pitch": 66, "duration": 158, "velocity": 78}, {"time": 129600, "pitch": 71, "duration": 162, "velocity": 97}, {"time": 129845, "pitch": 68, "duration": 466, "velocity": 89}, {"time": 129845, "pitch": 73, "duration": 466, "velocity": 112}, {"time": 130319, "pitch": 66, "duration": 158, "velocity": 78}, {"time": 130319, "pitch": 71, "duration": 162, "velocity": 97}, {"time": 130564, "pitch": 68, "duration": 600, "velocity": 89}, {"time": 130564, "pitch": 73, "duration": 600, "velocity": 112}, {"time": 131523, "pitch": 73, "duration": 245, "velocity": 89}, {"time": 131523, "pitch": 76, "duration": 245, "velocity": 112}, {"time": 131776, "pitch": 73, "duration": 134, "velocity": 84}, {"time": 131776, "pitch": 76, "duration": 134, "velocity": 106}, {"time": 131997, "pitch": 76, "duration": 378, "velocity": 108}, {"time": 132477, "pitch": 68, "duration": 144, "velocity": 72}, {"time": 132477, "pitch": 73, "duration": 144, "velocity": 91}, {"time": 132720, "pitch": 66, "duration": 139, "velocity": 80}, {"time": 132720, "pitch": 71, "duration": 139, "velocity": 101}, {"time": 132968, "pitch": 68, "duration": 466, "velocity": 89}, {"time": 132968, "pitch": 73, "duration": 466, "velocity": 112}, {"time": 133442, "pitch": 66, "duration": 158, "velocity": 78}, {"time": 133442, "pitch": 71, "duration": 162, "velocity": 97}, {"time": 133687, "pitch": 68, "duration": 467, "velocity": 89}, {"time": 133687, "pitch": 73, "duration": 467, "velocity": 112}, {"time": 134162, "pitch": 71, "duration": 157, "velocity": 78}, {"time": 134162, "pitch": 76, "duration": 161, "velocity": 97}, {"time": 134406, "pitch": 68, "duration": 601, "velocity": 89}, {"time": 134406, "pitch": 73, "duration": 601, "velocity": 112}, {"time": 1437, "pitch": 73, "duration": 383, "velocity": 86}, {"time": 5280, "pitch": 73, "duration": 377, "velocity": 86}]}]}