{"metadata": {"schema_version": "0.1", "title": "RWC-MDB-P-2001 No. 100: No Regrets / Shinya Iguchi", "copyright": "RWC Music Database. Copyright (C) 2001 Real World Computing Partnership (contact: Masataka GOTO <m.goto@aist.go.jp>)", "source_filename": "RM-P100.SMF_SYNC.MID", "source_format": "midi"}, "resolution": 480, "tempos": [{"time": 0, "qpm": 44.11764705882353}, {"time": 480, "qpm": 78.94736842105263}, {"time": 5280, "qpm": 81.08108108108108}, {"time": 5760, "qpm": 80.0}, {"time": 6240, "qpm": 81.08108108108108}, {"time": 7680, "qpm": 80.0}, {"time": 8160, "qpm": 78.94736842105263}, {"time": 8640, "qpm": 80.0}, {"time": 9120, "qpm": 78.94736842105263}, {"time": 9600, "qpm": 80.0}, {"time": 11040, "qpm": 78.94736842105263}, {"time": 11520, "qpm": 80.0}, {"time": 13920, "qpm": 78.94736842105263}, {"time": 14400, "qpm": 80.0}, {"time": 14880, "qpm": 78.94736842105263}, {"time": 15360, "qpm": 81.08108108108108}, {"time": 17280, "qpm": 80.0}, {"time": 17760, "qpm": 78.94736842105263}, {"time": 18240, "qpm": 80.0}, {"time": 18720, "qpm": 78.94736842105263}, {"time": 19200, "qpm": 81.08108108108108}, {"time": 19680, "qpm": 80.0}, {"time": 23040, "qpm": 81.08108108108108}, {"time": 23520, "qpm": 80.0}, {"time": 24000, "qpm": 81.08108108108108}, {"time": 24480, "qpm": 80.0}, {"time": 26400, "qpm": 78.94736842105263}, {"time": 26880, "qpm": 80.0}, {"time": 29280, "qpm": 81.08108108108108}, {"time": 29760, "qpm": 80.0}, {"time": 30240, "qpm": 81.08108108108108}, {"time": 30720, "qpm": 78.94736842105263}, {"time": 33120, "qpm": 81.08108108108108}, {"time": 34080, "qpm": 80.0}, {"time": 34560, "qpm": 81.08108108108108}, {"time": 35040, "qpm": 80.0}, {"time": 36480, "qpm": 81.08108108108108}, {"time": 36960, "qpm": 80.0}, {"time": 38880, "qpm": 78.94736842105263}, {"time": 39360, "qpm": 80.0}, {"time": 39840, "qpm": 78.94736842105263}, {"time": 40320, "qpm": 80.0}, {"time": 41760, "qpm": 78.94736842105263}, {"time": 42240, "qpm": 80.0}, {"time": 44160, "qpm": 81.08108108108108}, {"time": 44640, "qpm": 80.0}, {"time": 46080, "qpm": 81.08108108108108}, {"time": 46560, "qpm": 80.0}, {"time": 49920, "qpm": 81.08108108108108}, {"time": 51840, "qpm": 78.94736842105263}, {"time": 55680, "qpm": 80.0}, {"time": 57600, "qpm": 81.08108108108108}, {"time": 58080, "qpm": 80.0}, {"time": 58560, "qpm": 81.08108108108108}, {"time": 59040, "qpm": 80.0}, {"time": 59520, "qpm": 81.08108108108108}, {"time": 60000, "qpm": 80.0}, {"time": 60480, "qpm": 81.08108108108108}, {"time": 60960, "qpm": 80.0}, {"time": 61440, "qpm": 78.94736842105263}, {"time": 63360, "qpm": 80.0}, {"time": 64800, "qpm": 81.08108108108108}, {"time": 65280, "qpm": 80.0}, {"time": 66240, "qpm": 81.08108108108108}, {"time": 68160, "qpm": 80.0}, {"time": 68640, "qpm": 81.08108108108108}, {"time": 69120, "qpm": 80.0}, {"time": 71040, "qpm": 78.94736842105263}, {"time": 73440, "qpm": 81.08108108108108}, {"time": 74880, "qpm": 80.0}, {"time": 75360, "qpm": 78.94736842105263}, {"time": 75840, "qpm": 80.0}, {"time": 76320, "qpm": 78.94736842105263}, {"time": 76800, "qpm": 80.0}, {"time": 82080, "qpm": 78.94736842105263}, {"time": 82560, "qpm": 81.08108108108108}, {"time": 83040, "qpm": 80.0}, {"time": 84960, "qpm": 78.94736842105263}, {"time": 86400, "qpm": 81.08108108108108}, {"time": 86880, "qpm": 80.0}, {"time": 88320, "qpm": 81.08108108108108}, {"time": 89760, "qpm": 80.0}, {"time": 90720, "qpm": 81.08108108108108}, {"time": 91680, "qpm": 80.0}, {"time": 92160, "qpm": 81.08108108108108}, {"time": 93120, "qpm": 77.92207792207792}, {"time": 93600, "qpm": 78.94736842105263}, {"time": 94080, "qpm": 80.0}, {"time": 95040, "qpm": 78.94736842105263}, {"time": 95520, "qpm": 80.0}, {"time": 96000, "qpm": 81.08108108108108}, {"time": 96480, "qpm": 80.0}, {"time": 97920, "qpm": 81.08108108108108}, {"time": 98400, "qpm": 80.0}, {"time": 98880, "qpm": 81.08108108108108}, {"time": 99360, "qpm": 80.0}, {"time": 99840, "qpm": 81.08108108108108}, {"time": 100320, "qpm": 80.0}, {"time": 100800, "qpm": 81.08108108108108}, {"time": 101280, "qpm": 80.0}, {"time": 101760, "qpm": 78.94736842105263}, {"time": 105600, "qpm": 81.08108108108108}, {"time": 108000, "qpm": 80.0}, {"time": 108480, "qpm": 81.08108108108108}, {"time": 108960, "qpm": 80.0}, {"time": 109440, "qpm": 78.94736842105263}, {"time": 111840, "qpm": 81.08108108108108}, {"time": 112800, "qpm": 80.0}, {"time": 113280, "qpm": 81.08108108108108}, {"time": 115200, "qpm": 80.0}, {"time": 117120, "qpm": 78.94736842105263}, {"time": 120480, "qpm": 81.08108108108108}, {"time": 121440, "qpm": 80.0}, {"time": 126240, "qpm": 78.94736842105263}, {"time": 126720, "qpm": 81.08108108108108}, {"time": 128160, "qpm": 80.0}, {"time": 128640, "qpm": 78.94736842105263}, {"time": 130560, "qpm": 80.0}, {"time": 131040, "qpm": 81.08108108108108}, {"time": 132960, "qpm": 80.0}, {"time": 134880, "qpm": 78.94736842105263}, {"time": 136320, "qpm": 81.08108108108108}, {"time": 136800, "qpm": 80.0}, {"time": 137280, "qpm": 81.08108108108108}, {"time": 137760, "qpm": 80.0}, {"time": 139680, "qpm": 78.94736842105263}, {"time": 140160, "qpm": 80.0}, {"time": 142560, "qpm": 78.94736842105263}, {"time": 143040, "qpm": 80.0}, {"time": 143520, "qpm": 81.08108108108108}, {"time": 144000, "qpm": 80.0}, {"time": 146400, "qpm": 78.94736842105263}, {"time": 146880, "qpm": 80.0}, {"time": 147360, "qpm": 78.94736842105263}, {"time": 147840, "qpm": 81.08108108108108}, {"time": 148320, "qpm": 80.0}, {"time": 149760, "qpm": 81.08108108108108}, {"time": 150240, "qpm": 80.0}, {"time": 151680, "qpm": 78.94736842105263}, {"time": 153600, "qpm": 80.0}, {"time": 154080, "qpm": 81.08108108108108}, {"time": 155520, "qpm": 80.0}, {"time": 156960, "qpm": 78.94736842105263}, {"time": 157440, "qpm": 81.08108108108108}, {"time": 157920, "qpm": 80.0}, {"time": 158400, "qpm": 81.08108108108108}, {"time": 158880, "qpm": 80.0}, {"time": 159360, "qpm": 78.94736842105263}, {"time": 160800, "qpm": 80.0}, {"time": 161280, "qpm": 81.08108108108108}, {"time": 163680, "qpm": 80.0}, {"time": 164160, "qpm": 78.94736842105263}, {"time": 165120, "qpm": 81.08108108108108}, {"time": 167040, "qpm": 78.94736842105263}, {"time": 168960, "qpm": 81.08108108108108}, {"time": 170400, "qpm": 80.0}, {"time": 171360, "qpm": 78.94736842105263}, {"time": 171840, "qpm": 80.0}, {"time": 172800, "qpm": 81.08108108108108}, {"time": 174720, "qpm": 78.94736842105263}, {"time": 177600, "qpm": 80.0}, {"time": 179040, "qpm": 78.94736842105263}, {"time": 179520, "qpm": 80.0}, {"time": 180000, "qpm": 78.94736842105263}, {"time": 181920, "qpm": 61.224489795918366}], "key_signatures": [{"time": 0, "root": 0, "mode": "major"}], "tracks": [{"program": 0, "is_drum": false, "name": "Piano", "notes": [{"time": 1640, "pitch": 67, "duration": 3390, "velocity": 73}, {"time": 1690, "pitch": 72, "duration": 2050, "velocity": 75}, {"time": 1720, "pitch": 74, "duration": 2050, "velocity": 81}, {"time": 1760, "pitch": 76, "duration": 790, "velocity": 70}, {"time": 1770, "pitch": 79, "duration": 770, "velocity": 87}, {"time": 1810, "pitch": 84, "duration": 80, "velocity": 93}, {"time": 1850, "pitch": 86, "duration": 60, "velocity": 112}, {"time": 1890, "pitch": 91, "duration": 1040, "velocity": 107}, {"time": 1910, "pitch": 89, "duration": 20, "velocity": 73}, {"time": 1960, "pitch": 86, "duration": 1110, "velocity": 112}, {"time": 3480, "pitch": 83, "duration": 110, "velocity": 58}, {"time": 3610, "pitch": 84, "duration": 110, "velocity": 43}, {"time": 3730, "pitch": 91, "duration": 500, "velocity": 63}, {"time": 3860, "pitch": 83, "duration": 360, "velocity": 46}, {"time": 5280, "pitch": 80, "duration": 40, "velocity": 127}, {"time": 5280, "pitch": 84, "duration": 230, "velocity": 107}, {"time": 5320, "pitch": 81, "duration": 100, "velocity": 99}, {"time": 5420, "pitch": 79, "duration": 120, "velocity": 63}, {"time": 5540, "pitch": 77, "duration": 70, "velocity": 68}, {"time": 5660, "pitch": 67, "duration": 230, "velocity": 81}, {"time": 5770, "pitch": 74, "duration": 50, "velocity": 107}, {"time": 5780, "pitch": 79, "duration": 860, "velocity": 103}, {"time": 5820, "pitch": 75, "duration": 90, "velocity": 91}, {"time": 5880, "pitch": 74, "duration": 100, "velocity": 70}, {"time": 5960, "pitch": 72, "duration": 640, "velocity": 81}, {"time": 7920, "pitch": 70, "duration": 30, "velocity": 50}, {"time": 7940, "pitch": 74, "duration": 130, "velocity": 43}, {"time": 7970, "pitch": 55, "duration": 460, "velocity": 9}, {"time": 7970, "pitch": 71, "duration": 80, "velocity": 40}, {"time": 8090, "pitch": 62, "duration": 50, "velocity": 44}, {"time": 8160, "pitch": 70, "duration": 20, "velocity": 94}, {"time": 8180, "pitch": 74, "duration": 160, "velocity": 78}, {"time": 8190, "pitch": 71, "duration": 130, "velocity": 78}, {"time": 8290, "pitch": 69, "duration": 80, "velocity": 81}, {"time": 8400, "pitch": 67, "duration": 50, "velocity": 90}, {"time": 8440, "pitch": 62, "duration": 40, "velocity": 46}, {"time": 8520, "pitch": 68, "duration": 30, "velocity": 127}, {"time": 8520, "pitch": 72, "duration": 190, "velocity": 107}, {"time": 8550, "pitch": 69, "duration": 190, "velocity": 112}, {"time": 8650, "pitch": 53, "duration": 510, "velocity": 81}, {"time": 8660, "pitch": 60, "duration": 90, "velocity": 75}, {"time": 8770, "pitch": 67, "duration": 90, "velocity": 112}, {"time": 8770, "pitch": 72, "duration": 80, "velocity": 90}, {"time": 8880, "pitch": 65, "duration": 50, "velocity": 99}, {"time": 9000, "pitch": 61, "duration": 10, "velocity": 118}, {"time": 9000, "pitch": 65, "duration": 200, "velocity": 112}, {"time": 9010, "pitch": 62, "duration": 80, "velocity": 120}, {"time": 9120, "pitch": 60, "duration": 90, "velocity": 116}, {"time": 9240, "pitch": 57, "duration": 50, "velocity": 96}, {"time": 9350, "pitch": 56, "duration": 30, "velocity": 127}, {"time": 9350, "pitch": 60, "duration": 180, "velocity": 120}, {"time": 9380, "pitch": 57, "duration": 70, "velocity": 112}, {"time": 9470, "pitch": 55, "duration": 70, "velocity": 90}, {"time": 9580, "pitch": 52, "duration": 1709, "velocity": 96}, {"time": 9590, "pitch": 60, "duration": 1809, "velocity": 96}, {"time": 9600, "pitch": 36, "duration": 1719, "velocity": 87}, {"time": 9600, "pitch": 48, "duration": 1419, "velocity": 78}, {"time": 11269, "pitch": 48, "duration": 40, "velocity": 32}, {"time": 11519, "pitch": 29, "duration": 1690, "velocity": 38}, {"time": 11519, "pitch": 41, "duration": 390, "velocity": 52}, {"time": 11519, "pitch": 48, "duration": 340, "velocity": 54}, {"time": 11529, "pitch": 53, "duration": 350, "velocity": 68}, {"time": 11529, "pitch": 57, "duration": 360, "velocity": 56}, {"time": 12249, "pitch": 41, "duration": 150, "velocity": 39}, {"time": 12739, "pitch": 53, "duration": 80, "velocity": 40}, {"time": 12959, "pitch": 54, "duration": 20, "velocity": 94}, {"time": 12959, "pitch": 60, "duration": 90, "velocity": 81}, {"time": 12969, "pitch": 55, "duration": 60, "velocity": 103}, {"time": 13079, "pitch": 53, "duration": 160, "velocity": 90}, {"time": 13079, "pitch": 60, "duration": 230, "velocity": 99}, {"time": 13199, "pitch": 41, "duration": 60, "velocity": 65}, {"time": 13319, "pitch": 53, "duration": 40, "velocity": 52}, {"time": 13439, "pitch": 33, "duration": 1800, "velocity": 60}, {"time": 13439, "pitch": 64, "duration": 1220, "velocity": 96}, {"time": 13449, "pitch": 45, "duration": 810, "velocity": 28}, {"time": 13449, "pitch": 55, "duration": 1010, "velocity": 54}, {"time": 13449, "pitch": 60, "duration": 1200, "velocity": 70}, {"time": 14469, "pitch": 45, "duration": 50, "velocity": 31}, {"time": 14649, "pitch": 55, "duration": 80, "velocity": 65}, {"time": 14889, "pitch": 56, "duration": 100, "velocity": 118}, {"time": 14889, "pitch": 57, "duration": 90, "velocity": 124}, {"time": 14889, "pitch": 60, "duration": 410, "velocity": 107}, {"time": 14899, "pitch": 65, "duration": 90, "velocity": 116}, {"time": 15019, "pitch": 55, "duration": 190, "velocity": 116}, {"time": 15029, "pitch": 64, "duration": 240, "velocity": 96}, {"time": 15159, "pitch": 45, "duration": 70, "velocity": 73}, {"time": 15369, "pitch": 58, "duration": 20, "velocity": 87}, {"time": 15379, "pitch": 31, "duration": 470, "velocity": 73}, {"time": 15379, "pitch": 43, "duration": 120, "velocity": 84}, {"time": 15379, "pitch": 55, "duration": 260, "velocity": 81}, {"time": 15379, "pitch": 62, "duration": 540, "velocity": 90}, {"time": 15389, "pitch": 59, "duration": 490, "velocity": 99}, {"time": 15619, "pitch": 43, "duration": 130, "velocity": 75}, {"time": 15869, "pitch": 55, "duration": 70, "velocity": 68}, {"time": 16079, "pitch": 60, "duration": 530, "velocity": 73}, {"time": 16079, "pitch": 64, "duration": 570, "velocity": 70}, {"time": 16089, "pitch": 24, "duration": 230, "velocity": 48}, {"time": 16089, "pitch": 36, "duration": 270, "velocity": 33}, {"time": 16089, "pitch": 55, "duration": 460, "velocity": 63}, {"time": 16099, "pitch": 38, "duration": 30, "velocity": 41}, {"time": 16119, "pitch": 26, "duration": 30, "velocity": 23}, {"time": 16539, "pitch": 48, "duration": 1920, "velocity": 54}, {"time": 16679, "pitch": 55, "duration": 70, "velocity": 81}, {"time": 16789, "pitch": 60, "duration": 60, "velocity": 96}, {"time": 16899, "pitch": 60, "duration": 220, "velocity": 112}, {"time": 16909, "pitch": 57, "duration": 190, "velocity": 127}, {"time": 16909, "pitch": 65, "duration": 220, "velocity": 120}, {"time": 17019, "pitch": 36, "duration": 140, "velocity": 81}, {"time": 17149, "pitch": 55, "duration": 70, "velocity": 96}, {"time": 17269, "pitch": 36, "duration": 1490, "velocity": 81}, {"time": 17269, "pitch": 55, "duration": 490, "velocity": 84}, {"time": 17279, "pitch": 60, "duration": 480, "velocity": 90}, {"time": 17279, "pitch": 64, "duration": 490, "velocity": 78}, {"time": 18739, "pitch": 48, "duration": 40, "velocity": 44}, {"time": 18989, "pitch": 53, "duration": 60, "velocity": 65}, {"time": 19209, "pitch": 41, "duration": 260, "velocity": 40}, {"time": 19219, "pitch": 29, "duration": 1640, "velocity": 50}, {"time": 19219, "pitch": 53, "duration": 420, "velocity": 58}, {"time": 19219, "pitch": 57, "duration": 700, "velocity": 75}, {"time": 19219, "pitch": 60, "duration": 680, "velocity": 63}, {"time": 19699, "pitch": 41, "duration": 810, "velocity": 46}, {"time": 19939, "pitch": 53, "duration": 70, "velocity": 44}, {"time": 20159, "pitch": 56, "duration": 90, "velocity": 109}, {"time": 20179, "pitch": 57, "duration": 670, "velocity": 58}, {"time": 20519, "pitch": 53, "duration": 280, "velocity": 65}, {"time": 20889, "pitch": 41, "duration": 30, "velocity": 60}, {"time": 21119, "pitch": 33, "duration": 1820, "velocity": 48}, {"time": 21119, "pitch": 45, "duration": 630, "velocity": 50}, {"time": 21119, "pitch": 60, "duration": 1080, "velocity": 68}, {"time": 21129, "pitch": 55, "duration": 900, "velocity": 63}, {"time": 21129, "pitch": 64, "duration": 1120, "velocity": 78}, {"time": 22069, "pitch": 45, "duration": 420, "velocity": 65}, {"time": 22189, "pitch": 55, "duration": 70, "velocity": 78}, {"time": 22309, "pitch": 60, "duration": 60, "velocity": 107}, {"time": 22439, "pitch": 56, "duration": 120, "velocity": 123}, {"time": 22439, "pitch": 57, "duration": 150, "velocity": 116}, {"time": 22449, "pitch": 60, "duration": 320, "velocity": 90}, {"time": 22449, "pitch": 65, "duration": 160, "velocity": 116}, {"time": 22549, "pitch": 45, "duration": 170, "velocity": 56}, {"time": 22679, "pitch": 57, "duration": 70, "velocity": 107}, {"time": 22689, "pitch": 65, "duration": 70, "velocity": 87}, {"time": 22819, "pitch": 55, "duration": 180, "velocity": 127}, {"time": 22819, "pitch": 60, "duration": 210, "velocity": 116}, {"time": 22819, "pitch": 64, "duration": 190, "velocity": 112}, {"time": 22939, "pitch": 45, "duration": 60, "velocity": 75}, {"time": 23049, "pitch": 55, "duration": 270, "velocity": 103}, {"time": 23049, "pitch": 62, "duration": 550, "velocity": 103}, {"time": 23059, "pitch": 59, "duration": 550, "velocity": 99}, {"time": 23269, "pitch": 43, "duration": 300, "velocity": 93}, {"time": 23519, "pitch": 31, "duration": 30, "velocity": 99}, {"time": 23759, "pitch": 60, "duration": 580, "velocity": 90}, {"time": 23769, "pitch": 36, "duration": 950, "velocity": 99}, {"time": 23769, "pitch": 48, "duration": 260, "velocity": 93}, {"time": 23769, "pitch": 55, "duration": 460, "velocity": 93}, {"time": 23769, "pitch": 64, "duration": 610, "velocity": 107}, {"time": 24239, "pitch": 48, "duration": 270, "velocity": 93}, {"time": 24339, "pitch": 55, "duration": 50, "velocity": 84}, {"time": 24459, "pitch": 57, "duration": 70, "velocity": 120}, {"time": 24469, "pitch": 60, "duration": 20, "velocity": 84}, {"time": 24469, "pitch": 62, "duration": 30, "velocity": 73}, {"time": 24579, "pitch": 55, "duration": 220, "velocity": 127}, {"time": 24719, "pitch": 48, "duration": 80, "velocity": 112}, {"time": 24949, "pitch": 53, "duration": 580, "velocity": 87}, {"time": 24949, "pitch": 57, "duration": 1050, "velocity": 96}, {"time": 24949, "pitch": 60, "duration": 1290, "velocity": 87}, {"time": 24949, "pitch": 65, "duration": 1310, "velocity": 84}, {"time": 24959, "pitch": 41, "duration": 1730, "velocity": 84}, {"time": 26159, "pitch": 53, "duration": 320, "velocity": 68}, {"time": 26409, "pitch": 55, "duration": 160, "velocity": 84}, {"time": 26419, "pitch": 60, "duration": 340, "velocity": 52}, {"time": 26439, "pitch": 59, "duration": 40, "velocity": 43}, {"time": 26649, "pitch": 53, "duration": 70, "velocity": 90}, {"time": 26879, "pitch": 48, "duration": 190, "velocity": 68}, {"time": 26889, "pitch": 36, "duration": 1890, "velocity": 73}, {"time": 26889, "pitch": 55, "duration": 410, "velocity": 78}, {"time": 26889, "pitch": 60, "duration": 330, "velocity": 65}, {"time": 26889, "pitch": 64, "duration": 400, "velocity": 78}, {"time": 27359, "pitch": 48, "duration": 390, "velocity": 73}, {"time": 27609, "pitch": 52, "duration": 60, "velocity": 63}, {"time": 27619, "pitch": 55, "duration": 70, "velocity": 70}, {"time": 27619, "pitch": 60, "duration": 50, "velocity": 65}, {"time": 27739, "pitch": 53, "duration": 70, "velocity": 96}, {"time": 27749, "pitch": 57, "duration": 80, "velocity": 107}, {"time": 27749, "pitch": 60, "duration": 80, "velocity": 93}, {"time": 27869, "pitch": 54, "duration": 40, "velocity": 113}, {"time": 27869, "pitch": 60, "duration": 120, "velocity": 87}, {"time": 27879, "pitch": 58, "duration": 130, "velocity": 109}, {"time": 27899, "pitch": 55, "duration": 100, "velocity": 84}, {"time": 28059, "pitch": 58, "duration": 110, "velocity": 87}, {"time": 28059, "pitch": 60, "duration": 100, "velocity": 93}, {"time": 28069, "pitch": 55, "duration": 100, "velocity": 96}, {"time": 28229, "pitch": 55, "duration": 100, "velocity": 78}, {"time": 28229, "pitch": 58, "duration": 120, "velocity": 66}, {"time": 28229, "pitch": 60, "duration": 110, "velocity": 70}, {"time": 28399, "pitch": 58, "duration": 160, "velocity": 60}, {"time": 28399, "pitch": 60, "duration": 270, "velocity": 78}, {"time": 28409, "pitch": 55, "duration": 110, "velocity": 84}, {"time": 28569, "pitch": 53, "duration": 70, "velocity": 58}, {"time": 28569, "pitch": 57, "duration": 110, "velocity": 65}, {"time": 28779, "pitch": 41, "duration": 570, "velocity": 84}, {"time": 28789, "pitch": 53, "duration": 670, "velocity": 75}, {"time": 28789, "pitch": 57, "duration": 1010, "velocity": 63}, {"time": 28789, "pitch": 60, "duration": 1010, "velocity": 68}, {"time": 29269, "pitch": 29, "duration": 70, "velocity": 60}, {"time": 29769, "pitch": 53, "duration": 450, "velocity": 68}, {"time": 29879, "pitch": 55, "duration": 130, "velocity": 93}, {"time": 29889, "pitch": 60, "duration": 330, "velocity": 93}, {"time": 29999, "pitch": 56, "duration": 80, "velocity": 80}, {"time": 30069, "pitch": 55, "duration": 120, "velocity": 41}, {"time": 30239, "pitch": 55, "duration": 120, "velocity": 107}, {"time": 30249, "pitch": 60, "duration": 380, "velocity": 127}, {"time": 30369, "pitch": 53, "duration": 160, "velocity": 124}, {"time": 30479, "pitch": 48, "duration": 60, "velocity": 81}, {"time": 30599, "pitch": 53, "duration": 60, "velocity": 93}, {"time": 30719, "pitch": 55, "duration": 180, "velocity": 90}, {"time": 30729, "pitch": 33, "duration": 370, "velocity": 68}, {"time": 30729, "pitch": 60, "duration": 180, "velocity": 81}, {"time": 30729, "pitch": 64, "duration": 180, "velocity": 96}, {"time": 30959, "pitch": 64, "duration": 170, "velocity": 87}, {"time": 30969, "pitch": 55, "duration": 150, "velocity": 78}, {"time": 30969, "pitch": 60, "duration": 170, "velocity": 84}, {"time": 30989, "pitch": 45, "duration": 70, "velocity": 65}, {"time": 31199, "pitch": 64, "duration": 160, "velocity": 90}, {"time": 31209, "pitch": 33, "duration": 150, "velocity": 96}, {"time": 31209, "pitch": 45, "duration": 140, "velocity": 84}, {"time": 31209, "pitch": 55, "duration": 160, "velocity": 93}, {"time": 31209, "pitch": 60, "duration": 170, "velocity": 81}, {"time": 31449, "pitch": 33, "duration": 50, "velocity": 96}, {"time": 31449, "pitch": 60, "duration": 110, "velocity": 87}, {"time": 31449, "pitch": 64, "duration": 90, "velocity": 96}, {"time": 31459, "pitch": 45, "duration": 60, "velocity": 93}, {"time": 31459, "pitch": 55, "duration": 100, "velocity": 93}, {"time": 31689, "pitch": 31, "duration": 220, "velocity": 127}, {"time": 31689, "pitch": 43, "duration": 250, "velocity": 127}, {"time": 31689, "pitch": 59, "duration": 240, "velocity": 120}, {"time": 31689, "pitch": 62, "duration": 260, "velocity": 127}, {"time": 31699, "pitch": 55, "duration": 230, "velocity": 120}, {"time": 32639, "pitch": 60, "duration": 750, "velocity": 99}, {"time": 32639, "pitch": 67, "duration": 960, "velocity": 124}, {"time": 32659, "pitch": 24, "duration": 340, "velocity": 116}, {"time": 32659, "pitch": 36, "duration": 460, "velocity": 103}, {"time": 35558, "pitch": 43, "duration": 650, "velocity": 30}, {"time": 35558, "pitch": 55, "duration": 260, "velocity": 24}, {"time": 35638, "pitch": 67, "duration": 130, "velocity": 58}, {"time": 35758, "pitch": 74, "duration": 20, "velocity": 87}, {"time": 35868, "pitch": 79, "duration": 370, "velocity": 127}, {"time": 36008, "pitch": 55, "duration": 30, "velocity": 70}, {"time": 36238, "pitch": 55, "duration": 40, "velocity": 22}, {"time": 36468, "pitch": 36, "duration": 920, "velocity": 78}, {"time": 36468, "pitch": 48, "duration": 910, "velocity": 73}, {"time": 36708, "pitch": 76, "duration": 130, "velocity": 127}, {"time": 36708, "pitch": 79, "duration": 130, "velocity": 127}, {"time": 36828, "pitch": 72, "duration": 100, "velocity": 99}, {"time": 36958, "pitch": 77, "duration": 120, "velocity": 124}, {"time": 36958, "pitch": 81, "duration": 120, "velocity": 120}, {"time": 37078, "pitch": 72, "duration": 60, "velocity": 68}, {"time": 37198, "pitch": 75, "duration": 70, "velocity": 105}, {"time": 37198, "pitch": 78, "duration": 60, "velocity": 109}, {"time": 37318, "pitch": 75, "duration": 50, "velocity": 109}, {"time": 37318, "pitch": 79, "duration": 220, "velocity": 127}, {"time": 37348, "pitch": 76, "duration": 200, "velocity": 107}, {"time": 37368, "pitch": 78, "duration": 30, "velocity": 48}, {"time": 37538, "pitch": 72, "duration": 60, "velocity": 54}, {"time": 37598, "pitch": 69, "duration": 90, "velocity": 73}, {"time": 37668, "pitch": 67, "duration": 110, "velocity": 120}, {"time": 37888, "pitch": 64, "duration": 170, "velocity": 90}, {"time": 38058, "pitch": 53, "duration": 30, "velocity": 68}, {"time": 38158, "pitch": 62, "duration": 150, "velocity": 96}, {"time": 38158, "pitch": 67, "duration": 160, "velocity": 90}, {"time": 38268, "pitch": 53, "duration": 30, "velocity": 60}, {"time": 38398, "pitch": 62, "duration": 230, "velocity": 75}, {"time": 38398, "pitch": 67, "duration": 590, "velocity": 75}, {"time": 38638, "pitch": 59, "duration": 220, "velocity": 58}, {"time": 38868, "pitch": 55, "duration": 30, "velocity": 56}, {"time": 39008, "pitch": 59, "duration": 30, "velocity": 81}, {"time": 39118, "pitch": 60, "duration": 60, "velocity": 96}, {"time": 39238, "pitch": 57, "duration": 170, "velocity": 124}, {"time": 39238, "pitch": 65, "duration": 130, "velocity": 120}, {"time": 39248, "pitch": 60, "duration": 130, "velocity": 107}, {"time": 39358, "pitch": 41, "duration": 860, "velocity": 107}, {"time": 39478, "pitch": 56, "duration": 20, "velocity": 94}, {"time": 39498, "pitch": 60, "duration": 70, "velocity": 68}, {"time": 39508, "pitch": 57, "duration": 70, "velocity": 99}, {"time": 39598, "pitch": 55, "duration": 80, "velocity": 120}, {"time": 39598, "pitch": 60, "duration": 80, "velocity": 99}, {"time": 39718, "pitch": 53, "duration": 60, "velocity": 120}, {"time": 39718, "pitch": 60, "duration": 70, "velocity": 107}, {"time": 39828, "pitch": 55, "duration": 60, "velocity": 127}, {"time": 39828, "pitch": 60, "duration": 430, "velocity": 120}, {"time": 39838, "pitch": 48, "duration": 40, "velocity": 41}, {"time": 39908, "pitch": 56, "duration": 90, "velocity": 77}, {"time": 39978, "pitch": 55, "duration": 150, "velocity": 78}, {"time": 40098, "pitch": 53, "duration": 130, "velocity": 127}, {"time": 40208, "pitch": 48, "duration": 50, "velocity": 93}, {"time": 40318, "pitch": 52, "duration": 510, "velocity": 96}, {"time": 40318, "pitch": 60, "duration": 530, "velocity": 93}, {"time": 40338, "pitch": 36, "duration": 1460, "velocity": 107}, {"time": 40848, "pitch": 48, "duration": 940, "velocity": 54}, {"time": 42228, "pitch": 41, "duration": 1700, "velocity": 70}, {"time": 42258, "pitch": 48, "duration": 1690, "velocity": 65}, {"time": 42258, "pitch": 53, "duration": 880, "velocity": 60}, {"time": 42268, "pitch": 56, "duration": 80, "velocity": 84}, {"time": 42308, "pitch": 57, "duration": 780, "velocity": 56}, {"time": 42478, "pitch": 60, "duration": 1400, "velocity": 36}, {"time": 43938, "pitch": 53, "duration": 60, "velocity": 96}, {"time": 44038, "pitch": 59, "duration": 160, "velocity": 96}, {"time": 44158, "pitch": 45, "duration": 1810, "velocity": 52}, {"time": 44178, "pitch": 55, "duration": 1170, "velocity": 65}, {"time": 44178, "pitch": 60, "duration": 1070, "velocity": 99}, {"time": 44188, "pitch": 67, "duration": 1030, "velocity": 103}, {"time": 45548, "pitch": 52, "duration": 50, "velocity": 38}, {"time": 45588, "pitch": 58, "duration": 20, "velocity": 105}, {"time": 45598, "pitch": 62, "duration": 380, "velocity": 96}, {"time": 45618, "pitch": 59, "duration": 100, "velocity": 99}, {"time": 45718, "pitch": 57, "duration": 130, "velocity": 81}, {"time": 45858, "pitch": 55, "duration": 120, "velocity": 78}, {"time": 45958, "pitch": 52, "duration": 30, "velocity": 73}, {"time": 46068, "pitch": 58, "duration": 40, "velocity": 109}, {"time": 46068, "pitch": 62, "duration": 210, "velocity": 103}, {"time": 46088, "pitch": 43, "duration": 490, "velocity": 107}, {"time": 46088, "pitch": 50, "duration": 340, "velocity": 103}, {"time": 46098, "pitch": 59, "duration": 190, "velocity": 96}, {"time": 46328, "pitch": 57, "duration": 280, "velocity": 124}, {"time": 46328, "pitch": 62, "duration": 290, "velocity": 116}, {"time": 46568, "pitch": 50, "duration": 50, "velocity": 87}, {"time": 46808, "pitch": 36, "duration": 1000, "velocity": 56}, {"time": 46808, "pitch": 48, "duration": 280, "velocity": 75}, {"time": 46808, "pitch": 60, "duration": 630, "velocity": 81}, {"time": 46818, "pitch": 52, "duration": 380, "velocity": 73}, {"time": 46818, "pitch": 55, "duration": 490, "velocity": 84}, {"time": 47268, "pitch": 48, "duration": 360, "velocity": 75}, {"time": 47398, "pitch": 52, "duration": 50, "velocity": 75}, {"time": 47408, "pitch": 55, "duration": 50, "velocity": 90}, {"time": 47508, "pitch": 52, "duration": 60, "velocity": 103}, {"time": 47508, "pitch": 60, "duration": 60, "velocity": 112}, {"time": 47518, "pitch": 55, "duration": 70, "velocity": 103}, {"time": 47638, "pitch": 53, "duration": 150, "velocity": 124}, {"time": 47638, "pitch": 57, "duration": 240, "velocity": 124}, {"time": 47638, "pitch": 60, "duration": 240, "velocity": 120}, {"time": 47758, "pitch": 48, "duration": 90, "velocity": 112}, {"time": 47878, "pitch": 55, "duration": 60, "velocity": 87}, {"time": 47898, "pitch": 36, "duration": 1220, "velocity": 99}, {"time": 47958, "pitch": 43, "duration": 80, "velocity": 107}, {"time": 48008, "pitch": 48, "duration": 1110, "velocity": 116}, {"time": 48008, "pitch": 52, "duration": 900, "velocity": 90}, {"time": 48018, "pitch": 55, "duration": 950, "velocity": 78}, {"time": 48018, "pitch": 60, "duration": 920, "velocity": 87}, {"time": 49908, "pitch": 54, "duration": 60, "velocity": 84}, {"time": 49918, "pitch": 41, "duration": 1650, "velocity": 41}, {"time": 49918, "pitch": 48, "duration": 750, "velocity": 50}, {"time": 49918, "pitch": 60, "duration": 960, "velocity": 56}, {"time": 49958, "pitch": 55, "duration": 810, "velocity": 81}, {"time": 50858, "pitch": 48, "duration": 400, "velocity": 32}, {"time": 51008, "pitch": 55, "duration": 100, "velocity": 26}, {"time": 51568, "pitch": 48, "duration": 50, "velocity": 56}, {"time": 51718, "pitch": 55, "duration": 40, "velocity": 87}, {"time": 51828, "pitch": 45, "duration": 1830, "velocity": 84}, {"time": 51828, "pitch": 52, "duration": 780, "velocity": 87}, {"time": 51828, "pitch": 55, "duration": 820, "velocity": 87}, {"time": 51828, "pitch": 60, "duration": 880, "velocity": 87}, {"time": 51828, "pitch": 64, "duration": 970, "velocity": 87}, {"time": 52798, "pitch": 52, "duration": 100, "velocity": 81}, {"time": 52918, "pitch": 55, "duration": 50, "velocity": 78}, {"time": 53038, "pitch": 60, "duration": 20, "velocity": 75}, {"time": 53038, "pitch": 64, "duration": 30, "velocity": 87}, {"time": 53078, "pitch": 55, "duration": 40, "velocity": 25}, {"time": 53158, "pitch": 55, "duration": 50, "velocity": 116}, {"time": 53158, "pitch": 60, "duration": 70, "velocity": 107}, {"time": 53158, "pitch": 64, "duration": 70, "velocity": 99}, {"time": 53268, "pitch": 57, "duration": 80, "velocity": 127}, {"time": 53268, "pitch": 60, "duration": 90, "velocity": 127}, {"time": 53268, "pitch": 65, "duration": 170, "velocity": 127}, {"time": 53378, "pitch": 60, "duration": 240, "velocity": 58}, {"time": 53388, "pitch": 55, "duration": 160, "velocity": 116}, {"time": 53388, "pitch": 64, "duration": 230, "velocity": 107}, {"time": 53508, "pitch": 33, "duration": 70, "velocity": 103}, {"time": 53628, "pitch": 55, "duration": 70, "velocity": 90}, {"time": 53658, "pitch": 41, "duration": 90, "velocity": 90}, {"time": 53738, "pitch": 42, "duration": 50, "velocity": 105}, {"time": 53738, "pitch": 58, "duration": 30, "velocity": 113}, {"time": 53738, "pitch": 62, "duration": 490, "velocity": 107}, {"time": 53748, "pitch": 55, "duration": 310, "velocity": 103}, {"time": 53768, "pitch": 43, "duration": 410, "velocity": 107}, {"time": 53768, "pitch": 59, "duration": 470, "velocity": 120}, {"time": 54018, "pitch": 31, "duration": 90, "velocity": 120}, {"time": 54258, "pitch": 55, "duration": 40, "velocity": 87}, {"time": 54358, "pitch": 36, "duration": 1120, "velocity": 65}, {"time": 54408, "pitch": 43, "duration": 90, "velocity": 93}, {"time": 54458, "pitch": 48, "duration": 240, "velocity": 96}, {"time": 54478, "pitch": 55, "duration": 350, "velocity": 107}, {"time": 54478, "pitch": 64, "duration": 440, "velocity": 107}, {"time": 54488, "pitch": 60, "duration": 410, "velocity": 96}, {"time": 54848, "pitch": 48, "duration": 680, "velocity": 120}, {"time": 54968, "pitch": 55, "duration": 150, "velocity": 84}, {"time": 55088, "pitch": 60, "duration": 160, "velocity": 93}, {"time": 55208, "pitch": 64, "duration": 110, "velocity": 81}, {"time": 55318, "pitch": 67, "duration": 60, "velocity": 78}, {"time": 55458, "pitch": 72, "duration": 140, "velocity": 84}, {"time": 55588, "pitch": 76, "duration": 130, "velocity": 84}, {"time": 55738, "pitch": 53, "duration": 80, "velocity": 56}, {"time": 55838, "pitch": 72, "duration": 70, "velocity": 28}, {"time": 55938, "pitch": 79, "duration": 350, "velocity": 70}, {"time": 56058, "pitch": 86, "duration": 50, "velocity": 50}, {"time": 56068, "pitch": 84, "duration": 240, "velocity": 60}, {"time": 56288, "pitch": 72, "duration": 220, "velocity": 56}, {"time": 56408, "pitch": 79, "duration": 280, "velocity": 73}, {"time": 56528, "pitch": 84, "duration": 250, "velocity": 93}, {"time": 56638, "pitch": 53, "duration": 620, "velocity": 68}, {"time": 56768, "pitch": 72, "duration": 250, "velocity": 56}, {"time": 56898, "pitch": 79, "duration": 170, "velocity": 81}, {"time": 57018, "pitch": 84, "duration": 260, "velocity": 87}, {"time": 57128, "pitch": 41, "duration": 260, "velocity": 75}, {"time": 57258, "pitch": 72, "duration": 370, "velocity": 60}, {"time": 57378, "pitch": 79, "duration": 350, "velocity": 93}, {"time": 57488, "pitch": 84, "duration": 270, "velocity": 90}, {"time": 57608, "pitch": 36, "duration": 1669, "velocity": 68}, {"time": 57608, "pitch": 48, "duration": 1709, "velocity": 68}, {"time": 57728, "pitch": 72, "duration": 230, "velocity": 70}, {"time": 57848, "pitch": 79, "duration": 170, "velocity": 70}, {"time": 57978, "pitch": 84, "duration": 240, "velocity": 87}, {"time": 58198, "pitch": 72, "duration": 200, "velocity": 56}, {"time": 58338, "pitch": 79, "duration": 180, "velocity": 68}, {"time": 58448, "pitch": 84, "duration": 229, "velocity": 73}, {"time": 58657, "pitch": 72, "duration": 150, "velocity": 52}, {"time": 58797, "pitch": 79, "duration": 110, "velocity": 84}, {"time": 58907, "pitch": 84, "duration": 250, "velocity": 93}, {"time": 59137, "pitch": 72, "duration": 160, "velocity": 56}, {"time": 59277, "pitch": 79, "duration": 160, "velocity": 84}, {"time": 59397, "pitch": 84, "duration": 330, "velocity": 87}, {"time": 59527, "pitch": 41, "duration": 1830, "velocity": 90}, {"time": 59527, "pitch": 53, "duration": 1090, "velocity": 84}, {"time": 59657, "pitch": 72, "duration": 160, "velocity": 65}, {"time": 59777, "pitch": 79, "duration": 130, "velocity": 73}, {"time": 59907, "pitch": 84, "duration": 260, "velocity": 84}, {"time": 60137, "pitch": 72, "duration": 170, "velocity": 50}, {"time": 60267, "pitch": 79, "duration": 160, "velocity": 84}, {"time": 60397, "pitch": 84, "duration": 230, "velocity": 78}, {"time": 60607, "pitch": 72, "duration": 160, "velocity": 65}, {"time": 60727, "pitch": 79, "duration": 140, "velocity": 70}, {"time": 60847, "pitch": 84, "duration": 260, "velocity": 103}, {"time": 61067, "pitch": 72, "duration": 160, "velocity": 65}, {"time": 61197, "pitch": 79, "duration": 140, "velocity": 87}, {"time": 61327, "pitch": 84, "duration": 50, "velocity": 96}, {"time": 61337, "pitch": 29, "duration": 30, "velocity": 65}, {"time": 61467, "pitch": 33, "duration": 50, "velocity": 58}, {"time": 61467, "pitch": 45, "duration": 60, "velocity": 46}, {"time": 61477, "pitch": 72, "duration": 50, "velocity": 27}, {"time": 61497, "pitch": 76, "duration": 40, "velocity": 11}, {"time": 61677, "pitch": 45, "duration": 80, "velocity": 78}, {"time": 61677, "pitch": 79, "duration": 90, "velocity": 63}, {"time": 61687, "pitch": 33, "duration": 70, "velocity": 78}, {"time": 61687, "pitch": 72, "duration": 80, "velocity": 63}, {"time": 61687, "pitch": 76, "duration": 90, "velocity": 58}, {"time": 61917, "pitch": 33, "duration": 120, "velocity": 107}, {"time": 61917, "pitch": 45, "duration": 120, "velocity": 112}, {"time": 61917, "pitch": 76, "duration": 140, "velocity": 107}, {"time": 61927, "pitch": 72, "duration": 130, "velocity": 99}, {"time": 61927, "pitch": 79, "duration": 130, "velocity": 116}, {"time": 62157, "pitch": 33, "duration": 100, "velocity": 116}, {"time": 62157, "pitch": 45, "duration": 100, "velocity": 127}, {"time": 62167, "pitch": 72, "duration": 90, "velocity": 103}, {"time": 62167, "pitch": 76, "duration": 80, "velocity": 103}, {"time": 62167, "pitch": 79, "duration": 70, "velocity": 120}, {"time": 62407, "pitch": 43, "duration": 230, "velocity": 127}, {"time": 62407, "pitch": 71, "duration": 200, "velocity": 127}, {"time": 62407, "pitch": 74, "duration": 180, "velocity": 127}, {"time": 62407, "pitch": 79, "duration": 180, "velocity": 127}, {"time": 62417, "pitch": 31, "duration": 180, "velocity": 127}, {"time": 63237, "pitch": 62, "duration": 50, "velocity": 127}, {"time": 63237, "pitch": 67, "duration": 80, "velocity": 127}, {"time": 63287, "pitch": 63, "duration": 60, "velocity": 123}, {"time": 63327, "pitch": 62, "duration": 80, "velocity": 116}, {"time": 63367, "pitch": 36, "duration": 800, "velocity": 124}, {"time": 63367, "pitch": 48, "duration": 280, "velocity": 107}, {"time": 63367, "pitch": 67, "duration": 480, "velocity": 81}, {"time": 63377, "pitch": 60, "duration": 470, "velocity": 124}, {"time": 63387, "pitch": 59, "duration": 30, "velocity": 68}, {"time": 63857, "pitch": 48, "duration": 250, "velocity": 127}, {"time": 63967, "pitch": 55, "duration": 70, "velocity": 124}, {"time": 64087, "pitch": 60, "duration": 50, "velocity": 120}, {"time": 64207, "pitch": 64, "duration": 60, "velocity": 107}, {"time": 64327, "pitch": 29, "duration": 720, "velocity": 116}, {"time": 64327, "pitch": 41, "duration": 60, "velocity": 116}, {"time": 64327, "pitch": 57, "duration": 210, "velocity": 112}, {"time": 64327, "pitch": 60, "duration": 190, "velocity": 112}, {"time": 64327, "pitch": 65, "duration": 200, "velocity": 112}, {"time": 64587, "pitch": 41, "duration": 300, "velocity": 120}, {"time": 64707, "pitch": 53, "duration": 50, "velocity": 112}, {"time": 64817, "pitch": 53, "duration": 50, "velocity": 124}, {"time": 64827, "pitch": 57, "duration": 20, "velocity": 99}, {"time": 64827, "pitch": 60, "duration": 20, "velocity": 120}, {"time": 64927, "pitch": 60, "duration": 190, "velocity": 127}, {"time": 64937, "pitch": 53, "duration": 110, "velocity": 103}, {"time": 64937, "pitch": 57, "duration": 180, "velocity": 124}, {"time": 65057, "pitch": 41, "duration": 70, "velocity": 99}, {"time": 65157, "pitch": 53, "duration": 30, "velocity": 99}, {"time": 65187, "pitch": 31, "duration": 1790, "velocity": 96}, {"time": 65237, "pitch": 38, "duration": 70, "velocity": 90}, {"time": 65277, "pitch": 43, "duration": 110, "velocity": 99}, {"time": 65287, "pitch": 55, "duration": 270, "velocity": 96}, {"time": 65287, "pitch": 58, "duration": 40, "velocity": 109}, {"time": 65287, "pitch": 62, "duration": 460, "velocity": 99}, {"time": 65317, "pitch": 59, "duration": 490, "velocity": 99}, {"time": 65777, "pitch": 43, "duration": 360, "velocity": 120}, {"time": 65877, "pitch": 55, "duration": 60, "velocity": 93}, {"time": 65997, "pitch": 57, "duration": 30, "velocity": 96}, {"time": 66107, "pitch": 57, "duration": 200, "velocity": 120}, {"time": 66107, "pitch": 62, "duration": 290, "velocity": 120}, {"time": 66247, "pitch": 43, "duration": 60, "velocity": 81}, {"time": 66357, "pitch": 55, "duration": 50, "velocity": 65}, {"time": 66467, "pitch": 57, "duration": 30, "velocity": 107}, {"time": 66577, "pitch": 57, "duration": 280, "velocity": 127}, {"time": 66577, "pitch": 62, "duration": 470, "velocity": 127}, {"time": 66717, "pitch": 43, "duration": 120, "velocity": 112}, {"time": 66827, "pitch": 55, "duration": 120, "velocity": 112}, {"time": 66947, "pitch": 43, "duration": 70, "velocity": 124}, {"time": 67087, "pitch": 55, "duration": 60, "velocity": 78}, {"time": 67107, "pitch": 33, "duration": 840, "velocity": 87}, {"time": 67167, "pitch": 40, "duration": 70, "velocity": 90}, {"time": 67197, "pitch": 45, "duration": 260, "velocity": 107}, {"time": 67207, "pitch": 55, "duration": 430, "velocity": 112}, {"time": 67207, "pitch": 60, "duration": 580, "velocity": 112}, {"time": 67207, "pitch": 64, "duration": 650, "velocity": 120}, {"time": 67687, "pitch": 45, "duration": 230, "velocity": 127}, {"time": 67797, "pitch": 55, "duration": 70, "velocity": 103}, {"time": 67917, "pitch": 60, "duration": 100, "velocity": 103}, {"time": 68027, "pitch": 64, "duration": 60, "velocity": 93}, {"time": 68157, "pitch": 29, "duration": 730, "velocity": 120}, {"time": 68167, "pitch": 53, "duration": 120, "velocity": 112}, {"time": 68167, "pitch": 57, "duration": 220, "velocity": 112}, {"time": 68167, "pitch": 60, "duration": 220, "velocity": 116}, {"time": 68287, "pitch": 41, "duration": 310, "velocity": 112}, {"time": 68407, "pitch": 53, "duration": 50, "velocity": 96}, {"time": 68537, "pitch": 58, "duration": 210, "velocity": 118}, {"time": 68547, "pitch": 53, "duration": 180, "velocity": 112}, {"time": 68547, "pitch": 62, "duration": 190, "velocity": 120}, {"time": 68657, "pitch": 41, "duration": 120, "velocity": 90}, {"time": 68757, "pitch": 53, "duration": 100, "velocity": 116}, {"time": 68757, "pitch": 57, "duration": 260, "velocity": 107}, {"time": 68757, "pitch": 60, "duration": 210, "velocity": 103}, {"time": 68877, "pitch": 41, "duration": 80, "velocity": 103}, {"time": 68977, "pitch": 53, "duration": 60, "velocity": 96}, {"time": 69007, "pitch": 31, "duration": 1820, "velocity": 103}, {"time": 69067, "pitch": 38, "duration": 70, "velocity": 90}, {"time": 69107, "pitch": 43, "duration": 190, "velocity": 103}, {"time": 69127, "pitch": 55, "duration": 520, "velocity": 99}, {"time": 69127, "pitch": 58, "duration": 20, "velocity": 84}, {"time": 69137, "pitch": 62, "duration": 620, "velocity": 96}, {"time": 69157, "pitch": 59, "duration": 600, "velocity": 103}, {"time": 69617, "pitch": 43, "duration": 400, "velocity": 116}, {"time": 69737, "pitch": 55, "duration": 60, "velocity": 81}, {"time": 69847, "pitch": 57, "duration": 40, "velocity": 63}, {"time": 69967, "pitch": 57, "duration": 190, "velocity": 120}, {"time": 69967, "pitch": 62, "duration": 200, "velocity": 124}, {"time": 70097, "pitch": 43, "duration": 100, "velocity": 70}, {"time": 70207, "pitch": 55, "duration": 80, "velocity": 99}, {"time": 70207, "pitch": 62, "duration": 100, "velocity": 116}, {"time": 70297, "pitch": 43, "duration": 150, "velocity": 116}, {"time": 70437, "pitch": 55, "duration": 130, "velocity": 99}, {"time": 70437, "pitch": 62, "duration": 150, "velocity": 103}, {"time": 70577, "pitch": 43, "duration": 80, "velocity": 65}, {"time": 70667, "pitch": 55, "duration": 160, "velocity": 116}, {"time": 70677, "pitch": 67, "duration": 260, "velocity": 112}, {"time": 70817, "pitch": 43, "duration": 80, "velocity": 90}, {"time": 70927, "pitch": 55, "duration": 30, "velocity": 46}, {"time": 71057, "pitch": 38, "duration": 470, "velocity": 99}, {"time": 71057, "pitch": 53, "duration": 280, "velocity": 103}, {"time": 71057, "pitch": 57, "duration": 560, "velocity": 103}, {"time": 71057, "pitch": 60, "duration": 510, "velocity": 103}, {"time": 71277, "pitch": 50, "duration": 280, "velocity": 90}, {"time": 71537, "pitch": 53, "duration": 80, "velocity": 81}, {"time": 71767, "pitch": 40, "duration": 1090, "velocity": 107}, {"time": 71767, "pitch": 55, "duration": 350, "velocity": 116}, {"time": 71777, "pitch": 60, "duration": 360, "velocity": 120}, {"time": 72127, "pitch": 52, "duration": 480, "velocity": 70}, {"time": 72247, "pitch": 55, "duration": 30, "velocity": 70}, {"time": 72247, "pitch": 60, "duration": 30, "velocity": 87}, {"time": 72367, "pitch": 55, "duration": 60, "velocity": 84}, {"time": 72367, "pitch": 60, "duration": 50, "velocity": 107}, {"time": 72497, "pitch": 55, "duration": 50, "velocity": 116}, {"time": 72497, "pitch": 60, "duration": 40, "velocity": 124}, {"time": 72607, "pitch": 55, "duration": 140, "velocity": 124}, {"time": 72607, "pitch": 60, "duration": 250, "velocity": 124}, {"time": 72737, "pitch": 52, "duration": 160, "velocity": 124}, {"time": 72837, "pitch": 55, "duration": 70, "velocity": 96}, {"time": 72967, "pitch": 41, "duration": 480, "velocity": 112}, {"time": 72967, "pitch": 56, "duration": 30, "velocity": 123}, {"time": 72977, "pitch": 60, "duration": 490, "velocity": 116}, {"time": 72987, "pitch": 43, "duration": 30, "velocity": 78}, {"time": 72997, "pitch": 57, "duration": 270, "velocity": 124}, {"time": 73227, "pitch": 55, "duration": 270, "velocity": 116}, {"time": 73467, "pitch": 53, "duration": 70, "velocity": 112}, {"time": 73697, "pitch": 31, "duration": 640, "velocity": 112}, {"time": 73697, "pitch": 43, "duration": 520, "velocity": 116}, {"time": 73697, "pitch": 57, "duration": 540, "velocity": 99}, {"time": 73697, "pitch": 60, "duration": 580, "velocity": 116}, {"time": 73707, "pitch": 53, "duration": 450, "velocity": 103}, {"time": 74717, "pitch": 67, "duration": 701, "velocity": 75}, {"time": 74747, "pitch": 72, "duration": 630, "velocity": 73}, {"time": 74767, "pitch": 74, "duration": 590, "velocity": 81}, {"time": 74797, "pitch": 76, "duration": 440, "velocity": 63}, {"time": 74797, "pitch": 79, "duration": 510, "velocity": 87}, {"time": 74827, "pitch": 84, "duration": 100, "velocity": 87}, {"time": 74877, "pitch": 86, "duration": 541, "velocity": 112}, {"time": 74907, "pitch": 91, "duration": 480, "velocity": 116}, {"time": 76333, "pitch": 57, "duration": 110, "velocity": 73}, {"time": 76343, "pitch": 67, "duration": 80, "velocity": 41}, {"time": 76423, "pitch": 83, "duration": 190, "velocity": 127}, {"time": 76633, "pitch": 84, "duration": 70, "velocity": 75}, {"time": 76683, "pitch": 83, "duration": 40, "velocity": 87}, {"time": 76713, "pitch": 79, "duration": 50, "velocity": 120}, {"time": 76783, "pitch": 74, "duration": 230, "velocity": 124}, {"time": 77013, "pitch": 72, "duration": 200, "velocity": 75}, {"time": 77143, "pitch": 57, "duration": 60, "velocity": 68}, {"time": 77273, "pitch": 71, "duration": 90, "velocity": 96}, {"time": 77393, "pitch": 72, "duration": 130, "velocity": 87}, {"time": 77503, "pitch": 73, "duration": 90, "velocity": 105}, {"time": 77633, "pitch": 74, "duration": 90, "velocity": 96}, {"time": 77643, "pitch": 72, "duration": 80, "velocity": 116}, {"time": 77743, "pitch": 53, "duration": 350, "velocity": 78}, {"time": 77753, "pitch": 70, "duration": 50, "velocity": 123}, {"time": 77783, "pitch": 71, "duration": 110, "velocity": 90}, {"time": 77883, "pitch": 67, "duration": 150, "velocity": 116}, {"time": 78113, "pitch": 67, "duration": 190, "velocity": 127}, {"time": 78223, "pitch": 53, "duration": 90, "velocity": 99}, {"time": 78353, "pitch": 67, "duration": 170, "velocity": 112}, {"time": 78473, "pitch": 53, "duration": 60, "velocity": 70}, {"time": 78613, "pitch": 67, "duration": 200, "velocity": 116}, {"time": 78713, "pitch": 48, "duration": 790, "velocity": 73}, {"time": 78843, "pitch": 67, "duration": 230, "velocity": 120}, {"time": 78853, "pitch": 62, "duration": 220, "velocity": 124}, {"time": 79043, "pitch": 63, "duration": 90, "velocity": 15}, {"time": 79123, "pitch": 62, "duration": 40, "velocity": 52}, {"time": 79133, "pitch": 67, "duration": 360, "velocity": 75}, {"time": 79143, "pitch": 60, "duration": 100, "velocity": 96}, {"time": 79223, "pitch": 62, "duration": 230, "velocity": 124}, {"time": 79453, "pitch": 60, "duration": 50, "velocity": 13}, {"time": 79563, "pitch": 62, "duration": 230, "velocity": 120}, {"time": 79573, "pitch": 67, "duration": 240, "velocity": 120}, {"time": 79723, "pitch": 45, "duration": 580, "velocity": 60}, {"time": 79723, "pitch": 55, "duration": 250, "velocity": 52}, {"time": 79793, "pitch": 63, "duration": 70, "velocity": 60}, {"time": 79853, "pitch": 62, "duration": 20, "velocity": 81}, {"time": 79863, "pitch": 60, "duration": 70, "velocity": 84}, {"time": 79943, "pitch": 62, "duration": 260, "velocity": 116}, {"time": 79943, "pitch": 67, "duration": 260, "velocity": 124}, {"time": 80163, "pitch": 55, "duration": 130, "velocity": 65}, {"time": 80293, "pitch": 62, "duration": 190, "velocity": 127}, {"time": 80293, "pitch": 67, "duration": 210, "velocity": 127}, {"time": 80493, "pitch": 63, "duration": 80, "velocity": 55}, {"time": 80543, "pitch": 62, "duration": 60, "velocity": 75}, {"time": 80603, "pitch": 60, "duration": 80, "velocity": 103}, {"time": 80653, "pitch": 43, "duration": 680, "velocity": 99}, {"time": 80653, "pitch": 62, "duration": 300, "velocity": 127}, {"time": 80663, "pitch": 67, "duration": 300, "velocity": 127}, {"time": 80673, "pitch": 69, "duration": 40, "velocity": 56}, {"time": 80873, "pitch": 55, "duration": 120, "velocity": 58}, {"time": 81003, "pitch": 60, "duration": 190, "velocity": 127}, {"time": 81003, "pitch": 67, "duration": 180, "velocity": 127}, {"time": 81123, "pitch": 55, "duration": 170, "velocity": 78}, {"time": 81363, "pitch": 58, "duration": 40, "velocity": 91}, {"time": 81463, "pitch": 56, "duration": 130, "velocity": 60}, {"time": 81583, "pitch": 41, "duration": 840, "velocity": 96}, {"time": 81583, "pitch": 53, "duration": 200, "velocity": 99}, {"time": 81593, "pitch": 57, "duration": 290, "velocity": 93}, {"time": 81723, "pitch": 65, "duration": 190, "velocity": 116}, {"time": 81883, "pitch": 53, "duration": 30, "velocity": 17}, {"time": 81963, "pitch": 65, "duration": 190, "velocity": 90}, {"time": 81973, "pitch": 57, "duration": 160, "velocity": 78}, {"time": 82093, "pitch": 53, "duration": 110, "velocity": 75}, {"time": 82203, "pitch": 65, "duration": 190, "velocity": 93}, {"time": 82213, "pitch": 57, "duration": 150, "velocity": 81}, {"time": 82333, "pitch": 53, "duration": 60, "velocity": 58}, {"time": 82443, "pitch": 55, "duration": 620, "velocity": 81}, {"time": 82443, "pitch": 64, "duration": 640, "velocity": 81}, {"time": 82563, "pitch": 48, "duration": 470, "velocity": 40}, {"time": 84353, "pitch": 56, "duration": 120, "velocity": 105}, {"time": 84463, "pitch": 41, "duration": 1490, "velocity": 73}, {"time": 84463, "pitch": 48, "duration": 1530, "velocity": 75}, {"time": 84463, "pitch": 53, "duration": 590, "velocity": 70}, {"time": 84463, "pitch": 57, "duration": 1160, "velocity": 75}, {"time": 84613, "pitch": 60, "duration": 1090, "velocity": 75}, {"time": 85773, "pitch": 53, "duration": 50, "velocity": 31}, {"time": 85943, "pitch": 62, "duration": 330, "velocity": 124}, {"time": 85943, "pitch": 67, "duration": 1510, "velocity": 124}, {"time": 86023, "pitch": 63, "duration": 140, "velocity": 66}, {"time": 86243, "pitch": 60, "duration": 180, "velocity": 78}, {"time": 86403, "pitch": 55, "duration": 1080, "velocity": 60}, {"time": 86403, "pitch": 62, "duration": 200, "velocity": 90}, {"time": 86413, "pitch": 45, "duration": 1220, "velocity": 56}, {"time": 86603, "pitch": 60, "duration": 660, "velocity": 44}, {"time": 88113, "pitch": 43, "duration": 380, "velocity": 78}, {"time": 88283, "pitch": 31, "duration": 450, "velocity": 87}, {"time": 88313, "pitch": 55, "duration": 300, "velocity": 78}, {"time": 88323, "pitch": 59, "duration": 540, "velocity": 75}, {"time": 88323, "pitch": 62, "duration": 520, "velocity": 87}, {"time": 88563, "pitch": 43, "duration": 250, "velocity": 90}, {"time": 88833, "pitch": 55, "duration": 50, "velocity": 63}, {"time": 89043, "pitch": 36, "duration": 1010, "velocity": 75}, {"time": 89043, "pitch": 55, "duration": 330, "velocity": 68}, {"time": 89043, "pitch": 60, "duration": 240, "velocity": 65}, {"time": 89043, "pitch": 64, "duration": 330, "velocity": 75}, {"time": 89053, "pitch": 48, "duration": 120, "velocity": 41}, {"time": 89403, "pitch": 48, "duration": 500, "velocity": 116}, {"time": 89513, "pitch": 60, "duration": 50, "velocity": 65}, {"time": 89533, "pitch": 55, "duration": 40, "velocity": 63}, {"time": 89533, "pitch": 64, "duration": 30, "velocity": 73}, {"time": 89633, "pitch": 55, "duration": 50, "velocity": 112}, {"time": 89633, "pitch": 60, "duration": 50, "velocity": 103}, {"time": 89643, "pitch": 64, "duration": 50, "velocity": 107}, {"time": 89763, "pitch": 55, "duration": 50, "velocity": 124}, {"time": 89763, "pitch": 60, "duration": 70, "velocity": 124}, {"time": 89763, "pitch": 64, "duration": 70, "velocity": 112}, {"time": 89873, "pitch": 57, "duration": 170, "velocity": 127}, {"time": 89873, "pitch": 60, "duration": 210, "velocity": 127}, {"time": 89873, "pitch": 65, "duration": 240, "velocity": 127}, {"time": 89993, "pitch": 48, "duration": 110, "velocity": 75}, {"time": 90103, "pitch": 55, "duration": 40, "velocity": 124}, {"time": 90143, "pitch": 36, "duration": 1770, "velocity": 112}, {"time": 90203, "pitch": 43, "duration": 80, "velocity": 107}, {"time": 90233, "pitch": 48, "duration": 1180, "velocity": 116}, {"time": 90243, "pitch": 55, "duration": 1460, "velocity": 116}, {"time": 90253, "pitch": 60, "duration": 1520, "velocity": 116}, {"time": 90253, "pitch": 64, "duration": 1630, "velocity": 112}, {"time": 91703, "pitch": 48, "duration": 130, "velocity": 96}, {"time": 91913, "pitch": 55, "duration": 40, "velocity": 73}, {"time": 91983, "pitch": 38, "duration": 70, "velocity": 70}, {"time": 92023, "pitch": 39, "duration": 60, "velocity": 74}, {"time": 92073, "pitch": 40, "duration": 90, "velocity": 84}, {"time": 92123, "pitch": 56, "duration": 30, "velocity": 32}, {"time": 92163, "pitch": 41, "duration": 539, "velocity": 96}, {"time": 92173, "pitch": 53, "duration": 379, "velocity": 78}, {"time": 92173, "pitch": 60, "duration": 429, "velocity": 84}, {"time": 92183, "pitch": 57, "duration": 439, "velocity": 70}, {"time": 92652, "pitch": 29, "duration": 40, "velocity": 90}, {"time": 93142, "pitch": 68, "duration": 10, "velocity": 127}, {"time": 93142, "pitch": 72, "duration": 120, "velocity": 112}, {"time": 93152, "pitch": 53, "duration": 520, "velocity": 90}, {"time": 93162, "pitch": 41, "duration": 790, "velocity": 78}, {"time": 93162, "pitch": 69, "duration": 60, "velocity": 116}, {"time": 93222, "pitch": 67, "duration": 80, "velocity": 103}, {"time": 93312, "pitch": 65, "duration": 50, "velocity": 78}, {"time": 93372, "pitch": 61, "duration": 20, "velocity": 127}, {"time": 93392, "pitch": 62, "duration": 180, "velocity": 127}, {"time": 93392, "pitch": 65, "duration": 150, "velocity": 99}, {"time": 93402, "pitch": 63, "duration": 30, "velocity": 80}, {"time": 93612, "pitch": 60, "duration": 90, "velocity": 112}, {"time": 93622, "pitch": 65, "duration": 70, "velocity": 107}, {"time": 93732, "pitch": 57, "duration": 170, "velocity": 120}, {"time": 93732, "pitch": 65, "duration": 290, "velocity": 127}, {"time": 93862, "pitch": 53, "duration": 130, "velocity": 127}, {"time": 93972, "pitch": 57, "duration": 60, "velocity": 84}, {"time": 94082, "pitch": 45, "duration": 1730, "velocity": 78}, {"time": 94082, "pitch": 60, "duration": 760, "velocity": 99}, {"time": 94092, "pitch": 55, "duration": 660, "velocity": 103}, {"time": 94092, "pitch": 64, "duration": 740, "velocity": 99}, {"time": 94102, "pitch": 52, "duration": 1550, "velocity": 58}, {"time": 94872, "pitch": 64, "duration": 80, "velocity": 14}, {"time": 95072, "pitch": 55, "duration": 480, "velocity": 60}, {"time": 95152, "pitch": 62, "duration": 40, "velocity": 54}, {"time": 95172, "pitch": 67, "duration": 30, "velocity": 56}, {"time": 95262, "pitch": 67, "duration": 40, "velocity": 75}, {"time": 95272, "pitch": 62, "duration": 30, "velocity": 84}, {"time": 95402, "pitch": 62, "duration": 60, "velocity": 107}, {"time": 95402, "pitch": 67, "duration": 50, "velocity": 103}, {"time": 95532, "pitch": 62, "duration": 60, "velocity": 127}, {"time": 95532, "pitch": 67, "duration": 70, "velocity": 127}, {"time": 95642, "pitch": 60, "duration": 130, "velocity": 127}, {"time": 95642, "pitch": 67, "duration": 260, "velocity": 127}, {"time": 95772, "pitch": 55, "duration": 130, "velocity": 127}, {"time": 95872, "pitch": 60, "duration": 60, "velocity": 87}, {"time": 95922, "pitch": 43, "duration": 580, "velocity": 103}, {"time": 95962, "pitch": 50, "duration": 500, "velocity": 90}, {"time": 95992, "pitch": 67, "duration": 510, "velocity": 103}, {"time": 96002, "pitch": 59, "duration": 260, "velocity": 103}, {"time": 96002, "pitch": 62, "duration": 520, "velocity": 96}, {"time": 96012, "pitch": 55, "duration": 140, "velocity": 103}, {"time": 96252, "pitch": 55, "duration": 130, "velocity": 124}, {"time": 96492, "pitch": 59, "duration": 50, "velocity": 112}, {"time": 96572, "pitch": 45, "duration": 80, "velocity": 90}, {"time": 96612, "pitch": 46, "duration": 60, "velocity": 77}, {"time": 96652, "pitch": 47, "duration": 90, "velocity": 87}, {"time": 96712, "pitch": 48, "duration": 1010, "velocity": 99}, {"time": 96742, "pitch": 55, "duration": 320, "velocity": 127}, {"time": 96742, "pitch": 60, "duration": 430, "velocity": 120}, {"time": 96742, "pitch": 64, "duration": 470, "velocity": 120}, {"time": 97082, "pitch": 36, "duration": 590, "velocity": 116}, {"time": 97092, "pitch": 35, "duration": 30, "velocity": 58}, {"time": 97212, "pitch": 55, "duration": 110, "velocity": 87}, {"time": 97322, "pitch": 60, "duration": 130, "velocity": 90}, {"time": 97442, "pitch": 64, "duration": 20, "velocity": 90}, {"time": 97572, "pitch": 67, "duration": 140, "velocity": 93}, {"time": 97692, "pitch": 72, "duration": 120, "velocity": 78}, {"time": 97802, "pitch": 76, "duration": 120, "velocity": 93}, {"time": 97912, "pitch": 53, "duration": 870, "velocity": 93}, {"time": 98042, "pitch": 72, "duration": 240, "velocity": 35}, {"time": 98162, "pitch": 79, "duration": 170, "velocity": 56}, {"time": 98292, "pitch": 84, "duration": 230, "velocity": 87}, {"time": 98412, "pitch": 41, "duration": 1190, "velocity": 54}, {"time": 98522, "pitch": 72, "duration": 150, "velocity": 56}, {"time": 98662, "pitch": 79, "duration": 120, "velocity": 75}, {"time": 98782, "pitch": 84, "duration": 240, "velocity": 84}, {"time": 98922, "pitch": 53, "duration": 330, "velocity": 48}, {"time": 99012, "pitch": 72, "duration": 120, "velocity": 65}, {"time": 99122, "pitch": 79, "duration": 120, "velocity": 60}, {"time": 99252, "pitch": 84, "duration": 280, "velocity": 84}, {"time": 99372, "pitch": 53, "duration": 210, "velocity": 46}, {"time": 99472, "pitch": 72, "duration": 150, "velocity": 56}, {"time": 99612, "pitch": 79, "duration": 140, "velocity": 75}, {"time": 99742, "pitch": 84, "duration": 240, "velocity": 73}, {"time": 99862, "pitch": 36, "duration": 170, "velocity": 75}, {"time": 99862, "pitch": 48, "duration": 200, "velocity": 65}, {"time": 99972, "pitch": 72, "duration": 130, "velocity": 58}, {"time": 100092, "pitch": 79, "duration": 110, "velocity": 78}, {"time": 100212, "pitch": 84, "duration": 250, "velocity": 73}, {"time": 100452, "pitch": 72, "duration": 110, "velocity": 58}, {"time": 100572, "pitch": 79, "duration": 120, "velocity": 75}, {"time": 100692, "pitch": 84, "duration": 130, "velocity": 81}, {"time": 100762, "pitch": 60, "duration": 640, "velocity": 32}, {"time": 100772, "pitch": 62, "duration": 630, "velocity": 29}, {"time": 100792, "pitch": 64, "duration": 600, "velocity": 87}, {"time": 100812, "pitch": 67, "duration": 480, "velocity": 39}, {"time": 100862, "pitch": 72, "duration": 110, "velocity": 65}, {"time": 101042, "pitch": 79, "duration": 60, "velocity": 75}, {"time": 101162, "pitch": 84, "duration": 270, "velocity": 70}, {"time": 101402, "pitch": 72, "duration": 130, "velocity": 63}, {"time": 101532, "pitch": 79, "duration": 120, "velocity": 84}, {"time": 101652, "pitch": 84, "duration": 240, "velocity": 81}, {"time": 101772, "pitch": 41, "duration": 1570, "velocity": 84}, {"time": 101772, "pitch": 53, "duration": 930, "velocity": 84}, {"time": 101882, "pitch": 72, "duration": 180, "velocity": 54}, {"time": 102002, "pitch": 79, "duration": 170, "velocity": 75}, {"time": 102132, "pitch": 84, "duration": 300, "velocity": 78}, {"time": 102362, "pitch": 72, "duration": 180, "velocity": 52}, {"time": 102502, "pitch": 79, "duration": 110, "velocity": 63}, {"time": 102632, "pitch": 84, "duration": 260, "velocity": 81}, {"time": 102792, "pitch": 53, "duration": 200, "velocity": 46}, {"time": 102852, "pitch": 72, "duration": 130, "velocity": 56}, {"time": 102972, "pitch": 79, "duration": 100, "velocity": 81}, {"time": 103082, "pitch": 84, "duration": 310, "velocity": 103}, {"time": 103242, "pitch": 53, "duration": 70, "velocity": 81}, {"time": 103342, "pitch": 72, "duration": 160, "velocity": 81}, {"time": 103462, "pitch": 79, "duration": 130, "velocity": 70}, {"time": 103582, "pitch": 84, "duration": 120, "velocity": 93}, {"time": 103692, "pitch": 45, "duration": 140, "velocity": 43}, {"time": 103692, "pitch": 57, "duration": 160, "velocity": 43}, {"time": 103702, "pitch": 72, "duration": 120, "velocity": 38}, {"time": 103702, "pitch": 76, "duration": 140, "velocity": 27}, {"time": 103712, "pitch": 79, "duration": 130, "velocity": 33}, {"time": 103942, "pitch": 45, "duration": 110, "velocity": 87}, {"time": 103942, "pitch": 76, "duration": 110, "velocity": 73}, {"time": 103952, "pitch": 57, "duration": 110, "velocity": 90}, {"time": 103952, "pitch": 72, "duration": 120, "velocity": 63}, {"time": 103952, "pitch": 79, "duration": 100, "velocity": 90}, {"time": 104182, "pitch": 45, "duration": 130, "velocity": 103}, {"time": 104182, "pitch": 57, "duration": 140, "velocity": 112}, {"time": 104182, "pitch": 72, "duration": 140, "velocity": 96}, {"time": 104182, "pitch": 76, "duration": 150, "velocity": 103}, {"time": 104192, "pitch": 79, "duration": 150, "velocity": 112}, {"time": 104422, "pitch": 45, "duration": 100, "velocity": 103}, {"time": 104422, "pitch": 57, "duration": 90, "velocity": 112}, {"time": 104432, "pitch": 72, "duration": 90, "velocity": 96}, {"time": 104432, "pitch": 76, "duration": 90, "velocity": 96}, {"time": 104442, "pitch": 79, "duration": 80, "velocity": 116}, {"time": 104662, "pitch": 43, "duration": 220, "velocity": 127}, {"time": 104662, "pitch": 55, "duration": 220, "velocity": 127}, {"time": 104672, "pitch": 71, "duration": 220, "velocity": 120}, {"time": 104672, "pitch": 74, "duration": 220, "velocity": 127}, {"time": 104672, "pitch": 79, "duration": 230, "velocity": 127}, {"time": 105462, "pitch": 62, "duration": 50, "velocity": 127}, {"time": 105462, "pitch": 67, "duration": 640, "velocity": 127}, {"time": 105512, "pitch": 63, "duration": 60, "velocity": 105}, {"time": 105562, "pitch": 62, "duration": 90, "velocity": 112}, {"time": 105602, "pitch": 24, "duration": 480, "velocity": 107}, {"time": 105612, "pitch": 36, "duration": 290, "velocity": 96}, {"time": 105622, "pitch": 60, "duration": 460, "velocity": 116}, {"time": 106082, "pitch": 36, "duration": 40, "velocity": 116}, {"time": 106202, "pitch": 55, "duration": 70, "velocity": 96}, {"time": 106342, "pitch": 60, "duration": 70, "velocity": 116}, {"time": 106442, "pitch": 64, "duration": 60, "velocity": 103}, {"time": 106552, "pitch": 41, "duration": 800, "velocity": 107}, {"time": 106552, "pitch": 60, "duration": 630, "velocity": 120}, {"time": 106552, "pitch": 65, "duration": 660, "velocity": 124}, {"time": 106562, "pitch": 57, "duration": 520, "velocity": 124}, {"time": 107052, "pitch": 53, "duration": 360, "velocity": 120}, {"time": 107182, "pitch": 57, "duration": 80, "velocity": 90}, {"time": 107292, "pitch": 60, "duration": 140, "velocity": 87}, {"time": 107402, "pitch": 65, "duration": 60, "velocity": 96}, {"time": 107522, "pitch": 59, "duration": 420, "velocity": 107}, {"time": 107522, "pitch": 62, "duration": 500, "velocity": 107}, {"time": 107522, "pitch": 67, "duration": 540, "velocity": 107}, {"time": 107532, "pitch": 43, "duration": 1730, "velocity": 112}, {"time": 108012, "pitch": 55, "duration": 870, "velocity": 103}, {"time": 108122, "pitch": 59, "duration": 90, "velocity": 84}, {"time": 108242, "pitch": 62, "duration": 110, "velocity": 87}, {"time": 108342, "pitch": 67, "duration": 40, "velocity": 93}, {"time": 108472, "pitch": 67, "duration": 70, "velocity": 112}, {"time": 108472, "pitch": 71, "duration": 50, "velocity": 112}, {"time": 108482, "pitch": 62, "duration": 70, "velocity": 112}, {"time": 108592, "pitch": 62, "duration": 50, "velocity": 99}, {"time": 108592, "pitch": 67, "duration": 60, "velocity": 99}, {"time": 108592, "pitch": 71, "duration": 70, "velocity": 73}, {"time": 108712, "pitch": 61, "duration": 80, "velocity": 123}, {"time": 108712, "pitch": 66, "duration": 80, "velocity": 118}, {"time": 108712, "pitch": 70, "duration": 110, "velocity": 105}, {"time": 108822, "pitch": 65, "duration": 360, "velocity": 116}, {"time": 108822, "pitch": 69, "duration": 360, "velocity": 103}, {"time": 108832, "pitch": 60, "duration": 370, "velocity": 116}, {"time": 109202, "pitch": 55, "duration": 60, "velocity": 127}, {"time": 109322, "pitch": 60, "duration": 50, "velocity": 107}, {"time": 109442, "pitch": 55, "duration": 500, "velocity": 120}, {"time": 109442, "pitch": 60, "duration": 600, "velocity": 96}, {"time": 109442, "pitch": 64, "duration": 650, "velocity": 120}, {"time": 109452, "pitch": 33, "duration": 620, "velocity": 116}, {"time": 109452, "pitch": 45, "duration": 260, "velocity": 107}, {"time": 109932, "pitch": 45, "duration": 180, "velocity": 127}, {"time": 110052, "pitch": 55, "duration": 80, "velocity": 112}, {"time": 110172, "pitch": 60, "duration": 160, "velocity": 99}, {"time": 110282, "pitch": 64, "duration": 90, "velocity": 103}, {"time": 110412, "pitch": 41, "duration": 730, "velocity": 107}, {"time": 110412, "pitch": 57, "duration": 440, "velocity": 116}, {"time": 110412, "pitch": 60, "duration": 730, "velocity": 116}, {"time": 110412, "pitch": 65, "duration": 700, "velocity": 120}, {"time": 110422, "pitch": 53, "duration": 340, "velocity": 107}, {"time": 110882, "pitch": 53, "duration": 310, "velocity": 127}, {"time": 111142, "pitch": 57, "duration": 130, "velocity": 120}, {"time": 111252, "pitch": 58, "duration": 130, "velocity": 118}, {"time": 111362, "pitch": 50, "duration": 520, "velocity": 107}, {"time": 111372, "pitch": 43, "duration": 1650, "velocity": 107}, {"time": 111372, "pitch": 59, "duration": 150, "velocity": 116}, {"time": 111492, "pitch": 67, "duration": 150, "velocity": 107}, {"time": 111602, "pitch": 59, "duration": 130, "velocity": 96}, {"time": 111722, "pitch": 58, "duration": 130, "velocity": 101}, {"time": 111832, "pitch": 57, "duration": 160, "velocity": 107}, {"time": 111962, "pitch": 65, "duration": 170, "velocity": 112}, {"time": 112082, "pitch": 57, "duration": 130, "velocity": 103}, {"time": 112192, "pitch": 56, "duration": 130, "velocity": 105}, {"time": 112312, "pitch": 55, "duration": 120, "velocity": 112}, {"time": 112472, "pitch": 64, "duration": 150, "velocity": 107}, {"time": 112482, "pitch": 55, "duration": 140, "velocity": 107}, {"time": 112682, "pitch": 55, "duration": 170, "velocity": 120}, {"time": 112682, "pitch": 64, "duration": 160, "velocity": 116}, {"time": 112922, "pitch": 54, "duration": 150, "velocity": 113}, {"time": 112922, "pitch": 63, "duration": 130, "velocity": 118}, {"time": 113152, "pitch": 47, "duration": 70, "velocity": 58}, {"time": 113192, "pitch": 48, "duration": 70, "velocity": 78}, {"time": 113232, "pitch": 49, "duration": 70, "velocity": 101}, {"time": 113282, "pitch": 50, "duration": 540, "velocity": 103}, {"time": 113292, "pitch": 53, "duration": 460, "velocity": 107}, {"time": 113292, "pitch": 57, "duration": 530, "velocity": 96}, {"time": 113302, "pitch": 62, "duration": 560, "velocity": 103}, {"time": 113752, "pitch": 38, "duration": 50, "velocity": 103}, {"time": 113992, "pitch": 60, "duration": 570, "velocity": 107}, {"time": 114002, "pitch": 40, "duration": 990, "velocity": 107}, {"time": 114002, "pitch": 52, "duration": 230, "velocity": 103}, {"time": 114002, "pitch": 55, "duration": 440, "velocity": 112}, {"time": 114482, "pitch": 52, "duration": 370, "velocity": 103}, {"time": 114592, "pitch": 55, "duration": 180, "velocity": 93}, {"time": 114712, "pitch": 60, "duration": 450, "velocity": 107}, {"time": 114822, "pitch": 55, "duration": 170, "velocity": 124}, {"time": 114832, "pitch": 67, "duration": 260, "velocity": 127}, {"time": 114962, "pitch": 52, "duration": 120, "velocity": 107}, {"time": 115082, "pitch": 55, "duration": 60, "velocity": 81}, {"time": 115112, "pitch": 41, "duration": 730, "velocity": 90}, {"time": 115142, "pitch": 48, "duration": 650, "velocity": 87}, {"time": 115192, "pitch": 53, "duration": 260, "velocity": 112}, {"time": 115212, "pitch": 57, "duration": 480, "velocity": 107}, {"time": 115212, "pitch": 60, "duration": 510, "velocity": 107}, {"time": 115682, "pitch": 53, "duration": 80, "velocity": 116}, {"time": 115932, "pitch": 43, "duration": 769, "velocity": 120}, {"time": 115932, "pitch": 53, "duration": 500, "velocity": 107}, {"time": 115932, "pitch": 57, "duration": 570, "velocity": 112}, {"time": 115932, "pitch": 60, "duration": 590, "velocity": 116}, {"time": 116641, "pitch": 31, "duration": 40, "velocity": 127}, {"time": 116991, "pitch": 55, "duration": 660, "velocity": 78}, {"time": 117031, "pitch": 60, "duration": 710, "velocity": 81}, {"time": 117051, "pitch": 62, "duration": 580, "velocity": 81}, {"time": 117081, "pitch": 67, "duration": 360, "velocity": 81}, {"time": 117101, "pitch": 64, "duration": 460, "velocity": 84}, {"time": 117111, "pitch": 72, "duration": 380, "velocity": 90}, {"time": 117141, "pitch": 74, "duration": 360, "velocity": 96}, {"time": 117181, "pitch": 79, "duration": 400, "velocity": 127}, {"time": 117741, "pitch": 72, "duration": 90, "velocity": 87}, {"time": 117861, "pitch": 79, "duration": 80, "velocity": 90}, {"time": 117991, "pitch": 84, "duration": 70, "velocity": 103}, {"time": 118101, "pitch": 45, "duration": 810, "velocity": 78}, {"time": 118101, "pitch": 57, "duration": 790, "velocity": 81}, {"time": 118101, "pitch": 83, "duration": 130, "velocity": 120}, {"time": 118241, "pitch": 84, "duration": 60, "velocity": 78}, {"time": 118291, "pitch": 83, "duration": 100, "velocity": 84}, {"time": 118341, "pitch": 81, "duration": 160, "velocity": 75}, {"time": 118471, "pitch": 79, "duration": 130, "velocity": 99}, {"time": 118591, "pitch": 77, "duration": 140, "velocity": 107}, {"time": 118691, "pitch": 76, "duration": 120, "velocity": 93}, {"time": 118801, "pitch": 74, "duration": 140, "velocity": 73}, {"time": 118931, "pitch": 72, "duration": 140, "velocity": 81}, {"time": 119051, "pitch": 71, "duration": 120, "velocity": 65}, {"time": 119061, "pitch": 43, "duration": 740, "velocity": 78}, {"time": 119061, "pitch": 55, "duration": 740, "velocity": 60}, {"time": 119181, "pitch": 74, "duration": 170, "velocity": 99}, {"time": 119431, "pitch": 74, "duration": 70, "velocity": 87}, {"time": 119521, "pitch": 70, "duration": 70, "velocity": 74}, {"time": 119561, "pitch": 71, "duration": 100, "velocity": 70}, {"time": 119661, "pitch": 69, "duration": 120, "velocity": 96}, {"time": 119781, "pitch": 67, "duration": 60, "velocity": 84}, {"time": 119901, "pitch": 69, "duration": 170, "velocity": 103}, {"time": 120021, "pitch": 53, "duration": 600, "velocity": 50}, {"time": 120141, "pitch": 69, "duration": 120, "velocity": 78}, {"time": 120251, "pitch": 67, "duration": 110, "velocity": 68}, {"time": 120371, "pitch": 65, "duration": 110, "velocity": 68}, {"time": 120501, "pitch": 64, "duration": 90, "velocity": 107}, {"time": 120621, "pitch": 65, "duration": 70, "velocity": 99}, {"time": 120731, "pitch": 67, "duration": 70, "velocity": 120}, {"time": 120851, "pitch": 67, "duration": 560, "velocity": 107}, {"time": 120961, "pitch": 48, "duration": 630, "velocity": 56}, {"time": 121211, "pitch": 55, "duration": 230, "velocity": 73}, {"time": 121341, "pitch": 60, "duration": 170, "velocity": 75}, {"time": 121461, "pitch": 64, "duration": 70, "velocity": 87}, {"time": 121571, "pitch": 57, "duration": 150, "velocity": 124}, {"time": 121571, "pitch": 60, "duration": 190, "velocity": 107}, {"time": 121571, "pitch": 65, "duration": 210, "velocity": 124}, {"time": 121781, "pitch": 64, "duration": 820, "velocity": 20}, {"time": 121801, "pitch": 55, "duration": 570, "velocity": 81}, {"time": 121801, "pitch": 60, "duration": 660, "velocity": 75}, {"time": 121941, "pitch": 45, "duration": 540, "velocity": 63}, {"time": 122391, "pitch": 33, "duration": 110, "velocity": 38}, {"time": 122651, "pitch": 58, "duration": 120, "velocity": 74}, {"time": 122771, "pitch": 59, "duration": 440, "velocity": 65}, {"time": 122881, "pitch": 55, "duration": 250, "velocity": 60}, {"time": 122891, "pitch": 43, "duration": 530, "velocity": 65}, {"time": 123011, "pitch": 67, "duration": 290, "velocity": 65}, {"time": 123371, "pitch": 55, "duration": 30, "velocity": 73}, {"time": 123691, "pitch": 60, "duration": 150, "velocity": 52}, {"time": 123741, "pitch": 65, "duration": 120, "velocity": 58}, {"time": 123791, "pitch": 67, "duration": 100, "velocity": 60}, {"time": 123861, "pitch": 41, "duration": 620, "velocity": 52}, {"time": 123861, "pitch": 53, "duration": 150, "velocity": 41}, {"time": 123861, "pitch": 72, "duration": 400, "velocity": 90}, {"time": 124331, "pitch": 53, "duration": 110, "velocity": 78}, {"time": 124451, "pitch": 72, "duration": 80, "velocity": 84}, {"time": 124561, "pitch": 76, "duration": 60, "velocity": 96}, {"time": 124671, "pitch": 79, "duration": 170, "velocity": 127}, {"time": 124811, "pitch": 36, "duration": 810, "velocity": 68}, {"time": 124811, "pitch": 48, "duration": 740, "velocity": 63}, {"time": 124931, "pitch": 79, "duration": 160, "velocity": 116}, {"time": 125051, "pitch": 77, "duration": 140, "velocity": 68}, {"time": 125171, "pitch": 76, "duration": 120, "velocity": 84}, {"time": 125291, "pitch": 74, "duration": 70, "velocity": 87}, {"time": 125411, "pitch": 77, "duration": 190, "velocity": 127}, {"time": 125661, "pitch": 77, "duration": 170, "velocity": 124}, {"time": 125771, "pitch": 76, "duration": 130, "velocity": 78}, {"time": 125781, "pitch": 33, "duration": 720, "velocity": 63}, {"time": 125781, "pitch": 45, "duration": 690, "velocity": 63}, {"time": 125891, "pitch": 74, "duration": 110, "velocity": 84}, {"time": 126001, "pitch": 72, "duration": 90, "velocity": 81}, {"time": 126131, "pitch": 76, "duration": 160, "velocity": 127}, {"time": 126371, "pitch": 76, "duration": 160, "velocity": 116}, {"time": 126481, "pitch": 74, "duration": 150, "velocity": 90}, {"time": 126601, "pitch": 72, "duration": 120, "velocity": 93}, {"time": 126711, "pitch": 71, "duration": 130, "velocity": 78}, {"time": 126741, "pitch": 31, "duration": 630, "velocity": 68}, {"time": 126741, "pitch": 43, "duration": 630, "velocity": 56}, {"time": 126841, "pitch": 74, "duration": 170, "velocity": 124}, {"time": 126961, "pitch": 72, "duration": 140, "velocity": 78}, {"time": 127071, "pitch": 71, "duration": 120, "velocity": 75}, {"time": 127181, "pitch": 69, "duration": 120, "velocity": 81}, {"time": 127311, "pitch": 72, "duration": 210, "velocity": 127}, {"time": 127491, "pitch": 71, "duration": 90, "velocity": 58}, {"time": 127551, "pitch": 69, "duration": 70, "velocity": 73}, {"time": 127611, "pitch": 67, "duration": 90, "velocity": 107}, {"time": 127691, "pitch": 41, "duration": 670, "velocity": 93}, {"time": 127691, "pitch": 71, "duration": 210, "velocity": 124}, {"time": 127861, "pitch": 69, "duration": 80, "velocity": 75}, {"time": 127921, "pitch": 67, "duration": 60, "velocity": 90}, {"time": 127971, "pitch": 65, "duration": 70, "velocity": 103}, {"time": 128061, "pitch": 69, "duration": 210, "velocity": 127}, {"time": 128231, "pitch": 67, "duration": 70, "velocity": 81}, {"time": 128291, "pitch": 65, "duration": 60, "velocity": 90}, {"time": 128341, "pitch": 64, "duration": 50, "velocity": 103}, {"time": 128421, "pitch": 67, "duration": 130, "velocity": 127}, {"time": 128531, "pitch": 65, "duration": 70, "velocity": 84}, {"time": 128591, "pitch": 64, "duration": 20, "velocity": 107}, {"time": 128611, "pitch": 62, "duration": 90, "velocity": 103}, {"time": 128671, "pitch": 36, "duration": 660, "velocity": 103}, {"time": 128671, "pitch": 60, "duration": 480, "velocity": 127}, {"time": 128681, "pitch": 48, "duration": 260, "velocity": 87}, {"time": 129151, "pitch": 48, "duration": 270, "velocity": 78}, {"time": 129261, "pitch": 55, "duration": 90, "velocity": 84}, {"time": 129381, "pitch": 60, "duration": 140, "velocity": 78}, {"time": 129491, "pitch": 64, "duration": 30, "velocity": 93}, {"time": 129511, "pitch": 42, "duration": 80, "velocity": 47}, {"time": 129561, "pitch": 43, "duration": 40, "velocity": 52}, {"time": 129581, "pitch": 44, "duration": 40, "velocity": 84}, {"time": 129611, "pitch": 45, "duration": 870, "velocity": 73}, {"time": 129611, "pitch": 60, "duration": 590, "velocity": 73}, {"time": 129621, "pitch": 55, "duration": 480, "velocity": 81}, {"time": 129621, "pitch": 64, "duration": 640, "velocity": 87}, {"time": 130101, "pitch": 33, "duration": 340, "velocity": 87}, {"time": 130211, "pitch": 55, "duration": 90, "velocity": 78}, {"time": 130341, "pitch": 60, "duration": 60, "velocity": 75}, {"time": 130441, "pitch": 64, "duration": 50, "velocity": 103}, {"time": 130561, "pitch": 31, "duration": 750, "velocity": 78}, {"time": 130561, "pitch": 55, "duration": 450, "velocity": 52}, {"time": 130571, "pitch": 43, "duration": 270, "velocity": 78}, {"time": 130571, "pitch": 59, "duration": 530, "velocity": 73}, {"time": 130571, "pitch": 62, "duration": 370, "velocity": 81}, {"time": 131041, "pitch": 43, "duration": 290, "velocity": 81}, {"time": 131291, "pitch": 55, "duration": 100, "velocity": 34}, {"time": 131511, "pitch": 41, "duration": 2040, "velocity": 70}, {"time": 131511, "pitch": 53, "duration": 1830, "velocity": 73}, {"time": 131631, "pitch": 60, "duration": 140, "velocity": 63}, {"time": 131741, "pitch": 65, "duration": 110, "velocity": 81}, {"time": 131871, "pitch": 72, "duration": 110, "velocity": 96}, {"time": 131991, "pitch": 71, "duration": 100, "velocity": 84}, {"time": 132121, "pitch": 72, "duration": 150, "velocity": 93}, {"time": 132241, "pitch": 69, "duration": 90, "velocity": 99}, {"time": 132361, "pitch": 72, "duration": 140, "velocity": 107}, {"time": 132481, "pitch": 67, "duration": 120, "velocity": 116}, {"time": 132591, "pitch": 72, "duration": 160, "velocity": 116}, {"time": 132711, "pitch": 65, "duration": 110, "velocity": 112}, {"time": 132831, "pitch": 72, "duration": 140, "velocity": 99}, {"time": 132951, "pitch": 64, "duration": 120, "velocity": 107}, {"time": 133071, "pitch": 72, "duration": 140, "velocity": 107}, {"time": 133201, "pitch": 62, "duration": 100, "velocity": 103}, {"time": 133331, "pitch": 72, "duration": 430, "velocity": 112}, {"time": 133441, "pitch": 60, "duration": 160, "velocity": 120}, {"time": 133551, "pitch": 53, "duration": 450, "velocity": 96}, {"time": 133691, "pitch": 41, "duration": 60, "velocity": 63}, {"time": 133691, "pitch": 60, "duration": 140, "velocity": 99}, {"time": 133801, "pitch": 65, "duration": 210, "velocity": 112}, {"time": 134041, "pitch": 67, "duration": 40, "velocity": 120}, {"time": 134221, "pitch": 55, "duration": 1500, "velocity": 93}, {"time": 134251, "pitch": 60, "duration": 1480, "velocity": 75}, {"time": 134271, "pitch": 62, "duration": 1410, "velocity": 87}, {"time": 134281, "pitch": 67, "duration": 420, "velocity": 90}, {"time": 134301, "pitch": 64, "duration": 1370, "velocity": 90}, {"time": 134321, "pitch": 72, "duration": 70, "velocity": 93}, {"time": 134351, "pitch": 74, "duration": 60, "velocity": 107}, {"time": 134381, "pitch": 79, "duration": 580, "velocity": 112}, {"time": 134441, "pitch": 74, "duration": 480, "velocity": 107}, {"time": 135231, "pitch": 72, "duration": 30, "velocity": 52}, {"time": 135231, "pitch": 74, "duration": 70, "velocity": 75}, {"time": 135261, "pitch": 79, "duration": 120, "velocity": 93}, {"time": 135321, "pitch": 86, "duration": 60, "velocity": 99}, {"time": 135361, "pitch": 84, "duration": 270, "velocity": 116}, {"time": 136171, "pitch": 79, "duration": 90, "velocity": 93}, {"time": 136211, "pitch": 84, "duration": 80, "velocity": 81}, {"time": 136261, "pitch": 91, "duration": 80, "velocity": 103}, {"time": 136311, "pitch": 89, "duration": 350, "velocity": 112}, {"time": 136331, "pitch": 41, "duration": 1350, "velocity": 112}, {"time": 136331, "pitch": 53, "duration": 320, "velocity": 116}, {"time": 137281, "pitch": 29, "duration": 720, "velocity": 84}, {"time": 137411, "pitch": 55, "duration": 50, "velocity": 90}, {"time": 137521, "pitch": 57, "duration": 60, "velocity": 99}, {"time": 137641, "pitch": 60, "duration": 170, "velocity": 124}, {"time": 137771, "pitch": 41, "duration": 30, "velocity": 73}, {"time": 137881, "pitch": 60, "duration": 180, "velocity": 116}, {"time": 138001, "pitch": 41, "duration": 60, "velocity": 96}, {"time": 138221, "pitch": 60, "duration": 630, "velocity": 112}, {"time": 138231, "pitch": 33, "duration": 550, "velocity": 93}, {"time": 138231, "pitch": 55, "duration": 210, "velocity": 112}, {"time": 138231, "pitch": 64, "duration": 620, "velocity": 116}, {"time": 138731, "pitch": 45, "duration": 180, "velocity": 68}, {"time": 139211, "pitch": 31, "duration": 840, "velocity": 107}, {"time": 139211, "pitch": 43, "duration": 690, "velocity": 103}, {"time": 139321, "pitch": 62, "duration": 190, "velocity": 120}, {"time": 139321, "pitch": 67, "duration": 150, "velocity": 120}, {"time": 139321, "pitch": 72, "duration": 160, "velocity": 116}, {"time": 139441, "pitch": 71, "duration": 170, "velocity": 103}, {"time": 139571, "pitch": 67, "duration": 110, "velocity": 116}, {"time": 139691, "pitch": 62, "duration": 70, "velocity": 116}, {"time": 139801, "pitch": 60, "duration": 100, "velocity": 127}, {"time": 139921, "pitch": 59, "duration": 150, "velocity": 124}, {"time": 140051, "pitch": 43, "duration": 60, "velocity": 93}, {"time": 140171, "pitch": 33, "duration": 530, "velocity": 112}, {"time": 140171, "pitch": 53, "duration": 450, "velocity": 120}, {"time": 140181, "pitch": 45, "duration": 320, "velocity": 127}, {"time": 140181, "pitch": 60, "duration": 550, "velocity": 120}, {"time": 140671, "pitch": 45, "duration": 40, "velocity": 81}, {"time": 140890, "pitch": 47, "duration": 340, "velocity": 124}, {"time": 140890, "pitch": 55, "duration": 440, "velocity": 124}, {"time": 140890, "pitch": 62, "duration": 520, "velocity": 127}, {"time": 140900, "pitch": 35, "duration": 520, "velocity": 120}, {"time": 140930, "pitch": 57, "duration": 30, "velocity": 11}, {"time": 141350, "pitch": 47, "duration": 60, "velocity": 107}, {"time": 141600, "pitch": 28, "duration": 300, "velocity": 127}, {"time": 141600, "pitch": 40, "duration": 130, "velocity": 127}, {"time": 141600, "pitch": 55, "duration": 310, "velocity": 127}, {"time": 141600, "pitch": 60, "duration": 300, "velocity": 127}, {"time": 141840, "pitch": 40, "duration": 90, "velocity": 93}, {"time": 142080, "pitch": 29, "duration": 640, "velocity": 120}, {"time": 142080, "pitch": 41, "duration": 410, "velocity": 116}, {"time": 142080, "pitch": 55, "duration": 120, "velocity": 127}, {"time": 142080, "pitch": 60, "duration": 800, "velocity": 127}, {"time": 142190, "pitch": 57, "duration": 680, "velocity": 103}, {"time": 142440, "pitch": 53, "duration": 160, "velocity": 112}, {"time": 143040, "pitch": 41, "duration": 870, "velocity": 44}, {"time": 143050, "pitch": 53, "duration": 550, "velocity": 40}, {"time": 143160, "pitch": 67, "duration": 30, "velocity": 99}, {"time": 143160, "pitch": 72, "duration": 30, "velocity": 93}, {"time": 143280, "pitch": 67, "duration": 50, "velocity": 120}, {"time": 143290, "pitch": 72, "duration": 40, "velocity": 103}, {"time": 143400, "pitch": 67, "duration": 40, "velocity": 124}, {"time": 143400, "pitch": 72, "duration": 50, "velocity": 112}, {"time": 143520, "pitch": 67, "duration": 80, "velocity": 127}, {"time": 143520, "pitch": 72, "duration": 80, "velocity": 116}, {"time": 143640, "pitch": 65, "duration": 170, "velocity": 127}, {"time": 143640, "pitch": 72, "duration": 290, "velocity": 127}, {"time": 143770, "pitch": 53, "duration": 90, "velocity": 127}, {"time": 143870, "pitch": 65, "duration": 80, "velocity": 81}, {"time": 143890, "pitch": 48, "duration": 80, "velocity": 84}, {"time": 143960, "pitch": 49, "duration": 60, "velocity": 105}, {"time": 143990, "pitch": 50, "duration": 890, "velocity": 103}, {"time": 144000, "pitch": 60, "duration": 330, "velocity": 116}, {"time": 144000, "pitch": 65, "duration": 340, "velocity": 107}, {"time": 144010, "pitch": 69, "duration": 320, "velocity": 96}, {"time": 144010, "pitch": 71, "duration": 40, "velocity": 93}, {"time": 144490, "pitch": 38, "duration": 1300, "velocity": 112}, {"time": 144610, "pitch": 57, "duration": 60, "velocity": 63}, {"time": 144720, "pitch": 60, "duration": 30, "velocity": 96}, {"time": 144840, "pitch": 60, "duration": 140, "velocity": 124}, {"time": 144840, "pitch": 65, "duration": 150, "velocity": 124}, {"time": 144850, "pitch": 57, "duration": 130, "velocity": 127}, {"time": 144970, "pitch": 50, "duration": 400, "velocity": 93}, {"time": 145100, "pitch": 53, "duration": 50, "velocity": 81}, {"time": 145210, "pitch": 55, "duration": 50, "velocity": 84}, {"time": 145340, "pitch": 55, "duration": 160, "velocity": 124}, {"time": 145340, "pitch": 60, "duration": 170, "velocity": 127}, {"time": 145470, "pitch": 50, "duration": 40, "velocity": 58}, {"time": 145570, "pitch": 53, "duration": 140, "velocity": 124}, {"time": 145570, "pitch": 60, "duration": 220, "velocity": 120}, {"time": 145700, "pitch": 50, "duration": 50, "velocity": 116}, {"time": 145810, "pitch": 53, "duration": 50, "velocity": 103}, {"time": 145930, "pitch": 31, "duration": 1730, "velocity": 124}, {"time": 145930, "pitch": 43, "duration": 200, "velocity": 127}, {"time": 145940, "pitch": 53, "duration": 390, "velocity": 112}, {"time": 145940, "pitch": 57, "duration": 610, "velocity": 116}, {"time": 145940, "pitch": 60, "duration": 650, "velocity": 124}, {"time": 146400, "pitch": 43, "duration": 520, "velocity": 120}, {"time": 146520, "pitch": 53, "duration": 100, "velocity": 87}, {"time": 146650, "pitch": 57, "duration": 70, "velocity": 99}, {"time": 146770, "pitch": 57, "duration": 40, "velocity": 78}, {"time": 146770, "pitch": 60, "duration": 70, "velocity": 78}, {"time": 146790, "pitch": 53, "duration": 30, "velocity": 26}, {"time": 146900, "pitch": 62, "duration": 690, "velocity": 127}, {"time": 146910, "pitch": 55, "duration": 490, "velocity": 127}, {"time": 146910, "pitch": 59, "duration": 700, "velocity": 124}, {"time": 147150, "pitch": 43, "duration": 550, "velocity": 103}, {"time": 151530, "pitch": 84, "duration": 70, "velocity": 70}, {"time": 151570, "pitch": 91, "duration": 80, "velocity": 81}, {"time": 151630, "pitch": 98, "duration": 60, "velocity": 81}, {"time": 151680, "pitch": 96, "duration": 70, "velocity": 96}, {"time": 154560, "pitch": 81, "duration": 60, "velocity": 103}, {"time": 154560, "pitch": 86, "duration": 260, "velocity": 112}, {"time": 154630, "pitch": 83, "duration": 70, "velocity": 75}, {"time": 154700, "pitch": 81, "duration": 130, "velocity": 81}, {"time": 154810, "pitch": 79, "duration": 60, "velocity": 68}, {"time": 154930, "pitch": 74, "duration": 70, "velocity": 90}, {"time": 155040, "pitch": 69, "duration": 60, "velocity": 103}, {"time": 155040, "pitch": 74, "duration": 220, "velocity": 103}, {"time": 155100, "pitch": 71, "duration": 100, "velocity": 87}, {"time": 155170, "pitch": 69, "duration": 140, "velocity": 81}, {"time": 155290, "pitch": 67, "duration": 50, "velocity": 90}, {"time": 155400, "pitch": 62, "duration": 90, "velocity": 99}, {"time": 155520, "pitch": 62, "duration": 70, "velocity": 120}, {"time": 155520, "pitch": 67, "duration": 600, "velocity": 116}, {"time": 155580, "pitch": 64, "duration": 100, "velocity": 93}, {"time": 155650, "pitch": 62, "duration": 110, "velocity": 99}, {"time": 155730, "pitch": 60, "duration": 370, "velocity": 112}, {"time": 156000, "pitch": 48, "duration": 250, "velocity": 75}, {"time": 156130, "pitch": 55, "duration": 150, "velocity": 99}, {"time": 156240, "pitch": 60, "duration": 950, "velocity": 112}, {"time": 156370, "pitch": 64, "duration": 120, "velocity": 107}, {"time": 156490, "pitch": 41, "duration": 760, "velocity": 103}, {"time": 156490, "pitch": 65, "duration": 750, "velocity": 99}, {"time": 156500, "pitch": 57, "duration": 490, "velocity": 84}, {"time": 156970, "pitch": 53, "duration": 340, "velocity": 112}, {"time": 157210, "pitch": 57, "duration": 120, "velocity": 84}, {"time": 157320, "pitch": 58, "duration": 110, "velocity": 74}, {"time": 157430, "pitch": 62, "duration": 310, "velocity": 84}, {"time": 157430, "pitch": 67, "duration": 320, "velocity": 96}, {"time": 157440, "pitch": 43, "duration": 1760, "velocity": 99}, {"time": 157440, "pitch": 55, "duration": 270, "velocity": 93}, {"time": 157440, "pitch": 59, "duration": 270, "velocity": 90}, {"time": 157920, "pitch": 55, "duration": 1090, "velocity": 54}, {"time": 158030, "pitch": 69, "duration": 30, "velocity": 73}, {"time": 158030, "pitch": 74, "duration": 30, "velocity": 63}, {"time": 158160, "pitch": 69, "duration": 20, "velocity": 99}, {"time": 158170, "pitch": 74, "duration": 20, "velocity": 93}, {"time": 158270, "pitch": 69, "duration": 30, "velocity": 107}, {"time": 158270, "pitch": 74, "duration": 50, "velocity": 112}, {"time": 158390, "pitch": 69, "duration": 160, "velocity": 127}, {"time": 158390, "pitch": 74, "duration": 300, "velocity": 124}, {"time": 158530, "pitch": 70, "duration": 90, "velocity": 66}, {"time": 158600, "pitch": 69, "duration": 60, "velocity": 81}, {"time": 158640, "pitch": 67, "duration": 80, "velocity": 93}, {"time": 158760, "pitch": 69, "duration": 230, "velocity": 112}, {"time": 158760, "pitch": 74, "duration": 220, "velocity": 103}, {"time": 159000, "pitch": 67, "duration": 190, "velocity": 116}, {"time": 159000, "pitch": 74, "duration": 190, "velocity": 60}, {"time": 159130, "pitch": 55, "duration": 230, "velocity": 84}, {"time": 159360, "pitch": 45, "duration": 400, "velocity": 68}, {"time": 159370, "pitch": 64, "duration": 220, "velocity": 103}, {"time": 159370, "pitch": 69, "duration": 180, "velocity": 93}, {"time": 159370, "pitch": 72, "duration": 200, "velocity": 103}, {"time": 159860, "pitch": 45, "duration": 170, "velocity": 68}, {"time": 159960, "pitch": 55, "duration": 80, "velocity": 96}, {"time": 160090, "pitch": 60, "duration": 160, "velocity": 127}, {"time": 160200, "pitch": 64, "duration": 90, "velocity": 116}, {"time": 160320, "pitch": 60, "duration": 560, "velocity": 84}, {"time": 160330, "pitch": 41, "duration": 730, "velocity": 107}, {"time": 160330, "pitch": 53, "duration": 260, "velocity": 99}, {"time": 160330, "pitch": 57, "duration": 480, "velocity": 124}, {"time": 160330, "pitch": 65, "duration": 800, "velocity": 120}, {"time": 160810, "pitch": 53, "duration": 300, "velocity": 75}, {"time": 161060, "pitch": 57, "duration": 110, "velocity": 75}, {"time": 161160, "pitch": 58, "duration": 120, "velocity": 53}, {"time": 161280, "pitch": 43, "duration": 1840, "velocity": 87}, {"time": 161280, "pitch": 55, "duration": 220, "velocity": 75}, {"time": 161290, "pitch": 59, "duration": 200, "velocity": 87}, {"time": 161290, "pitch": 62, "duration": 240, "velocity": 81}, {"time": 161290, "pitch": 67, "duration": 230, "velocity": 96}, {"time": 161750, "pitch": 55, "duration": 710, "velocity": 93}, {"time": 161910, "pitch": 62, "duration": 80, "velocity": 124}, {"time": 161910, "pitch": 71, "duration": 100, "velocity": 120}, {"time": 161920, "pitch": 67, "duration": 100, "velocity": 116}, {"time": 162090, "pitch": 61, "duration": 80, "velocity": 97}, {"time": 162090, "pitch": 66, "duration": 90, "velocity": 94}, {"time": 162090, "pitch": 70, "duration": 100, "velocity": 91}, {"time": 162230, "pitch": 69, "duration": 440, "velocity": 112}, {"time": 162240, "pitch": 60, "duration": 440, "velocity": 112}, {"time": 162240, "pitch": 65, "duration": 420, "velocity": 112}, {"time": 162720, "pitch": 55, "duration": 110, "velocity": 87}, {"time": 162850, "pitch": 57, "duration": 150, "velocity": 84}, {"time": 162970, "pitch": 60, "duration": 130, "velocity": 90}, {"time": 163080, "pitch": 65, "duration": 60, "velocity": 99}, {"time": 163110, "pitch": 48, "duration": 60, "velocity": 87}, {"time": 163160, "pitch": 49, "duration": 60, "velocity": 84}, {"time": 163210, "pitch": 50, "duration": 370, "velocity": 107}, {"time": 163210, "pitch": 53, "duration": 240, "velocity": 112}, {"time": 163210, "pitch": 57, "duration": 470, "velocity": 116}, {"time": 163220, "pitch": 60, "duration": 440, "velocity": 112}, {"time": 163460, "pitch": 38, "duration": 110, "velocity": 112}, {"time": 163700, "pitch": 53, "duration": 50, "velocity": 96}, {"time": 163920, "pitch": 40, "duration": 1080, "velocity": 103}, {"time": 163920, "pitch": 55, "duration": 330, "velocity": 112}, {"time": 163930, "pitch": 60, "duration": 450, "velocity": 116}, {"time": 163930, "pitch": 67, "duration": 500, "velocity": 116}, {"time": 164300, "pitch": 52, "duration": 570, "velocity": 127}, {"time": 164410, "pitch": 55, "duration": 120, "velocity": 99}, {"time": 164540, "pitch": 60, "duration": 140, "velocity": 107}, {"time": 164660, "pitch": 67, "duration": 50, "velocity": 107}, {"time": 164770, "pitch": 72, "duration": 230, "velocity": 124}, {"time": 164890, "pitch": 79, "duration": 100, "velocity": 127}, {"time": 165000, "pitch": 52, "duration": 109, "velocity": 116}, {"time": 165119, "pitch": 41, "duration": 530, "velocity": 127}, {"time": 165119, "pitch": 57, "duration": 260, "velocity": 120}, {"time": 165129, "pitch": 60, "duration": 220, "velocity": 124}, {"time": 165349, "pitch": 53, "duration": 110, "velocity": 124}, {"time": 165459, "pitch": 56, "duration": 30, "velocity": 45}, {"time": 165589, "pitch": 56, "duration": 30, "velocity": 123}, {"time": 165589, "pitch": 60, "duration": 160, "velocity": 116}, {"time": 165609, "pitch": 57, "duration": 110, "velocity": 127}, {"time": 165709, "pitch": 55, "duration": 80, "velocity": 112}, {"time": 165839, "pitch": 43, "duration": 1040, "velocity": 124}, {"time": 165839, "pitch": 56, "duration": 30, "velocity": 127}, {"time": 165839, "pitch": 60, "duration": 490, "velocity": 120}, {"time": 165859, "pitch": 57, "duration": 340, "velocity": 127}, {"time": 166209, "pitch": 55, "duration": 130, "velocity": 107}, {"time": 166329, "pitch": 53, "duration": 60, "velocity": 112}, {"time": 166449, "pitch": 56, "duration": 30, "velocity": 123}, {"time": 166449, "pitch": 60, "duration": 480, "velocity": 116}, {"time": 166469, "pitch": 57, "duration": 330, "velocity": 124}, {"time": 166589, "pitch": 31, "duration": 250, "velocity": 75}, {"time": 166689, "pitch": 55, "duration": 180, "velocity": 112}, {"time": 166849, "pitch": 53, "duration": 90, "velocity": 116}, {"time": 167039, "pitch": 36, "duration": 480, "velocity": 78}, {"time": 167039, "pitch": 48, "duration": 400, "velocity": 90}, {"time": 167039, "pitch": 51, "duration": 50, "velocity": 105}, {"time": 167059, "pitch": 52, "duration": 470, "velocity": 93}, {"time": 167069, "pitch": 50, "duration": 40, "velocity": 38}, {"time": 167269, "pitch": 60, "duration": 280, "velocity": 124}, {"time": 167519, "pitch": 48, "duration": 40, "velocity": 112}, {"time": 167889, "pitch": 62, "duration": 60, "velocity": 87}, {"time": 167889, "pitch": 67, "duration": 40, "velocity": 73}, {"time": 168009, "pitch": 45, "duration": 780, "velocity": 84}, {"time": 168009, "pitch": 55, "duration": 610, "velocity": 93}, {"time": 168009, "pitch": 62, "duration": 150, "velocity": 127}, {"time": 168009, "pitch": 67, "duration": 170, "velocity": 127}, {"time": 168149, "pitch": 63, "duration": 70, "velocity": 87}, {"time": 168209, "pitch": 62, "duration": 70, "velocity": 78}, {"time": 168269, "pitch": 60, "duration": 50, "velocity": 81}, {"time": 168369, "pitch": 62, "duration": 220, "velocity": 124}, {"time": 168369, "pitch": 67, "duration": 210, "velocity": 124}, {"time": 168609, "pitch": 60, "duration": 170, "velocity": 116}, {"time": 168609, "pitch": 67, "duration": 220, "velocity": 116}, {"time": 168719, "pitch": 55, "duration": 590, "velocity": 84}, {"time": 168839, "pitch": 58, "duration": 140, "velocity": 80}, {"time": 168949, "pitch": 43, "duration": 770, "velocity": 112}, {"time": 168949, "pitch": 59, "duration": 80, "velocity": 78}, {"time": 169069, "pitch": 59, "duration": 170, "velocity": 127}, {"time": 169069, "pitch": 67, "duration": 170, "velocity": 127}, {"time": 169299, "pitch": 67, "duration": 170, "velocity": 112}, {"time": 169309, "pitch": 59, "duration": 160, "velocity": 112}, {"time": 169429, "pitch": 55, "duration": 120, "velocity": 107}, {"time": 169539, "pitch": 58, "duration": 220, "velocity": 127}, {"time": 169549, "pitch": 66, "duration": 180, "velocity": 127}, {"time": 169669, "pitch": 55, "duration": 80, "velocity": 96}, {"time": 169779, "pitch": 57, "duration": 220, "velocity": 116}, {"time": 169779, "pitch": 65, "duration": 390, "velocity": 120}, {"time": 169889, "pitch": 53, "duration": 620, "velocity": 116}, {"time": 170029, "pitch": 57, "duration": 180, "velocity": 63}, {"time": 170149, "pitch": 60, "duration": 90, "velocity": 93}, {"time": 170259, "pitch": 57, "duration": 150, "velocity": 116}, {"time": 170269, "pitch": 60, "duration": 140, "velocity": 99}, {"time": 170269, "pitch": 65, "duration": 150, "velocity": 120}, {"time": 170379, "pitch": 41, "duration": 290, "velocity": 84}, {"time": 170509, "pitch": 56, "duration": 30, "velocity": 118}, {"time": 170509, "pitch": 60, "duration": 270, "velocity": 112}, {"time": 170539, "pitch": 57, "duration": 110, "velocity": 112}, {"time": 170629, "pitch": 55, "duration": 110, "velocity": 103}, {"time": 170739, "pitch": 53, "duration": 60, "velocity": 103}, {"time": 170849, "pitch": 36, "duration": 490, "velocity": 107}, {"time": 170859, "pitch": 48, "duration": 330, "velocity": 116}, {"time": 170859, "pitch": 52, "duration": 430, "velocity": 120}, {"time": 170979, "pitch": 60, "duration": 380, "velocity": 127}, {"time": 171349, "pitch": 48, "duration": 30, "velocity": 116}, {"time": 171829, "pitch": 60, "duration": 130, "velocity": 99}, {"time": 171829, "pitch": 67, "duration": 170, "velocity": 99}, {"time": 171839, "pitch": 45, "duration": 780, "velocity": 84}, {"time": 171839, "pitch": 55, "duration": 120, "velocity": 103}, {"time": 171839, "pitch": 64, "duration": 160, "velocity": 99}, {"time": 172069, "pitch": 55, "duration": 910, "velocity": 96}, {"time": 172309, "pitch": 75, "duration": 40, "velocity": 127}, {"time": 172309, "pitch": 79, "duration": 180, "velocity": 127}, {"time": 172339, "pitch": 76, "duration": 120, "velocity": 116}, {"time": 172429, "pitch": 74, "duration": 120, "velocity": 103}, {"time": 172539, "pitch": 72, "duration": 50, "velocity": 81}, {"time": 172659, "pitch": 69, "duration": 210, "velocity": 120}, {"time": 172659, "pitch": 72, "duration": 210, "velocity": 107}, {"time": 172669, "pitch": 70, "duration": 20, "velocity": 101}, {"time": 172689, "pitch": 68, "duration": 40, "velocity": 30}, {"time": 172779, "pitch": 43, "duration": 500, "velocity": 127}, {"time": 172899, "pitch": 67, "duration": 220, "velocity": 116}, {"time": 172909, "pitch": 72, "duration": 210, "velocity": 78}, {"time": 173179, "pitch": 72, "duration": 40, "velocity": 26}, {"time": 173299, "pitch": 55, "duration": 60, "velocity": 87}, {"time": 173739, "pitch": 41, "duration": 740, "velocity": 84}, {"time": 173739, "pitch": 53, "duration": 690, "velocity": 78}, {"time": 173859, "pitch": 67, "duration": 30, "velocity": 75}, {"time": 173859, "pitch": 72, "duration": 40, "velocity": 73}, {"time": 173989, "pitch": 67, "duration": 20, "velocity": 93}, {"time": 173989, "pitch": 72, "duration": 20, "velocity": 78}, {"time": 174089, "pitch": 67, "duration": 20, "velocity": 103}, {"time": 174099, "pitch": 72, "duration": 20, "velocity": 81}, {"time": 174209, "pitch": 67, "duration": 40, "velocity": 124}, {"time": 174209, "pitch": 72, "duration": 30, "velocity": 116}, {"time": 174329, "pitch": 72, "duration": 60, "velocity": 120}, {"time": 174339, "pitch": 67, "duration": 60, "velocity": 127}, {"time": 174449, "pitch": 72, "duration": 50, "velocity": 107}, {"time": 174459, "pitch": 67, "duration": 50, "velocity": 124}, {"time": 174569, "pitch": 67, "duration": 150, "velocity": 127}, {"time": 174579, "pitch": 72, "duration": 150, "velocity": 124}, {"time": 174709, "pitch": 48, "duration": 400, "velocity": 107}, {"time": 174829, "pitch": 67, "duration": 110, "velocity": 116}, {"time": 174829, "pitch": 72, "duration": 90, "velocity": 93}, {"time": 174829, "pitch": 74, "duration": 90, "velocity": 96}, {"time": 174949, "pitch": 36, "duration": 240, "velocity": 60}, {"time": 175069, "pitch": 67, "duration": 140, "velocity": 93}, {"time": 175069, "pitch": 72, "duration": 200, "velocity": 87}, {"time": 175199, "pitch": 48, "duration": 20, "velocity": 93}, {"time": 175319, "pitch": 67, "duration": 30, "velocity": 75}, {"time": 175429, "pitch": 68, "duration": 40, "velocity": 109}, {"time": 175449, "pitch": 71, "duration": 50, "velocity": 75}, {"time": 175449, "pitch": 72, "duration": 90, "velocity": 65}, {"time": 175469, "pitch": 69, "duration": 70, "velocity": 87}, {"time": 175559, "pitch": 67, "duration": 70, "velocity": 116}, {"time": 175569, "pitch": 72, "duration": 80, "velocity": 103}, {"time": 175669, "pitch": 45, "duration": 750, "velocity": 78}, {"time": 175669, "pitch": 55, "duration": 280, "velocity": 93}, {"time": 175679, "pitch": 67, "duration": 180, "velocity": 112}, {"time": 175679, "pitch": 72, "duration": 190, "velocity": 68}, {"time": 175909, "pitch": 64, "duration": 90, "velocity": 103}, {"time": 175919, "pitch": 72, "duration": 160, "velocity": 90}, {"time": 176059, "pitch": 55, "duration": 40, "velocity": 70}, {"time": 176419, "pitch": 55, "duration": 560, "velocity": 63}, {"time": 176639, "pitch": 43, "duration": 700, "velocity": 112}, {"time": 176999, "pitch": 57, "duration": 210, "velocity": 127}, {"time": 176999, "pitch": 62, "duration": 310, "velocity": 127}, {"time": 177199, "pitch": 58, "duration": 110, "velocity": 58}, {"time": 177279, "pitch": 57, "duration": 80, "velocity": 78}, {"time": 177339, "pitch": 55, "duration": 110, "velocity": 112}, {"time": 177459, "pitch": 56, "duration": 40, "velocity": 123}, {"time": 177469, "pitch": 60, "duration": 390, "velocity": 116}, {"time": 177479, "pitch": 57, "duration": 250, "velocity": 127}, {"time": 177579, "pitch": 41, "duration": 820, "velocity": 87}, {"time": 177579, "pitch": 48, "duration": 330, "velocity": 68}, {"time": 177709, "pitch": 55, "duration": 100, "velocity": 81}, {"time": 177829, "pitch": 53, "duration": 50, "velocity": 81}, {"time": 177939, "pitch": 53, "duration": 60, "velocity": 107}, {"time": 177939, "pitch": 60, "duration": 70, "velocity": 116}, {"time": 178069, "pitch": 53, "duration": 150, "velocity": 127}, {"time": 178069, "pitch": 60, "duration": 170, "velocity": 127}, {"time": 178199, "pitch": 48, "duration": 50, "velocity": 93}, {"time": 178299, "pitch": 60, "duration": 180, "velocity": 96}, {"time": 178309, "pitch": 53, "duration": 90, "velocity": 103}, {"time": 178429, "pitch": 51, "duration": 100, "velocity": 109}, {"time": 178529, "pitch": 36, "duration": 490, "velocity": 96}, {"time": 178529, "pitch": 48, "duration": 190, "velocity": 93}, {"time": 178539, "pitch": 52, "duration": 350, "velocity": 99}, {"time": 178659, "pitch": 60, "duration": 280, "velocity": 124}, {"time": 178669, "pitch": 55, "duration": 250, "velocity": 116}, {"time": 179029, "pitch": 48, "duration": 20, "velocity": 75}, {"time": 179519, "pitch": 33, "duration": 870, "velocity": 84}, {"time": 179519, "pitch": 45, "duration": 860, "velocity": 81}, {"time": 179519, "pitch": 76, "duration": 160, "velocity": 107}, {"time": 179519, "pitch": 79, "duration": 160, "velocity": 120}, {"time": 179639, "pitch": 72, "duration": 130, "velocity": 87}, {"time": 179759, "pitch": 77, "duration": 50, "velocity": 120}, {"time": 179759, "pitch": 81, "duration": 80, "velocity": 116}, {"time": 179879, "pitch": 75, "duration": 40, "velocity": 123}, {"time": 179889, "pitch": 78, "duration": 20, "velocity": 109}, {"time": 179979, "pitch": 75, "duration": 20, "velocity": 105}, {"time": 179999, "pitch": 79, "duration": 70, "velocity": 103}, {"time": 180009, "pitch": 76, "duration": 90, "velocity": 93}, {"time": 180019, "pitch": 81, "duration": 30, "velocity": 25}, {"time": 180079, "pitch": 72, "duration": 50, "velocity": 103}, {"time": 180129, "pitch": 67, "duration": 60, "velocity": 116}, {"time": 180259, "pitch": 65, "duration": 110, "velocity": 124}, {"time": 180259, "pitch": 72, "duration": 150, "velocity": 124}, {"time": 180379, "pitch": 63, "duration": 70, "velocity": 118}, {"time": 180489, "pitch": 64, "duration": 150, "velocity": 107}, {"time": 180499, "pitch": 31, "duration": 1642, "velocity": 116}, {"time": 180499, "pitch": 43, "duration": 430, "velocity": 116}, {"time": 180499, "pitch": 72, "duration": 120, "velocity": 93}, {"time": 180719, "pitch": 71, "duration": 170, "velocity": 99}, {"time": 180729, "pitch": 62, "duration": 160, "velocity": 116}, {"time": 180959, "pitch": 62, "duration": 70, "velocity": 93}, {"time": 180959, "pitch": 71, "duration": 80, "velocity": 84}, {"time": 181099, "pitch": 70, "duration": 110, "velocity": 101}, {"time": 181109, "pitch": 71, "duration": 30, "velocity": 75}, {"time": 181119, "pitch": 61, "duration": 110, "velocity": 113}, {"time": 181339, "pitch": 60, "duration": 170, "velocity": 96}, {"time": 181339, "pitch": 69, "duration": 300, "velocity": 103}, {"time": 181579, "pitch": 60, "duration": 240, "velocity": 103}, {"time": 181709, "pitch": 65, "duration": 160, "velocity": 75}, {"time": 181829, "pitch": 69, "duration": 70, "velocity": 84}, {"time": 181934, "pitch": 68, "duration": 54, "velocity": 118}, {"time": 181934, "pitch": 69, "duration": 161, "velocity": 93}, {"time": 182072, "pitch": 67, "duration": 161, "velocity": 103}, {"time": 182210, "pitch": 65, "duration": 61, "velocity": 68}, {"time": 182309, "pitch": 36, "duration": 750, "velocity": 58}, {"time": 182325, "pitch": 38, "duration": 23, "velocity": 60}, {"time": 182348, "pitch": 43, "duration": 76, "velocity": 81}, {"time": 182394, "pitch": 48, "duration": 543, "velocity": 84}, {"time": 182417, "pitch": 63, "duration": 22, "velocity": 118}, {"time": 182424, "pitch": 67, "duration": 605, "velocity": 99}, {"time": 182439, "pitch": 64, "duration": 115, "velocity": 112}, {"time": 182531, "pitch": 62, "duration": 130, "velocity": 65}, {"time": 182646, "pitch": 60, "duration": 360, "velocity": 50}, {"time": 1440, "pitch": 31, "duration": 480, "velocity": 110}, {"time": 1920, "pitch": 36, "duration": 820, "velocity": 110}, {"time": 2760, "pitch": 36, "duration": 100, "velocity": 100}, {"time": 2880, "pitch": 33, "duration": 60, "velocity": 110}, {"time": 3120, "pitch": 33, "duration": 580, "velocity": 110}, {"time": 3720, "pitch": 33, "duration": 100, "velocity": 100}, {"time": 3840, "pitch": 31, "duration": 820, "velocity": 110}, {"time": 4680, "pitch": 31, "duration": 100, "velocity": 100}, {"time": 4800, "pitch": 29, "duration": 60, "velocity": 110}, {"time": 5040, "pitch": 29, "duration": 580, "velocity": 110}, {"time": 5640, "pitch": 29, "duration": 100, "velocity": 100}, {"time": 5760, "pitch": 36, "duration": 820, "velocity": 110}, {"time": 6600, "pitch": 36, "duration": 100, "velocity": 100}, {"time": 6720, "pitch": 33, "duration": 60, "velocity": 110}, {"time": 6960, "pitch": 33, "duration": 580, "velocity": 110}, {"time": 7560, "pitch": 33, "duration": 100, "velocity": 100}, {"time": 7680, "pitch": 31, "duration": 820, "velocity": 110}, {"time": 8520, "pitch": 31, "duration": 100, "velocity": 100}, {"time": 8640, "pitch": 29, "duration": 60, "velocity": 110}, {"time": 8880, "pitch": 29, "duration": 580, "velocity": 110}, {"time": 9480, "pitch": 29, "duration": 100, "velocity": 100}, {"time": 9600, "pitch": 36, "duration": 819, "velocity": 110}, {"time": 10439, "pitch": 31, "duration": 100, "velocity": 100}, {"time": 10559, "pitch": 36, "duration": 60, "velocity": 110}, {"time": 10799, "pitch": 36, "duration": 580, "velocity": 110}, {"time": 11399, "pitch": 36, "duration": 100, "velocity": 100}, {"time": 11519, "pitch": 29, "duration": 820, "velocity": 110}, {"time": 12359, "pitch": 36, "duration": 100, "velocity": 100}, {"time": 12479, "pitch": 41, "duration": 60, "velocity": 110}, {"time": 12719, "pitch": 41, "duration": 460, "velocity": 110}, {"time": 13199, "pitch": 29, "duration": 100, "velocity": 110}, {"time": 13319, "pitch": 31, "duration": 100, "velocity": 100}, {"time": 13439, "pitch": 33, "duration": 820, "velocity": 110}, {"time": 14279, "pitch": 28, "duration": 100, "velocity": 100}, {"time": 14399, "pitch": 33, "duration": 60, "velocity": 110}, {"time": 14639, "pitch": 33, "duration": 460, "velocity": 110}, {"time": 15119, "pitch": 28, "duration": 100, "velocity": 105}, {"time": 15239, "pitch": 33, "duration": 100, "velocity": 100}, {"time": 15359, "pitch": 31, "duration": 60, "velocity": 110}, {"time": 15599, "pitch": 31, "duration": 480, "velocity": 110}, {"time": 16079, "pitch": 36, "duration": 960, "velocity": 110}, {"time": 17039, "pitch": 31, "duration": 100, "velocity": 110}, {"time": 17159, "pitch": 33, "duration": 100, "velocity": 105}, {"time": 17279, "pitch": 36, "duration": 820, "velocity": 110}, {"time": 18119, "pitch": 31, "duration": 100, "velocity": 100}, {"time": 18239, "pitch": 36, "duration": 60, "velocity": 110}, {"time": 18479, "pitch": 36, "duration": 580, "velocity": 110}, {"time": 19079, "pitch": 36, "duration": 100, "velocity": 100}, {"time": 19199, "pitch": 29, "duration": 820, "velocity": 110}, {"time": 20039, "pitch": 36, "duration": 100, "velocity": 100}, {"time": 20159, "pitch": 41, "duration": 60, "velocity": 110}, {"time": 20399, "pitch": 41, "duration": 340, "velocity": 110}, {"time": 20759, "pitch": 29, "duration": 100, "velocity": 105}, {"time": 20879, "pitch": 29, "duration": 100, "velocity": 110}, {"time": 20999, "pitch": 31, "duration": 100, "velocity": 100}, {"time": 21119, "pitch": 33, "duration": 820, "velocity": 110}, {"time": 21959, "pitch": 28, "duration": 100, "velocity": 100}, {"time": 22079, "pitch": 33, "duration": 120, "velocity": 110}, {"time": 22199, "pitch": 28, "duration": 120, "velocity": 105}, {"time": 22319, "pitch": 33, "duration": 340, "velocity": 110}, {"time": 22679, "pitch": 28, "duration": 100, "velocity": 105}, {"time": 22799, "pitch": 33, "duration": 220, "velocity": 110}, {"time": 23039, "pitch": 31, "duration": 60, "velocity": 110}, {"time": 23279, "pitch": 31, "duration": 480, "velocity": 110}, {"time": 23759, "pitch": 36, "duration": 700, "velocity": 110}, {"time": 24479, "pitch": 31, "duration": 100, "velocity": 110}, {"time": 24599, "pitch": 33, "duration": 100, "velocity": 105}, {"time": 24719, "pitch": 36, "duration": 100, "velocity": 110}, {"time": 24839, "pitch": 33, "duration": 100, "velocity": 105}, {"time": 24959, "pitch": 29, "duration": 820, "velocity": 110}, {"time": 25799, "pitch": 36, "duration": 100, "velocity": 100}, {"time": 25919, "pitch": 41, "duration": 120, "velocity": 110}, {"time": 26039, "pitch": 36, "duration": 120, "velocity": 105}, {"time": 26159, "pitch": 41, "duration": 700, "velocity": 110}, {"time": 26879, "pitch": 36, "duration": 820, "velocity": 110}, {"time": 27719, "pitch": 31, "duration": 100, "velocity": 100}, {"time": 27839, "pitch": 36, "duration": 60, "velocity": 110}, {"time": 28079, "pitch": 36, "duration": 460, "velocity": 110}, {"time": 28559, "pitch": 28, "duration": 100, "velocity": 110}, {"time": 28679, "pitch": 28, "duration": 100, "velocity": 100}, {"time": 28799, "pitch": 29, "duration": 700, "velocity": 110}, {"time": 29519, "pitch": 36, "duration": 220, "velocity": 100}, {"time": 29759, "pitch": 41, "duration": 220, "velocity": 110}, {"time": 29999, "pitch": 40, "duration": 220, "velocity": 105}, {"time": 30239, "pitch": 38, "duration": 220, "velocity": 110}, {"time": 30479, "pitch": 36, "duration": 220, "velocity": 105}, {"time": 30719, "pitch": 33, "duration": 220, "velocity": 110}, {"time": 30959, "pitch": 33, "duration": 220, "velocity": 105}, {"time": 31199, "pitch": 33, "duration": 220, "velocity": 110}, {"time": 31439, "pitch": 33, "duration": 220, "velocity": 105}, {"time": 31679, "pitch": 31, "duration": 360, "velocity": 105}, {"time": 32639, "pitch": 36, "duration": 820, "velocity": 110}, {"time": 33479, "pitch": 36, "duration": 100, "velocity": 100}, {"time": 33599, "pitch": 33, "duration": 60, "velocity": 110}, {"time": 33839, "pitch": 33, "duration": 579, "velocity": 110}, {"time": 34438, "pitch": 33, "duration": 100, "velocity": 100}, {"time": 34558, "pitch": 31, "duration": 820, "velocity": 110}, {"time": 35398, "pitch": 31, "duration": 100, "velocity": 100}, {"time": 35518, "pitch": 29, "duration": 60, "velocity": 110}, {"time": 35758, "pitch": 29, "duration": 580, "velocity": 110}, {"time": 36358, "pitch": 29, "duration": 100, "velocity": 100}, {"time": 36478, "pitch": 36, "duration": 820, "velocity": 110}, {"time": 37318, "pitch": 36, "duration": 100, "velocity": 100}, {"time": 37438, "pitch": 33, "duration": 60, "velocity": 110}, {"time": 37678, "pitch": 33, "duration": 580, "velocity": 110}, {"time": 38278, "pitch": 33, "duration": 100, "velocity": 100}, {"time": 38398, "pitch": 31, "duration": 820, "velocity": 110}, {"time": 39238, "pitch": 31, "duration": 100, "velocity": 100}, {"time": 39358, "pitch": 29, "duration": 60, "velocity": 110}, {"time": 39598, "pitch": 29, "duration": 580, "velocity": 110}, {"time": 40198, "pitch": 29, "duration": 100, "velocity": 100}, {"time": 40318, "pitch": 36, "duration": 820, "velocity": 110}, {"time": 41158, "pitch": 31, "duration": 100, "velocity": 100}, {"time": 41278, "pitch": 36, "duration": 60, "velocity": 110}, {"time": 41518, "pitch": 36, "duration": 580, "velocity": 110}, {"time": 42118, "pitch": 36, "duration": 100, "velocity": 100}, {"time": 42238, "pitch": 29, "duration": 820, "velocity": 110}, {"time": 43078, "pitch": 36, "duration": 100, "velocity": 100}, {"time": 43198, "pitch": 41, "duration": 60, "velocity": 110}, {"time": 43438, "pitch": 41, "duration": 460, "velocity": 110}, {"time": 43918, "pitch": 29, "duration": 100, "velocity": 110}, {"time": 44038, "pitch": 31, "duration": 100, "velocity": 100}, {"time": 44158, "pitch": 33, "duration": 820, "velocity": 110}, {"time": 44998, "pitch": 28, "duration": 100, "velocity": 100}, {"time": 45118, "pitch": 33, "duration": 60, "velocity": 110}, {"time": 45358, "pitch": 33, "duration": 460, "velocity": 110}, {"time": 45838, "pitch": 28, "duration": 100, "velocity": 105}, {"time": 45958, "pitch": 33, "duration": 100, "velocity": 100}, {"time": 46078, "pitch": 31, "duration": 60, "velocity": 110}, {"time": 46318, "pitch": 31, "duration": 480, "velocity": 110}, {"time": 46798, "pitch": 36, "duration": 700, "velocity": 110}, {"time": 47518, "pitch": 31, "duration": 100, "velocity": 110}, {"time": 47638, "pitch": 33, "duration": 100, "velocity": 105}, {"time": 47758, "pitch": 36, "duration": 100, "velocity": 110}, {"time": 47878, "pitch": 33, "duration": 100, "velocity": 105}, {"time": 47998, "pitch": 36, "duration": 820, "velocity": 110}, {"time": 48838, "pitch": 31, "duration": 100, "velocity": 100}, {"time": 48958, "pitch": 36, "duration": 60, "velocity": 110}, {"time": 49198, "pitch": 36, "duration": 580, "velocity": 110}, {"time": 49798, "pitch": 36, "duration": 100, "velocity": 100}, {"time": 49918, "pitch": 29, "duration": 820, "velocity": 110}, {"time": 50758, "pitch": 36, "duration": 100, "velocity": 100}, {"time": 50878, "pitch": 41, "duration": 100, "velocity": 110}, {"time": 50998, "pitch": 41, "duration": 100, "velocity": 110}, {"time": 51118, "pitch": 40, "duration": 220, "velocity": 105}, {"time": 51358, "pitch": 38, "duration": 220, "velocity": 110}, {"time": 51598, "pitch": 36, "duration": 220, "velocity": 105}, {"time": 51838, "pitch": 33, "duration": 820, "velocity": 110}, {"time": 52678, "pitch": 36, "duration": 100, "velocity": 100}, {"time": 52798, "pitch": 36, "duration": 220, "velocity": 110}, {"time": 53038, "pitch": 35, "duration": 220, "velocity": 105}, {"time": 53278, "pitch": 33, "duration": 460, "velocity": 110}, {"time": 53758, "pitch": 31, "duration": 220, "velocity": 110}, {"time": 53998, "pitch": 38, "duration": 220, "velocity": 105}, {"time": 54238, "pitch": 43, "duration": 220, "velocity": 110}, {"time": 54478, "pitch": 36, "duration": 700, "velocity": 110}, {"time": 55198, "pitch": 31, "duration": 240, "velocity": 110}, {"time": 55438, "pitch": 28, "duration": 240, "velocity": 105}, {"time": 55678, "pitch": 29, "duration": 820, "velocity": 110}, {"time": 56518, "pitch": 36, "duration": 100, "velocity": 100}, {"time": 56638, "pitch": 41, "duration": 60, "velocity": 110}, {"time": 56878, "pitch": 41, "duration": 680, "velocity": 110}, {"time": 57598, "pitch": 36, "duration": 820, "velocity": 110}, {"time": 58438, "pitch": 31, "duration": 100, "velocity": 100}, {"time": 58558, "pitch": 36, "duration": 59, "velocity": 110}, {"time": 58797, "pitch": 36, "duration": 460, "velocity": 110}, {"time": 59277, "pitch": 36, "duration": 100, "velocity": 110}, {"time": 59397, "pitch": 31, "duration": 100, "velocity": 105}, {"time": 59517, "pitch": 29, "duration": 800, "velocity": 110}, {"time": 60357, "pitch": 36, "duration": 100, "velocity": 100}, {"time": 60477, "pitch": 41, "duration": 220, "velocity": 110}, {"time": 60717, "pitch": 40, "duration": 220, "velocity": 105}, {"time": 60957, "pitch": 38, "duration": 220, "velocity": 110}, {"time": 61197, "pitch": 36, "duration": 220, "velocity": 105}, {"time": 61437, "pitch": 33, "duration": 220, "velocity": 110}, {"time": 61677, "pitch": 33, "duration": 220, "velocity": 105}, {"time": 61917, "pitch": 33, "duration": 220, "velocity": 110}, {"time": 62157, "pitch": 33, "duration": 220, "velocity": 105}, {"time": 62397, "pitch": 31, "duration": 360, "velocity": 105}, {"time": 63357, "pitch": 36, "duration": 820, "velocity": 110}, {"time": 64197, "pitch": 31, "duration": 100, "velocity": 100}, {"time": 64317, "pitch": 29, "duration": 60, "velocity": 110}, {"time": 64557, "pitch": 29, "duration": 580, "velocity": 110}, {"time": 65157, "pitch": 29, "duration": 100, "velocity": 105}, {"time": 65277, "pitch": 31, "duration": 820, "velocity": 110}, {"time": 66117, "pitch": 38, "duration": 100, "velocity": 100}, {"time": 66237, "pitch": 43, "duration": 120, "velocity": 110}, {"time": 66357, "pitch": 38, "duration": 120, "velocity": 105}, {"time": 66477, "pitch": 43, "duration": 340, "velocity": 110}, {"time": 66837, "pitch": 38, "duration": 100, "velocity": 110}, {"time": 66957, "pitch": 31, "duration": 240, "velocity": 105}, {"time": 67197, "pitch": 33, "duration": 820, "velocity": 110}, {"time": 68037, "pitch": 28, "duration": 100, "velocity": 100}, {"time": 68157, "pitch": 29, "duration": 60, "velocity": 110}, {"time": 68397, "pitch": 29, "duration": 460, "velocity": 110}, {"time": 68877, "pitch": 29, "duration": 100, "velocity": 105}, {"time": 68997, "pitch": 33, "duration": 100, "velocity": 100}, {"time": 69117, "pitch": 31, "duration": 820, "velocity": 110}, {"time": 69957, "pitch": 38, "duration": 100, "velocity": 100}, {"time": 70077, "pitch": 43, "duration": 120, "velocity": 110}, {"time": 70197, "pitch": 38, "duration": 120, "velocity": 105}, {"time": 70317, "pitch": 43, "duration": 220, "velocity": 110}, {"time": 70557, "pitch": 43, "duration": 460, "velocity": 110}, {"time": 71037, "pitch": 38, "duration": 220, "velocity": 110}, {"time": 71277, "pitch": 33, "duration": 220, "velocity": 105}, {"time": 71517, "pitch": 38, "duration": 220, "velocity": 110}, {"time": 71757, "pitch": 40, "duration": 460, "velocity": 110}, {"time": 72237, "pitch": 36, "duration": 220, "velocity": 105}, {"time": 72477, "pitch": 40, "duration": 220, "velocity": 110}, {"time": 72717, "pitch": 43, "duration": 220, "velocity": 105}, {"time": 72957, "pitch": 41, "duration": 220, "velocity": 110}, {"time": 73197, "pitch": 40, "duration": 220, "velocity": 105}, {"time": 73437, "pitch": 36, "duration": 220, "velocity": 110}, {"time": 73677, "pitch": 43, "duration": 460, "velocity": 110}, {"time": 74157, "pitch": 38, "duration": 220, "velocity": 105}, {"time": 74397, "pitch": 43, "duration": 400, "velocity": 110}, {"time": 74877, "pitch": 36, "duration": 824, "velocity": 110}, {"time": 75722, "pitch": 36, "duration": 101, "velocity": 100}, {"time": 75843, "pitch": 33, "duration": 60, "velocity": 110}, {"time": 76083, "pitch": 33, "duration": 580, "velocity": 110}, {"time": 76683, "pitch": 33, "duration": 100, "velocity": 100}, {"time": 76803, "pitch": 31, "duration": 820, "velocity": 110}, {"time": 77643, "pitch": 31, "duration": 100, "velocity": 100}, {"time": 77763, "pitch": 29, "duration": 60, "velocity": 110}, {"time": 78003, "pitch": 29, "duration": 580, "velocity": 110}, {"time": 78603, "pitch": 29, "duration": 100, "velocity": 100}, {"time": 78723, "pitch": 36, "duration": 820, "velocity": 110}, {"time": 79563, "pitch": 36, "duration": 100, "velocity": 100}, {"time": 79683, "pitch": 33, "duration": 60, "velocity": 110}, {"time": 79923, "pitch": 33, "duration": 580, "velocity": 110}, {"time": 80523, "pitch": 33, "duration": 100, "velocity": 100}, {"time": 80643, "pitch": 31, "duration": 820, "velocity": 110}, {"time": 81483, "pitch": 31, "duration": 100, "velocity": 100}, {"time": 81603, "pitch": 29, "duration": 220, "velocity": 110}, {"time": 81843, "pitch": 36, "duration": 220, "velocity": 110}, {"time": 82083, "pitch": 41, "duration": 100, "velocity": 110}, {"time": 82203, "pitch": 40, "duration": 100, "velocity": 105}, {"time": 82323, "pitch": 38, "duration": 220, "velocity": 110}, {"time": 82563, "pitch": 36, "duration": 820, "velocity": 110}, {"time": 83403, "pitch": 31, "duration": 100, "velocity": 100}, {"time": 83523, "pitch": 36, "duration": 60, "velocity": 110}, {"time": 83763, "pitch": 36, "duration": 580, "velocity": 110}, {"time": 84363, "pitch": 36, "duration": 100, "velocity": 100}, {"time": 84483, "pitch": 29, "duration": 820, "velocity": 110}, {"time": 85323, "pitch": 36, "duration": 100, "velocity": 100}, {"time": 85443, "pitch": 41, "duration": 60, "velocity": 110}, {"time": 85683, "pitch": 41, "duration": 340, "velocity": 110}, {"time": 86043, "pitch": 36, "duration": 100, "velocity": 110}, {"time": 86163, "pitch": 29, "duration": 220, "velocity": 100}, {"time": 86403, "pitch": 33, "duration": 820, "velocity": 110}, {"time": 87243, "pitch": 40, "duration": 100, "velocity": 100}, {"time": 87363, "pitch": 45, "duration": 220, "velocity": 110}, {"time": 87603, "pitch": 40, "duration": 220, "velocity": 105}, {"time": 87843, "pitch": 45, "duration": 460, "velocity": 110}, {"time": 88323, "pitch": 31, "duration": 220, "velocity": 110}, {"time": 88563, "pitch": 38, "duration": 220, "velocity": 105}, {"time": 88803, "pitch": 43, "duration": 220, "velocity": 110}, {"time": 89043, "pitch": 36, "duration": 460, "velocity": 110}, {"time": 89523, "pitch": 31, "duration": 100, "velocity": 110}, {"time": 89643, "pitch": 33, "duration": 100, "velocity": 105}, {"time": 89763, "pitch": 36, "duration": 100, "velocity": 110}, {"time": 89883, "pitch": 36, "duration": 100, "velocity": 105}, {"time": 90003, "pitch": 33, "duration": 220, "velocity": 110}, {"time": 90243, "pitch": 36, "duration": 820, "velocity": 110}, {"time": 91083, "pitch": 31, "duration": 100, "velocity": 100}, {"time": 91203, "pitch": 36, "duration": 60, "velocity": 110}, {"time": 91443, "pitch": 36, "duration": 580, "velocity": 110}, {"time": 92043, "pitch": 36, "duration": 100, "velocity": 100}, {"time": 92163, "pitch": 29, "duration": 819, "velocity": 110}, {"time": 93002, "pitch": 36, "duration": 100, "velocity": 100}, {"time": 93122, "pitch": 41, "duration": 60, "velocity": 110}, {"time": 93362, "pitch": 41, "duration": 340, "velocity": 110}, {"time": 93722, "pitch": 29, "duration": 100, "velocity": 105}, {"time": 93842, "pitch": 29, "duration": 100, "velocity": 110}, {"time": 93962, "pitch": 31, "duration": 100, "velocity": 100}, {"time": 94082, "pitch": 33, "duration": 820, "velocity": 110}, {"time": 94922, "pitch": 40, "duration": 100, "velocity": 100}, {"time": 95042, "pitch": 36, "duration": 220, "velocity": 110}, {"time": 95282, "pitch": 35, "duration": 220, "velocity": 105}, {"time": 95522, "pitch": 33, "duration": 460, "velocity": 110}, {"time": 96002, "pitch": 31, "duration": 220, "velocity": 110}, {"time": 96242, "pitch": 38, "duration": 220, "velocity": 105}, {"time": 96482, "pitch": 43, "duration": 220, "velocity": 110}, {"time": 96722, "pitch": 36, "duration": 700, "velocity": 110}, {"time": 97442, "pitch": 31, "duration": 100, "velocity": 110}, {"time": 97562, "pitch": 33, "duration": 100, "velocity": 105}, {"time": 97682, "pitch": 36, "duration": 100, "velocity": 110}, {"time": 97802, "pitch": 33, "duration": 100, "velocity": 105}, {"time": 97922, "pitch": 29, "duration": 820, "velocity": 110}, {"time": 98762, "pitch": 36, "duration": 100, "velocity": 100}, {"time": 98882, "pitch": 41, "duration": 120, "velocity": 110}, {"time": 99002, "pitch": 36, "duration": 120, "velocity": 105}, {"time": 99122, "pitch": 41, "duration": 700, "velocity": 110}, {"time": 99842, "pitch": 36, "duration": 820, "velocity": 110}, {"time": 100682, "pitch": 31, "duration": 100, "velocity": 100}, {"time": 100802, "pitch": 36, "duration": 60, "velocity": 110}, {"time": 101042, "pitch": 36, "duration": 220, "velocity": 110}, {"time": 101282, "pitch": 40, "duration": 220, "velocity": 110}, {"time": 101522, "pitch": 43, "duration": 220, "velocity": 110}, {"time": 101762, "pitch": 41, "duration": 700, "velocity": 110}, {"time": 102482, "pitch": 36, "duration": 220, "velocity": 100}, {"time": 102722, "pitch": 41, "duration": 220, "velocity": 110}, {"time": 102962, "pitch": 40, "duration": 220, "velocity": 105}, {"time": 103202, "pitch": 38, "duration": 220, "velocity": 110}, {"time": 103442, "pitch": 36, "duration": 220, "velocity": 105}, {"time": 103682, "pitch": 33, "duration": 220, "velocity": 110}, {"time": 103922, "pitch": 40, "duration": 220, "velocity": 105}, {"time": 104162, "pitch": 45, "duration": 100, "velocity": 110}, {"time": 104282, "pitch": 40, "duration": 120, "velocity": 105}, {"time": 104402, "pitch": 45, "duration": 220, "velocity": 110}, {"time": 104642, "pitch": 43, "duration": 360, "velocity": 105}, {"time": 105602, "pitch": 36, "duration": 820, "velocity": 110}, {"time": 106442, "pitch": 31, "duration": 100, "velocity": 100}, {"time": 106562, "pitch": 29, "duration": 60, "velocity": 110}, {"time": 106802, "pitch": 29, "duration": 460, "velocity": 110}, {"time": 107282, "pitch": 29, "duration": 100, "velocity": 110}, {"time": 107402, "pitch": 33, "duration": 100, "velocity": 105}, {"time": 107522, "pitch": 31, "duration": 820, "velocity": 110}, {"time": 108362, "pitch": 38, "duration": 100, "velocity": 100}, {"time": 108482, "pitch": 43, "duration": 120, "velocity": 110}, {"time": 108602, "pitch": 38, "duration": 120, "velocity": 105}, {"time": 108722, "pitch": 43, "duration": 340, "velocity": 110}, {"time": 109082, "pitch": 38, "duration": 100, "velocity": 110}, {"time": 109202, "pitch": 31, "duration": 240, "velocity": 105}, {"time": 109442, "pitch": 33, "duration": 820, "velocity": 110}, {"time": 110282, "pitch": 28, "duration": 100, "velocity": 100}, {"time": 110402, "pitch": 29, "duration": 60, "velocity": 110}, {"time": 110642, "pitch": 29, "duration": 460, "velocity": 110}, {"time": 111122, "pitch": 29, "duration": 100, "velocity": 105}, {"time": 111242, "pitch": 33, "duration": 100, "velocity": 100}, {"time": 111362, "pitch": 31, "duration": 820, "velocity": 110}, {"time": 112202, "pitch": 38, "duration": 100, "velocity": 100}, {"time": 112322, "pitch": 43, "duration": 120, "velocity": 110}, {"time": 112442, "pitch": 38, "duration": 120, "velocity": 105}, {"time": 112562, "pitch": 43, "duration": 220, "velocity": 110}, {"time": 112802, "pitch": 43, "duration": 460, "velocity": 110}, {"time": 113282, "pitch": 38, "duration": 220, "velocity": 110}, {"time": 113522, "pitch": 33, "duration": 220, "velocity": 105}, {"time": 113762, "pitch": 38, "duration": 220, "velocity": 110}, {"time": 114002, "pitch": 40, "duration": 460, "velocity": 110}, {"time": 114482, "pitch": 36, "duration": 220, "velocity": 105}, {"time": 114722, "pitch": 40, "duration": 220, "velocity": 110}, {"time": 114962, "pitch": 43, "duration": 220, "velocity": 105}, {"time": 115202, "pitch": 41, "duration": 220, "velocity": 110}, {"time": 115442, "pitch": 40, "duration": 220, "velocity": 105}, {"time": 115682, "pitch": 36, "duration": 220, "velocity": 110}, {"time": 115922, "pitch": 43, "duration": 460, "velocity": 110}, {"time": 116402, "pitch": 38, "duration": 220, "velocity": 105}, {"time": 116641, "pitch": 43, "duration": 400, "velocity": 110}, {"time": 117121, "pitch": 36, "duration": 820, "velocity": 110}, {"time": 117961, "pitch": 36, "duration": 100, "velocity": 100}, {"time": 118081, "pitch": 33, "duration": 60, "velocity": 110}, {"time": 118321, "pitch": 33, "duration": 580, "velocity": 110}, {"time": 118921, "pitch": 33, "duration": 100, "velocity": 100}, {"time": 119041, "pitch": 31, "duration": 820, "velocity": 110}, {"time": 119881, "pitch": 31, "duration": 100, "velocity": 100}, {"time": 120001, "pitch": 29, "duration": 60, "velocity": 110}, {"time": 120241, "pitch": 29, "duration": 580, "velocity": 110}, {"time": 120841, "pitch": 29, "duration": 100, "velocity": 100}, {"time": 120961, "pitch": 36, "duration": 820, "velocity": 110}, {"time": 121801, "pitch": 36, "duration": 100, "velocity": 100}, {"time": 121921, "pitch": 33, "duration": 60, "velocity": 110}, {"time": 122161, "pitch": 33, "duration": 580, "velocity": 110}, {"time": 122761, "pitch": 33, "duration": 100, "velocity": 100}, {"time": 122881, "pitch": 31, "duration": 820, "velocity": 110}, {"time": 123721, "pitch": 31, "duration": 100, "velocity": 100}, {"time": 123841, "pitch": 29, "duration": 60, "velocity": 110}, {"time": 124081, "pitch": 29, "duration": 580, "velocity": 110}, {"time": 124681, "pitch": 29, "duration": 100, "velocity": 100}, {"time": 124801, "pitch": 36, "duration": 820, "velocity": 110}, {"time": 125641, "pitch": 36, "duration": 100, "velocity": 100}, {"time": 125761, "pitch": 33, "duration": 60, "velocity": 110}, {"time": 126001, "pitch": 33, "duration": 580, "velocity": 110}, {"time": 126601, "pitch": 33, "duration": 100, "velocity": 100}, {"time": 126721, "pitch": 31, "duration": 820, "velocity": 110}, {"time": 127561, "pitch": 31, "duration": 100, "velocity": 100}, {"time": 127681, "pitch": 29, "duration": 60, "velocity": 110}, {"time": 127921, "pitch": 29, "duration": 580, "velocity": 110}, {"time": 128521, "pitch": 29, "duration": 100, "velocity": 100}, {"time": 128641, "pitch": 36, "duration": 820, "velocity": 110}, {"time": 129481, "pitch": 36, "duration": 100, "velocity": 100}, {"time": 129601, "pitch": 33, "duration": 60, "velocity": 110}, {"time": 129841, "pitch": 33, "duration": 580, "velocity": 110}, {"time": 130441, "pitch": 33, "duration": 100, "velocity": 100}, {"time": 130561, "pitch": 31, "duration": 820, "velocity": 110}, {"time": 131401, "pitch": 31, "duration": 100, "velocity": 100}, {"time": 131521, "pitch": 29, "duration": 60, "velocity": 110}, {"time": 131761, "pitch": 29, "duration": 580, "velocity": 110}, {"time": 132361, "pitch": 29, "duration": 100, "velocity": 100}, {"time": 132481, "pitch": 29, "duration": 820, "velocity": 110}, {"time": 133321, "pitch": 36, "duration": 100, "velocity": 105}, {"time": 133441, "pitch": 41, "duration": 120, "velocity": 110}, {"time": 133561, "pitch": 36, "duration": 120, "velocity": 105}, {"time": 133681, "pitch": 41, "duration": 340, "velocity": 110}, {"time": 134041, "pitch": 36, "duration": 100, "velocity": 105}, {"time": 134161, "pitch": 41, "duration": 220, "velocity": 110}, {"time": 134401, "pitch": 36, "duration": 820, "velocity": 110}, {"time": 135241, "pitch": 31, "duration": 100, "velocity": 100}, {"time": 135361, "pitch": 36, "duration": 60, "velocity": 110}, {"time": 135601, "pitch": 36, "duration": 220, "velocity": 110}, {"time": 135841, "pitch": 40, "duration": 220, "velocity": 110}, {"time": 136081, "pitch": 43, "duration": 220, "velocity": 105}, {"time": 136321, "pitch": 41, "duration": 700, "velocity": 110}, {"time": 137041, "pitch": 36, "duration": 220, "velocity": 100}, {"time": 137281, "pitch": 41, "duration": 220, "velocity": 110}, {"time": 137521, "pitch": 40, "duration": 220, "velocity": 105}, {"time": 137761, "pitch": 38, "duration": 220, "velocity": 110}, {"time": 138001, "pitch": 36, "duration": 220, "velocity": 105}, {"time": 138241, "pitch": 33, "duration": 220, "velocity": 110}, {"time": 138481, "pitch": 33, "duration": 220, "velocity": 105}, {"time": 138721, "pitch": 40, "duration": 220, "velocity": 110}, {"time": 138961, "pitch": 45, "duration": 220, "velocity": 110}, {"time": 139201, "pitch": 43, "duration": 120, "velocity": 110}, {"time": 139321, "pitch": 38, "duration": 120, "velocity": 105}, {"time": 139441, "pitch": 43, "duration": 120, "velocity": 110}, {"time": 139561, "pitch": 45, "duration": 120, "velocity": 105}, {"time": 139681, "pitch": 43, "duration": 120, "velocity": 110}, {"time": 139801, "pitch": 38, "duration": 120, "velocity": 105}, {"time": 139921, "pitch": 43, "duration": 220, "velocity": 110}, {"time": 140161, "pitch": 33, "duration": 240, "velocity": 110}, {"time": 140401, "pitch": 33, "duration": 240, "velocity": 105}, {"time": 140641, "pitch": 33, "duration": 219, "velocity": 110}, {"time": 140880, "pitch": 35, "duration": 720, "velocity": 110}, {"time": 141600, "pitch": 28, "duration": 220, "velocity": 110}, {"time": 141840, "pitch": 28, "duration": 220, "velocity": 105}, {"time": 142080, "pitch": 29, "duration": 240, "velocity": 110}, {"time": 142320, "pitch": 29, "duration": 240, "velocity": 105}, {"time": 142560, "pitch": 36, "duration": 240, "velocity": 110}, {"time": 142800, "pitch": 41, "duration": 480, "velocity": 110}, {"time": 143280, "pitch": 40, "duration": 220, "velocity": 105}, {"time": 143520, "pitch": 38, "duration": 220, "velocity": 110}, {"time": 143760, "pitch": 36, "duration": 220, "velocity": 105}, {"time": 144000, "pitch": 38, "duration": 240, "velocity": 110}, {"time": 144240, "pitch": 38, "duration": 600, "velocity": 110}, {"time": 144840, "pitch": 33, "duration": 100, "velocity": 100}, {"time": 144960, "pitch": 38, "duration": 120, "velocity": 110}, {"time": 145080, "pitch": 33, "duration": 120, "velocity": 105}, {"time": 145200, "pitch": 38, "duration": 460, "velocity": 110}, {"time": 145680, "pitch": 38, "duration": 220, "velocity": 105}, {"time": 145920, "pitch": 43, "duration": 240, "velocity": 110}, {"time": 146160, "pitch": 43, "duration": 240, "velocity": 105}, {"time": 146400, "pitch": 43, "duration": 360, "velocity": 110}, {"time": 146760, "pitch": 38, "duration": 100, "velocity": 100}, {"time": 146880, "pitch": 43, "duration": 120, "velocity": 110}, {"time": 147000, "pitch": 38, "duration": 120, "velocity": 105}, {"time": 147120, "pitch": 43, "duration": 240, "velocity": 110}, {"time": 147360, "pitch": 47, "duration": 240, "velocity": 110}, {"time": 147600, "pitch": 43, "duration": 220, "velocity": 105}, {"time": 151440, "pitch": 55, "duration": 120, "velocity": 90}, {"time": 151560, "pitch": 56, "duration": 120, "velocity": 85}, {"time": 151680, "pitch": 57, "duration": 960, "velocity": 90}, {"time": 152640, "pitch": 53, "duration": 240, "velocity": 90}, {"time": 152880, "pitch": 53, "duration": 240, "velocity": 85}, {"time": 153120, "pitch": 52, "duration": 240, "velocity": 90}, {"time": 153360, "pitch": 48, "duration": 240, "velocity": 85}, {"time": 153600, "pitch": 43, "duration": 480, "velocity": 90}, {"time": 154080, "pitch": 50, "duration": 240, "velocity": 90}, {"time": 154320, "pitch": 55, "duration": 240, "velocity": 85}, {"time": 154560, "pitch": 55, "duration": 120, "velocity": 90}, {"time": 154680, "pitch": 50, "duration": 120, "velocity": 85}, {"time": 154800, "pitch": 55, "duration": 240, "velocity": 90}, {"time": 155040, "pitch": 55, "duration": 440, "velocity": 90}, {"time": 155520, "pitch": 36, "duration": 820, "velocity": 110}, {"time": 156360, "pitch": 31, "duration": 100, "velocity": 100}, {"time": 156480, "pitch": 29, "duration": 60, "velocity": 110}, {"time": 156720, "pitch": 29, "duration": 460, "velocity": 110}, {"time": 157200, "pitch": 33, "duration": 220, "velocity": 105}, {"time": 157440, "pitch": 31, "duration": 820, "velocity": 110}, {"time": 158280, "pitch": 38, "duration": 100, "velocity": 100}, {"time": 158400, "pitch": 43, "duration": 120, "velocity": 110}, {"time": 158520, "pitch": 38, "duration": 120, "velocity": 105}, {"time": 158640, "pitch": 43, "duration": 340, "velocity": 110}, {"time": 159000, "pitch": 38, "duration": 100, "velocity": 110}, {"time": 159120, "pitch": 31, "duration": 240, "velocity": 105}, {"time": 159360, "pitch": 33, "duration": 820, "velocity": 110}, {"time": 160200, "pitch": 28, "duration": 100, "velocity": 100}, {"time": 160320, "pitch": 29, "duration": 60, "velocity": 110}, {"time": 160560, "pitch": 29, "duration": 460, "velocity": 110}, {"time": 161040, "pitch": 29, "duration": 100, "velocity": 105}, {"time": 161160, "pitch": 33, "duration": 100, "velocity": 100}, {"time": 161280, "pitch": 31, "duration": 820, "velocity": 110}, {"time": 162120, "pitch": 38, "duration": 100, "velocity": 100}, {"time": 162240, "pitch": 43, "duration": 120, "velocity": 110}, {"time": 162360, "pitch": 38, "duration": 120, "velocity": 105}, {"time": 162480, "pitch": 43, "duration": 340, "velocity": 110}, {"time": 162840, "pitch": 38, "duration": 100, "velocity": 105}, {"time": 162960, "pitch": 31, "duration": 220, "velocity": 110}, {"time": 163200, "pitch": 38, "duration": 220, "velocity": 110}, {"time": 163440, "pitch": 33, "duration": 220, "velocity": 105}, {"time": 163680, "pitch": 38, "duration": 220, "velocity": 110}, {"time": 163920, "pitch": 40, "duration": 460, "velocity": 110}, {"time": 164400, "pitch": 36, "duration": 220, "velocity": 105}, {"time": 164640, "pitch": 40, "duration": 220, "velocity": 110}, {"time": 164880, "pitch": 43, "duration": 219, "velocity": 105}, {"time": 165119, "pitch": 41, "duration": 220, "velocity": 110}, {"time": 165359, "pitch": 40, "duration": 220, "velocity": 105}, {"time": 165599, "pitch": 36, "duration": 220, "velocity": 110}, {"time": 165839, "pitch": 43, "duration": 460, "velocity": 110}, {"time": 166319, "pitch": 38, "duration": 220, "velocity": 105}, {"time": 166559, "pitch": 43, "duration": 400, "velocity": 110}, {"time": 167039, "pitch": 36, "duration": 820, "velocity": 110}, {"time": 167879, "pitch": 36, "duration": 100, "velocity": 100}, {"time": 167999, "pitch": 33, "duration": 60, "velocity": 110}, {"time": 168239, "pitch": 33, "duration": 580, "velocity": 110}, {"time": 168839, "pitch": 33, "duration": 100, "velocity": 100}, {"time": 168959, "pitch": 31, "duration": 820, "velocity": 110}, {"time": 169799, "pitch": 31, "duration": 100, "velocity": 100}, {"time": 169919, "pitch": 29, "duration": 60, "velocity": 110}, {"time": 170159, "pitch": 29, "duration": 580, "velocity": 110}, {"time": 170759, "pitch": 29, "duration": 100, "velocity": 100}, {"time": 170879, "pitch": 36, "duration": 820, "velocity": 110}, {"time": 171719, "pitch": 36, "duration": 100, "velocity": 100}, {"time": 171839, "pitch": 33, "duration": 60, "velocity": 110}, {"time": 172079, "pitch": 33, "duration": 580, "velocity": 110}, {"time": 172679, "pitch": 33, "duration": 100, "velocity": 100}, {"time": 172799, "pitch": 31, "duration": 820, "velocity": 110}, {"time": 173639, "pitch": 31, "duration": 100, "velocity": 100}, {"time": 173759, "pitch": 29, "duration": 220, "velocity": 110}, {"time": 173999, "pitch": 36, "duration": 220, "velocity": 110}, {"time": 174239, "pitch": 41, "duration": 100, "velocity": 110}, {"time": 174359, "pitch": 36, "duration": 100, "velocity": 105}, {"time": 174479, "pitch": 41, "duration": 220, "velocity": 110}, {"time": 174719, "pitch": 36, "duration": 820, "velocity": 110}, {"time": 175559, "pitch": 36, "duration": 100, "velocity": 100}, {"time": 175679, "pitch": 33, "duration": 60, "velocity": 110}, {"time": 175919, "pitch": 33, "duration": 580, "velocity": 110}, {"time": 176519, "pitch": 33, "duration": 100, "velocity": 100}, {"time": 176639, "pitch": 31, "duration": 820, "velocity": 110}, {"time": 177479, "pitch": 31, "duration": 100, "velocity": 100}, {"time": 177599, "pitch": 29, "duration": 60, "velocity": 110}, {"time": 177839, "pitch": 29, "duration": 220, "velocity": 110}, {"time": 178079, "pitch": 31, "duration": 220, "velocity": 110}, {"time": 178319, "pitch": 38, "duration": 220, "velocity": 110}, {"time": 178559, "pitch": 36, "duration": 580, "velocity": 110}, {"time": 179158, "pitch": 33, "duration": 101, "velocity": 100}, {"time": 179279, "pitch": 36, "duration": 220, "velocity": 105}, {"time": 179519, "pitch": 33, "duration": 60, "velocity": 110}, {"time": 179759, "pitch": 33, "duration": 580, "velocity": 110}, {"time": 180359, "pitch": 33, "duration": 100, "velocity": 100}, {"time": 180479, "pitch": 31, "duration": 820, "velocity": 110}, {"time": 181319, "pitch": 31, "duration": 100, "velocity": 100}, {"time": 181439, "pitch": 29, "duration": 220, "velocity": 110}, {"time": 181679, "pitch": 36, "duration": 220, "velocity": 110}, {"time": 181919, "pitch": 41, "duration": 367, "velocity": 110}, {"time": 182286, "pitch": 36, "duration": 6069, "velocity": 110}, {"time": 346, "pitch": 50, "duration": 22, "velocity": 100}, {"time": 346, "pitch": 55, "duration": 22, "velocity": 110}, {"time": 351, "pitch": 43, "duration": 23, "velocity": 110}, {"time": 351, "pitch": 47, "duration": 23, "velocity": 105}, {"time": 480, "pitch": 50, "duration": 360, "velocity": 110}, {"time": 480, "pitch": 55, "duration": 360, "velocity": 110}, {"time": 490, "pitch": 59, "duration": 350, "velocity": 115}, {"time": 490, "pitch": 67, "duration": 350, "velocity": 120}, {"time": 840, "pitch": 55, "duration": 30, "velocity": 105}, {"time": 840, "pitch": 59, "duration": 30, "velocity": 110}, {"time": 850, "pitch": 47, "duration": 30, "velocity": 110}, {"time": 850, "pitch": 50, "duration": 30, "velocity": 100}, {"time": 960, "pitch": 41, "duration": 40, "velocity": 110}, {"time": 960, "pitch": 45, "duration": 40, "velocity": 105}, {"time": 970, "pitch": 53, "duration": 40, "velocity": 100}, {"time": 970, "pitch": 57, "duration": 40, "velocity": 110}, {"time": 1200, "pitch": 53, "duration": 40, "velocity": 100}, {"time": 1200, "pitch": 57, "duration": 40, "velocity": 110}, {"time": 1210, "pitch": 41, "duration": 40, "velocity": 110}, {"time": 1210, "pitch": 45, "duration": 40, "velocity": 105}, {"time": 1440, "pitch": 53, "duration": 360, "velocity": 110}, {"time": 1440, "pitch": 57, "duration": 360, "velocity": 110}, {"time": 1450, "pitch": 60, "duration": 350, "velocity": 115}, {"time": 1450, "pitch": 65, "duration": 350, "velocity": 120}, {"time": 1800, "pitch": 57, "duration": 30, "velocity": 105}, {"time": 1800, "pitch": 60, "duration": 30, "velocity": 110}, {"time": 1810, "pitch": 45, "duration": 30, "velocity": 110}, {"time": 1810, "pitch": 53, "duration": 30, "velocity": 100}, {"time": 1920, "pitch": 40, "duration": 40, "velocity": 110}, {"time": 1920, "pitch": 48, "duration": 40, "velocity": 105}, {"time": 1930, "pitch": 52, "duration": 40, "velocity": 100}, {"time": 1930, "pitch": 55, "duration": 40, "velocity": 110}, {"time": 2160, "pitch": 52, "duration": 40, "velocity": 100}, {"time": 2160, "pitch": 55, "duration": 40, "velocity": 110}, {"time": 2170, "pitch": 40, "duration": 40, "velocity": 110}, {"time": 2170, "pitch": 48, "duration": 40, "velocity": 105}, {"time": 2400, "pitch": 52, "duration": 360, "velocity": 110}, {"time": 2400, "pitch": 55, "duration": 360, "velocity": 110}, {"time": 2410, "pitch": 60, "duration": 350, "velocity": 115}, {"time": 2410, "pitch": 64, "duration": 350, "velocity": 120}, {"time": 2760, "pitch": 55, "duration": 30, "velocity": 105}, {"time": 2760, "pitch": 60, "duration": 30, "velocity": 110}, {"time": 2770, "pitch": 48, "duration": 30, "velocity": 110}, {"time": 2770, "pitch": 52, "duration": 30, "velocity": 100}, {"time": 2880, "pitch": 40, "duration": 40, "velocity": 110}, {"time": 2880, "pitch": 45, "duration": 40, "velocity": 105}, {"time": 2890, "pitch": 52, "duration": 40, "velocity": 100}, {"time": 2890, "pitch": 57, "duration": 40, "velocity": 110}, {"time": 3120, "pitch": 52, "duration": 40, "velocity": 100}, {"time": 3120, "pitch": 57, "duration": 40, "velocity": 110}, {"time": 3130, "pitch": 40, "duration": 40, "velocity": 110}, {"time": 3130, "pitch": 45, "duration": 40, "velocity": 105}, {"time": 3360, "pitch": 52, "duration": 360, "velocity": 110}, {"time": 3360, "pitch": 57, "duration": 360, "velocity": 110}, {"time": 3370, "pitch": 60, "duration": 350, "velocity": 115}, {"time": 3370, "pitch": 64, "duration": 350, "velocity": 120}, {"time": 3720, "pitch": 57, "duration": 30, "velocity": 105}, {"time": 3720, "pitch": 60, "duration": 30, "velocity": 110}, {"time": 3730, "pitch": 45, "duration": 30, "velocity": 110}, {"time": 3730, "pitch": 52, "duration": 30, "velocity": 100}, {"time": 3840, "pitch": 43, "duration": 40, "velocity": 110}, {"time": 3840, "pitch": 47, "duration": 40, "velocity": 105}, {"time": 3850, "pitch": 50, "duration": 40, "velocity": 100}, {"time": 3850, "pitch": 55, "duration": 40, "velocity": 110}, {"time": 4080, "pitch": 50, "duration": 40, "velocity": 100}, {"time": 4080, "pitch": 55, "duration": 40, "velocity": 110}, {"time": 4090, "pitch": 43, "duration": 40, "velocity": 110}, {"time": 4090, "pitch": 47, "duration": 40, "velocity": 105}, {"time": 4320, "pitch": 50, "duration": 360, "velocity": 110}, {"time": 4320, "pitch": 55, "duration": 360, "velocity": 110}, {"time": 4330, "pitch": 59, "duration": 350, "velocity": 115}, {"time": 4330, "pitch": 67, "duration": 350, "velocity": 120}, {"time": 4680, "pitch": 55, "duration": 30, "velocity": 105}, {"time": 4680, "pitch": 59, "duration": 30, "velocity": 110}, {"time": 4690, "pitch": 47, "duration": 30, "velocity": 110}, {"time": 4690, "pitch": 50, "duration": 30, "velocity": 100}, {"time": 4800, "pitch": 41, "duration": 40, "velocity": 110}, {"time": 4800, "pitch": 45, "duration": 40, "velocity": 105}, {"time": 4810, "pitch": 53, "duration": 40, "velocity": 100}, {"time": 4810, "pitch": 57, "duration": 40, "velocity": 110}, {"time": 5040, "pitch": 53, "duration": 40, "velocity": 100}, {"time": 5040, "pitch": 57, "duration": 40, "velocity": 110}, {"time": 5050, "pitch": 41, "duration": 40, "velocity": 110}, {"time": 5050, "pitch": 45, "duration": 40, "velocity": 105}, {"time": 5280, "pitch": 53, "duration": 360, "velocity": 110}, {"time": 5280, "pitch": 57, "duration": 360, "velocity": 110}, {"time": 5290, "pitch": 60, "duration": 350, "velocity": 115}, {"time": 5290, "pitch": 65, "duration": 350, "velocity": 120}, {"time": 5640, "pitch": 57, "duration": 30, "velocity": 105}, {"time": 5640, "pitch": 60, "duration": 30, "velocity": 110}, {"time": 5650, "pitch": 45, "duration": 30, "velocity": 110}, {"time": 5650, "pitch": 53, "duration": 30, "velocity": 100}, {"time": 5760, "pitch": 40, "duration": 40, "velocity": 110}, {"time": 5760, "pitch": 48, "duration": 40, "velocity": 105}, {"time": 5770, "pitch": 52, "duration": 40, "velocity": 100}, {"time": 5770, "pitch": 55, "duration": 40, "velocity": 110}, {"time": 6000, "pitch": 52, "duration": 40, "velocity": 100}, {"time": 6000, "pitch": 55, "duration": 40, "velocity": 110}, {"time": 6010, "pitch": 40, "duration": 40, "velocity": 110}, {"time": 6010, "pitch": 48, "duration": 40, "velocity": 105}, {"time": 6240, "pitch": 52, "duration": 360, "velocity": 110}, {"time": 6240, "pitch": 55, "duration": 360, "velocity": 110}, {"time": 6250, "pitch": 60, "duration": 350, "velocity": 115}, {"time": 6250, "pitch": 64, "duration": 350, "velocity": 120}, {"time": 6600, "pitch": 55, "duration": 30, "velocity": 105}, {"time": 6600, "pitch": 60, "duration": 30, "velocity": 110}, {"time": 6610, "pitch": 48, "duration": 30, "velocity": 110}, {"time": 6610, "pitch": 52, "duration": 30, "velocity": 100}, {"time": 6720, "pitch": 40, "duration": 40, "velocity": 110}, {"time": 6720, "pitch": 45, "duration": 40, "velocity": 105}, {"time": 6730, "pitch": 52, "duration": 40, "velocity": 100}, {"time": 6730, "pitch": 57, "duration": 40, "velocity": 110}, {"time": 6960, "pitch": 52, "duration": 40, "velocity": 100}, {"time": 6960, "pitch": 57, "duration": 40, "velocity": 110}, {"time": 6970, "pitch": 40, "duration": 40, "velocity": 110}, {"time": 6970, "pitch": 45, "duration": 40, "velocity": 105}, {"time": 7200, "pitch": 52, "duration": 360, "velocity": 110}, {"time": 7200, "pitch": 57, "duration": 360, "velocity": 110}, {"time": 7210, "pitch": 60, "duration": 350, "velocity": 115}, {"time": 7210, "pitch": 64, "duration": 350, "velocity": 120}, {"time": 7560, "pitch": 57, "duration": 30, "velocity": 105}, {"time": 7560, "pitch": 60, "duration": 30, "velocity": 110}, {"time": 7570, "pitch": 45, "duration": 30, "velocity": 110}, {"time": 7570, "pitch": 52, "duration": 30, "velocity": 100}, {"time": 7680, "pitch": 43, "duration": 40, "velocity": 110}, {"time": 7680, "pitch": 47, "duration": 40, "velocity": 105}, {"time": 7690, "pitch": 50, "duration": 40, "velocity": 100}, {"time": 7690, "pitch": 55, "duration": 40, "velocity": 110}, {"time": 7920, "pitch": 50, "duration": 40, "velocity": 100}, {"time": 7920, "pitch": 55, "duration": 40, "velocity": 110}, {"time": 7930, "pitch": 43, "duration": 40, "velocity": 110}, {"time": 7930, "pitch": 47, "duration": 40, "velocity": 105}, {"time": 8160, "pitch": 50, "duration": 360, "velocity": 110}, {"time": 8160, "pitch": 55, "duration": 360, "velocity": 110}, {"time": 8170, "pitch": 59, "duration": 350, "velocity": 115}, {"time": 8170, "pitch": 67, "duration": 350, "velocity": 120}, {"time": 8520, "pitch": 55, "duration": 30, "velocity": 105}, {"time": 8520, "pitch": 59, "duration": 30, "velocity": 110}, {"time": 8530, "pitch": 47, "duration": 30, "velocity": 110}, {"time": 8530, "pitch": 50, "duration": 30, "velocity": 100}, {"time": 8640, "pitch": 41, "duration": 40, "velocity": 110}, {"time": 8640, "pitch": 45, "duration": 40, "velocity": 105}, {"time": 8650, "pitch": 53, "duration": 40, "velocity": 100}, {"time": 8650, "pitch": 57, "duration": 40, "velocity": 110}, {"time": 8880, "pitch": 53, "duration": 40, "velocity": 100}, {"time": 8880, "pitch": 57, "duration": 40, "velocity": 110}, {"time": 8890, "pitch": 41, "duration": 40, "velocity": 110}, {"time": 8890, "pitch": 45, "duration": 40, "velocity": 105}, {"time": 9120, "pitch": 53, "duration": 360, "velocity": 110}, {"time": 9120, "pitch": 57, "duration": 360, "velocity": 110}, {"time": 9130, "pitch": 60, "duration": 350, "velocity": 115}, {"time": 9130, "pitch": 65, "duration": 350, "velocity": 120}, {"time": 9480, "pitch": 57, "duration": 30, "velocity": 105}, {"time": 9480, "pitch": 60, "duration": 30, "velocity": 110}, {"time": 9490, "pitch": 45, "duration": 30, "velocity": 110}, {"time": 9490, "pitch": 53, "duration": 30, "velocity": 100}, {"time": 9600, "pitch": 40, "duration": 40, "velocity": 110}, {"time": 9600, "pitch": 48, "duration": 40, "velocity": 105}, {"time": 9610, "pitch": 52, "duration": 40, "velocity": 100}, {"time": 9610, "pitch": 55, "duration": 40, "velocity": 110}, {"time": 9840, "pitch": 52, "duration": 40, "velocity": 100}, {"time": 9840, "pitch": 55, "duration": 40, "velocity": 110}, {"time": 9850, "pitch": 40, "duration": 40, "velocity": 110}, {"time": 9850, "pitch": 48, "duration": 40, "velocity": 105}, {"time": 10080, "pitch": 52, "duration": 359, "velocity": 110}, {"time": 10080, "pitch": 55, "duration": 359, "velocity": 110}, {"time": 10090, "pitch": 60, "duration": 349, "velocity": 115}, {"time": 10090, "pitch": 64, "duration": 349, "velocity": 120}, {"time": 10439, "pitch": 55, "duration": 30, "velocity": 105}, {"time": 10439, "pitch": 60, "duration": 30, "velocity": 110}, {"time": 10449, "pitch": 48, "duration": 30, "velocity": 110}, {"time": 10449, "pitch": 52, "duration": 30, "velocity": 100}, {"time": 10559, "pitch": 40, "duration": 40, "velocity": 110}, {"time": 10559, "pitch": 48, "duration": 40, "velocity": 105}, {"time": 10569, "pitch": 52, "duration": 40, "velocity": 100}, {"time": 10569, "pitch": 55, "duration": 40, "velocity": 110}, {"time": 10799, "pitch": 52, "duration": 40, "velocity": 100}, {"time": 10799, "pitch": 55, "duration": 40, "velocity": 110}, {"time": 10809, "pitch": 40, "duration": 40, "velocity": 110}, {"time": 10809, "pitch": 48, "duration": 40, "velocity": 105}, {"time": 11039, "pitch": 52, "duration": 360, "velocity": 110}, {"time": 11039, "pitch": 55, "duration": 360, "velocity": 110}, {"time": 11049, "pitch": 60, "duration": 350, "velocity": 115}, {"time": 11049, "pitch": 64, "duration": 350, "velocity": 120}, {"time": 11399, "pitch": 55, "duration": 30, "velocity": 105}, {"time": 11399, "pitch": 60, "duration": 30, "velocity": 110}, {"time": 11409, "pitch": 48, "duration": 30, "velocity": 110}, {"time": 11409, "pitch": 52, "duration": 30, "velocity": 100}, {"time": 11519, "pitch": 41, "duration": 40, "velocity": 110}, {"time": 11519, "pitch": 45, "duration": 40, "velocity": 105}, {"time": 11529, "pitch": 53, "duration": 40, "velocity": 100}, {"time": 11529, "pitch": 57, "duration": 40, "velocity": 110}, {"time": 11759, "pitch": 53, "duration": 40, "velocity": 100}, {"time": 11759, "pitch": 57, "duration": 40, "velocity": 110}, {"time": 11769, "pitch": 41, "duration": 40, "velocity": 110}, {"time": 11769, "pitch": 45, "duration": 40, "velocity": 105}, {"time": 11999, "pitch": 53, "duration": 360, "velocity": 110}, {"time": 11999, "pitch": 57, "duration": 360, "velocity": 110}, {"time": 12009, "pitch": 60, "duration": 350, "velocity": 115}, {"time": 12009, "pitch": 65, "duration": 350, "velocity": 120}, {"time": 12359, "pitch": 57, "duration": 30, "velocity": 105}, {"time": 12359, "pitch": 60, "duration": 30, "velocity": 110}, {"time": 12369, "pitch": 45, "duration": 30, "velocity": 110}, {"time": 12369, "pitch": 53, "duration": 30, "velocity": 100}, {"time": 12479, "pitch": 41, "duration": 40, "velocity": 110}, {"time": 12479, "pitch": 45, "duration": 40, "velocity": 105}, {"time": 12489, "pitch": 53, "duration": 40, "velocity": 100}, {"time": 12489, "pitch": 57, "duration": 40, "velocity": 110}, {"time": 12719, "pitch": 53, "duration": 40, "velocity": 100}, {"time": 12719, "pitch": 57, "duration": 40, "velocity": 110}, {"time": 12729, "pitch": 41, "duration": 40, "velocity": 110}, {"time": 12729, "pitch": 45, "duration": 40, "velocity": 105}, {"time": 12959, "pitch": 53, "duration": 360, "velocity": 110}, {"time": 12959, "pitch": 57, "duration": 360, "velocity": 110}, {"time": 12969, "pitch": 60, "duration": 350, "velocity": 115}, {"time": 12969, "pitch": 65, "duration": 350, "velocity": 120}, {"time": 13319, "pitch": 57, "duration": 30, "velocity": 105}, {"time": 13319, "pitch": 60, "duration": 30, "velocity": 110}, {"time": 13329, "pitch": 45, "duration": 30, "velocity": 110}, {"time": 13329, "pitch": 53, "duration": 30, "velocity": 100}, {"time": 13439, "pitch": 40, "duration": 40, "velocity": 110}, {"time": 13439, "pitch": 45, "duration": 40, "velocity": 105}, {"time": 13449, "pitch": 52, "duration": 40, "velocity": 100}, {"time": 13449, "pitch": 57, "duration": 40, "velocity": 110}, {"time": 13679, "pitch": 52, "duration": 40, "velocity": 100}, {"time": 13679, "pitch": 57, "duration": 40, "velocity": 110}, {"time": 13689, "pitch": 40, "duration": 40, "velocity": 110}, {"time": 13689, "pitch": 45, "duration": 40, "velocity": 105}, {"time": 13919, "pitch": 52, "duration": 360, "velocity": 110}, {"time": 13919, "pitch": 57, "duration": 360, "velocity": 110}, {"time": 13929, "pitch": 60, "duration": 350, "velocity": 115}, {"time": 13929, "pitch": 64, "duration": 350, "velocity": 120}, {"time": 14279, "pitch": 57, "duration": 30, "velocity": 105}, {"time": 14279, "pitch": 60, "duration": 30, "velocity": 110}, {"time": 14289, "pitch": 45, "duration": 30, "velocity": 110}, {"time": 14289, "pitch": 52, "duration": 30, "velocity": 100}, {"time": 14399, "pitch": 40, "duration": 40, "velocity": 110}, {"time": 14399, "pitch": 45, "duration": 40, "velocity": 105}, {"time": 14409, "pitch": 52, "duration": 40, "velocity": 100}, {"time": 14409, "pitch": 57, "duration": 40, "velocity": 110}, {"time": 14639, "pitch": 52, "duration": 40, "velocity": 100}, {"time": 14639, "pitch": 57, "duration": 40, "velocity": 110}, {"time": 14649, "pitch": 40, "duration": 40, "velocity": 110}, {"time": 14649, "pitch": 45, "duration": 40, "velocity": 105}, {"time": 14879, "pitch": 52, "duration": 360, "velocity": 110}, {"time": 14879, "pitch": 57, "duration": 360, "velocity": 110}, {"time": 14889, "pitch": 60, "duration": 350, "velocity": 115}, {"time": 14889, "pitch": 64, "duration": 350, "velocity": 120}, {"time": 15239, "pitch": 57, "duration": 30, "velocity": 105}, {"time": 15239, "pitch": 60, "duration": 30, "velocity": 110}, {"time": 15249, "pitch": 45, "duration": 30, "velocity": 110}, {"time": 15249, "pitch": 52, "duration": 30, "velocity": 100}, {"time": 15359, "pitch": 43, "duration": 40, "velocity": 110}, {"time": 15359, "pitch": 47, "duration": 40, "velocity": 105}, {"time": 15369, "pitch": 50, "duration": 40, "velocity": 100}, {"time": 15369, "pitch": 55, "duration": 40, "velocity": 110}, {"time": 15599, "pitch": 50, "duration": 40, "velocity": 100}, {"time": 15599, "pitch": 55, "duration": 40, "velocity": 110}, {"time": 15609, "pitch": 43, "duration": 40, "velocity": 110}, {"time": 15609, "pitch": 47, "duration": 40, "velocity": 105}, {"time": 15719, "pitch": 50, "duration": 360, "velocity": 110}, {"time": 15719, "pitch": 55, "duration": 360, "velocity": 110}, {"time": 15729, "pitch": 59, "duration": 350, "velocity": 115}, {"time": 15729, "pitch": 67, "duration": 350, "velocity": 120}, {"time": 16079, "pitch": 52, "duration": 360, "velocity": 110}, {"time": 16079, "pitch": 55, "duration": 360, "velocity": 110}, {"time": 16089, "pitch": 60, "duration": 350, "velocity": 115}, {"time": 16089, "pitch": 64, "duration": 350, "velocity": 120}, {"time": 16439, "pitch": 55, "duration": 30, "velocity": 105}, {"time": 16439, "pitch": 60, "duration": 30, "velocity": 110}, {"time": 16449, "pitch": 48, "duration": 30, "velocity": 110}, {"time": 16449, "pitch": 52, "duration": 30, "velocity": 100}, {"time": 16559, "pitch": 40, "duration": 40, "velocity": 110}, {"time": 16559, "pitch": 48, "duration": 40, "velocity": 105}, {"time": 16569, "pitch": 52, "duration": 40, "velocity": 100}, {"time": 16569, "pitch": 55, "duration": 40, "velocity": 110}, {"time": 16799, "pitch": 52, "duration": 360, "velocity": 110}, {"time": 16799, "pitch": 55, "duration": 360, "velocity": 110}, {"time": 16809, "pitch": 60, "duration": 350, "velocity": 115}, {"time": 16809, "pitch": 64, "duration": 350, "velocity": 120}, {"time": 17159, "pitch": 55, "duration": 30, "velocity": 105}, {"time": 17159, "pitch": 60, "duration": 30, "velocity": 110}, {"time": 17169, "pitch": 48, "duration": 30, "velocity": 110}, {"time": 17169, "pitch": 52, "duration": 30, "velocity": 100}, {"time": 17279, "pitch": 40, "duration": 40, "velocity": 110}, {"time": 17279, "pitch": 48, "duration": 40, "velocity": 105}, {"time": 17289, "pitch": 52, "duration": 40, "velocity": 100}, {"time": 17289, "pitch": 55, "duration": 40, "velocity": 110}, {"time": 17519, "pitch": 52, "duration": 40, "velocity": 100}, {"time": 17519, "pitch": 55, "duration": 40, "velocity": 110}, {"time": 17529, "pitch": 40, "duration": 40, "velocity": 110}, {"time": 17529, "pitch": 48, "duration": 40, "velocity": 105}, {"time": 17759, "pitch": 52, "duration": 360, "velocity": 110}, {"time": 17759, "pitch": 55, "duration": 360, "velocity": 110}, {"time": 17769, "pitch": 60, "duration": 350, "velocity": 115}, {"time": 17769, "pitch": 64, "duration": 350, "velocity": 120}, {"time": 18119, "pitch": 55, "duration": 30, "velocity": 105}, {"time": 18119, "pitch": 60, "duration": 30, "velocity": 110}, {"time": 18129, "pitch": 48, "duration": 30, "velocity": 110}, {"time": 18129, "pitch": 52, "duration": 30, "velocity": 100}, {"time": 18239, "pitch": 40, "duration": 40, "velocity": 110}, {"time": 18239, "pitch": 48, "duration": 40, "velocity": 105}, {"time": 18249, "pitch": 52, "duration": 40, "velocity": 100}, {"time": 18249, "pitch": 55, "duration": 40, "velocity": 110}, {"time": 18479, "pitch": 52, "duration": 40, "velocity": 100}, {"time": 18479, "pitch": 55, "duration": 40, "velocity": 110}, {"time": 18489, "pitch": 40, "duration": 40, "velocity": 110}, {"time": 18489, "pitch": 48, "duration": 40, "velocity": 105}, {"time": 18719, "pitch": 52, "duration": 360, "velocity": 110}, {"time": 18719, "pitch": 55, "duration": 360, "velocity": 110}, {"time": 18729, "pitch": 60, "duration": 350, "velocity": 115}, {"time": 18729, "pitch": 64, "duration": 350, "velocity": 120}, {"time": 19079, "pitch": 55, "duration": 30, "velocity": 105}, {"time": 19079, "pitch": 60, "duration": 30, "velocity": 110}, {"time": 19089, "pitch": 48, "duration": 30, "velocity": 110}, {"time": 19089, "pitch": 52, "duration": 30, "velocity": 100}, {"time": 19199, "pitch": 41, "duration": 40, "velocity": 110}, {"time": 19199, "pitch": 45, "duration": 40, "velocity": 105}, {"time": 19209, "pitch": 53, "duration": 40, "velocity": 100}, {"time": 19209, "pitch": 57, "duration": 40, "velocity": 110}, {"time": 19439, "pitch": 53, "duration": 40, "velocity": 100}, {"time": 19439, "pitch": 57, "duration": 40, "velocity": 110}, {"time": 19449, "pitch": 41, "duration": 40, "velocity": 110}, {"time": 19449, "pitch": 45, "duration": 40, "velocity": 105}, {"time": 19679, "pitch": 53, "duration": 360, "velocity": 110}, {"time": 19679, "pitch": 57, "duration": 360, "velocity": 110}, {"time": 19689, "pitch": 60, "duration": 350, "velocity": 115}, {"time": 19689, "pitch": 65, "duration": 350, "velocity": 120}, {"time": 20039, "pitch": 57, "duration": 30, "velocity": 105}, {"time": 20039, "pitch": 60, "duration": 30, "velocity": 110}, {"time": 20049, "pitch": 45, "duration": 30, "velocity": 110}, {"time": 20049, "pitch": 53, "duration": 30, "velocity": 100}, {"time": 20159, "pitch": 41, "duration": 40, "velocity": 110}, {"time": 20159, "pitch": 45, "duration": 40, "velocity": 105}, {"time": 20169, "pitch": 53, "duration": 40, "velocity": 100}, {"time": 20169, "pitch": 57, "duration": 40, "velocity": 110}, {"time": 20399, "pitch": 53, "duration": 40, "velocity": 100}, {"time": 20399, "pitch": 57, "duration": 40, "velocity": 110}, {"time": 20409, "pitch": 41, "duration": 40, "velocity": 110}, {"time": 20409, "pitch": 45, "duration": 40, "velocity": 105}, {"time": 20639, "pitch": 53, "duration": 360, "velocity": 110}, {"time": 20639, "pitch": 57, "duration": 360, "velocity": 110}, {"time": 20649, "pitch": 60, "duration": 350, "velocity": 115}, {"time": 20649, "pitch": 65, "duration": 350, "velocity": 120}, {"time": 20999, "pitch": 57, "duration": 30, "velocity": 105}, {"time": 20999, "pitch": 60, "duration": 30, "velocity": 110}, {"time": 21009, "pitch": 45, "duration": 30, "velocity": 110}, {"time": 21009, "pitch": 53, "duration": 30, "velocity": 100}, {"time": 21119, "pitch": 40, "duration": 40, "velocity": 110}, {"time": 21119, "pitch": 45, "duration": 40, "velocity": 105}, {"time": 21129, "pitch": 52, "duration": 40, "velocity": 100}, {"time": 21129, "pitch": 57, "duration": 40, "velocity": 110}, {"time": 21359, "pitch": 52, "duration": 40, "velocity": 100}, {"time": 21359, "pitch": 57, "duration": 40, "velocity": 110}, {"time": 21369, "pitch": 40, "duration": 40, "velocity": 110}, {"time": 21369, "pitch": 45, "duration": 40, "velocity": 105}, {"time": 21599, "pitch": 52, "duration": 360, "velocity": 110}, {"time": 21599, "pitch": 57, "duration": 360, "velocity": 110}, {"time": 21609, "pitch": 60, "duration": 350, "velocity": 115}, {"time": 21609, "pitch": 64, "duration": 350, "velocity": 120}, {"time": 21959, "pitch": 57, "duration": 30, "velocity": 105}, {"time": 21959, "pitch": 60, "duration": 30, "velocity": 110}, {"time": 21969, "pitch": 45, "duration": 30, "velocity": 110}, {"time": 21969, "pitch": 52, "duration": 30, "velocity": 100}, {"time": 22079, "pitch": 40, "duration": 40, "velocity": 110}, {"time": 22079, "pitch": 45, "duration": 40, "velocity": 105}, {"time": 22089, "pitch": 52, "duration": 40, "velocity": 100}, {"time": 22089, "pitch": 57, "duration": 40, "velocity": 110}, {"time": 22319, "pitch": 52, "duration": 40, "velocity": 100}, {"time": 22319, "pitch": 57, "duration": 40, "velocity": 110}, {"time": 22329, "pitch": 40, "duration": 40, "velocity": 110}, {"time": 22329, "pitch": 45, "duration": 40, "velocity": 105}, {"time": 22559, "pitch": 52, "duration": 360, "velocity": 110}, {"time": 22559, "pitch": 57, "duration": 360, "velocity": 110}, {"time": 22569, "pitch": 60, "duration": 350, "velocity": 115}, {"time": 22569, "pitch": 64, "duration": 350, "velocity": 120}, {"time": 22919, "pitch": 57, "duration": 30, "velocity": 105}, {"time": 22919, "pitch": 60, "duration": 30, "velocity": 110}, {"time": 22929, "pitch": 45, "duration": 30, "velocity": 110}, {"time": 22929, "pitch": 52, "duration": 30, "velocity": 100}, {"time": 23039, "pitch": 43, "duration": 40, "velocity": 110}, {"time": 23039, "pitch": 47, "duration": 40, "velocity": 105}, {"time": 23049, "pitch": 50, "duration": 40, "velocity": 100}, {"time": 23049, "pitch": 55, "duration": 40, "velocity": 110}, {"time": 23279, "pitch": 50, "duration": 40, "velocity": 100}, {"time": 23279, "pitch": 55, "duration": 40, "velocity": 110}, {"time": 23289, "pitch": 43, "duration": 40, "velocity": 110}, {"time": 23289, "pitch": 47, "duration": 40, "velocity": 105}, {"time": 23399, "pitch": 50, "duration": 360, "velocity": 110}, {"time": 23399, "pitch": 55, "duration": 360, "velocity": 110}, {"time": 23409, "pitch": 59, "duration": 350, "velocity": 115}, {"time": 23409, "pitch": 67, "duration": 350, "velocity": 120}, {"time": 23759, "pitch": 52, "duration": 360, "velocity": 110}, {"time": 23759, "pitch": 55, "duration": 360, "velocity": 110}, {"time": 23769, "pitch": 60, "duration": 350, "velocity": 115}, {"time": 23769, "pitch": 64, "duration": 350, "velocity": 120}, {"time": 24119, "pitch": 55, "duration": 30, "velocity": 105}, {"time": 24119, "pitch": 60, "duration": 30, "velocity": 110}, {"time": 24129, "pitch": 48, "duration": 30, "velocity": 110}, {"time": 24129, "pitch": 52, "duration": 30, "velocity": 100}, {"time": 24239, "pitch": 40, "duration": 40, "velocity": 110}, {"time": 24239, "pitch": 48, "duration": 40, "velocity": 105}, {"time": 24249, "pitch": 52, "duration": 40, "velocity": 100}, {"time": 24249, "pitch": 55, "duration": 40, "velocity": 110}, {"time": 24479, "pitch": 52, "duration": 360, "velocity": 110}, {"time": 24479, "pitch": 55, "duration": 360, "velocity": 110}, {"time": 24489, "pitch": 60, "duration": 350, "velocity": 115}, {"time": 24489, "pitch": 64, "duration": 350, "velocity": 120}, {"time": 24839, "pitch": 55, "duration": 30, "velocity": 105}, {"time": 24839, "pitch": 60, "duration": 30, "velocity": 110}, {"time": 24849, "pitch": 48, "duration": 30, "velocity": 110}, {"time": 24849, "pitch": 52, "duration": 30, "velocity": 100}, {"time": 24959, "pitch": 53, "duration": 250, "velocity": 110}, {"time": 24959, "pitch": 57, "duration": 250, "velocity": 105}, {"time": 24969, "pitch": 60, "duration": 230, "velocity": 100}, {"time": 24969, "pitch": 65, "duration": 230, "velocity": 110}, {"time": 25199, "pitch": 60, "duration": 250, "velocity": 90}, {"time": 25199, "pitch": 65, "duration": 250, "velocity": 100}, {"time": 25209, "pitch": 53, "duration": 230, "velocity": 100}, {"time": 25209, "pitch": 57, "duration": 230, "velocity": 95}, {"time": 25439, "pitch": 53, "duration": 370, "velocity": 110}, {"time": 25439, "pitch": 57, "duration": 370, "velocity": 110}, {"time": 25449, "pitch": 60, "duration": 350, "velocity": 115}, {"time": 25449, "pitch": 65, "duration": 350, "velocity": 120}, {"time": 25799, "pitch": 60, "duration": 130, "velocity": 95}, {"time": 25799, "pitch": 65, "duration": 130, "velocity": 100}, {"time": 25809, "pitch": 53, "duration": 110, "velocity": 100}, {"time": 25809, "pitch": 57, "duration": 110, "velocity": 90}, {"time": 25919, "pitch": 53, "duration": 130, "velocity": 110}, {"time": 25919, "pitch": 57, "duration": 130, "velocity": 105}, {"time": 25929, "pitch": 60, "duration": 110, "velocity": 100}, {"time": 25929, "pitch": 65, "duration": 110, "velocity": 110}, {"time": 26039, "pitch": 60, "duration": 130, "velocity": 90}, {"time": 26039, "pitch": 65, "duration": 130, "velocity": 100}, {"time": 26049, "pitch": 53, "duration": 110, "velocity": 100}, {"time": 26049, "pitch": 57, "duration": 110, "velocity": 95}, {"time": 26159, "pitch": 53, "duration": 240, "velocity": 110}, {"time": 26159, "pitch": 57, "duration": 240, "velocity": 105}, {"time": 26169, "pitch": 60, "duration": 240, "velocity": 100}, {"time": 26169, "pitch": 65, "duration": 230, "velocity": 110}, {"time": 26399, "pitch": 53, "duration": 370, "velocity": 110}, {"time": 26399, "pitch": 57, "duration": 370, "velocity": 110}, {"time": 26409, "pitch": 60, "duration": 350, "velocity": 115}, {"time": 26409, "pitch": 65, "duration": 350, "velocity": 120}, {"time": 26759, "pitch": 60, "duration": 80, "velocity": 95}, {"time": 26759, "pitch": 65, "duration": 80, "velocity": 100}, {"time": 26769, "pitch": 53, "duration": 70, "velocity": 100}, {"time": 26769, "pitch": 57, "duration": 70, "velocity": 90}, {"time": 26879, "pitch": 52, "duration": 250, "velocity": 110}, {"time": 26879, "pitch": 55, "duration": 250, "velocity": 105}, {"time": 26889, "pitch": 60, "duration": 230, "velocity": 100}, {"time": 26889, "pitch": 64, "duration": 230, "velocity": 110}, {"time": 27119, "pitch": 60, "duration": 250, "velocity": 90}, {"time": 27119, "pitch": 64, "duration": 250, "velocity": 100}, {"time": 27129, "pitch": 52, "duration": 230, "velocity": 100}, {"time": 27129, "pitch": 55, "duration": 230, "velocity": 95}, {"time": 27359, "pitch": 52, "duration": 370, "velocity": 110}, {"time": 27359, "pitch": 55, "duration": 370, "velocity": 110}, {"time": 27369, "pitch": 60, "duration": 350, "velocity": 115}, {"time": 27369, "pitch": 64, "duration": 350, "velocity": 120}, {"time": 27719, "pitch": 60, "duration": 130, "velocity": 95}, {"time": 27719, "pitch": 64, "duration": 130, "velocity": 100}, {"time": 27729, "pitch": 52, "duration": 110, "velocity": 100}, {"time": 27729, "pitch": 55, "duration": 110, "velocity": 90}, {"time": 27839, "pitch": 52, "duration": 130, "velocity": 110}, {"time": 27839, "pitch": 55, "duration": 130, "velocity": 105}, {"time": 27849, "pitch": 60, "duration": 110, "velocity": 100}, {"time": 27849, "pitch": 64, "duration": 110, "velocity": 110}, {"time": 27959, "pitch": 60, "duration": 130, "velocity": 90}, {"time": 27959, "pitch": 64, "duration": 130, "velocity": 100}, {"time": 27969, "pitch": 52, "duration": 110, "velocity": 100}, {"time": 27969, "pitch": 55, "duration": 110, "velocity": 95}, {"time": 28079, "pitch": 52, "duration": 240, "velocity": 110}, {"time": 28079, "pitch": 55, "duration": 240, "velocity": 105}, {"time": 28089, "pitch": 60, "duration": 240, "velocity": 100}, {"time": 28089, "pitch": 64, "duration": 230, "velocity": 110}, {"time": 28319, "pitch": 52, "duration": 370, "velocity": 110}, {"time": 28319, "pitch": 55, "duration": 370, "velocity": 110}, {"time": 28329, "pitch": 60, "duration": 350, "velocity": 115}, {"time": 28329, "pitch": 64, "duration": 350, "velocity": 120}, {"time": 28679, "pitch": 60, "duration": 80, "velocity": 95}, {"time": 28679, "pitch": 64, "duration": 80, "velocity": 100}, {"time": 28689, "pitch": 52, "duration": 70, "velocity": 100}, {"time": 28689, "pitch": 55, "duration": 70, "velocity": 90}, {"time": 28799, "pitch": 53, "duration": 250, "velocity": 110}, {"time": 28799, "pitch": 57, "duration": 250, "velocity": 105}, {"time": 28809, "pitch": 60, "duration": 230, "velocity": 100}, {"time": 28809, "pitch": 65, "duration": 230, "velocity": 110}, {"time": 29039, "pitch": 60, "duration": 250, "velocity": 90}, {"time": 29039, "pitch": 65, "duration": 250, "velocity": 100}, {"time": 29049, "pitch": 53, "duration": 230, "velocity": 100}, {"time": 29049, "pitch": 57, "duration": 230, "velocity": 95}, {"time": 29279, "pitch": 53, "duration": 370, "velocity": 110}, {"time": 29279, "pitch": 57, "duration": 370, "velocity": 110}, {"time": 29289, "pitch": 60, "duration": 350, "velocity": 115}, {"time": 29289, "pitch": 65, "duration": 350, "velocity": 120}, {"time": 29639, "pitch": 60, "duration": 130, "velocity": 95}, {"time": 29639, "pitch": 65, "duration": 130, "velocity": 100}, {"time": 29649, "pitch": 53, "duration": 110, "velocity": 100}, {"time": 29649, "pitch": 57, "duration": 110, "velocity": 90}, {"time": 29759, "pitch": 53, "duration": 130, "velocity": 110}, {"time": 29759, "pitch": 57, "duration": 130, "velocity": 105}, {"time": 29769, "pitch": 60, "duration": 110, "velocity": 100}, {"time": 29769, "pitch": 65, "duration": 110, "velocity": 110}, {"time": 29879, "pitch": 60, "duration": 130, "velocity": 90}, {"time": 29879, "pitch": 65, "duration": 130, "velocity": 100}, {"time": 29889, "pitch": 53, "duration": 110, "velocity": 100}, {"time": 29889, "pitch": 57, "duration": 110, "velocity": 95}, {"time": 29999, "pitch": 53, "duration": 240, "velocity": 110}, {"time": 29999, "pitch": 57, "duration": 240, "velocity": 105}, {"time": 30009, "pitch": 60, "duration": 240, "velocity": 100}, {"time": 30009, "pitch": 65, "duration": 230, "velocity": 110}, {"time": 30239, "pitch": 53, "duration": 370, "velocity": 110}, {"time": 30239, "pitch": 57, "duration": 370, "velocity": 110}, {"time": 30249, "pitch": 60, "duration": 350, "velocity": 115}, {"time": 30249, "pitch": 65, "duration": 350, "velocity": 120}, {"time": 30599, "pitch": 60, "duration": 80, "velocity": 95}, {"time": 30599, "pitch": 65, "duration": 80, "velocity": 100}, {"time": 30609, "pitch": 53, "duration": 70, "velocity": 100}, {"time": 30609, "pitch": 57, "duration": 70, "velocity": 90}, {"time": 30719, "pitch": 52, "duration": 250, "velocity": 120}, {"time": 30719, "pitch": 57, "duration": 250, "velocity": 115}, {"time": 30729, "pitch": 60, "duration": 230, "velocity": 110}, {"time": 30729, "pitch": 64, "duration": 230, "velocity": 120}, {"time": 30959, "pitch": 60, "duration": 250, "velocity": 100}, {"time": 30959, "pitch": 64, "duration": 250, "velocity": 110}, {"time": 30969, "pitch": 52, "duration": 230, "velocity": 110}, {"time": 30969, "pitch": 57, "duration": 230, "velocity": 105}, {"time": 31199, "pitch": 52, "duration": 250, "velocity": 120}, {"time": 31199, "pitch": 57, "duration": 250, "velocity": 115}, {"time": 31209, "pitch": 60, "duration": 230, "velocity": 110}, {"time": 31209, "pitch": 64, "duration": 230, "velocity": 120}, {"time": 31439, "pitch": 60, "duration": 250, "velocity": 100}, {"time": 31439, "pitch": 64, "duration": 250, "velocity": 110}, {"time": 31449, "pitch": 52, "duration": 230, "velocity": 110}, {"time": 31449, "pitch": 57, "duration": 230, "velocity": 105}, {"time": 31679, "pitch": 50, "duration": 250, "velocity": 120}, {"time": 31679, "pitch": 55, "duration": 250, "velocity": 115}, {"time": 31689, "pitch": 59, "duration": 230, "velocity": 110}, {"time": 31689, "pitch": 67, "duration": 230, "velocity": 120}, {"time": 32639, "pitch": 40, "duration": 40, "velocity": 110}, {"time": 32639, "pitch": 48, "duration": 40, "velocity": 105}, {"time": 32649, "pitch": 52, "duration": 40, "velocity": 100}, {"time": 32649, "pitch": 55, "duration": 40, "velocity": 110}, {"time": 32879, "pitch": 52, "duration": 40, "velocity": 100}, {"time": 32879, "pitch": 55, "duration": 40, "velocity": 110}, {"time": 32889, "pitch": 40, "duration": 40, "velocity": 110}, {"time": 32889, "pitch": 48, "duration": 40, "velocity": 105}, {"time": 33119, "pitch": 52, "duration": 360, "velocity": 110}, {"time": 33119, "pitch": 55, "duration": 360, "velocity": 110}, {"time": 33129, "pitch": 60, "duration": 350, "velocity": 115}, {"time": 33129, "pitch": 64, "duration": 350, "velocity": 120}, {"time": 33479, "pitch": 55, "duration": 30, "velocity": 105}, {"time": 33479, "pitch": 60, "duration": 30, "velocity": 110}, {"time": 33489, "pitch": 48, "duration": 30, "velocity": 110}, {"time": 33489, "pitch": 52, "duration": 30, "velocity": 100}, {"time": 33599, "pitch": 40, "duration": 40, "velocity": 110}, {"time": 33599, "pitch": 45, "duration": 40, "velocity": 105}, {"time": 33609, "pitch": 52, "duration": 40, "velocity": 100}, {"time": 33609, "pitch": 57, "duration": 40, "velocity": 110}, {"time": 33839, "pitch": 52, "duration": 40, "velocity": 100}, {"time": 33839, "pitch": 57, "duration": 40, "velocity": 110}, {"time": 33849, "pitch": 40, "duration": 40, "velocity": 110}, {"time": 33849, "pitch": 45, "duration": 40, "velocity": 105}, {"time": 34079, "pitch": 52, "duration": 359, "velocity": 110}, {"time": 34079, "pitch": 57, "duration": 359, "velocity": 110}, {"time": 34089, "pitch": 60, "duration": 349, "velocity": 115}, {"time": 34089, "pitch": 64, "duration": 349, "velocity": 120}, {"time": 34438, "pitch": 57, "duration": 30, "velocity": 105}, {"time": 34438, "pitch": 60, "duration": 30, "velocity": 110}, {"time": 34448, "pitch": 45, "duration": 30, "velocity": 110}, {"time": 34448, "pitch": 52, "duration": 30, "velocity": 100}, {"time": 34558, "pitch": 43, "duration": 40, "velocity": 110}, {"time": 34558, "pitch": 47, "duration": 40, "velocity": 105}, {"time": 34568, "pitch": 50, "duration": 40, "velocity": 100}, {"time": 34568, "pitch": 55, "duration": 40, "velocity": 110}, {"time": 34798, "pitch": 50, "duration": 40, "velocity": 100}, {"time": 34798, "pitch": 55, "duration": 40, "velocity": 110}, {"time": 34808, "pitch": 43, "duration": 40, "velocity": 110}, {"time": 34808, "pitch": 47, "duration": 40, "velocity": 105}, {"time": 35038, "pitch": 50, "duration": 360, "velocity": 110}, {"time": 35038, "pitch": 55, "duration": 360, "velocity": 110}, {"time": 35048, "pitch": 59, "duration": 350, "velocity": 115}, {"time": 35048, "pitch": 67, "duration": 350, "velocity": 120}, {"time": 35398, "pitch": 55, "duration": 30, "velocity": 105}, {"time": 35398, "pitch": 59, "duration": 30, "velocity": 110}, {"time": 35408, "pitch": 47, "duration": 30, "velocity": 110}, {"time": 35408, "pitch": 50, "duration": 30, "velocity": 100}, {"time": 35518, "pitch": 41, "duration": 40, "velocity": 110}, {"time": 35518, "pitch": 45, "duration": 40, "velocity": 105}, {"time": 35528, "pitch": 53, "duration": 40, "velocity": 100}, {"time": 35528, "pitch": 57, "duration": 40, "velocity": 110}, {"time": 35758, "pitch": 53, "duration": 40, "velocity": 100}, {"time": 35758, "pitch": 57, "duration": 40, "velocity": 110}, {"time": 35768, "pitch": 41, "duration": 40, "velocity": 110}, {"time": 35768, "pitch": 45, "duration": 40, "velocity": 105}, {"time": 35998, "pitch": 53, "duration": 360, "velocity": 110}, {"time": 35998, "pitch": 57, "duration": 360, "velocity": 110}, {"time": 36008, "pitch": 60, "duration": 350, "velocity": 115}, {"time": 36008, "pitch": 65, "duration": 350, "velocity": 120}, {"time": 36358, "pitch": 57, "duration": 30, "velocity": 105}, {"time": 36358, "pitch": 60, "duration": 30, "velocity": 110}, {"time": 36368, "pitch": 45, "duration": 30, "velocity": 110}, {"time": 36368, "pitch": 53, "duration": 30, "velocity": 100}, {"time": 36478, "pitch": 40, "duration": 40, "velocity": 110}, {"time": 36478, "pitch": 48, "duration": 40, "velocity": 105}, {"time": 36488, "pitch": 52, "duration": 40, "velocity": 100}, {"time": 36488, "pitch": 55, "duration": 40, "velocity": 110}, {"time": 36718, "pitch": 52, "duration": 40, "velocity": 100}, {"time": 36718, "pitch": 55, "duration": 40, "velocity": 110}, {"time": 36728, "pitch": 40, "duration": 40, "velocity": 110}, {"time": 36728, "pitch": 48, "duration": 40, "velocity": 105}, {"time": 36958, "pitch": 52, "duration": 360, "velocity": 110}, {"time": 36958, "pitch": 55, "duration": 360, "velocity": 110}, {"time": 36968, "pitch": 60, "duration": 350, "velocity": 115}, {"time": 36968, "pitch": 64, "duration": 350, "velocity": 120}, {"time": 37318, "pitch": 55, "duration": 30, "velocity": 105}, {"time": 37318, "pitch": 60, "duration": 30, "velocity": 110}, {"time": 37328, "pitch": 48, "duration": 30, "velocity": 110}, {"time": 37328, "pitch": 52, "duration": 30, "velocity": 100}, {"time": 37438, "pitch": 40, "duration": 40, "velocity": 110}, {"time": 37438, "pitch": 45, "duration": 40, "velocity": 105}, {"time": 37448, "pitch": 52, "duration": 40, "velocity": 100}, {"time": 37448, "pitch": 57, "duration": 40, "velocity": 110}, {"time": 37678, "pitch": 52, "duration": 40, "velocity": 100}, {"time": 37678, "pitch": 57, "duration": 40, "velocity": 110}, {"time": 37688, "pitch": 40, "duration": 40, "velocity": 110}, {"time": 37688, "pitch": 45, "duration": 40, "velocity": 105}, {"time": 37918, "pitch": 52, "duration": 360, "velocity": 110}, {"time": 37918, "pitch": 57, "duration": 360, "velocity": 110}, {"time": 37928, "pitch": 60, "duration": 350, "velocity": 115}, {"time": 37928, "pitch": 64, "duration": 350, "velocity": 120}, {"time": 38278, "pitch": 57, "duration": 30, "velocity": 105}, {"time": 38278, "pitch": 60, "duration": 30, "velocity": 110}, {"time": 38288, "pitch": 45, "duration": 30, "velocity": 110}, {"time": 38288, "pitch": 52, "duration": 30, "velocity": 100}, {"time": 38398, "pitch": 43, "duration": 40, "velocity": 110}, {"time": 38398, "pitch": 47, "duration": 40, "velocity": 105}, {"time": 38408, "pitch": 50, "duration": 40, "velocity": 100}, {"time": 38408, "pitch": 55, "duration": 40, "velocity": 110}, {"time": 38638, "pitch": 50, "duration": 40, "velocity": 100}, {"time": 38638, "pitch": 55, "duration": 40, "velocity": 110}, {"time": 38648, "pitch": 43, "duration": 40, "velocity": 110}, {"time": 38648, "pitch": 47, "duration": 40, "velocity": 105}, {"time": 38878, "pitch": 50, "duration": 360, "velocity": 110}, {"time": 38878, "pitch": 55, "duration": 360, "velocity": 110}, {"time": 38888, "pitch": 59, "duration": 350, "velocity": 115}, {"time": 38888, "pitch": 67, "duration": 350, "velocity": 120}, {"time": 39238, "pitch": 55, "duration": 30, "velocity": 105}, {"time": 39238, "pitch": 59, "duration": 30, "velocity": 110}, {"time": 39248, "pitch": 47, "duration": 30, "velocity": 110}, {"time": 39248, "pitch": 50, "duration": 30, "velocity": 100}, {"time": 39358, "pitch": 41, "duration": 40, "velocity": 110}, {"time": 39358, "pitch": 45, "duration": 40, "velocity": 105}, {"time": 39368, "pitch": 53, "duration": 40, "velocity": 100}, {"time": 39368, "pitch": 57, "duration": 40, "velocity": 110}, {"time": 39598, "pitch": 53, "duration": 40, "velocity": 100}, {"time": 39598, "pitch": 57, "duration": 40, "velocity": 110}, {"time": 39608, "pitch": 41, "duration": 40, "velocity": 110}, {"time": 39608, "pitch": 45, "duration": 40, "velocity": 105}, {"time": 39838, "pitch": 53, "duration": 360, "velocity": 110}, {"time": 39838, "pitch": 57, "duration": 360, "velocity": 110}, {"time": 39848, "pitch": 60, "duration": 350, "velocity": 115}, {"time": 39848, "pitch": 65, "duration": 350, "velocity": 120}, {"time": 40198, "pitch": 57, "duration": 30, "velocity": 105}, {"time": 40198, "pitch": 60, "duration": 30, "velocity": 110}, {"time": 40208, "pitch": 45, "duration": 30, "velocity": 110}, {"time": 40208, "pitch": 53, "duration": 30, "velocity": 100}, {"time": 40318, "pitch": 40, "duration": 40, "velocity": 110}, {"time": 40318, "pitch": 48, "duration": 40, "velocity": 105}, {"time": 40328, "pitch": 52, "duration": 40, "velocity": 100}, {"time": 40328, "pitch": 55, "duration": 40, "velocity": 110}, {"time": 40558, "pitch": 52, "duration": 40, "velocity": 100}, {"time": 40558, "pitch": 55, "duration": 40, "velocity": 110}, {"time": 40568, "pitch": 40, "duration": 40, "velocity": 110}, {"time": 40568, "pitch": 48, "duration": 40, "velocity": 105}, {"time": 40798, "pitch": 52, "duration": 360, "velocity": 110}, {"time": 40798, "pitch": 55, "duration": 360, "velocity": 110}, {"time": 40808, "pitch": 60, "duration": 350, "velocity": 115}, {"time": 40808, "pitch": 64, "duration": 350, "velocity": 120}, {"time": 41158, "pitch": 55, "duration": 30, "velocity": 105}, {"time": 41158, "pitch": 60, "duration": 30, "velocity": 110}, {"time": 41168, "pitch": 48, "duration": 30, "velocity": 110}, {"time": 41168, "pitch": 52, "duration": 30, "velocity": 100}, {"time": 41278, "pitch": 40, "duration": 40, "velocity": 110}, {"time": 41278, "pitch": 48, "duration": 40, "velocity": 105}, {"time": 41288, "pitch": 52, "duration": 40, "velocity": 100}, {"time": 41288, "pitch": 55, "duration": 40, "velocity": 110}, {"time": 41518, "pitch": 52, "duration": 40, "velocity": 100}, {"time": 41518, "pitch": 55, "duration": 40, "velocity": 110}, {"time": 41528, "pitch": 40, "duration": 40, "velocity": 110}, {"time": 41528, "pitch": 48, "duration": 40, "velocity": 105}, {"time": 41758, "pitch": 52, "duration": 360, "velocity": 110}, {"time": 41758, "pitch": 55, "duration": 360, "velocity": 110}, {"time": 41768, "pitch": 60, "duration": 350, "velocity": 115}, {"time": 41768, "pitch": 64, "duration": 350, "velocity": 120}, {"time": 42118, "pitch": 55, "duration": 30, "velocity": 105}, {"time": 42118, "pitch": 60, "duration": 30, "velocity": 110}, {"time": 42128, "pitch": 48, "duration": 30, "velocity": 110}, {"time": 42128, "pitch": 52, "duration": 30, "velocity": 100}, {"time": 42238, "pitch": 41, "duration": 40, "velocity": 110}, {"time": 42238, "pitch": 45, "duration": 40, "velocity": 105}, {"time": 42248, "pitch": 53, "duration": 40, "velocity": 100}, {"time": 42248, "pitch": 57, "duration": 40, "velocity": 110}, {"time": 42478, "pitch": 53, "duration": 40, "velocity": 100}, {"time": 42478, "pitch": 57, "duration": 40, "velocity": 110}, {"time": 42488, "pitch": 41, "duration": 40, "velocity": 110}, {"time": 42488, "pitch": 45, "duration": 40, "velocity": 105}, {"time": 42718, "pitch": 53, "duration": 360, "velocity": 110}, {"time": 42718, "pitch": 57, "duration": 360, "velocity": 110}, {"time": 42728, "pitch": 60, "duration": 350, "velocity": 115}, {"time": 42728, "pitch": 65, "duration": 350, "velocity": 120}, {"time": 43078, "pitch": 57, "duration": 30, "velocity": 105}, {"time": 43078, "pitch": 60, "duration": 30, "velocity": 110}, {"time": 43088, "pitch": 45, "duration": 30, "velocity": 110}, {"time": 43088, "pitch": 53, "duration": 30, "velocity": 100}, {"time": 43198, "pitch": 41, "duration": 40, "velocity": 110}, {"time": 43198, "pitch": 45, "duration": 40, "velocity": 105}, {"time": 43208, "pitch": 53, "duration": 40, "velocity": 100}, {"time": 43208, "pitch": 57, "duration": 40, "velocity": 110}, {"time": 43438, "pitch": 53, "duration": 40, "velocity": 100}, {"time": 43438, "pitch": 57, "duration": 40, "velocity": 110}, {"time": 43448, "pitch": 41, "duration": 40, "velocity": 110}, {"time": 43448, "pitch": 45, "duration": 40, "velocity": 105}, {"time": 43678, "pitch": 53, "duration": 360, "velocity": 110}, {"time": 43678, "pitch": 57, "duration": 360, "velocity": 110}, {"time": 43688, "pitch": 60, "duration": 350, "velocity": 115}, {"time": 43688, "pitch": 65, "duration": 350, "velocity": 120}, {"time": 44038, "pitch": 57, "duration": 30, "velocity": 105}, {"time": 44038, "pitch": 60, "duration": 30, "velocity": 110}, {"time": 44048, "pitch": 45, "duration": 30, "velocity": 110}, {"time": 44048, "pitch": 53, "duration": 30, "velocity": 100}, {"time": 44158, "pitch": 40, "duration": 40, "velocity": 110}, {"time": 44158, "pitch": 45, "duration": 40, "velocity": 105}, {"time": 44168, "pitch": 52, "duration": 40, "velocity": 100}, {"time": 44168, "pitch": 57, "duration": 40, "velocity": 110}, {"time": 44398, "pitch": 52, "duration": 40, "velocity": 100}, {"time": 44398, "pitch": 57, "duration": 40, "velocity": 110}, {"time": 44408, "pitch": 40, "duration": 40, "velocity": 110}, {"time": 44408, "pitch": 45, "duration": 40, "velocity": 105}, {"time": 44638, "pitch": 52, "duration": 360, "velocity": 110}, {"time": 44638, "pitch": 57, "duration": 360, "velocity": 110}, {"time": 44648, "pitch": 60, "duration": 350, "velocity": 115}, {"time": 44648, "pitch": 64, "duration": 350, "velocity": 120}, {"time": 44998, "pitch": 57, "duration": 30, "velocity": 105}, {"time": 44998, "pitch": 60, "duration": 30, "velocity": 110}, {"time": 45008, "pitch": 45, "duration": 30, "velocity": 110}, {"time": 45008, "pitch": 52, "duration": 30, "velocity": 100}, {"time": 45118, "pitch": 40, "duration": 40, "velocity": 110}, {"time": 45118, "pitch": 45, "duration": 40, "velocity": 105}, {"time": 45128, "pitch": 52, "duration": 40, "velocity": 100}, {"time": 45128, "pitch": 57, "duration": 40, "velocity": 110}, {"time": 45358, "pitch": 52, "duration": 40, "velocity": 100}, {"time": 45358, "pitch": 57, "duration": 40, "velocity": 110}, {"time": 45368, "pitch": 40, "duration": 40, "velocity": 110}, {"time": 45368, "pitch": 45, "duration": 40, "velocity": 105}, {"time": 45598, "pitch": 52, "duration": 360, "velocity": 110}, {"time": 45598, "pitch": 57, "duration": 360, "velocity": 110}, {"time": 45608, "pitch": 60, "duration": 350, "velocity": 115}, {"time": 45608, "pitch": 64, "duration": 350, "velocity": 120}, {"time": 45958, "pitch": 57, "duration": 30, "velocity": 105}, {"time": 45958, "pitch": 60, "duration": 30, "velocity": 110}, {"time": 45968, "pitch": 45, "duration": 30, "velocity": 110}, {"time": 45968, "pitch": 52, "duration": 30, "velocity": 100}, {"time": 46078, "pitch": 43, "duration": 40, "velocity": 110}, {"time": 46078, "pitch": 47, "duration": 40, "velocity": 105}, {"time": 46088, "pitch": 50, "duration": 40, "velocity": 100}, {"time": 46088, "pitch": 55, "duration": 40, "velocity": 110}, {"time": 46318, "pitch": 50, "duration": 40, "velocity": 100}, {"time": 46318, "pitch": 55, "duration": 40, "velocity": 110}, {"time": 46328, "pitch": 43, "duration": 40, "velocity": 110}, {"time": 46328, "pitch": 47, "duration": 40, "velocity": 105}, {"time": 46438, "pitch": 50, "duration": 360, "velocity": 110}, {"time": 46438, "pitch": 55, "duration": 360, "velocity": 110}, {"time": 46448, "pitch": 59, "duration": 350, "velocity": 115}, {"time": 46448, "pitch": 67, "duration": 350, "velocity": 120}, {"time": 46798, "pitch": 52, "duration": 360, "velocity": 110}, {"time": 46798, "pitch": 55, "duration": 360, "velocity": 110}, {"time": 46808, "pitch": 60, "duration": 350, "velocity": 115}, {"time": 46808, "pitch": 64, "duration": 350, "velocity": 120}, {"time": 47158, "pitch": 55, "duration": 30, "velocity": 105}, {"time": 47158, "pitch": 60, "duration": 30, "velocity": 110}, {"time": 47168, "pitch": 48, "duration": 30, "velocity": 110}, {"time": 47168, "pitch": 52, "duration": 30, "velocity": 100}, {"time": 47278, "pitch": 40, "duration": 40, "velocity": 110}, {"time": 47278, "pitch": 48, "duration": 40, "velocity": 105}, {"time": 47288, "pitch": 52, "duration": 40, "velocity": 100}, {"time": 47288, "pitch": 55, "duration": 40, "velocity": 110}, {"time": 47518, "pitch": 52, "duration": 360, "velocity": 110}, {"time": 47518, "pitch": 55, "duration": 360, "velocity": 110}, {"time": 47528, "pitch": 60, "duration": 350, "velocity": 115}, {"time": 47528, "pitch": 64, "duration": 350, "velocity": 120}, {"time": 47878, "pitch": 55, "duration": 30, "velocity": 105}, {"time": 47878, "pitch": 60, "duration": 30, "velocity": 110}, {"time": 47888, "pitch": 48, "duration": 30, "velocity": 110}, {"time": 47888, "pitch": 52, "duration": 30, "velocity": 100}, {"time": 47998, "pitch": 40, "duration": 40, "velocity": 110}, {"time": 47998, "pitch": 48, "duration": 40, "velocity": 105}, {"time": 48008, "pitch": 52, "duration": 40, "velocity": 100}, {"time": 48008, "pitch": 55, "duration": 40, "velocity": 110}, {"time": 48238, "pitch": 52, "duration": 40, "velocity": 100}, {"time": 48238, "pitch": 55, "duration": 40, "velocity": 110}, {"time": 48248, "pitch": 40, "duration": 40, "velocity": 110}, {"time": 48248, "pitch": 48, "duration": 40, "velocity": 105}, {"time": 48478, "pitch": 52, "duration": 360, "velocity": 110}, {"time": 48478, "pitch": 55, "duration": 360, "velocity": 110}, {"time": 48488, "pitch": 60, "duration": 350, "velocity": 115}, {"time": 48488, "pitch": 64, "duration": 350, "velocity": 120}, {"time": 48838, "pitch": 55, "duration": 30, "velocity": 105}, {"time": 48838, "pitch": 60, "duration": 30, "velocity": 110}, {"time": 48848, "pitch": 48, "duration": 30, "velocity": 110}, {"time": 48848, "pitch": 52, "duration": 30, "velocity": 100}, {"time": 48958, "pitch": 40, "duration": 40, "velocity": 110}, {"time": 48958, "pitch": 48, "duration": 40, "velocity": 105}, {"time": 48968, "pitch": 52, "duration": 40, "velocity": 100}, {"time": 48968, "pitch": 55, "duration": 40, "velocity": 110}, {"time": 49198, "pitch": 52, "duration": 40, "velocity": 100}, {"time": 49198, "pitch": 55, "duration": 40, "velocity": 110}, {"time": 49208, "pitch": 40, "duration": 40, "velocity": 110}, {"time": 49208, "pitch": 48, "duration": 40, "velocity": 105}, {"time": 49438, "pitch": 52, "duration": 360, "velocity": 110}, {"time": 49438, "pitch": 55, "duration": 360, "velocity": 110}, {"time": 49448, "pitch": 60, "duration": 350, "velocity": 115}, {"time": 49448, "pitch": 64, "duration": 350, "velocity": 120}, {"time": 49798, "pitch": 55, "duration": 30, "velocity": 105}, {"time": 49798, "pitch": 60, "duration": 30, "velocity": 110}, {"time": 49808, "pitch": 48, "duration": 30, "velocity": 110}, {"time": 49808, "pitch": 52, "duration": 30, "velocity": 100}, {"time": 49918, "pitch": 41, "duration": 40, "velocity": 110}, {"time": 49918, "pitch": 45, "duration": 40, "velocity": 105}, {"time": 49928, "pitch": 53, "duration": 40, "velocity": 100}, {"time": 49928, "pitch": 57, "duration": 40, "velocity": 110}, {"time": 50158, "pitch": 53, "duration": 40, "velocity": 100}, {"time": 50158, "pitch": 57, "duration": 40, "velocity": 110}, {"time": 50168, "pitch": 41, "duration": 40, "velocity": 110}, {"time": 50168, "pitch": 45, "duration": 40, "velocity": 105}, {"time": 50398, "pitch": 53, "duration": 360, "velocity": 110}, {"time": 50398, "pitch": 57, "duration": 360, "velocity": 110}, {"time": 50408, "pitch": 60, "duration": 350, "velocity": 115}, {"time": 50408, "pitch": 65, "duration": 350, "velocity": 120}, {"time": 50758, "pitch": 57, "duration": 30, "velocity": 105}, {"time": 50758, "pitch": 60, "duration": 30, "velocity": 110}, {"time": 50768, "pitch": 45, "duration": 30, "velocity": 110}, {"time": 50768, "pitch": 53, "duration": 30, "velocity": 100}, {"time": 50878, "pitch": 41, "duration": 40, "velocity": 110}, {"time": 50878, "pitch": 45, "duration": 40, "velocity": 105}, {"time": 50888, "pitch": 53, "duration": 40, "velocity": 100}, {"time": 50888, "pitch": 57, "duration": 40, "velocity": 110}, {"time": 51118, "pitch": 53, "duration": 40, "velocity": 100}, {"time": 51118, "pitch": 57, "duration": 40, "velocity": 110}, {"time": 51128, "pitch": 41, "duration": 40, "velocity": 110}, {"time": 51128, "pitch": 45, "duration": 40, "velocity": 105}, {"time": 51358, "pitch": 53, "duration": 360, "velocity": 110}, {"time": 51358, "pitch": 57, "duration": 360, "velocity": 110}, {"time": 51368, "pitch": 60, "duration": 350, "velocity": 115}, {"time": 51368, "pitch": 65, "duration": 350, "velocity": 120}, {"time": 51718, "pitch": 57, "duration": 30, "velocity": 105}, {"time": 51718, "pitch": 60, "duration": 30, "velocity": 110}, {"time": 51728, "pitch": 45, "duration": 30, "velocity": 110}, {"time": 51728, "pitch": 53, "duration": 30, "velocity": 100}, {"time": 51838, "pitch": 40, "duration": 40, "velocity": 110}, {"time": 51838, "pitch": 45, "duration": 40, "velocity": 105}, {"time": 51848, "pitch": 52, "duration": 40, "velocity": 100}, {"time": 51848, "pitch": 57, "duration": 40, "velocity": 110}, {"time": 52078, "pitch": 52, "duration": 40, "velocity": 100}, {"time": 52078, "pitch": 57, "duration": 40, "velocity": 110}, {"time": 52088, "pitch": 40, "duration": 40, "velocity": 110}, {"time": 52088, "pitch": 45, "duration": 40, "velocity": 105}, {"time": 52318, "pitch": 52, "duration": 360, "velocity": 110}, {"time": 52318, "pitch": 57, "duration": 360, "velocity": 110}, {"time": 52328, "pitch": 60, "duration": 350, "velocity": 115}, {"time": 52328, "pitch": 64, "duration": 350, "velocity": 120}, {"time": 52678, "pitch": 57, "duration": 30, "velocity": 105}, {"time": 52678, "pitch": 60, "duration": 30, "velocity": 110}, {"time": 52688, "pitch": 45, "duration": 30, "velocity": 110}, {"time": 52688, "pitch": 52, "duration": 30, "velocity": 100}, {"time": 52798, "pitch": 40, "duration": 40, "velocity": 110}, {"time": 52798, "pitch": 45, "duration": 40, "velocity": 105}, {"time": 52808, "pitch": 52, "duration": 40, "velocity": 100}, {"time": 52808, "pitch": 57, "duration": 40, "velocity": 110}, {"time": 53038, "pitch": 52, "duration": 40, "velocity": 100}, {"time": 53038, "pitch": 57, "duration": 40, "velocity": 110}, {"time": 53048, "pitch": 40, "duration": 40, "velocity": 110}, {"time": 53048, "pitch": 45, "duration": 40, "velocity": 105}, {"time": 53278, "pitch": 52, "duration": 360, "velocity": 110}, {"time": 53278, "pitch": 57, "duration": 360, "velocity": 110}, {"time": 53288, "pitch": 60, "duration": 350, "velocity": 115}, {"time": 53288, "pitch": 64, "duration": 350, "velocity": 120}, {"time": 53638, "pitch": 57, "duration": 30, "velocity": 105}, {"time": 53638, "pitch": 60, "duration": 30, "velocity": 110}, {"time": 53648, "pitch": 45, "duration": 30, "velocity": 110}, {"time": 53648, "pitch": 52, "duration": 30, "velocity": 100}, {"time": 53758, "pitch": 43, "duration": 40, "velocity": 110}, {"time": 53758, "pitch": 47, "duration": 40, "velocity": 105}, {"time": 53768, "pitch": 50, "duration": 40, "velocity": 100}, {"time": 53768, "pitch": 55, "duration": 40, "velocity": 110}, {"time": 53998, "pitch": 50, "duration": 40, "velocity": 100}, {"time": 53998, "pitch": 55, "duration": 40, "velocity": 110}, {"time": 54008, "pitch": 43, "duration": 40, "velocity": 110}, {"time": 54008, "pitch": 47, "duration": 40, "velocity": 105}, {"time": 54118, "pitch": 50, "duration": 360, "velocity": 110}, {"time": 54118, "pitch": 55, "duration": 360, "velocity": 110}, {"time": 54128, "pitch": 59, "duration": 350, "velocity": 115}, {"time": 54128, "pitch": 67, "duration": 350, "velocity": 120}, {"time": 54478, "pitch": 52, "duration": 360, "velocity": 110}, {"time": 54478, "pitch": 55, "duration": 360, "velocity": 110}, {"time": 54488, "pitch": 60, "duration": 350, "velocity": 115}, {"time": 54488, "pitch": 64, "duration": 350, "velocity": 120}, {"time": 54838, "pitch": 55, "duration": 30, "velocity": 105}, {"time": 54838, "pitch": 60, "duration": 30, "velocity": 110}, {"time": 54848, "pitch": 48, "duration": 30, "velocity": 110}, {"time": 54848, "pitch": 52, "duration": 30, "velocity": 100}, {"time": 54958, "pitch": 40, "duration": 40, "velocity": 110}, {"time": 54958, "pitch": 48, "duration": 40, "velocity": 105}, {"time": 54968, "pitch": 52, "duration": 40, "velocity": 100}, {"time": 54968, "pitch": 55, "duration": 40, "velocity": 110}, {"time": 55198, "pitch": 52, "duration": 360, "velocity": 110}, {"time": 55198, "pitch": 55, "duration": 360, "velocity": 110}, {"time": 55208, "pitch": 60, "duration": 350, "velocity": 115}, {"time": 55208, "pitch": 64, "duration": 350, "velocity": 120}, {"time": 55558, "pitch": 55, "duration": 30, "velocity": 105}, {"time": 55558, "pitch": 60, "duration": 30, "velocity": 110}, {"time": 55568, "pitch": 48, "duration": 30, "velocity": 110}, {"time": 55568, "pitch": 52, "duration": 30, "velocity": 100}, {"time": 55678, "pitch": 53, "duration": 250, "velocity": 110}, {"time": 55678, "pitch": 57, "duration": 250, "velocity": 105}, {"time": 55688, "pitch": 60, "duration": 230, "velocity": 100}, {"time": 55688, "pitch": 65, "duration": 230, "velocity": 110}, {"time": 55918, "pitch": 60, "duration": 250, "velocity": 90}, {"time": 55918, "pitch": 65, "duration": 250, "velocity": 100}, {"time": 55928, "pitch": 53, "duration": 230, "velocity": 100}, {"time": 55928, "pitch": 57, "duration": 230, "velocity": 95}, {"time": 56158, "pitch": 53, "duration": 370, "velocity": 110}, {"time": 56158, "pitch": 57, "duration": 370, "velocity": 110}, {"time": 56168, "pitch": 60, "duration": 350, "velocity": 115}, {"time": 56168, "pitch": 65, "duration": 350, "velocity": 120}, {"time": 56518, "pitch": 60, "duration": 130, "velocity": 95}, {"time": 56518, "pitch": 65, "duration": 130, "velocity": 100}, {"time": 56528, "pitch": 53, "duration": 110, "velocity": 100}, {"time": 56528, "pitch": 57, "duration": 110, "velocity": 90}, {"time": 56638, "pitch": 53, "duration": 130, "velocity": 110}, {"time": 56638, "pitch": 57, "duration": 130, "velocity": 105}, {"time": 56648, "pitch": 60, "duration": 110, "velocity": 100}, {"time": 56648, "pitch": 65, "duration": 110, "velocity": 110}, {"time": 56758, "pitch": 60, "duration": 130, "velocity": 90}, {"time": 56758, "pitch": 65, "duration": 130, "velocity": 100}, {"time": 56768, "pitch": 53, "duration": 110, "velocity": 100}, {"time": 56768, "pitch": 57, "duration": 110, "velocity": 95}, {"time": 56878, "pitch": 53, "duration": 240, "velocity": 110}, {"time": 56878, "pitch": 57, "duration": 240, "velocity": 105}, {"time": 56888, "pitch": 60, "duration": 240, "velocity": 100}, {"time": 56888, "pitch": 65, "duration": 230, "velocity": 110}, {"time": 57118, "pitch": 53, "duration": 370, "velocity": 110}, {"time": 57118, "pitch": 57, "duration": 370, "velocity": 110}, {"time": 57128, "pitch": 60, "duration": 350, "velocity": 115}, {"time": 57128, "pitch": 65, "duration": 350, "velocity": 120}, {"time": 57478, "pitch": 60, "duration": 80, "velocity": 95}, {"time": 57478, "pitch": 65, "duration": 80, "velocity": 100}, {"time": 57488, "pitch": 53, "duration": 70, "velocity": 100}, {"time": 57488, "pitch": 57, "duration": 70, "velocity": 90}, {"time": 57598, "pitch": 52, "duration": 250, "velocity": 110}, {"time": 57598, "pitch": 55, "duration": 250, "velocity": 105}, {"time": 57608, "pitch": 60, "duration": 230, "velocity": 100}, {"time": 57608, "pitch": 64, "duration": 230, "velocity": 110}, {"time": 57838, "pitch": 60, "duration": 250, "velocity": 90}, {"time": 57838, "pitch": 64, "duration": 250, "velocity": 100}, {"time": 57848, "pitch": 52, "duration": 230, "velocity": 100}, {"time": 57848, "pitch": 55, "duration": 230, "velocity": 95}, {"time": 58078, "pitch": 52, "duration": 370, "velocity": 110}, {"time": 58078, "pitch": 55, "duration": 370, "velocity": 110}, {"time": 58088, "pitch": 60, "duration": 350, "velocity": 115}, {"time": 58088, "pitch": 64, "duration": 350, "velocity": 120}, {"time": 58438, "pitch": 60, "duration": 129, "velocity": 95}, {"time": 58438, "pitch": 64, "duration": 129, "velocity": 100}, {"time": 58448, "pitch": 52, "duration": 110, "velocity": 100}, {"time": 58448, "pitch": 55, "duration": 110, "velocity": 90}, {"time": 58558, "pitch": 52, "duration": 129, "velocity": 110}, {"time": 58558, "pitch": 55, "duration": 129, "velocity": 105}, {"time": 58567, "pitch": 60, "duration": 110, "velocity": 100}, {"time": 58567, "pitch": 64, "duration": 110, "velocity": 110}, {"time": 58677, "pitch": 60, "duration": 130, "velocity": 90}, {"time": 58677, "pitch": 64, "duration": 130, "velocity": 100}, {"time": 58687, "pitch": 52, "duration": 110, "velocity": 100}, {"time": 58687, "pitch": 55, "duration": 110, "velocity": 95}, {"time": 58797, "pitch": 52, "duration": 240, "velocity": 110}, {"time": 58797, "pitch": 55, "duration": 240, "velocity": 105}, {"time": 58807, "pitch": 60, "duration": 240, "velocity": 100}, {"time": 58807, "pitch": 64, "duration": 230, "velocity": 110}, {"time": 59037, "pitch": 52, "duration": 370, "velocity": 110}, {"time": 59037, "pitch": 55, "duration": 370, "velocity": 110}, {"time": 59047, "pitch": 60, "duration": 350, "velocity": 115}, {"time": 59047, "pitch": 64, "duration": 350, "velocity": 120}, {"time": 59397, "pitch": 60, "duration": 80, "velocity": 95}, {"time": 59397, "pitch": 64, "duration": 80, "velocity": 100}, {"time": 59407, "pitch": 52, "duration": 70, "velocity": 100}, {"time": 59407, "pitch": 55, "duration": 70, "velocity": 90}, {"time": 59517, "pitch": 53, "duration": 250, "velocity": 110}, {"time": 59517, "pitch": 57, "duration": 250, "velocity": 105}, {"time": 59527, "pitch": 60, "duration": 230, "velocity": 100}, {"time": 59527, "pitch": 65, "duration": 230, "velocity": 110}, {"time": 59757, "pitch": 60, "duration": 250, "velocity": 90}, {"time": 59757, "pitch": 65, "duration": 250, "velocity": 100}, {"time": 59767, "pitch": 53, "duration": 230, "velocity": 100}, {"time": 59767, "pitch": 57, "duration": 230, "velocity": 95}, {"time": 59997, "pitch": 53, "duration": 370, "velocity": 110}, {"time": 59997, "pitch": 57, "duration": 370, "velocity": 110}, {"time": 60007, "pitch": 60, "duration": 350, "velocity": 115}, {"time": 60007, "pitch": 65, "duration": 350, "velocity": 120}, {"time": 60357, "pitch": 60, "duration": 130, "velocity": 95}, {"time": 60357, "pitch": 65, "duration": 130, "velocity": 100}, {"time": 60367, "pitch": 53, "duration": 110, "velocity": 100}, {"time": 60367, "pitch": 57, "duration": 110, "velocity": 90}, {"time": 60477, "pitch": 53, "duration": 130, "velocity": 110}, {"time": 60477, "pitch": 57, "duration": 130, "velocity": 105}, {"time": 60487, "pitch": 60, "duration": 110, "velocity": 100}, {"time": 60487, "pitch": 65, "duration": 110, "velocity": 110}, {"time": 60597, "pitch": 60, "duration": 130, "velocity": 90}, {"time": 60597, "pitch": 65, "duration": 130, "velocity": 100}, {"time": 60607, "pitch": 53, "duration": 110, "velocity": 100}, {"time": 60607, "pitch": 57, "duration": 110, "velocity": 95}, {"time": 60717, "pitch": 53, "duration": 240, "velocity": 110}, {"time": 60717, "pitch": 57, "duration": 240, "velocity": 105}, {"time": 60727, "pitch": 60, "duration": 240, "velocity": 100}, {"time": 60727, "pitch": 65, "duration": 230, "velocity": 110}, {"time": 60957, "pitch": 53, "duration": 370, "velocity": 110}, {"time": 60957, "pitch": 57, "duration": 370, "velocity": 110}, {"time": 60967, "pitch": 60, "duration": 350, "velocity": 115}, {"time": 60967, "pitch": 65, "duration": 350, "velocity": 120}, {"time": 61317, "pitch": 60, "duration": 80, "velocity": 95}, {"time": 61317, "pitch": 65, "duration": 80, "velocity": 100}, {"time": 61327, "pitch": 53, "duration": 70, "velocity": 100}, {"time": 61327, "pitch": 57, "duration": 70, "velocity": 90}, {"time": 61437, "pitch": 52, "duration": 250, "velocity": 120}, {"time": 61437, "pitch": 57, "duration": 250, "velocity": 115}, {"time": 61447, "pitch": 60, "duration": 230, "velocity": 110}, {"time": 61447, "pitch": 64, "duration": 230, "velocity": 120}, {"time": 61677, "pitch": 60, "duration": 250, "velocity": 100}, {"time": 61677, "pitch": 64, "duration": 250, "velocity": 110}, {"time": 61687, "pitch": 52, "duration": 230, "velocity": 110}, {"time": 61687, "pitch": 57, "duration": 230, "velocity": 105}, {"time": 61917, "pitch": 52, "duration": 250, "velocity": 120}, {"time": 61917, "pitch": 57, "duration": 250, "velocity": 115}, {"time": 61927, "pitch": 60, "duration": 230, "velocity": 110}, {"time": 61927, "pitch": 64, "duration": 230, "velocity": 120}, {"time": 62157, "pitch": 60, "duration": 250, "velocity": 100}, {"time": 62157, "pitch": 64, "duration": 250, "velocity": 110}, {"time": 62167, "pitch": 52, "duration": 230, "velocity": 110}, {"time": 62167, "pitch": 57, "duration": 230, "velocity": 105}, {"time": 62397, "pitch": 50, "duration": 250, "velocity": 120}, {"time": 62397, "pitch": 55, "duration": 250, "velocity": 115}, {"time": 62407, "pitch": 59, "duration": 230, "velocity": 110}, {"time": 62407, "pitch": 67, "duration": 230, "velocity": 120}, {"time": 63357, "pitch": 52, "duration": 250, "velocity": 110}, {"time": 63357, "pitch": 55, "duration": 250, "velocity": 105}, {"time": 63367, "pitch": 60, "duration": 230, "velocity": 100}, {"time": 63367, "pitch": 64, "duration": 230, "velocity": 110}, {"time": 63597, "pitch": 60, "duration": 250, "velocity": 90}, {"time": 63597, "pitch": 64, "duration": 250, "velocity": 100}, {"time": 63607, "pitch": 52, "duration": 230, "velocity": 100}, {"time": 63607, "pitch": 55, "duration": 230, "velocity": 95}, {"time": 63837, "pitch": 52, "duration": 250, "velocity": 110}, {"time": 63837, "pitch": 55, "duration": 250, "velocity": 110}, {"time": 63847, "pitch": 60, "duration": 230, "velocity": 115}, {"time": 63847, "pitch": 64, "duration": 230, "velocity": 120}, {"time": 64077, "pitch": 60, "duration": 230, "velocity": 95}, {"time": 64077, "pitch": 64, "duration": 230, "velocity": 100}, {"time": 64087, "pitch": 52, "duration": 220, "velocity": 100}, {"time": 64087, "pitch": 55, "duration": 220, "velocity": 90}, {"time": 64317, "pitch": 53, "duration": 250, "velocity": 110}, {"time": 64317, "pitch": 57, "duration": 250, "velocity": 105}, {"time": 64327, "pitch": 60, "duration": 230, "velocity": 100}, {"time": 64327, "pitch": 65, "duration": 230, "velocity": 110}, {"time": 64557, "pitch": 60, "duration": 250, "velocity": 90}, {"time": 64557, "pitch": 65, "duration": 250, "velocity": 100}, {"time": 64567, "pitch": 53, "duration": 230, "velocity": 100}, {"time": 64567, "pitch": 57, "duration": 230, "velocity": 95}, {"time": 64797, "pitch": 53, "duration": 250, "velocity": 110}, {"time": 64797, "pitch": 57, "duration": 250, "velocity": 110}, {"time": 64807, "pitch": 60, "duration": 230, "velocity": 115}, {"time": 64807, "pitch": 65, "duration": 230, "velocity": 120}, {"time": 65037, "pitch": 60, "duration": 230, "velocity": 95}, {"time": 65037, "pitch": 65, "duration": 230, "velocity": 100}, {"time": 65047, "pitch": 53, "duration": 220, "velocity": 100}, {"time": 65047, "pitch": 57, "duration": 220, "velocity": 90}, {"time": 65277, "pitch": 50, "duration": 250, "velocity": 110}, {"time": 65277, "pitch": 55, "duration": 250, "velocity": 105}, {"time": 65287, "pitch": 59, "duration": 230, "velocity": 100}, {"time": 65287, "pitch": 67, "duration": 230, "velocity": 110}, {"time": 65517, "pitch": 59, "duration": 250, "velocity": 90}, {"time": 65517, "pitch": 67, "duration": 250, "velocity": 100}, {"time": 65527, "pitch": 50, "duration": 230, "velocity": 100}, {"time": 65527, "pitch": 55, "duration": 230, "velocity": 95}, {"time": 65757, "pitch": 50, "duration": 250, "velocity": 110}, {"time": 65757, "pitch": 55, "duration": 250, "velocity": 110}, {"time": 65767, "pitch": 59, "duration": 230, "velocity": 115}, {"time": 65767, "pitch": 67, "duration": 230, "velocity": 120}, {"time": 65997, "pitch": 59, "duration": 230, "velocity": 95}, {"time": 65997, "pitch": 67, "duration": 230, "velocity": 100}, {"time": 66007, "pitch": 50, "duration": 220, "velocity": 100}, {"time": 66007, "pitch": 55, "duration": 220, "velocity": 90}, {"time": 66237, "pitch": 50, "duration": 250, "velocity": 110}, {"time": 66237, "pitch": 55, "duration": 250, "velocity": 105}, {"time": 66247, "pitch": 59, "duration": 230, "velocity": 100}, {"time": 66247, "pitch": 67, "duration": 230, "velocity": 110}, {"time": 66477, "pitch": 59, "duration": 250, "velocity": 90}, {"time": 66477, "pitch": 67, "duration": 250, "velocity": 100}, {"time": 66487, "pitch": 50, "duration": 230, "velocity": 100}, {"time": 66487, "pitch": 55, "duration": 230, "velocity": 95}, {"time": 66717, "pitch": 50, "duration": 250, "velocity": 110}, {"time": 66717, "pitch": 55, "duration": 250, "velocity": 110}, {"time": 66727, "pitch": 59, "duration": 230, "velocity": 115}, {"time": 66727, "pitch": 67, "duration": 230, "velocity": 120}, {"time": 66957, "pitch": 59, "duration": 230, "velocity": 95}, {"time": 66957, "pitch": 67, "duration": 230, "velocity": 100}, {"time": 66967, "pitch": 50, "duration": 220, "velocity": 100}, {"time": 66967, "pitch": 55, "duration": 220, "velocity": 90}, {"time": 67197, "pitch": 52, "duration": 250, "velocity": 110}, {"time": 67197, "pitch": 57, "duration": 250, "velocity": 105}, {"time": 67207, "pitch": 60, "duration": 230, "velocity": 100}, {"time": 67207, "pitch": 64, "duration": 230, "velocity": 110}, {"time": 67437, "pitch": 60, "duration": 250, "velocity": 90}, {"time": 67437, "pitch": 64, "duration": 250, "velocity": 100}, {"time": 67447, "pitch": 52, "duration": 230, "velocity": 100}, {"time": 67447, "pitch": 57, "duration": 230, "velocity": 95}, {"time": 67677, "pitch": 52, "duration": 250, "velocity": 110}, {"time": 67677, "pitch": 57, "duration": 250, "velocity": 110}, {"time": 67687, "pitch": 60, "duration": 230, "velocity": 115}, {"time": 67687, "pitch": 64, "duration": 230, "velocity": 120}, {"time": 67917, "pitch": 60, "duration": 230, "velocity": 95}, {"time": 67917, "pitch": 64, "duration": 230, "velocity": 100}, {"time": 67927, "pitch": 52, "duration": 220, "velocity": 100}, {"time": 67927, "pitch": 57, "duration": 220, "velocity": 90}, {"time": 68157, "pitch": 53, "duration": 250, "velocity": 110}, {"time": 68157, "pitch": 57, "duration": 250, "velocity": 105}, {"time": 68167, "pitch": 60, "duration": 230, "velocity": 100}, {"time": 68167, "pitch": 65, "duration": 230, "velocity": 110}, {"time": 68397, "pitch": 60, "duration": 250, "velocity": 90}, {"time": 68397, "pitch": 65, "duration": 250, "velocity": 100}, {"time": 68407, "pitch": 53, "duration": 230, "velocity": 100}, {"time": 68407, "pitch": 57, "duration": 230, "velocity": 95}, {"time": 68637, "pitch": 53, "duration": 250, "velocity": 110}, {"time": 68637, "pitch": 57, "duration": 250, "velocity": 110}, {"time": 68647, "pitch": 60, "duration": 230, "velocity": 115}, {"time": 68647, "pitch": 65, "duration": 230, "velocity": 120}, {"time": 68877, "pitch": 60, "duration": 230, "velocity": 95}, {"time": 68877, "pitch": 65, "duration": 230, "velocity": 100}, {"time": 68887, "pitch": 53, "duration": 220, "velocity": 100}, {"time": 68887, "pitch": 57, "duration": 220, "velocity": 90}, {"time": 69117, "pitch": 50, "duration": 250, "velocity": 110}, {"time": 69117, "pitch": 55, "duration": 250, "velocity": 105}, {"time": 69127, "pitch": 59, "duration": 230, "velocity": 100}, {"time": 69127, "pitch": 67, "duration": 230, "velocity": 110}, {"time": 69357, "pitch": 59, "duration": 250, "velocity": 90}, {"time": 69357, "pitch": 67, "duration": 250, "velocity": 100}, {"time": 69367, "pitch": 50, "duration": 230, "velocity": 100}, {"time": 69367, "pitch": 55, "duration": 230, "velocity": 95}, {"time": 69597, "pitch": 50, "duration": 250, "velocity": 110}, {"time": 69597, "pitch": 55, "duration": 250, "velocity": 110}, {"time": 69607, "pitch": 59, "duration": 230, "velocity": 115}, {"time": 69607, "pitch": 67, "duration": 230, "velocity": 120}, {"time": 69837, "pitch": 59, "duration": 230, "velocity": 95}, {"time": 69837, "pitch": 67, "duration": 230, "velocity": 100}, {"time": 69847, "pitch": 50, "duration": 220, "velocity": 100}, {"time": 69847, "pitch": 55, "duration": 220, "velocity": 90}, {"time": 70077, "pitch": 50, "duration": 250, "velocity": 110}, {"time": 70077, "pitch": 55, "duration": 250, "velocity": 105}, {"time": 70087, "pitch": 59, "duration": 230, "velocity": 100}, {"time": 70087, "pitch": 67, "duration": 230, "velocity": 110}, {"time": 70317, "pitch": 59, "duration": 250, "velocity": 90}, {"time": 70317, "pitch": 67, "duration": 250, "velocity": 100}, {"time": 70327, "pitch": 50, "duration": 230, "velocity": 100}, {"time": 70327, "pitch": 55, "duration": 230, "velocity": 95}, {"time": 70557, "pitch": 50, "duration": 250, "velocity": 110}, {"time": 70557, "pitch": 55, "duration": 250, "velocity": 110}, {"time": 70567, "pitch": 59, "duration": 230, "velocity": 115}, {"time": 70567, "pitch": 67, "duration": 230, "velocity": 120}, {"time": 70797, "pitch": 59, "duration": 230, "velocity": 95}, {"time": 70797, "pitch": 67, "duration": 230, "velocity": 100}, {"time": 70807, "pitch": 50, "duration": 220, "velocity": 100}, {"time": 70807, "pitch": 55, "duration": 220, "velocity": 90}, {"time": 71037, "pitch": 50, "duration": 250, "velocity": 120}, {"time": 71037, "pitch": 57, "duration": 250, "velocity": 115}, {"time": 71047, "pitch": 62, "duration": 230, "velocity": 110}, {"time": 71047, "pitch": 65, "duration": 230, "velocity": 120}, {"time": 71277, "pitch": 62, "duration": 250, "velocity": 90}, {"time": 71277, "pitch": 65, "duration": 250, "velocity": 100}, {"time": 71287, "pitch": 50, "duration": 230, "velocity": 100}, {"time": 71287, "pitch": 57, "duration": 230, "velocity": 95}, {"time": 71517, "pitch": 50, "duration": 250, "velocity": 100}, {"time": 71517, "pitch": 57, "duration": 250, "velocity": 100}, {"time": 71527, "pitch": 62, "duration": 230, "velocity": 105}, {"time": 71527, "pitch": 65, "duration": 230, "velocity": 110}, {"time": 71757, "pitch": 60, "duration": 490, "velocity": 115}, {"time": 71757, "pitch": 64, "duration": 490, "velocity": 120}, {"time": 71767, "pitch": 52, "duration": 470, "velocity": 120}, {"time": 71767, "pitch": 55, "duration": 470, "velocity": 110}, {"time": 72237, "pitch": 52, "duration": 130, "velocity": 110}, {"time": 72237, "pitch": 55, "duration": 130, "velocity": 105}, {"time": 72247, "pitch": 60, "duration": 110, "velocity": 100}, {"time": 72247, "pitch": 64, "duration": 110, "velocity": 110}, {"time": 72357, "pitch": 60, "duration": 130, "velocity": 90}, {"time": 72357, "pitch": 64, "duration": 130, "velocity": 100}, {"time": 72367, "pitch": 52, "duration": 110, "velocity": 100}, {"time": 72367, "pitch": 55, "duration": 110, "velocity": 95}, {"time": 72477, "pitch": 52, "duration": 250, "velocity": 100}, {"time": 72477, "pitch": 55, "duration": 250, "velocity": 100}, {"time": 72487, "pitch": 60, "duration": 230, "velocity": 105}, {"time": 72487, "pitch": 64, "duration": 230, "velocity": 110}, {"time": 72717, "pitch": 60, "duration": 230, "velocity": 95}, {"time": 72717, "pitch": 64, "duration": 230, "velocity": 100}, {"time": 72727, "pitch": 52, "duration": 220, "velocity": 100}, {"time": 72727, "pitch": 55, "duration": 220, "velocity": 90}, {"time": 72957, "pitch": 53, "duration": 250, "velocity": 120}, {"time": 72957, "pitch": 57, "duration": 250, "velocity": 115}, {"time": 72967, "pitch": 60, "duration": 230, "velocity": 110}, {"time": 72967, "pitch": 65, "duration": 230, "velocity": 120}, {"time": 73197, "pitch": 60, "duration": 250, "velocity": 90}, {"time": 73197, "pitch": 65, "duration": 250, "velocity": 100}, {"time": 73207, "pitch": 53, "duration": 230, "velocity": 100}, {"time": 73207, "pitch": 57, "duration": 230, "velocity": 95}, {"time": 73437, "pitch": 53, "duration": 250, "velocity": 100}, {"time": 73437, "pitch": 57, "duration": 250, "velocity": 100}, {"time": 73447, "pitch": 60, "duration": 230, "velocity": 105}, {"time": 73447, "pitch": 65, "duration": 230, "velocity": 110}, {"time": 73677, "pitch": 59, "duration": 490, "velocity": 115}, {"time": 73677, "pitch": 67, "duration": 490, "velocity": 120}, {"time": 73687, "pitch": 50, "duration": 470, "velocity": 120}, {"time": 73687, "pitch": 55, "duration": 470, "velocity": 110}, {"time": 74157, "pitch": 50, "duration": 130, "velocity": 110}, {"time": 74157, "pitch": 55, "duration": 130, "velocity": 105}, {"time": 74167, "pitch": 59, "duration": 110, "velocity": 100}, {"time": 74167, "pitch": 67, "duration": 110, "velocity": 110}, {"time": 74277, "pitch": 59, "duration": 130, "velocity": 90}, {"time": 74277, "pitch": 67, "duration": 130, "velocity": 100}, {"time": 74287, "pitch": 50, "duration": 110, "velocity": 100}, {"time": 74287, "pitch": 55, "duration": 110, "velocity": 95}, {"time": 74397, "pitch": 50, "duration": 250, "velocity": 100}, {"time": 74397, "pitch": 55, "duration": 250, "velocity": 100}, {"time": 74407, "pitch": 59, "duration": 230, "velocity": 105}, {"time": 74407, "pitch": 67, "duration": 230, "velocity": 110}, {"time": 74637, "pitch": 59, "duration": 230, "velocity": 95}, {"time": 74637, "pitch": 67, "duration": 230, "velocity": 100}, {"time": 74647, "pitch": 50, "duration": 220, "velocity": 100}, {"time": 74647, "pitch": 55, "duration": 220, "velocity": 90}, {"time": 74877, "pitch": 40, "duration": 40, "velocity": 110}, {"time": 74877, "pitch": 48, "duration": 40, "velocity": 105}, {"time": 74887, "pitch": 52, "duration": 40, "velocity": 100}, {"time": 74887, "pitch": 55, "duration": 40, "velocity": 110}, {"time": 75117, "pitch": 52, "duration": 40, "velocity": 100}, {"time": 75117, "pitch": 55, "duration": 40, "velocity": 110}, {"time": 75127, "pitch": 40, "duration": 40, "velocity": 110}, {"time": 75127, "pitch": 48, "duration": 40, "velocity": 105}, {"time": 75357, "pitch": 52, "duration": 365, "velocity": 110}, {"time": 75357, "pitch": 55, "duration": 365, "velocity": 110}, {"time": 75367, "pitch": 60, "duration": 355, "velocity": 115}, {"time": 75367, "pitch": 64, "duration": 355, "velocity": 120}, {"time": 75722, "pitch": 55, "duration": 30, "velocity": 105}, {"time": 75722, "pitch": 60, "duration": 30, "velocity": 110}, {"time": 75732, "pitch": 48, "duration": 30, "velocity": 110}, {"time": 75732, "pitch": 52, "duration": 30, "velocity": 100}, {"time": 75843, "pitch": 40, "duration": 40, "velocity": 110}, {"time": 75843, "pitch": 45, "duration": 40, "velocity": 105}, {"time": 75853, "pitch": 52, "duration": 40, "velocity": 100}, {"time": 75853, "pitch": 57, "duration": 40, "velocity": 110}, {"time": 76083, "pitch": 52, "duration": 40, "velocity": 100}, {"time": 76083, "pitch": 57, "duration": 40, "velocity": 110}, {"time": 76093, "pitch": 40, "duration": 40, "velocity": 110}, {"time": 76093, "pitch": 45, "duration": 40, "velocity": 105}, {"time": 76323, "pitch": 52, "duration": 360, "velocity": 110}, {"time": 76323, "pitch": 57, "duration": 360, "velocity": 110}, {"time": 76333, "pitch": 60, "duration": 350, "velocity": 115}, {"time": 76333, "pitch": 64, "duration": 350, "velocity": 120}, {"time": 76683, "pitch": 57, "duration": 30, "velocity": 105}, {"time": 76683, "pitch": 60, "duration": 30, "velocity": 110}, {"time": 76693, "pitch": 45, "duration": 30, "velocity": 110}, {"time": 76693, "pitch": 52, "duration": 30, "velocity": 100}, {"time": 76803, "pitch": 43, "duration": 40, "velocity": 110}, {"time": 76803, "pitch": 47, "duration": 40, "velocity": 105}, {"time": 76813, "pitch": 50, "duration": 40, "velocity": 100}, {"time": 76813, "pitch": 55, "duration": 40, "velocity": 110}, {"time": 77043, "pitch": 50, "duration": 40, "velocity": 100}, {"time": 77043, "pitch": 55, "duration": 40, "velocity": 110}, {"time": 77053, "pitch": 43, "duration": 40, "velocity": 110}, {"time": 77053, "pitch": 47, "duration": 40, "velocity": 105}, {"time": 77283, "pitch": 50, "duration": 360, "velocity": 110}, {"time": 77283, "pitch": 55, "duration": 360, "velocity": 110}, {"time": 77293, "pitch": 59, "duration": 350, "velocity": 115}, {"time": 77293, "pitch": 67, "duration": 350, "velocity": 120}, {"time": 77643, "pitch": 55, "duration": 30, "velocity": 105}, {"time": 77643, "pitch": 59, "duration": 30, "velocity": 110}, {"time": 77653, "pitch": 47, "duration": 30, "velocity": 110}, {"time": 77653, "pitch": 50, "duration": 30, "velocity": 100}, {"time": 77763, "pitch": 41, "duration": 40, "velocity": 110}, {"time": 77763, "pitch": 45, "duration": 40, "velocity": 105}, {"time": 77773, "pitch": 53, "duration": 40, "velocity": 100}, {"time": 77773, "pitch": 57, "duration": 40, "velocity": 110}, {"time": 78003, "pitch": 53, "duration": 40, "velocity": 100}, {"time": 78003, "pitch": 57, "duration": 40, "velocity": 110}, {"time": 78013, "pitch": 41, "duration": 40, "velocity": 110}, {"time": 78013, "pitch": 45, "duration": 40, "velocity": 105}, {"time": 78243, "pitch": 53, "duration": 360, "velocity": 110}, {"time": 78243, "pitch": 57, "duration": 360, "velocity": 110}, {"time": 78253, "pitch": 60, "duration": 350, "velocity": 115}, {"time": 78253, "pitch": 65, "duration": 350, "velocity": 120}, {"time": 78603, "pitch": 57, "duration": 30, "velocity": 105}, {"time": 78603, "pitch": 60, "duration": 30, "velocity": 110}, {"time": 78613, "pitch": 45, "duration": 30, "velocity": 110}, {"time": 78613, "pitch": 53, "duration": 30, "velocity": 100}, {"time": 78723, "pitch": 40, "duration": 40, "velocity": 110}, {"time": 78723, "pitch": 48, "duration": 40, "velocity": 105}, {"time": 78733, "pitch": 52, "duration": 40, "velocity": 100}, {"time": 78733, "pitch": 55, "duration": 40, "velocity": 110}, {"time": 78963, "pitch": 52, "duration": 40, "velocity": 100}, {"time": 78963, "pitch": 55, "duration": 40, "velocity": 110}, {"time": 78973, "pitch": 40, "duration": 40, "velocity": 110}, {"time": 78973, "pitch": 48, "duration": 40, "velocity": 105}, {"time": 79203, "pitch": 52, "duration": 360, "velocity": 110}, {"time": 79203, "pitch": 55, "duration": 360, "velocity": 110}, {"time": 79213, "pitch": 60, "duration": 350, "velocity": 115}, {"time": 79213, "pitch": 64, "duration": 350, "velocity": 120}, {"time": 79563, "pitch": 55, "duration": 30, "velocity": 105}, {"time": 79563, "pitch": 60, "duration": 30, "velocity": 110}, {"time": 79573, "pitch": 48, "duration": 30, "velocity": 110}, {"time": 79573, "pitch": 52, "duration": 30, "velocity": 100}, {"time": 79683, "pitch": 40, "duration": 40, "velocity": 110}, {"time": 79683, "pitch": 45, "duration": 40, "velocity": 105}, {"time": 79693, "pitch": 52, "duration": 40, "velocity": 100}, {"time": 79693, "pitch": 57, "duration": 40, "velocity": 110}, {"time": 79923, "pitch": 52, "duration": 40, "velocity": 100}, {"time": 79923, "pitch": 57, "duration": 40, "velocity": 110}, {"time": 79933, "pitch": 40, "duration": 40, "velocity": 110}, {"time": 79933, "pitch": 45, "duration": 40, "velocity": 105}, {"time": 80163, "pitch": 52, "duration": 360, "velocity": 110}, {"time": 80163, "pitch": 57, "duration": 360, "velocity": 110}, {"time": 80173, "pitch": 60, "duration": 350, "velocity": 115}, {"time": 80173, "pitch": 64, "duration": 350, "velocity": 120}, {"time": 80523, "pitch": 57, "duration": 30, "velocity": 105}, {"time": 80523, "pitch": 60, "duration": 30, "velocity": 110}, {"time": 80533, "pitch": 45, "duration": 30, "velocity": 110}, {"time": 80533, "pitch": 52, "duration": 30, "velocity": 100}, {"time": 80643, "pitch": 43, "duration": 40, "velocity": 110}, {"time": 80643, "pitch": 47, "duration": 40, "velocity": 105}, {"time": 80653, "pitch": 50, "duration": 40, "velocity": 100}, {"time": 80653, "pitch": 55, "duration": 40, "velocity": 110}, {"time": 80883, "pitch": 50, "duration": 40, "velocity": 100}, {"time": 80883, "pitch": 55, "duration": 40, "velocity": 110}, {"time": 80893, "pitch": 43, "duration": 40, "velocity": 110}, {"time": 80893, "pitch": 47, "duration": 40, "velocity": 105}, {"time": 81123, "pitch": 50, "duration": 360, "velocity": 110}, {"time": 81123, "pitch": 55, "duration": 360, "velocity": 110}, {"time": 81133, "pitch": 59, "duration": 350, "velocity": 115}, {"time": 81133, "pitch": 67, "duration": 350, "velocity": 120}, {"time": 81483, "pitch": 55, "duration": 30, "velocity": 105}, {"time": 81483, "pitch": 59, "duration": 30, "velocity": 110}, {"time": 81493, "pitch": 47, "duration": 30, "velocity": 110}, {"time": 81493, "pitch": 50, "duration": 30, "velocity": 100}, {"time": 81603, "pitch": 41, "duration": 40, "velocity": 110}, {"time": 81603, "pitch": 45, "duration": 40, "velocity": 105}, {"time": 81613, "pitch": 53, "duration": 40, "velocity": 100}, {"time": 81613, "pitch": 57, "duration": 40, "velocity": 110}, {"time": 81843, "pitch": 53, "duration": 40, "velocity": 100}, {"time": 81843, "pitch": 57, "duration": 40, "velocity": 110}, {"time": 81853, "pitch": 41, "duration": 40, "velocity": 110}, {"time": 81853, "pitch": 45, "duration": 40, "velocity": 105}, {"time": 82083, "pitch": 53, "duration": 360, "velocity": 110}, {"time": 82083, "pitch": 57, "duration": 360, "velocity": 110}, {"time": 82093, "pitch": 60, "duration": 350, "velocity": 115}, {"time": 82093, "pitch": 65, "duration": 350, "velocity": 120}, {"time": 82443, "pitch": 57, "duration": 30, "velocity": 105}, {"time": 82443, "pitch": 60, "duration": 30, "velocity": 110}, {"time": 82453, "pitch": 45, "duration": 30, "velocity": 110}, {"time": 82453, "pitch": 53, "duration": 30, "velocity": 100}, {"time": 82563, "pitch": 40, "duration": 40, "velocity": 110}, {"time": 82563, "pitch": 48, "duration": 40, "velocity": 105}, {"time": 82573, "pitch": 52, "duration": 40, "velocity": 100}, {"time": 82573, "pitch": 55, "duration": 40, "velocity": 110}, {"time": 82803, "pitch": 52, "duration": 40, "velocity": 100}, {"time": 82803, "pitch": 55, "duration": 40, "velocity": 110}, {"time": 82813, "pitch": 40, "duration": 40, "velocity": 110}, {"time": 82813, "pitch": 48, "duration": 40, "velocity": 105}, {"time": 83043, "pitch": 52, "duration": 360, "velocity": 110}, {"time": 83043, "pitch": 55, "duration": 360, "velocity": 110}, {"time": 83053, "pitch": 60, "duration": 350, "velocity": 115}, {"time": 83053, "pitch": 64, "duration": 350, "velocity": 120}, {"time": 83403, "pitch": 55, "duration": 30, "velocity": 105}, {"time": 83403, "pitch": 60, "duration": 30, "velocity": 110}, {"time": 83413, "pitch": 48, "duration": 30, "velocity": 110}, {"time": 83413, "pitch": 52, "duration": 30, "velocity": 100}, {"time": 83523, "pitch": 40, "duration": 40, "velocity": 110}, {"time": 83523, "pitch": 48, "duration": 40, "velocity": 105}, {"time": 83533, "pitch": 52, "duration": 40, "velocity": 100}, {"time": 83533, "pitch": 55, "duration": 40, "velocity": 110}, {"time": 83763, "pitch": 52, "duration": 40, "velocity": 100}, {"time": 83763, "pitch": 55, "duration": 40, "velocity": 110}, {"time": 83773, "pitch": 40, "duration": 40, "velocity": 110}, {"time": 83773, "pitch": 48, "duration": 40, "velocity": 105}, {"time": 84003, "pitch": 52, "duration": 360, "velocity": 110}, {"time": 84003, "pitch": 55, "duration": 360, "velocity": 110}, {"time": 84013, "pitch": 60, "duration": 350, "velocity": 115}, {"time": 84013, "pitch": 64, "duration": 350, "velocity": 120}, {"time": 84363, "pitch": 55, "duration": 30, "velocity": 105}, {"time": 84363, "pitch": 60, "duration": 30, "velocity": 110}, {"time": 84373, "pitch": 48, "duration": 30, "velocity": 110}, {"time": 84373, "pitch": 52, "duration": 30, "velocity": 100}, {"time": 84483, "pitch": 41, "duration": 40, "velocity": 110}, {"time": 84483, "pitch": 45, "duration": 40, "velocity": 105}, {"time": 84493, "pitch": 53, "duration": 40, "velocity": 100}, {"time": 84493, "pitch": 57, "duration": 40, "velocity": 110}, {"time": 84723, "pitch": 53, "duration": 40, "velocity": 100}, {"time": 84723, "pitch": 57, "duration": 40, "velocity": 110}, {"time": 84733, "pitch": 41, "duration": 40, "velocity": 110}, {"time": 84733, "pitch": 45, "duration": 40, "velocity": 105}, {"time": 84963, "pitch": 53, "duration": 360, "velocity": 110}, {"time": 84963, "pitch": 57, "duration": 360, "velocity": 110}, {"time": 84973, "pitch": 60, "duration": 350, "velocity": 115}, {"time": 84973, "pitch": 65, "duration": 350, "velocity": 120}, {"time": 85323, "pitch": 57, "duration": 30, "velocity": 105}, {"time": 85323, "pitch": 60, "duration": 30, "velocity": 110}, {"time": 85333, "pitch": 45, "duration": 30, "velocity": 110}, {"time": 85333, "pitch": 53, "duration": 30, "velocity": 100}, {"time": 85443, "pitch": 41, "duration": 40, "velocity": 110}, {"time": 85443, "pitch": 45, "duration": 40, "velocity": 105}, {"time": 85453, "pitch": 53, "duration": 40, "velocity": 100}, {"time": 85453, "pitch": 57, "duration": 40, "velocity": 110}, {"time": 85683, "pitch": 53, "duration": 40, "velocity": 100}, {"time": 85683, "pitch": 57, "duration": 40, "velocity": 110}, {"time": 85693, "pitch": 41, "duration": 40, "velocity": 110}, {"time": 85693, "pitch": 45, "duration": 40, "velocity": 105}, {"time": 85923, "pitch": 53, "duration": 360, "velocity": 110}, {"time": 85923, "pitch": 57, "duration": 360, "velocity": 110}, {"time": 85933, "pitch": 60, "duration": 350, "velocity": 115}, {"time": 85933, "pitch": 65, "duration": 350, "velocity": 120}, {"time": 86283, "pitch": 57, "duration": 30, "velocity": 105}, {"time": 86283, "pitch": 60, "duration": 30, "velocity": 110}, {"time": 86293, "pitch": 45, "duration": 30, "velocity": 110}, {"time": 86293, "pitch": 53, "duration": 30, "velocity": 100}, {"time": 86403, "pitch": 40, "duration": 40, "velocity": 110}, {"time": 86403, "pitch": 45, "duration": 40, "velocity": 105}, {"time": 86413, "pitch": 52, "duration": 40, "velocity": 100}, {"time": 86413, "pitch": 57, "duration": 40, "velocity": 110}, {"time": 86643, "pitch": 52, "duration": 40, "velocity": 100}, {"time": 86643, "pitch": 57, "duration": 40, "velocity": 110}, {"time": 86653, "pitch": 40, "duration": 40, "velocity": 110}, {"time": 86653, "pitch": 45, "duration": 40, "velocity": 105}, {"time": 86883, "pitch": 52, "duration": 360, "velocity": 110}, {"time": 86883, "pitch": 57, "duration": 360, "velocity": 110}, {"time": 86893, "pitch": 60, "duration": 350, "velocity": 115}, {"time": 86893, "pitch": 64, "duration": 350, "velocity": 120}, {"time": 87243, "pitch": 57, "duration": 30, "velocity": 105}, {"time": 87243, "pitch": 60, "duration": 30, "velocity": 110}, {"time": 87253, "pitch": 45, "duration": 30, "velocity": 110}, {"time": 87253, "pitch": 52, "duration": 30, "velocity": 100}, {"time": 87363, "pitch": 40, "duration": 40, "velocity": 110}, {"time": 87363, "pitch": 45, "duration": 40, "velocity": 105}, {"time": 87373, "pitch": 52, "duration": 40, "velocity": 100}, {"time": 87373, "pitch": 57, "duration": 40, "velocity": 110}, {"time": 87603, "pitch": 52, "duration": 40, "velocity": 100}, {"time": 87603, "pitch": 57, "duration": 40, "velocity": 110}, {"time": 87613, "pitch": 40, "duration": 40, "velocity": 110}, {"time": 87613, "pitch": 45, "duration": 40, "velocity": 105}, {"time": 87843, "pitch": 52, "duration": 360, "velocity": 110}, {"time": 87843, "pitch": 57, "duration": 360, "velocity": 110}, {"time": 87853, "pitch": 60, "duration": 350, "velocity": 115}, {"time": 87853, "pitch": 64, "duration": 350, "velocity": 120}, {"time": 88203, "pitch": 57, "duration": 30, "velocity": 105}, {"time": 88203, "pitch": 60, "duration": 30, "velocity": 110}, {"time": 88213, "pitch": 45, "duration": 30, "velocity": 110}, {"time": 88213, "pitch": 52, "duration": 30, "velocity": 100}, {"time": 88323, "pitch": 43, "duration": 40, "velocity": 110}, {"time": 88323, "pitch": 47, "duration": 40, "velocity": 105}, {"time": 88333, "pitch": 50, "duration": 40, "velocity": 100}, {"time": 88333, "pitch": 55, "duration": 40, "velocity": 110}, {"time": 88563, "pitch": 50, "duration": 40, "velocity": 100}, {"time": 88563, "pitch": 55, "duration": 40, "velocity": 110}, {"time": 88573, "pitch": 43, "duration": 40, "velocity": 110}, {"time": 88573, "pitch": 47, "duration": 40, "velocity": 105}, {"time": 88683, "pitch": 50, "duration": 360, "velocity": 110}, {"time": 88683, "pitch": 55, "duration": 360, "velocity": 110}, {"time": 88693, "pitch": 59, "duration": 350, "velocity": 115}, {"time": 88693, "pitch": 67, "duration": 350, "velocity": 120}, {"time": 89043, "pitch": 52, "duration": 360, "velocity": 110}, {"time": 89043, "pitch": 55, "duration": 360, "velocity": 110}, {"time": 89053, "pitch": 60, "duration": 350, "velocity": 115}, {"time": 89053, "pitch": 64, "duration": 350, "velocity": 120}, {"time": 89403, "pitch": 55, "duration": 30, "velocity": 105}, {"time": 89403, "pitch": 60, "duration": 30, "velocity": 110}, {"time": 89413, "pitch": 48, "duration": 30, "velocity": 110}, {"time": 89413, "pitch": 52, "duration": 30, "velocity": 100}, {"time": 89523, "pitch": 40, "duration": 40, "velocity": 110}, {"time": 89523, "pitch": 48, "duration": 40, "velocity": 105}, {"time": 89533, "pitch": 52, "duration": 40, "velocity": 100}, {"time": 89533, "pitch": 55, "duration": 40, "velocity": 110}, {"time": 89763, "pitch": 52, "duration": 360, "velocity": 110}, {"time": 89763, "pitch": 55, "duration": 360, "velocity": 110}, {"time": 89773, "pitch": 60, "duration": 350, "velocity": 115}, {"time": 89773, "pitch": 64, "duration": 350, "velocity": 120}, {"time": 90123, "pitch": 55, "duration": 30, "velocity": 105}, {"time": 90123, "pitch": 60, "duration": 30, "velocity": 110}, {"time": 90133, "pitch": 48, "duration": 30, "velocity": 110}, {"time": 90133, "pitch": 52, "duration": 30, "velocity": 100}, {"time": 90243, "pitch": 40, "duration": 40, "velocity": 110}, {"time": 90243, "pitch": 48, "duration": 40, "velocity": 105}, {"time": 90253, "pitch": 52, "duration": 40, "velocity": 100}, {"time": 90253, "pitch": 55, "duration": 40, "velocity": 110}, {"time": 90483, "pitch": 52, "duration": 40, "velocity": 100}, {"time": 90483, "pitch": 55, "duration": 40, "velocity": 110}, {"time": 90493, "pitch": 40, "duration": 40, "velocity": 110}, {"time": 90493, "pitch": 48, "duration": 40, "velocity": 105}, {"time": 90723, "pitch": 52, "duration": 360, "velocity": 110}, {"time": 90723, "pitch": 55, "duration": 360, "velocity": 110}, {"time": 90733, "pitch": 60, "duration": 350, "velocity": 115}, {"time": 90733, "pitch": 64, "duration": 350, "velocity": 120}, {"time": 91083, "pitch": 55, "duration": 30, "velocity": 105}, {"time": 91083, "pitch": 60, "duration": 30, "velocity": 110}, {"time": 91093, "pitch": 48, "duration": 30, "velocity": 110}, {"time": 91093, "pitch": 52, "duration": 30, "velocity": 100}, {"time": 91203, "pitch": 40, "duration": 40, "velocity": 110}, {"time": 91203, "pitch": 48, "duration": 40, "velocity": 105}, {"time": 91213, "pitch": 52, "duration": 40, "velocity": 100}, {"time": 91213, "pitch": 55, "duration": 40, "velocity": 110}, {"time": 91443, "pitch": 52, "duration": 40, "velocity": 100}, {"time": 91443, "pitch": 55, "duration": 40, "velocity": 110}, {"time": 91453, "pitch": 40, "duration": 40, "velocity": 110}, {"time": 91453, "pitch": 48, "duration": 40, "velocity": 105}, {"time": 91683, "pitch": 52, "duration": 360, "velocity": 110}, {"time": 91683, "pitch": 55, "duration": 360, "velocity": 110}, {"time": 91693, "pitch": 60, "duration": 350, "velocity": 115}, {"time": 91693, "pitch": 64, "duration": 350, "velocity": 120}, {"time": 92043, "pitch": 55, "duration": 30, "velocity": 105}, {"time": 92043, "pitch": 60, "duration": 30, "velocity": 110}, {"time": 92053, "pitch": 48, "duration": 30, "velocity": 110}, {"time": 92053, "pitch": 52, "duration": 30, "velocity": 100}, {"time": 92163, "pitch": 41, "duration": 40, "velocity": 110}, {"time": 92163, "pitch": 45, "duration": 40, "velocity": 105}, {"time": 92173, "pitch": 53, "duration": 40, "velocity": 100}, {"time": 92173, "pitch": 57, "duration": 40, "velocity": 110}, {"time": 92403, "pitch": 53, "duration": 39, "velocity": 100}, {"time": 92403, "pitch": 57, "duration": 39, "velocity": 110}, {"time": 92413, "pitch": 41, "duration": 39, "velocity": 110}, {"time": 92413, "pitch": 45, "duration": 39, "velocity": 105}, {"time": 92642, "pitch": 53, "duration": 360, "velocity": 110}, {"time": 92642, "pitch": 57, "duration": 360, "velocity": 110}, {"time": 92652, "pitch": 60, "duration": 350, "velocity": 115}, {"time": 92652, "pitch": 65, "duration": 350, "velocity": 120}, {"time": 93002, "pitch": 57, "duration": 30, "velocity": 105}, {"time": 93002, "pitch": 60, "duration": 30, "velocity": 110}, {"time": 93012, "pitch": 45, "duration": 30, "velocity": 110}, {"time": 93012, "pitch": 53, "duration": 30, "velocity": 100}, {"time": 93122, "pitch": 41, "duration": 40, "velocity": 110}, {"time": 93122, "pitch": 45, "duration": 40, "velocity": 105}, {"time": 93132, "pitch": 53, "duration": 40, "velocity": 100}, {"time": 93132, "pitch": 57, "duration": 40, "velocity": 110}, {"time": 93362, "pitch": 53, "duration": 40, "velocity": 100}, {"time": 93362, "pitch": 57, "duration": 40, "velocity": 110}, {"time": 93372, "pitch": 41, "duration": 40, "velocity": 110}, {"time": 93372, "pitch": 45, "duration": 40, "velocity": 105}, {"time": 93602, "pitch": 53, "duration": 360, "velocity": 110}, {"time": 93602, "pitch": 57, "duration": 360, "velocity": 110}, {"time": 93612, "pitch": 60, "duration": 350, "velocity": 115}, {"time": 93612, "pitch": 65, "duration": 350, "velocity": 120}, {"time": 93962, "pitch": 57, "duration": 30, "velocity": 105}, {"time": 93962, "pitch": 60, "duration": 30, "velocity": 110}, {"time": 93972, "pitch": 45, "duration": 30, "velocity": 110}, {"time": 93972, "pitch": 53, "duration": 30, "velocity": 100}, {"time": 94082, "pitch": 40, "duration": 40, "velocity": 110}, {"time": 94082, "pitch": 45, "duration": 40, "velocity": 105}, {"time": 94092, "pitch": 52, "duration": 40, "velocity": 100}, {"time": 94092, "pitch": 57, "duration": 40, "velocity": 110}, {"time": 94322, "pitch": 52, "duration": 40, "velocity": 100}, {"time": 94322, "pitch": 57, "duration": 40, "velocity": 110}, {"time": 94332, "pitch": 40, "duration": 40, "velocity": 110}, {"time": 94332, "pitch": 45, "duration": 40, "velocity": 105}, {"time": 94562, "pitch": 52, "duration": 360, "velocity": 110}, {"time": 94562, "pitch": 57, "duration": 360, "velocity": 110}, {"time": 94572, "pitch": 60, "duration": 350, "velocity": 115}, {"time": 94572, "pitch": 64, "duration": 350, "velocity": 120}, {"time": 94922, "pitch": 57, "duration": 30, "velocity": 105}, {"time": 94922, "pitch": 60, "duration": 30, "velocity": 110}, {"time": 94932, "pitch": 45, "duration": 30, "velocity": 110}, {"time": 94932, "pitch": 52, "duration": 30, "velocity": 100}, {"time": 95042, "pitch": 40, "duration": 40, "velocity": 110}, {"time": 95042, "pitch": 45, "duration": 40, "velocity": 105}, {"time": 95052, "pitch": 52, "duration": 40, "velocity": 100}, {"time": 95052, "pitch": 57, "duration": 40, "velocity": 110}, {"time": 95282, "pitch": 52, "duration": 40, "velocity": 100}, {"time": 95282, "pitch": 57, "duration": 40, "velocity": 110}, {"time": 95292, "pitch": 40, "duration": 40, "velocity": 110}, {"time": 95292, "pitch": 45, "duration": 40, "velocity": 105}, {"time": 95522, "pitch": 52, "duration": 360, "velocity": 110}, {"time": 95522, "pitch": 57, "duration": 360, "velocity": 110}, {"time": 95532, "pitch": 60, "duration": 350, "velocity": 115}, {"time": 95532, "pitch": 64, "duration": 350, "velocity": 120}, {"time": 95882, "pitch": 57, "duration": 30, "velocity": 105}, {"time": 95882, "pitch": 60, "duration": 30, "velocity": 110}, {"time": 95892, "pitch": 45, "duration": 30, "velocity": 110}, {"time": 95892, "pitch": 52, "duration": 30, "velocity": 100}, {"time": 96002, "pitch": 43, "duration": 40, "velocity": 110}, {"time": 96002, "pitch": 47, "duration": 40, "velocity": 105}, {"time": 96012, "pitch": 50, "duration": 40, "velocity": 100}, {"time": 96012, "pitch": 55, "duration": 40, "velocity": 110}, {"time": 96242, "pitch": 50, "duration": 40, "velocity": 100}, {"time": 96242, "pitch": 55, "duration": 40, "velocity": 110}, {"time": 96252, "pitch": 43, "duration": 40, "velocity": 110}, {"time": 96252, "pitch": 47, "duration": 40, "velocity": 105}, {"time": 96362, "pitch": 50, "duration": 360, "velocity": 110}, {"time": 96362, "pitch": 55, "duration": 360, "velocity": 110}, {"time": 96372, "pitch": 59, "duration": 350, "velocity": 115}, {"time": 96372, "pitch": 67, "duration": 350, "velocity": 120}, {"time": 96722, "pitch": 52, "duration": 360, "velocity": 110}, {"time": 96722, "pitch": 55, "duration": 360, "velocity": 110}, {"time": 96732, "pitch": 60, "duration": 350, "velocity": 115}, {"time": 96732, "pitch": 64, "duration": 350, "velocity": 120}, {"time": 97082, "pitch": 55, "duration": 30, "velocity": 105}, {"time": 97082, "pitch": 60, "duration": 30, "velocity": 110}, {"time": 97092, "pitch": 48, "duration": 30, "velocity": 110}, {"time": 97092, "pitch": 52, "duration": 30, "velocity": 100}, {"time": 97202, "pitch": 40, "duration": 40, "velocity": 110}, {"time": 97202, "pitch": 48, "duration": 40, "velocity": 105}, {"time": 97212, "pitch": 52, "duration": 40, "velocity": 100}, {"time": 97212, "pitch": 55, "duration": 40, "velocity": 110}, {"time": 97442, "pitch": 52, "duration": 360, "velocity": 110}, {"time": 97442, "pitch": 55, "duration": 360, "velocity": 110}, {"time": 97452, "pitch": 60, "duration": 350, "velocity": 115}, {"time": 97452, "pitch": 64, "duration": 350, "velocity": 120}, {"time": 97802, "pitch": 55, "duration": 30, "velocity": 105}, {"time": 97802, "pitch": 60, "duration": 30, "velocity": 110}, {"time": 97812, "pitch": 48, "duration": 30, "velocity": 110}, {"time": 97812, "pitch": 52, "duration": 30, "velocity": 100}, {"time": 97922, "pitch": 53, "duration": 250, "velocity": 110}, {"time": 97922, "pitch": 57, "duration": 250, "velocity": 105}, {"time": 97932, "pitch": 60, "duration": 230, "velocity": 100}, {"time": 97932, "pitch": 65, "duration": 230, "velocity": 110}, {"time": 98162, "pitch": 60, "duration": 250, "velocity": 90}, {"time": 98162, "pitch": 65, "duration": 250, "velocity": 100}, {"time": 98172, "pitch": 53, "duration": 230, "velocity": 100}, {"time": 98172, "pitch": 57, "duration": 230, "velocity": 95}, {"time": 98402, "pitch": 53, "duration": 370, "velocity": 110}, {"time": 98402, "pitch": 57, "duration": 370, "velocity": 110}, {"time": 98412, "pitch": 60, "duration": 350, "velocity": 115}, {"time": 98412, "pitch": 65, "duration": 350, "velocity": 120}, {"time": 98762, "pitch": 60, "duration": 130, "velocity": 95}, {"time": 98762, "pitch": 65, "duration": 130, "velocity": 100}, {"time": 98772, "pitch": 53, "duration": 110, "velocity": 100}, {"time": 98772, "pitch": 57, "duration": 110, "velocity": 90}, {"time": 98882, "pitch": 53, "duration": 130, "velocity": 110}, {"time": 98882, "pitch": 57, "duration": 130, "velocity": 105}, {"time": 98892, "pitch": 60, "duration": 110, "velocity": 100}, {"time": 98892, "pitch": 65, "duration": 110, "velocity": 110}, {"time": 99002, "pitch": 60, "duration": 130, "velocity": 90}, {"time": 99002, "pitch": 65, "duration": 130, "velocity": 100}, {"time": 99012, "pitch": 53, "duration": 110, "velocity": 100}, {"time": 99012, "pitch": 57, "duration": 110, "velocity": 95}, {"time": 99122, "pitch": 53, "duration": 240, "velocity": 110}, {"time": 99122, "pitch": 57, "duration": 240, "velocity": 105}, {"time": 99132, "pitch": 60, "duration": 240, "velocity": 100}, {"time": 99132, "pitch": 65, "duration": 230, "velocity": 110}, {"time": 99362, "pitch": 53, "duration": 370, "velocity": 110}, {"time": 99362, "pitch": 57, "duration": 370, "velocity": 110}, {"time": 99372, "pitch": 60, "duration": 350, "velocity": 115}, {"time": 99372, "pitch": 65, "duration": 350, "velocity": 120}, {"time": 99722, "pitch": 60, "duration": 80, "velocity": 95}, {"time": 99722, "pitch": 65, "duration": 80, "velocity": 100}, {"time": 99732, "pitch": 53, "duration": 70, "velocity": 100}, {"time": 99732, "pitch": 57, "duration": 70, "velocity": 90}, {"time": 99842, "pitch": 52, "duration": 250, "velocity": 110}, {"time": 99842, "pitch": 55, "duration": 250, "velocity": 105}, {"time": 99852, "pitch": 60, "duration": 230, "velocity": 100}, {"time": 99852, "pitch": 64, "duration": 230, "velocity": 110}, {"time": 100082, "pitch": 60, "duration": 250, "velocity": 90}, {"time": 100082, "pitch": 64, "duration": 250, "velocity": 100}, {"time": 100092, "pitch": 52, "duration": 230, "velocity": 100}, {"time": 100092, "pitch": 55, "duration": 230, "velocity": 95}, {"time": 100322, "pitch": 52, "duration": 370, "velocity": 110}, {"time": 100322, "pitch": 55, "duration": 370, "velocity": 110}, {"time": 100332, "pitch": 60, "duration": 350, "velocity": 115}, {"time": 100332, "pitch": 64, "duration": 350, "velocity": 120}, {"time": 100682, "pitch": 60, "duration": 130, "velocity": 95}, {"time": 100682, "pitch": 64, "duration": 130, "velocity": 100}, {"time": 100692, "pitch": 52, "duration": 110, "velocity": 100}, {"time": 100692, "pitch": 55, "duration": 110, "velocity": 90}, {"time": 100802, "pitch": 52, "duration": 130, "velocity": 110}, {"time": 100802, "pitch": 55, "duration": 130, "velocity": 105}, {"time": 100812, "pitch": 60, "duration": 110, "velocity": 100}, {"time": 100812, "pitch": 64, "duration": 110, "velocity": 110}, {"time": 100922, "pitch": 60, "duration": 130, "velocity": 90}, {"time": 100922, "pitch": 64, "duration": 130, "velocity": 100}, {"time": 100932, "pitch": 52, "duration": 110, "velocity": 100}, {"time": 100932, "pitch": 55, "duration": 110, "velocity": 95}, {"time": 101042, "pitch": 52, "duration": 240, "velocity": 110}, {"time": 101042, "pitch": 55, "duration": 240, "velocity": 105}, {"time": 101052, "pitch": 60, "duration": 240, "velocity": 100}, {"time": 101052, "pitch": 64, "duration": 230, "velocity": 110}, {"time": 101282, "pitch": 52, "duration": 370, "velocity": 110}, {"time": 101282, "pitch": 55, "duration": 370, "velocity": 110}, {"time": 101292, "pitch": 60, "duration": 350, "velocity": 115}, {"time": 101292, "pitch": 64, "duration": 350, "velocity": 120}, {"time": 101642, "pitch": 60, "duration": 80, "velocity": 95}, {"time": 101642, "pitch": 64, "duration": 80, "velocity": 100}, {"time": 101652, "pitch": 52, "duration": 70, "velocity": 100}, {"time": 101652, "pitch": 55, "duration": 70, "velocity": 90}, {"time": 101762, "pitch": 53, "duration": 250, "velocity": 110}, {"time": 101762, "pitch": 57, "duration": 250, "velocity": 105}, {"time": 101772, "pitch": 60, "duration": 230, "velocity": 100}, {"time": 101772, "pitch": 65, "duration": 230, "velocity": 110}, {"time": 102002, "pitch": 60, "duration": 250, "velocity": 90}, {"time": 102002, "pitch": 65, "duration": 250, "velocity": 100}, {"time": 102012, "pitch": 53, "duration": 230, "velocity": 100}, {"time": 102012, "pitch": 57, "duration": 230, "velocity": 95}, {"time": 102242, "pitch": 53, "duration": 370, "velocity": 110}, {"time": 102242, "pitch": 57, "duration": 370, "velocity": 110}, {"time": 102252, "pitch": 60, "duration": 350, "velocity": 115}, {"time": 102252, "pitch": 65, "duration": 350, "velocity": 120}, {"time": 102602, "pitch": 60, "duration": 130, "velocity": 95}, {"time": 102602, "pitch": 65, "duration": 130, "velocity": 100}, {"time": 102612, "pitch": 53, "duration": 110, "velocity": 100}, {"time": 102612, "pitch": 57, "duration": 110, "velocity": 90}, {"time": 102722, "pitch": 53, "duration": 130, "velocity": 110}, {"time": 102722, "pitch": 57, "duration": 130, "velocity": 105}, {"time": 102732, "pitch": 60, "duration": 110, "velocity": 100}, {"time": 102732, "pitch": 65, "duration": 110, "velocity": 110}, {"time": 102842, "pitch": 60, "duration": 130, "velocity": 90}, {"time": 102842, "pitch": 65, "duration": 130, "velocity": 100}, {"time": 102852, "pitch": 53, "duration": 110, "velocity": 100}, {"time": 102852, "pitch": 57, "duration": 110, "velocity": 95}, {"time": 102962, "pitch": 53, "duration": 240, "velocity": 110}, {"time": 102962, "pitch": 57, "duration": 240, "velocity": 105}, {"time": 102972, "pitch": 60, "duration": 240, "velocity": 100}, {"time": 102972, "pitch": 65, "duration": 230, "velocity": 110}, {"time": 103202, "pitch": 53, "duration": 370, "velocity": 110}, {"time": 103202, "pitch": 57, "duration": 370, "velocity": 110}, {"time": 103212, "pitch": 60, "duration": 350, "velocity": 115}, {"time": 103212, "pitch": 65, "duration": 350, "velocity": 120}, {"time": 103562, "pitch": 60, "duration": 80, "velocity": 95}, {"time": 103562, "pitch": 65, "duration": 80, "velocity": 100}, {"time": 103572, "pitch": 53, "duration": 70, "velocity": 100}, {"time": 103572, "pitch": 57, "duration": 70, "velocity": 90}, {"time": 103682, "pitch": 52, "duration": 250, "velocity": 120}, {"time": 103682, "pitch": 57, "duration": 250, "velocity": 115}, {"time": 103692, "pitch": 60, "duration": 230, "velocity": 110}, {"time": 103692, "pitch": 64, "duration": 230, "velocity": 120}, {"time": 103922, "pitch": 60, "duration": 250, "velocity": 100}, {"time": 103922, "pitch": 64, "duration": 250, "velocity": 110}, {"time": 103932, "pitch": 52, "duration": 230, "velocity": 110}, {"time": 103932, "pitch": 57, "duration": 230, "velocity": 105}, {"time": 104162, "pitch": 52, "duration": 250, "velocity": 120}, {"time": 104162, "pitch": 57, "duration": 250, "velocity": 115}, {"time": 104172, "pitch": 60, "duration": 230, "velocity": 110}, {"time": 104172, "pitch": 64, "duration": 230, "velocity": 120}, {"time": 104402, "pitch": 60, "duration": 250, "velocity": 100}, {"time": 104402, "pitch": 64, "duration": 250, "velocity": 110}, {"time": 104412, "pitch": 52, "duration": 230, "velocity": 110}, {"time": 104412, "pitch": 57, "duration": 230, "velocity": 105}, {"time": 104642, "pitch": 50, "duration": 250, "velocity": 120}, {"time": 104642, "pitch": 55, "duration": 250, "velocity": 115}, {"time": 104652, "pitch": 59, "duration": 230, "velocity": 110}, {"time": 104652, "pitch": 67, "duration": 230, "velocity": 120}, {"time": 105602, "pitch": 52, "duration": 250, "velocity": 110}, {"time": 105602, "pitch": 55, "duration": 250, "velocity": 105}, {"time": 105612, "pitch": 60, "duration": 230, "velocity": 100}, {"time": 105612, "pitch": 64, "duration": 230, "velocity": 110}, {"time": 105842, "pitch": 60, "duration": 250, "velocity": 90}, {"time": 105842, "pitch": 64, "duration": 250, "velocity": 100}, {"time": 105852, "pitch": 52, "duration": 230, "velocity": 100}, {"time": 105852, "pitch": 55, "duration": 230, "velocity": 95}, {"time": 106082, "pitch": 52, "duration": 250, "velocity": 110}, {"time": 106082, "pitch": 55, "duration": 250, "velocity": 110}, {"time": 106092, "pitch": 60, "duration": 230, "velocity": 115}, {"time": 106092, "pitch": 64, "duration": 230, "velocity": 120}, {"time": 106322, "pitch": 60, "duration": 230, "velocity": 95}, {"time": 106322, "pitch": 64, "duration": 230, "velocity": 100}, {"time": 106332, "pitch": 52, "duration": 220, "velocity": 100}, {"time": 106332, "pitch": 55, "duration": 220, "velocity": 90}, {"time": 106562, "pitch": 53, "duration": 250, "velocity": 110}, {"time": 106562, "pitch": 57, "duration": 250, "velocity": 105}, {"time": 106572, "pitch": 60, "duration": 230, "velocity": 100}, {"time": 106572, "pitch": 65, "duration": 230, "velocity": 110}, {"time": 106802, "pitch": 60, "duration": 250, "velocity": 90}, {"time": 106802, "pitch": 65, "duration": 250, "velocity": 100}, {"time": 106812, "pitch": 53, "duration": 230, "velocity": 100}, {"time": 106812, "pitch": 57, "duration": 230, "velocity": 95}, {"time": 107042, "pitch": 53, "duration": 250, "velocity": 110}, {"time": 107042, "pitch": 57, "duration": 250, "velocity": 110}, {"time": 107052, "pitch": 60, "duration": 230, "velocity": 115}, {"time": 107052, "pitch": 65, "duration": 230, "velocity": 120}, {"time": 107282, "pitch": 60, "duration": 230, "velocity": 95}, {"time": 107282, "pitch": 65, "duration": 230, "velocity": 100}, {"time": 107292, "pitch": 53, "duration": 220, "velocity": 100}, {"time": 107292, "pitch": 57, "duration": 220, "velocity": 90}, {"time": 107522, "pitch": 50, "duration": 250, "velocity": 110}, {"time": 107522, "pitch": 55, "duration": 250, "velocity": 105}, {"time": 107532, "pitch": 59, "duration": 230, "velocity": 100}, {"time": 107532, "pitch": 67, "duration": 230, "velocity": 110}, {"time": 107762, "pitch": 59, "duration": 250, "velocity": 90}, {"time": 107762, "pitch": 67, "duration": 250, "velocity": 100}, {"time": 107772, "pitch": 50, "duration": 230, "velocity": 100}, {"time": 107772, "pitch": 55, "duration": 230, "velocity": 95}, {"time": 108002, "pitch": 50, "duration": 250, "velocity": 110}, {"time": 108002, "pitch": 55, "duration": 250, "velocity": 110}, {"time": 108012, "pitch": 59, "duration": 230, "velocity": 115}, {"time": 108012, "pitch": 67, "duration": 230, "velocity": 120}, {"time": 108242, "pitch": 59, "duration": 230, "velocity": 95}, {"time": 108242, "pitch": 67, "duration": 230, "velocity": 100}, {"time": 108252, "pitch": 50, "duration": 220, "velocity": 100}, {"time": 108252, "pitch": 55, "duration": 220, "velocity": 90}, {"time": 108482, "pitch": 50, "duration": 250, "velocity": 110}, {"time": 108482, "pitch": 55, "duration": 250, "velocity": 105}, {"time": 108492, "pitch": 59, "duration": 230, "velocity": 100}, {"time": 108492, "pitch": 67, "duration": 230, "velocity": 110}, {"time": 108722, "pitch": 59, "duration": 250, "velocity": 90}, {"time": 108722, "pitch": 67, "duration": 250, "velocity": 100}, {"time": 108732, "pitch": 50, "duration": 230, "velocity": 100}, {"time": 108732, "pitch": 55, "duration": 230, "velocity": 95}, {"time": 108962, "pitch": 50, "duration": 250, "velocity": 110}, {"time": 108962, "pitch": 55, "duration": 250, "velocity": 110}, {"time": 108972, "pitch": 59, "duration": 230, "velocity": 115}, {"time": 108972, "pitch": 67, "duration": 230, "velocity": 120}, {"time": 109202, "pitch": 59, "duration": 230, "velocity": 95}, {"time": 109202, "pitch": 67, "duration": 230, "velocity": 100}, {"time": 109212, "pitch": 50, "duration": 220, "velocity": 100}, {"time": 109212, "pitch": 55, "duration": 220, "velocity": 90}, {"time": 109442, "pitch": 52, "duration": 250, "velocity": 110}, {"time": 109442, "pitch": 57, "duration": 250, "velocity": 105}, {"time": 109452, "pitch": 60, "duration": 230, "velocity": 100}, {"time": 109452, "pitch": 64, "duration": 230, "velocity": 110}, {"time": 109682, "pitch": 60, "duration": 250, "velocity": 90}, {"time": 109682, "pitch": 64, "duration": 250, "velocity": 100}, {"time": 109692, "pitch": 52, "duration": 230, "velocity": 100}, {"time": 109692, "pitch": 57, "duration": 230, "velocity": 95}, {"time": 109922, "pitch": 52, "duration": 250, "velocity": 110}, {"time": 109922, "pitch": 57, "duration": 250, "velocity": 110}, {"time": 109932, "pitch": 60, "duration": 230, "velocity": 115}, {"time": 109932, "pitch": 64, "duration": 230, "velocity": 120}, {"time": 110162, "pitch": 60, "duration": 230, "velocity": 95}, {"time": 110162, "pitch": 64, "duration": 230, "velocity": 100}, {"time": 110172, "pitch": 52, "duration": 220, "velocity": 100}, {"time": 110172, "pitch": 57, "duration": 220, "velocity": 90}, {"time": 110402, "pitch": 53, "duration": 250, "velocity": 110}, {"time": 110402, "pitch": 57, "duration": 250, "velocity": 105}, {"time": 110412, "pitch": 60, "duration": 230, "velocity": 100}, {"time": 110412, "pitch": 65, "duration": 230, "velocity": 110}, {"time": 110642, "pitch": 60, "duration": 250, "velocity": 90}, {"time": 110642, "pitch": 65, "duration": 250, "velocity": 100}, {"time": 110652, "pitch": 53, "duration": 230, "velocity": 100}, {"time": 110652, "pitch": 57, "duration": 230, "velocity": 95}, {"time": 110882, "pitch": 53, "duration": 250, "velocity": 110}, {"time": 110882, "pitch": 57, "duration": 250, "velocity": 110}, {"time": 110892, "pitch": 60, "duration": 230, "velocity": 115}, {"time": 110892, "pitch": 65, "duration": 230, "velocity": 120}, {"time": 111122, "pitch": 60, "duration": 230, "velocity": 95}, {"time": 111122, "pitch": 65, "duration": 230, "velocity": 100}, {"time": 111132, "pitch": 53, "duration": 220, "velocity": 100}, {"time": 111132, "pitch": 57, "duration": 220, "velocity": 90}, {"time": 111362, "pitch": 50, "duration": 250, "velocity": 110}, {"time": 111362, "pitch": 55, "duration": 250, "velocity": 105}, {"time": 111372, "pitch": 59, "duration": 230, "velocity": 100}, {"time": 111372, "pitch": 67, "duration": 230, "velocity": 110}, {"time": 111602, "pitch": 59, "duration": 250, "velocity": 90}, {"time": 111602, "pitch": 67, "duration": 250, "velocity": 100}, {"time": 111612, "pitch": 50, "duration": 230, "velocity": 100}, {"time": 111612, "pitch": 55, "duration": 230, "velocity": 95}, {"time": 111842, "pitch": 50, "duration": 250, "velocity": 110}, {"time": 111842, "pitch": 55, "duration": 250, "velocity": 110}, {"time": 111852, "pitch": 59, "duration": 230, "velocity": 115}, {"time": 111852, "pitch": 67, "duration": 230, "velocity": 120}, {"time": 112082, "pitch": 59, "duration": 230, "velocity": 95}, {"time": 112082, "pitch": 67, "duration": 230, "velocity": 100}, {"time": 112092, "pitch": 50, "duration": 220, "velocity": 100}, {"time": 112092, "pitch": 55, "duration": 220, "velocity": 90}, {"time": 112322, "pitch": 50, "duration": 250, "velocity": 110}, {"time": 112322, "pitch": 55, "duration": 250, "velocity": 105}, {"time": 112332, "pitch": 59, "duration": 230, "velocity": 100}, {"time": 112332, "pitch": 67, "duration": 230, "velocity": 110}, {"time": 112562, "pitch": 59, "duration": 250, "velocity": 90}, {"time": 112562, "pitch": 67, "duration": 250, "velocity": 100}, {"time": 112572, "pitch": 50, "duration": 230, "velocity": 100}, {"time": 112572, "pitch": 55, "duration": 230, "velocity": 95}, {"time": 112802, "pitch": 50, "duration": 250, "velocity": 110}, {"time": 112802, "pitch": 55, "duration": 250, "velocity": 110}, {"time": 112812, "pitch": 59, "duration": 230, "velocity": 115}, {"time": 112812, "pitch": 67, "duration": 230, "velocity": 120}, {"time": 113042, "pitch": 59, "duration": 230, "velocity": 95}, {"time": 113042, "pitch": 67, "duration": 230, "velocity": 100}, {"time": 113052, "pitch": 50, "duration": 220, "velocity": 100}, {"time": 113052, "pitch": 55, "duration": 220, "velocity": 90}, {"time": 113282, "pitch": 50, "duration": 250, "velocity": 120}, {"time": 113282, "pitch": 57, "duration": 250, "velocity": 115}, {"time": 113292, "pitch": 62, "duration": 230, "velocity": 110}, {"time": 113292, "pitch": 65, "duration": 230, "velocity": 120}, {"time": 113522, "pitch": 62, "duration": 250, "velocity": 90}, {"time": 113522, "pitch": 65, "duration": 250, "velocity": 100}, {"time": 113532, "pitch": 50, "duration": 230, "velocity": 100}, {"time": 113532, "pitch": 57, "duration": 230, "velocity": 95}, {"time": 113762, "pitch": 50, "duration": 250, "velocity": 100}, {"time": 113762, "pitch": 57, "duration": 250, "velocity": 100}, {"time": 113772, "pitch": 62, "duration": 230, "velocity": 105}, {"time": 113772, "pitch": 65, "duration": 230, "velocity": 110}, {"time": 114002, "pitch": 60, "duration": 490, "velocity": 115}, {"time": 114002, "pitch": 64, "duration": 490, "velocity": 120}, {"time": 114012, "pitch": 52, "duration": 470, "velocity": 120}, {"time": 114012, "pitch": 55, "duration": 470, "velocity": 110}, {"time": 114482, "pitch": 52, "duration": 130, "velocity": 110}, {"time": 114482, "pitch": 55, "duration": 130, "velocity": 105}, {"time": 114492, "pitch": 60, "duration": 110, "velocity": 100}, {"time": 114492, "pitch": 64, "duration": 110, "velocity": 110}, {"time": 114602, "pitch": 60, "duration": 130, "velocity": 90}, {"time": 114602, "pitch": 64, "duration": 130, "velocity": 100}, {"time": 114612, "pitch": 52, "duration": 110, "velocity": 100}, {"time": 114612, "pitch": 55, "duration": 110, "velocity": 95}, {"time": 114722, "pitch": 52, "duration": 250, "velocity": 100}, {"time": 114722, "pitch": 55, "duration": 250, "velocity": 100}, {"time": 114732, "pitch": 60, "duration": 230, "velocity": 105}, {"time": 114732, "pitch": 64, "duration": 230, "velocity": 110}, {"time": 114962, "pitch": 60, "duration": 230, "velocity": 95}, {"time": 114962, "pitch": 64, "duration": 230, "velocity": 100}, {"time": 114972, "pitch": 52, "duration": 220, "velocity": 100}, {"time": 114972, "pitch": 55, "duration": 220, "velocity": 90}, {"time": 115202, "pitch": 53, "duration": 250, "velocity": 120}, {"time": 115202, "pitch": 57, "duration": 250, "velocity": 115}, {"time": 115212, "pitch": 60, "duration": 230, "velocity": 110}, {"time": 115212, "pitch": 65, "duration": 230, "velocity": 120}, {"time": 115442, "pitch": 60, "duration": 250, "velocity": 90}, {"time": 115442, "pitch": 65, "duration": 250, "velocity": 100}, {"time": 115452, "pitch": 53, "duration": 230, "velocity": 100}, {"time": 115452, "pitch": 57, "duration": 230, "velocity": 95}, {"time": 115682, "pitch": 53, "duration": 250, "velocity": 100}, {"time": 115682, "pitch": 57, "duration": 250, "velocity": 100}, {"time": 115692, "pitch": 60, "duration": 230, "velocity": 105}, {"time": 115692, "pitch": 65, "duration": 230, "velocity": 110}, {"time": 115922, "pitch": 59, "duration": 490, "velocity": 115}, {"time": 115922, "pitch": 67, "duration": 490, "velocity": 120}, {"time": 115932, "pitch": 50, "duration": 470, "velocity": 120}, {"time": 115932, "pitch": 55, "duration": 470, "velocity": 110}, {"time": 116402, "pitch": 50, "duration": 130, "velocity": 110}, {"time": 116402, "pitch": 55, "duration": 130, "velocity": 105}, {"time": 116412, "pitch": 59, "duration": 110, "velocity": 100}, {"time": 116412, "pitch": 67, "duration": 110, "velocity": 110}, {"time": 116522, "pitch": 59, "duration": 129, "velocity": 90}, {"time": 116522, "pitch": 67, "duration": 129, "velocity": 100}, {"time": 116532, "pitch": 50, "duration": 109, "velocity": 100}, {"time": 116532, "pitch": 55, "duration": 109, "velocity": 95}, {"time": 116641, "pitch": 50, "duration": 250, "velocity": 100}, {"time": 116641, "pitch": 55, "duration": 250, "velocity": 100}, {"time": 116651, "pitch": 59, "duration": 230, "velocity": 105}, {"time": 116651, "pitch": 67, "duration": 230, "velocity": 110}, {"time": 116881, "pitch": 59, "duration": 230, "velocity": 95}, {"time": 116881, "pitch": 67, "duration": 230, "velocity": 100}, {"time": 116891, "pitch": 50, "duration": 220, "velocity": 100}, {"time": 116891, "pitch": 55, "duration": 220, "velocity": 90}, {"time": 117121, "pitch": 40, "duration": 40, "velocity": 110}, {"time": 117121, "pitch": 48, "duration": 40, "velocity": 105}, {"time": 117131, "pitch": 52, "duration": 40, "velocity": 100}, {"time": 117131, "pitch": 55, "duration": 40, "velocity": 110}, {"time": 117361, "pitch": 52, "duration": 40, "velocity": 100}, {"time": 117361, "pitch": 55, "duration": 40, "velocity": 110}, {"time": 117371, "pitch": 40, "duration": 40, "velocity": 110}, {"time": 117371, "pitch": 48, "duration": 40, "velocity": 105}, {"time": 117601, "pitch": 52, "duration": 360, "velocity": 110}, {"time": 117601, "pitch": 55, "duration": 360, "velocity": 110}, {"time": 117611, "pitch": 60, "duration": 350, "velocity": 115}, {"time": 117611, "pitch": 64, "duration": 350, "velocity": 120}, {"time": 117961, "pitch": 55, "duration": 30, "velocity": 105}, {"time": 117961, "pitch": 60, "duration": 30, "velocity": 110}, {"time": 117971, "pitch": 48, "duration": 30, "velocity": 110}, {"time": 117971, "pitch": 52, "duration": 30, "velocity": 100}, {"time": 118081, "pitch": 40, "duration": 40, "velocity": 110}, {"time": 118081, "pitch": 45, "duration": 40, "velocity": 105}, {"time": 118091, "pitch": 52, "duration": 40, "velocity": 100}, {"time": 118091, "pitch": 57, "duration": 40, "velocity": 110}, {"time": 118321, "pitch": 52, "duration": 40, "velocity": 100}, {"time": 118321, "pitch": 57, "duration": 40, "velocity": 110}, {"time": 118331, "pitch": 40, "duration": 40, "velocity": 110}, {"time": 118331, "pitch": 45, "duration": 40, "velocity": 105}, {"time": 118561, "pitch": 52, "duration": 360, "velocity": 110}, {"time": 118561, "pitch": 57, "duration": 360, "velocity": 110}, {"time": 118571, "pitch": 60, "duration": 350, "velocity": 115}, {"time": 118571, "pitch": 64, "duration": 350, "velocity": 120}, {"time": 118921, "pitch": 57, "duration": 30, "velocity": 105}, {"time": 118921, "pitch": 60, "duration": 30, "velocity": 110}, {"time": 118931, "pitch": 45, "duration": 30, "velocity": 110}, {"time": 118931, "pitch": 52, "duration": 30, "velocity": 100}, {"time": 119041, "pitch": 43, "duration": 40, "velocity": 110}, {"time": 119041, "pitch": 47, "duration": 40, "velocity": 105}, {"time": 119051, "pitch": 50, "duration": 40, "velocity": 100}, {"time": 119051, "pitch": 55, "duration": 40, "velocity": 110}, {"time": 119281, "pitch": 50, "duration": 40, "velocity": 100}, {"time": 119281, "pitch": 55, "duration": 40, "velocity": 110}, {"time": 119291, "pitch": 43, "duration": 40, "velocity": 110}, {"time": 119291, "pitch": 47, "duration": 40, "velocity": 105}, {"time": 119521, "pitch": 50, "duration": 360, "velocity": 110}, {"time": 119521, "pitch": 55, "duration": 360, "velocity": 110}, {"time": 119531, "pitch": 59, "duration": 350, "velocity": 115}, {"time": 119531, "pitch": 67, "duration": 350, "velocity": 120}, {"time": 119881, "pitch": 55, "duration": 30, "velocity": 105}, {"time": 119881, "pitch": 59, "duration": 30, "velocity": 110}, {"time": 119891, "pitch": 47, "duration": 30, "velocity": 110}, {"time": 119891, "pitch": 50, "duration": 30, "velocity": 100}, {"time": 120001, "pitch": 41, "duration": 40, "velocity": 110}, {"time": 120001, "pitch": 45, "duration": 40, "velocity": 105}, {"time": 120011, "pitch": 53, "duration": 40, "velocity": 100}, {"time": 120011, "pitch": 57, "duration": 40, "velocity": 110}, {"time": 120241, "pitch": 53, "duration": 40, "velocity": 100}, {"time": 120241, "pitch": 57, "duration": 40, "velocity": 110}, {"time": 120251, "pitch": 41, "duration": 40, "velocity": 110}, {"time": 120251, "pitch": 45, "duration": 40, "velocity": 105}, {"time": 120481, "pitch": 53, "duration": 360, "velocity": 110}, {"time": 120481, "pitch": 57, "duration": 360, "velocity": 110}, {"time": 120491, "pitch": 60, "duration": 350, "velocity": 115}, {"time": 120491, "pitch": 65, "duration": 350, "velocity": 120}, {"time": 120841, "pitch": 57, "duration": 30, "velocity": 105}, {"time": 120841, "pitch": 60, "duration": 30, "velocity": 110}, {"time": 120851, "pitch": 45, "duration": 30, "velocity": 110}, {"time": 120851, "pitch": 53, "duration": 30, "velocity": 100}, {"time": 120961, "pitch": 40, "duration": 40, "velocity": 110}, {"time": 120961, "pitch": 48, "duration": 40, "velocity": 105}, {"time": 120971, "pitch": 52, "duration": 40, "velocity": 100}, {"time": 120971, "pitch": 55, "duration": 40, "velocity": 110}, {"time": 121201, "pitch": 52, "duration": 40, "velocity": 100}, {"time": 121201, "pitch": 55, "duration": 40, "velocity": 110}, {"time": 121211, "pitch": 40, "duration": 40, "velocity": 110}, {"time": 121211, "pitch": 48, "duration": 40, "velocity": 105}, {"time": 121441, "pitch": 52, "duration": 360, "velocity": 110}, {"time": 121441, "pitch": 55, "duration": 360, "velocity": 110}, {"time": 121451, "pitch": 60, "duration": 350, "velocity": 115}, {"time": 121451, "pitch": 64, "duration": 350, "velocity": 120}, {"time": 121801, "pitch": 55, "duration": 30, "velocity": 105}, {"time": 121801, "pitch": 60, "duration": 30, "velocity": 110}, {"time": 121811, "pitch": 48, "duration": 30, "velocity": 110}, {"time": 121811, "pitch": 52, "duration": 30, "velocity": 100}, {"time": 121921, "pitch": 40, "duration": 40, "velocity": 110}, {"time": 121921, "pitch": 45, "duration": 40, "velocity": 105}, {"time": 121931, "pitch": 52, "duration": 40, "velocity": 100}, {"time": 121931, "pitch": 57, "duration": 40, "velocity": 110}, {"time": 122161, "pitch": 52, "duration": 40, "velocity": 100}, {"time": 122161, "pitch": 57, "duration": 40, "velocity": 110}, {"time": 122171, "pitch": 40, "duration": 40, "velocity": 110}, {"time": 122171, "pitch": 45, "duration": 40, "velocity": 105}, {"time": 122401, "pitch": 52, "duration": 360, "velocity": 110}, {"time": 122401, "pitch": 57, "duration": 360, "velocity": 110}, {"time": 122411, "pitch": 60, "duration": 350, "velocity": 115}, {"time": 122411, "pitch": 64, "duration": 350, "velocity": 120}, {"time": 122761, "pitch": 57, "duration": 30, "velocity": 105}, {"time": 122761, "pitch": 60, "duration": 30, "velocity": 110}, {"time": 122771, "pitch": 45, "duration": 30, "velocity": 110}, {"time": 122771, "pitch": 52, "duration": 30, "velocity": 100}, {"time": 122881, "pitch": 43, "duration": 40, "velocity": 110}, {"time": 122881, "pitch": 47, "duration": 40, "velocity": 105}, {"time": 122891, "pitch": 50, "duration": 40, "velocity": 100}, {"time": 122891, "pitch": 55, "duration": 40, "velocity": 110}, {"time": 123121, "pitch": 50, "duration": 40, "velocity": 100}, {"time": 123121, "pitch": 55, "duration": 40, "velocity": 110}, {"time": 123131, "pitch": 43, "duration": 40, "velocity": 110}, {"time": 123131, "pitch": 47, "duration": 40, "velocity": 105}, {"time": 123361, "pitch": 50, "duration": 360, "velocity": 110}, {"time": 123361, "pitch": 55, "duration": 360, "velocity": 110}, {"time": 123371, "pitch": 59, "duration": 350, "velocity": 115}, {"time": 123371, "pitch": 67, "duration": 350, "velocity": 120}, {"time": 123721, "pitch": 55, "duration": 30, "velocity": 105}, {"time": 123721, "pitch": 59, "duration": 30, "velocity": 110}, {"time": 123731, "pitch": 47, "duration": 30, "velocity": 110}, {"time": 123731, "pitch": 50, "duration": 30, "velocity": 100}, {"time": 123841, "pitch": 41, "duration": 40, "velocity": 110}, {"time": 123841, "pitch": 45, "duration": 40, "velocity": 105}, {"time": 123851, "pitch": 53, "duration": 40, "velocity": 100}, {"time": 123851, "pitch": 57, "duration": 40, "velocity": 110}, {"time": 124081, "pitch": 53, "duration": 40, "velocity": 100}, {"time": 124081, "pitch": 57, "duration": 40, "velocity": 110}, {"time": 124091, "pitch": 41, "duration": 40, "velocity": 110}, {"time": 124091, "pitch": 45, "duration": 40, "velocity": 105}, {"time": 124321, "pitch": 53, "duration": 360, "velocity": 110}, {"time": 124321, "pitch": 57, "duration": 360, "velocity": 110}, {"time": 124331, "pitch": 60, "duration": 350, "velocity": 115}, {"time": 124331, "pitch": 65, "duration": 350, "velocity": 120}, {"time": 124681, "pitch": 57, "duration": 30, "velocity": 105}, {"time": 124681, "pitch": 60, "duration": 30, "velocity": 110}, {"time": 124691, "pitch": 45, "duration": 30, "velocity": 110}, {"time": 124691, "pitch": 53, "duration": 30, "velocity": 100}, {"time": 124801, "pitch": 40, "duration": 40, "velocity": 110}, {"time": 124801, "pitch": 48, "duration": 40, "velocity": 105}, {"time": 124811, "pitch": 52, "duration": 40, "velocity": 100}, {"time": 124811, "pitch": 55, "duration": 40, "velocity": 110}, {"time": 125041, "pitch": 52, "duration": 40, "velocity": 100}, {"time": 125041, "pitch": 55, "duration": 40, "velocity": 110}, {"time": 125051, "pitch": 40, "duration": 40, "velocity": 110}, {"time": 125051, "pitch": 48, "duration": 40, "velocity": 105}, {"time": 125281, "pitch": 52, "duration": 360, "velocity": 110}, {"time": 125281, "pitch": 55, "duration": 360, "velocity": 110}, {"time": 125291, "pitch": 60, "duration": 350, "velocity": 115}, {"time": 125291, "pitch": 64, "duration": 350, "velocity": 120}, {"time": 125641, "pitch": 55, "duration": 30, "velocity": 105}, {"time": 125641, "pitch": 60, "duration": 30, "velocity": 110}, {"time": 125651, "pitch": 48, "duration": 30, "velocity": 110}, {"time": 125651, "pitch": 52, "duration": 30, "velocity": 100}, {"time": 125761, "pitch": 40, "duration": 40, "velocity": 110}, {"time": 125761, "pitch": 45, "duration": 40, "velocity": 105}, {"time": 125771, "pitch": 52, "duration": 40, "velocity": 100}, {"time": 125771, "pitch": 57, "duration": 40, "velocity": 110}, {"time": 126001, "pitch": 52, "duration": 40, "velocity": 100}, {"time": 126001, "pitch": 57, "duration": 40, "velocity": 110}, {"time": 126011, "pitch": 40, "duration": 40, "velocity": 110}, {"time": 126011, "pitch": 45, "duration": 40, "velocity": 105}, {"time": 126241, "pitch": 52, "duration": 360, "velocity": 110}, {"time": 126241, "pitch": 57, "duration": 360, "velocity": 110}, {"time": 126251, "pitch": 60, "duration": 350, "velocity": 115}, {"time": 126251, "pitch": 64, "duration": 350, "velocity": 120}, {"time": 126601, "pitch": 57, "duration": 30, "velocity": 105}, {"time": 126601, "pitch": 60, "duration": 30, "velocity": 110}, {"time": 126611, "pitch": 45, "duration": 30, "velocity": 110}, {"time": 126611, "pitch": 52, "duration": 30, "velocity": 100}, {"time": 126721, "pitch": 43, "duration": 40, "velocity": 110}, {"time": 126721, "pitch": 47, "duration": 40, "velocity": 105}, {"time": 126731, "pitch": 50, "duration": 40, "velocity": 100}, {"time": 126731, "pitch": 55, "duration": 40, "velocity": 110}, {"time": 126961, "pitch": 50, "duration": 40, "velocity": 100}, {"time": 126961, "pitch": 55, "duration": 40, "velocity": 110}, {"time": 126971, "pitch": 43, "duration": 40, "velocity": 110}, {"time": 126971, "pitch": 47, "duration": 40, "velocity": 105}, {"time": 127201, "pitch": 50, "duration": 360, "velocity": 110}, {"time": 127201, "pitch": 55, "duration": 360, "velocity": 110}, {"time": 127211, "pitch": 59, "duration": 350, "velocity": 115}, {"time": 127211, "pitch": 67, "duration": 350, "velocity": 120}, {"time": 127561, "pitch": 55, "duration": 30, "velocity": 105}, {"time": 127561, "pitch": 59, "duration": 30, "velocity": 110}, {"time": 127571, "pitch": 47, "duration": 30, "velocity": 110}, {"time": 127571, "pitch": 50, "duration": 30, "velocity": 100}, {"time": 127681, "pitch": 41, "duration": 40, "velocity": 110}, {"time": 127681, "pitch": 45, "duration": 40, "velocity": 105}, {"time": 127691, "pitch": 53, "duration": 40, "velocity": 100}, {"time": 127691, "pitch": 57, "duration": 40, "velocity": 110}, {"time": 127921, "pitch": 53, "duration": 40, "velocity": 100}, {"time": 127921, "pitch": 57, "duration": 40, "velocity": 110}, {"time": 127931, "pitch": 41, "duration": 40, "velocity": 110}, {"time": 127931, "pitch": 45, "duration": 40, "velocity": 105}, {"time": 128161, "pitch": 53, "duration": 360, "velocity": 110}, {"time": 128161, "pitch": 57, "duration": 360, "velocity": 110}, {"time": 128171, "pitch": 60, "duration": 350, "velocity": 115}, {"time": 128171, "pitch": 65, "duration": 350, "velocity": 120}, {"time": 128521, "pitch": 57, "duration": 30, "velocity": 105}, {"time": 128521, "pitch": 60, "duration": 30, "velocity": 110}, {"time": 128531, "pitch": 45, "duration": 30, "velocity": 110}, {"time": 128531, "pitch": 53, "duration": 30, "velocity": 100}, {"time": 128641, "pitch": 40, "duration": 40, "velocity": 110}, {"time": 128641, "pitch": 48, "duration": 40, "velocity": 105}, {"time": 128651, "pitch": 52, "duration": 40, "velocity": 100}, {"time": 128651, "pitch": 55, "duration": 40, "velocity": 110}, {"time": 128881, "pitch": 52, "duration": 40, "velocity": 100}, {"time": 128881, "pitch": 55, "duration": 40, "velocity": 110}, {"time": 128891, "pitch": 40, "duration": 40, "velocity": 110}, {"time": 128891, "pitch": 48, "duration": 40, "velocity": 105}, {"time": 129121, "pitch": 52, "duration": 360, "velocity": 110}, {"time": 129121, "pitch": 55, "duration": 360, "velocity": 110}, {"time": 129131, "pitch": 60, "duration": 350, "velocity": 115}, {"time": 129131, "pitch": 64, "duration": 350, "velocity": 120}, {"time": 129481, "pitch": 55, "duration": 30, "velocity": 105}, {"time": 129481, "pitch": 60, "duration": 30, "velocity": 110}, {"time": 129491, "pitch": 48, "duration": 30, "velocity": 110}, {"time": 129491, "pitch": 52, "duration": 30, "velocity": 100}, {"time": 129601, "pitch": 40, "duration": 40, "velocity": 110}, {"time": 129601, "pitch": 45, "duration": 40, "velocity": 105}, {"time": 129611, "pitch": 52, "duration": 40, "velocity": 100}, {"time": 129611, "pitch": 57, "duration": 40, "velocity": 110}, {"time": 129841, "pitch": 52, "duration": 40, "velocity": 100}, {"time": 129841, "pitch": 57, "duration": 40, "velocity": 110}, {"time": 129851, "pitch": 40, "duration": 40, "velocity": 110}, {"time": 129851, "pitch": 45, "duration": 40, "velocity": 105}, {"time": 130081, "pitch": 52, "duration": 360, "velocity": 110}, {"time": 130081, "pitch": 57, "duration": 360, "velocity": 110}, {"time": 130091, "pitch": 60, "duration": 350, "velocity": 115}, {"time": 130091, "pitch": 64, "duration": 350, "velocity": 120}, {"time": 130441, "pitch": 57, "duration": 30, "velocity": 105}, {"time": 130441, "pitch": 60, "duration": 30, "velocity": 110}, {"time": 130451, "pitch": 45, "duration": 30, "velocity": 110}, {"time": 130451, "pitch": 52, "duration": 30, "velocity": 100}, {"time": 130561, "pitch": 43, "duration": 40, "velocity": 110}, {"time": 130561, "pitch": 47, "duration": 40, "velocity": 105}, {"time": 130571, "pitch": 50, "duration": 40, "velocity": 100}, {"time": 130571, "pitch": 55, "duration": 40, "velocity": 110}, {"time": 130801, "pitch": 50, "duration": 40, "velocity": 100}, {"time": 130801, "pitch": 55, "duration": 40, "velocity": 110}, {"time": 130811, "pitch": 43, "duration": 40, "velocity": 110}, {"time": 130811, "pitch": 47, "duration": 40, "velocity": 105}, {"time": 131041, "pitch": 50, "duration": 360, "velocity": 110}, {"time": 131041, "pitch": 55, "duration": 360, "velocity": 110}, {"time": 131051, "pitch": 59, "duration": 350, "velocity": 115}, {"time": 131051, "pitch": 67, "duration": 350, "velocity": 120}, {"time": 131401, "pitch": 55, "duration": 30, "velocity": 105}, {"time": 131401, "pitch": 59, "duration": 30, "velocity": 110}, {"time": 131411, "pitch": 47, "duration": 30, "velocity": 110}, {"time": 131411, "pitch": 50, "duration": 30, "velocity": 100}, {"time": 131521, "pitch": 41, "duration": 40, "velocity": 110}, {"time": 131521, "pitch": 45, "duration": 40, "velocity": 105}, {"time": 131531, "pitch": 53, "duration": 40, "velocity": 100}, {"time": 131531, "pitch": 57, "duration": 40, "velocity": 110}, {"time": 131761, "pitch": 53, "duration": 40, "velocity": 100}, {"time": 131761, "pitch": 57, "duration": 40, "velocity": 110}, {"time": 131771, "pitch": 41, "duration": 40, "velocity": 110}, {"time": 131771, "pitch": 45, "duration": 40, "velocity": 105}, {"time": 132001, "pitch": 53, "duration": 360, "velocity": 110}, {"time": 132001, "pitch": 57, "duration": 360, "velocity": 110}, {"time": 132011, "pitch": 60, "duration": 350, "velocity": 115}, {"time": 132011, "pitch": 65, "duration": 350, "velocity": 120}, {"time": 132361, "pitch": 57, "duration": 30, "velocity": 105}, {"time": 132361, "pitch": 60, "duration": 30, "velocity": 110}, {"time": 132371, "pitch": 45, "duration": 30, "velocity": 110}, {"time": 132371, "pitch": 53, "duration": 30, "velocity": 100}, {"time": 132481, "pitch": 53, "duration": 250, "velocity": 110}, {"time": 132481, "pitch": 57, "duration": 250, "velocity": 105}, {"time": 132491, "pitch": 60, "duration": 230, "velocity": 100}, {"time": 132491, "pitch": 65, "duration": 230, "velocity": 110}, {"time": 132721, "pitch": 60, "duration": 250, "velocity": 90}, {"time": 132721, "pitch": 65, "duration": 250, "velocity": 100}, {"time": 132731, "pitch": 53, "duration": 230, "velocity": 100}, {"time": 132731, "pitch": 57, "duration": 230, "velocity": 95}, {"time": 132961, "pitch": 53, "duration": 370, "velocity": 110}, {"time": 132961, "pitch": 57, "duration": 370, "velocity": 110}, {"time": 132971, "pitch": 60, "duration": 350, "velocity": 115}, {"time": 132971, "pitch": 65, "duration": 350, "velocity": 120}, {"time": 133321, "pitch": 60, "duration": 130, "velocity": 95}, {"time": 133321, "pitch": 65, "duration": 130, "velocity": 100}, {"time": 133331, "pitch": 53, "duration": 110, "velocity": 100}, {"time": 133331, "pitch": 57, "duration": 110, "velocity": 90}, {"time": 133441, "pitch": 53, "duration": 130, "velocity": 110}, {"time": 133441, "pitch": 57, "duration": 130, "velocity": 105}, {"time": 133451, "pitch": 60, "duration": 110, "velocity": 100}, {"time": 133451, "pitch": 65, "duration": 110, "velocity": 110}, {"time": 133561, "pitch": 60, "duration": 130, "velocity": 90}, {"time": 133561, "pitch": 65, "duration": 130, "velocity": 100}, {"time": 133571, "pitch": 53, "duration": 110, "velocity": 100}, {"time": 133571, "pitch": 57, "duration": 110, "velocity": 95}, {"time": 133681, "pitch": 53, "duration": 240, "velocity": 110}, {"time": 133681, "pitch": 57, "duration": 240, "velocity": 105}, {"time": 133691, "pitch": 60, "duration": 240, "velocity": 100}, {"time": 133691, "pitch": 65, "duration": 230, "velocity": 110}, {"time": 133921, "pitch": 53, "duration": 370, "velocity": 110}, {"time": 133921, "pitch": 57, "duration": 370, "velocity": 110}, {"time": 133931, "pitch": 60, "duration": 350, "velocity": 115}, {"time": 133931, "pitch": 65, "duration": 350, "velocity": 120}, {"time": 134281, "pitch": 60, "duration": 80, "velocity": 95}, {"time": 134281, "pitch": 65, "duration": 80, "velocity": 100}, {"time": 134291, "pitch": 53, "duration": 70, "velocity": 100}, {"time": 134291, "pitch": 57, "duration": 70, "velocity": 90}, {"time": 134401, "pitch": 52, "duration": 250, "velocity": 110}, {"time": 134401, "pitch": 55, "duration": 250, "velocity": 105}, {"time": 134411, "pitch": 60, "duration": 230, "velocity": 100}, {"time": 134411, "pitch": 64, "duration": 230, "velocity": 110}, {"time": 134641, "pitch": 60, "duration": 250, "velocity": 90}, {"time": 134641, "pitch": 64, "duration": 250, "velocity": 100}, {"time": 134651, "pitch": 52, "duration": 230, "velocity": 100}, {"time": 134651, "pitch": 55, "duration": 230, "velocity": 95}, {"time": 134881, "pitch": 52, "duration": 370, "velocity": 110}, {"time": 134881, "pitch": 55, "duration": 370, "velocity": 110}, {"time": 134891, "pitch": 60, "duration": 350, "velocity": 115}, {"time": 134891, "pitch": 64, "duration": 350, "velocity": 120}, {"time": 135241, "pitch": 60, "duration": 130, "velocity": 95}, {"time": 135241, "pitch": 64, "duration": 130, "velocity": 100}, {"time": 135251, "pitch": 52, "duration": 110, "velocity": 100}, {"time": 135251, "pitch": 55, "duration": 110, "velocity": 90}, {"time": 135361, "pitch": 52, "duration": 130, "velocity": 110}, {"time": 135361, "pitch": 55, "duration": 130, "velocity": 105}, {"time": 135371, "pitch": 60, "duration": 110, "velocity": 100}, {"time": 135371, "pitch": 64, "duration": 110, "velocity": 110}, {"time": 135481, "pitch": 60, "duration": 130, "velocity": 90}, {"time": 135481, "pitch": 64, "duration": 130, "velocity": 100}, {"time": 135491, "pitch": 52, "duration": 110, "velocity": 100}, {"time": 135491, "pitch": 55, "duration": 110, "velocity": 95}, {"time": 135601, "pitch": 52, "duration": 240, "velocity": 110}, {"time": 135601, "pitch": 55, "duration": 240, "velocity": 105}, {"time": 135611, "pitch": 60, "duration": 240, "velocity": 100}, {"time": 135611, "pitch": 64, "duration": 230, "velocity": 110}, {"time": 135841, "pitch": 52, "duration": 370, "velocity": 110}, {"time": 135841, "pitch": 55, "duration": 370, "velocity": 110}, {"time": 135851, "pitch": 60, "duration": 350, "velocity": 115}, {"time": 135851, "pitch": 64, "duration": 350, "velocity": 120}, {"time": 136201, "pitch": 60, "duration": 80, "velocity": 95}, {"time": 136201, "pitch": 64, "duration": 80, "velocity": 100}, {"time": 136211, "pitch": 52, "duration": 70, "velocity": 100}, {"time": 136211, "pitch": 55, "duration": 70, "velocity": 90}, {"time": 136321, "pitch": 53, "duration": 250, "velocity": 110}, {"time": 136321, "pitch": 57, "duration": 250, "velocity": 105}, {"time": 136331, "pitch": 60, "duration": 230, "velocity": 100}, {"time": 136331, "pitch": 65, "duration": 230, "velocity": 110}, {"time": 136561, "pitch": 60, "duration": 250, "velocity": 90}, {"time": 136561, "pitch": 65, "duration": 250, "velocity": 100}, {"time": 136571, "pitch": 53, "duration": 230, "velocity": 100}, {"time": 136571, "pitch": 57, "duration": 230, "velocity": 95}, {"time": 136801, "pitch": 53, "duration": 370, "velocity": 110}, {"time": 136801, "pitch": 57, "duration": 370, "velocity": 110}, {"time": 136811, "pitch": 60, "duration": 350, "velocity": 115}, {"time": 136811, "pitch": 65, "duration": 350, "velocity": 120}, {"time": 137161, "pitch": 60, "duration": 130, "velocity": 95}, {"time": 137161, "pitch": 65, "duration": 130, "velocity": 100}, {"time": 137171, "pitch": 53, "duration": 110, "velocity": 100}, {"time": 137171, "pitch": 57, "duration": 110, "velocity": 90}, {"time": 137281, "pitch": 53, "duration": 130, "velocity": 110}, {"time": 137281, "pitch": 57, "duration": 130, "velocity": 105}, {"time": 137291, "pitch": 60, "duration": 110, "velocity": 100}, {"time": 137291, "pitch": 65, "duration": 110, "velocity": 110}, {"time": 137401, "pitch": 60, "duration": 130, "velocity": 90}, {"time": 137401, "pitch": 65, "duration": 130, "velocity": 100}, {"time": 137411, "pitch": 53, "duration": 110, "velocity": 100}, {"time": 137411, "pitch": 57, "duration": 110, "velocity": 95}, {"time": 137521, "pitch": 53, "duration": 240, "velocity": 110}, {"time": 137521, "pitch": 57, "duration": 240, "velocity": 105}, {"time": 137531, "pitch": 60, "duration": 240, "velocity": 100}, {"time": 137531, "pitch": 65, "duration": 230, "velocity": 110}, {"time": 137761, "pitch": 53, "duration": 370, "velocity": 110}, {"time": 137761, "pitch": 57, "duration": 370, "velocity": 110}, {"time": 137771, "pitch": 60, "duration": 350, "velocity": 115}, {"time": 137771, "pitch": 65, "duration": 350, "velocity": 120}, {"time": 138121, "pitch": 60, "duration": 80, "velocity": 95}, {"time": 138121, "pitch": 65, "duration": 80, "velocity": 100}, {"time": 138131, "pitch": 53, "duration": 70, "velocity": 100}, {"time": 138131, "pitch": 57, "duration": 70, "velocity": 90}, {"time": 138241, "pitch": 52, "duration": 250, "velocity": 120}, {"time": 138241, "pitch": 57, "duration": 250, "velocity": 115}, {"time": 138251, "pitch": 60, "duration": 230, "velocity": 110}, {"time": 138251, "pitch": 64, "duration": 230, "velocity": 120}, {"time": 138481, "pitch": 60, "duration": 250, "velocity": 100}, {"time": 138481, "pitch": 64, "duration": 250, "velocity": 110}, {"time": 138491, "pitch": 52, "duration": 230, "velocity": 110}, {"time": 138491, "pitch": 57, "duration": 230, "velocity": 105}, {"time": 138721, "pitch": 52, "duration": 250, "velocity": 120}, {"time": 138721, "pitch": 57, "duration": 250, "velocity": 115}, {"time": 138731, "pitch": 60, "duration": 230, "velocity": 110}, {"time": 138731, "pitch": 64, "duration": 230, "velocity": 120}, {"time": 138961, "pitch": 60, "duration": 250, "velocity": 100}, {"time": 138961, "pitch": 64, "duration": 250, "velocity": 110}, {"time": 138971, "pitch": 52, "duration": 230, "velocity": 110}, {"time": 138971, "pitch": 57, "duration": 230, "velocity": 105}, {"time": 139201, "pitch": 50, "duration": 250, "velocity": 120}, {"time": 139201, "pitch": 59, "duration": 250, "velocity": 115}, {"time": 139211, "pitch": 62, "duration": 230, "velocity": 110}, {"time": 139211, "pitch": 67, "duration": 230, "velocity": 120}, {"time": 139441, "pitch": 62, "duration": 250, "velocity": 100}, {"time": 139441, "pitch": 67, "duration": 250, "velocity": 110}, {"time": 139451, "pitch": 50, "duration": 230, "velocity": 110}, {"time": 139451, "pitch": 59, "duration": 230, "velocity": 105}, {"time": 139681, "pitch": 50, "duration": 250, "velocity": 120}, {"time": 139681, "pitch": 59, "duration": 250, "velocity": 115}, {"time": 139691, "pitch": 62, "duration": 230, "velocity": 110}, {"time": 139691, "pitch": 67, "duration": 230, "velocity": 120}, {"time": 139921, "pitch": 62, "duration": 250, "velocity": 100}, {"time": 139921, "pitch": 67, "duration": 250, "velocity": 110}, {"time": 139931, "pitch": 50, "duration": 230, "velocity": 110}, {"time": 139931, "pitch": 59, "duration": 230, "velocity": 105}, {"time": 140161, "pitch": 53, "duration": 250, "velocity": 120}, {"time": 140161, "pitch": 57, "duration": 250, "velocity": 115}, {"time": 140171, "pitch": 60, "duration": 230, "velocity": 110}, {"time": 140171, "pitch": 65, "duration": 230, "velocity": 120}, {"time": 140401, "pitch": 60, "duration": 250, "velocity": 90}, {"time": 140401, "pitch": 65, "duration": 250, "velocity": 100}, {"time": 140411, "pitch": 53, "duration": 230, "velocity": 100}, {"time": 140411, "pitch": 57, "duration": 230, "velocity": 95}, {"time": 140641, "pitch": 53, "duration": 249, "velocity": 100}, {"time": 140641, "pitch": 57, "duration": 249, "velocity": 100}, {"time": 140651, "pitch": 60, "duration": 229, "velocity": 105}, {"time": 140651, "pitch": 65, "duration": 229, "velocity": 110}, {"time": 140880, "pitch": 59, "duration": 250, "velocity": 115}, {"time": 140880, "pitch": 67, "duration": 250, "velocity": 120}, {"time": 140890, "pitch": 50, "duration": 230, "velocity": 120}, {"time": 140890, "pitch": 55, "duration": 230, "velocity": 110}, {"time": 141120, "pitch": 50, "duration": 250, "velocity": 110}, {"time": 141120, "pitch": 55, "duration": 250, "velocity": 105}, {"time": 141130, "pitch": 59, "duration": 230, "velocity": 100}, {"time": 141130, "pitch": 67, "duration": 230, "velocity": 110}, {"time": 141360, "pitch": 59, "duration": 250, "velocity": 90}, {"time": 141360, "pitch": 67, "duration": 250, "velocity": 100}, {"time": 141370, "pitch": 50, "duration": 230, "velocity": 100}, {"time": 141370, "pitch": 55, "duration": 230, "velocity": 95}, {"time": 141600, "pitch": 52, "duration": 250, "velocity": 110}, {"time": 141600, "pitch": 55, "duration": 250, "velocity": 110}, {"time": 141610, "pitch": 60, "duration": 230, "velocity": 115}, {"time": 141610, "pitch": 64, "duration": 230, "velocity": 120}, {"time": 141840, "pitch": 60, "duration": 230, "velocity": 95}, {"time": 141840, "pitch": 64, "duration": 230, "velocity": 100}, {"time": 141850, "pitch": 52, "duration": 220, "velocity": 100}, {"time": 141850, "pitch": 55, "duration": 220, "velocity": 90}, {"time": 142080, "pitch": 53, "duration": 250, "velocity": 110}, {"time": 142080, "pitch": 57, "duration": 250, "velocity": 105}, {"time": 142090, "pitch": 60, "duration": 230, "velocity": 100}, {"time": 142090, "pitch": 65, "duration": 230, "velocity": 110}, {"time": 142320, "pitch": 60, "duration": 250, "velocity": 90}, {"time": 142320, "pitch": 65, "duration": 250, "velocity": 100}, {"time": 142330, "pitch": 53, "duration": 230, "velocity": 100}, {"time": 142330, "pitch": 57, "duration": 230, "velocity": 95}, {"time": 142560, "pitch": 53, "duration": 370, "velocity": 110}, {"time": 142560, "pitch": 57, "duration": 370, "velocity": 110}, {"time": 142570, "pitch": 60, "duration": 350, "velocity": 115}, {"time": 142570, "pitch": 65, "duration": 350, "velocity": 120}, {"time": 142920, "pitch": 60, "duration": 130, "velocity": 95}, {"time": 142920, "pitch": 65, "duration": 130, "velocity": 100}, {"time": 142930, "pitch": 53, "duration": 110, "velocity": 100}, {"time": 142930, "pitch": 57, "duration": 110, "velocity": 90}, {"time": 143040, "pitch": 53, "duration": 130, "velocity": 110}, {"time": 143040, "pitch": 57, "duration": 130, "velocity": 105}, {"time": 143050, "pitch": 60, "duration": 110, "velocity": 100}, {"time": 143050, "pitch": 65, "duration": 110, "velocity": 110}, {"time": 143160, "pitch": 60, "duration": 130, "velocity": 90}, {"time": 143160, "pitch": 65, "duration": 130, "velocity": 100}, {"time": 143170, "pitch": 53, "duration": 110, "velocity": 100}, {"time": 143170, "pitch": 57, "duration": 110, "velocity": 95}, {"time": 143280, "pitch": 53, "duration": 240, "velocity": 110}, {"time": 143280, "pitch": 57, "duration": 240, "velocity": 105}, {"time": 143290, "pitch": 60, "duration": 240, "velocity": 100}, {"time": 143290, "pitch": 65, "duration": 230, "velocity": 110}, {"time": 143520, "pitch": 53, "duration": 370, "velocity": 110}, {"time": 143520, "pitch": 57, "duration": 370, "velocity": 110}, {"time": 143530, "pitch": 60, "duration": 350, "velocity": 115}, {"time": 143530, "pitch": 65, "duration": 350, "velocity": 120}, {"time": 143880, "pitch": 60, "duration": 80, "velocity": 95}, {"time": 143880, "pitch": 65, "duration": 80, "velocity": 100}, {"time": 143890, "pitch": 53, "duration": 70, "velocity": 100}, {"time": 143890, "pitch": 57, "duration": 70, "velocity": 90}, {"time": 144000, "pitch": 50, "duration": 250, "velocity": 110}, {"time": 144000, "pitch": 57, "duration": 250, "velocity": 105}, {"time": 144010, "pitch": 62, "duration": 230, "velocity": 100}, {"time": 144010, "pitch": 65, "duration": 230, "velocity": 110}, {"time": 144240, "pitch": 62, "duration": 250, "velocity": 90}, {"time": 144240, "pitch": 65, "duration": 250, "velocity": 100}, {"time": 144250, "pitch": 50, "duration": 230, "velocity": 100}, {"time": 144250, "pitch": 57, "duration": 230, "velocity": 95}, {"time": 144480, "pitch": 50, "duration": 370, "velocity": 110}, {"time": 144480, "pitch": 57, "duration": 370, "velocity": 110}, {"time": 144490, "pitch": 62, "duration": 350, "velocity": 115}, {"time": 144490, "pitch": 65, "duration": 350, "velocity": 120}, {"time": 144840, "pitch": 62, "duration": 130, "velocity": 95}, {"time": 144840, "pitch": 65, "duration": 130, "velocity": 100}, {"time": 144850, "pitch": 50, "duration": 110, "velocity": 100}, {"time": 144850, "pitch": 57, "duration": 110, "velocity": 90}, {"time": 144960, "pitch": 50, "duration": 130, "velocity": 110}, {"time": 144960, "pitch": 57, "duration": 130, "velocity": 105}, {"time": 144970, "pitch": 62, "duration": 110, "velocity": 100}, {"time": 144970, "pitch": 65, "duration": 110, "velocity": 110}, {"time": 145080, "pitch": 62, "duration": 130, "velocity": 90}, {"time": 145080, "pitch": 65, "duration": 130, "velocity": 100}, {"time": 145090, "pitch": 50, "duration": 110, "velocity": 100}, {"time": 145090, "pitch": 57, "duration": 110, "velocity": 95}, {"time": 145200, "pitch": 50, "duration": 240, "velocity": 110}, {"time": 145200, "pitch": 57, "duration": 240, "velocity": 105}, {"time": 145210, "pitch": 62, "duration": 240, "velocity": 100}, {"time": 145210, "pitch": 65, "duration": 230, "velocity": 110}, {"time": 145440, "pitch": 50, "duration": 370, "velocity": 110}, {"time": 145440, "pitch": 57, "duration": 370, "velocity": 110}, {"time": 145450, "pitch": 62, "duration": 350, "velocity": 115}, {"time": 145450, "pitch": 65, "duration": 350, "velocity": 120}, {"time": 145800, "pitch": 62, "duration": 80, "velocity": 95}, {"time": 145800, "pitch": 65, "duration": 80, "velocity": 100}, {"time": 145810, "pitch": 50, "duration": 70, "velocity": 100}, {"time": 145810, "pitch": 57, "duration": 70, "velocity": 90}, {"time": 145920, "pitch": 50, "duration": 250, "velocity": 110}, {"time": 145920, "pitch": 55, "duration": 250, "velocity": 105}, {"time": 145930, "pitch": 59, "duration": 230, "velocity": 100}, {"time": 145930, "pitch": 67, "duration": 230, "velocity": 110}, {"time": 146160, "pitch": 59, "duration": 250, "velocity": 90}, {"time": 146160, "pitch": 67, "duration": 250, "velocity": 100}, {"time": 146170, "pitch": 50, "duration": 230, "velocity": 100}, {"time": 146170, "pitch": 55, "duration": 230, "velocity": 95}, {"time": 146400, "pitch": 50, "duration": 370, "velocity": 110}, {"time": 146400, "pitch": 55, "duration": 370, "velocity": 110}, {"time": 146410, "pitch": 59, "duration": 350, "velocity": 115}, {"time": 146410, "pitch": 67, "duration": 350, "velocity": 120}, {"time": 146760, "pitch": 59, "duration": 130, "velocity": 95}, {"time": 146760, "pitch": 67, "duration": 130, "velocity": 100}, {"time": 146770, "pitch": 50, "duration": 110, "velocity": 100}, {"time": 146770, "pitch": 55, "duration": 110, "velocity": 90}, {"time": 146880, "pitch": 50, "duration": 130, "velocity": 110}, {"time": 146880, "pitch": 55, "duration": 130, "velocity": 105}, {"time": 146890, "pitch": 59, "duration": 110, "velocity": 100}, {"time": 146890, "pitch": 67, "duration": 110, "velocity": 110}, {"time": 147000, "pitch": 59, "duration": 130, "velocity": 90}, {"time": 147000, "pitch": 67, "duration": 130, "velocity": 100}, {"time": 147010, "pitch": 50, "duration": 110, "velocity": 100}, {"time": 147010, "pitch": 55, "duration": 110, "velocity": 95}, {"time": 147120, "pitch": 50, "duration": 240, "velocity": 110}, {"time": 147120, "pitch": 55, "duration": 240, "velocity": 105}, {"time": 147130, "pitch": 59, "duration": 240, "velocity": 100}, {"time": 147130, "pitch": 67, "duration": 230, "velocity": 110}, {"time": 147360, "pitch": 50, "duration": 370, "velocity": 110}, {"time": 147360, "pitch": 55, "duration": 370, "velocity": 110}, {"time": 147370, "pitch": 59, "duration": 350, "velocity": 115}, {"time": 147370, "pitch": 67, "duration": 350, "velocity": 120}, {"time": 147720, "pitch": 59, "duration": 80, "velocity": 95}, {"time": 147720, "pitch": 67, "duration": 80, "velocity": 100}, {"time": 147730, "pitch": 50, "duration": 70, "velocity": 100}, {"time": 147730, "pitch": 55, "duration": 70, "velocity": 90}, {"time": 147840, "pitch": 48, "duration": 940, "velocity": 110}, {"time": 147840, "pitch": 55, "duration": 250, "velocity": 105}, {"time": 147850, "pitch": 60, "duration": 230, "velocity": 100}, {"time": 147850, "pitch": 64, "duration": 230, "velocity": 110}, {"time": 148080, "pitch": 60, "duration": 250, "velocity": 90}, {"time": 148080, "pitch": 64, "duration": 250, "velocity": 100}, {"time": 148090, "pitch": 52, "duration": 230, "velocity": 100}, {"time": 148090, "pitch": 55, "duration": 230, "velocity": 95}, {"time": 148320, "pitch": 52, "duration": 370, "velocity": 110}, {"time": 148320, "pitch": 55, "duration": 370, "velocity": 110}, {"time": 148330, "pitch": 60, "duration": 350, "velocity": 115}, {"time": 148330, "pitch": 64, "duration": 350, "velocity": 120}, {"time": 148680, "pitch": 60, "duration": 130, "velocity": 95}, {"time": 148680, "pitch": 64, "duration": 130, "velocity": 100}, {"time": 148690, "pitch": 52, "duration": 110, "velocity": 100}, {"time": 148690, "pitch": 55, "duration": 110, "velocity": 90}, {"time": 148800, "pitch": 41, "duration": 940, "velocity": 110}, {"time": 148800, "pitch": 57, "duration": 130, "velocity": 105}, {"time": 148810, "pitch": 60, "duration": 110, "velocity": 100}, {"time": 148810, "pitch": 65, "duration": 110, "velocity": 110}, {"time": 148920, "pitch": 60, "duration": 130, "velocity": 90}, {"time": 148920, "pitch": 65, "duration": 130, "velocity": 100}, {"time": 148930, "pitch": 53, "duration": 110, "velocity": 100}, {"time": 148930, "pitch": 57, "duration": 110, "velocity": 95}, {"time": 149040, "pitch": 53, "duration": 240, "velocity": 110}, {"time": 149040, "pitch": 57, "duration": 240, "velocity": 105}, {"time": 149050, "pitch": 60, "duration": 240, "velocity": 100}, {"time": 149050, "pitch": 65, "duration": 230, "velocity": 110}, {"time": 149280, "pitch": 53, "duration": 370, "velocity": 110}, {"time": 149280, "pitch": 57, "duration": 370, "velocity": 110}, {"time": 149290, "pitch": 60, "duration": 350, "velocity": 115}, {"time": 149290, "pitch": 65, "duration": 350, "velocity": 120}, {"time": 149640, "pitch": 60, "duration": 80, "velocity": 95}, {"time": 149640, "pitch": 65, "duration": 80, "velocity": 100}, {"time": 149650, "pitch": 53, "duration": 70, "velocity": 100}, {"time": 149650, "pitch": 57, "duration": 70, "velocity": 90}, {"time": 149760, "pitch": 43, "duration": 1900, "velocity": 110}, {"time": 149760, "pitch": 55, "duration": 250, "velocity": 105}, {"time": 149770, "pitch": 59, "duration": 230, "velocity": 100}, {"time": 149770, "pitch": 67, "duration": 230, "velocity": 110}, {"time": 150000, "pitch": 59, "duration": 250, "velocity": 90}, {"time": 150000, "pitch": 67, "duration": 250, "velocity": 100}, {"time": 150010, "pitch": 50, "duration": 230, "velocity": 100}, {"time": 150010, "pitch": 55, "duration": 230, "velocity": 95}, {"time": 150240, "pitch": 50, "duration": 370, "velocity": 110}, {"time": 150240, "pitch": 55, "duration": 370, "velocity": 110}, {"time": 150250, "pitch": 59, "duration": 350, "velocity": 115}, {"time": 150250, "pitch": 67, "duration": 350, "velocity": 120}, {"time": 150600, "pitch": 59, "duration": 130, "velocity": 95}, {"time": 150600, "pitch": 67, "duration": 130, "velocity": 100}, {"time": 150610, "pitch": 50, "duration": 110, "velocity": 100}, {"time": 150610, "pitch": 55, "duration": 110, "velocity": 90}, {"time": 150720, "pitch": 50, "duration": 130, "velocity": 110}, {"time": 150720, "pitch": 55, "duration": 130, "velocity": 105}, {"time": 150730, "pitch": 59, "duration": 110, "velocity": 100}, {"time": 150730, "pitch": 67, "duration": 110, "velocity": 110}, {"time": 150840, "pitch": 59, "duration": 130, "velocity": 90}, {"time": 150840, "pitch": 67, "duration": 130, "velocity": 100}, {"time": 150850, "pitch": 50, "duration": 110, "velocity": 100}, {"time": 150850, "pitch": 55, "duration": 110, "velocity": 95}, {"time": 150960, "pitch": 50, "duration": 240, "velocity": 110}, {"time": 150960, "pitch": 55, "duration": 240, "velocity": 105}, {"time": 150970, "pitch": 59, "duration": 240, "velocity": 100}, {"time": 150970, "pitch": 67, "duration": 230, "velocity": 110}, {"time": 151200, "pitch": 50, "duration": 370, "velocity": 110}, {"time": 151200, "pitch": 55, "duration": 370, "velocity": 110}, {"time": 151210, "pitch": 59, "duration": 350, "velocity": 115}, {"time": 151210, "pitch": 67, "duration": 350, "velocity": 120}, {"time": 151560, "pitch": 59, "duration": 80, "velocity": 95}, {"time": 151560, "pitch": 67, "duration": 80, "velocity": 100}, {"time": 151570, "pitch": 50, "duration": 70, "velocity": 100}, {"time": 151570, "pitch": 55, "duration": 70, "velocity": 90}, {"time": 151680, "pitch": 48, "duration": 940, "velocity": 110}, {"time": 151680, "pitch": 55, "duration": 250, "velocity": 105}, {"time": 151690, "pitch": 60, "duration": 230, "velocity": 100}, {"time": 151690, "pitch": 64, "duration": 230, "velocity": 110}, {"time": 151920, "pitch": 60, "duration": 250, "velocity": 90}, {"time": 151920, "pitch": 64, "duration": 250, "velocity": 100}, {"time": 151930, "pitch": 52, "duration": 230, "velocity": 100}, {"time": 151930, "pitch": 55, "duration": 230, "velocity": 95}, {"time": 152160, "pitch": 52, "duration": 370, "velocity": 110}, {"time": 152160, "pitch": 55, "duration": 370, "velocity": 110}, {"time": 152170, "pitch": 60, "duration": 350, "velocity": 115}, {"time": 152170, "pitch": 64, "duration": 350, "velocity": 120}, {"time": 152520, "pitch": 60, "duration": 130, "velocity": 95}, {"time": 152520, "pitch": 64, "duration": 130, "velocity": 100}, {"time": 152530, "pitch": 52, "duration": 110, "velocity": 100}, {"time": 152530, "pitch": 55, "duration": 110, "velocity": 90}, {"time": 152640, "pitch": 41, "duration": 940, "velocity": 110}, {"time": 152640, "pitch": 57, "duration": 130, "velocity": 105}, {"time": 152650, "pitch": 60, "duration": 110, "velocity": 100}, {"time": 152650, "pitch": 65, "duration": 110, "velocity": 110}, {"time": 152760, "pitch": 60, "duration": 130, "velocity": 90}, {"time": 152760, "pitch": 65, "duration": 130, "velocity": 100}, {"time": 152770, "pitch": 53, "duration": 110, "velocity": 100}, {"time": 152770, "pitch": 57, "duration": 110, "velocity": 95}, {"time": 152880, "pitch": 53, "duration": 240, "velocity": 110}, {"time": 152880, "pitch": 57, "duration": 240, "velocity": 105}, {"time": 152890, "pitch": 60, "duration": 240, "velocity": 100}, {"time": 152890, "pitch": 65, "duration": 230, "velocity": 110}, {"time": 153120, "pitch": 53, "duration": 370, "velocity": 110}, {"time": 153120, "pitch": 57, "duration": 370, "velocity": 110}, {"time": 153130, "pitch": 60, "duration": 350, "velocity": 115}, {"time": 153130, "pitch": 65, "duration": 350, "velocity": 120}, {"time": 153480, "pitch": 60, "duration": 80, "velocity": 95}, {"time": 153480, "pitch": 65, "duration": 80, "velocity": 100}, {"time": 153490, "pitch": 53, "duration": 70, "velocity": 100}, {"time": 153490, "pitch": 57, "duration": 70, "velocity": 90}, {"time": 153600, "pitch": 43, "duration": 1900, "velocity": 110}, {"time": 153600, "pitch": 55, "duration": 250, "velocity": 105}, {"time": 153610, "pitch": 59, "duration": 230, "velocity": 100}, {"time": 153610, "pitch": 67, "duration": 230, "velocity": 110}, {"time": 153840, "pitch": 59, "duration": 250, "velocity": 90}, {"time": 153840, "pitch": 67, "duration": 250, "velocity": 100}, {"time": 153850, "pitch": 50, "duration": 230, "velocity": 100}, {"time": 153850, "pitch": 55, "duration": 230, "velocity": 95}, {"time": 154080, "pitch": 50, "duration": 370, "velocity": 110}, {"time": 154080, "pitch": 55, "duration": 370, "velocity": 110}, {"time": 154090, "pitch": 59, "duration": 350, "velocity": 115}, {"time": 154090, "pitch": 67, "duration": 350, "velocity": 120}, {"time": 154440, "pitch": 59, "duration": 130, "velocity": 95}, {"time": 154440, "pitch": 67, "duration": 130, "velocity": 100}, {"time": 154450, "pitch": 50, "duration": 110, "velocity": 100}, {"time": 154450, "pitch": 55, "duration": 110, "velocity": 90}, {"time": 154560, "pitch": 50, "duration": 130, "velocity": 110}, {"time": 154560, "pitch": 55, "duration": 130, "velocity": 105}, {"time": 154570, "pitch": 59, "duration": 110, "velocity": 100}, {"time": 154570, "pitch": 67, "duration": 110, "velocity": 110}, {"time": 154680, "pitch": 59, "duration": 130, "velocity": 90}, {"time": 154680, "pitch": 67, "duration": 130, "velocity": 100}, {"time": 154690, "pitch": 50, "duration": 110, "velocity": 100}, {"time": 154690, "pitch": 55, "duration": 110, "velocity": 95}, {"time": 154800, "pitch": 50, "duration": 240, "velocity": 110}, {"time": 154800, "pitch": 55, "duration": 240, "velocity": 105}, {"time": 154810, "pitch": 59, "duration": 240, "velocity": 100}, {"time": 154810, "pitch": 67, "duration": 230, "velocity": 110}, {"time": 155040, "pitch": 50, "duration": 370, "velocity": 110}, {"time": 155040, "pitch": 55, "duration": 370, "velocity": 110}, {"time": 155050, "pitch": 59, "duration": 350, "velocity": 115}, {"time": 155050, "pitch": 67, "duration": 350, "velocity": 120}, {"time": 155400, "pitch": 59, "duration": 80, "velocity": 95}, {"time": 155400, "pitch": 67, "duration": 80, "velocity": 100}, {"time": 155410, "pitch": 50, "duration": 70, "velocity": 100}, {"time": 155410, "pitch": 55, "duration": 70, "velocity": 90}, {"time": 155520, "pitch": 52, "duration": 250, "velocity": 110}, {"time": 155520, "pitch": 55, "duration": 250, "velocity": 105}, {"time": 155530, "pitch": 60, "duration": 230, "velocity": 100}, {"time": 155530, "pitch": 64, "duration": 230, "velocity": 110}, {"time": 155760, "pitch": 60, "duration": 250, "velocity": 90}, {"time": 155760, "pitch": 64, "duration": 250, "velocity": 100}, {"time": 155770, "pitch": 52, "duration": 230, "velocity": 100}, {"time": 155770, "pitch": 55, "duration": 230, "velocity": 95}, {"time": 156000, "pitch": 52, "duration": 370, "velocity": 110}, {"time": 156000, "pitch": 55, "duration": 370, "velocity": 110}, {"time": 156010, "pitch": 60, "duration": 350, "velocity": 115}, {"time": 156010, "pitch": 64, "duration": 350, "velocity": 120}, {"time": 156360, "pitch": 60, "duration": 130, "velocity": 95}, {"time": 156360, "pitch": 64, "duration": 130, "velocity": 100}, {"time": 156370, "pitch": 52, "duration": 110, "velocity": 100}, {"time": 156370, "pitch": 55, "duration": 110, "velocity": 90}, {"time": 156480, "pitch": 53, "duration": 130, "velocity": 110}, {"time": 156480, "pitch": 57, "duration": 130, "velocity": 105}, {"time": 156490, "pitch": 60, "duration": 110, "velocity": 100}, {"time": 156490, "pitch": 65, "duration": 110, "velocity": 110}, {"time": 156600, "pitch": 60, "duration": 130, "velocity": 90}, {"time": 156600, "pitch": 65, "duration": 130, "velocity": 100}, {"time": 156610, "pitch": 53, "duration": 110, "velocity": 100}, {"time": 156610, "pitch": 57, "duration": 110, "velocity": 95}, {"time": 156720, "pitch": 53, "duration": 240, "velocity": 110}, {"time": 156720, "pitch": 57, "duration": 240, "velocity": 105}, {"time": 156730, "pitch": 60, "duration": 240, "velocity": 100}, {"time": 156730, "pitch": 65, "duration": 230, "velocity": 110}, {"time": 156960, "pitch": 53, "duration": 370, "velocity": 110}, {"time": 156960, "pitch": 57, "duration": 370, "velocity": 110}, {"time": 156970, "pitch": 60, "duration": 350, "velocity": 115}, {"time": 156970, "pitch": 65, "duration": 350, "velocity": 120}, {"time": 157320, "pitch": 60, "duration": 80, "velocity": 95}, {"time": 157320, "pitch": 65, "duration": 80, "velocity": 100}, {"time": 157330, "pitch": 53, "duration": 70, "velocity": 100}, {"time": 157330, "pitch": 57, "duration": 70, "velocity": 90}, {"time": 157440, "pitch": 50, "duration": 250, "velocity": 110}, {"time": 157440, "pitch": 55, "duration": 250, "velocity": 105}, {"time": 157450, "pitch": 59, "duration": 230, "velocity": 100}, {"time": 157450, "pitch": 67, "duration": 230, "velocity": 110}, {"time": 157680, "pitch": 59, "duration": 250, "velocity": 90}, {"time": 157680, "pitch": 67, "duration": 250, "velocity": 100}, {"time": 157690, "pitch": 50, "duration": 230, "velocity": 100}, {"time": 157690, "pitch": 55, "duration": 230, "velocity": 95}, {"time": 157920, "pitch": 50, "duration": 370, "velocity": 110}, {"time": 157920, "pitch": 55, "duration": 370, "velocity": 110}, {"time": 157930, "pitch": 59, "duration": 350, "velocity": 115}, {"time": 157930, "pitch": 67, "duration": 350, "velocity": 120}, {"time": 158280, "pitch": 59, "duration": 130, "velocity": 95}, {"time": 158280, "pitch": 67, "duration": 130, "velocity": 100}, {"time": 158290, "pitch": 50, "duration": 110, "velocity": 100}, {"time": 158290, "pitch": 55, "duration": 110, "velocity": 90}, {"time": 158400, "pitch": 50, "duration": 130, "velocity": 110}, {"time": 158400, "pitch": 55, "duration": 130, "velocity": 105}, {"time": 158410, "pitch": 59, "duration": 110, "velocity": 100}, {"time": 158410, "pitch": 67, "duration": 110, "velocity": 110}, {"time": 158520, "pitch": 59, "duration": 130, "velocity": 90}, {"time": 158520, "pitch": 67, "duration": 130, "velocity": 100}, {"time": 158530, "pitch": 50, "duration": 110, "velocity": 100}, {"time": 158530, "pitch": 55, "duration": 110, "velocity": 95}, {"time": 158640, "pitch": 50, "duration": 240, "velocity": 110}, {"time": 158640, "pitch": 55, "duration": 240, "velocity": 105}, {"time": 158650, "pitch": 59, "duration": 240, "velocity": 100}, {"time": 158650, "pitch": 67, "duration": 230, "velocity": 110}, {"time": 158880, "pitch": 50, "duration": 370, "velocity": 110}, {"time": 158880, "pitch": 55, "duration": 370, "velocity": 110}, {"time": 158890, "pitch": 59, "duration": 350, "velocity": 115}, {"time": 158890, "pitch": 67, "duration": 350, "velocity": 120}, {"time": 159240, "pitch": 59, "duration": 80, "velocity": 95}, {"time": 159240, "pitch": 67, "duration": 80, "velocity": 100}, {"time": 159250, "pitch": 50, "duration": 70, "velocity": 100}, {"time": 159250, "pitch": 55, "duration": 70, "velocity": 90}, {"time": 159360, "pitch": 52, "duration": 250, "velocity": 110}, {"time": 159360, "pitch": 57, "duration": 250, "velocity": 105}, {"time": 159370, "pitch": 60, "duration": 230, "velocity": 100}, {"time": 159370, "pitch": 64, "duration": 230, "velocity": 110}, {"time": 159600, "pitch": 60, "duration": 250, "velocity": 90}, {"time": 159600, "pitch": 64, "duration": 250, "velocity": 100}, {"time": 159610, "pitch": 52, "duration": 230, "velocity": 100}, {"time": 159610, "pitch": 57, "duration": 230, "velocity": 95}, {"time": 159840, "pitch": 52, "duration": 370, "velocity": 110}, {"time": 159840, "pitch": 57, "duration": 370, "velocity": 110}, {"time": 159850, "pitch": 60, "duration": 350, "velocity": 115}, {"time": 159850, "pitch": 64, "duration": 350, "velocity": 120}, {"time": 160200, "pitch": 60, "duration": 130, "velocity": 95}, {"time": 160200, "pitch": 64, "duration": 130, "velocity": 100}, {"time": 160210, "pitch": 52, "duration": 110, "velocity": 100}, {"time": 160210, "pitch": 57, "duration": 110, "velocity": 90}, {"time": 160320, "pitch": 53, "duration": 130, "velocity": 110}, {"time": 160320, "pitch": 57, "duration": 130, "velocity": 105}, {"time": 160330, "pitch": 60, "duration": 110, "velocity": 100}, {"time": 160330, "pitch": 65, "duration": 110, "velocity": 110}, {"time": 160440, "pitch": 60, "duration": 130, "velocity": 90}, {"time": 160440, "pitch": 65, "duration": 130, "velocity": 100}, {"time": 160450, "pitch": 53, "duration": 110, "velocity": 100}, {"time": 160450, "pitch": 57, "duration": 110, "velocity": 95}, {"time": 160560, "pitch": 53, "duration": 240, "velocity": 110}, {"time": 160560, "pitch": 57, "duration": 240, "velocity": 105}, {"time": 160570, "pitch": 60, "duration": 240, "velocity": 100}, {"time": 160570, "pitch": 65, "duration": 230, "velocity": 110}, {"time": 160800, "pitch": 53, "duration": 370, "velocity": 110}, {"time": 160800, "pitch": 57, "duration": 370, "velocity": 110}, {"time": 160810, "pitch": 60, "duration": 350, "velocity": 115}, {"time": 160810, "pitch": 65, "duration": 350, "velocity": 120}, {"time": 161160, "pitch": 60, "duration": 80, "velocity": 95}, {"time": 161160, "pitch": 65, "duration": 80, "velocity": 100}, {"time": 161170, "pitch": 53, "duration": 70, "velocity": 100}, {"time": 161170, "pitch": 57, "duration": 70, "velocity": 90}, {"time": 161280, "pitch": 50, "duration": 250, "velocity": 110}, {"time": 161280, "pitch": 55, "duration": 250, "velocity": 105}, {"time": 161290, "pitch": 59, "duration": 230, "velocity": 100}, {"time": 161290, "pitch": 67, "duration": 230, "velocity": 110}, {"time": 161520, "pitch": 59, "duration": 250, "velocity": 90}, {"time": 161520, "pitch": 67, "duration": 250, "velocity": 100}, {"time": 161530, "pitch": 50, "duration": 230, "velocity": 100}, {"time": 161530, "pitch": 55, "duration": 230, "velocity": 95}, {"time": 161760, "pitch": 50, "duration": 370, "velocity": 110}, {"time": 161760, "pitch": 55, "duration": 370, "velocity": 110}, {"time": 161770, "pitch": 59, "duration": 350, "velocity": 115}, {"time": 161770, "pitch": 67, "duration": 350, "velocity": 120}, {"time": 162120, "pitch": 59, "duration": 130, "velocity": 95}, {"time": 162120, "pitch": 67, "duration": 130, "velocity": 100}, {"time": 162130, "pitch": 50, "duration": 110, "velocity": 100}, {"time": 162130, "pitch": 55, "duration": 110, "velocity": 90}, {"time": 162240, "pitch": 50, "duration": 130, "velocity": 110}, {"time": 162240, "pitch": 55, "duration": 130, "velocity": 105}, {"time": 162250, "pitch": 59, "duration": 110, "velocity": 100}, {"time": 162250, "pitch": 67, "duration": 110, "velocity": 110}, {"time": 162360, "pitch": 59, "duration": 130, "velocity": 90}, {"time": 162360, "pitch": 67, "duration": 130, "velocity": 100}, {"time": 162370, "pitch": 50, "duration": 110, "velocity": 100}, {"time": 162370, "pitch": 55, "duration": 110, "velocity": 95}, {"time": 162480, "pitch": 50, "duration": 240, "velocity": 110}, {"time": 162480, "pitch": 55, "duration": 240, "velocity": 105}, {"time": 162490, "pitch": 59, "duration": 240, "velocity": 100}, {"time": 162490, "pitch": 67, "duration": 230, "velocity": 110}, {"time": 162720, "pitch": 50, "duration": 370, "velocity": 110}, {"time": 162720, "pitch": 55, "duration": 370, "velocity": 110}, {"time": 162730, "pitch": 59, "duration": 350, "velocity": 115}, {"time": 162730, "pitch": 67, "duration": 350, "velocity": 120}, {"time": 163080, "pitch": 59, "duration": 80, "velocity": 95}, {"time": 163080, "pitch": 67, "duration": 80, "velocity": 100}, {"time": 163090, "pitch": 50, "duration": 70, "velocity": 100}, {"time": 163090, "pitch": 55, "duration": 70, "velocity": 90}, {"time": 163200, "pitch": 50, "duration": 250, "velocity": 120}, {"time": 163200, "pitch": 57, "duration": 250, "velocity": 115}, {"time": 163210, "pitch": 62, "duration": 230, "velocity": 110}, {"time": 163210, "pitch": 65, "duration": 230, "velocity": 120}, {"time": 163440, "pitch": 62, "duration": 250, "velocity": 90}, {"time": 163440, "pitch": 65, "duration": 250, "velocity": 100}, {"time": 163450, "pitch": 50, "duration": 230, "velocity": 100}, {"time": 163450, "pitch": 57, "duration": 230, "velocity": 95}, {"time": 163680, "pitch": 50, "duration": 250, "velocity": 100}, {"time": 163680, "pitch": 57, "duration": 250, "velocity": 100}, {"time": 163690, "pitch": 62, "duration": 230, "velocity": 105}, {"time": 163690, "pitch": 65, "duration": 230, "velocity": 110}, {"time": 163920, "pitch": 60, "duration": 490, "velocity": 115}, {"time": 163920, "pitch": 64, "duration": 490, "velocity": 120}, {"time": 163930, "pitch": 52, "duration": 470, "velocity": 120}, {"time": 163930, "pitch": 55, "duration": 470, "velocity": 110}, {"time": 164400, "pitch": 52, "duration": 130, "velocity": 110}, {"time": 164400, "pitch": 55, "duration": 130, "velocity": 105}, {"time": 164410, "pitch": 60, "duration": 110, "velocity": 100}, {"time": 164410, "pitch": 64, "duration": 110, "velocity": 110}, {"time": 164520, "pitch": 60, "duration": 130, "velocity": 90}, {"time": 164520, "pitch": 64, "duration": 130, "velocity": 100}, {"time": 164530, "pitch": 52, "duration": 110, "velocity": 100}, {"time": 164530, "pitch": 55, "duration": 110, "velocity": 95}, {"time": 164640, "pitch": 52, "duration": 250, "velocity": 100}, {"time": 164640, "pitch": 55, "duration": 250, "velocity": 100}, {"time": 164650, "pitch": 60, "duration": 230, "velocity": 105}, {"time": 164650, "pitch": 64, "duration": 230, "velocity": 110}, {"time": 164880, "pitch": 60, "duration": 229, "velocity": 95}, {"time": 164880, "pitch": 64, "duration": 229, "velocity": 100}, {"time": 164890, "pitch": 52, "duration": 219, "velocity": 100}, {"time": 164890, "pitch": 55, "duration": 219, "velocity": 90}, {"time": 165119, "pitch": 53, "duration": 250, "velocity": 120}, {"time": 165119, "pitch": 57, "duration": 250, "velocity": 115}, {"time": 165129, "pitch": 60, "duration": 230, "velocity": 110}, {"time": 165129, "pitch": 65, "duration": 230, "velocity": 120}, {"time": 165359, "pitch": 60, "duration": 250, "velocity": 90}, {"time": 165359, "pitch": 65, "duration": 250, "velocity": 100}, {"time": 165369, "pitch": 53, "duration": 230, "velocity": 100}, {"time": 165369, "pitch": 57, "duration": 230, "velocity": 95}, {"time": 165599, "pitch": 53, "duration": 250, "velocity": 100}, {"time": 165599, "pitch": 57, "duration": 250, "velocity": 100}, {"time": 165609, "pitch": 60, "duration": 230, "velocity": 105}, {"time": 165609, "pitch": 65, "duration": 230, "velocity": 110}, {"time": 165839, "pitch": 59, "duration": 490, "velocity": 115}, {"time": 165839, "pitch": 67, "duration": 490, "velocity": 120}, {"time": 165849, "pitch": 50, "duration": 470, "velocity": 120}, {"time": 165849, "pitch": 55, "duration": 470, "velocity": 110}, {"time": 166319, "pitch": 50, "duration": 130, "velocity": 110}, {"time": 166319, "pitch": 55, "duration": 130, "velocity": 105}, {"time": 166329, "pitch": 59, "duration": 110, "velocity": 100}, {"time": 166329, "pitch": 67, "duration": 110, "velocity": 110}, {"time": 166439, "pitch": 59, "duration": 130, "velocity": 90}, {"time": 166439, "pitch": 67, "duration": 130, "velocity": 100}, {"time": 166449, "pitch": 50, "duration": 110, "velocity": 100}, {"time": 166449, "pitch": 55, "duration": 110, "velocity": 95}, {"time": 166559, "pitch": 50, "duration": 250, "velocity": 100}, {"time": 166559, "pitch": 55, "duration": 250, "velocity": 100}, {"time": 166569, "pitch": 59, "duration": 230, "velocity": 105}, {"time": 166569, "pitch": 67, "duration": 230, "velocity": 110}, {"time": 166799, "pitch": 59, "duration": 230, "velocity": 95}, {"time": 166799, "pitch": 67, "duration": 230, "velocity": 100}, {"time": 166809, "pitch": 50, "duration": 220, "velocity": 100}, {"time": 166809, "pitch": 55, "duration": 220, "velocity": 90}, {"time": 167039, "pitch": 40, "duration": 40, "velocity": 110}, {"time": 167039, "pitch": 48, "duration": 40, "velocity": 105}, {"time": 167049, "pitch": 52, "duration": 40, "velocity": 100}, {"time": 167049, "pitch": 55, "duration": 40, "velocity": 110}, {"time": 167279, "pitch": 52, "duration": 40, "velocity": 100}, {"time": 167279, "pitch": 55, "duration": 40, "velocity": 110}, {"time": 167289, "pitch": 40, "duration": 40, "velocity": 110}, {"time": 167289, "pitch": 48, "duration": 40, "velocity": 105}, {"time": 167519, "pitch": 52, "duration": 360, "velocity": 110}, {"time": 167519, "pitch": 55, "duration": 360, "velocity": 110}, {"time": 167529, "pitch": 60, "duration": 350, "velocity": 115}, {"time": 167529, "pitch": 64, "duration": 350, "velocity": 120}, {"time": 167879, "pitch": 55, "duration": 30, "velocity": 105}, {"time": 167879, "pitch": 60, "duration": 30, "velocity": 110}, {"time": 167889, "pitch": 48, "duration": 30, "velocity": 110}, {"time": 167889, "pitch": 52, "duration": 30, "velocity": 100}, {"time": 167999, "pitch": 40, "duration": 40, "velocity": 110}, {"time": 167999, "pitch": 45, "duration": 40, "velocity": 105}, {"time": 168009, "pitch": 52, "duration": 40, "velocity": 100}, {"time": 168009, "pitch": 57, "duration": 40, "velocity": 110}, {"time": 168239, "pitch": 52, "duration": 40, "velocity": 100}, {"time": 168239, "pitch": 57, "duration": 40, "velocity": 110}, {"time": 168249, "pitch": 40, "duration": 40, "velocity": 110}, {"time": 168249, "pitch": 45, "duration": 40, "velocity": 105}, {"time": 168479, "pitch": 52, "duration": 360, "velocity": 110}, {"time": 168479, "pitch": 57, "duration": 360, "velocity": 110}, {"time": 168489, "pitch": 60, "duration": 350, "velocity": 115}, {"time": 168489, "pitch": 64, "duration": 350, "velocity": 120}, {"time": 168839, "pitch": 57, "duration": 30, "velocity": 105}, {"time": 168839, "pitch": 60, "duration": 30, "velocity": 110}, {"time": 168849, "pitch": 45, "duration": 30, "velocity": 110}, {"time": 168849, "pitch": 52, "duration": 30, "velocity": 100}, {"time": 168959, "pitch": 43, "duration": 40, "velocity": 110}, {"time": 168959, "pitch": 47, "duration": 40, "velocity": 105}, {"time": 168969, "pitch": 50, "duration": 40, "velocity": 100}, {"time": 168969, "pitch": 55, "duration": 40, "velocity": 110}, {"time": 169199, "pitch": 50, "duration": 40, "velocity": 100}, {"time": 169199, "pitch": 55, "duration": 40, "velocity": 110}, {"time": 169209, "pitch": 43, "duration": 40, "velocity": 110}, {"time": 169209, "pitch": 47, "duration": 40, "velocity": 105}, {"time": 169439, "pitch": 50, "duration": 360, "velocity": 110}, {"time": 169439, "pitch": 55, "duration": 360, "velocity": 110}, {"time": 169449, "pitch": 59, "duration": 350, "velocity": 115}, {"time": 169449, "pitch": 67, "duration": 350, "velocity": 120}, {"time": 169799, "pitch": 55, "duration": 30, "velocity": 105}, {"time": 169799, "pitch": 59, "duration": 30, "velocity": 110}, {"time": 169809, "pitch": 47, "duration": 30, "velocity": 110}, {"time": 169809, "pitch": 50, "duration": 30, "velocity": 100}, {"time": 169919, "pitch": 41, "duration": 40, "velocity": 110}, {"time": 169919, "pitch": 45, "duration": 40, "velocity": 105}, {"time": 169929, "pitch": 53, "duration": 40, "velocity": 100}, {"time": 169929, "pitch": 57, "duration": 40, "velocity": 110}, {"time": 170159, "pitch": 53, "duration": 40, "velocity": 100}, {"time": 170159, "pitch": 57, "duration": 40, "velocity": 110}, {"time": 170169, "pitch": 41, "duration": 40, "velocity": 110}, {"time": 170169, "pitch": 45, "duration": 40, "velocity": 105}, {"time": 170399, "pitch": 53, "duration": 360, "velocity": 110}, {"time": 170399, "pitch": 57, "duration": 360, "velocity": 110}, {"time": 170409, "pitch": 60, "duration": 350, "velocity": 115}, {"time": 170409, "pitch": 65, "duration": 350, "velocity": 120}, {"time": 170759, "pitch": 57, "duration": 30, "velocity": 105}, {"time": 170759, "pitch": 60, "duration": 30, "velocity": 110}, {"time": 170769, "pitch": 45, "duration": 30, "velocity": 110}, {"time": 170769, "pitch": 53, "duration": 30, "velocity": 100}, {"time": 170879, "pitch": 40, "duration": 40, "velocity": 110}, {"time": 170879, "pitch": 48, "duration": 40, "velocity": 105}, {"time": 170889, "pitch": 52, "duration": 40, "velocity": 100}, {"time": 170889, "pitch": 55, "duration": 40, "velocity": 110}, {"time": 171119, "pitch": 52, "duration": 40, "velocity": 100}, {"time": 171119, "pitch": 55, "duration": 40, "velocity": 110}, {"time": 171129, "pitch": 40, "duration": 40, "velocity": 110}, {"time": 171129, "pitch": 48, "duration": 40, "velocity": 105}, {"time": 171359, "pitch": 52, "duration": 360, "velocity": 110}, {"time": 171359, "pitch": 55, "duration": 360, "velocity": 110}, {"time": 171369, "pitch": 60, "duration": 350, "velocity": 115}, {"time": 171369, "pitch": 64, "duration": 350, "velocity": 120}, {"time": 171719, "pitch": 55, "duration": 30, "velocity": 105}, {"time": 171719, "pitch": 60, "duration": 30, "velocity": 110}, {"time": 171729, "pitch": 48, "duration": 30, "velocity": 110}, {"time": 171729, "pitch": 52, "duration": 30, "velocity": 100}, {"time": 171839, "pitch": 40, "duration": 40, "velocity": 110}, {"time": 171839, "pitch": 45, "duration": 40, "velocity": 105}, {"time": 171849, "pitch": 52, "duration": 40, "velocity": 100}, {"time": 171849, "pitch": 57, "duration": 40, "velocity": 110}, {"time": 172079, "pitch": 52, "duration": 40, "velocity": 100}, {"time": 172079, "pitch": 57, "duration": 40, "velocity": 110}, {"time": 172089, "pitch": 40, "duration": 40, "velocity": 110}, {"time": 172089, "pitch": 45, "duration": 40, "velocity": 105}, {"time": 172319, "pitch": 52, "duration": 360, "velocity": 110}, {"time": 172319, "pitch": 57, "duration": 360, "velocity": 110}, {"time": 172329, "pitch": 60, "duration": 350, "velocity": 115}, {"time": 172329, "pitch": 64, "duration": 350, "velocity": 120}, {"time": 172679, "pitch": 57, "duration": 30, "velocity": 105}, {"time": 172679, "pitch": 60, "duration": 30, "velocity": 110}, {"time": 172689, "pitch": 45, "duration": 30, "velocity": 110}, {"time": 172689, "pitch": 52, "duration": 30, "velocity": 100}, {"time": 172799, "pitch": 43, "duration": 40, "velocity": 110}, {"time": 172799, "pitch": 47, "duration": 40, "velocity": 105}, {"time": 172809, "pitch": 50, "duration": 40, "velocity": 100}, {"time": 172809, "pitch": 55, "duration": 40, "velocity": 110}, {"time": 173039, "pitch": 50, "duration": 40, "velocity": 100}, {"time": 173039, "pitch": 55, "duration": 40, "velocity": 110}, {"time": 173049, "pitch": 43, "duration": 40, "velocity": 110}, {"time": 173049, "pitch": 47, "duration": 40, "velocity": 105}, {"time": 173279, "pitch": 50, "duration": 360, "velocity": 110}, {"time": 173279, "pitch": 55, "duration": 360, "velocity": 110}, {"time": 173289, "pitch": 59, "duration": 350, "velocity": 115}, {"time": 173289, "pitch": 67, "duration": 350, "velocity": 120}, {"time": 173639, "pitch": 55, "duration": 30, "velocity": 105}, {"time": 173639, "pitch": 59, "duration": 30, "velocity": 110}, {"time": 173649, "pitch": 47, "duration": 30, "velocity": 110}, {"time": 173649, "pitch": 50, "duration": 30, "velocity": 100}, {"time": 173759, "pitch": 41, "duration": 40, "velocity": 110}, {"time": 173759, "pitch": 45, "duration": 40, "velocity": 105}, {"time": 173769, "pitch": 53, "duration": 40, "velocity": 100}, {"time": 173769, "pitch": 57, "duration": 40, "velocity": 110}, {"time": 173999, "pitch": 53, "duration": 40, "velocity": 100}, {"time": 173999, "pitch": 57, "duration": 40, "velocity": 110}, {"time": 174009, "pitch": 41, "duration": 40, "velocity": 110}, {"time": 174009, "pitch": 45, "duration": 40, "velocity": 105}, {"time": 174239, "pitch": 53, "duration": 360, "velocity": 110}, {"time": 174239, "pitch": 57, "duration": 360, "velocity": 110}, {"time": 174249, "pitch": 60, "duration": 350, "velocity": 115}, {"time": 174249, "pitch": 65, "duration": 350, "velocity": 120}, {"time": 174599, "pitch": 57, "duration": 30, "velocity": 105}, {"time": 174599, "pitch": 60, "duration": 30, "velocity": 110}, {"time": 174609, "pitch": 45, "duration": 30, "velocity": 110}, {"time": 174609, "pitch": 53, "duration": 30, "velocity": 100}, {"time": 174719, "pitch": 40, "duration": 40, "velocity": 110}, {"time": 174719, "pitch": 48, "duration": 40, "velocity": 105}, {"time": 174729, "pitch": 52, "duration": 40, "velocity": 100}, {"time": 174729, "pitch": 55, "duration": 40, "velocity": 110}, {"time": 174959, "pitch": 52, "duration": 40, "velocity": 100}, {"time": 174959, "pitch": 55, "duration": 40, "velocity": 110}, {"time": 174969, "pitch": 40, "duration": 40, "velocity": 110}, {"time": 174969, "pitch": 48, "duration": 40, "velocity": 105}, {"time": 175199, "pitch": 52, "duration": 360, "velocity": 110}, {"time": 175199, "pitch": 55, "duration": 360, "velocity": 110}, {"time": 175209, "pitch": 60, "duration": 350, "velocity": 115}, {"time": 175209, "pitch": 64, "duration": 350, "velocity": 120}, {"time": 175559, "pitch": 55, "duration": 30, "velocity": 105}, {"time": 175559, "pitch": 60, "duration": 30, "velocity": 110}, {"time": 175569, "pitch": 48, "duration": 30, "velocity": 110}, {"time": 175569, "pitch": 52, "duration": 30, "velocity": 100}, {"time": 175679, "pitch": 40, "duration": 40, "velocity": 110}, {"time": 175679, "pitch": 45, "duration": 40, "velocity": 105}, {"time": 175689, "pitch": 52, "duration": 40, "velocity": 100}, {"time": 175689, "pitch": 57, "duration": 40, "velocity": 110}, {"time": 175919, "pitch": 52, "duration": 40, "velocity": 100}, {"time": 175919, "pitch": 57, "duration": 40, "velocity": 110}, {"time": 175929, "pitch": 40, "duration": 40, "velocity": 110}, {"time": 175929, "pitch": 45, "duration": 40, "velocity": 105}, {"time": 176159, "pitch": 52, "duration": 360, "velocity": 110}, {"time": 176159, "pitch": 57, "duration": 360, "velocity": 110}, {"time": 176169, "pitch": 60, "duration": 350, "velocity": 115}, {"time": 176169, "pitch": 64, "duration": 350, "velocity": 120}, {"time": 176519, "pitch": 57, "duration": 30, "velocity": 105}, {"time": 176519, "pitch": 60, "duration": 30, "velocity": 110}, {"time": 176529, "pitch": 45, "duration": 30, "velocity": 110}, {"time": 176529, "pitch": 52, "duration": 30, "velocity": 100}, {"time": 176639, "pitch": 43, "duration": 40, "velocity": 110}, {"time": 176639, "pitch": 47, "duration": 40, "velocity": 105}, {"time": 176649, "pitch": 50, "duration": 40, "velocity": 100}, {"time": 176649, "pitch": 55, "duration": 40, "velocity": 110}, {"time": 176879, "pitch": 50, "duration": 40, "velocity": 100}, {"time": 176879, "pitch": 55, "duration": 40, "velocity": 110}, {"time": 176889, "pitch": 43, "duration": 40, "velocity": 110}, {"time": 176889, "pitch": 47, "duration": 40, "velocity": 105}, {"time": 177119, "pitch": 50, "duration": 360, "velocity": 110}, {"time": 177119, "pitch": 55, "duration": 360, "velocity": 110}, {"time": 177129, "pitch": 59, "duration": 350, "velocity": 115}, {"time": 177129, "pitch": 67, "duration": 350, "velocity": 120}, {"time": 177479, "pitch": 55, "duration": 30, "velocity": 105}, {"time": 177479, "pitch": 59, "duration": 30, "velocity": 110}, {"time": 177489, "pitch": 47, "duration": 30, "velocity": 110}, {"time": 177489, "pitch": 50, "duration": 30, "velocity": 100}, {"time": 177599, "pitch": 41, "duration": 40, "velocity": 110}, {"time": 177599, "pitch": 45, "duration": 40, "velocity": 105}, {"time": 177609, "pitch": 53, "duration": 40, "velocity": 100}, {"time": 177609, "pitch": 57, "duration": 40, "velocity": 110}, {"time": 177839, "pitch": 53, "duration": 40, "velocity": 100}, {"time": 177839, "pitch": 57, "duration": 40, "velocity": 110}, {"time": 177849, "pitch": 41, "duration": 40, "velocity": 110}, {"time": 177849, "pitch": 45, "duration": 40, "velocity": 105}, {"time": 178079, "pitch": 53, "duration": 360, "velocity": 110}, {"time": 178079, "pitch": 57, "duration": 360, "velocity": 110}, {"time": 178089, "pitch": 60, "duration": 350, "velocity": 115}, {"time": 178089, "pitch": 65, "duration": 350, "velocity": 120}, {"time": 178439, "pitch": 57, "duration": 30, "velocity": 105}, {"time": 178439, "pitch": 60, "duration": 30, "velocity": 110}, {"time": 178449, "pitch": 45, "duration": 30, "velocity": 110}, {"time": 178449, "pitch": 53, "duration": 30, "velocity": 100}, {"time": 178559, "pitch": 40, "duration": 40, "velocity": 110}, {"time": 178559, "pitch": 48, "duration": 40, "velocity": 105}, {"time": 178569, "pitch": 52, "duration": 40, "velocity": 100}, {"time": 178569, "pitch": 55, "duration": 40, "velocity": 110}, {"time": 178799, "pitch": 52, "duration": 40, "velocity": 100}, {"time": 178799, "pitch": 55, "duration": 40, "velocity": 110}, {"time": 178809, "pitch": 40, "duration": 40, "velocity": 110}, {"time": 178809, "pitch": 48, "duration": 40, "velocity": 105}, {"time": 179039, "pitch": 52, "duration": 359, "velocity": 110}, {"time": 179039, "pitch": 55, "duration": 359, "velocity": 110}, {"time": 179049, "pitch": 60, "duration": 349, "velocity": 115}, {"time": 179049, "pitch": 64, "duration": 349, "velocity": 120}, {"time": 179398, "pitch": 55, "duration": 31, "velocity": 105}, {"time": 179398, "pitch": 60, "duration": 31, "velocity": 110}, {"time": 179409, "pitch": 48, "duration": 30, "velocity": 110}, {"time": 179409, "pitch": 52, "duration": 30, "velocity": 100}, {"time": 179519, "pitch": 40, "duration": 40, "velocity": 110}, {"time": 179519, "pitch": 45, "duration": 40, "velocity": 105}, {"time": 179529, "pitch": 52, "duration": 40, "velocity": 100}, {"time": 179529, "pitch": 57, "duration": 40, "velocity": 110}, {"time": 179759, "pitch": 52, "duration": 40, "velocity": 100}, {"time": 179759, "pitch": 57, "duration": 40, "velocity": 110}, {"time": 179769, "pitch": 40, "duration": 40, "velocity": 110}, {"time": 179769, "pitch": 45, "duration": 40, "velocity": 105}, {"time": 179999, "pitch": 52, "duration": 360, "velocity": 110}, {"time": 179999, "pitch": 57, "duration": 360, "velocity": 110}, {"time": 180009, "pitch": 60, "duration": 350, "velocity": 115}, {"time": 180009, "pitch": 64, "duration": 350, "velocity": 120}, {"time": 180359, "pitch": 57, "duration": 30, "velocity": 105}, {"time": 180359, "pitch": 60, "duration": 30, "velocity": 110}, {"time": 180369, "pitch": 45, "duration": 30, "velocity": 110}, {"time": 180369, "pitch": 52, "duration": 30, "velocity": 100}, {"time": 180479, "pitch": 43, "duration": 39, "velocity": 110}, {"time": 180479, "pitch": 47, "duration": 39, "velocity": 105}, {"time": 180489, "pitch": 50, "duration": 39, "velocity": 100}, {"time": 180489, "pitch": 55, "duration": 39, "velocity": 110}, {"time": 180719, "pitch": 50, "duration": 39, "velocity": 100}, {"time": 180719, "pitch": 55, "duration": 39, "velocity": 110}, {"time": 180729, "pitch": 43, "duration": 40, "velocity": 110}, {"time": 180729, "pitch": 47, "duration": 40, "velocity": 105}, {"time": 180959, "pitch": 50, "duration": 360, "velocity": 110}, {"time": 180959, "pitch": 55, "duration": 360, "velocity": 110}, {"time": 180969, "pitch": 59, "duration": 350, "velocity": 115}, {"time": 180969, "pitch": 67, "duration": 350, "velocity": 120}, {"time": 181319, "pitch": 55, "duration": 30, "velocity": 105}, {"time": 181319, "pitch": 59, "duration": 30, "velocity": 110}, {"time": 181329, "pitch": 47, "duration": 30, "velocity": 110}, {"time": 181329, "pitch": 50, "duration": 30, "velocity": 100}, {"time": 181439, "pitch": 41, "duration": 40, "velocity": 110}, {"time": 181439, "pitch": 45, "duration": 40, "velocity": 105}, {"time": 181449, "pitch": 53, "duration": 40, "velocity": 100}, {"time": 181449, "pitch": 57, "duration": 40, "velocity": 110}, {"time": 181679, "pitch": 53, "duration": 40, "velocity": 100}, {"time": 181679, "pitch": 57, "duration": 40, "velocity": 110}, {"time": 181689, "pitch": 41, "duration": 40, "velocity": 110}, {"time": 181689, "pitch": 45, "duration": 40, "velocity": 105}, {"time": 181919, "pitch": 53, "duration": 276, "velocity": 110}, {"time": 181919, "pitch": 57, "duration": 276, "velocity": 110}, {"time": 181927, "pitch": 60, "duration": 268, "velocity": 115}, {"time": 181927, "pitch": 65, "duration": 268, "velocity": 120}, {"time": 182195, "pitch": 57, "duration": 23, "velocity": 105}, {"time": 182195, "pitch": 60, "duration": 23, "velocity": 110}, {"time": 182202, "pitch": 45, "duration": 23, "velocity": 110}, {"time": 182202, "pitch": 53, "duration": 23, "velocity": 100}, {"time": 182348, "pitch": 40, "duration": 6007, "velocity": 110}, {"time": 182363, "pitch": 48, "duration": 5992, "velocity": 105}, {"time": 182378, "pitch": 52, "duration": 5977, "velocity": 110}, {"time": 182394, "pitch": 55, "duration": 5961, "velocity": 110}, {"time": 182409, "pitch": 60, "duration": 5946, "velocity": 115}, {"time": 182424, "pitch": 64, "duration": 5931, "velocity": 120}, {"time": 9840, "pitch": 67, "duration": 220, "velocity": 100}, {"time": 10080, "pitch": 67, "duration": 219, "velocity": 100}, {"time": 10319, "pitch": 67, "duration": 220, "velocity": 100}, {"time": 10559, "pitch": 69, "duration": 220, "velocity": 100}, {"time": 10799, "pitch": 72, "duration": 220, "velocity": 100}, {"time": 11039, "pitch": 74, "duration": 220, "velocity": 100}, {"time": 11279, "pitch": 72, "duration": 480, "velocity": 100}, {"time": 11759, "pitch": 69, "duration": 480, "velocity": 100}, {"time": 13199, "pitch": 72, "duration": 120, "velocity": 100}, {"time": 13319, "pitch": 74, "duration": 120, "velocity": 100}, {"time": 13439, "pitch": 76, "duration": 240, "velocity": 100}, {"time": 13679, "pitch": 76, "duration": 240, "velocity": 100}, {"time": 13919, "pitch": 76, "duration": 240, "velocity": 100}, {"time": 14159, "pitch": 76, "duration": 240, "velocity": 100}, {"time": 14399, "pitch": 76, "duration": 240, "velocity": 100}, {"time": 14639, "pitch": 76, "duration": 240, "velocity": 100}, {"time": 14879, "pitch": 76, "duration": 240, "velocity": 100}, {"time": 15119, "pitch": 74, "duration": 120, "velocity": 100}, {"time": 15239, "pitch": 72, "duration": 120, "velocity": 100}, {"time": 15359, "pitch": 74, "duration": 240, "velocity": 100}, {"time": 15599, "pitch": 76, "duration": 240, "velocity": 100}, {"time": 15839, "pitch": 74, "duration": 240, "velocity": 100}, {"time": 16079, "pitch": 76, "duration": 480, "velocity": 100}, {"time": 16559, "pitch": 74, "duration": 120, "velocity": 100}, {"time": 16679, "pitch": 72, "duration": 240, "velocity": 100}, {"time": 16919, "pitch": 69, "duration": 120, "velocity": 100}, {"time": 17039, "pitch": 67, "duration": 120, "velocity": 100}, {"time": 17519, "pitch": 67, "duration": 220, "velocity": 100}, {"time": 17759, "pitch": 67, "duration": 220, "velocity": 100}, {"time": 17999, "pitch": 67, "duration": 220, "velocity": 100}, {"time": 18239, "pitch": 69, "duration": 220, "velocity": 100}, {"time": 18479, "pitch": 72, "duration": 220, "velocity": 100}, {"time": 18719, "pitch": 74, "duration": 220, "velocity": 100}, {"time": 18959, "pitch": 72, "duration": 480, "velocity": 100}, {"time": 19439, "pitch": 69, "duration": 480, "velocity": 100}, {"time": 20879, "pitch": 72, "duration": 120, "velocity": 100}, {"time": 20999, "pitch": 74, "duration": 120, "velocity": 100}, {"time": 21119, "pitch": 76, "duration": 240, "velocity": 100}, {"time": 21359, "pitch": 76, "duration": 240, "velocity": 100}, {"time": 21599, "pitch": 76, "duration": 240, "velocity": 100}, {"time": 21839, "pitch": 76, "duration": 240, "velocity": 100}, {"time": 22079, "pitch": 79, "duration": 240, "velocity": 100}, {"time": 22319, "pitch": 76, "duration": 240, "velocity": 100}, {"time": 22559, "pitch": 74, "duration": 240, "velocity": 100}, {"time": 22799, "pitch": 72, "duration": 240, "velocity": 100}, {"time": 23039, "pitch": 74, "duration": 240, "velocity": 100}, {"time": 23279, "pitch": 76, "duration": 240, "velocity": 100}, {"time": 23519, "pitch": 74, "duration": 240, "velocity": 100}, {"time": 23759, "pitch": 76, "duration": 480, "velocity": 100}, {"time": 25199, "pitch": 77, "duration": 240, "velocity": 100}, {"time": 25439, "pitch": 77, "duration": 240, "velocity": 100}, {"time": 25679, "pitch": 77, "duration": 240, "velocity": 100}, {"time": 25919, "pitch": 77, "duration": 240, "velocity": 100}, {"time": 26159, "pitch": 76, "duration": 240, "velocity": 100}, {"time": 26399, "pitch": 74, "duration": 240, "velocity": 100}, {"time": 26639, "pitch": 72, "duration": 240, "velocity": 100}, {"time": 26879, "pitch": 72, "duration": 240, "velocity": 100}, {"time": 27119, "pitch": 74, "duration": 240, "velocity": 100}, {"time": 27359, "pitch": 76, "duration": 240, "velocity": 100}, {"time": 27599, "pitch": 72, "duration": 480, "velocity": 100}, {"time": 28079, "pitch": 74, "duration": 240, "velocity": 100}, {"time": 29039, "pitch": 77, "duration": 240, "velocity": 100}, {"time": 29279, "pitch": 77, "duration": 240, "velocity": 100}, {"time": 29519, "pitch": 77, "duration": 240, "velocity": 100}, {"time": 29759, "pitch": 77, "duration": 240, "velocity": 100}, {"time": 29999, "pitch": 76, "duration": 240, "velocity": 100}, {"time": 30239, "pitch": 74, "duration": 240, "velocity": 100}, {"time": 30479, "pitch": 72, "duration": 240, "velocity": 100}, {"time": 30719, "pitch": 72, "duration": 240, "velocity": 100}, {"time": 30959, "pitch": 74, "duration": 240, "velocity": 100}, {"time": 31199, "pitch": 76, "duration": 240, "velocity": 100}, {"time": 31439, "pitch": 74, "duration": 240, "velocity": 100}, {"time": 31919, "pitch": 77, "duration": 240, "velocity": 100}, {"time": 32159, "pitch": 76, "duration": 240, "velocity": 100}, {"time": 32399, "pitch": 74, "duration": 240, "velocity": 100}, {"time": 32639, "pitch": 72, "duration": 240, "velocity": 100}, {"time": 40558, "pitch": 67, "duration": 220, "velocity": 100}, {"time": 40798, "pitch": 67, "duration": 220, "velocity": 100}, {"time": 41038, "pitch": 67, "duration": 220, "velocity": 100}, {"time": 41278, "pitch": 69, "duration": 220, "velocity": 100}, {"time": 41518, "pitch": 72, "duration": 220, "velocity": 100}, {"time": 41758, "pitch": 74, "duration": 220, "velocity": 100}, {"time": 41998, "pitch": 72, "duration": 480, "velocity": 100}, {"time": 42478, "pitch": 69, "duration": 480, "velocity": 100}, {"time": 44038, "pitch": 74, "duration": 120, "velocity": 100}, {"time": 44158, "pitch": 76, "duration": 240, "velocity": 100}, {"time": 44398, "pitch": 76, "duration": 240, "velocity": 100}, {"time": 44638, "pitch": 76, "duration": 240, "velocity": 100}, {"time": 44878, "pitch": 76, "duration": 240, "velocity": 100}, {"time": 45118, "pitch": 76, "duration": 100, "velocity": 100}, {"time": 45238, "pitch": 76, "duration": 100, "velocity": 100}, {"time": 45358, "pitch": 76, "duration": 240, "velocity": 100}, {"time": 45598, "pitch": 76, "duration": 240, "velocity": 100}, {"time": 45838, "pitch": 74, "duration": 120, "velocity": 100}, {"time": 45958, "pitch": 72, "duration": 120, "velocity": 100}, {"time": 46078, "pitch": 74, "duration": 240, "velocity": 100}, {"time": 46318, "pitch": 76, "duration": 240, "velocity": 100}, {"time": 46558, "pitch": 74, "duration": 240, "velocity": 100}, {"time": 46798, "pitch": 76, "duration": 480, "velocity": 100}, {"time": 47278, "pitch": 74, "duration": 120, "velocity": 100}, {"time": 47398, "pitch": 72, "duration": 240, "velocity": 100}, {"time": 47638, "pitch": 69, "duration": 120, "velocity": 100}, {"time": 47758, "pitch": 67, "duration": 120, "velocity": 100}, {"time": 48238, "pitch": 67, "duration": 220, "velocity": 100}, {"time": 48478, "pitch": 67, "duration": 220, "velocity": 100}, {"time": 48718, "pitch": 67, "duration": 220, "velocity": 100}, {"time": 48958, "pitch": 69, "duration": 220, "velocity": 100}, {"time": 49198, "pitch": 72, "duration": 220, "velocity": 100}, {"time": 49438, "pitch": 74, "duration": 220, "velocity": 100}, {"time": 49678, "pitch": 72, "duration": 480, "velocity": 100}, {"time": 50158, "pitch": 69, "duration": 480, "velocity": 100}, {"time": 51598, "pitch": 72, "duration": 120, "velocity": 100}, {"time": 51718, "pitch": 74, "duration": 120, "velocity": 100}, {"time": 51838, "pitch": 76, "duration": 240, "velocity": 100}, {"time": 52078, "pitch": 76, "duration": 240, "velocity": 100}, {"time": 52318, "pitch": 76, "duration": 240, "velocity": 100}, {"time": 52558, "pitch": 76, "duration": 240, "velocity": 100}, {"time": 52798, "pitch": 79, "duration": 240, "velocity": 100}, {"time": 53038, "pitch": 76, "duration": 240, "velocity": 100}, {"time": 53278, "pitch": 74, "duration": 240, "velocity": 100}, {"time": 53518, "pitch": 72, "duration": 240, "velocity": 100}, {"time": 53758, "pitch": 74, "duration": 240, "velocity": 100}, {"time": 53998, "pitch": 76, "duration": 240, "velocity": 100}, {"time": 54238, "pitch": 74, "duration": 240, "velocity": 100}, {"time": 54478, "pitch": 76, "duration": 480, "velocity": 100}, {"time": 55918, "pitch": 77, "duration": 240, "velocity": 100}, {"time": 56158, "pitch": 77, "duration": 240, "velocity": 100}, {"time": 56398, "pitch": 77, "duration": 240, "velocity": 100}, {"time": 56638, "pitch": 77, "duration": 240, "velocity": 100}, {"time": 56878, "pitch": 76, "duration": 240, "velocity": 100}, {"time": 57118, "pitch": 74, "duration": 240, "velocity": 100}, {"time": 57358, "pitch": 72, "duration": 240, "velocity": 100}, {"time": 57598, "pitch": 72, "duration": 240, "velocity": 100}, {"time": 57838, "pitch": 74, "duration": 240, "velocity": 100}, {"time": 58078, "pitch": 76, "duration": 240, "velocity": 100}, {"time": 58318, "pitch": 72, "duration": 479, "velocity": 100}, {"time": 58797, "pitch": 74, "duration": 240, "velocity": 100}, {"time": 59757, "pitch": 77, "duration": 240, "velocity": 100}, {"time": 59997, "pitch": 77, "duration": 240, "velocity": 100}, {"time": 60237, "pitch": 77, "duration": 240, "velocity": 100}, {"time": 60477, "pitch": 77, "duration": 240, "velocity": 100}, {"time": 60717, "pitch": 76, "duration": 240, "velocity": 100}, {"time": 60957, "pitch": 74, "duration": 240, "velocity": 100}, {"time": 61197, "pitch": 72, "duration": 240, "velocity": 100}, {"time": 61437, "pitch": 72, "duration": 240, "velocity": 100}, {"time": 61677, "pitch": 74, "duration": 240, "velocity": 100}, {"time": 61917, "pitch": 76, "duration": 240, "velocity": 100}, {"time": 62157, "pitch": 74, "duration": 240, "velocity": 100}, {"time": 62637, "pitch": 77, "duration": 240, "velocity": 100}, {"time": 62877, "pitch": 76, "duration": 240, "velocity": 100}, {"time": 63117, "pitch": 74, "duration": 240, "velocity": 100}, {"time": 63357, "pitch": 79, "duration": 720, "velocity": 100}, {"time": 64077, "pitch": 72, "duration": 240, "velocity": 100}, {"time": 64317, "pitch": 77, "duration": 240, "velocity": 100}, {"time": 64557, "pitch": 76, "duration": 240, "velocity": 100}, {"time": 64797, "pitch": 72, "duration": 240, "velocity": 100}, {"time": 65037, "pitch": 76, "duration": 240, "velocity": 100}, {"time": 65277, "pitch": 74, "duration": 480, "velocity": 100}, {"time": 66477, "pitch": 77, "duration": 240, "velocity": 100}, {"time": 66717, "pitch": 76, "duration": 240, "velocity": 100}, {"time": 66957, "pitch": 74, "duration": 240, "velocity": 100}, {"time": 67197, "pitch": 79, "duration": 720, "velocity": 100}, {"time": 67917, "pitch": 72, "duration": 120, "velocity": 100}, {"time": 68037, "pitch": 72, "duration": 120, "velocity": 100}, {"time": 68157, "pitch": 77, "duration": 240, "velocity": 100}, {"time": 68397, "pitch": 77, "duration": 240, "velocity": 100}, {"time": 68637, "pitch": 79, "duration": 240, "velocity": 100}, {"time": 68877, "pitch": 76, "duration": 480, "velocity": 100}, {"time": 69357, "pitch": 74, "duration": 480, "velocity": 100}, {"time": 71037, "pitch": 74, "duration": 220, "velocity": 100}, {"time": 71277, "pitch": 74, "duration": 220, "velocity": 100}, {"time": 71517, "pitch": 76, "duration": 220, "velocity": 100}, {"time": 71757, "pitch": 72, "duration": 480, "velocity": 100}, {"time": 72237, "pitch": 67, "duration": 240, "velocity": 100}, {"time": 72477, "pitch": 72, "duration": 240, "velocity": 100}, {"time": 72717, "pitch": 76, "duration": 240, "velocity": 100}, {"time": 72957, "pitch": 77, "duration": 480, "velocity": 100}, {"time": 73437, "pitch": 76, "duration": 240, "velocity": 100}, {"time": 73677, "pitch": 72, "duration": 480, "velocity": 100}, {"time": 74157, "pitch": 67, "duration": 240, "velocity": 100}, {"time": 74397, "pitch": 74, "duration": 240, "velocity": 100}, {"time": 74637, "pitch": 72, "duration": 240, "velocity": 100}, {"time": 82803, "pitch": 67, "duration": 220, "velocity": 100}, {"time": 83043, "pitch": 67, "duration": 220, "velocity": 100}, {"time": 83283, "pitch": 67, "duration": 220, "velocity": 100}, {"time": 83523, "pitch": 69, "duration": 220, "velocity": 100}, {"time": 83763, "pitch": 72, "duration": 220, "velocity": 100}, {"time": 84003, "pitch": 74, "duration": 220, "velocity": 100}, {"time": 84243, "pitch": 72, "duration": 480, "velocity": 100}, {"time": 84723, "pitch": 69, "duration": 480, "velocity": 100}, {"time": 86163, "pitch": 72, "duration": 120, "velocity": 100}, {"time": 86283, "pitch": 74, "duration": 120, "velocity": 100}, {"time": 86403, "pitch": 76, "duration": 240, "velocity": 100}, {"time": 86643, "pitch": 76, "duration": 240, "velocity": 100}, {"time": 86883, "pitch": 76, "duration": 240, "velocity": 100}, {"time": 87123, "pitch": 76, "duration": 240, "velocity": 100}, {"time": 87363, "pitch": 76, "duration": 240, "velocity": 100}, {"time": 87603, "pitch": 76, "duration": 240, "velocity": 100}, {"time": 87843, "pitch": 76, "duration": 240, "velocity": 100}, {"time": 88083, "pitch": 74, "duration": 120, "velocity": 100}, {"time": 88203, "pitch": 72, "duration": 120, "velocity": 100}, {"time": 88323, "pitch": 74, "duration": 240, "velocity": 100}, {"time": 88563, "pitch": 76, "duration": 240, "velocity": 100}, {"time": 88803, "pitch": 74, "duration": 240, "velocity": 100}, {"time": 89043, "pitch": 76, "duration": 480, "velocity": 100}, {"time": 89523, "pitch": 74, "duration": 120, "velocity": 100}, {"time": 89643, "pitch": 72, "duration": 240, "velocity": 100}, {"time": 89883, "pitch": 69, "duration": 120, "velocity": 100}, {"time": 90003, "pitch": 67, "duration": 120, "velocity": 100}, {"time": 90483, "pitch": 67, "duration": 220, "velocity": 100}, {"time": 90723, "pitch": 67, "duration": 220, "velocity": 100}, {"time": 90963, "pitch": 67, "duration": 220, "velocity": 100}, {"time": 91203, "pitch": 69, "duration": 220, "velocity": 100}, {"time": 91443, "pitch": 72, "duration": 220, "velocity": 100}, {"time": 91683, "pitch": 74, "duration": 220, "velocity": 100}, {"time": 91923, "pitch": 72, "duration": 480, "velocity": 100}, {"time": 92403, "pitch": 69, "duration": 479, "velocity": 100}, {"time": 93842, "pitch": 72, "duration": 120, "velocity": 100}, {"time": 93962, "pitch": 74, "duration": 120, "velocity": 100}, {"time": 94082, "pitch": 76, "duration": 240, "velocity": 100}, {"time": 94322, "pitch": 76, "duration": 240, "velocity": 100}, {"time": 94562, "pitch": 76, "duration": 240, "velocity": 100}, {"time": 94802, "pitch": 76, "duration": 240, "velocity": 100}, {"time": 95042, "pitch": 79, "duration": 240, "velocity": 100}, {"time": 95282, "pitch": 76, "duration": 240, "velocity": 100}, {"time": 95522, "pitch": 74, "duration": 240, "velocity": 100}, {"time": 95762, "pitch": 72, "duration": 240, "velocity": 100}, {"time": 96002, "pitch": 74, "duration": 240, "velocity": 100}, {"time": 96242, "pitch": 76, "duration": 240, "velocity": 100}, {"time": 96482, "pitch": 74, "duration": 240, "velocity": 100}, {"time": 96722, "pitch": 76, "duration": 480, "velocity": 100}, {"time": 97202, "pitch": 74, "duration": 120, "velocity": 100}, {"time": 97322, "pitch": 72, "duration": 480, "velocity": 100}, {"time": 98162, "pitch": 77, "duration": 240, "velocity": 100}, {"time": 98402, "pitch": 77, "duration": 240, "velocity": 100}, {"time": 98642, "pitch": 77, "duration": 240, "velocity": 100}, {"time": 98882, "pitch": 77, "duration": 240, "velocity": 100}, {"time": 99122, "pitch": 76, "duration": 240, "velocity": 100}, {"time": 99362, "pitch": 74, "duration": 240, "velocity": 100}, {"time": 99602, "pitch": 72, "duration": 240, "velocity": 100}, {"time": 99842, "pitch": 72, "duration": 240, "velocity": 100}, {"time": 100082, "pitch": 74, "duration": 240, "velocity": 100}, {"time": 100322, "pitch": 76, "duration": 240, "velocity": 100}, {"time": 100562, "pitch": 72, "duration": 480, "velocity": 100}, {"time": 101042, "pitch": 74, "duration": 240, "velocity": 100}, {"time": 102002, "pitch": 77, "duration": 240, "velocity": 100}, {"time": 102242, "pitch": 77, "duration": 240, "velocity": 100}, {"time": 102482, "pitch": 77, "duration": 240, "velocity": 100}, {"time": 102722, "pitch": 77, "duration": 240, "velocity": 100}, {"time": 102962, "pitch": 76, "duration": 240, "velocity": 100}, {"time": 103202, "pitch": 74, "duration": 240, "velocity": 100}, {"time": 103442, "pitch": 72, "duration": 240, "velocity": 100}, {"time": 103682, "pitch": 72, "duration": 240, "velocity": 100}, {"time": 103922, "pitch": 74, "duration": 240, "velocity": 100}, {"time": 104162, "pitch": 76, "duration": 240, "velocity": 100}, {"time": 104402, "pitch": 74, "duration": 240, "velocity": 100}, {"time": 104882, "pitch": 77, "duration": 240, "velocity": 100}, {"time": 105122, "pitch": 76, "duration": 240, "velocity": 100}, {"time": 105362, "pitch": 74, "duration": 240, "velocity": 100}, {"time": 105602, "pitch": 79, "duration": 720, "velocity": 100}, {"time": 106322, "pitch": 72, "duration": 240, "velocity": 100}, {"time": 106562, "pitch": 77, "duration": 240, "velocity": 100}, {"time": 106802, "pitch": 76, "duration": 240, "velocity": 100}, {"time": 107042, "pitch": 72, "duration": 240, "velocity": 100}, {"time": 107282, "pitch": 76, "duration": 240, "velocity": 100}, {"time": 107522, "pitch": 74, "duration": 480, "velocity": 100}, {"time": 108722, "pitch": 77, "duration": 240, "velocity": 100}, {"time": 108962, "pitch": 76, "duration": 240, "velocity": 100}, {"time": 109202, "pitch": 74, "duration": 240, "velocity": 100}, {"time": 109442, "pitch": 79, "duration": 720, "velocity": 100}, {"time": 110162, "pitch": 72, "duration": 120, "velocity": 100}, {"time": 110282, "pitch": 72, "duration": 120, "velocity": 100}, {"time": 110402, "pitch": 77, "duration": 240, "velocity": 100}, {"time": 110642, "pitch": 77, "duration": 240, "velocity": 100}, {"time": 110882, "pitch": 79, "duration": 240, "velocity": 100}, {"time": 111122, "pitch": 76, "duration": 480, "velocity": 100}, {"time": 111602, "pitch": 74, "duration": 480, "velocity": 100}, {"time": 113282, "pitch": 74, "duration": 220, "velocity": 100}, {"time": 113522, "pitch": 74, "duration": 220, "velocity": 100}, {"time": 113762, "pitch": 76, "duration": 220, "velocity": 100}, {"time": 114002, "pitch": 72, "duration": 480, "velocity": 100}, {"time": 114482, "pitch": 67, "duration": 240, "velocity": 100}, {"time": 114722, "pitch": 72, "duration": 240, "velocity": 100}, {"time": 114962, "pitch": 76, "duration": 240, "velocity": 100}, {"time": 115202, "pitch": 77, "duration": 480, "velocity": 100}, {"time": 115682, "pitch": 76, "duration": 240, "velocity": 100}, {"time": 115922, "pitch": 72, "duration": 480, "velocity": 100}, {"time": 116402, "pitch": 67, "duration": 239, "velocity": 100}, {"time": 116641, "pitch": 74, "duration": 240, "velocity": 100}, {"time": 116881, "pitch": 72, "duration": 240, "velocity": 100}, {"time": 132721, "pitch": 77, "duration": 240, "velocity": 100}, {"time": 132961, "pitch": 77, "duration": 240, "velocity": 100}, {"time": 133201, "pitch": 77, "duration": 240, "velocity": 100}, {"time": 133441, "pitch": 77, "duration": 240, "velocity": 100}, {"time": 133681, "pitch": 76, "duration": 240, "velocity": 100}, {"time": 133921, "pitch": 74, "duration": 240, "velocity": 100}, {"time": 134161, "pitch": 72, "duration": 240, "velocity": 100}, {"time": 134401, "pitch": 72, "duration": 240, "velocity": 100}, {"time": 134641, "pitch": 67, "duration": 240, "velocity": 100}, {"time": 134881, "pitch": 76, "duration": 240, "velocity": 100}, {"time": 135121, "pitch": 74, "duration": 480, "velocity": 100}, {"time": 135601, "pitch": 76, "duration": 120, "velocity": 100}, {"time": 135721, "pitch": 74, "duration": 120, "velocity": 100}, {"time": 135841, "pitch": 72, "duration": 240, "velocity": 100}, {"time": 136561, "pitch": 77, "duration": 240, "velocity": 100}, {"time": 136801, "pitch": 77, "duration": 240, "velocity": 100}, {"time": 137041, "pitch": 77, "duration": 240, "velocity": 100}, {"time": 137281, "pitch": 77, "duration": 240, "velocity": 100}, {"time": 137521, "pitch": 76, "duration": 240, "velocity": 100}, {"time": 137761, "pitch": 74, "duration": 240, "velocity": 100}, {"time": 138001, "pitch": 72, "duration": 240, "velocity": 100}, {"time": 138241, "pitch": 72, "duration": 240, "velocity": 100}, {"time": 138481, "pitch": 74, "duration": 240, "velocity": 100}, {"time": 138721, "pitch": 76, "duration": 240, "velocity": 100}, {"time": 138961, "pitch": 74, "duration": 480, "velocity": 100}, {"time": 140401, "pitch": 77, "duration": 240, "velocity": 100}, {"time": 140641, "pitch": 77, "duration": 239, "velocity": 100}, {"time": 140880, "pitch": 77, "duration": 240, "velocity": 100}, {"time": 141120, "pitch": 77, "duration": 240, "velocity": 100}, {"time": 141360, "pitch": 76, "duration": 240, "velocity": 100}, {"time": 141600, "pitch": 74, "duration": 240, "velocity": 100}, {"time": 141840, "pitch": 72, "duration": 240, "velocity": 100}, {"time": 142080, "pitch": 72, "duration": 240, "velocity": 100}, {"time": 142320, "pitch": 74, "duration": 240, "velocity": 100}, {"time": 142560, "pitch": 76, "duration": 240, "velocity": 100}, {"time": 142800, "pitch": 74, "duration": 480, "velocity": 100}, {"time": 143280, "pitch": 72, "duration": 240, "velocity": 100}, {"time": 144240, "pitch": 77, "duration": 240, "velocity": 100}, {"time": 144480, "pitch": 77, "duration": 240, "velocity": 100}, {"time": 144720, "pitch": 76, "duration": 240, "velocity": 100}, {"time": 144960, "pitch": 72, "duration": 240, "velocity": 100}, {"time": 145200, "pitch": 72, "duration": 240, "velocity": 100}, {"time": 145440, "pitch": 67, "duration": 240, "velocity": 100}, {"time": 145680, "pitch": 76, "duration": 240, "velocity": 100}, {"time": 145920, "pitch": 74, "duration": 720, "velocity": 100}, {"time": 147120, "pitch": 76, "duration": 240, "velocity": 100}, {"time": 147360, "pitch": 74, "duration": 240, "velocity": 100}, {"time": 147600, "pitch": 72, "duration": 240, "velocity": 100}, {"time": 147840, "pitch": 79, "duration": 720, "velocity": 100}, {"time": 148800, "pitch": 77, "duration": 240, "velocity": 100}, {"time": 149040, "pitch": 76, "duration": 240, "velocity": 100}, {"time": 149280, "pitch": 72, "duration": 240, "velocity": 100}, {"time": 149520, "pitch": 76, "duration": 240, "velocity": 100}, {"time": 149760, "pitch": 74, "duration": 720, "velocity": 100}, {"time": 150960, "pitch": 76, "duration": 240, "velocity": 100}, {"time": 151200, "pitch": 74, "duration": 240, "velocity": 100}, {"time": 151440, "pitch": 72, "duration": 240, "velocity": 100}, {"time": 151680, "pitch": 79, "duration": 720, "velocity": 100}, {"time": 152400, "pitch": 72, "duration": 240, "velocity": 100}, {"time": 152640, "pitch": 77, "duration": 240, "velocity": 100}, {"time": 152880, "pitch": 77, "duration": 240, "velocity": 100}, {"time": 153120, "pitch": 79, "duration": 240, "velocity": 100}, {"time": 153360, "pitch": 76, "duration": 360, "velocity": 100}, {"time": 153720, "pitch": 74, "duration": 120, "velocity": 100}, {"time": 153840, "pitch": 72, "duration": 480, "velocity": 100}, {"time": 154800, "pitch": 76, "duration": 240, "velocity": 100}, {"time": 155040, "pitch": 74, "duration": 240, "velocity": 100}, {"time": 155280, "pitch": 72, "duration": 240, "velocity": 100}, {"time": 155520, "pitch": 79, "duration": 720, "velocity": 100}, {"time": 156480, "pitch": 77, "duration": 240, "velocity": 100}, {"time": 156720, "pitch": 76, "duration": 240, "velocity": 100}, {"time": 156960, "pitch": 72, "duration": 240, "velocity": 100}, {"time": 157200, "pitch": 76, "duration": 240, "velocity": 100}, {"time": 157440, "pitch": 74, "duration": 720, "velocity": 100}, {"time": 158640, "pitch": 76, "duration": 240, "velocity": 100}, {"time": 158880, "pitch": 74, "duration": 240, "velocity": 100}, {"time": 159120, "pitch": 72, "duration": 240, "velocity": 100}, {"time": 159360, "pitch": 79, "duration": 720, "velocity": 100}, {"time": 160080, "pitch": 72, "duration": 240, "velocity": 100}, {"time": 160320, "pitch": 77, "duration": 240, "velocity": 100}, {"time": 160560, "pitch": 77, "duration": 240, "velocity": 100}, {"time": 160800, "pitch": 79, "duration": 240, "velocity": 100}, {"time": 161040, "pitch": 76, "duration": 360, "velocity": 100}, {"time": 161400, "pitch": 74, "duration": 120, "velocity": 100}, {"time": 161520, "pitch": 72, "duration": 480, "velocity": 100}, {"time": 163200, "pitch": 74, "duration": 220, "velocity": 100}, {"time": 163440, "pitch": 74, "duration": 220, "velocity": 100}, {"time": 163680, "pitch": 76, "duration": 220, "velocity": 100}, {"time": 163920, "pitch": 72, "duration": 480, "velocity": 100}, {"time": 164400, "pitch": 67, "duration": 240, "velocity": 100}, {"time": 164640, "pitch": 72, "duration": 120, "velocity": 100}, {"time": 164760, "pitch": 74, "duration": 120, "velocity": 100}, {"time": 164880, "pitch": 76, "duration": 239, "velocity": 100}, {"time": 165119, "pitch": 77, "duration": 480, "velocity": 100}, {"time": 165599, "pitch": 76, "duration": 240, "velocity": 100}, {"time": 165839, "pitch": 72, "duration": 480, "velocity": 100}, {"time": 166319, "pitch": 67, "duration": 240, "velocity": 100}, {"time": 166559, "pitch": 74, "duration": 240, "velocity": 100}, {"time": 166799, "pitch": 72, "duration": 240, "velocity": 100}, {"time": 169919, "pitch": 72, "duration": 240, "velocity": 100}, {"time": 170159, "pitch": 67, "duration": 240, "velocity": 100}, {"time": 170399, "pitch": 74, "duration": 240, "velocity": 100}, {"time": 170639, "pitch": 72, "duration": 240, "velocity": 100}, {"time": 173519, "pitch": 72, "duration": 480, "velocity": 100}, {"time": 173999, "pitch": 67, "duration": 240, "velocity": 100}, {"time": 174239, "pitch": 74, "duration": 240, "velocity": 100}, {"time": 174479, "pitch": 72, "duration": 360, "velocity": 100}, {"time": 174839, "pitch": 74, "duration": 120, "velocity": 100}, {"time": 174959, "pitch": 76, "duration": 240, "velocity": 100}, {"time": 175919, "pitch": 79, "duration": 960, "velocity": 100}, {"time": 176879, "pitch": 77, "duration": 240, "velocity": 100}, {"time": 177119, "pitch": 76, "duration": 240, "velocity": 100}, {"time": 177359, "pitch": 72, "duration": 240, "velocity": 100}, {"time": 177599, "pitch": 72, "duration": 240, "velocity": 100}, {"time": 177839, "pitch": 76, "duration": 480, "velocity": 100}, {"time": 840, "pitch": 57, "duration": 360, "velocity": 125}, {"time": 1200, "pitch": 55, "duration": 240, "velocity": 120}, {"time": 1440, "pitch": 50, "duration": 240, "velocity": 125}, {"time": 1680, "pitch": 48, "duration": 240, "velocity": 120}, {"time": 1920, "pitch": 52, "duration": 240, "velocity": 125}, {"time": 2160, "pitch": 55, "duration": 120, "velocity": 120}, {"time": 2280, "pitch": 52, "duration": 720, "velocity": 125}, {"time": 4920, "pitch": 43, "duration": 120, "velocity": 110}, {"time": 5040, "pitch": 45, "duration": 120, "velocity": 115}, {"time": 5160, "pitch": 48, "duration": 120, "velocity": 120}, {"time": 5280, "pitch": 50, "duration": 360, "velocity": 125}, {"time": 5640, "pitch": 48, "duration": 120, "velocity": 120}, {"time": 5760, "pitch": 50, "duration": 240, "velocity": 125}, {"time": 6000, "pitch": 48, "duration": 480, "velocity": 120}, {"time": 8520, "pitch": 57, "duration": 360, "velocity": 125}, {"time": 8880, "pitch": 60, "duration": 120, "velocity": 120}, {"time": 9120, "pitch": 60, "duration": 240, "velocity": 125}, {"time": 9360, "pitch": 64, "duration": 240, "velocity": 120}, {"time": 9600, "pitch": 67, "duration": 1899, "velocity": 125}, {"time": 23999, "pitch": 52, "duration": 120, "velocity": 125}, {"time": 24119, "pitch": 55, "duration": 120, "velocity": 115}, {"time": 24239, "pitch": 57, "duration": 120, "velocity": 125}, {"time": 24359, "pitch": 52, "duration": 120, "velocity": 115}, {"time": 24479, "pitch": 50, "duration": 120, "velocity": 125}, {"time": 24599, "pitch": 48, "duration": 120, "velocity": 120}, {"time": 24719, "pitch": 45, "duration": 120, "velocity": 120}, {"time": 24839, "pitch": 43, "duration": 120, "velocity": 115}, {"time": 24959, "pitch": 48, "duration": 1440, "velocity": 115}, {"time": 28559, "pitch": 55, "duration": 1920, "velocity": 110}, {"time": 32639, "pitch": 72, "duration": 1680, "velocity": 125}, {"time": 34319, "pitch": 69, "duration": 119, "velocity": 115}, {"time": 34558, "pitch": 67, "duration": 240, "velocity": 125}, {"time": 34798, "pitch": 69, "duration": 120, "velocity": 120}, {"time": 35518, "pitch": 62, "duration": 240, "velocity": 125}, {"time": 35758, "pitch": 60, "duration": 480, "velocity": 120}, {"time": 38878, "pitch": 69, "duration": 240, "velocity": 125}, {"time": 39118, "pitch": 65, "duration": 120, "velocity": 125}, {"time": 39238, "pitch": 67, "duration": 120, "velocity": 115}, {"time": 39358, "pitch": 63, "duration": 120, "velocity": 125}, {"time": 39478, "pitch": 60, "duration": 120, "velocity": 115}, {"time": 39598, "pitch": 58, "duration": 120, "velocity": 120}, {"time": 39718, "pitch": 55, "duration": 120, "velocity": 110}, {"time": 39838, "pitch": 52, "duration": 120, "velocity": 115}, {"time": 39958, "pitch": 60, "duration": 480, "velocity": 100}, {"time": 47038, "pitch": 57, "duration": 240, "velocity": 125}, {"time": 47278, "pitch": 62, "duration": 240, "velocity": 120}, {"time": 47518, "pitch": 60, "duration": 120, "velocity": 120}, {"time": 47638, "pitch": 57, "duration": 120, "velocity": 100}, {"time": 47758, "pitch": 62, "duration": 120, "velocity": 110}, {"time": 47878, "pitch": 55, "duration": 120, "velocity": 90}, {"time": 47998, "pitch": 60, "duration": 1900, "velocity": 110}, {"time": 50878, "pitch": 60, "duration": 120, "velocity": 120}, {"time": 50998, "pitch": 69, "duration": 120, "velocity": 125}, {"time": 51118, "pitch": 67, "duration": 120, "velocity": 120}, {"time": 51238, "pitch": 65, "duration": 600, "velocity": 115}, {"time": 54718, "pitch": 69, "duration": 240, "velocity": 125}, {"time": 54958, "pitch": 72, "duration": 120, "velocity": 120}, {"time": 55198, "pitch": 74, "duration": 240, "velocity": 125}, {"time": 55438, "pitch": 72, "duration": 120, "velocity": 120}, {"time": 55558, "pitch": 69, "duration": 120, "velocity": 115}, {"time": 55678, "pitch": 72, "duration": 1920, "velocity": 115}, {"time": 58917, "pitch": 67, "duration": 120, "velocity": 125}, {"time": 59037, "pitch": 64, "duration": 360, "velocity": 125}, {"time": 59397, "pitch": 60, "duration": 600, "velocity": 120}, {"time": 75722, "pitch": 67, "duration": 121, "velocity": 120}, {"time": 75843, "pitch": 64, "duration": 240, "velocity": 125}, {"time": 76083, "pitch": 60, "duration": 120, "velocity": 100}, {"time": 76203, "pitch": 57, "duration": 120, "velocity": 60}, {"time": 76323, "pitch": 60, "duration": 120, "velocity": 125}, {"time": 76563, "pitch": 60, "duration": 120, "velocity": 100}, {"time": 76683, "pitch": 57, "duration": 120, "velocity": 60}, {"time": 76803, "pitch": 60, "duration": 120, "velocity": 125}, {"time": 77043, "pitch": 60, "duration": 240, "velocity": 100}, {"time": 77283, "pitch": 64, "duration": 240, "velocity": 100}, {"time": 77523, "pitch": 67, "duration": 120, "velocity": 120}, {"time": 77643, "pitch": 67, "duration": 600, "velocity": 125}, {"time": 81603, "pitch": 67, "duration": 80, "velocity": 125}, {"time": 81723, "pitch": 66, "duration": 80, "velocity": 125}, {"time": 81843, "pitch": 65, "duration": 80, "velocity": 125}, {"time": 81963, "pitch": 67, "duration": 80, "velocity": 125}, {"time": 82083, "pitch": 64, "duration": 240, "velocity": 125}, {"time": 82323, "pitch": 60, "duration": 80, "velocity": 120}, {"time": 82443, "pitch": 57, "duration": 80, "velocity": 110}, {"time": 82563, "pitch": 60, "duration": 720, "velocity": 125}, {"time": 85323, "pitch": 55, "duration": 120, "velocity": 115}, {"time": 85443, "pitch": 57, "duration": 120, "velocity": 120}, {"time": 85563, "pitch": 60, "duration": 360, "velocity": 115}, {"time": 85923, "pitch": 60, "duration": 240, "velocity": 120}, {"time": 86163, "pitch": 64, "duration": 240, "velocity": 120}, {"time": 86403, "pitch": 67, "duration": 960, "velocity": 115}, {"time": 89763, "pitch": 67, "duration": 120, "velocity": 125}, {"time": 89883, "pitch": 69, "duration": 120, "velocity": 120}, {"time": 90003, "pitch": 72, "duration": 120, "velocity": 125}, {"time": 90243, "pitch": 69, "duration": 240, "velocity": 115}, {"time": 90483, "pitch": 69, "duration": 80, "velocity": 80}, {"time": 90723, "pitch": 64, "duration": 240, "velocity": 100}, {"time": 90963, "pitch": 64, "duration": 80, "velocity": 80}, {"time": 91203, "pitch": 60, "duration": 80, "velocity": 80}, {"time": 93122, "pitch": 67, "duration": 120, "velocity": 125}, {"time": 93242, "pitch": 69, "duration": 120, "velocity": 120}, {"time": 93362, "pitch": 72, "duration": 120, "velocity": 120}, {"time": 93602, "pitch": 74, "duration": 240, "velocity": 120}, {"time": 93842, "pitch": 72, "duration": 120, "velocity": 120}, {"time": 93962, "pitch": 69, "duration": 120, "velocity": 110}, {"time": 94082, "pitch": 72, "duration": 960, "velocity": 110}, {"time": 96002, "pitch": 69, "duration": 120, "velocity": 90}, {"time": 96122, "pitch": 72, "duration": 120, "velocity": 90}, {"time": 96242, "pitch": 69, "duration": 120, "velocity": 110}, {"time": 96362, "pitch": 72, "duration": 240, "velocity": 110}, {"time": 96602, "pitch": 69, "duration": 120, "velocity": 90}, {"time": 96722, "pitch": 72, "duration": 120, "velocity": 110}, {"time": 96842, "pitch": 72, "duration": 120, "velocity": 105}, {"time": 97082, "pitch": 72, "duration": 840, "velocity": 110}, {"time": 100802, "pitch": 62, "duration": 240, "velocity": 125}, {"time": 101042, "pitch": 55, "duration": 120, "velocity": 110}, {"time": 101282, "pitch": 64, "duration": 120, "velocity": 110}, {"time": 101522, "pitch": 62, "duration": 480, "velocity": 110}, {"time": 102002, "pitch": 60, "duration": 720, "velocity": 110}, {"time": 105602, "pitch": 48, "duration": 20, "velocity": 100}, {"time": 105962, "pitch": 48, "duration": 20, "velocity": 100}, {"time": 106322, "pitch": 48, "duration": 20, "velocity": 100}, {"time": 106682, "pitch": 48, "duration": 20, "velocity": 100}, {"time": 107042, "pitch": 48, "duration": 20, "velocity": 100}, {"time": 107522, "pitch": 48, "duration": 20, "velocity": 100}, {"time": 107882, "pitch": 48, "duration": 20, "velocity": 100}, {"time": 108242, "pitch": 48, "duration": 20, "velocity": 100}, {"time": 108602, "pitch": 48, "duration": 20, "velocity": 100}, {"time": 108962, "pitch": 48, "duration": 20, "velocity": 100}, {"time": 109442, "pitch": 48, "duration": 20, "velocity": 100}, {"time": 109802, "pitch": 48, "duration": 20, "velocity": 100}, {"time": 110162, "pitch": 48, "duration": 20, "velocity": 100}, {"time": 110522, "pitch": 48, "duration": 20, "velocity": 100}, {"time": 110882, "pitch": 48, "duration": 20, "velocity": 100}, {"time": 111362, "pitch": 48, "duration": 20, "velocity": 100}, {"time": 111722, "pitch": 48, "duration": 20, "velocity": 100}, {"time": 112082, "pitch": 48, "duration": 20, "velocity": 100}, {"time": 112442, "pitch": 48, "duration": 20, "velocity": 100}, {"time": 112802, "pitch": 48, "duration": 20, "velocity": 100}, {"time": 117121, "pitch": 64, "duration": 1920, "velocity": 110}, {"time": 120721, "pitch": 60, "duration": 60, "velocity": 125}, {"time": 120781, "pitch": 62, "duration": 60, "velocity": 120}, {"time": 120841, "pitch": 64, "duration": 60, "velocity": 125}, {"time": 120901, "pitch": 65, "duration": 60, "velocity": 120}, {"time": 120961, "pitch": 67, "duration": 480, "velocity": 125}, {"time": 121441, "pitch": 67, "duration": 120, "velocity": 125}, {"time": 121561, "pitch": 65, "duration": 60, "velocity": 125}, {"time": 121621, "pitch": 64, "duration": 60, "velocity": 120}, {"time": 121681, "pitch": 65, "duration": 120, "velocity": 125}, {"time": 121801, "pitch": 64, "duration": 60, "velocity": 125}, {"time": 121861, "pitch": 62, "duration": 60, "velocity": 120}, {"time": 121921, "pitch": 64, "duration": 120, "velocity": 125}, {"time": 122041, "pitch": 62, "duration": 60, "velocity": 125}, {"time": 122101, "pitch": 60, "duration": 60, "velocity": 120}, {"time": 122161, "pitch": 62, "duration": 120, "velocity": 120}, {"time": 122281, "pitch": 60, "duration": 120, "velocity": 120}, {"time": 122401, "pitch": 59, "duration": 120, "velocity": 125}, {"time": 122521, "pitch": 60, "duration": 120, "velocity": 120}, {"time": 122641, "pitch": 61, "duration": 120, "velocity": 120}, {"time": 122761, "pitch": 62, "duration": 120, "velocity": 120}, {"time": 122881, "pitch": 55, "duration": 120, "velocity": 125}, {"time": 123001, "pitch": 57, "duration": 120, "velocity": 120}, {"time": 123121, "pitch": 58, "duration": 120, "velocity": 120}, {"time": 123241, "pitch": 59, "duration": 120, "velocity": 120}, {"time": 123481, "pitch": 62, "duration": 120, "velocity": 125}, {"time": 123601, "pitch": 65, "duration": 120, "velocity": 115}, {"time": 123721, "pitch": 62, "duration": 240, "velocity": 125}, {"time": 123961, "pitch": 65, "duration": 120, "velocity": 115}, {"time": 124081, "pitch": 63, "duration": 240, "velocity": 125}, {"time": 124321, "pitch": 66, "duration": 120, "velocity": 115}, {"time": 124441, "pitch": 63, "duration": 120, "velocity": 120}, {"time": 124561, "pitch": 66, "duration": 120, "velocity": 115}, {"time": 124681, "pitch": 63, "duration": 120, "velocity": 110}, {"time": 124801, "pitch": 64, "duration": 120, "velocity": 115}, {"time": 124921, "pitch": 67, "duration": 840, "velocity": 125}, {"time": 128761, "pitch": 60, "duration": 120, "velocity": 125}, {"time": 128881, "pitch": 64, "duration": 120, "velocity": 120}, {"time": 129001, "pitch": 67, "duration": 120, "velocity": 120}, {"time": 129121, "pitch": 70, "duration": 120, "velocity": 125}, {"time": 129241, "pitch": 70, "duration": 120, "velocity": 120}, {"time": 129361, "pitch": 69, "duration": 120, "velocity": 125}, {"time": 129481, "pitch": 67, "duration": 120, "velocity": 120}, {"time": 129721, "pitch": 60, "duration": 120, "velocity": 125}, {"time": 129961, "pitch": 70, "duration": 120, "velocity": 120}, {"time": 130081, "pitch": 69, "duration": 120, "velocity": 125}, {"time": 130201, "pitch": 64, "duration": 120, "velocity": 120}, {"time": 130441, "pitch": 65, "duration": 120, "velocity": 125}, {"time": 130561, "pitch": 62, "duration": 120, "velocity": 115}, {"time": 130801, "pitch": 64, "duration": 120, "velocity": 125}, {"time": 130921, "pitch": 60, "duration": 120, "velocity": 115}, {"time": 131161, "pitch": 62, "duration": 120, "velocity": 125}, {"time": 131281, "pitch": 59, "duration": 120, "velocity": 115}, {"time": 131521, "pitch": 60, "duration": 120, "velocity": 120}, {"time": 131641, "pitch": 59, "duration": 60, "velocity": 100}, {"time": 131701, "pitch": 57, "duration": 60, "velocity": 95}, {"time": 131761, "pitch": 55, "duration": 120, "velocity": 120}, {"time": 131881, "pitch": 57, "duration": 60, "velocity": 100}, {"time": 131941, "pitch": 59, "duration": 60, "velocity": 95}, {"time": 132001, "pitch": 60, "duration": 80, "velocity": 105}, {"time": 132081, "pitch": 62, "duration": 80, "velocity": 100}, {"time": 132161, "pitch": 64, "duration": 80, "velocity": 105}, {"time": 132241, "pitch": 65, "duration": 80, "velocity": 110}, {"time": 132321, "pitch": 67, "duration": 80, "velocity": 115}, {"time": 132401, "pitch": 69, "duration": 80, "velocity": 110}, {"time": 132481, "pitch": 69, "duration": 1920, "velocity": 115}, {"time": 155520, "pitch": 48, "duration": 20, "velocity": 100}, {"time": 155880, "pitch": 48, "duration": 20, "velocity": 100}, {"time": 156240, "pitch": 48, "duration": 20, "velocity": 100}, {"time": 156600, "pitch": 48, "duration": 20, "velocity": 100}, {"time": 156960, "pitch": 48, "duration": 20, "velocity": 100}, {"time": 157440, "pitch": 48, "duration": 20, "velocity": 100}, {"time": 157800, "pitch": 48, "duration": 20, "velocity": 100}, {"time": 158160, "pitch": 48, "duration": 20, "velocity": 100}, {"time": 158520, "pitch": 48, "duration": 20, "velocity": 100}, {"time": 158880, "pitch": 48, "duration": 20, "velocity": 100}, {"time": 159360, "pitch": 48, "duration": 20, "velocity": 100}, {"time": 159720, "pitch": 48, "duration": 20, "velocity": 100}, {"time": 160080, "pitch": 48, "duration": 20, "velocity": 100}, {"time": 160440, "pitch": 48, "duration": 20, "velocity": 100}, {"time": 160800, "pitch": 48, "duration": 20, "velocity": 100}, {"time": 161280, "pitch": 48, "duration": 20, "velocity": 100}, {"time": 161640, "pitch": 48, "duration": 20, "velocity": 100}, {"time": 162000, "pitch": 48, "duration": 20, "velocity": 100}, {"time": 162360, "pitch": 48, "duration": 20, "velocity": 100}, {"time": 162720, "pitch": 48, "duration": 20, "velocity": 100}, {"time": 166799, "pitch": 69, "duration": 240, "velocity": 125}, {"time": 167039, "pitch": 72, "duration": 1920, "velocity": 120}, {"time": 169919, "pitch": 69, "duration": 120, "velocity": 125}, {"time": 170159, "pitch": 67, "duration": 120, "velocity": 120}, {"time": 170399, "pitch": 62, "duration": 240, "velocity": 120}, {"time": 170639, "pitch": 60, "duration": 120, "velocity": 115}, {"time": 170759, "pitch": 57, "duration": 120, "velocity": 100}, {"time": 170879, "pitch": 60, "duration": 120, "velocity": 100}, {"time": 170999, "pitch": 60, "duration": 120, "velocity": 105}, {"time": 171119, "pitch": 64, "duration": 720, "velocity": 120}, {"time": 172799, "pitch": 60, "duration": 120, "velocity": 120}, {"time": 173039, "pitch": 64, "duration": 600, "velocity": 120}, {"time": 173639, "pitch": 64, "duration": 120, "velocity": 120}, {"time": 173759, "pitch": 67, "duration": 120, "velocity": 125}, {"time": 173999, "pitch": 64, "duration": 120, "velocity": 120}, {"time": 174239, "pitch": 64, "duration": 120, "velocity": 120}, {"time": 174359, "pitch": 62, "duration": 120, "velocity": 110}, {"time": 174479, "pitch": 60, "duration": 120, "velocity": 105}, {"time": 174599, "pitch": 57, "duration": 120, "velocity": 110}, {"time": 174719, "pitch": 55, "duration": 120, "velocity": 110}, {"time": 174839, "pitch": 60, "duration": 840, "velocity": 120}, {"time": 177839, "pitch": 69, "duration": 120, "velocity": 125}, {"time": 178079, "pitch": 67, "duration": 60, "velocity": 120}, {"time": 178199, "pitch": 69, "duration": 60, "velocity": 115}, {"time": 178319, "pitch": 65, "duration": 60, "velocity": 120}, {"time": 178439, "pitch": 67, "duration": 60, "velocity": 115}, {"time": 178559, "pitch": 64, "duration": 240, "velocity": 125}, {"time": 178799, "pitch": 60, "duration": 60, "velocity": 120}, {"time": 179039, "pitch": 60, "duration": 240, "velocity": 120}, {"time": 179279, "pitch": 57, "duration": 119, "velocity": 120}, {"time": 179398, "pitch": 60, "duration": 121, "velocity": 120}, {"time": 180719, "pitch": 64, "duration": 480, "velocity": 120}, {"time": 181439, "pitch": 64, "duration": 480, "velocity": 120}, {"time": 181919, "pitch": 60, "duration": 214, "velocity": 125}, {"time": 182133, "pitch": 57, "duration": 268, "velocity": 120}, {"time": 182401, "pitch": 60, "duration": 2824, "velocity": 125}, {"time": 1440, "pitch": 65, "duration": 480, "velocity": 110}, {"time": 154560, "pitch": 65, "duration": 960, "velocity": 110}, {"time": 74877, "pitch": 36, "duration": 10, "velocity": 106}, {"time": 74877, "pitch": 42, "duration": 10, "velocity": 92}, {"time": 74997, "pitch": 38, "duration": 10, "velocity": 78}, {"time": 75117, "pitch": 36, "duration": 10, "velocity": 50}, {"time": 75117, "pitch": 42, "duration": 10, "velocity": 78}, {"time": 75237, "pitch": 36, "duration": 10, "velocity": 50}, {"time": 75357, "pitch": 38, "duration": 10, "velocity": 106}, {"time": 75357, "pitch": 42, "duration": 10, "velocity": 92}, {"time": 75600, "pitch": 42, "duration": 10, "velocity": 78}, {"time": 75722, "pitch": 36, "duration": 10, "velocity": 92}, {"time": 75843, "pitch": 36, "duration": 10, "velocity": 106}, {"time": 75843, "pitch": 42, "duration": 10, "velocity": 92}, {"time": 75963, "pitch": 38, "duration": 10, "velocity": 78}, {"time": 76083, "pitch": 36, "duration": 10, "velocity": 106}, {"time": 76083, "pitch": 46, "duration": 10, "velocity": 120}, {"time": 76323, "pitch": 38, "duration": 10, "velocity": 106}, {"time": 76323, "pitch": 42, "duration": 10, "velocity": 92}, {"time": 76563, "pitch": 42, "duration": 10, "velocity": 78}, {"time": 76683, "pitch": 36, "duration": 10, "velocity": 92}, {"time": 76803, "pitch": 36, "duration": 10, "velocity": 106}, {"time": 76803, "pitch": 42, "duration": 10, "velocity": 92}, {"time": 76923, "pitch": 38, "duration": 10, "velocity": 78}, {"time": 77043, "pitch": 36, "duration": 10, "velocity": 50}, {"time": 77043, "pitch": 42, "duration": 10, "velocity": 78}, {"time": 77163, "pitch": 36, "duration": 10, "velocity": 50}, {"time": 77283, "pitch": 38, "duration": 10, "velocity": 106}, {"time": 77283, "pitch": 42, "duration": 10, "velocity": 92}, {"time": 77523, "pitch": 42, "duration": 10, "velocity": 78}, {"time": 77643, "pitch": 36, "duration": 10, "velocity": 92}, {"time": 77763, "pitch": 36, "duration": 10, "velocity": 106}, {"time": 77763, "pitch": 42, "duration": 10, "velocity": 92}, {"time": 77883, "pitch": 38, "duration": 10, "velocity": 78}, {"time": 78003, "pitch": 36, "duration": 10, "velocity": 106}, {"time": 78003, "pitch": 46, "duration": 10, "velocity": 120}, {"time": 78243, "pitch": 38, "duration": 10, "velocity": 106}, {"time": 78243, "pitch": 42, "duration": 10, "velocity": 92}, {"time": 78483, "pitch": 42, "duration": 10, "velocity": 78}, {"time": 78603, "pitch": 36, "duration": 10, "velocity": 92}, {"time": 78723, "pitch": 36, "duration": 10, "velocity": 106}, {"time": 78723, "pitch": 42, "duration": 10, "velocity": 92}, {"time": 78843, "pitch": 38, "duration": 10, "velocity": 78}, {"time": 78963, "pitch": 36, "duration": 10, "velocity": 50}, {"time": 78963, "pitch": 42, "duration": 10, "velocity": 78}, {"time": 79083, "pitch": 36, "duration": 10, "velocity": 50}, {"time": 79203, "pitch": 38, "duration": 10, "velocity": 106}, {"time": 79203, "pitch": 42, "duration": 10, "velocity": 92}, {"time": 79443, "pitch": 42, "duration": 10, "velocity": 78}, {"time": 79563, "pitch": 36, "duration": 10, "velocity": 92}, {"time": 79683, "pitch": 36, "duration": 10, "velocity": 106}, {"time": 79683, "pitch": 42, "duration": 10, "velocity": 92}, {"time": 79803, "pitch": 38, "duration": 10, "velocity": 78}, {"time": 79923, "pitch": 36, "duration": 10, "velocity": 106}, {"time": 79923, "pitch": 46, "duration": 10, "velocity": 120}, {"time": 80163, "pitch": 38, "duration": 10, "velocity": 106}, {"time": 80163, "pitch": 42, "duration": 10, "velocity": 92}, {"time": 80403, "pitch": 42, "duration": 10, "velocity": 78}, {"time": 80523, "pitch": 36, "duration": 10, "velocity": 92}, {"time": 80643, "pitch": 36, "duration": 10, "velocity": 106}, {"time": 80643, "pitch": 42, "duration": 10, "velocity": 92}, {"time": 80763, "pitch": 38, "duration": 10, "velocity": 78}, {"time": 80883, "pitch": 36, "duration": 10, "velocity": 50}, {"time": 80883, "pitch": 42, "duration": 10, "velocity": 78}, {"time": 81003, "pitch": 36, "duration": 10, "velocity": 50}, {"time": 81123, "pitch": 38, "duration": 10, "velocity": 106}, {"time": 81123, "pitch": 42, "duration": 10, "velocity": 92}, {"time": 81363, "pitch": 42, "duration": 10, "velocity": 78}, {"time": 81483, "pitch": 36, "duration": 10, "velocity": 92}, {"time": 81603, "pitch": 36, "duration": 10, "velocity": 106}, {"time": 81603, "pitch": 42, "duration": 10, "velocity": 92}, {"time": 81723, "pitch": 38, "duration": 10, "velocity": 78}, {"time": 81843, "pitch": 36, "duration": 10, "velocity": 106}, {"time": 81843, "pitch": 46, "duration": 10, "velocity": 120}, {"time": 82083, "pitch": 38, "duration": 10, "velocity": 106}, {"time": 82083, "pitch": 42, "duration": 10, "velocity": 92}, {"time": 82323, "pitch": 42, "duration": 10, "velocity": 78}, {"time": 82443, "pitch": 36, "duration": 10, "velocity": 92}, {"time": 82563, "pitch": 36, "duration": 10, "velocity": 106}, {"time": 82563, "pitch": 42, "duration": 10, "velocity": 92}, {"time": 82683, "pitch": 38, "duration": 10, "velocity": 78}, {"time": 82803, "pitch": 36, "duration": 10, "velocity": 50}, {"time": 82803, "pitch": 42, "duration": 10, "velocity": 78}, {"time": 82923, "pitch": 36, "duration": 10, "velocity": 50}, {"time": 83043, "pitch": 38, "duration": 10, "velocity": 106}, {"time": 83043, "pitch": 42, "duration": 10, "velocity": 92}, {"time": 83283, "pitch": 42, "duration": 10, "velocity": 78}, {"time": 83403, "pitch": 36, "duration": 10, "velocity": 92}, {"time": 83523, "pitch": 36, "duration": 10, "velocity": 106}, {"time": 83523, "pitch": 42, "duration": 10, "velocity": 92}, {"time": 83643, "pitch": 38, "duration": 10, "velocity": 78}, {"time": 83763, "pitch": 36, "duration": 10, "velocity": 106}, {"time": 83763, "pitch": 46, "duration": 10, "velocity": 120}, {"time": 84003, "pitch": 38, "duration": 10, "velocity": 106}, {"time": 84003, "pitch": 42, "duration": 10, "velocity": 92}, {"time": 84243, "pitch": 42, "duration": 10, "velocity": 78}, {"time": 84363, "pitch": 36, "duration": 10, "velocity": 92}, {"time": 84483, "pitch": 36, "duration": 10, "velocity": 106}, {"time": 84483, "pitch": 42, "duration": 10, "velocity": 92}, {"time": 84603, "pitch": 38, "duration": 10, "velocity": 78}, {"time": 84723, "pitch": 36, "duration": 10, "velocity": 50}, {"time": 84723, "pitch": 42, "duration": 10, "velocity": 78}, {"time": 84843, "pitch": 36, "duration": 10, "velocity": 50}, {"time": 84963, "pitch": 38, "duration": 10, "velocity": 106}, {"time": 84963, "pitch": 42, "duration": 10, "velocity": 92}, {"time": 85203, "pitch": 42, "duration": 10, "velocity": 78}, {"time": 85323, "pitch": 36, "duration": 10, "velocity": 92}, {"time": 85443, "pitch": 36, "duration": 10, "velocity": 106}, {"time": 85443, "pitch": 42, "duration": 10, "velocity": 92}, {"time": 85563, "pitch": 38, "duration": 10, "velocity": 78}, {"time": 85683, "pitch": 36, "duration": 10, "velocity": 106}, {"time": 85683, "pitch": 46, "duration": 10, "velocity": 120}, {"time": 85923, "pitch": 38, "duration": 10, "velocity": 106}, {"time": 85923, "pitch": 42, "duration": 10, "velocity": 92}, {"time": 86163, "pitch": 42, "duration": 10, "velocity": 78}, {"time": 86283, "pitch": 36, "duration": 10, "velocity": 92}, {"time": 86403, "pitch": 36, "duration": 10, "velocity": 106}, {"time": 86403, "pitch": 42, "duration": 10, "velocity": 92}, {"time": 86523, "pitch": 38, "duration": 10, "velocity": 78}, {"time": 86643, "pitch": 36, "duration": 10, "velocity": 50}, {"time": 86643, "pitch": 42, "duration": 10, "velocity": 78}, {"time": 86763, "pitch": 36, "duration": 10, "velocity": 50}, {"time": 86883, "pitch": 38, "duration": 10, "velocity": 106}, {"time": 86883, "pitch": 42, "duration": 10, "velocity": 92}, {"time": 87123, "pitch": 42, "duration": 10, "velocity": 78}, {"time": 87243, "pitch": 36, "duration": 10, "velocity": 92}, {"time": 87363, "pitch": 36, "duration": 10, "velocity": 106}, {"time": 87363, "pitch": 42, "duration": 10, "velocity": 92}, {"time": 87483, "pitch": 38, "duration": 10, "velocity": 78}, {"time": 87603, "pitch": 36, "duration": 10, "velocity": 106}, {"time": 87603, "pitch": 46, "duration": 10, "velocity": 120}, {"time": 87843, "pitch": 38, "duration": 10, "velocity": 106}, {"time": 87843, "pitch": 42, "duration": 10, "velocity": 92}, {"time": 88083, "pitch": 42, "duration": 10, "velocity": 78}, {"time": 88203, "pitch": 36, "duration": 10, "velocity": 92}, {"time": 88323, "pitch": 36, "duration": 10, "velocity": 106}, {"time": 88323, "pitch": 42, "duration": 10, "velocity": 92}, {"time": 88443, "pitch": 38, "duration": 10, "velocity": 78}, {"time": 88563, "pitch": 36, "duration": 10, "velocity": 50}, {"time": 88563, "pitch": 42, "duration": 10, "velocity": 78}, {"time": 88683, "pitch": 36, "duration": 10, "velocity": 50}, {"time": 88803, "pitch": 38, "duration": 10, "velocity": 106}, {"time": 88803, "pitch": 42, "duration": 10, "velocity": 92}, {"time": 89043, "pitch": 42, "duration": 10, "velocity": 78}, {"time": 89163, "pitch": 36, "duration": 10, "velocity": 92}, {"time": 89283, "pitch": 36, "duration": 10, "velocity": 106}, {"time": 89283, "pitch": 42, "duration": 10, "velocity": 92}, {"time": 89403, "pitch": 38, "duration": 10, "velocity": 78}, {"time": 89523, "pitch": 36, "duration": 10, "velocity": 106}, {"time": 89523, "pitch": 46, "duration": 10, "velocity": 120}, {"time": 89763, "pitch": 38, "duration": 10, "velocity": 106}, {"time": 89763, "pitch": 42, "duration": 10, "velocity": 92}, {"time": 90003, "pitch": 42, "duration": 10, "velocity": 78}, {"time": 90123, "pitch": 36, "duration": 10, "velocity": 92}, {"time": 90243, "pitch": 36, "duration": 10, "velocity": 106}, {"time": 90243, "pitch": 42, "duration": 10, "velocity": 92}, {"time": 90363, "pitch": 38, "duration": 10, "velocity": 78}, {"time": 90483, "pitch": 36, "duration": 10, "velocity": 50}, {"time": 90483, "pitch": 42, "duration": 10, "velocity": 78}, {"time": 90603, "pitch": 36, "duration": 10, "velocity": 50}, {"time": 90723, "pitch": 38, "duration": 10, "velocity": 106}, {"time": 90723, "pitch": 42, "duration": 10, "velocity": 92}, {"time": 90963, "pitch": 42, "duration": 10, "velocity": 78}, {"time": 91083, "pitch": 36, "duration": 10, "velocity": 92}, {"time": 91203, "pitch": 36, "duration": 10, "velocity": 106}, {"time": 91203, "pitch": 42, "duration": 10, "velocity": 92}, {"time": 91323, "pitch": 38, "duration": 10, "velocity": 78}, {"time": 91443, "pitch": 36, "duration": 10, "velocity": 106}, {"time": 91443, "pitch": 46, "duration": 10, "velocity": 120}, {"time": 91683, "pitch": 38, "duration": 10, "velocity": 106}, {"time": 91683, "pitch": 42, "duration": 10, "velocity": 92}, {"time": 91923, "pitch": 42, "duration": 10, "velocity": 78}, {"time": 92043, "pitch": 36, "duration": 10, "velocity": 92}, {"time": 92163, "pitch": 36, "duration": 10, "velocity": 106}, {"time": 92163, "pitch": 42, "duration": 10, "velocity": 92}, {"time": 92283, "pitch": 38, "duration": 10, "velocity": 78}, {"time": 92403, "pitch": 36, "duration": 10, "velocity": 50}, {"time": 92403, "pitch": 42, "duration": 10, "velocity": 78}, {"time": 92522, "pitch": 36, "duration": 10, "velocity": 50}, {"time": 92642, "pitch": 38, "duration": 10, "velocity": 106}, {"time": 92642, "pitch": 42, "duration": 10, "velocity": 92}, {"time": 92882, "pitch": 42, "duration": 10, "velocity": 78}, {"time": 93002, "pitch": 36, "duration": 10, "velocity": 92}, {"time": 93122, "pitch": 36, "duration": 10, "velocity": 106}, {"time": 93122, "pitch": 42, "duration": 10, "velocity": 92}, {"time": 93242, "pitch": 38, "duration": 10, "velocity": 78}, {"time": 93362, "pitch": 36, "duration": 10, "velocity": 106}, {"time": 93362, "pitch": 46, "duration": 10, "velocity": 120}, {"time": 93602, "pitch": 38, "duration": 10, "velocity": 106}, {"time": 93602, "pitch": 42, "duration": 10, "velocity": 92}, {"time": 93842, "pitch": 42, "duration": 10, "velocity": 78}, {"time": 93962, "pitch": 36, "duration": 10, "velocity": 92}, {"time": 94082, "pitch": 36, "duration": 10, "velocity": 106}, {"time": 94082, "pitch": 42, "duration": 10, "velocity": 92}, {"time": 94202, "pitch": 38, "duration": 10, "velocity": 78}, {"time": 94322, "pitch": 36, "duration": 10, "velocity": 50}, {"time": 94322, "pitch": 42, "duration": 10, "velocity": 78}, {"time": 94442, "pitch": 36, "duration": 10, "velocity": 50}, {"time": 94562, "pitch": 38, "duration": 10, "velocity": 106}, {"time": 94562, "pitch": 42, "duration": 10, "velocity": 92}, {"time": 94802, "pitch": 42, "duration": 10, "velocity": 78}, {"time": 94922, "pitch": 36, "duration": 10, "velocity": 92}, {"time": 95042, "pitch": 36, "duration": 10, "velocity": 106}, {"time": 95042, "pitch": 42, "duration": 10, "velocity": 92}, {"time": 95162, "pitch": 38, "duration": 10, "velocity": 78}, {"time": 95282, "pitch": 36, "duration": 10, "velocity": 106}, {"time": 95282, "pitch": 46, "duration": 10, "velocity": 120}, {"time": 95522, "pitch": 38, "duration": 10, "velocity": 106}, {"time": 95522, "pitch": 42, "duration": 10, "velocity": 92}, {"time": 95762, "pitch": 42, "duration": 10, "velocity": 78}, {"time": 95882, "pitch": 36, "duration": 10, "velocity": 92}, {"time": 96002, "pitch": 36, "duration": 10, "velocity": 106}, {"time": 96002, "pitch": 42, "duration": 10, "velocity": 92}, {"time": 96122, "pitch": 38, "duration": 10, "velocity": 78}, {"time": 96242, "pitch": 36, "duration": 10, "velocity": 50}, {"time": 96242, "pitch": 42, "duration": 10, "velocity": 78}, {"time": 96362, "pitch": 36, "duration": 10, "velocity": 50}, {"time": 96482, "pitch": 38, "duration": 10, "velocity": 106}, {"time": 96482, "pitch": 42, "duration": 10, "velocity": 92}, {"time": 96722, "pitch": 42, "duration": 10, "velocity": 78}, {"time": 96842, "pitch": 36, "duration": 10, "velocity": 92}, {"time": 96962, "pitch": 36, "duration": 10, "velocity": 106}, {"time": 96962, "pitch": 42, "duration": 10, "velocity": 92}, {"time": 97082, "pitch": 38, "duration": 10, "velocity": 78}, {"time": 97202, "pitch": 36, "duration": 10, "velocity": 106}, {"time": 97202, "pitch": 46, "duration": 10, "velocity": 120}, {"time": 97442, "pitch": 38, "duration": 10, "velocity": 106}, {"time": 97442, "pitch": 42, "duration": 10, "velocity": 92}, {"time": 97682, "pitch": 42, "duration": 10, "velocity": 78}, {"time": 97802, "pitch": 36, "duration": 10, "velocity": 92}, {"time": 97922, "pitch": 36, "duration": 10, "velocity": 106}, {"time": 97922, "pitch": 42, "duration": 10, "velocity": 92}, {"time": 98042, "pitch": 38, "duration": 10, "velocity": 78}, {"time": 98162, "pitch": 36, "duration": 10, "velocity": 50}, {"time": 98162, "pitch": 42, "duration": 10, "velocity": 78}, {"time": 98282, "pitch": 36, "duration": 10, "velocity": 50}, {"time": 98402, "pitch": 38, "duration": 10, "velocity": 106}, {"time": 98402, "pitch": 42, "duration": 10, "velocity": 92}, {"time": 98642, "pitch": 42, "duration": 10, "velocity": 78}, {"time": 98762, "pitch": 36, "duration": 10, "velocity": 92}, {"time": 98882, "pitch": 36, "duration": 10, "velocity": 106}, {"time": 98882, "pitch": 42, "duration": 10, "velocity": 92}, {"time": 99002, "pitch": 38, "duration": 10, "velocity": 78}, {"time": 99122, "pitch": 36, "duration": 10, "velocity": 106}, {"time": 99122, "pitch": 46, "duration": 10, "velocity": 120}, {"time": 99362, "pitch": 38, "duration": 10, "velocity": 106}, {"time": 99362, "pitch": 42, "duration": 10, "velocity": 92}, {"time": 99602, "pitch": 42, "duration": 10, "velocity": 78}, {"time": 99722, "pitch": 36, "duration": 10, "velocity": 92}, {"time": 99842, "pitch": 36, "duration": 10, "velocity": 106}, {"time": 99842, "pitch": 42, "duration": 10, "velocity": 92}, {"time": 99962, "pitch": 38, "duration": 10, "velocity": 78}, {"time": 100082, "pitch": 36, "duration": 10, "velocity": 50}, {"time": 100082, "pitch": 42, "duration": 10, "velocity": 78}, {"time": 100202, "pitch": 36, "duration": 10, "velocity": 50}, {"time": 100322, "pitch": 38, "duration": 10, "velocity": 106}, {"time": 100322, "pitch": 42, "duration": 10, "velocity": 92}, {"time": 100562, "pitch": 42, "duration": 10, "velocity": 78}, {"time": 100682, "pitch": 36, "duration": 10, "velocity": 92}, {"time": 100802, "pitch": 36, "duration": 10, "velocity": 106}, {"time": 100802, "pitch": 42, "duration": 10, "velocity": 92}, {"time": 100922, "pitch": 38, "duration": 10, "velocity": 78}, {"time": 101042, "pitch": 36, "duration": 10, "velocity": 106}, {"time": 101042, "pitch": 46, "duration": 10, "velocity": 120}, {"time": 101282, "pitch": 38, "duration": 10, "velocity": 106}, {"time": 101282, "pitch": 42, "duration": 10, "velocity": 92}, {"time": 101522, "pitch": 42, "duration": 10, "velocity": 78}, {"time": 101642, "pitch": 36, "duration": 10, "velocity": 92}, {"time": 101762, "pitch": 36, "duration": 10, "velocity": 106}, {"time": 101762, "pitch": 42, "duration": 10, "velocity": 92}, {"time": 101882, "pitch": 38, "duration": 10, "velocity": 78}, {"time": 102002, "pitch": 36, "duration": 10, "velocity": 50}, {"time": 102002, "pitch": 42, "duration": 10, "velocity": 78}, {"time": 102122, "pitch": 36, "duration": 10, "velocity": 50}, {"time": 102242, "pitch": 38, "duration": 10, "velocity": 106}, {"time": 102242, "pitch": 42, "duration": 10, "velocity": 92}, {"time": 102482, "pitch": 42, "duration": 10, "velocity": 78}, {"time": 102602, "pitch": 36, "duration": 10, "velocity": 92}, {"time": 102722, "pitch": 36, "duration": 10, "velocity": 106}, {"time": 102722, "pitch": 42, "duration": 10, "velocity": 92}, {"time": 102842, "pitch": 38, "duration": 10, "velocity": 78}, {"time": 102962, "pitch": 36, "duration": 10, "velocity": 106}, {"time": 102962, "pitch": 46, "duration": 10, "velocity": 120}, {"time": 103202, "pitch": 38, "duration": 10, "velocity": 106}, {"time": 103202, "pitch": 42, "duration": 10, "velocity": 92}, {"time": 103442, "pitch": 42, "duration": 10, "velocity": 78}, {"time": 103562, "pitch": 36, "duration": 10, "velocity": 92}, {"time": 103682, "pitch": 36, "duration": 10, "velocity": 106}, {"time": 103682, "pitch": 42, "duration": 10, "velocity": 92}, {"time": 103802, "pitch": 38, "duration": 10, "velocity": 78}, {"time": 103922, "pitch": 36, "duration": 10, "velocity": 50}, {"time": 103922, "pitch": 42, "duration": 10, "velocity": 78}, {"time": 104042, "pitch": 36, "duration": 10, "velocity": 50}, {"time": 104162, "pitch": 38, "duration": 10, "velocity": 106}, {"time": 104162, "pitch": 42, "duration": 10, "velocity": 92}, {"time": 104402, "pitch": 42, "duration": 10, "velocity": 78}, {"time": 104522, "pitch": 36, "duration": 10, "velocity": 92}, {"time": 104642, "pitch": 36, "duration": 10, "velocity": 106}, {"time": 104642, "pitch": 42, "duration": 10, "velocity": 92}, {"time": 105602, "pitch": 36, "duration": 10, "velocity": 106}, {"time": 105602, "pitch": 42, "duration": 10, "velocity": 92}, {"time": 105722, "pitch": 38, "duration": 10, "velocity": 78}, {"time": 105842, "pitch": 36, "duration": 10, "velocity": 50}, {"time": 105842, "pitch": 42, "duration": 10, "velocity": 78}, {"time": 105962, "pitch": 36, "duration": 10, "velocity": 50}, {"time": 106082, "pitch": 38, "duration": 10, "velocity": 106}, {"time": 106082, "pitch": 42, "duration": 10, "velocity": 92}, {"time": 106322, "pitch": 42, "duration": 10, "velocity": 78}, {"time": 106442, "pitch": 36, "duration": 10, "velocity": 92}, {"time": 106562, "pitch": 36, "duration": 10, "velocity": 106}, {"time": 106562, "pitch": 42, "duration": 10, "velocity": 92}, {"time": 106682, "pitch": 38, "duration": 10, "velocity": 78}, {"time": 106802, "pitch": 36, "duration": 10, "velocity": 106}, {"time": 106802, "pitch": 46, "duration": 10, "velocity": 120}, {"time": 107042, "pitch": 38, "duration": 10, "velocity": 106}, {"time": 107042, "pitch": 42, "duration": 10, "velocity": 92}, {"time": 107282, "pitch": 42, "duration": 10, "velocity": 78}, {"time": 107402, "pitch": 36, "duration": 10, "velocity": 92}, {"time": 107522, "pitch": 36, "duration": 10, "velocity": 106}, {"time": 107522, "pitch": 42, "duration": 10, "velocity": 92}, {"time": 107642, "pitch": 38, "duration": 10, "velocity": 78}, {"time": 107762, "pitch": 36, "duration": 10, "velocity": 50}, {"time": 107762, "pitch": 42, "duration": 10, "velocity": 78}, {"time": 107882, "pitch": 36, "duration": 10, "velocity": 50}, {"time": 108002, "pitch": 38, "duration": 10, "velocity": 106}, {"time": 108002, "pitch": 42, "duration": 10, "velocity": 92}, {"time": 108242, "pitch": 42, "duration": 10, "velocity": 78}, {"time": 108362, "pitch": 36, "duration": 10, "velocity": 92}, {"time": 108482, "pitch": 36, "duration": 10, "velocity": 106}, {"time": 108482, "pitch": 42, "duration": 10, "velocity": 92}, {"time": 108602, "pitch": 38, "duration": 10, "velocity": 78}, {"time": 108722, "pitch": 36, "duration": 10, "velocity": 106}, {"time": 108722, "pitch": 46, "duration": 10, "velocity": 120}, {"time": 108962, "pitch": 38, "duration": 10, "velocity": 106}, {"time": 108962, "pitch": 42, "duration": 10, "velocity": 92}, {"time": 109202, "pitch": 42, "duration": 10, "velocity": 78}, {"time": 109322, "pitch": 36, "duration": 10, "velocity": 92}, {"time": 109442, "pitch": 36, "duration": 10, "velocity": 106}, {"time": 109442, "pitch": 42, "duration": 10, "velocity": 92}, {"time": 109562, "pitch": 38, "duration": 10, "velocity": 78}, {"time": 109682, "pitch": 36, "duration": 10, "velocity": 50}, {"time": 109682, "pitch": 42, "duration": 10, "velocity": 78}, {"time": 109802, "pitch": 36, "duration": 10, "velocity": 50}, {"time": 109922, "pitch": 38, "duration": 10, "velocity": 106}, {"time": 109922, "pitch": 42, "duration": 10, "velocity": 92}, {"time": 110162, "pitch": 42, "duration": 10, "velocity": 78}, {"time": 110282, "pitch": 36, "duration": 10, "velocity": 92}, {"time": 110402, "pitch": 36, "duration": 10, "velocity": 106}, {"time": 110402, "pitch": 42, "duration": 10, "velocity": 92}, {"time": 110522, "pitch": 38, "duration": 10, "velocity": 78}, {"time": 110642, "pitch": 36, "duration": 10, "velocity": 106}, {"time": 110642, "pitch": 46, "duration": 10, "velocity": 120}, {"time": 110882, "pitch": 38, "duration": 10, "velocity": 106}, {"time": 110882, "pitch": 42, "duration": 10, "velocity": 92}, {"time": 111122, "pitch": 42, "duration": 10, "velocity": 78}, {"time": 111242, "pitch": 36, "duration": 10, "velocity": 92}, {"time": 111362, "pitch": 36, "duration": 10, "velocity": 106}, {"time": 111362, "pitch": 42, "duration": 10, "velocity": 92}, {"time": 111482, "pitch": 38, "duration": 10, "velocity": 78}, {"time": 111602, "pitch": 36, "duration": 10, "velocity": 50}, {"time": 111602, "pitch": 42, "duration": 10, "velocity": 78}, {"time": 111722, "pitch": 36, "duration": 10, "velocity": 50}, {"time": 111842, "pitch": 38, "duration": 10, "velocity": 106}, {"time": 111842, "pitch": 42, "duration": 10, "velocity": 92}, {"time": 112082, "pitch": 42, "duration": 10, "velocity": 78}, {"time": 112202, "pitch": 36, "duration": 10, "velocity": 92}, {"time": 112322, "pitch": 36, "duration": 10, "velocity": 106}, {"time": 112322, "pitch": 42, "duration": 10, "velocity": 92}, {"time": 112442, "pitch": 38, "duration": 10, "velocity": 78}, {"time": 112562, "pitch": 36, "duration": 10, "velocity": 106}, {"time": 112562, "pitch": 46, "duration": 10, "velocity": 120}, {"time": 112802, "pitch": 38, "duration": 10, "velocity": 106}, {"time": 112802, "pitch": 42, "duration": 10, "velocity": 92}, {"time": 113042, "pitch": 42, "duration": 10, "velocity": 78}, {"time": 113162, "pitch": 36, "duration": 10, "velocity": 92}, {"time": 113282, "pitch": 36, "duration": 10, "velocity": 106}, {"time": 113282, "pitch": 42, "duration": 10, "velocity": 92}, {"time": 113402, "pitch": 38, "duration": 10, "velocity": 78}, {"time": 113522, "pitch": 36, "duration": 10, "velocity": 50}, {"time": 113522, "pitch": 42, "duration": 10, "velocity": 78}, {"time": 113642, "pitch": 36, "duration": 10, "velocity": 50}, {"time": 113762, "pitch": 38, "duration": 10, "velocity": 106}, {"time": 113762, "pitch": 42, "duration": 10, "velocity": 92}, {"time": 114002, "pitch": 42, "duration": 10, "velocity": 78}, {"time": 114122, "pitch": 36, "duration": 10, "velocity": 92}, {"time": 114242, "pitch": 36, "duration": 10, "velocity": 106}, {"time": 114242, "pitch": 42, "duration": 10, "velocity": 92}, {"time": 114362, "pitch": 38, "duration": 10, "velocity": 78}, {"time": 114482, "pitch": 36, "duration": 10, "velocity": 106}, {"time": 114482, "pitch": 46, "duration": 10, "velocity": 120}, {"time": 114722, "pitch": 38, "duration": 10, "velocity": 106}, {"time": 114722, "pitch": 42, "duration": 10, "velocity": 92}, {"time": 114962, "pitch": 42, "duration": 10, "velocity": 78}, {"time": 115082, "pitch": 36, "duration": 10, "velocity": 92}, {"time": 115202, "pitch": 36, "duration": 10, "velocity": 106}, {"time": 115202, "pitch": 42, "duration": 10, "velocity": 92}, {"time": 115322, "pitch": 38, "duration": 10, "velocity": 78}, {"time": 115442, "pitch": 36, "duration": 10, "velocity": 50}, {"time": 115442, "pitch": 42, "duration": 10, "velocity": 78}, {"time": 115562, "pitch": 36, "duration": 10, "velocity": 50}, {"time": 115682, "pitch": 38, "duration": 10, "velocity": 106}, {"time": 115682, "pitch": 42, "duration": 10, "velocity": 92}, {"time": 115922, "pitch": 42, "duration": 10, "velocity": 78}, {"time": 116042, "pitch": 36, "duration": 10, "velocity": 92}, {"time": 116162, "pitch": 36, "duration": 10, "velocity": 106}, {"time": 116162, "pitch": 42, "duration": 10, "velocity": 92}, {"time": 116282, "pitch": 38, "duration": 10, "velocity": 78}, {"time": 116402, "pitch": 36, "duration": 10, "velocity": 106}, {"time": 116402, "pitch": 46, "duration": 10, "velocity": 120}, {"time": 116641, "pitch": 38, "duration": 10, "velocity": 106}, {"time": 116641, "pitch": 42, "duration": 10, "velocity": 92}, {"time": 116881, "pitch": 42, "duration": 10, "velocity": 78}, {"time": 117001, "pitch": 36, "duration": 10, "velocity": 92}, {"time": 117121, "pitch": 36, "duration": 10, "velocity": 106}, {"time": 117121, "pitch": 42, "duration": 10, "velocity": 92}, {"time": 117241, "pitch": 38, "duration": 10, "velocity": 78}, {"time": 117361, "pitch": 36, "duration": 10, "velocity": 50}, {"time": 117361, "pitch": 42, "duration": 10, "velocity": 78}, {"time": 117481, "pitch": 36, "duration": 10, "velocity": 50}, {"time": 117601, "pitch": 38, "duration": 10, "velocity": 106}, {"time": 117601, "pitch": 42, "duration": 10, "velocity": 92}, {"time": 117841, "pitch": 42, "duration": 10, "velocity": 78}, {"time": 117961, "pitch": 36, "duration": 10, "velocity": 92}, {"time": 118081, "pitch": 36, "duration": 10, "velocity": 106}, {"time": 118081, "pitch": 42, "duration": 10, "velocity": 92}, {"time": 118201, "pitch": 38, "duration": 10, "velocity": 78}, {"time": 118321, "pitch": 36, "duration": 10, "velocity": 106}, {"time": 118321, "pitch": 46, "duration": 10, "velocity": 120}, {"time": 118561, "pitch": 38, "duration": 10, "velocity": 106}, {"time": 118561, "pitch": 42, "duration": 10, "velocity": 92}, {"time": 118801, "pitch": 42, "duration": 10, "velocity": 78}, {"time": 118921, "pitch": 36, "duration": 10, "velocity": 92}, {"time": 119041, "pitch": 36, "duration": 10, "velocity": 106}, {"time": 119041, "pitch": 42, "duration": 10, "velocity": 92}, {"time": 119161, "pitch": 38, "duration": 10, "velocity": 78}, {"time": 119281, "pitch": 36, "duration": 10, "velocity": 50}, {"time": 119281, "pitch": 42, "duration": 10, "velocity": 78}, {"time": 119401, "pitch": 36, "duration": 10, "velocity": 50}, {"time": 119521, "pitch": 38, "duration": 10, "velocity": 106}, {"time": 119521, "pitch": 42, "duration": 10, "velocity": 92}, {"time": 119761, "pitch": 42, "duration": 10, "velocity": 78}, {"time": 119881, "pitch": 36, "duration": 10, "velocity": 92}, {"time": 120001, "pitch": 36, "duration": 10, "velocity": 106}, {"time": 120001, "pitch": 42, "duration": 10, "velocity": 92}, {"time": 120121, "pitch": 38, "duration": 10, "velocity": 78}, {"time": 120241, "pitch": 36, "duration": 10, "velocity": 106}, {"time": 120241, "pitch": 46, "duration": 10, "velocity": 120}, {"time": 120481, "pitch": 38, "duration": 10, "velocity": 106}, {"time": 120481, "pitch": 42, "duration": 10, "velocity": 92}, {"time": 120721, "pitch": 42, "duration": 10, "velocity": 78}, {"time": 120841, "pitch": 36, "duration": 10, "velocity": 92}, {"time": 120961, "pitch": 36, "duration": 10, "velocity": 106}, {"time": 120961, "pitch": 42, "duration": 10, "velocity": 92}, {"time": 121081, "pitch": 38, "duration": 10, "velocity": 78}, {"time": 121201, "pitch": 36, "duration": 10, "velocity": 50}, {"time": 121201, "pitch": 42, "duration": 10, "velocity": 78}, {"time": 121321, "pitch": 36, "duration": 10, "velocity": 50}, {"time": 121441, "pitch": 38, "duration": 10, "velocity": 106}, {"time": 121441, "pitch": 42, "duration": 10, "velocity": 92}, {"time": 121681, "pitch": 42, "duration": 10, "velocity": 78}, {"time": 121801, "pitch": 36, "duration": 10, "velocity": 92}, {"time": 121921, "pitch": 36, "duration": 10, "velocity": 106}, {"time": 121921, "pitch": 42, "duration": 10, "velocity": 92}, {"time": 122041, "pitch": 38, "duration": 10, "velocity": 78}, {"time": 122161, "pitch": 36, "duration": 10, "velocity": 106}, {"time": 122161, "pitch": 46, "duration": 10, "velocity": 120}, {"time": 122401, "pitch": 38, "duration": 10, "velocity": 106}, {"time": 122401, "pitch": 42, "duration": 10, "velocity": 92}, {"time": 122641, "pitch": 42, "duration": 10, "velocity": 78}, {"time": 122761, "pitch": 36, "duration": 10, "velocity": 92}, {"time": 122881, "pitch": 36, "duration": 10, "velocity": 106}, {"time": 122881, "pitch": 42, "duration": 10, "velocity": 92}, {"time": 123001, "pitch": 38, "duration": 10, "velocity": 78}, {"time": 123121, "pitch": 36, "duration": 10, "velocity": 50}, {"time": 123121, "pitch": 42, "duration": 10, "velocity": 78}, {"time": 123241, "pitch": 36, "duration": 10, "velocity": 50}, {"time": 123361, "pitch": 38, "duration": 10, "velocity": 106}, {"time": 123361, "pitch": 42, "duration": 10, "velocity": 92}, {"time": 123601, "pitch": 42, "duration": 10, "velocity": 78}, {"time": 123721, "pitch": 36, "duration": 10, "velocity": 92}, {"time": 123841, "pitch": 36, "duration": 10, "velocity": 106}, {"time": 123841, "pitch": 42, "duration": 10, "velocity": 92}, {"time": 123961, "pitch": 38, "duration": 10, "velocity": 78}, {"time": 124081, "pitch": 36, "duration": 10, "velocity": 106}, {"time": 124081, "pitch": 46, "duration": 10, "velocity": 120}, {"time": 124321, "pitch": 38, "duration": 10, "velocity": 106}, {"time": 124321, "pitch": 42, "duration": 10, "velocity": 92}, {"time": 124561, "pitch": 42, "duration": 10, "velocity": 78}, {"time": 124681, "pitch": 36, "duration": 10, "velocity": 92}, {"time": 124801, "pitch": 36, "duration": 10, "velocity": 106}, {"time": 124801, "pitch": 42, "duration": 10, "velocity": 92}, {"time": 124921, "pitch": 38, "duration": 10, "velocity": 78}, {"time": 125041, "pitch": 36, "duration": 10, "velocity": 50}, {"time": 125041, "pitch": 42, "duration": 10, "velocity": 78}, {"time": 125161, "pitch": 36, "duration": 10, "velocity": 50}, {"time": 125281, "pitch": 38, "duration": 10, "velocity": 106}, {"time": 125281, "pitch": 42, "duration": 10, "velocity": 92}, {"time": 125521, "pitch": 42, "duration": 10, "velocity": 78}, {"time": 125641, "pitch": 36, "duration": 10, "velocity": 92}, {"time": 125761, "pitch": 36, "duration": 10, "velocity": 106}, {"time": 125761, "pitch": 42, "duration": 10, "velocity": 92}, {"time": 125881, "pitch": 38, "duration": 10, "velocity": 78}, {"time": 126001, "pitch": 36, "duration": 10, "velocity": 106}, {"time": 126001, "pitch": 46, "duration": 10, "velocity": 120}, {"time": 126241, "pitch": 38, "duration": 10, "velocity": 106}, {"time": 126241, "pitch": 42, "duration": 10, "velocity": 92}, {"time": 126481, "pitch": 42, "duration": 10, "velocity": 78}, {"time": 126601, "pitch": 36, "duration": 10, "velocity": 92}, {"time": 126721, "pitch": 36, "duration": 10, "velocity": 106}, {"time": 126721, "pitch": 42, "duration": 10, "velocity": 92}, {"time": 126841, "pitch": 38, "duration": 10, "velocity": 78}, {"time": 126961, "pitch": 36, "duration": 10, "velocity": 50}, {"time": 126961, "pitch": 42, "duration": 10, "velocity": 78}, {"time": 127081, "pitch": 36, "duration": 10, "velocity": 50}, {"time": 127201, "pitch": 38, "duration": 10, "velocity": 106}, {"time": 127201, "pitch": 42, "duration": 10, "velocity": 92}, {"time": 127441, "pitch": 42, "duration": 10, "velocity": 78}, {"time": 127561, "pitch": 36, "duration": 10, "velocity": 92}, {"time": 127681, "pitch": 36, "duration": 10, "velocity": 106}, {"time": 127681, "pitch": 42, "duration": 10, "velocity": 92}, {"time": 127801, "pitch": 38, "duration": 10, "velocity": 78}, {"time": 127921, "pitch": 36, "duration": 10, "velocity": 106}, {"time": 127921, "pitch": 46, "duration": 10, "velocity": 120}, {"time": 128161, "pitch": 38, "duration": 10, "velocity": 106}, {"time": 128161, "pitch": 42, "duration": 10, "velocity": 92}, {"time": 128401, "pitch": 42, "duration": 10, "velocity": 78}, {"time": 128521, "pitch": 36, "duration": 10, "velocity": 92}, {"time": 128641, "pitch": 36, "duration": 10, "velocity": 106}, {"time": 128641, "pitch": 42, "duration": 10, "velocity": 92}, {"time": 128761, "pitch": 38, "duration": 10, "velocity": 78}, {"time": 128881, "pitch": 36, "duration": 10, "velocity": 50}, {"time": 128881, "pitch": 42, "duration": 10, "velocity": 78}, {"time": 129001, "pitch": 36, "duration": 10, "velocity": 50}, {"time": 129121, "pitch": 38, "duration": 10, "velocity": 106}, {"time": 129121, "pitch": 42, "duration": 10, "velocity": 92}, {"time": 129361, "pitch": 42, "duration": 10, "velocity": 78}, {"time": 129481, "pitch": 36, "duration": 10, "velocity": 92}, {"time": 129601, "pitch": 36, "duration": 10, "velocity": 106}, {"time": 129601, "pitch": 42, "duration": 10, "velocity": 92}, {"time": 129721, "pitch": 38, "duration": 10, "velocity": 78}, {"time": 129841, "pitch": 36, "duration": 10, "velocity": 106}, {"time": 129841, "pitch": 46, "duration": 10, "velocity": 120}, {"time": 130081, "pitch": 38, "duration": 10, "velocity": 106}, {"time": 130081, "pitch": 42, "duration": 10, "velocity": 92}, {"time": 130321, "pitch": 42, "duration": 10, "velocity": 78}, {"time": 130441, "pitch": 36, "duration": 10, "velocity": 92}, {"time": 130561, "pitch": 36, "duration": 10, "velocity": 106}, {"time": 130561, "pitch": 42, "duration": 10, "velocity": 92}, {"time": 130681, "pitch": 38, "duration": 10, "velocity": 78}, {"time": 130801, "pitch": 36, "duration": 10, "velocity": 50}, {"time": 130801, "pitch": 42, "duration": 10, "velocity": 78}, {"time": 130921, "pitch": 36, "duration": 10, "velocity": 50}, {"time": 131041, "pitch": 38, "duration": 10, "velocity": 106}, {"time": 131041, "pitch": 42, "duration": 10, "velocity": 92}, {"time": 131281, "pitch": 42, "duration": 10, "velocity": 78}, {"time": 131401, "pitch": 36, "duration": 10, "velocity": 92}, {"time": 131521, "pitch": 36, "duration": 10, "velocity": 106}, {"time": 131521, "pitch": 42, "duration": 10, "velocity": 92}, {"time": 131641, "pitch": 38, "duration": 10, "velocity": 78}, {"time": 131761, "pitch": 36, "duration": 10, "velocity": 106}, {"time": 131761, "pitch": 46, "duration": 10, "velocity": 120}, {"time": 132001, "pitch": 38, "duration": 10, "velocity": 106}, {"time": 132001, "pitch": 42, "duration": 10, "velocity": 92}, {"time": 132241, "pitch": 42, "duration": 10, "velocity": 78}, {"time": 132361, "pitch": 36, "duration": 10, "velocity": 92}, {"time": 132481, "pitch": 36, "duration": 10, "velocity": 106}, {"time": 132481, "pitch": 42, "duration": 10, "velocity": 92}, {"time": 132601, "pitch": 38, "duration": 10, "velocity": 78}, {"time": 132721, "pitch": 36, "duration": 10, "velocity": 50}, {"time": 132721, "pitch": 42, "duration": 10, "velocity": 78}, {"time": 132841, "pitch": 36, "duration": 10, "velocity": 50}, {"time": 132961, "pitch": 38, "duration": 10, "velocity": 106}, {"time": 132961, "pitch": 42, "duration": 10, "velocity": 92}, {"time": 133201, "pitch": 42, "duration": 10, "velocity": 78}, {"time": 133321, "pitch": 36, "duration": 10, "velocity": 92}, {"time": 133441, "pitch": 36, "duration": 10, "velocity": 106}, {"time": 133441, "pitch": 42, "duration": 10, "velocity": 92}, {"time": 133561, "pitch": 38, "duration": 10, "velocity": 78}, {"time": 133681, "pitch": 36, "duration": 10, "velocity": 106}, {"time": 133681, "pitch": 46, "duration": 10, "velocity": 120}, {"time": 133921, "pitch": 38, "duration": 10, "velocity": 106}, {"time": 133921, "pitch": 42, "duration": 10, "velocity": 92}, {"time": 134161, "pitch": 42, "duration": 10, "velocity": 78}, {"time": 134281, "pitch": 36, "duration": 10, "velocity": 92}, {"time": 134401, "pitch": 36, "duration": 10, "velocity": 106}, {"time": 134401, "pitch": 42, "duration": 10, "velocity": 92}, {"time": 134521, "pitch": 38, "duration": 10, "velocity": 78}, {"time": 134641, "pitch": 36, "duration": 10, "velocity": 50}, {"time": 134641, "pitch": 42, "duration": 10, "velocity": 78}, {"time": 134761, "pitch": 36, "duration": 10, "velocity": 50}, {"time": 134881, "pitch": 38, "duration": 10, "velocity": 106}, {"time": 134881, "pitch": 42, "duration": 10, "velocity": 92}, {"time": 135121, "pitch": 42, "duration": 10, "velocity": 78}, {"time": 135241, "pitch": 36, "duration": 10, "velocity": 92}, {"time": 135361, "pitch": 36, "duration": 10, "velocity": 106}, {"time": 135361, "pitch": 42, "duration": 10, "velocity": 92}, {"time": 135481, "pitch": 38, "duration": 10, "velocity": 78}, {"time": 135601, "pitch": 36, "duration": 10, "velocity": 106}, {"time": 135601, "pitch": 46, "duration": 10, "velocity": 120}, {"time": 135841, "pitch": 38, "duration": 10, "velocity": 106}, {"time": 135841, "pitch": 42, "duration": 10, "velocity": 92}, {"time": 136081, "pitch": 42, "duration": 10, "velocity": 78}, {"time": 136201, "pitch": 36, "duration": 10, "velocity": 92}, {"time": 136321, "pitch": 36, "duration": 10, "velocity": 106}, {"time": 136321, "pitch": 42, "duration": 10, "velocity": 92}, {"time": 136441, "pitch": 38, "duration": 10, "velocity": 78}, {"time": 136561, "pitch": 36, "duration": 10, "velocity": 50}, {"time": 136561, "pitch": 42, "duration": 10, "velocity": 78}, {"time": 136681, "pitch": 36, "duration": 10, "velocity": 50}, {"time": 136801, "pitch": 38, "duration": 10, "velocity": 106}, {"time": 136801, "pitch": 42, "duration": 10, "velocity": 92}, {"time": 137041, "pitch": 42, "duration": 10, "velocity": 78}, {"time": 137161, "pitch": 36, "duration": 10, "velocity": 92}, {"time": 137281, "pitch": 36, "duration": 10, "velocity": 106}, {"time": 137281, "pitch": 42, "duration": 10, "velocity": 92}, {"time": 137401, "pitch": 38, "duration": 10, "velocity": 78}, {"time": 137521, "pitch": 36, "duration": 10, "velocity": 106}, {"time": 137521, "pitch": 46, "duration": 10, "velocity": 120}, {"time": 137761, "pitch": 38, "duration": 10, "velocity": 106}, {"time": 137761, "pitch": 42, "duration": 10, "velocity": 92}, {"time": 138001, "pitch": 42, "duration": 10, "velocity": 78}, {"time": 138121, "pitch": 36, "duration": 10, "velocity": 92}, {"time": 138241, "pitch": 36, "duration": 10, "velocity": 106}, {"time": 138241, "pitch": 42, "duration": 10, "velocity": 92}, {"time": 138361, "pitch": 38, "duration": 10, "velocity": 78}, {"time": 138481, "pitch": 36, "duration": 10, "velocity": 50}, {"time": 138481, "pitch": 42, "duration": 10, "velocity": 78}, {"time": 138601, "pitch": 36, "duration": 10, "velocity": 50}, {"time": 138721, "pitch": 38, "duration": 10, "velocity": 106}, {"time": 138721, "pitch": 42, "duration": 10, "velocity": 92}, {"time": 138961, "pitch": 42, "duration": 10, "velocity": 78}, {"time": 139081, "pitch": 36, "duration": 10, "velocity": 92}, {"time": 139201, "pitch": 36, "duration": 10, "velocity": 106}, {"time": 139201, "pitch": 42, "duration": 10, "velocity": 92}, {"time": 139321, "pitch": 38, "duration": 10, "velocity": 78}, {"time": 139441, "pitch": 36, "duration": 10, "velocity": 106}, {"time": 139441, "pitch": 46, "duration": 10, "velocity": 120}, {"time": 139681, "pitch": 38, "duration": 10, "velocity": 106}, {"time": 139681, "pitch": 42, "duration": 10, "velocity": 92}, {"time": 139921, "pitch": 42, "duration": 10, "velocity": 78}, {"time": 140041, "pitch": 36, "duration": 10, "velocity": 92}, {"time": 140161, "pitch": 36, "duration": 10, "velocity": 106}, {"time": 140161, "pitch": 42, "duration": 10, "velocity": 92}, {"time": 140281, "pitch": 38, "duration": 10, "velocity": 78}, {"time": 140401, "pitch": 36, "duration": 10, "velocity": 50}, {"time": 140401, "pitch": 42, "duration": 10, "velocity": 78}, {"time": 140521, "pitch": 36, "duration": 10, "velocity": 50}, {"time": 140641, "pitch": 38, "duration": 10, "velocity": 106}, {"time": 140641, "pitch": 42, "duration": 10, "velocity": 92}, {"time": 140880, "pitch": 42, "duration": 10, "velocity": 78}, {"time": 141000, "pitch": 36, "duration": 10, "velocity": 92}, {"time": 141120, "pitch": 36, "duration": 10, "velocity": 106}, {"time": 141120, "pitch": 42, "duration": 10, "velocity": 92}, {"time": 141240, "pitch": 38, "duration": 10, "velocity": 78}, {"time": 141360, "pitch": 36, "duration": 10, "velocity": 106}, {"time": 141360, "pitch": 46, "duration": 10, "velocity": 120}, {"time": 141600, "pitch": 38, "duration": 10, "velocity": 106}, {"time": 141600, "pitch": 42, "duration": 10, "velocity": 92}, {"time": 141840, "pitch": 42, "duration": 10, "velocity": 78}, {"time": 141960, "pitch": 36, "duration": 10, "velocity": 92}, {"time": 142080, "pitch": 36, "duration": 10, "velocity": 106}, {"time": 142080, "pitch": 42, "duration": 10, "velocity": 92}, {"time": 142200, "pitch": 38, "duration": 10, "velocity": 78}, {"time": 142320, "pitch": 36, "duration": 10, "velocity": 50}, {"time": 142320, "pitch": 42, "duration": 10, "velocity": 78}, {"time": 142440, "pitch": 36, "duration": 10, "velocity": 50}, {"time": 142560, "pitch": 38, "duration": 10, "velocity": 106}, {"time": 142560, "pitch": 42, "duration": 10, "velocity": 92}, {"time": 142800, "pitch": 42, "duration": 10, "velocity": 78}, {"time": 142920, "pitch": 36, "duration": 10, "velocity": 92}, {"time": 143040, "pitch": 36, "duration": 10, "velocity": 106}, {"time": 143040, "pitch": 42, "duration": 10, "velocity": 92}, {"time": 143160, "pitch": 38, "duration": 10, "velocity": 78}, {"time": 143280, "pitch": 36, "duration": 10, "velocity": 106}, {"time": 143280, "pitch": 46, "duration": 10, "velocity": 120}, {"time": 143520, "pitch": 38, "duration": 10, "velocity": 106}, {"time": 143520, "pitch": 42, "duration": 10, "velocity": 92}, {"time": 143760, "pitch": 42, "duration": 10, "velocity": 78}, {"time": 143880, "pitch": 36, "duration": 10, "velocity": 92}, {"time": 144000, "pitch": 36, "duration": 10, "velocity": 106}, {"time": 144000, "pitch": 42, "duration": 10, "velocity": 92}, {"time": 144120, "pitch": 38, "duration": 10, "velocity": 78}, {"time": 144240, "pitch": 36, "duration": 10, "velocity": 50}, {"time": 144240, "pitch": 42, "duration": 10, "velocity": 78}, {"time": 144360, "pitch": 36, "duration": 10, "velocity": 50}, {"time": 144480, "pitch": 38, "duration": 10, "velocity": 106}, {"time": 144480, "pitch": 42, "duration": 10, "velocity": 92}, {"time": 144720, "pitch": 42, "duration": 10, "velocity": 78}, {"time": 144840, "pitch": 36, "duration": 10, "velocity": 92}, {"time": 144960, "pitch": 36, "duration": 10, "velocity": 106}, {"time": 144960, "pitch": 42, "duration": 10, "velocity": 92}, {"time": 145080, "pitch": 38, "duration": 10, "velocity": 78}, {"time": 145200, "pitch": 36, "duration": 10, "velocity": 106}, {"time": 145200, "pitch": 46, "duration": 10, "velocity": 120}, {"time": 145440, "pitch": 38, "duration": 10, "velocity": 106}, {"time": 145440, "pitch": 42, "duration": 10, "velocity": 92}, {"time": 145680, "pitch": 42, "duration": 10, "velocity": 78}, {"time": 145800, "pitch": 36, "duration": 10, "velocity": 92}, {"time": 145920, "pitch": 36, "duration": 10, "velocity": 106}, {"time": 145920, "pitch": 42, "duration": 10, "velocity": 92}, {"time": 146040, "pitch": 38, "duration": 10, "velocity": 78}, {"time": 146160, "pitch": 36, "duration": 10, "velocity": 50}, {"time": 146160, "pitch": 42, "duration": 10, "velocity": 78}, {"time": 146280, "pitch": 36, "duration": 10, "velocity": 50}, {"time": 146400, "pitch": 38, "duration": 10, "velocity": 106}, {"time": 146400, "pitch": 42, "duration": 10, "velocity": 92}, {"time": 146640, "pitch": 42, "duration": 10, "velocity": 78}, {"time": 146760, "pitch": 36, "duration": 10, "velocity": 92}, {"time": 146880, "pitch": 36, "duration": 10, "velocity": 106}, {"time": 146880, "pitch": 42, "duration": 10, "velocity": 92}, {"time": 147000, "pitch": 38, "duration": 10, "velocity": 78}, {"time": 147120, "pitch": 36, "duration": 10, "velocity": 106}, {"time": 147120, "pitch": 46, "duration": 10, "velocity": 120}, {"time": 147360, "pitch": 38, "duration": 10, "velocity": 106}, {"time": 147360, "pitch": 42, "duration": 10, "velocity": 92}, {"time": 147600, "pitch": 42, "duration": 10, "velocity": 78}, {"time": 147720, "pitch": 36, "duration": 10, "velocity": 92}, {"time": 155520, "pitch": 36, "duration": 10, "velocity": 106}, {"time": 155520, "pitch": 42, "duration": 10, "velocity": 92}, {"time": 155640, "pitch": 38, "duration": 10, "velocity": 78}, {"time": 155760, "pitch": 36, "duration": 10, "velocity": 50}, {"time": 155760, "pitch": 42, "duration": 10, "velocity": 78}, {"time": 155880, "pitch": 36, "duration": 10, "velocity": 50}, {"time": 156000, "pitch": 38, "duration": 10, "velocity": 106}, {"time": 156000, "pitch": 42, "duration": 10, "velocity": 92}, {"time": 156240, "pitch": 42, "duration": 10, "velocity": 78}, {"time": 156360, "pitch": 36, "duration": 10, "velocity": 92}, {"time": 156480, "pitch": 36, "duration": 10, "velocity": 106}, {"time": 156480, "pitch": 42, "duration": 10, "velocity": 92}, {"time": 156600, "pitch": 38, "duration": 10, "velocity": 78}, {"time": 156720, "pitch": 36, "duration": 10, "velocity": 106}, {"time": 156720, "pitch": 46, "duration": 10, "velocity": 120}, {"time": 156960, "pitch": 38, "duration": 10, "velocity": 106}, {"time": 156960, "pitch": 42, "duration": 10, "velocity": 92}, {"time": 157200, "pitch": 42, "duration": 10, "velocity": 78}, {"time": 157320, "pitch": 36, "duration": 10, "velocity": 92}, {"time": 157440, "pitch": 36, "duration": 10, "velocity": 106}, {"time": 157440, "pitch": 42, "duration": 10, "velocity": 92}, {"time": 157560, "pitch": 38, "duration": 10, "velocity": 78}, {"time": 157680, "pitch": 36, "duration": 10, "velocity": 50}, {"time": 157680, "pitch": 42, "duration": 10, "velocity": 78}, {"time": 157800, "pitch": 36, "duration": 10, "velocity": 50}, {"time": 157920, "pitch": 38, "duration": 10, "velocity": 106}, {"time": 157920, "pitch": 42, "duration": 10, "velocity": 92}, {"time": 158160, "pitch": 42, "duration": 10, "velocity": 78}, {"time": 158280, "pitch": 36, "duration": 10, "velocity": 92}, {"time": 158400, "pitch": 36, "duration": 10, "velocity": 106}, {"time": 158400, "pitch": 42, "duration": 10, "velocity": 92}, {"time": 158520, "pitch": 38, "duration": 10, "velocity": 78}, {"time": 158640, "pitch": 36, "duration": 10, "velocity": 106}, {"time": 158640, "pitch": 46, "duration": 10, "velocity": 120}, {"time": 158880, "pitch": 38, "duration": 10, "velocity": 106}, {"time": 158880, "pitch": 42, "duration": 10, "velocity": 92}, {"time": 159120, "pitch": 42, "duration": 10, "velocity": 78}, {"time": 159240, "pitch": 36, "duration": 10, "velocity": 92}, {"time": 159360, "pitch": 36, "duration": 10, "velocity": 106}, {"time": 159360, "pitch": 42, "duration": 10, "velocity": 92}, {"time": 159480, "pitch": 38, "duration": 10, "velocity": 78}, {"time": 159600, "pitch": 36, "duration": 10, "velocity": 50}, {"time": 159600, "pitch": 42, "duration": 10, "velocity": 78}, {"time": 159720, "pitch": 36, "duration": 10, "velocity": 50}, {"time": 159840, "pitch": 38, "duration": 10, "velocity": 106}, {"time": 159840, "pitch": 42, "duration": 10, "velocity": 92}, {"time": 160080, "pitch": 42, "duration": 10, "velocity": 78}, {"time": 160200, "pitch": 36, "duration": 10, "velocity": 92}, {"time": 160320, "pitch": 36, "duration": 10, "velocity": 106}, {"time": 160320, "pitch": 42, "duration": 10, "velocity": 92}, {"time": 160440, "pitch": 38, "duration": 10, "velocity": 78}, {"time": 160560, "pitch": 36, "duration": 10, "velocity": 106}, {"time": 160560, "pitch": 46, "duration": 10, "velocity": 120}, {"time": 160800, "pitch": 38, "duration": 10, "velocity": 106}, {"time": 160800, "pitch": 42, "duration": 10, "velocity": 92}, {"time": 161040, "pitch": 42, "duration": 10, "velocity": 78}, {"time": 161160, "pitch": 36, "duration": 10, "velocity": 92}, {"time": 161280, "pitch": 36, "duration": 10, "velocity": 106}, {"time": 161280, "pitch": 42, "duration": 10, "velocity": 92}, {"time": 161400, "pitch": 38, "duration": 10, "velocity": 78}, {"time": 161520, "pitch": 36, "duration": 10, "velocity": 50}, {"time": 161520, "pitch": 42, "duration": 10, "velocity": 78}, {"time": 161640, "pitch": 36, "duration": 10, "velocity": 50}, {"time": 161760, "pitch": 38, "duration": 10, "velocity": 106}, {"time": 161760, "pitch": 42, "duration": 10, "velocity": 92}, {"time": 162000, "pitch": 42, "duration": 10, "velocity": 78}, {"time": 162120, "pitch": 36, "duration": 10, "velocity": 92}, {"time": 162240, "pitch": 36, "duration": 10, "velocity": 106}, {"time": 162240, "pitch": 42, "duration": 10, "velocity": 92}, {"time": 162360, "pitch": 38, "duration": 10, "velocity": 78}, {"time": 162480, "pitch": 36, "duration": 10, "velocity": 106}, {"time": 162480, "pitch": 46, "duration": 10, "velocity": 120}, {"time": 162720, "pitch": 38, "duration": 10, "velocity": 106}, {"time": 162720, "pitch": 42, "duration": 10, "velocity": 92}, {"time": 162960, "pitch": 42, "duration": 10, "velocity": 78}, {"time": 163080, "pitch": 36, "duration": 10, "velocity": 92}, {"time": 163200, "pitch": 36, "duration": 10, "velocity": 106}, {"time": 163200, "pitch": 42, "duration": 10, "velocity": 92}, {"time": 163320, "pitch": 38, "duration": 10, "velocity": 78}, {"time": 163440, "pitch": 36, "duration": 10, "velocity": 50}, {"time": 163440, "pitch": 42, "duration": 10, "velocity": 78}, {"time": 163560, "pitch": 36, "duration": 10, "velocity": 50}, {"time": 163680, "pitch": 38, "duration": 10, "velocity": 106}, {"time": 163680, "pitch": 42, "duration": 10, "velocity": 92}, {"time": 163920, "pitch": 42, "duration": 10, "velocity": 78}, {"time": 164040, "pitch": 36, "duration": 10, "velocity": 92}, {"time": 164160, "pitch": 36, "duration": 10, "velocity": 106}, {"time": 164160, "pitch": 42, "duration": 10, "velocity": 92}, {"time": 164280, "pitch": 38, "duration": 10, "velocity": 78}, {"time": 164400, "pitch": 36, "duration": 10, "velocity": 106}, {"time": 164400, "pitch": 46, "duration": 10, "velocity": 120}, {"time": 164640, "pitch": 38, "duration": 10, "velocity": 106}, {"time": 164640, "pitch": 42, "duration": 10, "velocity": 92}, {"time": 164880, "pitch": 42, "duration": 10, "velocity": 78}, {"time": 165000, "pitch": 36, "duration": 10, "velocity": 92}, {"time": 165119, "pitch": 36, "duration": 10, "velocity": 106}, {"time": 165119, "pitch": 42, "duration": 10, "velocity": 92}, {"time": 165239, "pitch": 38, "duration": 10, "velocity": 78}, {"time": 165359, "pitch": 36, "duration": 10, "velocity": 50}, {"time": 165359, "pitch": 42, "duration": 10, "velocity": 78}, {"time": 165479, "pitch": 36, "duration": 10, "velocity": 50}, {"time": 165599, "pitch": 38, "duration": 10, "velocity": 106}, {"time": 165599, "pitch": 42, "duration": 10, "velocity": 92}, {"time": 165839, "pitch": 42, "duration": 10, "velocity": 78}, {"time": 165959, "pitch": 36, "duration": 10, "velocity": 92}, {"time": 166079, "pitch": 36, "duration": 10, "velocity": 106}, {"time": 166079, "pitch": 42, "duration": 10, "velocity": 92}, {"time": 166199, "pitch": 38, "duration": 10, "velocity": 78}, {"time": 166319, "pitch": 36, "duration": 10, "velocity": 106}, {"time": 166319, "pitch": 46, "duration": 10, "velocity": 120}, {"time": 166559, "pitch": 38, "duration": 10, "velocity": 106}, {"time": 166559, "pitch": 42, "duration": 10, "velocity": 92}, {"time": 166799, "pitch": 42, "duration": 10, "velocity": 78}, {"time": 166919, "pitch": 36, "duration": 10, "velocity": 92}, {"time": 167039, "pitch": 36, "duration": 10, "velocity": 106}, {"time": 167039, "pitch": 42, "duration": 10, "velocity": 92}, {"time": 167159, "pitch": 38, "duration": 10, "velocity": 78}, {"time": 167279, "pitch": 36, "duration": 10, "velocity": 50}, {"time": 167279, "pitch": 42, "duration": 10, "velocity": 78}, {"time": 167399, "pitch": 36, "duration": 10, "velocity": 50}, {"time": 167519, "pitch": 38, "duration": 10, "velocity": 106}, {"time": 167519, "pitch": 42, "duration": 10, "velocity": 92}, {"time": 167759, "pitch": 42, "duration": 10, "velocity": 78}, {"time": 167879, "pitch": 36, "duration": 10, "velocity": 92}, {"time": 167999, "pitch": 36, "duration": 10, "velocity": 106}, {"time": 167999, "pitch": 42, "duration": 10, "velocity": 92}, {"time": 168119, "pitch": 38, "duration": 10, "velocity": 78}, {"time": 168239, "pitch": 36, "duration": 10, "velocity": 106}, {"time": 168239, "pitch": 46, "duration": 10, "velocity": 120}, {"time": 168479, "pitch": 38, "duration": 10, "velocity": 106}, {"time": 168479, "pitch": 42, "duration": 10, "velocity": 92}, {"time": 168719, "pitch": 42, "duration": 10, "velocity": 78}, {"time": 168839, "pitch": 36, "duration": 10, "velocity": 92}, {"time": 168959, "pitch": 36, "duration": 10, "velocity": 106}, {"time": 168959, "pitch": 42, "duration": 10, "velocity": 92}, {"time": 169079, "pitch": 38, "duration": 10, "velocity": 78}, {"time": 169199, "pitch": 36, "duration": 10, "velocity": 50}, {"time": 169199, "pitch": 42, "duration": 10, "velocity": 78}, {"time": 169319, "pitch": 36, "duration": 10, "velocity": 50}, {"time": 169439, "pitch": 38, "duration": 10, "velocity": 106}, {"time": 169439, "pitch": 42, "duration": 10, "velocity": 92}, {"time": 169679, "pitch": 42, "duration": 10, "velocity": 78}, {"time": 169799, "pitch": 36, "duration": 10, "velocity": 92}, {"time": 169919, "pitch": 36, "duration": 10, "velocity": 106}, {"time": 169919, "pitch": 42, "duration": 10, "velocity": 92}, {"time": 170039, "pitch": 38, "duration": 10, "velocity": 78}, {"time": 170159, "pitch": 36, "duration": 10, "velocity": 106}, {"time": 170159, "pitch": 46, "duration": 10, "velocity": 120}, {"time": 170399, "pitch": 38, "duration": 10, "velocity": 106}, {"time": 170399, "pitch": 42, "duration": 10, "velocity": 92}, {"time": 170639, "pitch": 42, "duration": 10, "velocity": 78}, {"time": 170759, "pitch": 36, "duration": 10, "velocity": 92}, {"time": 170879, "pitch": 36, "duration": 10, "velocity": 106}, {"time": 170879, "pitch": 42, "duration": 10, "velocity": 92}, {"time": 170999, "pitch": 38, "duration": 10, "velocity": 78}, {"time": 171119, "pitch": 36, "duration": 10, "velocity": 50}, {"time": 171119, "pitch": 42, "duration": 10, "velocity": 78}, {"time": 171239, "pitch": 36, "duration": 10, "velocity": 50}, {"time": 171359, "pitch": 38, "duration": 10, "velocity": 106}, {"time": 171359, "pitch": 42, "duration": 10, "velocity": 92}, {"time": 171599, "pitch": 42, "duration": 10, "velocity": 78}, {"time": 171719, "pitch": 36, "duration": 10, "velocity": 92}, {"time": 171839, "pitch": 36, "duration": 10, "velocity": 106}, {"time": 171839, "pitch": 42, "duration": 10, "velocity": 92}, {"time": 171959, "pitch": 38, "duration": 10, "velocity": 78}, {"time": 172079, "pitch": 36, "duration": 10, "velocity": 106}, {"time": 172079, "pitch": 46, "duration": 10, "velocity": 120}, {"time": 172319, "pitch": 38, "duration": 10, "velocity": 106}, {"time": 172319, "pitch": 42, "duration": 10, "velocity": 92}, {"time": 172559, "pitch": 42, "duration": 10, "velocity": 78}, {"time": 172679, "pitch": 36, "duration": 10, "velocity": 92}, {"time": 172799, "pitch": 36, "duration": 10, "velocity": 106}, {"time": 172799, "pitch": 42, "duration": 10, "velocity": 92}, {"time": 172919, "pitch": 38, "duration": 10, "velocity": 78}, {"time": 173039, "pitch": 36, "duration": 10, "velocity": 50}, {"time": 173039, "pitch": 42, "duration": 10, "velocity": 78}, {"time": 173159, "pitch": 36, "duration": 10, "velocity": 50}, {"time": 173279, "pitch": 38, "duration": 10, "velocity": 106}, {"time": 173279, "pitch": 42, "duration": 10, "velocity": 92}, {"time": 173519, "pitch": 42, "duration": 10, "velocity": 78}, {"time": 173639, "pitch": 36, "duration": 10, "velocity": 92}, {"time": 173759, "pitch": 36, "duration": 10, "velocity": 106}, {"time": 173759, "pitch": 42, "duration": 10, "velocity": 92}, {"time": 173879, "pitch": 38, "duration": 10, "velocity": 78}, {"time": 173999, "pitch": 36, "duration": 10, "velocity": 106}, {"time": 173999, "pitch": 46, "duration": 10, "velocity": 120}, {"time": 174239, "pitch": 38, "duration": 10, "velocity": 106}, {"time": 174239, "pitch": 42, "duration": 10, "velocity": 92}, {"time": 174479, "pitch": 42, "duration": 10, "velocity": 78}, {"time": 174599, "pitch": 36, "duration": 10, "velocity": 92}, {"time": 174719, "pitch": 36, "duration": 10, "velocity": 106}, {"time": 174719, "pitch": 42, "duration": 10, "velocity": 92}, {"time": 174839, "pitch": 38, "duration": 10, "velocity": 78}, {"time": 174959, "pitch": 36, "duration": 10, "velocity": 50}, {"time": 174959, "pitch": 42, "duration": 10, "velocity": 78}, {"time": 175079, "pitch": 36, "duration": 10, "velocity": 50}, {"time": 175199, "pitch": 38, "duration": 10, "velocity": 106}, {"time": 175199, "pitch": 42, "duration": 10, "velocity": 92}, {"time": 175439, "pitch": 42, "duration": 10, "velocity": 78}, {"time": 175559, "pitch": 36, "duration": 10, "velocity": 92}, {"time": 175679, "pitch": 36, "duration": 10, "velocity": 106}, {"time": 175679, "pitch": 42, "duration": 10, "velocity": 92}, {"time": 175799, "pitch": 38, "duration": 10, "velocity": 78}, {"time": 175919, "pitch": 36, "duration": 10, "velocity": 106}, {"time": 175919, "pitch": 46, "duration": 10, "velocity": 120}, {"time": 176159, "pitch": 38, "duration": 10, "velocity": 106}, {"time": 176159, "pitch": 42, "duration": 10, "velocity": 92}, {"time": 176399, "pitch": 42, "duration": 10, "velocity": 78}, {"time": 176519, "pitch": 36, "duration": 10, "velocity": 92}, {"time": 176639, "pitch": 36, "duration": 10, "velocity": 106}, {"time": 176639, "pitch": 42, "duration": 10, "velocity": 92}, {"time": 176759, "pitch": 38, "duration": 10, "velocity": 78}, {"time": 176879, "pitch": 36, "duration": 10, "velocity": 50}, {"time": 176879, "pitch": 42, "duration": 10, "velocity": 78}, {"time": 176999, "pitch": 36, "duration": 10, "velocity": 50}, {"time": 177119, "pitch": 38, "duration": 10, "velocity": 106}, {"time": 177119, "pitch": 42, "duration": 10, "velocity": 92}, {"time": 177359, "pitch": 42, "duration": 10, "velocity": 78}, {"time": 177479, "pitch": 36, "duration": 10, "velocity": 92}, {"time": 177599, "pitch": 36, "duration": 10, "velocity": 106}, {"time": 177599, "pitch": 42, "duration": 10, "velocity": 92}, {"time": 177719, "pitch": 38, "duration": 10, "velocity": 78}, {"time": 177839, "pitch": 36, "duration": 10, "velocity": 106}, {"time": 177839, "pitch": 46, "duration": 10, "velocity": 120}, {"time": 178079, "pitch": 38, "duration": 10, "velocity": 106}, {"time": 178079, "pitch": 42, "duration": 10, "velocity": 92}, {"time": 178319, "pitch": 42, "duration": 10, "velocity": 78}, {"time": 178439, "pitch": 36, "duration": 10, "velocity": 92}, {"time": 178559, "pitch": 36, "duration": 10, "velocity": 106}, {"time": 178559, "pitch": 42, "duration": 10, "velocity": 92}, {"time": 178679, "pitch": 38, "duration": 10, "velocity": 78}, {"time": 178799, "pitch": 36, "duration": 10, "velocity": 50}, {"time": 178799, "pitch": 42, "duration": 10, "velocity": 78}, {"time": 178919, "pitch": 36, "duration": 10, "velocity": 50}, {"time": 179039, "pitch": 38, "duration": 10, "velocity": 106}, {"time": 179039, "pitch": 42, "duration": 10, "velocity": 92}, {"time": 179279, "pitch": 42, "duration": 10, "velocity": 78}, {"time": 179398, "pitch": 36, "duration": 11, "velocity": 92}, {"time": 179519, "pitch": 36, "duration": 10, "velocity": 106}, {"time": 179519, "pitch": 42, "duration": 10, "velocity": 92}, {"time": 179639, "pitch": 38, "duration": 10, "velocity": 78}, {"time": 179759, "pitch": 36, "duration": 10, "velocity": 106}, {"time": 179759, "pitch": 46, "duration": 10, "velocity": 120}, {"time": 179999, "pitch": 38, "duration": 10, "velocity": 106}, {"time": 179999, "pitch": 42, "duration": 10, "velocity": 92}, {"time": 180239, "pitch": 42, "duration": 10, "velocity": 78}, {"time": 180359, "pitch": 36, "duration": 10, "velocity": 92}, {"time": 180479, "pitch": 36, "duration": 10, "velocity": 106}, {"time": 180479, "pitch": 42, "duration": 10, "velocity": 92}, {"time": 180598, "pitch": 38, "duration": 10, "velocity": 78}, {"time": 180719, "pitch": 36, "duration": 10, "velocity": 50}, {"time": 180719, "pitch": 42, "duration": 10, "velocity": 78}, {"time": 180838, "pitch": 36, "duration": 11, "velocity": 50}, {"time": 180959, "pitch": 38, "duration": 10, "velocity": 106}, {"time": 180959, "pitch": 42, "duration": 10, "velocity": 92}, {"time": 181199, "pitch": 42, "duration": 10, "velocity": 78}, {"time": 181319, "pitch": 36, "duration": 10, "velocity": 92}, {"time": 181439, "pitch": 36, "duration": 10, "velocity": 106}, {"time": 181439, "pitch": 42, "duration": 10, "velocity": 92}, {"time": 181559, "pitch": 38, "duration": 10, "velocity": 78}, {"time": 181679, "pitch": 36, "duration": 10, "velocity": 106}, {"time": 181679, "pitch": 46, "duration": 10, "velocity": 120}, {"time": 181919, "pitch": 38, "duration": 8, "velocity": 106}, {"time": 181919, "pitch": 42, "duration": 8, "velocity": 92}, {"time": 182103, "pitch": 42, "duration": 7, "velocity": 78}, {"time": 182195, "pitch": 36, "duration": 7, "velocity": 92}, {"time": 2400, "pitch": 54, "duration": 10, "velocity": 92}, {"time": 3360, "pitch": 54, "duration": 10, "velocity": 92}, {"time": 4320, "pitch": 54, "duration": 10, "velocity": 92}, {"time": 5280, "pitch": 54, "duration": 10, "velocity": 92}, {"time": 6240, "pitch": 54, "duration": 10, "velocity": 92}, {"time": 7200, "pitch": 54, "duration": 10, "velocity": 92}, {"time": 8160, "pitch": 54, "duration": 10, "velocity": 92}, {"time": 9120, "pitch": 54, "duration": 10, "velocity": 92}, {"time": 10080, "pitch": 54, "duration": 10, "velocity": 92}, {"time": 11039, "pitch": 54, "duration": 10, "velocity": 92}, {"time": 11999, "pitch": 54, "duration": 10, "velocity": 92}, {"time": 12959, "pitch": 54, "duration": 10, "velocity": 92}, {"time": 13919, "pitch": 54, "duration": 10, "velocity": 92}, {"time": 14879, "pitch": 54, "duration": 10, "velocity": 92}, {"time": 15839, "pitch": 54, "duration": 10, "velocity": 92}, {"time": 16799, "pitch": 54, "duration": 10, "velocity": 92}, {"time": 17759, "pitch": 54, "duration": 10, "velocity": 92}, {"time": 18719, "pitch": 54, "duration": 10, "velocity": 92}, {"time": 19679, "pitch": 54, "duration": 10, "velocity": 92}, {"time": 20639, "pitch": 54, "duration": 10, "velocity": 92}, {"time": 21599, "pitch": 54, "duration": 10, "velocity": 92}, {"time": 22559, "pitch": 54, "duration": 10, "velocity": 92}, {"time": 23519, "pitch": 54, "duration": 10, "velocity": 92}, {"time": 24479, "pitch": 54, "duration": 10, "velocity": 92}, {"time": 25439, "pitch": 54, "duration": 10, "velocity": 92}, {"time": 26399, "pitch": 54, "duration": 10, "velocity": 92}, {"time": 27359, "pitch": 54, "duration": 10, "velocity": 92}, {"time": 28319, "pitch": 54, "duration": 10, "velocity": 92}, {"time": 29279, "pitch": 54, "duration": 10, "velocity": 92}, {"time": 30239, "pitch": 54, "duration": 10, "velocity": 92}, {"time": 31199, "pitch": 54, "duration": 10, "velocity": 92}, {"time": 33119, "pitch": 54, "duration": 10, "velocity": 92}, {"time": 34079, "pitch": 54, "duration": 10, "velocity": 92}, {"time": 35038, "pitch": 54, "duration": 10, "velocity": 92}, {"time": 35998, "pitch": 54, "duration": 10, "velocity": 92}, {"time": 36958, "pitch": 54, "duration": 10, "velocity": 92}, {"time": 37918, "pitch": 54, "duration": 10, "velocity": 92}, {"time": 38878, "pitch": 54, "duration": 10, "velocity": 92}, {"time": 39838, "pitch": 54, "duration": 10, "velocity": 92}, {"time": 40798, "pitch": 54, "duration": 10, "velocity": 92}, {"time": 41758, "pitch": 54, "duration": 10, "velocity": 92}, {"time": 42718, "pitch": 54, "duration": 10, "velocity": 92}, {"time": 43678, "pitch": 54, "duration": 10, "velocity": 92}, {"time": 44638, "pitch": 54, "duration": 10, "velocity": 92}, {"time": 45598, "pitch": 54, "duration": 10, "velocity": 92}, {"time": 46558, "pitch": 54, "duration": 10, "velocity": 92}, {"time": 47518, "pitch": 54, "duration": 10, "velocity": 92}, {"time": 48478, "pitch": 54, "duration": 10, "velocity": 92}, {"time": 49438, "pitch": 54, "duration": 10, "velocity": 92}, {"time": 50398, "pitch": 54, "duration": 10, "velocity": 92}, {"time": 51358, "pitch": 54, "duration": 10, "velocity": 92}, {"time": 52318, "pitch": 54, "duration": 10, "velocity": 92}, {"time": 53278, "pitch": 54, "duration": 10, "velocity": 92}, {"time": 54238, "pitch": 54, "duration": 10, "velocity": 92}, {"time": 55198, "pitch": 54, "duration": 10, "velocity": 92}, {"time": 56158, "pitch": 54, "duration": 10, "velocity": 92}, {"time": 57118, "pitch": 54, "duration": 10, "velocity": 92}, {"time": 58078, "pitch": 54, "duration": 10, "velocity": 92}, {"time": 59037, "pitch": 54, "duration": 10, "velocity": 92}, {"time": 59997, "pitch": 54, "duration": 10, "velocity": 92}, {"time": 60957, "pitch": 54, "duration": 10, "velocity": 92}, {"time": 61917, "pitch": 54, "duration": 10, "velocity": 92}, {"time": 62877, "pitch": 54, "duration": 10, "velocity": 92}, {"time": 63357, "pitch": 80, "duration": 120, "velocity": 64}, {"time": 63477, "pitch": 80, "duration": 120, "velocity": 74}, {"time": 63597, "pitch": 81, "duration": 120, "velocity": 93}, {"time": 63837, "pitch": 54, "duration": 10, "velocity": 92}, {"time": 63837, "pitch": 80, "duration": 120, "velocity": 76}, {"time": 63957, "pitch": 80, "duration": 120, "velocity": 67}, {"time": 64077, "pitch": 81, "duration": 120, "velocity": 80}, {"time": 64317, "pitch": 80, "duration": 120, "velocity": 74}, {"time": 64437, "pitch": 80, "duration": 120, "velocity": 73}, {"time": 64557, "pitch": 81, "duration": 120, "velocity": 77}, {"time": 64797, "pitch": 54, "duration": 10, "velocity": 92}, {"time": 64797, "pitch": 80, "duration": 120, "velocity": 77}, {"time": 64917, "pitch": 80, "duration": 120, "velocity": 71}, {"time": 65037, "pitch": 81, "duration": 120, "velocity": 82}, {"time": 65277, "pitch": 80, "duration": 120, "velocity": 76}, {"time": 65397, "pitch": 80, "duration": 120, "velocity": 74}, {"time": 65517, "pitch": 81, "duration": 120, "velocity": 85}, {"time": 65757, "pitch": 54, "duration": 10, "velocity": 92}, {"time": 65757, "pitch": 80, "duration": 120, "velocity": 81}, {"time": 65877, "pitch": 80, "duration": 120, "velocity": 80}, {"time": 65997, "pitch": 81, "duration": 120, "velocity": 82}, {"time": 66237, "pitch": 80, "duration": 120, "velocity": 85}, {"time": 66357, "pitch": 80, "duration": 120, "velocity": 82}, {"time": 66477, "pitch": 81, "duration": 120, "velocity": 83}, {"time": 66717, "pitch": 54, "duration": 10, "velocity": 92}, {"time": 66717, "pitch": 80, "duration": 120, "velocity": 83}, {"time": 66837, "pitch": 80, "duration": 120, "velocity": 78}, {"time": 66957, "pitch": 81, "duration": 120, "velocity": 87}, {"time": 67197, "pitch": 80, "duration": 120, "velocity": 64}, {"time": 67317, "pitch": 80, "duration": 120, "velocity": 74}, {"time": 67437, "pitch": 81, "duration": 120, "velocity": 93}, {"time": 67677, "pitch": 54, "duration": 10, "velocity": 92}, {"time": 67677, "pitch": 80, "duration": 120, "velocity": 76}, {"time": 67797, "pitch": 80, "duration": 120, "velocity": 67}, {"time": 67917, "pitch": 81, "duration": 120, "velocity": 80}, {"time": 68157, "pitch": 80, "duration": 120, "velocity": 74}, {"time": 68277, "pitch": 80, "duration": 120, "velocity": 73}, {"time": 68397, "pitch": 81, "duration": 120, "velocity": 77}, {"time": 68637, "pitch": 54, "duration": 10, "velocity": 92}, {"time": 68637, "pitch": 80, "duration": 120, "velocity": 77}, {"time": 68757, "pitch": 80, "duration": 120, "velocity": 71}, {"time": 68877, "pitch": 81, "duration": 120, "velocity": 82}, {"time": 69117, "pitch": 80, "duration": 120, "velocity": 76}, {"time": 69237, "pitch": 80, "duration": 120, "velocity": 74}, {"time": 69357, "pitch": 81, "duration": 120, "velocity": 85}, {"time": 69597, "pitch": 54, "duration": 10, "velocity": 92}, {"time": 69597, "pitch": 80, "duration": 120, "velocity": 81}, {"time": 69717, "pitch": 80, "duration": 120, "velocity": 80}, {"time": 69837, "pitch": 81, "duration": 120, "velocity": 82}, {"time": 70077, "pitch": 80, "duration": 120, "velocity": 85}, {"time": 70197, "pitch": 80, "duration": 120, "velocity": 82}, {"time": 70317, "pitch": 81, "duration": 120, "velocity": 83}, {"time": 70557, "pitch": 54, "duration": 10, "velocity": 92}, {"time": 70557, "pitch": 80, "duration": 120, "velocity": 83}, {"time": 70677, "pitch": 80, "duration": 120, "velocity": 78}, {"time": 70797, "pitch": 81, "duration": 120, "velocity": 87}, {"time": 71037, "pitch": 80, "duration": 120, "velocity": 64}, {"time": 71157, "pitch": 80, "duration": 120, "velocity": 74}, {"time": 71277, "pitch": 81, "duration": 120, "velocity": 93}, {"time": 71517, "pitch": 54, "duration": 10, "velocity": 92}, {"time": 71517, "pitch": 80, "duration": 120, "velocity": 76}, {"time": 71637, "pitch": 80, "duration": 120, "velocity": 67}, {"time": 71757, "pitch": 81, "duration": 120, "velocity": 80}, {"time": 71997, "pitch": 80, "duration": 120, "velocity": 74}, {"time": 72117, "pitch": 80, "duration": 120, "velocity": 73}, {"time": 72237, "pitch": 81, "duration": 120, "velocity": 77}, {"time": 72477, "pitch": 54, "duration": 10, "velocity": 92}, {"time": 72477, "pitch": 80, "duration": 120, "velocity": 77}, {"time": 72597, "pitch": 80, "duration": 120, "velocity": 71}, {"time": 72717, "pitch": 81, "duration": 120, "velocity": 82}, {"time": 72957, "pitch": 80, "duration": 120, "velocity": 76}, {"time": 73077, "pitch": 80, "duration": 120, "velocity": 74}, {"time": 73197, "pitch": 81, "duration": 120, "velocity": 85}, {"time": 73437, "pitch": 54, "duration": 10, "velocity": 92}, {"time": 73437, "pitch": 80, "duration": 120, "velocity": 81}, {"time": 73557, "pitch": 80, "duration": 120, "velocity": 80}, {"time": 73677, "pitch": 81, "duration": 120, "velocity": 82}, {"time": 73917, "pitch": 80, "duration": 120, "velocity": 85}, {"time": 74037, "pitch": 80, "duration": 120, "velocity": 82}, {"time": 74157, "pitch": 81, "duration": 120, "velocity": 83}, {"time": 74397, "pitch": 54, "duration": 10, "velocity": 92}, {"time": 74397, "pitch": 80, "duration": 120, "velocity": 83}, {"time": 74517, "pitch": 80, "duration": 120, "velocity": 78}, {"time": 74637, "pitch": 81, "duration": 120, "velocity": 87}, {"time": 75357, "pitch": 54, "duration": 10, "velocity": 92}, {"time": 76323, "pitch": 54, "duration": 10, "velocity": 92}, {"time": 77283, "pitch": 54, "duration": 10, "velocity": 92}, {"time": 78243, "pitch": 54, "duration": 10, "velocity": 92}, {"time": 79203, "pitch": 54, "duration": 10, "velocity": 92}, {"time": 80163, "pitch": 54, "duration": 10, "velocity": 92}, {"time": 81123, "pitch": 54, "duration": 10, "velocity": 92}, {"time": 82083, "pitch": 54, "duration": 10, "velocity": 92}, {"time": 83043, "pitch": 54, "duration": 10, "velocity": 92}, {"time": 84003, "pitch": 54, "duration": 10, "velocity": 92}, {"time": 84963, "pitch": 54, "duration": 10, "velocity": 92}, {"time": 85923, "pitch": 54, "duration": 10, "velocity": 92}, {"time": 86883, "pitch": 54, "duration": 10, "velocity": 92}, {"time": 87843, "pitch": 54, "duration": 10, "velocity": 92}, {"time": 88803, "pitch": 54, "duration": 10, "velocity": 92}, {"time": 89763, "pitch": 54, "duration": 10, "velocity": 92}, {"time": 90723, "pitch": 54, "duration": 10, "velocity": 92}, {"time": 91683, "pitch": 54, "duration": 10, "velocity": 92}, {"time": 92642, "pitch": 54, "duration": 10, "velocity": 92}, {"time": 93602, "pitch": 54, "duration": 10, "velocity": 92}, {"time": 94562, "pitch": 54, "duration": 10, "velocity": 92}, {"time": 95522, "pitch": 54, "duration": 10, "velocity": 92}, {"time": 96482, "pitch": 54, "duration": 10, "velocity": 92}, {"time": 97442, "pitch": 54, "duration": 10, "velocity": 92}, {"time": 98402, "pitch": 54, "duration": 10, "velocity": 92}, {"time": 99362, "pitch": 54, "duration": 10, "velocity": 92}, {"time": 100322, "pitch": 54, "duration": 10, "velocity": 92}, {"time": 101282, "pitch": 54, "duration": 10, "velocity": 92}, {"time": 102242, "pitch": 54, "duration": 10, "velocity": 92}, {"time": 103202, "pitch": 54, "duration": 10, "velocity": 92}, {"time": 104162, "pitch": 54, "duration": 10, "velocity": 92}, {"time": 105602, "pitch": 80, "duration": 120, "velocity": 64}, {"time": 105722, "pitch": 80, "duration": 120, "velocity": 74}, {"time": 105842, "pitch": 81, "duration": 120, "velocity": 93}, {"time": 106082, "pitch": 54, "duration": 10, "velocity": 92}, {"time": 106082, "pitch": 80, "duration": 120, "velocity": 76}, {"time": 106202, "pitch": 80, "duration": 120, "velocity": 67}, {"time": 106322, "pitch": 81, "duration": 120, "velocity": 80}, {"time": 106562, "pitch": 80, "duration": 120, "velocity": 74}, {"time": 106682, "pitch": 80, "duration": 120, "velocity": 73}, {"time": 106802, "pitch": 81, "duration": 120, "velocity": 77}, {"time": 107042, "pitch": 54, "duration": 10, "velocity": 92}, {"time": 107042, "pitch": 80, "duration": 120, "velocity": 77}, {"time": 107162, "pitch": 80, "duration": 120, "velocity": 71}, {"time": 107282, "pitch": 81, "duration": 120, "velocity": 82}, {"time": 107522, "pitch": 80, "duration": 120, "velocity": 76}, {"time": 107642, "pitch": 80, "duration": 120, "velocity": 74}, {"time": 107762, "pitch": 81, "duration": 120, "velocity": 85}, {"time": 108002, "pitch": 54, "duration": 10, "velocity": 92}, {"time": 108002, "pitch": 80, "duration": 120, "velocity": 81}, {"time": 108122, "pitch": 80, "duration": 120, "velocity": 80}, {"time": 108242, "pitch": 81, "duration": 120, "velocity": 82}, {"time": 108482, "pitch": 80, "duration": 120, "velocity": 85}, {"time": 108602, "pitch": 80, "duration": 120, "velocity": 82}, {"time": 108722, "pitch": 81, "duration": 120, "velocity": 83}, {"time": 108962, "pitch": 54, "duration": 10, "velocity": 92}, {"time": 108962, "pitch": 80, "duration": 120, "velocity": 83}, {"time": 109082, "pitch": 80, "duration": 120, "velocity": 78}, {"time": 109202, "pitch": 81, "duration": 120, "velocity": 87}, {"time": 109442, "pitch": 80, "duration": 120, "velocity": 64}, {"time": 109562, "pitch": 80, "duration": 120, "velocity": 74}, {"time": 109682, "pitch": 81, "duration": 120, "velocity": 93}, {"time": 109922, "pitch": 54, "duration": 10, "velocity": 92}, {"time": 109922, "pitch": 80, "duration": 120, "velocity": 76}, {"time": 110042, "pitch": 80, "duration": 120, "velocity": 67}, {"time": 110162, "pitch": 81, "duration": 120, "velocity": 80}, {"time": 110402, "pitch": 80, "duration": 120, "velocity": 74}, {"time": 110522, "pitch": 80, "duration": 120, "velocity": 73}, {"time": 110642, "pitch": 81, "duration": 120, "velocity": 77}, {"time": 110882, "pitch": 54, "duration": 10, "velocity": 92}, {"time": 110882, "pitch": 80, "duration": 120, "velocity": 77}, {"time": 111002, "pitch": 80, "duration": 120, "velocity": 71}, {"time": 111122, "pitch": 81, "duration": 120, "velocity": 82}, {"time": 111362, "pitch": 80, "duration": 120, "velocity": 76}, {"time": 111482, "pitch": 80, "duration": 120, "velocity": 74}, {"time": 111602, "pitch": 81, "duration": 120, "velocity": 85}, {"time": 111842, "pitch": 54, "duration": 10, "velocity": 92}, {"time": 111842, "pitch": 80, "duration": 120, "velocity": 81}, {"time": 111962, "pitch": 80, "duration": 120, "velocity": 80}, {"time": 112082, "pitch": 81, "duration": 120, "velocity": 82}, {"time": 112322, "pitch": 80, "duration": 120, "velocity": 85}, {"time": 112442, "pitch": 80, "duration": 120, "velocity": 82}, {"time": 112562, "pitch": 81, "duration": 120, "velocity": 83}, {"time": 112802, "pitch": 54, "duration": 10, "velocity": 92}, {"time": 112802, "pitch": 80, "duration": 120, "velocity": 83}, {"time": 112922, "pitch": 80, "duration": 120, "velocity": 78}, {"time": 113042, "pitch": 81, "duration": 120, "velocity": 87}, {"time": 113282, "pitch": 80, "duration": 120, "velocity": 64}, {"time": 113402, "pitch": 80, "duration": 120, "velocity": 74}, {"time": 113522, "pitch": 81, "duration": 120, "velocity": 93}, {"time": 113762, "pitch": 54, "duration": 10, "velocity": 92}, {"time": 113762, "pitch": 80, "duration": 120, "velocity": 76}, {"time": 113882, "pitch": 80, "duration": 120, "velocity": 67}, {"time": 114002, "pitch": 81, "duration": 120, "velocity": 80}, {"time": 114242, "pitch": 80, "duration": 120, "velocity": 74}, {"time": 114362, "pitch": 80, "duration": 120, "velocity": 73}, {"time": 114482, "pitch": 81, "duration": 120, "velocity": 77}, {"time": 114722, "pitch": 54, "duration": 10, "velocity": 92}, {"time": 114722, "pitch": 80, "duration": 120, "velocity": 77}, {"time": 114842, "pitch": 80, "duration": 120, "velocity": 71}, {"time": 114962, "pitch": 81, "duration": 120, "velocity": 82}, {"time": 115202, "pitch": 80, "duration": 120, "velocity": 76}, {"time": 115322, "pitch": 80, "duration": 120, "velocity": 74}, {"time": 115442, "pitch": 81, "duration": 120, "velocity": 85}, {"time": 115682, "pitch": 54, "duration": 10, "velocity": 92}, {"time": 115682, "pitch": 80, "duration": 120, "velocity": 81}, {"time": 115802, "pitch": 80, "duration": 120, "velocity": 80}, {"time": 115922, "pitch": 81, "duration": 120, "velocity": 82}, {"time": 116162, "pitch": 80, "duration": 120, "velocity": 85}, {"time": 116282, "pitch": 80, "duration": 120, "velocity": 82}, {"time": 116402, "pitch": 81, "duration": 120, "velocity": 83}, {"time": 116641, "pitch": 54, "duration": 10, "velocity": 92}, {"time": 116641, "pitch": 80, "duration": 120, "velocity": 83}, {"time": 116761, "pitch": 80, "duration": 120, "velocity": 78}, {"time": 116881, "pitch": 81, "duration": 120, "velocity": 87}, {"time": 117601, "pitch": 54, "duration": 10, "velocity": 92}, {"time": 118561, "pitch": 54, "duration": 10, "velocity": 92}, {"time": 119521, "pitch": 54, "duration": 10, "velocity": 92}, {"time": 120481, "pitch": 54, "duration": 10, "velocity": 92}, {"time": 121441, "pitch": 54, "duration": 10, "velocity": 92}, {"time": 122401, "pitch": 54, "duration": 10, "velocity": 92}, {"time": 123361, "pitch": 54, "duration": 10, "velocity": 92}, {"time": 124321, "pitch": 54, "duration": 10, "velocity": 92}, {"time": 125281, "pitch": 54, "duration": 10, "velocity": 92}, {"time": 126241, "pitch": 54, "duration": 10, "velocity": 92}, {"time": 127201, "pitch": 54, "duration": 10, "velocity": 92}, {"time": 128161, "pitch": 54, "duration": 10, "velocity": 92}, {"time": 129121, "pitch": 54, "duration": 10, "velocity": 92}, {"time": 130081, "pitch": 54, "duration": 10, "velocity": 92}, {"time": 131041, "pitch": 54, "duration": 10, "velocity": 92}, {"time": 132001, "pitch": 54, "duration": 10, "velocity": 92}, {"time": 132961, "pitch": 54, "duration": 10, "velocity": 92}, {"time": 133921, "pitch": 54, "duration": 10, "velocity": 92}, {"time": 134881, "pitch": 54, "duration": 10, "velocity": 92}, {"time": 135841, "pitch": 54, "duration": 10, "velocity": 92}, {"time": 136801, "pitch": 54, "duration": 10, "velocity": 92}, {"time": 137761, "pitch": 54, "duration": 10, "velocity": 92}, {"time": 138721, "pitch": 54, "duration": 10, "velocity": 92}, {"time": 139681, "pitch": 54, "duration": 10, "velocity": 92}, {"time": 140641, "pitch": 54, "duration": 10, "velocity": 92}, {"time": 141600, "pitch": 54, "duration": 10, "velocity": 92}, {"time": 142560, "pitch": 54, "duration": 10, "velocity": 92}, {"time": 143520, "pitch": 54, "duration": 10, "velocity": 92}, {"time": 144480, "pitch": 54, "duration": 10, "velocity": 92}, {"time": 145440, "pitch": 54, "duration": 10, "velocity": 92}, {"time": 146400, "pitch": 54, "duration": 10, "velocity": 92}, {"time": 147360, "pitch": 54, "duration": 10, "velocity": 92}, {"time": 148320, "pitch": 54, "duration": 10, "velocity": 92}, {"time": 149280, "pitch": 54, "duration": 10, "velocity": 92}, {"time": 150240, "pitch": 54, "duration": 10, "velocity": 92}, {"time": 151200, "pitch": 54, "duration": 10, "velocity": 92}, {"time": 152160, "pitch": 54, "duration": 10, "velocity": 92}, {"time": 153120, "pitch": 54, "duration": 10, "velocity": 92}, {"time": 154080, "pitch": 54, "duration": 10, "velocity": 92}, {"time": 155040, "pitch": 54, "duration": 10, "velocity": 92}, {"time": 155520, "pitch": 80, "duration": 120, "velocity": 64}, {"time": 155640, "pitch": 80, "duration": 120, "velocity": 74}, {"time": 155760, "pitch": 81, "duration": 120, "velocity": 93}, {"time": 156000, "pitch": 54, "duration": 10, "velocity": 92}, {"time": 156000, "pitch": 80, "duration": 120, "velocity": 76}, {"time": 156120, "pitch": 80, "duration": 120, "velocity": 67}, {"time": 156240, "pitch": 81, "duration": 120, "velocity": 80}, {"time": 156480, "pitch": 80, "duration": 120, "velocity": 74}, {"time": 156600, "pitch": 80, "duration": 120, "velocity": 73}, {"time": 156720, "pitch": 81, "duration": 120, "velocity": 77}, {"time": 156960, "pitch": 54, "duration": 10, "velocity": 92}, {"time": 156960, "pitch": 80, "duration": 120, "velocity": 77}, {"time": 157080, "pitch": 80, "duration": 120, "velocity": 71}, {"time": 157200, "pitch": 81, "duration": 120, "velocity": 82}, {"time": 157440, "pitch": 80, "duration": 120, "velocity": 76}, {"time": 157560, "pitch": 80, "duration": 120, "velocity": 74}, {"time": 157680, "pitch": 81, "duration": 120, "velocity": 85}, {"time": 157920, "pitch": 54, "duration": 10, "velocity": 92}, {"time": 157920, "pitch": 80, "duration": 120, "velocity": 81}, {"time": 158040, "pitch": 80, "duration": 120, "velocity": 80}, {"time": 158160, "pitch": 81, "duration": 120, "velocity": 82}, {"time": 158400, "pitch": 80, "duration": 120, "velocity": 85}, {"time": 158520, "pitch": 80, "duration": 120, "velocity": 82}, {"time": 158640, "pitch": 81, "duration": 120, "velocity": 83}, {"time": 158880, "pitch": 54, "duration": 10, "velocity": 92}, {"time": 158880, "pitch": 80, "duration": 120, "velocity": 83}, {"time": 159000, "pitch": 80, "duration": 120, "velocity": 78}, {"time": 159120, "pitch": 81, "duration": 120, "velocity": 87}, {"time": 159360, "pitch": 80, "duration": 120, "velocity": 64}, {"time": 159480, "pitch": 80, "duration": 120, "velocity": 74}, {"time": 159600, "pitch": 81, "duration": 120, "velocity": 93}, {"time": 159840, "pitch": 54, "duration": 10, "velocity": 92}, {"time": 159840, "pitch": 80, "duration": 120, "velocity": 76}, {"time": 159960, "pitch": 80, "duration": 120, "velocity": 67}, {"time": 160080, "pitch": 81, "duration": 120, "velocity": 80}, {"time": 160320, "pitch": 80, "duration": 120, "velocity": 74}, {"time": 160440, "pitch": 80, "duration": 120, "velocity": 73}, {"time": 160560, "pitch": 81, "duration": 120, "velocity": 77}, {"time": 160800, "pitch": 54, "duration": 10, "velocity": 92}, {"time": 160800, "pitch": 80, "duration": 120, "velocity": 77}, {"time": 160920, "pitch": 80, "duration": 120, "velocity": 71}, {"time": 161040, "pitch": 81, "duration": 120, "velocity": 82}, {"time": 161280, "pitch": 80, "duration": 120, "velocity": 76}, {"time": 161400, "pitch": 80, "duration": 120, "velocity": 74}, {"time": 161520, "pitch": 81, "duration": 120, "velocity": 85}, {"time": 161760, "pitch": 54, "duration": 10, "velocity": 92}, {"time": 161760, "pitch": 80, "duration": 120, "velocity": 81}, {"time": 161880, "pitch": 80, "duration": 120, "velocity": 80}, {"time": 162000, "pitch": 81, "duration": 120, "velocity": 82}, {"time": 162240, "pitch": 80, "duration": 120, "velocity": 85}, {"time": 162360, "pitch": 80, "duration": 120, "velocity": 82}, {"time": 162480, "pitch": 81, "duration": 120, "velocity": 83}, {"time": 162720, "pitch": 54, "duration": 10, "velocity": 92}, {"time": 162720, "pitch": 80, "duration": 120, "velocity": 83}, {"time": 162840, "pitch": 80, "duration": 120, "velocity": 78}, {"time": 162960, "pitch": 81, "duration": 120, "velocity": 87}, {"time": 163200, "pitch": 80, "duration": 120, "velocity": 64}, {"time": 163320, "pitch": 80, "duration": 120, "velocity": 74}, {"time": 163440, "pitch": 81, "duration": 120, "velocity": 93}, {"time": 163680, "pitch": 54, "duration": 10, "velocity": 92}, {"time": 163680, "pitch": 80, "duration": 120, "velocity": 76}, {"time": 163800, "pitch": 80, "duration": 120, "velocity": 67}, {"time": 163920, "pitch": 81, "duration": 120, "velocity": 80}, {"time": 164160, "pitch": 80, "duration": 120, "velocity": 74}, {"time": 164280, "pitch": 80, "duration": 120, "velocity": 73}, {"time": 164400, "pitch": 81, "duration": 120, "velocity": 77}, {"time": 164640, "pitch": 54, "duration": 10, "velocity": 92}, {"time": 164640, "pitch": 80, "duration": 120, "velocity": 77}, {"time": 164760, "pitch": 80, "duration": 120, "velocity": 71}, {"time": 164880, "pitch": 81, "duration": 120, "velocity": 82}, {"time": 165119, "pitch": 80, "duration": 120, "velocity": 76}, {"time": 165239, "pitch": 80, "duration": 120, "velocity": 74}, {"time": 165359, "pitch": 81, "duration": 120, "velocity": 85}, {"time": 165599, "pitch": 54, "duration": 10, "velocity": 92}, {"time": 165599, "pitch": 80, "duration": 120, "velocity": 81}, {"time": 165719, "pitch": 80, "duration": 120, "velocity": 80}, {"time": 165839, "pitch": 81, "duration": 120, "velocity": 82}, {"time": 166079, "pitch": 80, "duration": 120, "velocity": 85}, {"time": 166199, "pitch": 80, "duration": 120, "velocity": 82}, {"time": 166319, "pitch": 81, "duration": 120, "velocity": 83}, {"time": 166559, "pitch": 54, "duration": 10, "velocity": 92}, {"time": 166559, "pitch": 80, "duration": 120, "velocity": 83}, {"time": 166679, "pitch": 80, "duration": 120, "velocity": 78}, {"time": 166799, "pitch": 81, "duration": 120, "velocity": 87}, {"time": 167039, "pitch": 80, "duration": 120, "velocity": 64}, {"time": 167159, "pitch": 80, "duration": 120, "velocity": 74}, {"time": 167279, "pitch": 81, "duration": 120, "velocity": 93}, {"time": 167519, "pitch": 54, "duration": 10, "velocity": 92}, {"time": 167519, "pitch": 80, "duration": 120, "velocity": 76}, {"time": 167639, "pitch": 80, "duration": 120, "velocity": 67}, {"time": 167759, "pitch": 81, "duration": 120, "velocity": 80}, {"time": 167999, "pitch": 80, "duration": 120, "velocity": 74}, {"time": 168119, "pitch": 80, "duration": 120, "velocity": 73}, {"time": 168239, "pitch": 81, "duration": 120, "velocity": 77}, {"time": 168479, "pitch": 54, "duration": 10, "velocity": 92}, {"time": 168479, "pitch": 80, "duration": 120, "velocity": 77}, {"time": 168599, "pitch": 80, "duration": 120, "velocity": 71}, {"time": 168719, "pitch": 81, "duration": 120, "velocity": 82}, {"time": 168959, "pitch": 80, "duration": 120, "velocity": 76}, {"time": 169079, "pitch": 80, "duration": 120, "velocity": 74}, {"time": 169199, "pitch": 81, "duration": 120, "velocity": 85}, {"time": 169439, "pitch": 54, "duration": 10, "velocity": 92}, {"time": 169439, "pitch": 80, "duration": 120, "velocity": 81}, {"time": 169559, "pitch": 80, "duration": 120, "velocity": 80}, {"time": 169679, "pitch": 81, "duration": 120, "velocity": 82}, {"time": 169919, "pitch": 80, "duration": 120, "velocity": 85}, {"time": 170039, "pitch": 80, "duration": 120, "velocity": 82}, {"time": 170159, "pitch": 81, "duration": 120, "velocity": 83}, {"time": 170399, "pitch": 54, "duration": 10, "velocity": 92}, {"time": 170399, "pitch": 80, "duration": 120, "velocity": 83}, {"time": 170519, "pitch": 80, "duration": 120, "velocity": 78}, {"time": 170639, "pitch": 81, "duration": 120, "velocity": 87}, {"time": 170879, "pitch": 80, "duration": 120, "velocity": 64}, {"time": 170999, "pitch": 80, "duration": 120, "velocity": 74}, {"time": 171119, "pitch": 81, "duration": 120, "velocity": 93}, {"time": 171359, "pitch": 54, "duration": 10, "velocity": 92}, {"time": 171359, "pitch": 80, "duration": 120, "velocity": 76}, {"time": 171479, "pitch": 80, "duration": 120, "velocity": 67}, {"time": 171599, "pitch": 81, "duration": 120, "velocity": 80}, {"time": 171839, "pitch": 80, "duration": 120, "velocity": 74}, {"time": 171959, "pitch": 80, "duration": 120, "velocity": 73}, {"time": 172079, "pitch": 81, "duration": 120, "velocity": 77}, {"time": 172319, "pitch": 54, "duration": 10, "velocity": 92}, {"time": 172319, "pitch": 80, "duration": 120, "velocity": 77}, {"time": 172439, "pitch": 80, "duration": 120, "velocity": 71}, {"time": 172559, "pitch": 81, "duration": 120, "velocity": 82}, {"time": 172799, "pitch": 80, "duration": 120, "velocity": 76}, {"time": 172919, "pitch": 80, "duration": 120, "velocity": 74}, {"time": 173039, "pitch": 81, "duration": 120, "velocity": 85}, {"time": 173279, "pitch": 54, "duration": 10, "velocity": 92}, {"time": 173279, "pitch": 80, "duration": 120, "velocity": 81}, {"time": 173399, "pitch": 80, "duration": 120, "velocity": 80}, {"time": 173519, "pitch": 81, "duration": 120, "velocity": 82}, {"time": 173759, "pitch": 80, "duration": 120, "velocity": 85}, {"time": 173879, "pitch": 80, "duration": 120, "velocity": 82}, {"time": 173999, "pitch": 81, "duration": 120, "velocity": 83}, {"time": 174239, "pitch": 54, "duration": 10, "velocity": 92}, {"time": 174239, "pitch": 80, "duration": 120, "velocity": 83}, {"time": 174359, "pitch": 80, "duration": 120, "velocity": 78}, {"time": 174479, "pitch": 81, "duration": 120, "velocity": 87}, {"time": 174719, "pitch": 80, "duration": 120, "velocity": 64}, {"time": 174839, "pitch": 80, "duration": 120, "velocity": 74}, {"time": 174959, "pitch": 81, "duration": 120, "velocity": 93}, {"time": 175199, "pitch": 54, "duration": 10, "velocity": 92}, {"time": 175199, "pitch": 80, "duration": 120, "velocity": 76}, {"time": 175319, "pitch": 80, "duration": 120, "velocity": 67}, {"time": 175439, "pitch": 81, "duration": 120, "velocity": 80}, {"time": 175679, "pitch": 80, "duration": 120, "velocity": 74}, {"time": 175799, "pitch": 80, "duration": 120, "velocity": 73}, {"time": 175919, "pitch": 81, "duration": 120, "velocity": 77}, {"time": 176159, "pitch": 54, "duration": 10, "velocity": 92}, {"time": 176159, "pitch": 80, "duration": 120, "velocity": 77}, {"time": 176279, "pitch": 80, "duration": 120, "velocity": 71}, {"time": 176399, "pitch": 81, "duration": 120, "velocity": 82}, {"time": 176639, "pitch": 80, "duration": 120, "velocity": 76}, {"time": 176759, "pitch": 80, "duration": 120, "velocity": 74}, {"time": 176879, "pitch": 81, "duration": 120, "velocity": 85}, {"time": 177119, "pitch": 54, "duration": 10, "velocity": 92}, {"time": 177119, "pitch": 80, "duration": 120, "velocity": 81}, {"time": 177239, "pitch": 80, "duration": 120, "velocity": 80}, {"time": 177359, "pitch": 81, "duration": 120, "velocity": 82}, {"time": 177599, "pitch": 80, "duration": 120, "velocity": 85}, {"time": 177719, "pitch": 80, "duration": 120, "velocity": 82}, {"time": 177839, "pitch": 81, "duration": 120, "velocity": 83}, {"time": 178079, "pitch": 54, "duration": 10, "velocity": 92}, {"time": 178079, "pitch": 80, "duration": 120, "velocity": 83}, {"time": 178199, "pitch": 80, "duration": 120, "velocity": 78}, {"time": 178319, "pitch": 81, "duration": 120, "velocity": 87}, {"time": 178559, "pitch": 80, "duration": 120, "velocity": 64}, {"time": 178679, "pitch": 80, "duration": 120, "velocity": 74}, {"time": 178799, "pitch": 81, "duration": 120, "velocity": 93}, {"time": 179039, "pitch": 54, "duration": 10, "velocity": 92}, {"time": 179039, "pitch": 80, "duration": 119, "velocity": 76}, {"time": 179158, "pitch": 80, "duration": 121, "velocity": 67}, {"time": 179279, "pitch": 81, "duration": 119, "velocity": 80}, {"time": 179519, "pitch": 80, "duration": 120, "velocity": 74}, {"time": 179639, "pitch": 80, "duration": 120, "velocity": 73}, {"time": 179759, "pitch": 81, "duration": 120, "velocity": 77}, {"time": 179999, "pitch": 54, "duration": 10, "velocity": 92}, {"time": 179999, "pitch": 80, "duration": 120, "velocity": 77}, {"time": 180119, "pitch": 80, "duration": 120, "velocity": 71}, {"time": 180239, "pitch": 81, "duration": 120, "velocity": 82}, {"time": 180479, "pitch": 80, "duration": 119, "velocity": 64}, {"time": 180598, "pitch": 80, "duration": 121, "velocity": 74}, {"time": 180719, "pitch": 81, "duration": 119, "velocity": 93}, {"time": 180959, "pitch": 54, "duration": 10, "velocity": 92}, {"time": 180959, "pitch": 80, "duration": 120, "velocity": 76}, {"time": 181079, "pitch": 80, "duration": 120, "velocity": 67}, {"time": 181199, "pitch": 81, "duration": 120, "velocity": 80}, {"time": 181439, "pitch": 80, "duration": 120, "velocity": 74}, {"time": 181559, "pitch": 80, "duration": 120, "velocity": 73}, {"time": 181679, "pitch": 81, "duration": 120, "velocity": 77}, {"time": 181919, "pitch": 54, "duration": 8, "velocity": 92}, {"time": 181919, "pitch": 81, "duration": 92, "velocity": 78}]}]}