{"metadata": {"schema_version": "0.1", "title": "RWC-MDB-P-2001 No. 92: I'll be there for you / Betty", "copyright": "RWC Music Database. Copyright (C) 2001 Real World Computing Partnership (contact: Masataka GOTO <m.goto@aist.go.jp>)", "source_filename": "RM-P092.SMF_SYNC.MID", "source_format": "midi"}, "resolution": 480, "tempos": [{"time": 0, "qpm": 58.8235294117647}, {"time": 480, "qpm": 136.36363636363637}, {"time": 960, "qpm": 133.33333333333334}, {"time": 1440, "qpm": 136.36363636363637}, {"time": 1920, "qpm": 133.33333333333334}, {"time": 3840, "qpm": 136.36363636363637}, {"time": 4320, "qpm": 133.33333333333334}, {"time": 6720, "qpm": 136.36363636363637}, {"time": 7200, "qpm": 133.33333333333334}, {"time": 8160, "qpm": 136.36363636363637}, {"time": 8640, "qpm": 133.33333333333334}, {"time": 10080, "qpm": 136.36363636363637}, {"time": 10560, "qpm": 133.33333333333334}, {"time": 12480, "qpm": 136.36363636363637}, {"time": 12960, "qpm": 133.33333333333334}, {"time": 14400, "qpm": 136.36363636363637}, {"time": 14880, "qpm": 133.33333333333334}, {"time": 16800, "qpm": 136.36363636363637}, {"time": 17280, "qpm": 133.33333333333334}, {"time": 18720, "qpm": 136.36363636363637}, {"time": 19200, "qpm": 133.33333333333334}, {"time": 20640, "qpm": 136.36363636363637}, {"time": 21120, "qpm": 133.33333333333334}, {"time": 23040, "qpm": 136.36363636363637}, {"time": 23520, "qpm": 133.33333333333334}, {"time": 24960, "qpm": 136.36363636363637}, {"time": 25440, "qpm": 133.33333333333334}, {"time": 27360, "qpm": 136.36363636363637}, {"time": 27840, "qpm": 133.33333333333334}, {"time": 29760, "qpm": 136.36363636363637}, {"time": 30240, "qpm": 133.33333333333334}, {"time": 31680, "qpm": 136.36363636363637}, {"time": 32160, "qpm": 133.33333333333334}, {"time": 34080, "qpm": 136.36363636363637}, {"time": 34560, "qpm": 133.33333333333334}, {"time": 36000, "qpm": 136.36363636363637}, {"time": 36480, "qpm": 133.33333333333334}, {"time": 37920, "qpm": 136.36363636363637}, {"time": 38400, "qpm": 133.33333333333334}, {"time": 40320, "qpm": 136.36363636363637}, {"time": 40800, "qpm": 133.33333333333334}, {"time": 42240, "qpm": 136.36363636363637}, {"time": 42720, "qpm": 133.33333333333334}, {"time": 44640, "qpm": 136.36363636363637}, {"time": 45120, "qpm": 133.33333333333334}, {"time": 46560, "qpm": 136.36363636363637}, {"time": 47040, "qpm": 133.33333333333334}, {"time": 48960, "qpm": 136.36363636363637}, {"time": 49440, "qpm": 133.33333333333334}, {"time": 51360, "qpm": 136.36363636363637}, {"time": 51840, "qpm": 133.33333333333334}, {"time": 53280, "qpm": 136.36363636363637}, {"time": 53760, "qpm": 133.33333333333334}, {"time": 55200, "qpm": 136.36363636363637}, {"time": 55680, "qpm": 133.33333333333334}, {"time": 57600, "qpm": 136.36363636363637}, {"time": 58080, "qpm": 133.33333333333334}, {"time": 59520, "qpm": 136.36363636363637}, {"time": 60000, "qpm": 133.33333333333334}, {"time": 61920, "qpm": 136.36363636363637}, {"time": 62400, "qpm": 133.33333333333334}, {"time": 63840, "qpm": 136.36363636363637}, {"time": 64320, "qpm": 133.33333333333334}, {"time": 66240, "qpm": 136.36363636363637}, {"time": 66720, "qpm": 133.33333333333334}, {"time": 68160, "qpm": 136.36363636363637}, {"time": 68640, "qpm": 133.33333333333334}, {"time": 70560, "qpm": 136.36363636363637}, {"time": 71040, "qpm": 133.33333333333334}, {"time": 72480, "qpm": 136.36363636363637}, {"time": 72960, "qpm": 133.33333333333334}, {"time": 74400, "qpm": 136.36363636363637}, {"time": 74880, "qpm": 133.33333333333334}, {"time": 76800, "qpm": 136.36363636363637}, {"time": 77280, "qpm": 133.33333333333334}, {"time": 78720, "qpm": 136.36363636363637}, {"time": 79200, "qpm": 133.33333333333334}, {"time": 81120, "qpm": 136.36363636363637}, {"time": 81600, "qpm": 133.33333333333334}, {"time": 83040, "qpm": 136.36363636363637}, {"time": 83520, "qpm": 133.33333333333334}, {"time": 84960, "qpm": 136.36363636363637}, {"time": 85440, "qpm": 133.33333333333334}, {"time": 87360, "qpm": 136.36363636363637}, {"time": 87840, "qpm": 133.33333333333334}, {"time": 89760, "qpm": 136.36363636363637}, {"time": 90240, "qpm": 133.33333333333334}, {"time": 91680, "qpm": 136.36363636363637}, {"time": 92160, "qpm": 133.33333333333334}, {"time": 93600, "qpm": 136.36363636363637}, {"time": 94080, "qpm": 130.43478260869566}, {"time": 94560, "qpm": 136.36363636363637}, {"time": 95040, "qpm": 133.33333333333334}, {"time": 96000, "qpm": 136.36363636363637}, {"time": 96480, "qpm": 133.33333333333334}, {"time": 97920, "qpm": 136.36363636363637}, {"time": 98400, "qpm": 133.33333333333334}, {"time": 100320, "qpm": 136.36363636363637}, {"time": 100800, "qpm": 133.33333333333334}, {"time": 102240, "qpm": 136.36363636363637}, {"time": 102720, "qpm": 133.33333333333334}, {"time": 104640, "qpm": 136.36363636363637}, {"time": 105120, "qpm": 133.33333333333334}, {"time": 106560, "qpm": 136.36363636363637}, {"time": 107040, "qpm": 133.33333333333334}, {"time": 108480, "qpm": 136.36363636363637}, {"time": 108960, "qpm": 133.33333333333334}, {"time": 110880, "qpm": 136.36363636363637}, {"time": 111360, "qpm": 133.33333333333334}, {"time": 112800, "qpm": 136.36363636363637}, {"time": 113280, "qpm": 130.43478260869566}, {"time": 113760, "qpm": 136.36363636363637}, {"time": 114240, "qpm": 133.33333333333334}, {"time": 115200, "qpm": 136.36363636363637}, {"time": 115680, "qpm": 133.33333333333334}, {"time": 117600, "qpm": 136.36363636363637}, {"time": 118080, "qpm": 133.33333333333334}, {"time": 119520, "qpm": 136.36363636363637}, {"time": 120000, "qpm": 133.33333333333334}, {"time": 121920, "qpm": 136.36363636363637}, {"time": 122400, "qpm": 133.33333333333334}, {"time": 123840, "qpm": 136.36363636363637}, {"time": 124320, "qpm": 133.33333333333334}, {"time": 126240, "qpm": 136.36363636363637}, {"time": 126720, "qpm": 133.33333333333334}, {"time": 128160, "qpm": 136.36363636363637}, {"time": 128640, "qpm": 133.33333333333334}, {"time": 130080, "qpm": 136.36363636363637}, {"time": 130560, "qpm": 133.33333333333334}, {"time": 132480, "qpm": 136.36363636363637}, {"time": 132960, "qpm": 133.33333333333334}, {"time": 134880, "qpm": 136.36363636363637}, {"time": 135360, "qpm": 133.33333333333334}, {"time": 136800, "qpm": 136.36363636363637}, {"time": 137280, "qpm": 133.33333333333334}, {"time": 139200, "qpm": 136.36363636363637}, {"time": 139680, "qpm": 133.33333333333334}, {"time": 141120, "qpm": 136.36363636363637}, {"time": 141600, "qpm": 133.33333333333334}, {"time": 143040, "qpm": 136.36363636363637}, {"time": 143520, "qpm": 133.33333333333334}, {"time": 145440, "qpm": 136.36363636363637}, {"time": 145920, "qpm": 133.33333333333334}, {"time": 147360, "qpm": 136.36363636363637}, {"time": 147840, "qpm": 133.33333333333334}, {"time": 149280, "qpm": 136.36363636363637}, {"time": 149760, "qpm": 133.33333333333334}, {"time": 152160, "qpm": 136.36363636363637}, {"time": 152640, "qpm": 133.33333333333334}, {"time": 153600, "qpm": 136.36363636363637}, {"time": 154080, "qpm": 133.33333333333334}, {"time": 156000, "qpm": 136.36363636363637}, {"time": 156480, "qpm": 133.33333333333334}, {"time": 158400, "qpm": 136.36363636363637}, {"time": 158880, "qpm": 133.33333333333334}, {"time": 160320, "qpm": 136.36363636363637}, {"time": 160800, "qpm": 133.33333333333334}, {"time": 162240, "qpm": 136.36363636363637}, {"time": 162720, "qpm": 133.33333333333334}, {"time": 164640, "qpm": 136.36363636363637}, {"time": 165120, "qpm": 133.33333333333334}, {"time": 166560, "qpm": 136.36363636363637}, {"time": 167040, "qpm": 133.33333333333334}, {"time": 168960, "qpm": 136.36363636363637}, {"time": 169440, "qpm": 133.33333333333334}, {"time": 170880, "qpm": 136.36363636363637}, {"time": 171360, "qpm": 133.33333333333334}, {"time": 173280, "qpm": 136.36363636363637}, {"time": 173760, "qpm": 133.33333333333334}, {"time": 175200, "qpm": 136.36363636363637}, {"time": 175680, "qpm": 133.33333333333334}, {"time": 177600, "qpm": 136.36363636363637}, {"time": 178080, "qpm": 133.33333333333334}, {"time": 179520, "qpm": 136.36363636363637}, {"time": 180000, "qpm": 133.33333333333334}, {"time": 181920, "qpm": 136.36363636363637}, {"time": 182400, "qpm": 133.33333333333334}, {"time": 183840, "qpm": 136.36363636363637}, {"time": 184320, "qpm": 133.33333333333334}, {"time": 186240, "qpm": 136.36363636363637}, {"time": 186720, "qpm": 133.33333333333334}, {"time": 188160, "qpm": 136.36363636363637}, {"time": 188640, "qpm": 133.33333333333334}, {"time": 190560, "qpm": 136.36363636363637}, {"time": 191040, "qpm": 133.33333333333334}, {"time": 192480, "qpm": 136.36363636363637}, {"time": 192960, "qpm": 133.33333333333334}, {"time": 194880, "qpm": 136.36363636363637}, {"time": 195360, "qpm": 133.33333333333334}, {"time": 196800, "qpm": 136.36363636363637}, {"time": 197280, "qpm": 133.33333333333334}, {"time": 198720, "qpm": 136.36363636363637}, {"time": 199200, "qpm": 133.33333333333334}, {"time": 201600, "qpm": 136.36363636363637}, {"time": 202080, "qpm": 133.33333333333334}, {"time": 203040, "qpm": 136.36363636363637}, {"time": 203520, "qpm": 133.33333333333334}, {"time": 205440, "qpm": 136.36363636363637}, {"time": 205920, "qpm": 133.33333333333334}, {"time": 207360, "qpm": 136.36363636363637}, {"time": 207840, "qpm": 133.33333333333334}, {"time": 209760, "qpm": 136.36363636363637}, {"time": 210240, "qpm": 133.33333333333334}, {"time": 212160, "qpm": 136.36363636363637}, {"time": 212640, "qpm": 133.33333333333334}, {"time": 214080, "qpm": 136.36363636363637}, {"time": 214560, "qpm": 133.33333333333334}, {"time": 216000, "qpm": 136.36363636363637}, {"time": 216480, "qpm": 133.33333333333334}, {"time": 217920, "qpm": 136.36363636363637}, {"time": 218400, "qpm": 133.33333333333334}, {"time": 220320, "qpm": 136.36363636363637}, {"time": 220800, "qpm": 133.33333333333334}, {"time": 222720, "qpm": 136.36363636363637}, {"time": 223200, "qpm": 133.33333333333334}, {"time": 224640, "qpm": 136.36363636363637}, {"time": 225120, "qpm": 133.33333333333334}, {"time": 226560, "qpm": 136.36363636363637}, {"time": 227040, "qpm": 133.33333333333334}, {"time": 228960, "qpm": 136.36363636363637}, {"time": 229440, "qpm": 133.33333333333334}], "key_signatures": [{"time": 0, "root": 0, "mode": "major"}], "time_signatures": [{"time": 0, "numerator": 3, "denominator": 4}, {"time": 1440, "numerator": 4, "denominator": 4}], "tracks": [{"program": 0, "is_drum": false, "name": "Piano", "notes": [{"time": 18722, "pitch": 41, "duration": 955, "velocity": 120}, {"time": 18722, "pitch": 53, "duration": 238, "velocity": 120}, {"time": 18722, "pitch": 60, "duration": 238, "velocity": 120}, {"time": 18722, "pitch": 63, "duration": 238, "velocity": 120}, {"time": 18722, "pitch": 68, "duration": 238, "velocity": 120}, {"time": 18960, "pitch": 53, "duration": 239, "velocity": 120}, {"time": 19199, "pitch": 60, "duration": 239, "velocity": 120}, {"time": 19199, "pitch": 63, "duration": 239, "velocity": 120}, {"time": 19199, "pitch": 68, "duration": 239, "velocity": 120}, {"time": 19438, "pitch": 53, "duration": 239, "velocity": 120}, {"time": 19677, "pitch": 39, "duration": 727, "velocity": 120}, {"time": 19677, "pitch": 51, "duration": 244, "velocity": 120}, {"time": 19677, "pitch": 58, "duration": 366, "velocity": 120}, {"time": 19677, "pitch": 60, "duration": 366, "velocity": 120}, {"time": 19677, "pitch": 65, "duration": 244, "velocity": 120}, {"time": 19921, "pitch": 51, "duration": 122, "velocity": 120}, {"time": 20043, "pitch": 58, "duration": 122, "velocity": 120}, {"time": 20043, "pitch": 60, "duration": 122, "velocity": 120}, {"time": 20043, "pitch": 65, "duration": 122, "velocity": 120}, {"time": 20165, "pitch": 51, "duration": 239, "velocity": 120}, {"time": 20404, "pitch": 37, "duration": 1552, "velocity": 120}, {"time": 20404, "pitch": 49, "duration": 478, "velocity": 120}, {"time": 20404, "pitch": 56, "duration": 478, "velocity": 120}, {"time": 20404, "pitch": 58, "duration": 478, "velocity": 120}, {"time": 20404, "pitch": 63, "duration": 716, "velocity": 120}, {"time": 20882, "pitch": 49, "duration": 238, "velocity": 120}, {"time": 21120, "pitch": 56, "duration": 239, "velocity": 120}, {"time": 21120, "pitch": 58, "duration": 239, "velocity": 120}, {"time": 21120, "pitch": 63, "duration": 239, "velocity": 120}, {"time": 21359, "pitch": 49, "duration": 239, "velocity": 120}, {"time": 21598, "pitch": 56, "duration": 239, "velocity": 120}, {"time": 21598, "pitch": 58, "duration": 239, "velocity": 120}, {"time": 21598, "pitch": 63, "duration": 239, "velocity": 120}, {"time": 21837, "pitch": 49, "duration": 119, "velocity": 120}, {"time": 21956, "pitch": 39, "duration": 486, "velocity": 120}, {"time": 21956, "pitch": 51, "duration": 242, "velocity": 120}, {"time": 21956, "pitch": 58, "duration": 242, "velocity": 120}, {"time": 21956, "pitch": 60, "duration": 242, "velocity": 120}, {"time": 21956, "pitch": 65, "duration": 242, "velocity": 120}, {"time": 22198, "pitch": 51, "duration": 122, "velocity": 120}, {"time": 22320, "pitch": 58, "duration": 122, "velocity": 120}, {"time": 22320, "pitch": 60, "duration": 122, "velocity": 120}, {"time": 22320, "pitch": 65, "duration": 122, "velocity": 120}, {"time": 22442, "pitch": 51, "duration": 122, "velocity": 120}, {"time": 22564, "pitch": 41, "duration": 955, "velocity": 120}, {"time": 22564, "pitch": 53, "duration": 239, "velocity": 120}, {"time": 22564, "pitch": 60, "duration": 239, "velocity": 120}, {"time": 22564, "pitch": 63, "duration": 239, "velocity": 120}, {"time": 22564, "pitch": 68, "duration": 239, "velocity": 120}, {"time": 22803, "pitch": 53, "duration": 238, "velocity": 120}, {"time": 23041, "pitch": 60, "duration": 239, "velocity": 120}, {"time": 23041, "pitch": 63, "duration": 478, "velocity": 120}, {"time": 23041, "pitch": 68, "duration": 239, "velocity": 120}, {"time": 23280, "pitch": 53, "duration": 239, "velocity": 120}, {"time": 23519, "pitch": 44, "duration": 478, "velocity": 120}, {"time": 23519, "pitch": 56, "duration": 239, "velocity": 120}, {"time": 23519, "pitch": 60, "duration": 239, "velocity": 120}, {"time": 23519, "pitch": 65, "duration": 239, "velocity": 120}, {"time": 23519, "pitch": 70, "duration": 358, "velocity": 120}, {"time": 23758, "pitch": 56, "duration": 119, "velocity": 120}, {"time": 23877, "pitch": 60, "duration": 120, "velocity": 120}, {"time": 23877, "pitch": 65, "duration": 120, "velocity": 120}, {"time": 23877, "pitch": 70, "duration": 120, "velocity": 120}, {"time": 23997, "pitch": 56, "duration": 244, "velocity": 120}, {"time": 24241, "pitch": 37, "duration": 1438, "velocity": 120}, {"time": 24241, "pitch": 49, "duration": 483, "velocity": 120}, {"time": 24241, "pitch": 58, "duration": 483, "velocity": 120}, {"time": 24241, "pitch": 60, "duration": 483, "velocity": 120}, {"time": 24241, "pitch": 65, "duration": 483, "velocity": 120}, {"time": 24724, "pitch": 49, "duration": 239, "velocity": 120}, {"time": 24963, "pitch": 58, "duration": 238, "velocity": 120}, {"time": 24963, "pitch": 60, "duration": 238, "velocity": 120}, {"time": 24963, "pitch": 65, "duration": 238, "velocity": 120}, {"time": 25201, "pitch": 49, "duration": 239, "velocity": 120}, {"time": 25440, "pitch": 58, "duration": 358, "velocity": 120}, {"time": 25440, "pitch": 60, "duration": 239, "velocity": 120}, {"time": 25440, "pitch": 65, "duration": 239, "velocity": 120}, {"time": 25679, "pitch": 49, "duration": 119, "velocity": 120}, {"time": 25798, "pitch": 39, "duration": 478, "velocity": 120}, {"time": 25798, "pitch": 51, "duration": 239, "velocity": 120}, {"time": 25798, "pitch": 56, "duration": 239, "velocity": 120}, {"time": 25798, "pitch": 58, "duration": 239, "velocity": 120}, {"time": 25798, "pitch": 63, "duration": 239, "velocity": 120}, {"time": 26037, "pitch": 51, "duration": 120, "velocity": 120}, {"time": 26157, "pitch": 56, "duration": 119, "velocity": 120}, {"time": 26157, "pitch": 58, "duration": 119, "velocity": 120}, {"time": 26157, "pitch": 63, "duration": 119, "velocity": 120}, {"time": 26276, "pitch": 51, "duration": 119, "velocity": 120}, {"time": 26395, "pitch": 41, "duration": 966, "velocity": 120}, {"time": 26395, "pitch": 53, "duration": 244, "velocity": 120}, {"time": 26395, "pitch": 60, "duration": 244, "velocity": 120}, {"time": 26395, "pitch": 63, "duration": 244, "velocity": 120}, {"time": 26395, "pitch": 68, "duration": 244, "velocity": 120}, {"time": 26639, "pitch": 53, "duration": 245, "velocity": 120}, {"time": 26884, "pitch": 60, "duration": 238, "velocity": 120}, {"time": 26884, "pitch": 63, "duration": 238, "velocity": 120}, {"time": 26884, "pitch": 68, "duration": 238, "velocity": 120}, {"time": 27122, "pitch": 53, "duration": 239, "velocity": 120}, {"time": 27361, "pitch": 39, "duration": 717, "velocity": 120}, {"time": 27361, "pitch": 51, "duration": 239, "velocity": 120}, {"time": 27361, "pitch": 58, "duration": 239, "velocity": 120}, {"time": 27361, "pitch": 60, "duration": 239, "velocity": 120}, {"time": 27361, "pitch": 65, "duration": 239, "velocity": 120}, {"time": 27600, "pitch": 51, "duration": 119, "velocity": 120}, {"time": 27719, "pitch": 58, "duration": 120, "velocity": 120}, {"time": 27719, "pitch": 60, "duration": 120, "velocity": 120}, {"time": 27719, "pitch": 65, "duration": 120, "velocity": 120}, {"time": 27839, "pitch": 51, "duration": 239, "velocity": 120}, {"time": 28078, "pitch": 37, "duration": 1563, "velocity": 120}, {"time": 28078, "pitch": 49, "duration": 483, "velocity": 120}, {"time": 28078, "pitch": 56, "duration": 483, "velocity": 120}, {"time": 28078, "pitch": 58, "duration": 483, "velocity": 120}, {"time": 28078, "pitch": 63, "duration": 727, "velocity": 120}, {"time": 28561, "pitch": 49, "duration": 244, "velocity": 120}, {"time": 28805, "pitch": 56, "duration": 239, "velocity": 120}, {"time": 28805, "pitch": 58, "duration": 239, "velocity": 120}, {"time": 28805, "pitch": 63, "duration": 239, "velocity": 120}, {"time": 29044, "pitch": 49, "duration": 238, "velocity": 120}, {"time": 29282, "pitch": 56, "duration": 239, "velocity": 120}, {"time": 29282, "pitch": 58, "duration": 239, "velocity": 120}, {"time": 29282, "pitch": 63, "duration": 359, "velocity": 120}, {"time": 29521, "pitch": 49, "duration": 120, "velocity": 120}, {"time": 29641, "pitch": 39, "duration": 597, "velocity": 120}, {"time": 29641, "pitch": 51, "duration": 358, "velocity": 120}, {"time": 29641, "pitch": 58, "duration": 358, "velocity": 120}, {"time": 29641, "pitch": 60, "duration": 358, "velocity": 120}, {"time": 29641, "pitch": 65, "duration": 358, "velocity": 120}, {"time": 29999, "pitch": 51, "duration": 239, "velocity": 120}, {"time": 29999, "pitch": 58, "duration": 239, "velocity": 120}, {"time": 29999, "pitch": 60, "duration": 239, "velocity": 120}, {"time": 29999, "pitch": 65, "duration": 239, "velocity": 120}, {"time": 30238, "pitch": 41, "duration": 965, "velocity": 120}, {"time": 30238, "pitch": 53, "duration": 238, "velocity": 120}, {"time": 30238, "pitch": 60, "duration": 238, "velocity": 120}, {"time": 30238, "pitch": 63, "duration": 238, "velocity": 120}, {"time": 30238, "pitch": 68, "duration": 238, "velocity": 120}, {"time": 30476, "pitch": 53, "duration": 239, "velocity": 120}, {"time": 30715, "pitch": 60, "duration": 244, "velocity": 120}, {"time": 30715, "pitch": 63, "duration": 488, "velocity": 120}, {"time": 30715, "pitch": 68, "duration": 244, "velocity": 120}, {"time": 30959, "pitch": 53, "duration": 244, "velocity": 120}, {"time": 31203, "pitch": 44, "duration": 478, "velocity": 120}, {"time": 31203, "pitch": 56, "duration": 239, "velocity": 120}, {"time": 31203, "pitch": 60, "duration": 239, "velocity": 120}, {"time": 31203, "pitch": 65, "duration": 239, "velocity": 120}, {"time": 31203, "pitch": 70, "duration": 359, "velocity": 120}, {"time": 31442, "pitch": 56, "duration": 120, "velocity": 120}, {"time": 31562, "pitch": 60, "duration": 119, "velocity": 120}, {"time": 31562, "pitch": 65, "duration": 119, "velocity": 120}, {"time": 31562, "pitch": 70, "duration": 119, "velocity": 120}, {"time": 31681, "pitch": 56, "duration": 239, "velocity": 120}, {"time": 31920, "pitch": 37, "duration": 1443, "velocity": 120}, {"time": 31920, "pitch": 49, "duration": 478, "velocity": 120}, {"time": 31920, "pitch": 58, "duration": 478, "velocity": 120}, {"time": 31920, "pitch": 60, "duration": 478, "velocity": 120}, {"time": 31920, "pitch": 65, "duration": 478, "velocity": 120}, {"time": 32398, "pitch": 49, "duration": 238, "velocity": 120}, {"time": 32636, "pitch": 58, "duration": 244, "velocity": 120}, {"time": 32636, "pitch": 60, "duration": 244, "velocity": 120}, {"time": 32636, "pitch": 65, "duration": 244, "velocity": 120}, {"time": 32880, "pitch": 49, "duration": 245, "velocity": 120}, {"time": 33125, "pitch": 58, "duration": 358, "velocity": 120}, {"time": 33125, "pitch": 60, "duration": 238, "velocity": 120}, {"time": 33125, "pitch": 65, "duration": 238, "velocity": 120}, {"time": 33363, "pitch": 49, "duration": 120, "velocity": 120}, {"time": 33483, "pitch": 39, "duration": 477, "velocity": 120}, {"time": 33483, "pitch": 51, "duration": 239, "velocity": 120}, {"time": 33483, "pitch": 56, "duration": 239, "velocity": 120}, {"time": 33483, "pitch": 58, "duration": 239, "velocity": 120}, {"time": 33483, "pitch": 63, "duration": 239, "velocity": 120}, {"time": 33722, "pitch": 51, "duration": 119, "velocity": 120}, {"time": 33841, "pitch": 56, "duration": 119, "velocity": 120}, {"time": 33841, "pitch": 58, "duration": 119, "velocity": 120}, {"time": 33841, "pitch": 63, "duration": 119, "velocity": 120}, {"time": 33960, "pitch": 51, "duration": 120, "velocity": 120}, {"time": 34080, "pitch": 41, "duration": 955, "velocity": 120}, {"time": 34080, "pitch": 53, "duration": 239, "velocity": 120}, {"time": 34080, "pitch": 60, "duration": 239, "velocity": 120}, {"time": 34080, "pitch": 63, "duration": 239, "velocity": 120}, {"time": 34080, "pitch": 68, "duration": 239, "velocity": 120}, {"time": 34319, "pitch": 53, "duration": 238, "velocity": 120}, {"time": 34557, "pitch": 60, "duration": 239, "velocity": 120}, {"time": 34557, "pitch": 63, "duration": 239, "velocity": 120}, {"time": 34557, "pitch": 68, "duration": 239, "velocity": 120}, {"time": 34796, "pitch": 53, "duration": 239, "velocity": 120}, {"time": 35035, "pitch": 39, "duration": 727, "velocity": 120}, {"time": 35035, "pitch": 51, "duration": 244, "velocity": 120}, {"time": 35035, "pitch": 58, "duration": 366, "velocity": 120}, {"time": 35035, "pitch": 60, "duration": 366, "velocity": 120}, {"time": 35035, "pitch": 65, "duration": 244, "velocity": 120}, {"time": 35279, "pitch": 51, "duration": 122, "velocity": 120}, {"time": 35401, "pitch": 58, "duration": 122, "velocity": 120}, {"time": 35401, "pitch": 60, "duration": 122, "velocity": 120}, {"time": 35401, "pitch": 65, "duration": 122, "velocity": 120}, {"time": 35523, "pitch": 51, "duration": 239, "velocity": 120}, {"time": 35762, "pitch": 37, "duration": 1560, "velocity": 120}, {"time": 35762, "pitch": 49, "duration": 478, "velocity": 120}, {"time": 35762, "pitch": 56, "duration": 478, "velocity": 120}, {"time": 35762, "pitch": 58, "duration": 478, "velocity": 120}, {"time": 35762, "pitch": 63, "duration": 717, "velocity": 120}, {"time": 36240, "pitch": 49, "duration": 239, "velocity": 120}, {"time": 36479, "pitch": 56, "duration": 238, "velocity": 120}, {"time": 36479, "pitch": 58, "duration": 238, "velocity": 120}, {"time": 36479, "pitch": 63, "duration": 238, "velocity": 120}, {"time": 36717, "pitch": 49, "duration": 239, "velocity": 120}, {"time": 36956, "pitch": 56, "duration": 244, "velocity": 120}, {"time": 36956, "pitch": 58, "duration": 244, "velocity": 120}, {"time": 36956, "pitch": 63, "duration": 244, "velocity": 120}, {"time": 37200, "pitch": 49, "duration": 122, "velocity": 120}, {"time": 37322, "pitch": 39, "duration": 481, "velocity": 120}, {"time": 37322, "pitch": 51, "duration": 242, "velocity": 120}, {"time": 37322, "pitch": 58, "duration": 242, "velocity": 120}, {"time": 37322, "pitch": 60, "duration": 242, "velocity": 120}, {"time": 37322, "pitch": 65, "duration": 242, "velocity": 120}, {"time": 37564, "pitch": 51, "duration": 119, "velocity": 120}, {"time": 37683, "pitch": 58, "duration": 120, "velocity": 120}, {"time": 37683, "pitch": 60, "duration": 120, "velocity": 120}, {"time": 37683, "pitch": 65, "duration": 120, "velocity": 120}, {"time": 37803, "pitch": 51, "duration": 119, "velocity": 120}, {"time": 37922, "pitch": 41, "duration": 955, "velocity": 120}, {"time": 37922, "pitch": 53, "duration": 239, "velocity": 120}, {"time": 37922, "pitch": 60, "duration": 239, "velocity": 120}, {"time": 37922, "pitch": 63, "duration": 239, "velocity": 120}, {"time": 37922, "pitch": 68, "duration": 239, "velocity": 120}, {"time": 38161, "pitch": 53, "duration": 239, "velocity": 120}, {"time": 38400, "pitch": 60, "duration": 238, "velocity": 120}, {"time": 38400, "pitch": 63, "duration": 477, "velocity": 120}, {"time": 38400, "pitch": 68, "duration": 238, "velocity": 120}, {"time": 38638, "pitch": 53, "duration": 239, "velocity": 120}, {"time": 38877, "pitch": 44, "duration": 478, "velocity": 120}, {"time": 38877, "pitch": 56, "duration": 239, "velocity": 120}, {"time": 38877, "pitch": 60, "duration": 239, "velocity": 120}, {"time": 38877, "pitch": 65, "duration": 239, "velocity": 120}, {"time": 38877, "pitch": 70, "duration": 358, "velocity": 120}, {"time": 39116, "pitch": 56, "duration": 119, "velocity": 120}, {"time": 39235, "pitch": 60, "duration": 120, "velocity": 120}, {"time": 39235, "pitch": 65, "duration": 120, "velocity": 120}, {"time": 39235, "pitch": 70, "duration": 120, "velocity": 120}, {"time": 39355, "pitch": 56, "duration": 244, "velocity": 120}, {"time": 39599, "pitch": 37, "duration": 1438, "velocity": 120}, {"time": 39599, "pitch": 49, "duration": 483, "velocity": 120}, {"time": 39599, "pitch": 58, "duration": 483, "velocity": 120}, {"time": 39599, "pitch": 60, "duration": 483, "velocity": 120}, {"time": 39599, "pitch": 65, "duration": 483, "velocity": 120}, {"time": 40082, "pitch": 49, "duration": 239, "velocity": 120}, {"time": 40321, "pitch": 58, "duration": 239, "velocity": 120}, {"time": 40321, "pitch": 60, "duration": 239, "velocity": 120}, {"time": 40321, "pitch": 65, "duration": 239, "velocity": 120}, {"time": 40560, "pitch": 49, "duration": 238, "velocity": 120}, {"time": 40798, "pitch": 58, "duration": 359, "velocity": 120}, {"time": 40798, "pitch": 60, "duration": 239, "velocity": 120}, {"time": 40798, "pitch": 65, "duration": 239, "velocity": 120}, {"time": 41037, "pitch": 49, "duration": 120, "velocity": 120}, {"time": 41157, "pitch": 39, "duration": 485, "velocity": 120}, {"time": 41157, "pitch": 51, "duration": 241, "velocity": 120}, {"time": 41157, "pitch": 56, "duration": 241, "velocity": 120}, {"time": 41157, "pitch": 58, "duration": 241, "velocity": 120}, {"time": 41157, "pitch": 63, "duration": 241, "velocity": 120}, {"time": 41398, "pitch": 51, "duration": 122, "velocity": 120}, {"time": 41520, "pitch": 56, "duration": 122, "velocity": 120}, {"time": 41520, "pitch": 58, "duration": 122, "velocity": 120}, {"time": 41520, "pitch": 63, "duration": 122, "velocity": 120}, {"time": 41642, "pitch": 51, "duration": 122, "velocity": 120}, {"time": 41764, "pitch": 41, "duration": 956, "velocity": 120}, {"time": 41764, "pitch": 53, "duration": 239, "velocity": 120}, {"time": 41764, "pitch": 60, "duration": 239, "velocity": 120}, {"time": 41764, "pitch": 63, "duration": 239, "velocity": 120}, {"time": 41764, "pitch": 68, "duration": 239, "velocity": 120}, {"time": 42003, "pitch": 53, "duration": 239, "velocity": 120}, {"time": 42242, "pitch": 60, "duration": 239, "velocity": 120}, {"time": 42242, "pitch": 63, "duration": 239, "velocity": 120}, {"time": 42242, "pitch": 68, "duration": 239, "velocity": 120}, {"time": 42481, "pitch": 53, "duration": 239, "velocity": 120}, {"time": 42720, "pitch": 39, "duration": 716, "velocity": 120}, {"time": 42720, "pitch": 51, "duration": 238, "velocity": 120}, {"time": 42720, "pitch": 58, "duration": 238, "velocity": 120}, {"time": 42720, "pitch": 60, "duration": 238, "velocity": 120}, {"time": 42720, "pitch": 65, "duration": 238, "velocity": 120}, {"time": 42958, "pitch": 51, "duration": 120, "velocity": 120}, {"time": 43078, "pitch": 58, "duration": 119, "velocity": 120}, {"time": 43078, "pitch": 60, "duration": 119, "velocity": 120}, {"time": 43078, "pitch": 65, "duration": 119, "velocity": 120}, {"time": 43197, "pitch": 51, "duration": 239, "velocity": 120}, {"time": 43436, "pitch": 37, "duration": 1563, "velocity": 120}, {"time": 43436, "pitch": 49, "duration": 483, "velocity": 120}, {"time": 43436, "pitch": 56, "duration": 483, "velocity": 120}, {"time": 43436, "pitch": 58, "duration": 483, "velocity": 120}, {"time": 43436, "pitch": 63, "duration": 727, "velocity": 120}, {"time": 43919, "pitch": 49, "duration": 244, "velocity": 120}, {"time": 44163, "pitch": 56, "duration": 239, "velocity": 120}, {"time": 44163, "pitch": 58, "duration": 239, "velocity": 120}, {"time": 44163, "pitch": 63, "duration": 239, "velocity": 120}, {"time": 44402, "pitch": 49, "duration": 239, "velocity": 120}, {"time": 44641, "pitch": 56, "duration": 238, "velocity": 120}, {"time": 44641, "pitch": 58, "duration": 238, "velocity": 120}, {"time": 44641, "pitch": 63, "duration": 358, "velocity": 120}, {"time": 44879, "pitch": 49, "duration": 120, "velocity": 120}, {"time": 44999, "pitch": 39, "duration": 597, "velocity": 120}, {"time": 44999, "pitch": 51, "duration": 358, "velocity": 120}, {"time": 44999, "pitch": 58, "duration": 358, "velocity": 120}, {"time": 44999, "pitch": 60, "duration": 358, "velocity": 120}, {"time": 44999, "pitch": 65, "duration": 358, "velocity": 120}, {"time": 45357, "pitch": 51, "duration": 239, "velocity": 120}, {"time": 45357, "pitch": 58, "duration": 239, "velocity": 120}, {"time": 45357, "pitch": 60, "duration": 239, "velocity": 120}, {"time": 45357, "pitch": 65, "duration": 239, "velocity": 120}, {"time": 45596, "pitch": 41, "duration": 966, "velocity": 120}, {"time": 45596, "pitch": 53, "duration": 244, "velocity": 120}, {"time": 45596, "pitch": 60, "duration": 244, "velocity": 120}, {"time": 45596, "pitch": 63, "duration": 244, "velocity": 120}, {"time": 45596, "pitch": 68, "duration": 244, "velocity": 120}, {"time": 45840, "pitch": 53, "duration": 244, "velocity": 120}, {"time": 46084, "pitch": 60, "duration": 239, "velocity": 120}, {"time": 46084, "pitch": 63, "duration": 478, "velocity": 120}, {"time": 46084, "pitch": 68, "duration": 239, "velocity": 120}, {"time": 46323, "pitch": 53, "duration": 239, "velocity": 120}, {"time": 46562, "pitch": 44, "duration": 477, "velocity": 120}, {"time": 46562, "pitch": 56, "duration": 239, "velocity": 120}, {"time": 46562, "pitch": 60, "duration": 239, "velocity": 120}, {"time": 46562, "pitch": 65, "duration": 239, "velocity": 120}, {"time": 46562, "pitch": 70, "duration": 358, "velocity": 120}, {"time": 46801, "pitch": 56, "duration": 119, "velocity": 120}, {"time": 46920, "pitch": 60, "duration": 119, "velocity": 120}, {"time": 46920, "pitch": 65, "duration": 119, "velocity": 120}, {"time": 46920, "pitch": 70, "duration": 119, "velocity": 120}, {"time": 47039, "pitch": 56, "duration": 239, "velocity": 120}, {"time": 47278, "pitch": 37, "duration": 1444, "velocity": 120}, {"time": 47278, "pitch": 49, "duration": 483, "velocity": 120}, {"time": 47278, "pitch": 58, "duration": 483, "velocity": 120}, {"time": 47278, "pitch": 60, "duration": 483, "velocity": 120}, {"time": 47278, "pitch": 65, "duration": 483, "velocity": 120}, {"time": 47761, "pitch": 49, "duration": 244, "velocity": 120}, {"time": 48005, "pitch": 58, "duration": 239, "velocity": 120}, {"time": 48005, "pitch": 60, "duration": 239, "velocity": 120}, {"time": 48005, "pitch": 65, "duration": 239, "velocity": 120}, {"time": 48244, "pitch": 49, "duration": 239, "velocity": 120}, {"time": 48483, "pitch": 58, "duration": 358, "velocity": 120}, {"time": 48483, "pitch": 60, "duration": 239, "velocity": 120}, {"time": 48483, "pitch": 65, "duration": 239, "velocity": 120}, {"time": 48722, "pitch": 49, "duration": 119, "velocity": 120}, {"time": 48841, "pitch": 39, "duration": 478, "velocity": 120}, {"time": 48841, "pitch": 51, "duration": 239, "velocity": 120}, {"time": 48841, "pitch": 56, "duration": 239, "velocity": 120}, {"time": 48841, "pitch": 58, "duration": 239, "velocity": 120}, {"time": 48841, "pitch": 63, "duration": 239, "velocity": 120}, {"time": 49080, "pitch": 51, "duration": 119, "velocity": 120}, {"time": 49199, "pitch": 56, "duration": 120, "velocity": 120}, {"time": 49199, "pitch": 58, "duration": 120, "velocity": 120}, {"time": 49199, "pitch": 63, "duration": 120, "velocity": 120}, {"time": 49319, "pitch": 51, "duration": 119, "velocity": 120}, {"time": 49438, "pitch": 41, "duration": 966, "velocity": 120}, {"time": 49438, "pitch": 53, "duration": 239, "velocity": 120}, {"time": 49438, "pitch": 60, "duration": 239, "velocity": 120}, {"time": 49438, "pitch": 63, "duration": 239, "velocity": 120}, {"time": 49438, "pitch": 68, "duration": 239, "velocity": 120}, {"time": 49677, "pitch": 53, "duration": 239, "velocity": 120}, {"time": 49916, "pitch": 60, "duration": 244, "velocity": 120}, {"time": 49916, "pitch": 63, "duration": 244, "velocity": 120}, {"time": 49916, "pitch": 68, "duration": 244, "velocity": 120}, {"time": 50160, "pitch": 53, "duration": 244, "velocity": 120}, {"time": 50404, "pitch": 39, "duration": 716, "velocity": 120}, {"time": 50404, "pitch": 51, "duration": 239, "velocity": 120}, {"time": 50404, "pitch": 58, "duration": 358, "velocity": 120}, {"time": 50404, "pitch": 60, "duration": 358, "velocity": 120}, {"time": 50404, "pitch": 65, "duration": 239, "velocity": 120}, {"time": 50643, "pitch": 51, "duration": 119, "velocity": 120}, {"time": 50762, "pitch": 58, "duration": 120, "velocity": 120}, {"time": 50762, "pitch": 60, "duration": 120, "velocity": 120}, {"time": 50762, "pitch": 65, "duration": 120, "velocity": 120}, {"time": 50882, "pitch": 51, "duration": 238, "velocity": 120}, {"time": 51120, "pitch": 37, "duration": 1563, "velocity": 120}, {"time": 51120, "pitch": 49, "duration": 478, "velocity": 120}, {"time": 51120, "pitch": 56, "duration": 478, "velocity": 120}, {"time": 51120, "pitch": 58, "duration": 478, "velocity": 120}, {"time": 51120, "pitch": 63, "duration": 717, "velocity": 120}, {"time": 51598, "pitch": 49, "duration": 239, "velocity": 120}, {"time": 51837, "pitch": 56, "duration": 244, "velocity": 120}, {"time": 51837, "pitch": 58, "duration": 244, "velocity": 120}, {"time": 51837, "pitch": 63, "duration": 244, "velocity": 120}, {"time": 52081, "pitch": 49, "duration": 244, "velocity": 120}, {"time": 52325, "pitch": 56, "duration": 239, "velocity": 120}, {"time": 52325, "pitch": 58, "duration": 239, "velocity": 120}, {"time": 52325, "pitch": 63, "duration": 239, "velocity": 120}, {"time": 52564, "pitch": 49, "duration": 119, "velocity": 120}, {"time": 52683, "pitch": 39, "duration": 478, "velocity": 120}, {"time": 52683, "pitch": 51, "duration": 239, "velocity": 120}, {"time": 52683, "pitch": 58, "duration": 239, "velocity": 120}, {"time": 52683, "pitch": 60, "duration": 239, "velocity": 120}, {"time": 52683, "pitch": 65, "duration": 239, "velocity": 120}, {"time": 52922, "pitch": 51, "duration": 119, "velocity": 120}, {"time": 53041, "pitch": 58, "duration": 120, "velocity": 120}, {"time": 53041, "pitch": 60, "duration": 120, "velocity": 120}, {"time": 53041, "pitch": 65, "duration": 120, "velocity": 120}, {"time": 53161, "pitch": 51, "duration": 119, "velocity": 120}, {"time": 53280, "pitch": 41, "duration": 956, "velocity": 120}, {"time": 53280, "pitch": 53, "duration": 239, "velocity": 120}, {"time": 53280, "pitch": 60, "duration": 239, "velocity": 120}, {"time": 53280, "pitch": 63, "duration": 239, "velocity": 120}, {"time": 53280, "pitch": 68, "duration": 239, "velocity": 120}, {"time": 53519, "pitch": 53, "duration": 239, "velocity": 120}, {"time": 53758, "pitch": 60, "duration": 239, "velocity": 120}, {"time": 53758, "pitch": 63, "duration": 478, "velocity": 120}, {"time": 53758, "pitch": 68, "duration": 239, "velocity": 120}, {"time": 53997, "pitch": 53, "duration": 239, "velocity": 120}, {"time": 54236, "pitch": 44, "duration": 488, "velocity": 120}, {"time": 54236, "pitch": 56, "duration": 244, "velocity": 120}, {"time": 54236, "pitch": 60, "duration": 244, "velocity": 120}, {"time": 54236, "pitch": 65, "duration": 244, "velocity": 120}, {"time": 54236, "pitch": 70, "duration": 366, "velocity": 120}, {"time": 54480, "pitch": 56, "duration": 122, "velocity": 120}, {"time": 54602, "pitch": 60, "duration": 122, "velocity": 120}, {"time": 54602, "pitch": 65, "duration": 122, "velocity": 120}, {"time": 54602, "pitch": 70, "duration": 122, "velocity": 120}, {"time": 54724, "pitch": 56, "duration": 239, "velocity": 120}, {"time": 54963, "pitch": 37, "duration": 1438, "velocity": 120}, {"time": 54963, "pitch": 49, "duration": 477, "velocity": 120}, {"time": 54963, "pitch": 58, "duration": 477, "velocity": 120}, {"time": 54963, "pitch": 60, "duration": 477, "velocity": 120}, {"time": 54963, "pitch": 65, "duration": 477, "velocity": 120}, {"time": 55440, "pitch": 49, "duration": 239, "velocity": 120}, {"time": 55679, "pitch": 58, "duration": 239, "velocity": 120}, {"time": 55679, "pitch": 60, "duration": 239, "velocity": 120}, {"time": 55679, "pitch": 65, "duration": 239, "velocity": 120}, {"time": 55918, "pitch": 49, "duration": 239, "velocity": 120}, {"time": 56157, "pitch": 58, "duration": 366, "velocity": 120}, {"time": 56157, "pitch": 60, "duration": 244, "velocity": 120}, {"time": 56157, "pitch": 65, "duration": 244, "velocity": 120}, {"time": 56401, "pitch": 49, "duration": 122, "velocity": 120}, {"time": 56523, "pitch": 39, "duration": 480, "velocity": 120}, {"time": 56523, "pitch": 51, "duration": 241, "velocity": 120}, {"time": 56523, "pitch": 56, "duration": 241, "velocity": 120}, {"time": 56523, "pitch": 58, "duration": 241, "velocity": 120}, {"time": 56523, "pitch": 63, "duration": 241, "velocity": 120}, {"time": 56764, "pitch": 51, "duration": 120, "velocity": 120}, {"time": 56884, "pitch": 56, "duration": 119, "velocity": 120}, {"time": 56884, "pitch": 58, "duration": 119, "velocity": 120}, {"time": 56884, "pitch": 63, "duration": 119, "velocity": 120}, {"time": 57003, "pitch": 51, "duration": 120, "velocity": 120}, {"time": 57123, "pitch": 41, "duration": 955, "velocity": 120}, {"time": 57123, "pitch": 53, "duration": 238, "velocity": 120}, {"time": 57123, "pitch": 60, "duration": 238, "velocity": 120}, {"time": 57123, "pitch": 63, "duration": 238, "velocity": 120}, {"time": 57123, "pitch": 68, "duration": 238, "velocity": 120}, {"time": 57361, "pitch": 53, "duration": 239, "velocity": 120}, {"time": 57600, "pitch": 60, "duration": 239, "velocity": 120}, {"time": 57600, "pitch": 63, "duration": 239, "velocity": 120}, {"time": 57600, "pitch": 68, "duration": 239, "velocity": 120}, {"time": 57839, "pitch": 53, "duration": 239, "velocity": 120}, {"time": 58078, "pitch": 39, "duration": 721, "velocity": 120}, {"time": 58078, "pitch": 51, "duration": 239, "velocity": 120}, {"time": 58078, "pitch": 58, "duration": 239, "velocity": 120}, {"time": 58078, "pitch": 60, "duration": 239, "velocity": 120}, {"time": 58078, "pitch": 65, "duration": 239, "velocity": 120}, {"time": 58317, "pitch": 51, "duration": 119, "velocity": 120}, {"time": 58436, "pitch": 58, "duration": 119, "velocity": 120}, {"time": 58436, "pitch": 60, "duration": 119, "velocity": 120}, {"time": 58436, "pitch": 65, "duration": 119, "velocity": 120}, {"time": 58555, "pitch": 51, "duration": 244, "velocity": 120}, {"time": 58799, "pitch": 37, "duration": 1558, "velocity": 120}, {"time": 58799, "pitch": 49, "duration": 483, "velocity": 120}, {"time": 58799, "pitch": 56, "duration": 483, "velocity": 120}, {"time": 58799, "pitch": 58, "duration": 483, "velocity": 120}, {"time": 58799, "pitch": 63, "duration": 722, "velocity": 120}, {"time": 59282, "pitch": 49, "duration": 239, "velocity": 120}, {"time": 59521, "pitch": 56, "duration": 239, "velocity": 120}, {"time": 59521, "pitch": 58, "duration": 239, "velocity": 120}, {"time": 59521, "pitch": 63, "duration": 239, "velocity": 120}, {"time": 59760, "pitch": 49, "duration": 239, "velocity": 120}, {"time": 59999, "pitch": 56, "duration": 239, "velocity": 120}, {"time": 59999, "pitch": 58, "duration": 239, "velocity": 120}, {"time": 59999, "pitch": 63, "duration": 358, "velocity": 120}, {"time": 60238, "pitch": 49, "duration": 119, "velocity": 120}, {"time": 60357, "pitch": 39, "duration": 608, "velocity": 120}, {"time": 60357, "pitch": 51, "duration": 364, "velocity": 120}, {"time": 60357, "pitch": 58, "duration": 364, "velocity": 120}, {"time": 60357, "pitch": 60, "duration": 364, "velocity": 120}, {"time": 60357, "pitch": 65, "duration": 364, "velocity": 120}, {"time": 60721, "pitch": 51, "duration": 244, "velocity": 120}, {"time": 60721, "pitch": 58, "duration": 244, "velocity": 120}, {"time": 60721, "pitch": 60, "duration": 244, "velocity": 120}, {"time": 60721, "pitch": 65, "duration": 244, "velocity": 120}, {"time": 60965, "pitch": 41, "duration": 955, "velocity": 120}, {"time": 60965, "pitch": 53, "duration": 239, "velocity": 120}, {"time": 60965, "pitch": 60, "duration": 239, "velocity": 120}, {"time": 60965, "pitch": 63, "duration": 239, "velocity": 120}, {"time": 60965, "pitch": 68, "duration": 239, "velocity": 120}, {"time": 61204, "pitch": 53, "duration": 238, "velocity": 120}, {"time": 61442, "pitch": 60, "duration": 239, "velocity": 120}, {"time": 61442, "pitch": 63, "duration": 478, "velocity": 120}, {"time": 61442, "pitch": 68, "duration": 239, "velocity": 120}, {"time": 61681, "pitch": 53, "duration": 239, "velocity": 120}, {"time": 61920, "pitch": 44, "duration": 478, "velocity": 120}, {"time": 61920, "pitch": 56, "duration": 239, "velocity": 120}, {"time": 61920, "pitch": 60, "duration": 239, "velocity": 120}, {"time": 61920, "pitch": 65, "duration": 239, "velocity": 120}, {"time": 61920, "pitch": 70, "duration": 358, "velocity": 120}, {"time": 62159, "pitch": 56, "duration": 119, "velocity": 120}, {"time": 62278, "pitch": 60, "duration": 120, "velocity": 120}, {"time": 62278, "pitch": 65, "duration": 120, "velocity": 120}, {"time": 62278, "pitch": 70, "duration": 120, "velocity": 120}, {"time": 62398, "pitch": 56, "duration": 238, "velocity": 120}, {"time": 62636, "pitch": 37, "duration": 1444, "velocity": 120}, {"time": 62636, "pitch": 49, "duration": 483, "velocity": 120}, {"time": 62636, "pitch": 58, "duration": 483, "velocity": 120}, {"time": 62636, "pitch": 60, "duration": 483, "velocity": 120}, {"time": 62636, "pitch": 65, "duration": 483, "velocity": 120}, {"time": 63119, "pitch": 49, "duration": 244, "velocity": 120}, {"time": 63363, "pitch": 58, "duration": 239, "velocity": 120}, {"time": 63363, "pitch": 60, "duration": 239, "velocity": 120}, {"time": 63363, "pitch": 65, "duration": 239, "velocity": 120}, {"time": 63602, "pitch": 49, "duration": 239, "velocity": 120}, {"time": 63841, "pitch": 58, "duration": 358, "velocity": 120}, {"time": 63841, "pitch": 60, "duration": 239, "velocity": 120}, {"time": 63841, "pitch": 65, "duration": 239, "velocity": 120}, {"time": 64080, "pitch": 49, "duration": 119, "velocity": 120}, {"time": 64199, "pitch": 39, "duration": 478, "velocity": 120}, {"time": 64199, "pitch": 51, "duration": 239, "velocity": 120}, {"time": 64199, "pitch": 56, "duration": 239, "velocity": 120}, {"time": 64199, "pitch": 58, "duration": 239, "velocity": 120}, {"time": 64199, "pitch": 63, "duration": 239, "velocity": 120}, {"time": 64438, "pitch": 51, "duration": 120, "velocity": 120}, {"time": 64558, "pitch": 56, "duration": 119, "velocity": 120}, {"time": 64558, "pitch": 58, "duration": 119, "velocity": 120}, {"time": 64558, "pitch": 63, "duration": 119, "velocity": 120}, {"time": 64677, "pitch": 51, "duration": 119, "velocity": 120}, {"time": 64796, "pitch": 39, "duration": 1921, "velocity": 120}, {"time": 64796, "pitch": 51, "duration": 244, "velocity": 120}, {"time": 64796, "pitch": 58, "duration": 244, "velocity": 120}, {"time": 64796, "pitch": 63, "duration": 244, "velocity": 120}, {"time": 64796, "pitch": 67, "duration": 244, "velocity": 120}, {"time": 65040, "pitch": 51, "duration": 245, "velocity": 120}, {"time": 65285, "pitch": 58, "duration": 238, "velocity": 120}, {"time": 65285, "pitch": 63, "duration": 238, "velocity": 120}, {"time": 65285, "pitch": 67, "duration": 238, "velocity": 120}, {"time": 65523, "pitch": 51, "duration": 120, "velocity": 120}, {"time": 65643, "pitch": 58, "duration": 119, "velocity": 120}, {"time": 65643, "pitch": 63, "duration": 119, "velocity": 120}, {"time": 65643, "pitch": 67, "duration": 119, "velocity": 120}, {"time": 65762, "pitch": 51, "duration": 239, "velocity": 120}, {"time": 66001, "pitch": 58, "duration": 239, "velocity": 120}, {"time": 66001, "pitch": 63, "duration": 239, "velocity": 120}, {"time": 66001, "pitch": 67, "duration": 239, "velocity": 120}, {"time": 66240, "pitch": 51, "duration": 119, "velocity": 120}, {"time": 66359, "pitch": 58, "duration": 120, "velocity": 120}, {"time": 66359, "pitch": 63, "duration": 120, "velocity": 120}, {"time": 66359, "pitch": 67, "duration": 120, "velocity": 120}, {"time": 66479, "pitch": 51, "duration": 238, "velocity": 120}, {"time": 66717, "pitch": 37, "duration": 1922, "velocity": 120}, {"time": 66717, "pitch": 49, "duration": 239, "velocity": 120}, {"time": 66717, "pitch": 56, "duration": 239, "velocity": 120}, {"time": 66717, "pitch": 60, "duration": 239, "velocity": 120}, {"time": 66717, "pitch": 65, "duration": 239, "velocity": 120}, {"time": 66956, "pitch": 49, "duration": 239, "velocity": 120}, {"time": 67195, "pitch": 56, "duration": 244, "velocity": 120}, {"time": 67195, "pitch": 60, "duration": 244, "velocity": 120}, {"time": 67195, "pitch": 65, "duration": 244, "velocity": 120}, {"time": 67439, "pitch": 49, "duration": 122, "velocity": 120}, {"time": 67561, "pitch": 56, "duration": 122, "velocity": 120}, {"time": 67561, "pitch": 60, "duration": 122, "velocity": 120}, {"time": 67561, "pitch": 65, "duration": 122, "velocity": 120}, {"time": 67683, "pitch": 49, "duration": 239, "velocity": 120}, {"time": 67922, "pitch": 56, "duration": 239, "velocity": 120}, {"time": 67922, "pitch": 60, "duration": 239, "velocity": 120}, {"time": 67922, "pitch": 65, "duration": 239, "velocity": 120}, {"time": 68161, "pitch": 49, "duration": 119, "velocity": 120}, {"time": 68280, "pitch": 56, "duration": 120, "velocity": 120}, {"time": 68280, "pitch": 60, "duration": 120, "velocity": 120}, {"time": 68280, "pitch": 65, "duration": 120, "velocity": 120}, {"time": 68400, "pitch": 49, "duration": 239, "velocity": 120}, {"time": 68639, "pitch": 39, "duration": 1921, "velocity": 120}, {"time": 68639, "pitch": 51, "duration": 238, "velocity": 120}, {"time": 68639, "pitch": 58, "duration": 238, "velocity": 120}, {"time": 68639, "pitch": 63, "duration": 238, "velocity": 120}, {"time": 68639, "pitch": 67, "duration": 238, "velocity": 120}, {"time": 68877, "pitch": 51, "duration": 239, "velocity": 120}, {"time": 69116, "pitch": 58, "duration": 244, "velocity": 120}, {"time": 69116, "pitch": 63, "duration": 244, "velocity": 120}, {"time": 69116, "pitch": 67, "duration": 244, "velocity": 120}, {"time": 69360, "pitch": 51, "duration": 122, "velocity": 120}, {"time": 69482, "pitch": 58, "duration": 122, "velocity": 120}, {"time": 69482, "pitch": 63, "duration": 122, "velocity": 120}, {"time": 69482, "pitch": 67, "duration": 122, "velocity": 120}, {"time": 69604, "pitch": 51, "duration": 239, "velocity": 120}, {"time": 69843, "pitch": 58, "duration": 239, "velocity": 120}, {"time": 69843, "pitch": 63, "duration": 239, "velocity": 120}, {"time": 69843, "pitch": 67, "duration": 239, "velocity": 120}, {"time": 70082, "pitch": 51, "duration": 119, "velocity": 120}, {"time": 70201, "pitch": 58, "duration": 120, "velocity": 120}, {"time": 70201, "pitch": 63, "duration": 120, "velocity": 120}, {"time": 70201, "pitch": 67, "duration": 120, "velocity": 120}, {"time": 70321, "pitch": 51, "duration": 239, "velocity": 120}, {"time": 70560, "pitch": 37, "duration": 955, "velocity": 120}, {"time": 70560, "pitch": 49, "duration": 238, "velocity": 120}, {"time": 70560, "pitch": 56, "duration": 238, "velocity": 120}, {"time": 70560, "pitch": 60, "duration": 238, "velocity": 120}, {"time": 70560, "pitch": 65, "duration": 238, "velocity": 120}, {"time": 70798, "pitch": 49, "duration": 239, "velocity": 120}, {"time": 71037, "pitch": 56, "duration": 239, "velocity": 120}, {"time": 71037, "pitch": 60, "duration": 239, "velocity": 120}, {"time": 71037, "pitch": 65, "duration": 239, "velocity": 120}, {"time": 71276, "pitch": 49, "duration": 119, "velocity": 120}, {"time": 71395, "pitch": 56, "duration": 120, "velocity": 120}, {"time": 71395, "pitch": 60, "duration": 120, "velocity": 120}, {"time": 71395, "pitch": 65, "duration": 120, "velocity": 120}, {"time": 71515, "pitch": 49, "duration": 488, "velocity": 120}, {"time": 71759, "pitch": 56, "duration": 244, "velocity": 120}, {"time": 71759, "pitch": 60, "duration": 244, "velocity": 120}, {"time": 71759, "pitch": 65, "duration": 244, "velocity": 120}, {"time": 72003, "pitch": 49, "duration": 120, "velocity": 120}, {"time": 72123, "pitch": 56, "duration": 119, "velocity": 120}, {"time": 72123, "pitch": 60, "duration": 119, "velocity": 120}, {"time": 72123, "pitch": 65, "duration": 119, "velocity": 120}, {"time": 72242, "pitch": 49, "duration": 239, "velocity": 120}, {"time": 72481, "pitch": 39, "duration": 1921, "velocity": 120}, {"time": 72481, "pitch": 51, "duration": 239, "velocity": 120}, {"time": 72481, "pitch": 58, "duration": 239, "velocity": 120}, {"time": 72481, "pitch": 63, "duration": 239, "velocity": 120}, {"time": 72481, "pitch": 67, "duration": 239, "velocity": 120}, {"time": 72720, "pitch": 51, "duration": 238, "velocity": 120}, {"time": 72958, "pitch": 58, "duration": 239, "velocity": 120}, {"time": 72958, "pitch": 63, "duration": 239, "velocity": 120}, {"time": 72958, "pitch": 67, "duration": 239, "velocity": 120}, {"time": 73197, "pitch": 51, "duration": 120, "velocity": 120}, {"time": 73317, "pitch": 58, "duration": 119, "velocity": 120}, {"time": 73317, "pitch": 63, "duration": 119, "velocity": 120}, {"time": 73317, "pitch": 67, "duration": 119, "velocity": 120}, {"time": 73436, "pitch": 51, "duration": 244, "velocity": 120}, {"time": 73680, "pitch": 58, "duration": 244, "velocity": 120}, {"time": 73680, "pitch": 63, "duration": 244, "velocity": 120}, {"time": 73680, "pitch": 67, "duration": 244, "velocity": 120}, {"time": 73924, "pitch": 51, "duration": 120, "velocity": 120}, {"time": 74044, "pitch": 58, "duration": 119, "velocity": 120}, {"time": 74044, "pitch": 63, "duration": 119, "velocity": 120}, {"time": 74044, "pitch": 67, "duration": 119, "velocity": 120}, {"time": 74163, "pitch": 51, "duration": 239, "velocity": 120}, {"time": 74402, "pitch": 37, "duration": 1921, "velocity": 120}, {"time": 74402, "pitch": 49, "duration": 239, "velocity": 120}, {"time": 74402, "pitch": 56, "duration": 239, "velocity": 120}, {"time": 74402, "pitch": 60, "duration": 239, "velocity": 120}, {"time": 74402, "pitch": 65, "duration": 239, "velocity": 120}, {"time": 74641, "pitch": 49, "duration": 238, "velocity": 120}, {"time": 74879, "pitch": 56, "duration": 239, "velocity": 120}, {"time": 74879, "pitch": 60, "duration": 239, "velocity": 120}, {"time": 74879, "pitch": 65, "duration": 239, "velocity": 120}, {"time": 75118, "pitch": 49, "duration": 120, "velocity": 120}, {"time": 75238, "pitch": 56, "duration": 119, "velocity": 120}, {"time": 75238, "pitch": 60, "duration": 119, "velocity": 120}, {"time": 75238, "pitch": 65, "duration": 119, "velocity": 120}, {"time": 75357, "pitch": 49, "duration": 239, "velocity": 120}, {"time": 75596, "pitch": 56, "duration": 361, "velocity": 120}, {"time": 75596, "pitch": 60, "duration": 361, "velocity": 120}, {"time": 75596, "pitch": 65, "duration": 239, "velocity": 120}, {"time": 75835, "pitch": 49, "duration": 122, "velocity": 120}, {"time": 75957, "pitch": 56, "duration": 122, "velocity": 120}, {"time": 75957, "pitch": 60, "duration": 122, "velocity": 120}, {"time": 75957, "pitch": 65, "duration": 122, "velocity": 120}, {"time": 76079, "pitch": 49, "duration": 244, "velocity": 120}, {"time": 76323, "pitch": 38, "duration": 1555, "velocity": 120}, {"time": 76323, "pitch": 50, "duration": 239, "velocity": 120}, {"time": 76323, "pitch": 55, "duration": 239, "velocity": 120}, {"time": 76323, "pitch": 60, "duration": 478, "velocity": 120}, {"time": 76323, "pitch": 65, "duration": 239, "velocity": 120}, {"time": 76562, "pitch": 50, "duration": 239, "velocity": 120}, {"time": 76801, "pitch": 55, "duration": 238, "velocity": 120}, {"time": 76801, "pitch": 60, "duration": 238, "velocity": 120}, {"time": 76801, "pitch": 65, "duration": 238, "velocity": 120}, {"time": 77039, "pitch": 50, "duration": 120, "velocity": 120}, {"time": 77159, "pitch": 55, "duration": 358, "velocity": 120}, {"time": 77159, "pitch": 60, "duration": 358, "velocity": 120}, {"time": 77159, "pitch": 65, "duration": 358, "velocity": 120}, {"time": 77278, "pitch": 50, "duration": 600, "velocity": 120}, {"time": 77517, "pitch": 55, "duration": 361, "velocity": 120}, {"time": 77517, "pitch": 60, "duration": 727, "velocity": 120}, {"time": 77517, "pitch": 62, "duration": 727, "velocity": 120}, {"time": 77878, "pitch": 65, "duration": 366, "velocity": 120}, {"time": 78244, "pitch": 43, "duration": 1921, "velocity": 120}, {"time": 78244, "pitch": 55, "duration": 1921, "velocity": 120}, {"time": 78244, "pitch": 59, "duration": 1921, "velocity": 120}, {"time": 78244, "pitch": 60, "duration": 1921, "velocity": 120}, {"time": 78244, "pitch": 62, "duration": 1921, "velocity": 120}, {"time": 78244, "pitch": 67, "duration": 1921, "velocity": 120}, {"time": 80165, "pitch": 37, "duration": 1911, "velocity": 120}, {"time": 80165, "pitch": 49, "duration": 239, "velocity": 120}, {"time": 80165, "pitch": 56, "duration": 239, "velocity": 120}, {"time": 80165, "pitch": 61, "duration": 239, "velocity": 120}, {"time": 80165, "pitch": 63, "duration": 239, "velocity": 120}, {"time": 80404, "pitch": 49, "duration": 239, "velocity": 120}, {"time": 80643, "pitch": 56, "duration": 239, "velocity": 120}, {"time": 80643, "pitch": 61, "duration": 239, "velocity": 120}, {"time": 80643, "pitch": 63, "duration": 239, "velocity": 120}, {"time": 80882, "pitch": 49, "duration": 119, "velocity": 120}, {"time": 81001, "pitch": 56, "duration": 119, "velocity": 120}, {"time": 81001, "pitch": 61, "duration": 119, "velocity": 120}, {"time": 81001, "pitch": 63, "duration": 119, "velocity": 120}, {"time": 81120, "pitch": 49, "duration": 239, "velocity": 120}, {"time": 81359, "pitch": 56, "duration": 239, "velocity": 120}, {"time": 81359, "pitch": 61, "duration": 239, "velocity": 120}, {"time": 81359, "pitch": 63, "duration": 239, "velocity": 120}, {"time": 81598, "pitch": 49, "duration": 119, "velocity": 120}, {"time": 81717, "pitch": 56, "duration": 120, "velocity": 120}, {"time": 81717, "pitch": 61, "duration": 120, "velocity": 120}, {"time": 81717, "pitch": 63, "duration": 120, "velocity": 120}, {"time": 81837, "pitch": 49, "duration": 239, "velocity": 120}, {"time": 82076, "pitch": 39, "duration": 1921, "velocity": 120}, {"time": 82076, "pitch": 51, "duration": 244, "velocity": 120}, {"time": 82076, "pitch": 55, "duration": 244, "velocity": 120}, {"time": 82076, "pitch": 58, "duration": 244, "velocity": 120}, {"time": 82076, "pitch": 63, "duration": 244, "velocity": 120}, {"time": 82320, "pitch": 51, "duration": 244, "velocity": 120}, {"time": 82564, "pitch": 55, "duration": 239, "velocity": 120}, {"time": 82564, "pitch": 58, "duration": 239, "velocity": 120}, {"time": 82564, "pitch": 63, "duration": 239, "velocity": 120}, {"time": 82803, "pitch": 51, "duration": 119, "velocity": 120}, {"time": 82922, "pitch": 55, "duration": 120, "velocity": 120}, {"time": 82922, "pitch": 58, "duration": 120, "velocity": 120}, {"time": 82922, "pitch": 63, "duration": 120, "velocity": 120}, {"time": 83042, "pitch": 51, "duration": 238, "velocity": 120}, {"time": 83280, "pitch": 55, "duration": 239, "velocity": 120}, {"time": 83280, "pitch": 58, "duration": 239, "velocity": 120}, {"time": 83280, "pitch": 63, "duration": 239, "velocity": 120}, {"time": 83519, "pitch": 51, "duration": 120, "velocity": 120}, {"time": 83639, "pitch": 55, "duration": 119, "velocity": 120}, {"time": 83639, "pitch": 58, "duration": 119, "velocity": 120}, {"time": 83639, "pitch": 63, "duration": 119, "velocity": 120}, {"time": 83758, "pitch": 51, "duration": 239, "velocity": 120}, {"time": 83997, "pitch": 36, "duration": 1921, "velocity": 120}, {"time": 83997, "pitch": 48, "duration": 244, "velocity": 120}, {"time": 83997, "pitch": 55, "duration": 244, "velocity": 120}, {"time": 83997, "pitch": 58, "duration": 244, "velocity": 120}, {"time": 83997, "pitch": 63, "duration": 244, "velocity": 120}, {"time": 84241, "pitch": 48, "duration": 244, "velocity": 120}, {"time": 84485, "pitch": 55, "duration": 239, "velocity": 120}, {"time": 84485, "pitch": 58, "duration": 239, "velocity": 120}, {"time": 84485, "pitch": 63, "duration": 239, "velocity": 120}, {"time": 84724, "pitch": 48, "duration": 119, "velocity": 120}, {"time": 84843, "pitch": 55, "duration": 120, "velocity": 120}, {"time": 84843, "pitch": 58, "duration": 120, "velocity": 120}, {"time": 84843, "pitch": 63, "duration": 120, "velocity": 120}, {"time": 84963, "pitch": 48, "duration": 238, "velocity": 120}, {"time": 85201, "pitch": 55, "duration": 239, "velocity": 120}, {"time": 85201, "pitch": 58, "duration": 239, "velocity": 120}, {"time": 85201, "pitch": 63, "duration": 239, "velocity": 120}, {"time": 85440, "pitch": 48, "duration": 120, "velocity": 120}, {"time": 85560, "pitch": 55, "duration": 119, "velocity": 120}, {"time": 85560, "pitch": 58, "duration": 119, "velocity": 120}, {"time": 85560, "pitch": 63, "duration": 119, "velocity": 120}, {"time": 85679, "pitch": 48, "duration": 239, "velocity": 120}, {"time": 85918, "pitch": 41, "duration": 239, "velocity": 120}, {"time": 85918, "pitch": 53, "duration": 239, "velocity": 120}, {"time": 85918, "pitch": 56, "duration": 239, "velocity": 120}, {"time": 85918, "pitch": 60, "duration": 239, "velocity": 120}, {"time": 86157, "pitch": 41, "duration": 483, "velocity": 120}, {"time": 86396, "pitch": 53, "duration": 244, "velocity": 120}, {"time": 86396, "pitch": 56, "duration": 244, "velocity": 120}, {"time": 86396, "pitch": 60, "duration": 244, "velocity": 120}, {"time": 86640, "pitch": 41, "duration": 122, "velocity": 120}, {"time": 86762, "pitch": 53, "duration": 122, "velocity": 120}, {"time": 86762, "pitch": 56, "duration": 122, "velocity": 120}, {"time": 86762, "pitch": 60, "duration": 122, "velocity": 120}, {"time": 86884, "pitch": 41, "duration": 239, "velocity": 120}, {"time": 87123, "pitch": 53, "duration": 238, "velocity": 120}, {"time": 87123, "pitch": 56, "duration": 238, "velocity": 120}, {"time": 87123, "pitch": 60, "duration": 238, "velocity": 120}, {"time": 87361, "pitch": 41, "duration": 120, "velocity": 120}, {"time": 87481, "pitch": 53, "duration": 119, "velocity": 120}, {"time": 87481, "pitch": 56, "duration": 119, "velocity": 120}, {"time": 87481, "pitch": 60, "duration": 119, "velocity": 120}, {"time": 87600, "pitch": 41, "duration": 239, "velocity": 120}, {"time": 87839, "pitch": 34, "duration": 1682, "velocity": 120}, {"time": 87839, "pitch": 46, "duration": 239, "velocity": 120}, {"time": 87839, "pitch": 53, "duration": 239, "velocity": 120}, {"time": 87839, "pitch": 58, "duration": 239, "velocity": 120}, {"time": 87839, "pitch": 60, "duration": 239, "velocity": 120}, {"time": 88078, "pitch": 46, "duration": 239, "velocity": 120}, {"time": 88317, "pitch": 53, "duration": 244, "velocity": 120}, {"time": 88317, "pitch": 58, "duration": 244, "velocity": 120}, {"time": 88317, "pitch": 60, "duration": 244, "velocity": 120}, {"time": 88561, "pitch": 46, "duration": 122, "velocity": 120}, {"time": 88683, "pitch": 53, "duration": 122, "velocity": 120}, {"time": 88683, "pitch": 58, "duration": 122, "velocity": 120}, {"time": 88683, "pitch": 60, "duration": 122, "velocity": 120}, {"time": 88805, "pitch": 46, "duration": 239, "velocity": 120}, {"time": 89044, "pitch": 53, "duration": 239, "velocity": 120}, {"time": 89044, "pitch": 58, "duration": 239, "velocity": 120}, {"time": 89044, "pitch": 60, "duration": 239, "velocity": 120}, {"time": 89283, "pitch": 46, "duration": 119, "velocity": 120}, {"time": 89402, "pitch": 53, "duration": 119, "velocity": 120}, {"time": 89402, "pitch": 58, "duration": 358, "velocity": 120}, {"time": 89402, "pitch": 60, "duration": 119, "velocity": 120}, {"time": 89521, "pitch": 46, "duration": 239, "velocity": 120}, {"time": 89760, "pitch": 36, "duration": 1921, "velocity": 120}, {"time": 89760, "pitch": 48, "duration": 239, "velocity": 120}, {"time": 89760, "pitch": 55, "duration": 239, "velocity": 120}, {"time": 89760, "pitch": 58, "duration": 239, "velocity": 120}, {"time": 89760, "pitch": 60, "duration": 239, "velocity": 120}, {"time": 89999, "pitch": 48, "duration": 239, "velocity": 120}, {"time": 90238, "pitch": 55, "duration": 239, "velocity": 120}, {"time": 90238, "pitch": 58, "duration": 239, "velocity": 120}, {"time": 90238, "pitch": 60, "duration": 239, "velocity": 120}, {"time": 90477, "pitch": 48, "duration": 119, "velocity": 120}, {"time": 90596, "pitch": 55, "duration": 119, "velocity": 120}, {"time": 90596, "pitch": 58, "duration": 119, "velocity": 120}, {"time": 90596, "pitch": 60, "duration": 119, "velocity": 120}, {"time": 90715, "pitch": 48, "duration": 244, "velocity": 120}, {"time": 90959, "pitch": 55, "duration": 245, "velocity": 120}, {"time": 90959, "pitch": 58, "duration": 245, "velocity": 120}, {"time": 90959, "pitch": 60, "duration": 245, "velocity": 120}, {"time": 91204, "pitch": 48, "duration": 119, "velocity": 120}, {"time": 91323, "pitch": 55, "duration": 119, "velocity": 120}, {"time": 91323, "pitch": 58, "duration": 119, "velocity": 120}, {"time": 91323, "pitch": 60, "duration": 119, "velocity": 120}, {"time": 91442, "pitch": 48, "duration": 239, "velocity": 120}, {"time": 91681, "pitch": 37, "duration": 1683, "velocity": 120}, {"time": 91681, "pitch": 49, "duration": 239, "velocity": 120}, {"time": 91681, "pitch": 53, "duration": 239, "velocity": 120}, {"time": 91681, "pitch": 56, "duration": 239, "velocity": 120}, {"time": 91681, "pitch": 61, "duration": 239, "velocity": 120}, {"time": 91920, "pitch": 49, "duration": 239, "velocity": 120}, {"time": 92159, "pitch": 53, "duration": 239, "velocity": 120}, {"time": 92159, "pitch": 56, "duration": 239, "velocity": 120}, {"time": 92159, "pitch": 61, "duration": 239, "velocity": 120}, {"time": 92398, "pitch": 49, "duration": 119, "velocity": 120}, {"time": 92517, "pitch": 53, "duration": 119, "velocity": 120}, {"time": 92517, "pitch": 56, "duration": 119, "velocity": 120}, {"time": 92517, "pitch": 61, "duration": 119, "velocity": 120}, {"time": 92636, "pitch": 49, "duration": 245, "velocity": 120}, {"time": 92881, "pitch": 53, "duration": 244, "velocity": 120}, {"time": 92881, "pitch": 56, "duration": 363, "velocity": 120}, {"time": 92881, "pitch": 61, "duration": 363, "velocity": 120}, {"time": 93125, "pitch": 49, "duration": 119, "velocity": 120}, {"time": 93244, "pitch": 53, "duration": 120, "velocity": 120}, {"time": 93244, "pitch": 56, "duration": 120, "velocity": 120}, {"time": 93244, "pitch": 61, "duration": 120, "velocity": 120}, {"time": 93364, "pitch": 49, "duration": 238, "velocity": 120}, {"time": 93602, "pitch": 39, "duration": 1921, "velocity": 120}, {"time": 93602, "pitch": 51, "duration": 239, "velocity": 120}, {"time": 93602, "pitch": 55, "duration": 239, "velocity": 120}, {"time": 93602, "pitch": 58, "duration": 239, "velocity": 120}, {"time": 93602, "pitch": 63, "duration": 239, "velocity": 120}, {"time": 93841, "pitch": 51, "duration": 239, "velocity": 120}, {"time": 94080, "pitch": 55, "duration": 239, "velocity": 120}, {"time": 94080, "pitch": 58, "duration": 239, "velocity": 120}, {"time": 94080, "pitch": 63, "duration": 239, "velocity": 120}, {"time": 94319, "pitch": 51, "duration": 119, "velocity": 120}, {"time": 94438, "pitch": 55, "duration": 120, "velocity": 120}, {"time": 94438, "pitch": 58, "duration": 120, "velocity": 120}, {"time": 94438, "pitch": 63, "duration": 120, "velocity": 120}, {"time": 94558, "pitch": 51, "duration": 238, "velocity": 120}, {"time": 94796, "pitch": 55, "duration": 239, "velocity": 120}, {"time": 94796, "pitch": 58, "duration": 239, "velocity": 120}, {"time": 94796, "pitch": 63, "duration": 239, "velocity": 120}, {"time": 95035, "pitch": 51, "duration": 122, "velocity": 120}, {"time": 95157, "pitch": 55, "duration": 122, "velocity": 120}, {"time": 95157, "pitch": 58, "duration": 122, "velocity": 120}, {"time": 95157, "pitch": 63, "duration": 122, "velocity": 120}, {"time": 95279, "pitch": 51, "duration": 244, "velocity": 120}, {"time": 95523, "pitch": 37, "duration": 1922, "velocity": 120}, {"time": 95523, "pitch": 49, "duration": 239, "velocity": 120}, {"time": 95523, "pitch": 56, "duration": 239, "velocity": 120}, {"time": 95523, "pitch": 61, "duration": 239, "velocity": 120}, {"time": 95523, "pitch": 63, "duration": 239, "velocity": 120}, {"time": 95762, "pitch": 49, "duration": 239, "velocity": 120}, {"time": 96001, "pitch": 56, "duration": 239, "velocity": 120}, {"time": 96001, "pitch": 61, "duration": 239, "velocity": 120}, {"time": 96001, "pitch": 63, "duration": 239, "velocity": 120}, {"time": 96240, "pitch": 49, "duration": 119, "velocity": 120}, {"time": 96359, "pitch": 56, "duration": 120, "velocity": 120}, {"time": 96359, "pitch": 61, "duration": 120, "velocity": 120}, {"time": 96359, "pitch": 63, "duration": 120, "velocity": 120}, {"time": 96479, "pitch": 49, "duration": 238, "velocity": 120}, {"time": 96717, "pitch": 56, "duration": 239, "velocity": 120}, {"time": 96717, "pitch": 61, "duration": 239, "velocity": 120}, {"time": 96717, "pitch": 63, "duration": 239, "velocity": 120}, {"time": 96956, "pitch": 49, "duration": 122, "velocity": 120}, {"time": 97078, "pitch": 56, "duration": 122, "velocity": 120}, {"time": 97078, "pitch": 61, "duration": 122, "velocity": 120}, {"time": 97078, "pitch": 63, "duration": 122, "velocity": 120}, {"time": 97200, "pitch": 49, "duration": 245, "velocity": 120}, {"time": 97445, "pitch": 39, "duration": 1910, "velocity": 120}, {"time": 97445, "pitch": 51, "duration": 238, "velocity": 120}, {"time": 97445, "pitch": 55, "duration": 238, "velocity": 120}, {"time": 97445, "pitch": 58, "duration": 238, "velocity": 120}, {"time": 97445, "pitch": 63, "duration": 238, "velocity": 120}, {"time": 97683, "pitch": 51, "duration": 239, "velocity": 120}, {"time": 97922, "pitch": 55, "duration": 239, "velocity": 120}, {"time": 97922, "pitch": 58, "duration": 239, "velocity": 120}, {"time": 97922, "pitch": 63, "duration": 239, "velocity": 120}, {"time": 98161, "pitch": 51, "duration": 119, "velocity": 120}, {"time": 98280, "pitch": 55, "duration": 120, "velocity": 120}, {"time": 98280, "pitch": 58, "duration": 120, "velocity": 120}, {"time": 98280, "pitch": 63, "duration": 120, "velocity": 120}, {"time": 98400, "pitch": 51, "duration": 239, "velocity": 120}, {"time": 98639, "pitch": 55, "duration": 238, "velocity": 120}, {"time": 98639, "pitch": 58, "duration": 238, "velocity": 120}, {"time": 98639, "pitch": 63, "duration": 238, "velocity": 120}, {"time": 98877, "pitch": 51, "duration": 120, "velocity": 120}, {"time": 98997, "pitch": 55, "duration": 119, "velocity": 120}, {"time": 98997, "pitch": 58, "duration": 119, "velocity": 120}, {"time": 98997, "pitch": 63, "duration": 119, "velocity": 120}, {"time": 99116, "pitch": 51, "duration": 239, "velocity": 120}, {"time": 99355, "pitch": 36, "duration": 1921, "velocity": 120}, {"time": 99355, "pitch": 48, "duration": 244, "velocity": 120}, {"time": 99355, "pitch": 55, "duration": 244, "velocity": 120}, {"time": 99355, "pitch": 58, "duration": 244, "velocity": 120}, {"time": 99355, "pitch": 63, "duration": 244, "velocity": 120}, {"time": 99599, "pitch": 48, "duration": 244, "velocity": 120}, {"time": 99843, "pitch": 55, "duration": 239, "velocity": 120}, {"time": 99843, "pitch": 58, "duration": 239, "velocity": 120}, {"time": 99843, "pitch": 63, "duration": 239, "velocity": 120}, {"time": 100082, "pitch": 48, "duration": 120, "velocity": 120}, {"time": 100202, "pitch": 55, "duration": 119, "velocity": 120}, {"time": 100202, "pitch": 58, "duration": 119, "velocity": 120}, {"time": 100202, "pitch": 63, "duration": 119, "velocity": 120}, {"time": 100321, "pitch": 48, "duration": 239, "velocity": 120}, {"time": 100560, "pitch": 55, "duration": 239, "velocity": 120}, {"time": 100560, "pitch": 58, "duration": 239, "velocity": 120}, {"time": 100560, "pitch": 63, "duration": 239, "velocity": 120}, {"time": 100799, "pitch": 48, "duration": 119, "velocity": 120}, {"time": 100918, "pitch": 55, "duration": 119, "velocity": 120}, {"time": 100918, "pitch": 58, "duration": 119, "velocity": 120}, {"time": 100918, "pitch": 63, "duration": 119, "velocity": 120}, {"time": 101037, "pitch": 48, "duration": 239, "velocity": 120}, {"time": 101276, "pitch": 41, "duration": 244, "velocity": 120}, {"time": 101276, "pitch": 53, "duration": 244, "velocity": 120}, {"time": 101276, "pitch": 56, "duration": 244, "velocity": 120}, {"time": 101276, "pitch": 60, "duration": 244, "velocity": 120}, {"time": 101520, "pitch": 41, "duration": 483, "velocity": 120}, {"time": 101764, "pitch": 53, "duration": 239, "velocity": 120}, {"time": 101764, "pitch": 56, "duration": 239, "velocity": 120}, {"time": 101764, "pitch": 60, "duration": 239, "velocity": 120}, {"time": 102003, "pitch": 41, "duration": 120, "velocity": 120}, {"time": 102123, "pitch": 53, "duration": 119, "velocity": 120}, {"time": 102123, "pitch": 56, "duration": 119, "velocity": 120}, {"time": 102123, "pitch": 60, "duration": 119, "velocity": 120}, {"time": 102242, "pitch": 41, "duration": 239, "velocity": 120}, {"time": 102481, "pitch": 53, "duration": 239, "velocity": 120}, {"time": 102481, "pitch": 56, "duration": 239, "velocity": 120}, {"time": 102481, "pitch": 60, "duration": 239, "velocity": 120}, {"time": 102720, "pitch": 41, "duration": 119, "velocity": 120}, {"time": 102839, "pitch": 53, "duration": 119, "velocity": 120}, {"time": 102839, "pitch": 56, "duration": 119, "velocity": 120}, {"time": 102839, "pitch": 60, "duration": 119, "velocity": 120}, {"time": 102958, "pitch": 41, "duration": 239, "velocity": 120}, {"time": 103197, "pitch": 34, "duration": 1683, "velocity": 120}, {"time": 103197, "pitch": 46, "duration": 239, "velocity": 120}, {"time": 103197, "pitch": 53, "duration": 239, "velocity": 120}, {"time": 103197, "pitch": 58, "duration": 239, "velocity": 120}, {"time": 103197, "pitch": 60, "duration": 239, "velocity": 120}, {"time": 103436, "pitch": 46, "duration": 239, "velocity": 120}, {"time": 103675, "pitch": 53, "duration": 244, "velocity": 120}, {"time": 103675, "pitch": 58, "duration": 244, "velocity": 120}, {"time": 103675, "pitch": 60, "duration": 244, "velocity": 120}, {"time": 103919, "pitch": 46, "duration": 122, "velocity": 120}, {"time": 104041, "pitch": 53, "duration": 122, "velocity": 120}, {"time": 104041, "pitch": 58, "duration": 122, "velocity": 120}, {"time": 104041, "pitch": 60, "duration": 122, "velocity": 120}, {"time": 104163, "pitch": 46, "duration": 239, "velocity": 120}, {"time": 104402, "pitch": 53, "duration": 239, "velocity": 120}, {"time": 104402, "pitch": 58, "duration": 239, "velocity": 120}, {"time": 104402, "pitch": 60, "duration": 239, "velocity": 120}, {"time": 104641, "pitch": 46, "duration": 119, "velocity": 120}, {"time": 104760, "pitch": 53, "duration": 120, "velocity": 120}, {"time": 104760, "pitch": 58, "duration": 358, "velocity": 120}, {"time": 104760, "pitch": 60, "duration": 120, "velocity": 120}, {"time": 104880, "pitch": 46, "duration": 238, "velocity": 120}, {"time": 105118, "pitch": 36, "duration": 1921, "velocity": 120}, {"time": 105118, "pitch": 48, "duration": 239, "velocity": 120}, {"time": 105118, "pitch": 55, "duration": 239, "velocity": 120}, {"time": 105118, "pitch": 58, "duration": 239, "velocity": 120}, {"time": 105118, "pitch": 60, "duration": 239, "velocity": 120}, {"time": 105357, "pitch": 48, "duration": 239, "velocity": 120}, {"time": 105596, "pitch": 55, "duration": 244, "velocity": 120}, {"time": 105596, "pitch": 58, "duration": 244, "velocity": 120}, {"time": 105596, "pitch": 60, "duration": 244, "velocity": 120}, {"time": 105840, "pitch": 48, "duration": 122, "velocity": 120}, {"time": 105962, "pitch": 55, "duration": 122, "velocity": 120}, {"time": 105962, "pitch": 58, "duration": 122, "velocity": 120}, {"time": 105962, "pitch": 60, "duration": 122, "velocity": 120}, {"time": 106084, "pitch": 48, "duration": 239, "velocity": 120}, {"time": 106323, "pitch": 55, "duration": 239, "velocity": 120}, {"time": 106323, "pitch": 58, "duration": 239, "velocity": 120}, {"time": 106323, "pitch": 60, "duration": 239, "velocity": 120}, {"time": 106562, "pitch": 48, "duration": 119, "velocity": 120}, {"time": 106681, "pitch": 55, "duration": 120, "velocity": 120}, {"time": 106681, "pitch": 58, "duration": 120, "velocity": 120}, {"time": 106681, "pitch": 60, "duration": 120, "velocity": 120}, {"time": 106801, "pitch": 48, "duration": 238, "velocity": 120}, {"time": 107039, "pitch": 37, "duration": 1683, "velocity": 120}, {"time": 107039, "pitch": 49, "duration": 239, "velocity": 120}, {"time": 107039, "pitch": 53, "duration": 239, "velocity": 120}, {"time": 107039, "pitch": 56, "duration": 239, "velocity": 120}, {"time": 107039, "pitch": 61, "duration": 239, "velocity": 120}, {"time": 107278, "pitch": 49, "duration": 239, "velocity": 120}, {"time": 107517, "pitch": 53, "duration": 239, "velocity": 120}, {"time": 107517, "pitch": 56, "duration": 239, "velocity": 120}, {"time": 107517, "pitch": 61, "duration": 239, "velocity": 120}, {"time": 107756, "pitch": 49, "duration": 119, "velocity": 120}, {"time": 107875, "pitch": 53, "duration": 120, "velocity": 120}, {"time": 107875, "pitch": 56, "duration": 120, "velocity": 120}, {"time": 107875, "pitch": 61, "duration": 120, "velocity": 120}, {"time": 107995, "pitch": 49, "duration": 244, "velocity": 120}, {"time": 108239, "pitch": 53, "duration": 244, "velocity": 120}, {"time": 108239, "pitch": 56, "duration": 363, "velocity": 120}, {"time": 108239, "pitch": 61, "duration": 363, "velocity": 120}, {"time": 108483, "pitch": 49, "duration": 119, "velocity": 120}, {"time": 108602, "pitch": 53, "duration": 120, "velocity": 120}, {"time": 108602, "pitch": 56, "duration": 120, "velocity": 120}, {"time": 108602, "pitch": 61, "duration": 120, "velocity": 120}, {"time": 108722, "pitch": 49, "duration": 239, "velocity": 120}, {"time": 108961, "pitch": 39, "duration": 1682, "velocity": 120}, {"time": 108961, "pitch": 51, "duration": 238, "velocity": 120}, {"time": 108961, "pitch": 55, "duration": 238, "velocity": 120}, {"time": 108961, "pitch": 58, "duration": 238, "velocity": 120}, {"time": 108961, "pitch": 63, "duration": 238, "velocity": 120}, {"time": 109199, "pitch": 51, "duration": 239, "velocity": 120}, {"time": 109438, "pitch": 55, "duration": 239, "velocity": 120}, {"time": 109438, "pitch": 58, "duration": 239, "velocity": 120}, {"time": 109438, "pitch": 63, "duration": 239, "velocity": 120}, {"time": 109677, "pitch": 51, "duration": 119, "velocity": 120}, {"time": 109796, "pitch": 55, "duration": 120, "velocity": 120}, {"time": 109796, "pitch": 58, "duration": 120, "velocity": 120}, {"time": 109796, "pitch": 63, "duration": 120, "velocity": 120}, {"time": 109916, "pitch": 51, "duration": 244, "velocity": 120}, {"time": 110160, "pitch": 55, "duration": 244, "velocity": 120}, {"time": 110160, "pitch": 58, "duration": 244, "velocity": 120}, {"time": 110160, "pitch": 63, "duration": 244, "velocity": 120}, {"time": 110404, "pitch": 51, "duration": 119, "velocity": 120}, {"time": 110523, "pitch": 55, "duration": 120, "velocity": 120}, {"time": 110523, "pitch": 58, "duration": 120, "velocity": 120}, {"time": 110523, "pitch": 63, "duration": 120, "velocity": 120}, {"time": 110643, "pitch": 51, "duration": 92, "velocity": 120}, {"time": 110882, "pitch": 41, "duration": 955, "velocity": 120}, {"time": 110882, "pitch": 53, "duration": 239, "velocity": 120}, {"time": 110882, "pitch": 60, "duration": 239, "velocity": 120}, {"time": 110882, "pitch": 63, "duration": 239, "velocity": 120}, {"time": 110882, "pitch": 68, "duration": 239, "velocity": 120}, {"time": 111121, "pitch": 53, "duration": 238, "velocity": 120}, {"time": 111359, "pitch": 60, "duration": 239, "velocity": 120}, {"time": 111359, "pitch": 63, "duration": 239, "velocity": 120}, {"time": 111359, "pitch": 68, "duration": 239, "velocity": 120}, {"time": 111598, "pitch": 53, "duration": 239, "velocity": 120}, {"time": 111837, "pitch": 39, "duration": 727, "velocity": 120}, {"time": 111837, "pitch": 51, "duration": 244, "velocity": 120}, {"time": 111837, "pitch": 58, "duration": 366, "velocity": 120}, {"time": 111837, "pitch": 60, "duration": 366, "velocity": 120}, {"time": 111837, "pitch": 65, "duration": 244, "velocity": 120}, {"time": 112081, "pitch": 51, "duration": 122, "velocity": 120}, {"time": 112203, "pitch": 58, "duration": 122, "velocity": 120}, {"time": 112203, "pitch": 60, "duration": 122, "velocity": 120}, {"time": 112203, "pitch": 65, "duration": 122, "velocity": 120}, {"time": 112325, "pitch": 51, "duration": 239, "velocity": 120}, {"time": 112564, "pitch": 37, "duration": 1552, "velocity": 120}, {"time": 112564, "pitch": 49, "duration": 478, "velocity": 120}, {"time": 112564, "pitch": 56, "duration": 478, "velocity": 120}, {"time": 112564, "pitch": 58, "duration": 478, "velocity": 120}, {"time": 112564, "pitch": 63, "duration": 716, "velocity": 120}, {"time": 113042, "pitch": 49, "duration": 238, "velocity": 120}, {"time": 113280, "pitch": 56, "duration": 239, "velocity": 120}, {"time": 113280, "pitch": 58, "duration": 239, "velocity": 120}, {"time": 113280, "pitch": 63, "duration": 239, "velocity": 120}, {"time": 113519, "pitch": 49, "duration": 239, "velocity": 120}, {"time": 113758, "pitch": 56, "duration": 239, "velocity": 120}, {"time": 113758, "pitch": 58, "duration": 239, "velocity": 120}, {"time": 113758, "pitch": 63, "duration": 239, "velocity": 120}, {"time": 113997, "pitch": 49, "duration": 119, "velocity": 120}, {"time": 114116, "pitch": 39, "duration": 486, "velocity": 120}, {"time": 114116, "pitch": 51, "duration": 242, "velocity": 120}, {"time": 114116, "pitch": 58, "duration": 242, "velocity": 120}, {"time": 114116, "pitch": 60, "duration": 242, "velocity": 120}, {"time": 114116, "pitch": 65, "duration": 242, "velocity": 120}, {"time": 114358, "pitch": 51, "duration": 122, "velocity": 120}, {"time": 114480, "pitch": 58, "duration": 122, "velocity": 120}, {"time": 114480, "pitch": 60, "duration": 122, "velocity": 120}, {"time": 114480, "pitch": 65, "duration": 122, "velocity": 120}, {"time": 114602, "pitch": 51, "duration": 122, "velocity": 120}, {"time": 114724, "pitch": 41, "duration": 955, "velocity": 120}, {"time": 114724, "pitch": 53, "duration": 239, "velocity": 120}, {"time": 114724, "pitch": 60, "duration": 239, "velocity": 120}, {"time": 114724, "pitch": 63, "duration": 239, "velocity": 120}, {"time": 114724, "pitch": 68, "duration": 239, "velocity": 120}, {"time": 114963, "pitch": 53, "duration": 239, "velocity": 120}, {"time": 115202, "pitch": 60, "duration": 238, "velocity": 120}, {"time": 115202, "pitch": 63, "duration": 477, "velocity": 120}, {"time": 115202, "pitch": 68, "duration": 238, "velocity": 120}, {"time": 115440, "pitch": 53, "duration": 239, "velocity": 120}, {"time": 115679, "pitch": 44, "duration": 478, "velocity": 120}, {"time": 115679, "pitch": 56, "duration": 239, "velocity": 120}, {"time": 115679, "pitch": 60, "duration": 239, "velocity": 120}, {"time": 115679, "pitch": 65, "duration": 239, "velocity": 120}, {"time": 115679, "pitch": 70, "duration": 358, "velocity": 120}, {"time": 115918, "pitch": 56, "duration": 119, "velocity": 120}, {"time": 116037, "pitch": 60, "duration": 120, "velocity": 120}, {"time": 116037, "pitch": 65, "duration": 120, "velocity": 120}, {"time": 116037, "pitch": 70, "duration": 120, "velocity": 120}, {"time": 116157, "pitch": 56, "duration": 244, "velocity": 120}, {"time": 116401, "pitch": 37, "duration": 1438, "velocity": 120}, {"time": 116401, "pitch": 49, "duration": 483, "velocity": 120}, {"time": 116401, "pitch": 58, "duration": 483, "velocity": 120}, {"time": 116401, "pitch": 60, "duration": 483, "velocity": 120}, {"time": 116401, "pitch": 65, "duration": 483, "velocity": 120}, {"time": 116884, "pitch": 49, "duration": 239, "velocity": 120}, {"time": 117123, "pitch": 58, "duration": 238, "velocity": 120}, {"time": 117123, "pitch": 60, "duration": 238, "velocity": 120}, {"time": 117123, "pitch": 65, "duration": 238, "velocity": 120}, {"time": 117361, "pitch": 49, "duration": 239, "velocity": 120}, {"time": 117600, "pitch": 58, "duration": 358, "velocity": 120}, {"time": 117600, "pitch": 60, "duration": 239, "velocity": 120}, {"time": 117600, "pitch": 65, "duration": 239, "velocity": 120}, {"time": 117839, "pitch": 49, "duration": 119, "velocity": 120}, {"time": 117958, "pitch": 39, "duration": 478, "velocity": 120}, {"time": 117958, "pitch": 51, "duration": 239, "velocity": 120}, {"time": 117958, "pitch": 56, "duration": 239, "velocity": 120}, {"time": 117958, "pitch": 58, "duration": 239, "velocity": 120}, {"time": 117958, "pitch": 63, "duration": 239, "velocity": 120}, {"time": 118197, "pitch": 51, "duration": 120, "velocity": 120}, {"time": 118317, "pitch": 56, "duration": 119, "velocity": 120}, {"time": 118317, "pitch": 58, "duration": 119, "velocity": 120}, {"time": 118317, "pitch": 63, "duration": 119, "velocity": 120}, {"time": 118436, "pitch": 51, "duration": 119, "velocity": 120}, {"time": 118555, "pitch": 41, "duration": 966, "velocity": 120}, {"time": 118555, "pitch": 53, "duration": 245, "velocity": 120}, {"time": 118555, "pitch": 60, "duration": 245, "velocity": 120}, {"time": 118555, "pitch": 63, "duration": 245, "velocity": 120}, {"time": 118555, "pitch": 68, "duration": 245, "velocity": 120}, {"time": 118800, "pitch": 53, "duration": 244, "velocity": 120}, {"time": 119044, "pitch": 60, "duration": 239, "velocity": 120}, {"time": 119044, "pitch": 63, "duration": 239, "velocity": 120}, {"time": 119044, "pitch": 68, "duration": 239, "velocity": 120}, {"time": 119283, "pitch": 53, "duration": 238, "velocity": 120}, {"time": 119521, "pitch": 39, "duration": 717, "velocity": 120}, {"time": 119521, "pitch": 51, "duration": 239, "velocity": 120}, {"time": 119521, "pitch": 58, "duration": 239, "velocity": 120}, {"time": 119521, "pitch": 60, "duration": 239, "velocity": 120}, {"time": 119521, "pitch": 65, "duration": 239, "velocity": 120}, {"time": 119760, "pitch": 51, "duration": 120, "velocity": 120}, {"time": 119880, "pitch": 58, "duration": 119, "velocity": 120}, {"time": 119880, "pitch": 60, "duration": 119, "velocity": 120}, {"time": 119880, "pitch": 65, "duration": 119, "velocity": 120}, {"time": 119999, "pitch": 51, "duration": 239, "velocity": 120}, {"time": 120238, "pitch": 37, "duration": 1563, "velocity": 120}, {"time": 120238, "pitch": 49, "duration": 483, "velocity": 120}, {"time": 120238, "pitch": 56, "duration": 483, "velocity": 120}, {"time": 120238, "pitch": 58, "duration": 483, "velocity": 120}, {"time": 120238, "pitch": 63, "duration": 727, "velocity": 120}, {"time": 120721, "pitch": 49, "duration": 244, "velocity": 120}, {"time": 120965, "pitch": 56, "duration": 239, "velocity": 120}, {"time": 120965, "pitch": 58, "duration": 239, "velocity": 120}, {"time": 120965, "pitch": 63, "duration": 239, "velocity": 120}, {"time": 121204, "pitch": 49, "duration": 238, "velocity": 120}, {"time": 121442, "pitch": 56, "duration": 239, "velocity": 120}, {"time": 121442, "pitch": 58, "duration": 239, "velocity": 120}, {"time": 121442, "pitch": 63, "duration": 359, "velocity": 120}, {"time": 121681, "pitch": 49, "duration": 120, "velocity": 120}, {"time": 121801, "pitch": 39, "duration": 597, "velocity": 120}, {"time": 121801, "pitch": 51, "duration": 358, "velocity": 120}, {"time": 121801, "pitch": 58, "duration": 358, "velocity": 120}, {"time": 121801, "pitch": 60, "duration": 358, "velocity": 120}, {"time": 121801, "pitch": 65, "duration": 358, "velocity": 120}, {"time": 122159, "pitch": 51, "duration": 239, "velocity": 120}, {"time": 122159, "pitch": 58, "duration": 239, "velocity": 120}, {"time": 122159, "pitch": 60, "duration": 239, "velocity": 120}, {"time": 122159, "pitch": 65, "duration": 239, "velocity": 120}, {"time": 122398, "pitch": 41, "duration": 966, "velocity": 120}, {"time": 122398, "pitch": 53, "duration": 239, "velocity": 120}, {"time": 122398, "pitch": 60, "duration": 239, "velocity": 120}, {"time": 122398, "pitch": 63, "duration": 239, "velocity": 120}, {"time": 122398, "pitch": 68, "duration": 239, "velocity": 120}, {"time": 122637, "pitch": 53, "duration": 238, "velocity": 120}, {"time": 122875, "pitch": 60, "duration": 244, "velocity": 120}, {"time": 122875, "pitch": 63, "duration": 489, "velocity": 120}, {"time": 122875, "pitch": 68, "duration": 244, "velocity": 120}, {"time": 123119, "pitch": 53, "duration": 245, "velocity": 120}, {"time": 123364, "pitch": 44, "duration": 477, "velocity": 120}, {"time": 123364, "pitch": 56, "duration": 238, "velocity": 120}, {"time": 123364, "pitch": 60, "duration": 238, "velocity": 120}, {"time": 123364, "pitch": 65, "duration": 238, "velocity": 120}, {"time": 123364, "pitch": 70, "duration": 358, "velocity": 120}, {"time": 123602, "pitch": 56, "duration": 120, "velocity": 120}, {"time": 123722, "pitch": 60, "duration": 119, "velocity": 120}, {"time": 123722, "pitch": 65, "duration": 119, "velocity": 120}, {"time": 123722, "pitch": 70, "duration": 119, "velocity": 120}, {"time": 123841, "pitch": 56, "duration": 239, "velocity": 120}, {"time": 124080, "pitch": 37, "duration": 1444, "velocity": 120}, {"time": 124080, "pitch": 49, "duration": 478, "velocity": 120}, {"time": 124080, "pitch": 58, "duration": 478, "velocity": 120}, {"time": 124080, "pitch": 60, "duration": 478, "velocity": 120}, {"time": 124080, "pitch": 65, "duration": 478, "velocity": 120}, {"time": 124558, "pitch": 49, "duration": 238, "velocity": 120}, {"time": 124796, "pitch": 58, "duration": 245, "velocity": 120}, {"time": 124796, "pitch": 60, "duration": 245, "velocity": 120}, {"time": 124796, "pitch": 65, "duration": 245, "velocity": 120}, {"time": 125041, "pitch": 49, "duration": 244, "velocity": 120}, {"time": 125285, "pitch": 58, "duration": 358, "velocity": 120}, {"time": 125285, "pitch": 60, "duration": 239, "velocity": 120}, {"time": 125285, "pitch": 65, "duration": 239, "velocity": 120}, {"time": 125524, "pitch": 49, "duration": 119, "velocity": 120}, {"time": 125643, "pitch": 39, "duration": 478, "velocity": 120}, {"time": 125643, "pitch": 51, "duration": 239, "velocity": 120}, {"time": 125643, "pitch": 56, "duration": 239, "velocity": 120}, {"time": 125643, "pitch": 58, "duration": 239, "velocity": 120}, {"time": 125643, "pitch": 63, "duration": 239, "velocity": 120}, {"time": 125882, "pitch": 51, "duration": 119, "velocity": 120}, {"time": 126001, "pitch": 56, "duration": 120, "velocity": 120}, {"time": 126001, "pitch": 58, "duration": 120, "velocity": 120}, {"time": 126001, "pitch": 63, "duration": 120, "velocity": 120}, {"time": 126121, "pitch": 51, "duration": 119, "velocity": 120}, {"time": 126240, "pitch": 41, "duration": 955, "velocity": 120}, {"time": 126240, "pitch": 53, "duration": 239, "velocity": 120}, {"time": 126240, "pitch": 60, "duration": 239, "velocity": 120}, {"time": 126240, "pitch": 63, "duration": 239, "velocity": 120}, {"time": 126240, "pitch": 68, "duration": 239, "velocity": 120}, {"time": 126479, "pitch": 53, "duration": 239, "velocity": 120}, {"time": 126718, "pitch": 60, "duration": 238, "velocity": 120}, {"time": 126718, "pitch": 63, "duration": 238, "velocity": 120}, {"time": 126718, "pitch": 68, "duration": 238, "velocity": 120}, {"time": 126956, "pitch": 53, "duration": 239, "velocity": 120}, {"time": 127195, "pitch": 39, "duration": 727, "velocity": 120}, {"time": 127195, "pitch": 51, "duration": 244, "velocity": 120}, {"time": 127195, "pitch": 58, "duration": 366, "velocity": 120}, {"time": 127195, "pitch": 60, "duration": 366, "velocity": 120}, {"time": 127195, "pitch": 65, "duration": 244, "velocity": 120}, {"time": 127439, "pitch": 51, "duration": 122, "velocity": 120}, {"time": 127561, "pitch": 58, "duration": 122, "velocity": 120}, {"time": 127561, "pitch": 60, "duration": 122, "velocity": 120}, {"time": 127561, "pitch": 65, "duration": 122, "velocity": 120}, {"time": 127683, "pitch": 51, "duration": 239, "velocity": 120}, {"time": 127922, "pitch": 37, "duration": 1561, "velocity": 120}, {"time": 127922, "pitch": 49, "duration": 478, "velocity": 120}, {"time": 127922, "pitch": 56, "duration": 478, "velocity": 120}, {"time": 127922, "pitch": 58, "duration": 478, "velocity": 120}, {"time": 127922, "pitch": 63, "duration": 717, "velocity": 120}, {"time": 128400, "pitch": 49, "duration": 239, "velocity": 120}, {"time": 128639, "pitch": 56, "duration": 238, "velocity": 120}, {"time": 128639, "pitch": 58, "duration": 238, "velocity": 120}, {"time": 128639, "pitch": 63, "duration": 238, "velocity": 120}, {"time": 128877, "pitch": 49, "duration": 239, "velocity": 120}, {"time": 129116, "pitch": 56, "duration": 244, "velocity": 120}, {"time": 129116, "pitch": 58, "duration": 244, "velocity": 120}, {"time": 129116, "pitch": 63, "duration": 244, "velocity": 120}, {"time": 129360, "pitch": 49, "duration": 123, "velocity": 120}, {"time": 129483, "pitch": 39, "duration": 480, "velocity": 120}, {"time": 129483, "pitch": 51, "duration": 241, "velocity": 120}, {"time": 129483, "pitch": 58, "duration": 241, "velocity": 120}, {"time": 129483, "pitch": 60, "duration": 241, "velocity": 120}, {"time": 129483, "pitch": 65, "duration": 241, "velocity": 120}, {"time": 129724, "pitch": 51, "duration": 119, "velocity": 120}, {"time": 129843, "pitch": 58, "duration": 120, "velocity": 120}, {"time": 129843, "pitch": 60, "duration": 120, "velocity": 120}, {"time": 129843, "pitch": 65, "duration": 120, "velocity": 120}, {"time": 129963, "pitch": 51, "duration": 119, "velocity": 120}, {"time": 130082, "pitch": 41, "duration": 955, "velocity": 120}, {"time": 130082, "pitch": 53, "duration": 239, "velocity": 120}, {"time": 130082, "pitch": 60, "duration": 239, "velocity": 120}, {"time": 130082, "pitch": 63, "duration": 239, "velocity": 120}, {"time": 130082, "pitch": 68, "duration": 239, "velocity": 120}, {"time": 130321, "pitch": 53, "duration": 239, "velocity": 120}, {"time": 130560, "pitch": 60, "duration": 239, "velocity": 120}, {"time": 130560, "pitch": 63, "duration": 477, "velocity": 120}, {"time": 130560, "pitch": 68, "duration": 239, "velocity": 120}, {"time": 130799, "pitch": 53, "duration": 238, "velocity": 120}, {"time": 131037, "pitch": 44, "duration": 478, "velocity": 120}, {"time": 131037, "pitch": 56, "duration": 239, "velocity": 120}, {"time": 131037, "pitch": 60, "duration": 239, "velocity": 120}, {"time": 131037, "pitch": 65, "duration": 239, "velocity": 120}, {"time": 131037, "pitch": 70, "duration": 359, "velocity": 120}, {"time": 131276, "pitch": 56, "duration": 120, "velocity": 120}, {"time": 131396, "pitch": 60, "duration": 119, "velocity": 120}, {"time": 131396, "pitch": 65, "duration": 119, "velocity": 120}, {"time": 131396, "pitch": 70, "duration": 119, "velocity": 120}, {"time": 131515, "pitch": 56, "duration": 244, "velocity": 120}, {"time": 131759, "pitch": 37, "duration": 1438, "velocity": 120}, {"time": 131759, "pitch": 49, "duration": 483, "velocity": 120}, {"time": 131759, "pitch": 58, "duration": 483, "velocity": 120}, {"time": 131759, "pitch": 60, "duration": 483, "velocity": 120}, {"time": 131759, "pitch": 65, "duration": 483, "velocity": 120}, {"time": 132242, "pitch": 49, "duration": 239, "velocity": 120}, {"time": 132481, "pitch": 58, "duration": 239, "velocity": 120}, {"time": 132481, "pitch": 60, "duration": 239, "velocity": 120}, {"time": 132481, "pitch": 65, "duration": 239, "velocity": 120}, {"time": 132720, "pitch": 49, "duration": 239, "velocity": 120}, {"time": 132959, "pitch": 58, "duration": 358, "velocity": 120}, {"time": 132959, "pitch": 60, "duration": 238, "velocity": 120}, {"time": 132959, "pitch": 65, "duration": 238, "velocity": 120}, {"time": 133197, "pitch": 49, "duration": 120, "velocity": 120}, {"time": 133317, "pitch": 39, "duration": 485, "velocity": 120}, {"time": 133317, "pitch": 51, "duration": 241, "velocity": 120}, {"time": 133317, "pitch": 56, "duration": 241, "velocity": 120}, {"time": 133317, "pitch": 58, "duration": 241, "velocity": 120}, {"time": 133317, "pitch": 63, "duration": 241, "velocity": 120}, {"time": 133558, "pitch": 51, "duration": 122, "velocity": 120}, {"time": 133680, "pitch": 56, "duration": 122, "velocity": 120}, {"time": 133680, "pitch": 58, "duration": 122, "velocity": 120}, {"time": 133680, "pitch": 63, "duration": 122, "velocity": 120}, {"time": 133802, "pitch": 51, "duration": 122, "velocity": 120}, {"time": 133924, "pitch": 41, "duration": 956, "velocity": 120}, {"time": 133924, "pitch": 53, "duration": 239, "velocity": 120}, {"time": 133924, "pitch": 60, "duration": 239, "velocity": 120}, {"time": 133924, "pitch": 63, "duration": 239, "velocity": 120}, {"time": 133924, "pitch": 68, "duration": 239, "velocity": 120}, {"time": 134163, "pitch": 53, "duration": 239, "velocity": 120}, {"time": 134402, "pitch": 60, "duration": 239, "velocity": 120}, {"time": 134402, "pitch": 63, "duration": 239, "velocity": 120}, {"time": 134402, "pitch": 68, "duration": 239, "velocity": 120}, {"time": 134641, "pitch": 53, "duration": 239, "velocity": 120}, {"time": 134880, "pitch": 39, "duration": 716, "velocity": 120}, {"time": 134880, "pitch": 51, "duration": 238, "velocity": 120}, {"time": 134880, "pitch": 58, "duration": 238, "velocity": 120}, {"time": 134880, "pitch": 60, "duration": 238, "velocity": 120}, {"time": 134880, "pitch": 65, "duration": 238, "velocity": 120}, {"time": 135118, "pitch": 51, "duration": 120, "velocity": 120}, {"time": 135238, "pitch": 58, "duration": 119, "velocity": 120}, {"time": 135238, "pitch": 60, "duration": 119, "velocity": 120}, {"time": 135238, "pitch": 65, "duration": 119, "velocity": 120}, {"time": 135357, "pitch": 51, "duration": 239, "velocity": 120}, {"time": 135596, "pitch": 37, "duration": 1563, "velocity": 120}, {"time": 135596, "pitch": 49, "duration": 483, "velocity": 120}, {"time": 135596, "pitch": 56, "duration": 483, "velocity": 120}, {"time": 135596, "pitch": 58, "duration": 483, "velocity": 120}, {"time": 135596, "pitch": 63, "duration": 727, "velocity": 120}, {"time": 136079, "pitch": 49, "duration": 244, "velocity": 120}, {"time": 136323, "pitch": 56, "duration": 239, "velocity": 120}, {"time": 136323, "pitch": 58, "duration": 239, "velocity": 120}, {"time": 136323, "pitch": 63, "duration": 239, "velocity": 120}, {"time": 136562, "pitch": 49, "duration": 239, "velocity": 120}, {"time": 136801, "pitch": 56, "duration": 239, "velocity": 120}, {"time": 136801, "pitch": 58, "duration": 239, "velocity": 120}, {"time": 136801, "pitch": 63, "duration": 358, "velocity": 120}, {"time": 137040, "pitch": 49, "duration": 119, "velocity": 120}, {"time": 137159, "pitch": 39, "duration": 597, "velocity": 120}, {"time": 137159, "pitch": 51, "duration": 358, "velocity": 120}, {"time": 137159, "pitch": 58, "duration": 358, "velocity": 120}, {"time": 137159, "pitch": 60, "duration": 358, "velocity": 120}, {"time": 137159, "pitch": 65, "duration": 358, "velocity": 120}, {"time": 137517, "pitch": 51, "duration": 239, "velocity": 120}, {"time": 137517, "pitch": 58, "duration": 239, "velocity": 120}, {"time": 137517, "pitch": 60, "duration": 239, "velocity": 120}, {"time": 137517, "pitch": 65, "duration": 239, "velocity": 120}, {"time": 137756, "pitch": 41, "duration": 966, "velocity": 120}, {"time": 137756, "pitch": 53, "duration": 244, "velocity": 120}, {"time": 137756, "pitch": 60, "duration": 244, "velocity": 120}, {"time": 137756, "pitch": 63, "duration": 244, "velocity": 120}, {"time": 137756, "pitch": 68, "duration": 244, "velocity": 120}, {"time": 138000, "pitch": 53, "duration": 244, "velocity": 120}, {"time": 138244, "pitch": 60, "duration": 239, "velocity": 120}, {"time": 138244, "pitch": 63, "duration": 478, "velocity": 120}, {"time": 138244, "pitch": 68, "duration": 239, "velocity": 120}, {"time": 138483, "pitch": 53, "duration": 239, "velocity": 120}, {"time": 138722, "pitch": 44, "duration": 477, "velocity": 120}, {"time": 138722, "pitch": 56, "duration": 239, "velocity": 120}, {"time": 138722, "pitch": 60, "duration": 239, "velocity": 120}, {"time": 138722, "pitch": 65, "duration": 239, "velocity": 120}, {"time": 138722, "pitch": 70, "duration": 358, "velocity": 120}, {"time": 138961, "pitch": 56, "duration": 119, "velocity": 120}, {"time": 139080, "pitch": 60, "duration": 119, "velocity": 120}, {"time": 139080, "pitch": 65, "duration": 119, "velocity": 120}, {"time": 139080, "pitch": 70, "duration": 119, "velocity": 120}, {"time": 139199, "pitch": 56, "duration": 239, "velocity": 120}, {"time": 139438, "pitch": 37, "duration": 1444, "velocity": 120}, {"time": 139438, "pitch": 49, "duration": 478, "velocity": 120}, {"time": 139438, "pitch": 58, "duration": 478, "velocity": 120}, {"time": 139438, "pitch": 60, "duration": 478, "velocity": 120}, {"time": 139438, "pitch": 65, "duration": 478, "velocity": 120}, {"time": 139916, "pitch": 49, "duration": 239, "velocity": 120}, {"time": 140155, "pitch": 58, "duration": 244, "velocity": 120}, {"time": 140155, "pitch": 60, "duration": 244, "velocity": 120}, {"time": 140155, "pitch": 65, "duration": 244, "velocity": 120}, {"time": 140399, "pitch": 49, "duration": 244, "velocity": 120}, {"time": 140643, "pitch": 58, "duration": 358, "velocity": 120}, {"time": 140643, "pitch": 60, "duration": 239, "velocity": 120}, {"time": 140643, "pitch": 65, "duration": 239, "velocity": 120}, {"time": 140882, "pitch": 49, "duration": 119, "velocity": 120}, {"time": 141001, "pitch": 39, "duration": 478, "velocity": 120}, {"time": 141001, "pitch": 51, "duration": 239, "velocity": 120}, {"time": 141001, "pitch": 56, "duration": 239, "velocity": 120}, {"time": 141001, "pitch": 58, "duration": 239, "velocity": 120}, {"time": 141001, "pitch": 63, "duration": 239, "velocity": 120}, {"time": 141240, "pitch": 51, "duration": 119, "velocity": 120}, {"time": 141359, "pitch": 56, "duration": 120, "velocity": 120}, {"time": 141359, "pitch": 58, "duration": 120, "velocity": 120}, {"time": 141359, "pitch": 63, "duration": 120, "velocity": 120}, {"time": 141479, "pitch": 51, "duration": 119, "velocity": 120}, {"time": 141598, "pitch": 41, "duration": 966, "velocity": 120}, {"time": 141598, "pitch": 53, "duration": 239, "velocity": 120}, {"time": 141598, "pitch": 60, "duration": 239, "velocity": 120}, {"time": 141598, "pitch": 63, "duration": 239, "velocity": 120}, {"time": 141598, "pitch": 68, "duration": 239, "velocity": 120}, {"time": 141837, "pitch": 53, "duration": 239, "velocity": 120}, {"time": 142076, "pitch": 60, "duration": 244, "velocity": 120}, {"time": 142076, "pitch": 63, "duration": 244, "velocity": 120}, {"time": 142076, "pitch": 68, "duration": 244, "velocity": 120}, {"time": 142320, "pitch": 53, "duration": 244, "velocity": 120}, {"time": 142564, "pitch": 39, "duration": 716, "velocity": 120}, {"time": 142564, "pitch": 51, "duration": 239, "velocity": 120}, {"time": 142564, "pitch": 58, "duration": 358, "velocity": 120}, {"time": 142564, "pitch": 60, "duration": 358, "velocity": 120}, {"time": 142564, "pitch": 65, "duration": 239, "velocity": 120}, {"time": 142803, "pitch": 51, "duration": 119, "velocity": 120}, {"time": 142922, "pitch": 58, "duration": 120, "velocity": 120}, {"time": 142922, "pitch": 60, "duration": 120, "velocity": 120}, {"time": 142922, "pitch": 65, "duration": 120, "velocity": 120}, {"time": 143042, "pitch": 51, "duration": 238, "velocity": 120}, {"time": 143280, "pitch": 37, "duration": 1563, "velocity": 120}, {"time": 143280, "pitch": 49, "duration": 478, "velocity": 120}, {"time": 143280, "pitch": 56, "duration": 478, "velocity": 120}, {"time": 143280, "pitch": 58, "duration": 478, "velocity": 120}, {"time": 143280, "pitch": 63, "duration": 717, "velocity": 120}, {"time": 143758, "pitch": 49, "duration": 239, "velocity": 120}, {"time": 143997, "pitch": 56, "duration": 244, "velocity": 120}, {"time": 143997, "pitch": 58, "duration": 244, "velocity": 120}, {"time": 143997, "pitch": 63, "duration": 244, "velocity": 120}, {"time": 144241, "pitch": 49, "duration": 244, "velocity": 120}, {"time": 144485, "pitch": 56, "duration": 239, "velocity": 120}, {"time": 144485, "pitch": 58, "duration": 239, "velocity": 120}, {"time": 144485, "pitch": 63, "duration": 239, "velocity": 120}, {"time": 144724, "pitch": 49, "duration": 119, "velocity": 120}, {"time": 144843, "pitch": 39, "duration": 478, "velocity": 120}, {"time": 144843, "pitch": 51, "duration": 239, "velocity": 120}, {"time": 144843, "pitch": 58, "duration": 239, "velocity": 120}, {"time": 144843, "pitch": 60, "duration": 239, "velocity": 120}, {"time": 144843, "pitch": 65, "duration": 239, "velocity": 120}, {"time": 145082, "pitch": 51, "duration": 120, "velocity": 120}, {"time": 145202, "pitch": 58, "duration": 119, "velocity": 120}, {"time": 145202, "pitch": 60, "duration": 119, "velocity": 120}, {"time": 145202, "pitch": 65, "duration": 119, "velocity": 120}, {"time": 145321, "pitch": 51, "duration": 119, "velocity": 120}, {"time": 145440, "pitch": 41, "duration": 956, "velocity": 120}, {"time": 145440, "pitch": 53, "duration": 239, "velocity": 120}, {"time": 145440, "pitch": 60, "duration": 239, "velocity": 120}, {"time": 145440, "pitch": 63, "duration": 239, "velocity": 120}, {"time": 145440, "pitch": 68, "duration": 239, "velocity": 120}, {"time": 145679, "pitch": 53, "duration": 239, "velocity": 120}, {"time": 145918, "pitch": 60, "duration": 239, "velocity": 120}, {"time": 145918, "pitch": 63, "duration": 478, "velocity": 120}, {"time": 145918, "pitch": 68, "duration": 239, "velocity": 120}, {"time": 146157, "pitch": 53, "duration": 239, "velocity": 120}, {"time": 146396, "pitch": 44, "duration": 488, "velocity": 120}, {"time": 146396, "pitch": 56, "duration": 244, "velocity": 120}, {"time": 146396, "pitch": 60, "duration": 244, "velocity": 120}, {"time": 146396, "pitch": 65, "duration": 244, "velocity": 120}, {"time": 146396, "pitch": 70, "duration": 366, "velocity": 120}, {"time": 146640, "pitch": 56, "duration": 122, "velocity": 120}, {"time": 146762, "pitch": 60, "duration": 122, "velocity": 120}, {"time": 146762, "pitch": 65, "duration": 122, "velocity": 120}, {"time": 146762, "pitch": 70, "duration": 122, "velocity": 120}, {"time": 146884, "pitch": 56, "duration": 239, "velocity": 120}, {"time": 147123, "pitch": 37, "duration": 1438, "velocity": 120}, {"time": 147123, "pitch": 49, "duration": 477, "velocity": 120}, {"time": 147123, "pitch": 58, "duration": 477, "velocity": 120}, {"time": 147123, "pitch": 60, "duration": 477, "velocity": 120}, {"time": 147123, "pitch": 65, "duration": 477, "velocity": 120}, {"time": 147600, "pitch": 49, "duration": 239, "velocity": 120}, {"time": 147839, "pitch": 58, "duration": 239, "velocity": 120}, {"time": 147839, "pitch": 60, "duration": 239, "velocity": 120}, {"time": 147839, "pitch": 65, "duration": 239, "velocity": 120}, {"time": 148078, "pitch": 49, "duration": 239, "velocity": 120}, {"time": 148317, "pitch": 58, "duration": 366, "velocity": 120}, {"time": 148317, "pitch": 60, "duration": 244, "velocity": 120}, {"time": 148317, "pitch": 65, "duration": 244, "velocity": 120}, {"time": 148561, "pitch": 49, "duration": 122, "velocity": 120}, {"time": 148683, "pitch": 39, "duration": 480, "velocity": 120}, {"time": 148683, "pitch": 51, "duration": 241, "velocity": 120}, {"time": 148683, "pitch": 56, "duration": 241, "velocity": 120}, {"time": 148683, "pitch": 58, "duration": 241, "velocity": 120}, {"time": 148683, "pitch": 63, "duration": 241, "velocity": 120}, {"time": 148924, "pitch": 51, "duration": 120, "velocity": 120}, {"time": 149044, "pitch": 56, "duration": 119, "velocity": 120}, {"time": 149044, "pitch": 58, "duration": 119, "velocity": 120}, {"time": 149044, "pitch": 63, "duration": 119, "velocity": 120}, {"time": 149163, "pitch": 51, "duration": 120, "velocity": 120}, {"time": 149283, "pitch": 41, "duration": 955, "velocity": 120}, {"time": 149283, "pitch": 53, "duration": 238, "velocity": 120}, {"time": 149283, "pitch": 60, "duration": 238, "velocity": 120}, {"time": 149283, "pitch": 63, "duration": 238, "velocity": 120}, {"time": 149283, "pitch": 68, "duration": 238, "velocity": 120}, {"time": 149521, "pitch": 53, "duration": 239, "velocity": 120}, {"time": 149760, "pitch": 60, "duration": 239, "velocity": 120}, {"time": 149760, "pitch": 63, "duration": 239, "velocity": 120}, {"time": 149760, "pitch": 68, "duration": 239, "velocity": 120}, {"time": 149999, "pitch": 53, "duration": 239, "velocity": 120}, {"time": 150238, "pitch": 39, "duration": 722, "velocity": 120}, {"time": 150238, "pitch": 51, "duration": 239, "velocity": 120}, {"time": 150238, "pitch": 58, "duration": 239, "velocity": 120}, {"time": 150238, "pitch": 60, "duration": 239, "velocity": 120}, {"time": 150238, "pitch": 65, "duration": 239, "velocity": 120}, {"time": 150477, "pitch": 51, "duration": 119, "velocity": 120}, {"time": 150596, "pitch": 58, "duration": 119, "velocity": 120}, {"time": 150596, "pitch": 60, "duration": 119, "velocity": 120}, {"time": 150596, "pitch": 65, "duration": 119, "velocity": 120}, {"time": 150715, "pitch": 51, "duration": 245, "velocity": 120}, {"time": 150960, "pitch": 37, "duration": 1557, "velocity": 120}, {"time": 150960, "pitch": 49, "duration": 483, "velocity": 120}, {"time": 150960, "pitch": 56, "duration": 483, "velocity": 120}, {"time": 150960, "pitch": 58, "duration": 483, "velocity": 120}, {"time": 150960, "pitch": 63, "duration": 721, "velocity": 120}, {"time": 151443, "pitch": 49, "duration": 238, "velocity": 120}, {"time": 151681, "pitch": 56, "duration": 239, "velocity": 120}, {"time": 151681, "pitch": 58, "duration": 239, "velocity": 120}, {"time": 151681, "pitch": 63, "duration": 239, "velocity": 120}, {"time": 151920, "pitch": 49, "duration": 239, "velocity": 120}, {"time": 152159, "pitch": 56, "duration": 239, "velocity": 120}, {"time": 152159, "pitch": 58, "duration": 239, "velocity": 120}, {"time": 152159, "pitch": 63, "duration": 358, "velocity": 120}, {"time": 152398, "pitch": 49, "duration": 119, "velocity": 120}, {"time": 152517, "pitch": 39, "duration": 608, "velocity": 120}, {"time": 152517, "pitch": 51, "duration": 364, "velocity": 120}, {"time": 152517, "pitch": 58, "duration": 364, "velocity": 120}, {"time": 152517, "pitch": 60, "duration": 364, "velocity": 120}, {"time": 152517, "pitch": 65, "duration": 364, "velocity": 120}, {"time": 152881, "pitch": 51, "duration": 244, "velocity": 120}, {"time": 152881, "pitch": 58, "duration": 244, "velocity": 120}, {"time": 152881, "pitch": 60, "duration": 244, "velocity": 120}, {"time": 152881, "pitch": 65, "duration": 244, "velocity": 120}, {"time": 153125, "pitch": 41, "duration": 955, "velocity": 120}, {"time": 153125, "pitch": 53, "duration": 239, "velocity": 120}, {"time": 153125, "pitch": 60, "duration": 239, "velocity": 120}, {"time": 153125, "pitch": 63, "duration": 239, "velocity": 120}, {"time": 153125, "pitch": 68, "duration": 239, "velocity": 120}, {"time": 153364, "pitch": 53, "duration": 238, "velocity": 120}, {"time": 153602, "pitch": 60, "duration": 239, "velocity": 120}, {"time": 153602, "pitch": 63, "duration": 478, "velocity": 120}, {"time": 153602, "pitch": 68, "duration": 239, "velocity": 120}, {"time": 153841, "pitch": 53, "duration": 239, "velocity": 120}, {"time": 154080, "pitch": 44, "duration": 478, "velocity": 120}, {"time": 154080, "pitch": 56, "duration": 239, "velocity": 120}, {"time": 154080, "pitch": 60, "duration": 239, "velocity": 120}, {"time": 154080, "pitch": 65, "duration": 239, "velocity": 120}, {"time": 154080, "pitch": 70, "duration": 358, "velocity": 120}, {"time": 154319, "pitch": 56, "duration": 119, "velocity": 120}, {"time": 154438, "pitch": 60, "duration": 120, "velocity": 120}, {"time": 154438, "pitch": 65, "duration": 120, "velocity": 120}, {"time": 154438, "pitch": 70, "duration": 120, "velocity": 120}, {"time": 154558, "pitch": 56, "duration": 239, "velocity": 120}, {"time": 154797, "pitch": 37, "duration": 1443, "velocity": 120}, {"time": 154797, "pitch": 49, "duration": 482, "velocity": 120}, {"time": 154797, "pitch": 58, "duration": 482, "velocity": 120}, {"time": 154797, "pitch": 60, "duration": 482, "velocity": 120}, {"time": 154797, "pitch": 65, "duration": 482, "velocity": 120}, {"time": 155279, "pitch": 49, "duration": 245, "velocity": 120}, {"time": 155524, "pitch": 58, "duration": 238, "velocity": 120}, {"time": 155524, "pitch": 60, "duration": 238, "velocity": 120}, {"time": 155524, "pitch": 65, "duration": 238, "velocity": 120}, {"time": 155762, "pitch": 49, "duration": 239, "velocity": 120}, {"time": 156001, "pitch": 58, "duration": 358, "velocity": 120}, {"time": 156001, "pitch": 60, "duration": 239, "velocity": 120}, {"time": 156001, "pitch": 65, "duration": 239, "velocity": 120}, {"time": 156240, "pitch": 49, "duration": 119, "velocity": 120}, {"time": 156359, "pitch": 39, "duration": 478, "velocity": 120}, {"time": 156359, "pitch": 51, "duration": 239, "velocity": 120}, {"time": 156359, "pitch": 56, "duration": 239, "velocity": 120}, {"time": 156359, "pitch": 58, "duration": 239, "velocity": 120}, {"time": 156359, "pitch": 63, "duration": 239, "velocity": 120}, {"time": 156598, "pitch": 51, "duration": 120, "velocity": 120}, {"time": 156718, "pitch": 56, "duration": 119, "velocity": 120}, {"time": 156718, "pitch": 58, "duration": 119, "velocity": 120}, {"time": 156718, "pitch": 63, "duration": 119, "velocity": 120}, {"time": 156837, "pitch": 51, "duration": 119, "velocity": 120}, {"time": 156956, "pitch": 39, "duration": 1922, "velocity": 120}, {"time": 156956, "pitch": 51, "duration": 245, "velocity": 120}, {"time": 156956, "pitch": 58, "duration": 245, "velocity": 120}, {"time": 156956, "pitch": 63, "duration": 245, "velocity": 120}, {"time": 156956, "pitch": 67, "duration": 245, "velocity": 120}, {"time": 157201, "pitch": 51, "duration": 244, "velocity": 120}, {"time": 157445, "pitch": 58, "duration": 239, "velocity": 120}, {"time": 157445, "pitch": 63, "duration": 239, "velocity": 120}, {"time": 157445, "pitch": 67, "duration": 239, "velocity": 120}, {"time": 157684, "pitch": 51, "duration": 119, "velocity": 120}, {"time": 157803, "pitch": 58, "duration": 119, "velocity": 120}, {"time": 157803, "pitch": 63, "duration": 119, "velocity": 120}, {"time": 157803, "pitch": 67, "duration": 119, "velocity": 120}, {"time": 157922, "pitch": 51, "duration": 239, "velocity": 120}, {"time": 158161, "pitch": 58, "duration": 239, "velocity": 120}, {"time": 158161, "pitch": 63, "duration": 239, "velocity": 120}, {"time": 158161, "pitch": 67, "duration": 239, "velocity": 120}, {"time": 158400, "pitch": 51, "duration": 119, "velocity": 120}, {"time": 158519, "pitch": 58, "duration": 120, "velocity": 120}, {"time": 158519, "pitch": 63, "duration": 120, "velocity": 120}, {"time": 158519, "pitch": 67, "duration": 120, "velocity": 120}, {"time": 158639, "pitch": 51, "duration": 239, "velocity": 120}, {"time": 158878, "pitch": 37, "duration": 1921, "velocity": 120}, {"time": 158878, "pitch": 49, "duration": 238, "velocity": 120}, {"time": 158878, "pitch": 56, "duration": 238, "velocity": 120}, {"time": 158878, "pitch": 60, "duration": 238, "velocity": 120}, {"time": 158878, "pitch": 65, "duration": 238, "velocity": 120}, {"time": 159116, "pitch": 49, "duration": 239, "velocity": 120}, {"time": 159355, "pitch": 56, "duration": 244, "velocity": 120}, {"time": 159355, "pitch": 60, "duration": 244, "velocity": 120}, {"time": 159355, "pitch": 65, "duration": 244, "velocity": 120}, {"time": 159599, "pitch": 49, "duration": 122, "velocity": 120}, {"time": 159721, "pitch": 56, "duration": 122, "velocity": 120}, {"time": 159721, "pitch": 60, "duration": 122, "velocity": 120}, {"time": 159721, "pitch": 65, "duration": 122, "velocity": 120}, {"time": 159843, "pitch": 49, "duration": 239, "velocity": 120}, {"time": 160082, "pitch": 56, "duration": 239, "velocity": 120}, {"time": 160082, "pitch": 60, "duration": 239, "velocity": 120}, {"time": 160082, "pitch": 65, "duration": 239, "velocity": 120}, {"time": 160321, "pitch": 49, "duration": 119, "velocity": 120}, {"time": 160440, "pitch": 56, "duration": 120, "velocity": 120}, {"time": 160440, "pitch": 60, "duration": 120, "velocity": 120}, {"time": 160440, "pitch": 65, "duration": 120, "velocity": 120}, {"time": 160560, "pitch": 49, "duration": 239, "velocity": 120}, {"time": 160799, "pitch": 39, "duration": 1921, "velocity": 120}, {"time": 160799, "pitch": 51, "duration": 238, "velocity": 120}, {"time": 160799, "pitch": 58, "duration": 238, "velocity": 120}, {"time": 160799, "pitch": 63, "duration": 238, "velocity": 120}, {"time": 160799, "pitch": 67, "duration": 238, "velocity": 120}, {"time": 161037, "pitch": 51, "duration": 239, "velocity": 120}, {"time": 161276, "pitch": 58, "duration": 244, "velocity": 120}, {"time": 161276, "pitch": 63, "duration": 244, "velocity": 120}, {"time": 161276, "pitch": 67, "duration": 244, "velocity": 120}, {"time": 161520, "pitch": 51, "duration": 123, "velocity": 120}, {"time": 161643, "pitch": 58, "duration": 122, "velocity": 120}, {"time": 161643, "pitch": 63, "duration": 122, "velocity": 120}, {"time": 161643, "pitch": 67, "duration": 122, "velocity": 120}, {"time": 161765, "pitch": 51, "duration": 238, "velocity": 120}, {"time": 162003, "pitch": 58, "duration": 239, "velocity": 120}, {"time": 162003, "pitch": 63, "duration": 239, "velocity": 120}, {"time": 162003, "pitch": 67, "duration": 239, "velocity": 120}, {"time": 162242, "pitch": 51, "duration": 120, "velocity": 120}, {"time": 162362, "pitch": 58, "duration": 119, "velocity": 120}, {"time": 162362, "pitch": 63, "duration": 119, "velocity": 120}, {"time": 162362, "pitch": 67, "duration": 119, "velocity": 120}, {"time": 162481, "pitch": 51, "duration": 239, "velocity": 120}, {"time": 162720, "pitch": 37, "duration": 955, "velocity": 120}, {"time": 162720, "pitch": 49, "duration": 239, "velocity": 120}, {"time": 162720, "pitch": 56, "duration": 239, "velocity": 120}, {"time": 162720, "pitch": 60, "duration": 239, "velocity": 120}, {"time": 162720, "pitch": 65, "duration": 239, "velocity": 120}, {"time": 162959, "pitch": 49, "duration": 238, "velocity": 120}, {"time": 163197, "pitch": 56, "duration": 239, "velocity": 120}, {"time": 163197, "pitch": 60, "duration": 239, "velocity": 120}, {"time": 163197, "pitch": 65, "duration": 239, "velocity": 120}, {"time": 163436, "pitch": 49, "duration": 120, "velocity": 120}, {"time": 163556, "pitch": 56, "duration": 119, "velocity": 120}, {"time": 163556, "pitch": 60, "duration": 119, "velocity": 120}, {"time": 163556, "pitch": 65, "duration": 119, "velocity": 120}, {"time": 163675, "pitch": 49, "duration": 488, "velocity": 120}, {"time": 163919, "pitch": 56, "duration": 244, "velocity": 120}, {"time": 163919, "pitch": 60, "duration": 244, "velocity": 120}, {"time": 163919, "pitch": 65, "duration": 244, "velocity": 120}, {"time": 164163, "pitch": 49, "duration": 120, "velocity": 120}, {"time": 164283, "pitch": 56, "duration": 119, "velocity": 120}, {"time": 164283, "pitch": 60, "duration": 119, "velocity": 120}, {"time": 164283, "pitch": 65, "duration": 119, "velocity": 120}, {"time": 164402, "pitch": 49, "duration": 239, "velocity": 120}, {"time": 164641, "pitch": 39, "duration": 1921, "velocity": 120}, {"time": 164641, "pitch": 51, "duration": 239, "velocity": 120}, {"time": 164641, "pitch": 58, "duration": 239, "velocity": 120}, {"time": 164641, "pitch": 63, "duration": 239, "velocity": 120}, {"time": 164641, "pitch": 67, "duration": 239, "velocity": 120}, {"time": 164880, "pitch": 51, "duration": 238, "velocity": 120}, {"time": 165118, "pitch": 58, "duration": 239, "velocity": 120}, {"time": 165118, "pitch": 63, "duration": 239, "velocity": 120}, {"time": 165118, "pitch": 67, "duration": 239, "velocity": 120}, {"time": 165357, "pitch": 51, "duration": 120, "velocity": 120}, {"time": 165477, "pitch": 58, "duration": 119, "velocity": 120}, {"time": 165477, "pitch": 63, "duration": 119, "velocity": 120}, {"time": 165477, "pitch": 67, "duration": 119, "velocity": 120}, {"time": 165596, "pitch": 51, "duration": 244, "velocity": 120}, {"time": 165840, "pitch": 58, "duration": 244, "velocity": 120}, {"time": 165840, "pitch": 63, "duration": 244, "velocity": 120}, {"time": 165840, "pitch": 67, "duration": 244, "velocity": 120}, {"time": 166084, "pitch": 51, "duration": 120, "velocity": 120}, {"time": 166204, "pitch": 58, "duration": 119, "velocity": 120}, {"time": 166204, "pitch": 63, "duration": 119, "velocity": 120}, {"time": 166204, "pitch": 67, "duration": 119, "velocity": 120}, {"time": 166323, "pitch": 51, "duration": 239, "velocity": 120}, {"time": 166562, "pitch": 37, "duration": 1921, "velocity": 120}, {"time": 166562, "pitch": 49, "duration": 239, "velocity": 120}, {"time": 166562, "pitch": 56, "duration": 239, "velocity": 120}, {"time": 166562, "pitch": 60, "duration": 239, "velocity": 120}, {"time": 166562, "pitch": 65, "duration": 239, "velocity": 120}, {"time": 166801, "pitch": 49, "duration": 239, "velocity": 120}, {"time": 167040, "pitch": 56, "duration": 238, "velocity": 120}, {"time": 167040, "pitch": 60, "duration": 238, "velocity": 120}, {"time": 167040, "pitch": 65, "duration": 238, "velocity": 120}, {"time": 167278, "pitch": 49, "duration": 120, "velocity": 120}, {"time": 167398, "pitch": 56, "duration": 119, "velocity": 120}, {"time": 167398, "pitch": 60, "duration": 119, "velocity": 120}, {"time": 167398, "pitch": 65, "duration": 119, "velocity": 120}, {"time": 167517, "pitch": 49, "duration": 239, "velocity": 120}, {"time": 167756, "pitch": 56, "duration": 361, "velocity": 120}, {"time": 167756, "pitch": 60, "duration": 361, "velocity": 120}, {"time": 167756, "pitch": 65, "duration": 239, "velocity": 120}, {"time": 167995, "pitch": 49, "duration": 122, "velocity": 120}, {"time": 168117, "pitch": 56, "duration": 122, "velocity": 120}, {"time": 168117, "pitch": 60, "duration": 122, "velocity": 120}, {"time": 168117, "pitch": 65, "duration": 122, "velocity": 120}, {"time": 168239, "pitch": 49, "duration": 244, "velocity": 120}, {"time": 168483, "pitch": 38, "duration": 1555, "velocity": 120}, {"time": 168483, "pitch": 50, "duration": 239, "velocity": 120}, {"time": 168483, "pitch": 55, "duration": 239, "velocity": 120}, {"time": 168483, "pitch": 60, "duration": 478, "velocity": 120}, {"time": 168483, "pitch": 65, "duration": 239, "velocity": 120}, {"time": 168722, "pitch": 50, "duration": 239, "velocity": 120}, {"time": 168961, "pitch": 55, "duration": 239, "velocity": 120}, {"time": 168961, "pitch": 60, "duration": 239, "velocity": 120}, {"time": 168961, "pitch": 65, "duration": 239, "velocity": 120}, {"time": 169200, "pitch": 50, "duration": 119, "velocity": 120}, {"time": 169319, "pitch": 55, "duration": 358, "velocity": 120}, {"time": 169319, "pitch": 60, "duration": 358, "velocity": 120}, {"time": 169319, "pitch": 65, "duration": 358, "velocity": 120}, {"time": 169438, "pitch": 50, "duration": 600, "velocity": 120}, {"time": 169677, "pitch": 55, "duration": 361, "velocity": 120}, {"time": 169677, "pitch": 60, "duration": 727, "velocity": 120}, {"time": 169677, "pitch": 62, "duration": 727, "velocity": 120}, {"time": 170038, "pitch": 65, "duration": 366, "velocity": 120}, {"time": 170404, "pitch": 43, "duration": 1911, "velocity": 120}, {"time": 170404, "pitch": 55, "duration": 1911, "velocity": 120}, {"time": 170404, "pitch": 59, "duration": 1911, "velocity": 120}, {"time": 170404, "pitch": 60, "duration": 1911, "velocity": 120}, {"time": 170404, "pitch": 62, "duration": 1911, "velocity": 120}, {"time": 170404, "pitch": 67, "duration": 1911, "velocity": 120}, {"time": 172315, "pitch": 37, "duration": 1921, "velocity": 120}, {"time": 172315, "pitch": 49, "duration": 244, "velocity": 120}, {"time": 172315, "pitch": 56, "duration": 244, "velocity": 120}, {"time": 172315, "pitch": 61, "duration": 244, "velocity": 120}, {"time": 172315, "pitch": 63, "duration": 244, "velocity": 120}, {"time": 172559, "pitch": 49, "duration": 244, "velocity": 120}, {"time": 172803, "pitch": 56, "duration": 239, "velocity": 120}, {"time": 172803, "pitch": 61, "duration": 239, "velocity": 120}, {"time": 172803, "pitch": 63, "duration": 239, "velocity": 120}, {"time": 173042, "pitch": 49, "duration": 119, "velocity": 120}, {"time": 173161, "pitch": 56, "duration": 120, "velocity": 120}, {"time": 173161, "pitch": 61, "duration": 120, "velocity": 120}, {"time": 173161, "pitch": 63, "duration": 120, "velocity": 120}, {"time": 173281, "pitch": 49, "duration": 238, "velocity": 120}, {"time": 173519, "pitch": 56, "duration": 239, "velocity": 120}, {"time": 173519, "pitch": 61, "duration": 239, "velocity": 120}, {"time": 173519, "pitch": 63, "duration": 239, "velocity": 120}, {"time": 173758, "pitch": 49, "duration": 120, "velocity": 120}, {"time": 173878, "pitch": 56, "duration": 119, "velocity": 120}, {"time": 173878, "pitch": 61, "duration": 119, "velocity": 120}, {"time": 173878, "pitch": 63, "duration": 119, "velocity": 120}, {"time": 173997, "pitch": 49, "duration": 239, "velocity": 120}, {"time": 174236, "pitch": 39, "duration": 1921, "velocity": 120}, {"time": 174236, "pitch": 51, "duration": 244, "velocity": 120}, {"time": 174236, "pitch": 55, "duration": 244, "velocity": 120}, {"time": 174236, "pitch": 58, "duration": 244, "velocity": 120}, {"time": 174236, "pitch": 63, "duration": 244, "velocity": 120}, {"time": 174480, "pitch": 51, "duration": 244, "velocity": 120}, {"time": 174724, "pitch": 55, "duration": 239, "velocity": 120}, {"time": 174724, "pitch": 58, "duration": 239, "velocity": 120}, {"time": 174724, "pitch": 63, "duration": 239, "velocity": 120}, {"time": 174963, "pitch": 51, "duration": 119, "velocity": 120}, {"time": 175082, "pitch": 55, "duration": 120, "velocity": 120}, {"time": 175082, "pitch": 58, "duration": 120, "velocity": 120}, {"time": 175082, "pitch": 63, "duration": 120, "velocity": 120}, {"time": 175202, "pitch": 51, "duration": 238, "velocity": 120}, {"time": 175440, "pitch": 55, "duration": 239, "velocity": 120}, {"time": 175440, "pitch": 58, "duration": 239, "velocity": 120}, {"time": 175440, "pitch": 63, "duration": 239, "velocity": 120}, {"time": 175679, "pitch": 51, "duration": 120, "velocity": 120}, {"time": 175799, "pitch": 55, "duration": 119, "velocity": 120}, {"time": 175799, "pitch": 58, "duration": 119, "velocity": 120}, {"time": 175799, "pitch": 63, "duration": 119, "velocity": 120}, {"time": 175918, "pitch": 51, "duration": 239, "velocity": 120}, {"time": 176157, "pitch": 36, "duration": 1921, "velocity": 120}, {"time": 176157, "pitch": 48, "duration": 244, "velocity": 120}, {"time": 176157, "pitch": 55, "duration": 244, "velocity": 120}, {"time": 176157, "pitch": 58, "duration": 244, "velocity": 120}, {"time": 176157, "pitch": 63, "duration": 244, "velocity": 120}, {"time": 176401, "pitch": 48, "duration": 244, "velocity": 120}, {"time": 176645, "pitch": 55, "duration": 239, "velocity": 120}, {"time": 176645, "pitch": 58, "duration": 239, "velocity": 120}, {"time": 176645, "pitch": 63, "duration": 239, "velocity": 120}, {"time": 176884, "pitch": 48, "duration": 119, "velocity": 120}, {"time": 177003, "pitch": 55, "duration": 120, "velocity": 120}, {"time": 177003, "pitch": 58, "duration": 120, "velocity": 120}, {"time": 177003, "pitch": 63, "duration": 120, "velocity": 120}, {"time": 177123, "pitch": 48, "duration": 239, "velocity": 120}, {"time": 177362, "pitch": 55, "duration": 238, "velocity": 120}, {"time": 177362, "pitch": 58, "duration": 238, "velocity": 120}, {"time": 177362, "pitch": 63, "duration": 238, "velocity": 120}, {"time": 177600, "pitch": 48, "duration": 120, "velocity": 120}, {"time": 177720, "pitch": 55, "duration": 119, "velocity": 120}, {"time": 177720, "pitch": 58, "duration": 119, "velocity": 120}, {"time": 177720, "pitch": 63, "duration": 119, "velocity": 120}, {"time": 177839, "pitch": 48, "duration": 239, "velocity": 120}, {"time": 178078, "pitch": 41, "duration": 239, "velocity": 120}, {"time": 178078, "pitch": 53, "duration": 239, "velocity": 120}, {"time": 178078, "pitch": 56, "duration": 239, "velocity": 120}, {"time": 178078, "pitch": 60, "duration": 239, "velocity": 120}, {"time": 178317, "pitch": 41, "duration": 483, "velocity": 120}, {"time": 178556, "pitch": 53, "duration": 244, "velocity": 120}, {"time": 178556, "pitch": 56, "duration": 244, "velocity": 120}, {"time": 178556, "pitch": 60, "duration": 244, "velocity": 120}, {"time": 178800, "pitch": 41, "duration": 122, "velocity": 120}, {"time": 178922, "pitch": 53, "duration": 122, "velocity": 120}, {"time": 178922, "pitch": 56, "duration": 122, "velocity": 120}, {"time": 178922, "pitch": 60, "duration": 122, "velocity": 120}, {"time": 179044, "pitch": 41, "duration": 239, "velocity": 120}, {"time": 179283, "pitch": 53, "duration": 239, "velocity": 120}, {"time": 179283, "pitch": 56, "duration": 239, "velocity": 120}, {"time": 179283, "pitch": 60, "duration": 239, "velocity": 120}, {"time": 179522, "pitch": 41, "duration": 119, "velocity": 120}, {"time": 179641, "pitch": 53, "duration": 119, "velocity": 120}, {"time": 179641, "pitch": 56, "duration": 119, "velocity": 120}, {"time": 179641, "pitch": 60, "duration": 119, "velocity": 120}, {"time": 179760, "pitch": 41, "duration": 239, "velocity": 120}, {"time": 179999, "pitch": 34, "duration": 1682, "velocity": 120}, {"time": 179999, "pitch": 46, "duration": 239, "velocity": 120}, {"time": 179999, "pitch": 53, "duration": 239, "velocity": 120}, {"time": 179999, "pitch": 58, "duration": 239, "velocity": 120}, {"time": 179999, "pitch": 60, "duration": 239, "velocity": 120}, {"time": 180238, "pitch": 46, "duration": 239, "velocity": 120}, {"time": 180477, "pitch": 53, "duration": 244, "velocity": 120}, {"time": 180477, "pitch": 58, "duration": 244, "velocity": 120}, {"time": 180477, "pitch": 60, "duration": 244, "velocity": 120}, {"time": 180721, "pitch": 46, "duration": 122, "velocity": 120}, {"time": 180843, "pitch": 53, "duration": 122, "velocity": 120}, {"time": 180843, "pitch": 58, "duration": 122, "velocity": 120}, {"time": 180843, "pitch": 60, "duration": 122, "velocity": 120}, {"time": 180965, "pitch": 46, "duration": 239, "velocity": 120}, {"time": 181204, "pitch": 53, "duration": 239, "velocity": 120}, {"time": 181204, "pitch": 58, "duration": 239, "velocity": 120}, {"time": 181204, "pitch": 60, "duration": 239, "velocity": 120}, {"time": 181443, "pitch": 46, "duration": 119, "velocity": 120}, {"time": 181562, "pitch": 53, "duration": 119, "velocity": 120}, {"time": 181562, "pitch": 58, "duration": 358, "velocity": 120}, {"time": 181562, "pitch": 60, "duration": 119, "velocity": 120}, {"time": 181681, "pitch": 46, "duration": 239, "velocity": 120}, {"time": 181920, "pitch": 36, "duration": 1921, "velocity": 120}, {"time": 181920, "pitch": 48, "duration": 239, "velocity": 120}, {"time": 181920, "pitch": 55, "duration": 239, "velocity": 120}, {"time": 181920, "pitch": 58, "duration": 239, "velocity": 120}, {"time": 181920, "pitch": 60, "duration": 239, "velocity": 120}, {"time": 182159, "pitch": 48, "duration": 239, "velocity": 120}, {"time": 182398, "pitch": 55, "duration": 239, "velocity": 120}, {"time": 182398, "pitch": 58, "duration": 239, "velocity": 120}, {"time": 182398, "pitch": 60, "duration": 239, "velocity": 120}, {"time": 182637, "pitch": 48, "duration": 119, "velocity": 120}, {"time": 182756, "pitch": 55, "duration": 119, "velocity": 120}, {"time": 182756, "pitch": 58, "duration": 119, "velocity": 120}, {"time": 182756, "pitch": 60, "duration": 119, "velocity": 120}, {"time": 182875, "pitch": 48, "duration": 245, "velocity": 120}, {"time": 183120, "pitch": 55, "duration": 244, "velocity": 120}, {"time": 183120, "pitch": 58, "duration": 244, "velocity": 120}, {"time": 183120, "pitch": 60, "duration": 244, "velocity": 120}, {"time": 183364, "pitch": 48, "duration": 119, "velocity": 120}, {"time": 183483, "pitch": 55, "duration": 120, "velocity": 120}, {"time": 183483, "pitch": 58, "duration": 120, "velocity": 120}, {"time": 183483, "pitch": 60, "duration": 120, "velocity": 120}, {"time": 183603, "pitch": 48, "duration": 238, "velocity": 120}, {"time": 183841, "pitch": 37, "duration": 1683, "velocity": 120}, {"time": 183841, "pitch": 49, "duration": 239, "velocity": 120}, {"time": 183841, "pitch": 53, "duration": 239, "velocity": 120}, {"time": 183841, "pitch": 56, "duration": 239, "velocity": 120}, {"time": 183841, "pitch": 61, "duration": 239, "velocity": 120}, {"time": 184080, "pitch": 49, "duration": 239, "velocity": 120}, {"time": 184319, "pitch": 53, "duration": 239, "velocity": 120}, {"time": 184319, "pitch": 56, "duration": 239, "velocity": 120}, {"time": 184319, "pitch": 61, "duration": 239, "velocity": 120}, {"time": 184558, "pitch": 49, "duration": 119, "velocity": 120}, {"time": 184677, "pitch": 53, "duration": 120, "velocity": 120}, {"time": 184677, "pitch": 56, "duration": 120, "velocity": 120}, {"time": 184677, "pitch": 61, "duration": 120, "velocity": 120}, {"time": 184797, "pitch": 49, "duration": 244, "velocity": 120}, {"time": 185041, "pitch": 53, "duration": 244, "velocity": 120}, {"time": 185041, "pitch": 56, "duration": 363, "velocity": 120}, {"time": 185041, "pitch": 61, "duration": 363, "velocity": 120}, {"time": 185285, "pitch": 49, "duration": 119, "velocity": 120}, {"time": 185404, "pitch": 53, "duration": 120, "velocity": 120}, {"time": 185404, "pitch": 56, "duration": 120, "velocity": 120}, {"time": 185404, "pitch": 61, "duration": 120, "velocity": 120}, {"time": 185524, "pitch": 49, "duration": 238, "velocity": 120}, {"time": 185762, "pitch": 39, "duration": 1922, "velocity": 120}, {"time": 185762, "pitch": 51, "duration": 239, "velocity": 120}, {"time": 185762, "pitch": 55, "duration": 239, "velocity": 120}, {"time": 185762, "pitch": 58, "duration": 239, "velocity": 120}, {"time": 185762, "pitch": 63, "duration": 239, "velocity": 120}, {"time": 186001, "pitch": 51, "duration": 239, "velocity": 120}, {"time": 186240, "pitch": 55, "duration": 239, "velocity": 120}, {"time": 186240, "pitch": 58, "duration": 239, "velocity": 120}, {"time": 186240, "pitch": 63, "duration": 239, "velocity": 120}, {"time": 186479, "pitch": 51, "duration": 119, "velocity": 120}, {"time": 186598, "pitch": 55, "duration": 120, "velocity": 120}, {"time": 186598, "pitch": 58, "duration": 120, "velocity": 120}, {"time": 186598, "pitch": 63, "duration": 120, "velocity": 120}, {"time": 186718, "pitch": 51, "duration": 238, "velocity": 120}, {"time": 186956, "pitch": 55, "duration": 239, "velocity": 120}, {"time": 186956, "pitch": 58, "duration": 239, "velocity": 120}, {"time": 186956, "pitch": 63, "duration": 239, "velocity": 120}, {"time": 187195, "pitch": 51, "duration": 122, "velocity": 120}, {"time": 187317, "pitch": 55, "duration": 122, "velocity": 120}, {"time": 187317, "pitch": 58, "duration": 122, "velocity": 120}, {"time": 187317, "pitch": 63, "duration": 122, "velocity": 120}, {"time": 187439, "pitch": 51, "duration": 245, "velocity": 120}, {"time": 187684, "pitch": 37, "duration": 1921, "velocity": 120}, {"time": 187684, "pitch": 49, "duration": 238, "velocity": 120}, {"time": 187684, "pitch": 56, "duration": 238, "velocity": 120}, {"time": 187684, "pitch": 61, "duration": 238, "velocity": 120}, {"time": 187684, "pitch": 63, "duration": 238, "velocity": 120}, {"time": 187922, "pitch": 49, "duration": 239, "velocity": 120}, {"time": 188161, "pitch": 56, "duration": 239, "velocity": 120}, {"time": 188161, "pitch": 61, "duration": 239, "velocity": 120}, {"time": 188161, "pitch": 63, "duration": 239, "velocity": 120}, {"time": 188400, "pitch": 49, "duration": 119, "velocity": 120}, {"time": 188519, "pitch": 56, "duration": 120, "velocity": 120}, {"time": 188519, "pitch": 61, "duration": 120, "velocity": 120}, {"time": 188519, "pitch": 63, "duration": 120, "velocity": 120}, {"time": 188639, "pitch": 49, "duration": 239, "velocity": 120}, {"time": 188878, "pitch": 56, "duration": 238, "velocity": 120}, {"time": 188878, "pitch": 61, "duration": 238, "velocity": 120}, {"time": 188878, "pitch": 63, "duration": 238, "velocity": 120}, {"time": 189116, "pitch": 49, "duration": 122, "velocity": 120}, {"time": 189238, "pitch": 56, "duration": 123, "velocity": 120}, {"time": 189238, "pitch": 61, "duration": 123, "velocity": 120}, {"time": 189238, "pitch": 63, "duration": 123, "velocity": 120}, {"time": 189361, "pitch": 49, "duration": 244, "velocity": 120}, {"time": 189605, "pitch": 39, "duration": 1910, "velocity": 120}, {"time": 189605, "pitch": 51, "duration": 238, "velocity": 120}, {"time": 189605, "pitch": 55, "duration": 238, "velocity": 120}, {"time": 189605, "pitch": 58, "duration": 238, "velocity": 120}, {"time": 189605, "pitch": 63, "duration": 238, "velocity": 120}, {"time": 189843, "pitch": 51, "duration": 239, "velocity": 120}, {"time": 190082, "pitch": 55, "duration": 239, "velocity": 120}, {"time": 190082, "pitch": 58, "duration": 239, "velocity": 120}, {"time": 190082, "pitch": 63, "duration": 239, "velocity": 120}, {"time": 190321, "pitch": 51, "duration": 120, "velocity": 120}, {"time": 190441, "pitch": 55, "duration": 119, "velocity": 120}, {"time": 190441, "pitch": 58, "duration": 119, "velocity": 120}, {"time": 190441, "pitch": 63, "duration": 119, "velocity": 120}, {"time": 190560, "pitch": 51, "duration": 239, "velocity": 120}, {"time": 190799, "pitch": 55, "duration": 239, "velocity": 120}, {"time": 190799, "pitch": 58, "duration": 239, "velocity": 120}, {"time": 190799, "pitch": 63, "duration": 239, "velocity": 120}, {"time": 191038, "pitch": 51, "duration": 119, "velocity": 120}, {"time": 191157, "pitch": 55, "duration": 119, "velocity": 120}, {"time": 191157, "pitch": 58, "duration": 119, "velocity": 120}, {"time": 191157, "pitch": 63, "duration": 119, "velocity": 120}, {"time": 191276, "pitch": 51, "duration": 239, "velocity": 120}, {"time": 191515, "pitch": 36, "duration": 1921, "velocity": 120}, {"time": 191515, "pitch": 48, "duration": 244, "velocity": 120}, {"time": 191515, "pitch": 55, "duration": 244, "velocity": 120}, {"time": 191515, "pitch": 58, "duration": 244, "velocity": 120}, {"time": 191515, "pitch": 63, "duration": 244, "velocity": 120}, {"time": 191759, "pitch": 48, "duration": 244, "velocity": 120}, {"time": 192003, "pitch": 55, "duration": 239, "velocity": 120}, {"time": 192003, "pitch": 58, "duration": 239, "velocity": 120}, {"time": 192003, "pitch": 63, "duration": 239, "velocity": 120}, {"time": 192242, "pitch": 48, "duration": 120, "velocity": 120}, {"time": 192362, "pitch": 55, "duration": 119, "velocity": 120}, {"time": 192362, "pitch": 58, "duration": 119, "velocity": 120}, {"time": 192362, "pitch": 63, "duration": 119, "velocity": 120}, {"time": 192481, "pitch": 48, "duration": 239, "velocity": 120}, {"time": 192720, "pitch": 55, "duration": 239, "velocity": 120}, {"time": 192720, "pitch": 58, "duration": 239, "velocity": 120}, {"time": 192720, "pitch": 63, "duration": 239, "velocity": 120}, {"time": 192959, "pitch": 48, "duration": 119, "velocity": 120}, {"time": 193078, "pitch": 55, "duration": 119, "velocity": 120}, {"time": 193078, "pitch": 58, "duration": 119, "velocity": 120}, {"time": 193078, "pitch": 63, "duration": 119, "velocity": 120}, {"time": 193197, "pitch": 48, "duration": 239, "velocity": 120}, {"time": 193436, "pitch": 41, "duration": 244, "velocity": 120}, {"time": 193436, "pitch": 53, "duration": 244, "velocity": 120}, {"time": 193436, "pitch": 56, "duration": 244, "velocity": 120}, {"time": 193436, "pitch": 60, "duration": 244, "velocity": 120}, {"time": 193680, "pitch": 41, "duration": 483, "velocity": 120}, {"time": 193925, "pitch": 53, "duration": 238, "velocity": 120}, {"time": 193925, "pitch": 56, "duration": 238, "velocity": 120}, {"time": 193925, "pitch": 60, "duration": 238, "velocity": 120}, {"time": 194163, "pitch": 41, "duration": 120, "velocity": 120}, {"time": 194283, "pitch": 53, "duration": 119, "velocity": 120}, {"time": 194283, "pitch": 56, "duration": 119, "velocity": 120}, {"time": 194283, "pitch": 60, "duration": 119, "velocity": 120}, {"time": 194402, "pitch": 41, "duration": 239, "velocity": 120}, {"time": 194641, "pitch": 53, "duration": 239, "velocity": 120}, {"time": 194641, "pitch": 56, "duration": 239, "velocity": 120}, {"time": 194641, "pitch": 60, "duration": 239, "velocity": 120}, {"time": 194880, "pitch": 41, "duration": 119, "velocity": 120}, {"time": 194999, "pitch": 53, "duration": 120, "velocity": 120}, {"time": 194999, "pitch": 56, "duration": 120, "velocity": 120}, {"time": 194999, "pitch": 60, "duration": 120, "velocity": 120}, {"time": 195119, "pitch": 41, "duration": 238, "velocity": 120}, {"time": 195357, "pitch": 34, "duration": 1683, "velocity": 120}, {"time": 195357, "pitch": 46, "duration": 239, "velocity": 120}, {"time": 195357, "pitch": 53, "duration": 239, "velocity": 120}, {"time": 195357, "pitch": 58, "duration": 239, "velocity": 120}, {"time": 195357, "pitch": 60, "duration": 239, "velocity": 120}, {"time": 195596, "pitch": 46, "duration": 239, "velocity": 120}, {"time": 195835, "pitch": 53, "duration": 244, "velocity": 120}, {"time": 195835, "pitch": 58, "duration": 244, "velocity": 120}, {"time": 195835, "pitch": 60, "duration": 244, "velocity": 120}, {"time": 196079, "pitch": 46, "duration": 122, "velocity": 120}, {"time": 196201, "pitch": 53, "duration": 122, "velocity": 120}, {"time": 196201, "pitch": 58, "duration": 122, "velocity": 120}, {"time": 196201, "pitch": 60, "duration": 122, "velocity": 120}, {"time": 196323, "pitch": 46, "duration": 239, "velocity": 120}, {"time": 196562, "pitch": 53, "duration": 239, "velocity": 120}, {"time": 196562, "pitch": 58, "duration": 239, "velocity": 120}, {"time": 196562, "pitch": 60, "duration": 239, "velocity": 120}, {"time": 196801, "pitch": 46, "duration": 119, "velocity": 120}, {"time": 196920, "pitch": 53, "duration": 120, "velocity": 120}, {"time": 196920, "pitch": 58, "duration": 358, "velocity": 120}, {"time": 196920, "pitch": 60, "duration": 120, "velocity": 120}, {"time": 197040, "pitch": 46, "duration": 238, "velocity": 120}, {"time": 197278, "pitch": 36, "duration": 1922, "velocity": 120}, {"time": 197278, "pitch": 48, "duration": 239, "velocity": 120}, {"time": 197278, "pitch": 55, "duration": 239, "velocity": 120}, {"time": 197278, "pitch": 58, "duration": 239, "velocity": 120}, {"time": 197278, "pitch": 60, "duration": 239, "velocity": 120}, {"time": 197517, "pitch": 48, "duration": 239, "velocity": 120}, {"time": 197756, "pitch": 55, "duration": 244, "velocity": 120}, {"time": 197756, "pitch": 58, "duration": 244, "velocity": 120}, {"time": 197756, "pitch": 60, "duration": 244, "velocity": 120}, {"time": 198000, "pitch": 48, "duration": 122, "velocity": 120}, {"time": 198122, "pitch": 55, "duration": 122, "velocity": 120}, {"time": 198122, "pitch": 58, "duration": 122, "velocity": 120}, {"time": 198122, "pitch": 60, "duration": 122, "velocity": 120}, {"time": 198244, "pitch": 48, "duration": 239, "velocity": 120}, {"time": 198483, "pitch": 55, "duration": 239, "velocity": 120}, {"time": 198483, "pitch": 58, "duration": 239, "velocity": 120}, {"time": 198483, "pitch": 60, "duration": 239, "velocity": 120}, {"time": 198722, "pitch": 48, "duration": 119, "velocity": 120}, {"time": 198841, "pitch": 55, "duration": 120, "velocity": 120}, {"time": 198841, "pitch": 58, "duration": 120, "velocity": 120}, {"time": 198841, "pitch": 60, "duration": 120, "velocity": 120}, {"time": 198961, "pitch": 48, "duration": 239, "velocity": 120}, {"time": 199200, "pitch": 37, "duration": 1682, "velocity": 120}, {"time": 199200, "pitch": 49, "duration": 238, "velocity": 120}, {"time": 199200, "pitch": 53, "duration": 238, "velocity": 120}, {"time": 199200, "pitch": 56, "duration": 238, "velocity": 120}, {"time": 199200, "pitch": 61, "duration": 238, "velocity": 120}, {"time": 199438, "pitch": 49, "duration": 239, "velocity": 120}, {"time": 199677, "pitch": 53, "duration": 239, "velocity": 120}, {"time": 199677, "pitch": 56, "duration": 239, "velocity": 120}, {"time": 199677, "pitch": 61, "duration": 239, "velocity": 120}, {"time": 199916, "pitch": 49, "duration": 119, "velocity": 120}, {"time": 200035, "pitch": 53, "duration": 120, "velocity": 120}, {"time": 200035, "pitch": 56, "duration": 120, "velocity": 120}, {"time": 200035, "pitch": 61, "duration": 120, "velocity": 120}, {"time": 200155, "pitch": 49, "duration": 244, "velocity": 120}, {"time": 200399, "pitch": 53, "duration": 244, "velocity": 120}, {"time": 200399, "pitch": 56, "duration": 363, "velocity": 120}, {"time": 200399, "pitch": 61, "duration": 363, "velocity": 120}, {"time": 200643, "pitch": 49, "duration": 119, "velocity": 120}, {"time": 200762, "pitch": 53, "duration": 120, "velocity": 120}, {"time": 200762, "pitch": 56, "duration": 120, "velocity": 120}, {"time": 200762, "pitch": 61, "duration": 120, "velocity": 120}, {"time": 200882, "pitch": 49, "duration": 239, "velocity": 120}, {"time": 201121, "pitch": 39, "duration": 1682, "velocity": 120}, {"time": 201121, "pitch": 51, "duration": 239, "velocity": 120}, {"time": 201121, "pitch": 55, "duration": 239, "velocity": 120}, {"time": 201121, "pitch": 58, "duration": 239, "velocity": 120}, {"time": 201121, "pitch": 63, "duration": 239, "velocity": 120}, {"time": 201360, "pitch": 51, "duration": 238, "velocity": 120}, {"time": 201598, "pitch": 55, "duration": 239, "velocity": 120}, {"time": 201598, "pitch": 58, "duration": 239, "velocity": 120}, {"time": 201598, "pitch": 63, "duration": 239, "velocity": 120}, {"time": 201837, "pitch": 51, "duration": 120, "velocity": 120}, {"time": 201957, "pitch": 55, "duration": 119, "velocity": 120}, {"time": 201957, "pitch": 58, "duration": 119, "velocity": 120}, {"time": 201957, "pitch": 63, "duration": 119, "velocity": 120}, {"time": 202076, "pitch": 51, "duration": 244, "velocity": 120}, {"time": 202320, "pitch": 55, "duration": 244, "velocity": 120}, {"time": 202320, "pitch": 58, "duration": 244, "velocity": 120}, {"time": 202320, "pitch": 63, "duration": 244, "velocity": 120}, {"time": 202564, "pitch": 51, "duration": 120, "velocity": 120}, {"time": 202684, "pitch": 55, "duration": 119, "velocity": 120}, {"time": 202684, "pitch": 58, "duration": 119, "velocity": 120}, {"time": 202684, "pitch": 63, "duration": 119, "velocity": 120}, {"time": 202803, "pitch": 51, "duration": 93, "velocity": 120}, {"time": 203042, "pitch": 41, "duration": 955, "velocity": 120}, {"time": 203042, "pitch": 53, "duration": 239, "velocity": 120}, {"time": 203042, "pitch": 60, "duration": 239, "velocity": 120}, {"time": 203042, "pitch": 63, "duration": 239, "velocity": 120}, {"time": 203042, "pitch": 68, "duration": 239, "velocity": 120}, {"time": 203281, "pitch": 53, "duration": 238, "velocity": 120}, {"time": 203519, "pitch": 60, "duration": 239, "velocity": 120}, {"time": 203519, "pitch": 63, "duration": 239, "velocity": 120}, {"time": 203519, "pitch": 68, "duration": 239, "velocity": 120}, {"time": 203758, "pitch": 53, "duration": 239, "velocity": 120}, {"time": 203997, "pitch": 39, "duration": 727, "velocity": 120}, {"time": 203997, "pitch": 51, "duration": 244, "velocity": 120}, {"time": 203997, "pitch": 58, "duration": 366, "velocity": 120}, {"time": 203997, "pitch": 60, "duration": 366, "velocity": 120}, {"time": 203997, "pitch": 65, "duration": 244, "velocity": 120}, {"time": 204241, "pitch": 51, "duration": 122, "velocity": 120}, {"time": 204363, "pitch": 58, "duration": 122, "velocity": 120}, {"time": 204363, "pitch": 60, "duration": 122, "velocity": 120}, {"time": 204363, "pitch": 65, "duration": 122, "velocity": 120}, {"time": 204485, "pitch": 51, "duration": 239, "velocity": 120}, {"time": 204724, "pitch": 37, "duration": 1552, "velocity": 120}, {"time": 204724, "pitch": 49, "duration": 478, "velocity": 120}, {"time": 204724, "pitch": 56, "duration": 478, "velocity": 120}, {"time": 204724, "pitch": 58, "duration": 478, "velocity": 120}, {"time": 204724, "pitch": 63, "duration": 717, "velocity": 120}, {"time": 205202, "pitch": 49, "duration": 239, "velocity": 120}, {"time": 205441, "pitch": 56, "duration": 238, "velocity": 120}, {"time": 205441, "pitch": 58, "duration": 238, "velocity": 120}, {"time": 205441, "pitch": 63, "duration": 238, "velocity": 120}, {"time": 205679, "pitch": 49, "duration": 239, "velocity": 120}, {"time": 205918, "pitch": 56, "duration": 239, "velocity": 120}, {"time": 205918, "pitch": 58, "duration": 239, "velocity": 120}, {"time": 205918, "pitch": 63, "duration": 239, "velocity": 120}, {"time": 206157, "pitch": 49, "duration": 119, "velocity": 120}, {"time": 206276, "pitch": 39, "duration": 486, "velocity": 120}, {"time": 206276, "pitch": 51, "duration": 242, "velocity": 120}, {"time": 206276, "pitch": 58, "duration": 242, "velocity": 120}, {"time": 206276, "pitch": 60, "duration": 242, "velocity": 120}, {"time": 206276, "pitch": 65, "duration": 242, "velocity": 120}, {"time": 206518, "pitch": 51, "duration": 122, "velocity": 120}, {"time": 206640, "pitch": 58, "duration": 122, "velocity": 120}, {"time": 206640, "pitch": 60, "duration": 122, "velocity": 120}, {"time": 206640, "pitch": 65, "duration": 122, "velocity": 120}, {"time": 206762, "pitch": 51, "duration": 122, "velocity": 120}, {"time": 206884, "pitch": 41, "duration": 955, "velocity": 120}, {"time": 206884, "pitch": 53, "duration": 239, "velocity": 120}, {"time": 206884, "pitch": 60, "duration": 239, "velocity": 120}, {"time": 206884, "pitch": 63, "duration": 239, "velocity": 120}, {"time": 206884, "pitch": 68, "duration": 239, "velocity": 120}, {"time": 207123, "pitch": 53, "duration": 239, "velocity": 120}, {"time": 207362, "pitch": 60, "duration": 238, "velocity": 120}, {"time": 207362, "pitch": 63, "duration": 477, "velocity": 120}, {"time": 207362, "pitch": 68, "duration": 238, "velocity": 120}, {"time": 207600, "pitch": 53, "duration": 239, "velocity": 120}, {"time": 207839, "pitch": 44, "duration": 478, "velocity": 120}, {"time": 207839, "pitch": 56, "duration": 239, "velocity": 120}, {"time": 207839, "pitch": 60, "duration": 239, "velocity": 120}, {"time": 207839, "pitch": 65, "duration": 239, "velocity": 120}, {"time": 207839, "pitch": 70, "duration": 358, "velocity": 120}, {"time": 208078, "pitch": 56, "duration": 119, "velocity": 120}, {"time": 208197, "pitch": 60, "duration": 120, "velocity": 120}, {"time": 208197, "pitch": 65, "duration": 120, "velocity": 120}, {"time": 208197, "pitch": 70, "duration": 120, "velocity": 120}, {"time": 208317, "pitch": 56, "duration": 244, "velocity": 120}, {"time": 208561, "pitch": 37, "duration": 1438, "velocity": 120}, {"time": 208561, "pitch": 49, "duration": 483, "velocity": 120}, {"time": 208561, "pitch": 58, "duration": 483, "velocity": 120}, {"time": 208561, "pitch": 60, "duration": 483, "velocity": 120}, {"time": 208561, "pitch": 65, "duration": 483, "velocity": 120}, {"time": 209044, "pitch": 49, "duration": 239, "velocity": 120}, {"time": 209283, "pitch": 58, "duration": 239, "velocity": 120}, {"time": 209283, "pitch": 60, "duration": 239, "velocity": 120}, {"time": 209283, "pitch": 65, "duration": 239, "velocity": 120}, {"time": 209522, "pitch": 49, "duration": 238, "velocity": 120}, {"time": 209760, "pitch": 58, "duration": 359, "velocity": 120}, {"time": 209760, "pitch": 60, "duration": 239, "velocity": 120}, {"time": 209760, "pitch": 65, "duration": 239, "velocity": 120}, {"time": 209999, "pitch": 49, "duration": 120, "velocity": 120}, {"time": 210119, "pitch": 39, "duration": 477, "velocity": 120}, {"time": 210119, "pitch": 51, "duration": 238, "velocity": 120}, {"time": 210119, "pitch": 56, "duration": 238, "velocity": 120}, {"time": 210119, "pitch": 58, "duration": 238, "velocity": 120}, {"time": 210119, "pitch": 63, "duration": 238, "velocity": 120}, {"time": 210357, "pitch": 51, "duration": 120, "velocity": 120}, {"time": 210477, "pitch": 56, "duration": 119, "velocity": 120}, {"time": 210477, "pitch": 58, "duration": 119, "velocity": 120}, {"time": 210477, "pitch": 63, "duration": 119, "velocity": 120}, {"time": 210596, "pitch": 51, "duration": 120, "velocity": 120}, {"time": 210716, "pitch": 41, "duration": 965, "velocity": 120}, {"time": 210716, "pitch": 53, "duration": 244, "velocity": 120}, {"time": 210716, "pitch": 60, "duration": 244, "velocity": 120}, {"time": 210716, "pitch": 63, "duration": 244, "velocity": 120}, {"time": 210716, "pitch": 68, "duration": 244, "velocity": 120}, {"time": 210960, "pitch": 53, "duration": 244, "velocity": 120}, {"time": 211204, "pitch": 60, "duration": 239, "velocity": 120}, {"time": 211204, "pitch": 63, "duration": 239, "velocity": 120}, {"time": 211204, "pitch": 68, "duration": 239, "velocity": 120}, {"time": 211443, "pitch": 53, "duration": 238, "velocity": 120}, {"time": 211681, "pitch": 39, "duration": 717, "velocity": 120}, {"time": 211681, "pitch": 51, "duration": 239, "velocity": 120}, {"time": 211681, "pitch": 58, "duration": 239, "velocity": 120}, {"time": 211681, "pitch": 60, "duration": 239, "velocity": 120}, {"time": 211681, "pitch": 65, "duration": 239, "velocity": 120}, {"time": 211920, "pitch": 51, "duration": 120, "velocity": 120}, {"time": 212040, "pitch": 58, "duration": 119, "velocity": 120}, {"time": 212040, "pitch": 60, "duration": 119, "velocity": 120}, {"time": 212040, "pitch": 65, "duration": 119, "velocity": 120}, {"time": 212159, "pitch": 51, "duration": 239, "velocity": 120}, {"time": 212398, "pitch": 37, "duration": 1563, "velocity": 120}, {"time": 212398, "pitch": 49, "duration": 483, "velocity": 120}, {"time": 212398, "pitch": 56, "duration": 483, "velocity": 120}, {"time": 212398, "pitch": 58, "duration": 483, "velocity": 120}, {"time": 212398, "pitch": 63, "duration": 727, "velocity": 120}, {"time": 212881, "pitch": 49, "duration": 244, "velocity": 120}, {"time": 213125, "pitch": 56, "duration": 239, "velocity": 120}, {"time": 213125, "pitch": 58, "duration": 239, "velocity": 120}, {"time": 213125, "pitch": 63, "duration": 239, "velocity": 120}, {"time": 213364, "pitch": 49, "duration": 239, "velocity": 120}, {"time": 213603, "pitch": 56, "duration": 238, "velocity": 120}, {"time": 213603, "pitch": 58, "duration": 238, "velocity": 120}, {"time": 213603, "pitch": 63, "duration": 358, "velocity": 120}, {"time": 213841, "pitch": 49, "duration": 120, "velocity": 120}, {"time": 213961, "pitch": 39, "duration": 597, "velocity": 120}, {"time": 213961, "pitch": 51, "duration": 358, "velocity": 120}, {"time": 213961, "pitch": 58, "duration": 358, "velocity": 120}, {"time": 213961, "pitch": 60, "duration": 358, "velocity": 120}, {"time": 213961, "pitch": 65, "duration": 358, "velocity": 120}, {"time": 214319, "pitch": 51, "duration": 239, "velocity": 120}, {"time": 214319, "pitch": 58, "duration": 239, "velocity": 120}, {"time": 214319, "pitch": 60, "duration": 239, "velocity": 120}, {"time": 214319, "pitch": 65, "duration": 239, "velocity": 120}, {"time": 214558, "pitch": 41, "duration": 966, "velocity": 120}, {"time": 214558, "pitch": 53, "duration": 239, "velocity": 120}, {"time": 214558, "pitch": 60, "duration": 239, "velocity": 120}, {"time": 214558, "pitch": 63, "duration": 239, "velocity": 120}, {"time": 214558, "pitch": 68, "duration": 239, "velocity": 120}, {"time": 214797, "pitch": 53, "duration": 238, "velocity": 120}, {"time": 215035, "pitch": 60, "duration": 245, "velocity": 120}, {"time": 215035, "pitch": 63, "duration": 489, "velocity": 120}, {"time": 215035, "pitch": 68, "duration": 245, "velocity": 120}, {"time": 215280, "pitch": 53, "duration": 244, "velocity": 120}, {"time": 215524, "pitch": 44, "duration": 477, "velocity": 120}, {"time": 215524, "pitch": 56, "duration": 239, "velocity": 120}, {"time": 215524, "pitch": 60, "duration": 239, "velocity": 120}, {"time": 215524, "pitch": 65, "duration": 239, "velocity": 120}, {"time": 215524, "pitch": 70, "duration": 358, "velocity": 120}, {"time": 215763, "pitch": 56, "duration": 119, "velocity": 120}, {"time": 215882, "pitch": 60, "duration": 119, "velocity": 120}, {"time": 215882, "pitch": 65, "duration": 119, "velocity": 120}, {"time": 215882, "pitch": 70, "duration": 119, "velocity": 120}, {"time": 216001, "pitch": 56, "duration": 239, "velocity": 120}, {"time": 216240, "pitch": 37, "duration": 1444, "velocity": 120}, {"time": 216240, "pitch": 49, "duration": 478, "velocity": 120}, {"time": 216240, "pitch": 58, "duration": 478, "velocity": 120}, {"time": 216240, "pitch": 60, "duration": 478, "velocity": 120}, {"time": 216240, "pitch": 65, "duration": 478, "velocity": 120}, {"time": 216718, "pitch": 49, "duration": 239, "velocity": 120}, {"time": 216957, "pitch": 58, "duration": 244, "velocity": 120}, {"time": 216957, "pitch": 60, "duration": 244, "velocity": 120}, {"time": 216957, "pitch": 65, "duration": 244, "velocity": 120}, {"time": 217201, "pitch": 49, "duration": 244, "velocity": 120}, {"time": 217445, "pitch": 58, "duration": 358, "velocity": 120}, {"time": 217445, "pitch": 60, "duration": 239, "velocity": 120}, {"time": 217445, "pitch": 65, "duration": 239, "velocity": 120}, {"time": 217684, "pitch": 49, "duration": 119, "velocity": 120}, {"time": 217803, "pitch": 39, "duration": 478, "velocity": 120}, {"time": 217803, "pitch": 51, "duration": 239, "velocity": 120}, {"time": 217803, "pitch": 56, "duration": 239, "velocity": 120}, {"time": 217803, "pitch": 58, "duration": 239, "velocity": 120}, {"time": 217803, "pitch": 63, "duration": 239, "velocity": 120}, {"time": 218042, "pitch": 51, "duration": 119, "velocity": 120}, {"time": 218161, "pitch": 56, "duration": 120, "velocity": 120}, {"time": 218161, "pitch": 58, "duration": 120, "velocity": 120}, {"time": 218161, "pitch": 63, "duration": 120, "velocity": 120}, {"time": 218281, "pitch": 51, "duration": 119, "velocity": 120}, {"time": 218400, "pitch": 41, "duration": 955, "velocity": 120}, {"time": 218400, "pitch": 53, "duration": 239, "velocity": 120}, {"time": 218400, "pitch": 60, "duration": 239, "velocity": 120}, {"time": 218400, "pitch": 63, "duration": 239, "velocity": 120}, {"time": 218400, "pitch": 68, "duration": 239, "velocity": 120}, {"time": 218639, "pitch": 53, "duration": 239, "velocity": 120}, {"time": 218878, "pitch": 60, "duration": 238, "velocity": 120}, {"time": 218878, "pitch": 63, "duration": 238, "velocity": 120}, {"time": 218878, "pitch": 68, "duration": 238, "velocity": 120}, {"time": 219116, "pitch": 53, "duration": 239, "velocity": 120}, {"time": 219355, "pitch": 39, "duration": 727, "velocity": 120}, {"time": 219355, "pitch": 51, "duration": 244, "velocity": 120}, {"time": 219355, "pitch": 58, "duration": 367, "velocity": 120}, {"time": 219355, "pitch": 60, "duration": 367, "velocity": 120}, {"time": 219355, "pitch": 65, "duration": 244, "velocity": 120}, {"time": 219599, "pitch": 51, "duration": 123, "velocity": 120}, {"time": 219722, "pitch": 58, "duration": 122, "velocity": 120}, {"time": 219722, "pitch": 60, "duration": 122, "velocity": 120}, {"time": 219722, "pitch": 65, "duration": 122, "velocity": 120}, {"time": 219844, "pitch": 51, "duration": 238, "velocity": 120}, {"time": 220082, "pitch": 37, "duration": 1561, "velocity": 120}, {"time": 220082, "pitch": 49, "duration": 478, "velocity": 120}, {"time": 220082, "pitch": 56, "duration": 478, "velocity": 120}, {"time": 220082, "pitch": 58, "duration": 478, "velocity": 120}, {"time": 220082, "pitch": 63, "duration": 717, "velocity": 120}, {"time": 220560, "pitch": 49, "duration": 239, "velocity": 120}, {"time": 220799, "pitch": 56, "duration": 239, "velocity": 120}, {"time": 220799, "pitch": 58, "duration": 239, "velocity": 120}, {"time": 220799, "pitch": 63, "duration": 239, "velocity": 120}, {"time": 221038, "pitch": 49, "duration": 238, "velocity": 120}, {"time": 221276, "pitch": 56, "duration": 245, "velocity": 120}, {"time": 221276, "pitch": 58, "duration": 245, "velocity": 120}, {"time": 221276, "pitch": 63, "duration": 245, "velocity": 120}, {"time": 221521, "pitch": 49, "duration": 122, "velocity": 120}, {"time": 221643, "pitch": 39, "duration": 480, "velocity": 120}, {"time": 221643, "pitch": 51, "duration": 241, "velocity": 120}, {"time": 221643, "pitch": 58, "duration": 241, "velocity": 120}, {"time": 221643, "pitch": 60, "duration": 241, "velocity": 120}, {"time": 221643, "pitch": 65, "duration": 241, "velocity": 120}, {"time": 221884, "pitch": 51, "duration": 119, "velocity": 120}, {"time": 222003, "pitch": 58, "duration": 120, "velocity": 120}, {"time": 222003, "pitch": 60, "duration": 120, "velocity": 120}, {"time": 222003, "pitch": 65, "duration": 120, "velocity": 120}, {"time": 222123, "pitch": 51, "duration": 119, "velocity": 120}, {"time": 222242, "pitch": 41, "duration": 956, "velocity": 120}, {"time": 222242, "pitch": 53, "duration": 239, "velocity": 120}, {"time": 222242, "pitch": 60, "duration": 239, "velocity": 120}, {"time": 222242, "pitch": 63, "duration": 239, "velocity": 120}, {"time": 222242, "pitch": 68, "duration": 239, "velocity": 120}, {"time": 222481, "pitch": 53, "duration": 239, "velocity": 120}, {"time": 222720, "pitch": 60, "duration": 239, "velocity": 120}, {"time": 222720, "pitch": 63, "duration": 478, "velocity": 120}, {"time": 222720, "pitch": 68, "duration": 239, "velocity": 120}, {"time": 222959, "pitch": 53, "duration": 239, "velocity": 120}, {"time": 223198, "pitch": 44, "duration": 477, "velocity": 120}, {"time": 223198, "pitch": 56, "duration": 238, "velocity": 120}, {"time": 223198, "pitch": 60, "duration": 238, "velocity": 120}, {"time": 223198, "pitch": 65, "duration": 238, "velocity": 120}, {"time": 223198, "pitch": 70, "duration": 358, "velocity": 120}, {"time": 223436, "pitch": 56, "duration": 120, "velocity": 120}, {"time": 223556, "pitch": 60, "duration": 119, "velocity": 120}, {"time": 223556, "pitch": 65, "duration": 119, "velocity": 120}, {"time": 223556, "pitch": 70, "duration": 119, "velocity": 120}, {"time": 223675, "pitch": 56, "duration": 244, "velocity": 120}, {"time": 223919, "pitch": 37, "duration": 1438, "velocity": 120}, {"time": 223919, "pitch": 49, "duration": 483, "velocity": 120}, {"time": 223919, "pitch": 58, "duration": 483, "velocity": 120}, {"time": 223919, "pitch": 60, "duration": 483, "velocity": 120}, {"time": 223919, "pitch": 65, "duration": 483, "velocity": 120}, {"time": 224402, "pitch": 49, "duration": 239, "velocity": 120}, {"time": 224641, "pitch": 58, "duration": 239, "velocity": 120}, {"time": 224641, "pitch": 60, "duration": 239, "velocity": 120}, {"time": 224641, "pitch": 65, "duration": 239, "velocity": 120}, {"time": 224880, "pitch": 49, "duration": 239, "velocity": 120}, {"time": 225119, "pitch": 58, "duration": 358, "velocity": 120}, {"time": 225119, "pitch": 60, "duration": 238, "velocity": 120}, {"time": 225119, "pitch": 65, "duration": 238, "velocity": 120}, {"time": 225357, "pitch": 49, "duration": 120, "velocity": 120}, {"time": 225477, "pitch": 39, "duration": 486, "velocity": 120}, {"time": 225477, "pitch": 51, "duration": 241, "velocity": 120}, {"time": 225477, "pitch": 56, "duration": 241, "velocity": 120}, {"time": 225477, "pitch": 58, "duration": 241, "velocity": 120}, {"time": 225477, "pitch": 63, "duration": 241, "velocity": 120}, {"time": 225718, "pitch": 51, "duration": 122, "velocity": 120}, {"time": 225840, "pitch": 56, "duration": 123, "velocity": 120}, {"time": 225840, "pitch": 58, "duration": 123, "velocity": 120}, {"time": 225840, "pitch": 63, "duration": 123, "velocity": 120}, {"time": 225963, "pitch": 51, "duration": 122, "velocity": 120}, {"time": 226085, "pitch": 41, "duration": 955, "velocity": 120}, {"time": 226085, "pitch": 53, "duration": 238, "velocity": 120}, {"time": 226085, "pitch": 60, "duration": 238, "velocity": 120}, {"time": 226085, "pitch": 63, "duration": 238, "velocity": 120}, {"time": 226085, "pitch": 68, "duration": 238, "velocity": 120}, {"time": 226323, "pitch": 53, "duration": 239, "velocity": 120}, {"time": 226562, "pitch": 60, "duration": 239, "velocity": 120}, {"time": 226562, "pitch": 63, "duration": 239, "velocity": 120}, {"time": 226562, "pitch": 68, "duration": 239, "velocity": 120}, {"time": 226801, "pitch": 53, "duration": 239, "velocity": 120}, {"time": 227040, "pitch": 39, "duration": 716, "velocity": 120}, {"time": 227040, "pitch": 51, "duration": 239, "velocity": 120}, {"time": 227040, "pitch": 58, "duration": 239, "velocity": 120}, {"time": 227040, "pitch": 60, "duration": 239, "velocity": 120}, {"time": 227040, "pitch": 65, "duration": 239, "velocity": 120}, {"time": 227279, "pitch": 51, "duration": 119, "velocity": 120}, {"time": 227398, "pitch": 58, "duration": 119, "velocity": 120}, {"time": 227398, "pitch": 60, "duration": 119, "velocity": 120}, {"time": 227398, "pitch": 65, "duration": 119, "velocity": 120}, {"time": 227517, "pitch": 51, "duration": 239, "velocity": 120}, {"time": 227756, "pitch": 37, "duration": 1563, "velocity": 120}, {"time": 227756, "pitch": 49, "duration": 483, "velocity": 120}, {"time": 227756, "pitch": 56, "duration": 483, "velocity": 120}, {"time": 227756, "pitch": 58, "duration": 483, "velocity": 120}, {"time": 227756, "pitch": 63, "duration": 727, "velocity": 120}, {"time": 228239, "pitch": 49, "duration": 244, "velocity": 120}, {"time": 228483, "pitch": 56, "duration": 239, "velocity": 120}, {"time": 228483, "pitch": 58, "duration": 239, "velocity": 120}, {"time": 228483, "pitch": 63, "duration": 239, "velocity": 120}, {"time": 228722, "pitch": 49, "duration": 239, "velocity": 120}, {"time": 228961, "pitch": 56, "duration": 239, "velocity": 120}, {"time": 228961, "pitch": 58, "duration": 239, "velocity": 120}, {"time": 228961, "pitch": 63, "duration": 358, "velocity": 120}, {"time": 229200, "pitch": 49, "duration": 119, "velocity": 120}, {"time": 229319, "pitch": 39, "duration": 597, "velocity": 120}, {"time": 229319, "pitch": 51, "duration": 358, "velocity": 120}, {"time": 229319, "pitch": 58, "duration": 358, "velocity": 120}, {"time": 229319, "pitch": 60, "duration": 358, "velocity": 120}, {"time": 229319, "pitch": 65, "duration": 358, "velocity": 120}, {"time": 229677, "pitch": 51, "duration": 239, "velocity": 120}, {"time": 229677, "pitch": 58, "duration": 239, "velocity": 120}, {"time": 229677, "pitch": 60, "duration": 239, "velocity": 120}, {"time": 229677, "pitch": 65, "duration": 239, "velocity": 120}, {"time": 229916, "pitch": 41, "duration": 966, "velocity": 120}, {"time": 229916, "pitch": 53, "duration": 244, "velocity": 120}, {"time": 229916, "pitch": 60, "duration": 244, "velocity": 120}, {"time": 229916, "pitch": 63, "duration": 244, "velocity": 120}, {"time": 229916, "pitch": 68, "duration": 244, "velocity": 120}, {"time": 230160, "pitch": 53, "duration": 244, "velocity": 120}, {"time": 230404, "pitch": 60, "duration": 239, "velocity": 120}, {"time": 230404, "pitch": 63, "duration": 478, "velocity": 120}, {"time": 230404, "pitch": 68, "duration": 239, "velocity": 120}, {"time": 230643, "pitch": 53, "duration": 239, "velocity": 120}, {"time": 230882, "pitch": 44, "duration": 478, "velocity": 120}, {"time": 230882, "pitch": 56, "duration": 239, "velocity": 120}, {"time": 230882, "pitch": 60, "duration": 239, "velocity": 120}, {"time": 230882, "pitch": 65, "duration": 239, "velocity": 120}, {"time": 230882, "pitch": 70, "duration": 358, "velocity": 120}, {"time": 231121, "pitch": 56, "duration": 119, "velocity": 120}, {"time": 231240, "pitch": 60, "duration": 120, "velocity": 120}, {"time": 231240, "pitch": 65, "duration": 120, "velocity": 120}, {"time": 231240, "pitch": 70, "duration": 120, "velocity": 120}, {"time": 231360, "pitch": 56, "duration": 238, "velocity": 120}, {"time": 231598, "pitch": 37, "duration": 1433, "velocity": 120}, {"time": 231598, "pitch": 49, "duration": 478, "velocity": 120}, {"time": 231598, "pitch": 58, "duration": 478, "velocity": 120}, {"time": 231598, "pitch": 60, "duration": 478, "velocity": 120}, {"time": 231598, "pitch": 65, "duration": 478, "velocity": 120}, {"time": 232076, "pitch": 49, "duration": 239, "velocity": 120}, {"time": 232315, "pitch": 58, "duration": 239, "velocity": 120}, {"time": 232315, "pitch": 60, "duration": 239, "velocity": 120}, {"time": 232315, "pitch": 65, "duration": 239, "velocity": 120}, {"time": 232554, "pitch": 49, "duration": 238, "velocity": 120}, {"time": 232792, "pitch": 58, "duration": 359, "velocity": 120}, {"time": 232792, "pitch": 60, "duration": 239, "velocity": 120}, {"time": 232792, "pitch": 65, "duration": 239, "velocity": 120}, {"time": 233031, "pitch": 49, "duration": 120, "velocity": 120}, {"time": 233151, "pitch": 39, "duration": 477, "velocity": 120}, {"time": 233151, "pitch": 51, "duration": 238, "velocity": 120}, {"time": 233151, "pitch": 56, "duration": 238, "velocity": 120}, {"time": 233151, "pitch": 58, "duration": 238, "velocity": 120}, {"time": 233151, "pitch": 63, "duration": 238, "velocity": 120}, {"time": 233389, "pitch": 51, "duration": 120, "velocity": 120}, {"time": 233509, "pitch": 56, "duration": 119, "velocity": 120}, {"time": 233509, "pitch": 58, "duration": 119, "velocity": 120}, {"time": 233509, "pitch": 63, "duration": 119, "velocity": 120}, {"time": 233628, "pitch": 51, "duration": 120, "velocity": 120}, {"time": 18722, "pitch": 41, "duration": 119, "velocity": 120}, {"time": 18960, "pitch": 41, "duration": 120, "velocity": 120}, {"time": 19199, "pitch": 41, "duration": 120, "velocity": 120}, {"time": 19438, "pitch": 41, "duration": 119, "velocity": 120}, {"time": 19677, "pitch": 39, "duration": 122, "velocity": 120}, {"time": 19921, "pitch": 39, "duration": 122, "velocity": 120}, {"time": 20165, "pitch": 39, "duration": 119, "velocity": 120}, {"time": 20404, "pitch": 37, "duration": 119, "velocity": 120}, {"time": 20643, "pitch": 37, "duration": 119, "velocity": 120}, {"time": 20882, "pitch": 37, "duration": 119, "velocity": 120}, {"time": 21120, "pitch": 37, "duration": 120, "velocity": 120}, {"time": 21359, "pitch": 37, "duration": 120, "velocity": 120}, {"time": 21598, "pitch": 37, "duration": 119, "velocity": 120}, {"time": 21837, "pitch": 37, "duration": 119, "velocity": 120}, {"time": 22076, "pitch": 39, "duration": 122, "velocity": 120}, {"time": 22320, "pitch": 39, "duration": 122, "velocity": 120}, {"time": 22564, "pitch": 41, "duration": 119, "velocity": 120}, {"time": 22803, "pitch": 41, "duration": 119, "velocity": 120}, {"time": 23041, "pitch": 41, "duration": 120, "velocity": 120}, {"time": 23280, "pitch": 41, "duration": 120, "velocity": 120}, {"time": 23519, "pitch": 44, "duration": 119, "velocity": 120}, {"time": 23758, "pitch": 44, "duration": 119, "velocity": 120}, {"time": 23997, "pitch": 44, "duration": 122, "velocity": 120}, {"time": 24241, "pitch": 37, "duration": 122, "velocity": 120}, {"time": 24485, "pitch": 37, "duration": 119, "velocity": 120}, {"time": 24724, "pitch": 37, "duration": 119, "velocity": 120}, {"time": 24963, "pitch": 37, "duration": 119, "velocity": 120}, {"time": 25201, "pitch": 37, "duration": 120, "velocity": 120}, {"time": 25440, "pitch": 37, "duration": 120, "velocity": 120}, {"time": 25679, "pitch": 37, "duration": 119, "velocity": 120}, {"time": 25918, "pitch": 39, "duration": 119, "velocity": 120}, {"time": 26157, "pitch": 39, "duration": 119, "velocity": 120}, {"time": 26395, "pitch": 41, "duration": 122, "velocity": 120}, {"time": 26639, "pitch": 41, "duration": 123, "velocity": 120}, {"time": 26884, "pitch": 41, "duration": 119, "velocity": 120}, {"time": 27122, "pitch": 41, "duration": 120, "velocity": 120}, {"time": 27361, "pitch": 39, "duration": 120, "velocity": 120}, {"time": 27600, "pitch": 39, "duration": 119, "velocity": 120}, {"time": 27839, "pitch": 39, "duration": 119, "velocity": 120}, {"time": 28078, "pitch": 37, "duration": 119, "velocity": 120}, {"time": 28316, "pitch": 37, "duration": 123, "velocity": 120}, {"time": 28561, "pitch": 37, "duration": 122, "velocity": 120}, {"time": 28805, "pitch": 37, "duration": 119, "velocity": 120}, {"time": 29044, "pitch": 37, "duration": 119, "velocity": 120}, {"time": 29282, "pitch": 37, "duration": 120, "velocity": 120}, {"time": 29521, "pitch": 37, "duration": 120, "velocity": 120}, {"time": 29760, "pitch": 39, "duration": 119, "velocity": 120}, {"time": 29999, "pitch": 39, "duration": 119, "velocity": 120}, {"time": 30238, "pitch": 41, "duration": 119, "velocity": 120}, {"time": 30476, "pitch": 41, "duration": 120, "velocity": 120}, {"time": 30715, "pitch": 41, "duration": 122, "velocity": 120}, {"time": 30959, "pitch": 41, "duration": 122, "velocity": 120}, {"time": 31203, "pitch": 44, "duration": 120, "velocity": 120}, {"time": 31442, "pitch": 44, "duration": 120, "velocity": 120}, {"time": 31681, "pitch": 44, "duration": 120, "velocity": 120}, {"time": 31920, "pitch": 37, "duration": 119, "velocity": 120}, {"time": 32159, "pitch": 37, "duration": 119, "velocity": 120}, {"time": 32398, "pitch": 37, "duration": 119, "velocity": 120}, {"time": 32636, "pitch": 37, "duration": 122, "velocity": 120}, {"time": 32880, "pitch": 37, "duration": 123, "velocity": 120}, {"time": 33125, "pitch": 37, "duration": 119, "velocity": 120}, {"time": 33363, "pitch": 39, "duration": 120, "velocity": 120}, {"time": 33602, "pitch": 39, "duration": 120, "velocity": 120}, {"time": 33841, "pitch": 39, "duration": 119, "velocity": 120}, {"time": 34080, "pitch": 41, "duration": 119, "velocity": 120}, {"time": 34319, "pitch": 41, "duration": 119, "velocity": 120}, {"time": 34557, "pitch": 41, "duration": 120, "velocity": 120}, {"time": 34796, "pitch": 41, "duration": 120, "velocity": 120}, {"time": 35035, "pitch": 39, "duration": 122, "velocity": 120}, {"time": 35279, "pitch": 39, "duration": 122, "velocity": 120}, {"time": 35523, "pitch": 39, "duration": 120, "velocity": 120}, {"time": 35762, "pitch": 37, "duration": 120, "velocity": 120}, {"time": 36001, "pitch": 37, "duration": 119, "velocity": 120}, {"time": 36240, "pitch": 37, "duration": 119, "velocity": 120}, {"time": 36479, "pitch": 37, "duration": 119, "velocity": 120}, {"time": 36717, "pitch": 37, "duration": 120, "velocity": 120}, {"time": 36956, "pitch": 37, "duration": 122, "velocity": 120}, {"time": 37200, "pitch": 37, "duration": 122, "velocity": 120}, {"time": 37444, "pitch": 39, "duration": 120, "velocity": 120}, {"time": 37683, "pitch": 39, "duration": 120, "velocity": 120}, {"time": 37922, "pitch": 41, "duration": 119, "velocity": 120}, {"time": 38161, "pitch": 41, "duration": 119, "velocity": 120}, {"time": 38400, "pitch": 41, "duration": 119, "velocity": 120}, {"time": 38638, "pitch": 41, "duration": 120, "velocity": 120}, {"time": 38877, "pitch": 44, "duration": 120, "velocity": 120}, {"time": 39116, "pitch": 44, "duration": 119, "velocity": 120}, {"time": 39355, "pitch": 44, "duration": 122, "velocity": 120}, {"time": 39599, "pitch": 37, "duration": 122, "velocity": 120}, {"time": 39843, "pitch": 37, "duration": 120, "velocity": 120}, {"time": 40082, "pitch": 37, "duration": 119, "velocity": 120}, {"time": 40321, "pitch": 37, "duration": 119, "velocity": 120}, {"time": 40560, "pitch": 37, "duration": 119, "velocity": 120}, {"time": 40798, "pitch": 37, "duration": 120, "velocity": 120}, {"time": 41037, "pitch": 37, "duration": 120, "velocity": 120}, {"time": 41276, "pitch": 39, "duration": 122, "velocity": 120}, {"time": 41520, "pitch": 39, "duration": 122, "velocity": 120}, {"time": 41764, "pitch": 41, "duration": 120, "velocity": 120}, {"time": 42003, "pitch": 41, "duration": 119, "velocity": 120}, {"time": 42242, "pitch": 41, "duration": 119, "velocity": 120}, {"time": 42481, "pitch": 41, "duration": 119, "velocity": 120}, {"time": 42720, "pitch": 39, "duration": 119, "velocity": 120}, {"time": 42958, "pitch": 39, "duration": 120, "velocity": 120}, {"time": 43197, "pitch": 39, "duration": 120, "velocity": 120}, {"time": 43436, "pitch": 37, "duration": 119, "velocity": 120}, {"time": 43675, "pitch": 37, "duration": 122, "velocity": 120}, {"time": 43919, "pitch": 37, "duration": 122, "velocity": 120}, {"time": 44163, "pitch": 37, "duration": 119, "velocity": 120}, {"time": 44402, "pitch": 37, "duration": 119, "velocity": 120}, {"time": 44641, "pitch": 37, "duration": 119, "velocity": 120}, {"time": 44879, "pitch": 37, "duration": 120, "velocity": 120}, {"time": 45118, "pitch": 39, "duration": 120, "velocity": 120}, {"time": 45357, "pitch": 39, "duration": 119, "velocity": 120}, {"time": 45596, "pitch": 41, "duration": 122, "velocity": 120}, {"time": 45840, "pitch": 41, "duration": 122, "velocity": 120}, {"time": 46084, "pitch": 41, "duration": 120, "velocity": 120}, {"time": 46323, "pitch": 41, "duration": 119, "velocity": 120}, {"time": 46562, "pitch": 44, "duration": 119, "velocity": 120}, {"time": 46801, "pitch": 44, "duration": 119, "velocity": 120}, {"time": 47039, "pitch": 44, "duration": 120, "velocity": 120}, {"time": 47278, "pitch": 37, "duration": 120, "velocity": 120}, {"time": 47517, "pitch": 37, "duration": 122, "velocity": 120}, {"time": 47761, "pitch": 37, "duration": 122, "velocity": 120}, {"time": 48005, "pitch": 37, "duration": 120, "velocity": 120}, {"time": 48244, "pitch": 37, "duration": 119, "velocity": 120}, {"time": 48483, "pitch": 37, "duration": 119, "velocity": 120}, {"time": 48722, "pitch": 39, "duration": 119, "velocity": 120}, {"time": 48960, "pitch": 39, "duration": 120, "velocity": 120}, {"time": 49199, "pitch": 39, "duration": 120, "velocity": 120}, {"time": 49438, "pitch": 41, "duration": 119, "velocity": 120}, {"time": 49677, "pitch": 41, "duration": 119, "velocity": 120}, {"time": 49916, "pitch": 41, "duration": 122, "velocity": 120}, {"time": 50160, "pitch": 41, "duration": 122, "velocity": 120}, {"time": 50404, "pitch": 39, "duration": 119, "velocity": 120}, {"time": 50643, "pitch": 39, "duration": 119, "velocity": 120}, {"time": 50882, "pitch": 39, "duration": 119, "velocity": 120}, {"time": 51120, "pitch": 37, "duration": 120, "velocity": 120}, {"time": 51359, "pitch": 37, "duration": 120, "velocity": 120}, {"time": 51598, "pitch": 37, "duration": 119, "velocity": 120}, {"time": 51837, "pitch": 37, "duration": 122, "velocity": 120}, {"time": 52081, "pitch": 37, "duration": 122, "velocity": 120}, {"time": 52325, "pitch": 37, "duration": 119, "velocity": 120}, {"time": 52564, "pitch": 37, "duration": 119, "velocity": 120}, {"time": 52803, "pitch": 39, "duration": 119, "velocity": 120}, {"time": 53041, "pitch": 39, "duration": 120, "velocity": 120}, {"time": 53280, "pitch": 41, "duration": 120, "velocity": 120}, {"time": 53519, "pitch": 41, "duration": 120, "velocity": 120}, {"time": 53758, "pitch": 41, "duration": 119, "velocity": 120}, {"time": 53997, "pitch": 41, "duration": 119, "velocity": 120}, {"time": 54236, "pitch": 44, "duration": 122, "velocity": 120}, {"time": 54480, "pitch": 44, "duration": 122, "velocity": 120}, {"time": 54724, "pitch": 44, "duration": 119, "velocity": 120}, {"time": 54963, "pitch": 37, "duration": 119, "velocity": 120}, {"time": 55201, "pitch": 37, "duration": 120, "velocity": 120}, {"time": 55440, "pitch": 37, "duration": 120, "velocity": 120}, {"time": 55679, "pitch": 37, "duration": 119, "velocity": 120}, {"time": 55918, "pitch": 37, "duration": 119, "velocity": 120}, {"time": 56157, "pitch": 37, "duration": 122, "velocity": 120}, {"time": 56401, "pitch": 37, "duration": 122, "velocity": 120}, {"time": 56645, "pitch": 39, "duration": 119, "velocity": 120}, {"time": 56884, "pitch": 39, "duration": 119, "velocity": 120}, {"time": 57123, "pitch": 41, "duration": 119, "velocity": 120}, {"time": 57361, "pitch": 41, "duration": 120, "velocity": 120}, {"time": 57600, "pitch": 41, "duration": 120, "velocity": 120}, {"time": 57839, "pitch": 41, "duration": 119, "velocity": 120}, {"time": 58078, "pitch": 39, "duration": 119, "velocity": 120}, {"time": 58317, "pitch": 39, "duration": 119, "velocity": 120}, {"time": 58555, "pitch": 39, "duration": 122, "velocity": 120}, {"time": 58799, "pitch": 37, "duration": 123, "velocity": 120}, {"time": 59044, "pitch": 37, "duration": 119, "velocity": 120}, {"time": 59282, "pitch": 37, "duration": 120, "velocity": 120}, {"time": 59521, "pitch": 37, "duration": 120, "velocity": 120}, {"time": 59760, "pitch": 37, "duration": 119, "velocity": 120}, {"time": 59999, "pitch": 37, "duration": 119, "velocity": 120}, {"time": 60238, "pitch": 37, "duration": 119, "velocity": 120}, {"time": 60476, "pitch": 39, "duration": 123, "velocity": 120}, {"time": 60721, "pitch": 39, "duration": 122, "velocity": 120}, {"time": 60965, "pitch": 41, "duration": 119, "velocity": 120}, {"time": 61204, "pitch": 41, "duration": 119, "velocity": 120}, {"time": 61442, "pitch": 41, "duration": 120, "velocity": 120}, {"time": 61681, "pitch": 41, "duration": 120, "velocity": 120}, {"time": 61920, "pitch": 44, "duration": 119, "velocity": 120}, {"time": 62159, "pitch": 44, "duration": 119, "velocity": 120}, {"time": 62398, "pitch": 44, "duration": 119, "velocity": 120}, {"time": 62636, "pitch": 37, "duration": 120, "velocity": 120}, {"time": 62875, "pitch": 37, "duration": 122, "velocity": 120}, {"time": 63119, "pitch": 37, "duration": 122, "velocity": 120}, {"time": 63363, "pitch": 37, "duration": 120, "velocity": 120}, {"time": 63602, "pitch": 37, "duration": 120, "velocity": 120}, {"time": 63841, "pitch": 37, "duration": 119, "velocity": 120}, {"time": 64080, "pitch": 39, "duration": 119, "velocity": 120}, {"time": 64319, "pitch": 39, "duration": 119, "velocity": 120}, {"time": 64558, "pitch": 39, "duration": 119, "velocity": 120}, {"time": 64796, "pitch": 51, "duration": 122, "velocity": 120}, {"time": 65040, "pitch": 51, "duration": 123, "velocity": 120}, {"time": 65285, "pitch": 51, "duration": 119, "velocity": 120}, {"time": 65523, "pitch": 51, "duration": 120, "velocity": 120}, {"time": 65762, "pitch": 51, "duration": 120, "velocity": 120}, {"time": 66001, "pitch": 51, "duration": 119, "velocity": 120}, {"time": 66240, "pitch": 51, "duration": 119, "velocity": 120}, {"time": 66479, "pitch": 51, "duration": 119, "velocity": 120}, {"time": 66717, "pitch": 49, "duration": 120, "velocity": 120}, {"time": 66956, "pitch": 49, "duration": 120, "velocity": 120}, {"time": 67195, "pitch": 49, "duration": 122, "velocity": 120}, {"time": 67439, "pitch": 49, "duration": 122, "velocity": 120}, {"time": 67683, "pitch": 49, "duration": 120, "velocity": 120}, {"time": 67922, "pitch": 49, "duration": 120, "velocity": 120}, {"time": 68161, "pitch": 49, "duration": 119, "velocity": 120}, {"time": 68400, "pitch": 49, "duration": 119, "velocity": 120}, {"time": 68639, "pitch": 51, "duration": 119, "velocity": 120}, {"time": 68877, "pitch": 51, "duration": 120, "velocity": 120}, {"time": 69116, "pitch": 51, "duration": 122, "velocity": 120}, {"time": 69360, "pitch": 51, "duration": 122, "velocity": 120}, {"time": 69604, "pitch": 51, "duration": 120, "velocity": 120}, {"time": 69843, "pitch": 51, "duration": 120, "velocity": 120}, {"time": 70082, "pitch": 51, "duration": 119, "velocity": 120}, {"time": 70321, "pitch": 51, "duration": 119, "velocity": 120}, {"time": 70560, "pitch": 49, "duration": 119, "velocity": 120}, {"time": 70798, "pitch": 49, "duration": 120, "velocity": 120}, {"time": 71037, "pitch": 49, "duration": 120, "velocity": 120}, {"time": 71276, "pitch": 49, "duration": 119, "velocity": 120}, {"time": 71515, "pitch": 49, "duration": 122, "velocity": 120}, {"time": 71759, "pitch": 49, "duration": 122, "velocity": 120}, {"time": 72003, "pitch": 49, "duration": 120, "velocity": 120}, {"time": 72242, "pitch": 49, "duration": 119, "velocity": 120}, {"time": 72481, "pitch": 51, "duration": 119, "velocity": 120}, {"time": 72720, "pitch": 51, "duration": 119, "velocity": 120}, {"time": 72958, "pitch": 51, "duration": 120, "velocity": 120}, {"time": 73197, "pitch": 51, "duration": 120, "velocity": 120}, {"time": 73436, "pitch": 51, "duration": 122, "velocity": 120}, {"time": 73680, "pitch": 51, "duration": 122, "velocity": 120}, {"time": 73924, "pitch": 51, "duration": 120, "velocity": 120}, {"time": 74163, "pitch": 51, "duration": 119, "velocity": 120}, {"time": 74402, "pitch": 49, "duration": 119, "velocity": 120}, {"time": 74641, "pitch": 49, "duration": 119, "velocity": 120}, {"time": 74879, "pitch": 49, "duration": 120, "velocity": 120}, {"time": 75118, "pitch": 49, "duration": 120, "velocity": 120}, {"time": 75357, "pitch": 49, "duration": 120, "velocity": 120}, {"time": 75596, "pitch": 49, "duration": 119, "velocity": 120}, {"time": 75835, "pitch": 49, "duration": 122, "velocity": 120}, {"time": 76079, "pitch": 49, "duration": 122, "velocity": 120}, {"time": 76323, "pitch": 50, "duration": 119, "velocity": 120}, {"time": 76562, "pitch": 50, "duration": 119, "velocity": 120}, {"time": 76801, "pitch": 50, "duration": 119, "velocity": 120}, {"time": 77039, "pitch": 50, "duration": 120, "velocity": 120}, {"time": 77278, "pitch": 50, "duration": 120, "velocity": 120}, {"time": 77517, "pitch": 50, "duration": 119, "velocity": 120}, {"time": 77756, "pitch": 50, "duration": 122, "velocity": 120}, {"time": 78000, "pitch": 50, "duration": 122, "velocity": 120}, {"time": 78244, "pitch": 55, "duration": 120, "velocity": 120}, {"time": 78483, "pitch": 55, "duration": 119, "velocity": 120}, {"time": 78722, "pitch": 55, "duration": 119, "velocity": 120}, {"time": 78961, "pitch": 55, "duration": 119, "velocity": 120}, {"time": 79199, "pitch": 55, "duration": 120, "velocity": 120}, {"time": 79438, "pitch": 55, "duration": 120, "velocity": 120}, {"time": 79677, "pitch": 55, "duration": 122, "velocity": 120}, {"time": 79921, "pitch": 55, "duration": 122, "velocity": 120}, {"time": 80165, "pitch": 49, "duration": 120, "velocity": 120}, {"time": 80404, "pitch": 49, "duration": 119, "velocity": 120}, {"time": 80643, "pitch": 49, "duration": 119, "velocity": 120}, {"time": 80882, "pitch": 49, "duration": 119, "velocity": 120}, {"time": 81120, "pitch": 49, "duration": 120, "velocity": 120}, {"time": 81359, "pitch": 49, "duration": 120, "velocity": 120}, {"time": 81598, "pitch": 49, "duration": 119, "velocity": 120}, {"time": 81837, "pitch": 49, "duration": 119, "velocity": 120}, {"time": 82076, "pitch": 51, "duration": 122, "velocity": 120}, {"time": 82320, "pitch": 51, "duration": 122, "velocity": 120}, {"time": 82564, "pitch": 51, "duration": 119, "velocity": 120}, {"time": 82803, "pitch": 51, "duration": 119, "velocity": 120}, {"time": 83042, "pitch": 51, "duration": 119, "velocity": 120}, {"time": 83280, "pitch": 51, "duration": 120, "velocity": 120}, {"time": 83519, "pitch": 51, "duration": 120, "velocity": 120}, {"time": 83758, "pitch": 51, "duration": 119, "velocity": 120}, {"time": 83997, "pitch": 48, "duration": 122, "velocity": 120}, {"time": 84241, "pitch": 48, "duration": 122, "velocity": 120}, {"time": 84485, "pitch": 48, "duration": 119, "velocity": 120}, {"time": 84724, "pitch": 48, "duration": 119, "velocity": 120}, {"time": 84963, "pitch": 48, "duration": 119, "velocity": 120}, {"time": 85201, "pitch": 48, "duration": 120, "velocity": 120}, {"time": 85440, "pitch": 48, "duration": 120, "velocity": 120}, {"time": 85679, "pitch": 48, "duration": 119, "velocity": 120}, {"time": 85918, "pitch": 53, "duration": 119, "velocity": 120}, {"time": 86157, "pitch": 53, "duration": 119, "velocity": 120}, {"time": 86396, "pitch": 53, "duration": 122, "velocity": 120}, {"time": 86640, "pitch": 53, "duration": 122, "velocity": 120}, {"time": 86884, "pitch": 53, "duration": 119, "velocity": 120}, {"time": 87123, "pitch": 53, "duration": 119, "velocity": 120}, {"time": 87361, "pitch": 53, "duration": 120, "velocity": 120}, {"time": 87600, "pitch": 53, "duration": 120, "velocity": 120}, {"time": 87839, "pitch": 46, "duration": 119, "velocity": 120}, {"time": 88078, "pitch": 46, "duration": 119, "velocity": 120}, {"time": 88317, "pitch": 46, "duration": 122, "velocity": 120}, {"time": 88561, "pitch": 46, "duration": 122, "velocity": 120}, {"time": 88805, "pitch": 46, "duration": 119, "velocity": 120}, {"time": 89044, "pitch": 46, "duration": 119, "velocity": 120}, {"time": 89283, "pitch": 46, "duration": 119, "velocity": 120}, {"time": 89521, "pitch": 46, "duration": 120, "velocity": 120}, {"time": 89760, "pitch": 48, "duration": 120, "velocity": 120}, {"time": 89999, "pitch": 48, "duration": 119, "velocity": 120}, {"time": 90238, "pitch": 48, "duration": 119, "velocity": 120}, {"time": 90477, "pitch": 48, "duration": 119, "velocity": 120}, {"time": 90715, "pitch": 48, "duration": 122, "velocity": 120}, {"time": 90959, "pitch": 48, "duration": 123, "velocity": 120}, {"time": 91204, "pitch": 48, "duration": 119, "velocity": 120}, {"time": 91442, "pitch": 48, "duration": 120, "velocity": 120}, {"time": 91681, "pitch": 49, "duration": 120, "velocity": 120}, {"time": 91920, "pitch": 49, "duration": 119, "velocity": 120}, {"time": 92159, "pitch": 49, "duration": 119, "velocity": 120}, {"time": 92398, "pitch": 49, "duration": 119, "velocity": 120}, {"time": 92636, "pitch": 49, "duration": 122, "velocity": 120}, {"time": 92881, "pitch": 49, "duration": 122, "velocity": 120}, {"time": 93125, "pitch": 49, "duration": 119, "velocity": 120}, {"time": 93364, "pitch": 49, "duration": 119, "velocity": 120}, {"time": 93602, "pitch": 51, "duration": 120, "velocity": 120}, {"time": 93841, "pitch": 51, "duration": 120, "velocity": 120}, {"time": 94080, "pitch": 51, "duration": 119, "velocity": 120}, {"time": 94319, "pitch": 51, "duration": 119, "velocity": 120}, {"time": 94558, "pitch": 51, "duration": 119, "velocity": 120}, {"time": 94796, "pitch": 51, "duration": 120, "velocity": 120}, {"time": 95035, "pitch": 51, "duration": 122, "velocity": 120}, {"time": 95279, "pitch": 51, "duration": 122, "velocity": 120}, {"time": 95523, "pitch": 49, "duration": 120, "velocity": 120}, {"time": 95762, "pitch": 49, "duration": 120, "velocity": 120}, {"time": 96001, "pitch": 49, "duration": 119, "velocity": 120}, {"time": 96240, "pitch": 49, "duration": 119, "velocity": 120}, {"time": 96479, "pitch": 49, "duration": 119, "velocity": 120}, {"time": 96717, "pitch": 49, "duration": 120, "velocity": 120}, {"time": 96956, "pitch": 49, "duration": 122, "velocity": 120}, {"time": 97200, "pitch": 49, "duration": 123, "velocity": 120}, {"time": 97445, "pitch": 51, "duration": 119, "velocity": 120}, {"time": 97683, "pitch": 51, "duration": 120, "velocity": 120}, {"time": 97922, "pitch": 51, "duration": 120, "velocity": 120}, {"time": 98161, "pitch": 51, "duration": 119, "velocity": 120}, {"time": 98400, "pitch": 51, "duration": 119, "velocity": 120}, {"time": 98639, "pitch": 51, "duration": 119, "velocity": 120}, {"time": 98877, "pitch": 51, "duration": 120, "velocity": 120}, {"time": 99116, "pitch": 51, "duration": 120, "velocity": 120}, {"time": 99355, "pitch": 48, "duration": 122, "velocity": 120}, {"time": 99599, "pitch": 48, "duration": 122, "velocity": 120}, {"time": 99843, "pitch": 48, "duration": 120, "velocity": 120}, {"time": 100082, "pitch": 48, "duration": 120, "velocity": 120}, {"time": 100321, "pitch": 48, "duration": 119, "velocity": 120}, {"time": 100560, "pitch": 48, "duration": 119, "velocity": 120}, {"time": 100799, "pitch": 48, "duration": 119, "velocity": 120}, {"time": 101037, "pitch": 48, "duration": 120, "velocity": 120}, {"time": 101276, "pitch": 53, "duration": 122, "velocity": 120}, {"time": 101520, "pitch": 53, "duration": 122, "velocity": 120}, {"time": 101764, "pitch": 53, "duration": 120, "velocity": 120}, {"time": 102003, "pitch": 53, "duration": 120, "velocity": 120}, {"time": 102242, "pitch": 53, "duration": 119, "velocity": 120}, {"time": 102481, "pitch": 53, "duration": 119, "velocity": 120}, {"time": 102720, "pitch": 53, "duration": 119, "velocity": 120}, {"time": 102958, "pitch": 53, "duration": 120, "velocity": 120}, {"time": 103197, "pitch": 46, "duration": 120, "velocity": 120}, {"time": 103436, "pitch": 46, "duration": 119, "velocity": 120}, {"time": 103675, "pitch": 46, "duration": 122, "velocity": 120}, {"time": 103919, "pitch": 46, "duration": 122, "velocity": 120}, {"time": 104163, "pitch": 46, "duration": 120, "velocity": 120}, {"time": 104402, "pitch": 46, "duration": 119, "velocity": 120}, {"time": 104641, "pitch": 46, "duration": 119, "velocity": 120}, {"time": 104880, "pitch": 46, "duration": 119, "velocity": 120}, {"time": 105118, "pitch": 48, "duration": 120, "velocity": 120}, {"time": 105357, "pitch": 48, "duration": 120, "velocity": 120}, {"time": 105596, "pitch": 48, "duration": 122, "velocity": 120}, {"time": 105840, "pitch": 48, "duration": 122, "velocity": 120}, {"time": 106084, "pitch": 48, "duration": 120, "velocity": 120}, {"time": 106323, "pitch": 48, "duration": 119, "velocity": 120}, {"time": 106562, "pitch": 48, "duration": 119, "velocity": 120}, {"time": 106801, "pitch": 48, "duration": 119, "velocity": 120}, {"time": 107039, "pitch": 49, "duration": 120, "velocity": 120}, {"time": 107278, "pitch": 49, "duration": 120, "velocity": 120}, {"time": 107517, "pitch": 49, "duration": 119, "velocity": 120}, {"time": 107756, "pitch": 49, "duration": 119, "velocity": 120}, {"time": 107995, "pitch": 49, "duration": 122, "velocity": 120}, {"time": 108239, "pitch": 49, "duration": 122, "velocity": 120}, {"time": 108483, "pitch": 49, "duration": 119, "velocity": 120}, {"time": 108722, "pitch": 49, "duration": 119, "velocity": 120}, {"time": 108961, "pitch": 51, "duration": 119, "velocity": 120}, {"time": 109199, "pitch": 51, "duration": 120, "velocity": 120}, {"time": 109438, "pitch": 51, "duration": 120, "velocity": 120}, {"time": 109677, "pitch": 51, "duration": 119, "velocity": 120}, {"time": 109916, "pitch": 51, "duration": 122, "velocity": 120}, {"time": 110160, "pitch": 51, "duration": 122, "velocity": 120}, {"time": 110404, "pitch": 51, "duration": 119, "velocity": 120}, {"time": 110643, "pitch": 51, "duration": 119, "velocity": 120}, {"time": 110882, "pitch": 41, "duration": 119, "velocity": 120}, {"time": 111121, "pitch": 41, "duration": 119, "velocity": 120}, {"time": 111359, "pitch": 41, "duration": 120, "velocity": 120}, {"time": 111598, "pitch": 41, "duration": 120, "velocity": 120}, {"time": 111837, "pitch": 39, "duration": 122, "velocity": 120}, {"time": 112081, "pitch": 39, "duration": 122, "velocity": 120}, {"time": 112325, "pitch": 39, "duration": 120, "velocity": 120}, {"time": 112564, "pitch": 37, "duration": 119, "velocity": 120}, {"time": 112803, "pitch": 37, "duration": 119, "velocity": 120}, {"time": 113042, "pitch": 37, "duration": 119, "velocity": 120}, {"time": 113280, "pitch": 37, "duration": 120, "velocity": 120}, {"time": 113519, "pitch": 37, "duration": 120, "velocity": 120}, {"time": 113758, "pitch": 37, "duration": 119, "velocity": 120}, {"time": 113997, "pitch": 37, "duration": 119, "velocity": 120}, {"time": 114236, "pitch": 39, "duration": 122, "velocity": 120}, {"time": 114480, "pitch": 39, "duration": 122, "velocity": 120}, {"time": 114724, "pitch": 41, "duration": 119, "velocity": 120}, {"time": 114963, "pitch": 41, "duration": 119, "velocity": 120}, {"time": 115202, "pitch": 41, "duration": 119, "velocity": 120}, {"time": 115440, "pitch": 41, "duration": 120, "velocity": 120}, {"time": 115679, "pitch": 44, "duration": 120, "velocity": 120}, {"time": 115918, "pitch": 44, "duration": 119, "velocity": 120}, {"time": 116157, "pitch": 44, "duration": 122, "velocity": 120}, {"time": 116401, "pitch": 37, "duration": 122, "velocity": 120}, {"time": 116645, "pitch": 37, "duration": 119, "velocity": 120}, {"time": 116884, "pitch": 37, "duration": 119, "velocity": 120}, {"time": 117123, "pitch": 37, "duration": 119, "velocity": 120}, {"time": 117361, "pitch": 37, "duration": 120, "velocity": 120}, {"time": 117600, "pitch": 37, "duration": 120, "velocity": 120}, {"time": 117839, "pitch": 37, "duration": 119, "velocity": 120}, {"time": 118078, "pitch": 39, "duration": 119, "velocity": 120}, {"time": 118317, "pitch": 39, "duration": 119, "velocity": 120}, {"time": 118555, "pitch": 41, "duration": 123, "velocity": 120}, {"time": 118800, "pitch": 41, "duration": 122, "velocity": 120}, {"time": 119044, "pitch": 41, "duration": 119, "velocity": 120}, {"time": 119283, "pitch": 41, "duration": 119, "velocity": 120}, {"time": 119521, "pitch": 39, "duration": 120, "velocity": 120}, {"time": 119760, "pitch": 39, "duration": 120, "velocity": 120}, {"time": 119999, "pitch": 39, "duration": 119, "velocity": 120}, {"time": 120238, "pitch": 37, "duration": 119, "velocity": 120}, {"time": 120477, "pitch": 37, "duration": 122, "velocity": 120}, {"time": 120721, "pitch": 37, "duration": 122, "velocity": 120}, {"time": 120965, "pitch": 37, "duration": 119, "velocity": 120}, {"time": 121204, "pitch": 37, "duration": 119, "velocity": 120}, {"time": 121442, "pitch": 37, "duration": 120, "velocity": 120}, {"time": 121681, "pitch": 37, "duration": 120, "velocity": 120}, {"time": 121920, "pitch": 39, "duration": 120, "velocity": 120}, {"time": 122159, "pitch": 39, "duration": 119, "velocity": 120}, {"time": 122398, "pitch": 41, "duration": 119, "velocity": 120}, {"time": 122637, "pitch": 41, "duration": 119, "velocity": 120}, {"time": 122875, "pitch": 41, "duration": 122, "velocity": 120}, {"time": 123119, "pitch": 41, "duration": 123, "velocity": 120}, {"time": 123364, "pitch": 44, "duration": 119, "velocity": 120}, {"time": 123602, "pitch": 44, "duration": 120, "velocity": 120}, {"time": 123841, "pitch": 44, "duration": 120, "velocity": 120}, {"time": 124080, "pitch": 37, "duration": 119, "velocity": 120}, {"time": 124319, "pitch": 37, "duration": 119, "velocity": 120}, {"time": 124558, "pitch": 37, "duration": 119, "velocity": 120}, {"time": 124796, "pitch": 37, "duration": 122, "velocity": 120}, {"time": 125041, "pitch": 37, "duration": 122, "velocity": 120}, {"time": 125285, "pitch": 37, "duration": 119, "velocity": 120}, {"time": 125524, "pitch": 39, "duration": 119, "velocity": 120}, {"time": 125762, "pitch": 39, "duration": 120, "velocity": 120}, {"time": 126001, "pitch": 39, "duration": 120, "velocity": 120}, {"time": 126240, "pitch": 41, "duration": 119, "velocity": 120}, {"time": 126479, "pitch": 41, "duration": 119, "velocity": 120}, {"time": 126718, "pitch": 41, "duration": 119, "velocity": 120}, {"time": 126956, "pitch": 41, "duration": 120, "velocity": 120}, {"time": 127195, "pitch": 39, "duration": 122, "velocity": 120}, {"time": 127439, "pitch": 39, "duration": 122, "velocity": 120}, {"time": 127683, "pitch": 39, "duration": 120, "velocity": 120}, {"time": 127922, "pitch": 37, "duration": 120, "velocity": 120}, {"time": 128161, "pitch": 37, "duration": 119, "velocity": 120}, {"time": 128400, "pitch": 37, "duration": 119, "velocity": 120}, {"time": 128639, "pitch": 37, "duration": 119, "velocity": 120}, {"time": 128877, "pitch": 37, "duration": 120, "velocity": 120}, {"time": 129116, "pitch": 37, "duration": 122, "velocity": 120}, {"time": 129360, "pitch": 37, "duration": 123, "velocity": 120}, {"time": 129605, "pitch": 39, "duration": 119, "velocity": 120}, {"time": 129843, "pitch": 39, "duration": 120, "velocity": 120}, {"time": 130082, "pitch": 41, "duration": 120, "velocity": 120}, {"time": 130321, "pitch": 41, "duration": 119, "velocity": 120}, {"time": 130560, "pitch": 41, "duration": 119, "velocity": 120}, {"time": 130799, "pitch": 41, "duration": 119, "velocity": 120}, {"time": 131037, "pitch": 44, "duration": 120, "velocity": 120}, {"time": 131276, "pitch": 44, "duration": 120, "velocity": 120}, {"time": 131515, "pitch": 44, "duration": 122, "velocity": 120}, {"time": 131759, "pitch": 37, "duration": 122, "velocity": 120}, {"time": 132003, "pitch": 37, "duration": 120, "velocity": 120}, {"time": 132242, "pitch": 37, "duration": 119, "velocity": 120}, {"time": 132481, "pitch": 37, "duration": 119, "velocity": 120}, {"time": 132720, "pitch": 37, "duration": 119, "velocity": 120}, {"time": 132959, "pitch": 37, "duration": 119, "velocity": 120}, {"time": 133197, "pitch": 37, "duration": 120, "velocity": 120}, {"time": 133436, "pitch": 39, "duration": 122, "velocity": 120}, {"time": 133680, "pitch": 39, "duration": 122, "velocity": 120}, {"time": 133924, "pitch": 41, "duration": 120, "velocity": 120}, {"time": 134163, "pitch": 41, "duration": 120, "velocity": 120}, {"time": 134402, "pitch": 41, "duration": 119, "velocity": 120}, {"time": 134641, "pitch": 41, "duration": 119, "velocity": 120}, {"time": 134880, "pitch": 39, "duration": 119, "velocity": 120}, {"time": 135118, "pitch": 39, "duration": 120, "velocity": 120}, {"time": 135357, "pitch": 39, "duration": 120, "velocity": 120}, {"time": 135596, "pitch": 37, "duration": 119, "velocity": 120}, {"time": 135835, "pitch": 37, "duration": 122, "velocity": 120}, {"time": 136079, "pitch": 37, "duration": 122, "velocity": 120}, {"time": 136323, "pitch": 37, "duration": 120, "velocity": 120}, {"time": 136562, "pitch": 37, "duration": 119, "velocity": 120}, {"time": 136801, "pitch": 37, "duration": 119, "velocity": 120}, {"time": 137040, "pitch": 37, "duration": 119, "velocity": 120}, {"time": 137278, "pitch": 39, "duration": 120, "velocity": 120}, {"time": 137517, "pitch": 39, "duration": 120, "velocity": 120}, {"time": 137756, "pitch": 41, "duration": 122, "velocity": 120}, {"time": 138000, "pitch": 41, "duration": 122, "velocity": 120}, {"time": 138244, "pitch": 41, "duration": 120, "velocity": 120}, {"time": 138483, "pitch": 41, "duration": 119, "velocity": 120}, {"time": 138722, "pitch": 44, "duration": 119, "velocity": 120}, {"time": 138961, "pitch": 44, "duration": 119, "velocity": 120}, {"time": 139199, "pitch": 44, "duration": 120, "velocity": 120}, {"time": 139438, "pitch": 37, "duration": 120, "velocity": 120}, {"time": 139677, "pitch": 37, "duration": 119, "velocity": 120}, {"time": 139916, "pitch": 37, "duration": 119, "velocity": 120}, {"time": 140155, "pitch": 37, "duration": 122, "velocity": 120}, {"time": 140399, "pitch": 37, "duration": 122, "velocity": 120}, {"time": 140643, "pitch": 37, "duration": 119, "velocity": 120}, {"time": 140882, "pitch": 39, "duration": 119, "velocity": 120}, {"time": 141121, "pitch": 39, "duration": 119, "velocity": 120}, {"time": 141359, "pitch": 39, "duration": 120, "velocity": 120}, {"time": 141598, "pitch": 41, "duration": 120, "velocity": 120}, {"time": 141837, "pitch": 41, "duration": 119, "velocity": 120}, {"time": 142076, "pitch": 41, "duration": 122, "velocity": 120}, {"time": 142320, "pitch": 41, "duration": 122, "velocity": 120}, {"time": 142564, "pitch": 39, "duration": 119, "velocity": 120}, {"time": 142803, "pitch": 39, "duration": 119, "velocity": 120}, {"time": 143042, "pitch": 39, "duration": 119, "velocity": 120}, {"time": 143280, "pitch": 37, "duration": 120, "velocity": 120}, {"time": 143519, "pitch": 37, "duration": 120, "velocity": 120}, {"time": 143758, "pitch": 37, "duration": 120, "velocity": 120}, {"time": 143997, "pitch": 37, "duration": 122, "velocity": 120}, {"time": 144241, "pitch": 37, "duration": 122, "velocity": 120}, {"time": 144485, "pitch": 37, "duration": 120, "velocity": 120}, {"time": 144724, "pitch": 37, "duration": 119, "velocity": 120}, {"time": 144963, "pitch": 39, "duration": 119, "velocity": 120}, {"time": 145202, "pitch": 39, "duration": 119, "velocity": 120}, {"time": 145440, "pitch": 41, "duration": 120, "velocity": 120}, {"time": 145679, "pitch": 41, "duration": 120, "velocity": 120}, {"time": 145918, "pitch": 41, "duration": 119, "velocity": 120}, {"time": 146157, "pitch": 41, "duration": 119, "velocity": 120}, {"time": 146396, "pitch": 44, "duration": 122, "velocity": 120}, {"time": 146640, "pitch": 44, "duration": 122, "velocity": 120}, {"time": 146884, "pitch": 44, "duration": 119, "velocity": 120}, {"time": 147123, "pitch": 37, "duration": 119, "velocity": 120}, {"time": 147362, "pitch": 37, "duration": 119, "velocity": 120}, {"time": 147600, "pitch": 37, "duration": 120, "velocity": 120}, {"time": 147839, "pitch": 37, "duration": 120, "velocity": 120}, {"time": 148078, "pitch": 37, "duration": 119, "velocity": 120}, {"time": 148317, "pitch": 37, "duration": 122, "velocity": 120}, {"time": 148561, "pitch": 37, "duration": 122, "velocity": 120}, {"time": 148805, "pitch": 39, "duration": 119, "velocity": 120}, {"time": 149044, "pitch": 39, "duration": 119, "velocity": 120}, {"time": 149283, "pitch": 41, "duration": 119, "velocity": 120}, {"time": 149521, "pitch": 41, "duration": 120, "velocity": 120}, {"time": 149760, "pitch": 41, "duration": 120, "velocity": 120}, {"time": 149999, "pitch": 41, "duration": 119, "velocity": 120}, {"time": 150238, "pitch": 39, "duration": 119, "velocity": 120}, {"time": 150477, "pitch": 39, "duration": 119, "velocity": 120}, {"time": 150715, "pitch": 39, "duration": 122, "velocity": 120}, {"time": 150960, "pitch": 37, "duration": 122, "velocity": 120}, {"time": 151204, "pitch": 37, "duration": 119, "velocity": 120}, {"time": 151443, "pitch": 37, "duration": 119, "velocity": 120}, {"time": 151681, "pitch": 37, "duration": 120, "velocity": 120}, {"time": 151920, "pitch": 37, "duration": 120, "velocity": 120}, {"time": 152159, "pitch": 37, "duration": 119, "velocity": 120}, {"time": 152398, "pitch": 37, "duration": 119, "velocity": 120}, {"time": 152637, "pitch": 39, "duration": 122, "velocity": 120}, {"time": 152881, "pitch": 39, "duration": 122, "velocity": 120}, {"time": 153125, "pitch": 41, "duration": 119, "velocity": 120}, {"time": 153364, "pitch": 41, "duration": 119, "velocity": 120}, {"time": 153602, "pitch": 41, "duration": 120, "velocity": 120}, {"time": 153841, "pitch": 41, "duration": 120, "velocity": 120}, {"time": 154080, "pitch": 44, "duration": 119, "velocity": 120}, {"time": 154319, "pitch": 44, "duration": 119, "velocity": 120}, {"time": 154558, "pitch": 44, "duration": 119, "velocity": 120}, {"time": 154797, "pitch": 37, "duration": 119, "velocity": 120}, {"time": 155035, "pitch": 37, "duration": 122, "velocity": 120}, {"time": 155279, "pitch": 37, "duration": 123, "velocity": 120}, {"time": 155524, "pitch": 37, "duration": 119, "velocity": 120}, {"time": 155762, "pitch": 37, "duration": 120, "velocity": 120}, {"time": 156001, "pitch": 37, "duration": 120, "velocity": 120}, {"time": 156240, "pitch": 39, "duration": 119, "velocity": 120}, {"time": 156479, "pitch": 39, "duration": 119, "velocity": 120}, {"time": 156718, "pitch": 39, "duration": 119, "velocity": 120}, {"time": 156956, "pitch": 51, "duration": 122, "velocity": 120}, {"time": 157201, "pitch": 51, "duration": 122, "velocity": 120}, {"time": 157445, "pitch": 51, "duration": 119, "velocity": 120}, {"time": 157684, "pitch": 51, "duration": 119, "velocity": 120}, {"time": 157922, "pitch": 51, "duration": 120, "velocity": 120}, {"time": 158161, "pitch": 51, "duration": 120, "velocity": 120}, {"time": 158400, "pitch": 51, "duration": 119, "velocity": 120}, {"time": 158639, "pitch": 51, "duration": 119, "velocity": 120}, {"time": 158878, "pitch": 49, "duration": 119, "velocity": 120}, {"time": 159116, "pitch": 49, "duration": 120, "velocity": 120}, {"time": 159355, "pitch": 49, "duration": 122, "velocity": 120}, {"time": 159599, "pitch": 49, "duration": 122, "velocity": 120}, {"time": 159843, "pitch": 49, "duration": 120, "velocity": 120}, {"time": 160082, "pitch": 49, "duration": 120, "velocity": 120}, {"time": 160321, "pitch": 49, "duration": 119, "velocity": 120}, {"time": 160560, "pitch": 49, "duration": 119, "velocity": 120}, {"time": 160799, "pitch": 51, "duration": 119, "velocity": 120}, {"time": 161037, "pitch": 51, "duration": 120, "velocity": 120}, {"time": 161276, "pitch": 51, "duration": 122, "velocity": 120}, {"time": 161520, "pitch": 51, "duration": 123, "velocity": 120}, {"time": 161765, "pitch": 51, "duration": 119, "velocity": 120}, {"time": 162003, "pitch": 51, "duration": 120, "velocity": 120}, {"time": 162242, "pitch": 51, "duration": 120, "velocity": 120}, {"time": 162481, "pitch": 51, "duration": 119, "velocity": 120}, {"time": 162720, "pitch": 49, "duration": 119, "velocity": 120}, {"time": 162959, "pitch": 49, "duration": 119, "velocity": 120}, {"time": 163197, "pitch": 49, "duration": 120, "velocity": 120}, {"time": 163436, "pitch": 49, "duration": 120, "velocity": 120}, {"time": 163675, "pitch": 49, "duration": 122, "velocity": 120}, {"time": 163919, "pitch": 49, "duration": 122, "velocity": 120}, {"time": 164163, "pitch": 49, "duration": 120, "velocity": 120}, {"time": 164402, "pitch": 49, "duration": 119, "velocity": 120}, {"time": 164641, "pitch": 51, "duration": 119, "velocity": 120}, {"time": 164880, "pitch": 51, "duration": 119, "velocity": 120}, {"time": 165118, "pitch": 51, "duration": 120, "velocity": 120}, {"time": 165357, "pitch": 51, "duration": 120, "velocity": 120}, {"time": 165596, "pitch": 51, "duration": 122, "velocity": 120}, {"time": 165840, "pitch": 51, "duration": 122, "velocity": 120}, {"time": 166084, "pitch": 51, "duration": 120, "velocity": 120}, {"time": 166323, "pitch": 51, "duration": 120, "velocity": 120}, {"time": 166562, "pitch": 49, "duration": 119, "velocity": 120}, {"time": 166801, "pitch": 49, "duration": 119, "velocity": 120}, {"time": 167040, "pitch": 49, "duration": 119, "velocity": 120}, {"time": 167278, "pitch": 49, "duration": 120, "velocity": 120}, {"time": 167517, "pitch": 49, "duration": 120, "velocity": 120}, {"time": 167756, "pitch": 49, "duration": 119, "velocity": 120}, {"time": 167995, "pitch": 49, "duration": 122, "velocity": 120}, {"time": 168239, "pitch": 49, "duration": 122, "velocity": 120}, {"time": 168483, "pitch": 50, "duration": 120, "velocity": 120}, {"time": 168722, "pitch": 50, "duration": 119, "velocity": 120}, {"time": 168961, "pitch": 50, "duration": 119, "velocity": 120}, {"time": 169200, "pitch": 50, "duration": 119, "velocity": 120}, {"time": 169438, "pitch": 50, "duration": 120, "velocity": 120}, {"time": 169677, "pitch": 50, "duration": 120, "velocity": 120}, {"time": 169916, "pitch": 50, "duration": 122, "velocity": 120}, {"time": 170160, "pitch": 50, "duration": 122, "velocity": 120}, {"time": 170404, "pitch": 55, "duration": 120, "velocity": 120}, {"time": 170643, "pitch": 55, "duration": 119, "velocity": 120}, {"time": 170882, "pitch": 55, "duration": 119, "velocity": 120}, {"time": 171121, "pitch": 55, "duration": 119, "velocity": 120}, {"time": 171359, "pitch": 55, "duration": 120, "velocity": 120}, {"time": 171598, "pitch": 55, "duration": 120, "velocity": 120}, {"time": 171837, "pitch": 55, "duration": 119, "velocity": 120}, {"time": 172076, "pitch": 55, "duration": 119, "velocity": 120}, {"time": 172315, "pitch": 49, "duration": 122, "velocity": 120}, {"time": 172559, "pitch": 49, "duration": 122, "velocity": 120}, {"time": 172803, "pitch": 49, "duration": 119, "velocity": 120}, {"time": 173042, "pitch": 49, "duration": 119, "velocity": 120}, {"time": 173281, "pitch": 49, "duration": 119, "velocity": 120}, {"time": 173519, "pitch": 49, "duration": 120, "velocity": 120}, {"time": 173758, "pitch": 49, "duration": 120, "velocity": 120}, {"time": 173997, "pitch": 49, "duration": 119, "velocity": 120}, {"time": 174236, "pitch": 51, "duration": 122, "velocity": 120}, {"time": 174480, "pitch": 51, "duration": 122, "velocity": 120}, {"time": 174724, "pitch": 51, "duration": 119, "velocity": 120}, {"time": 174963, "pitch": 51, "duration": 119, "velocity": 120}, {"time": 175202, "pitch": 51, "duration": 119, "velocity": 120}, {"time": 175440, "pitch": 51, "duration": 120, "velocity": 120}, {"time": 175679, "pitch": 51, "duration": 120, "velocity": 120}, {"time": 175918, "pitch": 51, "duration": 119, "velocity": 120}, {"time": 176157, "pitch": 48, "duration": 122, "velocity": 120}, {"time": 176401, "pitch": 48, "duration": 122, "velocity": 120}, {"time": 176645, "pitch": 48, "duration": 120, "velocity": 120}, {"time": 176884, "pitch": 48, "duration": 119, "velocity": 120}, {"time": 177123, "pitch": 48, "duration": 119, "velocity": 120}, {"time": 177362, "pitch": 48, "duration": 119, "velocity": 120}, {"time": 177600, "pitch": 48, "duration": 120, "velocity": 120}, {"time": 177839, "pitch": 48, "duration": 120, "velocity": 120}, {"time": 178078, "pitch": 53, "duration": 119, "velocity": 120}, {"time": 178317, "pitch": 53, "duration": 119, "velocity": 120}, {"time": 178556, "pitch": 53, "duration": 122, "velocity": 120}, {"time": 178800, "pitch": 53, "duration": 122, "velocity": 120}, {"time": 179044, "pitch": 53, "duration": 119, "velocity": 120}, {"time": 179283, "pitch": 53, "duration": 119, "velocity": 120}, {"time": 179522, "pitch": 53, "duration": 119, "velocity": 120}, {"time": 179760, "pitch": 53, "duration": 120, "velocity": 120}, {"time": 179999, "pitch": 46, "duration": 120, "velocity": 120}, {"time": 180238, "pitch": 46, "duration": 119, "velocity": 120}, {"time": 180477, "pitch": 46, "duration": 122, "velocity": 120}, {"time": 180721, "pitch": 46, "duration": 122, "velocity": 120}, {"time": 180965, "pitch": 46, "duration": 119, "velocity": 120}, {"time": 181204, "pitch": 46, "duration": 119, "velocity": 120}, {"time": 181443, "pitch": 46, "duration": 119, "velocity": 120}, {"time": 181681, "pitch": 46, "duration": 120, "velocity": 120}, {"time": 181920, "pitch": 48, "duration": 120, "velocity": 120}, {"time": 182159, "pitch": 48, "duration": 119, "velocity": 120}, {"time": 182398, "pitch": 48, "duration": 119, "velocity": 120}, {"time": 182637, "pitch": 48, "duration": 119, "velocity": 120}, {"time": 182875, "pitch": 48, "duration": 122, "velocity": 120}, {"time": 183120, "pitch": 48, "duration": 122, "velocity": 120}, {"time": 183364, "pitch": 48, "duration": 119, "velocity": 120}, {"time": 183603, "pitch": 48, "duration": 119, "velocity": 120}, {"time": 183841, "pitch": 49, "duration": 120, "velocity": 120}, {"time": 184080, "pitch": 49, "duration": 120, "velocity": 120}, {"time": 184319, "pitch": 49, "duration": 119, "velocity": 120}, {"time": 184558, "pitch": 49, "duration": 119, "velocity": 120}, {"time": 184797, "pitch": 49, "duration": 122, "velocity": 120}, {"time": 185041, "pitch": 49, "duration": 122, "velocity": 120}, {"time": 185285, "pitch": 49, "duration": 119, "velocity": 120}, {"time": 185524, "pitch": 49, "duration": 119, "velocity": 120}, {"time": 185762, "pitch": 51, "duration": 120, "velocity": 120}, {"time": 186001, "pitch": 51, "duration": 120, "velocity": 120}, {"time": 186240, "pitch": 51, "duration": 119, "velocity": 120}, {"time": 186479, "pitch": 51, "duration": 119, "velocity": 120}, {"time": 186718, "pitch": 51, "duration": 119, "velocity": 120}, {"time": 186956, "pitch": 51, "duration": 120, "velocity": 120}, {"time": 187195, "pitch": 51, "duration": 122, "velocity": 120}, {"time": 187439, "pitch": 51, "duration": 123, "velocity": 120}, {"time": 187684, "pitch": 49, "duration": 119, "velocity": 120}, {"time": 187922, "pitch": 49, "duration": 120, "velocity": 120}, {"time": 188161, "pitch": 49, "duration": 120, "velocity": 120}, {"time": 188400, "pitch": 49, "duration": 119, "velocity": 120}, {"time": 188639, "pitch": 49, "duration": 119, "velocity": 120}, {"time": 188878, "pitch": 49, "duration": 119, "velocity": 120}, {"time": 189116, "pitch": 49, "duration": 122, "velocity": 120}, {"time": 189361, "pitch": 49, "duration": 122, "velocity": 120}, {"time": 189605, "pitch": 51, "duration": 119, "velocity": 120}, {"time": 189843, "pitch": 51, "duration": 120, "velocity": 120}, {"time": 190082, "pitch": 51, "duration": 120, "velocity": 120}, {"time": 190321, "pitch": 51, "duration": 120, "velocity": 120}, {"time": 190560, "pitch": 51, "duration": 119, "velocity": 120}, {"time": 190799, "pitch": 51, "duration": 119, "velocity": 120}, {"time": 191038, "pitch": 51, "duration": 119, "velocity": 120}, {"time": 191276, "pitch": 51, "duration": 120, "velocity": 120}, {"time": 191515, "pitch": 48, "duration": 122, "velocity": 120}, {"time": 191759, "pitch": 48, "duration": 122, "velocity": 120}, {"time": 192003, "pitch": 48, "duration": 120, "velocity": 120}, {"time": 192242, "pitch": 48, "duration": 120, "velocity": 120}, {"time": 192481, "pitch": 48, "duration": 119, "velocity": 120}, {"time": 192720, "pitch": 48, "duration": 119, "velocity": 120}, {"time": 192959, "pitch": 48, "duration": 119, "velocity": 120}, {"time": 193197, "pitch": 48, "duration": 120, "velocity": 120}, {"time": 193436, "pitch": 53, "duration": 122, "velocity": 120}, {"time": 193680, "pitch": 53, "duration": 123, "velocity": 120}, {"time": 193925, "pitch": 53, "duration": 119, "velocity": 120}, {"time": 194163, "pitch": 53, "duration": 120, "velocity": 120}, {"time": 194402, "pitch": 53, "duration": 120, "velocity": 120}, {"time": 194641, "pitch": 53, "duration": 119, "velocity": 120}, {"time": 194880, "pitch": 53, "duration": 119, "velocity": 120}, {"time": 195119, "pitch": 53, "duration": 119, "velocity": 120}, {"time": 195357, "pitch": 46, "duration": 120, "velocity": 120}, {"time": 195596, "pitch": 46, "duration": 120, "velocity": 120}, {"time": 195835, "pitch": 46, "duration": 122, "velocity": 120}, {"time": 196079, "pitch": 46, "duration": 122, "velocity": 120}, {"time": 196323, "pitch": 46, "duration": 120, "velocity": 120}, {"time": 196562, "pitch": 46, "duration": 119, "velocity": 120}, {"time": 196801, "pitch": 46, "duration": 119, "velocity": 120}, {"time": 197040, "pitch": 46, "duration": 119, "velocity": 120}, {"time": 197278, "pitch": 48, "duration": 120, "velocity": 120}, {"time": 197517, "pitch": 48, "duration": 120, "velocity": 120}, {"time": 197756, "pitch": 48, "duration": 122, "velocity": 120}, {"time": 198000, "pitch": 48, "duration": 122, "velocity": 120}, {"time": 198244, "pitch": 48, "duration": 120, "velocity": 120}, {"time": 198483, "pitch": 48, "duration": 120, "velocity": 120}, {"time": 198722, "pitch": 48, "duration": 119, "velocity": 120}, {"time": 198961, "pitch": 48, "duration": 119, "velocity": 120}, {"time": 199200, "pitch": 49, "duration": 119, "velocity": 120}, {"time": 199438, "pitch": 49, "duration": 120, "velocity": 120}, {"time": 199677, "pitch": 49, "duration": 120, "velocity": 120}, {"time": 199916, "pitch": 49, "duration": 119, "velocity": 120}, {"time": 200155, "pitch": 49, "duration": 122, "velocity": 120}, {"time": 200399, "pitch": 49, "duration": 122, "velocity": 120}, {"time": 200643, "pitch": 49, "duration": 119, "velocity": 120}, {"time": 200882, "pitch": 49, "duration": 119, "velocity": 120}, {"time": 201121, "pitch": 51, "duration": 119, "velocity": 120}, {"time": 201360, "pitch": 51, "duration": 119, "velocity": 120}, {"time": 201598, "pitch": 51, "duration": 120, "velocity": 120}, {"time": 201837, "pitch": 51, "duration": 120, "velocity": 120}, {"time": 202076, "pitch": 51, "duration": 122, "velocity": 120}, {"time": 202320, "pitch": 51, "duration": 122, "velocity": 120}, {"time": 202564, "pitch": 51, "duration": 120, "velocity": 120}, {"time": 202803, "pitch": 51, "duration": 119, "velocity": 120}, {"time": 203042, "pitch": 41, "duration": 119, "velocity": 120}, {"time": 203281, "pitch": 41, "duration": 119, "velocity": 120}, {"time": 203519, "pitch": 41, "duration": 120, "velocity": 120}, {"time": 203758, "pitch": 41, "duration": 120, "velocity": 120}, {"time": 203997, "pitch": 39, "duration": 122, "velocity": 120}, {"time": 204241, "pitch": 39, "duration": 122, "velocity": 120}, {"time": 204485, "pitch": 39, "duration": 120, "velocity": 120}, {"time": 204724, "pitch": 37, "duration": 120, "velocity": 120}, {"time": 204963, "pitch": 37, "duration": 119, "velocity": 120}, {"time": 205202, "pitch": 37, "duration": 119, "velocity": 120}, {"time": 205441, "pitch": 37, "duration": 119, "velocity": 120}, {"time": 205679, "pitch": 37, "duration": 120, "velocity": 120}, {"time": 205918, "pitch": 37, "duration": 120, "velocity": 120}, {"time": 206157, "pitch": 37, "duration": 119, "velocity": 120}, {"time": 206396, "pitch": 39, "duration": 122, "velocity": 120}, {"time": 206640, "pitch": 39, "duration": 122, "velocity": 120}, {"time": 206884, "pitch": 41, "duration": 119, "velocity": 120}, {"time": 207123, "pitch": 41, "duration": 119, "velocity": 120}, {"time": 207362, "pitch": 41, "duration": 119, "velocity": 120}, {"time": 207600, "pitch": 41, "duration": 120, "velocity": 120}, {"time": 207839, "pitch": 44, "duration": 120, "velocity": 120}, {"time": 208078, "pitch": 44, "duration": 119, "velocity": 120}, {"time": 208317, "pitch": 44, "duration": 122, "velocity": 120}, {"time": 208561, "pitch": 37, "duration": 122, "velocity": 120}, {"time": 208805, "pitch": 37, "duration": 120, "velocity": 120}, {"time": 209044, "pitch": 37, "duration": 119, "velocity": 120}, {"time": 209283, "pitch": 37, "duration": 119, "velocity": 120}, {"time": 209522, "pitch": 37, "duration": 119, "velocity": 120}, {"time": 209760, "pitch": 37, "duration": 120, "velocity": 120}, {"time": 209999, "pitch": 37, "duration": 120, "velocity": 120}, {"time": 210238, "pitch": 39, "duration": 119, "velocity": 120}, {"time": 210477, "pitch": 39, "duration": 119, "velocity": 120}, {"time": 210716, "pitch": 41, "duration": 122, "velocity": 120}, {"time": 210960, "pitch": 41, "duration": 122, "velocity": 120}, {"time": 211204, "pitch": 41, "duration": 119, "velocity": 120}, {"time": 211443, "pitch": 41, "duration": 119, "velocity": 120}, {"time": 211681, "pitch": 39, "duration": 120, "velocity": 120}, {"time": 211920, "pitch": 39, "duration": 120, "velocity": 120}, {"time": 212159, "pitch": 39, "duration": 120, "velocity": 120}, {"time": 212398, "pitch": 37, "duration": 119, "velocity": 120}, {"time": 212637, "pitch": 37, "duration": 122, "velocity": 120}, {"time": 212881, "pitch": 37, "duration": 122, "velocity": 120}, {"time": 213125, "pitch": 37, "duration": 119, "velocity": 120}, {"time": 213364, "pitch": 37, "duration": 119, "velocity": 120}, {"time": 213603, "pitch": 37, "duration": 119, "velocity": 120}, {"time": 213841, "pitch": 37, "duration": 120, "velocity": 120}, {"time": 214080, "pitch": 39, "duration": 120, "velocity": 120}, {"time": 214319, "pitch": 39, "duration": 119, "velocity": 120}, {"time": 214558, "pitch": 41, "duration": 119, "velocity": 120}, {"time": 214797, "pitch": 41, "duration": 119, "velocity": 120}, {"time": 215035, "pitch": 41, "duration": 122, "velocity": 120}, {"time": 215280, "pitch": 41, "duration": 122, "velocity": 120}, {"time": 215524, "pitch": 44, "duration": 119, "velocity": 120}, {"time": 215763, "pitch": 44, "duration": 119, "velocity": 120}, {"time": 216001, "pitch": 44, "duration": 120, "velocity": 120}, {"time": 216240, "pitch": 37, "duration": 120, "velocity": 120}, {"time": 216479, "pitch": 37, "duration": 119, "velocity": 120}, {"time": 216718, "pitch": 37, "duration": 119, "velocity": 120}, {"time": 216957, "pitch": 37, "duration": 122, "velocity": 120}, {"time": 217201, "pitch": 37, "duration": 122, "velocity": 120}, {"time": 217445, "pitch": 37, "duration": 119, "velocity": 120}, {"time": 217684, "pitch": 39, "duration": 119, "velocity": 120}, {"time": 217922, "pitch": 39, "duration": 120, "velocity": 120}, {"time": 218161, "pitch": 39, "duration": 120, "velocity": 120}, {"time": 218400, "pitch": 41, "duration": 119, "velocity": 120}, {"time": 218639, "pitch": 41, "duration": 119, "velocity": 120}, {"time": 218878, "pitch": 41, "duration": 119, "velocity": 120}, {"time": 219116, "pitch": 41, "duration": 120, "velocity": 120}, {"time": 219355, "pitch": 39, "duration": 122, "velocity": 120}, {"time": 219599, "pitch": 39, "duration": 123, "velocity": 120}, {"time": 219844, "pitch": 39, "duration": 119, "velocity": 120}, {"time": 220082, "pitch": 37, "duration": 120, "velocity": 120}, {"time": 220321, "pitch": 37, "duration": 120, "velocity": 120}, {"time": 220560, "pitch": 37, "duration": 119, "velocity": 120}, {"time": 220799, "pitch": 37, "duration": 119, "velocity": 120}, {"time": 221038, "pitch": 37, "duration": 119, "velocity": 120}, {"time": 221276, "pitch": 37, "duration": 122, "velocity": 120}, {"time": 221521, "pitch": 37, "duration": 122, "velocity": 120}, {"time": 221765, "pitch": 39, "duration": 119, "velocity": 120}, {"time": 222003, "pitch": 39, "duration": 120, "velocity": 120}, {"time": 222242, "pitch": 41, "duration": 120, "velocity": 120}, {"time": 222481, "pitch": 41, "duration": 120, "velocity": 120}, {"time": 222720, "pitch": 41, "duration": 119, "velocity": 120}, {"time": 222959, "pitch": 41, "duration": 119, "velocity": 120}, {"time": 223198, "pitch": 44, "duration": 119, "velocity": 120}, {"time": 223436, "pitch": 44, "duration": 120, "velocity": 120}, {"time": 223675, "pitch": 44, "duration": 122, "velocity": 120}, {"time": 223919, "pitch": 37, "duration": 122, "velocity": 120}, {"time": 224163, "pitch": 37, "duration": 120, "velocity": 120}, {"time": 224402, "pitch": 37, "duration": 120, "velocity": 120}, {"time": 224641, "pitch": 37, "duration": 119, "velocity": 120}, {"time": 224880, "pitch": 37, "duration": 119, "velocity": 120}, {"time": 225119, "pitch": 37, "duration": 119, "velocity": 120}, {"time": 225357, "pitch": 37, "duration": 120, "velocity": 120}, {"time": 225596, "pitch": 39, "duration": 122, "velocity": 120}, {"time": 225840, "pitch": 39, "duration": 123, "velocity": 120}, {"time": 226085, "pitch": 41, "duration": 119, "velocity": 120}, {"time": 226323, "pitch": 41, "duration": 120, "velocity": 120}, {"time": 226562, "pitch": 41, "duration": 120, "velocity": 120}, {"time": 226801, "pitch": 41, "duration": 119, "velocity": 120}, {"time": 227040, "pitch": 39, "duration": 119, "velocity": 120}, {"time": 227279, "pitch": 39, "duration": 119, "velocity": 120}, {"time": 227517, "pitch": 39, "duration": 120, "velocity": 120}, {"time": 227756, "pitch": 37, "duration": 120, "velocity": 120}, {"time": 227995, "pitch": 37, "duration": 122, "velocity": 120}, {"time": 228239, "pitch": 37, "duration": 122, "velocity": 120}, {"time": 228483, "pitch": 37, "duration": 120, "velocity": 120}, {"time": 228722, "pitch": 37, "duration": 119, "velocity": 120}, {"time": 228961, "pitch": 37, "duration": 119, "velocity": 120}, {"time": 229200, "pitch": 37, "duration": 119, "velocity": 120}, {"time": 229438, "pitch": 39, "duration": 120, "velocity": 120}, {"time": 229677, "pitch": 39, "duration": 120, "velocity": 120}, {"time": 229916, "pitch": 41, "duration": 122, "velocity": 120}, {"time": 230160, "pitch": 41, "duration": 122, "velocity": 120}, {"time": 230404, "pitch": 41, "duration": 120, "velocity": 120}, {"time": 230643, "pitch": 41, "duration": 120, "velocity": 120}, {"time": 230882, "pitch": 44, "duration": 119, "velocity": 120}, {"time": 231121, "pitch": 44, "duration": 119, "velocity": 120}, {"time": 231360, "pitch": 44, "duration": 119, "velocity": 120}, {"time": 231598, "pitch": 37, "duration": 120, "velocity": 120}, {"time": 231837, "pitch": 37, "duration": 120, "velocity": 120}, {"time": 232076, "pitch": 37, "duration": 119, "velocity": 120}, {"time": 232315, "pitch": 37, "duration": 119, "velocity": 120}, {"time": 232554, "pitch": 37, "duration": 119, "velocity": 120}, {"time": 232792, "pitch": 37, "duration": 120, "velocity": 120}, {"time": 233031, "pitch": 39, "duration": 120, "velocity": 120}, {"time": 233270, "pitch": 39, "duration": 119, "velocity": 120}, {"time": 233509, "pitch": 39, "duration": 119, "velocity": 120}, {"time": 3363, "pitch": 53, "duration": 276, "velocity": 100}, {"time": 4080, "pitch": 53, "duration": 133, "velocity": 100}, {"time": 4319, "pitch": 56, "duration": 231, "velocity": 100}, {"time": 4677, "pitch": 56, "duration": 237, "velocity": 100}, {"time": 5040, "pitch": 56, "duration": 167, "velocity": 100}, {"time": 5284, "pitch": 53, "duration": 230, "velocity": 100}, {"time": 6001, "pitch": 53, "duration": 125, "velocity": 100}, {"time": 6240, "pitch": 56, "duration": 246, "velocity": 100}, {"time": 6598, "pitch": 56, "duration": 229, "velocity": 100}, {"time": 6956, "pitch": 56, "duration": 185, "velocity": 100}, {"time": 7195, "pitch": 53, "duration": 269, "velocity": 100}, {"time": 7922, "pitch": 53, "duration": 145, "velocity": 100}, {"time": 8161, "pitch": 56, "duration": 244, "velocity": 100}, {"time": 8519, "pitch": 56, "duration": 223, "velocity": 100}, {"time": 8877, "pitch": 56, "duration": 185, "velocity": 100}, {"time": 9116, "pitch": 53, "duration": 242, "velocity": 100}, {"time": 9843, "pitch": 53, "duration": 135, "velocity": 100}, {"time": 10082, "pitch": 56, "duration": 215, "velocity": 100}, {"time": 10440, "pitch": 56, "duration": 232, "velocity": 100}, {"time": 10798, "pitch": 56, "duration": 180, "velocity": 100}, {"time": 11037, "pitch": 53, "duration": 276, "velocity": 100}, {"time": 11759, "pitch": 53, "duration": 136, "velocity": 100}, {"time": 12003, "pitch": 56, "duration": 232, "velocity": 100}, {"time": 12361, "pitch": 56, "duration": 235, "velocity": 100}, {"time": 12719, "pitch": 56, "duration": 164, "velocity": 100}, {"time": 12958, "pitch": 53, "duration": 230, "velocity": 100}, {"time": 13680, "pitch": 53, "duration": 128, "velocity": 100}, {"time": 13924, "pitch": 56, "duration": 247, "velocity": 100}, {"time": 14282, "pitch": 56, "duration": 229, "velocity": 100}, {"time": 14641, "pitch": 56, "duration": 185, "velocity": 100}, {"time": 14879, "pitch": 53, "duration": 264, "velocity": 100}, {"time": 15601, "pitch": 53, "duration": 149, "velocity": 100}, {"time": 15845, "pitch": 56, "duration": 244, "velocity": 100}, {"time": 16203, "pitch": 56, "duration": 223, "velocity": 100}, {"time": 16562, "pitch": 56, "duration": 185, "velocity": 100}, {"time": 34557, "pitch": 72, "duration": 244, "velocity": 120}, {"time": 35035, "pitch": 68, "duration": 300, "velocity": 120}, {"time": 35523, "pitch": 68, "duration": 171, "velocity": 120}, {"time": 35762, "pitch": 70, "duration": 429, "velocity": 120}, {"time": 36240, "pitch": 68, "duration": 228, "velocity": 120}, {"time": 37200, "pitch": 65, "duration": 246, "velocity": 120}, {"time": 37444, "pitch": 68, "duration": 191, "velocity": 120}, {"time": 37683, "pitch": 70, "duration": 141, "velocity": 120}, {"time": 37922, "pitch": 72, "duration": 153, "velocity": 120}, {"time": 38161, "pitch": 73, "duration": 173, "velocity": 120}, {"time": 38400, "pitch": 72, "duration": 204, "velocity": 120}, {"time": 38638, "pitch": 70, "duration": 184, "velocity": 120}, {"time": 38877, "pitch": 68, "duration": 274, "velocity": 120}, {"time": 39235, "pitch": 70, "duration": 267, "velocity": 120}, {"time": 39599, "pitch": 68, "duration": 750, "velocity": 120}, {"time": 42242, "pitch": 72, "duration": 241, "velocity": 120}, {"time": 42720, "pitch": 68, "duration": 275, "velocity": 120}, {"time": 43197, "pitch": 68, "duration": 153, "velocity": 120}, {"time": 43436, "pitch": 70, "duration": 456, "velocity": 120}, {"time": 43919, "pitch": 68, "duration": 271, "velocity": 120}, {"time": 44879, "pitch": 68, "duration": 185, "velocity": 120}, {"time": 45118, "pitch": 70, "duration": 156, "velocity": 120}, {"time": 45357, "pitch": 72, "duration": 416, "velocity": 120}, {"time": 45840, "pitch": 73, "duration": 176, "velocity": 120}, {"time": 46084, "pitch": 72, "duration": 176, "velocity": 120}, {"time": 46323, "pitch": 70, "duration": 203, "velocity": 120}, {"time": 46562, "pitch": 68, "duration": 250, "velocity": 120}, {"time": 46920, "pitch": 70, "duration": 258, "velocity": 120}, {"time": 47278, "pitch": 68, "duration": 834, "velocity": 120}, {"time": 49916, "pitch": 72, "duration": 249, "velocity": 120}, {"time": 50404, "pitch": 68, "duration": 293, "velocity": 120}, {"time": 50882, "pitch": 68, "duration": 171, "velocity": 120}, {"time": 51120, "pitch": 70, "duration": 429, "velocity": 120}, {"time": 51598, "pitch": 68, "duration": 228, "velocity": 120}, {"time": 52564, "pitch": 65, "duration": 204, "velocity": 120}, {"time": 52803, "pitch": 68, "duration": 192, "velocity": 120}, {"time": 53041, "pitch": 70, "duration": 171, "velocity": 120}, {"time": 53280, "pitch": 72, "duration": 154, "velocity": 120}, {"time": 53519, "pitch": 73, "duration": 173, "velocity": 120}, {"time": 53758, "pitch": 72, "duration": 204, "velocity": 120}, {"time": 53997, "pitch": 70, "duration": 183, "velocity": 120}, {"time": 54236, "pitch": 68, "duration": 279, "velocity": 120}, {"time": 54602, "pitch": 70, "duration": 266, "velocity": 120}, {"time": 54963, "pitch": 68, "duration": 744, "velocity": 120}, {"time": 57600, "pitch": 72, "duration": 244, "velocity": 120}, {"time": 58078, "pitch": 68, "duration": 293, "velocity": 120}, {"time": 58555, "pitch": 68, "duration": 175, "velocity": 120}, {"time": 58799, "pitch": 70, "duration": 435, "velocity": 120}, {"time": 59282, "pitch": 68, "duration": 228, "velocity": 120}, {"time": 60238, "pitch": 68, "duration": 185, "velocity": 120}, {"time": 60476, "pitch": 70, "duration": 160, "velocity": 120}, {"time": 60721, "pitch": 72, "duration": 417, "velocity": 120}, {"time": 61204, "pitch": 73, "duration": 172, "velocity": 120}, {"time": 61442, "pitch": 72, "duration": 176, "velocity": 120}, {"time": 61681, "pitch": 70, "duration": 203, "velocity": 120}, {"time": 61920, "pitch": 68, "duration": 251, "velocity": 120}, {"time": 62278, "pitch": 70, "duration": 258, "velocity": 120}, {"time": 62636, "pitch": 68, "duration": 834, "velocity": 120}, {"time": 65285, "pitch": 75, "duration": 153, "velocity": 120}, {"time": 65523, "pitch": 75, "duration": 357, "velocity": 120}, {"time": 66001, "pitch": 73, "duration": 320, "velocity": 120}, {"time": 66479, "pitch": 73, "duration": 387, "velocity": 120}, {"time": 66956, "pitch": 72, "duration": 390, "velocity": 120}, {"time": 67439, "pitch": 68, "duration": 417, "velocity": 120}, {"time": 67922, "pitch": 68, "duration": 205, "velocity": 120}, {"time": 68161, "pitch": 70, "duration": 536, "velocity": 120}, {"time": 69116, "pitch": 75, "duration": 177, "velocity": 120}, {"time": 69360, "pitch": 75, "duration": 425, "velocity": 120}, {"time": 69843, "pitch": 77, "duration": 381, "velocity": 120}, {"time": 70321, "pitch": 72, "duration": 336, "velocity": 120}, {"time": 70798, "pitch": 70, "duration": 363, "velocity": 120}, {"time": 71276, "pitch": 68, "duration": 1144, "velocity": 120}, {"time": 72958, "pitch": 75, "duration": 172, "velocity": 120}, {"time": 73197, "pitch": 75, "duration": 355, "velocity": 120}, {"time": 73680, "pitch": 73, "duration": 316, "velocity": 120}, {"time": 74163, "pitch": 73, "duration": 352, "velocity": 120}, {"time": 74641, "pitch": 72, "duration": 333, "velocity": 120}, {"time": 75118, "pitch": 68, "duration": 314, "velocity": 120}, {"time": 75596, "pitch": 68, "duration": 168, "velocity": 120}, {"time": 75835, "pitch": 70, "duration": 344, "velocity": 120}, {"time": 76323, "pitch": 72, "duration": 1967, "velocity": 120}, {"time": 78722, "pitch": 75, "duration": 476, "velocity": 120}, {"time": 79199, "pitch": 77, "duration": 497, "velocity": 120}, {"time": 79677, "pitch": 79, "duration": 486, "velocity": 120}, {"time": 80165, "pitch": 80, "duration": 1177, "velocity": 120}, {"time": 81359, "pitch": 75, "duration": 311, "velocity": 120}, {"time": 81837, "pitch": 75, "duration": 738, "velocity": 120}, {"time": 82564, "pitch": 73, "duration": 468, "velocity": 120}, {"time": 83042, "pitch": 72, "duration": 310, "velocity": 120}, {"time": 83280, "pitch": 73, "duration": 241, "velocity": 120}, {"time": 83519, "pitch": 75, "duration": 393, "velocity": 120}, {"time": 83997, "pitch": 75, "duration": 530, "velocity": 120}, {"time": 84485, "pitch": 77, "duration": 312, "velocity": 120}, {"time": 84724, "pitch": 72, "duration": 473, "velocity": 120}, {"time": 85201, "pitch": 70, "duration": 513, "velocity": 120}, {"time": 85679, "pitch": 68, "duration": 1211, "velocity": 120}, {"time": 87123, "pitch": 68, "duration": 186, "velocity": 120}, {"time": 87361, "pitch": 70, "duration": 319, "velocity": 120}, {"time": 87839, "pitch": 72, "duration": 396, "velocity": 120}, {"time": 88317, "pitch": 73, "duration": 180, "velocity": 120}, {"time": 88561, "pitch": 72, "duration": 688, "velocity": 120}, {"time": 89283, "pitch": 73, "duration": 197, "velocity": 120}, {"time": 89521, "pitch": 72, "duration": 1101, "velocity": 120}, {"time": 90959, "pitch": 77, "duration": 172, "velocity": 120}, {"time": 91204, "pitch": 77, "duration": 155, "velocity": 120}, {"time": 91442, "pitch": 77, "duration": 1217, "velocity": 120}, {"time": 92881, "pitch": 76, "duration": 198, "velocity": 120}, {"time": 93125, "pitch": 77, "duration": 199, "velocity": 120}, {"time": 93364, "pitch": 79, "duration": 701, "velocity": 120}, {"time": 94080, "pitch": 75, "duration": 448, "velocity": 120}, {"time": 94558, "pitch": 77, "duration": 480, "velocity": 120}, {"time": 95035, "pitch": 79, "duration": 471, "velocity": 120}, {"time": 95523, "pitch": 80, "duration": 1224, "velocity": 120}, {"time": 96717, "pitch": 75, "duration": 146, "velocity": 120}, {"time": 96956, "pitch": 75, "duration": 116, "velocity": 120}, {"time": 97200, "pitch": 75, "duration": 711, "velocity": 120}, {"time": 97922, "pitch": 73, "duration": 479, "velocity": 120}, {"time": 98400, "pitch": 72, "duration": 244, "velocity": 120}, {"time": 98639, "pitch": 73, "duration": 170, "velocity": 120}, {"time": 98877, "pitch": 75, "duration": 411, "velocity": 120}, {"time": 99355, "pitch": 75, "duration": 489, "velocity": 120}, {"time": 99843, "pitch": 77, "duration": 176, "velocity": 120}, {"time": 100082, "pitch": 72, "duration": 463, "velocity": 120}, {"time": 100560, "pitch": 70, "duration": 515, "velocity": 120}, {"time": 101037, "pitch": 68, "duration": 1408, "velocity": 120}, {"time": 102958, "pitch": 70, "duration": 127, "velocity": 120}, {"time": 103197, "pitch": 72, "duration": 499, "velocity": 120}, {"time": 103675, "pitch": 73, "duration": 261, "velocity": 120}, {"time": 103919, "pitch": 72, "duration": 776, "velocity": 120}, {"time": 104641, "pitch": 73, "duration": 246, "velocity": 120}, {"time": 104880, "pitch": 72, "duration": 1358, "velocity": 120}, {"time": 106323, "pitch": 77, "duration": 139, "velocity": 120}, {"time": 106562, "pitch": 77, "duration": 129, "velocity": 120}, {"time": 106801, "pitch": 77, "duration": 1491, "velocity": 120}, {"time": 108239, "pitch": 76, "duration": 225, "velocity": 120}, {"time": 108483, "pitch": 77, "duration": 235, "velocity": 120}, {"time": 108722, "pitch": 79, "duration": 2114, "velocity": 120}, {"time": 126718, "pitch": 72, "duration": 243, "velocity": 120}, {"time": 127195, "pitch": 68, "duration": 300, "velocity": 120}, {"time": 127683, "pitch": 68, "duration": 172, "velocity": 120}, {"time": 127922, "pitch": 70, "duration": 429, "velocity": 120}, {"time": 128400, "pitch": 68, "duration": 228, "velocity": 120}, {"time": 129360, "pitch": 65, "duration": 247, "velocity": 120}, {"time": 129605, "pitch": 68, "duration": 191, "velocity": 120}, {"time": 129843, "pitch": 70, "duration": 141, "velocity": 120}, {"time": 130082, "pitch": 72, "duration": 153, "velocity": 120}, {"time": 130321, "pitch": 73, "duration": 173, "velocity": 120}, {"time": 130560, "pitch": 72, "duration": 204, "velocity": 120}, {"time": 130799, "pitch": 70, "duration": 183, "velocity": 120}, {"time": 131037, "pitch": 68, "duration": 274, "velocity": 120}, {"time": 131396, "pitch": 70, "duration": 266, "velocity": 120}, {"time": 131759, "pitch": 68, "duration": 750, "velocity": 120}, {"time": 134402, "pitch": 72, "duration": 241, "velocity": 120}, {"time": 134880, "pitch": 68, "duration": 275, "velocity": 120}, {"time": 135357, "pitch": 68, "duration": 153, "velocity": 120}, {"time": 135596, "pitch": 70, "duration": 457, "velocity": 120}, {"time": 136079, "pitch": 68, "duration": 271, "velocity": 120}, {"time": 137040, "pitch": 68, "duration": 185, "velocity": 120}, {"time": 137278, "pitch": 70, "duration": 157, "velocity": 120}, {"time": 137517, "pitch": 72, "duration": 416, "velocity": 120}, {"time": 138000, "pitch": 73, "duration": 176, "velocity": 120}, {"time": 138244, "pitch": 72, "duration": 176, "velocity": 120}, {"time": 138483, "pitch": 70, "duration": 203, "velocity": 120}, {"time": 138722, "pitch": 68, "duration": 251, "velocity": 120}, {"time": 139080, "pitch": 70, "duration": 258, "velocity": 120}, {"time": 139438, "pitch": 68, "duration": 825, "velocity": 120}, {"time": 142076, "pitch": 72, "duration": 249, "velocity": 120}, {"time": 142564, "pitch": 68, "duration": 294, "velocity": 120}, {"time": 143042, "pitch": 68, "duration": 171, "velocity": 120}, {"time": 143280, "pitch": 70, "duration": 429, "velocity": 120}, {"time": 143758, "pitch": 68, "duration": 228, "velocity": 120}, {"time": 144724, "pitch": 65, "duration": 204, "velocity": 120}, {"time": 144963, "pitch": 68, "duration": 192, "velocity": 120}, {"time": 145202, "pitch": 70, "duration": 170, "velocity": 120}, {"time": 145440, "pitch": 72, "duration": 154, "velocity": 120}, {"time": 145679, "pitch": 73, "duration": 173, "velocity": 120}, {"time": 145918, "pitch": 72, "duration": 204, "velocity": 120}, {"time": 146157, "pitch": 70, "duration": 183, "velocity": 120}, {"time": 146396, "pitch": 68, "duration": 279, "velocity": 120}, {"time": 146762, "pitch": 70, "duration": 266, "velocity": 120}, {"time": 147123, "pitch": 68, "duration": 744, "velocity": 120}, {"time": 149760, "pitch": 72, "duration": 244, "velocity": 120}, {"time": 150238, "pitch": 68, "duration": 293, "velocity": 120}, {"time": 150715, "pitch": 68, "duration": 175, "velocity": 120}, {"time": 150960, "pitch": 70, "duration": 434, "velocity": 120}, {"time": 151443, "pitch": 68, "duration": 227, "velocity": 120}, {"time": 152398, "pitch": 68, "duration": 185, "velocity": 120}, {"time": 152637, "pitch": 70, "duration": 159, "velocity": 120}, {"time": 152881, "pitch": 72, "duration": 417, "velocity": 120}, {"time": 153364, "pitch": 73, "duration": 172, "velocity": 120}, {"time": 153602, "pitch": 72, "duration": 177, "velocity": 120}, {"time": 153841, "pitch": 70, "duration": 203, "velocity": 120}, {"time": 154080, "pitch": 68, "duration": 251, "velocity": 120}, {"time": 154438, "pitch": 70, "duration": 258, "velocity": 120}, {"time": 154797, "pitch": 68, "duration": 833, "velocity": 120}, {"time": 157445, "pitch": 75, "duration": 153, "velocity": 120}, {"time": 157684, "pitch": 75, "duration": 356, "velocity": 120}, {"time": 158161, "pitch": 73, "duration": 321, "velocity": 120}, {"time": 158639, "pitch": 73, "duration": 387, "velocity": 120}, {"time": 159116, "pitch": 72, "duration": 390, "velocity": 120}, {"time": 159599, "pitch": 68, "duration": 418, "velocity": 120}, {"time": 160082, "pitch": 68, "duration": 205, "velocity": 120}, {"time": 160321, "pitch": 70, "duration": 536, "velocity": 120}, {"time": 161276, "pitch": 75, "duration": 177, "velocity": 120}, {"time": 161520, "pitch": 75, "duration": 425, "velocity": 120}, {"time": 162003, "pitch": 77, "duration": 381, "velocity": 120}, {"time": 162481, "pitch": 72, "duration": 336, "velocity": 120}, {"time": 162959, "pitch": 70, "duration": 362, "velocity": 120}, {"time": 163436, "pitch": 68, "duration": 1144, "velocity": 120}, {"time": 165118, "pitch": 75, "duration": 172, "velocity": 120}, {"time": 165357, "pitch": 75, "duration": 355, "velocity": 120}, {"time": 165840, "pitch": 73, "duration": 316, "velocity": 120}, {"time": 166323, "pitch": 73, "duration": 352, "velocity": 120}, {"time": 166801, "pitch": 72, "duration": 333, "velocity": 120}, {"time": 167278, "pitch": 68, "duration": 314, "velocity": 120}, {"time": 167756, "pitch": 68, "duration": 168, "velocity": 120}, {"time": 167995, "pitch": 70, "duration": 344, "velocity": 120}, {"time": 168483, "pitch": 72, "duration": 1967, "velocity": 120}, {"time": 170882, "pitch": 75, "duration": 476, "velocity": 120}, {"time": 171359, "pitch": 77, "duration": 497, "velocity": 120}, {"time": 171837, "pitch": 79, "duration": 476, "velocity": 120}, {"time": 172315, "pitch": 80, "duration": 1187, "velocity": 120}, {"time": 173519, "pitch": 75, "duration": 311, "velocity": 120}, {"time": 173997, "pitch": 75, "duration": 738, "velocity": 120}, {"time": 174724, "pitch": 73, "duration": 468, "velocity": 120}, {"time": 175202, "pitch": 72, "duration": 310, "velocity": 120}, {"time": 175440, "pitch": 73, "duration": 241, "velocity": 120}, {"time": 175679, "pitch": 75, "duration": 393, "velocity": 120}, {"time": 176157, "pitch": 75, "duration": 530, "velocity": 120}, {"time": 176645, "pitch": 77, "duration": 313, "velocity": 120}, {"time": 176884, "pitch": 72, "duration": 474, "velocity": 120}, {"time": 177362, "pitch": 70, "duration": 512, "velocity": 120}, {"time": 177839, "pitch": 68, "duration": 1211, "velocity": 120}, {"time": 179283, "pitch": 68, "duration": 186, "velocity": 120}, {"time": 179522, "pitch": 70, "duration": 318, "velocity": 120}, {"time": 179999, "pitch": 72, "duration": 396, "velocity": 120}, {"time": 180477, "pitch": 73, "duration": 180, "velocity": 120}, {"time": 180721, "pitch": 72, "duration": 688, "velocity": 120}, {"time": 181443, "pitch": 73, "duration": 197, "velocity": 120}, {"time": 181681, "pitch": 72, "duration": 1101, "velocity": 120}, {"time": 183120, "pitch": 77, "duration": 172, "velocity": 120}, {"time": 183364, "pitch": 77, "duration": 155, "velocity": 120}, {"time": 183603, "pitch": 77, "duration": 1216, "velocity": 120}, {"time": 185041, "pitch": 76, "duration": 198, "velocity": 120}, {"time": 185285, "pitch": 77, "duration": 199, "velocity": 120}, {"time": 185524, "pitch": 79, "duration": 701, "velocity": 120}, {"time": 186240, "pitch": 75, "duration": 448, "velocity": 120}, {"time": 186718, "pitch": 77, "duration": 480, "velocity": 120}, {"time": 187195, "pitch": 79, "duration": 471, "velocity": 120}, {"time": 187684, "pitch": 80, "duration": 1223, "velocity": 120}, {"time": 188878, "pitch": 75, "duration": 145, "velocity": 120}, {"time": 189116, "pitch": 75, "duration": 116, "velocity": 120}, {"time": 189361, "pitch": 75, "duration": 710, "velocity": 120}, {"time": 190082, "pitch": 73, "duration": 479, "velocity": 120}, {"time": 190560, "pitch": 72, "duration": 244, "velocity": 120}, {"time": 190799, "pitch": 73, "duration": 170, "velocity": 120}, {"time": 191038, "pitch": 75, "duration": 410, "velocity": 120}, {"time": 191515, "pitch": 75, "duration": 489, "velocity": 120}, {"time": 192003, "pitch": 77, "duration": 177, "velocity": 120}, {"time": 192242, "pitch": 72, "duration": 463, "velocity": 120}, {"time": 192720, "pitch": 70, "duration": 515, "velocity": 120}, {"time": 193197, "pitch": 68, "duration": 1408, "velocity": 120}, {"time": 195119, "pitch": 70, "duration": 126, "velocity": 120}, {"time": 195357, "pitch": 72, "duration": 499, "velocity": 120}, {"time": 195835, "pitch": 73, "duration": 261, "velocity": 120}, {"time": 196079, "pitch": 72, "duration": 777, "velocity": 120}, {"time": 196801, "pitch": 73, "duration": 246, "velocity": 120}, {"time": 197040, "pitch": 72, "duration": 1359, "velocity": 120}, {"time": 198483, "pitch": 77, "duration": 139, "velocity": 120}, {"time": 198722, "pitch": 77, "duration": 129, "velocity": 120}, {"time": 198961, "pitch": 77, "duration": 1491, "velocity": 120}, {"time": 200399, "pitch": 76, "duration": 225, "velocity": 120}, {"time": 200643, "pitch": 77, "duration": 235, "velocity": 120}, {"time": 200882, "pitch": 79, "duration": 2114, "velocity": 120}, {"time": 3363, "pitch": 41, "duration": 153, "velocity": 100}, {"time": 3483, "pitch": 53, "duration": 110, "velocity": 100}, {"time": 3602, "pitch": 44, "duration": 109, "velocity": 100}, {"time": 3722, "pitch": 57, "duration": 71, "velocity": 100}, {"time": 3841, "pitch": 46, "duration": 67, "velocity": 100}, {"time": 3960, "pitch": 58, "duration": 119, "velocity": 100}, {"time": 4080, "pitch": 47, "duration": 106, "velocity": 100}, {"time": 4199, "pitch": 59, "duration": 111, "velocity": 100}, {"time": 4319, "pitch": 48, "duration": 113, "velocity": 100}, {"time": 4438, "pitch": 60, "duration": 120, "velocity": 100}, {"time": 4557, "pitch": 47, "duration": 117, "velocity": 100}, {"time": 4677, "pitch": 59, "duration": 111, "velocity": 100}, {"time": 4796, "pitch": 46, "duration": 136, "velocity": 100}, {"time": 4918, "pitch": 58, "duration": 157, "velocity": 100}, {"time": 5040, "pitch": 44, "duration": 127, "velocity": 100}, {"time": 5162, "pitch": 56, "duration": 139, "velocity": 100}, {"time": 5284, "pitch": 41, "duration": 134, "velocity": 100}, {"time": 5404, "pitch": 53, "duration": 116, "velocity": 100}, {"time": 5523, "pitch": 44, "duration": 129, "velocity": 100}, {"time": 5643, "pitch": 56, "duration": 118, "velocity": 100}, {"time": 5762, "pitch": 46, "duration": 123, "velocity": 100}, {"time": 5881, "pitch": 58, "duration": 124, "velocity": 100}, {"time": 6001, "pitch": 47, "duration": 120, "velocity": 100}, {"time": 6120, "pitch": 59, "duration": 124, "velocity": 100}, {"time": 6240, "pitch": 48, "duration": 118, "velocity": 100}, {"time": 6359, "pitch": 60, "duration": 126, "velocity": 100}, {"time": 6478, "pitch": 47, "duration": 111, "velocity": 100}, {"time": 6598, "pitch": 59, "duration": 118, "velocity": 100}, {"time": 6717, "pitch": 46, "duration": 131, "velocity": 100}, {"time": 6837, "pitch": 58, "duration": 110, "velocity": 100}, {"time": 6956, "pitch": 44, "duration": 116, "velocity": 100}, {"time": 7075, "pitch": 56, "duration": 119, "velocity": 100}, {"time": 7195, "pitch": 41, "duration": 121, "velocity": 100}, {"time": 7317, "pitch": 53, "duration": 131, "velocity": 100}, {"time": 7439, "pitch": 44, "duration": 128, "velocity": 100}, {"time": 7561, "pitch": 56, "duration": 131, "velocity": 100}, {"time": 7683, "pitch": 46, "duration": 117, "velocity": 100}, {"time": 7803, "pitch": 58, "duration": 118, "velocity": 100}, {"time": 7922, "pitch": 47, "duration": 118, "velocity": 100}, {"time": 8041, "pitch": 59, "duration": 132, "velocity": 100}, {"time": 8161, "pitch": 48, "duration": 113, "velocity": 100}, {"time": 8280, "pitch": 60, "duration": 131, "velocity": 100}, {"time": 8400, "pitch": 47, "duration": 120, "velocity": 100}, {"time": 8519, "pitch": 59, "duration": 121, "velocity": 100}, {"time": 8638, "pitch": 46, "duration": 129, "velocity": 100}, {"time": 8758, "pitch": 58, "duration": 143, "velocity": 100}, {"time": 8877, "pitch": 44, "duration": 114, "velocity": 100}, {"time": 8997, "pitch": 56, "duration": 121, "velocity": 100}, {"time": 9116, "pitch": 41, "duration": 123, "velocity": 100}, {"time": 9238, "pitch": 53, "duration": 131, "velocity": 100}, {"time": 9360, "pitch": 44, "duration": 122, "velocity": 100}, {"time": 9482, "pitch": 56, "duration": 119, "velocity": 100}, {"time": 9604, "pitch": 46, "duration": 119, "velocity": 100}, {"time": 9724, "pitch": 58, "duration": 118, "velocity": 100}, {"time": 9843, "pitch": 47, "duration": 133, "velocity": 100}, {"time": 9963, "pitch": 59, "duration": 123, "velocity": 100}, {"time": 10082, "pitch": 48, "duration": 121, "velocity": 100}, {"time": 10201, "pitch": 60, "duration": 132, "velocity": 100}, {"time": 10321, "pitch": 47, "duration": 115, "velocity": 100}, {"time": 10440, "pitch": 59, "duration": 121, "velocity": 100}, {"time": 10560, "pitch": 46, "duration": 126, "velocity": 100}, {"time": 10679, "pitch": 58, "duration": 141, "velocity": 100}, {"time": 10798, "pitch": 44, "duration": 111, "velocity": 100}, {"time": 10918, "pitch": 56, "duration": 121, "velocity": 100}, {"time": 11037, "pitch": 41, "duration": 152, "velocity": 100}, {"time": 11157, "pitch": 53, "duration": 110, "velocity": 100}, {"time": 11276, "pitch": 44, "duration": 108, "velocity": 100}, {"time": 11395, "pitch": 57, "duration": 72, "velocity": 100}, {"time": 11515, "pitch": 46, "duration": 68, "velocity": 100}, {"time": 11637, "pitch": 58, "duration": 121, "velocity": 100}, {"time": 11759, "pitch": 47, "duration": 109, "velocity": 100}, {"time": 11881, "pitch": 59, "duration": 113, "velocity": 100}, {"time": 12003, "pitch": 48, "duration": 113, "velocity": 100}, {"time": 12122, "pitch": 60, "duration": 121, "velocity": 100}, {"time": 12242, "pitch": 47, "duration": 116, "velocity": 100}, {"time": 12361, "pitch": 59, "duration": 112, "velocity": 100}, {"time": 12481, "pitch": 46, "duration": 133, "velocity": 100}, {"time": 12600, "pitch": 58, "duration": 153, "velocity": 100}, {"time": 12719, "pitch": 44, "duration": 124, "velocity": 100}, {"time": 12839, "pitch": 56, "duration": 136, "velocity": 100}, {"time": 12958, "pitch": 41, "duration": 134, "velocity": 100}, {"time": 13078, "pitch": 53, "duration": 116, "velocity": 100}, {"time": 13197, "pitch": 44, "duration": 128, "velocity": 100}, {"time": 13316, "pitch": 56, "duration": 119, "velocity": 100}, {"time": 13436, "pitch": 46, "duration": 126, "velocity": 100}, {"time": 13558, "pitch": 58, "duration": 126, "velocity": 100}, {"time": 13680, "pitch": 47, "duration": 123, "velocity": 100}, {"time": 13802, "pitch": 59, "duration": 126, "velocity": 100}, {"time": 13924, "pitch": 48, "duration": 119, "velocity": 100}, {"time": 14044, "pitch": 60, "duration": 126, "velocity": 100}, {"time": 14163, "pitch": 47, "duration": 110, "velocity": 100}, {"time": 14282, "pitch": 59, "duration": 119, "velocity": 100}, {"time": 14402, "pitch": 46, "duration": 130, "velocity": 100}, {"time": 14521, "pitch": 58, "duration": 111, "velocity": 100}, {"time": 14641, "pitch": 44, "duration": 115, "velocity": 100}, {"time": 14760, "pitch": 56, "duration": 118, "velocity": 100}, {"time": 14879, "pitch": 41, "duration": 119, "velocity": 100}, {"time": 14999, "pitch": 53, "duration": 128, "velocity": 100}, {"time": 15118, "pitch": 44, "duration": 126, "velocity": 100}, {"time": 15238, "pitch": 56, "duration": 128, "velocity": 100}, {"time": 15357, "pitch": 46, "duration": 119, "velocity": 100}, {"time": 15479, "pitch": 58, "duration": 121, "velocity": 100}, {"time": 15601, "pitch": 47, "duration": 121, "velocity": 100}, {"time": 15723, "pitch": 59, "duration": 134, "velocity": 100}, {"time": 15845, "pitch": 48, "duration": 114, "velocity": 100}, {"time": 15965, "pitch": 60, "duration": 130, "velocity": 100}, {"time": 16084, "pitch": 47, "duration": 120, "velocity": 100}, {"time": 16203, "pitch": 59, "duration": 122, "velocity": 100}, {"time": 16323, "pitch": 46, "duration": 128, "velocity": 100}, {"time": 16442, "pitch": 58, "duration": 144, "velocity": 100}, {"time": 16562, "pitch": 44, "duration": 113, "velocity": 100}, {"time": 16681, "pitch": 56, "duration": 121, "velocity": 100}, {"time": 16800, "pitch": 53, "duration": 239, "velocity": 100}, {"time": 16800, "pitch": 65, "duration": 239, "velocity": 100}, {"time": 17278, "pitch": 53, "duration": 257, "velocity": 100}, {"time": 17278, "pitch": 65, "duration": 257, "velocity": 100}, {"time": 17756, "pitch": 53, "duration": 126, "velocity": 100}, {"time": 17756, "pitch": 65, "duration": 153, "velocity": 100}, {"time": 18000, "pitch": 53, "duration": 133, "velocity": 100}, {"time": 18000, "pitch": 65, "duration": 133, "velocity": 100}, {"time": 18244, "pitch": 53, "duration": 133, "velocity": 100}, {"time": 18244, "pitch": 65, "duration": 153, "velocity": 100}, {"time": 18483, "pitch": 53, "duration": 143, "velocity": 100}, {"time": 18483, "pitch": 65, "duration": 145, "velocity": 100}, {"time": 11037, "pitch": 29, "duration": 120, "velocity": 100}, {"time": 11157, "pitch": 41, "duration": 119, "velocity": 100}, {"time": 11276, "pitch": 32, "duration": 119, "velocity": 100}, {"time": 11395, "pitch": 45, "duration": 120, "velocity": 100}, {"time": 11515, "pitch": 34, "duration": 122, "velocity": 100}, {"time": 11637, "pitch": 46, "duration": 122, "velocity": 100}, {"time": 11759, "pitch": 35, "duration": 122, "velocity": 100}, {"time": 11881, "pitch": 47, "duration": 122, "velocity": 100}, {"time": 12003, "pitch": 36, "duration": 119, "velocity": 100}, {"time": 12122, "pitch": 48, "duration": 120, "velocity": 100}, {"time": 12242, "pitch": 35, "duration": 119, "velocity": 100}, {"time": 12361, "pitch": 47, "duration": 120, "velocity": 100}, {"time": 12481, "pitch": 34, "duration": 119, "velocity": 100}, {"time": 12600, "pitch": 46, "duration": 119, "velocity": 100}, {"time": 12719, "pitch": 32, "duration": 120, "velocity": 100}, {"time": 12839, "pitch": 44, "duration": 119, "velocity": 100}, {"time": 12958, "pitch": 29, "duration": 120, "velocity": 100}, {"time": 13078, "pitch": 41, "duration": 119, "velocity": 100}, {"time": 13197, "pitch": 32, "duration": 119, "velocity": 100}, {"time": 13316, "pitch": 44, "duration": 120, "velocity": 100}, {"time": 13436, "pitch": 34, "duration": 122, "velocity": 100}, {"time": 13558, "pitch": 46, "duration": 122, "velocity": 100}, {"time": 13680, "pitch": 35, "duration": 122, "velocity": 100}, {"time": 13802, "pitch": 47, "duration": 122, "velocity": 100}, {"time": 13924, "pitch": 36, "duration": 120, "velocity": 100}, {"time": 14044, "pitch": 48, "duration": 119, "velocity": 100}, {"time": 14163, "pitch": 35, "duration": 119, "velocity": 100}, {"time": 14282, "pitch": 47, "duration": 120, "velocity": 100}, {"time": 14402, "pitch": 34, "duration": 119, "velocity": 100}, {"time": 14521, "pitch": 46, "duration": 120, "velocity": 100}, {"time": 14641, "pitch": 32, "duration": 119, "velocity": 100}, {"time": 14760, "pitch": 44, "duration": 119, "velocity": 100}, {"time": 14879, "pitch": 29, "duration": 120, "velocity": 100}, {"time": 14999, "pitch": 41, "duration": 119, "velocity": 100}, {"time": 15118, "pitch": 32, "duration": 120, "velocity": 100}, {"time": 15238, "pitch": 44, "duration": 119, "velocity": 100}, {"time": 15357, "pitch": 34, "duration": 122, "velocity": 100}, {"time": 15479, "pitch": 46, "duration": 122, "velocity": 100}, {"time": 15601, "pitch": 35, "duration": 122, "velocity": 100}, {"time": 15723, "pitch": 47, "duration": 122, "velocity": 100}, {"time": 15845, "pitch": 36, "duration": 120, "velocity": 100}, {"time": 15965, "pitch": 48, "duration": 119, "velocity": 100}, {"time": 16084, "pitch": 35, "duration": 119, "velocity": 100}, {"time": 16203, "pitch": 47, "duration": 120, "velocity": 100}, {"time": 16323, "pitch": 34, "duration": 119, "velocity": 100}, {"time": 16442, "pitch": 46, "duration": 120, "velocity": 100}, {"time": 16562, "pitch": 32, "duration": 119, "velocity": 100}, {"time": 16681, "pitch": 44, "duration": 119, "velocity": 100}, {"time": 16800, "pitch": 41, "duration": 239, "velocity": 98}, {"time": 17278, "pitch": 41, "duration": 257, "velocity": 104}, {"time": 17756, "pitch": 41, "duration": 126, "velocity": 96}, {"time": 18000, "pitch": 41, "duration": 133, "velocity": 96}, {"time": 18244, "pitch": 41, "duration": 133, "velocity": 92}, {"time": 18483, "pitch": 41, "duration": 143, "velocity": 98}, {"time": 49438, "pitch": 87, "duration": 119, "velocity": 100}, {"time": 49557, "pitch": 82, "duration": 120, "velocity": 100}, {"time": 49677, "pitch": 80, "duration": 119, "velocity": 100}, {"time": 49796, "pitch": 75, "duration": 120, "velocity": 100}, {"time": 49916, "pitch": 70, "duration": 122, "velocity": 100}, {"time": 50038, "pitch": 68, "duration": 122, "velocity": 100}, {"time": 50160, "pitch": 63, "duration": 122, "velocity": 100}, {"time": 50282, "pitch": 58, "duration": 122, "velocity": 100}, {"time": 50404, "pitch": 56, "duration": 119, "velocity": 100}, {"time": 50523, "pitch": 58, "duration": 120, "velocity": 100}, {"time": 50643, "pitch": 63, "duration": 119, "velocity": 100}, {"time": 50762, "pitch": 68, "duration": 120, "velocity": 100}, {"time": 50882, "pitch": 70, "duration": 119, "velocity": 100}, {"time": 51001, "pitch": 75, "duration": 119, "velocity": 100}, {"time": 51120, "pitch": 80, "duration": 120, "velocity": 100}, {"time": 51240, "pitch": 82, "duration": 119, "velocity": 100}, {"time": 51359, "pitch": 87, "duration": 120, "velocity": 100}, {"time": 51479, "pitch": 82, "duration": 119, "velocity": 100}, {"time": 51598, "pitch": 80, "duration": 119, "velocity": 100}, {"time": 51717, "pitch": 75, "duration": 120, "velocity": 100}, {"time": 51837, "pitch": 70, "duration": 122, "velocity": 100}, {"time": 51959, "pitch": 68, "duration": 122, "velocity": 100}, {"time": 52081, "pitch": 63, "duration": 122, "velocity": 100}, {"time": 52203, "pitch": 58, "duration": 122, "velocity": 100}, {"time": 52325, "pitch": 56, "duration": 119, "velocity": 100}, {"time": 52444, "pitch": 58, "duration": 120, "velocity": 100}, {"time": 52564, "pitch": 63, "duration": 119, "velocity": 100}, {"time": 52683, "pitch": 68, "duration": 120, "velocity": 100}, {"time": 52803, "pitch": 70, "duration": 119, "velocity": 100}, {"time": 52922, "pitch": 75, "duration": 119, "velocity": 100}, {"time": 53041, "pitch": 80, "duration": 120, "velocity": 100}, {"time": 53161, "pitch": 82, "duration": 119, "velocity": 100}, {"time": 53280, "pitch": 87, "duration": 120, "velocity": 100}, {"time": 53400, "pitch": 82, "duration": 119, "velocity": 100}, {"time": 53519, "pitch": 80, "duration": 120, "velocity": 100}, {"time": 53639, "pitch": 75, "duration": 119, "velocity": 100}, {"time": 53758, "pitch": 70, "duration": 119, "velocity": 100}, {"time": 53877, "pitch": 68, "duration": 120, "velocity": 100}, {"time": 53997, "pitch": 63, "duration": 119, "velocity": 100}, {"time": 54116, "pitch": 58, "duration": 120, "velocity": 100}, {"time": 54236, "pitch": 56, "duration": 122, "velocity": 100}, {"time": 54358, "pitch": 58, "duration": 122, "velocity": 100}, {"time": 54480, "pitch": 63, "duration": 122, "velocity": 100}, {"time": 54602, "pitch": 68, "duration": 122, "velocity": 100}, {"time": 54724, "pitch": 70, "duration": 119, "velocity": 100}, {"time": 54843, "pitch": 75, "duration": 120, "velocity": 100}, {"time": 54963, "pitch": 80, "duration": 119, "velocity": 100}, {"time": 55082, "pitch": 82, "duration": 119, "velocity": 100}, {"time": 55201, "pitch": 87, "duration": 120, "velocity": 100}, {"time": 55321, "pitch": 82, "duration": 119, "velocity": 100}, {"time": 55440, "pitch": 80, "duration": 120, "velocity": 100}, {"time": 55560, "pitch": 75, "duration": 119, "velocity": 100}, {"time": 55679, "pitch": 70, "duration": 119, "velocity": 100}, {"time": 55798, "pitch": 68, "duration": 120, "velocity": 100}, {"time": 55918, "pitch": 63, "duration": 119, "velocity": 100}, {"time": 56037, "pitch": 58, "duration": 120, "velocity": 100}, {"time": 56157, "pitch": 56, "duration": 122, "velocity": 100}, {"time": 56279, "pitch": 58, "duration": 122, "velocity": 100}, {"time": 56401, "pitch": 63, "duration": 122, "velocity": 100}, {"time": 56523, "pitch": 68, "duration": 122, "velocity": 100}, {"time": 56645, "pitch": 70, "duration": 119, "velocity": 100}, {"time": 56764, "pitch": 75, "duration": 120, "velocity": 100}, {"time": 56884, "pitch": 80, "duration": 119, "velocity": 100}, {"time": 57003, "pitch": 82, "duration": 120, "velocity": 100}, {"time": 57123, "pitch": 87, "duration": 119, "velocity": 100}, {"time": 57242, "pitch": 82, "duration": 119, "velocity": 100}, {"time": 57361, "pitch": 80, "duration": 120, "velocity": 100}, {"time": 57481, "pitch": 75, "duration": 119, "velocity": 100}, {"time": 57600, "pitch": 70, "duration": 120, "velocity": 100}, {"time": 57720, "pitch": 68, "duration": 119, "velocity": 100}, {"time": 57839, "pitch": 63, "duration": 119, "velocity": 100}, {"time": 57958, "pitch": 58, "duration": 120, "velocity": 100}, {"time": 58078, "pitch": 56, "duration": 119, "velocity": 100}, {"time": 58197, "pitch": 58, "duration": 120, "velocity": 100}, {"time": 58317, "pitch": 63, "duration": 119, "velocity": 100}, {"time": 58436, "pitch": 68, "duration": 119, "velocity": 100}, {"time": 58555, "pitch": 70, "duration": 122, "velocity": 100}, {"time": 58677, "pitch": 75, "duration": 122, "velocity": 100}, {"time": 58799, "pitch": 80, "duration": 123, "velocity": 100}, {"time": 58922, "pitch": 82, "duration": 122, "velocity": 100}, {"time": 59044, "pitch": 87, "duration": 119, "velocity": 100}, {"time": 59163, "pitch": 82, "duration": 119, "velocity": 100}, {"time": 59282, "pitch": 80, "duration": 120, "velocity": 100}, {"time": 59402, "pitch": 75, "duration": 119, "velocity": 100}, {"time": 59521, "pitch": 70, "duration": 120, "velocity": 100}, {"time": 59641, "pitch": 68, "duration": 119, "velocity": 100}, {"time": 59760, "pitch": 63, "duration": 119, "velocity": 100}, {"time": 59879, "pitch": 58, "duration": 120, "velocity": 100}, {"time": 59999, "pitch": 56, "duration": 119, "velocity": 100}, {"time": 60118, "pitch": 58, "duration": 120, "velocity": 100}, {"time": 60238, "pitch": 63, "duration": 119, "velocity": 100}, {"time": 60357, "pitch": 68, "duration": 119, "velocity": 100}, {"time": 60476, "pitch": 70, "duration": 123, "velocity": 100}, {"time": 60599, "pitch": 75, "duration": 122, "velocity": 100}, {"time": 60721, "pitch": 80, "duration": 122, "velocity": 100}, {"time": 60843, "pitch": 82, "duration": 122, "velocity": 100}, {"time": 60965, "pitch": 87, "duration": 119, "velocity": 100}, {"time": 61084, "pitch": 82, "duration": 120, "velocity": 100}, {"time": 61204, "pitch": 80, "duration": 119, "velocity": 100}, {"time": 61323, "pitch": 75, "duration": 119, "velocity": 100}, {"time": 61442, "pitch": 70, "duration": 120, "velocity": 100}, {"time": 61562, "pitch": 68, "duration": 119, "velocity": 100}, {"time": 61681, "pitch": 63, "duration": 120, "velocity": 100}, {"time": 61801, "pitch": 58, "duration": 119, "velocity": 100}, {"time": 61920, "pitch": 56, "duration": 119, "velocity": 100}, {"time": 62039, "pitch": 58, "duration": 120, "velocity": 100}, {"time": 62159, "pitch": 63, "duration": 119, "velocity": 100}, {"time": 62278, "pitch": 68, "duration": 120, "velocity": 100}, {"time": 62398, "pitch": 70, "duration": 119, "velocity": 100}, {"time": 62517, "pitch": 75, "duration": 119, "velocity": 100}, {"time": 62636, "pitch": 80, "duration": 120, "velocity": 100}, {"time": 62756, "pitch": 82, "duration": 119, "velocity": 100}, {"time": 62875, "pitch": 87, "duration": 122, "velocity": 100}, {"time": 62997, "pitch": 82, "duration": 122, "velocity": 100}, {"time": 63119, "pitch": 80, "duration": 122, "velocity": 100}, {"time": 63241, "pitch": 75, "duration": 122, "velocity": 100}, {"time": 63363, "pitch": 70, "duration": 120, "velocity": 100}, {"time": 63483, "pitch": 68, "duration": 119, "velocity": 100}, {"time": 63602, "pitch": 63, "duration": 120, "velocity": 100}, {"time": 63722, "pitch": 58, "duration": 119, "velocity": 100}, {"time": 63841, "pitch": 56, "duration": 119, "velocity": 100}, {"time": 63960, "pitch": 58, "duration": 120, "velocity": 100}, {"time": 64080, "pitch": 63, "duration": 119, "velocity": 100}, {"time": 64199, "pitch": 68, "duration": 120, "velocity": 100}, {"time": 64319, "pitch": 70, "duration": 119, "velocity": 100}, {"time": 64438, "pitch": 75, "duration": 120, "velocity": 100}, {"time": 64558, "pitch": 80, "duration": 119, "velocity": 100}, {"time": 64677, "pitch": 82, "duration": 119, "velocity": 100}, {"time": 141598, "pitch": 87, "duration": 120, "velocity": 100}, {"time": 141718, "pitch": 82, "duration": 119, "velocity": 100}, {"time": 141837, "pitch": 80, "duration": 119, "velocity": 100}, {"time": 141956, "pitch": 75, "duration": 120, "velocity": 100}, {"time": 142076, "pitch": 70, "duration": 122, "velocity": 100}, {"time": 142198, "pitch": 68, "duration": 122, "velocity": 100}, {"time": 142320, "pitch": 63, "duration": 122, "velocity": 100}, {"time": 142442, "pitch": 58, "duration": 122, "velocity": 100}, {"time": 142564, "pitch": 56, "duration": 119, "velocity": 100}, {"time": 142683, "pitch": 58, "duration": 120, "velocity": 100}, {"time": 142803, "pitch": 63, "duration": 119, "velocity": 100}, {"time": 142922, "pitch": 68, "duration": 120, "velocity": 100}, {"time": 143042, "pitch": 70, "duration": 119, "velocity": 100}, {"time": 143161, "pitch": 75, "duration": 119, "velocity": 100}, {"time": 143280, "pitch": 80, "duration": 120, "velocity": 100}, {"time": 143400, "pitch": 82, "duration": 119, "velocity": 100}, {"time": 143519, "pitch": 87, "duration": 120, "velocity": 100}, {"time": 143639, "pitch": 82, "duration": 119, "velocity": 100}, {"time": 143758, "pitch": 80, "duration": 120, "velocity": 100}, {"time": 143878, "pitch": 75, "duration": 119, "velocity": 100}, {"time": 143997, "pitch": 70, "duration": 122, "velocity": 100}, {"time": 144119, "pitch": 68, "duration": 122, "velocity": 100}, {"time": 144241, "pitch": 63, "duration": 122, "velocity": 100}, {"time": 144363, "pitch": 58, "duration": 122, "velocity": 100}, {"time": 144485, "pitch": 56, "duration": 120, "velocity": 100}, {"time": 144605, "pitch": 58, "duration": 119, "velocity": 100}, {"time": 144724, "pitch": 63, "duration": 119, "velocity": 100}, {"time": 144843, "pitch": 68, "duration": 120, "velocity": 100}, {"time": 144963, "pitch": 70, "duration": 119, "velocity": 100}, {"time": 145082, "pitch": 75, "duration": 120, "velocity": 100}, {"time": 145202, "pitch": 80, "duration": 119, "velocity": 100}, {"time": 145321, "pitch": 82, "duration": 119, "velocity": 100}, {"time": 145440, "pitch": 87, "duration": 120, "velocity": 100}, {"time": 145560, "pitch": 82, "duration": 119, "velocity": 100}, {"time": 145679, "pitch": 80, "duration": 120, "velocity": 100}, {"time": 145799, "pitch": 75, "duration": 119, "velocity": 100}, {"time": 145918, "pitch": 70, "duration": 119, "velocity": 100}, {"time": 146037, "pitch": 68, "duration": 120, "velocity": 100}, {"time": 146157, "pitch": 63, "duration": 119, "velocity": 100}, {"time": 146276, "pitch": 58, "duration": 120, "velocity": 100}, {"time": 146396, "pitch": 56, "duration": 122, "velocity": 100}, {"time": 146518, "pitch": 58, "duration": 122, "velocity": 100}, {"time": 146640, "pitch": 63, "duration": 122, "velocity": 100}, {"time": 146762, "pitch": 68, "duration": 122, "velocity": 100}, {"time": 146884, "pitch": 70, "duration": 119, "velocity": 100}, {"time": 147003, "pitch": 75, "duration": 120, "velocity": 100}, {"time": 147123, "pitch": 80, "duration": 119, "velocity": 100}, {"time": 147242, "pitch": 82, "duration": 120, "velocity": 100}, {"time": 147362, "pitch": 87, "duration": 119, "velocity": 100}, {"time": 147481, "pitch": 82, "duration": 119, "velocity": 100}, {"time": 147600, "pitch": 80, "duration": 120, "velocity": 100}, {"time": 147720, "pitch": 75, "duration": 119, "velocity": 100}, {"time": 147839, "pitch": 70, "duration": 120, "velocity": 100}, {"time": 147959, "pitch": 68, "duration": 119, "velocity": 100}, {"time": 148078, "pitch": 63, "duration": 119, "velocity": 100}, {"time": 148197, "pitch": 58, "duration": 120, "velocity": 100}, {"time": 148317, "pitch": 56, "duration": 122, "velocity": 100}, {"time": 148439, "pitch": 58, "duration": 122, "velocity": 100}, {"time": 148561, "pitch": 63, "duration": 122, "velocity": 100}, {"time": 148683, "pitch": 68, "duration": 122, "velocity": 100}, {"time": 148805, "pitch": 70, "duration": 119, "velocity": 100}, {"time": 148924, "pitch": 75, "duration": 120, "velocity": 100}, {"time": 149044, "pitch": 80, "duration": 119, "velocity": 100}, {"time": 149163, "pitch": 82, "duration": 120, "velocity": 100}, {"time": 149283, "pitch": 87, "duration": 119, "velocity": 100}, {"time": 149402, "pitch": 82, "duration": 119, "velocity": 100}, {"time": 149521, "pitch": 80, "duration": 120, "velocity": 100}, {"time": 149641, "pitch": 75, "duration": 119, "velocity": 100}, {"time": 149760, "pitch": 70, "duration": 120, "velocity": 100}, {"time": 149880, "pitch": 68, "duration": 119, "velocity": 100}, {"time": 149999, "pitch": 63, "duration": 119, "velocity": 100}, {"time": 150118, "pitch": 58, "duration": 120, "velocity": 100}, {"time": 150238, "pitch": 56, "duration": 119, "velocity": 100}, {"time": 150357, "pitch": 58, "duration": 120, "velocity": 100}, {"time": 150477, "pitch": 63, "duration": 119, "velocity": 100}, {"time": 150596, "pitch": 68, "duration": 119, "velocity": 100}, {"time": 150715, "pitch": 70, "duration": 122, "velocity": 100}, {"time": 150837, "pitch": 75, "duration": 123, "velocity": 100}, {"time": 150960, "pitch": 80, "duration": 122, "velocity": 100}, {"time": 151082, "pitch": 82, "duration": 122, "velocity": 100}, {"time": 151204, "pitch": 87, "duration": 119, "velocity": 100}, {"time": 151323, "pitch": 82, "duration": 120, "velocity": 100}, {"time": 151443, "pitch": 80, "duration": 119, "velocity": 100}, {"time": 151562, "pitch": 75, "duration": 119, "velocity": 100}, {"time": 151681, "pitch": 70, "duration": 120, "velocity": 100}, {"time": 151801, "pitch": 68, "duration": 119, "velocity": 100}, {"time": 151920, "pitch": 63, "duration": 120, "velocity": 100}, {"time": 152040, "pitch": 58, "duration": 119, "velocity": 100}, {"time": 152159, "pitch": 56, "duration": 119, "velocity": 100}, {"time": 152278, "pitch": 58, "duration": 120, "velocity": 100}, {"time": 152398, "pitch": 63, "duration": 119, "velocity": 100}, {"time": 152517, "pitch": 68, "duration": 120, "velocity": 100}, {"time": 152637, "pitch": 70, "duration": 122, "velocity": 100}, {"time": 152759, "pitch": 75, "duration": 122, "velocity": 100}, {"time": 152881, "pitch": 80, "duration": 122, "velocity": 100}, {"time": 153003, "pitch": 82, "duration": 122, "velocity": 100}, {"time": 153125, "pitch": 87, "duration": 119, "velocity": 100}, {"time": 153244, "pitch": 82, "duration": 120, "velocity": 100}, {"time": 153364, "pitch": 80, "duration": 119, "velocity": 100}, {"time": 153483, "pitch": 75, "duration": 119, "velocity": 100}, {"time": 153602, "pitch": 70, "duration": 120, "velocity": 100}, {"time": 153722, "pitch": 68, "duration": 119, "velocity": 100}, {"time": 153841, "pitch": 63, "duration": 120, "velocity": 100}, {"time": 153961, "pitch": 58, "duration": 119, "velocity": 100}, {"time": 154080, "pitch": 56, "duration": 119, "velocity": 100}, {"time": 154199, "pitch": 58, "duration": 120, "velocity": 100}, {"time": 154319, "pitch": 63, "duration": 119, "velocity": 100}, {"time": 154438, "pitch": 68, "duration": 120, "velocity": 100}, {"time": 154558, "pitch": 70, "duration": 119, "velocity": 100}, {"time": 154677, "pitch": 75, "duration": 120, "velocity": 100}, {"time": 154797, "pitch": 80, "duration": 119, "velocity": 100}, {"time": 154916, "pitch": 82, "duration": 119, "velocity": 100}, {"time": 155035, "pitch": 87, "duration": 122, "velocity": 100}, {"time": 155157, "pitch": 82, "duration": 122, "velocity": 100}, {"time": 155279, "pitch": 80, "duration": 123, "velocity": 100}, {"time": 155402, "pitch": 75, "duration": 122, "velocity": 100}, {"time": 155524, "pitch": 70, "duration": 119, "velocity": 100}, {"time": 155643, "pitch": 68, "duration": 119, "velocity": 100}, {"time": 155762, "pitch": 63, "duration": 120, "velocity": 100}, {"time": 155882, "pitch": 58, "duration": 119, "velocity": 100}, {"time": 156001, "pitch": 56, "duration": 120, "velocity": 100}, {"time": 156121, "pitch": 58, "duration": 119, "velocity": 100}, {"time": 156240, "pitch": 63, "duration": 119, "velocity": 100}, {"time": 156359, "pitch": 68, "duration": 120, "velocity": 100}, {"time": 156479, "pitch": 70, "duration": 119, "velocity": 100}, {"time": 156598, "pitch": 75, "duration": 120, "velocity": 100}, {"time": 156718, "pitch": 80, "duration": 119, "velocity": 100}, {"time": 156837, "pitch": 82, "duration": 119, "velocity": 100}, {"time": 16800, "pitch": 65, "duration": 240, "velocity": 120}, {"time": 16800, "pitch": 77, "duration": 255, "velocity": 120}, {"time": 17278, "pitch": 65, "duration": 252, "velocity": 120}, {"time": 17278, "pitch": 77, "duration": 289, "velocity": 120}, {"time": 17756, "pitch": 65, "duration": 161, "velocity": 120}, {"time": 17756, "pitch": 77, "duration": 166, "velocity": 120}, {"time": 18000, "pitch": 65, "duration": 132, "velocity": 120}, {"time": 18000, "pitch": 77, "duration": 145, "velocity": 120}, {"time": 18244, "pitch": 65, "duration": 138, "velocity": 120}, {"time": 18244, "pitch": 77, "duration": 152, "velocity": 120}, {"time": 18483, "pitch": 65, "duration": 171, "velocity": 120}, {"time": 18483, "pitch": 77, "duration": 189, "velocity": 120}, {"time": 33363, "pitch": 65, "duration": 148, "velocity": 120}, {"time": 33363, "pitch": 77, "duration": 171, "velocity": 120}, {"time": 33602, "pitch": 63, "duration": 197, "velocity": 120}, {"time": 33602, "pitch": 75, "duration": 221, "velocity": 120}, {"time": 33841, "pitch": 65, "duration": 168, "velocity": 120}, {"time": 33841, "pitch": 77, "duration": 197, "velocity": 120}, {"time": 63119, "pitch": 63, "duration": 133, "velocity": 120}, {"time": 63119, "pitch": 75, "duration": 130, "velocity": 120}, {"time": 63363, "pitch": 65, "duration": 130, "velocity": 120}, {"time": 63363, "pitch": 77, "duration": 182, "velocity": 120}, {"time": 63841, "pitch": 65, "duration": 128, "velocity": 120}, {"time": 63841, "pitch": 77, "duration": 142, "velocity": 120}, {"time": 64199, "pitch": 63, "duration": 114, "velocity": 120}, {"time": 64199, "pitch": 75, "duration": 114, "velocity": 120}, {"time": 64558, "pitch": 63, "duration": 158, "velocity": 120}, {"time": 64558, "pitch": 75, "duration": 165, "velocity": 120}, {"time": 71759, "pitch": 68, "duration": 134, "velocity": 120}, {"time": 71759, "pitch": 80, "duration": 142, "velocity": 120}, {"time": 72003, "pitch": 68, "duration": 226, "velocity": 120}, {"time": 72003, "pitch": 80, "duration": 207, "velocity": 120}, {"time": 72242, "pitch": 70, "duration": 240, "velocity": 120}, {"time": 72242, "pitch": 82, "duration": 249, "velocity": 120}, {"time": 76323, "pitch": 60, "duration": 287, "velocity": 120}, {"time": 76323, "pitch": 72, "duration": 279, "velocity": 120}, {"time": 77039, "pitch": 60, "duration": 119, "velocity": 120}, {"time": 77039, "pitch": 72, "duration": 140, "velocity": 120}, {"time": 78727, "pitch": 63, "duration": 341, "velocity": 120}, {"time": 78732, "pitch": 75, "duration": 278, "velocity": 120}, {"time": 79209, "pitch": 65, "duration": 277, "velocity": 120}, {"time": 79209, "pitch": 77, "duration": 279, "velocity": 120}, {"time": 79677, "pitch": 67, "duration": 255, "velocity": 120}, {"time": 79677, "pitch": 79, "duration": 255, "velocity": 120}, {"time": 80165, "pitch": 68, "duration": 150, "velocity": 120}, {"time": 80165, "pitch": 80, "duration": 160, "velocity": 120}, {"time": 80882, "pitch": 68, "duration": 136, "velocity": 120}, {"time": 80882, "pitch": 80, "duration": 144, "velocity": 120}, {"time": 86157, "pitch": 63, "duration": 119, "velocity": 120}, {"time": 86157, "pitch": 75, "duration": 119, "velocity": 120}, {"time": 86396, "pitch": 65, "duration": 122, "velocity": 120}, {"time": 86396, "pitch": 77, "duration": 122, "velocity": 120}, {"time": 86640, "pitch": 68, "duration": 172, "velocity": 120}, {"time": 86640, "pitch": 80, "duration": 203, "velocity": 120}, {"time": 87123, "pitch": 70, "duration": 573, "velocity": 120}, {"time": 87123, "pitch": 82, "duration": 594, "velocity": 120}, {"time": 94080, "pitch": 63, "duration": 360, "velocity": 120}, {"time": 94080, "pitch": 75, "duration": 365, "velocity": 120}, {"time": 94558, "pitch": 65, "duration": 357, "velocity": 120}, {"time": 94558, "pitch": 77, "duration": 339, "velocity": 120}, {"time": 95035, "pitch": 67, "duration": 339, "velocity": 120}, {"time": 95035, "pitch": 79, "duration": 328, "velocity": 120}, {"time": 95523, "pitch": 68, "duration": 420, "velocity": 120}, {"time": 95523, "pitch": 80, "duration": 431, "velocity": 120}, {"time": 109460, "pitch": 67, "duration": 292, "velocity": 120}, {"time": 109460, "pitch": 79, "duration": 284, "velocity": 120}, {"time": 109928, "pitch": 79, "duration": 311, "velocity": 120}, {"time": 109933, "pitch": 67, "duration": 331, "velocity": 120}, {"time": 110411, "pitch": 67, "duration": 318, "velocity": 120}, {"time": 110411, "pitch": 79, "duration": 328, "velocity": 120}, {"time": 125524, "pitch": 65, "duration": 147, "velocity": 120}, {"time": 125524, "pitch": 77, "duration": 170, "velocity": 120}, {"time": 125762, "pitch": 63, "duration": 197, "velocity": 120}, {"time": 125762, "pitch": 75, "duration": 221, "velocity": 120}, {"time": 126001, "pitch": 65, "duration": 168, "velocity": 120}, {"time": 126001, "pitch": 77, "duration": 197, "velocity": 120}, {"time": 155279, "pitch": 63, "duration": 133, "velocity": 120}, {"time": 155279, "pitch": 75, "duration": 130, "velocity": 120}, {"time": 155524, "pitch": 65, "duration": 129, "velocity": 120}, {"time": 155524, "pitch": 77, "duration": 181, "velocity": 120}, {"time": 156001, "pitch": 65, "duration": 129, "velocity": 120}, {"time": 156001, "pitch": 77, "duration": 142, "velocity": 120}, {"time": 156359, "pitch": 63, "duration": 114, "velocity": 120}, {"time": 156359, "pitch": 75, "duration": 114, "velocity": 120}, {"time": 156718, "pitch": 63, "duration": 158, "velocity": 120}, {"time": 156718, "pitch": 75, "duration": 165, "velocity": 120}, {"time": 163919, "pitch": 68, "duration": 134, "velocity": 120}, {"time": 163919, "pitch": 80, "duration": 143, "velocity": 120}, {"time": 164163, "pitch": 68, "duration": 226, "velocity": 120}, {"time": 164163, "pitch": 80, "duration": 207, "velocity": 120}, {"time": 164402, "pitch": 70, "duration": 240, "velocity": 120}, {"time": 164402, "pitch": 82, "duration": 249, "velocity": 120}, {"time": 168483, "pitch": 60, "duration": 287, "velocity": 120}, {"time": 168483, "pitch": 72, "duration": 279, "velocity": 120}, {"time": 169200, "pitch": 60, "duration": 118, "velocity": 120}, {"time": 169200, "pitch": 72, "duration": 139, "velocity": 120}, {"time": 170887, "pitch": 63, "duration": 341, "velocity": 120}, {"time": 170892, "pitch": 75, "duration": 278, "velocity": 120}, {"time": 171369, "pitch": 65, "duration": 277, "velocity": 120}, {"time": 171369, "pitch": 77, "duration": 279, "velocity": 120}, {"time": 171837, "pitch": 67, "duration": 250, "velocity": 120}, {"time": 171837, "pitch": 79, "duration": 250, "velocity": 120}, {"time": 172315, "pitch": 68, "duration": 153, "velocity": 120}, {"time": 172315, "pitch": 80, "duration": 163, "velocity": 120}, {"time": 173042, "pitch": 68, "duration": 136, "velocity": 120}, {"time": 173042, "pitch": 80, "duration": 144, "velocity": 120}, {"time": 178317, "pitch": 63, "duration": 119, "velocity": 120}, {"time": 178317, "pitch": 75, "duration": 119, "velocity": 120}, {"time": 178556, "pitch": 65, "duration": 122, "velocity": 120}, {"time": 178556, "pitch": 77, "duration": 122, "velocity": 120}, {"time": 178800, "pitch": 68, "duration": 172, "velocity": 120}, {"time": 178800, "pitch": 80, "duration": 203, "velocity": 120}, {"time": 179283, "pitch": 70, "duration": 573, "velocity": 120}, {"time": 179283, "pitch": 82, "duration": 594, "velocity": 120}, {"time": 186240, "pitch": 63, "duration": 360, "velocity": 120}, {"time": 186240, "pitch": 75, "duration": 365, "velocity": 120}, {"time": 186718, "pitch": 65, "duration": 357, "velocity": 120}, {"time": 186718, "pitch": 77, "duration": 339, "velocity": 120}, {"time": 187195, "pitch": 67, "duration": 339, "velocity": 120}, {"time": 187195, "pitch": 79, "duration": 328, "velocity": 120}, {"time": 187684, "pitch": 68, "duration": 419, "velocity": 120}, {"time": 187684, "pitch": 80, "duration": 430, "velocity": 120}, {"time": 201620, "pitch": 67, "duration": 292, "velocity": 120}, {"time": 201620, "pitch": 79, "duration": 284, "velocity": 120}, {"time": 202088, "pitch": 79, "duration": 311, "velocity": 120}, {"time": 202093, "pitch": 67, "duration": 331, "velocity": 120}, {"time": 202571, "pitch": 67, "duration": 319, "velocity": 120}, {"time": 202571, "pitch": 79, "duration": 329, "velocity": 120}, {"time": 209999, "pitch": 65, "duration": 147, "velocity": 120}, {"time": 209999, "pitch": 77, "duration": 170, "velocity": 120}, {"time": 210238, "pitch": 63, "duration": 197, "velocity": 120}, {"time": 210238, "pitch": 75, "duration": 221, "velocity": 120}, {"time": 210477, "pitch": 65, "duration": 168, "velocity": 120}, {"time": 210477, "pitch": 77, "duration": 197, "velocity": 120}, {"time": 217684, "pitch": 65, "duration": 147, "velocity": 120}, {"time": 217684, "pitch": 77, "duration": 170, "velocity": 120}, {"time": 217922, "pitch": 63, "duration": 197, "velocity": 120}, {"time": 217922, "pitch": 75, "duration": 221, "velocity": 120}, {"time": 218161, "pitch": 65, "duration": 168, "velocity": 120}, {"time": 218161, "pitch": 77, "duration": 197, "velocity": 120}, {"time": 225357, "pitch": 65, "duration": 148, "velocity": 120}, {"time": 225357, "pitch": 77, "duration": 171, "velocity": 120}, {"time": 225596, "pitch": 63, "duration": 202, "velocity": 120}, {"time": 225596, "pitch": 75, "duration": 226, "velocity": 120}, {"time": 225840, "pitch": 65, "duration": 172, "velocity": 120}, {"time": 225840, "pitch": 77, "duration": 202, "velocity": 120}, {"time": 233031, "pitch": 65, "duration": 147, "velocity": 120}, {"time": 233031, "pitch": 77, "duration": 170, "velocity": 120}, {"time": 233270, "pitch": 63, "duration": 197, "velocity": 120}, {"time": 233270, "pitch": 75, "duration": 221, "velocity": 120}, {"time": 233509, "pitch": 65, "duration": 168, "velocity": 120}, {"time": 233509, "pitch": 77, "duration": 197, "velocity": 120}, {"time": 64358, "pitch": 45, "duration": 39, "velocity": 66}, {"time": 64362, "pitch": 47, "duration": 63, "velocity": 90}, {"time": 64375, "pitch": 48, "duration": 76, "velocity": 94}, {"time": 64400, "pitch": 50, "duration": 76, "velocity": 92}, {"time": 64425, "pitch": 52, "duration": 79, "velocity": 94}, {"time": 64446, "pitch": 53, "duration": 91, "velocity": 96}, {"time": 64474, "pitch": 55, "duration": 136, "velocity": 92}, {"time": 64497, "pitch": 57, "duration": 217, "velocity": 86}, {"time": 64542, "pitch": 59, "duration": 245, "velocity": 66}, {"time": 64630, "pitch": 60, "duration": 221, "velocity": 44}, {"time": 64742, "pitch": 62, "duration": 163, "velocity": 35}, {"time": 64779, "pitch": 70, "duration": 1920, "velocity": 66}, {"time": 64779, "pitch": 79, "duration": 1849, "velocity": 66}, {"time": 64784, "pitch": 75, "duration": 1939, "velocity": 78}, {"time": 64828, "pitch": 64, "duration": 93, "velocity": 45}, {"time": 66723, "pitch": 68, "duration": 1854, "velocity": 78}, {"time": 66733, "pitch": 77, "duration": 1846, "velocity": 78}, {"time": 66736, "pitch": 72, "duration": 1843, "velocity": 90}, {"time": 68645, "pitch": 70, "duration": 1873, "velocity": 80}, {"time": 68645, "pitch": 75, "duration": 1848, "velocity": 78}, {"time": 68645, "pitch": 79, "duration": 1810, "velocity": 78}, {"time": 70539, "pitch": 68, "duration": 1862, "velocity": 82}, {"time": 70544, "pitch": 77, "duration": 1860, "velocity": 78}, {"time": 70546, "pitch": 72, "duration": 1858, "velocity": 96}, {"time": 72457, "pitch": 75, "duration": 1901, "velocity": 70}, {"time": 72462, "pitch": 70, "duration": 1891, "velocity": 80}, {"time": 72465, "pitch": 79, "duration": 1865, "velocity": 78}, {"time": 74412, "pitch": 68, "duration": 1872, "velocity": 84}, {"time": 74412, "pitch": 72, "duration": 1828, "velocity": 94}, {"time": 74417, "pitch": 77, "duration": 1836, "velocity": 84}, {"time": 76328, "pitch": 77, "duration": 1880, "velocity": 84}, {"time": 76333, "pitch": 72, "duration": 1898, "velocity": 94}, {"time": 76335, "pitch": 73, "duration": 182, "velocity": 44}, {"time": 76340, "pitch": 67, "duration": 1839, "velocity": 90}, {"time": 78285, "pitch": 72, "duration": 1775, "velocity": 98}, {"time": 78290, "pitch": 74, "duration": 1761, "velocity": 92}, {"time": 78290, "pitch": 79, "duration": 1756, "velocity": 94}, {"time": 156518, "pitch": 45, "duration": 39, "velocity": 66}, {"time": 156523, "pitch": 47, "duration": 62, "velocity": 90}, {"time": 156536, "pitch": 48, "duration": 75, "velocity": 94}, {"time": 156560, "pitch": 50, "duration": 76, "velocity": 92}, {"time": 156585, "pitch": 52, "duration": 79, "velocity": 94}, {"time": 156606, "pitch": 53, "duration": 91, "velocity": 96}, {"time": 156634, "pitch": 55, "duration": 136, "velocity": 92}, {"time": 156657, "pitch": 57, "duration": 217, "velocity": 86}, {"time": 156702, "pitch": 59, "duration": 245, "velocity": 66}, {"time": 156790, "pitch": 60, "duration": 221, "velocity": 44}, {"time": 156902, "pitch": 62, "duration": 163, "velocity": 35}, {"time": 156940, "pitch": 70, "duration": 1919, "velocity": 66}, {"time": 156940, "pitch": 79, "duration": 1848, "velocity": 66}, {"time": 156944, "pitch": 75, "duration": 1940, "velocity": 78}, {"time": 156988, "pitch": 64, "duration": 94, "velocity": 45}, {"time": 158884, "pitch": 68, "duration": 1853, "velocity": 78}, {"time": 158893, "pitch": 77, "duration": 1846, "velocity": 78}, {"time": 158896, "pitch": 72, "duration": 1843, "velocity": 90}, {"time": 160805, "pitch": 70, "duration": 1873, "velocity": 80}, {"time": 160805, "pitch": 75, "duration": 1848, "velocity": 78}, {"time": 160805, "pitch": 79, "duration": 1810, "velocity": 78}, {"time": 162699, "pitch": 68, "duration": 1862, "velocity": 82}, {"time": 162704, "pitch": 77, "duration": 1860, "velocity": 78}, {"time": 162706, "pitch": 72, "duration": 1858, "velocity": 96}, {"time": 164617, "pitch": 75, "duration": 1901, "velocity": 70}, {"time": 164622, "pitch": 70, "duration": 1891, "velocity": 80}, {"time": 164625, "pitch": 79, "duration": 1865, "velocity": 78}, {"time": 166572, "pitch": 68, "duration": 1873, "velocity": 84}, {"time": 166572, "pitch": 72, "duration": 1828, "velocity": 94}, {"time": 166577, "pitch": 77, "duration": 1836, "velocity": 84}, {"time": 168488, "pitch": 77, "duration": 1880, "velocity": 84}, {"time": 168493, "pitch": 72, "duration": 1898, "velocity": 94}, {"time": 168495, "pitch": 73, "duration": 182, "velocity": 44}, {"time": 168500, "pitch": 67, "duration": 1839, "velocity": 90}, {"time": 170445, "pitch": 72, "duration": 1766, "velocity": 98}, {"time": 170450, "pitch": 74, "duration": 1753, "velocity": 92}, {"time": 170450, "pitch": 79, "duration": 1748, "velocity": 94}, {"time": 11037, "pitch": 36, "duration": 10, "velocity": 120}, {"time": 11276, "pitch": 42, "duration": 10, "velocity": 100}, {"time": 11515, "pitch": 36, "duration": 10, "velocity": 120}, {"time": 11515, "pitch": 38, "duration": 10, "velocity": 110}, {"time": 12003, "pitch": 36, "duration": 10, "velocity": 120}, {"time": 12242, "pitch": 42, "duration": 10, "velocity": 100}, {"time": 12481, "pitch": 36, "duration": 10, "velocity": 120}, {"time": 12481, "pitch": 38, "duration": 10, "velocity": 110}, {"time": 12958, "pitch": 36, "duration": 10, "velocity": 120}, {"time": 13197, "pitch": 42, "duration": 10, "velocity": 100}, {"time": 13436, "pitch": 36, "duration": 10, "velocity": 120}, {"time": 13436, "pitch": 38, "duration": 10, "velocity": 110}, {"time": 13924, "pitch": 36, "duration": 10, "velocity": 120}, {"time": 14163, "pitch": 42, "duration": 10, "velocity": 100}, {"time": 14402, "pitch": 36, "duration": 10, "velocity": 120}, {"time": 14402, "pitch": 38, "duration": 10, "velocity": 110}, {"time": 14641, "pitch": 42, "duration": 10, "velocity": 100}, {"time": 14760, "pitch": 38, "duration": 10, "velocity": 110}, {"time": 14879, "pitch": 36, "duration": 10, "velocity": 120}, {"time": 15238, "pitch": 42, "duration": 10, "velocity": 100}, {"time": 15357, "pitch": 36, "duration": 10, "velocity": 120}, {"time": 15357, "pitch": 38, "duration": 10, "velocity": 110}, {"time": 15601, "pitch": 42, "duration": 10, "velocity": 100}, {"time": 15723, "pitch": 38, "duration": 10, "velocity": 110}, {"time": 15845, "pitch": 36, "duration": 10, "velocity": 120}, {"time": 15845, "pitch": 42, "duration": 10, "velocity": 100}, {"time": 15965, "pitch": 38, "duration": 10, "velocity": 110}, {"time": 16084, "pitch": 42, "duration": 10, "velocity": 100}, {"time": 16323, "pitch": 36, "duration": 10, "velocity": 120}, {"time": 16323, "pitch": 38, "duration": 10, "velocity": 110}, {"time": 16562, "pitch": 42, "duration": 10, "velocity": 100}, {"time": 16681, "pitch": 38, "duration": 10, "velocity": 110}, {"time": 16800, "pitch": 36, "duration": 10, "velocity": 120}, {"time": 16800, "pitch": 42, "duration": 10, "velocity": 100}, {"time": 17278, "pitch": 42, "duration": 10, "velocity": 100}, {"time": 17756, "pitch": 36, "duration": 10, "velocity": 120}, {"time": 17756, "pitch": 42, "duration": 10, "velocity": 100}, {"time": 18000, "pitch": 36, "duration": 10, "velocity": 120}, {"time": 18000, "pitch": 42, "duration": 10, "velocity": 100}, {"time": 18244, "pitch": 36, "duration": 10, "velocity": 120}, {"time": 18244, "pitch": 42, "duration": 10, "velocity": 100}, {"time": 18363, "pitch": 42, "duration": 10, "velocity": 100}, {"time": 18483, "pitch": 36, "duration": 10, "velocity": 120}, {"time": 18483, "pitch": 42, "duration": 10, "velocity": 100}, {"time": 18602, "pitch": 42, "duration": 10, "velocity": 100}, {"time": 18722, "pitch": 36, "duration": 10, "velocity": 120}, {"time": 18960, "pitch": 42, "duration": 10, "velocity": 100}, {"time": 19199, "pitch": 36, "duration": 10, "velocity": 120}, {"time": 19199, "pitch": 38, "duration": 10, "velocity": 111}, {"time": 19438, "pitch": 42, "duration": 10, "velocity": 100}, {"time": 19557, "pitch": 38, "duration": 10, "velocity": 110}, {"time": 19677, "pitch": 36, "duration": 10, "velocity": 120}, {"time": 19677, "pitch": 42, "duration": 10, "velocity": 100}, {"time": 19921, "pitch": 42, "duration": 10, "velocity": 100}, {"time": 20165, "pitch": 36, "duration": 10, "velocity": 120}, {"time": 20165, "pitch": 38, "duration": 10, "velocity": 110}, {"time": 20404, "pitch": 42, "duration": 10, "velocity": 100}, {"time": 20523, "pitch": 38, "duration": 10, "velocity": 110}, {"time": 20643, "pitch": 36, "duration": 10, "velocity": 120}, {"time": 20643, "pitch": 42, "duration": 10, "velocity": 100}, {"time": 21001, "pitch": 42, "duration": 10, "velocity": 100}, {"time": 21120, "pitch": 36, "duration": 10, "velocity": 120}, {"time": 21120, "pitch": 38, "duration": 10, "velocity": 110}, {"time": 21359, "pitch": 42, "duration": 10, "velocity": 100}, {"time": 21479, "pitch": 38, "duration": 9, "velocity": 110}, {"time": 21598, "pitch": 36, "duration": 10, "velocity": 120}, {"time": 21598, "pitch": 42, "duration": 10, "velocity": 100}, {"time": 21717, "pitch": 38, "duration": 10, "velocity": 110}, {"time": 21837, "pitch": 42, "duration": 10, "velocity": 100}, {"time": 22076, "pitch": 36, "duration": 10, "velocity": 120}, {"time": 22076, "pitch": 38, "duration": 10, "velocity": 110}, {"time": 22320, "pitch": 42, "duration": 10, "velocity": 100}, {"time": 22442, "pitch": 38, "duration": 10, "velocity": 110}, {"time": 22564, "pitch": 36, "duration": 10, "velocity": 120}, {"time": 22803, "pitch": 42, "duration": 10, "velocity": 100}, {"time": 23041, "pitch": 36, "duration": 10, "velocity": 120}, {"time": 23041, "pitch": 38, "duration": 10, "velocity": 110}, {"time": 23280, "pitch": 42, "duration": 10, "velocity": 100}, {"time": 23400, "pitch": 38, "duration": 10, "velocity": 110}, {"time": 23519, "pitch": 36, "duration": 10, "velocity": 120}, {"time": 23519, "pitch": 42, "duration": 10, "velocity": 100}, {"time": 23638, "pitch": 38, "duration": 10, "velocity": 110}, {"time": 23758, "pitch": 42, "duration": 10, "velocity": 100}, {"time": 23997, "pitch": 36, "duration": 10, "velocity": 120}, {"time": 23997, "pitch": 38, "duration": 10, "velocity": 110}, {"time": 24241, "pitch": 42, "duration": 10, "velocity": 100}, {"time": 24485, "pitch": 36, "duration": 10, "velocity": 120}, {"time": 24724, "pitch": 42, "duration": 10, "velocity": 100}, {"time": 24963, "pitch": 36, "duration": 9, "velocity": 120}, {"time": 24963, "pitch": 38, "duration": 9, "velocity": 110}, {"time": 25201, "pitch": 42, "duration": 10, "velocity": 100}, {"time": 25321, "pitch": 38, "duration": 10, "velocity": 110}, {"time": 25440, "pitch": 36, "duration": 10, "velocity": 120}, {"time": 25440, "pitch": 42, "duration": 10, "velocity": 100}, {"time": 25560, "pitch": 38, "duration": 10, "velocity": 110}, {"time": 25918, "pitch": 36, "duration": 10, "velocity": 120}, {"time": 25918, "pitch": 38, "duration": 10, "velocity": 110}, {"time": 26157, "pitch": 42, "duration": 10, "velocity": 100}, {"time": 26395, "pitch": 36, "duration": 10, "velocity": 120}, {"time": 26639, "pitch": 42, "duration": 11, "velocity": 100}, {"time": 26884, "pitch": 36, "duration": 10, "velocity": 120}, {"time": 26884, "pitch": 38, "duration": 10, "velocity": 110}, {"time": 27122, "pitch": 42, "duration": 10, "velocity": 100}, {"time": 27242, "pitch": 38, "duration": 10, "velocity": 110}, {"time": 27361, "pitch": 36, "duration": 10, "velocity": 120}, {"time": 27361, "pitch": 42, "duration": 10, "velocity": 100}, {"time": 27481, "pitch": 38, "duration": 10, "velocity": 110}, {"time": 27600, "pitch": 42, "duration": 10, "velocity": 100}, {"time": 27839, "pitch": 36, "duration": 10, "velocity": 120}, {"time": 27839, "pitch": 38, "duration": 10, "velocity": 110}, {"time": 28078, "pitch": 42, "duration": 10, "velocity": 100}, {"time": 28316, "pitch": 36, "duration": 11, "velocity": 120}, {"time": 28561, "pitch": 42, "duration": 10, "velocity": 100}, {"time": 28805, "pitch": 36, "duration": 10, "velocity": 120}, {"time": 28805, "pitch": 38, "duration": 10, "velocity": 110}, {"time": 29044, "pitch": 42, "duration": 10, "velocity": 100}, {"time": 29282, "pitch": 36, "duration": 10, "velocity": 120}, {"time": 29282, "pitch": 38, "duration": 10, "velocity": 110}, {"time": 29402, "pitch": 42, "duration": 10, "velocity": 100}, {"time": 29521, "pitch": 38, "duration": 10, "velocity": 110}, {"time": 29760, "pitch": 36, "duration": 10, "velocity": 120}, {"time": 29760, "pitch": 38, "duration": 10, "velocity": 110}, {"time": 29999, "pitch": 42, "duration": 10, "velocity": 100}, {"time": 30118, "pitch": 38, "duration": 10, "velocity": 110}, {"time": 30238, "pitch": 36, "duration": 10, "velocity": 120}, {"time": 30476, "pitch": 42, "duration": 10, "velocity": 100}, {"time": 30715, "pitch": 36, "duration": 10, "velocity": 120}, {"time": 30715, "pitch": 38, "duration": 10, "velocity": 110}, {"time": 30959, "pitch": 42, "duration": 11, "velocity": 100}, {"time": 31081, "pitch": 38, "duration": 11, "velocity": 110}, {"time": 31203, "pitch": 36, "duration": 10, "velocity": 120}, {"time": 31203, "pitch": 42, "duration": 10, "velocity": 100}, {"time": 31323, "pitch": 38, "duration": 10, "velocity": 110}, {"time": 31442, "pitch": 42, "duration": 10, "velocity": 100}, {"time": 31681, "pitch": 36, "duration": 10, "velocity": 120}, {"time": 31681, "pitch": 38, "duration": 10, "velocity": 110}, {"time": 31920, "pitch": 42, "duration": 10, "velocity": 100}, {"time": 32159, "pitch": 36, "duration": 10, "velocity": 120}, {"time": 32159, "pitch": 42, "duration": 10, "velocity": 100}, {"time": 32398, "pitch": 38, "duration": 9, "velocity": 110}, {"time": 32636, "pitch": 36, "duration": 10, "velocity": 120}, {"time": 32636, "pitch": 42, "duration": 10, "velocity": 100}, {"time": 32758, "pitch": 38, "duration": 11, "velocity": 110}, {"time": 33003, "pitch": 42, "duration": 10, "velocity": 100}, {"time": 33125, "pitch": 36, "duration": 10, "velocity": 120}, {"time": 33125, "pitch": 38, "duration": 10, "velocity": 110}, {"time": 33363, "pitch": 42, "duration": 10, "velocity": 100}, {"time": 33483, "pitch": 38, "duration": 10, "velocity": 110}, {"time": 33602, "pitch": 36, "duration": 10, "velocity": 120}, {"time": 33722, "pitch": 42, "duration": 10, "velocity": 100}, {"time": 33841, "pitch": 38, "duration": 10, "velocity": 110}, {"time": 34080, "pitch": 36, "duration": 10, "velocity": 120}, {"time": 34319, "pitch": 46, "duration": 10, "velocity": 78}, {"time": 34557, "pitch": 36, "duration": 10, "velocity": 120}, {"time": 34557, "pitch": 38, "duration": 10, "velocity": 111}, {"time": 34557, "pitch": 42, "duration": 10, "velocity": 78}, {"time": 34796, "pitch": 42, "duration": 10, "velocity": 100}, {"time": 34916, "pitch": 38, "duration": 10, "velocity": 110}, {"time": 35035, "pitch": 36, "duration": 10, "velocity": 120}, {"time": 35035, "pitch": 42, "duration": 10, "velocity": 100}, {"time": 35279, "pitch": 46, "duration": 10, "velocity": 78}, {"time": 35523, "pitch": 36, "duration": 10, "velocity": 120}, {"time": 35523, "pitch": 38, "duration": 10, "velocity": 110}, {"time": 35523, "pitch": 42, "duration": 10, "velocity": 80}, {"time": 35762, "pitch": 42, "duration": 10, "velocity": 100}, {"time": 35882, "pitch": 38, "duration": 9, "velocity": 110}, {"time": 36001, "pitch": 36, "duration": 10, "velocity": 120}, {"time": 36001, "pitch": 42, "duration": 10, "velocity": 100}, {"time": 36240, "pitch": 46, "duration": 10, "velocity": 80}, {"time": 36359, "pitch": 42, "duration": 10, "velocity": 100}, {"time": 36479, "pitch": 36, "duration": 10, "velocity": 120}, {"time": 36479, "pitch": 38, "duration": 10, "velocity": 110}, {"time": 36479, "pitch": 42, "duration": 10, "velocity": 80}, {"time": 36717, "pitch": 42, "duration": 10, "velocity": 100}, {"time": 36837, "pitch": 38, "duration": 10, "velocity": 110}, {"time": 36956, "pitch": 36, "duration": 10, "velocity": 120}, {"time": 36956, "pitch": 42, "duration": 10, "velocity": 100}, {"time": 37078, "pitch": 38, "duration": 10, "velocity": 110}, {"time": 37200, "pitch": 46, "duration": 10, "velocity": 80}, {"time": 37444, "pitch": 36, "duration": 10, "velocity": 120}, {"time": 37444, "pitch": 38, "duration": 10, "velocity": 110}, {"time": 37444, "pitch": 42, "duration": 10, "velocity": 80}, {"time": 37683, "pitch": 42, "duration": 10, "velocity": 100}, {"time": 37803, "pitch": 38, "duration": 10, "velocity": 110}, {"time": 37922, "pitch": 36, "duration": 10, "velocity": 120}, {"time": 38161, "pitch": 46, "duration": 10, "velocity": 80}, {"time": 38400, "pitch": 36, "duration": 10, "velocity": 120}, {"time": 38400, "pitch": 38, "duration": 10, "velocity": 110}, {"time": 38400, "pitch": 42, "duration": 10, "velocity": 80}, {"time": 38638, "pitch": 42, "duration": 10, "velocity": 100}, {"time": 38758, "pitch": 38, "duration": 10, "velocity": 110}, {"time": 38877, "pitch": 36, "duration": 10, "velocity": 120}, {"time": 38877, "pitch": 42, "duration": 10, "velocity": 100}, {"time": 38997, "pitch": 38, "duration": 10, "velocity": 110}, {"time": 39116, "pitch": 46, "duration": 10, "velocity": 80}, {"time": 39355, "pitch": 36, "duration": 10, "velocity": 120}, {"time": 39355, "pitch": 38, "duration": 10, "velocity": 110}, {"time": 39355, "pitch": 42, "duration": 10, "velocity": 80}, {"time": 39599, "pitch": 42, "duration": 10, "velocity": 100}, {"time": 39843, "pitch": 36, "duration": 10, "velocity": 120}, {"time": 40082, "pitch": 46, "duration": 10, "velocity": 80}, {"time": 40321, "pitch": 36, "duration": 10, "velocity": 120}, {"time": 40321, "pitch": 38, "duration": 10, "velocity": 110}, {"time": 40321, "pitch": 42, "duration": 10, "velocity": 80}, {"time": 40560, "pitch": 42, "duration": 10, "velocity": 100}, {"time": 40679, "pitch": 38, "duration": 10, "velocity": 110}, {"time": 40798, "pitch": 36, "duration": 10, "velocity": 120}, {"time": 40798, "pitch": 42, "duration": 10, "velocity": 100}, {"time": 40918, "pitch": 38, "duration": 10, "velocity": 110}, {"time": 41037, "pitch": 46, "duration": 10, "velocity": 80}, {"time": 41276, "pitch": 36, "duration": 10, "velocity": 120}, {"time": 41276, "pitch": 38, "duration": 10, "velocity": 110}, {"time": 41398, "pitch": 42, "duration": 10, "velocity": 80}, {"time": 41520, "pitch": 42, "duration": 10, "velocity": 100}, {"time": 41764, "pitch": 36, "duration": 10, "velocity": 120}, {"time": 42003, "pitch": 46, "duration": 10, "velocity": 80}, {"time": 42242, "pitch": 36, "duration": 10, "velocity": 120}, {"time": 42242, "pitch": 38, "duration": 10, "velocity": 110}, {"time": 42242, "pitch": 42, "duration": 10, "velocity": 80}, {"time": 42481, "pitch": 42, "duration": 10, "velocity": 100}, {"time": 42600, "pitch": 38, "duration": 10, "velocity": 110}, {"time": 42720, "pitch": 36, "duration": 9, "velocity": 120}, {"time": 42720, "pitch": 42, "duration": 9, "velocity": 100}, {"time": 42839, "pitch": 38, "duration": 10, "velocity": 110}, {"time": 42958, "pitch": 46, "duration": 10, "velocity": 80}, {"time": 43197, "pitch": 36, "duration": 10, "velocity": 120}, {"time": 43197, "pitch": 38, "duration": 10, "velocity": 110}, {"time": 43197, "pitch": 42, "duration": 10, "velocity": 80}, {"time": 43436, "pitch": 42, "duration": 10, "velocity": 100}, {"time": 43675, "pitch": 36, "duration": 10, "velocity": 120}, {"time": 43919, "pitch": 46, "duration": 10, "velocity": 80}, {"time": 44163, "pitch": 36, "duration": 10, "velocity": 120}, {"time": 44163, "pitch": 38, "duration": 10, "velocity": 110}, {"time": 44163, "pitch": 42, "duration": 10, "velocity": 80}, {"time": 44402, "pitch": 42, "duration": 10, "velocity": 100}, {"time": 44641, "pitch": 36, "duration": 10, "velocity": 120}, {"time": 44641, "pitch": 38, "duration": 10, "velocity": 110}, {"time": 44760, "pitch": 42, "duration": 10, "velocity": 100}, {"time": 44879, "pitch": 38, "duration": 10, "velocity": 110}, {"time": 44879, "pitch": 46, "duration": 10, "velocity": 80}, {"time": 45118, "pitch": 36, "duration": 10, "velocity": 120}, {"time": 45118, "pitch": 38, "duration": 10, "velocity": 110}, {"time": 45118, "pitch": 42, "duration": 10, "velocity": 80}, {"time": 45357, "pitch": 42, "duration": 10, "velocity": 100}, {"time": 45476, "pitch": 38, "duration": 10, "velocity": 110}, {"time": 45596, "pitch": 36, "duration": 10, "velocity": 120}, {"time": 45840, "pitch": 46, "duration": 10, "velocity": 80}, {"time": 46084, "pitch": 36, "duration": 10, "velocity": 120}, {"time": 46084, "pitch": 38, "duration": 10, "velocity": 110}, {"time": 46084, "pitch": 42, "duration": 10, "velocity": 80}, {"time": 46323, "pitch": 42, "duration": 10, "velocity": 100}, {"time": 46442, "pitch": 38, "duration": 10, "velocity": 110}, {"time": 46562, "pitch": 36, "duration": 10, "velocity": 120}, {"time": 46562, "pitch": 42, "duration": 10, "velocity": 100}, {"time": 46681, "pitch": 38, "duration": 10, "velocity": 110}, {"time": 46801, "pitch": 46, "duration": 9, "velocity": 80}, {"time": 47039, "pitch": 36, "duration": 10, "velocity": 120}, {"time": 47039, "pitch": 38, "duration": 10, "velocity": 110}, {"time": 47039, "pitch": 42, "duration": 10, "velocity": 80}, {"time": 47278, "pitch": 42, "duration": 10, "velocity": 100}, {"time": 47517, "pitch": 36, "duration": 10, "velocity": 120}, {"time": 47517, "pitch": 42, "duration": 10, "velocity": 100}, {"time": 47761, "pitch": 38, "duration": 10, "velocity": 110}, {"time": 47761, "pitch": 46, "duration": 10, "velocity": 80}, {"time": 48005, "pitch": 36, "duration": 10, "velocity": 120}, {"time": 48005, "pitch": 42, "duration": 10, "velocity": 80}, {"time": 48125, "pitch": 38, "duration": 10, "velocity": 110}, {"time": 48244, "pitch": 44, "duration": 10, "velocity": 80}, {"time": 48363, "pitch": 42, "duration": 10, "velocity": 100}, {"time": 48483, "pitch": 36, "duration": 10, "velocity": 120}, {"time": 48483, "pitch": 38, "duration": 10, "velocity": 110}, {"time": 48722, "pitch": 46, "duration": 10, "velocity": 80}, {"time": 48841, "pitch": 38, "duration": 10, "velocity": 110}, {"time": 48960, "pitch": 36, "duration": 10, "velocity": 120}, {"time": 49080, "pitch": 42, "duration": 10, "velocity": 100}, {"time": 49199, "pitch": 38, "duration": 10, "velocity": 110}, {"time": 49199, "pitch": 44, "duration": 10, "velocity": 80}, {"time": 49438, "pitch": 36, "duration": 10, "velocity": 120}, {"time": 49677, "pitch": 46, "duration": 10, "velocity": 80}, {"time": 49916, "pitch": 36, "duration": 10, "velocity": 120}, {"time": 49916, "pitch": 38, "duration": 10, "velocity": 111}, {"time": 49916, "pitch": 42, "duration": 10, "velocity": 80}, {"time": 50160, "pitch": 42, "duration": 10, "velocity": 100}, {"time": 50282, "pitch": 38, "duration": 10, "velocity": 110}, {"time": 50404, "pitch": 36, "duration": 10, "velocity": 120}, {"time": 50404, "pitch": 42, "duration": 10, "velocity": 100}, {"time": 50643, "pitch": 46, "duration": 10, "velocity": 80}, {"time": 50882, "pitch": 36, "duration": 10, "velocity": 120}, {"time": 50882, "pitch": 38, "duration": 10, "velocity": 110}, {"time": 50882, "pitch": 42, "duration": 10, "velocity": 80}, {"time": 51120, "pitch": 42, "duration": 10, "velocity": 100}, {"time": 51240, "pitch": 38, "duration": 10, "velocity": 110}, {"time": 51359, "pitch": 36, "duration": 10, "velocity": 120}, {"time": 51359, "pitch": 42, "duration": 10, "velocity": 100}, {"time": 51598, "pitch": 46, "duration": 10, "velocity": 80}, {"time": 51717, "pitch": 42, "duration": 10, "velocity": 100}, {"time": 51837, "pitch": 36, "duration": 10, "velocity": 120}, {"time": 51837, "pitch": 38, "duration": 10, "velocity": 110}, {"time": 51837, "pitch": 42, "duration": 10, "velocity": 80}, {"time": 52081, "pitch": 42, "duration": 10, "velocity": 100}, {"time": 52203, "pitch": 38, "duration": 10, "velocity": 110}, {"time": 52325, "pitch": 36, "duration": 10, "velocity": 120}, {"time": 52325, "pitch": 42, "duration": 10, "velocity": 100}, {"time": 52444, "pitch": 38, "duration": 10, "velocity": 110}, {"time": 52564, "pitch": 46, "duration": 10, "velocity": 80}, {"time": 52803, "pitch": 36, "duration": 10, "velocity": 120}, {"time": 52803, "pitch": 38, "duration": 10, "velocity": 110}, {"time": 52803, "pitch": 42, "duration": 10, "velocity": 80}, {"time": 53041, "pitch": 42, "duration": 10, "velocity": 100}, {"time": 53161, "pitch": 38, "duration": 10, "velocity": 110}, {"time": 53280, "pitch": 36, "duration": 10, "velocity": 120}, {"time": 53519, "pitch": 46, "duration": 10, "velocity": 80}, {"time": 53758, "pitch": 36, "duration": 10, "velocity": 120}, {"time": 53758, "pitch": 38, "duration": 10, "velocity": 110}, {"time": 53758, "pitch": 42, "duration": 10, "velocity": 80}, {"time": 53997, "pitch": 42, "duration": 10, "velocity": 100}, {"time": 54116, "pitch": 38, "duration": 10, "velocity": 110}, {"time": 54236, "pitch": 36, "duration": 10, "velocity": 120}, {"time": 54236, "pitch": 42, "duration": 10, "velocity": 100}, {"time": 54358, "pitch": 38, "duration": 10, "velocity": 110}, {"time": 54480, "pitch": 46, "duration": 10, "velocity": 80}, {"time": 54724, "pitch": 36, "duration": 10, "velocity": 120}, {"time": 54724, "pitch": 38, "duration": 10, "velocity": 110}, {"time": 54724, "pitch": 42, "duration": 10, "velocity": 80}, {"time": 54963, "pitch": 42, "duration": 10, "velocity": 100}, {"time": 55201, "pitch": 36, "duration": 10, "velocity": 120}, {"time": 55440, "pitch": 46, "duration": 10, "velocity": 80}, {"time": 55679, "pitch": 36, "duration": 10, "velocity": 120}, {"time": 55679, "pitch": 38, "duration": 10, "velocity": 110}, {"time": 55679, "pitch": 42, "duration": 10, "velocity": 80}, {"time": 55918, "pitch": 42, "duration": 10, "velocity": 100}, {"time": 56037, "pitch": 38, "duration": 10, "velocity": 110}, {"time": 56157, "pitch": 36, "duration": 10, "velocity": 120}, {"time": 56157, "pitch": 42, "duration": 10, "velocity": 100}, {"time": 56279, "pitch": 38, "duration": 10, "velocity": 110}, {"time": 56401, "pitch": 46, "duration": 10, "velocity": 80}, {"time": 56645, "pitch": 36, "duration": 10, "velocity": 120}, {"time": 56645, "pitch": 38, "duration": 10, "velocity": 110}, {"time": 56764, "pitch": 42, "duration": 10, "velocity": 80}, {"time": 56884, "pitch": 42, "duration": 10, "velocity": 100}, {"time": 57123, "pitch": 36, "duration": 9, "velocity": 120}, {"time": 57361, "pitch": 46, "duration": 10, "velocity": 80}, {"time": 57600, "pitch": 36, "duration": 10, "velocity": 120}, {"time": 57600, "pitch": 38, "duration": 10, "velocity": 110}, {"time": 57600, "pitch": 42, "duration": 10, "velocity": 80}, {"time": 57839, "pitch": 42, "duration": 10, "velocity": 100}, {"time": 57958, "pitch": 38, "duration": 10, "velocity": 110}, {"time": 58078, "pitch": 36, "duration": 10, "velocity": 120}, {"time": 58078, "pitch": 42, "duration": 10, "velocity": 100}, {"time": 58197, "pitch": 38, "duration": 10, "velocity": 110}, {"time": 58317, "pitch": 46, "duration": 10, "velocity": 80}, {"time": 58555, "pitch": 36, "duration": 10, "velocity": 120}, {"time": 58555, "pitch": 38, "duration": 10, "velocity": 110}, {"time": 58555, "pitch": 42, "duration": 10, "velocity": 80}, {"time": 58799, "pitch": 42, "duration": 11, "velocity": 100}, {"time": 59044, "pitch": 36, "duration": 10, "velocity": 120}, {"time": 59282, "pitch": 46, "duration": 10, "velocity": 80}, {"time": 59521, "pitch": 36, "duration": 10, "velocity": 120}, {"time": 59521, "pitch": 38, "duration": 10, "velocity": 110}, {"time": 59521, "pitch": 42, "duration": 10, "velocity": 80}, {"time": 59760, "pitch": 42, "duration": 10, "velocity": 100}, {"time": 59999, "pitch": 36, "duration": 10, "velocity": 120}, {"time": 59999, "pitch": 38, "duration": 10, "velocity": 110}, {"time": 60118, "pitch": 42, "duration": 10, "velocity": 100}, {"time": 60238, "pitch": 38, "duration": 10, "velocity": 110}, {"time": 60238, "pitch": 46, "duration": 10, "velocity": 80}, {"time": 60476, "pitch": 36, "duration": 11, "velocity": 120}, {"time": 60476, "pitch": 38, "duration": 11, "velocity": 110}, {"time": 60476, "pitch": 42, "duration": 11, "velocity": 80}, {"time": 60721, "pitch": 42, "duration": 10, "velocity": 100}, {"time": 60843, "pitch": 38, "duration": 10, "velocity": 110}, {"time": 60965, "pitch": 36, "duration": 10, "velocity": 120}, {"time": 61204, "pitch": 46, "duration": 10, "velocity": 80}, {"time": 61442, "pitch": 36, "duration": 10, "velocity": 120}, {"time": 61442, "pitch": 38, "duration": 10, "velocity": 110}, {"time": 61442, "pitch": 42, "duration": 10, "velocity": 80}, {"time": 61681, "pitch": 42, "duration": 10, "velocity": 100}, {"time": 61801, "pitch": 38, "duration": 10, "velocity": 110}, {"time": 61920, "pitch": 36, "duration": 10, "velocity": 120}, {"time": 61920, "pitch": 42, "duration": 10, "velocity": 100}, {"time": 62039, "pitch": 38, "duration": 10, "velocity": 110}, {"time": 62159, "pitch": 46, "duration": 10, "velocity": 80}, {"time": 62398, "pitch": 36, "duration": 10, "velocity": 120}, {"time": 62398, "pitch": 38, "duration": 10, "velocity": 110}, {"time": 62398, "pitch": 42, "duration": 10, "velocity": 80}, {"time": 62636, "pitch": 42, "duration": 10, "velocity": 100}, {"time": 62875, "pitch": 36, "duration": 10, "velocity": 120}, {"time": 62875, "pitch": 42, "duration": 10, "velocity": 100}, {"time": 63119, "pitch": 38, "duration": 10, "velocity": 110}, {"time": 63119, "pitch": 46, "duration": 10, "velocity": 80}, {"time": 63363, "pitch": 36, "duration": 10, "velocity": 120}, {"time": 63363, "pitch": 42, "duration": 10, "velocity": 80}, {"time": 63483, "pitch": 38, "duration": 10, "velocity": 110}, {"time": 63602, "pitch": 44, "duration": 10, "velocity": 80}, {"time": 63722, "pitch": 42, "duration": 10, "velocity": 100}, {"time": 63841, "pitch": 36, "duration": 10, "velocity": 120}, {"time": 63841, "pitch": 38, "duration": 10, "velocity": 110}, {"time": 64080, "pitch": 46, "duration": 10, "velocity": 80}, {"time": 64199, "pitch": 38, "duration": 10, "velocity": 110}, {"time": 64319, "pitch": 36, "duration": 10, "velocity": 120}, {"time": 64438, "pitch": 42, "duration": 10, "velocity": 100}, {"time": 64558, "pitch": 38, "duration": 9, "velocity": 110}, {"time": 64558, "pitch": 44, "duration": 9, "velocity": 80}, {"time": 64796, "pitch": 36, "duration": 10, "velocity": 120}, {"time": 64796, "pitch": 46, "duration": 10, "velocity": 80}, {"time": 65040, "pitch": 42, "duration": 11, "velocity": 100}, {"time": 65285, "pitch": 36, "duration": 10, "velocity": 120}, {"time": 65285, "pitch": 38, "duration": 10, "velocity": 111}, {"time": 65285, "pitch": 46, "duration": 10, "velocity": 80}, {"time": 65523, "pitch": 42, "duration": 10, "velocity": 100}, {"time": 65643, "pitch": 38, "duration": 10, "velocity": 110}, {"time": 65762, "pitch": 36, "duration": 10, "velocity": 120}, {"time": 65762, "pitch": 46, "duration": 10, "velocity": 80}, {"time": 66001, "pitch": 42, "duration": 10, "velocity": 100}, {"time": 66240, "pitch": 36, "duration": 10, "velocity": 120}, {"time": 66240, "pitch": 38, "duration": 10, "velocity": 110}, {"time": 66240, "pitch": 46, "duration": 10, "velocity": 80}, {"time": 66479, "pitch": 42, "duration": 10, "velocity": 100}, {"time": 66598, "pitch": 38, "duration": 10, "velocity": 110}, {"time": 66717, "pitch": 36, "duration": 10, "velocity": 120}, {"time": 66717, "pitch": 46, "duration": 10, "velocity": 80}, {"time": 66956, "pitch": 42, "duration": 10, "velocity": 80}, {"time": 67076, "pitch": 42, "duration": 10, "velocity": 100}, {"time": 67195, "pitch": 36, "duration": 10, "velocity": 120}, {"time": 67195, "pitch": 38, "duration": 10, "velocity": 110}, {"time": 67195, "pitch": 46, "duration": 10, "velocity": 80}, {"time": 67439, "pitch": 42, "duration": 10, "velocity": 100}, {"time": 67561, "pitch": 38, "duration": 10, "velocity": 110}, {"time": 67683, "pitch": 36, "duration": 10, "velocity": 120}, {"time": 67683, "pitch": 46, "duration": 10, "velocity": 80}, {"time": 67803, "pitch": 38, "duration": 10, "velocity": 110}, {"time": 67922, "pitch": 42, "duration": 10, "velocity": 100}, {"time": 68161, "pitch": 36, "duration": 10, "velocity": 120}, {"time": 68161, "pitch": 38, "duration": 10, "velocity": 110}, {"time": 68161, "pitch": 46, "duration": 10, "velocity": 80}, {"time": 68400, "pitch": 42, "duration": 10, "velocity": 100}, {"time": 68519, "pitch": 38, "duration": 10, "velocity": 110}, {"time": 68639, "pitch": 36, "duration": 9, "velocity": 120}, {"time": 68639, "pitch": 46, "duration": 9, "velocity": 80}, {"time": 68877, "pitch": 42, "duration": 10, "velocity": 100}, {"time": 69116, "pitch": 36, "duration": 10, "velocity": 120}, {"time": 69116, "pitch": 38, "duration": 10, "velocity": 110}, {"time": 69116, "pitch": 46, "duration": 10, "velocity": 80}, {"time": 69360, "pitch": 42, "duration": 10, "velocity": 100}, {"time": 69482, "pitch": 38, "duration": 11, "velocity": 110}, {"time": 69604, "pitch": 36, "duration": 10, "velocity": 120}, {"time": 69604, "pitch": 46, "duration": 10, "velocity": 80}, {"time": 69724, "pitch": 38, "duration": 10, "velocity": 110}, {"time": 69843, "pitch": 42, "duration": 10, "velocity": 100}, {"time": 70082, "pitch": 36, "duration": 10, "velocity": 120}, {"time": 70082, "pitch": 38, "duration": 10, "velocity": 110}, {"time": 70082, "pitch": 46, "duration": 10, "velocity": 80}, {"time": 70321, "pitch": 42, "duration": 10, "velocity": 100}, {"time": 70560, "pitch": 36, "duration": 10, "velocity": 120}, {"time": 70560, "pitch": 46, "duration": 10, "velocity": 80}, {"time": 70798, "pitch": 42, "duration": 10, "velocity": 100}, {"time": 71037, "pitch": 36, "duration": 10, "velocity": 120}, {"time": 71037, "pitch": 38, "duration": 10, "velocity": 110}, {"time": 71037, "pitch": 46, "duration": 10, "velocity": 80}, {"time": 71276, "pitch": 42, "duration": 10, "velocity": 100}, {"time": 71395, "pitch": 38, "duration": 10, "velocity": 110}, {"time": 71515, "pitch": 36, "duration": 10, "velocity": 120}, {"time": 71515, "pitch": 46, "duration": 10, "velocity": 80}, {"time": 71637, "pitch": 38, "duration": 10, "velocity": 110}, {"time": 71759, "pitch": 42, "duration": 10, "velocity": 80}, {"time": 72003, "pitch": 36, "duration": 10, "velocity": 120}, {"time": 72003, "pitch": 38, "duration": 10, "velocity": 110}, {"time": 72003, "pitch": 46, "duration": 10, "velocity": 80}, {"time": 72242, "pitch": 42, "duration": 10, "velocity": 100}, {"time": 72481, "pitch": 36, "duration": 10, "velocity": 120}, {"time": 72481, "pitch": 46, "duration": 10, "velocity": 80}, {"time": 72720, "pitch": 42, "duration": 10, "velocity": 100}, {"time": 72958, "pitch": 36, "duration": 10, "velocity": 120}, {"time": 72958, "pitch": 38, "duration": 10, "velocity": 110}, {"time": 72958, "pitch": 46, "duration": 10, "velocity": 80}, {"time": 73197, "pitch": 42, "duration": 10, "velocity": 100}, {"time": 73317, "pitch": 38, "duration": 10, "velocity": 110}, {"time": 73436, "pitch": 36, "duration": 10, "velocity": 120}, {"time": 73436, "pitch": 46, "duration": 10, "velocity": 80}, {"time": 73558, "pitch": 38, "duration": 10, "velocity": 110}, {"time": 73680, "pitch": 42, "duration": 10, "velocity": 100}, {"time": 73924, "pitch": 36, "duration": 10, "velocity": 120}, {"time": 73924, "pitch": 38, "duration": 10, "velocity": 110}, {"time": 73924, "pitch": 46, "duration": 10, "velocity": 80}, {"time": 74163, "pitch": 42, "duration": 10, "velocity": 100}, {"time": 74402, "pitch": 36, "duration": 10, "velocity": 120}, {"time": 74402, "pitch": 46, "duration": 10, "velocity": 80}, {"time": 74641, "pitch": 42, "duration": 10, "velocity": 100}, {"time": 74879, "pitch": 36, "duration": 10, "velocity": 120}, {"time": 74879, "pitch": 38, "duration": 10, "velocity": 110}, {"time": 74879, "pitch": 46, "duration": 10, "velocity": 80}, {"time": 75118, "pitch": 42, "duration": 10, "velocity": 100}, {"time": 75357, "pitch": 36, "duration": 10, "velocity": 120}, {"time": 75357, "pitch": 38, "duration": 10, "velocity": 110}, {"time": 75357, "pitch": 46, "duration": 10, "velocity": 80}, {"time": 75477, "pitch": 42, "duration": 9, "velocity": 100}, {"time": 75596, "pitch": 38, "duration": 10, "velocity": 110}, {"time": 75596, "pitch": 42, "duration": 10, "velocity": 80}, {"time": 75835, "pitch": 36, "duration": 10, "velocity": 120}, {"time": 75835, "pitch": 38, "duration": 10, "velocity": 110}, {"time": 75835, "pitch": 46, "duration": 10, "velocity": 80}, {"time": 76079, "pitch": 42, "duration": 10, "velocity": 100}, {"time": 76201, "pitch": 38, "duration": 10, "velocity": 110}, {"time": 76323, "pitch": 36, "duration": 10, "velocity": 120}, {"time": 76323, "pitch": 46, "duration": 10, "velocity": 80}, {"time": 76562, "pitch": 42, "duration": 10, "velocity": 100}, {"time": 76801, "pitch": 36, "duration": 10, "velocity": 120}, {"time": 76801, "pitch": 38, "duration": 10, "velocity": 110}, {"time": 76801, "pitch": 46, "duration": 10, "velocity": 80}, {"time": 77039, "pitch": 42, "duration": 10, "velocity": 100}, {"time": 77159, "pitch": 38, "duration": 10, "velocity": 110}, {"time": 77278, "pitch": 36, "duration": 10, "velocity": 120}, {"time": 77278, "pitch": 46, "duration": 10, "velocity": 80}, {"time": 77398, "pitch": 38, "duration": 10, "velocity": 110}, {"time": 77517, "pitch": 42, "duration": 10, "velocity": 100}, {"time": 77756, "pitch": 36, "duration": 10, "velocity": 120}, {"time": 77756, "pitch": 38, "duration": 10, "velocity": 110}, {"time": 77756, "pitch": 46, "duration": 10, "velocity": 80}, {"time": 78000, "pitch": 42, "duration": 10, "velocity": 100}, {"time": 78244, "pitch": 36, "duration": 10, "velocity": 120}, {"time": 78244, "pitch": 42, "duration": 10, "velocity": 100}, {"time": 78483, "pitch": 38, "duration": 10, "velocity": 110}, {"time": 78722, "pitch": 36, "duration": 10, "velocity": 120}, {"time": 78722, "pitch": 42, "duration": 10, "velocity": 100}, {"time": 78841, "pitch": 38, "duration": 10, "velocity": 110}, {"time": 79080, "pitch": 42, "duration": 10, "velocity": 100}, {"time": 79199, "pitch": 36, "duration": 10, "velocity": 120}, {"time": 79199, "pitch": 38, "duration": 10, "velocity": 110}, {"time": 79438, "pitch": 42, "duration": 10, "velocity": 100}, {"time": 79558, "pitch": 38, "duration": 9, "velocity": 110}, {"time": 79677, "pitch": 36, "duration": 10, "velocity": 120}, {"time": 79799, "pitch": 42, "duration": 10, "velocity": 100}, {"time": 79921, "pitch": 38, "duration": 10, "velocity": 110}, {"time": 80165, "pitch": 36, "duration": 10, "velocity": 120}, {"time": 80165, "pitch": 42, "duration": 10, "velocity": 80}, {"time": 80404, "pitch": 46, "duration": 10, "velocity": 80}, {"time": 80643, "pitch": 36, "duration": 10, "velocity": 120}, {"time": 80643, "pitch": 38, "duration": 10, "velocity": 111}, {"time": 80643, "pitch": 42, "duration": 10, "velocity": 80}, {"time": 80882, "pitch": 46, "duration": 10, "velocity": 80}, {"time": 81001, "pitch": 38, "duration": 10, "velocity": 110}, {"time": 81120, "pitch": 36, "duration": 10, "velocity": 120}, {"time": 81120, "pitch": 42, "duration": 10, "velocity": 100}, {"time": 81359, "pitch": 46, "duration": 10, "velocity": 80}, {"time": 81598, "pitch": 36, "duration": 10, "velocity": 120}, {"time": 81598, "pitch": 38, "duration": 10, "velocity": 110}, {"time": 81598, "pitch": 42, "duration": 10, "velocity": 80}, {"time": 81837, "pitch": 46, "duration": 10, "velocity": 80}, {"time": 81956, "pitch": 38, "duration": 10, "velocity": 110}, {"time": 82076, "pitch": 36, "duration": 10, "velocity": 120}, {"time": 82076, "pitch": 42, "duration": 10, "velocity": 100}, {"time": 82320, "pitch": 46, "duration": 10, "velocity": 80}, {"time": 82442, "pitch": 42, "duration": 10, "velocity": 100}, {"time": 82564, "pitch": 36, "duration": 10, "velocity": 120}, {"time": 82564, "pitch": 38, "duration": 10, "velocity": 110}, {"time": 82564, "pitch": 42, "duration": 10, "velocity": 80}, {"time": 82803, "pitch": 46, "duration": 10, "velocity": 80}, {"time": 82922, "pitch": 38, "duration": 10, "velocity": 110}, {"time": 83042, "pitch": 36, "duration": 10, "velocity": 120}, {"time": 83042, "pitch": 42, "duration": 10, "velocity": 100}, {"time": 83161, "pitch": 38, "duration": 10, "velocity": 110}, {"time": 83280, "pitch": 46, "duration": 10, "velocity": 80}, {"time": 83519, "pitch": 36, "duration": 10, "velocity": 120}, {"time": 83519, "pitch": 38, "duration": 10, "velocity": 110}, {"time": 83519, "pitch": 42, "duration": 10, "velocity": 80}, {"time": 83758, "pitch": 46, "duration": 10, "velocity": 80}, {"time": 83877, "pitch": 38, "duration": 10, "velocity": 110}, {"time": 83997, "pitch": 36, "duration": 10, "velocity": 120}, {"time": 83997, "pitch": 42, "duration": 10, "velocity": 80}, {"time": 84241, "pitch": 46, "duration": 10, "velocity": 80}, {"time": 84485, "pitch": 36, "duration": 10, "velocity": 120}, {"time": 84485, "pitch": 38, "duration": 10, "velocity": 110}, {"time": 84485, "pitch": 42, "duration": 10, "velocity": 80}, {"time": 84724, "pitch": 46, "duration": 10, "velocity": 80}, {"time": 84843, "pitch": 38, "duration": 10, "velocity": 110}, {"time": 84963, "pitch": 36, "duration": 10, "velocity": 120}, {"time": 84963, "pitch": 42, "duration": 10, "velocity": 100}, {"time": 85082, "pitch": 38, "duration": 10, "velocity": 110}, {"time": 85201, "pitch": 46, "duration": 10, "velocity": 80}, {"time": 85440, "pitch": 36, "duration": 10, "velocity": 120}, {"time": 85440, "pitch": 38, "duration": 10, "velocity": 110}, {"time": 85440, "pitch": 42, "duration": 10, "velocity": 80}, {"time": 85679, "pitch": 46, "duration": 10, "velocity": 80}, {"time": 85918, "pitch": 36, "duration": 10, "velocity": 120}, {"time": 85918, "pitch": 42, "duration": 10, "velocity": 80}, {"time": 86157, "pitch": 46, "duration": 10, "velocity": 80}, {"time": 86396, "pitch": 36, "duration": 10, "velocity": 120}, {"time": 86396, "pitch": 38, "duration": 10, "velocity": 110}, {"time": 86396, "pitch": 42, "duration": 10, "velocity": 80}, {"time": 86640, "pitch": 46, "duration": 10, "velocity": 80}, {"time": 86762, "pitch": 38, "duration": 10, "velocity": 110}, {"time": 86884, "pitch": 36, "duration": 10, "velocity": 120}, {"time": 86884, "pitch": 42, "duration": 10, "velocity": 100}, {"time": 87003, "pitch": 38, "duration": 10, "velocity": 110}, {"time": 87123, "pitch": 46, "duration": 10, "velocity": 80}, {"time": 87361, "pitch": 36, "duration": 10, "velocity": 120}, {"time": 87361, "pitch": 38, "duration": 10, "velocity": 110}, {"time": 87361, "pitch": 42, "duration": 10, "velocity": 80}, {"time": 87600, "pitch": 46, "duration": 10, "velocity": 80}, {"time": 87839, "pitch": 36, "duration": 10, "velocity": 120}, {"time": 87839, "pitch": 42, "duration": 10, "velocity": 80}, {"time": 88078, "pitch": 46, "duration": 10, "velocity": 80}, {"time": 88317, "pitch": 36, "duration": 10, "velocity": 120}, {"time": 88317, "pitch": 38, "duration": 10, "velocity": 110}, {"time": 88317, "pitch": 42, "duration": 10, "velocity": 80}, {"time": 88561, "pitch": 46, "duration": 10, "velocity": 80}, {"time": 88683, "pitch": 38, "duration": 10, "velocity": 110}, {"time": 88805, "pitch": 36, "duration": 10, "velocity": 120}, {"time": 88805, "pitch": 42, "duration": 10, "velocity": 100}, {"time": 88924, "pitch": 38, "duration": 10, "velocity": 110}, {"time": 89044, "pitch": 46, "duration": 10, "velocity": 80}, {"time": 89283, "pitch": 36, "duration": 9, "velocity": 120}, {"time": 89283, "pitch": 38, "duration": 9, "velocity": 110}, {"time": 89283, "pitch": 42, "duration": 9, "velocity": 80}, {"time": 89521, "pitch": 46, "duration": 10, "velocity": 80}, {"time": 89760, "pitch": 36, "duration": 10, "velocity": 120}, {"time": 89760, "pitch": 42, "duration": 10, "velocity": 80}, {"time": 89999, "pitch": 46, "duration": 10, "velocity": 80}, {"time": 90238, "pitch": 36, "duration": 10, "velocity": 120}, {"time": 90238, "pitch": 38, "duration": 10, "velocity": 110}, {"time": 90238, "pitch": 42, "duration": 10, "velocity": 80}, {"time": 90477, "pitch": 46, "duration": 9, "velocity": 80}, {"time": 90715, "pitch": 36, "duration": 10, "velocity": 120}, {"time": 90715, "pitch": 38, "duration": 10, "velocity": 110}, {"time": 90715, "pitch": 42, "duration": 10, "velocity": 80}, {"time": 90837, "pitch": 42, "duration": 11, "velocity": 100}, {"time": 90959, "pitch": 38, "duration": 11, "velocity": 110}, {"time": 90959, "pitch": 46, "duration": 11, "velocity": 80}, {"time": 91204, "pitch": 36, "duration": 10, "velocity": 120}, {"time": 91204, "pitch": 38, "duration": 10, "velocity": 110}, {"time": 91204, "pitch": 42, "duration": 10, "velocity": 80}, {"time": 91442, "pitch": 46, "duration": 10, "velocity": 80}, {"time": 91562, "pitch": 38, "duration": 10, "velocity": 110}, {"time": 91681, "pitch": 36, "duration": 10, "velocity": 120}, {"time": 91681, "pitch": 42, "duration": 10, "velocity": 80}, {"time": 91920, "pitch": 46, "duration": 10, "velocity": 80}, {"time": 92159, "pitch": 36, "duration": 10, "velocity": 120}, {"time": 92159, "pitch": 38, "duration": 10, "velocity": 110}, {"time": 92159, "pitch": 42, "duration": 10, "velocity": 80}, {"time": 92398, "pitch": 46, "duration": 10, "velocity": 80}, {"time": 92517, "pitch": 38, "duration": 10, "velocity": 110}, {"time": 92636, "pitch": 36, "duration": 11, "velocity": 120}, {"time": 92636, "pitch": 42, "duration": 11, "velocity": 100}, {"time": 92758, "pitch": 38, "duration": 11, "velocity": 110}, {"time": 92881, "pitch": 46, "duration": 10, "velocity": 80}, {"time": 93125, "pitch": 36, "duration": 10, "velocity": 120}, {"time": 93125, "pitch": 38, "duration": 10, "velocity": 110}, {"time": 93125, "pitch": 42, "duration": 10, "velocity": 80}, {"time": 93364, "pitch": 46, "duration": 9, "velocity": 80}, {"time": 93602, "pitch": 36, "duration": 10, "velocity": 120}, {"time": 93602, "pitch": 42, "duration": 10, "velocity": 100}, {"time": 93841, "pitch": 38, "duration": 10, "velocity": 110}, {"time": 93841, "pitch": 46, "duration": 10, "velocity": 80}, {"time": 94080, "pitch": 36, "duration": 10, "velocity": 120}, {"time": 94080, "pitch": 42, "duration": 10, "velocity": 100}, {"time": 94199, "pitch": 38, "duration": 10, "velocity": 110}, {"time": 94319, "pitch": 46, "duration": 10, "velocity": 80}, {"time": 94438, "pitch": 42, "duration": 10, "velocity": 100}, {"time": 94558, "pitch": 36, "duration": 10, "velocity": 120}, {"time": 94558, "pitch": 38, "duration": 10, "velocity": 110}, {"time": 94558, "pitch": 42, "duration": 10, "velocity": 80}, {"time": 94796, "pitch": 46, "duration": 10, "velocity": 80}, {"time": 94916, "pitch": 38, "duration": 10, "velocity": 110}, {"time": 95035, "pitch": 36, "duration": 10, "velocity": 120}, {"time": 95035, "pitch": 42, "duration": 10, "velocity": 80}, {"time": 95157, "pitch": 42, "duration": 10, "velocity": 100}, {"time": 95279, "pitch": 38, "duration": 10, "velocity": 110}, {"time": 95279, "pitch": 46, "duration": 10, "velocity": 80}, {"time": 95523, "pitch": 36, "duration": 10, "velocity": 120}, {"time": 95523, "pitch": 42, "duration": 10, "velocity": 80}, {"time": 95762, "pitch": 46, "duration": 10, "velocity": 80}, {"time": 96001, "pitch": 36, "duration": 10, "velocity": 120}, {"time": 96001, "pitch": 38, "duration": 10, "velocity": 111}, {"time": 96001, "pitch": 42, "duration": 10, "velocity": 80}, {"time": 96240, "pitch": 46, "duration": 10, "velocity": 80}, {"time": 96359, "pitch": 38, "duration": 10, "velocity": 110}, {"time": 96479, "pitch": 36, "duration": 10, "velocity": 120}, {"time": 96479, "pitch": 42, "duration": 10, "velocity": 100}, {"time": 96717, "pitch": 46, "duration": 10, "velocity": 80}, {"time": 96956, "pitch": 36, "duration": 10, "velocity": 120}, {"time": 96956, "pitch": 38, "duration": 10, "velocity": 110}, {"time": 96956, "pitch": 42, "duration": 10, "velocity": 80}, {"time": 97200, "pitch": 46, "duration": 11, "velocity": 80}, {"time": 97323, "pitch": 38, "duration": 10, "velocity": 110}, {"time": 97445, "pitch": 36, "duration": 10, "velocity": 120}, {"time": 97445, "pitch": 42, "duration": 10, "velocity": 100}, {"time": 97683, "pitch": 46, "duration": 10, "velocity": 80}, {"time": 97803, "pitch": 42, "duration": 10, "velocity": 100}, {"time": 97922, "pitch": 36, "duration": 10, "velocity": 120}, {"time": 97922, "pitch": 38, "duration": 10, "velocity": 110}, {"time": 97922, "pitch": 42, "duration": 10, "velocity": 80}, {"time": 98161, "pitch": 46, "duration": 10, "velocity": 80}, {"time": 98280, "pitch": 38, "duration": 10, "velocity": 110}, {"time": 98400, "pitch": 36, "duration": 10, "velocity": 120}, {"time": 98400, "pitch": 42, "duration": 10, "velocity": 100}, {"time": 98519, "pitch": 38, "duration": 10, "velocity": 110}, {"time": 98639, "pitch": 46, "duration": 10, "velocity": 80}, {"time": 98877, "pitch": 36, "duration": 10, "velocity": 120}, {"time": 98877, "pitch": 38, "duration": 10, "velocity": 110}, {"time": 98877, "pitch": 42, "duration": 10, "velocity": 80}, {"time": 99116, "pitch": 46, "duration": 10, "velocity": 80}, {"time": 99236, "pitch": 38, "duration": 10, "velocity": 110}, {"time": 99355, "pitch": 36, "duration": 10, "velocity": 120}, {"time": 99355, "pitch": 42, "duration": 10, "velocity": 80}, {"time": 99599, "pitch": 46, "duration": 10, "velocity": 80}, {"time": 99843, "pitch": 36, "duration": 10, "velocity": 120}, {"time": 99843, "pitch": 38, "duration": 10, "velocity": 110}, {"time": 99843, "pitch": 42, "duration": 10, "velocity": 80}, {"time": 100082, "pitch": 46, "duration": 10, "velocity": 80}, {"time": 100202, "pitch": 38, "duration": 9, "velocity": 110}, {"time": 100321, "pitch": 36, "duration": 10, "velocity": 120}, {"time": 100321, "pitch": 42, "duration": 10, "velocity": 100}, {"time": 100440, "pitch": 38, "duration": 10, "velocity": 110}, {"time": 100560, "pitch": 46, "duration": 10, "velocity": 80}, {"time": 100799, "pitch": 36, "duration": 9, "velocity": 120}, {"time": 100799, "pitch": 38, "duration": 9, "velocity": 110}, {"time": 100799, "pitch": 42, "duration": 9, "velocity": 80}, {"time": 101037, "pitch": 46, "duration": 10, "velocity": 80}, {"time": 101276, "pitch": 36, "duration": 10, "velocity": 120}, {"time": 101276, "pitch": 42, "duration": 10, "velocity": 80}, {"time": 101520, "pitch": 46, "duration": 10, "velocity": 80}, {"time": 101764, "pitch": 36, "duration": 10, "velocity": 120}, {"time": 101764, "pitch": 38, "duration": 10, "velocity": 110}, {"time": 101764, "pitch": 42, "duration": 10, "velocity": 80}, {"time": 102003, "pitch": 46, "duration": 10, "velocity": 80}, {"time": 102123, "pitch": 38, "duration": 10, "velocity": 110}, {"time": 102242, "pitch": 36, "duration": 10, "velocity": 120}, {"time": 102242, "pitch": 42, "duration": 10, "velocity": 100}, {"time": 102361, "pitch": 38, "duration": 10, "velocity": 110}, {"time": 102481, "pitch": 46, "duration": 10, "velocity": 80}, {"time": 102720, "pitch": 36, "duration": 10, "velocity": 120}, {"time": 102720, "pitch": 38, "duration": 10, "velocity": 110}, {"time": 102720, "pitch": 42, "duration": 10, "velocity": 80}, {"time": 102958, "pitch": 46, "duration": 10, "velocity": 80}, {"time": 103197, "pitch": 36, "duration": 10, "velocity": 120}, {"time": 103197, "pitch": 42, "duration": 10, "velocity": 80}, {"time": 103436, "pitch": 46, "duration": 10, "velocity": 80}, {"time": 103675, "pitch": 36, "duration": 10, "velocity": 120}, {"time": 103675, "pitch": 38, "duration": 10, "velocity": 110}, {"time": 103675, "pitch": 42, "duration": 10, "velocity": 80}, {"time": 103919, "pitch": 46, "duration": 10, "velocity": 80}, {"time": 104041, "pitch": 38, "duration": 10, "velocity": 110}, {"time": 104163, "pitch": 36, "duration": 10, "velocity": 120}, {"time": 104163, "pitch": 42, "duration": 10, "velocity": 100}, {"time": 104283, "pitch": 38, "duration": 9, "velocity": 110}, {"time": 104402, "pitch": 46, "duration": 10, "velocity": 80}, {"time": 104641, "pitch": 36, "duration": 10, "velocity": 120}, {"time": 104641, "pitch": 38, "duration": 10, "velocity": 110}, {"time": 104641, "pitch": 42, "duration": 10, "velocity": 80}, {"time": 104880, "pitch": 46, "duration": 10, "velocity": 80}, {"time": 105118, "pitch": 36, "duration": 10, "velocity": 120}, {"time": 105118, "pitch": 42, "duration": 10, "velocity": 80}, {"time": 105357, "pitch": 46, "duration": 10, "velocity": 80}, {"time": 105596, "pitch": 36, "duration": 10, "velocity": 120}, {"time": 105596, "pitch": 38, "duration": 10, "velocity": 110}, {"time": 105596, "pitch": 42, "duration": 10, "velocity": 80}, {"time": 105840, "pitch": 46, "duration": 10, "velocity": 80}, {"time": 106084, "pitch": 36, "duration": 10, "velocity": 120}, {"time": 106084, "pitch": 38, "duration": 10, "velocity": 110}, {"time": 106084, "pitch": 42, "duration": 10, "velocity": 80}, {"time": 106204, "pitch": 42, "duration": 10, "velocity": 100}, {"time": 106323, "pitch": 38, "duration": 10, "velocity": 110}, {"time": 106323, "pitch": 46, "duration": 10, "velocity": 80}, {"time": 106562, "pitch": 36, "duration": 10, "velocity": 120}, {"time": 106562, "pitch": 38, "duration": 10, "velocity": 110}, {"time": 106562, "pitch": 42, "duration": 10, "velocity": 80}, {"time": 106801, "pitch": 46, "duration": 10, "velocity": 80}, {"time": 106920, "pitch": 38, "duration": 10, "velocity": 110}, {"time": 107039, "pitch": 36, "duration": 10, "velocity": 120}, {"time": 107039, "pitch": 42, "duration": 10, "velocity": 80}, {"time": 107278, "pitch": 46, "duration": 10, "velocity": 80}, {"time": 107517, "pitch": 36, "duration": 10, "velocity": 120}, {"time": 107517, "pitch": 38, "duration": 10, "velocity": 110}, {"time": 107517, "pitch": 42, "duration": 10, "velocity": 80}, {"time": 107756, "pitch": 46, "duration": 10, "velocity": 80}, {"time": 107875, "pitch": 38, "duration": 10, "velocity": 110}, {"time": 107995, "pitch": 36, "duration": 10, "velocity": 120}, {"time": 107995, "pitch": 42, "duration": 10, "velocity": 100}, {"time": 108117, "pitch": 38, "duration": 10, "velocity": 110}, {"time": 108239, "pitch": 46, "duration": 10, "velocity": 80}, {"time": 108483, "pitch": 36, "duration": 10, "velocity": 120}, {"time": 108483, "pitch": 38, "duration": 10, "velocity": 110}, {"time": 108483, "pitch": 42, "duration": 10, "velocity": 80}, {"time": 108722, "pitch": 46, "duration": 10, "velocity": 80}, {"time": 108961, "pitch": 36, "duration": 10, "velocity": 120}, {"time": 108961, "pitch": 42, "duration": 10, "velocity": 100}, {"time": 109199, "pitch": 38, "duration": 10, "velocity": 110}, {"time": 109438, "pitch": 36, "duration": 10, "velocity": 120}, {"time": 109438, "pitch": 42, "duration": 10, "velocity": 100}, {"time": 109558, "pitch": 38, "duration": 10, "velocity": 110}, {"time": 109796, "pitch": 42, "duration": 10, "velocity": 100}, {"time": 109916, "pitch": 36, "duration": 10, "velocity": 120}, {"time": 109916, "pitch": 38, "duration": 10, "velocity": 110}, {"time": 110160, "pitch": 42, "duration": 10, "velocity": 100}, {"time": 110282, "pitch": 38, "duration": 10, "velocity": 110}, {"time": 110404, "pitch": 36, "duration": 10, "velocity": 120}, {"time": 110523, "pitch": 42, "duration": 10, "velocity": 100}, {"time": 110643, "pitch": 38, "duration": 10, "velocity": 110}, {"time": 110882, "pitch": 36, "duration": 10, "velocity": 120}, {"time": 111121, "pitch": 42, "duration": 9, "velocity": 100}, {"time": 111359, "pitch": 36, "duration": 10, "velocity": 120}, {"time": 111359, "pitch": 38, "duration": 10, "velocity": 111}, {"time": 111598, "pitch": 42, "duration": 10, "velocity": 100}, {"time": 111718, "pitch": 38, "duration": 9, "velocity": 110}, {"time": 111837, "pitch": 36, "duration": 10, "velocity": 120}, {"time": 111837, "pitch": 42, "duration": 10, "velocity": 100}, {"time": 112081, "pitch": 42, "duration": 10, "velocity": 100}, {"time": 112325, "pitch": 36, "duration": 10, "velocity": 120}, {"time": 112325, "pitch": 38, "duration": 10, "velocity": 110}, {"time": 112564, "pitch": 42, "duration": 10, "velocity": 100}, {"time": 112683, "pitch": 38, "duration": 10, "velocity": 110}, {"time": 112803, "pitch": 36, "duration": 10, "velocity": 120}, {"time": 112803, "pitch": 42, "duration": 10, "velocity": 100}, {"time": 113161, "pitch": 42, "duration": 10, "velocity": 100}, {"time": 113280, "pitch": 36, "duration": 10, "velocity": 120}, {"time": 113280, "pitch": 38, "duration": 10, "velocity": 110}, {"time": 113519, "pitch": 42, "duration": 10, "velocity": 100}, {"time": 113639, "pitch": 38, "duration": 10, "velocity": 110}, {"time": 113758, "pitch": 36, "duration": 10, "velocity": 120}, {"time": 113758, "pitch": 42, "duration": 10, "velocity": 100}, {"time": 113877, "pitch": 38, "duration": 10, "velocity": 110}, {"time": 113997, "pitch": 42, "duration": 10, "velocity": 100}, {"time": 114236, "pitch": 36, "duration": 10, "velocity": 120}, {"time": 114236, "pitch": 38, "duration": 10, "velocity": 110}, {"time": 114480, "pitch": 42, "duration": 10, "velocity": 100}, {"time": 114602, "pitch": 38, "duration": 10, "velocity": 110}, {"time": 114724, "pitch": 36, "duration": 10, "velocity": 120}, {"time": 114963, "pitch": 42, "duration": 10, "velocity": 100}, {"time": 115202, "pitch": 36, "duration": 9, "velocity": 120}, {"time": 115202, "pitch": 38, "duration": 9, "velocity": 110}, {"time": 115440, "pitch": 42, "duration": 10, "velocity": 100}, {"time": 115560, "pitch": 38, "duration": 10, "velocity": 110}, {"time": 115679, "pitch": 36, "duration": 10, "velocity": 120}, {"time": 115679, "pitch": 42, "duration": 10, "velocity": 100}, {"time": 115799, "pitch": 38, "duration": 10, "velocity": 110}, {"time": 115918, "pitch": 42, "duration": 10, "velocity": 100}, {"time": 116157, "pitch": 36, "duration": 10, "velocity": 120}, {"time": 116157, "pitch": 38, "duration": 10, "velocity": 110}, {"time": 116401, "pitch": 42, "duration": 10, "velocity": 100}, {"time": 116645, "pitch": 36, "duration": 10, "velocity": 120}, {"time": 116884, "pitch": 42, "duration": 10, "velocity": 100}, {"time": 117123, "pitch": 36, "duration": 10, "velocity": 120}, {"time": 117123, "pitch": 38, "duration": 10, "velocity": 110}, {"time": 117361, "pitch": 42, "duration": 10, "velocity": 100}, {"time": 117481, "pitch": 38, "duration": 10, "velocity": 110}, {"time": 117600, "pitch": 36, "duration": 10, "velocity": 120}, {"time": 117600, "pitch": 42, "duration": 10, "velocity": 100}, {"time": 117720, "pitch": 38, "duration": 10, "velocity": 110}, {"time": 118078, "pitch": 36, "duration": 10, "velocity": 120}, {"time": 118078, "pitch": 38, "duration": 10, "velocity": 110}, {"time": 118317, "pitch": 42, "duration": 10, "velocity": 100}, {"time": 118555, "pitch": 36, "duration": 11, "velocity": 120}, {"time": 118800, "pitch": 42, "duration": 10, "velocity": 100}, {"time": 119044, "pitch": 36, "duration": 10, "velocity": 120}, {"time": 119044, "pitch": 38, "duration": 10, "velocity": 110}, {"time": 119283, "pitch": 42, "duration": 10, "velocity": 100}, {"time": 119402, "pitch": 38, "duration": 10, "velocity": 110}, {"time": 119521, "pitch": 36, "duration": 10, "velocity": 120}, {"time": 119521, "pitch": 42, "duration": 10, "velocity": 100}, {"time": 119641, "pitch": 38, "duration": 10, "velocity": 110}, {"time": 119760, "pitch": 42, "duration": 10, "velocity": 100}, {"time": 119999, "pitch": 36, "duration": 10, "velocity": 120}, {"time": 119999, "pitch": 38, "duration": 10, "velocity": 110}, {"time": 120238, "pitch": 42, "duration": 10, "velocity": 100}, {"time": 120477, "pitch": 36, "duration": 10, "velocity": 120}, {"time": 120721, "pitch": 42, "duration": 10, "velocity": 100}, {"time": 120965, "pitch": 36, "duration": 10, "velocity": 120}, {"time": 120965, "pitch": 38, "duration": 10, "velocity": 110}, {"time": 121204, "pitch": 42, "duration": 10, "velocity": 100}, {"time": 121442, "pitch": 36, "duration": 10, "velocity": 120}, {"time": 121442, "pitch": 38, "duration": 10, "velocity": 110}, {"time": 121562, "pitch": 42, "duration": 10, "velocity": 100}, {"time": 121681, "pitch": 38, "duration": 10, "velocity": 110}, {"time": 121920, "pitch": 36, "duration": 10, "velocity": 120}, {"time": 121920, "pitch": 38, "duration": 10, "velocity": 110}, {"time": 122159, "pitch": 42, "duration": 10, "velocity": 100}, {"time": 122278, "pitch": 38, "duration": 10, "velocity": 110}, {"time": 122398, "pitch": 36, "duration": 10, "velocity": 120}, {"time": 122637, "pitch": 42, "duration": 9, "velocity": 100}, {"time": 122875, "pitch": 36, "duration": 10, "velocity": 120}, {"time": 122875, "pitch": 38, "duration": 10, "velocity": 110}, {"time": 123119, "pitch": 42, "duration": 11, "velocity": 100}, {"time": 123242, "pitch": 38, "duration": 10, "velocity": 110}, {"time": 123364, "pitch": 36, "duration": 10, "velocity": 120}, {"time": 123364, "pitch": 42, "duration": 10, "velocity": 100}, {"time": 123483, "pitch": 38, "duration": 10, "velocity": 110}, {"time": 123602, "pitch": 42, "duration": 10, "velocity": 100}, {"time": 123841, "pitch": 36, "duration": 10, "velocity": 120}, {"time": 123841, "pitch": 38, "duration": 10, "velocity": 110}, {"time": 124080, "pitch": 42, "duration": 10, "velocity": 100}, {"time": 124319, "pitch": 36, "duration": 10, "velocity": 120}, {"time": 124319, "pitch": 42, "duration": 10, "velocity": 100}, {"time": 124558, "pitch": 38, "duration": 10, "velocity": 110}, {"time": 124796, "pitch": 36, "duration": 11, "velocity": 120}, {"time": 124796, "pitch": 42, "duration": 11, "velocity": 100}, {"time": 124918, "pitch": 38, "duration": 11, "velocity": 110}, {"time": 125163, "pitch": 42, "duration": 10, "velocity": 100}, {"time": 125285, "pitch": 36, "duration": 10, "velocity": 120}, {"time": 125285, "pitch": 38, "duration": 10, "velocity": 110}, {"time": 125524, "pitch": 42, "duration": 9, "velocity": 100}, {"time": 125643, "pitch": 38, "duration": 10, "velocity": 110}, {"time": 125762, "pitch": 36, "duration": 10, "velocity": 120}, {"time": 125882, "pitch": 42, "duration": 10, "velocity": 100}, {"time": 126001, "pitch": 38, "duration": 10, "velocity": 110}, {"time": 126240, "pitch": 36, "duration": 10, "velocity": 120}, {"time": 126479, "pitch": 46, "duration": 10, "velocity": 80}, {"time": 126718, "pitch": 36, "duration": 10, "velocity": 120}, {"time": 126718, "pitch": 38, "duration": 10, "velocity": 111}, {"time": 126718, "pitch": 42, "duration": 10, "velocity": 80}, {"time": 126956, "pitch": 42, "duration": 10, "velocity": 100}, {"time": 127076, "pitch": 38, "duration": 10, "velocity": 110}, {"time": 127195, "pitch": 36, "duration": 10, "velocity": 120}, {"time": 127195, "pitch": 42, "duration": 10, "velocity": 100}, {"time": 127439, "pitch": 46, "duration": 10, "velocity": 80}, {"time": 127683, "pitch": 36, "duration": 10, "velocity": 120}, {"time": 127683, "pitch": 38, "duration": 10, "velocity": 110}, {"time": 127683, "pitch": 42, "duration": 10, "velocity": 80}, {"time": 127922, "pitch": 42, "duration": 10, "velocity": 100}, {"time": 128042, "pitch": 38, "duration": 10, "velocity": 110}, {"time": 128161, "pitch": 36, "duration": 10, "velocity": 120}, {"time": 128161, "pitch": 42, "duration": 10, "velocity": 100}, {"time": 128400, "pitch": 46, "duration": 10, "velocity": 80}, {"time": 128519, "pitch": 42, "duration": 10, "velocity": 100}, {"time": 128639, "pitch": 36, "duration": 10, "velocity": 120}, {"time": 128639, "pitch": 38, "duration": 10, "velocity": 110}, {"time": 128639, "pitch": 42, "duration": 10, "velocity": 80}, {"time": 128877, "pitch": 42, "duration": 10, "velocity": 100}, {"time": 128997, "pitch": 38, "duration": 10, "velocity": 110}, {"time": 129116, "pitch": 36, "duration": 10, "velocity": 120}, {"time": 129116, "pitch": 42, "duration": 10, "velocity": 100}, {"time": 129238, "pitch": 38, "duration": 10, "velocity": 110}, {"time": 129360, "pitch": 46, "duration": 11, "velocity": 80}, {"time": 129605, "pitch": 36, "duration": 10, "velocity": 120}, {"time": 129605, "pitch": 38, "duration": 10, "velocity": 110}, {"time": 129605, "pitch": 42, "duration": 10, "velocity": 80}, {"time": 129843, "pitch": 42, "duration": 10, "velocity": 100}, {"time": 129963, "pitch": 38, "duration": 10, "velocity": 110}, {"time": 130082, "pitch": 36, "duration": 10, "velocity": 120}, {"time": 130321, "pitch": 46, "duration": 10, "velocity": 80}, {"time": 130560, "pitch": 36, "duration": 10, "velocity": 120}, {"time": 130560, "pitch": 38, "duration": 10, "velocity": 110}, {"time": 130560, "pitch": 42, "duration": 10, "velocity": 80}, {"time": 130799, "pitch": 42, "duration": 10, "velocity": 100}, {"time": 130918, "pitch": 38, "duration": 10, "velocity": 110}, {"time": 131037, "pitch": 36, "duration": 10, "velocity": 120}, {"time": 131037, "pitch": 42, "duration": 10, "velocity": 100}, {"time": 131157, "pitch": 38, "duration": 10, "velocity": 110}, {"time": 131276, "pitch": 46, "duration": 10, "velocity": 80}, {"time": 131515, "pitch": 36, "duration": 10, "velocity": 120}, {"time": 131515, "pitch": 38, "duration": 10, "velocity": 110}, {"time": 131515, "pitch": 42, "duration": 10, "velocity": 80}, {"time": 131759, "pitch": 42, "duration": 10, "velocity": 100}, {"time": 132003, "pitch": 36, "duration": 10, "velocity": 120}, {"time": 132242, "pitch": 46, "duration": 10, "velocity": 80}, {"time": 132481, "pitch": 36, "duration": 10, "velocity": 120}, {"time": 132481, "pitch": 38, "duration": 10, "velocity": 110}, {"time": 132481, "pitch": 42, "duration": 10, "velocity": 80}, {"time": 132720, "pitch": 42, "duration": 10, "velocity": 100}, {"time": 132839, "pitch": 38, "duration": 10, "velocity": 110}, {"time": 132959, "pitch": 36, "duration": 9, "velocity": 120}, {"time": 132959, "pitch": 42, "duration": 9, "velocity": 100}, {"time": 133078, "pitch": 38, "duration": 10, "velocity": 110}, {"time": 133197, "pitch": 46, "duration": 10, "velocity": 80}, {"time": 133436, "pitch": 36, "duration": 10, "velocity": 120}, {"time": 133436, "pitch": 38, "duration": 10, "velocity": 110}, {"time": 133558, "pitch": 42, "duration": 10, "velocity": 80}, {"time": 133680, "pitch": 42, "duration": 10, "velocity": 100}, {"time": 133924, "pitch": 36, "duration": 10, "velocity": 120}, {"time": 134163, "pitch": 46, "duration": 10, "velocity": 80}, {"time": 134402, "pitch": 36, "duration": 10, "velocity": 120}, {"time": 134402, "pitch": 38, "duration": 10, "velocity": 110}, {"time": 134402, "pitch": 42, "duration": 10, "velocity": 80}, {"time": 134641, "pitch": 42, "duration": 10, "velocity": 100}, {"time": 134760, "pitch": 38, "duration": 10, "velocity": 110}, {"time": 134880, "pitch": 36, "duration": 10, "velocity": 120}, {"time": 134880, "pitch": 42, "duration": 10, "velocity": 100}, {"time": 134999, "pitch": 38, "duration": 10, "velocity": 110}, {"time": 135118, "pitch": 42, "duration": 10, "velocity": 100}, {"time": 135357, "pitch": 36, "duration": 10, "velocity": 120}, {"time": 135357, "pitch": 38, "duration": 10, "velocity": 110}, {"time": 135357, "pitch": 42, "duration": 10, "velocity": 80}, {"time": 135596, "pitch": 42, "duration": 10, "velocity": 100}, {"time": 135835, "pitch": 36, "duration": 10, "velocity": 120}, {"time": 136079, "pitch": 46, "duration": 10, "velocity": 80}, {"time": 136323, "pitch": 36, "duration": 10, "velocity": 120}, {"time": 136323, "pitch": 38, "duration": 10, "velocity": 110}, {"time": 136323, "pitch": 42, "duration": 10, "velocity": 80}, {"time": 136562, "pitch": 42, "duration": 10, "velocity": 100}, {"time": 136801, "pitch": 36, "duration": 10, "velocity": 120}, {"time": 136801, "pitch": 38, "duration": 10, "velocity": 110}, {"time": 136920, "pitch": 42, "duration": 10, "velocity": 100}, {"time": 137040, "pitch": 38, "duration": 9, "velocity": 110}, {"time": 137040, "pitch": 46, "duration": 9, "velocity": 80}, {"time": 137278, "pitch": 36, "duration": 10, "velocity": 120}, {"time": 137278, "pitch": 38, "duration": 10, "velocity": 110}, {"time": 137278, "pitch": 42, "duration": 10, "velocity": 80}, {"time": 137517, "pitch": 42, "duration": 10, "velocity": 100}, {"time": 137637, "pitch": 38, "duration": 10, "velocity": 110}, {"time": 137756, "pitch": 36, "duration": 10, "velocity": 120}, {"time": 138000, "pitch": 46, "duration": 10, "velocity": 80}, {"time": 138244, "pitch": 36, "duration": 10, "velocity": 120}, {"time": 138244, "pitch": 38, "duration": 10, "velocity": 110}, {"time": 138244, "pitch": 42, "duration": 10, "velocity": 80}, {"time": 138483, "pitch": 42, "duration": 10, "velocity": 100}, {"time": 138602, "pitch": 38, "duration": 10, "velocity": 110}, {"time": 138722, "pitch": 36, "duration": 10, "velocity": 120}, {"time": 138722, "pitch": 42, "duration": 10, "velocity": 100}, {"time": 138841, "pitch": 38, "duration": 10, "velocity": 110}, {"time": 138961, "pitch": 46, "duration": 10, "velocity": 80}, {"time": 139199, "pitch": 36, "duration": 10, "velocity": 120}, {"time": 139199, "pitch": 38, "duration": 10, "velocity": 110}, {"time": 139199, "pitch": 42, "duration": 10, "velocity": 80}, {"time": 139438, "pitch": 42, "duration": 10, "velocity": 100}, {"time": 139677, "pitch": 36, "duration": 10, "velocity": 120}, {"time": 139677, "pitch": 42, "duration": 10, "velocity": 100}, {"time": 139916, "pitch": 38, "duration": 10, "velocity": 110}, {"time": 139916, "pitch": 46, "duration": 10, "velocity": 80}, {"time": 140155, "pitch": 36, "duration": 10, "velocity": 120}, {"time": 140155, "pitch": 42, "duration": 10, "velocity": 80}, {"time": 140277, "pitch": 38, "duration": 10, "velocity": 110}, {"time": 140399, "pitch": 44, "duration": 10, "velocity": 80}, {"time": 140521, "pitch": 42, "duration": 10, "velocity": 100}, {"time": 140643, "pitch": 36, "duration": 10, "velocity": 120}, {"time": 140643, "pitch": 38, "duration": 10, "velocity": 110}, {"time": 140882, "pitch": 46, "duration": 10, "velocity": 80}, {"time": 141001, "pitch": 38, "duration": 10, "velocity": 110}, {"time": 141121, "pitch": 36, "duration": 10, "velocity": 120}, {"time": 141240, "pitch": 42, "duration": 10, "velocity": 100}, {"time": 141359, "pitch": 38, "duration": 10, "velocity": 110}, {"time": 141359, "pitch": 44, "duration": 10, "velocity": 80}, {"time": 141598, "pitch": 36, "duration": 10, "velocity": 120}, {"time": 141837, "pitch": 46, "duration": 10, "velocity": 80}, {"time": 142076, "pitch": 36, "duration": 10, "velocity": 120}, {"time": 142076, "pitch": 38, "duration": 10, "velocity": 111}, {"time": 142076, "pitch": 42, "duration": 10, "velocity": 80}, {"time": 142320, "pitch": 42, "duration": 10, "velocity": 100}, {"time": 142442, "pitch": 38, "duration": 10, "velocity": 110}, {"time": 142564, "pitch": 36, "duration": 10, "velocity": 120}, {"time": 142564, "pitch": 42, "duration": 10, "velocity": 100}, {"time": 142803, "pitch": 46, "duration": 10, "velocity": 80}, {"time": 143042, "pitch": 36, "duration": 10, "velocity": 120}, {"time": 143042, "pitch": 38, "duration": 10, "velocity": 110}, {"time": 143042, "pitch": 42, "duration": 10, "velocity": 80}, {"time": 143280, "pitch": 42, "duration": 10, "velocity": 100}, {"time": 143400, "pitch": 38, "duration": 10, "velocity": 110}, {"time": 143519, "pitch": 36, "duration": 10, "velocity": 120}, {"time": 143519, "pitch": 42, "duration": 10, "velocity": 100}, {"time": 143758, "pitch": 46, "duration": 10, "velocity": 80}, {"time": 143878, "pitch": 42, "duration": 9, "velocity": 100}, {"time": 143997, "pitch": 36, "duration": 10, "velocity": 120}, {"time": 143997, "pitch": 38, "duration": 10, "velocity": 110}, {"time": 143997, "pitch": 42, "duration": 10, "velocity": 80}, {"time": 144241, "pitch": 42, "duration": 10, "velocity": 100}, {"time": 144363, "pitch": 38, "duration": 10, "velocity": 110}, {"time": 144485, "pitch": 36, "duration": 10, "velocity": 120}, {"time": 144485, "pitch": 42, "duration": 10, "velocity": 100}, {"time": 144605, "pitch": 38, "duration": 10, "velocity": 110}, {"time": 144724, "pitch": 46, "duration": 10, "velocity": 80}, {"time": 144963, "pitch": 36, "duration": 10, "velocity": 120}, {"time": 144963, "pitch": 38, "duration": 10, "velocity": 110}, {"time": 144963, "pitch": 42, "duration": 10, "velocity": 80}, {"time": 145202, "pitch": 42, "duration": 10, "velocity": 100}, {"time": 145321, "pitch": 38, "duration": 10, "velocity": 110}, {"time": 145440, "pitch": 36, "duration": 10, "velocity": 120}, {"time": 145679, "pitch": 46, "duration": 10, "velocity": 80}, {"time": 145918, "pitch": 36, "duration": 10, "velocity": 120}, {"time": 145918, "pitch": 38, "duration": 10, "velocity": 110}, {"time": 145918, "pitch": 42, "duration": 10, "velocity": 80}, {"time": 146157, "pitch": 42, "duration": 10, "velocity": 100}, {"time": 146276, "pitch": 38, "duration": 10, "velocity": 110}, {"time": 146396, "pitch": 36, "duration": 10, "velocity": 120}, {"time": 146396, "pitch": 42, "duration": 10, "velocity": 100}, {"time": 146518, "pitch": 38, "duration": 10, "velocity": 110}, {"time": 146640, "pitch": 46, "duration": 10, "velocity": 80}, {"time": 146884, "pitch": 36, "duration": 10, "velocity": 120}, {"time": 146884, "pitch": 38, "duration": 10, "velocity": 110}, {"time": 146884, "pitch": 42, "duration": 10, "velocity": 80}, {"time": 147123, "pitch": 42, "duration": 10, "velocity": 100}, {"time": 147362, "pitch": 36, "duration": 9, "velocity": 120}, {"time": 147600, "pitch": 46, "duration": 10, "velocity": 80}, {"time": 147839, "pitch": 36, "duration": 10, "velocity": 120}, {"time": 147839, "pitch": 38, "duration": 10, "velocity": 110}, {"time": 147839, "pitch": 42, "duration": 10, "velocity": 80}, {"time": 148078, "pitch": 42, "duration": 10, "velocity": 100}, {"time": 148197, "pitch": 38, "duration": 10, "velocity": 110}, {"time": 148317, "pitch": 36, "duration": 10, "velocity": 120}, {"time": 148317, "pitch": 42, "duration": 10, "velocity": 100}, {"time": 148439, "pitch": 38, "duration": 10, "velocity": 110}, {"time": 148561, "pitch": 46, "duration": 10, "velocity": 80}, {"time": 148805, "pitch": 36, "duration": 10, "velocity": 120}, {"time": 148805, "pitch": 38, "duration": 10, "velocity": 110}, {"time": 148924, "pitch": 42, "duration": 10, "velocity": 80}, {"time": 149044, "pitch": 42, "duration": 10, "velocity": 100}, {"time": 149283, "pitch": 36, "duration": 10, "velocity": 120}, {"time": 149521, "pitch": 46, "duration": 10, "velocity": 80}, {"time": 149760, "pitch": 36, "duration": 10, "velocity": 120}, {"time": 149760, "pitch": 38, "duration": 10, "velocity": 110}, {"time": 149760, "pitch": 42, "duration": 10, "velocity": 80}, {"time": 149999, "pitch": 42, "duration": 10, "velocity": 100}, {"time": 150118, "pitch": 38, "duration": 10, "velocity": 110}, {"time": 150238, "pitch": 36, "duration": 10, "velocity": 120}, {"time": 150238, "pitch": 42, "duration": 10, "velocity": 100}, {"time": 150357, "pitch": 38, "duration": 10, "velocity": 110}, {"time": 150477, "pitch": 46, "duration": 10, "velocity": 80}, {"time": 150715, "pitch": 36, "duration": 11, "velocity": 120}, {"time": 150715, "pitch": 38, "duration": 11, "velocity": 110}, {"time": 150715, "pitch": 42, "duration": 11, "velocity": 80}, {"time": 150960, "pitch": 42, "duration": 10, "velocity": 100}, {"time": 151204, "pitch": 36, "duration": 10, "velocity": 120}, {"time": 151443, "pitch": 46, "duration": 10, "velocity": 80}, {"time": 151681, "pitch": 36, "duration": 10, "velocity": 120}, {"time": 151681, "pitch": 38, "duration": 10, "velocity": 110}, {"time": 151681, "pitch": 42, "duration": 10, "velocity": 80}, {"time": 151920, "pitch": 42, "duration": 10, "velocity": 100}, {"time": 152159, "pitch": 36, "duration": 10, "velocity": 120}, {"time": 152159, "pitch": 38, "duration": 10, "velocity": 110}, {"time": 152278, "pitch": 42, "duration": 10, "velocity": 100}, {"time": 152398, "pitch": 38, "duration": 10, "velocity": 110}, {"time": 152398, "pitch": 46, "duration": 10, "velocity": 80}, {"time": 152637, "pitch": 36, "duration": 10, "velocity": 120}, {"time": 152637, "pitch": 38, "duration": 10, "velocity": 110}, {"time": 152637, "pitch": 42, "duration": 10, "velocity": 80}, {"time": 152881, "pitch": 42, "duration": 10, "velocity": 100}, {"time": 153003, "pitch": 38, "duration": 10, "velocity": 110}, {"time": 153125, "pitch": 36, "duration": 10, "velocity": 120}, {"time": 153364, "pitch": 46, "duration": 10, "velocity": 80}, {"time": 153602, "pitch": 36, "duration": 10, "velocity": 120}, {"time": 153602, "pitch": 38, "duration": 10, "velocity": 110}, {"time": 153602, "pitch": 42, "duration": 10, "velocity": 80}, {"time": 153841, "pitch": 42, "duration": 10, "velocity": 100}, {"time": 153961, "pitch": 38, "duration": 10, "velocity": 110}, {"time": 154080, "pitch": 36, "duration": 10, "velocity": 120}, {"time": 154080, "pitch": 42, "duration": 10, "velocity": 100}, {"time": 154199, "pitch": 38, "duration": 10, "velocity": 110}, {"time": 154319, "pitch": 46, "duration": 10, "velocity": 80}, {"time": 154558, "pitch": 36, "duration": 10, "velocity": 120}, {"time": 154558, "pitch": 38, "duration": 10, "velocity": 110}, {"time": 154558, "pitch": 42, "duration": 10, "velocity": 80}, {"time": 154797, "pitch": 42, "duration": 9, "velocity": 100}, {"time": 155035, "pitch": 36, "duration": 10, "velocity": 120}, {"time": 155035, "pitch": 42, "duration": 10, "velocity": 100}, {"time": 155279, "pitch": 38, "duration": 11, "velocity": 110}, {"time": 155279, "pitch": 46, "duration": 11, "velocity": 80}, {"time": 155524, "pitch": 36, "duration": 10, "velocity": 120}, {"time": 155524, "pitch": 42, "duration": 10, "velocity": 100}, {"time": 155643, "pitch": 38, "duration": 10, "velocity": 110}, {"time": 155762, "pitch": 44, "duration": 10, "velocity": 80}, {"time": 155882, "pitch": 42, "duration": 10, "velocity": 100}, {"time": 156001, "pitch": 36, "duration": 10, "velocity": 120}, {"time": 156001, "pitch": 38, "duration": 10, "velocity": 110}, {"time": 156240, "pitch": 46, "duration": 10, "velocity": 80}, {"time": 156359, "pitch": 38, "duration": 10, "velocity": 110}, {"time": 156479, "pitch": 36, "duration": 10, "velocity": 120}, {"time": 156598, "pitch": 42, "duration": 10, "velocity": 100}, {"time": 156718, "pitch": 38, "duration": 10, "velocity": 110}, {"time": 156718, "pitch": 44, "duration": 10, "velocity": 80}, {"time": 156956, "pitch": 36, "duration": 11, "velocity": 120}, {"time": 156956, "pitch": 46, "duration": 11, "velocity": 80}, {"time": 157201, "pitch": 42, "duration": 10, "velocity": 100}, {"time": 157445, "pitch": 36, "duration": 10, "velocity": 120}, {"time": 157445, "pitch": 38, "duration": 10, "velocity": 111}, {"time": 157445, "pitch": 46, "duration": 10, "velocity": 80}, {"time": 157684, "pitch": 42, "duration": 9, "velocity": 100}, {"time": 157803, "pitch": 38, "duration": 10, "velocity": 110}, {"time": 157922, "pitch": 36, "duration": 10, "velocity": 120}, {"time": 157922, "pitch": 46, "duration": 10, "velocity": 80}, {"time": 158161, "pitch": 42, "duration": 10, "velocity": 100}, {"time": 158400, "pitch": 36, "duration": 10, "velocity": 120}, {"time": 158400, "pitch": 38, "duration": 10, "velocity": 110}, {"time": 158400, "pitch": 46, "duration": 10, "velocity": 80}, {"time": 158639, "pitch": 42, "duration": 10, "velocity": 100}, {"time": 158758, "pitch": 38, "duration": 10, "velocity": 110}, {"time": 158878, "pitch": 36, "duration": 9, "velocity": 120}, {"time": 158878, "pitch": 46, "duration": 9, "velocity": 80}, {"time": 159116, "pitch": 42, "duration": 10, "velocity": 80}, {"time": 159236, "pitch": 42, "duration": 10, "velocity": 100}, {"time": 159355, "pitch": 36, "duration": 10, "velocity": 120}, {"time": 159355, "pitch": 38, "duration": 10, "velocity": 110}, {"time": 159355, "pitch": 46, "duration": 10, "velocity": 80}, {"time": 159599, "pitch": 42, "duration": 10, "velocity": 100}, {"time": 159721, "pitch": 38, "duration": 11, "velocity": 110}, {"time": 159843, "pitch": 36, "duration": 10, "velocity": 120}, {"time": 159843, "pitch": 46, "duration": 10, "velocity": 80}, {"time": 159963, "pitch": 38, "duration": 10, "velocity": 110}, {"time": 160082, "pitch": 42, "duration": 10, "velocity": 100}, {"time": 160321, "pitch": 36, "duration": 10, "velocity": 120}, {"time": 160321, "pitch": 38, "duration": 10, "velocity": 110}, {"time": 160321, "pitch": 46, "duration": 10, "velocity": 80}, {"time": 160560, "pitch": 42, "duration": 10, "velocity": 100}, {"time": 160679, "pitch": 38, "duration": 10, "velocity": 110}, {"time": 160799, "pitch": 36, "duration": 10, "velocity": 120}, {"time": 160799, "pitch": 46, "duration": 10, "velocity": 80}, {"time": 161037, "pitch": 42, "duration": 10, "velocity": 100}, {"time": 161276, "pitch": 36, "duration": 10, "velocity": 120}, {"time": 161276, "pitch": 38, "duration": 10, "velocity": 110}, {"time": 161276, "pitch": 46, "duration": 10, "velocity": 80}, {"time": 161520, "pitch": 42, "duration": 11, "velocity": 100}, {"time": 161643, "pitch": 38, "duration": 10, "velocity": 110}, {"time": 161765, "pitch": 36, "duration": 9, "velocity": 120}, {"time": 161765, "pitch": 46, "duration": 9, "velocity": 80}, {"time": 161884, "pitch": 38, "duration": 10, "velocity": 110}, {"time": 162003, "pitch": 42, "duration": 10, "velocity": 100}, {"time": 162242, "pitch": 36, "duration": 10, "velocity": 120}, {"time": 162242, "pitch": 38, "duration": 10, "velocity": 110}, {"time": 162242, "pitch": 46, "duration": 10, "velocity": 80}, {"time": 162481, "pitch": 42, "duration": 10, "velocity": 100}, {"time": 162720, "pitch": 36, "duration": 10, "velocity": 120}, {"time": 162720, "pitch": 46, "duration": 10, "velocity": 80}, {"time": 162959, "pitch": 42, "duration": 10, "velocity": 100}, {"time": 163197, "pitch": 36, "duration": 10, "velocity": 120}, {"time": 163197, "pitch": 38, "duration": 10, "velocity": 110}, {"time": 163197, "pitch": 46, "duration": 10, "velocity": 80}, {"time": 163436, "pitch": 42, "duration": 10, "velocity": 100}, {"time": 163556, "pitch": 38, "duration": 10, "velocity": 110}, {"time": 163675, "pitch": 36, "duration": 10, "velocity": 120}, {"time": 163675, "pitch": 46, "duration": 10, "velocity": 80}, {"time": 163797, "pitch": 38, "duration": 10, "velocity": 110}, {"time": 163919, "pitch": 42, "duration": 10, "velocity": 80}, {"time": 164163, "pitch": 36, "duration": 10, "velocity": 120}, {"time": 164163, "pitch": 38, "duration": 10, "velocity": 110}, {"time": 164163, "pitch": 46, "duration": 10, "velocity": 80}, {"time": 164402, "pitch": 42, "duration": 10, "velocity": 100}, {"time": 164641, "pitch": 36, "duration": 10, "velocity": 120}, {"time": 164641, "pitch": 46, "duration": 10, "velocity": 80}, {"time": 164880, "pitch": 42, "duration": 10, "velocity": 100}, {"time": 165118, "pitch": 36, "duration": 10, "velocity": 120}, {"time": 165118, "pitch": 38, "duration": 10, "velocity": 110}, {"time": 165118, "pitch": 46, "duration": 10, "velocity": 80}, {"time": 165357, "pitch": 42, "duration": 10, "velocity": 100}, {"time": 165477, "pitch": 38, "duration": 10, "velocity": 110}, {"time": 165596, "pitch": 36, "duration": 10, "velocity": 120}, {"time": 165596, "pitch": 46, "duration": 10, "velocity": 80}, {"time": 165718, "pitch": 38, "duration": 10, "velocity": 110}, {"time": 165840, "pitch": 42, "duration": 10, "velocity": 100}, {"time": 166084, "pitch": 36, "duration": 10, "velocity": 120}, {"time": 166084, "pitch": 38, "duration": 10, "velocity": 110}, {"time": 166084, "pitch": 46, "duration": 10, "velocity": 80}, {"time": 166323, "pitch": 42, "duration": 10, "velocity": 100}, {"time": 166562, "pitch": 36, "duration": 10, "velocity": 120}, {"time": 166562, "pitch": 46, "duration": 10, "velocity": 80}, {"time": 166801, "pitch": 42, "duration": 10, "velocity": 100}, {"time": 167040, "pitch": 36, "duration": 10, "velocity": 120}, {"time": 167040, "pitch": 38, "duration": 10, "velocity": 110}, {"time": 167040, "pitch": 46, "duration": 10, "velocity": 80}, {"time": 167278, "pitch": 42, "duration": 10, "velocity": 100}, {"time": 167517, "pitch": 36, "duration": 10, "velocity": 120}, {"time": 167517, "pitch": 38, "duration": 10, "velocity": 110}, {"time": 167517, "pitch": 46, "duration": 10, "velocity": 80}, {"time": 167637, "pitch": 42, "duration": 10, "velocity": 100}, {"time": 167756, "pitch": 38, "duration": 10, "velocity": 110}, {"time": 167756, "pitch": 42, "duration": 10, "velocity": 80}, {"time": 167995, "pitch": 36, "duration": 10, "velocity": 120}, {"time": 167995, "pitch": 38, "duration": 10, "velocity": 110}, {"time": 167995, "pitch": 46, "duration": 10, "velocity": 80}, {"time": 168239, "pitch": 42, "duration": 10, "velocity": 100}, {"time": 168361, "pitch": 38, "duration": 10, "velocity": 110}, {"time": 168483, "pitch": 36, "duration": 10, "velocity": 120}, {"time": 168483, "pitch": 46, "duration": 10, "velocity": 80}, {"time": 168722, "pitch": 42, "duration": 10, "velocity": 100}, {"time": 168961, "pitch": 36, "duration": 10, "velocity": 120}, {"time": 168961, "pitch": 38, "duration": 10, "velocity": 110}, {"time": 168961, "pitch": 46, "duration": 10, "velocity": 80}, {"time": 169200, "pitch": 42, "duration": 9, "velocity": 100}, {"time": 169319, "pitch": 38, "duration": 10, "velocity": 110}, {"time": 169438, "pitch": 36, "duration": 10, "velocity": 120}, {"time": 169438, "pitch": 46, "duration": 10, "velocity": 80}, {"time": 169558, "pitch": 38, "duration": 10, "velocity": 110}, {"time": 169677, "pitch": 42, "duration": 10, "velocity": 100}, {"time": 169916, "pitch": 36, "duration": 10, "velocity": 120}, {"time": 169916, "pitch": 38, "duration": 10, "velocity": 110}, {"time": 169916, "pitch": 46, "duration": 10, "velocity": 80}, {"time": 170160, "pitch": 42, "duration": 10, "velocity": 100}, {"time": 170404, "pitch": 36, "duration": 10, "velocity": 120}, {"time": 170404, "pitch": 42, "duration": 10, "velocity": 100}, {"time": 170643, "pitch": 38, "duration": 10, "velocity": 110}, {"time": 170882, "pitch": 36, "duration": 10, "velocity": 120}, {"time": 170882, "pitch": 42, "duration": 10, "velocity": 100}, {"time": 171001, "pitch": 38, "duration": 10, "velocity": 110}, {"time": 171240, "pitch": 42, "duration": 10, "velocity": 100}, {"time": 171359, "pitch": 36, "duration": 10, "velocity": 120}, {"time": 171359, "pitch": 38, "duration": 10, "velocity": 110}, {"time": 171598, "pitch": 42, "duration": 10, "velocity": 100}, {"time": 171718, "pitch": 38, "duration": 10, "velocity": 110}, {"time": 171837, "pitch": 36, "duration": 10, "velocity": 120}, {"time": 171956, "pitch": 42, "duration": 10, "velocity": 100}, {"time": 172076, "pitch": 38, "duration": 10, "velocity": 110}, {"time": 172315, "pitch": 36, "duration": 10, "velocity": 120}, {"time": 172315, "pitch": 42, "duration": 10, "velocity": 80}, {"time": 172559, "pitch": 46, "duration": 10, "velocity": 80}, {"time": 172803, "pitch": 36, "duration": 10, "velocity": 120}, {"time": 172803, "pitch": 38, "duration": 10, "velocity": 111}, {"time": 172803, "pitch": 42, "duration": 10, "velocity": 80}, {"time": 173042, "pitch": 46, "duration": 10, "velocity": 80}, {"time": 173161, "pitch": 38, "duration": 10, "velocity": 110}, {"time": 173281, "pitch": 36, "duration": 10, "velocity": 120}, {"time": 173281, "pitch": 42, "duration": 10, "velocity": 100}, {"time": 173519, "pitch": 46, "duration": 10, "velocity": 80}, {"time": 173758, "pitch": 36, "duration": 10, "velocity": 120}, {"time": 173758, "pitch": 38, "duration": 10, "velocity": 110}, {"time": 173758, "pitch": 42, "duration": 10, "velocity": 80}, {"time": 173997, "pitch": 46, "duration": 10, "velocity": 80}, {"time": 174116, "pitch": 38, "duration": 10, "velocity": 110}, {"time": 174236, "pitch": 36, "duration": 10, "velocity": 120}, {"time": 174236, "pitch": 42, "duration": 10, "velocity": 100}, {"time": 174480, "pitch": 46, "duration": 10, "velocity": 80}, {"time": 174602, "pitch": 42, "duration": 10, "velocity": 100}, {"time": 174724, "pitch": 36, "duration": 10, "velocity": 120}, {"time": 174724, "pitch": 38, "duration": 10, "velocity": 110}, {"time": 174724, "pitch": 42, "duration": 10, "velocity": 80}, {"time": 174963, "pitch": 46, "duration": 10, "velocity": 80}, {"time": 175082, "pitch": 38, "duration": 10, "velocity": 110}, {"time": 175202, "pitch": 36, "duration": 10, "velocity": 120}, {"time": 175202, "pitch": 42, "duration": 10, "velocity": 100}, {"time": 175321, "pitch": 38, "duration": 10, "velocity": 110}, {"time": 175440, "pitch": 46, "duration": 10, "velocity": 80}, {"time": 175679, "pitch": 36, "duration": 10, "velocity": 120}, {"time": 175679, "pitch": 38, "duration": 10, "velocity": 110}, {"time": 175679, "pitch": 42, "duration": 10, "velocity": 80}, {"time": 175918, "pitch": 46, "duration": 10, "velocity": 80}, {"time": 176037, "pitch": 38, "duration": 10, "velocity": 110}, {"time": 176157, "pitch": 36, "duration": 10, "velocity": 120}, {"time": 176157, "pitch": 42, "duration": 10, "velocity": 80}, {"time": 176401, "pitch": 46, "duration": 10, "velocity": 80}, {"time": 176645, "pitch": 36, "duration": 10, "velocity": 120}, {"time": 176645, "pitch": 38, "duration": 10, "velocity": 110}, {"time": 176645, "pitch": 42, "duration": 10, "velocity": 80}, {"time": 176884, "pitch": 46, "duration": 10, "velocity": 80}, {"time": 177003, "pitch": 38, "duration": 10, "velocity": 110}, {"time": 177123, "pitch": 36, "duration": 10, "velocity": 120}, {"time": 177123, "pitch": 42, "duration": 10, "velocity": 100}, {"time": 177242, "pitch": 38, "duration": 10, "velocity": 110}, {"time": 177362, "pitch": 46, "duration": 10, "velocity": 80}, {"time": 177600, "pitch": 36, "duration": 10, "velocity": 120}, {"time": 177600, "pitch": 38, "duration": 10, "velocity": 110}, {"time": 177600, "pitch": 42, "duration": 10, "velocity": 80}, {"time": 177839, "pitch": 46, "duration": 10, "velocity": 80}, {"time": 178078, "pitch": 36, "duration": 10, "velocity": 120}, {"time": 178078, "pitch": 42, "duration": 10, "velocity": 80}, {"time": 178317, "pitch": 46, "duration": 10, "velocity": 80}, {"time": 178556, "pitch": 36, "duration": 10, "velocity": 120}, {"time": 178556, "pitch": 38, "duration": 10, "velocity": 110}, {"time": 178556, "pitch": 42, "duration": 10, "velocity": 80}, {"time": 178800, "pitch": 46, "duration": 10, "velocity": 80}, {"time": 178922, "pitch": 38, "duration": 10, "velocity": 110}, {"time": 179044, "pitch": 36, "duration": 10, "velocity": 120}, {"time": 179044, "pitch": 42, "duration": 10, "velocity": 100}, {"time": 179163, "pitch": 38, "duration": 10, "velocity": 110}, {"time": 179283, "pitch": 46, "duration": 10, "velocity": 80}, {"time": 179522, "pitch": 36, "duration": 9, "velocity": 120}, {"time": 179522, "pitch": 38, "duration": 9, "velocity": 110}, {"time": 179522, "pitch": 42, "duration": 9, "velocity": 80}, {"time": 179760, "pitch": 46, "duration": 10, "velocity": 80}, {"time": 179999, "pitch": 36, "duration": 10, "velocity": 120}, {"time": 179999, "pitch": 42, "duration": 10, "velocity": 80}, {"time": 180238, "pitch": 46, "duration": 10, "velocity": 80}, {"time": 180477, "pitch": 36, "duration": 10, "velocity": 120}, {"time": 180477, "pitch": 38, "duration": 10, "velocity": 110}, {"time": 180477, "pitch": 42, "duration": 10, "velocity": 80}, {"time": 180721, "pitch": 46, "duration": 10, "velocity": 80}, {"time": 180843, "pitch": 38, "duration": 10, "velocity": 110}, {"time": 180965, "pitch": 36, "duration": 10, "velocity": 120}, {"time": 180965, "pitch": 42, "duration": 10, "velocity": 100}, {"time": 181084, "pitch": 38, "duration": 10, "velocity": 110}, {"time": 181204, "pitch": 46, "duration": 10, "velocity": 80}, {"time": 181443, "pitch": 36, "duration": 10, "velocity": 120}, {"time": 181443, "pitch": 38, "duration": 10, "velocity": 110}, {"time": 181443, "pitch": 42, "duration": 10, "velocity": 80}, {"time": 181681, "pitch": 46, "duration": 10, "velocity": 80}, {"time": 181920, "pitch": 36, "duration": 10, "velocity": 120}, {"time": 181920, "pitch": 42, "duration": 10, "velocity": 80}, {"time": 182159, "pitch": 46, "duration": 10, "velocity": 80}, {"time": 182398, "pitch": 36, "duration": 10, "velocity": 120}, {"time": 182398, "pitch": 38, "duration": 10, "velocity": 110}, {"time": 182398, "pitch": 42, "duration": 10, "velocity": 80}, {"time": 182637, "pitch": 46, "duration": 10, "velocity": 80}, {"time": 182875, "pitch": 36, "duration": 11, "velocity": 120}, {"time": 182875, "pitch": 38, "duration": 11, "velocity": 110}, {"time": 182875, "pitch": 42, "duration": 11, "velocity": 80}, {"time": 182997, "pitch": 42, "duration": 11, "velocity": 100}, {"time": 183120, "pitch": 38, "duration": 10, "velocity": 110}, {"time": 183120, "pitch": 46, "duration": 10, "velocity": 80}, {"time": 183364, "pitch": 36, "duration": 10, "velocity": 120}, {"time": 183364, "pitch": 38, "duration": 10, "velocity": 110}, {"time": 183364, "pitch": 42, "duration": 10, "velocity": 80}, {"time": 183603, "pitch": 46, "duration": 9, "velocity": 80}, {"time": 183722, "pitch": 38, "duration": 10, "velocity": 110}, {"time": 183841, "pitch": 36, "duration": 10, "velocity": 120}, {"time": 183841, "pitch": 42, "duration": 10, "velocity": 80}, {"time": 184080, "pitch": 46, "duration": 10, "velocity": 80}, {"time": 184319, "pitch": 36, "duration": 10, "velocity": 120}, {"time": 184319, "pitch": 38, "duration": 10, "velocity": 110}, {"time": 184319, "pitch": 42, "duration": 10, "velocity": 80}, {"time": 184558, "pitch": 46, "duration": 10, "velocity": 80}, {"time": 184677, "pitch": 38, "duration": 10, "velocity": 110}, {"time": 184797, "pitch": 36, "duration": 10, "velocity": 120}, {"time": 184797, "pitch": 42, "duration": 10, "velocity": 100}, {"time": 184919, "pitch": 38, "duration": 10, "velocity": 110}, {"time": 185041, "pitch": 46, "duration": 10, "velocity": 80}, {"time": 185285, "pitch": 36, "duration": 10, "velocity": 120}, {"time": 185285, "pitch": 38, "duration": 10, "velocity": 110}, {"time": 185285, "pitch": 42, "duration": 10, "velocity": 80}, {"time": 185524, "pitch": 46, "duration": 10, "velocity": 80}, {"time": 185762, "pitch": 36, "duration": 10, "velocity": 120}, {"time": 185762, "pitch": 42, "duration": 10, "velocity": 100}, {"time": 186001, "pitch": 38, "duration": 10, "velocity": 110}, {"time": 186001, "pitch": 46, "duration": 10, "velocity": 80}, {"time": 186240, "pitch": 36, "duration": 10, "velocity": 120}, {"time": 186240, "pitch": 42, "duration": 10, "velocity": 100}, {"time": 186359, "pitch": 38, "duration": 10, "velocity": 110}, {"time": 186479, "pitch": 46, "duration": 10, "velocity": 80}, {"time": 186598, "pitch": 42, "duration": 10, "velocity": 100}, {"time": 186718, "pitch": 36, "duration": 10, "velocity": 120}, {"time": 186718, "pitch": 38, "duration": 10, "velocity": 110}, {"time": 186718, "pitch": 42, "duration": 10, "velocity": 80}, {"time": 186956, "pitch": 46, "duration": 10, "velocity": 80}, {"time": 187076, "pitch": 38, "duration": 10, "velocity": 110}, {"time": 187195, "pitch": 36, "duration": 10, "velocity": 120}, {"time": 187195, "pitch": 42, "duration": 10, "velocity": 80}, {"time": 187317, "pitch": 42, "duration": 10, "velocity": 100}, {"time": 187439, "pitch": 38, "duration": 11, "velocity": 110}, {"time": 187439, "pitch": 46, "duration": 11, "velocity": 80}, {"time": 187684, "pitch": 36, "duration": 10, "velocity": 120}, {"time": 187684, "pitch": 42, "duration": 10, "velocity": 80}, {"time": 187922, "pitch": 46, "duration": 10, "velocity": 80}, {"time": 188161, "pitch": 36, "duration": 10, "velocity": 120}, {"time": 188161, "pitch": 38, "duration": 10, "velocity": 111}, {"time": 188161, "pitch": 42, "duration": 10, "velocity": 80}, {"time": 188400, "pitch": 46, "duration": 10, "velocity": 80}, {"time": 188519, "pitch": 38, "duration": 10, "velocity": 110}, {"time": 188639, "pitch": 36, "duration": 10, "velocity": 120}, {"time": 188639, "pitch": 42, "duration": 10, "velocity": 100}, {"time": 188878, "pitch": 46, "duration": 10, "velocity": 80}, {"time": 189116, "pitch": 36, "duration": 11, "velocity": 120}, {"time": 189116, "pitch": 38, "duration": 11, "velocity": 110}, {"time": 189116, "pitch": 42, "duration": 11, "velocity": 80}, {"time": 189361, "pitch": 46, "duration": 10, "velocity": 80}, {"time": 189483, "pitch": 38, "duration": 10, "velocity": 110}, {"time": 189605, "pitch": 36, "duration": 10, "velocity": 120}, {"time": 189605, "pitch": 42, "duration": 10, "velocity": 100}, {"time": 189843, "pitch": 46, "duration": 10, "velocity": 80}, {"time": 189963, "pitch": 42, "duration": 10, "velocity": 100}, {"time": 190082, "pitch": 36, "duration": 10, "velocity": 120}, {"time": 190082, "pitch": 38, "duration": 10, "velocity": 110}, {"time": 190082, "pitch": 42, "duration": 10, "velocity": 80}, {"time": 190321, "pitch": 46, "duration": 10, "velocity": 80}, {"time": 190441, "pitch": 38, "duration": 9, "velocity": 110}, {"time": 190560, "pitch": 36, "duration": 10, "velocity": 120}, {"time": 190560, "pitch": 42, "duration": 10, "velocity": 100}, {"time": 190679, "pitch": 38, "duration": 10, "velocity": 110}, {"time": 190799, "pitch": 46, "duration": 10, "velocity": 80}, {"time": 191038, "pitch": 36, "duration": 9, "velocity": 120}, {"time": 191038, "pitch": 38, "duration": 9, "velocity": 110}, {"time": 191038, "pitch": 42, "duration": 9, "velocity": 80}, {"time": 191276, "pitch": 46, "duration": 10, "velocity": 80}, {"time": 191396, "pitch": 38, "duration": 10, "velocity": 110}, {"time": 191515, "pitch": 36, "duration": 10, "velocity": 120}, {"time": 191515, "pitch": 42, "duration": 10, "velocity": 80}, {"time": 191759, "pitch": 46, "duration": 10, "velocity": 80}, {"time": 192003, "pitch": 36, "duration": 10, "velocity": 120}, {"time": 192003, "pitch": 38, "duration": 10, "velocity": 110}, {"time": 192003, "pitch": 42, "duration": 10, "velocity": 80}, {"time": 192242, "pitch": 46, "duration": 10, "velocity": 80}, {"time": 192362, "pitch": 38, "duration": 10, "velocity": 110}, {"time": 192481, "pitch": 36, "duration": 10, "velocity": 120}, {"time": 192481, "pitch": 42, "duration": 10, "velocity": 100}, {"time": 192600, "pitch": 38, "duration": 10, "velocity": 110}, {"time": 192720, "pitch": 46, "duration": 10, "velocity": 80}, {"time": 192959, "pitch": 36, "duration": 10, "velocity": 120}, {"time": 192959, "pitch": 38, "duration": 10, "velocity": 110}, {"time": 192959, "pitch": 42, "duration": 10, "velocity": 80}, {"time": 193197, "pitch": 46, "duration": 10, "velocity": 80}, {"time": 193436, "pitch": 36, "duration": 10, "velocity": 120}, {"time": 193436, "pitch": 42, "duration": 10, "velocity": 80}, {"time": 193680, "pitch": 46, "duration": 11, "velocity": 80}, {"time": 193925, "pitch": 36, "duration": 9, "velocity": 120}, {"time": 193925, "pitch": 38, "duration": 9, "velocity": 110}, {"time": 193925, "pitch": 42, "duration": 9, "velocity": 80}, {"time": 194163, "pitch": 46, "duration": 10, "velocity": 80}, {"time": 194283, "pitch": 38, "duration": 10, "velocity": 110}, {"time": 194402, "pitch": 36, "duration": 10, "velocity": 120}, {"time": 194402, "pitch": 42, "duration": 10, "velocity": 100}, {"time": 194522, "pitch": 38, "duration": 9, "velocity": 110}, {"time": 194641, "pitch": 46, "duration": 10, "velocity": 80}, {"time": 194880, "pitch": 36, "duration": 10, "velocity": 120}, {"time": 194880, "pitch": 38, "duration": 10, "velocity": 110}, {"time": 194880, "pitch": 42, "duration": 10, "velocity": 80}, {"time": 195119, "pitch": 46, "duration": 10, "velocity": 80}, {"time": 195357, "pitch": 36, "duration": 10, "velocity": 120}, {"time": 195357, "pitch": 42, "duration": 10, "velocity": 80}, {"time": 195596, "pitch": 46, "duration": 10, "velocity": 80}, {"time": 195835, "pitch": 36, "duration": 10, "velocity": 120}, {"time": 195835, "pitch": 38, "duration": 10, "velocity": 110}, {"time": 195835, "pitch": 42, "duration": 10, "velocity": 80}, {"time": 196079, "pitch": 46, "duration": 10, "velocity": 80}, {"time": 196201, "pitch": 38, "duration": 10, "velocity": 110}, {"time": 196323, "pitch": 36, "duration": 10, "velocity": 120}, {"time": 196323, "pitch": 42, "duration": 10, "velocity": 100}, {"time": 196443, "pitch": 38, "duration": 10, "velocity": 110}, {"time": 196562, "pitch": 46, "duration": 10, "velocity": 80}, {"time": 196801, "pitch": 36, "duration": 10, "velocity": 120}, {"time": 196801, "pitch": 38, "duration": 10, "velocity": 110}, {"time": 196801, "pitch": 42, "duration": 10, "velocity": 80}, {"time": 197040, "pitch": 46, "duration": 10, "velocity": 80}, {"time": 197278, "pitch": 36, "duration": 10, "velocity": 120}, {"time": 197278, "pitch": 42, "duration": 10, "velocity": 80}, {"time": 197517, "pitch": 46, "duration": 10, "velocity": 80}, {"time": 197756, "pitch": 36, "duration": 10, "velocity": 120}, {"time": 197756, "pitch": 38, "duration": 10, "velocity": 110}, {"time": 197756, "pitch": 42, "duration": 10, "velocity": 80}, {"time": 198000, "pitch": 46, "duration": 10, "velocity": 80}, {"time": 198244, "pitch": 36, "duration": 10, "velocity": 120}, {"time": 198244, "pitch": 38, "duration": 10, "velocity": 110}, {"time": 198244, "pitch": 42, "duration": 10, "velocity": 80}, {"time": 198364, "pitch": 42, "duration": 10, "velocity": 100}, {"time": 198483, "pitch": 38, "duration": 10, "velocity": 110}, {"time": 198483, "pitch": 46, "duration": 10, "velocity": 80}, {"time": 198722, "pitch": 36, "duration": 10, "velocity": 120}, {"time": 198722, "pitch": 38, "duration": 10, "velocity": 110}, {"time": 198722, "pitch": 42, "duration": 10, "velocity": 80}, {"time": 198961, "pitch": 46, "duration": 10, "velocity": 80}, {"time": 199080, "pitch": 38, "duration": 10, "velocity": 110}, {"time": 199200, "pitch": 36, "duration": 10, "velocity": 120}, {"time": 199200, "pitch": 42, "duration": 10, "velocity": 80}, {"time": 199438, "pitch": 46, "duration": 10, "velocity": 80}, {"time": 199677, "pitch": 36, "duration": 10, "velocity": 120}, {"time": 199677, "pitch": 38, "duration": 10, "velocity": 110}, {"time": 199677, "pitch": 42, "duration": 10, "velocity": 80}, {"time": 199916, "pitch": 46, "duration": 10, "velocity": 80}, {"time": 200035, "pitch": 38, "duration": 10, "velocity": 110}, {"time": 200155, "pitch": 36, "duration": 10, "velocity": 120}, {"time": 200155, "pitch": 42, "duration": 10, "velocity": 100}, {"time": 200277, "pitch": 38, "duration": 10, "velocity": 110}, {"time": 200399, "pitch": 46, "duration": 10, "velocity": 80}, {"time": 200643, "pitch": 36, "duration": 10, "velocity": 120}, {"time": 200643, "pitch": 38, "duration": 10, "velocity": 110}, {"time": 200643, "pitch": 42, "duration": 10, "velocity": 80}, {"time": 200882, "pitch": 46, "duration": 10, "velocity": 80}, {"time": 201121, "pitch": 36, "duration": 10, "velocity": 120}, {"time": 201121, "pitch": 42, "duration": 10, "velocity": 100}, {"time": 201360, "pitch": 38, "duration": 9, "velocity": 110}, {"time": 201598, "pitch": 36, "duration": 10, "velocity": 120}, {"time": 201598, "pitch": 42, "duration": 10, "velocity": 100}, {"time": 201718, "pitch": 38, "duration": 10, "velocity": 110}, {"time": 201957, "pitch": 42, "duration": 9, "velocity": 100}, {"time": 202076, "pitch": 36, "duration": 10, "velocity": 120}, {"time": 202076, "pitch": 38, "duration": 10, "velocity": 110}, {"time": 202320, "pitch": 42, "duration": 10, "velocity": 100}, {"time": 202442, "pitch": 38, "duration": 10, "velocity": 110}, {"time": 202564, "pitch": 36, "duration": 10, "velocity": 120}, {"time": 202684, "pitch": 42, "duration": 10, "velocity": 100}, {"time": 202803, "pitch": 38, "duration": 10, "velocity": 110}, {"time": 203042, "pitch": 36, "duration": 10, "velocity": 120}, {"time": 203281, "pitch": 42, "duration": 10, "velocity": 100}, {"time": 203519, "pitch": 36, "duration": 10, "velocity": 120}, {"time": 203519, "pitch": 38, "duration": 10, "velocity": 111}, {"time": 203758, "pitch": 42, "duration": 10, "velocity": 100}, {"time": 203878, "pitch": 38, "duration": 10, "velocity": 110}, {"time": 203997, "pitch": 36, "duration": 10, "velocity": 120}, {"time": 203997, "pitch": 42, "duration": 10, "velocity": 100}, {"time": 204241, "pitch": 42, "duration": 10, "velocity": 100}, {"time": 204485, "pitch": 36, "duration": 10, "velocity": 120}, {"time": 204485, "pitch": 38, "duration": 10, "velocity": 110}, {"time": 204724, "pitch": 42, "duration": 10, "velocity": 100}, {"time": 204844, "pitch": 38, "duration": 9, "velocity": 110}, {"time": 204963, "pitch": 36, "duration": 10, "velocity": 120}, {"time": 204963, "pitch": 42, "duration": 10, "velocity": 100}, {"time": 205321, "pitch": 42, "duration": 10, "velocity": 100}, {"time": 205441, "pitch": 36, "duration": 9, "velocity": 120}, {"time": 205441, "pitch": 38, "duration": 9, "velocity": 110}, {"time": 205679, "pitch": 42, "duration": 10, "velocity": 100}, {"time": 205799, "pitch": 38, "duration": 10, "velocity": 110}, {"time": 205918, "pitch": 36, "duration": 10, "velocity": 120}, {"time": 205918, "pitch": 42, "duration": 10, "velocity": 100}, {"time": 206038, "pitch": 38, "duration": 10, "velocity": 110}, {"time": 206157, "pitch": 42, "duration": 10, "velocity": 100}, {"time": 206396, "pitch": 36, "duration": 10, "velocity": 120}, {"time": 206396, "pitch": 38, "duration": 10, "velocity": 110}, {"time": 206640, "pitch": 42, "duration": 10, "velocity": 100}, {"time": 206762, "pitch": 38, "duration": 10, "velocity": 110}, {"time": 206884, "pitch": 36, "duration": 10, "velocity": 120}, {"time": 207123, "pitch": 42, "duration": 10, "velocity": 100}, {"time": 207362, "pitch": 36, "duration": 10, "velocity": 120}, {"time": 207362, "pitch": 38, "duration": 10, "velocity": 110}, {"time": 207600, "pitch": 42, "duration": 10, "velocity": 100}, {"time": 207720, "pitch": 38, "duration": 10, "velocity": 110}, {"time": 207839, "pitch": 36, "duration": 10, "velocity": 120}, {"time": 207839, "pitch": 42, "duration": 10, "velocity": 100}, {"time": 207959, "pitch": 38, "duration": 10, "velocity": 110}, {"time": 208078, "pitch": 42, "duration": 10, "velocity": 100}, {"time": 208317, "pitch": 36, "duration": 10, "velocity": 120}, {"time": 208317, "pitch": 38, "duration": 10, "velocity": 110}, {"time": 208561, "pitch": 42, "duration": 10, "velocity": 100}, {"time": 208805, "pitch": 36, "duration": 10, "velocity": 120}, {"time": 209044, "pitch": 42, "duration": 10, "velocity": 100}, {"time": 209283, "pitch": 36, "duration": 10, "velocity": 120}, {"time": 209283, "pitch": 38, "duration": 10, "velocity": 110}, {"time": 209522, "pitch": 42, "duration": 10, "velocity": 100}, {"time": 209641, "pitch": 38, "duration": 10, "velocity": 110}, {"time": 209760, "pitch": 36, "duration": 10, "velocity": 120}, {"time": 209760, "pitch": 42, "duration": 10, "velocity": 100}, {"time": 209880, "pitch": 38, "duration": 10, "velocity": 110}, {"time": 210238, "pitch": 36, "duration": 10, "velocity": 120}, {"time": 210238, "pitch": 38, "duration": 10, "velocity": 110}, {"time": 210477, "pitch": 42, "duration": 10, "velocity": 100}, {"time": 210716, "pitch": 36, "duration": 10, "velocity": 120}, {"time": 210960, "pitch": 42, "duration": 10, "velocity": 100}, {"time": 211204, "pitch": 36, "duration": 10, "velocity": 120}, {"time": 211204, "pitch": 38, "duration": 10, "velocity": 110}, {"time": 211443, "pitch": 42, "duration": 10, "velocity": 100}, {"time": 211562, "pitch": 38, "duration": 10, "velocity": 110}, {"time": 211681, "pitch": 36, "duration": 10, "velocity": 120}, {"time": 211681, "pitch": 42, "duration": 10, "velocity": 100}, {"time": 211801, "pitch": 38, "duration": 10, "velocity": 110}, {"time": 211920, "pitch": 42, "duration": 10, "velocity": 100}, {"time": 212159, "pitch": 36, "duration": 10, "velocity": 120}, {"time": 212159, "pitch": 38, "duration": 10, "velocity": 110}, {"time": 212398, "pitch": 42, "duration": 10, "velocity": 100}, {"time": 212637, "pitch": 36, "duration": 10, "velocity": 120}, {"time": 212881, "pitch": 42, "duration": 10, "velocity": 100}, {"time": 213125, "pitch": 36, "duration": 10, "velocity": 120}, {"time": 213125, "pitch": 38, "duration": 10, "velocity": 110}, {"time": 213364, "pitch": 42, "duration": 10, "velocity": 100}, {"time": 213603, "pitch": 36, "duration": 10, "velocity": 120}, {"time": 213603, "pitch": 38, "duration": 10, "velocity": 110}, {"time": 213722, "pitch": 42, "duration": 10, "velocity": 100}, {"time": 213841, "pitch": 38, "duration": 10, "velocity": 110}, {"time": 214080, "pitch": 36, "duration": 10, "velocity": 120}, {"time": 214080, "pitch": 38, "duration": 10, "velocity": 110}, {"time": 214319, "pitch": 42, "duration": 10, "velocity": 100}, {"time": 214438, "pitch": 38, "duration": 10, "velocity": 110}, {"time": 214558, "pitch": 36, "duration": 10, "velocity": 120}, {"time": 214797, "pitch": 42, "duration": 10, "velocity": 100}, {"time": 215035, "pitch": 36, "duration": 11, "velocity": 120}, {"time": 215035, "pitch": 38, "duration": 11, "velocity": 110}, {"time": 215280, "pitch": 42, "duration": 10, "velocity": 100}, {"time": 215402, "pitch": 38, "duration": 10, "velocity": 110}, {"time": 215524, "pitch": 36, "duration": 10, "velocity": 120}, {"time": 215524, "pitch": 42, "duration": 10, "velocity": 100}, {"time": 215643, "pitch": 38, "duration": 10, "velocity": 110}, {"time": 215763, "pitch": 42, "duration": 9, "velocity": 100}, {"time": 216001, "pitch": 36, "duration": 10, "velocity": 120}, {"time": 216001, "pitch": 38, "duration": 10, "velocity": 110}, {"time": 216240, "pitch": 42, "duration": 10, "velocity": 100}, {"time": 216479, "pitch": 36, "duration": 10, "velocity": 120}, {"time": 216479, "pitch": 42, "duration": 10, "velocity": 100}, {"time": 216718, "pitch": 38, "duration": 10, "velocity": 110}, {"time": 216957, "pitch": 36, "duration": 10, "velocity": 120}, {"time": 216957, "pitch": 42, "duration": 10, "velocity": 100}, {"time": 217079, "pitch": 38, "duration": 10, "velocity": 110}, {"time": 217323, "pitch": 42, "duration": 10, "velocity": 100}, {"time": 217445, "pitch": 36, "duration": 10, "velocity": 120}, {"time": 217445, "pitch": 38, "duration": 10, "velocity": 110}, {"time": 217684, "pitch": 42, "duration": 10, "velocity": 100}, {"time": 217803, "pitch": 38, "duration": 10, "velocity": 110}, {"time": 217922, "pitch": 36, "duration": 10, "velocity": 120}, {"time": 218042, "pitch": 42, "duration": 10, "velocity": 100}, {"time": 218161, "pitch": 38, "duration": 10, "velocity": 110}, {"time": 218400, "pitch": 36, "duration": 10, "velocity": 120}, {"time": 218639, "pitch": 42, "duration": 10, "velocity": 100}, {"time": 218878, "pitch": 36, "duration": 10, "velocity": 120}, {"time": 218878, "pitch": 38, "duration": 10, "velocity": 111}, {"time": 219116, "pitch": 42, "duration": 10, "velocity": 100}, {"time": 219236, "pitch": 38, "duration": 10, "velocity": 110}, {"time": 219355, "pitch": 36, "duration": 10, "velocity": 120}, {"time": 219355, "pitch": 42, "duration": 10, "velocity": 100}, {"time": 219599, "pitch": 42, "duration": 11, "velocity": 100}, {"time": 219844, "pitch": 36, "duration": 10, "velocity": 120}, {"time": 219844, "pitch": 38, "duration": 10, "velocity": 110}, {"time": 220082, "pitch": 42, "duration": 10, "velocity": 100}, {"time": 220202, "pitch": 38, "duration": 10, "velocity": 110}, {"time": 220321, "pitch": 36, "duration": 10, "velocity": 120}, {"time": 220321, "pitch": 42, "duration": 10, "velocity": 100}, {"time": 220679, "pitch": 42, "duration": 10, "velocity": 100}, {"time": 220799, "pitch": 36, "duration": 10, "velocity": 120}, {"time": 220799, "pitch": 38, "duration": 10, "velocity": 110}, {"time": 221038, "pitch": 42, "duration": 10, "velocity": 100}, {"time": 221157, "pitch": 38, "duration": 10, "velocity": 110}, {"time": 221276, "pitch": 36, "duration": 10, "velocity": 120}, {"time": 221276, "pitch": 42, "duration": 10, "velocity": 100}, {"time": 221398, "pitch": 38, "duration": 11, "velocity": 110}, {"time": 221521, "pitch": 42, "duration": 10, "velocity": 100}, {"time": 221765, "pitch": 36, "duration": 10, "velocity": 120}, {"time": 221765, "pitch": 38, "duration": 10, "velocity": 110}, {"time": 222003, "pitch": 42, "duration": 10, "velocity": 100}, {"time": 222123, "pitch": 38, "duration": 10, "velocity": 110}, {"time": 222242, "pitch": 36, "duration": 10, "velocity": 120}, {"time": 222481, "pitch": 42, "duration": 10, "velocity": 100}, {"time": 222720, "pitch": 36, "duration": 10, "velocity": 120}, {"time": 222720, "pitch": 38, "duration": 10, "velocity": 110}, {"time": 222959, "pitch": 42, "duration": 10, "velocity": 100}, {"time": 223078, "pitch": 38, "duration": 10, "velocity": 110}, {"time": 223198, "pitch": 36, "duration": 9, "velocity": 120}, {"time": 223198, "pitch": 42, "duration": 9, "velocity": 100}, {"time": 223317, "pitch": 38, "duration": 10, "velocity": 110}, {"time": 223436, "pitch": 42, "duration": 10, "velocity": 100}, {"time": 223675, "pitch": 36, "duration": 10, "velocity": 120}, {"time": 223675, "pitch": 38, "duration": 10, "velocity": 110}, {"time": 223919, "pitch": 42, "duration": 10, "velocity": 100}, {"time": 224163, "pitch": 36, "duration": 10, "velocity": 120}, {"time": 224402, "pitch": 42, "duration": 10, "velocity": 100}, {"time": 224641, "pitch": 36, "duration": 10, "velocity": 120}, {"time": 224641, "pitch": 38, "duration": 10, "velocity": 110}, {"time": 224880, "pitch": 42, "duration": 10, "velocity": 100}, {"time": 224999, "pitch": 38, "duration": 10, "velocity": 110}, {"time": 225119, "pitch": 36, "duration": 10, "velocity": 120}, {"time": 225119, "pitch": 42, "duration": 10, "velocity": 100}, {"time": 225238, "pitch": 38, "duration": 10, "velocity": 110}, {"time": 225596, "pitch": 36, "duration": 10, "velocity": 120}, {"time": 225596, "pitch": 38, "duration": 10, "velocity": 110}, {"time": 225840, "pitch": 42, "duration": 11, "velocity": 100}, {"time": 226085, "pitch": 36, "duration": 9, "velocity": 120}, {"time": 226323, "pitch": 42, "duration": 10, "velocity": 100}, {"time": 226562, "pitch": 36, "duration": 10, "velocity": 120}, {"time": 226562, "pitch": 38, "duration": 10, "velocity": 110}, {"time": 226801, "pitch": 42, "duration": 10, "velocity": 100}, {"time": 226920, "pitch": 38, "duration": 10, "velocity": 110}, {"time": 227040, "pitch": 36, "duration": 10, "velocity": 120}, {"time": 227040, "pitch": 42, "duration": 10, "velocity": 100}, {"time": 227159, "pitch": 38, "duration": 10, "velocity": 110}, {"time": 227279, "pitch": 42, "duration": 9, "velocity": 100}, {"time": 227517, "pitch": 36, "duration": 10, "velocity": 120}, {"time": 227517, "pitch": 38, "duration": 10, "velocity": 110}, {"time": 227756, "pitch": 42, "duration": 10, "velocity": 100}, {"time": 227995, "pitch": 36, "duration": 10, "velocity": 120}, {"time": 228239, "pitch": 42, "duration": 10, "velocity": 100}, {"time": 228483, "pitch": 36, "duration": 10, "velocity": 120}, {"time": 228483, "pitch": 38, "duration": 10, "velocity": 110}, {"time": 228722, "pitch": 42, "duration": 10, "velocity": 100}, {"time": 228961, "pitch": 36, "duration": 10, "velocity": 120}, {"time": 228961, "pitch": 38, "duration": 10, "velocity": 110}, {"time": 229080, "pitch": 42, "duration": 10, "velocity": 100}, {"time": 229200, "pitch": 38, "duration": 10, "velocity": 110}, {"time": 229438, "pitch": 36, "duration": 10, "velocity": 120}, {"time": 229438, "pitch": 38, "duration": 10, "velocity": 110}, {"time": 229677, "pitch": 42, "duration": 10, "velocity": 100}, {"time": 229797, "pitch": 38, "duration": 10, "velocity": 110}, {"time": 229916, "pitch": 36, "duration": 10, "velocity": 120}, {"time": 230160, "pitch": 42, "duration": 10, "velocity": 100}, {"time": 230404, "pitch": 36, "duration": 10, "velocity": 120}, {"time": 230404, "pitch": 38, "duration": 10, "velocity": 110}, {"time": 230643, "pitch": 42, "duration": 10, "velocity": 100}, {"time": 230763, "pitch": 38, "duration": 10, "velocity": 110}, {"time": 230882, "pitch": 36, "duration": 10, "velocity": 120}, {"time": 230882, "pitch": 42, "duration": 10, "velocity": 100}, {"time": 231001, "pitch": 38, "duration": 10, "velocity": 110}, {"time": 231121, "pitch": 42, "duration": 10, "velocity": 100}, {"time": 231360, "pitch": 36, "duration": 10, "velocity": 120}, {"time": 231360, "pitch": 38, "duration": 10, "velocity": 110}, {"time": 231598, "pitch": 42, "duration": 10, "velocity": 100}, {"time": 231837, "pitch": 36, "duration": 10, "velocity": 120}, {"time": 231837, "pitch": 42, "duration": 10, "velocity": 100}, {"time": 232076, "pitch": 38, "duration": 10, "velocity": 110}, {"time": 232315, "pitch": 36, "duration": 10, "velocity": 120}, {"time": 232315, "pitch": 42, "duration": 10, "velocity": 100}, {"time": 232434, "pitch": 38, "duration": 10, "velocity": 110}, {"time": 232673, "pitch": 42, "duration": 10, "velocity": 100}, {"time": 232792, "pitch": 36, "duration": 10, "velocity": 120}, {"time": 232792, "pitch": 38, "duration": 10, "velocity": 110}, {"time": 233031, "pitch": 42, "duration": 10, "velocity": 100}, {"time": 233151, "pitch": 38, "duration": 10, "velocity": 110}, {"time": 233270, "pitch": 36, "duration": 10, "velocity": 120}, {"time": 233389, "pitch": 42, "duration": 10, "velocity": 100}, {"time": 233509, "pitch": 38, "duration": 10, "velocity": 110}, {"time": 3363, "pitch": 35, "duration": 10, "velocity": 85}, {"time": 3363, "pitch": 44, "duration": 10, "velocity": 80}, {"time": 3602, "pitch": 42, "duration": 10, "velocity": 100}, {"time": 3841, "pitch": 40, "duration": 10, "velocity": 100}, {"time": 3841, "pitch": 46, "duration": 10, "velocity": 80}, {"time": 4080, "pitch": 42, "duration": 10, "velocity": 100}, {"time": 4199, "pitch": 35, "duration": 10, "velocity": 85}, {"time": 4319, "pitch": 35, "duration": 10, "velocity": 85}, {"time": 4319, "pitch": 44, "duration": 10, "velocity": 80}, {"time": 4438, "pitch": 42, "duration": 10, "velocity": 100}, {"time": 4557, "pitch": 35, "duration": 10, "velocity": 85}, {"time": 4557, "pitch": 44, "duration": 10, "velocity": 80}, {"time": 4796, "pitch": 40, "duration": 10, "velocity": 100}, {"time": 4796, "pitch": 42, "duration": 10, "velocity": 100}, {"time": 5040, "pitch": 35, "duration": 10, "velocity": 85}, {"time": 5040, "pitch": 46, "duration": 10, "velocity": 80}, {"time": 5284, "pitch": 35, "duration": 10, "velocity": 85}, {"time": 5284, "pitch": 44, "duration": 10, "velocity": 80}, {"time": 5523, "pitch": 42, "duration": 10, "velocity": 100}, {"time": 5762, "pitch": 40, "duration": 10, "velocity": 100}, {"time": 5762, "pitch": 46, "duration": 10, "velocity": 80}, {"time": 6001, "pitch": 42, "duration": 10, "velocity": 100}, {"time": 6120, "pitch": 35, "duration": 10, "velocity": 85}, {"time": 6240, "pitch": 35, "duration": 10, "velocity": 85}, {"time": 6240, "pitch": 44, "duration": 10, "velocity": 80}, {"time": 6359, "pitch": 42, "duration": 10, "velocity": 100}, {"time": 6478, "pitch": 35, "duration": 10, "velocity": 85}, {"time": 6478, "pitch": 44, "duration": 10, "velocity": 80}, {"time": 6717, "pitch": 40, "duration": 10, "velocity": 100}, {"time": 6717, "pitch": 42, "duration": 10, "velocity": 100}, {"time": 6956, "pitch": 35, "duration": 10, "velocity": 85}, {"time": 6956, "pitch": 46, "duration": 10, "velocity": 80}, {"time": 7195, "pitch": 35, "duration": 10, "velocity": 85}, {"time": 7195, "pitch": 44, "duration": 10, "velocity": 80}, {"time": 7439, "pitch": 42, "duration": 10, "velocity": 100}, {"time": 7683, "pitch": 40, "duration": 10, "velocity": 100}, {"time": 7683, "pitch": 46, "duration": 10, "velocity": 80}, {"time": 7922, "pitch": 42, "duration": 10, "velocity": 100}, {"time": 8041, "pitch": 35, "duration": 10, "velocity": 85}, {"time": 8161, "pitch": 35, "duration": 10, "velocity": 85}, {"time": 8161, "pitch": 44, "duration": 10, "velocity": 80}, {"time": 8280, "pitch": 42, "duration": 10, "velocity": 100}, {"time": 8400, "pitch": 35, "duration": 10, "velocity": 85}, {"time": 8400, "pitch": 44, "duration": 10, "velocity": 80}, {"time": 8638, "pitch": 40, "duration": 10, "velocity": 100}, {"time": 8638, "pitch": 42, "duration": 10, "velocity": 100}, {"time": 8877, "pitch": 35, "duration": 10, "velocity": 85}, {"time": 8877, "pitch": 46, "duration": 10, "velocity": 80}, {"time": 9116, "pitch": 35, "duration": 10, "velocity": 85}, {"time": 9116, "pitch": 44, "duration": 10, "velocity": 80}, {"time": 9360, "pitch": 42, "duration": 10, "velocity": 100}, {"time": 9604, "pitch": 40, "duration": 10, "velocity": 100}, {"time": 9604, "pitch": 46, "duration": 10, "velocity": 80}, {"time": 9843, "pitch": 42, "duration": 10, "velocity": 100}, {"time": 9963, "pitch": 35, "duration": 9, "velocity": 85}, {"time": 10082, "pitch": 35, "duration": 10, "velocity": 85}, {"time": 10082, "pitch": 44, "duration": 10, "velocity": 80}, {"time": 10201, "pitch": 42, "duration": 10, "velocity": 100}, {"time": 10321, "pitch": 35, "duration": 10, "velocity": 85}, {"time": 10321, "pitch": 44, "duration": 10, "velocity": 80}, {"time": 10560, "pitch": 40, "duration": 9, "velocity": 100}, {"time": 10560, "pitch": 42, "duration": 9, "velocity": 100}, {"time": 10798, "pitch": 35, "duration": 10, "velocity": 85}, {"time": 10798, "pitch": 46, "duration": 10, "velocity": 80}, {"time": 11037, "pitch": 35, "duration": 10, "velocity": 75}, {"time": 11037, "pitch": 35, "duration": 10, "velocity": 115}, {"time": 11037, "pitch": 44, "duration": 10, "velocity": 80}, {"time": 11037, "pitch": 49, "duration": 10, "velocity": 80}, {"time": 11037, "pitch": 57, "duration": 10, "velocity": 80}, {"time": 11276, "pitch": 42, "duration": 10, "velocity": 100}, {"time": 11515, "pitch": 35, "duration": 10, "velocity": 115}, {"time": 11515, "pitch": 40, "duration": 10, "velocity": 80}, {"time": 11515, "pitch": 46, "duration": 10, "velocity": 80}, {"time": 11759, "pitch": 42, "duration": 10, "velocity": 100}, {"time": 11881, "pitch": 35, "duration": 10, "velocity": 75}, {"time": 12003, "pitch": 35, "duration": 10, "velocity": 75}, {"time": 12003, "pitch": 35, "duration": 10, "velocity": 115}, {"time": 12003, "pitch": 44, "duration": 10, "velocity": 80}, {"time": 12122, "pitch": 42, "duration": 10, "velocity": 100}, {"time": 12242, "pitch": 35, "duration": 10, "velocity": 75}, {"time": 12242, "pitch": 44, "duration": 10, "velocity": 80}, {"time": 12481, "pitch": 35, "duration": 10, "velocity": 115}, {"time": 12481, "pitch": 40, "duration": 10, "velocity": 80}, {"time": 12481, "pitch": 42, "duration": 10, "velocity": 100}, {"time": 12719, "pitch": 35, "duration": 10, "velocity": 75}, {"time": 12719, "pitch": 46, "duration": 10, "velocity": 80}, {"time": 12958, "pitch": 35, "duration": 10, "velocity": 75}, {"time": 12958, "pitch": 35, "duration": 10, "velocity": 115}, {"time": 12958, "pitch": 44, "duration": 10, "velocity": 80}, {"time": 13197, "pitch": 42, "duration": 10, "velocity": 100}, {"time": 13436, "pitch": 35, "duration": 10, "velocity": 115}, {"time": 13436, "pitch": 40, "duration": 10, "velocity": 80}, {"time": 13436, "pitch": 46, "duration": 10, "velocity": 80}, {"time": 13680, "pitch": 42, "duration": 10, "velocity": 100}, {"time": 13802, "pitch": 35, "duration": 10, "velocity": 75}, {"time": 13924, "pitch": 35, "duration": 10, "velocity": 75}, {"time": 13924, "pitch": 35, "duration": 10, "velocity": 115}, {"time": 13924, "pitch": 44, "duration": 10, "velocity": 80}, {"time": 14044, "pitch": 42, "duration": 9, "velocity": 100}, {"time": 14163, "pitch": 35, "duration": 10, "velocity": 75}, {"time": 14163, "pitch": 44, "duration": 10, "velocity": 80}, {"time": 14402, "pitch": 35, "duration": 10, "velocity": 115}, {"time": 14402, "pitch": 40, "duration": 10, "velocity": 80}, {"time": 14402, "pitch": 42, "duration": 10, "velocity": 100}, {"time": 14641, "pitch": 35, "duration": 10, "velocity": 75}, {"time": 14641, "pitch": 46, "duration": 10, "velocity": 80}, {"time": 14879, "pitch": 35, "duration": 10, "velocity": 75}, {"time": 14879, "pitch": 35, "duration": 10, "velocity": 115}, {"time": 14879, "pitch": 44, "duration": 10, "velocity": 80}, {"time": 15118, "pitch": 42, "duration": 10, "velocity": 100}, {"time": 15357, "pitch": 35, "duration": 10, "velocity": 115}, {"time": 15357, "pitch": 40, "duration": 10, "velocity": 80}, {"time": 15357, "pitch": 46, "duration": 10, "velocity": 80}, {"time": 15601, "pitch": 42, "duration": 10, "velocity": 100}, {"time": 15723, "pitch": 35, "duration": 10, "velocity": 75}, {"time": 15845, "pitch": 35, "duration": 10, "velocity": 75}, {"time": 15845, "pitch": 35, "duration": 10, "velocity": 115}, {"time": 15845, "pitch": 44, "duration": 10, "velocity": 80}, {"time": 15965, "pitch": 42, "duration": 10, "velocity": 100}, {"time": 16084, "pitch": 35, "duration": 10, "velocity": 75}, {"time": 16084, "pitch": 44, "duration": 10, "velocity": 80}, {"time": 16323, "pitch": 35, "duration": 10, "velocity": 115}, {"time": 16323, "pitch": 40, "duration": 10, "velocity": 80}, {"time": 16323, "pitch": 42, "duration": 10, "velocity": 100}, {"time": 16562, "pitch": 35, "duration": 10, "velocity": 75}, {"time": 16562, "pitch": 46, "duration": 10, "velocity": 80}, {"time": 16800, "pitch": 35, "duration": 10, "velocity": 115}, {"time": 16800, "pitch": 40, "duration": 10, "velocity": 80}, {"time": 16800, "pitch": 44, "duration": 10, "velocity": 80}, {"time": 16800, "pitch": 49, "duration": 10, "velocity": 80}, {"time": 16800, "pitch": 57, "duration": 10, "velocity": 80}, {"time": 17039, "pitch": 35, "duration": 10, "velocity": 75}, {"time": 17039, "pitch": 42, "duration": 10, "velocity": 100}, {"time": 17278, "pitch": 35, "duration": 10, "velocity": 115}, {"time": 17278, "pitch": 40, "duration": 10, "velocity": 80}, {"time": 17278, "pitch": 46, "duration": 10, "velocity": 80}, {"time": 17278, "pitch": 49, "duration": 10, "velocity": 80}, {"time": 17278, "pitch": 57, "duration": 10, "velocity": 80}, {"time": 17517, "pitch": 35, "duration": 10, "velocity": 75}, {"time": 17517, "pitch": 42, "duration": 10, "velocity": 100}, {"time": 17756, "pitch": 35, "duration": 10, "velocity": 115}, {"time": 17756, "pitch": 40, "duration": 10, "velocity": 80}, {"time": 17756, "pitch": 44, "duration": 10, "velocity": 80}, {"time": 17756, "pitch": 49, "duration": 10, "velocity": 80}, {"time": 17756, "pitch": 57, "duration": 10, "velocity": 80}, {"time": 17878, "pitch": 40, "duration": 10, "velocity": 80}, {"time": 17878, "pitch": 42, "duration": 10, "velocity": 100}, {"time": 18000, "pitch": 35, "duration": 10, "velocity": 115}, {"time": 18000, "pitch": 44, "duration": 10, "velocity": 80}, {"time": 18000, "pitch": 49, "duration": 10, "velocity": 80}, {"time": 18000, "pitch": 57, "duration": 10, "velocity": 80}, {"time": 18122, "pitch": 40, "duration": 10, "velocity": 80}, {"time": 18244, "pitch": 35, "duration": 10, "velocity": 75}, {"time": 18244, "pitch": 35, "duration": 10, "velocity": 115}, {"time": 18244, "pitch": 42, "duration": 10, "velocity": 100}, {"time": 18244, "pitch": 49, "duration": 10, "velocity": 80}, {"time": 18244, "pitch": 57, "duration": 10, "velocity": 80}, {"time": 18483, "pitch": 35, "duration": 10, "velocity": 115}, {"time": 18483, "pitch": 40, "duration": 10, "velocity": 80}, {"time": 18483, "pitch": 46, "duration": 10, "velocity": 80}, {"time": 18483, "pitch": 49, "duration": 10, "velocity": 80}, {"time": 18483, "pitch": 57, "duration": 10, "velocity": 80}, {"time": 18722, "pitch": 35, "duration": 10, "velocity": 75}, {"time": 18722, "pitch": 35, "duration": 10, "velocity": 115}, {"time": 18722, "pitch": 44, "duration": 10, "velocity": 80}, {"time": 18722, "pitch": 49, "duration": 10, "velocity": 80}, {"time": 18722, "pitch": 57, "duration": 10, "velocity": 80}, {"time": 18960, "pitch": 42, "duration": 10, "velocity": 100}, {"time": 19199, "pitch": 35, "duration": 10, "velocity": 115}, {"time": 19199, "pitch": 40, "duration": 10, "velocity": 80}, {"time": 19199, "pitch": 46, "duration": 10, "velocity": 80}, {"time": 19438, "pitch": 42, "duration": 10, "velocity": 100}, {"time": 19557, "pitch": 35, "duration": 10, "velocity": 75}, {"time": 19677, "pitch": 35, "duration": 10, "velocity": 75}, {"time": 19677, "pitch": 35, "duration": 10, "velocity": 115}, {"time": 19677, "pitch": 44, "duration": 10, "velocity": 80}, {"time": 19799, "pitch": 42, "duration": 10, "velocity": 100}, {"time": 19921, "pitch": 35, "duration": 10, "velocity": 75}, {"time": 19921, "pitch": 35, "duration": 10, "velocity": 115}, {"time": 19921, "pitch": 44, "duration": 10, "velocity": 80}, {"time": 20165, "pitch": 35, "duration": 10, "velocity": 115}, {"time": 20165, "pitch": 40, "duration": 10, "velocity": 80}, {"time": 20165, "pitch": 42, "duration": 10, "velocity": 100}, {"time": 20404, "pitch": 35, "duration": 10, "velocity": 75}, {"time": 20404, "pitch": 46, "duration": 10, "velocity": 80}, {"time": 20643, "pitch": 35, "duration": 10, "velocity": 75}, {"time": 20643, "pitch": 35, "duration": 10, "velocity": 115}, {"time": 20643, "pitch": 44, "duration": 10, "velocity": 80}, {"time": 20882, "pitch": 42, "duration": 9, "velocity": 100}, {"time": 21120, "pitch": 35, "duration": 10, "velocity": 115}, {"time": 21120, "pitch": 40, "duration": 10, "velocity": 80}, {"time": 21120, "pitch": 46, "duration": 10, "velocity": 80}, {"time": 21359, "pitch": 42, "duration": 10, "velocity": 100}, {"time": 21479, "pitch": 35, "duration": 9, "velocity": 75}, {"time": 21598, "pitch": 35, "duration": 10, "velocity": 75}, {"time": 21598, "pitch": 35, "duration": 10, "velocity": 115}, {"time": 21598, "pitch": 44, "duration": 10, "velocity": 80}, {"time": 21717, "pitch": 35, "duration": 10, "velocity": 115}, {"time": 21717, "pitch": 42, "duration": 10, "velocity": 100}, {"time": 21837, "pitch": 35, "duration": 10, "velocity": 75}, {"time": 21837, "pitch": 44, "duration": 10, "velocity": 80}, {"time": 22076, "pitch": 35, "duration": 10, "velocity": 115}, {"time": 22076, "pitch": 40, "duration": 10, "velocity": 80}, {"time": 22076, "pitch": 42, "duration": 10, "velocity": 100}, {"time": 22320, "pitch": 35, "duration": 10, "velocity": 75}, {"time": 22320, "pitch": 46, "duration": 10, "velocity": 80}, {"time": 22564, "pitch": 35, "duration": 10, "velocity": 75}, {"time": 22564, "pitch": 35, "duration": 10, "velocity": 115}, {"time": 22564, "pitch": 44, "duration": 10, "velocity": 80}, {"time": 22803, "pitch": 42, "duration": 10, "velocity": 100}, {"time": 23041, "pitch": 35, "duration": 10, "velocity": 115}, {"time": 23041, "pitch": 40, "duration": 10, "velocity": 80}, {"time": 23041, "pitch": 46, "duration": 10, "velocity": 80}, {"time": 23280, "pitch": 42, "duration": 10, "velocity": 100}, {"time": 23400, "pitch": 35, "duration": 10, "velocity": 75}, {"time": 23519, "pitch": 35, "duration": 10, "velocity": 75}, {"time": 23519, "pitch": 35, "duration": 10, "velocity": 115}, {"time": 23519, "pitch": 44, "duration": 10, "velocity": 80}, {"time": 23638, "pitch": 42, "duration": 10, "velocity": 100}, {"time": 23758, "pitch": 35, "duration": 10, "velocity": 75}, {"time": 23758, "pitch": 35, "duration": 10, "velocity": 115}, {"time": 23758, "pitch": 44, "duration": 10, "velocity": 80}, {"time": 23997, "pitch": 35, "duration": 10, "velocity": 115}, {"time": 23997, "pitch": 40, "duration": 10, "velocity": 80}, {"time": 23997, "pitch": 42, "duration": 10, "velocity": 100}, {"time": 24241, "pitch": 35, "duration": 10, "velocity": 75}, {"time": 24241, "pitch": 46, "duration": 10, "velocity": 80}, {"time": 24485, "pitch": 35, "duration": 10, "velocity": 75}, {"time": 24485, "pitch": 35, "duration": 10, "velocity": 115}, {"time": 24485, "pitch": 44, "duration": 10, "velocity": 80}, {"time": 24724, "pitch": 42, "duration": 10, "velocity": 100}, {"time": 24963, "pitch": 35, "duration": 9, "velocity": 115}, {"time": 24963, "pitch": 40, "duration": 9, "velocity": 80}, {"time": 24963, "pitch": 46, "duration": 9, "velocity": 80}, {"time": 25201, "pitch": 42, "duration": 10, "velocity": 100}, {"time": 25321, "pitch": 35, "duration": 10, "velocity": 75}, {"time": 25440, "pitch": 35, "duration": 10, "velocity": 75}, {"time": 25440, "pitch": 35, "duration": 10, "velocity": 115}, {"time": 25440, "pitch": 44, "duration": 10, "velocity": 80}, {"time": 25560, "pitch": 35, "duration": 10, "velocity": 115}, {"time": 25560, "pitch": 42, "duration": 10, "velocity": 100}, {"time": 25679, "pitch": 35, "duration": 10, "velocity": 75}, {"time": 25679, "pitch": 44, "duration": 10, "velocity": 80}, {"time": 25918, "pitch": 35, "duration": 10, "velocity": 115}, {"time": 25918, "pitch": 40, "duration": 10, "velocity": 80}, {"time": 25918, "pitch": 42, "duration": 10, "velocity": 100}, {"time": 26037, "pitch": 35, "duration": 10, "velocity": 115}, {"time": 26157, "pitch": 35, "duration": 10, "velocity": 75}, {"time": 26157, "pitch": 46, "duration": 10, "velocity": 80}, {"time": 26395, "pitch": 35, "duration": 10, "velocity": 75}, {"time": 26395, "pitch": 35, "duration": 10, "velocity": 115}, {"time": 26395, "pitch": 44, "duration": 10, "velocity": 80}, {"time": 26395, "pitch": 49, "duration": 10, "velocity": 80}, {"time": 26395, "pitch": 57, "duration": 10, "velocity": 80}, {"time": 26639, "pitch": 42, "duration": 11, "velocity": 100}, {"time": 26884, "pitch": 35, "duration": 10, "velocity": 115}, {"time": 26884, "pitch": 40, "duration": 10, "velocity": 80}, {"time": 26884, "pitch": 46, "duration": 10, "velocity": 80}, {"time": 27122, "pitch": 42, "duration": 10, "velocity": 100}, {"time": 27242, "pitch": 35, "duration": 10, "velocity": 75}, {"time": 27361, "pitch": 35, "duration": 10, "velocity": 75}, {"time": 27361, "pitch": 35, "duration": 10, "velocity": 115}, {"time": 27361, "pitch": 44, "duration": 10, "velocity": 80}, {"time": 27481, "pitch": 42, "duration": 10, "velocity": 100}, {"time": 27600, "pitch": 35, "duration": 10, "velocity": 75}, {"time": 27600, "pitch": 35, "duration": 10, "velocity": 115}, {"time": 27600, "pitch": 44, "duration": 10, "velocity": 80}, {"time": 27839, "pitch": 35, "duration": 10, "velocity": 115}, {"time": 27839, "pitch": 40, "duration": 10, "velocity": 80}, {"time": 27839, "pitch": 42, "duration": 10, "velocity": 100}, {"time": 28078, "pitch": 35, "duration": 10, "velocity": 75}, {"time": 28078, "pitch": 46, "duration": 10, "velocity": 80}, {"time": 28316, "pitch": 35, "duration": 11, "velocity": 75}, {"time": 28316, "pitch": 35, "duration": 11, "velocity": 115}, {"time": 28316, "pitch": 44, "duration": 11, "velocity": 80}, {"time": 28561, "pitch": 42, "duration": 10, "velocity": 100}, {"time": 28805, "pitch": 35, "duration": 10, "velocity": 115}, {"time": 28805, "pitch": 40, "duration": 10, "velocity": 80}, {"time": 28805, "pitch": 46, "duration": 10, "velocity": 80}, {"time": 29044, "pitch": 42, "duration": 10, "velocity": 100}, {"time": 29163, "pitch": 35, "duration": 10, "velocity": 75}, {"time": 29282, "pitch": 35, "duration": 10, "velocity": 75}, {"time": 29282, "pitch": 35, "duration": 10, "velocity": 115}, {"time": 29282, "pitch": 44, "duration": 10, "velocity": 80}, {"time": 29402, "pitch": 42, "duration": 10, "velocity": 100}, {"time": 29521, "pitch": 35, "duration": 10, "velocity": 75}, {"time": 29521, "pitch": 35, "duration": 10, "velocity": 115}, {"time": 29521, "pitch": 44, "duration": 10, "velocity": 80}, {"time": 29760, "pitch": 35, "duration": 10, "velocity": 115}, {"time": 29760, "pitch": 40, "duration": 10, "velocity": 80}, {"time": 29760, "pitch": 42, "duration": 10, "velocity": 100}, {"time": 29999, "pitch": 35, "duration": 10, "velocity": 75}, {"time": 29999, "pitch": 46, "duration": 10, "velocity": 80}, {"time": 30238, "pitch": 35, "duration": 10, "velocity": 75}, {"time": 30238, "pitch": 35, "duration": 10, "velocity": 115}, {"time": 30238, "pitch": 44, "duration": 10, "velocity": 80}, {"time": 30476, "pitch": 42, "duration": 10, "velocity": 100}, {"time": 30715, "pitch": 35, "duration": 10, "velocity": 115}, {"time": 30715, "pitch": 40, "duration": 10, "velocity": 80}, {"time": 30715, "pitch": 46, "duration": 10, "velocity": 80}, {"time": 30959, "pitch": 42, "duration": 11, "velocity": 100}, {"time": 31081, "pitch": 35, "duration": 11, "velocity": 75}, {"time": 31203, "pitch": 35, "duration": 10, "velocity": 75}, {"time": 31203, "pitch": 35, "duration": 10, "velocity": 115}, {"time": 31203, "pitch": 44, "duration": 10, "velocity": 80}, {"time": 31323, "pitch": 42, "duration": 10, "velocity": 100}, {"time": 31442, "pitch": 35, "duration": 10, "velocity": 75}, {"time": 31442, "pitch": 35, "duration": 10, "velocity": 115}, {"time": 31442, "pitch": 44, "duration": 10, "velocity": 80}, {"time": 31681, "pitch": 35, "duration": 10, "velocity": 115}, {"time": 31681, "pitch": 40, "duration": 10, "velocity": 80}, {"time": 31681, "pitch": 42, "duration": 10, "velocity": 100}, {"time": 31920, "pitch": 35, "duration": 10, "velocity": 75}, {"time": 31920, "pitch": 46, "duration": 10, "velocity": 80}, {"time": 32159, "pitch": 35, "duration": 10, "velocity": 75}, {"time": 32159, "pitch": 35, "duration": 10, "velocity": 115}, {"time": 32159, "pitch": 44, "duration": 10, "velocity": 80}, {"time": 32398, "pitch": 42, "duration": 9, "velocity": 100}, {"time": 32636, "pitch": 35, "duration": 10, "velocity": 115}, {"time": 32636, "pitch": 40, "duration": 10, "velocity": 80}, {"time": 32636, "pitch": 46, "duration": 10, "velocity": 80}, {"time": 32880, "pitch": 42, "duration": 11, "velocity": 100}, {"time": 33003, "pitch": 35, "duration": 10, "velocity": 75}, {"time": 33125, "pitch": 35, "duration": 10, "velocity": 75}, {"time": 33125, "pitch": 35, "duration": 10, "velocity": 115}, {"time": 33125, "pitch": 44, "duration": 10, "velocity": 80}, {"time": 33244, "pitch": 35, "duration": 10, "velocity": 115}, {"time": 33244, "pitch": 42, "duration": 10, "velocity": 100}, {"time": 33363, "pitch": 35, "duration": 10, "velocity": 75}, {"time": 33363, "pitch": 44, "duration": 10, "velocity": 80}, {"time": 33602, "pitch": 35, "duration": 10, "velocity": 115}, {"time": 33602, "pitch": 40, "duration": 10, "velocity": 80}, {"time": 33602, "pitch": 42, "duration": 10, "velocity": 100}, {"time": 33722, "pitch": 35, "duration": 10, "velocity": 115}, {"time": 33841, "pitch": 35, "duration": 10, "velocity": 75}, {"time": 33841, "pitch": 46, "duration": 10, "velocity": 80}, {"time": 34080, "pitch": 35, "duration": 10, "velocity": 75}, {"time": 34080, "pitch": 35, "duration": 10, "velocity": 115}, {"time": 34080, "pitch": 44, "duration": 10, "velocity": 80}, {"time": 34080, "pitch": 49, "duration": 10, "velocity": 80}, {"time": 34080, "pitch": 57, "duration": 10, "velocity": 80}, {"time": 34319, "pitch": 42, "duration": 10, "velocity": 100}, {"time": 34557, "pitch": 35, "duration": 10, "velocity": 115}, {"time": 34557, "pitch": 40, "duration": 10, "velocity": 80}, {"time": 34557, "pitch": 46, "duration": 10, "velocity": 80}, {"time": 34796, "pitch": 42, "duration": 10, "velocity": 100}, {"time": 34916, "pitch": 35, "duration": 10, "velocity": 75}, {"time": 35035, "pitch": 35, "duration": 10, "velocity": 75}, {"time": 35035, "pitch": 35, "duration": 10, "velocity": 115}, {"time": 35035, "pitch": 44, "duration": 10, "velocity": 80}, {"time": 35157, "pitch": 42, "duration": 10, "velocity": 100}, {"time": 35279, "pitch": 35, "duration": 10, "velocity": 75}, {"time": 35279, "pitch": 35, "duration": 10, "velocity": 115}, {"time": 35279, "pitch": 44, "duration": 10, "velocity": 80}, {"time": 35523, "pitch": 35, "duration": 10, "velocity": 115}, {"time": 35523, "pitch": 40, "duration": 10, "velocity": 80}, {"time": 35523, "pitch": 42, "duration": 10, "velocity": 100}, {"time": 35762, "pitch": 35, "duration": 10, "velocity": 75}, {"time": 35762, "pitch": 46, "duration": 10, "velocity": 80}, {"time": 36001, "pitch": 35, "duration": 10, "velocity": 75}, {"time": 36001, "pitch": 35, "duration": 10, "velocity": 115}, {"time": 36001, "pitch": 44, "duration": 10, "velocity": 80}, {"time": 36240, "pitch": 42, "duration": 10, "velocity": 100}, {"time": 36479, "pitch": 35, "duration": 10, "velocity": 115}, {"time": 36479, "pitch": 40, "duration": 10, "velocity": 80}, {"time": 36479, "pitch": 46, "duration": 10, "velocity": 80}, {"time": 36717, "pitch": 42, "duration": 10, "velocity": 100}, {"time": 36837, "pitch": 35, "duration": 10, "velocity": 75}, {"time": 36956, "pitch": 35, "duration": 10, "velocity": 75}, {"time": 36956, "pitch": 35, "duration": 10, "velocity": 115}, {"time": 36956, "pitch": 44, "duration": 10, "velocity": 80}, {"time": 37078, "pitch": 35, "duration": 10, "velocity": 115}, {"time": 37078, "pitch": 42, "duration": 10, "velocity": 100}, {"time": 37200, "pitch": 35, "duration": 10, "velocity": 75}, {"time": 37200, "pitch": 44, "duration": 10, "velocity": 80}, {"time": 37444, "pitch": 35, "duration": 10, "velocity": 115}, {"time": 37444, "pitch": 40, "duration": 10, "velocity": 80}, {"time": 37444, "pitch": 42, "duration": 10, "velocity": 100}, {"time": 37683, "pitch": 35, "duration": 10, "velocity": 75}, {"time": 37683, "pitch": 46, "duration": 10, "velocity": 80}, {"time": 37922, "pitch": 35, "duration": 10, "velocity": 75}, {"time": 37922, "pitch": 35, "duration": 10, "velocity": 115}, {"time": 37922, "pitch": 44, "duration": 10, "velocity": 80}, {"time": 38161, "pitch": 42, "duration": 10, "velocity": 100}, {"time": 38400, "pitch": 35, "duration": 10, "velocity": 115}, {"time": 38400, "pitch": 40, "duration": 10, "velocity": 80}, {"time": 38400, "pitch": 46, "duration": 10, "velocity": 80}, {"time": 38638, "pitch": 42, "duration": 10, "velocity": 100}, {"time": 38758, "pitch": 35, "duration": 10, "velocity": 75}, {"time": 38877, "pitch": 35, "duration": 10, "velocity": 75}, {"time": 38877, "pitch": 35, "duration": 10, "velocity": 115}, {"time": 38877, "pitch": 44, "duration": 10, "velocity": 80}, {"time": 38997, "pitch": 42, "duration": 10, "velocity": 100}, {"time": 39116, "pitch": 35, "duration": 10, "velocity": 75}, {"time": 39116, "pitch": 35, "duration": 10, "velocity": 115}, {"time": 39116, "pitch": 44, "duration": 10, "velocity": 80}, {"time": 39355, "pitch": 35, "duration": 10, "velocity": 115}, {"time": 39355, "pitch": 40, "duration": 10, "velocity": 80}, {"time": 39355, "pitch": 42, "duration": 10, "velocity": 100}, {"time": 39599, "pitch": 35, "duration": 10, "velocity": 75}, {"time": 39599, "pitch": 46, "duration": 10, "velocity": 80}, {"time": 39843, "pitch": 35, "duration": 10, "velocity": 75}, {"time": 39843, "pitch": 35, "duration": 10, "velocity": 115}, {"time": 39843, "pitch": 44, "duration": 10, "velocity": 80}, {"time": 40082, "pitch": 42, "duration": 10, "velocity": 100}, {"time": 40321, "pitch": 35, "duration": 10, "velocity": 115}, {"time": 40321, "pitch": 40, "duration": 10, "velocity": 80}, {"time": 40321, "pitch": 46, "duration": 10, "velocity": 80}, {"time": 40560, "pitch": 42, "duration": 10, "velocity": 100}, {"time": 40679, "pitch": 35, "duration": 10, "velocity": 75}, {"time": 40798, "pitch": 35, "duration": 10, "velocity": 75}, {"time": 40798, "pitch": 35, "duration": 10, "velocity": 115}, {"time": 40798, "pitch": 44, "duration": 10, "velocity": 80}, {"time": 40918, "pitch": 35, "duration": 10, "velocity": 115}, {"time": 40918, "pitch": 42, "duration": 10, "velocity": 100}, {"time": 41037, "pitch": 35, "duration": 10, "velocity": 75}, {"time": 41037, "pitch": 44, "duration": 10, "velocity": 80}, {"time": 41276, "pitch": 35, "duration": 10, "velocity": 115}, {"time": 41276, "pitch": 40, "duration": 10, "velocity": 80}, {"time": 41276, "pitch": 42, "duration": 10, "velocity": 100}, {"time": 41398, "pitch": 35, "duration": 10, "velocity": 115}, {"time": 41520, "pitch": 35, "duration": 10, "velocity": 75}, {"time": 41520, "pitch": 46, "duration": 10, "velocity": 80}, {"time": 41764, "pitch": 35, "duration": 10, "velocity": 75}, {"time": 41764, "pitch": 35, "duration": 10, "velocity": 115}, {"time": 41764, "pitch": 44, "duration": 10, "velocity": 80}, {"time": 42003, "pitch": 42, "duration": 10, "velocity": 100}, {"time": 42242, "pitch": 35, "duration": 10, "velocity": 115}, {"time": 42242, "pitch": 40, "duration": 10, "velocity": 80}, {"time": 42242, "pitch": 46, "duration": 10, "velocity": 80}, {"time": 42481, "pitch": 42, "duration": 10, "velocity": 100}, {"time": 42600, "pitch": 35, "duration": 10, "velocity": 75}, {"time": 42720, "pitch": 35, "duration": 9, "velocity": 75}, {"time": 42720, "pitch": 35, "duration": 9, "velocity": 115}, {"time": 42720, "pitch": 44, "duration": 9, "velocity": 80}, {"time": 42839, "pitch": 42, "duration": 10, "velocity": 100}, {"time": 42958, "pitch": 35, "duration": 10, "velocity": 75}, {"time": 42958, "pitch": 35, "duration": 10, "velocity": 115}, {"time": 42958, "pitch": 44, "duration": 10, "velocity": 80}, {"time": 43197, "pitch": 35, "duration": 10, "velocity": 115}, {"time": 43197, "pitch": 40, "duration": 10, "velocity": 80}, {"time": 43197, "pitch": 42, "duration": 10, "velocity": 100}, {"time": 43436, "pitch": 35, "duration": 10, "velocity": 75}, {"time": 43436, "pitch": 46, "duration": 10, "velocity": 80}, {"time": 43675, "pitch": 35, "duration": 10, "velocity": 75}, {"time": 43675, "pitch": 35, "duration": 10, "velocity": 115}, {"time": 43675, "pitch": 44, "duration": 10, "velocity": 80}, {"time": 43919, "pitch": 42, "duration": 10, "velocity": 100}, {"time": 44163, "pitch": 35, "duration": 10, "velocity": 115}, {"time": 44163, "pitch": 40, "duration": 10, "velocity": 80}, {"time": 44163, "pitch": 46, "duration": 10, "velocity": 80}, {"time": 44402, "pitch": 42, "duration": 10, "velocity": 100}, {"time": 44521, "pitch": 35, "duration": 10, "velocity": 75}, {"time": 44641, "pitch": 35, "duration": 10, "velocity": 75}, {"time": 44641, "pitch": 35, "duration": 10, "velocity": 115}, {"time": 44641, "pitch": 44, "duration": 10, "velocity": 80}, {"time": 44760, "pitch": 42, "duration": 10, "velocity": 100}, {"time": 44879, "pitch": 35, "duration": 10, "velocity": 75}, {"time": 44879, "pitch": 35, "duration": 10, "velocity": 115}, {"time": 44879, "pitch": 44, "duration": 10, "velocity": 80}, {"time": 45118, "pitch": 35, "duration": 10, "velocity": 115}, {"time": 45118, "pitch": 40, "duration": 10, "velocity": 80}, {"time": 45118, "pitch": 42, "duration": 10, "velocity": 100}, {"time": 45357, "pitch": 35, "duration": 10, "velocity": 75}, {"time": 45357, "pitch": 46, "duration": 10, "velocity": 80}, {"time": 45596, "pitch": 35, "duration": 10, "velocity": 75}, {"time": 45596, "pitch": 35, "duration": 10, "velocity": 115}, {"time": 45596, "pitch": 44, "duration": 10, "velocity": 80}, {"time": 45840, "pitch": 42, "duration": 10, "velocity": 100}, {"time": 46084, "pitch": 35, "duration": 10, "velocity": 115}, {"time": 46084, "pitch": 40, "duration": 10, "velocity": 80}, {"time": 46084, "pitch": 46, "duration": 10, "velocity": 80}, {"time": 46323, "pitch": 42, "duration": 10, "velocity": 100}, {"time": 46442, "pitch": 35, "duration": 10, "velocity": 75}, {"time": 46562, "pitch": 35, "duration": 10, "velocity": 75}, {"time": 46562, "pitch": 35, "duration": 10, "velocity": 115}, {"time": 46562, "pitch": 44, "duration": 10, "velocity": 80}, {"time": 46681, "pitch": 42, "duration": 10, "velocity": 100}, {"time": 46801, "pitch": 35, "duration": 9, "velocity": 75}, {"time": 46801, "pitch": 35, "duration": 9, "velocity": 115}, {"time": 46801, "pitch": 44, "duration": 9, "velocity": 80}, {"time": 47039, "pitch": 35, "duration": 10, "velocity": 115}, {"time": 47039, "pitch": 40, "duration": 10, "velocity": 80}, {"time": 47039, "pitch": 42, "duration": 10, "velocity": 100}, {"time": 47278, "pitch": 35, "duration": 10, "velocity": 75}, {"time": 47278, "pitch": 46, "duration": 10, "velocity": 80}, {"time": 47517, "pitch": 35, "duration": 10, "velocity": 75}, {"time": 47517, "pitch": 35, "duration": 10, "velocity": 115}, {"time": 47517, "pitch": 44, "duration": 10, "velocity": 80}, {"time": 47761, "pitch": 42, "duration": 10, "velocity": 100}, {"time": 48005, "pitch": 35, "duration": 10, "velocity": 115}, {"time": 48005, "pitch": 40, "duration": 10, "velocity": 80}, {"time": 48005, "pitch": 46, "duration": 10, "velocity": 80}, {"time": 48244, "pitch": 42, "duration": 10, "velocity": 100}, {"time": 48363, "pitch": 35, "duration": 10, "velocity": 75}, {"time": 48483, "pitch": 35, "duration": 10, "velocity": 75}, {"time": 48483, "pitch": 35, "duration": 10, "velocity": 115}, {"time": 48483, "pitch": 44, "duration": 10, "velocity": 80}, {"time": 48602, "pitch": 35, "duration": 10, "velocity": 115}, {"time": 48602, "pitch": 42, "duration": 10, "velocity": 100}, {"time": 48722, "pitch": 35, "duration": 10, "velocity": 75}, {"time": 48722, "pitch": 44, "duration": 10, "velocity": 80}, {"time": 48960, "pitch": 35, "duration": 10, "velocity": 115}, {"time": 48960, "pitch": 40, "duration": 10, "velocity": 80}, {"time": 48960, "pitch": 42, "duration": 10, "velocity": 100}, {"time": 49080, "pitch": 35, "duration": 10, "velocity": 115}, {"time": 49199, "pitch": 35, "duration": 10, "velocity": 75}, {"time": 49199, "pitch": 46, "duration": 10, "velocity": 80}, {"time": 49438, "pitch": 35, "duration": 10, "velocity": 75}, {"time": 49438, "pitch": 35, "duration": 10, "velocity": 115}, {"time": 49438, "pitch": 44, "duration": 10, "velocity": 80}, {"time": 49677, "pitch": 42, "duration": 10, "velocity": 100}, {"time": 49916, "pitch": 35, "duration": 10, "velocity": 115}, {"time": 49916, "pitch": 40, "duration": 10, "velocity": 80}, {"time": 49916, "pitch": 46, "duration": 10, "velocity": 80}, {"time": 50160, "pitch": 42, "duration": 10, "velocity": 100}, {"time": 50282, "pitch": 35, "duration": 10, "velocity": 75}, {"time": 50404, "pitch": 35, "duration": 10, "velocity": 75}, {"time": 50404, "pitch": 35, "duration": 10, "velocity": 115}, {"time": 50404, "pitch": 44, "duration": 10, "velocity": 80}, {"time": 50523, "pitch": 42, "duration": 10, "velocity": 100}, {"time": 50643, "pitch": 35, "duration": 10, "velocity": 75}, {"time": 50643, "pitch": 35, "duration": 10, "velocity": 115}, {"time": 50643, "pitch": 44, "duration": 10, "velocity": 80}, {"time": 50882, "pitch": 35, "duration": 10, "velocity": 115}, {"time": 50882, "pitch": 40, "duration": 10, "velocity": 80}, {"time": 50882, "pitch": 42, "duration": 10, "velocity": 100}, {"time": 51120, "pitch": 35, "duration": 10, "velocity": 75}, {"time": 51120, "pitch": 46, "duration": 10, "velocity": 80}, {"time": 51359, "pitch": 35, "duration": 10, "velocity": 75}, {"time": 51359, "pitch": 35, "duration": 10, "velocity": 115}, {"time": 51359, "pitch": 44, "duration": 10, "velocity": 80}, {"time": 51598, "pitch": 42, "duration": 10, "velocity": 100}, {"time": 51837, "pitch": 35, "duration": 10, "velocity": 115}, {"time": 51837, "pitch": 40, "duration": 10, "velocity": 80}, {"time": 51837, "pitch": 46, "duration": 10, "velocity": 80}, {"time": 52081, "pitch": 42, "duration": 10, "velocity": 100}, {"time": 52203, "pitch": 35, "duration": 10, "velocity": 75}, {"time": 52325, "pitch": 35, "duration": 10, "velocity": 75}, {"time": 52325, "pitch": 35, "duration": 10, "velocity": 115}, {"time": 52325, "pitch": 44, "duration": 10, "velocity": 80}, {"time": 52444, "pitch": 35, "duration": 10, "velocity": 115}, {"time": 52444, "pitch": 42, "duration": 10, "velocity": 100}, {"time": 52564, "pitch": 35, "duration": 10, "velocity": 75}, {"time": 52564, "pitch": 44, "duration": 10, "velocity": 80}, {"time": 52803, "pitch": 35, "duration": 10, "velocity": 115}, {"time": 52803, "pitch": 40, "duration": 10, "velocity": 80}, {"time": 52803, "pitch": 42, "duration": 10, "velocity": 100}, {"time": 53041, "pitch": 35, "duration": 10, "velocity": 75}, {"time": 53041, "pitch": 46, "duration": 10, "velocity": 80}, {"time": 53280, "pitch": 35, "duration": 10, "velocity": 75}, {"time": 53280, "pitch": 35, "duration": 10, "velocity": 115}, {"time": 53280, "pitch": 44, "duration": 10, "velocity": 80}, {"time": 53519, "pitch": 42, "duration": 10, "velocity": 100}, {"time": 53758, "pitch": 35, "duration": 10, "velocity": 115}, {"time": 53758, "pitch": 40, "duration": 10, "velocity": 80}, {"time": 53758, "pitch": 46, "duration": 10, "velocity": 80}, {"time": 53997, "pitch": 42, "duration": 10, "velocity": 100}, {"time": 54116, "pitch": 35, "duration": 10, "velocity": 75}, {"time": 54236, "pitch": 35, "duration": 10, "velocity": 75}, {"time": 54236, "pitch": 35, "duration": 10, "velocity": 115}, {"time": 54236, "pitch": 44, "duration": 10, "velocity": 80}, {"time": 54358, "pitch": 42, "duration": 10, "velocity": 100}, {"time": 54480, "pitch": 35, "duration": 10, "velocity": 75}, {"time": 54480, "pitch": 35, "duration": 10, "velocity": 115}, {"time": 54480, "pitch": 44, "duration": 10, "velocity": 80}, {"time": 54724, "pitch": 35, "duration": 10, "velocity": 115}, {"time": 54724, "pitch": 40, "duration": 10, "velocity": 80}, {"time": 54724, "pitch": 42, "duration": 10, "velocity": 100}, {"time": 54963, "pitch": 35, "duration": 10, "velocity": 75}, {"time": 54963, "pitch": 46, "duration": 10, "velocity": 80}, {"time": 55201, "pitch": 35, "duration": 10, "velocity": 75}, {"time": 55201, "pitch": 35, "duration": 10, "velocity": 115}, {"time": 55201, "pitch": 44, "duration": 10, "velocity": 80}, {"time": 55440, "pitch": 42, "duration": 10, "velocity": 100}, {"time": 55679, "pitch": 35, "duration": 10, "velocity": 115}, {"time": 55679, "pitch": 40, "duration": 10, "velocity": 80}, {"time": 55679, "pitch": 46, "duration": 10, "velocity": 80}, {"time": 55918, "pitch": 42, "duration": 10, "velocity": 100}, {"time": 56037, "pitch": 35, "duration": 10, "velocity": 75}, {"time": 56157, "pitch": 35, "duration": 10, "velocity": 75}, {"time": 56157, "pitch": 35, "duration": 10, "velocity": 115}, {"time": 56157, "pitch": 44, "duration": 10, "velocity": 80}, {"time": 56279, "pitch": 35, "duration": 10, "velocity": 115}, {"time": 56279, "pitch": 42, "duration": 10, "velocity": 100}, {"time": 56401, "pitch": 35, "duration": 10, "velocity": 75}, {"time": 56401, "pitch": 44, "duration": 10, "velocity": 80}, {"time": 56645, "pitch": 35, "duration": 10, "velocity": 115}, {"time": 56645, "pitch": 40, "duration": 10, "velocity": 80}, {"time": 56645, "pitch": 42, "duration": 10, "velocity": 100}, {"time": 56764, "pitch": 35, "duration": 10, "velocity": 115}, {"time": 56884, "pitch": 35, "duration": 10, "velocity": 75}, {"time": 56884, "pitch": 46, "duration": 10, "velocity": 80}, {"time": 57123, "pitch": 35, "duration": 9, "velocity": 75}, {"time": 57123, "pitch": 35, "duration": 9, "velocity": 115}, {"time": 57123, "pitch": 44, "duration": 9, "velocity": 80}, {"time": 57361, "pitch": 42, "duration": 10, "velocity": 100}, {"time": 57600, "pitch": 35, "duration": 10, "velocity": 115}, {"time": 57600, "pitch": 40, "duration": 10, "velocity": 80}, {"time": 57600, "pitch": 46, "duration": 10, "velocity": 80}, {"time": 57839, "pitch": 42, "duration": 10, "velocity": 100}, {"time": 57958, "pitch": 35, "duration": 10, "velocity": 75}, {"time": 58078, "pitch": 35, "duration": 10, "velocity": 75}, {"time": 58078, "pitch": 35, "duration": 10, "velocity": 115}, {"time": 58078, "pitch": 44, "duration": 10, "velocity": 80}, {"time": 58197, "pitch": 42, "duration": 10, "velocity": 100}, {"time": 58317, "pitch": 35, "duration": 10, "velocity": 75}, {"time": 58317, "pitch": 35, "duration": 10, "velocity": 115}, {"time": 58317, "pitch": 44, "duration": 10, "velocity": 80}, {"time": 58555, "pitch": 35, "duration": 10, "velocity": 115}, {"time": 58555, "pitch": 40, "duration": 10, "velocity": 80}, {"time": 58555, "pitch": 42, "duration": 10, "velocity": 100}, {"time": 58799, "pitch": 35, "duration": 11, "velocity": 75}, {"time": 58799, "pitch": 46, "duration": 11, "velocity": 80}, {"time": 59044, "pitch": 35, "duration": 10, "velocity": 75}, {"time": 59044, "pitch": 35, "duration": 10, "velocity": 115}, {"time": 59044, "pitch": 44, "duration": 10, "velocity": 80}, {"time": 59282, "pitch": 42, "duration": 10, "velocity": 100}, {"time": 59521, "pitch": 35, "duration": 10, "velocity": 115}, {"time": 59521, "pitch": 40, "duration": 10, "velocity": 80}, {"time": 59521, "pitch": 46, "duration": 10, "velocity": 80}, {"time": 59760, "pitch": 42, "duration": 10, "velocity": 100}, {"time": 59879, "pitch": 35, "duration": 10, "velocity": 75}, {"time": 59999, "pitch": 35, "duration": 10, "velocity": 75}, {"time": 59999, "pitch": 35, "duration": 10, "velocity": 115}, {"time": 59999, "pitch": 44, "duration": 10, "velocity": 80}, {"time": 60118, "pitch": 42, "duration": 10, "velocity": 100}, {"time": 60238, "pitch": 35, "duration": 10, "velocity": 75}, {"time": 60238, "pitch": 35, "duration": 10, "velocity": 115}, {"time": 60238, "pitch": 44, "duration": 10, "velocity": 80}, {"time": 60476, "pitch": 35, "duration": 11, "velocity": 115}, {"time": 60476, "pitch": 40, "duration": 11, "velocity": 80}, {"time": 60476, "pitch": 42, "duration": 11, "velocity": 100}, {"time": 60721, "pitch": 35, "duration": 10, "velocity": 75}, {"time": 60721, "pitch": 46, "duration": 10, "velocity": 80}, {"time": 60965, "pitch": 35, "duration": 10, "velocity": 75}, {"time": 60965, "pitch": 35, "duration": 10, "velocity": 115}, {"time": 60965, "pitch": 44, "duration": 10, "velocity": 80}, {"time": 61204, "pitch": 42, "duration": 10, "velocity": 100}, {"time": 61442, "pitch": 35, "duration": 10, "velocity": 115}, {"time": 61442, "pitch": 40, "duration": 10, "velocity": 80}, {"time": 61442, "pitch": 46, "duration": 10, "velocity": 80}, {"time": 61681, "pitch": 42, "duration": 10, "velocity": 100}, {"time": 61801, "pitch": 35, "duration": 10, "velocity": 75}, {"time": 61920, "pitch": 35, "duration": 10, "velocity": 75}, {"time": 61920, "pitch": 35, "duration": 10, "velocity": 115}, {"time": 61920, "pitch": 44, "duration": 10, "velocity": 80}, {"time": 62039, "pitch": 42, "duration": 10, "velocity": 100}, {"time": 62159, "pitch": 35, "duration": 10, "velocity": 75}, {"time": 62159, "pitch": 35, "duration": 10, "velocity": 115}, {"time": 62159, "pitch": 44, "duration": 10, "velocity": 80}, {"time": 62398, "pitch": 35, "duration": 10, "velocity": 115}, {"time": 62398, "pitch": 40, "duration": 10, "velocity": 80}, {"time": 62398, "pitch": 42, "duration": 10, "velocity": 100}, {"time": 62636, "pitch": 35, "duration": 10, "velocity": 75}, {"time": 62636, "pitch": 46, "duration": 10, "velocity": 80}, {"time": 62875, "pitch": 35, "duration": 10, "velocity": 75}, {"time": 62875, "pitch": 35, "duration": 10, "velocity": 115}, {"time": 62875, "pitch": 44, "duration": 10, "velocity": 80}, {"time": 63119, "pitch": 42, "duration": 10, "velocity": 100}, {"time": 63363, "pitch": 35, "duration": 10, "velocity": 115}, {"time": 63363, "pitch": 40, "duration": 10, "velocity": 80}, {"time": 63363, "pitch": 46, "duration": 10, "velocity": 80}, {"time": 63602, "pitch": 42, "duration": 10, "velocity": 100}, {"time": 63722, "pitch": 35, "duration": 10, "velocity": 75}, {"time": 63841, "pitch": 35, "duration": 10, "velocity": 75}, {"time": 63841, "pitch": 35, "duration": 10, "velocity": 115}, {"time": 63841, "pitch": 44, "duration": 10, "velocity": 80}, {"time": 63960, "pitch": 35, "duration": 10, "velocity": 115}, {"time": 63960, "pitch": 42, "duration": 10, "velocity": 100}, {"time": 64080, "pitch": 35, "duration": 10, "velocity": 75}, {"time": 64080, "pitch": 44, "duration": 10, "velocity": 80}, {"time": 64319, "pitch": 35, "duration": 10, "velocity": 115}, {"time": 64319, "pitch": 40, "duration": 10, "velocity": 80}, {"time": 64319, "pitch": 42, "duration": 10, "velocity": 100}, {"time": 64438, "pitch": 35, "duration": 10, "velocity": 115}, {"time": 64558, "pitch": 35, "duration": 9, "velocity": 75}, {"time": 64558, "pitch": 46, "duration": 9, "velocity": 80}, {"time": 64796, "pitch": 35, "duration": 10, "velocity": 75}, {"time": 64796, "pitch": 35, "duration": 10, "velocity": 115}, {"time": 64796, "pitch": 44, "duration": 10, "velocity": 80}, {"time": 64796, "pitch": 49, "duration": 10, "velocity": 80}, {"time": 64796, "pitch": 57, "duration": 10, "velocity": 80}, {"time": 65040, "pitch": 42, "duration": 11, "velocity": 100}, {"time": 65285, "pitch": 35, "duration": 10, "velocity": 115}, {"time": 65285, "pitch": 40, "duration": 10, "velocity": 80}, {"time": 65285, "pitch": 46, "duration": 10, "velocity": 80}, {"time": 65523, "pitch": 42, "duration": 10, "velocity": 100}, {"time": 65643, "pitch": 35, "duration": 10, "velocity": 75}, {"time": 65762, "pitch": 35, "duration": 10, "velocity": 75}, {"time": 65762, "pitch": 35, "duration": 10, "velocity": 115}, {"time": 65762, "pitch": 44, "duration": 10, "velocity": 80}, {"time": 65882, "pitch": 42, "duration": 10, "velocity": 100}, {"time": 66001, "pitch": 35, "duration": 10, "velocity": 75}, {"time": 66001, "pitch": 35, "duration": 10, "velocity": 115}, {"time": 66001, "pitch": 44, "duration": 10, "velocity": 80}, {"time": 66240, "pitch": 35, "duration": 10, "velocity": 115}, {"time": 66240, "pitch": 40, "duration": 10, "velocity": 80}, {"time": 66240, "pitch": 42, "duration": 10, "velocity": 100}, {"time": 66479, "pitch": 35, "duration": 10, "velocity": 75}, {"time": 66479, "pitch": 46, "duration": 10, "velocity": 80}, {"time": 66717, "pitch": 35, "duration": 10, "velocity": 75}, {"time": 66717, "pitch": 35, "duration": 10, "velocity": 115}, {"time": 66717, "pitch": 44, "duration": 10, "velocity": 80}, {"time": 66956, "pitch": 42, "duration": 10, "velocity": 100}, {"time": 67195, "pitch": 35, "duration": 10, "velocity": 115}, {"time": 67195, "pitch": 40, "duration": 10, "velocity": 80}, {"time": 67195, "pitch": 46, "duration": 10, "velocity": 80}, {"time": 67439, "pitch": 42, "duration": 10, "velocity": 100}, {"time": 67561, "pitch": 35, "duration": 10, "velocity": 75}, {"time": 67683, "pitch": 35, "duration": 10, "velocity": 75}, {"time": 67683, "pitch": 35, "duration": 10, "velocity": 115}, {"time": 67683, "pitch": 44, "duration": 10, "velocity": 80}, {"time": 67803, "pitch": 35, "duration": 10, "velocity": 115}, {"time": 67803, "pitch": 42, "duration": 10, "velocity": 100}, {"time": 67922, "pitch": 35, "duration": 10, "velocity": 75}, {"time": 67922, "pitch": 44, "duration": 10, "velocity": 80}, {"time": 68161, "pitch": 35, "duration": 10, "velocity": 115}, {"time": 68161, "pitch": 40, "duration": 10, "velocity": 80}, {"time": 68161, "pitch": 42, "duration": 10, "velocity": 100}, {"time": 68400, "pitch": 35, "duration": 10, "velocity": 75}, {"time": 68400, "pitch": 46, "duration": 10, "velocity": 80}, {"time": 68639, "pitch": 35, "duration": 9, "velocity": 75}, {"time": 68639, "pitch": 35, "duration": 9, "velocity": 115}, {"time": 68639, "pitch": 44, "duration": 9, "velocity": 80}, {"time": 68877, "pitch": 42, "duration": 10, "velocity": 100}, {"time": 69116, "pitch": 35, "duration": 10, "velocity": 115}, {"time": 69116, "pitch": 40, "duration": 10, "velocity": 80}, {"time": 69116, "pitch": 46, "duration": 10, "velocity": 80}, {"time": 69360, "pitch": 42, "duration": 10, "velocity": 100}, {"time": 69482, "pitch": 35, "duration": 11, "velocity": 75}, {"time": 69604, "pitch": 35, "duration": 10, "velocity": 75}, {"time": 69604, "pitch": 35, "duration": 10, "velocity": 115}, {"time": 69604, "pitch": 44, "duration": 10, "velocity": 80}, {"time": 69724, "pitch": 42, "duration": 10, "velocity": 100}, {"time": 69843, "pitch": 35, "duration": 10, "velocity": 75}, {"time": 69843, "pitch": 35, "duration": 10, "velocity": 115}, {"time": 69843, "pitch": 44, "duration": 10, "velocity": 80}, {"time": 70082, "pitch": 35, "duration": 10, "velocity": 115}, {"time": 70082, "pitch": 40, "duration": 10, "velocity": 80}, {"time": 70082, "pitch": 42, "duration": 10, "velocity": 100}, {"time": 70321, "pitch": 35, "duration": 10, "velocity": 75}, {"time": 70321, "pitch": 46, "duration": 10, "velocity": 80}, {"time": 70560, "pitch": 35, "duration": 10, "velocity": 75}, {"time": 70560, "pitch": 35, "duration": 10, "velocity": 115}, {"time": 70560, "pitch": 44, "duration": 10, "velocity": 80}, {"time": 70798, "pitch": 42, "duration": 10, "velocity": 100}, {"time": 71037, "pitch": 35, "duration": 10, "velocity": 115}, {"time": 71037, "pitch": 40, "duration": 10, "velocity": 80}, {"time": 71037, "pitch": 46, "duration": 10, "velocity": 80}, {"time": 71276, "pitch": 42, "duration": 10, "velocity": 100}, {"time": 71395, "pitch": 35, "duration": 10, "velocity": 75}, {"time": 71515, "pitch": 35, "duration": 10, "velocity": 75}, {"time": 71515, "pitch": 35, "duration": 10, "velocity": 115}, {"time": 71515, "pitch": 44, "duration": 10, "velocity": 80}, {"time": 71637, "pitch": 35, "duration": 10, "velocity": 115}, {"time": 71637, "pitch": 42, "duration": 10, "velocity": 100}, {"time": 71759, "pitch": 35, "duration": 10, "velocity": 75}, {"time": 71759, "pitch": 44, "duration": 10, "velocity": 80}, {"time": 72003, "pitch": 35, "duration": 10, "velocity": 115}, {"time": 72003, "pitch": 40, "duration": 10, "velocity": 80}, {"time": 72003, "pitch": 42, "duration": 10, "velocity": 100}, {"time": 72123, "pitch": 35, "duration": 10, "velocity": 115}, {"time": 72242, "pitch": 35, "duration": 10, "velocity": 75}, {"time": 72242, "pitch": 46, "duration": 10, "velocity": 80}, {"time": 72481, "pitch": 35, "duration": 10, "velocity": 75}, {"time": 72481, "pitch": 35, "duration": 10, "velocity": 115}, {"time": 72481, "pitch": 44, "duration": 10, "velocity": 80}, {"time": 72481, "pitch": 49, "duration": 10, "velocity": 80}, {"time": 72481, "pitch": 57, "duration": 10, "velocity": 80}, {"time": 72720, "pitch": 42, "duration": 10, "velocity": 100}, {"time": 72958, "pitch": 35, "duration": 10, "velocity": 115}, {"time": 72958, "pitch": 40, "duration": 10, "velocity": 80}, {"time": 72958, "pitch": 46, "duration": 10, "velocity": 80}, {"time": 73197, "pitch": 42, "duration": 10, "velocity": 100}, {"time": 73317, "pitch": 35, "duration": 10, "velocity": 75}, {"time": 73436, "pitch": 35, "duration": 10, "velocity": 75}, {"time": 73436, "pitch": 35, "duration": 10, "velocity": 115}, {"time": 73436, "pitch": 44, "duration": 10, "velocity": 80}, {"time": 73558, "pitch": 42, "duration": 10, "velocity": 100}, {"time": 73680, "pitch": 35, "duration": 10, "velocity": 75}, {"time": 73680, "pitch": 35, "duration": 10, "velocity": 115}, {"time": 73680, "pitch": 44, "duration": 10, "velocity": 80}, {"time": 73924, "pitch": 35, "duration": 10, "velocity": 115}, {"time": 73924, "pitch": 40, "duration": 10, "velocity": 80}, {"time": 73924, "pitch": 42, "duration": 10, "velocity": 100}, {"time": 74163, "pitch": 35, "duration": 10, "velocity": 75}, {"time": 74163, "pitch": 46, "duration": 10, "velocity": 80}, {"time": 74402, "pitch": 35, "duration": 10, "velocity": 75}, {"time": 74402, "pitch": 35, "duration": 10, "velocity": 115}, {"time": 74402, "pitch": 44, "duration": 10, "velocity": 80}, {"time": 74641, "pitch": 42, "duration": 10, "velocity": 100}, {"time": 74879, "pitch": 35, "duration": 10, "velocity": 115}, {"time": 74879, "pitch": 40, "duration": 10, "velocity": 80}, {"time": 74879, "pitch": 46, "duration": 10, "velocity": 80}, {"time": 75118, "pitch": 42, "duration": 10, "velocity": 100}, {"time": 75238, "pitch": 35, "duration": 10, "velocity": 75}, {"time": 75357, "pitch": 35, "duration": 10, "velocity": 75}, {"time": 75357, "pitch": 35, "duration": 10, "velocity": 115}, {"time": 75357, "pitch": 44, "duration": 10, "velocity": 80}, {"time": 75477, "pitch": 42, "duration": 9, "velocity": 100}, {"time": 75596, "pitch": 35, "duration": 10, "velocity": 75}, {"time": 75596, "pitch": 35, "duration": 10, "velocity": 115}, {"time": 75596, "pitch": 44, "duration": 10, "velocity": 80}, {"time": 75835, "pitch": 35, "duration": 10, "velocity": 115}, {"time": 75835, "pitch": 40, "duration": 10, "velocity": 80}, {"time": 75835, "pitch": 42, "duration": 10, "velocity": 100}, {"time": 76079, "pitch": 35, "duration": 10, "velocity": 75}, {"time": 76079, "pitch": 46, "duration": 10, "velocity": 80}, {"time": 76323, "pitch": 35, "duration": 10, "velocity": 75}, {"time": 76323, "pitch": 35, "duration": 10, "velocity": 115}, {"time": 76323, "pitch": 44, "duration": 10, "velocity": 80}, {"time": 76562, "pitch": 42, "duration": 10, "velocity": 100}, {"time": 76801, "pitch": 35, "duration": 10, "velocity": 115}, {"time": 76801, "pitch": 40, "duration": 10, "velocity": 80}, {"time": 76801, "pitch": 46, "duration": 10, "velocity": 80}, {"time": 77039, "pitch": 42, "duration": 10, "velocity": 100}, {"time": 77159, "pitch": 35, "duration": 10, "velocity": 75}, {"time": 77278, "pitch": 35, "duration": 10, "velocity": 75}, {"time": 77278, "pitch": 35, "duration": 10, "velocity": 115}, {"time": 77278, "pitch": 44, "duration": 10, "velocity": 80}, {"time": 77398, "pitch": 42, "duration": 10, "velocity": 100}, {"time": 77517, "pitch": 35, "duration": 10, "velocity": 75}, {"time": 77517, "pitch": 35, "duration": 10, "velocity": 115}, {"time": 77517, "pitch": 44, "duration": 10, "velocity": 80}, {"time": 77756, "pitch": 35, "duration": 10, "velocity": 115}, {"time": 77756, "pitch": 40, "duration": 10, "velocity": 80}, {"time": 77756, "pitch": 42, "duration": 10, "velocity": 100}, {"time": 78000, "pitch": 35, "duration": 10, "velocity": 75}, {"time": 78000, "pitch": 46, "duration": 10, "velocity": 80}, {"time": 78244, "pitch": 35, "duration": 10, "velocity": 75}, {"time": 78244, "pitch": 35, "duration": 10, "velocity": 115}, {"time": 78244, "pitch": 44, "duration": 10, "velocity": 80}, {"time": 78244, "pitch": 49, "duration": 10, "velocity": 80}, {"time": 78244, "pitch": 57, "duration": 10, "velocity": 80}, {"time": 78483, "pitch": 42, "duration": 10, "velocity": 100}, {"time": 78722, "pitch": 35, "duration": 10, "velocity": 115}, {"time": 78722, "pitch": 40, "duration": 10, "velocity": 80}, {"time": 78722, "pitch": 46, "duration": 10, "velocity": 80}, {"time": 78722, "pitch": 49, "duration": 10, "velocity": 80}, {"time": 78722, "pitch": 57, "duration": 10, "velocity": 80}, {"time": 78961, "pitch": 42, "duration": 9, "velocity": 100}, {"time": 79080, "pitch": 35, "duration": 10, "velocity": 75}, {"time": 79199, "pitch": 35, "duration": 10, "velocity": 75}, {"time": 79199, "pitch": 35, "duration": 10, "velocity": 115}, {"time": 79199, "pitch": 44, "duration": 10, "velocity": 80}, {"time": 79199, "pitch": 49, "duration": 10, "velocity": 80}, {"time": 79199, "pitch": 57, "duration": 10, "velocity": 80}, {"time": 79319, "pitch": 35, "duration": 10, "velocity": 115}, {"time": 79319, "pitch": 42, "duration": 10, "velocity": 100}, {"time": 79438, "pitch": 35, "duration": 10, "velocity": 75}, {"time": 79438, "pitch": 44, "duration": 10, "velocity": 80}, {"time": 79558, "pitch": 49, "duration": 9, "velocity": 80}, {"time": 79558, "pitch": 57, "duration": 9, "velocity": 80}, {"time": 79677, "pitch": 35, "duration": 10, "velocity": 115}, {"time": 79677, "pitch": 40, "duration": 10, "velocity": 80}, {"time": 79677, "pitch": 42, "duration": 10, "velocity": 100}, {"time": 79799, "pitch": 35, "duration": 10, "velocity": 115}, {"time": 79921, "pitch": 35, "duration": 10, "velocity": 75}, {"time": 79921, "pitch": 46, "duration": 10, "velocity": 80}, {"time": 79921, "pitch": 49, "duration": 10, "velocity": 80}, {"time": 79921, "pitch": 57, "duration": 10, "velocity": 80}, {"time": 80165, "pitch": 35, "duration": 10, "velocity": 75}, {"time": 80165, "pitch": 35, "duration": 10, "velocity": 115}, {"time": 80165, "pitch": 44, "duration": 10, "velocity": 80}, {"time": 80165, "pitch": 49, "duration": 10, "velocity": 80}, {"time": 80165, "pitch": 57, "duration": 10, "velocity": 80}, {"time": 80404, "pitch": 42, "duration": 10, "velocity": 100}, {"time": 80643, "pitch": 35, "duration": 10, "velocity": 115}, {"time": 80643, "pitch": 40, "duration": 10, "velocity": 80}, {"time": 80643, "pitch": 46, "duration": 10, "velocity": 80}, {"time": 80882, "pitch": 42, "duration": 10, "velocity": 100}, {"time": 81001, "pitch": 35, "duration": 10, "velocity": 75}, {"time": 81120, "pitch": 35, "duration": 10, "velocity": 75}, {"time": 81120, "pitch": 35, "duration": 10, "velocity": 115}, {"time": 81120, "pitch": 44, "duration": 10, "velocity": 80}, {"time": 81240, "pitch": 42, "duration": 10, "velocity": 100}, {"time": 81359, "pitch": 35, "duration": 10, "velocity": 75}, {"time": 81359, "pitch": 35, "duration": 10, "velocity": 115}, {"time": 81359, "pitch": 44, "duration": 10, "velocity": 80}, {"time": 81598, "pitch": 35, "duration": 10, "velocity": 115}, {"time": 81598, "pitch": 40, "duration": 10, "velocity": 80}, {"time": 81598, "pitch": 42, "duration": 10, "velocity": 100}, {"time": 81837, "pitch": 35, "duration": 10, "velocity": 75}, {"time": 81837, "pitch": 46, "duration": 10, "velocity": 80}, {"time": 82076, "pitch": 35, "duration": 10, "velocity": 75}, {"time": 82076, "pitch": 35, "duration": 10, "velocity": 115}, {"time": 82076, "pitch": 44, "duration": 10, "velocity": 80}, {"time": 82320, "pitch": 42, "duration": 10, "velocity": 100}, {"time": 82564, "pitch": 35, "duration": 10, "velocity": 115}, {"time": 82564, "pitch": 40, "duration": 10, "velocity": 80}, {"time": 82564, "pitch": 46, "duration": 10, "velocity": 80}, {"time": 82803, "pitch": 42, "duration": 10, "velocity": 100}, {"time": 82922, "pitch": 35, "duration": 10, "velocity": 75}, {"time": 83042, "pitch": 35, "duration": 10, "velocity": 75}, {"time": 83042, "pitch": 35, "duration": 10, "velocity": 115}, {"time": 83042, "pitch": 44, "duration": 10, "velocity": 80}, {"time": 83161, "pitch": 35, "duration": 10, "velocity": 115}, {"time": 83161, "pitch": 42, "duration": 10, "velocity": 100}, {"time": 83280, "pitch": 35, "duration": 10, "velocity": 75}, {"time": 83280, "pitch": 44, "duration": 10, "velocity": 80}, {"time": 83519, "pitch": 35, "duration": 10, "velocity": 115}, {"time": 83519, "pitch": 40, "duration": 10, "velocity": 80}, {"time": 83519, "pitch": 42, "duration": 10, "velocity": 100}, {"time": 83758, "pitch": 35, "duration": 10, "velocity": 75}, {"time": 83758, "pitch": 46, "duration": 10, "velocity": 80}, {"time": 83997, "pitch": 35, "duration": 10, "velocity": 75}, {"time": 83997, "pitch": 35, "duration": 10, "velocity": 115}, {"time": 83997, "pitch": 44, "duration": 10, "velocity": 80}, {"time": 84241, "pitch": 42, "duration": 10, "velocity": 100}, {"time": 84485, "pitch": 35, "duration": 10, "velocity": 115}, {"time": 84485, "pitch": 40, "duration": 10, "velocity": 80}, {"time": 84485, "pitch": 46, "duration": 10, "velocity": 80}, {"time": 84724, "pitch": 42, "duration": 10, "velocity": 100}, {"time": 84843, "pitch": 35, "duration": 10, "velocity": 75}, {"time": 84963, "pitch": 35, "duration": 10, "velocity": 75}, {"time": 84963, "pitch": 35, "duration": 10, "velocity": 115}, {"time": 84963, "pitch": 44, "duration": 10, "velocity": 80}, {"time": 85082, "pitch": 42, "duration": 10, "velocity": 100}, {"time": 85201, "pitch": 35, "duration": 10, "velocity": 75}, {"time": 85201, "pitch": 35, "duration": 10, "velocity": 115}, {"time": 85201, "pitch": 44, "duration": 10, "velocity": 80}, {"time": 85440, "pitch": 35, "duration": 10, "velocity": 115}, {"time": 85440, "pitch": 40, "duration": 10, "velocity": 80}, {"time": 85440, "pitch": 42, "duration": 10, "velocity": 100}, {"time": 85679, "pitch": 35, "duration": 10, "velocity": 75}, {"time": 85679, "pitch": 46, "duration": 10, "velocity": 80}, {"time": 85918, "pitch": 35, "duration": 10, "velocity": 75}, {"time": 85918, "pitch": 35, "duration": 10, "velocity": 115}, {"time": 85918, "pitch": 44, "duration": 10, "velocity": 80}, {"time": 86157, "pitch": 42, "duration": 10, "velocity": 100}, {"time": 86396, "pitch": 35, "duration": 10, "velocity": 115}, {"time": 86396, "pitch": 40, "duration": 10, "velocity": 80}, {"time": 86396, "pitch": 46, "duration": 10, "velocity": 80}, {"time": 86640, "pitch": 42, "duration": 10, "velocity": 100}, {"time": 86762, "pitch": 35, "duration": 10, "velocity": 75}, {"time": 86884, "pitch": 35, "duration": 10, "velocity": 75}, {"time": 86884, "pitch": 35, "duration": 10, "velocity": 115}, {"time": 86884, "pitch": 44, "duration": 10, "velocity": 80}, {"time": 87003, "pitch": 35, "duration": 10, "velocity": 115}, {"time": 87003, "pitch": 42, "duration": 10, "velocity": 100}, {"time": 87123, "pitch": 35, "duration": 10, "velocity": 75}, {"time": 87123, "pitch": 44, "duration": 10, "velocity": 80}, {"time": 87361, "pitch": 35, "duration": 10, "velocity": 115}, {"time": 87361, "pitch": 40, "duration": 10, "velocity": 80}, {"time": 87361, "pitch": 42, "duration": 10, "velocity": 100}, {"time": 87481, "pitch": 35, "duration": 10, "velocity": 115}, {"time": 87600, "pitch": 35, "duration": 10, "velocity": 75}, {"time": 87600, "pitch": 46, "duration": 10, "velocity": 80}, {"time": 87839, "pitch": 35, "duration": 10, "velocity": 75}, {"time": 87839, "pitch": 35, "duration": 10, "velocity": 115}, {"time": 87839, "pitch": 44, "duration": 10, "velocity": 80}, {"time": 87839, "pitch": 49, "duration": 10, "velocity": 80}, {"time": 87839, "pitch": 57, "duration": 10, "velocity": 80}, {"time": 88078, "pitch": 42, "duration": 10, "velocity": 100}, {"time": 88317, "pitch": 35, "duration": 10, "velocity": 115}, {"time": 88317, "pitch": 40, "duration": 10, "velocity": 80}, {"time": 88317, "pitch": 46, "duration": 10, "velocity": 80}, {"time": 88561, "pitch": 42, "duration": 10, "velocity": 100}, {"time": 88683, "pitch": 35, "duration": 10, "velocity": 75}, {"time": 88805, "pitch": 35, "duration": 10, "velocity": 75}, {"time": 88805, "pitch": 35, "duration": 10, "velocity": 115}, {"time": 88805, "pitch": 44, "duration": 10, "velocity": 80}, {"time": 88924, "pitch": 42, "duration": 10, "velocity": 100}, {"time": 89044, "pitch": 35, "duration": 10, "velocity": 75}, {"time": 89044, "pitch": 35, "duration": 10, "velocity": 115}, {"time": 89044, "pitch": 44, "duration": 10, "velocity": 80}, {"time": 89283, "pitch": 35, "duration": 9, "velocity": 115}, {"time": 89283, "pitch": 40, "duration": 9, "velocity": 80}, {"time": 89283, "pitch": 42, "duration": 9, "velocity": 100}, {"time": 89521, "pitch": 35, "duration": 10, "velocity": 75}, {"time": 89521, "pitch": 46, "duration": 10, "velocity": 80}, {"time": 89760, "pitch": 35, "duration": 10, "velocity": 75}, {"time": 89760, "pitch": 35, "duration": 10, "velocity": 115}, {"time": 89760, "pitch": 44, "duration": 10, "velocity": 80}, {"time": 89999, "pitch": 42, "duration": 10, "velocity": 100}, {"time": 90238, "pitch": 35, "duration": 10, "velocity": 115}, {"time": 90238, "pitch": 40, "duration": 10, "velocity": 80}, {"time": 90238, "pitch": 46, "duration": 10, "velocity": 80}, {"time": 90477, "pitch": 42, "duration": 9, "velocity": 100}, {"time": 90596, "pitch": 35, "duration": 10, "velocity": 75}, {"time": 90715, "pitch": 35, "duration": 10, "velocity": 75}, {"time": 90715, "pitch": 35, "duration": 10, "velocity": 115}, {"time": 90715, "pitch": 44, "duration": 10, "velocity": 80}, {"time": 90837, "pitch": 42, "duration": 11, "velocity": 100}, {"time": 90959, "pitch": 35, "duration": 11, "velocity": 75}, {"time": 90959, "pitch": 35, "duration": 11, "velocity": 115}, {"time": 90959, "pitch": 44, "duration": 11, "velocity": 80}, {"time": 91204, "pitch": 35, "duration": 10, "velocity": 115}, {"time": 91204, "pitch": 40, "duration": 10, "velocity": 80}, {"time": 91204, "pitch": 42, "duration": 10, "velocity": 100}, {"time": 91442, "pitch": 35, "duration": 10, "velocity": 75}, {"time": 91442, "pitch": 46, "duration": 10, "velocity": 80}, {"time": 91681, "pitch": 35, "duration": 10, "velocity": 75}, {"time": 91681, "pitch": 35, "duration": 10, "velocity": 115}, {"time": 91681, "pitch": 44, "duration": 10, "velocity": 80}, {"time": 91920, "pitch": 42, "duration": 10, "velocity": 100}, {"time": 92159, "pitch": 35, "duration": 10, "velocity": 115}, {"time": 92159, "pitch": 40, "duration": 10, "velocity": 80}, {"time": 92159, "pitch": 46, "duration": 10, "velocity": 80}, {"time": 92398, "pitch": 42, "duration": 10, "velocity": 100}, {"time": 92517, "pitch": 35, "duration": 10, "velocity": 75}, {"time": 92636, "pitch": 35, "duration": 11, "velocity": 75}, {"time": 92636, "pitch": 35, "duration": 11, "velocity": 115}, {"time": 92636, "pitch": 44, "duration": 11, "velocity": 80}, {"time": 92758, "pitch": 42, "duration": 11, "velocity": 100}, {"time": 92881, "pitch": 35, "duration": 10, "velocity": 75}, {"time": 92881, "pitch": 35, "duration": 10, "velocity": 115}, {"time": 92881, "pitch": 44, "duration": 10, "velocity": 80}, {"time": 93125, "pitch": 35, "duration": 10, "velocity": 115}, {"time": 93125, "pitch": 40, "duration": 10, "velocity": 80}, {"time": 93125, "pitch": 42, "duration": 10, "velocity": 100}, {"time": 93364, "pitch": 35, "duration": 9, "velocity": 75}, {"time": 93364, "pitch": 46, "duration": 9, "velocity": 80}, {"time": 93602, "pitch": 35, "duration": 10, "velocity": 75}, {"time": 93602, "pitch": 35, "duration": 10, "velocity": 115}, {"time": 93602, "pitch": 44, "duration": 10, "velocity": 80}, {"time": 93841, "pitch": 42, "duration": 10, "velocity": 100}, {"time": 94080, "pitch": 35, "duration": 10, "velocity": 115}, {"time": 94080, "pitch": 40, "duration": 10, "velocity": 80}, {"time": 94080, "pitch": 46, "duration": 10, "velocity": 80}, {"time": 94319, "pitch": 42, "duration": 10, "velocity": 100}, {"time": 94438, "pitch": 35, "duration": 10, "velocity": 75}, {"time": 94558, "pitch": 35, "duration": 10, "velocity": 75}, {"time": 94558, "pitch": 35, "duration": 10, "velocity": 115}, {"time": 94558, "pitch": 44, "duration": 10, "velocity": 80}, {"time": 94677, "pitch": 35, "duration": 10, "velocity": 115}, {"time": 94677, "pitch": 42, "duration": 10, "velocity": 100}, {"time": 94796, "pitch": 35, "duration": 10, "velocity": 75}, {"time": 94796, "pitch": 44, "duration": 10, "velocity": 80}, {"time": 95035, "pitch": 35, "duration": 10, "velocity": 115}, {"time": 95035, "pitch": 40, "duration": 10, "velocity": 80}, {"time": 95035, "pitch": 42, "duration": 10, "velocity": 100}, {"time": 95157, "pitch": 35, "duration": 10, "velocity": 115}, {"time": 95279, "pitch": 35, "duration": 10, "velocity": 75}, {"time": 95279, "pitch": 46, "duration": 10, "velocity": 80}, {"time": 95523, "pitch": 35, "duration": 10, "velocity": 75}, {"time": 95523, "pitch": 35, "duration": 10, "velocity": 115}, {"time": 95523, "pitch": 44, "duration": 10, "velocity": 80}, {"time": 95523, "pitch": 49, "duration": 10, "velocity": 80}, {"time": 95523, "pitch": 57, "duration": 10, "velocity": 80}, {"time": 95762, "pitch": 42, "duration": 10, "velocity": 100}, {"time": 96001, "pitch": 35, "duration": 10, "velocity": 115}, {"time": 96001, "pitch": 40, "duration": 10, "velocity": 80}, {"time": 96001, "pitch": 46, "duration": 10, "velocity": 80}, {"time": 96240, "pitch": 42, "duration": 10, "velocity": 100}, {"time": 96359, "pitch": 35, "duration": 10, "velocity": 75}, {"time": 96479, "pitch": 35, "duration": 10, "velocity": 75}, {"time": 96479, "pitch": 35, "duration": 10, "velocity": 115}, {"time": 96479, "pitch": 44, "duration": 10, "velocity": 80}, {"time": 96598, "pitch": 42, "duration": 10, "velocity": 100}, {"time": 96717, "pitch": 35, "duration": 10, "velocity": 75}, {"time": 96717, "pitch": 35, "duration": 10, "velocity": 115}, {"time": 96717, "pitch": 44, "duration": 10, "velocity": 80}, {"time": 96956, "pitch": 35, "duration": 10, "velocity": 115}, {"time": 96956, "pitch": 40, "duration": 10, "velocity": 80}, {"time": 96956, "pitch": 42, "duration": 10, "velocity": 100}, {"time": 97200, "pitch": 35, "duration": 11, "velocity": 75}, {"time": 97200, "pitch": 46, "duration": 11, "velocity": 80}, {"time": 97445, "pitch": 35, "duration": 10, "velocity": 75}, {"time": 97445, "pitch": 35, "duration": 10, "velocity": 115}, {"time": 97445, "pitch": 44, "duration": 10, "velocity": 80}, {"time": 97683, "pitch": 42, "duration": 10, "velocity": 100}, {"time": 97922, "pitch": 35, "duration": 10, "velocity": 115}, {"time": 97922, "pitch": 40, "duration": 10, "velocity": 80}, {"time": 97922, "pitch": 46, "duration": 10, "velocity": 80}, {"time": 98161, "pitch": 42, "duration": 10, "velocity": 100}, {"time": 98280, "pitch": 35, "duration": 10, "velocity": 75}, {"time": 98400, "pitch": 35, "duration": 10, "velocity": 75}, {"time": 98400, "pitch": 35, "duration": 10, "velocity": 115}, {"time": 98400, "pitch": 44, "duration": 10, "velocity": 80}, {"time": 98519, "pitch": 35, "duration": 10, "velocity": 115}, {"time": 98519, "pitch": 42, "duration": 10, "velocity": 100}, {"time": 98639, "pitch": 35, "duration": 10, "velocity": 75}, {"time": 98639, "pitch": 44, "duration": 10, "velocity": 80}, {"time": 98877, "pitch": 35, "duration": 10, "velocity": 115}, {"time": 98877, "pitch": 40, "duration": 10, "velocity": 80}, {"time": 98877, "pitch": 42, "duration": 10, "velocity": 100}, {"time": 99116, "pitch": 35, "duration": 10, "velocity": 75}, {"time": 99116, "pitch": 46, "duration": 10, "velocity": 80}, {"time": 99355, "pitch": 35, "duration": 10, "velocity": 75}, {"time": 99355, "pitch": 35, "duration": 10, "velocity": 115}, {"time": 99355, "pitch": 44, "duration": 10, "velocity": 80}, {"time": 99599, "pitch": 42, "duration": 10, "velocity": 100}, {"time": 99843, "pitch": 35, "duration": 10, "velocity": 115}, {"time": 99843, "pitch": 40, "duration": 10, "velocity": 80}, {"time": 99843, "pitch": 46, "duration": 10, "velocity": 80}, {"time": 100082, "pitch": 42, "duration": 10, "velocity": 100}, {"time": 100202, "pitch": 35, "duration": 9, "velocity": 75}, {"time": 100321, "pitch": 35, "duration": 10, "velocity": 75}, {"time": 100321, "pitch": 35, "duration": 10, "velocity": 115}, {"time": 100321, "pitch": 44, "duration": 10, "velocity": 80}, {"time": 100440, "pitch": 42, "duration": 10, "velocity": 100}, {"time": 100560, "pitch": 35, "duration": 10, "velocity": 75}, {"time": 100560, "pitch": 35, "duration": 10, "velocity": 115}, {"time": 100560, "pitch": 44, "duration": 10, "velocity": 80}, {"time": 100799, "pitch": 35, "duration": 9, "velocity": 115}, {"time": 100799, "pitch": 40, "duration": 9, "velocity": 80}, {"time": 100799, "pitch": 42, "duration": 9, "velocity": 100}, {"time": 101037, "pitch": 35, "duration": 10, "velocity": 75}, {"time": 101037, "pitch": 46, "duration": 10, "velocity": 80}, {"time": 101276, "pitch": 35, "duration": 10, "velocity": 75}, {"time": 101276, "pitch": 35, "duration": 10, "velocity": 115}, {"time": 101276, "pitch": 44, "duration": 10, "velocity": 80}, {"time": 101520, "pitch": 42, "duration": 10, "velocity": 100}, {"time": 101764, "pitch": 35, "duration": 10, "velocity": 115}, {"time": 101764, "pitch": 40, "duration": 10, "velocity": 80}, {"time": 101764, "pitch": 46, "duration": 10, "velocity": 80}, {"time": 102003, "pitch": 42, "duration": 10, "velocity": 100}, {"time": 102123, "pitch": 35, "duration": 10, "velocity": 75}, {"time": 102242, "pitch": 35, "duration": 10, "velocity": 75}, {"time": 102242, "pitch": 35, "duration": 10, "velocity": 115}, {"time": 102242, "pitch": 44, "duration": 10, "velocity": 80}, {"time": 102361, "pitch": 35, "duration": 10, "velocity": 115}, {"time": 102361, "pitch": 42, "duration": 10, "velocity": 100}, {"time": 102481, "pitch": 35, "duration": 10, "velocity": 75}, {"time": 102481, "pitch": 44, "duration": 10, "velocity": 80}, {"time": 102720, "pitch": 35, "duration": 10, "velocity": 115}, {"time": 102720, "pitch": 40, "duration": 10, "velocity": 80}, {"time": 102720, "pitch": 42, "duration": 10, "velocity": 100}, {"time": 102839, "pitch": 35, "duration": 10, "velocity": 115}, {"time": 102958, "pitch": 35, "duration": 10, "velocity": 75}, {"time": 102958, "pitch": 46, "duration": 10, "velocity": 80}, {"time": 103197, "pitch": 35, "duration": 10, "velocity": 75}, {"time": 103197, "pitch": 35, "duration": 10, "velocity": 115}, {"time": 103197, "pitch": 44, "duration": 10, "velocity": 80}, {"time": 103197, "pitch": 49, "duration": 10, "velocity": 80}, {"time": 103197, "pitch": 57, "duration": 10, "velocity": 80}, {"time": 103436, "pitch": 42, "duration": 10, "velocity": 100}, {"time": 103675, "pitch": 35, "duration": 10, "velocity": 115}, {"time": 103675, "pitch": 40, "duration": 10, "velocity": 80}, {"time": 103675, "pitch": 46, "duration": 10, "velocity": 80}, {"time": 103919, "pitch": 42, "duration": 10, "velocity": 100}, {"time": 104041, "pitch": 35, "duration": 10, "velocity": 75}, {"time": 104163, "pitch": 35, "duration": 10, "velocity": 75}, {"time": 104163, "pitch": 35, "duration": 10, "velocity": 115}, {"time": 104163, "pitch": 44, "duration": 10, "velocity": 80}, {"time": 104283, "pitch": 42, "duration": 9, "velocity": 100}, {"time": 104402, "pitch": 35, "duration": 10, "velocity": 75}, {"time": 104402, "pitch": 35, "duration": 10, "velocity": 115}, {"time": 104402, "pitch": 44, "duration": 10, "velocity": 80}, {"time": 104641, "pitch": 35, "duration": 10, "velocity": 115}, {"time": 104641, "pitch": 40, "duration": 10, "velocity": 80}, {"time": 104641, "pitch": 42, "duration": 10, "velocity": 100}, {"time": 104880, "pitch": 35, "duration": 10, "velocity": 75}, {"time": 104880, "pitch": 46, "duration": 10, "velocity": 80}, {"time": 105118, "pitch": 35, "duration": 10, "velocity": 75}, {"time": 105118, "pitch": 35, "duration": 10, "velocity": 115}, {"time": 105118, "pitch": 44, "duration": 10, "velocity": 80}, {"time": 105357, "pitch": 42, "duration": 10, "velocity": 100}, {"time": 105596, "pitch": 35, "duration": 10, "velocity": 115}, {"time": 105596, "pitch": 40, "duration": 10, "velocity": 80}, {"time": 105596, "pitch": 46, "duration": 10, "velocity": 80}, {"time": 105840, "pitch": 42, "duration": 10, "velocity": 100}, {"time": 105962, "pitch": 35, "duration": 10, "velocity": 75}, {"time": 106084, "pitch": 35, "duration": 10, "velocity": 75}, {"time": 106084, "pitch": 35, "duration": 10, "velocity": 115}, {"time": 106084, "pitch": 44, "duration": 10, "velocity": 80}, {"time": 106204, "pitch": 42, "duration": 10, "velocity": 100}, {"time": 106323, "pitch": 35, "duration": 10, "velocity": 75}, {"time": 106323, "pitch": 35, "duration": 10, "velocity": 115}, {"time": 106323, "pitch": 44, "duration": 10, "velocity": 80}, {"time": 106562, "pitch": 35, "duration": 10, "velocity": 115}, {"time": 106562, "pitch": 40, "duration": 10, "velocity": 80}, {"time": 106562, "pitch": 42, "duration": 10, "velocity": 100}, {"time": 106801, "pitch": 35, "duration": 10, "velocity": 75}, {"time": 106801, "pitch": 46, "duration": 10, "velocity": 80}, {"time": 107039, "pitch": 35, "duration": 10, "velocity": 75}, {"time": 107039, "pitch": 35, "duration": 10, "velocity": 115}, {"time": 107039, "pitch": 44, "duration": 10, "velocity": 80}, {"time": 107278, "pitch": 42, "duration": 10, "velocity": 100}, {"time": 107517, "pitch": 35, "duration": 10, "velocity": 115}, {"time": 107517, "pitch": 40, "duration": 10, "velocity": 80}, {"time": 107517, "pitch": 46, "duration": 10, "velocity": 80}, {"time": 107756, "pitch": 42, "duration": 10, "velocity": 100}, {"time": 107875, "pitch": 35, "duration": 10, "velocity": 75}, {"time": 107995, "pitch": 35, "duration": 10, "velocity": 75}, {"time": 107995, "pitch": 35, "duration": 10, "velocity": 115}, {"time": 107995, "pitch": 44, "duration": 10, "velocity": 80}, {"time": 108117, "pitch": 42, "duration": 10, "velocity": 100}, {"time": 108239, "pitch": 35, "duration": 10, "velocity": 75}, {"time": 108239, "pitch": 35, "duration": 10, "velocity": 115}, {"time": 108239, "pitch": 44, "duration": 10, "velocity": 80}, {"time": 108483, "pitch": 35, "duration": 10, "velocity": 115}, {"time": 108483, "pitch": 40, "duration": 10, "velocity": 80}, {"time": 108483, "pitch": 42, "duration": 10, "velocity": 100}, {"time": 108722, "pitch": 35, "duration": 10, "velocity": 75}, {"time": 108722, "pitch": 46, "duration": 10, "velocity": 80}, {"time": 108961, "pitch": 35, "duration": 10, "velocity": 75}, {"time": 108961, "pitch": 35, "duration": 10, "velocity": 115}, {"time": 108961, "pitch": 44, "duration": 10, "velocity": 80}, {"time": 109199, "pitch": 42, "duration": 10, "velocity": 100}, {"time": 109438, "pitch": 35, "duration": 10, "velocity": 115}, {"time": 109438, "pitch": 40, "duration": 10, "velocity": 80}, {"time": 109438, "pitch": 46, "duration": 10, "velocity": 80}, {"time": 109438, "pitch": 49, "duration": 10, "velocity": 80}, {"time": 109438, "pitch": 57, "duration": 10, "velocity": 80}, {"time": 109677, "pitch": 42, "duration": 10, "velocity": 100}, {"time": 109796, "pitch": 35, "duration": 10, "velocity": 75}, {"time": 109916, "pitch": 35, "duration": 10, "velocity": 75}, {"time": 109916, "pitch": 35, "duration": 10, "velocity": 115}, {"time": 109916, "pitch": 44, "duration": 10, "velocity": 80}, {"time": 109916, "pitch": 49, "duration": 10, "velocity": 80}, {"time": 109916, "pitch": 57, "duration": 10, "velocity": 80}, {"time": 110038, "pitch": 35, "duration": 10, "velocity": 115}, {"time": 110038, "pitch": 42, "duration": 10, "velocity": 100}, {"time": 110160, "pitch": 35, "duration": 10, "velocity": 75}, {"time": 110160, "pitch": 44, "duration": 10, "velocity": 80}, {"time": 110404, "pitch": 35, "duration": 10, "velocity": 115}, {"time": 110404, "pitch": 40, "duration": 10, "velocity": 80}, {"time": 110404, "pitch": 42, "duration": 10, "velocity": 100}, {"time": 110404, "pitch": 49, "duration": 10, "velocity": 80}, {"time": 110404, "pitch": 57, "duration": 10, "velocity": 80}, {"time": 110523, "pitch": 35, "duration": 10, "velocity": 115}, {"time": 110643, "pitch": 35, "duration": 10, "velocity": 75}, {"time": 110643, "pitch": 46, "duration": 10, "velocity": 80}, {"time": 110882, "pitch": 35, "duration": 10, "velocity": 75}, {"time": 110882, "pitch": 35, "duration": 10, "velocity": 115}, {"time": 110882, "pitch": 44, "duration": 10, "velocity": 80}, {"time": 110882, "pitch": 49, "duration": 10, "velocity": 80}, {"time": 110882, "pitch": 57, "duration": 10, "velocity": 80}, {"time": 111121, "pitch": 42, "duration": 9, "velocity": 100}, {"time": 111359, "pitch": 35, "duration": 10, "velocity": 115}, {"time": 111359, "pitch": 40, "duration": 10, "velocity": 80}, {"time": 111359, "pitch": 46, "duration": 10, "velocity": 80}, {"time": 111598, "pitch": 42, "duration": 10, "velocity": 100}, {"time": 111718, "pitch": 35, "duration": 9, "velocity": 75}, {"time": 111837, "pitch": 35, "duration": 10, "velocity": 75}, {"time": 111837, "pitch": 35, "duration": 10, "velocity": 115}, {"time": 111837, "pitch": 44, "duration": 10, "velocity": 80}, {"time": 111959, "pitch": 42, "duration": 10, "velocity": 100}, {"time": 112081, "pitch": 35, "duration": 10, "velocity": 75}, {"time": 112081, "pitch": 35, "duration": 10, "velocity": 115}, {"time": 112081, "pitch": 44, "duration": 10, "velocity": 80}, {"time": 112325, "pitch": 35, "duration": 10, "velocity": 115}, {"time": 112325, "pitch": 40, "duration": 10, "velocity": 80}, {"time": 112325, "pitch": 42, "duration": 10, "velocity": 100}, {"time": 112564, "pitch": 35, "duration": 10, "velocity": 75}, {"time": 112564, "pitch": 46, "duration": 10, "velocity": 80}, {"time": 112803, "pitch": 35, "duration": 10, "velocity": 75}, {"time": 112803, "pitch": 35, "duration": 10, "velocity": 115}, {"time": 112803, "pitch": 44, "duration": 10, "velocity": 80}, {"time": 113042, "pitch": 42, "duration": 10, "velocity": 100}, {"time": 113280, "pitch": 35, "duration": 10, "velocity": 115}, {"time": 113280, "pitch": 40, "duration": 10, "velocity": 80}, {"time": 113280, "pitch": 46, "duration": 10, "velocity": 80}, {"time": 113519, "pitch": 42, "duration": 10, "velocity": 100}, {"time": 113639, "pitch": 35, "duration": 10, "velocity": 75}, {"time": 113758, "pitch": 35, "duration": 10, "velocity": 75}, {"time": 113758, "pitch": 35, "duration": 10, "velocity": 115}, {"time": 113758, "pitch": 44, "duration": 10, "velocity": 80}, {"time": 113877, "pitch": 35, "duration": 10, "velocity": 115}, {"time": 113877, "pitch": 42, "duration": 10, "velocity": 100}, {"time": 113997, "pitch": 35, "duration": 10, "velocity": 75}, {"time": 113997, "pitch": 44, "duration": 10, "velocity": 80}, {"time": 114236, "pitch": 35, "duration": 10, "velocity": 115}, {"time": 114236, "pitch": 40, "duration": 10, "velocity": 80}, {"time": 114236, "pitch": 42, "duration": 10, "velocity": 100}, {"time": 114480, "pitch": 35, "duration": 10, "velocity": 75}, {"time": 114480, "pitch": 46, "duration": 10, "velocity": 80}, {"time": 114724, "pitch": 35, "duration": 10, "velocity": 75}, {"time": 114724, "pitch": 35, "duration": 10, "velocity": 115}, {"time": 114724, "pitch": 44, "duration": 10, "velocity": 80}, {"time": 114963, "pitch": 42, "duration": 10, "velocity": 100}, {"time": 115202, "pitch": 35, "duration": 9, "velocity": 115}, {"time": 115202, "pitch": 40, "duration": 9, "velocity": 80}, {"time": 115202, "pitch": 46, "duration": 9, "velocity": 80}, {"time": 115440, "pitch": 42, "duration": 10, "velocity": 100}, {"time": 115560, "pitch": 35, "duration": 10, "velocity": 75}, {"time": 115679, "pitch": 35, "duration": 10, "velocity": 75}, {"time": 115679, "pitch": 35, "duration": 10, "velocity": 115}, {"time": 115679, "pitch": 44, "duration": 10, "velocity": 80}, {"time": 115799, "pitch": 42, "duration": 10, "velocity": 100}, {"time": 115918, "pitch": 35, "duration": 10, "velocity": 75}, {"time": 115918, "pitch": 35, "duration": 10, "velocity": 115}, {"time": 115918, "pitch": 44, "duration": 10, "velocity": 80}, {"time": 116157, "pitch": 35, "duration": 10, "velocity": 115}, {"time": 116157, "pitch": 40, "duration": 10, "velocity": 80}, {"time": 116157, "pitch": 42, "duration": 10, "velocity": 100}, {"time": 116401, "pitch": 35, "duration": 10, "velocity": 75}, {"time": 116401, "pitch": 46, "duration": 10, "velocity": 80}, {"time": 116645, "pitch": 35, "duration": 10, "velocity": 75}, {"time": 116645, "pitch": 35, "duration": 10, "velocity": 115}, {"time": 116645, "pitch": 44, "duration": 10, "velocity": 80}, {"time": 116884, "pitch": 42, "duration": 10, "velocity": 100}, {"time": 117123, "pitch": 35, "duration": 10, "velocity": 115}, {"time": 117123, "pitch": 40, "duration": 10, "velocity": 80}, {"time": 117123, "pitch": 46, "duration": 10, "velocity": 80}, {"time": 117361, "pitch": 42, "duration": 10, "velocity": 100}, {"time": 117481, "pitch": 35, "duration": 10, "velocity": 75}, {"time": 117600, "pitch": 35, "duration": 10, "velocity": 75}, {"time": 117600, "pitch": 35, "duration": 10, "velocity": 115}, {"time": 117600, "pitch": 44, "duration": 10, "velocity": 80}, {"time": 117720, "pitch": 35, "duration": 10, "velocity": 115}, {"time": 117720, "pitch": 42, "duration": 10, "velocity": 100}, {"time": 117839, "pitch": 35, "duration": 10, "velocity": 75}, {"time": 117839, "pitch": 44, "duration": 10, "velocity": 80}, {"time": 118078, "pitch": 35, "duration": 10, "velocity": 115}, {"time": 118078, "pitch": 40, "duration": 10, "velocity": 80}, {"time": 118078, "pitch": 42, "duration": 10, "velocity": 100}, {"time": 118197, "pitch": 35, "duration": 10, "velocity": 115}, {"time": 118317, "pitch": 35, "duration": 10, "velocity": 75}, {"time": 118317, "pitch": 46, "duration": 10, "velocity": 80}, {"time": 118555, "pitch": 35, "duration": 11, "velocity": 75}, {"time": 118555, "pitch": 35, "duration": 11, "velocity": 115}, {"time": 118555, "pitch": 44, "duration": 11, "velocity": 80}, {"time": 118555, "pitch": 49, "duration": 11, "velocity": 80}, {"time": 118555, "pitch": 57, "duration": 11, "velocity": 80}, {"time": 118800, "pitch": 42, "duration": 10, "velocity": 100}, {"time": 119044, "pitch": 35, "duration": 10, "velocity": 115}, {"time": 119044, "pitch": 40, "duration": 10, "velocity": 80}, {"time": 119044, "pitch": 46, "duration": 10, "velocity": 80}, {"time": 119283, "pitch": 42, "duration": 10, "velocity": 100}, {"time": 119402, "pitch": 35, "duration": 10, "velocity": 75}, {"time": 119521, "pitch": 35, "duration": 10, "velocity": 75}, {"time": 119521, "pitch": 35, "duration": 10, "velocity": 115}, {"time": 119521, "pitch": 44, "duration": 10, "velocity": 80}, {"time": 119641, "pitch": 42, "duration": 10, "velocity": 100}, {"time": 119760, "pitch": 35, "duration": 10, "velocity": 75}, {"time": 119760, "pitch": 35, "duration": 10, "velocity": 115}, {"time": 119760, "pitch": 44, "duration": 10, "velocity": 80}, {"time": 119999, "pitch": 35, "duration": 10, "velocity": 115}, {"time": 119999, "pitch": 40, "duration": 10, "velocity": 80}, {"time": 119999, "pitch": 42, "duration": 10, "velocity": 100}, {"time": 120238, "pitch": 35, "duration": 10, "velocity": 75}, {"time": 120238, "pitch": 46, "duration": 10, "velocity": 80}, {"time": 120477, "pitch": 35, "duration": 10, "velocity": 75}, {"time": 120477, "pitch": 35, "duration": 10, "velocity": 115}, {"time": 120477, "pitch": 44, "duration": 10, "velocity": 80}, {"time": 120721, "pitch": 42, "duration": 10, "velocity": 100}, {"time": 120965, "pitch": 35, "duration": 10, "velocity": 115}, {"time": 120965, "pitch": 40, "duration": 10, "velocity": 80}, {"time": 120965, "pitch": 46, "duration": 10, "velocity": 80}, {"time": 121204, "pitch": 42, "duration": 10, "velocity": 100}, {"time": 121323, "pitch": 35, "duration": 10, "velocity": 75}, {"time": 121442, "pitch": 35, "duration": 10, "velocity": 75}, {"time": 121442, "pitch": 35, "duration": 10, "velocity": 115}, {"time": 121442, "pitch": 44, "duration": 10, "velocity": 80}, {"time": 121562, "pitch": 42, "duration": 10, "velocity": 100}, {"time": 121681, "pitch": 35, "duration": 10, "velocity": 75}, {"time": 121681, "pitch": 35, "duration": 10, "velocity": 115}, {"time": 121681, "pitch": 44, "duration": 10, "velocity": 80}, {"time": 121920, "pitch": 35, "duration": 10, "velocity": 115}, {"time": 121920, "pitch": 40, "duration": 10, "velocity": 80}, {"time": 121920, "pitch": 42, "duration": 10, "velocity": 100}, {"time": 122159, "pitch": 35, "duration": 10, "velocity": 75}, {"time": 122159, "pitch": 46, "duration": 10, "velocity": 80}, {"time": 122398, "pitch": 35, "duration": 10, "velocity": 75}, {"time": 122398, "pitch": 35, "duration": 10, "velocity": 115}, {"time": 122398, "pitch": 44, "duration": 10, "velocity": 80}, {"time": 122637, "pitch": 42, "duration": 9, "velocity": 100}, {"time": 122875, "pitch": 35, "duration": 10, "velocity": 115}, {"time": 122875, "pitch": 40, "duration": 10, "velocity": 80}, {"time": 122875, "pitch": 46, "duration": 10, "velocity": 80}, {"time": 123119, "pitch": 42, "duration": 11, "velocity": 100}, {"time": 123242, "pitch": 35, "duration": 10, "velocity": 75}, {"time": 123364, "pitch": 35, "duration": 10, "velocity": 75}, {"time": 123364, "pitch": 35, "duration": 10, "velocity": 115}, {"time": 123364, "pitch": 44, "duration": 10, "velocity": 80}, {"time": 123483, "pitch": 42, "duration": 10, "velocity": 100}, {"time": 123602, "pitch": 35, "duration": 10, "velocity": 75}, {"time": 123602, "pitch": 35, "duration": 10, "velocity": 115}, {"time": 123602, "pitch": 44, "duration": 10, "velocity": 80}, {"time": 123841, "pitch": 35, "duration": 10, "velocity": 115}, {"time": 123841, "pitch": 40, "duration": 10, "velocity": 80}, {"time": 123841, "pitch": 42, "duration": 10, "velocity": 100}, {"time": 124080, "pitch": 35, "duration": 10, "velocity": 75}, {"time": 124080, "pitch": 46, "duration": 10, "velocity": 80}, {"time": 124319, "pitch": 35, "duration": 10, "velocity": 75}, {"time": 124319, "pitch": 35, "duration": 10, "velocity": 115}, {"time": 124319, "pitch": 44, "duration": 10, "velocity": 80}, {"time": 124558, "pitch": 42, "duration": 10, "velocity": 100}, {"time": 124796, "pitch": 35, "duration": 11, "velocity": 115}, {"time": 124796, "pitch": 40, "duration": 11, "velocity": 80}, {"time": 124796, "pitch": 46, "duration": 11, "velocity": 80}, {"time": 125041, "pitch": 42, "duration": 10, "velocity": 100}, {"time": 125163, "pitch": 35, "duration": 10, "velocity": 75}, {"time": 125285, "pitch": 35, "duration": 10, "velocity": 75}, {"time": 125285, "pitch": 35, "duration": 10, "velocity": 115}, {"time": 125285, "pitch": 44, "duration": 10, "velocity": 80}, {"time": 125404, "pitch": 35, "duration": 10, "velocity": 115}, {"time": 125404, "pitch": 42, "duration": 10, "velocity": 100}, {"time": 125524, "pitch": 35, "duration": 9, "velocity": 75}, {"time": 125524, "pitch": 44, "duration": 9, "velocity": 80}, {"time": 125762, "pitch": 35, "duration": 10, "velocity": 115}, {"time": 125762, "pitch": 40, "duration": 10, "velocity": 80}, {"time": 125762, "pitch": 42, "duration": 10, "velocity": 100}, {"time": 125882, "pitch": 35, "duration": 10, "velocity": 115}, {"time": 126001, "pitch": 35, "duration": 10, "velocity": 75}, {"time": 126001, "pitch": 46, "duration": 10, "velocity": 80}, {"time": 126240, "pitch": 35, "duration": 10, "velocity": 75}, {"time": 126240, "pitch": 35, "duration": 10, "velocity": 115}, {"time": 126240, "pitch": 44, "duration": 10, "velocity": 80}, {"time": 126240, "pitch": 49, "duration": 10, "velocity": 80}, {"time": 126240, "pitch": 57, "duration": 10, "velocity": 80}, {"time": 126479, "pitch": 42, "duration": 10, "velocity": 100}, {"time": 126718, "pitch": 35, "duration": 10, "velocity": 115}, {"time": 126718, "pitch": 40, "duration": 10, "velocity": 80}, {"time": 126718, "pitch": 46, "duration": 10, "velocity": 80}, {"time": 126956, "pitch": 42, "duration": 10, "velocity": 100}, {"time": 127076, "pitch": 35, "duration": 10, "velocity": 75}, {"time": 127195, "pitch": 35, "duration": 10, "velocity": 75}, {"time": 127195, "pitch": 35, "duration": 10, "velocity": 115}, {"time": 127195, "pitch": 44, "duration": 10, "velocity": 80}, {"time": 127317, "pitch": 42, "duration": 10, "velocity": 100}, {"time": 127439, "pitch": 35, "duration": 10, "velocity": 75}, {"time": 127439, "pitch": 35, "duration": 10, "velocity": 115}, {"time": 127439, "pitch": 44, "duration": 10, "velocity": 80}, {"time": 127683, "pitch": 35, "duration": 10, "velocity": 115}, {"time": 127683, "pitch": 40, "duration": 10, "velocity": 80}, {"time": 127683, "pitch": 42, "duration": 10, "velocity": 100}, {"time": 127922, "pitch": 35, "duration": 10, "velocity": 75}, {"time": 127922, "pitch": 46, "duration": 10, "velocity": 80}, {"time": 128161, "pitch": 35, "duration": 10, "velocity": 75}, {"time": 128161, "pitch": 35, "duration": 10, "velocity": 115}, {"time": 128161, "pitch": 44, "duration": 10, "velocity": 80}, {"time": 128400, "pitch": 42, "duration": 10, "velocity": 100}, {"time": 128639, "pitch": 35, "duration": 10, "velocity": 115}, {"time": 128639, "pitch": 40, "duration": 10, "velocity": 80}, {"time": 128639, "pitch": 46, "duration": 10, "velocity": 80}, {"time": 128877, "pitch": 42, "duration": 10, "velocity": 100}, {"time": 128997, "pitch": 35, "duration": 10, "velocity": 75}, {"time": 129116, "pitch": 35, "duration": 10, "velocity": 75}, {"time": 129116, "pitch": 35, "duration": 10, "velocity": 115}, {"time": 129116, "pitch": 44, "duration": 10, "velocity": 80}, {"time": 129238, "pitch": 35, "duration": 10, "velocity": 115}, {"time": 129238, "pitch": 42, "duration": 10, "velocity": 100}, {"time": 129360, "pitch": 35, "duration": 11, "velocity": 75}, {"time": 129360, "pitch": 44, "duration": 11, "velocity": 80}, {"time": 129605, "pitch": 35, "duration": 10, "velocity": 115}, {"time": 129605, "pitch": 40, "duration": 10, "velocity": 80}, {"time": 129605, "pitch": 42, "duration": 10, "velocity": 100}, {"time": 129843, "pitch": 35, "duration": 10, "velocity": 75}, {"time": 129843, "pitch": 46, "duration": 10, "velocity": 80}, {"time": 130082, "pitch": 35, "duration": 10, "velocity": 75}, {"time": 130082, "pitch": 35, "duration": 10, "velocity": 115}, {"time": 130082, "pitch": 44, "duration": 10, "velocity": 80}, {"time": 130321, "pitch": 42, "duration": 10, "velocity": 100}, {"time": 130560, "pitch": 35, "duration": 10, "velocity": 115}, {"time": 130560, "pitch": 40, "duration": 10, "velocity": 80}, {"time": 130560, "pitch": 46, "duration": 10, "velocity": 80}, {"time": 130799, "pitch": 42, "duration": 10, "velocity": 100}, {"time": 130918, "pitch": 35, "duration": 10, "velocity": 75}, {"time": 131037, "pitch": 35, "duration": 10, "velocity": 75}, {"time": 131037, "pitch": 35, "duration": 10, "velocity": 115}, {"time": 131037, "pitch": 44, "duration": 10, "velocity": 80}, {"time": 131157, "pitch": 42, "duration": 10, "velocity": 100}, {"time": 131276, "pitch": 35, "duration": 10, "velocity": 75}, {"time": 131276, "pitch": 35, "duration": 10, "velocity": 115}, {"time": 131276, "pitch": 44, "duration": 10, "velocity": 80}, {"time": 131515, "pitch": 35, "duration": 10, "velocity": 115}, {"time": 131515, "pitch": 40, "duration": 10, "velocity": 80}, {"time": 131515, "pitch": 42, "duration": 10, "velocity": 100}, {"time": 131759, "pitch": 35, "duration": 10, "velocity": 75}, {"time": 131759, "pitch": 46, "duration": 10, "velocity": 80}, {"time": 132003, "pitch": 35, "duration": 10, "velocity": 75}, {"time": 132003, "pitch": 35, "duration": 10, "velocity": 115}, {"time": 132003, "pitch": 44, "duration": 10, "velocity": 80}, {"time": 132242, "pitch": 42, "duration": 10, "velocity": 100}, {"time": 132481, "pitch": 35, "duration": 10, "velocity": 115}, {"time": 132481, "pitch": 40, "duration": 10, "velocity": 80}, {"time": 132481, "pitch": 46, "duration": 10, "velocity": 80}, {"time": 132720, "pitch": 42, "duration": 10, "velocity": 100}, {"time": 132839, "pitch": 35, "duration": 10, "velocity": 75}, {"time": 132959, "pitch": 35, "duration": 9, "velocity": 75}, {"time": 132959, "pitch": 35, "duration": 9, "velocity": 115}, {"time": 132959, "pitch": 44, "duration": 9, "velocity": 80}, {"time": 133078, "pitch": 35, "duration": 10, "velocity": 115}, {"time": 133078, "pitch": 42, "duration": 10, "velocity": 100}, {"time": 133197, "pitch": 35, "duration": 10, "velocity": 75}, {"time": 133197, "pitch": 44, "duration": 10, "velocity": 80}, {"time": 133436, "pitch": 35, "duration": 10, "velocity": 115}, {"time": 133436, "pitch": 40, "duration": 10, "velocity": 80}, {"time": 133436, "pitch": 42, "duration": 10, "velocity": 100}, {"time": 133558, "pitch": 35, "duration": 10, "velocity": 115}, {"time": 133680, "pitch": 35, "duration": 10, "velocity": 75}, {"time": 133680, "pitch": 46, "duration": 10, "velocity": 80}, {"time": 133924, "pitch": 35, "duration": 10, "velocity": 75}, {"time": 133924, "pitch": 35, "duration": 10, "velocity": 115}, {"time": 133924, "pitch": 44, "duration": 10, "velocity": 80}, {"time": 134163, "pitch": 42, "duration": 10, "velocity": 100}, {"time": 134402, "pitch": 35, "duration": 10, "velocity": 115}, {"time": 134402, "pitch": 40, "duration": 10, "velocity": 80}, {"time": 134402, "pitch": 46, "duration": 10, "velocity": 80}, {"time": 134641, "pitch": 42, "duration": 10, "velocity": 100}, {"time": 134760, "pitch": 35, "duration": 10, "velocity": 75}, {"time": 134880, "pitch": 35, "duration": 10, "velocity": 75}, {"time": 134880, "pitch": 35, "duration": 10, "velocity": 115}, {"time": 134880, "pitch": 44, "duration": 10, "velocity": 80}, {"time": 134999, "pitch": 42, "duration": 10, "velocity": 100}, {"time": 135118, "pitch": 35, "duration": 10, "velocity": 75}, {"time": 135118, "pitch": 35, "duration": 10, "velocity": 115}, {"time": 135118, "pitch": 44, "duration": 10, "velocity": 80}, {"time": 135357, "pitch": 35, "duration": 10, "velocity": 115}, {"time": 135357, "pitch": 40, "duration": 10, "velocity": 80}, {"time": 135357, "pitch": 42, "duration": 10, "velocity": 100}, {"time": 135596, "pitch": 35, "duration": 10, "velocity": 75}, {"time": 135596, "pitch": 46, "duration": 10, "velocity": 80}, {"time": 135835, "pitch": 35, "duration": 10, "velocity": 75}, {"time": 135835, "pitch": 35, "duration": 10, "velocity": 115}, {"time": 135835, "pitch": 44, "duration": 10, "velocity": 80}, {"time": 136079, "pitch": 42, "duration": 10, "velocity": 100}, {"time": 136323, "pitch": 35, "duration": 10, "velocity": 115}, {"time": 136323, "pitch": 40, "duration": 10, "velocity": 80}, {"time": 136323, "pitch": 46, "duration": 10, "velocity": 80}, {"time": 136562, "pitch": 42, "duration": 10, "velocity": 100}, {"time": 136681, "pitch": 35, "duration": 10, "velocity": 75}, {"time": 136801, "pitch": 35, "duration": 10, "velocity": 75}, {"time": 136801, "pitch": 35, "duration": 10, "velocity": 115}, {"time": 136801, "pitch": 44, "duration": 10, "velocity": 80}, {"time": 136920, "pitch": 42, "duration": 10, "velocity": 100}, {"time": 137040, "pitch": 35, "duration": 9, "velocity": 75}, {"time": 137040, "pitch": 35, "duration": 9, "velocity": 115}, {"time": 137040, "pitch": 44, "duration": 9, "velocity": 80}, {"time": 137278, "pitch": 35, "duration": 10, "velocity": 115}, {"time": 137278, "pitch": 40, "duration": 10, "velocity": 80}, {"time": 137278, "pitch": 42, "duration": 10, "velocity": 100}, {"time": 137517, "pitch": 35, "duration": 10, "velocity": 75}, {"time": 137517, "pitch": 46, "duration": 10, "velocity": 80}, {"time": 137756, "pitch": 35, "duration": 10, "velocity": 75}, {"time": 137756, "pitch": 35, "duration": 10, "velocity": 115}, {"time": 137756, "pitch": 44, "duration": 10, "velocity": 80}, {"time": 138000, "pitch": 42, "duration": 10, "velocity": 100}, {"time": 138244, "pitch": 35, "duration": 10, "velocity": 115}, {"time": 138244, "pitch": 40, "duration": 10, "velocity": 80}, {"time": 138244, "pitch": 46, "duration": 10, "velocity": 80}, {"time": 138483, "pitch": 42, "duration": 10, "velocity": 100}, {"time": 138602, "pitch": 35, "duration": 10, "velocity": 75}, {"time": 138722, "pitch": 35, "duration": 10, "velocity": 75}, {"time": 138722, "pitch": 35, "duration": 10, "velocity": 115}, {"time": 138722, "pitch": 44, "duration": 10, "velocity": 80}, {"time": 138841, "pitch": 42, "duration": 10, "velocity": 100}, {"time": 138961, "pitch": 35, "duration": 10, "velocity": 75}, {"time": 138961, "pitch": 35, "duration": 10, "velocity": 115}, {"time": 138961, "pitch": 44, "duration": 10, "velocity": 80}, {"time": 139199, "pitch": 35, "duration": 10, "velocity": 115}, {"time": 139199, "pitch": 40, "duration": 10, "velocity": 80}, {"time": 139199, "pitch": 42, "duration": 10, "velocity": 100}, {"time": 139438, "pitch": 35, "duration": 10, "velocity": 75}, {"time": 139438, "pitch": 46, "duration": 10, "velocity": 80}, {"time": 139677, "pitch": 35, "duration": 10, "velocity": 75}, {"time": 139677, "pitch": 35, "duration": 10, "velocity": 115}, {"time": 139677, "pitch": 44, "duration": 10, "velocity": 80}, {"time": 139916, "pitch": 42, "duration": 10, "velocity": 100}, {"time": 140155, "pitch": 35, "duration": 10, "velocity": 115}, {"time": 140155, "pitch": 40, "duration": 10, "velocity": 80}, {"time": 140155, "pitch": 46, "duration": 10, "velocity": 80}, {"time": 140399, "pitch": 42, "duration": 10, "velocity": 100}, {"time": 140521, "pitch": 35, "duration": 10, "velocity": 75}, {"time": 140643, "pitch": 35, "duration": 10, "velocity": 75}, {"time": 140643, "pitch": 35, "duration": 10, "velocity": 115}, {"time": 140643, "pitch": 44, "duration": 10, "velocity": 80}, {"time": 140762, "pitch": 35, "duration": 10, "velocity": 115}, {"time": 140762, "pitch": 42, "duration": 10, "velocity": 100}, {"time": 140882, "pitch": 35, "duration": 10, "velocity": 75}, {"time": 140882, "pitch": 44, "duration": 10, "velocity": 80}, {"time": 141121, "pitch": 35, "duration": 10, "velocity": 115}, {"time": 141121, "pitch": 40, "duration": 10, "velocity": 80}, {"time": 141121, "pitch": 42, "duration": 10, "velocity": 100}, {"time": 141240, "pitch": 35, "duration": 10, "velocity": 115}, {"time": 141359, "pitch": 35, "duration": 10, "velocity": 75}, {"time": 141359, "pitch": 46, "duration": 10, "velocity": 80}, {"time": 141598, "pitch": 35, "duration": 10, "velocity": 75}, {"time": 141598, "pitch": 35, "duration": 10, "velocity": 115}, {"time": 141598, "pitch": 44, "duration": 10, "velocity": 80}, {"time": 141837, "pitch": 42, "duration": 10, "velocity": 100}, {"time": 142076, "pitch": 35, "duration": 10, "velocity": 115}, {"time": 142076, "pitch": 40, "duration": 10, "velocity": 80}, {"time": 142076, "pitch": 46, "duration": 10, "velocity": 80}, {"time": 142320, "pitch": 42, "duration": 10, "velocity": 100}, {"time": 142442, "pitch": 35, "duration": 10, "velocity": 75}, {"time": 142564, "pitch": 35, "duration": 10, "velocity": 75}, {"time": 142564, "pitch": 35, "duration": 10, "velocity": 115}, {"time": 142564, "pitch": 44, "duration": 10, "velocity": 80}, {"time": 142683, "pitch": 42, "duration": 10, "velocity": 100}, {"time": 142803, "pitch": 35, "duration": 10, "velocity": 75}, {"time": 142803, "pitch": 35, "duration": 10, "velocity": 115}, {"time": 142803, "pitch": 44, "duration": 10, "velocity": 80}, {"time": 143042, "pitch": 35, "duration": 10, "velocity": 115}, {"time": 143042, "pitch": 40, "duration": 10, "velocity": 80}, {"time": 143042, "pitch": 42, "duration": 10, "velocity": 100}, {"time": 143280, "pitch": 35, "duration": 10, "velocity": 75}, {"time": 143280, "pitch": 46, "duration": 10, "velocity": 80}, {"time": 143519, "pitch": 35, "duration": 10, "velocity": 75}, {"time": 143519, "pitch": 35, "duration": 10, "velocity": 115}, {"time": 143519, "pitch": 44, "duration": 10, "velocity": 80}, {"time": 143758, "pitch": 42, "duration": 10, "velocity": 100}, {"time": 143997, "pitch": 35, "duration": 10, "velocity": 115}, {"time": 143997, "pitch": 40, "duration": 10, "velocity": 80}, {"time": 143997, "pitch": 46, "duration": 10, "velocity": 80}, {"time": 144241, "pitch": 42, "duration": 10, "velocity": 100}, {"time": 144363, "pitch": 35, "duration": 10, "velocity": 75}, {"time": 144485, "pitch": 35, "duration": 10, "velocity": 75}, {"time": 144485, "pitch": 35, "duration": 10, "velocity": 115}, {"time": 144485, "pitch": 44, "duration": 10, "velocity": 80}, {"time": 144605, "pitch": 35, "duration": 10, "velocity": 115}, {"time": 144605, "pitch": 42, "duration": 10, "velocity": 100}, {"time": 144724, "pitch": 35, "duration": 10, "velocity": 75}, {"time": 144724, "pitch": 44, "duration": 10, "velocity": 80}, {"time": 144963, "pitch": 35, "duration": 10, "velocity": 115}, {"time": 144963, "pitch": 40, "duration": 10, "velocity": 80}, {"time": 144963, "pitch": 42, "duration": 10, "velocity": 100}, {"time": 145202, "pitch": 35, "duration": 10, "velocity": 75}, {"time": 145202, "pitch": 46, "duration": 10, "velocity": 80}, {"time": 145440, "pitch": 35, "duration": 10, "velocity": 75}, {"time": 145440, "pitch": 35, "duration": 10, "velocity": 115}, {"time": 145440, "pitch": 44, "duration": 10, "velocity": 80}, {"time": 145679, "pitch": 42, "duration": 10, "velocity": 100}, {"time": 145918, "pitch": 35, "duration": 10, "velocity": 115}, {"time": 145918, "pitch": 40, "duration": 10, "velocity": 80}, {"time": 145918, "pitch": 46, "duration": 10, "velocity": 80}, {"time": 146157, "pitch": 42, "duration": 10, "velocity": 100}, {"time": 146276, "pitch": 35, "duration": 10, "velocity": 75}, {"time": 146396, "pitch": 35, "duration": 10, "velocity": 75}, {"time": 146396, "pitch": 35, "duration": 10, "velocity": 115}, {"time": 146396, "pitch": 44, "duration": 10, "velocity": 80}, {"time": 146518, "pitch": 42, "duration": 10, "velocity": 100}, {"time": 146640, "pitch": 35, "duration": 10, "velocity": 75}, {"time": 146640, "pitch": 35, "duration": 10, "velocity": 115}, {"time": 146640, "pitch": 44, "duration": 10, "velocity": 80}, {"time": 146884, "pitch": 35, "duration": 10, "velocity": 115}, {"time": 146884, "pitch": 40, "duration": 10, "velocity": 80}, {"time": 146884, "pitch": 42, "duration": 10, "velocity": 100}, {"time": 147123, "pitch": 35, "duration": 10, "velocity": 75}, {"time": 147123, "pitch": 46, "duration": 10, "velocity": 80}, {"time": 147362, "pitch": 35, "duration": 9, "velocity": 75}, {"time": 147362, "pitch": 35, "duration": 9, "velocity": 115}, {"time": 147362, "pitch": 44, "duration": 9, "velocity": 80}, {"time": 147600, "pitch": 42, "duration": 10, "velocity": 100}, {"time": 147839, "pitch": 35, "duration": 10, "velocity": 115}, {"time": 147839, "pitch": 40, "duration": 10, "velocity": 80}, {"time": 147839, "pitch": 46, "duration": 10, "velocity": 80}, {"time": 148078, "pitch": 42, "duration": 10, "velocity": 100}, {"time": 148197, "pitch": 35, "duration": 10, "velocity": 75}, {"time": 148317, "pitch": 35, "duration": 10, "velocity": 75}, {"time": 148317, "pitch": 35, "duration": 10, "velocity": 115}, {"time": 148317, "pitch": 44, "duration": 10, "velocity": 80}, {"time": 148439, "pitch": 35, "duration": 10, "velocity": 115}, {"time": 148439, "pitch": 42, "duration": 10, "velocity": 100}, {"time": 148561, "pitch": 35, "duration": 10, "velocity": 75}, {"time": 148561, "pitch": 44, "duration": 10, "velocity": 80}, {"time": 148805, "pitch": 35, "duration": 10, "velocity": 115}, {"time": 148805, "pitch": 40, "duration": 10, "velocity": 80}, {"time": 148805, "pitch": 42, "duration": 10, "velocity": 100}, {"time": 148924, "pitch": 35, "duration": 10, "velocity": 115}, {"time": 149044, "pitch": 35, "duration": 10, "velocity": 75}, {"time": 149044, "pitch": 46, "duration": 10, "velocity": 80}, {"time": 149283, "pitch": 35, "duration": 10, "velocity": 75}, {"time": 149283, "pitch": 35, "duration": 10, "velocity": 115}, {"time": 149283, "pitch": 44, "duration": 10, "velocity": 80}, {"time": 149521, "pitch": 42, "duration": 10, "velocity": 100}, {"time": 149760, "pitch": 35, "duration": 10, "velocity": 115}, {"time": 149760, "pitch": 40, "duration": 10, "velocity": 80}, {"time": 149760, "pitch": 46, "duration": 10, "velocity": 80}, {"time": 149999, "pitch": 42, "duration": 10, "velocity": 100}, {"time": 150118, "pitch": 35, "duration": 10, "velocity": 75}, {"time": 150238, "pitch": 35, "duration": 10, "velocity": 75}, {"time": 150238, "pitch": 35, "duration": 10, "velocity": 115}, {"time": 150238, "pitch": 44, "duration": 10, "velocity": 80}, {"time": 150357, "pitch": 42, "duration": 10, "velocity": 100}, {"time": 150477, "pitch": 35, "duration": 10, "velocity": 75}, {"time": 150477, "pitch": 35, "duration": 10, "velocity": 115}, {"time": 150477, "pitch": 44, "duration": 10, "velocity": 80}, {"time": 150715, "pitch": 35, "duration": 11, "velocity": 115}, {"time": 150715, "pitch": 40, "duration": 11, "velocity": 80}, {"time": 150715, "pitch": 42, "duration": 11, "velocity": 100}, {"time": 150960, "pitch": 35, "duration": 10, "velocity": 75}, {"time": 150960, "pitch": 46, "duration": 10, "velocity": 80}, {"time": 151204, "pitch": 35, "duration": 10, "velocity": 75}, {"time": 151204, "pitch": 35, "duration": 10, "velocity": 115}, {"time": 151204, "pitch": 44, "duration": 10, "velocity": 80}, {"time": 151443, "pitch": 42, "duration": 10, "velocity": 100}, {"time": 151681, "pitch": 35, "duration": 10, "velocity": 115}, {"time": 151681, "pitch": 40, "duration": 10, "velocity": 80}, {"time": 151681, "pitch": 46, "duration": 10, "velocity": 80}, {"time": 151920, "pitch": 42, "duration": 10, "velocity": 100}, {"time": 152040, "pitch": 35, "duration": 10, "velocity": 75}, {"time": 152159, "pitch": 35, "duration": 10, "velocity": 75}, {"time": 152159, "pitch": 35, "duration": 10, "velocity": 115}, {"time": 152159, "pitch": 44, "duration": 10, "velocity": 80}, {"time": 152278, "pitch": 42, "duration": 10, "velocity": 100}, {"time": 152398, "pitch": 35, "duration": 10, "velocity": 75}, {"time": 152398, "pitch": 35, "duration": 10, "velocity": 115}, {"time": 152398, "pitch": 44, "duration": 10, "velocity": 80}, {"time": 152637, "pitch": 35, "duration": 10, "velocity": 115}, {"time": 152637, "pitch": 40, "duration": 10, "velocity": 80}, {"time": 152637, "pitch": 42, "duration": 10, "velocity": 100}, {"time": 152881, "pitch": 35, "duration": 10, "velocity": 75}, {"time": 152881, "pitch": 46, "duration": 10, "velocity": 80}, {"time": 153125, "pitch": 35, "duration": 10, "velocity": 75}, {"time": 153125, "pitch": 35, "duration": 10, "velocity": 115}, {"time": 153125, "pitch": 44, "duration": 10, "velocity": 80}, {"time": 153364, "pitch": 42, "duration": 10, "velocity": 100}, {"time": 153602, "pitch": 35, "duration": 10, "velocity": 115}, {"time": 153602, "pitch": 40, "duration": 10, "velocity": 80}, {"time": 153602, "pitch": 46, "duration": 10, "velocity": 80}, {"time": 153841, "pitch": 42, "duration": 10, "velocity": 100}, {"time": 153961, "pitch": 35, "duration": 10, "velocity": 75}, {"time": 154080, "pitch": 35, "duration": 10, "velocity": 75}, {"time": 154080, "pitch": 35, "duration": 10, "velocity": 115}, {"time": 154080, "pitch": 44, "duration": 10, "velocity": 80}, {"time": 154199, "pitch": 42, "duration": 10, "velocity": 100}, {"time": 154319, "pitch": 35, "duration": 10, "velocity": 75}, {"time": 154319, "pitch": 35, "duration": 10, "velocity": 115}, {"time": 154319, "pitch": 44, "duration": 10, "velocity": 80}, {"time": 154558, "pitch": 35, "duration": 10, "velocity": 115}, {"time": 154558, "pitch": 40, "duration": 10, "velocity": 80}, {"time": 154558, "pitch": 42, "duration": 10, "velocity": 100}, {"time": 154797, "pitch": 35, "duration": 9, "velocity": 75}, {"time": 154797, "pitch": 46, "duration": 9, "velocity": 80}, {"time": 155035, "pitch": 35, "duration": 10, "velocity": 75}, {"time": 155035, "pitch": 35, "duration": 10, "velocity": 115}, {"time": 155035, "pitch": 44, "duration": 10, "velocity": 80}, {"time": 155279, "pitch": 42, "duration": 11, "velocity": 100}, {"time": 155524, "pitch": 35, "duration": 10, "velocity": 115}, {"time": 155524, "pitch": 40, "duration": 10, "velocity": 80}, {"time": 155524, "pitch": 46, "duration": 10, "velocity": 80}, {"time": 155762, "pitch": 42, "duration": 10, "velocity": 100}, {"time": 155882, "pitch": 35, "duration": 10, "velocity": 75}, {"time": 156001, "pitch": 35, "duration": 10, "velocity": 75}, {"time": 156001, "pitch": 35, "duration": 10, "velocity": 115}, {"time": 156001, "pitch": 44, "duration": 10, "velocity": 80}, {"time": 156121, "pitch": 35, "duration": 10, "velocity": 115}, {"time": 156121, "pitch": 42, "duration": 10, "velocity": 100}, {"time": 156240, "pitch": 35, "duration": 10, "velocity": 75}, {"time": 156240, "pitch": 44, "duration": 10, "velocity": 80}, {"time": 156479, "pitch": 35, "duration": 10, "velocity": 115}, {"time": 156479, "pitch": 40, "duration": 10, "velocity": 80}, {"time": 156479, "pitch": 42, "duration": 10, "velocity": 100}, {"time": 156598, "pitch": 35, "duration": 10, "velocity": 115}, {"time": 156718, "pitch": 35, "duration": 10, "velocity": 75}, {"time": 156718, "pitch": 46, "duration": 10, "velocity": 80}, {"time": 156956, "pitch": 35, "duration": 11, "velocity": 75}, {"time": 156956, "pitch": 35, "duration": 11, "velocity": 115}, {"time": 156956, "pitch": 44, "duration": 11, "velocity": 80}, {"time": 156956, "pitch": 49, "duration": 11, "velocity": 80}, {"time": 156956, "pitch": 57, "duration": 11, "velocity": 80}, {"time": 157201, "pitch": 42, "duration": 10, "velocity": 100}, {"time": 157445, "pitch": 35, "duration": 10, "velocity": 115}, {"time": 157445, "pitch": 40, "duration": 10, "velocity": 80}, {"time": 157445, "pitch": 46, "duration": 10, "velocity": 80}, {"time": 157684, "pitch": 42, "duration": 9, "velocity": 100}, {"time": 157803, "pitch": 35, "duration": 10, "velocity": 75}, {"time": 157922, "pitch": 35, "duration": 10, "velocity": 75}, {"time": 157922, "pitch": 35, "duration": 10, "velocity": 115}, {"time": 157922, "pitch": 44, "duration": 10, "velocity": 80}, {"time": 158042, "pitch": 42, "duration": 10, "velocity": 100}, {"time": 158161, "pitch": 35, "duration": 10, "velocity": 75}, {"time": 158161, "pitch": 35, "duration": 10, "velocity": 115}, {"time": 158161, "pitch": 44, "duration": 10, "velocity": 80}, {"time": 158400, "pitch": 35, "duration": 10, "velocity": 115}, {"time": 158400, "pitch": 40, "duration": 10, "velocity": 80}, {"time": 158400, "pitch": 42, "duration": 10, "velocity": 100}, {"time": 158639, "pitch": 35, "duration": 10, "velocity": 75}, {"time": 158639, "pitch": 46, "duration": 10, "velocity": 80}, {"time": 158878, "pitch": 35, "duration": 9, "velocity": 75}, {"time": 158878, "pitch": 35, "duration": 9, "velocity": 115}, {"time": 158878, "pitch": 44, "duration": 9, "velocity": 80}, {"time": 159116, "pitch": 42, "duration": 10, "velocity": 100}, {"time": 159355, "pitch": 35, "duration": 10, "velocity": 115}, {"time": 159355, "pitch": 40, "duration": 10, "velocity": 80}, {"time": 159355, "pitch": 46, "duration": 10, "velocity": 80}, {"time": 159599, "pitch": 42, "duration": 10, "velocity": 100}, {"time": 159721, "pitch": 35, "duration": 11, "velocity": 75}, {"time": 159843, "pitch": 35, "duration": 10, "velocity": 75}, {"time": 159843, "pitch": 35, "duration": 10, "velocity": 115}, {"time": 159843, "pitch": 44, "duration": 10, "velocity": 80}, {"time": 159963, "pitch": 35, "duration": 10, "velocity": 115}, {"time": 159963, "pitch": 42, "duration": 10, "velocity": 100}, {"time": 160082, "pitch": 35, "duration": 10, "velocity": 75}, {"time": 160082, "pitch": 44, "duration": 10, "velocity": 80}, {"time": 160321, "pitch": 35, "duration": 10, "velocity": 115}, {"time": 160321, "pitch": 40, "duration": 10, "velocity": 80}, {"time": 160321, "pitch": 42, "duration": 10, "velocity": 100}, {"time": 160560, "pitch": 35, "duration": 10, "velocity": 75}, {"time": 160560, "pitch": 46, "duration": 10, "velocity": 80}, {"time": 160799, "pitch": 35, "duration": 10, "velocity": 75}, {"time": 160799, "pitch": 35, "duration": 10, "velocity": 115}, {"time": 160799, "pitch": 44, "duration": 10, "velocity": 80}, {"time": 161037, "pitch": 42, "duration": 10, "velocity": 100}, {"time": 161276, "pitch": 35, "duration": 10, "velocity": 115}, {"time": 161276, "pitch": 40, "duration": 10, "velocity": 80}, {"time": 161276, "pitch": 46, "duration": 10, "velocity": 80}, {"time": 161520, "pitch": 42, "duration": 11, "velocity": 100}, {"time": 161643, "pitch": 35, "duration": 10, "velocity": 75}, {"time": 161765, "pitch": 35, "duration": 9, "velocity": 75}, {"time": 161765, "pitch": 35, "duration": 9, "velocity": 115}, {"time": 161765, "pitch": 44, "duration": 9, "velocity": 80}, {"time": 161884, "pitch": 42, "duration": 10, "velocity": 100}, {"time": 162003, "pitch": 35, "duration": 10, "velocity": 75}, {"time": 162003, "pitch": 35, "duration": 10, "velocity": 115}, {"time": 162003, "pitch": 44, "duration": 10, "velocity": 80}, {"time": 162242, "pitch": 35, "duration": 10, "velocity": 115}, {"time": 162242, "pitch": 40, "duration": 10, "velocity": 80}, {"time": 162242, "pitch": 42, "duration": 10, "velocity": 100}, {"time": 162481, "pitch": 35, "duration": 10, "velocity": 75}, {"time": 162481, "pitch": 46, "duration": 10, "velocity": 80}, {"time": 162720, "pitch": 35, "duration": 10, "velocity": 75}, {"time": 162720, "pitch": 35, "duration": 10, "velocity": 115}, {"time": 162720, "pitch": 44, "duration": 10, "velocity": 80}, {"time": 162959, "pitch": 42, "duration": 10, "velocity": 100}, {"time": 163197, "pitch": 35, "duration": 10, "velocity": 115}, {"time": 163197, "pitch": 40, "duration": 10, "velocity": 80}, {"time": 163197, "pitch": 46, "duration": 10, "velocity": 80}, {"time": 163436, "pitch": 42, "duration": 10, "velocity": 100}, {"time": 163556, "pitch": 35, "duration": 10, "velocity": 75}, {"time": 163675, "pitch": 35, "duration": 10, "velocity": 75}, {"time": 163675, "pitch": 35, "duration": 10, "velocity": 115}, {"time": 163675, "pitch": 44, "duration": 10, "velocity": 80}, {"time": 163797, "pitch": 35, "duration": 10, "velocity": 115}, {"time": 163797, "pitch": 42, "duration": 10, "velocity": 100}, {"time": 163919, "pitch": 35, "duration": 10, "velocity": 75}, {"time": 163919, "pitch": 44, "duration": 10, "velocity": 80}, {"time": 164163, "pitch": 35, "duration": 10, "velocity": 115}, {"time": 164163, "pitch": 40, "duration": 10, "velocity": 80}, {"time": 164163, "pitch": 42, "duration": 10, "velocity": 100}, {"time": 164283, "pitch": 35, "duration": 10, "velocity": 115}, {"time": 164402, "pitch": 35, "duration": 10, "velocity": 75}, {"time": 164402, "pitch": 46, "duration": 10, "velocity": 80}, {"time": 164641, "pitch": 35, "duration": 10, "velocity": 75}, {"time": 164641, "pitch": 35, "duration": 10, "velocity": 115}, {"time": 164641, "pitch": 44, "duration": 10, "velocity": 80}, {"time": 164641, "pitch": 49, "duration": 10, "velocity": 80}, {"time": 164641, "pitch": 57, "duration": 10, "velocity": 80}, {"time": 164880, "pitch": 42, "duration": 10, "velocity": 100}, {"time": 165118, "pitch": 35, "duration": 10, "velocity": 115}, {"time": 165118, "pitch": 40, "duration": 10, "velocity": 80}, {"time": 165118, "pitch": 46, "duration": 10, "velocity": 80}, {"time": 165357, "pitch": 42, "duration": 10, "velocity": 100}, {"time": 165477, "pitch": 35, "duration": 10, "velocity": 75}, {"time": 165596, "pitch": 35, "duration": 10, "velocity": 75}, {"time": 165596, "pitch": 35, "duration": 10, "velocity": 115}, {"time": 165596, "pitch": 44, "duration": 10, "velocity": 80}, {"time": 165718, "pitch": 42, "duration": 10, "velocity": 100}, {"time": 165840, "pitch": 35, "duration": 10, "velocity": 75}, {"time": 165840, "pitch": 35, "duration": 10, "velocity": 115}, {"time": 165840, "pitch": 44, "duration": 10, "velocity": 80}, {"time": 166084, "pitch": 35, "duration": 10, "velocity": 115}, {"time": 166084, "pitch": 40, "duration": 10, "velocity": 80}, {"time": 166084, "pitch": 42, "duration": 10, "velocity": 100}, {"time": 166323, "pitch": 35, "duration": 10, "velocity": 75}, {"time": 166323, "pitch": 46, "duration": 10, "velocity": 80}, {"time": 166562, "pitch": 35, "duration": 10, "velocity": 75}, {"time": 166562, "pitch": 35, "duration": 10, "velocity": 115}, {"time": 166562, "pitch": 44, "duration": 10, "velocity": 80}, {"time": 166801, "pitch": 42, "duration": 10, "velocity": 100}, {"time": 167040, "pitch": 35, "duration": 10, "velocity": 115}, {"time": 167040, "pitch": 40, "duration": 10, "velocity": 80}, {"time": 167040, "pitch": 46, "duration": 10, "velocity": 80}, {"time": 167278, "pitch": 42, "duration": 10, "velocity": 100}, {"time": 167398, "pitch": 35, "duration": 10, "velocity": 75}, {"time": 167517, "pitch": 35, "duration": 10, "velocity": 75}, {"time": 167517, "pitch": 35, "duration": 10, "velocity": 115}, {"time": 167517, "pitch": 44, "duration": 10, "velocity": 80}, {"time": 167637, "pitch": 42, "duration": 10, "velocity": 100}, {"time": 167756, "pitch": 35, "duration": 10, "velocity": 75}, {"time": 167756, "pitch": 35, "duration": 10, "velocity": 115}, {"time": 167756, "pitch": 44, "duration": 10, "velocity": 80}, {"time": 167995, "pitch": 35, "duration": 10, "velocity": 115}, {"time": 167995, "pitch": 40, "duration": 10, "velocity": 80}, {"time": 167995, "pitch": 42, "duration": 10, "velocity": 100}, {"time": 168239, "pitch": 35, "duration": 10, "velocity": 75}, {"time": 168239, "pitch": 46, "duration": 10, "velocity": 80}, {"time": 168483, "pitch": 35, "duration": 10, "velocity": 75}, {"time": 168483, "pitch": 35, "duration": 10, "velocity": 115}, {"time": 168483, "pitch": 44, "duration": 10, "velocity": 80}, {"time": 168722, "pitch": 42, "duration": 10, "velocity": 100}, {"time": 168961, "pitch": 35, "duration": 10, "velocity": 115}, {"time": 168961, "pitch": 40, "duration": 10, "velocity": 80}, {"time": 168961, "pitch": 46, "duration": 10, "velocity": 80}, {"time": 169200, "pitch": 42, "duration": 9, "velocity": 100}, {"time": 169319, "pitch": 35, "duration": 10, "velocity": 75}, {"time": 169438, "pitch": 35, "duration": 10, "velocity": 75}, {"time": 169438, "pitch": 35, "duration": 10, "velocity": 115}, {"time": 169438, "pitch": 44, "duration": 10, "velocity": 80}, {"time": 169558, "pitch": 42, "duration": 10, "velocity": 100}, {"time": 169677, "pitch": 35, "duration": 10, "velocity": 75}, {"time": 169677, "pitch": 35, "duration": 10, "velocity": 115}, {"time": 169677, "pitch": 44, "duration": 10, "velocity": 80}, {"time": 169916, "pitch": 35, "duration": 10, "velocity": 115}, {"time": 169916, "pitch": 40, "duration": 10, "velocity": 80}, {"time": 169916, "pitch": 42, "duration": 10, "velocity": 100}, {"time": 170160, "pitch": 35, "duration": 10, "velocity": 75}, {"time": 170160, "pitch": 46, "duration": 10, "velocity": 80}, {"time": 170404, "pitch": 35, "duration": 10, "velocity": 75}, {"time": 170404, "pitch": 35, "duration": 10, "velocity": 115}, {"time": 170404, "pitch": 44, "duration": 10, "velocity": 80}, {"time": 170404, "pitch": 49, "duration": 10, "velocity": 80}, {"time": 170404, "pitch": 57, "duration": 10, "velocity": 80}, {"time": 170643, "pitch": 42, "duration": 10, "velocity": 100}, {"time": 170882, "pitch": 35, "duration": 10, "velocity": 115}, {"time": 170882, "pitch": 40, "duration": 10, "velocity": 80}, {"time": 170882, "pitch": 46, "duration": 10, "velocity": 80}, {"time": 170882, "pitch": 49, "duration": 10, "velocity": 80}, {"time": 170882, "pitch": 57, "duration": 10, "velocity": 80}, {"time": 171121, "pitch": 42, "duration": 10, "velocity": 100}, {"time": 171240, "pitch": 35, "duration": 10, "velocity": 75}, {"time": 171359, "pitch": 35, "duration": 10, "velocity": 75}, {"time": 171359, "pitch": 35, "duration": 10, "velocity": 115}, {"time": 171359, "pitch": 44, "duration": 10, "velocity": 80}, {"time": 171359, "pitch": 49, "duration": 10, "velocity": 80}, {"time": 171359, "pitch": 57, "duration": 10, "velocity": 80}, {"time": 171479, "pitch": 35, "duration": 10, "velocity": 115}, {"time": 171479, "pitch": 42, "duration": 10, "velocity": 100}, {"time": 171598, "pitch": 35, "duration": 10, "velocity": 75}, {"time": 171598, "pitch": 44, "duration": 10, "velocity": 80}, {"time": 171718, "pitch": 49, "duration": 10, "velocity": 80}, {"time": 171718, "pitch": 57, "duration": 10, "velocity": 80}, {"time": 171837, "pitch": 35, "duration": 10, "velocity": 115}, {"time": 171837, "pitch": 40, "duration": 10, "velocity": 80}, {"time": 171837, "pitch": 42, "duration": 10, "velocity": 100}, {"time": 171956, "pitch": 35, "duration": 10, "velocity": 115}, {"time": 172076, "pitch": 35, "duration": 10, "velocity": 75}, {"time": 172076, "pitch": 46, "duration": 10, "velocity": 80}, {"time": 172076, "pitch": 49, "duration": 10, "velocity": 80}, {"time": 172076, "pitch": 57, "duration": 10, "velocity": 80}, {"time": 172315, "pitch": 35, "duration": 10, "velocity": 75}, {"time": 172315, "pitch": 35, "duration": 10, "velocity": 115}, {"time": 172315, "pitch": 44, "duration": 10, "velocity": 80}, {"time": 172315, "pitch": 49, "duration": 10, "velocity": 80}, {"time": 172315, "pitch": 57, "duration": 10, "velocity": 80}, {"time": 172559, "pitch": 42, "duration": 10, "velocity": 100}, {"time": 172803, "pitch": 35, "duration": 10, "velocity": 115}, {"time": 172803, "pitch": 40, "duration": 10, "velocity": 80}, {"time": 172803, "pitch": 46, "duration": 10, "velocity": 80}, {"time": 173042, "pitch": 42, "duration": 10, "velocity": 100}, {"time": 173161, "pitch": 35, "duration": 10, "velocity": 75}, {"time": 173281, "pitch": 35, "duration": 10, "velocity": 75}, {"time": 173281, "pitch": 35, "duration": 10, "velocity": 115}, {"time": 173281, "pitch": 44, "duration": 10, "velocity": 80}, {"time": 173400, "pitch": 42, "duration": 10, "velocity": 100}, {"time": 173519, "pitch": 35, "duration": 10, "velocity": 75}, {"time": 173519, "pitch": 35, "duration": 10, "velocity": 115}, {"time": 173519, "pitch": 44, "duration": 10, "velocity": 80}, {"time": 173758, "pitch": 35, "duration": 10, "velocity": 115}, {"time": 173758, "pitch": 40, "duration": 10, "velocity": 80}, {"time": 173758, "pitch": 42, "duration": 10, "velocity": 100}, {"time": 173997, "pitch": 35, "duration": 10, "velocity": 75}, {"time": 173997, "pitch": 46, "duration": 10, "velocity": 80}, {"time": 174236, "pitch": 35, "duration": 10, "velocity": 75}, {"time": 174236, "pitch": 35, "duration": 10, "velocity": 115}, {"time": 174236, "pitch": 44, "duration": 10, "velocity": 80}, {"time": 174480, "pitch": 42, "duration": 10, "velocity": 100}, {"time": 174724, "pitch": 35, "duration": 10, "velocity": 115}, {"time": 174724, "pitch": 40, "duration": 10, "velocity": 80}, {"time": 174724, "pitch": 46, "duration": 10, "velocity": 80}, {"time": 174963, "pitch": 42, "duration": 10, "velocity": 100}, {"time": 175082, "pitch": 35, "duration": 10, "velocity": 75}, {"time": 175202, "pitch": 35, "duration": 10, "velocity": 75}, {"time": 175202, "pitch": 35, "duration": 10, "velocity": 115}, {"time": 175202, "pitch": 44, "duration": 10, "velocity": 80}, {"time": 175321, "pitch": 35, "duration": 10, "velocity": 115}, {"time": 175321, "pitch": 42, "duration": 10, "velocity": 100}, {"time": 175440, "pitch": 35, "duration": 10, "velocity": 75}, {"time": 175440, "pitch": 44, "duration": 10, "velocity": 80}, {"time": 175679, "pitch": 35, "duration": 10, "velocity": 115}, {"time": 175679, "pitch": 40, "duration": 10, "velocity": 80}, {"time": 175679, "pitch": 42, "duration": 10, "velocity": 100}, {"time": 175918, "pitch": 35, "duration": 10, "velocity": 75}, {"time": 175918, "pitch": 46, "duration": 10, "velocity": 80}, {"time": 176157, "pitch": 35, "duration": 10, "velocity": 75}, {"time": 176157, "pitch": 35, "duration": 10, "velocity": 115}, {"time": 176157, "pitch": 44, "duration": 10, "velocity": 80}, {"time": 176401, "pitch": 42, "duration": 10, "velocity": 100}, {"time": 176645, "pitch": 35, "duration": 10, "velocity": 115}, {"time": 176645, "pitch": 40, "duration": 10, "velocity": 80}, {"time": 176645, "pitch": 46, "duration": 10, "velocity": 80}, {"time": 176884, "pitch": 42, "duration": 10, "velocity": 100}, {"time": 177003, "pitch": 35, "duration": 10, "velocity": 75}, {"time": 177123, "pitch": 35, "duration": 10, "velocity": 75}, {"time": 177123, "pitch": 35, "duration": 10, "velocity": 115}, {"time": 177123, "pitch": 44, "duration": 10, "velocity": 80}, {"time": 177242, "pitch": 42, "duration": 10, "velocity": 100}, {"time": 177362, "pitch": 35, "duration": 10, "velocity": 75}, {"time": 177362, "pitch": 35, "duration": 10, "velocity": 115}, {"time": 177362, "pitch": 44, "duration": 10, "velocity": 80}, {"time": 177600, "pitch": 35, "duration": 10, "velocity": 115}, {"time": 177600, "pitch": 40, "duration": 10, "velocity": 80}, {"time": 177600, "pitch": 42, "duration": 10, "velocity": 100}, {"time": 177839, "pitch": 35, "duration": 10, "velocity": 75}, {"time": 177839, "pitch": 46, "duration": 10, "velocity": 80}, {"time": 178078, "pitch": 35, "duration": 10, "velocity": 75}, {"time": 178078, "pitch": 35, "duration": 10, "velocity": 115}, {"time": 178078, "pitch": 44, "duration": 10, "velocity": 80}, {"time": 178317, "pitch": 42, "duration": 10, "velocity": 100}, {"time": 178556, "pitch": 35, "duration": 10, "velocity": 115}, {"time": 178556, "pitch": 40, "duration": 10, "velocity": 80}, {"time": 178556, "pitch": 46, "duration": 10, "velocity": 80}, {"time": 178800, "pitch": 42, "duration": 10, "velocity": 100}, {"time": 178922, "pitch": 35, "duration": 10, "velocity": 75}, {"time": 179044, "pitch": 35, "duration": 10, "velocity": 75}, {"time": 179044, "pitch": 35, "duration": 10, "velocity": 115}, {"time": 179044, "pitch": 44, "duration": 10, "velocity": 80}, {"time": 179163, "pitch": 35, "duration": 10, "velocity": 115}, {"time": 179163, "pitch": 42, "duration": 10, "velocity": 100}, {"time": 179283, "pitch": 35, "duration": 10, "velocity": 75}, {"time": 179283, "pitch": 44, "duration": 10, "velocity": 80}, {"time": 179522, "pitch": 35, "duration": 9, "velocity": 115}, {"time": 179522, "pitch": 40, "duration": 9, "velocity": 80}, {"time": 179522, "pitch": 42, "duration": 9, "velocity": 100}, {"time": 179641, "pitch": 35, "duration": 10, "velocity": 115}, {"time": 179760, "pitch": 35, "duration": 10, "velocity": 75}, {"time": 179760, "pitch": 46, "duration": 10, "velocity": 80}, {"time": 179999, "pitch": 35, "duration": 10, "velocity": 75}, {"time": 179999, "pitch": 35, "duration": 10, "velocity": 115}, {"time": 179999, "pitch": 44, "duration": 10, "velocity": 80}, {"time": 179999, "pitch": 49, "duration": 10, "velocity": 80}, {"time": 179999, "pitch": 57, "duration": 10, "velocity": 80}, {"time": 180238, "pitch": 42, "duration": 10, "velocity": 100}, {"time": 180477, "pitch": 35, "duration": 10, "velocity": 115}, {"time": 180477, "pitch": 40, "duration": 10, "velocity": 80}, {"time": 180477, "pitch": 46, "duration": 10, "velocity": 80}, {"time": 180721, "pitch": 42, "duration": 10, "velocity": 100}, {"time": 180843, "pitch": 35, "duration": 10, "velocity": 75}, {"time": 180965, "pitch": 35, "duration": 10, "velocity": 75}, {"time": 180965, "pitch": 35, "duration": 10, "velocity": 115}, {"time": 180965, "pitch": 44, "duration": 10, "velocity": 80}, {"time": 181084, "pitch": 42, "duration": 10, "velocity": 100}, {"time": 181204, "pitch": 35, "duration": 10, "velocity": 75}, {"time": 181204, "pitch": 35, "duration": 10, "velocity": 115}, {"time": 181204, "pitch": 44, "duration": 10, "velocity": 80}, {"time": 181443, "pitch": 35, "duration": 10, "velocity": 115}, {"time": 181443, "pitch": 40, "duration": 10, "velocity": 80}, {"time": 181443, "pitch": 42, "duration": 10, "velocity": 100}, {"time": 181681, "pitch": 35, "duration": 10, "velocity": 75}, {"time": 181681, "pitch": 46, "duration": 10, "velocity": 80}, {"time": 181920, "pitch": 35, "duration": 10, "velocity": 75}, {"time": 181920, "pitch": 35, "duration": 10, "velocity": 115}, {"time": 181920, "pitch": 44, "duration": 10, "velocity": 80}, {"time": 182159, "pitch": 42, "duration": 10, "velocity": 100}, {"time": 182398, "pitch": 35, "duration": 10, "velocity": 115}, {"time": 182398, "pitch": 40, "duration": 10, "velocity": 80}, {"time": 182398, "pitch": 46, "duration": 10, "velocity": 80}, {"time": 182637, "pitch": 42, "duration": 10, "velocity": 100}, {"time": 182756, "pitch": 35, "duration": 10, "velocity": 75}, {"time": 182875, "pitch": 35, "duration": 11, "velocity": 75}, {"time": 182875, "pitch": 35, "duration": 11, "velocity": 115}, {"time": 182875, "pitch": 44, "duration": 11, "velocity": 80}, {"time": 182997, "pitch": 42, "duration": 11, "velocity": 100}, {"time": 183120, "pitch": 35, "duration": 10, "velocity": 75}, {"time": 183120, "pitch": 35, "duration": 10, "velocity": 115}, {"time": 183120, "pitch": 44, "duration": 10, "velocity": 80}, {"time": 183364, "pitch": 35, "duration": 10, "velocity": 115}, {"time": 183364, "pitch": 40, "duration": 10, "velocity": 80}, {"time": 183364, "pitch": 42, "duration": 10, "velocity": 100}, {"time": 183603, "pitch": 35, "duration": 9, "velocity": 75}, {"time": 183603, "pitch": 46, "duration": 9, "velocity": 80}, {"time": 183841, "pitch": 35, "duration": 10, "velocity": 75}, {"time": 183841, "pitch": 35, "duration": 10, "velocity": 115}, {"time": 183841, "pitch": 44, "duration": 10, "velocity": 80}, {"time": 184080, "pitch": 42, "duration": 10, "velocity": 100}, {"time": 184319, "pitch": 35, "duration": 10, "velocity": 115}, {"time": 184319, "pitch": 40, "duration": 10, "velocity": 80}, {"time": 184319, "pitch": 46, "duration": 10, "velocity": 80}, {"time": 184558, "pitch": 42, "duration": 10, "velocity": 100}, {"time": 184677, "pitch": 35, "duration": 10, "velocity": 75}, {"time": 184797, "pitch": 35, "duration": 10, "velocity": 75}, {"time": 184797, "pitch": 35, "duration": 10, "velocity": 115}, {"time": 184797, "pitch": 44, "duration": 10, "velocity": 80}, {"time": 184919, "pitch": 42, "duration": 10, "velocity": 100}, {"time": 185041, "pitch": 35, "duration": 10, "velocity": 75}, {"time": 185041, "pitch": 35, "duration": 10, "velocity": 115}, {"time": 185041, "pitch": 44, "duration": 10, "velocity": 80}, {"time": 185285, "pitch": 35, "duration": 10, "velocity": 115}, {"time": 185285, "pitch": 40, "duration": 10, "velocity": 80}, {"time": 185285, "pitch": 42, "duration": 10, "velocity": 100}, {"time": 185524, "pitch": 35, "duration": 10, "velocity": 75}, {"time": 185524, "pitch": 46, "duration": 10, "velocity": 80}, {"time": 185762, "pitch": 35, "duration": 10, "velocity": 75}, {"time": 185762, "pitch": 35, "duration": 10, "velocity": 115}, {"time": 185762, "pitch": 44, "duration": 10, "velocity": 80}, {"time": 186001, "pitch": 42, "duration": 10, "velocity": 100}, {"time": 186240, "pitch": 35, "duration": 10, "velocity": 115}, {"time": 186240, "pitch": 40, "duration": 10, "velocity": 80}, {"time": 186240, "pitch": 46, "duration": 10, "velocity": 80}, {"time": 186479, "pitch": 42, "duration": 10, "velocity": 100}, {"time": 186598, "pitch": 35, "duration": 10, "velocity": 75}, {"time": 186718, "pitch": 35, "duration": 10, "velocity": 75}, {"time": 186718, "pitch": 35, "duration": 10, "velocity": 115}, {"time": 186718, "pitch": 44, "duration": 10, "velocity": 80}, {"time": 186837, "pitch": 35, "duration": 10, "velocity": 115}, {"time": 186837, "pitch": 42, "duration": 10, "velocity": 100}, {"time": 186956, "pitch": 35, "duration": 10, "velocity": 75}, {"time": 186956, "pitch": 44, "duration": 10, "velocity": 80}, {"time": 187195, "pitch": 35, "duration": 10, "velocity": 115}, {"time": 187195, "pitch": 40, "duration": 10, "velocity": 80}, {"time": 187195, "pitch": 42, "duration": 10, "velocity": 100}, {"time": 187317, "pitch": 35, "duration": 10, "velocity": 115}, {"time": 187439, "pitch": 35, "duration": 11, "velocity": 75}, {"time": 187439, "pitch": 46, "duration": 11, "velocity": 80}, {"time": 187684, "pitch": 35, "duration": 10, "velocity": 75}, {"time": 187684, "pitch": 35, "duration": 10, "velocity": 115}, {"time": 187684, "pitch": 44, "duration": 10, "velocity": 80}, {"time": 187684, "pitch": 49, "duration": 10, "velocity": 80}, {"time": 187684, "pitch": 57, "duration": 10, "velocity": 80}, {"time": 187922, "pitch": 42, "duration": 10, "velocity": 100}, {"time": 188161, "pitch": 35, "duration": 10, "velocity": 115}, {"time": 188161, "pitch": 40, "duration": 10, "velocity": 80}, {"time": 188161, "pitch": 46, "duration": 10, "velocity": 80}, {"time": 188400, "pitch": 42, "duration": 10, "velocity": 100}, {"time": 188519, "pitch": 35, "duration": 10, "velocity": 75}, {"time": 188639, "pitch": 35, "duration": 10, "velocity": 75}, {"time": 188639, "pitch": 35, "duration": 10, "velocity": 115}, {"time": 188639, "pitch": 44, "duration": 10, "velocity": 80}, {"time": 188758, "pitch": 42, "duration": 10, "velocity": 100}, {"time": 188878, "pitch": 35, "duration": 10, "velocity": 75}, {"time": 188878, "pitch": 35, "duration": 10, "velocity": 115}, {"time": 188878, "pitch": 44, "duration": 10, "velocity": 80}, {"time": 189116, "pitch": 35, "duration": 11, "velocity": 115}, {"time": 189116, "pitch": 40, "duration": 11, "velocity": 80}, {"time": 189116, "pitch": 42, "duration": 11, "velocity": 100}, {"time": 189361, "pitch": 35, "duration": 10, "velocity": 75}, {"time": 189361, "pitch": 46, "duration": 10, "velocity": 80}, {"time": 189605, "pitch": 35, "duration": 10, "velocity": 75}, {"time": 189605, "pitch": 35, "duration": 10, "velocity": 115}, {"time": 189605, "pitch": 44, "duration": 10, "velocity": 80}, {"time": 189843, "pitch": 42, "duration": 10, "velocity": 100}, {"time": 190082, "pitch": 35, "duration": 10, "velocity": 115}, {"time": 190082, "pitch": 40, "duration": 10, "velocity": 80}, {"time": 190082, "pitch": 46, "duration": 10, "velocity": 80}, {"time": 190321, "pitch": 42, "duration": 10, "velocity": 100}, {"time": 190441, "pitch": 35, "duration": 9, "velocity": 75}, {"time": 190560, "pitch": 35, "duration": 10, "velocity": 75}, {"time": 190560, "pitch": 35, "duration": 10, "velocity": 115}, {"time": 190560, "pitch": 44, "duration": 10, "velocity": 80}, {"time": 190679, "pitch": 35, "duration": 10, "velocity": 115}, {"time": 190679, "pitch": 42, "duration": 10, "velocity": 100}, {"time": 190799, "pitch": 35, "duration": 10, "velocity": 75}, {"time": 190799, "pitch": 44, "duration": 10, "velocity": 80}, {"time": 191038, "pitch": 35, "duration": 9, "velocity": 115}, {"time": 191038, "pitch": 40, "duration": 9, "velocity": 80}, {"time": 191038, "pitch": 42, "duration": 9, "velocity": 100}, {"time": 191276, "pitch": 35, "duration": 10, "velocity": 75}, {"time": 191276, "pitch": 46, "duration": 10, "velocity": 80}, {"time": 191515, "pitch": 35, "duration": 10, "velocity": 75}, {"time": 191515, "pitch": 35, "duration": 10, "velocity": 115}, {"time": 191515, "pitch": 44, "duration": 10, "velocity": 80}, {"time": 191759, "pitch": 42, "duration": 10, "velocity": 100}, {"time": 192003, "pitch": 35, "duration": 10, "velocity": 115}, {"time": 192003, "pitch": 40, "duration": 10, "velocity": 80}, {"time": 192003, "pitch": 46, "duration": 10, "velocity": 80}, {"time": 192242, "pitch": 42, "duration": 10, "velocity": 100}, {"time": 192362, "pitch": 35, "duration": 10, "velocity": 75}, {"time": 192481, "pitch": 35, "duration": 10, "velocity": 75}, {"time": 192481, "pitch": 35, "duration": 10, "velocity": 115}, {"time": 192481, "pitch": 44, "duration": 10, "velocity": 80}, {"time": 192600, "pitch": 42, "duration": 10, "velocity": 100}, {"time": 192720, "pitch": 35, "duration": 10, "velocity": 75}, {"time": 192720, "pitch": 35, "duration": 10, "velocity": 115}, {"time": 192720, "pitch": 44, "duration": 10, "velocity": 80}, {"time": 192959, "pitch": 35, "duration": 10, "velocity": 115}, {"time": 192959, "pitch": 40, "duration": 10, "velocity": 80}, {"time": 192959, "pitch": 42, "duration": 10, "velocity": 100}, {"time": 193197, "pitch": 35, "duration": 10, "velocity": 75}, {"time": 193197, "pitch": 46, "duration": 10, "velocity": 80}, {"time": 193436, "pitch": 35, "duration": 10, "velocity": 75}, {"time": 193436, "pitch": 35, "duration": 10, "velocity": 115}, {"time": 193436, "pitch": 44, "duration": 10, "velocity": 80}, {"time": 193680, "pitch": 42, "duration": 11, "velocity": 100}, {"time": 193925, "pitch": 35, "duration": 9, "velocity": 115}, {"time": 193925, "pitch": 40, "duration": 9, "velocity": 80}, {"time": 193925, "pitch": 46, "duration": 9, "velocity": 80}, {"time": 194163, "pitch": 42, "duration": 10, "velocity": 100}, {"time": 194283, "pitch": 35, "duration": 10, "velocity": 75}, {"time": 194402, "pitch": 35, "duration": 10, "velocity": 75}, {"time": 194402, "pitch": 35, "duration": 10, "velocity": 115}, {"time": 194402, "pitch": 44, "duration": 10, "velocity": 80}, {"time": 194522, "pitch": 35, "duration": 9, "velocity": 115}, {"time": 194522, "pitch": 42, "duration": 9, "velocity": 100}, {"time": 194641, "pitch": 35, "duration": 10, "velocity": 75}, {"time": 194641, "pitch": 44, "duration": 10, "velocity": 80}, {"time": 194880, "pitch": 35, "duration": 10, "velocity": 115}, {"time": 194880, "pitch": 40, "duration": 10, "velocity": 80}, {"time": 194880, "pitch": 42, "duration": 10, "velocity": 100}, {"time": 194999, "pitch": 35, "duration": 10, "velocity": 115}, {"time": 195119, "pitch": 35, "duration": 10, "velocity": 75}, {"time": 195119, "pitch": 46, "duration": 10, "velocity": 80}, {"time": 195357, "pitch": 35, "duration": 10, "velocity": 75}, {"time": 195357, "pitch": 35, "duration": 10, "velocity": 115}, {"time": 195357, "pitch": 44, "duration": 10, "velocity": 80}, {"time": 195357, "pitch": 49, "duration": 10, "velocity": 80}, {"time": 195357, "pitch": 57, "duration": 10, "velocity": 80}, {"time": 195596, "pitch": 42, "duration": 10, "velocity": 100}, {"time": 195835, "pitch": 35, "duration": 10, "velocity": 115}, {"time": 195835, "pitch": 40, "duration": 10, "velocity": 80}, {"time": 195835, "pitch": 46, "duration": 10, "velocity": 80}, {"time": 196079, "pitch": 42, "duration": 10, "velocity": 100}, {"time": 196201, "pitch": 35, "duration": 10, "velocity": 75}, {"time": 196323, "pitch": 35, "duration": 10, "velocity": 75}, {"time": 196323, "pitch": 35, "duration": 10, "velocity": 115}, {"time": 196323, "pitch": 44, "duration": 10, "velocity": 80}, {"time": 196443, "pitch": 42, "duration": 10, "velocity": 100}, {"time": 196562, "pitch": 35, "duration": 10, "velocity": 75}, {"time": 196562, "pitch": 35, "duration": 10, "velocity": 115}, {"time": 196562, "pitch": 44, "duration": 10, "velocity": 80}, {"time": 196801, "pitch": 35, "duration": 10, "velocity": 115}, {"time": 196801, "pitch": 40, "duration": 10, "velocity": 80}, {"time": 196801, "pitch": 42, "duration": 10, "velocity": 100}, {"time": 197040, "pitch": 35, "duration": 10, "velocity": 75}, {"time": 197040, "pitch": 46, "duration": 10, "velocity": 80}, {"time": 197278, "pitch": 35, "duration": 10, "velocity": 75}, {"time": 197278, "pitch": 35, "duration": 10, "velocity": 115}, {"time": 197278, "pitch": 44, "duration": 10, "velocity": 80}, {"time": 197517, "pitch": 42, "duration": 10, "velocity": 100}, {"time": 197756, "pitch": 35, "duration": 10, "velocity": 115}, {"time": 197756, "pitch": 40, "duration": 10, "velocity": 80}, {"time": 197756, "pitch": 46, "duration": 10, "velocity": 80}, {"time": 198000, "pitch": 42, "duration": 10, "velocity": 100}, {"time": 198122, "pitch": 35, "duration": 11, "velocity": 75}, {"time": 198244, "pitch": 35, "duration": 10, "velocity": 75}, {"time": 198244, "pitch": 35, "duration": 10, "velocity": 115}, {"time": 198244, "pitch": 44, "duration": 10, "velocity": 80}, {"time": 198364, "pitch": 42, "duration": 10, "velocity": 100}, {"time": 198483, "pitch": 35, "duration": 10, "velocity": 75}, {"time": 198483, "pitch": 35, "duration": 10, "velocity": 115}, {"time": 198483, "pitch": 44, "duration": 10, "velocity": 80}, {"time": 198722, "pitch": 35, "duration": 10, "velocity": 115}, {"time": 198722, "pitch": 40, "duration": 10, "velocity": 80}, {"time": 198722, "pitch": 42, "duration": 10, "velocity": 100}, {"time": 198961, "pitch": 35, "duration": 10, "velocity": 75}, {"time": 198961, "pitch": 46, "duration": 10, "velocity": 80}, {"time": 199200, "pitch": 35, "duration": 10, "velocity": 75}, {"time": 199200, "pitch": 35, "duration": 10, "velocity": 115}, {"time": 199200, "pitch": 44, "duration": 10, "velocity": 80}, {"time": 199438, "pitch": 42, "duration": 10, "velocity": 100}, {"time": 199677, "pitch": 35, "duration": 10, "velocity": 115}, {"time": 199677, "pitch": 40, "duration": 10, "velocity": 80}, {"time": 199677, "pitch": 46, "duration": 10, "velocity": 80}, {"time": 199916, "pitch": 42, "duration": 10, "velocity": 100}, {"time": 200035, "pitch": 35, "duration": 10, "velocity": 75}, {"time": 200155, "pitch": 35, "duration": 10, "velocity": 75}, {"time": 200155, "pitch": 35, "duration": 10, "velocity": 115}, {"time": 200155, "pitch": 44, "duration": 10, "velocity": 80}, {"time": 200277, "pitch": 42, "duration": 10, "velocity": 100}, {"time": 200399, "pitch": 35, "duration": 10, "velocity": 75}, {"time": 200399, "pitch": 35, "duration": 10, "velocity": 115}, {"time": 200399, "pitch": 44, "duration": 10, "velocity": 80}, {"time": 200643, "pitch": 35, "duration": 10, "velocity": 115}, {"time": 200643, "pitch": 40, "duration": 10, "velocity": 80}, {"time": 200643, "pitch": 42, "duration": 10, "velocity": 100}, {"time": 200882, "pitch": 35, "duration": 10, "velocity": 75}, {"time": 200882, "pitch": 46, "duration": 10, "velocity": 80}, {"time": 201121, "pitch": 35, "duration": 10, "velocity": 75}, {"time": 201121, "pitch": 35, "duration": 10, "velocity": 115}, {"time": 201121, "pitch": 44, "duration": 10, "velocity": 80}, {"time": 201360, "pitch": 42, "duration": 9, "velocity": 100}, {"time": 201598, "pitch": 35, "duration": 10, "velocity": 115}, {"time": 201598, "pitch": 40, "duration": 10, "velocity": 80}, {"time": 201598, "pitch": 46, "duration": 10, "velocity": 80}, {"time": 201598, "pitch": 49, "duration": 10, "velocity": 80}, {"time": 201598, "pitch": 57, "duration": 10, "velocity": 80}, {"time": 201837, "pitch": 42, "duration": 10, "velocity": 100}, {"time": 201957, "pitch": 35, "duration": 9, "velocity": 75}, {"time": 202076, "pitch": 35, "duration": 10, "velocity": 75}, {"time": 202076, "pitch": 35, "duration": 10, "velocity": 115}, {"time": 202076, "pitch": 44, "duration": 10, "velocity": 80}, {"time": 202076, "pitch": 49, "duration": 10, "velocity": 80}, {"time": 202076, "pitch": 57, "duration": 10, "velocity": 80}, {"time": 202198, "pitch": 35, "duration": 10, "velocity": 115}, {"time": 202198, "pitch": 42, "duration": 10, "velocity": 100}, {"time": 202320, "pitch": 35, "duration": 10, "velocity": 75}, {"time": 202320, "pitch": 44, "duration": 10, "velocity": 80}, {"time": 202564, "pitch": 35, "duration": 10, "velocity": 115}, {"time": 202564, "pitch": 40, "duration": 10, "velocity": 80}, {"time": 202564, "pitch": 42, "duration": 10, "velocity": 100}, {"time": 202564, "pitch": 49, "duration": 10, "velocity": 80}, {"time": 202564, "pitch": 57, "duration": 10, "velocity": 80}, {"time": 202684, "pitch": 35, "duration": 10, "velocity": 115}, {"time": 202803, "pitch": 35, "duration": 10, "velocity": 75}, {"time": 202803, "pitch": 46, "duration": 10, "velocity": 80}, {"time": 203042, "pitch": 35, "duration": 10, "velocity": 75}, {"time": 203042, "pitch": 35, "duration": 10, "velocity": 115}, {"time": 203042, "pitch": 44, "duration": 10, "velocity": 80}, {"time": 203042, "pitch": 49, "duration": 10, "velocity": 80}, {"time": 203042, "pitch": 57, "duration": 10, "velocity": 80}, {"time": 203281, "pitch": 42, "duration": 10, "velocity": 100}, {"time": 203519, "pitch": 35, "duration": 10, "velocity": 115}, {"time": 203519, "pitch": 40, "duration": 10, "velocity": 80}, {"time": 203519, "pitch": 46, "duration": 10, "velocity": 80}, {"time": 203758, "pitch": 42, "duration": 10, "velocity": 100}, {"time": 203878, "pitch": 35, "duration": 10, "velocity": 75}, {"time": 203997, "pitch": 35, "duration": 10, "velocity": 75}, {"time": 203997, "pitch": 35, "duration": 10, "velocity": 115}, {"time": 203997, "pitch": 44, "duration": 10, "velocity": 80}, {"time": 204119, "pitch": 42, "duration": 10, "velocity": 100}, {"time": 204241, "pitch": 35, "duration": 10, "velocity": 75}, {"time": 204241, "pitch": 35, "duration": 10, "velocity": 115}, {"time": 204241, "pitch": 44, "duration": 10, "velocity": 80}, {"time": 204485, "pitch": 35, "duration": 10, "velocity": 115}, {"time": 204485, "pitch": 40, "duration": 10, "velocity": 80}, {"time": 204485, "pitch": 42, "duration": 10, "velocity": 100}, {"time": 204724, "pitch": 35, "duration": 10, "velocity": 75}, {"time": 204724, "pitch": 46, "duration": 10, "velocity": 80}, {"time": 204963, "pitch": 35, "duration": 10, "velocity": 75}, {"time": 204963, "pitch": 35, "duration": 10, "velocity": 115}, {"time": 204963, "pitch": 44, "duration": 10, "velocity": 80}, {"time": 205202, "pitch": 42, "duration": 10, "velocity": 100}, {"time": 205441, "pitch": 35, "duration": 9, "velocity": 115}, {"time": 205441, "pitch": 40, "duration": 9, "velocity": 80}, {"time": 205441, "pitch": 46, "duration": 9, "velocity": 80}, {"time": 205679, "pitch": 42, "duration": 10, "velocity": 100}, {"time": 205799, "pitch": 35, "duration": 10, "velocity": 75}, {"time": 205918, "pitch": 35, "duration": 10, "velocity": 75}, {"time": 205918, "pitch": 35, "duration": 10, "velocity": 115}, {"time": 205918, "pitch": 44, "duration": 10, "velocity": 80}, {"time": 206038, "pitch": 35, "duration": 10, "velocity": 115}, {"time": 206038, "pitch": 42, "duration": 10, "velocity": 100}, {"time": 206157, "pitch": 35, "duration": 10, "velocity": 75}, {"time": 206157, "pitch": 44, "duration": 10, "velocity": 80}, {"time": 206396, "pitch": 35, "duration": 10, "velocity": 115}, {"time": 206396, "pitch": 40, "duration": 10, "velocity": 80}, {"time": 206396, "pitch": 42, "duration": 10, "velocity": 100}, {"time": 206640, "pitch": 35, "duration": 10, "velocity": 75}, {"time": 206640, "pitch": 46, "duration": 10, "velocity": 80}, {"time": 206884, "pitch": 35, "duration": 10, "velocity": 75}, {"time": 206884, "pitch": 35, "duration": 10, "velocity": 115}, {"time": 206884, "pitch": 44, "duration": 10, "velocity": 80}, {"time": 207123, "pitch": 42, "duration": 10, "velocity": 100}, {"time": 207362, "pitch": 35, "duration": 10, "velocity": 115}, {"time": 207362, "pitch": 40, "duration": 10, "velocity": 80}, {"time": 207362, "pitch": 46, "duration": 10, "velocity": 80}, {"time": 207600, "pitch": 42, "duration": 10, "velocity": 100}, {"time": 207720, "pitch": 35, "duration": 10, "velocity": 75}, {"time": 207839, "pitch": 35, "duration": 10, "velocity": 75}, {"time": 207839, "pitch": 35, "duration": 10, "velocity": 115}, {"time": 207839, "pitch": 44, "duration": 10, "velocity": 80}, {"time": 207959, "pitch": 42, "duration": 10, "velocity": 100}, {"time": 208078, "pitch": 35, "duration": 10, "velocity": 75}, {"time": 208078, "pitch": 35, "duration": 10, "velocity": 115}, {"time": 208078, "pitch": 44, "duration": 10, "velocity": 80}, {"time": 208317, "pitch": 35, "duration": 10, "velocity": 115}, {"time": 208317, "pitch": 40, "duration": 10, "velocity": 80}, {"time": 208317, "pitch": 42, "duration": 10, "velocity": 100}, {"time": 208561, "pitch": 35, "duration": 10, "velocity": 75}, {"time": 208561, "pitch": 46, "duration": 10, "velocity": 80}, {"time": 208805, "pitch": 35, "duration": 10, "velocity": 75}, {"time": 208805, "pitch": 35, "duration": 10, "velocity": 115}, {"time": 208805, "pitch": 44, "duration": 10, "velocity": 80}, {"time": 209044, "pitch": 42, "duration": 10, "velocity": 100}, {"time": 209283, "pitch": 35, "duration": 10, "velocity": 115}, {"time": 209283, "pitch": 40, "duration": 10, "velocity": 80}, {"time": 209283, "pitch": 46, "duration": 10, "velocity": 80}, {"time": 209522, "pitch": 42, "duration": 10, "velocity": 100}, {"time": 209641, "pitch": 35, "duration": 10, "velocity": 75}, {"time": 209760, "pitch": 35, "duration": 10, "velocity": 75}, {"time": 209760, "pitch": 35, "duration": 10, "velocity": 115}, {"time": 209760, "pitch": 44, "duration": 10, "velocity": 80}, {"time": 209880, "pitch": 35, "duration": 10, "velocity": 115}, {"time": 209880, "pitch": 42, "duration": 10, "velocity": 100}, {"time": 209999, "pitch": 35, "duration": 10, "velocity": 75}, {"time": 209999, "pitch": 44, "duration": 10, "velocity": 80}, {"time": 210238, "pitch": 35, "duration": 10, "velocity": 115}, {"time": 210238, "pitch": 40, "duration": 10, "velocity": 80}, {"time": 210238, "pitch": 42, "duration": 10, "velocity": 100}, {"time": 210357, "pitch": 35, "duration": 10, "velocity": 115}, {"time": 210477, "pitch": 35, "duration": 10, "velocity": 75}, {"time": 210477, "pitch": 46, "duration": 10, "velocity": 80}, {"time": 210716, "pitch": 35, "duration": 10, "velocity": 75}, {"time": 210716, "pitch": 35, "duration": 10, "velocity": 115}, {"time": 210716, "pitch": 44, "duration": 10, "velocity": 80}, {"time": 210716, "pitch": 49, "duration": 10, "velocity": 80}, {"time": 210716, "pitch": 57, "duration": 10, "velocity": 80}, {"time": 210960, "pitch": 42, "duration": 10, "velocity": 100}, {"time": 211204, "pitch": 35, "duration": 10, "velocity": 115}, {"time": 211204, "pitch": 40, "duration": 10, "velocity": 80}, {"time": 211204, "pitch": 46, "duration": 10, "velocity": 80}, {"time": 211443, "pitch": 42, "duration": 10, "velocity": 100}, {"time": 211562, "pitch": 35, "duration": 10, "velocity": 75}, {"time": 211681, "pitch": 35, "duration": 10, "velocity": 75}, {"time": 211681, "pitch": 35, "duration": 10, "velocity": 115}, {"time": 211681, "pitch": 44, "duration": 10, "velocity": 80}, {"time": 211801, "pitch": 42, "duration": 10, "velocity": 100}, {"time": 211920, "pitch": 35, "duration": 10, "velocity": 75}, {"time": 211920, "pitch": 35, "duration": 10, "velocity": 115}, {"time": 211920, "pitch": 44, "duration": 10, "velocity": 80}, {"time": 212159, "pitch": 35, "duration": 10, "velocity": 115}, {"time": 212159, "pitch": 40, "duration": 10, "velocity": 80}, {"time": 212159, "pitch": 42, "duration": 10, "velocity": 100}, {"time": 212398, "pitch": 35, "duration": 10, "velocity": 75}, {"time": 212398, "pitch": 46, "duration": 10, "velocity": 80}, {"time": 212637, "pitch": 35, "duration": 10, "velocity": 75}, {"time": 212637, "pitch": 35, "duration": 10, "velocity": 115}, {"time": 212637, "pitch": 44, "duration": 10, "velocity": 80}, {"time": 212881, "pitch": 42, "duration": 10, "velocity": 100}, {"time": 213125, "pitch": 35, "duration": 10, "velocity": 115}, {"time": 213125, "pitch": 40, "duration": 10, "velocity": 80}, {"time": 213125, "pitch": 46, "duration": 10, "velocity": 80}, {"time": 213364, "pitch": 42, "duration": 10, "velocity": 100}, {"time": 213483, "pitch": 35, "duration": 10, "velocity": 75}, {"time": 213603, "pitch": 35, "duration": 10, "velocity": 75}, {"time": 213603, "pitch": 35, "duration": 10, "velocity": 115}, {"time": 213603, "pitch": 44, "duration": 10, "velocity": 80}, {"time": 213722, "pitch": 42, "duration": 10, "velocity": 100}, {"time": 213841, "pitch": 35, "duration": 10, "velocity": 75}, {"time": 213841, "pitch": 35, "duration": 10, "velocity": 115}, {"time": 213841, "pitch": 44, "duration": 10, "velocity": 80}, {"time": 214080, "pitch": 35, "duration": 10, "velocity": 115}, {"time": 214080, "pitch": 40, "duration": 10, "velocity": 80}, {"time": 214080, "pitch": 42, "duration": 10, "velocity": 100}, {"time": 214319, "pitch": 35, "duration": 10, "velocity": 75}, {"time": 214319, "pitch": 46, "duration": 10, "velocity": 80}, {"time": 214558, "pitch": 35, "duration": 10, "velocity": 75}, {"time": 214558, "pitch": 35, "duration": 10, "velocity": 115}, {"time": 214558, "pitch": 44, "duration": 10, "velocity": 80}, {"time": 214797, "pitch": 42, "duration": 10, "velocity": 100}, {"time": 215035, "pitch": 35, "duration": 11, "velocity": 115}, {"time": 215035, "pitch": 40, "duration": 11, "velocity": 80}, {"time": 215035, "pitch": 46, "duration": 11, "velocity": 80}, {"time": 215280, "pitch": 42, "duration": 10, "velocity": 100}, {"time": 215402, "pitch": 35, "duration": 10, "velocity": 75}, {"time": 215524, "pitch": 35, "duration": 10, "velocity": 75}, {"time": 215524, "pitch": 35, "duration": 10, "velocity": 115}, {"time": 215524, "pitch": 44, "duration": 10, "velocity": 80}, {"time": 215643, "pitch": 42, "duration": 10, "velocity": 100}, {"time": 215763, "pitch": 35, "duration": 9, "velocity": 75}, {"time": 215763, "pitch": 35, "duration": 9, "velocity": 115}, {"time": 215763, "pitch": 44, "duration": 9, "velocity": 80}, {"time": 216001, "pitch": 35, "duration": 10, "velocity": 115}, {"time": 216001, "pitch": 40, "duration": 10, "velocity": 80}, {"time": 216001, "pitch": 42, "duration": 10, "velocity": 100}, {"time": 216240, "pitch": 35, "duration": 10, "velocity": 75}, {"time": 216240, "pitch": 46, "duration": 10, "velocity": 80}, {"time": 216479, "pitch": 35, "duration": 10, "velocity": 75}, {"time": 216479, "pitch": 35, "duration": 10, "velocity": 115}, {"time": 216479, "pitch": 44, "duration": 10, "velocity": 80}, {"time": 216718, "pitch": 42, "duration": 10, "velocity": 100}, {"time": 216957, "pitch": 35, "duration": 10, "velocity": 115}, {"time": 216957, "pitch": 40, "duration": 10, "velocity": 80}, {"time": 216957, "pitch": 46, "duration": 10, "velocity": 80}, {"time": 217201, "pitch": 42, "duration": 10, "velocity": 100}, {"time": 217323, "pitch": 35, "duration": 10, "velocity": 75}, {"time": 217445, "pitch": 35, "duration": 10, "velocity": 75}, {"time": 217445, "pitch": 35, "duration": 10, "velocity": 115}, {"time": 217445, "pitch": 44, "duration": 10, "velocity": 80}, {"time": 217564, "pitch": 35, "duration": 10, "velocity": 115}, {"time": 217564, "pitch": 42, "duration": 10, "velocity": 100}, {"time": 217684, "pitch": 35, "duration": 10, "velocity": 75}, {"time": 217684, "pitch": 44, "duration": 10, "velocity": 80}, {"time": 217922, "pitch": 35, "duration": 10, "velocity": 115}, {"time": 217922, "pitch": 40, "duration": 10, "velocity": 80}, {"time": 217922, "pitch": 42, "duration": 10, "velocity": 100}, {"time": 218042, "pitch": 35, "duration": 10, "velocity": 115}, {"time": 218161, "pitch": 35, "duration": 10, "velocity": 75}, {"time": 218161, "pitch": 46, "duration": 10, "velocity": 80}, {"time": 218400, "pitch": 35, "duration": 10, "velocity": 75}, {"time": 218400, "pitch": 35, "duration": 10, "velocity": 115}, {"time": 218400, "pitch": 44, "duration": 10, "velocity": 80}, {"time": 218400, "pitch": 49, "duration": 10, "velocity": 80}, {"time": 218400, "pitch": 57, "duration": 10, "velocity": 80}, {"time": 218639, "pitch": 42, "duration": 10, "velocity": 100}, {"time": 218878, "pitch": 35, "duration": 10, "velocity": 115}, {"time": 218878, "pitch": 40, "duration": 10, "velocity": 80}, {"time": 218878, "pitch": 46, "duration": 10, "velocity": 80}, {"time": 219116, "pitch": 42, "duration": 10, "velocity": 100}, {"time": 219236, "pitch": 35, "duration": 10, "velocity": 75}, {"time": 219355, "pitch": 35, "duration": 10, "velocity": 75}, {"time": 219355, "pitch": 35, "duration": 10, "velocity": 115}, {"time": 219355, "pitch": 44, "duration": 10, "velocity": 80}, {"time": 219477, "pitch": 42, "duration": 10, "velocity": 100}, {"time": 219599, "pitch": 35, "duration": 11, "velocity": 75}, {"time": 219599, "pitch": 35, "duration": 11, "velocity": 115}, {"time": 219599, "pitch": 44, "duration": 11, "velocity": 80}, {"time": 219844, "pitch": 35, "duration": 10, "velocity": 115}, {"time": 219844, "pitch": 40, "duration": 10, "velocity": 80}, {"time": 219844, "pitch": 42, "duration": 10, "velocity": 100}, {"time": 220082, "pitch": 35, "duration": 10, "velocity": 75}, {"time": 220082, "pitch": 46, "duration": 10, "velocity": 80}, {"time": 220321, "pitch": 35, "duration": 10, "velocity": 75}, {"time": 220321, "pitch": 35, "duration": 10, "velocity": 115}, {"time": 220321, "pitch": 44, "duration": 10, "velocity": 80}, {"time": 220560, "pitch": 42, "duration": 10, "velocity": 100}, {"time": 220799, "pitch": 35, "duration": 10, "velocity": 115}, {"time": 220799, "pitch": 40, "duration": 10, "velocity": 80}, {"time": 220799, "pitch": 46, "duration": 10, "velocity": 80}, {"time": 221038, "pitch": 42, "duration": 10, "velocity": 100}, {"time": 221157, "pitch": 35, "duration": 10, "velocity": 75}, {"time": 221276, "pitch": 35, "duration": 10, "velocity": 75}, {"time": 221276, "pitch": 35, "duration": 10, "velocity": 115}, {"time": 221276, "pitch": 44, "duration": 10, "velocity": 80}, {"time": 221398, "pitch": 35, "duration": 11, "velocity": 115}, {"time": 221398, "pitch": 42, "duration": 11, "velocity": 100}, {"time": 221521, "pitch": 35, "duration": 10, "velocity": 75}, {"time": 221521, "pitch": 44, "duration": 10, "velocity": 80}, {"time": 221765, "pitch": 35, "duration": 10, "velocity": 115}, {"time": 221765, "pitch": 40, "duration": 10, "velocity": 80}, {"time": 221765, "pitch": 42, "duration": 10, "velocity": 100}, {"time": 222003, "pitch": 35, "duration": 10, "velocity": 75}, {"time": 222003, "pitch": 46, "duration": 10, "velocity": 80}, {"time": 222242, "pitch": 35, "duration": 10, "velocity": 75}, {"time": 222242, "pitch": 35, "duration": 10, "velocity": 115}, {"time": 222242, "pitch": 44, "duration": 10, "velocity": 80}, {"time": 222481, "pitch": 42, "duration": 10, "velocity": 100}, {"time": 222720, "pitch": 35, "duration": 10, "velocity": 115}, {"time": 222720, "pitch": 40, "duration": 10, "velocity": 80}, {"time": 222720, "pitch": 46, "duration": 10, "velocity": 80}, {"time": 222959, "pitch": 42, "duration": 10, "velocity": 100}, {"time": 223078, "pitch": 35, "duration": 10, "velocity": 75}, {"time": 223198, "pitch": 35, "duration": 9, "velocity": 75}, {"time": 223198, "pitch": 35, "duration": 9, "velocity": 115}, {"time": 223198, "pitch": 44, "duration": 9, "velocity": 80}, {"time": 223317, "pitch": 42, "duration": 10, "velocity": 100}, {"time": 223436, "pitch": 35, "duration": 10, "velocity": 75}, {"time": 223436, "pitch": 35, "duration": 10, "velocity": 115}, {"time": 223436, "pitch": 44, "duration": 10, "velocity": 80}, {"time": 223675, "pitch": 35, "duration": 10, "velocity": 115}, {"time": 223675, "pitch": 40, "duration": 10, "velocity": 80}, {"time": 223675, "pitch": 42, "duration": 10, "velocity": 100}, {"time": 223919, "pitch": 35, "duration": 10, "velocity": 75}, {"time": 223919, "pitch": 46, "duration": 10, "velocity": 80}, {"time": 224163, "pitch": 35, "duration": 10, "velocity": 75}, {"time": 224163, "pitch": 35, "duration": 10, "velocity": 115}, {"time": 224163, "pitch": 44, "duration": 10, "velocity": 80}, {"time": 224402, "pitch": 42, "duration": 10, "velocity": 100}, {"time": 224641, "pitch": 35, "duration": 10, "velocity": 115}, {"time": 224641, "pitch": 40, "duration": 10, "velocity": 80}, {"time": 224641, "pitch": 46, "duration": 10, "velocity": 80}, {"time": 224880, "pitch": 42, "duration": 10, "velocity": 100}, {"time": 224999, "pitch": 35, "duration": 10, "velocity": 75}, {"time": 225119, "pitch": 35, "duration": 10, "velocity": 75}, {"time": 225119, "pitch": 35, "duration": 10, "velocity": 115}, {"time": 225119, "pitch": 44, "duration": 10, "velocity": 80}, {"time": 225238, "pitch": 35, "duration": 10, "velocity": 115}, {"time": 225238, "pitch": 42, "duration": 10, "velocity": 100}, {"time": 225357, "pitch": 35, "duration": 10, "velocity": 75}, {"time": 225357, "pitch": 44, "duration": 10, "velocity": 80}, {"time": 225596, "pitch": 35, "duration": 10, "velocity": 115}, {"time": 225596, "pitch": 40, "duration": 10, "velocity": 80}, {"time": 225596, "pitch": 42, "duration": 10, "velocity": 100}, {"time": 225718, "pitch": 35, "duration": 10, "velocity": 115}, {"time": 225840, "pitch": 35, "duration": 11, "velocity": 75}, {"time": 225840, "pitch": 46, "duration": 11, "velocity": 80}, {"time": 226085, "pitch": 35, "duration": 9, "velocity": 75}, {"time": 226085, "pitch": 35, "duration": 9, "velocity": 115}, {"time": 226085, "pitch": 44, "duration": 9, "velocity": 80}, {"time": 226085, "pitch": 49, "duration": 9, "velocity": 80}, {"time": 226085, "pitch": 57, "duration": 9, "velocity": 80}, {"time": 226323, "pitch": 42, "duration": 10, "velocity": 100}, {"time": 226562, "pitch": 35, "duration": 10, "velocity": 115}, {"time": 226562, "pitch": 40, "duration": 10, "velocity": 80}, {"time": 226562, "pitch": 46, "duration": 10, "velocity": 80}, {"time": 226801, "pitch": 42, "duration": 10, "velocity": 100}, {"time": 226920, "pitch": 35, "duration": 10, "velocity": 75}, {"time": 227040, "pitch": 35, "duration": 10, "velocity": 75}, {"time": 227040, "pitch": 35, "duration": 10, "velocity": 115}, {"time": 227040, "pitch": 44, "duration": 10, "velocity": 80}, {"time": 227159, "pitch": 42, "duration": 10, "velocity": 100}, {"time": 227279, "pitch": 35, "duration": 9, "velocity": 75}, {"time": 227279, "pitch": 35, "duration": 9, "velocity": 115}, {"time": 227279, "pitch": 44, "duration": 9, "velocity": 80}, {"time": 227517, "pitch": 35, "duration": 10, "velocity": 115}, {"time": 227517, "pitch": 40, "duration": 10, "velocity": 80}, {"time": 227517, "pitch": 42, "duration": 10, "velocity": 100}, {"time": 227756, "pitch": 35, "duration": 10, "velocity": 75}, {"time": 227756, "pitch": 46, "duration": 10, "velocity": 80}, {"time": 227995, "pitch": 35, "duration": 10, "velocity": 75}, {"time": 227995, "pitch": 35, "duration": 10, "velocity": 115}, {"time": 227995, "pitch": 44, "duration": 10, "velocity": 80}, {"time": 228239, "pitch": 42, "duration": 10, "velocity": 100}, {"time": 228483, "pitch": 35, "duration": 10, "velocity": 115}, {"time": 228483, "pitch": 40, "duration": 10, "velocity": 80}, {"time": 228483, "pitch": 46, "duration": 10, "velocity": 80}, {"time": 228722, "pitch": 42, "duration": 10, "velocity": 100}, {"time": 228841, "pitch": 35, "duration": 10, "velocity": 75}, {"time": 228961, "pitch": 35, "duration": 10, "velocity": 75}, {"time": 228961, "pitch": 35, "duration": 10, "velocity": 115}, {"time": 228961, "pitch": 44, "duration": 10, "velocity": 80}, {"time": 229080, "pitch": 42, "duration": 10, "velocity": 100}, {"time": 229200, "pitch": 35, "duration": 10, "velocity": 75}, {"time": 229200, "pitch": 35, "duration": 10, "velocity": 115}, {"time": 229200, "pitch": 44, "duration": 10, "velocity": 80}, {"time": 229438, "pitch": 35, "duration": 10, "velocity": 115}, {"time": 229438, "pitch": 40, "duration": 10, "velocity": 80}, {"time": 229438, "pitch": 42, "duration": 10, "velocity": 100}, {"time": 229677, "pitch": 35, "duration": 10, "velocity": 75}, {"time": 229677, "pitch": 46, "duration": 10, "velocity": 80}, {"time": 229916, "pitch": 35, "duration": 10, "velocity": 75}, {"time": 229916, "pitch": 35, "duration": 10, "velocity": 115}, {"time": 229916, "pitch": 44, "duration": 10, "velocity": 80}, {"time": 230160, "pitch": 42, "duration": 10, "velocity": 100}, {"time": 230404, "pitch": 35, "duration": 10, "velocity": 115}, {"time": 230404, "pitch": 40, "duration": 10, "velocity": 80}, {"time": 230404, "pitch": 46, "duration": 10, "velocity": 80}, {"time": 230643, "pitch": 42, "duration": 10, "velocity": 100}, {"time": 230763, "pitch": 35, "duration": 10, "velocity": 75}, {"time": 230882, "pitch": 35, "duration": 10, "velocity": 75}, {"time": 230882, "pitch": 35, "duration": 10, "velocity": 115}, {"time": 230882, "pitch": 44, "duration": 10, "velocity": 80}, {"time": 231001, "pitch": 42, "duration": 10, "velocity": 100}, {"time": 231121, "pitch": 35, "duration": 10, "velocity": 75}, {"time": 231121, "pitch": 35, "duration": 10, "velocity": 115}, {"time": 231121, "pitch": 44, "duration": 10, "velocity": 80}, {"time": 231360, "pitch": 35, "duration": 10, "velocity": 115}, {"time": 231360, "pitch": 40, "duration": 10, "velocity": 80}, {"time": 231360, "pitch": 42, "duration": 10, "velocity": 100}, {"time": 231598, "pitch": 35, "duration": 10, "velocity": 75}, {"time": 231598, "pitch": 46, "duration": 10, "velocity": 80}, {"time": 231837, "pitch": 35, "duration": 10, "velocity": 75}, {"time": 231837, "pitch": 35, "duration": 10, "velocity": 115}, {"time": 231837, "pitch": 44, "duration": 10, "velocity": 80}, {"time": 232076, "pitch": 42, "duration": 10, "velocity": 100}, {"time": 232315, "pitch": 35, "duration": 10, "velocity": 115}, {"time": 232315, "pitch": 40, "duration": 10, "velocity": 80}, {"time": 232315, "pitch": 46, "duration": 10, "velocity": 80}, {"time": 232554, "pitch": 42, "duration": 10, "velocity": 100}, {"time": 232673, "pitch": 35, "duration": 10, "velocity": 75}, {"time": 232792, "pitch": 35, "duration": 10, "velocity": 75}, {"time": 232792, "pitch": 35, "duration": 10, "velocity": 115}, {"time": 232792, "pitch": 44, "duration": 10, "velocity": 80}, {"time": 232912, "pitch": 35, "duration": 10, "velocity": 115}, {"time": 232912, "pitch": 42, "duration": 10, "velocity": 100}, {"time": 233031, "pitch": 35, "duration": 10, "velocity": 75}, {"time": 233031, "pitch": 44, "duration": 10, "velocity": 80}, {"time": 233270, "pitch": 35, "duration": 10, "velocity": 115}, {"time": 233270, "pitch": 40, "duration": 10, "velocity": 80}, {"time": 233270, "pitch": 42, "duration": 10, "velocity": 100}, {"time": 233389, "pitch": 35, "duration": 10, "velocity": 115}, {"time": 233509, "pitch": 35, "duration": 10, "velocity": 75}, {"time": 233509, "pitch": 46, "duration": 10, "velocity": 80}, {"time": 1920, "pitch": 71, "duration": 498, "velocity": 120}, {"time": 2397, "pitch": 60, "duration": 1393, "velocity": 120}, {"time": 57, "pitch": 72, "duration": 16743, "velocity": 120}, {"time": 49916, "pitch": 72, "duration": 249, "velocity": 120}, {"time": 50404, "pitch": 68, "duration": 293, "velocity": 120}, {"time": 50882, "pitch": 68, "duration": 171, "velocity": 120}, {"time": 51120, "pitch": 70, "duration": 429, "velocity": 120}, {"time": 51598, "pitch": 68, "duration": 228, "velocity": 120}, {"time": 52564, "pitch": 65, "duration": 204, "velocity": 120}, {"time": 52803, "pitch": 68, "duration": 192, "velocity": 120}, {"time": 53041, "pitch": 70, "duration": 171, "velocity": 120}, {"time": 53280, "pitch": 72, "duration": 154, "velocity": 120}, {"time": 53519, "pitch": 73, "duration": 173, "velocity": 120}, {"time": 53758, "pitch": 72, "duration": 204, "velocity": 120}, {"time": 53997, "pitch": 70, "duration": 183, "velocity": 120}, {"time": 54236, "pitch": 68, "duration": 279, "velocity": 120}, {"time": 54602, "pitch": 70, "duration": 266, "velocity": 120}, {"time": 54963, "pitch": 68, "duration": 744, "velocity": 120}, {"time": 57600, "pitch": 72, "duration": 244, "velocity": 120}, {"time": 58078, "pitch": 68, "duration": 293, "velocity": 120}, {"time": 58555, "pitch": 68, "duration": 175, "velocity": 120}, {"time": 58799, "pitch": 70, "duration": 435, "velocity": 120}, {"time": 59282, "pitch": 68, "duration": 228, "velocity": 120}, {"time": 60238, "pitch": 68, "duration": 185, "velocity": 120}, {"time": 60476, "pitch": 70, "duration": 160, "velocity": 120}, {"time": 60721, "pitch": 72, "duration": 417, "velocity": 120}, {"time": 61204, "pitch": 73, "duration": 172, "velocity": 120}, {"time": 61442, "pitch": 72, "duration": 176, "velocity": 120}, {"time": 61681, "pitch": 70, "duration": 203, "velocity": 120}, {"time": 61920, "pitch": 68, "duration": 251, "velocity": 120}, {"time": 62278, "pitch": 70, "duration": 258, "velocity": 120}, {"time": 62636, "pitch": 68, "duration": 834, "velocity": 120}, {"time": 64796, "pitch": 58, "duration": 1919, "velocity": 100}, {"time": 64796, "pitch": 63, "duration": 1939, "velocity": 100}, {"time": 64796, "pitch": 67, "duration": 1849, "velocity": 100}, {"time": 66717, "pitch": 56, "duration": 1854, "velocity": 100}, {"time": 66717, "pitch": 60, "duration": 1843, "velocity": 100}, {"time": 66717, "pitch": 65, "duration": 1846, "velocity": 100}, {"time": 68639, "pitch": 58, "duration": 1873, "velocity": 100}, {"time": 68639, "pitch": 63, "duration": 1848, "velocity": 100}, {"time": 68639, "pitch": 67, "duration": 1810, "velocity": 100}, {"time": 70560, "pitch": 56, "duration": 1862, "velocity": 100}, {"time": 70560, "pitch": 60, "duration": 1858, "velocity": 100}, {"time": 70560, "pitch": 65, "duration": 1860, "velocity": 100}, {"time": 72481, "pitch": 58, "duration": 1891, "velocity": 100}, {"time": 72481, "pitch": 63, "duration": 1901, "velocity": 100}, {"time": 72481, "pitch": 67, "duration": 1865, "velocity": 100}, {"time": 74402, "pitch": 56, "duration": 1872, "velocity": 100}, {"time": 74402, "pitch": 60, "duration": 1827, "velocity": 100}, {"time": 74402, "pitch": 65, "duration": 1836, "velocity": 100}, {"time": 76323, "pitch": 55, "duration": 1839, "velocity": 100}, {"time": 76323, "pitch": 60, "duration": 1898, "velocity": 100}, {"time": 76323, "pitch": 61, "duration": 182, "velocity": 100}, {"time": 76323, "pitch": 65, "duration": 1879, "velocity": 100}, {"time": 78244, "pitch": 60, "duration": 1774, "velocity": 100}, {"time": 78244, "pitch": 62, "duration": 1761, "velocity": 100}, {"time": 78244, "pitch": 67, "duration": 1755, "velocity": 100}, {"time": 86157, "pitch": 63, "duration": 119, "velocity": 100}, {"time": 86157, "pitch": 75, "duration": 119, "velocity": 100}, {"time": 86396, "pitch": 65, "duration": 122, "velocity": 100}, {"time": 86396, "pitch": 77, "duration": 122, "velocity": 100}, {"time": 86640, "pitch": 68, "duration": 172, "velocity": 100}, {"time": 86640, "pitch": 80, "duration": 203, "velocity": 100}, {"time": 87123, "pitch": 70, "duration": 573, "velocity": 100}, {"time": 87123, "pitch": 82, "duration": 594, "velocity": 100}, {"time": 94080, "pitch": 63, "duration": 360, "velocity": 100}, {"time": 94080, "pitch": 75, "duration": 365, "velocity": 100}, {"time": 94558, "pitch": 65, "duration": 357, "velocity": 100}, {"time": 94558, "pitch": 77, "duration": 339, "velocity": 100}, {"time": 95035, "pitch": 67, "duration": 339, "velocity": 100}, {"time": 95035, "pitch": 79, "duration": 328, "velocity": 100}, {"time": 95523, "pitch": 68, "duration": 420, "velocity": 100}, {"time": 95523, "pitch": 80, "duration": 431, "velocity": 100}, {"time": 142076, "pitch": 72, "duration": 249, "velocity": 120}, {"time": 142564, "pitch": 68, "duration": 294, "velocity": 120}, {"time": 143042, "pitch": 68, "duration": 171, "velocity": 120}, {"time": 143280, "pitch": 70, "duration": 429, "velocity": 120}, {"time": 143758, "pitch": 68, "duration": 228, "velocity": 120}, {"time": 144724, "pitch": 65, "duration": 204, "velocity": 120}, {"time": 144963, "pitch": 68, "duration": 192, "velocity": 120}, {"time": 145202, "pitch": 70, "duration": 170, "velocity": 120}, {"time": 145440, "pitch": 72, "duration": 154, "velocity": 120}, {"time": 145679, "pitch": 73, "duration": 173, "velocity": 120}, {"time": 145918, "pitch": 72, "duration": 204, "velocity": 120}, {"time": 146157, "pitch": 70, "duration": 183, "velocity": 120}, {"time": 146396, "pitch": 68, "duration": 279, "velocity": 120}, {"time": 146762, "pitch": 70, "duration": 266, "velocity": 120}, {"time": 147123, "pitch": 68, "duration": 744, "velocity": 120}, {"time": 149760, "pitch": 72, "duration": 244, "velocity": 120}, {"time": 150238, "pitch": 68, "duration": 293, "velocity": 120}, {"time": 150715, "pitch": 68, "duration": 175, "velocity": 120}, {"time": 150960, "pitch": 70, "duration": 434, "velocity": 120}, {"time": 151443, "pitch": 68, "duration": 227, "velocity": 120}, {"time": 152398, "pitch": 68, "duration": 185, "velocity": 120}, {"time": 152637, "pitch": 70, "duration": 159, "velocity": 120}, {"time": 152881, "pitch": 72, "duration": 417, "velocity": 120}, {"time": 153364, "pitch": 73, "duration": 172, "velocity": 120}, {"time": 153602, "pitch": 72, "duration": 177, "velocity": 120}, {"time": 153841, "pitch": 70, "duration": 203, "velocity": 120}, {"time": 154080, "pitch": 68, "duration": 251, "velocity": 120}, {"time": 154438, "pitch": 70, "duration": 258, "velocity": 120}, {"time": 154797, "pitch": 68, "duration": 833, "velocity": 120}, {"time": 157445, "pitch": 75, "duration": 153, "velocity": 120}, {"time": 157684, "pitch": 75, "duration": 356, "velocity": 120}, {"time": 158161, "pitch": 73, "duration": 321, "velocity": 120}, {"time": 158639, "pitch": 73, "duration": 387, "velocity": 120}, {"time": 159116, "pitch": 72, "duration": 390, "velocity": 120}, {"time": 159599, "pitch": 68, "duration": 418, "velocity": 120}, {"time": 160082, "pitch": 68, "duration": 205, "velocity": 120}, {"time": 160321, "pitch": 70, "duration": 536, "velocity": 120}, {"time": 161276, "pitch": 75, "duration": 177, "velocity": 120}, {"time": 161520, "pitch": 75, "duration": 425, "velocity": 120}, {"time": 162003, "pitch": 77, "duration": 381, "velocity": 120}, {"time": 162481, "pitch": 72, "duration": 336, "velocity": 120}, {"time": 162959, "pitch": 70, "duration": 362, "velocity": 120}, {"time": 163436, "pitch": 68, "duration": 1144, "velocity": 120}, {"time": 165118, "pitch": 75, "duration": 172, "velocity": 120}, {"time": 165357, "pitch": 75, "duration": 355, "velocity": 120}, {"time": 165840, "pitch": 73, "duration": 316, "velocity": 120}, {"time": 166323, "pitch": 73, "duration": 352, "velocity": 120}, {"time": 166801, "pitch": 72, "duration": 333, "velocity": 120}, {"time": 167278, "pitch": 68, "duration": 314, "velocity": 120}, {"time": 167756, "pitch": 68, "duration": 168, "velocity": 120}, {"time": 167995, "pitch": 70, "duration": 344, "velocity": 120}, {"time": 168483, "pitch": 72, "duration": 1967, "velocity": 120}, {"time": 178317, "pitch": 63, "duration": 119, "velocity": 100}, {"time": 178317, "pitch": 75, "duration": 119, "velocity": 100}, {"time": 178556, "pitch": 65, "duration": 122, "velocity": 100}, {"time": 178556, "pitch": 77, "duration": 122, "velocity": 100}, {"time": 178800, "pitch": 68, "duration": 172, "velocity": 100}, {"time": 178800, "pitch": 80, "duration": 203, "velocity": 100}, {"time": 179283, "pitch": 70, "duration": 573, "velocity": 100}, {"time": 179283, "pitch": 82, "duration": 594, "velocity": 100}, {"time": 186240, "pitch": 63, "duration": 360, "velocity": 100}, {"time": 186240, "pitch": 75, "duration": 365, "velocity": 100}, {"time": 186718, "pitch": 65, "duration": 357, "velocity": 100}, {"time": 186718, "pitch": 77, "duration": 339, "velocity": 100}, {"time": 187195, "pitch": 67, "duration": 339, "velocity": 100}, {"time": 187195, "pitch": 79, "duration": 328, "velocity": 100}, {"time": 187684, "pitch": 68, "duration": 419, "velocity": 100}, {"time": 187684, "pitch": 80, "duration": 430, "velocity": 100}, {"time": 49916, "pitch": 72, "duration": 249, "velocity": 120}, {"time": 50404, "pitch": 68, "duration": 293, "velocity": 120}, {"time": 50882, "pitch": 68, "duration": 171, "velocity": 120}, {"time": 51120, "pitch": 70, "duration": 429, "velocity": 120}, {"time": 51598, "pitch": 68, "duration": 228, "velocity": 120}, {"time": 52564, "pitch": 65, "duration": 204, "velocity": 120}, {"time": 52803, "pitch": 68, "duration": 192, "velocity": 120}, {"time": 53041, "pitch": 70, "duration": 171, "velocity": 120}, {"time": 53280, "pitch": 72, "duration": 154, "velocity": 120}, {"time": 53519, "pitch": 73, "duration": 173, "velocity": 120}, {"time": 53758, "pitch": 72, "duration": 204, "velocity": 120}, {"time": 53997, "pitch": 70, "duration": 183, "velocity": 120}, {"time": 54236, "pitch": 68, "duration": 279, "velocity": 120}, {"time": 54602, "pitch": 70, "duration": 266, "velocity": 120}, {"time": 54963, "pitch": 68, "duration": 744, "velocity": 120}, {"time": 57600, "pitch": 72, "duration": 244, "velocity": 120}, {"time": 58078, "pitch": 68, "duration": 293, "velocity": 120}, {"time": 58555, "pitch": 68, "duration": 175, "velocity": 120}, {"time": 58799, "pitch": 70, "duration": 435, "velocity": 120}, {"time": 59282, "pitch": 68, "duration": 228, "velocity": 120}, {"time": 60238, "pitch": 68, "duration": 185, "velocity": 120}, {"time": 60476, "pitch": 70, "duration": 160, "velocity": 120}, {"time": 60721, "pitch": 72, "duration": 417, "velocity": 120}, {"time": 61204, "pitch": 73, "duration": 172, "velocity": 120}, {"time": 61442, "pitch": 72, "duration": 176, "velocity": 120}, {"time": 61681, "pitch": 70, "duration": 203, "velocity": 120}, {"time": 61920, "pitch": 68, "duration": 251, "velocity": 120}, {"time": 62278, "pitch": 70, "duration": 258, "velocity": 120}, {"time": 62636, "pitch": 68, "duration": 834, "velocity": 120}, {"time": 64796, "pitch": 58, "duration": 1919, "velocity": 100}, {"time": 64796, "pitch": 63, "duration": 1939, "velocity": 100}, {"time": 64796, "pitch": 67, "duration": 1849, "velocity": 100}, {"time": 66717, "pitch": 56, "duration": 1854, "velocity": 100}, {"time": 66717, "pitch": 60, "duration": 1843, "velocity": 100}, {"time": 66717, "pitch": 65, "duration": 1846, "velocity": 100}, {"time": 68639, "pitch": 58, "duration": 1873, "velocity": 100}, {"time": 68639, "pitch": 63, "duration": 1848, "velocity": 100}, {"time": 68639, "pitch": 67, "duration": 1810, "velocity": 100}, {"time": 70560, "pitch": 56, "duration": 1862, "velocity": 100}, {"time": 70560, "pitch": 60, "duration": 1858, "velocity": 100}, {"time": 70560, "pitch": 65, "duration": 1860, "velocity": 100}, {"time": 72481, "pitch": 58, "duration": 1891, "velocity": 100}, {"time": 72481, "pitch": 63, "duration": 1901, "velocity": 100}, {"time": 72481, "pitch": 67, "duration": 1865, "velocity": 100}, {"time": 74402, "pitch": 56, "duration": 1872, "velocity": 100}, {"time": 74402, "pitch": 60, "duration": 1827, "velocity": 100}, {"time": 74402, "pitch": 65, "duration": 1836, "velocity": 100}, {"time": 76323, "pitch": 55, "duration": 1839, "velocity": 100}, {"time": 76323, "pitch": 60, "duration": 1898, "velocity": 100}, {"time": 76323, "pitch": 61, "duration": 182, "velocity": 100}, {"time": 76323, "pitch": 65, "duration": 1879, "velocity": 100}, {"time": 78244, "pitch": 60, "duration": 1774, "velocity": 100}, {"time": 78244, "pitch": 62, "duration": 1761, "velocity": 100}, {"time": 78244, "pitch": 67, "duration": 1755, "velocity": 100}, {"time": 86157, "pitch": 63, "duration": 119, "velocity": 100}, {"time": 86157, "pitch": 75, "duration": 119, "velocity": 100}, {"time": 86396, "pitch": 65, "duration": 122, "velocity": 100}, {"time": 86396, "pitch": 77, "duration": 122, "velocity": 100}, {"time": 86640, "pitch": 68, "duration": 172, "velocity": 100}, {"time": 86640, "pitch": 80, "duration": 203, "velocity": 100}, {"time": 87123, "pitch": 70, "duration": 573, "velocity": 100}, {"time": 87123, "pitch": 82, "duration": 594, "velocity": 100}, {"time": 94080, "pitch": 63, "duration": 360, "velocity": 100}, {"time": 94080, "pitch": 75, "duration": 365, "velocity": 100}, {"time": 94558, "pitch": 65, "duration": 357, "velocity": 100}, {"time": 94558, "pitch": 77, "duration": 339, "velocity": 100}, {"time": 95035, "pitch": 67, "duration": 339, "velocity": 100}, {"time": 95035, "pitch": 79, "duration": 328, "velocity": 100}, {"time": 95523, "pitch": 68, "duration": 420, "velocity": 100}, {"time": 95523, "pitch": 80, "duration": 431, "velocity": 100}, {"time": 142076, "pitch": 72, "duration": 249, "velocity": 120}, {"time": 142564, "pitch": 68, "duration": 294, "velocity": 120}, {"time": 143042, "pitch": 68, "duration": 171, "velocity": 120}, {"time": 143280, "pitch": 70, "duration": 429, "velocity": 120}, {"time": 143758, "pitch": 68, "duration": 228, "velocity": 120}, {"time": 144724, "pitch": 65, "duration": 204, "velocity": 120}, {"time": 144963, "pitch": 68, "duration": 192, "velocity": 120}, {"time": 145202, "pitch": 70, "duration": 170, "velocity": 120}, {"time": 145440, "pitch": 72, "duration": 154, "velocity": 120}, {"time": 145679, "pitch": 73, "duration": 173, "velocity": 120}, {"time": 145918, "pitch": 72, "duration": 204, "velocity": 120}, {"time": 146157, "pitch": 70, "duration": 183, "velocity": 120}, {"time": 146396, "pitch": 68, "duration": 279, "velocity": 120}, {"time": 146762, "pitch": 70, "duration": 266, "velocity": 120}, {"time": 147123, "pitch": 68, "duration": 744, "velocity": 120}, {"time": 149760, "pitch": 72, "duration": 244, "velocity": 120}, {"time": 150238, "pitch": 68, "duration": 293, "velocity": 120}, {"time": 150715, "pitch": 68, "duration": 175, "velocity": 120}, {"time": 150960, "pitch": 70, "duration": 434, "velocity": 120}, {"time": 151443, "pitch": 68, "duration": 227, "velocity": 120}, {"time": 152398, "pitch": 68, "duration": 185, "velocity": 120}, {"time": 152637, "pitch": 70, "duration": 159, "velocity": 120}, {"time": 152881, "pitch": 72, "duration": 417, "velocity": 120}, {"time": 153364, "pitch": 73, "duration": 172, "velocity": 120}, {"time": 153602, "pitch": 72, "duration": 177, "velocity": 120}, {"time": 153841, "pitch": 70, "duration": 203, "velocity": 120}, {"time": 154080, "pitch": 68, "duration": 251, "velocity": 120}, {"time": 154438, "pitch": 70, "duration": 258, "velocity": 120}, {"time": 154797, "pitch": 68, "duration": 833, "velocity": 120}, {"time": 157445, "pitch": 75, "duration": 153, "velocity": 120}, {"time": 157684, "pitch": 75, "duration": 356, "velocity": 120}, {"time": 158161, "pitch": 73, "duration": 321, "velocity": 120}, {"time": 158639, "pitch": 73, "duration": 387, "velocity": 120}, {"time": 159116, "pitch": 72, "duration": 390, "velocity": 120}, {"time": 159599, "pitch": 68, "duration": 418, "velocity": 120}, {"time": 160082, "pitch": 68, "duration": 205, "velocity": 120}, {"time": 160321, "pitch": 70, "duration": 536, "velocity": 120}, {"time": 161276, "pitch": 75, "duration": 177, "velocity": 120}, {"time": 161520, "pitch": 75, "duration": 425, "velocity": 120}, {"time": 162003, "pitch": 77, "duration": 381, "velocity": 120}, {"time": 162481, "pitch": 72, "duration": 336, "velocity": 120}, {"time": 162959, "pitch": 70, "duration": 362, "velocity": 120}, {"time": 163436, "pitch": 68, "duration": 1144, "velocity": 120}, {"time": 165118, "pitch": 75, "duration": 172, "velocity": 120}, {"time": 165357, "pitch": 75, "duration": 355, "velocity": 120}, {"time": 165840, "pitch": 73, "duration": 316, "velocity": 120}, {"time": 166323, "pitch": 73, "duration": 352, "velocity": 120}, {"time": 166801, "pitch": 72, "duration": 333, "velocity": 120}, {"time": 167278, "pitch": 68, "duration": 314, "velocity": 120}, {"time": 167756, "pitch": 68, "duration": 168, "velocity": 120}, {"time": 167995, "pitch": 70, "duration": 344, "velocity": 120}, {"time": 168483, "pitch": 72, "duration": 1967, "velocity": 120}, {"time": 178317, "pitch": 63, "duration": 119, "velocity": 100}, {"time": 178317, "pitch": 75, "duration": 119, "velocity": 100}, {"time": 178556, "pitch": 65, "duration": 122, "velocity": 100}, {"time": 178556, "pitch": 77, "duration": 122, "velocity": 100}, {"time": 178800, "pitch": 68, "duration": 172, "velocity": 100}, {"time": 178800, "pitch": 80, "duration": 203, "velocity": 100}, {"time": 179283, "pitch": 70, "duration": 573, "velocity": 100}, {"time": 179283, "pitch": 82, "duration": 594, "velocity": 100}, {"time": 186240, "pitch": 63, "duration": 360, "velocity": 100}, {"time": 186240, "pitch": 75, "duration": 365, "velocity": 100}, {"time": 186718, "pitch": 65, "duration": 357, "velocity": 100}, {"time": 186718, "pitch": 77, "duration": 339, "velocity": 100}, {"time": 187195, "pitch": 67, "duration": 339, "velocity": 100}, {"time": 187195, "pitch": 79, "duration": 328, "velocity": 100}, {"time": 187684, "pitch": 68, "duration": 419, "velocity": 100}, {"time": 187684, "pitch": 80, "duration": 430, "velocity": 100}]}]}