{"metadata": {"schema_version": "0.1", "title": "RWC-MDB-P-2001 No. 66: Mousugu natsu ga kuru / M&Y", "copyright": "RWC Music Database. Copyright (C) 2001 Real World Computing Partnership (contact: Masataka GOTO <m.goto@aist.go.jp>)", "source_filename": "RM-P066.SMF_SYNC.MID", "source_format": "midi"}, "resolution": 480, "tempos": [{"time": 0, "qpm": 41.95804195804196}, {"time": 480, "qpm": 75.9493670886076}, {"time": 5280, "qpm": 76.92307692307692}, {"time": 5760, "qpm": 75.9493670886076}, {"time": 13920, "qpm": 76.92307692307692}, {"time": 14400, "qpm": 75.9493670886076}, {"time": 23040, "qpm": 76.92307692307692}, {"time": 23520, "qpm": 75.0}, {"time": 24000, "qpm": 76.92307692307692}, {"time": 24480, "qpm": 75.9493670886076}, {"time": 31680, "qpm": 76.92307692307692}, {"time": 32160, "qpm": 75.9493670886076}, {"time": 40320, "qpm": 76.92307692307692}, {"time": 40800, "qpm": 75.0}, {"time": 41280, "qpm": 76.92307692307692}, {"time": 41760, "qpm": 75.9493670886076}, {"time": 49440, "qpm": 76.92307692307692}, {"time": 49920, "qpm": 75.9493670886076}, {"time": 58080, "qpm": 76.92307692307692}, {"time": 58560, "qpm": 75.9493670886076}, {"time": 67680, "qpm": 76.92307692307692}, {"time": 68160, "qpm": 75.9493670886076}, {"time": 76320, "qpm": 76.92307692307692}, {"time": 76800, "qpm": 75.9493670886076}, {"time": 84960, "qpm": 76.92307692307692}, {"time": 85440, "qpm": 75.9493670886076}, {"time": 94560, "qpm": 76.92307692307692}, {"time": 95040, "qpm": 75.9493670886076}, {"time": 102720, "qpm": 76.92307692307692}, {"time": 103200, "qpm": 75.0}, {"time": 103680, "qpm": 76.92307692307692}, {"time": 104160, "qpm": 75.9493670886076}, {"time": 111360, "qpm": 76.92307692307692}, {"time": 111840, "qpm": 75.9493670886076}, {"time": 112320, "qpm": 75.0}, {"time": 112800, "qpm": 76.92307692307692}, {"time": 113280, "qpm": 75.9493670886076}, {"time": 120480, "qpm": 76.92307692307692}, {"time": 120960, "qpm": 75.9493670886076}, {"time": 129600, "qpm": 76.92307692307692}, {"time": 130080, "qpm": 75.9493670886076}, {"time": 138720, "qpm": 76.92307692307692}, {"time": 139200, "qpm": 75.9493670886076}, {"time": 146880, "qpm": 76.92307692307692}, {"time": 147360, "qpm": 75.9493670886076}, {"time": 156000, "qpm": 76.92307692307692}, {"time": 156480, "qpm": 75.9493670886076}, {"time": 165120, "qpm": 76.92307692307692}, {"time": 165600, "qpm": 75.9493670886076}, {"time": 174720, "qpm": 76.92307692307692}, {"time": 175200, "qpm": 75.9493670886076}, {"time": 183360, "qpm": 76.92307692307692}, {"time": 183840, "qpm": 75.9493670886076}], "key_signatures": [{"time": 0, "root": 0, "mode": "major"}], "time_signatures": [{"time": 0, "numerator": 1, "denominator": 4}, {"time": 480, "numerator": 4, "denominator": 4}], "tracks": [{"program": 0, "is_drum": false, "name": "Piano", "notes": [{"time": 346, "pitch": 83, "duration": 133, "velocity": 80}, {"time": 478, "pitch": 65, "duration": 242, "velocity": 70}, {"time": 478, "pitch": 74, "duration": 242, "velocity": 75}, {"time": 478, "pitch": 79, "duration": 242, "velocity": 80}, {"time": 478, "pitch": 84, "duration": 242, "velocity": 85}, {"time": 720, "pitch": 83, "duration": 243, "velocity": 80}, {"time": 963, "pitch": 79, "duration": 240, "velocity": 85}, {"time": 1203, "pitch": 86, "duration": 919, "velocity": 80}, {"time": 2162, "pitch": 83, "duration": 240, "velocity": 80}, {"time": 2402, "pitch": 64, "duration": 240, "velocity": 70}, {"time": 2402, "pitch": 74, "duration": 240, "velocity": 75}, {"time": 2402, "pitch": 79, "duration": 240, "velocity": 80}, {"time": 2402, "pitch": 84, "duration": 240, "velocity": 85}, {"time": 2642, "pitch": 83, "duration": 240, "velocity": 80}, {"time": 2882, "pitch": 79, "duration": 239, "velocity": 85}, {"time": 3121, "pitch": 86, "duration": 920, "velocity": 80}, {"time": 4081, "pitch": 83, "duration": 239, "velocity": 80}, {"time": 4320, "pitch": 62, "duration": 240, "velocity": 70}, {"time": 4320, "pitch": 69, "duration": 240, "velocity": 70}, {"time": 4320, "pitch": 74, "duration": 240, "velocity": 75}, {"time": 4320, "pitch": 79, "duration": 240, "velocity": 80}, {"time": 4320, "pitch": 84, "duration": 240, "velocity": 85}, {"time": 4560, "pitch": 83, "duration": 240, "velocity": 80}, {"time": 4800, "pitch": 79, "duration": 240, "velocity": 85}, {"time": 5040, "pitch": 86, "duration": 919, "velocity": 80}, {"time": 5999, "pitch": 83, "duration": 240, "velocity": 80}, {"time": 6239, "pitch": 64, "duration": 240, "velocity": 70}, {"time": 6239, "pitch": 74, "duration": 240, "velocity": 75}, {"time": 6239, "pitch": 79, "duration": 240, "velocity": 80}, {"time": 6239, "pitch": 84, "duration": 240, "velocity": 85}, {"time": 6479, "pitch": 83, "duration": 240, "velocity": 80}, {"time": 6719, "pitch": 79, "duration": 240, "velocity": 85}, {"time": 6959, "pitch": 74, "duration": 239, "velocity": 80}, {"time": 7198, "pitch": 72, "duration": 240, "velocity": 85}, {"time": 7438, "pitch": 71, "duration": 240, "velocity": 80}, {"time": 7678, "pitch": 67, "duration": 240, "velocity": 85}, {"time": 7918, "pitch": 71, "duration": 240, "velocity": 80}, {"time": 8158, "pitch": 53, "duration": 239, "velocity": 70}, {"time": 8158, "pitch": 62, "duration": 239, "velocity": 75}, {"time": 8158, "pitch": 67, "duration": 239, "velocity": 80}, {"time": 8158, "pitch": 72, "duration": 239, "velocity": 85}, {"time": 8397, "pitch": 71, "duration": 240, "velocity": 80}, {"time": 8637, "pitch": 67, "duration": 243, "velocity": 85}, {"time": 8880, "pitch": 74, "duration": 923, "velocity": 80}, {"time": 9842, "pitch": 71, "duration": 240, "velocity": 80}, {"time": 10082, "pitch": 52, "duration": 240, "velocity": 70}, {"time": 10082, "pitch": 62, "duration": 240, "velocity": 75}, {"time": 10082, "pitch": 67, "duration": 240, "velocity": 80}, {"time": 10082, "pitch": 72, "duration": 240, "velocity": 85}, {"time": 10322, "pitch": 71, "duration": 240, "velocity": 80}, {"time": 10562, "pitch": 67, "duration": 240, "velocity": 85}, {"time": 10802, "pitch": 74, "duration": 919, "velocity": 80}, {"time": 11761, "pitch": 71, "duration": 240, "velocity": 80}, {"time": 12001, "pitch": 50, "duration": 240, "velocity": 70}, {"time": 12001, "pitch": 57, "duration": 240, "velocity": 70}, {"time": 12001, "pitch": 62, "duration": 240, "velocity": 75}, {"time": 12001, "pitch": 67, "duration": 240, "velocity": 80}, {"time": 12001, "pitch": 72, "duration": 240, "velocity": 85}, {"time": 12241, "pitch": 71, "duration": 240, "velocity": 80}, {"time": 12481, "pitch": 67, "duration": 239, "velocity": 85}, {"time": 12720, "pitch": 74, "duration": 920, "velocity": 80}, {"time": 13680, "pitch": 71, "duration": 239, "velocity": 80}, {"time": 13919, "pitch": 43, "duration": 240, "velocity": 70}, {"time": 13919, "pitch": 60, "duration": 240, "velocity": 60}, {"time": 13919, "pitch": 62, "duration": 240, "velocity": 65}, {"time": 13919, "pitch": 67, "duration": 240, "velocity": 70}, {"time": 13919, "pitch": 69, "duration": 240, "velocity": 75}, {"time": 15838, "pitch": 48, "duration": 939, "velocity": 80}, {"time": 15838, "pitch": 55, "duration": 939, "velocity": 70}, {"time": 15838, "pitch": 59, "duration": 939, "velocity": 75}, {"time": 15838, "pitch": 64, "duration": 939, "velocity": 80}, {"time": 16797, "pitch": 52, "duration": 946, "velocity": 80}, {"time": 16797, "pitch": 56, "duration": 946, "velocity": 70}, {"time": 16797, "pitch": 59, "duration": 946, "velocity": 75}, {"time": 16797, "pitch": 62, "duration": 946, "velocity": 80}, {"time": 17763, "pitch": 45, "duration": 1898, "velocity": 80}, {"time": 17763, "pitch": 52, "duration": 1898, "velocity": 70}, {"time": 17763, "pitch": 55, "duration": 1898, "velocity": 75}, {"time": 17763, "pitch": 60, "duration": 1898, "velocity": 80}, {"time": 19681, "pitch": 52, "duration": 940, "velocity": 80}, {"time": 19681, "pitch": 59, "duration": 940, "velocity": 70}, {"time": 19681, "pitch": 62, "duration": 940, "velocity": 75}, {"time": 19681, "pitch": 67, "duration": 940, "velocity": 80}, {"time": 20641, "pitch": 45, "duration": 939, "velocity": 80}, {"time": 20641, "pitch": 55, "duration": 939, "velocity": 70}, {"time": 20641, "pitch": 60, "duration": 939, "velocity": 75}, {"time": 20641, "pitch": 64, "duration": 939, "velocity": 80}, {"time": 21600, "pitch": 50, "duration": 939, "velocity": 80}, {"time": 21600, "pitch": 55, "duration": 939, "velocity": 70}, {"time": 21600, "pitch": 60, "duration": 939, "velocity": 75}, {"time": 21600, "pitch": 64, "duration": 939, "velocity": 80}, {"time": 22559, "pitch": 43, "duration": 940, "velocity": 80}, {"time": 22559, "pitch": 53, "duration": 940, "velocity": 70}, {"time": 22559, "pitch": 57, "duration": 940, "velocity": 75}, {"time": 22559, "pitch": 62, "duration": 940, "velocity": 80}, {"time": 23519, "pitch": 41, "duration": 939, "velocity": 80}, {"time": 23519, "pitch": 57, "duration": 939, "velocity": 70}, {"time": 23519, "pitch": 60, "duration": 939, "velocity": 75}, {"time": 23519, "pitch": 64, "duration": 939, "velocity": 80}, {"time": 24478, "pitch": 40, "duration": 939, "velocity": 80}, {"time": 24478, "pitch": 55, "duration": 939, "velocity": 70}, {"time": 24478, "pitch": 60, "duration": 939, "velocity": 80}, {"time": 24957, "pitch": 67, "duration": 460, "velocity": 70}, {"time": 25437, "pitch": 38, "duration": 946, "velocity": 80}, {"time": 25437, "pitch": 57, "duration": 946, "velocity": 70}, {"time": 25437, "pitch": 60, "duration": 946, "velocity": 75}, {"time": 25437, "pitch": 64, "duration": 946, "velocity": 80}, {"time": 26402, "pitch": 40, "duration": 940, "velocity": 80}, {"time": 26402, "pitch": 55, "duration": 940, "velocity": 70}, {"time": 26402, "pitch": 60, "duration": 940, "velocity": 80}, {"time": 26882, "pitch": 67, "duration": 460, "velocity": 70}, {"time": 27362, "pitch": 46, "duration": 1419, "velocity": 80}, {"time": 27362, "pitch": 57, "duration": 459, "velocity": 70}, {"time": 27362, "pitch": 62, "duration": 459, "velocity": 75}, {"time": 27362, "pitch": 65, "duration": 459, "velocity": 80}, {"time": 27841, "pitch": 55, "duration": 460, "velocity": 70}, {"time": 27841, "pitch": 60, "duration": 460, "velocity": 75}, {"time": 27841, "pitch": 64, "duration": 460, "velocity": 80}, {"time": 28321, "pitch": 53, "duration": 460, "velocity": 70}, {"time": 28321, "pitch": 58, "duration": 460, "velocity": 75}, {"time": 28321, "pitch": 62, "duration": 460, "velocity": 80}, {"time": 28801, "pitch": 45, "duration": 100, "velocity": 70}, {"time": 28801, "pitch": 53, "duration": 100, "velocity": 60}, {"time": 28801, "pitch": 57, "duration": 100, "velocity": 65}, {"time": 28801, "pitch": 60, "duration": 100, "velocity": 70}, {"time": 29041, "pitch": 43, "duration": 2138, "velocity": 80}, {"time": 29041, "pitch": 53, "duration": 2138, "velocity": 70}, {"time": 29041, "pitch": 57, "duration": 2138, "velocity": 75}, {"time": 29041, "pitch": 62, "duration": 2138, "velocity": 80}, {"time": 31199, "pitch": 48, "duration": 939, "velocity": 80}, {"time": 31199, "pitch": 59, "duration": 240, "velocity": 85}, {"time": 31199, "pitch": 64, "duration": 240, "velocity": 90}, {"time": 31439, "pitch": 55, "duration": 240, "velocity": 80}, {"time": 31679, "pitch": 59, "duration": 239, "velocity": 85}, {"time": 31679, "pitch": 64, "duration": 239, "velocity": 90}, {"time": 31918, "pitch": 55, "duration": 220, "velocity": 80}, {"time": 32158, "pitch": 52, "duration": 240, "velocity": 80}, {"time": 32158, "pitch": 56, "duration": 240, "velocity": 85}, {"time": 32158, "pitch": 62, "duration": 240, "velocity": 90}, {"time": 32398, "pitch": 52, "duration": 240, "velocity": 75}, {"time": 32638, "pitch": 56, "duration": 240, "velocity": 85}, {"time": 32638, "pitch": 64, "duration": 240, "velocity": 90}, {"time": 32878, "pitch": 52, "duration": 220, "velocity": 75}, {"time": 33118, "pitch": 45, "duration": 945, "velocity": 80}, {"time": 33118, "pitch": 52, "duration": 239, "velocity": 80}, {"time": 33118, "pitch": 60, "duration": 239, "velocity": 90}, {"time": 33357, "pitch": 55, "duration": 240, "velocity": 75}, {"time": 33597, "pitch": 59, "duration": 243, "velocity": 90}, {"time": 33840, "pitch": 60, "duration": 483, "velocity": 85}, {"time": 34323, "pitch": 62, "duration": 220, "velocity": 90}, {"time": 34563, "pitch": 55, "duration": 459, "velocity": 90}, {"time": 34563, "pitch": 60, "duration": 459, "velocity": 90}, {"time": 34563, "pitch": 64, "duration": 459, "velocity": 85}, {"time": 35042, "pitch": 53, "duration": 940, "velocity": 80}, {"time": 35042, "pitch": 64, "duration": 240, "velocity": 85}, {"time": 35042, "pitch": 69, "duration": 240, "velocity": 90}, {"time": 35282, "pitch": 60, "duration": 240, "velocity": 80}, {"time": 35522, "pitch": 64, "duration": 240, "velocity": 85}, {"time": 35522, "pitch": 69, "duration": 240, "velocity": 90}, {"time": 35762, "pitch": 60, "duration": 220, "velocity": 80}, {"time": 36002, "pitch": 52, "duration": 459, "velocity": 80}, {"time": 36002, "pitch": 62, "duration": 239, "velocity": 85}, {"time": 36002, "pitch": 67, "duration": 239, "velocity": 90}, {"time": 36241, "pitch": 59, "duration": 220, "velocity": 75}, {"time": 36481, "pitch": 45, "duration": 460, "velocity": 80}, {"time": 36481, "pitch": 60, "duration": 240, "velocity": 85}, {"time": 36481, "pitch": 64, "duration": 240, "velocity": 90}, {"time": 36721, "pitch": 55, "duration": 220, "velocity": 75}, {"time": 36961, "pitch": 50, "duration": 939, "velocity": 80}, {"time": 36961, "pitch": 60, "duration": 240, "velocity": 85}, {"time": 36961, "pitch": 64, "duration": 240, "velocity": 90}, {"time": 37201, "pitch": 55, "duration": 239, "velocity": 80}, {"time": 37440, "pitch": 60, "duration": 240, "velocity": 85}, {"time": 37440, "pitch": 64, "duration": 240, "velocity": 90}, {"time": 37680, "pitch": 55, "duration": 220, "velocity": 80}, {"time": 37920, "pitch": 43, "duration": 939, "velocity": 80}, {"time": 37920, "pitch": 59, "duration": 240, "velocity": 85}, {"time": 37920, "pitch": 62, "duration": 240, "velocity": 90}, {"time": 38160, "pitch": 53, "duration": 240, "velocity": 80}, {"time": 38280, "pitch": 55, "duration": 240, "velocity": 90}, {"time": 38520, "pitch": 59, "duration": 240, "velocity": 85}, {"time": 38640, "pitch": 62, "duration": 219, "velocity": 90}, {"time": 38879, "pitch": 53, "duration": 940, "velocity": 80}, {"time": 38879, "pitch": 55, "duration": 480, "velocity": 85}, {"time": 38879, "pitch": 60, "duration": 720, "velocity": 90}, {"time": 39119, "pitch": 59, "duration": 240, "velocity": 85}, {"time": 39359, "pitch": 55, "duration": 959, "velocity": 80}, {"time": 39599, "pitch": 60, "duration": 1179, "velocity": 90}, {"time": 39839, "pitch": 52, "duration": 939, "velocity": 80}, {"time": 40079, "pitch": 59, "duration": 699, "velocity": 80}, {"time": 40318, "pitch": 55, "duration": 460, "velocity": 85}, {"time": 40798, "pitch": 50, "duration": 939, "velocity": 80}, {"time": 40798, "pitch": 55, "duration": 480, "velocity": 85}, {"time": 40798, "pitch": 60, "duration": 719, "velocity": 90}, {"time": 41038, "pitch": 59, "duration": 240, "velocity": 85}, {"time": 41278, "pitch": 55, "duration": 965, "velocity": 80}, {"time": 41517, "pitch": 60, "duration": 1186, "velocity": 90}, {"time": 41757, "pitch": 52, "duration": 946, "velocity": 80}, {"time": 42000, "pitch": 59, "duration": 703, "velocity": 80}, {"time": 42243, "pitch": 55, "duration": 460, "velocity": 85}, {"time": 42723, "pitch": 50, "duration": 459, "velocity": 80}, {"time": 42723, "pitch": 57, "duration": 459, "velocity": 80}, {"time": 42723, "pitch": 60, "duration": 459, "velocity": 85}, {"time": 42723, "pitch": 65, "duration": 459, "velocity": 90}, {"time": 43202, "pitch": 52, "duration": 460, "velocity": 80}, {"time": 43202, "pitch": 55, "duration": 460, "velocity": 80}, {"time": 43202, "pitch": 59, "duration": 460, "velocity": 85}, {"time": 43202, "pitch": 64, "duration": 460, "velocity": 90}, {"time": 43682, "pitch": 53, "duration": 460, "velocity": 80}, {"time": 43682, "pitch": 57, "duration": 460, "velocity": 80}, {"time": 43682, "pitch": 60, "duration": 460, "velocity": 85}, {"time": 43682, "pitch": 62, "duration": 460, "velocity": 90}, {"time": 44162, "pitch": 43, "duration": 120, "velocity": 80}, {"time": 44162, "pitch": 53, "duration": 120, "velocity": 80}, {"time": 44162, "pitch": 57, "duration": 120, "velocity": 85}, {"time": 44162, "pitch": 60, "duration": 120, "velocity": 90}, {"time": 44401, "pitch": 48, "duration": 2139, "velocity": 80}, {"time": 44401, "pitch": 52, "duration": 2139, "velocity": 80}, {"time": 44401, "pitch": 55, "duration": 2139, "velocity": 85}, {"time": 44401, "pitch": 60, "duration": 2139, "velocity": 90}, {"time": 46560, "pitch": 38, "duration": 679, "velocity": 80}, {"time": 46560, "pitch": 57, "duration": 400, "velocity": 80}, {"time": 46560, "pitch": 61, "duration": 400, "velocity": 85}, {"time": 46560, "pitch": 66, "duration": 400, "velocity": 90}, {"time": 47040, "pitch": 57, "duration": 399, "velocity": 80}, {"time": 47040, "pitch": 61, "duration": 399, "velocity": 85}, {"time": 47040, "pitch": 66, "duration": 399, "velocity": 90}, {"time": 47279, "pitch": 38, "duration": 220, "velocity": 75}, {"time": 47519, "pitch": 40, "duration": 680, "velocity": 80}, {"time": 47519, "pitch": 59, "duration": 400, "velocity": 80}, {"time": 47519, "pitch": 62, "duration": 400, "velocity": 85}, {"time": 47519, "pitch": 67, "duration": 400, "velocity": 90}, {"time": 47999, "pitch": 59, "duration": 400, "velocity": 80}, {"time": 47999, "pitch": 62, "duration": 400, "velocity": 85}, {"time": 47999, "pitch": 67, "duration": 400, "velocity": 90}, {"time": 48239, "pitch": 40, "duration": 219, "velocity": 75}, {"time": 48478, "pitch": 42, "duration": 680, "velocity": 80}, {"time": 48478, "pitch": 62, "duration": 400, "velocity": 80}, {"time": 48478, "pitch": 66, "duration": 400, "velocity": 85}, {"time": 48478, "pitch": 69, "duration": 400, "velocity": 90}, {"time": 48958, "pitch": 62, "duration": 400, "velocity": 80}, {"time": 48958, "pitch": 66, "duration": 400, "velocity": 85}, {"time": 48958, "pitch": 69, "duration": 400, "velocity": 90}, {"time": 49198, "pitch": 42, "duration": 220, "velocity": 75}, {"time": 49438, "pitch": 45, "duration": 459, "velocity": 80}, {"time": 49438, "pitch": 60, "duration": 399, "velocity": 80}, {"time": 49438, "pitch": 64, "duration": 399, "velocity": 85}, {"time": 49438, "pitch": 67, "duration": 399, "velocity": 90}, {"time": 49917, "pitch": 50, "duration": 460, "velocity": 80}, {"time": 49917, "pitch": 60, "duration": 400, "velocity": 80}, {"time": 49917, "pitch": 64, "duration": 400, "velocity": 85}, {"time": 49917, "pitch": 69, "duration": 400, "velocity": 90}, {"time": 50397, "pitch": 43, "duration": 686, "velocity": 80}, {"time": 50397, "pitch": 59, "duration": 405, "velocity": 80}, {"time": 50397, "pitch": 62, "duration": 405, "velocity": 85}, {"time": 50397, "pitch": 66, "duration": 405, "velocity": 90}, {"time": 50883, "pitch": 59, "duration": 399, "velocity": 80}, {"time": 50883, "pitch": 62, "duration": 399, "velocity": 85}, {"time": 50883, "pitch": 66, "duration": 399, "velocity": 90}, {"time": 51123, "pitch": 43, "duration": 219, "velocity": 75}, {"time": 51362, "pitch": 42, "duration": 680, "velocity": 80}, {"time": 51362, "pitch": 57, "duration": 400, "velocity": 80}, {"time": 51362, "pitch": 62, "duration": 400, "velocity": 85}, {"time": 51362, "pitch": 69, "duration": 400, "velocity": 90}, {"time": 51842, "pitch": 57, "duration": 400, "velocity": 80}, {"time": 51842, "pitch": 62, "duration": 400, "velocity": 85}, {"time": 51842, "pitch": 66, "duration": 400, "velocity": 90}, {"time": 52082, "pitch": 42, "duration": 220, "velocity": 75}, {"time": 52322, "pitch": 40, "duration": 679, "velocity": 80}, {"time": 52322, "pitch": 55, "duration": 399, "velocity": 80}, {"time": 52322, "pitch": 62, "duration": 399, "velocity": 85}, {"time": 52322, "pitch": 64, "duration": 399, "velocity": 90}, {"time": 52801, "pitch": 55, "duration": 400, "velocity": 80}, {"time": 52801, "pitch": 62, "duration": 400, "velocity": 85}, {"time": 52801, "pitch": 64, "duration": 400, "velocity": 90}, {"time": 53041, "pitch": 40, "duration": 220, "velocity": 75}, {"time": 53281, "pitch": 45, "duration": 440, "velocity": 80}, {"time": 53281, "pitch": 55, "duration": 440, "velocity": 80}, {"time": 53281, "pitch": 62, "duration": 440, "velocity": 85}, {"time": 53281, "pitch": 64, "duration": 440, "velocity": 90}, {"time": 53761, "pitch": 45, "duration": 439, "velocity": 80}, {"time": 53761, "pitch": 55, "duration": 439, "velocity": 80}, {"time": 53761, "pitch": 61, "duration": 439, "velocity": 85}, {"time": 53761, "pitch": 64, "duration": 439, "velocity": 90}, {"time": 54240, "pitch": 38, "duration": 680, "velocity": 80}, {"time": 54240, "pitch": 57, "duration": 400, "velocity": 80}, {"time": 54240, "pitch": 61, "duration": 400, "velocity": 85}, {"time": 54240, "pitch": 66, "duration": 400, "velocity": 90}, {"time": 54720, "pitch": 57, "duration": 400, "velocity": 80}, {"time": 54720, "pitch": 61, "duration": 400, "velocity": 85}, {"time": 54720, "pitch": 66, "duration": 400, "velocity": 90}, {"time": 54960, "pitch": 38, "duration": 220, "velocity": 75}, {"time": 55200, "pitch": 40, "duration": 679, "velocity": 80}, {"time": 55200, "pitch": 59, "duration": 399, "velocity": 80}, {"time": 55200, "pitch": 62, "duration": 399, "velocity": 85}, {"time": 55200, "pitch": 67, "duration": 399, "velocity": 90}, {"time": 55679, "pitch": 59, "duration": 400, "velocity": 80}, {"time": 55679, "pitch": 62, "duration": 400, "velocity": 85}, {"time": 55679, "pitch": 67, "duration": 400, "velocity": 90}, {"time": 55919, "pitch": 40, "duration": 220, "velocity": 75}, {"time": 56159, "pitch": 42, "duration": 679, "velocity": 80}, {"time": 56159, "pitch": 62, "duration": 400, "velocity": 80}, {"time": 56159, "pitch": 66, "duration": 400, "velocity": 85}, {"time": 56159, "pitch": 69, "duration": 400, "velocity": 90}, {"time": 56639, "pitch": 62, "duration": 399, "velocity": 80}, {"time": 56639, "pitch": 66, "duration": 399, "velocity": 85}, {"time": 56639, "pitch": 69, "duration": 399, "velocity": 90}, {"time": 56878, "pitch": 42, "duration": 220, "velocity": 75}, {"time": 57118, "pitch": 45, "duration": 460, "velocity": 80}, {"time": 57118, "pitch": 60, "duration": 400, "velocity": 80}, {"time": 57118, "pitch": 64, "duration": 400, "velocity": 85}, {"time": 57118, "pitch": 67, "duration": 400, "velocity": 90}, {"time": 57598, "pitch": 50, "duration": 460, "velocity": 80}, {"time": 57598, "pitch": 60, "duration": 400, "velocity": 80}, {"time": 57598, "pitch": 64, "duration": 400, "velocity": 85}, {"time": 57598, "pitch": 69, "duration": 400, "velocity": 90}, {"time": 58078, "pitch": 43, "duration": 682, "velocity": 80}, {"time": 58078, "pitch": 59, "duration": 399, "velocity": 80}, {"time": 58078, "pitch": 62, "duration": 399, "velocity": 85}, {"time": 58078, "pitch": 66, "duration": 399, "velocity": 90}, {"time": 58557, "pitch": 59, "duration": 405, "velocity": 80}, {"time": 58557, "pitch": 62, "duration": 405, "velocity": 85}, {"time": 58557, "pitch": 66, "duration": 405, "velocity": 90}, {"time": 58800, "pitch": 43, "duration": 223, "velocity": 75}, {"time": 59043, "pitch": 42, "duration": 679, "velocity": 80}, {"time": 59043, "pitch": 57, "duration": 400, "velocity": 80}, {"time": 59043, "pitch": 62, "duration": 400, "velocity": 85}, {"time": 59043, "pitch": 69, "duration": 400, "velocity": 90}, {"time": 59523, "pitch": 57, "duration": 399, "velocity": 80}, {"time": 59523, "pitch": 62, "duration": 399, "velocity": 85}, {"time": 59523, "pitch": 66, "duration": 399, "velocity": 90}, {"time": 59762, "pitch": 42, "duration": 220, "velocity": 75}, {"time": 60002, "pitch": 40, "duration": 460, "velocity": 80}, {"time": 60002, "pitch": 59, "duration": 440, "velocity": 80}, {"time": 60002, "pitch": 62, "duration": 440, "velocity": 85}, {"time": 60002, "pitch": 67, "duration": 440, "velocity": 90}, {"time": 60482, "pitch": 42, "duration": 459, "velocity": 75}, {"time": 60482, "pitch": 59, "duration": 439, "velocity": 80}, {"time": 60482, "pitch": 62, "duration": 439, "velocity": 85}, {"time": 60482, "pitch": 66, "duration": 439, "velocity": 90}, {"time": 60961, "pitch": 43, "duration": 940, "velocity": 80}, {"time": 60961, "pitch": 55, "duration": 940, "velocity": 80}, {"time": 60961, "pitch": 58, "duration": 940, "velocity": 85}, {"time": 60961, "pitch": 64, "duration": 940, "velocity": 90}, {"time": 61921, "pitch": 42, "duration": 1898, "velocity": 80}, {"time": 61921, "pitch": 57, "duration": 1898, "velocity": 80}, {"time": 61921, "pitch": 61, "duration": 1898, "velocity": 85}, {"time": 61921, "pitch": 64, "duration": 1898, "velocity": 90}, {"time": 63839, "pitch": 40, "duration": 940, "velocity": 80}, {"time": 63839, "pitch": 55, "duration": 940, "velocity": 80}, {"time": 63839, "pitch": 59, "duration": 940, "velocity": 85}, {"time": 63839, "pitch": 64, "duration": 940, "velocity": 90}, {"time": 64799, "pitch": 45, "duration": 939, "velocity": 80}, {"time": 64799, "pitch": 55, "duration": 939, "velocity": 80}, {"time": 64799, "pitch": 59, "duration": 939, "velocity": 85}, {"time": 64799, "pitch": 64, "duration": 939, "velocity": 90}, {"time": 65758, "pitch": 50, "duration": 1905, "velocity": 80}, {"time": 65758, "pitch": 57, "duration": 1905, "velocity": 80}, {"time": 65758, "pitch": 62, "duration": 1905, "velocity": 85}, {"time": 65758, "pitch": 66, "duration": 1905, "velocity": 90}, {"time": 67683, "pitch": 53, "duration": 1898, "velocity": 80}, {"time": 67683, "pitch": 57, "duration": 1898, "velocity": 80}, {"time": 67683, "pitch": 62, "duration": 1898, "velocity": 85}, {"time": 67683, "pitch": 67, "duration": 1898, "velocity": 90}, {"time": 69601, "pitch": 52, "duration": 1899, "velocity": 80}, {"time": 69601, "pitch": 55, "duration": 1899, "velocity": 80}, {"time": 69601, "pitch": 60, "duration": 1899, "velocity": 85}, {"time": 69601, "pitch": 67, "duration": 1899, "velocity": 90}, {"time": 71520, "pitch": 50, "duration": 1898, "velocity": 80}, {"time": 71520, "pitch": 57, "duration": 1898, "velocity": 80}, {"time": 71520, "pitch": 62, "duration": 1898, "velocity": 85}, {"time": 71520, "pitch": 67, "duration": 1898, "velocity": 90}, {"time": 73438, "pitch": 52, "duration": 1899, "velocity": 80}, {"time": 73438, "pitch": 55, "duration": 1899, "velocity": 80}, {"time": 73438, "pitch": 60, "duration": 1899, "velocity": 85}, {"time": 73438, "pitch": 64, "duration": 1899, "velocity": 90}, {"time": 75357, "pitch": 53, "duration": 1905, "velocity": 80}, {"time": 75357, "pitch": 57, "duration": 1905, "velocity": 80}, {"time": 75357, "pitch": 62, "duration": 1905, "velocity": 85}, {"time": 75357, "pitch": 67, "duration": 1905, "velocity": 90}, {"time": 77282, "pitch": 52, "duration": 1898, "velocity": 80}, {"time": 77282, "pitch": 55, "duration": 1898, "velocity": 80}, {"time": 77282, "pitch": 60, "duration": 1898, "velocity": 85}, {"time": 77282, "pitch": 67, "duration": 1898, "velocity": 90}, {"time": 79200, "pitch": 50, "duration": 1899, "velocity": 80}, {"time": 79200, "pitch": 57, "duration": 1899, "velocity": 80}, {"time": 79200, "pitch": 62, "duration": 1899, "velocity": 85}, {"time": 79200, "pitch": 67, "duration": 1899, "velocity": 90}, {"time": 81119, "pitch": 52, "duration": 1659, "velocity": 80}, {"time": 81119, "pitch": 55, "duration": 1659, "velocity": 80}, {"time": 81119, "pitch": 60, "duration": 1659, "velocity": 85}, {"time": 81119, "pitch": 64, "duration": 1659, "velocity": 90}, {"time": 82798, "pitch": 71, "duration": 240, "velocity": 95}, {"time": 82798, "pitch": 83, "duration": 240, "velocity": 105}, {"time": 83037, "pitch": 72, "duration": 240, "velocity": 100}, {"time": 83037, "pitch": 84, "duration": 240, "velocity": 110}, {"time": 83277, "pitch": 71, "duration": 240, "velocity": 95}, {"time": 83277, "pitch": 83, "duration": 240, "velocity": 105}, {"time": 83517, "pitch": 67, "duration": 243, "velocity": 100}, {"time": 83517, "pitch": 79, "duration": 243, "velocity": 110}, {"time": 83760, "pitch": 74, "duration": 922, "velocity": 95}, {"time": 83760, "pitch": 86, "duration": 922, "velocity": 105}, {"time": 84722, "pitch": 71, "duration": 241, "velocity": 95}, {"time": 84722, "pitch": 83, "duration": 241, "velocity": 105}, {"time": 84962, "pitch": 72, "duration": 240, "velocity": 100}, {"time": 84962, "pitch": 84, "duration": 240, "velocity": 110}, {"time": 85202, "pitch": 71, "duration": 240, "velocity": 95}, {"time": 85202, "pitch": 83, "duration": 240, "velocity": 105}, {"time": 85442, "pitch": 67, "duration": 240, "velocity": 100}, {"time": 85442, "pitch": 79, "duration": 240, "velocity": 110}, {"time": 85682, "pitch": 74, "duration": 919, "velocity": 95}, {"time": 85682, "pitch": 86, "duration": 919, "velocity": 105}, {"time": 86641, "pitch": 71, "duration": 241, "velocity": 95}, {"time": 86641, "pitch": 83, "duration": 241, "velocity": 105}, {"time": 86881, "pitch": 72, "duration": 240, "velocity": 100}, {"time": 86881, "pitch": 84, "duration": 240, "velocity": 110}, {"time": 87121, "pitch": 71, "duration": 239, "velocity": 95}, {"time": 87121, "pitch": 83, "duration": 239, "velocity": 105}, {"time": 87360, "pitch": 67, "duration": 240, "velocity": 100}, {"time": 87360, "pitch": 79, "duration": 240, "velocity": 110}, {"time": 87600, "pitch": 74, "duration": 919, "velocity": 95}, {"time": 87600, "pitch": 86, "duration": 919, "velocity": 105}, {"time": 88559, "pitch": 71, "duration": 241, "velocity": 95}, {"time": 88559, "pitch": 83, "duration": 241, "velocity": 105}, {"time": 88799, "pitch": 55, "duration": 240, "velocity": 100}, {"time": 88799, "pitch": 72, "duration": 240, "velocity": 90}, {"time": 88799, "pitch": 74, "duration": 240, "velocity": 95}, {"time": 88799, "pitch": 77, "duration": 240, "velocity": 100}, {"time": 88799, "pitch": 81, "duration": 240, "velocity": 105}, {"time": 90718, "pitch": 48, "duration": 939, "velocity": 80}, {"time": 90718, "pitch": 59, "duration": 240, "velocity": 85}, {"time": 90718, "pitch": 64, "duration": 240, "velocity": 90}, {"time": 90958, "pitch": 55, "duration": 240, "velocity": 80}, {"time": 91198, "pitch": 59, "duration": 239, "velocity": 85}, {"time": 91198, "pitch": 64, "duration": 239, "velocity": 90}, {"time": 91437, "pitch": 55, "duration": 220, "velocity": 80}, {"time": 91677, "pitch": 52, "duration": 243, "velocity": 80}, {"time": 91677, "pitch": 56, "duration": 243, "velocity": 85}, {"time": 91677, "pitch": 62, "duration": 243, "velocity": 90}, {"time": 91920, "pitch": 52, "duration": 243, "velocity": 75}, {"time": 92163, "pitch": 56, "duration": 240, "velocity": 85}, {"time": 92163, "pitch": 64, "duration": 240, "velocity": 90}, {"time": 92403, "pitch": 52, "duration": 220, "velocity": 75}, {"time": 92643, "pitch": 45, "duration": 939, "velocity": 80}, {"time": 92643, "pitch": 52, "duration": 239, "velocity": 80}, {"time": 92643, "pitch": 60, "duration": 239, "velocity": 90}, {"time": 92882, "pitch": 55, "duration": 240, "velocity": 75}, {"time": 93122, "pitch": 52, "duration": 240, "velocity": 80}, {"time": 93122, "pitch": 60, "duration": 240, "velocity": 90}, {"time": 93362, "pitch": 55, "duration": 240, "velocity": 75}, {"time": 93602, "pitch": 55, "duration": 240, "velocity": 80}, {"time": 93602, "pitch": 64, "duration": 240, "velocity": 90}, {"time": 93842, "pitch": 60, "duration": 239, "velocity": 75}, {"time": 94081, "pitch": 55, "duration": 240, "velocity": 80}, {"time": 94081, "pitch": 64, "duration": 240, "velocity": 90}, {"time": 94321, "pitch": 60, "duration": 240, "velocity": 75}, {"time": 94561, "pitch": 52, "duration": 939, "velocity": 80}, {"time": 94561, "pitch": 59, "duration": 240, "velocity": 85}, {"time": 94561, "pitch": 67, "duration": 240, "velocity": 90}, {"time": 94801, "pitch": 62, "duration": 240, "velocity": 80}, {"time": 95041, "pitch": 59, "duration": 240, "velocity": 85}, {"time": 95041, "pitch": 67, "duration": 240, "velocity": 90}, {"time": 95281, "pitch": 62, "duration": 219, "velocity": 80}, {"time": 95520, "pitch": 45, "duration": 460, "velocity": 80}, {"time": 95520, "pitch": 60, "duration": 240, "velocity": 85}, {"time": 95520, "pitch": 64, "duration": 240, "velocity": 90}, {"time": 95760, "pitch": 55, "duration": 220, "velocity": 75}, {"time": 96000, "pitch": 60, "duration": 240, "velocity": 85}, {"time": 96000, "pitch": 67, "duration": 240, "velocity": 90}, {"time": 96240, "pitch": 64, "duration": 220, "velocity": 75}, {"time": 96480, "pitch": 50, "duration": 939, "velocity": 80}, {"time": 96480, "pitch": 55, "duration": 240, "velocity": 85}, {"time": 96480, "pitch": 64, "duration": 240, "velocity": 90}, {"time": 96720, "pitch": 60, "duration": 239, "velocity": 80}, {"time": 96959, "pitch": 55, "duration": 240, "velocity": 85}, {"time": 96959, "pitch": 64, "duration": 240, "velocity": 90}, {"time": 97199, "pitch": 60, "duration": 220, "velocity": 80}, {"time": 97439, "pitch": 43, "duration": 939, "velocity": 80}, {"time": 97439, "pitch": 53, "duration": 240, "velocity": 85}, {"time": 97439, "pitch": 62, "duration": 240, "velocity": 90}, {"time": 97679, "pitch": 59, "duration": 240, "velocity": 80}, {"time": 97919, "pitch": 53, "duration": 240, "velocity": 85}, {"time": 97919, "pitch": 62, "duration": 240, "velocity": 90}, {"time": 98159, "pitch": 59, "duration": 219, "velocity": 80}, {"time": 98398, "pitch": 53, "duration": 940, "velocity": 80}, {"time": 98398, "pitch": 55, "duration": 480, "velocity": 85}, {"time": 98398, "pitch": 60, "duration": 720, "velocity": 90}, {"time": 98638, "pitch": 59, "duration": 240, "velocity": 85}, {"time": 98878, "pitch": 55, "duration": 959, "velocity": 80}, {"time": 99118, "pitch": 60, "duration": 1185, "velocity": 90}, {"time": 99358, "pitch": 52, "duration": 945, "velocity": 80}, {"time": 99597, "pitch": 59, "duration": 706, "velocity": 80}, {"time": 99837, "pitch": 55, "duration": 466, "velocity": 85}, {"time": 100323, "pitch": 50, "duration": 939, "velocity": 80}, {"time": 100323, "pitch": 55, "duration": 480, "velocity": 85}, {"time": 100323, "pitch": 60, "duration": 719, "velocity": 90}, {"time": 100563, "pitch": 59, "duration": 240, "velocity": 85}, {"time": 100803, "pitch": 55, "duration": 959, "velocity": 80}, {"time": 101042, "pitch": 60, "duration": 1180, "velocity": 90}, {"time": 101282, "pitch": 52, "duration": 940, "velocity": 80}, {"time": 101522, "pitch": 59, "duration": 700, "velocity": 80}, {"time": 101762, "pitch": 55, "duration": 460, "velocity": 85}, {"time": 102242, "pitch": 46, "duration": 1419, "velocity": 90}, {"time": 102242, "pitch": 57, "duration": 459, "velocity": 80}, {"time": 102242, "pitch": 62, "duration": 459, "velocity": 85}, {"time": 102242, "pitch": 65, "duration": 459, "velocity": 90}, {"time": 102721, "pitch": 55, "duration": 460, "velocity": 80}, {"time": 102721, "pitch": 60, "duration": 460, "velocity": 85}, {"time": 102721, "pitch": 64, "duration": 460, "velocity": 90}, {"time": 103201, "pitch": 53, "duration": 460, "velocity": 80}, {"time": 103201, "pitch": 58, "duration": 460, "velocity": 85}, {"time": 103201, "pitch": 62, "duration": 460, "velocity": 90}, {"time": 103681, "pitch": 45, "duration": 99, "velocity": 80}, {"time": 103681, "pitch": 53, "duration": 99, "velocity": 70}, {"time": 103681, "pitch": 57, "duration": 99, "velocity": 75}, {"time": 103681, "pitch": 60, "duration": 99, "velocity": 80}, {"time": 103920, "pitch": 43, "duration": 2139, "velocity": 90}, {"time": 103920, "pitch": 53, "duration": 2139, "velocity": 80}, {"time": 103920, "pitch": 57, "duration": 2139, "velocity": 85}, {"time": 103920, "pitch": 62, "duration": 2139, "velocity": 90}, {"time": 106079, "pitch": 48, "duration": 939, "velocity": 80}, {"time": 106079, "pitch": 59, "duration": 240, "velocity": 85}, {"time": 106079, "pitch": 64, "duration": 240, "velocity": 90}, {"time": 106319, "pitch": 55, "duration": 239, "velocity": 80}, {"time": 106558, "pitch": 59, "duration": 240, "velocity": 85}, {"time": 106558, "pitch": 64, "duration": 240, "velocity": 90}, {"time": 106798, "pitch": 55, "duration": 220, "velocity": 80}, {"time": 107038, "pitch": 52, "duration": 240, "velocity": 80}, {"time": 107038, "pitch": 56, "duration": 240, "velocity": 85}, {"time": 107038, "pitch": 62, "duration": 240, "velocity": 90}, {"time": 107278, "pitch": 52, "duration": 240, "velocity": 75}, {"time": 107518, "pitch": 56, "duration": 240, "velocity": 85}, {"time": 107518, "pitch": 64, "duration": 240, "velocity": 90}, {"time": 107758, "pitch": 52, "duration": 219, "velocity": 75}, {"time": 107997, "pitch": 45, "duration": 946, "velocity": 80}, {"time": 107997, "pitch": 52, "duration": 240, "velocity": 80}, {"time": 107997, "pitch": 60, "duration": 240, "velocity": 90}, {"time": 108237, "pitch": 55, "duration": 240, "velocity": 75}, {"time": 108477, "pitch": 59, "duration": 243, "velocity": 90}, {"time": 108720, "pitch": 60, "duration": 483, "velocity": 85}, {"time": 109203, "pitch": 62, "duration": 219, "velocity": 90}, {"time": 109442, "pitch": 55, "duration": 460, "velocity": 90}, {"time": 109442, "pitch": 60, "duration": 460, "velocity": 90}, {"time": 109442, "pitch": 64, "duration": 460, "velocity": 85}, {"time": 109922, "pitch": 53, "duration": 939, "velocity": 80}, {"time": 109922, "pitch": 64, "duration": 240, "velocity": 85}, {"time": 109922, "pitch": 69, "duration": 240, "velocity": 90}, {"time": 110162, "pitch": 60, "duration": 240, "velocity": 80}, {"time": 110402, "pitch": 64, "duration": 240, "velocity": 85}, {"time": 110402, "pitch": 69, "duration": 240, "velocity": 90}, {"time": 110642, "pitch": 60, "duration": 219, "velocity": 80}, {"time": 110881, "pitch": 52, "duration": 460, "velocity": 80}, {"time": 110881, "pitch": 62, "duration": 240, "velocity": 85}, {"time": 110881, "pitch": 67, "duration": 240, "velocity": 90}, {"time": 111121, "pitch": 59, "duration": 220, "velocity": 75}, {"time": 111361, "pitch": 45, "duration": 460, "velocity": 80}, {"time": 111361, "pitch": 60, "duration": 240, "velocity": 85}, {"time": 111361, "pitch": 64, "duration": 240, "velocity": 90}, {"time": 111601, "pitch": 55, "duration": 220, "velocity": 75}, {"time": 111841, "pitch": 50, "duration": 939, "velocity": 80}, {"time": 111841, "pitch": 60, "duration": 239, "velocity": 85}, {"time": 111841, "pitch": 64, "duration": 239, "velocity": 90}, {"time": 112080, "pitch": 55, "duration": 240, "velocity": 80}, {"time": 112320, "pitch": 60, "duration": 240, "velocity": 85}, {"time": 112320, "pitch": 64, "duration": 240, "velocity": 90}, {"time": 112560, "pitch": 55, "duration": 220, "velocity": 80}, {"time": 112800, "pitch": 43, "duration": 939, "velocity": 80}, {"time": 112800, "pitch": 59, "duration": 240, "velocity": 85}, {"time": 112800, "pitch": 62, "duration": 240, "velocity": 90}, {"time": 113040, "pitch": 53, "duration": 240, "velocity": 80}, {"time": 113160, "pitch": 55, "duration": 239, "velocity": 90}, {"time": 113399, "pitch": 59, "duration": 240, "velocity": 85}, {"time": 113519, "pitch": 62, "duration": 220, "velocity": 90}, {"time": 113759, "pitch": 53, "duration": 940, "velocity": 80}, {"time": 113759, "pitch": 55, "duration": 480, "velocity": 85}, {"time": 113759, "pitch": 60, "duration": 720, "velocity": 90}, {"time": 113999, "pitch": 59, "duration": 240, "velocity": 85}, {"time": 114239, "pitch": 55, "duration": 959, "velocity": 80}, {"time": 114479, "pitch": 60, "duration": 1179, "velocity": 90}, {"time": 114719, "pitch": 52, "duration": 939, "velocity": 80}, {"time": 114958, "pitch": 59, "duration": 700, "velocity": 80}, {"time": 115198, "pitch": 55, "duration": 460, "velocity": 85}, {"time": 115678, "pitch": 50, "duration": 939, "velocity": 80}, {"time": 115678, "pitch": 55, "duration": 479, "velocity": 85}, {"time": 115678, "pitch": 60, "duration": 719, "velocity": 90}, {"time": 115918, "pitch": 59, "duration": 239, "velocity": 85}, {"time": 116157, "pitch": 55, "duration": 966, "velocity": 80}, {"time": 116397, "pitch": 60, "duration": 1186, "velocity": 90}, {"time": 116637, "pitch": 52, "duration": 946, "velocity": 80}, {"time": 116880, "pitch": 59, "duration": 703, "velocity": 80}, {"time": 117123, "pitch": 55, "duration": 460, "velocity": 85}, {"time": 117602, "pitch": 50, "duration": 460, "velocity": 80}, {"time": 117602, "pitch": 57, "duration": 460, "velocity": 80}, {"time": 117602, "pitch": 60, "duration": 460, "velocity": 85}, {"time": 117602, "pitch": 65, "duration": 460, "velocity": 90}, {"time": 118082, "pitch": 52, "duration": 460, "velocity": 80}, {"time": 118082, "pitch": 55, "duration": 460, "velocity": 80}, {"time": 118082, "pitch": 59, "duration": 460, "velocity": 85}, {"time": 118082, "pitch": 64, "duration": 460, "velocity": 90}, {"time": 118562, "pitch": 53, "duration": 459, "velocity": 80}, {"time": 118562, "pitch": 57, "duration": 459, "velocity": 80}, {"time": 118562, "pitch": 60, "duration": 459, "velocity": 85}, {"time": 118562, "pitch": 62, "duration": 459, "velocity": 90}, {"time": 119041, "pitch": 43, "duration": 120, "velocity": 80}, {"time": 119041, "pitch": 53, "duration": 120, "velocity": 80}, {"time": 119041, "pitch": 57, "duration": 120, "velocity": 85}, {"time": 119041, "pitch": 60, "duration": 120, "velocity": 90}, {"time": 119281, "pitch": 48, "duration": 1659, "velocity": 80}, {"time": 119281, "pitch": 52, "duration": 1659, "velocity": 80}, {"time": 119281, "pitch": 55, "duration": 1659, "velocity": 85}, {"time": 119281, "pitch": 60, "duration": 1659, "velocity": 90}, {"time": 120960, "pitch": 45, "duration": 460, "velocity": 80}, {"time": 120960, "pitch": 55, "duration": 460, "velocity": 80}, {"time": 120960, "pitch": 59, "duration": 460, "velocity": 85}, {"time": 120960, "pitch": 64, "duration": 460, "velocity": 90}, {"time": 121440, "pitch": 38, "duration": 679, "velocity": 80}, {"time": 121440, "pitch": 57, "duration": 399, "velocity": 80}, {"time": 121440, "pitch": 61, "duration": 399, "velocity": 85}, {"time": 121440, "pitch": 66, "duration": 399, "velocity": 90}, {"time": 121919, "pitch": 57, "duration": 400, "velocity": 80}, {"time": 121919, "pitch": 61, "duration": 400, "velocity": 85}, {"time": 121919, "pitch": 66, "duration": 400, "velocity": 90}, {"time": 122159, "pitch": 38, "duration": 220, "velocity": 75}, {"time": 122399, "pitch": 40, "duration": 679, "velocity": 80}, {"time": 122399, "pitch": 59, "duration": 400, "velocity": 80}, {"time": 122399, "pitch": 62, "duration": 400, "velocity": 85}, {"time": 122399, "pitch": 67, "duration": 400, "velocity": 90}, {"time": 122879, "pitch": 59, "duration": 399, "velocity": 80}, {"time": 122879, "pitch": 62, "duration": 399, "velocity": 85}, {"time": 122879, "pitch": 67, "duration": 399, "velocity": 90}, {"time": 123118, "pitch": 40, "duration": 220, "velocity": 75}, {"time": 123358, "pitch": 42, "duration": 680, "velocity": 80}, {"time": 123358, "pitch": 62, "duration": 400, "velocity": 80}, {"time": 123358, "pitch": 66, "duration": 400, "velocity": 85}, {"time": 123358, "pitch": 69, "duration": 400, "velocity": 90}, {"time": 123838, "pitch": 62, "duration": 400, "velocity": 80}, {"time": 123838, "pitch": 66, "duration": 400, "velocity": 85}, {"time": 123838, "pitch": 69, "duration": 400, "velocity": 90}, {"time": 124078, "pitch": 42, "duration": 220, "velocity": 75}, {"time": 124318, "pitch": 45, "duration": 459, "velocity": 80}, {"time": 124318, "pitch": 60, "duration": 399, "velocity": 80}, {"time": 124318, "pitch": 64, "duration": 399, "velocity": 85}, {"time": 124318, "pitch": 67, "duration": 399, "velocity": 90}, {"time": 124797, "pitch": 50, "duration": 466, "velocity": 80}, {"time": 124797, "pitch": 60, "duration": 405, "velocity": 80}, {"time": 124797, "pitch": 64, "duration": 405, "velocity": 85}, {"time": 124797, "pitch": 69, "duration": 405, "velocity": 90}, {"time": 125283, "pitch": 43, "duration": 679, "velocity": 80}, {"time": 125283, "pitch": 59, "duration": 400, "velocity": 80}, {"time": 125283, "pitch": 62, "duration": 400, "velocity": 85}, {"time": 125283, "pitch": 66, "duration": 400, "velocity": 90}, {"time": 125763, "pitch": 59, "duration": 399, "velocity": 80}, {"time": 125763, "pitch": 62, "duration": 399, "velocity": 85}, {"time": 125763, "pitch": 66, "duration": 399, "velocity": 90}, {"time": 126002, "pitch": 43, "duration": 220, "velocity": 75}, {"time": 126242, "pitch": 42, "duration": 680, "velocity": 80}, {"time": 126242, "pitch": 57, "duration": 400, "velocity": 80}, {"time": 126242, "pitch": 62, "duration": 400, "velocity": 85}, {"time": 126242, "pitch": 69, "duration": 400, "velocity": 90}, {"time": 126722, "pitch": 57, "duration": 400, "velocity": 80}, {"time": 126722, "pitch": 62, "duration": 400, "velocity": 85}, {"time": 126722, "pitch": 66, "duration": 400, "velocity": 90}, {"time": 126962, "pitch": 42, "duration": 220, "velocity": 75}, {"time": 127202, "pitch": 40, "duration": 679, "velocity": 80}, {"time": 127202, "pitch": 55, "duration": 399, "velocity": 80}, {"time": 127202, "pitch": 62, "duration": 399, "velocity": 85}, {"time": 127202, "pitch": 64, "duration": 399, "velocity": 90}, {"time": 127681, "pitch": 55, "duration": 400, "velocity": 80}, {"time": 127681, "pitch": 62, "duration": 400, "velocity": 85}, {"time": 127681, "pitch": 64, "duration": 400, "velocity": 90}, {"time": 127921, "pitch": 40, "duration": 220, "velocity": 75}, {"time": 128161, "pitch": 45, "duration": 440, "velocity": 80}, {"time": 128161, "pitch": 55, "duration": 440, "velocity": 80}, {"time": 128161, "pitch": 62, "duration": 440, "velocity": 85}, {"time": 128161, "pitch": 64, "duration": 440, "velocity": 90}, {"time": 128640, "pitch": 45, "duration": 440, "velocity": 80}, {"time": 128640, "pitch": 55, "duration": 440, "velocity": 80}, {"time": 128640, "pitch": 61, "duration": 440, "velocity": 85}, {"time": 128640, "pitch": 64, "duration": 440, "velocity": 90}, {"time": 129120, "pitch": 38, "duration": 680, "velocity": 80}, {"time": 129120, "pitch": 57, "duration": 400, "velocity": 80}, {"time": 129120, "pitch": 61, "duration": 400, "velocity": 85}, {"time": 129120, "pitch": 66, "duration": 400, "velocity": 90}, {"time": 129600, "pitch": 57, "duration": 399, "velocity": 80}, {"time": 129600, "pitch": 61, "duration": 399, "velocity": 85}, {"time": 129600, "pitch": 66, "duration": 399, "velocity": 90}, {"time": 129840, "pitch": 38, "duration": 219, "velocity": 75}, {"time": 130079, "pitch": 40, "duration": 680, "velocity": 80}, {"time": 130079, "pitch": 59, "duration": 400, "velocity": 80}, {"time": 130079, "pitch": 62, "duration": 400, "velocity": 85}, {"time": 130079, "pitch": 67, "duration": 400, "velocity": 90}, {"time": 130559, "pitch": 59, "duration": 400, "velocity": 80}, {"time": 130559, "pitch": 62, "duration": 400, "velocity": 85}, {"time": 130559, "pitch": 67, "duration": 400, "velocity": 90}, {"time": 130799, "pitch": 40, "duration": 220, "velocity": 75}, {"time": 131039, "pitch": 42, "duration": 679, "velocity": 80}, {"time": 131039, "pitch": 62, "duration": 399, "velocity": 80}, {"time": 131039, "pitch": 66, "duration": 399, "velocity": 85}, {"time": 131039, "pitch": 69, "duration": 399, "velocity": 90}, {"time": 131518, "pitch": 62, "duration": 400, "velocity": 80}, {"time": 131518, "pitch": 66, "duration": 400, "velocity": 85}, {"time": 131518, "pitch": 69, "duration": 400, "velocity": 90}, {"time": 131758, "pitch": 42, "duration": 220, "velocity": 75}, {"time": 131998, "pitch": 45, "duration": 460, "velocity": 80}, {"time": 131998, "pitch": 60, "duration": 400, "velocity": 80}, {"time": 131998, "pitch": 64, "duration": 400, "velocity": 85}, {"time": 131998, "pitch": 67, "duration": 400, "velocity": 90}, {"time": 132478, "pitch": 50, "duration": 459, "velocity": 80}, {"time": 132478, "pitch": 60, "duration": 399, "velocity": 80}, {"time": 132478, "pitch": 64, "duration": 399, "velocity": 85}, {"time": 132478, "pitch": 69, "duration": 399, "velocity": 90}, {"time": 132957, "pitch": 43, "duration": 686, "velocity": 80}, {"time": 132957, "pitch": 59, "duration": 405, "velocity": 80}, {"time": 132957, "pitch": 62, "duration": 405, "velocity": 85}, {"time": 132957, "pitch": 66, "duration": 405, "velocity": 90}, {"time": 133443, "pitch": 59, "duration": 400, "velocity": 80}, {"time": 133443, "pitch": 62, "duration": 400, "velocity": 85}, {"time": 133443, "pitch": 66, "duration": 400, "velocity": 90}, {"time": 133683, "pitch": 43, "duration": 220, "velocity": 75}, {"time": 133923, "pitch": 42, "duration": 679, "velocity": 80}, {"time": 133923, "pitch": 57, "duration": 399, "velocity": 80}, {"time": 133923, "pitch": 62, "duration": 399, "velocity": 85}, {"time": 133923, "pitch": 69, "duration": 399, "velocity": 90}, {"time": 134402, "pitch": 57, "duration": 400, "velocity": 80}, {"time": 134402, "pitch": 62, "duration": 400, "velocity": 85}, {"time": 134402, "pitch": 66, "duration": 400, "velocity": 90}, {"time": 134642, "pitch": 42, "duration": 220, "velocity": 75}, {"time": 134882, "pitch": 40, "duration": 440, "velocity": 80}, {"time": 134882, "pitch": 59, "duration": 440, "velocity": 80}, {"time": 134882, "pitch": 62, "duration": 440, "velocity": 85}, {"time": 134882, "pitch": 67, "duration": 440, "velocity": 90}, {"time": 135362, "pitch": 42, "duration": 160, "velocity": 75}, {"time": 135362, "pitch": 59, "duration": 160, "velocity": 80}, {"time": 135362, "pitch": 62, "duration": 160, "velocity": 85}, {"time": 135362, "pitch": 66, "duration": 160, "velocity": 90}, {"time": 135601, "pitch": 43, "duration": 3098, "velocity": 80}, {"time": 135601, "pitch": 55, "duration": 3098, "velocity": 80}, {"time": 135601, "pitch": 58, "duration": 3098, "velocity": 85}, {"time": 135601, "pitch": 64, "duration": 3098, "velocity": 90}, {"time": 138719, "pitch": 54, "duration": 160, "velocity": 100}, {"time": 138719, "pitch": 61, "duration": 80, "velocity": 90}, {"time": 138719, "pitch": 64, "duration": 80, "velocity": 95}, {"time": 138719, "pitch": 69, "duration": 80, "velocity": 100}, {"time": 138959, "pitch": 61, "duration": 80, "velocity": 90}, {"time": 138959, "pitch": 64, "duration": 80, "velocity": 95}, {"time": 138959, "pitch": 69, "duration": 80, "velocity": 100}, {"time": 139199, "pitch": 49, "duration": 160, "velocity": 100}, {"time": 139199, "pitch": 61, "duration": 80, "velocity": 90}, {"time": 139199, "pitch": 64, "duration": 80, "velocity": 95}, {"time": 139199, "pitch": 69, "duration": 80, "velocity": 100}, {"time": 139439, "pitch": 61, "duration": 80, "velocity": 90}, {"time": 139439, "pitch": 64, "duration": 80, "velocity": 95}, {"time": 139439, "pitch": 69, "duration": 80, "velocity": 100}, {"time": 139678, "pitch": 47, "duration": 160, "velocity": 100}, {"time": 139678, "pitch": 59, "duration": 80, "velocity": 90}, {"time": 139678, "pitch": 62, "duration": 80, "velocity": 95}, {"time": 139678, "pitch": 69, "duration": 80, "velocity": 100}, {"time": 139918, "pitch": 59, "duration": 80, "velocity": 90}, {"time": 139918, "pitch": 62, "duration": 80, "velocity": 95}, {"time": 139918, "pitch": 69, "duration": 80, "velocity": 100}, {"time": 140158, "pitch": 54, "duration": 160, "velocity": 100}, {"time": 140158, "pitch": 59, "duration": 80, "velocity": 90}, {"time": 140158, "pitch": 62, "duration": 80, "velocity": 95}, {"time": 140158, "pitch": 69, "duration": 80, "velocity": 100}, {"time": 140398, "pitch": 59, "duration": 80, "velocity": 90}, {"time": 140398, "pitch": 62, "duration": 80, "velocity": 95}, {"time": 140398, "pitch": 69, "duration": 80, "velocity": 100}, {"time": 140638, "pitch": 52, "duration": 160, "velocity": 100}, {"time": 140638, "pitch": 59, "duration": 80, "velocity": 90}, {"time": 140638, "pitch": 62, "duration": 80, "velocity": 95}, {"time": 140638, "pitch": 67, "duration": 80, "velocity": 100}, {"time": 140878, "pitch": 59, "duration": 80, "velocity": 90}, {"time": 140878, "pitch": 62, "duration": 80, "velocity": 95}, {"time": 140878, "pitch": 67, "duration": 80, "velocity": 100}, {"time": 141117, "pitch": 45, "duration": 160, "velocity": 100}, {"time": 141117, "pitch": 59, "duration": 80, "velocity": 90}, {"time": 141117, "pitch": 62, "duration": 80, "velocity": 95}, {"time": 141117, "pitch": 67, "duration": 80, "velocity": 100}, {"time": 141357, "pitch": 59, "duration": 80, "velocity": 90}, {"time": 141357, "pitch": 62, "duration": 80, "velocity": 95}, {"time": 141357, "pitch": 67, "duration": 80, "velocity": 100}, {"time": 141597, "pitch": 50, "duration": 162, "velocity": 100}, {"time": 141597, "pitch": 61, "duration": 81, "velocity": 90}, {"time": 141597, "pitch": 66, "duration": 81, "velocity": 95}, {"time": 141597, "pitch": 69, "duration": 81, "velocity": 100}, {"time": 141840, "pitch": 61, "duration": 81, "velocity": 90}, {"time": 141840, "pitch": 66, "duration": 81, "velocity": 95}, {"time": 141840, "pitch": 69, "duration": 81, "velocity": 100}, {"time": 142083, "pitch": 45, "duration": 160, "velocity": 100}, {"time": 142083, "pitch": 61, "duration": 80, "velocity": 90}, {"time": 142083, "pitch": 66, "duration": 80, "velocity": 95}, {"time": 142083, "pitch": 69, "duration": 80, "velocity": 100}, {"time": 142323, "pitch": 61, "duration": 80, "velocity": 90}, {"time": 142323, "pitch": 66, "duration": 80, "velocity": 95}, {"time": 142323, "pitch": 69, "duration": 80, "velocity": 100}, {"time": 142562, "pitch": 43, "duration": 160, "velocity": 100}, {"time": 142562, "pitch": 62, "duration": 80, "velocity": 90}, {"time": 142562, "pitch": 66, "duration": 80, "velocity": 95}, {"time": 142562, "pitch": 71, "duration": 80, "velocity": 100}, {"time": 142802, "pitch": 62, "duration": 80, "velocity": 90}, {"time": 142802, "pitch": 66, "duration": 80, "velocity": 95}, {"time": 142802, "pitch": 71, "duration": 80, "velocity": 100}, {"time": 143042, "pitch": 50, "duration": 160, "velocity": 100}, {"time": 143042, "pitch": 62, "duration": 80, "velocity": 90}, {"time": 143042, "pitch": 66, "duration": 80, "velocity": 95}, {"time": 143042, "pitch": 71, "duration": 80, "velocity": 100}, {"time": 143282, "pitch": 62, "duration": 80, "velocity": 90}, {"time": 143282, "pitch": 66, "duration": 80, "velocity": 95}, {"time": 143282, "pitch": 71, "duration": 80, "velocity": 100}, {"time": 143522, "pitch": 42, "duration": 160, "velocity": 100}, {"time": 143522, "pitch": 61, "duration": 80, "velocity": 90}, {"time": 143522, "pitch": 64, "duration": 80, "velocity": 95}, {"time": 143522, "pitch": 69, "duration": 80, "velocity": 100}, {"time": 143762, "pitch": 61, "duration": 79, "velocity": 90}, {"time": 143762, "pitch": 64, "duration": 79, "velocity": 95}, {"time": 143762, "pitch": 69, "duration": 79, "velocity": 100}, {"time": 144001, "pitch": 49, "duration": 160, "velocity": 100}, {"time": 144001, "pitch": 61, "duration": 80, "velocity": 90}, {"time": 144001, "pitch": 64, "duration": 80, "velocity": 95}, {"time": 144001, "pitch": 69, "duration": 80, "velocity": 100}, {"time": 144241, "pitch": 61, "duration": 80, "velocity": 90}, {"time": 144241, "pitch": 64, "duration": 80, "velocity": 95}, {"time": 144241, "pitch": 69, "duration": 80, "velocity": 100}, {"time": 144481, "pitch": 52, "duration": 160, "velocity": 100}, {"time": 144481, "pitch": 59, "duration": 80, "velocity": 90}, {"time": 144481, "pitch": 62, "duration": 80, "velocity": 95}, {"time": 144481, "pitch": 67, "duration": 80, "velocity": 100}, {"time": 144721, "pitch": 59, "duration": 80, "velocity": 90}, {"time": 144721, "pitch": 62, "duration": 80, "velocity": 95}, {"time": 144721, "pitch": 67, "duration": 80, "velocity": 100}, {"time": 144961, "pitch": 45, "duration": 160, "velocity": 100}, {"time": 144961, "pitch": 59, "duration": 80, "velocity": 90}, {"time": 144961, "pitch": 62, "duration": 80, "velocity": 95}, {"time": 144961, "pitch": 67, "duration": 80, "velocity": 100}, {"time": 145200, "pitch": 59, "duration": 80, "velocity": 90}, {"time": 145200, "pitch": 62, "duration": 80, "velocity": 95}, {"time": 145200, "pitch": 67, "duration": 80, "velocity": 100}, {"time": 145440, "pitch": 50, "duration": 160, "velocity": 100}, {"time": 145440, "pitch": 61, "duration": 80, "velocity": 90}, {"time": 145440, "pitch": 66, "duration": 80, "velocity": 95}, {"time": 145440, "pitch": 69, "duration": 80, "velocity": 100}, {"time": 145680, "pitch": 61, "duration": 80, "velocity": 90}, {"time": 145680, "pitch": 66, "duration": 80, "velocity": 95}, {"time": 145680, "pitch": 69, "duration": 80, "velocity": 100}, {"time": 145920, "pitch": 45, "duration": 160, "velocity": 100}, {"time": 145920, "pitch": 61, "duration": 80, "velocity": 90}, {"time": 145920, "pitch": 66, "duration": 80, "velocity": 95}, {"time": 145920, "pitch": 69, "duration": 80, "velocity": 100}, {"time": 146160, "pitch": 61, "duration": 80, "velocity": 90}, {"time": 146160, "pitch": 66, "duration": 80, "velocity": 95}, {"time": 146160, "pitch": 69, "duration": 80, "velocity": 100}, {"time": 146400, "pitch": 54, "duration": 159, "velocity": 100}, {"time": 146400, "pitch": 61, "duration": 80, "velocity": 90}, {"time": 146400, "pitch": 64, "duration": 80, "velocity": 95}, {"time": 146400, "pitch": 69, "duration": 80, "velocity": 100}, {"time": 146639, "pitch": 61, "duration": 80, "velocity": 90}, {"time": 146639, "pitch": 64, "duration": 80, "velocity": 95}, {"time": 146639, "pitch": 69, "duration": 80, "velocity": 100}, {"time": 146879, "pitch": 49, "duration": 160, "velocity": 100}, {"time": 146879, "pitch": 61, "duration": 80, "velocity": 90}, {"time": 146879, "pitch": 64, "duration": 80, "velocity": 95}, {"time": 146879, "pitch": 69, "duration": 80, "velocity": 100}, {"time": 147119, "pitch": 61, "duration": 80, "velocity": 90}, {"time": 147119, "pitch": 64, "duration": 80, "velocity": 95}, {"time": 147119, "pitch": 69, "duration": 80, "velocity": 100}, {"time": 147359, "pitch": 47, "duration": 160, "velocity": 100}, {"time": 147359, "pitch": 59, "duration": 80, "velocity": 90}, {"time": 147359, "pitch": 62, "duration": 80, "velocity": 95}, {"time": 147359, "pitch": 69, "duration": 80, "velocity": 100}, {"time": 147599, "pitch": 59, "duration": 80, "velocity": 90}, {"time": 147599, "pitch": 62, "duration": 80, "velocity": 95}, {"time": 147599, "pitch": 69, "duration": 80, "velocity": 100}, {"time": 147839, "pitch": 54, "duration": 159, "velocity": 100}, {"time": 147839, "pitch": 59, "duration": 79, "velocity": 90}, {"time": 147839, "pitch": 62, "duration": 79, "velocity": 95}, {"time": 147839, "pitch": 69, "duration": 79, "velocity": 100}, {"time": 148078, "pitch": 59, "duration": 80, "velocity": 90}, {"time": 148078, "pitch": 62, "duration": 80, "velocity": 95}, {"time": 148078, "pitch": 69, "duration": 80, "velocity": 100}, {"time": 148318, "pitch": 52, "duration": 160, "velocity": 100}, {"time": 148318, "pitch": 59, "duration": 80, "velocity": 90}, {"time": 148318, "pitch": 62, "duration": 80, "velocity": 95}, {"time": 148318, "pitch": 67, "duration": 80, "velocity": 100}, {"time": 148558, "pitch": 59, "duration": 80, "velocity": 90}, {"time": 148558, "pitch": 62, "duration": 80, "velocity": 95}, {"time": 148558, "pitch": 67, "duration": 80, "velocity": 100}, {"time": 148798, "pitch": 45, "duration": 160, "velocity": 100}, {"time": 148798, "pitch": 59, "duration": 80, "velocity": 90}, {"time": 148798, "pitch": 62, "duration": 80, "velocity": 95}, {"time": 148798, "pitch": 67, "duration": 80, "velocity": 100}, {"time": 149038, "pitch": 59, "duration": 80, "velocity": 90}, {"time": 149038, "pitch": 62, "duration": 80, "velocity": 95}, {"time": 149038, "pitch": 67, "duration": 80, "velocity": 100}, {"time": 149277, "pitch": 50, "duration": 160, "velocity": 100}, {"time": 149277, "pitch": 61, "duration": 80, "velocity": 90}, {"time": 149277, "pitch": 66, "duration": 80, "velocity": 95}, {"time": 149277, "pitch": 69, "duration": 80, "velocity": 100}, {"time": 149517, "pitch": 61, "duration": 80, "velocity": 90}, {"time": 149517, "pitch": 66, "duration": 80, "velocity": 95}, {"time": 149517, "pitch": 69, "duration": 80, "velocity": 100}, {"time": 149757, "pitch": 45, "duration": 162, "velocity": 100}, {"time": 149757, "pitch": 61, "duration": 81, "velocity": 90}, {"time": 149757, "pitch": 66, "duration": 81, "velocity": 95}, {"time": 149757, "pitch": 69, "duration": 81, "velocity": 100}, {"time": 150000, "pitch": 61, "duration": 81, "velocity": 90}, {"time": 150000, "pitch": 66, "duration": 81, "velocity": 95}, {"time": 150000, "pitch": 69, "duration": 81, "velocity": 100}, {"time": 150243, "pitch": 43, "duration": 160, "velocity": 100}, {"time": 150243, "pitch": 62, "duration": 80, "velocity": 90}, {"time": 150243, "pitch": 66, "duration": 80, "velocity": 95}, {"time": 150243, "pitch": 71, "duration": 80, "velocity": 100}, {"time": 150483, "pitch": 62, "duration": 80, "velocity": 90}, {"time": 150483, "pitch": 66, "duration": 80, "velocity": 95}, {"time": 150483, "pitch": 71, "duration": 80, "velocity": 100}, {"time": 150723, "pitch": 50, "duration": 159, "velocity": 100}, {"time": 150723, "pitch": 62, "duration": 79, "velocity": 90}, {"time": 150723, "pitch": 66, "duration": 79, "velocity": 95}, {"time": 150723, "pitch": 71, "duration": 79, "velocity": 100}, {"time": 150962, "pitch": 62, "duration": 80, "velocity": 90}, {"time": 150962, "pitch": 66, "duration": 80, "velocity": 95}, {"time": 150962, "pitch": 71, "duration": 80, "velocity": 100}, {"time": 151202, "pitch": 42, "duration": 160, "velocity": 100}, {"time": 151202, "pitch": 61, "duration": 80, "velocity": 90}, {"time": 151202, "pitch": 64, "duration": 80, "velocity": 95}, {"time": 151202, "pitch": 69, "duration": 80, "velocity": 100}, {"time": 151442, "pitch": 61, "duration": 80, "velocity": 90}, {"time": 151442, "pitch": 64, "duration": 80, "velocity": 95}, {"time": 151442, "pitch": 69, "duration": 80, "velocity": 100}, {"time": 151682, "pitch": 49, "duration": 160, "velocity": 100}, {"time": 151682, "pitch": 61, "duration": 80, "velocity": 90}, {"time": 151682, "pitch": 64, "duration": 80, "velocity": 95}, {"time": 151682, "pitch": 69, "duration": 80, "velocity": 100}, {"time": 151922, "pitch": 61, "duration": 80, "velocity": 90}, {"time": 151922, "pitch": 64, "duration": 80, "velocity": 95}, {"time": 151922, "pitch": 69, "duration": 80, "velocity": 100}, {"time": 152161, "pitch": 46, "duration": 160, "velocity": 100}, {"time": 152161, "pitch": 62, "duration": 80, "velocity": 90}, {"time": 152161, "pitch": 65, "duration": 80, "velocity": 95}, {"time": 152161, "pitch": 69, "duration": 80, "velocity": 100}, {"time": 152401, "pitch": 62, "duration": 80, "velocity": 90}, {"time": 152401, "pitch": 65, "duration": 80, "velocity": 95}, {"time": 152401, "pitch": 69, "duration": 80, "velocity": 100}, {"time": 152641, "pitch": 53, "duration": 160, "velocity": 100}, {"time": 152641, "pitch": 62, "duration": 80, "velocity": 90}, {"time": 152641, "pitch": 65, "duration": 80, "velocity": 95}, {"time": 152641, "pitch": 69, "duration": 80, "velocity": 100}, {"time": 152881, "pitch": 62, "duration": 80, "velocity": 90}, {"time": 152881, "pitch": 65, "duration": 80, "velocity": 95}, {"time": 152881, "pitch": 69, "duration": 80, "velocity": 100}, {"time": 153121, "pitch": 46, "duration": 160, "velocity": 100}, {"time": 153121, "pitch": 62, "duration": 80, "velocity": 90}, {"time": 153121, "pitch": 65, "duration": 80, "velocity": 95}, {"time": 153121, "pitch": 69, "duration": 80, "velocity": 100}, {"time": 153361, "pitch": 62, "duration": 80, "velocity": 90}, {"time": 153361, "pitch": 65, "duration": 80, "velocity": 95}, {"time": 153361, "pitch": 69, "duration": 80, "velocity": 100}, {"time": 153600, "pitch": 53, "duration": 160, "velocity": 100}, {"time": 153600, "pitch": 62, "duration": 80, "velocity": 90}, {"time": 153600, "pitch": 65, "duration": 80, "velocity": 95}, {"time": 153600, "pitch": 69, "duration": 80, "velocity": 100}, {"time": 153840, "pitch": 62, "duration": 80, "velocity": 90}, {"time": 153840, "pitch": 65, "duration": 80, "velocity": 95}, {"time": 153840, "pitch": 69, "duration": 80, "velocity": 100}, {"time": 154080, "pitch": 51, "duration": 1419, "velocity": 100}, {"time": 154080, "pitch": 55, "duration": 1419, "velocity": 90}, {"time": 154080, "pitch": 62, "duration": 1419, "velocity": 95}, {"time": 154080, "pitch": 65, "duration": 1419, "velocity": 100}, {"time": 155519, "pitch": 51, "duration": 460, "velocity": 100}, {"time": 155519, "pitch": 58, "duration": 460, "velocity": 90}, {"time": 155519, "pitch": 61, "duration": 460, "velocity": 95}, {"time": 155519, "pitch": 67, "duration": 460, "velocity": 100}, {"time": 155999, "pitch": 50, "duration": 939, "velocity": 90}, {"time": 155999, "pitch": 57, "duration": 379, "velocity": 80}, {"time": 155999, "pitch": 61, "duration": 379, "velocity": 85}, {"time": 155999, "pitch": 66, "duration": 379, "velocity": 90}, {"time": 156478, "pitch": 57, "duration": 380, "velocity": 80}, {"time": 156478, "pitch": 61, "duration": 380, "velocity": 85}, {"time": 156478, "pitch": 66, "duration": 380, "velocity": 90}, {"time": 156958, "pitch": 54, "duration": 939, "velocity": 90}, {"time": 156958, "pitch": 58, "duration": 380, "velocity": 80}, {"time": 156958, "pitch": 61, "duration": 380, "velocity": 85}, {"time": 156958, "pitch": 64, "duration": 380, "velocity": 90}, {"time": 157438, "pitch": 58, "duration": 379, "velocity": 80}, {"time": 157438, "pitch": 61, "duration": 379, "velocity": 85}, {"time": 157438, "pitch": 64, "duration": 379, "velocity": 90}, {"time": 157917, "pitch": 47, "duration": 946, "velocity": 90}, {"time": 157917, "pitch": 54, "duration": 385, "velocity": 80}, {"time": 157917, "pitch": 57, "duration": 385, "velocity": 85}, {"time": 157917, "pitch": 62, "duration": 385, "velocity": 90}, {"time": 158403, "pitch": 54, "duration": 380, "velocity": 80}, {"time": 158403, "pitch": 57, "duration": 380, "velocity": 85}, {"time": 158403, "pitch": 62, "duration": 380, "velocity": 90}, {"time": 158883, "pitch": 45, "duration": 939, "velocity": 90}, {"time": 158883, "pitch": 57, "duration": 379, "velocity": 80}, {"time": 158883, "pitch": 62, "duration": 379, "velocity": 85}, {"time": 158883, "pitch": 66, "duration": 379, "velocity": 90}, {"time": 159362, "pitch": 57, "duration": 380, "velocity": 80}, {"time": 159362, "pitch": 62, "duration": 380, "velocity": 85}, {"time": 159362, "pitch": 66, "duration": 380, "velocity": 90}, {"time": 159842, "pitch": 43, "duration": 939, "velocity": 90}, {"time": 159842, "pitch": 59, "duration": 380, "velocity": 80}, {"time": 159842, "pitch": 62, "duration": 380, "velocity": 85}, {"time": 159842, "pitch": 66, "duration": 380, "velocity": 90}, {"time": 160322, "pitch": 59, "duration": 379, "velocity": 80}, {"time": 160322, "pitch": 62, "duration": 379, "velocity": 85}, {"time": 160322, "pitch": 66, "duration": 379, "velocity": 90}, {"time": 160801, "pitch": 42, "duration": 460, "velocity": 90}, {"time": 160801, "pitch": 61, "duration": 460, "velocity": 80}, {"time": 160801, "pitch": 64, "duration": 460, "velocity": 85}, {"time": 160801, "pitch": 69, "duration": 460, "velocity": 90}, {"time": 161281, "pitch": 47, "duration": 460, "velocity": 90}, {"time": 161281, "pitch": 57, "duration": 460, "velocity": 80}, {"time": 161281, "pitch": 62, "duration": 460, "velocity": 85}, {"time": 161281, "pitch": 66, "duration": 460, "velocity": 90}, {"time": 161761, "pitch": 52, "duration": 939, "velocity": 90}, {"time": 161761, "pitch": 59, "duration": 379, "velocity": 80}, {"time": 161761, "pitch": 62, "duration": 379, "velocity": 85}, {"time": 161761, "pitch": 67, "duration": 379, "velocity": 90}, {"time": 162240, "pitch": 59, "duration": 380, "velocity": 80}, {"time": 162240, "pitch": 62, "duration": 380, "velocity": 85}, {"time": 162240, "pitch": 67, "duration": 380, "velocity": 90}, {"time": 162720, "pitch": 45, "duration": 939, "velocity": 90}, {"time": 162720, "pitch": 59, "duration": 380, "velocity": 80}, {"time": 162720, "pitch": 64, "duration": 380, "velocity": 85}, {"time": 162720, "pitch": 67, "duration": 380, "velocity": 90}, {"time": 163199, "pitch": 59, "duration": 380, "velocity": 80}, {"time": 163199, "pitch": 64, "duration": 380, "velocity": 85}, {"time": 163199, "pitch": 67, "duration": 380, "velocity": 90}, {"time": 163679, "pitch": 42, "duration": 1899, "velocity": 80}, {"time": 163679, "pitch": 61, "duration": 1899, "velocity": 80}, {"time": 163679, "pitch": 64, "duration": 1899, "velocity": 85}, {"time": 163679, "pitch": 69, "duration": 1899, "velocity": 90}, {"time": 165598, "pitch": 40, "duration": 939, "velocity": 80}, {"time": 165598, "pitch": 55, "duration": 939, "velocity": 80}, {"time": 165598, "pitch": 59, "duration": 939, "velocity": 85}, {"time": 165598, "pitch": 64, "duration": 939, "velocity": 90}, {"time": 166557, "pitch": 45, "duration": 945, "velocity": 80}, {"time": 166557, "pitch": 55, "duration": 945, "velocity": 80}, {"time": 166557, "pitch": 59, "duration": 945, "velocity": 85}, {"time": 166557, "pitch": 64, "duration": 945, "velocity": 90}, {"time": 167522, "pitch": 47, "duration": 700, "velocity": 80}, {"time": 167522, "pitch": 57, "duration": 380, "velocity": 80}, {"time": 167522, "pitch": 62, "duration": 380, "velocity": 85}, {"time": 167522, "pitch": 66, "duration": 380, "velocity": 90}, {"time": 168002, "pitch": 57, "duration": 380, "velocity": 80}, {"time": 168002, "pitch": 62, "duration": 380, "velocity": 85}, {"time": 168002, "pitch": 66, "duration": 380, "velocity": 90}, {"time": 168242, "pitch": 47, "duration": 220, "velocity": 75}, {"time": 168482, "pitch": 45, "duration": 699, "velocity": 80}, {"time": 168482, "pitch": 57, "duration": 379, "velocity": 80}, {"time": 168482, "pitch": 62, "duration": 379, "velocity": 85}, {"time": 168482, "pitch": 66, "duration": 379, "velocity": 90}, {"time": 168961, "pitch": 57, "duration": 380, "velocity": 80}, {"time": 168961, "pitch": 62, "duration": 380, "velocity": 85}, {"time": 168961, "pitch": 66, "duration": 380, "velocity": 90}, {"time": 169201, "pitch": 45, "duration": 220, "velocity": 75}, {"time": 169441, "pitch": 43, "duration": 939, "velocity": 80}, {"time": 169441, "pitch": 55, "duration": 939, "velocity": 80}, {"time": 169441, "pitch": 59, "duration": 939, "velocity": 85}, {"time": 169441, "pitch": 64, "duration": 939, "velocity": 90}, {"time": 170400, "pitch": 45, "duration": 940, "velocity": 80}, {"time": 170400, "pitch": 55, "duration": 940, "velocity": 80}, {"time": 170400, "pitch": 59, "duration": 940, "velocity": 85}, {"time": 170400, "pitch": 66, "duration": 940, "velocity": 90}, {"time": 171360, "pitch": 50, "duration": 1658, "velocity": 80}, {"time": 171360, "pitch": 57, "duration": 1658, "velocity": 80}, {"time": 171360, "pitch": 61, "duration": 1658, "velocity": 85}, {"time": 171360, "pitch": 66, "duration": 1658, "velocity": 90}, {"time": 173038, "pitch": 83, "duration": 241, "velocity": 80}, {"time": 173278, "pitch": 65, "duration": 240, "velocity": 80}, {"time": 173278, "pitch": 74, "duration": 240, "velocity": 85}, {"time": 173278, "pitch": 79, "duration": 240, "velocity": 90}, {"time": 173278, "pitch": 84, "duration": 240, "velocity": 95}, {"time": 173518, "pitch": 83, "duration": 240, "velocity": 90}, {"time": 173758, "pitch": 79, "duration": 240, "velocity": 95}, {"time": 173998, "pitch": 86, "duration": 921, "velocity": 90}, {"time": 174960, "pitch": 83, "duration": 243, "velocity": 90}, {"time": 175203, "pitch": 64, "duration": 240, "velocity": 80}, {"time": 175203, "pitch": 74, "duration": 240, "velocity": 85}, {"time": 175203, "pitch": 79, "duration": 240, "velocity": 90}, {"time": 175203, "pitch": 84, "duration": 240, "velocity": 95}, {"time": 175443, "pitch": 83, "duration": 239, "velocity": 90}, {"time": 175682, "pitch": 79, "duration": 240, "velocity": 95}, {"time": 175922, "pitch": 86, "duration": 920, "velocity": 90}, {"time": 176882, "pitch": 83, "duration": 239, "velocity": 90}, {"time": 177121, "pitch": 62, "duration": 240, "velocity": 80}, {"time": 177121, "pitch": 69, "duration": 240, "velocity": 80}, {"time": 177121, "pitch": 74, "duration": 240, "velocity": 85}, {"time": 177121, "pitch": 79, "duration": 240, "velocity": 90}, {"time": 177121, "pitch": 84, "duration": 240, "velocity": 95}, {"time": 177361, "pitch": 83, "duration": 240, "velocity": 90}, {"time": 177601, "pitch": 79, "duration": 240, "velocity": 95}, {"time": 177841, "pitch": 86, "duration": 919, "velocity": 90}, {"time": 178800, "pitch": 83, "duration": 240, "velocity": 90}, {"time": 179040, "pitch": 64, "duration": 240, "velocity": 80}, {"time": 179040, "pitch": 74, "duration": 240, "velocity": 85}, {"time": 179040, "pitch": 79, "duration": 240, "velocity": 90}, {"time": 179040, "pitch": 84, "duration": 240, "velocity": 95}, {"time": 179280, "pitch": 83, "duration": 240, "velocity": 90}, {"time": 179520, "pitch": 79, "duration": 239, "velocity": 95}, {"time": 179759, "pitch": 86, "duration": 920, "velocity": 90}, {"time": 180719, "pitch": 83, "duration": 240, "velocity": 90}, {"time": 180959, "pitch": 65, "duration": 239, "velocity": 80}, {"time": 180959, "pitch": 74, "duration": 239, "velocity": 85}, {"time": 180959, "pitch": 79, "duration": 239, "velocity": 90}, {"time": 180959, "pitch": 84, "duration": 239, "velocity": 95}, {"time": 181198, "pitch": 83, "duration": 240, "velocity": 90}, {"time": 181438, "pitch": 79, "duration": 240, "velocity": 95}, {"time": 181678, "pitch": 86, "duration": 919, "velocity": 90}, {"time": 182637, "pitch": 83, "duration": 240, "velocity": 90}, {"time": 182877, "pitch": 64, "duration": 243, "velocity": 80}, {"time": 182877, "pitch": 74, "duration": 243, "velocity": 85}, {"time": 182877, "pitch": 79, "duration": 243, "velocity": 90}, {"time": 182877, "pitch": 84, "duration": 243, "velocity": 95}, {"time": 183120, "pitch": 83, "duration": 243, "velocity": 90}, {"time": 183363, "pitch": 79, "duration": 240, "velocity": 95}, {"time": 183603, "pitch": 86, "duration": 919, "velocity": 90}, {"time": 184562, "pitch": 83, "duration": 240, "velocity": 90}, {"time": 184802, "pitch": 62, "duration": 240, "velocity": 80}, {"time": 184802, "pitch": 69, "duration": 240, "velocity": 80}, {"time": 184802, "pitch": 74, "duration": 240, "velocity": 85}, {"time": 184802, "pitch": 79, "duration": 240, "velocity": 90}, {"time": 184802, "pitch": 84, "duration": 240, "velocity": 95}, {"time": 185042, "pitch": 83, "duration": 239, "velocity": 90}, {"time": 185281, "pitch": 79, "duration": 240, "velocity": 95}, {"time": 185521, "pitch": 86, "duration": 920, "velocity": 90}, {"time": 186481, "pitch": 83, "duration": 239, "velocity": 90}, {"time": 186720, "pitch": 62, "duration": 240, "velocity": 80}, {"time": 186720, "pitch": 69, "duration": 240, "velocity": 80}, {"time": 186720, "pitch": 74, "duration": 240, "velocity": 85}, {"time": 186720, "pitch": 79, "duration": 240, "velocity": 90}, {"time": 186720, "pitch": 84, "duration": 240, "velocity": 95}, {"time": 186960, "pitch": 83, "duration": 240, "velocity": 90}, {"time": 187200, "pitch": 79, "duration": 240, "velocity": 95}, {"time": 187440, "pitch": 86, "duration": 919, "velocity": 90}, {"time": 188399, "pitch": 83, "duration": 240, "velocity": 90}, {"time": 188639, "pitch": 65, "duration": 240, "velocity": 80}, {"time": 188639, "pitch": 74, "duration": 240, "velocity": 85}, {"time": 188639, "pitch": 79, "duration": 240, "velocity": 90}, {"time": 188639, "pitch": 84, "duration": 240, "velocity": 95}, {"time": 188879, "pitch": 83, "duration": 240, "velocity": 90}, {"time": 189119, "pitch": 79, "duration": 240, "velocity": 95}, {"time": 189359, "pitch": 86, "duration": 919, "velocity": 90}, {"time": 190318, "pitch": 83, "duration": 240, "velocity": 90}, {"time": 190558, "pitch": 64, "duration": 239, "velocity": 80}, {"time": 190558, "pitch": 74, "duration": 239, "velocity": 85}, {"time": 190558, "pitch": 79, "duration": 239, "velocity": 90}, {"time": 190558, "pitch": 84, "duration": 239, "velocity": 95}, {"time": 190797, "pitch": 83, "duration": 240, "velocity": 90}, {"time": 191037, "pitch": 79, "duration": 240, "velocity": 95}, {"time": 191277, "pitch": 86, "duration": 919, "velocity": 90}, {"time": 192236, "pitch": 83, "duration": 240, "velocity": 90}, {"time": 192476, "pitch": 62, "duration": 240, "velocity": 80}, {"time": 192476, "pitch": 69, "duration": 240, "velocity": 80}, {"time": 192476, "pitch": 74, "duration": 240, "velocity": 85}, {"time": 192476, "pitch": 79, "duration": 240, "velocity": 90}, {"time": 192476, "pitch": 84, "duration": 240, "velocity": 95}, {"time": 192716, "pitch": 83, "duration": 240, "velocity": 90}, {"time": 192956, "pitch": 79, "duration": 240, "velocity": 95}, {"time": 193196, "pitch": 86, "duration": 919, "velocity": 90}, {"time": 194155, "pitch": 83, "duration": 240, "velocity": 90}, {"time": 194395, "pitch": 62, "duration": 240, "velocity": 80}, {"time": 194395, "pitch": 69, "duration": 240, "velocity": 80}, {"time": 194395, "pitch": 74, "duration": 240, "velocity": 85}, {"time": 194395, "pitch": 79, "duration": 240, "velocity": 90}, {"time": 194395, "pitch": 84, "duration": 240, "velocity": 95}, {"time": 194635, "pitch": 83, "duration": 239, "velocity": 90}, {"time": 194874, "pitch": 79, "duration": 240, "velocity": 95}, {"time": 195114, "pitch": 86, "duration": 920, "velocity": 90}, {"time": 196074, "pitch": 83, "duration": 239, "velocity": 90}, {"time": 29520, "pitch": 38, "duration": 720, "velocity": 95}, {"time": 30240, "pitch": 31, "duration": 939, "velocity": 105}, {"time": 31199, "pitch": 36, "duration": 939, "velocity": 105}, {"time": 32158, "pitch": 40, "duration": 940, "velocity": 105}, {"time": 33118, "pitch": 45, "duration": 1405, "velocity": 105}, {"time": 34563, "pitch": 43, "duration": 459, "velocity": 100}, {"time": 35042, "pitch": 41, "duration": 940, "velocity": 105}, {"time": 36002, "pitch": 40, "duration": 459, "velocity": 105}, {"time": 36481, "pitch": 45, "duration": 460, "velocity": 100}, {"time": 36961, "pitch": 38, "duration": 699, "velocity": 105}, {"time": 37680, "pitch": 43, "duration": 1179, "velocity": 95}, {"time": 38879, "pitch": 41, "duration": 940, "velocity": 105}, {"time": 39839, "pitch": 40, "duration": 939, "velocity": 105}, {"time": 40798, "pitch": 38, "duration": 939, "velocity": 105}, {"time": 41757, "pitch": 40, "duration": 946, "velocity": 105}, {"time": 42723, "pitch": 38, "duration": 459, "velocity": 105}, {"time": 43202, "pitch": 40, "duration": 460, "velocity": 105}, {"time": 43682, "pitch": 41, "duration": 460, "velocity": 105}, {"time": 44162, "pitch": 43, "duration": 120, "velocity": 105}, {"time": 44401, "pitch": 36, "duration": 2139, "velocity": 105}, {"time": 46560, "pitch": 38, "duration": 659, "velocity": 115}, {"time": 47279, "pitch": 38, "duration": 220, "velocity": 110}, {"time": 47519, "pitch": 40, "duration": 660, "velocity": 115}, {"time": 48239, "pitch": 40, "duration": 219, "velocity": 110}, {"time": 48478, "pitch": 42, "duration": 660, "velocity": 115}, {"time": 49198, "pitch": 42, "duration": 220, "velocity": 110}, {"time": 49438, "pitch": 45, "duration": 439, "velocity": 115}, {"time": 49917, "pitch": 38, "duration": 440, "velocity": 115}, {"time": 50397, "pitch": 43, "duration": 606, "velocity": 115}, {"time": 51123, "pitch": 43, "duration": 199, "velocity": 110}, {"time": 51362, "pitch": 42, "duration": 600, "velocity": 115}, {"time": 52082, "pitch": 42, "duration": 200, "velocity": 110}, {"time": 52322, "pitch": 40, "duration": 659, "velocity": 115}, {"time": 53041, "pitch": 40, "duration": 200, "velocity": 110}, {"time": 53281, "pitch": 45, "duration": 440, "velocity": 115}, {"time": 53761, "pitch": 33, "duration": 439, "velocity": 115}, {"time": 54240, "pitch": 38, "duration": 660, "velocity": 115}, {"time": 54960, "pitch": 38, "duration": 220, "velocity": 110}, {"time": 55200, "pitch": 40, "duration": 659, "velocity": 115}, {"time": 55919, "pitch": 40, "duration": 220, "velocity": 110}, {"time": 56159, "pitch": 42, "duration": 659, "velocity": 115}, {"time": 56878, "pitch": 42, "duration": 220, "velocity": 110}, {"time": 57118, "pitch": 45, "duration": 440, "velocity": 115}, {"time": 57598, "pitch": 38, "duration": 440, "velocity": 115}, {"time": 58078, "pitch": 43, "duration": 601, "velocity": 115}, {"time": 58800, "pitch": 43, "duration": 202, "velocity": 110}, {"time": 59043, "pitch": 42, "duration": 599, "velocity": 115}, {"time": 59762, "pitch": 42, "duration": 200, "velocity": 110}, {"time": 60002, "pitch": 40, "duration": 460, "velocity": 115}, {"time": 60482, "pitch": 42, "duration": 459, "velocity": 115}, {"time": 60961, "pitch": 43, "duration": 660, "velocity": 115}, {"time": 61681, "pitch": 43, "duration": 220, "velocity": 110}, {"time": 61921, "pitch": 42, "duration": 699, "velocity": 115}, {"time": 62640, "pitch": 54, "duration": 1199, "velocity": 95}, {"time": 63839, "pitch": 40, "duration": 940, "velocity": 115}, {"time": 64799, "pitch": 33, "duration": 939, "velocity": 115}, {"time": 65758, "pitch": 38, "duration": 1905, "velocity": 115}, {"time": 67683, "pitch": 29, "duration": 699, "velocity": 125}, {"time": 68402, "pitch": 41, "duration": 899, "velocity": 125}, {"time": 69361, "pitch": 29, "duration": 200, "velocity": 125}, {"time": 69601, "pitch": 28, "duration": 700, "velocity": 125}, {"time": 70321, "pitch": 35, "duration": 899, "velocity": 125}, {"time": 71280, "pitch": 40, "duration": 200, "velocity": 125}, {"time": 71520, "pitch": 38, "duration": 699, "velocity": 125}, {"time": 72239, "pitch": 33, "duration": 900, "velocity": 125}, {"time": 73199, "pitch": 38, "duration": 199, "velocity": 125}, {"time": 73438, "pitch": 40, "duration": 700, "velocity": 125}, {"time": 74158, "pitch": 35, "duration": 899, "velocity": 125}, {"time": 75117, "pitch": 28, "duration": 200, "velocity": 125}, {"time": 75357, "pitch": 29, "duration": 706, "velocity": 125}, {"time": 76083, "pitch": 41, "duration": 899, "velocity": 125}, {"time": 77042, "pitch": 29, "duration": 200, "velocity": 125}, {"time": 77282, "pitch": 28, "duration": 699, "velocity": 125}, {"time": 78001, "pitch": 35, "duration": 899, "velocity": 125}, {"time": 78960, "pitch": 40, "duration": 200, "velocity": 125}, {"time": 79200, "pitch": 38, "duration": 700, "velocity": 125}, {"time": 79920, "pitch": 33, "duration": 899, "velocity": 125}, {"time": 80879, "pitch": 38, "duration": 200, "velocity": 125}, {"time": 81119, "pitch": 40, "duration": 699, "velocity": 125}, {"time": 81838, "pitch": 35, "duration": 900, "velocity": 125}, {"time": 82798, "pitch": 28, "duration": 199, "velocity": 125}, {"time": 83037, "pitch": 29, "duration": 703, "velocity": 125}, {"time": 83760, "pitch": 41, "duration": 902, "velocity": 125}, {"time": 84722, "pitch": 29, "duration": 200, "velocity": 125}, {"time": 84962, "pitch": 28, "duration": 700, "velocity": 125}, {"time": 85682, "pitch": 35, "duration": 899, "velocity": 125}, {"time": 86641, "pitch": 40, "duration": 200, "velocity": 125}, {"time": 86881, "pitch": 38, "duration": 699, "velocity": 125}, {"time": 87600, "pitch": 33, "duration": 900, "velocity": 125}, {"time": 88559, "pitch": 38, "duration": 200, "velocity": 125}, {"time": 88799, "pitch": 31, "duration": 1899, "velocity": 125}, {"time": 90718, "pitch": 36, "duration": 699, "velocity": 125}, {"time": 91437, "pitch": 36, "duration": 220, "velocity": 120}, {"time": 91677, "pitch": 40, "duration": 466, "velocity": 125}, {"time": 92163, "pitch": 28, "duration": 460, "velocity": 120}, {"time": 92643, "pitch": 33, "duration": 699, "velocity": 125}, {"time": 93362, "pitch": 40, "duration": 220, "velocity": 120}, {"time": 93602, "pitch": 45, "duration": 460, "velocity": 125}, {"time": 94081, "pitch": 33, "duration": 460, "velocity": 120}, {"time": 94561, "pitch": 40, "duration": 700, "velocity": 125}, {"time": 95281, "pitch": 40, "duration": 219, "velocity": 120}, {"time": 95520, "pitch": 33, "duration": 460, "velocity": 125}, {"time": 96000, "pitch": 36, "duration": 220, "velocity": 125}, {"time": 96240, "pitch": 37, "duration": 220, "velocity": 120}, {"time": 96480, "pitch": 38, "duration": 699, "velocity": 125}, {"time": 97199, "pitch": 33, "duration": 220, "velocity": 120}, {"time": 97439, "pitch": 31, "duration": 460, "velocity": 125}, {"time": 97919, "pitch": 43, "duration": 459, "velocity": 120}, {"time": 98398, "pitch": 41, "duration": 700, "velocity": 125}, {"time": 99118, "pitch": 41, "duration": 220, "velocity": 120}, {"time": 99358, "pitch": 40, "duration": 702, "velocity": 125}, {"time": 100080, "pitch": 40, "duration": 223, "velocity": 120}, {"time": 100323, "pitch": 38, "duration": 699, "velocity": 125}, {"time": 101042, "pitch": 38, "duration": 220, "velocity": 120}, {"time": 101282, "pitch": 40, "duration": 700, "velocity": 125}, {"time": 102002, "pitch": 40, "duration": 220, "velocity": 120}, {"time": 102242, "pitch": 46, "duration": 939, "velocity": 125}, {"time": 103201, "pitch": 34, "duration": 460, "velocity": 125}, {"time": 103681, "pitch": 33, "duration": 119, "velocity": 120}, {"time": 103920, "pitch": 31, "duration": 400, "velocity": 125}, {"time": 104400, "pitch": 38, "duration": 480, "velocity": 125}, {"time": 104880, "pitch": 38, "duration": 239, "velocity": 115}, {"time": 105119, "pitch": 31, "duration": 460, "velocity": 125}, {"time": 105599, "pitch": 35, "duration": 460, "velocity": 125}, {"time": 106079, "pitch": 36, "duration": 659, "velocity": 125}, {"time": 106798, "pitch": 36, "duration": 100, "velocity": 125}, {"time": 106918, "pitch": 38, "duration": 100, "velocity": 120}, {"time": 107038, "pitch": 40, "duration": 460, "velocity": 125}, {"time": 107518, "pitch": 28, "duration": 459, "velocity": 120}, {"time": 107997, "pitch": 33, "duration": 662, "velocity": 125}, {"time": 108720, "pitch": 33, "duration": 223, "velocity": 120}, {"time": 108963, "pitch": 45, "duration": 459, "velocity": 125}, {"time": 109442, "pitch": 43, "duration": 460, "velocity": 120}, {"time": 109922, "pitch": 41, "duration": 660, "velocity": 125}, {"time": 110642, "pitch": 41, "duration": 219, "velocity": 120}, {"time": 110881, "pitch": 40, "duration": 460, "velocity": 125}, {"time": 111361, "pitch": 33, "duration": 460, "velocity": 120}, {"time": 111841, "pitch": 38, "duration": 699, "velocity": 125}, {"time": 112560, "pitch": 38, "duration": 240, "velocity": 115}, {"time": 112800, "pitch": 31, "duration": 460, "velocity": 125}, {"time": 113280, "pitch": 38, "duration": 219, "velocity": 125}, {"time": 113519, "pitch": 43, "duration": 220, "velocity": 120}, {"time": 113759, "pitch": 41, "duration": 660, "velocity": 125}, {"time": 114479, "pitch": 41, "duration": 220, "velocity": 120}, {"time": 114719, "pitch": 40, "duration": 659, "velocity": 125}, {"time": 115438, "pitch": 40, "duration": 220, "velocity": 120}, {"time": 115678, "pitch": 38, "duration": 659, "velocity": 125}, {"time": 116397, "pitch": 38, "duration": 220, "velocity": 120}, {"time": 116637, "pitch": 40, "duration": 666, "velocity": 125}, {"time": 117363, "pitch": 40, "duration": 220, "velocity": 120}, {"time": 117602, "pitch": 38, "duration": 460, "velocity": 125}, {"time": 118082, "pitch": 40, "duration": 460, "velocity": 125}, {"time": 118562, "pitch": 41, "duration": 459, "velocity": 125}, {"time": 119041, "pitch": 43, "duration": 120, "velocity": 125}, {"time": 119281, "pitch": 36, "duration": 1659, "velocity": 125}, {"time": 120960, "pitch": 45, "duration": 460, "velocity": 125}, {"time": 121440, "pitch": 38, "duration": 659, "velocity": 125}, {"time": 122159, "pitch": 38, "duration": 220, "velocity": 120}, {"time": 122399, "pitch": 40, "duration": 659, "velocity": 125}, {"time": 123118, "pitch": 40, "duration": 220, "velocity": 120}, {"time": 123358, "pitch": 42, "duration": 660, "velocity": 125}, {"time": 124078, "pitch": 42, "duration": 220, "velocity": 120}, {"time": 124318, "pitch": 45, "duration": 439, "velocity": 125}, {"time": 124797, "pitch": 38, "duration": 445, "velocity": 125}, {"time": 125283, "pitch": 43, "duration": 599, "velocity": 125}, {"time": 126002, "pitch": 43, "duration": 200, "velocity": 120}, {"time": 126242, "pitch": 42, "duration": 600, "velocity": 125}, {"time": 126962, "pitch": 42, "duration": 200, "velocity": 120}, {"time": 127202, "pitch": 40, "duration": 659, "velocity": 125}, {"time": 127921, "pitch": 40, "duration": 200, "velocity": 120}, {"time": 128161, "pitch": 45, "duration": 440, "velocity": 125}, {"time": 128640, "pitch": 33, "duration": 440, "velocity": 125}, {"time": 129120, "pitch": 38, "duration": 660, "velocity": 125}, {"time": 129840, "pitch": 38, "duration": 219, "velocity": 120}, {"time": 130079, "pitch": 40, "duration": 660, "velocity": 125}, {"time": 130799, "pitch": 40, "duration": 220, "velocity": 120}, {"time": 131039, "pitch": 42, "duration": 659, "velocity": 125}, {"time": 131758, "pitch": 42, "duration": 220, "velocity": 120}, {"time": 131998, "pitch": 45, "duration": 440, "velocity": 125}, {"time": 132478, "pitch": 38, "duration": 439, "velocity": 125}, {"time": 132957, "pitch": 43, "duration": 606, "velocity": 125}, {"time": 133683, "pitch": 43, "duration": 200, "velocity": 120}, {"time": 133923, "pitch": 42, "duration": 599, "velocity": 125}, {"time": 134642, "pitch": 42, "duration": 200, "velocity": 120}, {"time": 134882, "pitch": 40, "duration": 460, "velocity": 125}, {"time": 135362, "pitch": 42, "duration": 160, "velocity": 125}, {"time": 135601, "pitch": 43, "duration": 3098, "velocity": 125}, {"time": 138719, "pitch": 42, "duration": 160, "velocity": 125}, {"time": 139199, "pitch": 37, "duration": 160, "velocity": 125}, {"time": 139678, "pitch": 35, "duration": 160, "velocity": 125}, {"time": 140158, "pitch": 42, "duration": 160, "velocity": 125}, {"time": 140638, "pitch": 40, "duration": 160, "velocity": 125}, {"time": 141117, "pitch": 33, "duration": 160, "velocity": 125}, {"time": 141597, "pitch": 38, "duration": 162, "velocity": 125}, {"time": 142083, "pitch": 33, "duration": 160, "velocity": 125}, {"time": 142562, "pitch": 31, "duration": 160, "velocity": 125}, {"time": 143042, "pitch": 38, "duration": 160, "velocity": 125}, {"time": 143522, "pitch": 30, "duration": 160, "velocity": 125}, {"time": 144001, "pitch": 37, "duration": 160, "velocity": 125}, {"time": 144481, "pitch": 40, "duration": 160, "velocity": 125}, {"time": 144961, "pitch": 33, "duration": 160, "velocity": 125}, {"time": 145440, "pitch": 38, "duration": 160, "velocity": 125}, {"time": 145920, "pitch": 33, "duration": 160, "velocity": 125}, {"time": 146400, "pitch": 42, "duration": 159, "velocity": 125}, {"time": 146879, "pitch": 37, "duration": 160, "velocity": 125}, {"time": 147359, "pitch": 35, "duration": 160, "velocity": 125}, {"time": 147839, "pitch": 42, "duration": 159, "velocity": 125}, {"time": 148318, "pitch": 40, "duration": 160, "velocity": 125}, {"time": 148798, "pitch": 33, "duration": 160, "velocity": 125}, {"time": 149277, "pitch": 38, "duration": 160, "velocity": 125}, {"time": 149757, "pitch": 33, "duration": 162, "velocity": 125}, {"time": 150243, "pitch": 31, "duration": 160, "velocity": 125}, {"time": 150723, "pitch": 38, "duration": 159, "velocity": 125}, {"time": 151202, "pitch": 30, "duration": 160, "velocity": 125}, {"time": 151682, "pitch": 37, "duration": 160, "velocity": 125}, {"time": 152161, "pitch": 34, "duration": 160, "velocity": 125}, {"time": 152641, "pitch": 41, "duration": 160, "velocity": 125}, {"time": 153121, "pitch": 34, "duration": 160, "velocity": 125}, {"time": 153600, "pitch": 41, "duration": 160, "velocity": 125}, {"time": 154080, "pitch": 39, "duration": 1419, "velocity": 125}, {"time": 155519, "pitch": 51, "duration": 460, "velocity": 125}, {"time": 155999, "pitch": 38, "duration": 659, "velocity": 125}, {"time": 156718, "pitch": 38, "duration": 220, "velocity": 120}, {"time": 156958, "pitch": 42, "duration": 659, "velocity": 125}, {"time": 157677, "pitch": 42, "duration": 220, "velocity": 120}, {"time": 157917, "pitch": 35, "duration": 666, "velocity": 125}, {"time": 158643, "pitch": 35, "duration": 220, "velocity": 120}, {"time": 158883, "pitch": 33, "duration": 659, "velocity": 125}, {"time": 159602, "pitch": 33, "duration": 220, "velocity": 120}, {"time": 159842, "pitch": 31, "duration": 659, "velocity": 125}, {"time": 160561, "pitch": 31, "duration": 220, "velocity": 120}, {"time": 160801, "pitch": 30, "duration": 460, "velocity": 125}, {"time": 161281, "pitch": 35, "duration": 460, "velocity": 120}, {"time": 161761, "pitch": 40, "duration": 659, "velocity": 125}, {"time": 162480, "pitch": 40, "duration": 220, "velocity": 120}, {"time": 162720, "pitch": 45, "duration": 459, "velocity": 125}, {"time": 163199, "pitch": 43, "duration": 460, "velocity": 125}, {"time": 163679, "pitch": 42, "duration": 1879, "velocity": 125}, {"time": 165598, "pitch": 40, "duration": 939, "velocity": 125}, {"time": 166557, "pitch": 33, "duration": 945, "velocity": 125}, {"time": 167522, "pitch": 35, "duration": 660, "velocity": 125}, {"time": 168242, "pitch": 35, "duration": 220, "velocity": 120}, {"time": 168482, "pitch": 33, "duration": 659, "velocity": 125}, {"time": 169201, "pitch": 33, "duration": 220, "velocity": 120}, {"time": 169441, "pitch": 31, "duration": 939, "velocity": 125}, {"time": 170400, "pitch": 33, "duration": 940, "velocity": 125}, {"time": 171360, "pitch": 38, "duration": 1898, "velocity": 125}, {"time": 46560, "pitch": 50, "duration": 939, "velocity": 105}, {"time": 46560, "pitch": 66, "duration": 480, "velocity": 110}, {"time": 46800, "pitch": 57, "duration": 359, "velocity": 100}, {"time": 46920, "pitch": 61, "duration": 359, "velocity": 105}, {"time": 47040, "pitch": 66, "duration": 359, "velocity": 110}, {"time": 47159, "pitch": 57, "duration": 340, "velocity": 100}, {"time": 47279, "pitch": 61, "duration": 220, "velocity": 105}, {"time": 47399, "pitch": 66, "duration": 100, "velocity": 90}, {"time": 47519, "pitch": 52, "duration": 939, "velocity": 105}, {"time": 47519, "pitch": 67, "duration": 480, "velocity": 110}, {"time": 47759, "pitch": 59, "duration": 360, "velocity": 100}, {"time": 47879, "pitch": 62, "duration": 360, "velocity": 105}, {"time": 47999, "pitch": 67, "duration": 360, "velocity": 110}, {"time": 48119, "pitch": 59, "duration": 339, "velocity": 100}, {"time": 48239, "pitch": 62, "duration": 219, "velocity": 105}, {"time": 48359, "pitch": 67, "duration": 99, "velocity": 90}, {"time": 48478, "pitch": 54, "duration": 940, "velocity": 105}, {"time": 48478, "pitch": 69, "duration": 480, "velocity": 110}, {"time": 48718, "pitch": 62, "duration": 360, "velocity": 100}, {"time": 48838, "pitch": 66, "duration": 360, "velocity": 105}, {"time": 48958, "pitch": 69, "duration": 360, "velocity": 110}, {"time": 49078, "pitch": 62, "duration": 340, "velocity": 100}, {"time": 49198, "pitch": 66, "duration": 220, "velocity": 105}, {"time": 49318, "pitch": 69, "duration": 100, "velocity": 90}, {"time": 49438, "pitch": 57, "duration": 479, "velocity": 105}, {"time": 49438, "pitch": 67, "duration": 479, "velocity": 110}, {"time": 49678, "pitch": 60, "duration": 359, "velocity": 100}, {"time": 49797, "pitch": 64, "duration": 360, "velocity": 105}, {"time": 49917, "pitch": 50, "duration": 480, "velocity": 105}, {"time": 49917, "pitch": 67, "duration": 360, "velocity": 110}, {"time": 50037, "pitch": 60, "duration": 340, "velocity": 100}, {"time": 50157, "pitch": 64, "duration": 220, "velocity": 105}, {"time": 50277, "pitch": 67, "duration": 100, "velocity": 90}, {"time": 50397, "pitch": 50, "duration": 945, "velocity": 105}, {"time": 50397, "pitch": 66, "duration": 486, "velocity": 110}, {"time": 50640, "pitch": 55, "duration": 363, "velocity": 100}, {"time": 50761, "pitch": 59, "duration": 362, "velocity": 105}, {"time": 50883, "pitch": 66, "duration": 360, "velocity": 110}, {"time": 51003, "pitch": 55, "duration": 339, "velocity": 100}, {"time": 51123, "pitch": 59, "duration": 219, "velocity": 105}, {"time": 51243, "pitch": 66, "duration": 99, "velocity": 90}, {"time": 51362, "pitch": 54, "duration": 940, "velocity": 105}, {"time": 51362, "pitch": 66, "duration": 480, "velocity": 110}, {"time": 51602, "pitch": 57, "duration": 360, "velocity": 100}, {"time": 51722, "pitch": 62, "duration": 360, "velocity": 105}, {"time": 51842, "pitch": 66, "duration": 360, "velocity": 110}, {"time": 51962, "pitch": 57, "duration": 340, "velocity": 100}, {"time": 52082, "pitch": 62, "duration": 220, "velocity": 105}, {"time": 52202, "pitch": 66, "duration": 100, "velocity": 90}, {"time": 52322, "pitch": 52, "duration": 939, "velocity": 105}, {"time": 52322, "pitch": 67, "duration": 479, "velocity": 110}, {"time": 52562, "pitch": 59, "duration": 359, "velocity": 100}, {"time": 52681, "pitch": 62, "duration": 360, "velocity": 105}, {"time": 52801, "pitch": 67, "duration": 360, "velocity": 110}, {"time": 52921, "pitch": 59, "duration": 340, "velocity": 100}, {"time": 53041, "pitch": 62, "duration": 220, "velocity": 105}, {"time": 53161, "pitch": 67, "duration": 100, "velocity": 90}, {"time": 53281, "pitch": 57, "duration": 480, "velocity": 105}, {"time": 53281, "pitch": 67, "duration": 480, "velocity": 110}, {"time": 53521, "pitch": 59, "duration": 360, "velocity": 100}, {"time": 53641, "pitch": 62, "duration": 359, "velocity": 105}, {"time": 53761, "pitch": 57, "duration": 479, "velocity": 105}, {"time": 53761, "pitch": 67, "duration": 359, "velocity": 110}, {"time": 53881, "pitch": 61, "duration": 339, "velocity": 100}, {"time": 54000, "pitch": 64, "duration": 220, "velocity": 105}, {"time": 54120, "pitch": 67, "duration": 100, "velocity": 90}, {"time": 54240, "pitch": 50, "duration": 940, "velocity": 105}, {"time": 54240, "pitch": 66, "duration": 480, "velocity": 110}, {"time": 54480, "pitch": 57, "duration": 360, "velocity": 100}, {"time": 54600, "pitch": 61, "duration": 360, "velocity": 105}, {"time": 54720, "pitch": 66, "duration": 360, "velocity": 110}, {"time": 54840, "pitch": 57, "duration": 340, "velocity": 100}, {"time": 54960, "pitch": 61, "duration": 220, "velocity": 105}, {"time": 55080, "pitch": 66, "duration": 100, "velocity": 90}, {"time": 55200, "pitch": 52, "duration": 939, "velocity": 105}, {"time": 55200, "pitch": 67, "duration": 479, "velocity": 110}, {"time": 55439, "pitch": 59, "duration": 360, "velocity": 100}, {"time": 55559, "pitch": 62, "duration": 360, "velocity": 105}, {"time": 55679, "pitch": 67, "duration": 360, "velocity": 110}, {"time": 55799, "pitch": 59, "duration": 340, "velocity": 100}, {"time": 55919, "pitch": 62, "duration": 220, "velocity": 105}, {"time": 56039, "pitch": 67, "duration": 100, "velocity": 90}, {"time": 56159, "pitch": 54, "duration": 939, "velocity": 105}, {"time": 56159, "pitch": 69, "duration": 480, "velocity": 110}, {"time": 56399, "pitch": 62, "duration": 359, "velocity": 100}, {"time": 56519, "pitch": 66, "duration": 359, "velocity": 105}, {"time": 56639, "pitch": 69, "duration": 359, "velocity": 110}, {"time": 56758, "pitch": 62, "duration": 340, "velocity": 100}, {"time": 56878, "pitch": 66, "duration": 220, "velocity": 105}, {"time": 56998, "pitch": 69, "duration": 100, "velocity": 90}, {"time": 57118, "pitch": 57, "duration": 480, "velocity": 105}, {"time": 57118, "pitch": 67, "duration": 480, "velocity": 110}, {"time": 57358, "pitch": 60, "duration": 360, "velocity": 100}, {"time": 57478, "pitch": 64, "duration": 360, "velocity": 105}, {"time": 57598, "pitch": 50, "duration": 480, "velocity": 105}, {"time": 57598, "pitch": 67, "duration": 360, "velocity": 110}, {"time": 57718, "pitch": 60, "duration": 340, "velocity": 100}, {"time": 57838, "pitch": 64, "duration": 220, "velocity": 105}, {"time": 57958, "pitch": 67, "duration": 100, "velocity": 90}, {"time": 58078, "pitch": 50, "duration": 945, "velocity": 105}, {"time": 58078, "pitch": 66, "duration": 479, "velocity": 110}, {"time": 58317, "pitch": 55, "duration": 362, "velocity": 100}, {"time": 58437, "pitch": 59, "duration": 363, "velocity": 105}, {"time": 58557, "pitch": 66, "duration": 364, "velocity": 110}, {"time": 58679, "pitch": 55, "duration": 344, "velocity": 100}, {"time": 58800, "pitch": 59, "duration": 223, "velocity": 105}, {"time": 58921, "pitch": 66, "duration": 102, "velocity": 90}, {"time": 59043, "pitch": 54, "duration": 939, "velocity": 105}, {"time": 59043, "pitch": 66, "duration": 480, "velocity": 110}, {"time": 59283, "pitch": 57, "duration": 359, "velocity": 100}, {"time": 59403, "pitch": 62, "duration": 359, "velocity": 105}, {"time": 59523, "pitch": 66, "duration": 359, "velocity": 110}, {"time": 59642, "pitch": 57, "duration": 340, "velocity": 100}, {"time": 59762, "pitch": 62, "duration": 220, "velocity": 105}, {"time": 59882, "pitch": 66, "duration": 100, "velocity": 90}, {"time": 60002, "pitch": 52, "duration": 460, "velocity": 105}, {"time": 60002, "pitch": 67, "duration": 460, "velocity": 110}, {"time": 60242, "pitch": 59, "duration": 220, "velocity": 100}, {"time": 60362, "pitch": 62, "duration": 100, "velocity": 105}, {"time": 60482, "pitch": 54, "duration": 459, "velocity": 105}, {"time": 60482, "pitch": 66, "duration": 459, "velocity": 110}, {"time": 60722, "pitch": 59, "duration": 219, "velocity": 100}, {"time": 60921, "pitch": 40, "duration": 940, "velocity": 85}, {"time": 60941, "pitch": 46, "duration": 920, "velocity": 80}, {"time": 60961, "pitch": 52, "duration": 900, "velocity": 85}, {"time": 60981, "pitch": 55, "duration": 880, "velocity": 90}, {"time": 60991, "pitch": 58, "duration": 870, "velocity": 95}, {"time": 61001, "pitch": 64, "duration": 860, "velocity": 100}, {"time": 61881, "pitch": 42, "duration": 1898, "velocity": 85}, {"time": 61901, "pitch": 45, "duration": 1878, "velocity": 80}, {"time": 61921, "pitch": 54, "duration": 1858, "velocity": 85}, {"time": 61941, "pitch": 57, "duration": 1838, "velocity": 90}, {"time": 61951, "pitch": 61, "duration": 1828, "velocity": 95}, {"time": 61961, "pitch": 64, "duration": 1818, "velocity": 100}, {"time": 63799, "pitch": 40, "duration": 940, "velocity": 85}, {"time": 63819, "pitch": 47, "duration": 920, "velocity": 80}, {"time": 63839, "pitch": 50, "duration": 900, "velocity": 85}, {"time": 63859, "pitch": 55, "duration": 880, "velocity": 90}, {"time": 63869, "pitch": 59, "duration": 870, "velocity": 95}, {"time": 63879, "pitch": 64, "duration": 860, "velocity": 100}, {"time": 64759, "pitch": 45, "duration": 939, "velocity": 85}, {"time": 64779, "pitch": 47, "duration": 919, "velocity": 80}, {"time": 64799, "pitch": 50, "duration": 899, "velocity": 85}, {"time": 64819, "pitch": 55, "duration": 879, "velocity": 90}, {"time": 64829, "pitch": 59, "duration": 869, "velocity": 95}, {"time": 64839, "pitch": 64, "duration": 859, "velocity": 100}, {"time": 65718, "pitch": 42, "duration": 1725, "velocity": 85}, {"time": 65738, "pitch": 45, "duration": 1705, "velocity": 80}, {"time": 65758, "pitch": 54, "duration": 1685, "velocity": 85}, {"time": 65778, "pitch": 57, "duration": 1665, "velocity": 90}, {"time": 65788, "pitch": 62, "duration": 1655, "velocity": 95}, {"time": 65798, "pitch": 66, "duration": 1645, "velocity": 100}, {"time": 67443, "pitch": 59, "duration": 240, "velocity": 100}, {"time": 67683, "pitch": 60, "duration": 239, "velocity": 120}, {"time": 67922, "pitch": 59, "duration": 1200, "velocity": 100}, {"time": 68162, "pitch": 55, "duration": 1199, "velocity": 95}, {"time": 68402, "pitch": 62, "duration": 1919, "velocity": 120}, {"time": 68882, "pitch": 60, "duration": 240, "velocity": 100}, {"time": 69122, "pitch": 59, "duration": 719, "velocity": 95}, {"time": 69361, "pitch": 55, "duration": 720, "velocity": 90}, {"time": 69601, "pitch": 60, "duration": 240, "velocity": 120}, {"time": 69841, "pitch": 59, "duration": 1199, "velocity": 100}, {"time": 70081, "pitch": 55, "duration": 1199, "velocity": 95}, {"time": 70321, "pitch": 62, "duration": 1918, "velocity": 120}, {"time": 70800, "pitch": 60, "duration": 240, "velocity": 100}, {"time": 71040, "pitch": 59, "duration": 720, "velocity": 95}, {"time": 71280, "pitch": 55, "duration": 719, "velocity": 90}, {"time": 71520, "pitch": 60, "duration": 240, "velocity": 120}, {"time": 71760, "pitch": 59, "duration": 1199, "velocity": 100}, {"time": 71999, "pitch": 55, "duration": 1200, "velocity": 95}, {"time": 72239, "pitch": 62, "duration": 1919, "velocity": 120}, {"time": 72719, "pitch": 60, "duration": 240, "velocity": 100}, {"time": 72959, "pitch": 59, "duration": 719, "velocity": 95}, {"time": 73199, "pitch": 55, "duration": 719, "velocity": 90}, {"time": 73438, "pitch": 60, "duration": 240, "velocity": 120}, {"time": 73678, "pitch": 59, "duration": 1199, "velocity": 100}, {"time": 73918, "pitch": 55, "duration": 1199, "velocity": 95}, {"time": 74158, "pitch": 62, "duration": 1925, "velocity": 120}, {"time": 74638, "pitch": 60, "duration": 239, "velocity": 100}, {"time": 74877, "pitch": 59, "duration": 723, "velocity": 95}, {"time": 75117, "pitch": 55, "duration": 726, "velocity": 90}, {"time": 75357, "pitch": 60, "duration": 243, "velocity": 120}, {"time": 75600, "pitch": 59, "duration": 1202, "velocity": 100}, {"time": 75843, "pitch": 55, "duration": 1199, "velocity": 95}, {"time": 76083, "pitch": 62, "duration": 1918, "velocity": 120}, {"time": 76562, "pitch": 60, "duration": 240, "velocity": 100}, {"time": 76802, "pitch": 59, "duration": 719, "velocity": 95}, {"time": 77042, "pitch": 55, "duration": 719, "velocity": 90}, {"time": 77282, "pitch": 60, "duration": 239, "velocity": 120}, {"time": 77521, "pitch": 59, "duration": 1200, "velocity": 100}, {"time": 77761, "pitch": 55, "duration": 1199, "velocity": 95}, {"time": 78001, "pitch": 62, "duration": 1919, "velocity": 120}, {"time": 78481, "pitch": 60, "duration": 240, "velocity": 100}, {"time": 78721, "pitch": 59, "duration": 719, "velocity": 95}, {"time": 78960, "pitch": 55, "duration": 720, "velocity": 90}, {"time": 79200, "pitch": 60, "duration": 240, "velocity": 120}, {"time": 79440, "pitch": 59, "duration": 1199, "velocity": 100}, {"time": 79680, "pitch": 55, "duration": 1199, "velocity": 95}, {"time": 79920, "pitch": 62, "duration": 1918, "velocity": 120}, {"time": 80399, "pitch": 60, "duration": 240, "velocity": 100}, {"time": 80639, "pitch": 59, "duration": 720, "velocity": 95}, {"time": 80879, "pitch": 55, "duration": 719, "velocity": 90}, {"time": 81119, "pitch": 60, "duration": 240, "velocity": 120}, {"time": 81359, "pitch": 59, "duration": 1199, "velocity": 100}, {"time": 81598, "pitch": 55, "duration": 1200, "velocity": 95}, {"time": 81838, "pitch": 62, "duration": 1922, "velocity": 120}, {"time": 82318, "pitch": 60, "duration": 240, "velocity": 100}, {"time": 82558, "pitch": 59, "duration": 719, "velocity": 95}, {"time": 82798, "pitch": 55, "duration": 719, "velocity": 90}, {"time": 83037, "pitch": 60, "duration": 240, "velocity": 120}, {"time": 83277, "pitch": 59, "duration": 1205, "velocity": 100}, {"time": 83517, "pitch": 55, "duration": 1205, "velocity": 95}, {"time": 83760, "pitch": 62, "duration": 1922, "velocity": 120}, {"time": 84243, "pitch": 60, "duration": 239, "velocity": 100}, {"time": 84482, "pitch": 59, "duration": 720, "velocity": 95}, {"time": 84722, "pitch": 55, "duration": 720, "velocity": 90}, {"time": 84962, "pitch": 60, "duration": 240, "velocity": 120}, {"time": 85202, "pitch": 59, "duration": 1199, "velocity": 100}, {"time": 85442, "pitch": 55, "duration": 1199, "velocity": 95}, {"time": 85682, "pitch": 62, "duration": 1918, "velocity": 120}, {"time": 86161, "pitch": 60, "duration": 240, "velocity": 100}, {"time": 86401, "pitch": 59, "duration": 720, "velocity": 95}, {"time": 86641, "pitch": 55, "duration": 719, "velocity": 90}, {"time": 86881, "pitch": 60, "duration": 240, "velocity": 120}, {"time": 87121, "pitch": 59, "duration": 1199, "velocity": 100}, {"time": 87360, "pitch": 55, "duration": 1199, "velocity": 95}, {"time": 87600, "pitch": 62, "duration": 1159, "velocity": 120}, {"time": 88080, "pitch": 60, "duration": 240, "velocity": 100}, {"time": 88320, "pitch": 59, "duration": 439, "velocity": 95}, {"time": 88559, "pitch": 55, "duration": 200, "velocity": 90}, {"time": 88759, "pitch": 43, "duration": 1899, "velocity": 85}, {"time": 88779, "pitch": 45, "duration": 1879, "velocity": 80}, {"time": 88799, "pitch": 50, "duration": 1859, "velocity": 85}, {"time": 88819, "pitch": 57, "duration": 1839, "velocity": 90}, {"time": 88829, "pitch": 60, "duration": 1829, "velocity": 95}, {"time": 88839, "pitch": 65, "duration": 1819, "velocity": 100}, {"time": 120920, "pitch": 45, "duration": 490, "velocity": 85}, {"time": 120930, "pitch": 50, "duration": 480, "velocity": 90}, {"time": 120940, "pitch": 59, "duration": 470, "velocity": 95}, {"time": 120950, "pitch": 62, "duration": 460, "velocity": 100}, {"time": 120960, "pitch": 67, "duration": 450, "velocity": 105}, {"time": 121440, "pitch": 50, "duration": 939, "velocity": 105}, {"time": 121440, "pitch": 66, "duration": 479, "velocity": 110}, {"time": 121679, "pitch": 57, "duration": 360, "velocity": 100}, {"time": 121799, "pitch": 61, "duration": 360, "velocity": 105}, {"time": 121919, "pitch": 66, "duration": 360, "velocity": 110}, {"time": 122039, "pitch": 57, "duration": 340, "velocity": 100}, {"time": 122159, "pitch": 61, "duration": 220, "velocity": 105}, {"time": 122279, "pitch": 66, "duration": 100, "velocity": 90}, {"time": 122399, "pitch": 52, "duration": 939, "velocity": 105}, {"time": 122399, "pitch": 67, "duration": 480, "velocity": 110}, {"time": 122639, "pitch": 59, "duration": 360, "velocity": 100}, {"time": 122759, "pitch": 62, "duration": 359, "velocity": 105}, {"time": 122879, "pitch": 67, "duration": 359, "velocity": 110}, {"time": 122999, "pitch": 59, "duration": 339, "velocity": 100}, {"time": 123118, "pitch": 62, "duration": 220, "velocity": 105}, {"time": 123238, "pitch": 67, "duration": 100, "velocity": 90}, {"time": 123358, "pitch": 54, "duration": 940, "velocity": 105}, {"time": 123358, "pitch": 69, "duration": 480, "velocity": 110}, {"time": 123598, "pitch": 62, "duration": 360, "velocity": 100}, {"time": 123718, "pitch": 66, "duration": 360, "velocity": 105}, {"time": 123838, "pitch": 69, "duration": 360, "velocity": 110}, {"time": 123958, "pitch": 62, "duration": 340, "velocity": 100}, {"time": 124078, "pitch": 66, "duration": 220, "velocity": 105}, {"time": 124198, "pitch": 69, "duration": 100, "velocity": 90}, {"time": 124318, "pitch": 57, "duration": 479, "velocity": 105}, {"time": 124318, "pitch": 67, "duration": 479, "velocity": 110}, {"time": 124557, "pitch": 60, "duration": 362, "velocity": 100}, {"time": 124677, "pitch": 64, "duration": 363, "velocity": 105}, {"time": 124797, "pitch": 50, "duration": 486, "velocity": 105}, {"time": 124797, "pitch": 67, "duration": 365, "velocity": 110}, {"time": 124919, "pitch": 60, "duration": 344, "velocity": 100}, {"time": 125040, "pitch": 64, "duration": 223, "velocity": 105}, {"time": 125162, "pitch": 67, "duration": 101, "velocity": 90}, {"time": 125283, "pitch": 50, "duration": 939, "velocity": 105}, {"time": 125283, "pitch": 66, "duration": 480, "velocity": 110}, {"time": 125523, "pitch": 55, "duration": 359, "velocity": 100}, {"time": 125643, "pitch": 59, "duration": 359, "velocity": 105}, {"time": 125763, "pitch": 66, "duration": 359, "velocity": 110}, {"time": 125882, "pitch": 55, "duration": 340, "velocity": 100}, {"time": 126002, "pitch": 59, "duration": 220, "velocity": 105}, {"time": 126122, "pitch": 66, "duration": 100, "velocity": 90}, {"time": 126242, "pitch": 54, "duration": 940, "velocity": 105}, {"time": 126242, "pitch": 66, "duration": 480, "velocity": 110}, {"time": 126482, "pitch": 57, "duration": 360, "velocity": 100}, {"time": 126602, "pitch": 62, "duration": 360, "velocity": 105}, {"time": 126722, "pitch": 66, "duration": 360, "velocity": 110}, {"time": 126842, "pitch": 57, "duration": 340, "velocity": 100}, {"time": 126962, "pitch": 62, "duration": 220, "velocity": 105}, {"time": 127082, "pitch": 66, "duration": 100, "velocity": 90}, {"time": 127202, "pitch": 52, "duration": 939, "velocity": 105}, {"time": 127202, "pitch": 67, "duration": 479, "velocity": 110}, {"time": 127441, "pitch": 59, "duration": 360, "velocity": 100}, {"time": 127561, "pitch": 62, "duration": 360, "velocity": 105}, {"time": 127681, "pitch": 67, "duration": 360, "velocity": 110}, {"time": 127801, "pitch": 59, "duration": 340, "velocity": 100}, {"time": 127921, "pitch": 62, "duration": 220, "velocity": 105}, {"time": 128041, "pitch": 67, "duration": 100, "velocity": 90}, {"time": 128161, "pitch": 57, "duration": 479, "velocity": 105}, {"time": 128161, "pitch": 67, "duration": 479, "velocity": 110}, {"time": 128401, "pitch": 59, "duration": 359, "velocity": 100}, {"time": 128521, "pitch": 62, "duration": 359, "velocity": 105}, {"time": 128640, "pitch": 57, "duration": 480, "velocity": 105}, {"time": 128640, "pitch": 67, "duration": 360, "velocity": 110}, {"time": 128760, "pitch": 61, "duration": 340, "velocity": 100}, {"time": 128880, "pitch": 64, "duration": 220, "velocity": 105}, {"time": 129000, "pitch": 67, "duration": 100, "velocity": 90}, {"time": 129120, "pitch": 50, "duration": 939, "velocity": 105}, {"time": 129120, "pitch": 66, "duration": 480, "velocity": 110}, {"time": 129360, "pitch": 57, "duration": 360, "velocity": 100}, {"time": 129480, "pitch": 61, "duration": 360, "velocity": 105}, {"time": 129600, "pitch": 66, "duration": 360, "velocity": 110}, {"time": 129720, "pitch": 57, "duration": 339, "velocity": 100}, {"time": 129840, "pitch": 61, "duration": 219, "velocity": 105}, {"time": 129960, "pitch": 66, "duration": 99, "velocity": 90}, {"time": 130079, "pitch": 52, "duration": 940, "velocity": 105}, {"time": 130079, "pitch": 67, "duration": 480, "velocity": 110}, {"time": 130319, "pitch": 59, "duration": 360, "velocity": 100}, {"time": 130439, "pitch": 62, "duration": 360, "velocity": 105}, {"time": 130559, "pitch": 67, "duration": 360, "velocity": 110}, {"time": 130679, "pitch": 59, "duration": 340, "velocity": 100}, {"time": 130799, "pitch": 62, "duration": 220, "velocity": 105}, {"time": 130919, "pitch": 67, "duration": 100, "velocity": 90}, {"time": 131039, "pitch": 54, "duration": 939, "velocity": 105}, {"time": 131039, "pitch": 69, "duration": 479, "velocity": 110}, {"time": 131279, "pitch": 62, "duration": 359, "velocity": 100}, {"time": 131398, "pitch": 66, "duration": 360, "velocity": 105}, {"time": 131518, "pitch": 69, "duration": 360, "velocity": 110}, {"time": 131638, "pitch": 62, "duration": 340, "velocity": 100}, {"time": 131758, "pitch": 66, "duration": 220, "velocity": 105}, {"time": 131878, "pitch": 69, "duration": 100, "velocity": 90}, {"time": 131998, "pitch": 57, "duration": 480, "velocity": 105}, {"time": 131998, "pitch": 67, "duration": 480, "velocity": 110}, {"time": 132238, "pitch": 60, "duration": 360, "velocity": 100}, {"time": 132358, "pitch": 64, "duration": 359, "velocity": 105}, {"time": 132478, "pitch": 50, "duration": 479, "velocity": 105}, {"time": 132478, "pitch": 67, "duration": 359, "velocity": 110}, {"time": 132598, "pitch": 60, "duration": 339, "velocity": 100}, {"time": 132717, "pitch": 64, "duration": 220, "velocity": 105}, {"time": 132837, "pitch": 67, "duration": 100, "velocity": 90}, {"time": 132957, "pitch": 50, "duration": 946, "velocity": 105}, {"time": 132957, "pitch": 66, "duration": 486, "velocity": 110}, {"time": 133200, "pitch": 55, "duration": 363, "velocity": 100}, {"time": 133322, "pitch": 59, "duration": 361, "velocity": 105}, {"time": 133443, "pitch": 66, "duration": 360, "velocity": 110}, {"time": 133563, "pitch": 55, "duration": 340, "velocity": 100}, {"time": 133683, "pitch": 59, "duration": 220, "velocity": 105}, {"time": 133803, "pitch": 66, "duration": 100, "velocity": 90}, {"time": 133923, "pitch": 54, "duration": 939, "velocity": 105}, {"time": 133923, "pitch": 66, "duration": 479, "velocity": 110}, {"time": 134163, "pitch": 57, "duration": 359, "velocity": 100}, {"time": 134282, "pitch": 62, "duration": 360, "velocity": 105}, {"time": 134402, "pitch": 66, "duration": 360, "velocity": 110}, {"time": 134522, "pitch": 57, "duration": 340, "velocity": 100}, {"time": 134642, "pitch": 62, "duration": 220, "velocity": 105}, {"time": 134762, "pitch": 66, "duration": 100, "velocity": 90}, {"time": 134882, "pitch": 52, "duration": 460, "velocity": 105}, {"time": 134882, "pitch": 67, "duration": 460, "velocity": 110}, {"time": 135362, "pitch": 50, "duration": 160, "velocity": 105}, {"time": 135362, "pitch": 66, "duration": 160, "velocity": 110}, {"time": 135561, "pitch": 40, "duration": 3138, "velocity": 85}, {"time": 135581, "pitch": 46, "duration": 3118, "velocity": 80}, {"time": 135601, "pitch": 52, "duration": 3098, "velocity": 85}, {"time": 135621, "pitch": 55, "duration": 3078, "velocity": 90}, {"time": 135631, "pitch": 58, "duration": 3068, "velocity": 95}, {"time": 135641, "pitch": 64, "duration": 3058, "velocity": 100}, {"time": 155999, "pitch": 50, "duration": 939, "velocity": 110}, {"time": 156238, "pitch": 57, "duration": 700, "velocity": 100}, {"time": 156478, "pitch": 61, "duration": 460, "velocity": 105}, {"time": 156718, "pitch": 66, "duration": 220, "velocity": 110}, {"time": 156958, "pitch": 54, "duration": 939, "velocity": 110}, {"time": 157198, "pitch": 58, "duration": 699, "velocity": 100}, {"time": 157438, "pitch": 61, "duration": 459, "velocity": 105}, {"time": 157677, "pitch": 64, "duration": 220, "velocity": 110}, {"time": 157917, "pitch": 47, "duration": 966, "velocity": 110}, {"time": 158160, "pitch": 57, "duration": 962, "velocity": 100}, {"time": 158403, "pitch": 59, "duration": 959, "velocity": 105}, {"time": 158643, "pitch": 66, "duration": 959, "velocity": 110}, {"time": 158883, "pitch": 45, "duration": 939, "velocity": 110}, {"time": 159122, "pitch": 57, "duration": 700, "velocity": 100}, {"time": 159362, "pitch": 59, "duration": 460, "velocity": 105}, {"time": 159602, "pitch": 66, "duration": 220, "velocity": 110}, {"time": 159842, "pitch": 50, "duration": 939, "velocity": 110}, {"time": 160082, "pitch": 55, "duration": 699, "velocity": 100}, {"time": 160322, "pitch": 59, "duration": 459, "velocity": 105}, {"time": 160561, "pitch": 66, "duration": 220, "velocity": 110}, {"time": 160801, "pitch": 54, "duration": 460, "velocity": 110}, {"time": 161041, "pitch": 57, "duration": 220, "velocity": 100}, {"time": 161281, "pitch": 47, "duration": 460, "velocity": 105}, {"time": 161521, "pitch": 54, "duration": 220, "velocity": 100}, {"time": 161761, "pitch": 52, "duration": 939, "velocity": 110}, {"time": 162000, "pitch": 59, "duration": 700, "velocity": 100}, {"time": 162240, "pitch": 62, "duration": 460, "velocity": 105}, {"time": 162480, "pitch": 67, "duration": 220, "velocity": 110}, {"time": 162720, "pitch": 52, "duration": 939, "velocity": 110}, {"time": 162960, "pitch": 57, "duration": 699, "velocity": 100}, {"time": 163199, "pitch": 61, "duration": 460, "velocity": 105}, {"time": 163439, "pitch": 64, "duration": 160, "velocity": 110}, {"time": 163619, "pitch": 42, "duration": 1899, "velocity": 85}, {"time": 163639, "pitch": 45, "duration": 1879, "velocity": 80}, {"time": 163659, "pitch": 54, "duration": 1859, "velocity": 85}, {"time": 163679, "pitch": 57, "duration": 1839, "velocity": 90}, {"time": 163689, "pitch": 61, "duration": 1829, "velocity": 95}, {"time": 163699, "pitch": 64, "duration": 1819, "velocity": 100}, {"time": 165538, "pitch": 40, "duration": 939, "velocity": 85}, {"time": 165548, "pitch": 47, "duration": 929, "velocity": 80}, {"time": 165558, "pitch": 50, "duration": 919, "velocity": 85}, {"time": 165568, "pitch": 55, "duration": 909, "velocity": 90}, {"time": 165578, "pitch": 59, "duration": 899, "velocity": 95}, {"time": 165588, "pitch": 64, "duration": 889, "velocity": 100}, {"time": 166497, "pitch": 45, "duration": 1005, "velocity": 85}, {"time": 166507, "pitch": 47, "duration": 995, "velocity": 80}, {"time": 166517, "pitch": 50, "duration": 985, "velocity": 85}, {"time": 166527, "pitch": 55, "duration": 975, "velocity": 90}, {"time": 166537, "pitch": 59, "duration": 965, "velocity": 95}, {"time": 166547, "pitch": 64, "duration": 955, "velocity": 100}, {"time": 167522, "pitch": 47, "duration": 960, "velocity": 110}, {"time": 167762, "pitch": 57, "duration": 959, "velocity": 100}, {"time": 168002, "pitch": 59, "duration": 959, "velocity": 105}, {"time": 168242, "pitch": 66, "duration": 959, "velocity": 110}, {"time": 168482, "pitch": 45, "duration": 879, "velocity": 110}, {"time": 168721, "pitch": 57, "duration": 640, "velocity": 100}, {"time": 168961, "pitch": 59, "duration": 400, "velocity": 105}, {"time": 169201, "pitch": 66, "duration": 160, "velocity": 110}, {"time": 169381, "pitch": 43, "duration": 939, "velocity": 85}, {"time": 169391, "pitch": 47, "duration": 929, "velocity": 80}, {"time": 169401, "pitch": 50, "duration": 919, "velocity": 85}, {"time": 169411, "pitch": 55, "duration": 909, "velocity": 90}, {"time": 169421, "pitch": 59, "duration": 899, "velocity": 95}, {"time": 169431, "pitch": 64, "duration": 889, "velocity": 100}, {"time": 170340, "pitch": 45, "duration": 940, "velocity": 85}, {"time": 170350, "pitch": 47, "duration": 930, "velocity": 80}, {"time": 170360, "pitch": 50, "duration": 920, "velocity": 85}, {"time": 170370, "pitch": 55, "duration": 910, "velocity": 90}, {"time": 170380, "pitch": 59, "duration": 900, "velocity": 95}, {"time": 170390, "pitch": 66, "duration": 890, "velocity": 100}, {"time": 171300, "pitch": 42, "duration": 1928, "velocity": 85}, {"time": 171320, "pitch": 45, "duration": 1908, "velocity": 80}, {"time": 171340, "pitch": 50, "duration": 1888, "velocity": 85}, {"time": 171360, "pitch": 57, "duration": 1878, "velocity": 90}, {"time": 171370, "pitch": 61, "duration": 1868, "velocity": 95}, {"time": 171380, "pitch": 66, "duration": 1858, "velocity": 100}, {"time": 173258, "pitch": 60, "duration": 240, "velocity": 120}, {"time": 173498, "pitch": 59, "duration": 1199, "velocity": 100}, {"time": 173738, "pitch": 55, "duration": 1202, "velocity": 95}, {"time": 173978, "pitch": 62, "duration": 1924, "velocity": 120}, {"time": 174457, "pitch": 60, "duration": 240, "velocity": 100}, {"time": 174697, "pitch": 59, "duration": 726, "velocity": 95}, {"time": 174940, "pitch": 55, "duration": 722, "velocity": 90}, {"time": 175183, "pitch": 60, "duration": 240, "velocity": 120}, {"time": 175423, "pitch": 59, "duration": 1199, "velocity": 100}, {"time": 175662, "pitch": 55, "duration": 1200, "velocity": 95}, {"time": 175902, "pitch": 62, "duration": 1919, "velocity": 120}, {"time": 176382, "pitch": 60, "duration": 240, "velocity": 100}, {"time": 176622, "pitch": 59, "duration": 719, "velocity": 95}, {"time": 176862, "pitch": 55, "duration": 719, "velocity": 90}, {"time": 177101, "pitch": 60, "duration": 240, "velocity": 120}, {"time": 177341, "pitch": 59, "duration": 1199, "velocity": 100}, {"time": 177581, "pitch": 55, "duration": 1199, "velocity": 95}, {"time": 177821, "pitch": 62, "duration": 1918, "velocity": 120}, {"time": 178301, "pitch": 60, "duration": 239, "velocity": 100}, {"time": 178540, "pitch": 59, "duration": 720, "velocity": 95}, {"time": 178780, "pitch": 55, "duration": 720, "velocity": 90}, {"time": 179020, "pitch": 60, "duration": 240, "velocity": 120}, {"time": 179260, "pitch": 59, "duration": 1199, "velocity": 100}, {"time": 179500, "pitch": 55, "duration": 1199, "velocity": 95}, {"time": 179739, "pitch": 62, "duration": 1919, "velocity": 120}, {"time": 180219, "pitch": 60, "duration": 240, "velocity": 100}, {"time": 180459, "pitch": 59, "duration": 719, "velocity": 95}, {"time": 180699, "pitch": 55, "duration": 719, "velocity": 90}, {"time": 180939, "pitch": 60, "duration": 239, "velocity": 120}, {"time": 181178, "pitch": 59, "duration": 1200, "velocity": 100}, {"time": 181418, "pitch": 55, "duration": 1199, "velocity": 95}, {"time": 181658, "pitch": 62, "duration": 1925, "velocity": 120}, {"time": 182138, "pitch": 60, "duration": 240, "velocity": 100}, {"time": 182378, "pitch": 59, "duration": 722, "velocity": 95}, {"time": 182617, "pitch": 55, "duration": 726, "velocity": 90}, {"time": 182857, "pitch": 60, "duration": 243, "velocity": 120}, {"time": 183100, "pitch": 59, "duration": 1202, "velocity": 100}, {"time": 183343, "pitch": 55, "duration": 1199, "velocity": 95}, {"time": 183583, "pitch": 62, "duration": 1918, "velocity": 120}, {"time": 184062, "pitch": 60, "duration": 240, "velocity": 100}, {"time": 184302, "pitch": 59, "duration": 720, "velocity": 95}, {"time": 184542, "pitch": 55, "duration": 720, "velocity": 90}, {"time": 184782, "pitch": 60, "duration": 240, "velocity": 120}, {"time": 185022, "pitch": 59, "duration": 1199, "velocity": 100}, {"time": 185262, "pitch": 55, "duration": 1199, "velocity": 95}, {"time": 185501, "pitch": 62, "duration": 1919, "velocity": 120}, {"time": 185981, "pitch": 60, "duration": 240, "velocity": 100}, {"time": 186221, "pitch": 59, "duration": 719, "velocity": 95}, {"time": 186461, "pitch": 55, "duration": 719, "velocity": 90}, {"time": 186700, "pitch": 60, "duration": 240, "velocity": 120}, {"time": 186940, "pitch": 59, "duration": 1199, "velocity": 100}, {"time": 187180, "pitch": 55, "duration": 1199, "velocity": 95}, {"time": 187420, "pitch": 62, "duration": 1919, "velocity": 120}, {"time": 187900, "pitch": 60, "duration": 239, "velocity": 100}, {"time": 188139, "pitch": 59, "duration": 720, "velocity": 95}, {"time": 188379, "pitch": 55, "duration": 720, "velocity": 90}, {"time": 188619, "pitch": 60, "duration": 240, "velocity": 120}, {"time": 188859, "pitch": 59, "duration": 1199, "velocity": 100}, {"time": 189099, "pitch": 55, "duration": 1199, "velocity": 95}, {"time": 189339, "pitch": 62, "duration": 1918, "velocity": 120}, {"time": 189818, "pitch": 60, "duration": 240, "velocity": 100}, {"time": 190058, "pitch": 59, "duration": 719, "velocity": 95}, {"time": 190298, "pitch": 55, "duration": 719, "velocity": 90}, {"time": 190538, "pitch": 60, "duration": 239, "velocity": 120}, {"time": 190777, "pitch": 59, "duration": 1200, "velocity": 100}, {"time": 191017, "pitch": 55, "duration": 1199, "velocity": 95}, {"time": 191257, "pitch": 62, "duration": 1919, "velocity": 120}, {"time": 191737, "pitch": 60, "duration": 240, "velocity": 100}, {"time": 191977, "pitch": 59, "duration": 719, "velocity": 95}, {"time": 192216, "pitch": 55, "duration": 720, "velocity": 90}, {"time": 192456, "pitch": 60, "duration": 240, "velocity": 120}, {"time": 192696, "pitch": 59, "duration": 1199, "velocity": 100}, {"time": 192936, "pitch": 55, "duration": 1199, "velocity": 95}, {"time": 193176, "pitch": 62, "duration": 1918, "velocity": 120}, {"time": 193655, "pitch": 60, "duration": 240, "velocity": 100}, {"time": 193895, "pitch": 59, "duration": 720, "velocity": 95}, {"time": 194135, "pitch": 55, "duration": 719, "velocity": 90}, {"time": 194375, "pitch": 60, "duration": 240, "velocity": 120}, {"time": 194615, "pitch": 59, "duration": 1199, "velocity": 100}, {"time": 194854, "pitch": 55, "duration": 1200, "velocity": 95}, {"time": 195094, "pitch": 62, "duration": 960, "velocity": 120}, {"time": 195574, "pitch": 60, "duration": 240, "velocity": 100}, {"time": 195814, "pitch": 59, "duration": 959, "velocity": 95}, {"time": 196054, "pitch": 55, "duration": 959, "velocity": 90}, {"time": 15838, "pitch": 76, "duration": 660, "velocity": 90}, {"time": 16558, "pitch": 76, "duration": 219, "velocity": 85}, {"time": 16797, "pitch": 77, "duration": 220, "velocity": 90}, {"time": 17037, "pitch": 76, "duration": 120, "velocity": 90}, {"time": 17157, "pitch": 74, "duration": 241, "velocity": 90}, {"time": 17398, "pitch": 76, "duration": 365, "velocity": 90}, {"time": 17763, "pitch": 72, "duration": 719, "velocity": 90}, {"time": 18482, "pitch": 74, "duration": 120, "velocity": 85}, {"time": 18602, "pitch": 76, "duration": 959, "velocity": 90}, {"time": 19681, "pitch": 79, "duration": 720, "velocity": 90}, {"time": 20401, "pitch": 79, "duration": 240, "velocity": 85}, {"time": 20641, "pitch": 81, "duration": 239, "velocity": 90}, {"time": 20880, "pitch": 79, "duration": 120, "velocity": 85}, {"time": 21000, "pitch": 84, "duration": 360, "velocity": 90}, {"time": 21360, "pitch": 76, "duration": 240, "velocity": 85}, {"time": 21600, "pitch": 76, "duration": 719, "velocity": 90}, {"time": 22319, "pitch": 74, "duration": 240, "velocity": 85}, {"time": 22559, "pitch": 74, "duration": 720, "velocity": 80}, {"time": 23519, "pitch": 81, "duration": 239, "velocity": 90}, {"time": 23758, "pitch": 79, "duration": 240, "velocity": 85}, {"time": 23998, "pitch": 76, "duration": 240, "velocity": 90}, {"time": 24238, "pitch": 74, "duration": 120, "velocity": 85}, {"time": 24358, "pitch": 72, "duration": 719, "velocity": 80}, {"time": 25197, "pitch": 72, "duration": 240, "velocity": 80}, {"time": 25437, "pitch": 81, "duration": 243, "velocity": 90}, {"time": 25680, "pitch": 79, "duration": 243, "velocity": 85}, {"time": 25923, "pitch": 79, "duration": 240, "velocity": 90}, {"time": 26163, "pitch": 79, "duration": 120, "velocity": 90}, {"time": 26283, "pitch": 84, "duration": 239, "velocity": 85}, {"time": 26522, "pitch": 76, "duration": 480, "velocity": 80}, {"time": 27002, "pitch": 72, "duration": 120, "velocity": 85}, {"time": 27122, "pitch": 74, "duration": 120, "velocity": 90}, {"time": 27242, "pitch": 76, "duration": 120, "velocity": 85}, {"time": 27362, "pitch": 77, "duration": 479, "velocity": 90}, {"time": 27841, "pitch": 76, "duration": 480, "velocity": 85}, {"time": 28321, "pitch": 74, "duration": 480, "velocity": 90}, {"time": 28801, "pitch": 72, "duration": 240, "velocity": 85}, {"time": 29041, "pitch": 74, "duration": 1678, "velocity": 80}, {"time": 46560, "pitch": 78, "duration": 719, "velocity": 90}, {"time": 47279, "pitch": 78, "duration": 240, "velocity": 85}, {"time": 47519, "pitch": 79, "duration": 240, "velocity": 90}, {"time": 47759, "pitch": 78, "duration": 120, "velocity": 85}, {"time": 47879, "pitch": 79, "duration": 240, "velocity": 90}, {"time": 48119, "pitch": 81, "duration": 359, "velocity": 85}, {"time": 48478, "pitch": 78, "duration": 720, "velocity": 90}, {"time": 49198, "pitch": 78, "duration": 240, "velocity": 85}, {"time": 49438, "pitch": 79, "duration": 240, "velocity": 90}, {"time": 49678, "pitch": 78, "duration": 119, "velocity": 85}, {"time": 49797, "pitch": 79, "duration": 240, "velocity": 90}, {"time": 50037, "pitch": 81, "duration": 360, "velocity": 85}, {"time": 50397, "pitch": 83, "duration": 726, "velocity": 90}, {"time": 51123, "pitch": 83, "duration": 120, "velocity": 90}, {"time": 51243, "pitch": 83, "duration": 119, "velocity": 85}, {"time": 51362, "pitch": 81, "duration": 240, "velocity": 90}, {"time": 51602, "pitch": 74, "duration": 120, "velocity": 90}, {"time": 51722, "pitch": 74, "duration": 360, "velocity": 90}, {"time": 52082, "pitch": 74, "duration": 240, "velocity": 85}, {"time": 52322, "pitch": 79, "duration": 719, "velocity": 90}, {"time": 53041, "pitch": 78, "duration": 240, "velocity": 85}, {"time": 53281, "pitch": 76, "duration": 719, "velocity": 80}, {"time": 54240, "pitch": 78, "duration": 720, "velocity": 90}, {"time": 54960, "pitch": 78, "duration": 240, "velocity": 85}, {"time": 55200, "pitch": 79, "duration": 239, "velocity": 90}, {"time": 55439, "pitch": 78, "duration": 120, "velocity": 85}, {"time": 55559, "pitch": 79, "duration": 240, "velocity": 90}, {"time": 55799, "pitch": 81, "duration": 360, "velocity": 85}, {"time": 56159, "pitch": 78, "duration": 719, "velocity": 90}, {"time": 56878, "pitch": 78, "duration": 240, "velocity": 85}, {"time": 57118, "pitch": 79, "duration": 240, "velocity": 90}, {"time": 57358, "pitch": 78, "duration": 120, "velocity": 85}, {"time": 57478, "pitch": 79, "duration": 240, "velocity": 90}, {"time": 57718, "pitch": 81, "duration": 360, "velocity": 85}, {"time": 58078, "pitch": 83, "duration": 722, "velocity": 90}, {"time": 58800, "pitch": 83, "duration": 121, "velocity": 90}, {"time": 58921, "pitch": 83, "duration": 122, "velocity": 85}, {"time": 59043, "pitch": 81, "duration": 240, "velocity": 90}, {"time": 59283, "pitch": 74, "duration": 120, "velocity": 90}, {"time": 59403, "pitch": 74, "duration": 359, "velocity": 90}, {"time": 59762, "pitch": 74, "duration": 240, "velocity": 85}, {"time": 60002, "pitch": 79, "duration": 720, "velocity": 90}, {"time": 60722, "pitch": 78, "duration": 80, "velocity": 90}, {"time": 60802, "pitch": 79, "duration": 80, "velocity": 85}, {"time": 60882, "pitch": 78, "duration": 79, "velocity": 85}, {"time": 60961, "pitch": 76, "duration": 720, "velocity": 80}, {"time": 61921, "pitch": 81, "duration": 719, "velocity": 90}, {"time": 62640, "pitch": 69, "duration": 220, "velocity": 85}, {"time": 62880, "pitch": 69, "duration": 220, "velocity": 90}, {"time": 63120, "pitch": 81, "duration": 100, "velocity": 90}, {"time": 63240, "pitch": 81, "duration": 479, "velocity": 85}, {"time": 63719, "pitch": 78, "duration": 120, "velocity": 85}, {"time": 63839, "pitch": 76, "duration": 240, "velocity": 90}, {"time": 64079, "pitch": 78, "duration": 120, "velocity": 90}, {"time": 64199, "pitch": 74, "duration": 480, "velocity": 85}, {"time": 64799, "pitch": 78, "duration": 239, "velocity": 90}, {"time": 65038, "pitch": 79, "duration": 120, "velocity": 85}, {"time": 65158, "pitch": 76, "duration": 360, "velocity": 90}, {"time": 65518, "pitch": 74, "duration": 120, "velocity": 85}, {"time": 65638, "pitch": 74, "duration": 1079, "velocity": 85}, {"time": 106079, "pitch": 76, "duration": 659, "velocity": 90}, {"time": 106798, "pitch": 76, "duration": 220, "velocity": 85}, {"time": 107038, "pitch": 77, "duration": 220, "velocity": 90}, {"time": 107278, "pitch": 76, "duration": 120, "velocity": 85}, {"time": 107398, "pitch": 74, "duration": 240, "velocity": 90}, {"time": 107638, "pitch": 76, "duration": 239, "velocity": 85}, {"time": 107877, "pitch": 72, "duration": 843, "velocity": 90}, {"time": 108720, "pitch": 74, "duration": 121, "velocity": 85}, {"time": 108841, "pitch": 76, "duration": 481, "velocity": 90}, {"time": 109442, "pitch": 72, "duration": 160, "velocity": 90}, {"time": 109602, "pitch": 74, "duration": 160, "velocity": 85}, {"time": 109762, "pitch": 76, "duration": 160, "velocity": 85}, {"time": 109922, "pitch": 81, "duration": 700, "velocity": 90}, {"time": 110642, "pitch": 81, "duration": 219, "velocity": 85}, {"time": 110881, "pitch": 79, "duration": 240, "velocity": 90}, {"time": 111121, "pitch": 79, "duration": 120, "velocity": 85}, {"time": 111241, "pitch": 84, "duration": 240, "velocity": 90}, {"time": 111481, "pitch": 76, "duration": 360, "velocity": 85}, {"time": 111841, "pitch": 76, "duration": 479, "velocity": 90}, {"time": 112320, "pitch": 76, "duration": 160, "velocity": 90}, {"time": 112480, "pitch": 74, "duration": 160, "velocity": 85}, {"time": 112640, "pitch": 72, "duration": 160, "velocity": 85}, {"time": 112800, "pitch": 74, "duration": 480, "velocity": 80}, {"time": 113399, "pitch": 67, "duration": 100, "velocity": 90}, {"time": 113519, "pitch": 67, "duration": 100, "velocity": 85}, {"time": 113639, "pitch": 67, "duration": 100, "velocity": 85}, {"time": 113759, "pitch": 81, "duration": 240, "velocity": 90}, {"time": 113999, "pitch": 79, "duration": 240, "velocity": 85}, {"time": 114239, "pitch": 76, "duration": 240, "velocity": 90}, {"time": 114479, "pitch": 74, "duration": 120, "velocity": 85}, {"time": 114599, "pitch": 72, "duration": 719, "velocity": 80}, {"time": 115438, "pitch": 72, "duration": 240, "velocity": 80}, {"time": 115678, "pitch": 81, "duration": 240, "velocity": 90}, {"time": 115918, "pitch": 79, "duration": 239, "velocity": 85}, {"time": 116157, "pitch": 79, "duration": 240, "velocity": 90}, {"time": 116397, "pitch": 79, "duration": 120, "velocity": 90}, {"time": 116517, "pitch": 84, "duration": 242, "velocity": 85}, {"time": 116759, "pitch": 76, "duration": 484, "velocity": 80}, {"time": 117243, "pitch": 72, "duration": 120, "velocity": 85}, {"time": 117363, "pitch": 74, "duration": 120, "velocity": 90}, {"time": 117483, "pitch": 76, "duration": 119, "velocity": 85}, {"time": 117602, "pitch": 77, "duration": 480, "velocity": 90}, {"time": 118082, "pitch": 76, "duration": 480, "velocity": 85}, {"time": 118562, "pitch": 74, "duration": 479, "velocity": 90}, {"time": 119041, "pitch": 72, "duration": 240, "velocity": 85}, {"time": 119281, "pitch": 72, "duration": 1679, "velocity": 80}, {"time": 121440, "pitch": 78, "duration": 719, "velocity": 90}, {"time": 122159, "pitch": 78, "duration": 240, "velocity": 85}, {"time": 122399, "pitch": 79, "duration": 240, "velocity": 90}, {"time": 122639, "pitch": 78, "duration": 120, "velocity": 85}, {"time": 122759, "pitch": 79, "duration": 240, "velocity": 90}, {"time": 122999, "pitch": 81, "duration": 359, "velocity": 85}, {"time": 123358, "pitch": 78, "duration": 720, "velocity": 90}, {"time": 124078, "pitch": 78, "duration": 240, "velocity": 85}, {"time": 124318, "pitch": 79, "duration": 239, "velocity": 90}, {"time": 124557, "pitch": 78, "duration": 120, "velocity": 85}, {"time": 124677, "pitch": 79, "duration": 242, "velocity": 90}, {"time": 124919, "pitch": 81, "duration": 364, "velocity": 85}, {"time": 125283, "pitch": 83, "duration": 719, "velocity": 90}, {"time": 126002, "pitch": 83, "duration": 120, "velocity": 90}, {"time": 126122, "pitch": 83, "duration": 120, "velocity": 85}, {"time": 126242, "pitch": 81, "duration": 240, "velocity": 90}, {"time": 126482, "pitch": 74, "duration": 120, "velocity": 90}, {"time": 126602, "pitch": 74, "duration": 360, "velocity": 90}, {"time": 126962, "pitch": 74, "duration": 240, "velocity": 85}, {"time": 127202, "pitch": 79, "duration": 719, "velocity": 90}, {"time": 127921, "pitch": 78, "duration": 240, "velocity": 85}, {"time": 128161, "pitch": 76, "duration": 719, "velocity": 80}, {"time": 129120, "pitch": 78, "duration": 720, "velocity": 90}, {"time": 129840, "pitch": 78, "duration": 239, "velocity": 85}, {"time": 130079, "pitch": 79, "duration": 240, "velocity": 90}, {"time": 130319, "pitch": 78, "duration": 120, "velocity": 85}, {"time": 130439, "pitch": 79, "duration": 240, "velocity": 90}, {"time": 130679, "pitch": 81, "duration": 360, "velocity": 85}, {"time": 131039, "pitch": 78, "duration": 719, "velocity": 90}, {"time": 131758, "pitch": 78, "duration": 240, "velocity": 85}, {"time": 131998, "pitch": 79, "duration": 240, "velocity": 90}, {"time": 132238, "pitch": 78, "duration": 120, "velocity": 85}, {"time": 132358, "pitch": 79, "duration": 240, "velocity": 90}, {"time": 132598, "pitch": 81, "duration": 359, "velocity": 85}, {"time": 132957, "pitch": 83, "duration": 726, "velocity": 90}, {"time": 133683, "pitch": 83, "duration": 120, "velocity": 90}, {"time": 133803, "pitch": 83, "duration": 120, "velocity": 85}, {"time": 133923, "pitch": 81, "duration": 240, "velocity": 90}, {"time": 134163, "pitch": 74, "duration": 119, "velocity": 90}, {"time": 134282, "pitch": 74, "duration": 360, "velocity": 90}, {"time": 134642, "pitch": 74, "duration": 240, "velocity": 85}, {"time": 134882, "pitch": 79, "duration": 240, "velocity": 90}, {"time": 135122, "pitch": 78, "duration": 240, "velocity": 85}, {"time": 135362, "pitch": 74, "duration": 239, "velocity": 85}, {"time": 135601, "pitch": 76, "duration": 1200, "velocity": 80}, {"time": 156478, "pitch": 78, "duration": 220, "velocity": 90}, {"time": 156718, "pitch": 78, "duration": 220, "velocity": 85}, {"time": 156958, "pitch": 79, "duration": 220, "velocity": 90}, {"time": 157198, "pitch": 78, "duration": 120, "velocity": 85}, {"time": 157318, "pitch": 76, "duration": 240, "velocity": 90}, {"time": 157558, "pitch": 78, "duration": 359, "velocity": 85}, {"time": 157917, "pitch": 74, "duration": 1905, "velocity": 90}, {"time": 159842, "pitch": 83, "duration": 699, "velocity": 90}, {"time": 160561, "pitch": 83, "duration": 220, "velocity": 85}, {"time": 160801, "pitch": 81, "duration": 240, "velocity": 90}, {"time": 161041, "pitch": 78, "duration": 240, "velocity": 85}, {"time": 161281, "pitch": 74, "duration": 240, "velocity": 90}, {"time": 161521, "pitch": 78, "duration": 240, "velocity": 85}, {"time": 161761, "pitch": 79, "duration": 239, "velocity": 90}, {"time": 162000, "pitch": 78, "duration": 240, "velocity": 85}, {"time": 162240, "pitch": 74, "duration": 240, "velocity": 90}, {"time": 162480, "pitch": 76, "duration": 1179, "velocity": 85}, {"time": 163679, "pitch": 81, "duration": 720, "velocity": 90}, {"time": 164399, "pitch": 69, "duration": 219, "velocity": 85}, {"time": 164638, "pitch": 69, "duration": 220, "velocity": 90}, {"time": 164878, "pitch": 81, "duration": 100, "velocity": 90}, {"time": 164998, "pitch": 81, "duration": 480, "velocity": 85}, {"time": 165478, "pitch": 78, "duration": 120, "velocity": 85}, {"time": 165598, "pitch": 76, "duration": 240, "velocity": 90}, {"time": 165838, "pitch": 78, "duration": 119, "velocity": 90}, {"time": 165957, "pitch": 74, "duration": 480, "velocity": 85}, {"time": 166557, "pitch": 78, "duration": 243, "velocity": 90}, {"time": 166800, "pitch": 79, "duration": 121, "velocity": 85}, {"time": 166921, "pitch": 76, "duration": 362, "velocity": 90}, {"time": 167283, "pitch": 74, "duration": 119, "velocity": 85}, {"time": 167402, "pitch": 74, "duration": 2019, "velocity": 85}, {"time": 46560, "pitch": 50, "duration": 939, "velocity": 105}, {"time": 46560, "pitch": 66, "duration": 480, "velocity": 110}, {"time": 46800, "pitch": 57, "duration": 359, "velocity": 100}, {"time": 46920, "pitch": 61, "duration": 359, "velocity": 105}, {"time": 47040, "pitch": 66, "duration": 359, "velocity": 110}, {"time": 47159, "pitch": 57, "duration": 340, "velocity": 100}, {"time": 47279, "pitch": 61, "duration": 220, "velocity": 105}, {"time": 47399, "pitch": 66, "duration": 100, "velocity": 90}, {"time": 47519, "pitch": 52, "duration": 939, "velocity": 105}, {"time": 47519, "pitch": 67, "duration": 480, "velocity": 110}, {"time": 47759, "pitch": 59, "duration": 360, "velocity": 100}, {"time": 47879, "pitch": 62, "duration": 360, "velocity": 105}, {"time": 47999, "pitch": 67, "duration": 360, "velocity": 110}, {"time": 48119, "pitch": 59, "duration": 339, "velocity": 100}, {"time": 48239, "pitch": 62, "duration": 219, "velocity": 105}, {"time": 48359, "pitch": 67, "duration": 99, "velocity": 90}, {"time": 48478, "pitch": 54, "duration": 940, "velocity": 105}, {"time": 48478, "pitch": 69, "duration": 480, "velocity": 110}, {"time": 48718, "pitch": 62, "duration": 360, "velocity": 100}, {"time": 48838, "pitch": 66, "duration": 360, "velocity": 105}, {"time": 48958, "pitch": 69, "duration": 360, "velocity": 110}, {"time": 49078, "pitch": 62, "duration": 340, "velocity": 100}, {"time": 49198, "pitch": 66, "duration": 220, "velocity": 105}, {"time": 49318, "pitch": 69, "duration": 100, "velocity": 90}, {"time": 49438, "pitch": 57, "duration": 479, "velocity": 105}, {"time": 49438, "pitch": 67, "duration": 479, "velocity": 110}, {"time": 49678, "pitch": 60, "duration": 359, "velocity": 100}, {"time": 49797, "pitch": 64, "duration": 360, "velocity": 105}, {"time": 49917, "pitch": 50, "duration": 480, "velocity": 105}, {"time": 49917, "pitch": 67, "duration": 360, "velocity": 110}, {"time": 50037, "pitch": 60, "duration": 340, "velocity": 100}, {"time": 50157, "pitch": 64, "duration": 220, "velocity": 105}, {"time": 50277, "pitch": 67, "duration": 100, "velocity": 90}, {"time": 50397, "pitch": 50, "duration": 945, "velocity": 105}, {"time": 50397, "pitch": 66, "duration": 486, "velocity": 110}, {"time": 50640, "pitch": 55, "duration": 363, "velocity": 100}, {"time": 50761, "pitch": 59, "duration": 362, "velocity": 105}, {"time": 50883, "pitch": 66, "duration": 360, "velocity": 110}, {"time": 51003, "pitch": 55, "duration": 339, "velocity": 100}, {"time": 51123, "pitch": 59, "duration": 219, "velocity": 105}, {"time": 51243, "pitch": 66, "duration": 99, "velocity": 90}, {"time": 51362, "pitch": 54, "duration": 940, "velocity": 105}, {"time": 51362, "pitch": 66, "duration": 480, "velocity": 110}, {"time": 51602, "pitch": 57, "duration": 360, "velocity": 100}, {"time": 51722, "pitch": 62, "duration": 360, "velocity": 105}, {"time": 51842, "pitch": 66, "duration": 360, "velocity": 110}, {"time": 51962, "pitch": 57, "duration": 340, "velocity": 100}, {"time": 52082, "pitch": 62, "duration": 220, "velocity": 105}, {"time": 52202, "pitch": 66, "duration": 100, "velocity": 90}, {"time": 52322, "pitch": 52, "duration": 939, "velocity": 105}, {"time": 52322, "pitch": 67, "duration": 479, "velocity": 110}, {"time": 52562, "pitch": 59, "duration": 359, "velocity": 100}, {"time": 52681, "pitch": 62, "duration": 360, "velocity": 105}, {"time": 52801, "pitch": 67, "duration": 360, "velocity": 110}, {"time": 52921, "pitch": 59, "duration": 340, "velocity": 100}, {"time": 53041, "pitch": 62, "duration": 220, "velocity": 105}, {"time": 53161, "pitch": 67, "duration": 100, "velocity": 90}, {"time": 53281, "pitch": 57, "duration": 480, "velocity": 105}, {"time": 53281, "pitch": 67, "duration": 480, "velocity": 110}, {"time": 53521, "pitch": 59, "duration": 360, "velocity": 100}, {"time": 53641, "pitch": 62, "duration": 359, "velocity": 105}, {"time": 53761, "pitch": 57, "duration": 479, "velocity": 105}, {"time": 53761, "pitch": 67, "duration": 359, "velocity": 110}, {"time": 53881, "pitch": 61, "duration": 339, "velocity": 100}, {"time": 54000, "pitch": 64, "duration": 220, "velocity": 105}, {"time": 54120, "pitch": 67, "duration": 100, "velocity": 90}, {"time": 54240, "pitch": 50, "duration": 940, "velocity": 105}, {"time": 54240, "pitch": 66, "duration": 480, "velocity": 110}, {"time": 54480, "pitch": 57, "duration": 360, "velocity": 100}, {"time": 54600, "pitch": 61, "duration": 360, "velocity": 105}, {"time": 54720, "pitch": 66, "duration": 360, "velocity": 110}, {"time": 54840, "pitch": 57, "duration": 340, "velocity": 100}, {"time": 54960, "pitch": 61, "duration": 220, "velocity": 105}, {"time": 55080, "pitch": 66, "duration": 100, "velocity": 90}, {"time": 55200, "pitch": 52, "duration": 939, "velocity": 105}, {"time": 55200, "pitch": 67, "duration": 479, "velocity": 110}, {"time": 55439, "pitch": 59, "duration": 360, "velocity": 100}, {"time": 55559, "pitch": 62, "duration": 360, "velocity": 105}, {"time": 55679, "pitch": 67, "duration": 360, "velocity": 110}, {"time": 55799, "pitch": 59, "duration": 340, "velocity": 100}, {"time": 55919, "pitch": 62, "duration": 220, "velocity": 105}, {"time": 56039, "pitch": 67, "duration": 100, "velocity": 90}, {"time": 56159, "pitch": 54, "duration": 939, "velocity": 105}, {"time": 56159, "pitch": 69, "duration": 480, "velocity": 110}, {"time": 56399, "pitch": 62, "duration": 359, "velocity": 100}, {"time": 56519, "pitch": 66, "duration": 359, "velocity": 105}, {"time": 56639, "pitch": 69, "duration": 359, "velocity": 110}, {"time": 56758, "pitch": 62, "duration": 340, "velocity": 100}, {"time": 56878, "pitch": 66, "duration": 220, "velocity": 105}, {"time": 56998, "pitch": 69, "duration": 100, "velocity": 90}, {"time": 57118, "pitch": 57, "duration": 480, "velocity": 105}, {"time": 57118, "pitch": 67, "duration": 480, "velocity": 110}, {"time": 57358, "pitch": 60, "duration": 360, "velocity": 100}, {"time": 57478, "pitch": 64, "duration": 360, "velocity": 105}, {"time": 57598, "pitch": 50, "duration": 480, "velocity": 105}, {"time": 57598, "pitch": 67, "duration": 360, "velocity": 110}, {"time": 57718, "pitch": 60, "duration": 340, "velocity": 100}, {"time": 57838, "pitch": 64, "duration": 220, "velocity": 105}, {"time": 57958, "pitch": 67, "duration": 100, "velocity": 90}, {"time": 58078, "pitch": 50, "duration": 945, "velocity": 105}, {"time": 58078, "pitch": 66, "duration": 479, "velocity": 110}, {"time": 58317, "pitch": 55, "duration": 362, "velocity": 100}, {"time": 58437, "pitch": 59, "duration": 363, "velocity": 105}, {"time": 58557, "pitch": 66, "duration": 364, "velocity": 110}, {"time": 58679, "pitch": 55, "duration": 344, "velocity": 100}, {"time": 58800, "pitch": 59, "duration": 223, "velocity": 105}, {"time": 58921, "pitch": 66, "duration": 102, "velocity": 90}, {"time": 59043, "pitch": 54, "duration": 939, "velocity": 105}, {"time": 59043, "pitch": 66, "duration": 480, "velocity": 110}, {"time": 59283, "pitch": 57, "duration": 359, "velocity": 100}, {"time": 59403, "pitch": 62, "duration": 359, "velocity": 105}, {"time": 59523, "pitch": 66, "duration": 359, "velocity": 110}, {"time": 59642, "pitch": 57, "duration": 340, "velocity": 100}, {"time": 59762, "pitch": 62, "duration": 220, "velocity": 105}, {"time": 59882, "pitch": 66, "duration": 100, "velocity": 90}, {"time": 60002, "pitch": 52, "duration": 460, "velocity": 105}, {"time": 60002, "pitch": 67, "duration": 460, "velocity": 110}, {"time": 60242, "pitch": 59, "duration": 220, "velocity": 100}, {"time": 60362, "pitch": 62, "duration": 100, "velocity": 105}, {"time": 60482, "pitch": 54, "duration": 459, "velocity": 105}, {"time": 60482, "pitch": 66, "duration": 459, "velocity": 110}, {"time": 60722, "pitch": 59, "duration": 219, "velocity": 100}, {"time": 60921, "pitch": 40, "duration": 940, "velocity": 85}, {"time": 60941, "pitch": 46, "duration": 920, "velocity": 80}, {"time": 60961, "pitch": 52, "duration": 900, "velocity": 85}, {"time": 60981, "pitch": 55, "duration": 880, "velocity": 90}, {"time": 60991, "pitch": 58, "duration": 870, "velocity": 95}, {"time": 61001, "pitch": 64, "duration": 860, "velocity": 100}, {"time": 61881, "pitch": 42, "duration": 1898, "velocity": 85}, {"time": 61901, "pitch": 45, "duration": 1878, "velocity": 80}, {"time": 61921, "pitch": 54, "duration": 1858, "velocity": 85}, {"time": 61941, "pitch": 57, "duration": 1838, "velocity": 90}, {"time": 61951, "pitch": 61, "duration": 1828, "velocity": 95}, {"time": 61961, "pitch": 64, "duration": 1818, "velocity": 100}, {"time": 63799, "pitch": 40, "duration": 940, "velocity": 85}, {"time": 63819, "pitch": 47, "duration": 920, "velocity": 80}, {"time": 63839, "pitch": 50, "duration": 900, "velocity": 85}, {"time": 63859, "pitch": 55, "duration": 880, "velocity": 90}, {"time": 63869, "pitch": 59, "duration": 870, "velocity": 95}, {"time": 63879, "pitch": 64, "duration": 860, "velocity": 100}, {"time": 64759, "pitch": 45, "duration": 939, "velocity": 85}, {"time": 64779, "pitch": 47, "duration": 919, "velocity": 80}, {"time": 64799, "pitch": 50, "duration": 899, "velocity": 85}, {"time": 64819, "pitch": 55, "duration": 879, "velocity": 90}, {"time": 64829, "pitch": 59, "duration": 869, "velocity": 95}, {"time": 64839, "pitch": 64, "duration": 859, "velocity": 100}, {"time": 65718, "pitch": 42, "duration": 1905, "velocity": 85}, {"time": 65738, "pitch": 45, "duration": 1885, "velocity": 80}, {"time": 65758, "pitch": 54, "duration": 1865, "velocity": 85}, {"time": 65778, "pitch": 57, "duration": 1845, "velocity": 90}, {"time": 65788, "pitch": 62, "duration": 1835, "velocity": 95}, {"time": 65798, "pitch": 66, "duration": 1825, "velocity": 100}, {"time": 67683, "pitch": 53, "duration": 959, "velocity": 90}, {"time": 67922, "pitch": 55, "duration": 480, "velocity": 95}, {"time": 68162, "pitch": 62, "duration": 960, "velocity": 100}, {"time": 68402, "pitch": 55, "duration": 480, "velocity": 95}, {"time": 68642, "pitch": 53, "duration": 959, "velocity": 90}, {"time": 68882, "pitch": 55, "duration": 479, "velocity": 95}, {"time": 69122, "pitch": 62, "duration": 479, "velocity": 100}, {"time": 69361, "pitch": 55, "duration": 240, "velocity": 95}, {"time": 69601, "pitch": 52, "duration": 960, "velocity": 90}, {"time": 69841, "pitch": 55, "duration": 480, "velocity": 95}, {"time": 70081, "pitch": 62, "duration": 959, "velocity": 100}, {"time": 70321, "pitch": 55, "duration": 479, "velocity": 95}, {"time": 70561, "pitch": 52, "duration": 959, "velocity": 90}, {"time": 70800, "pitch": 55, "duration": 480, "velocity": 95}, {"time": 71040, "pitch": 62, "duration": 480, "velocity": 100}, {"time": 71280, "pitch": 55, "duration": 240, "velocity": 95}, {"time": 71520, "pitch": 50, "duration": 959, "velocity": 90}, {"time": 71760, "pitch": 55, "duration": 479, "velocity": 95}, {"time": 71999, "pitch": 62, "duration": 960, "velocity": 100}, {"time": 72239, "pitch": 55, "duration": 480, "velocity": 95}, {"time": 72479, "pitch": 50, "duration": 959, "velocity": 90}, {"time": 72719, "pitch": 55, "duration": 480, "velocity": 95}, {"time": 72959, "pitch": 62, "duration": 479, "velocity": 100}, {"time": 73199, "pitch": 55, "duration": 239, "velocity": 95}, {"time": 73438, "pitch": 52, "duration": 960, "velocity": 90}, {"time": 73678, "pitch": 55, "duration": 480, "velocity": 95}, {"time": 73918, "pitch": 62, "duration": 959, "velocity": 100}, {"time": 74158, "pitch": 55, "duration": 480, "velocity": 95}, {"time": 74398, "pitch": 52, "duration": 959, "velocity": 90}, {"time": 74638, "pitch": 55, "duration": 479, "velocity": 95}, {"time": 74877, "pitch": 62, "duration": 480, "velocity": 100}, {"time": 75117, "pitch": 55, "duration": 240, "velocity": 95}, {"time": 75357, "pitch": 53, "duration": 965, "velocity": 90}, {"time": 75600, "pitch": 55, "duration": 483, "velocity": 95}, {"time": 75843, "pitch": 62, "duration": 959, "velocity": 100}, {"time": 76083, "pitch": 55, "duration": 479, "velocity": 95}, {"time": 76322, "pitch": 53, "duration": 960, "velocity": 90}, {"time": 76562, "pitch": 55, "duration": 480, "velocity": 95}, {"time": 76802, "pitch": 62, "duration": 480, "velocity": 100}, {"time": 77042, "pitch": 55, "duration": 240, "velocity": 95}, {"time": 77282, "pitch": 52, "duration": 959, "velocity": 90}, {"time": 77521, "pitch": 55, "duration": 480, "velocity": 95}, {"time": 77761, "pitch": 62, "duration": 960, "velocity": 100}, {"time": 78001, "pitch": 55, "duration": 480, "velocity": 95}, {"time": 78241, "pitch": 52, "duration": 959, "velocity": 90}, {"time": 78481, "pitch": 55, "duration": 479, "velocity": 95}, {"time": 78721, "pitch": 62, "duration": 479, "velocity": 100}, {"time": 78960, "pitch": 55, "duration": 240, "velocity": 95}, {"time": 79200, "pitch": 50, "duration": 960, "velocity": 90}, {"time": 79440, "pitch": 55, "duration": 480, "velocity": 95}, {"time": 79680, "pitch": 62, "duration": 959, "velocity": 100}, {"time": 79920, "pitch": 55, "duration": 479, "velocity": 95}, {"time": 80160, "pitch": 50, "duration": 959, "velocity": 90}, {"time": 80399, "pitch": 55, "duration": 480, "velocity": 95}, {"time": 80639, "pitch": 62, "duration": 480, "velocity": 100}, {"time": 80879, "pitch": 55, "duration": 240, "velocity": 95}, {"time": 81119, "pitch": 52, "duration": 959, "velocity": 90}, {"time": 81359, "pitch": 55, "duration": 479, "velocity": 95}, {"time": 81598, "pitch": 62, "duration": 960, "velocity": 100}, {"time": 81838, "pitch": 55, "duration": 480, "velocity": 95}, {"time": 82078, "pitch": 52, "duration": 959, "velocity": 90}, {"time": 82318, "pitch": 55, "duration": 480, "velocity": 95}, {"time": 82558, "pitch": 62, "duration": 479, "velocity": 100}, {"time": 82798, "pitch": 55, "duration": 239, "velocity": 95}, {"time": 83037, "pitch": 53, "duration": 966, "velocity": 90}, {"time": 83277, "pitch": 55, "duration": 483, "velocity": 95}, {"time": 83517, "pitch": 62, "duration": 965, "velocity": 100}, {"time": 83760, "pitch": 55, "duration": 483, "velocity": 95}, {"time": 84003, "pitch": 53, "duration": 959, "velocity": 90}, {"time": 84243, "pitch": 55, "duration": 479, "velocity": 95}, {"time": 84482, "pitch": 62, "duration": 480, "velocity": 100}, {"time": 84722, "pitch": 55, "duration": 240, "velocity": 95}, {"time": 84962, "pitch": 52, "duration": 959, "velocity": 90}, {"time": 85202, "pitch": 55, "duration": 480, "velocity": 95}, {"time": 85442, "pitch": 62, "duration": 959, "velocity": 100}, {"time": 85682, "pitch": 55, "duration": 479, "velocity": 95}, {"time": 85921, "pitch": 52, "duration": 960, "velocity": 90}, {"time": 86161, "pitch": 55, "duration": 480, "velocity": 95}, {"time": 86401, "pitch": 62, "duration": 480, "velocity": 100}, {"time": 86641, "pitch": 55, "duration": 240, "velocity": 95}, {"time": 86881, "pitch": 50, "duration": 959, "velocity": 90}, {"time": 87121, "pitch": 55, "duration": 479, "velocity": 95}, {"time": 87360, "pitch": 62, "duration": 960, "velocity": 100}, {"time": 87600, "pitch": 55, "duration": 480, "velocity": 95}, {"time": 87840, "pitch": 50, "duration": 959, "velocity": 90}, {"time": 88080, "pitch": 55, "duration": 479, "velocity": 95}, {"time": 88320, "pitch": 62, "duration": 439, "velocity": 100}, {"time": 88559, "pitch": 55, "duration": 200, "velocity": 95}, {"time": 88759, "pitch": 43, "duration": 1899, "velocity": 85}, {"time": 88779, "pitch": 45, "duration": 1879, "velocity": 80}, {"time": 88799, "pitch": 50, "duration": 1859, "velocity": 85}, {"time": 88819, "pitch": 57, "duration": 1839, "velocity": 90}, {"time": 88829, "pitch": 60, "duration": 1829, "velocity": 95}, {"time": 88839, "pitch": 65, "duration": 1819, "velocity": 100}, {"time": 120920, "pitch": 45, "duration": 490, "velocity": 85}, {"time": 120930, "pitch": 50, "duration": 480, "velocity": 90}, {"time": 120940, "pitch": 59, "duration": 470, "velocity": 95}, {"time": 120950, "pitch": 62, "duration": 460, "velocity": 100}, {"time": 120960, "pitch": 67, "duration": 450, "velocity": 105}, {"time": 121440, "pitch": 50, "duration": 939, "velocity": 105}, {"time": 121440, "pitch": 66, "duration": 479, "velocity": 110}, {"time": 121679, "pitch": 57, "duration": 360, "velocity": 100}, {"time": 121799, "pitch": 61, "duration": 360, "velocity": 105}, {"time": 121919, "pitch": 66, "duration": 360, "velocity": 110}, {"time": 122039, "pitch": 57, "duration": 340, "velocity": 100}, {"time": 122159, "pitch": 61, "duration": 220, "velocity": 105}, {"time": 122279, "pitch": 66, "duration": 100, "velocity": 90}, {"time": 122399, "pitch": 52, "duration": 939, "velocity": 105}, {"time": 122399, "pitch": 67, "duration": 480, "velocity": 110}, {"time": 122639, "pitch": 59, "duration": 360, "velocity": 100}, {"time": 122759, "pitch": 62, "duration": 359, "velocity": 105}, {"time": 122879, "pitch": 67, "duration": 359, "velocity": 110}, {"time": 122999, "pitch": 59, "duration": 339, "velocity": 100}, {"time": 123118, "pitch": 62, "duration": 220, "velocity": 105}, {"time": 123238, "pitch": 67, "duration": 100, "velocity": 90}, {"time": 123358, "pitch": 54, "duration": 940, "velocity": 105}, {"time": 123358, "pitch": 69, "duration": 480, "velocity": 110}, {"time": 123598, "pitch": 62, "duration": 360, "velocity": 100}, {"time": 123718, "pitch": 66, "duration": 360, "velocity": 105}, {"time": 123838, "pitch": 69, "duration": 360, "velocity": 110}, {"time": 123958, "pitch": 62, "duration": 340, "velocity": 100}, {"time": 124078, "pitch": 66, "duration": 220, "velocity": 105}, {"time": 124198, "pitch": 69, "duration": 100, "velocity": 90}, {"time": 124318, "pitch": 57, "duration": 479, "velocity": 105}, {"time": 124318, "pitch": 67, "duration": 479, "velocity": 110}, {"time": 124557, "pitch": 60, "duration": 362, "velocity": 100}, {"time": 124677, "pitch": 64, "duration": 363, "velocity": 105}, {"time": 124797, "pitch": 50, "duration": 486, "velocity": 105}, {"time": 124797, "pitch": 67, "duration": 365, "velocity": 110}, {"time": 124919, "pitch": 60, "duration": 344, "velocity": 100}, {"time": 125040, "pitch": 64, "duration": 223, "velocity": 105}, {"time": 125162, "pitch": 67, "duration": 101, "velocity": 90}, {"time": 125283, "pitch": 50, "duration": 939, "velocity": 105}, {"time": 125283, "pitch": 66, "duration": 480, "velocity": 110}, {"time": 125523, "pitch": 55, "duration": 359, "velocity": 100}, {"time": 125643, "pitch": 59, "duration": 359, "velocity": 105}, {"time": 125763, "pitch": 66, "duration": 359, "velocity": 110}, {"time": 125882, "pitch": 55, "duration": 340, "velocity": 100}, {"time": 126002, "pitch": 59, "duration": 220, "velocity": 105}, {"time": 126122, "pitch": 66, "duration": 100, "velocity": 90}, {"time": 126242, "pitch": 54, "duration": 940, "velocity": 105}, {"time": 126242, "pitch": 66, "duration": 480, "velocity": 110}, {"time": 126482, "pitch": 57, "duration": 360, "velocity": 100}, {"time": 126602, "pitch": 62, "duration": 360, "velocity": 105}, {"time": 126722, "pitch": 66, "duration": 360, "velocity": 110}, {"time": 126842, "pitch": 57, "duration": 340, "velocity": 100}, {"time": 126962, "pitch": 62, "duration": 220, "velocity": 105}, {"time": 127082, "pitch": 66, "duration": 100, "velocity": 90}, {"time": 127202, "pitch": 52, "duration": 939, "velocity": 105}, {"time": 127202, "pitch": 67, "duration": 479, "velocity": 110}, {"time": 127441, "pitch": 59, "duration": 360, "velocity": 100}, {"time": 127561, "pitch": 62, "duration": 360, "velocity": 105}, {"time": 127681, "pitch": 67, "duration": 360, "velocity": 110}, {"time": 127801, "pitch": 59, "duration": 340, "velocity": 100}, {"time": 127921, "pitch": 62, "duration": 220, "velocity": 105}, {"time": 128041, "pitch": 67, "duration": 100, "velocity": 90}, {"time": 128161, "pitch": 57, "duration": 479, "velocity": 105}, {"time": 128161, "pitch": 67, "duration": 479, "velocity": 110}, {"time": 128401, "pitch": 59, "duration": 359, "velocity": 100}, {"time": 128521, "pitch": 62, "duration": 359, "velocity": 105}, {"time": 128640, "pitch": 57, "duration": 480, "velocity": 105}, {"time": 128640, "pitch": 67, "duration": 360, "velocity": 110}, {"time": 128760, "pitch": 61, "duration": 340, "velocity": 100}, {"time": 128880, "pitch": 64, "duration": 220, "velocity": 105}, {"time": 129000, "pitch": 67, "duration": 100, "velocity": 90}, {"time": 129120, "pitch": 50, "duration": 939, "velocity": 105}, {"time": 129120, "pitch": 66, "duration": 480, "velocity": 110}, {"time": 129360, "pitch": 57, "duration": 360, "velocity": 100}, {"time": 129480, "pitch": 61, "duration": 360, "velocity": 105}, {"time": 129600, "pitch": 66, "duration": 360, "velocity": 110}, {"time": 129720, "pitch": 57, "duration": 339, "velocity": 100}, {"time": 129840, "pitch": 61, "duration": 219, "velocity": 105}, {"time": 129960, "pitch": 66, "duration": 99, "velocity": 90}, {"time": 130079, "pitch": 52, "duration": 940, "velocity": 105}, {"time": 130079, "pitch": 67, "duration": 480, "velocity": 110}, {"time": 130319, "pitch": 59, "duration": 360, "velocity": 100}, {"time": 130439, "pitch": 62, "duration": 360, "velocity": 105}, {"time": 130559, "pitch": 67, "duration": 360, "velocity": 110}, {"time": 130679, "pitch": 59, "duration": 340, "velocity": 100}, {"time": 130799, "pitch": 62, "duration": 220, "velocity": 105}, {"time": 130919, "pitch": 67, "duration": 100, "velocity": 90}, {"time": 131039, "pitch": 54, "duration": 939, "velocity": 105}, {"time": 131039, "pitch": 69, "duration": 479, "velocity": 110}, {"time": 131279, "pitch": 62, "duration": 359, "velocity": 100}, {"time": 131398, "pitch": 66, "duration": 360, "velocity": 105}, {"time": 131518, "pitch": 69, "duration": 360, "velocity": 110}, {"time": 131638, "pitch": 62, "duration": 340, "velocity": 100}, {"time": 131758, "pitch": 66, "duration": 220, "velocity": 105}, {"time": 131878, "pitch": 69, "duration": 100, "velocity": 90}, {"time": 131998, "pitch": 57, "duration": 480, "velocity": 105}, {"time": 131998, "pitch": 67, "duration": 480, "velocity": 110}, {"time": 132238, "pitch": 60, "duration": 360, "velocity": 100}, {"time": 132358, "pitch": 64, "duration": 359, "velocity": 105}, {"time": 132478, "pitch": 50, "duration": 479, "velocity": 105}, {"time": 132478, "pitch": 67, "duration": 359, "velocity": 110}, {"time": 132598, "pitch": 60, "duration": 339, "velocity": 100}, {"time": 132717, "pitch": 64, "duration": 220, "velocity": 105}, {"time": 132837, "pitch": 67, "duration": 100, "velocity": 90}, {"time": 132957, "pitch": 50, "duration": 946, "velocity": 105}, {"time": 132957, "pitch": 66, "duration": 486, "velocity": 110}, {"time": 133200, "pitch": 55, "duration": 363, "velocity": 100}, {"time": 133322, "pitch": 59, "duration": 361, "velocity": 105}, {"time": 133443, "pitch": 66, "duration": 360, "velocity": 110}, {"time": 133563, "pitch": 55, "duration": 340, "velocity": 100}, {"time": 133683, "pitch": 59, "duration": 220, "velocity": 105}, {"time": 133803, "pitch": 66, "duration": 100, "velocity": 90}, {"time": 133923, "pitch": 54, "duration": 939, "velocity": 105}, {"time": 133923, "pitch": 66, "duration": 479, "velocity": 110}, {"time": 134163, "pitch": 57, "duration": 359, "velocity": 100}, {"time": 134282, "pitch": 62, "duration": 360, "velocity": 105}, {"time": 134402, "pitch": 66, "duration": 360, "velocity": 110}, {"time": 134522, "pitch": 57, "duration": 340, "velocity": 100}, {"time": 134642, "pitch": 62, "duration": 220, "velocity": 105}, {"time": 134762, "pitch": 66, "duration": 100, "velocity": 90}, {"time": 134882, "pitch": 52, "duration": 460, "velocity": 105}, {"time": 134882, "pitch": 67, "duration": 460, "velocity": 110}, {"time": 135362, "pitch": 50, "duration": 160, "velocity": 105}, {"time": 135362, "pitch": 66, "duration": 160, "velocity": 110}, {"time": 135561, "pitch": 40, "duration": 3138, "velocity": 85}, {"time": 135581, "pitch": 46, "duration": 3118, "velocity": 80}, {"time": 135601, "pitch": 52, "duration": 3098, "velocity": 85}, {"time": 135621, "pitch": 55, "duration": 3078, "velocity": 90}, {"time": 135631, "pitch": 58, "duration": 3068, "velocity": 95}, {"time": 135641, "pitch": 64, "duration": 3058, "velocity": 100}, {"time": 155999, "pitch": 50, "duration": 939, "velocity": 110}, {"time": 156238, "pitch": 57, "duration": 700, "velocity": 100}, {"time": 156478, "pitch": 61, "duration": 460, "velocity": 105}, {"time": 156718, "pitch": 66, "duration": 220, "velocity": 110}, {"time": 156958, "pitch": 54, "duration": 939, "velocity": 110}, {"time": 157198, "pitch": 58, "duration": 699, "velocity": 100}, {"time": 157438, "pitch": 61, "duration": 459, "velocity": 105}, {"time": 157677, "pitch": 64, "duration": 220, "velocity": 110}, {"time": 157917, "pitch": 47, "duration": 966, "velocity": 110}, {"time": 158160, "pitch": 57, "duration": 962, "velocity": 100}, {"time": 158403, "pitch": 59, "duration": 959, "velocity": 105}, {"time": 158643, "pitch": 66, "duration": 959, "velocity": 110}, {"time": 158883, "pitch": 45, "duration": 939, "velocity": 110}, {"time": 159122, "pitch": 57, "duration": 700, "velocity": 100}, {"time": 159362, "pitch": 59, "duration": 460, "velocity": 105}, {"time": 159602, "pitch": 66, "duration": 220, "velocity": 110}, {"time": 159842, "pitch": 50, "duration": 939, "velocity": 110}, {"time": 160082, "pitch": 55, "duration": 699, "velocity": 100}, {"time": 160322, "pitch": 59, "duration": 459, "velocity": 105}, {"time": 160561, "pitch": 66, "duration": 220, "velocity": 110}, {"time": 160801, "pitch": 54, "duration": 460, "velocity": 110}, {"time": 161041, "pitch": 57, "duration": 220, "velocity": 100}, {"time": 161281, "pitch": 47, "duration": 460, "velocity": 105}, {"time": 161521, "pitch": 54, "duration": 220, "velocity": 100}, {"time": 161761, "pitch": 52, "duration": 939, "velocity": 110}, {"time": 162000, "pitch": 59, "duration": 700, "velocity": 100}, {"time": 162240, "pitch": 62, "duration": 460, "velocity": 105}, {"time": 162480, "pitch": 67, "duration": 220, "velocity": 110}, {"time": 162720, "pitch": 52, "duration": 939, "velocity": 110}, {"time": 162960, "pitch": 57, "duration": 699, "velocity": 100}, {"time": 163199, "pitch": 61, "duration": 460, "velocity": 105}, {"time": 163439, "pitch": 64, "duration": 160, "velocity": 110}, {"time": 163619, "pitch": 42, "duration": 1899, "velocity": 85}, {"time": 163639, "pitch": 45, "duration": 1879, "velocity": 80}, {"time": 163659, "pitch": 54, "duration": 1859, "velocity": 85}, {"time": 163679, "pitch": 57, "duration": 1839, "velocity": 90}, {"time": 163689, "pitch": 61, "duration": 1829, "velocity": 95}, {"time": 163699, "pitch": 64, "duration": 1819, "velocity": 100}, {"time": 165538, "pitch": 40, "duration": 939, "velocity": 85}, {"time": 165548, "pitch": 47, "duration": 929, "velocity": 80}, {"time": 165558, "pitch": 50, "duration": 919, "velocity": 85}, {"time": 165568, "pitch": 55, "duration": 909, "velocity": 90}, {"time": 165578, "pitch": 59, "duration": 899, "velocity": 95}, {"time": 165588, "pitch": 64, "duration": 889, "velocity": 100}, {"time": 166497, "pitch": 45, "duration": 1005, "velocity": 85}, {"time": 166507, "pitch": 47, "duration": 995, "velocity": 80}, {"time": 166517, "pitch": 50, "duration": 985, "velocity": 85}, {"time": 166527, "pitch": 55, "duration": 975, "velocity": 90}, {"time": 166537, "pitch": 59, "duration": 965, "velocity": 95}, {"time": 166547, "pitch": 64, "duration": 955, "velocity": 100}, {"time": 167522, "pitch": 47, "duration": 960, "velocity": 110}, {"time": 167762, "pitch": 57, "duration": 959, "velocity": 100}, {"time": 168002, "pitch": 59, "duration": 959, "velocity": 105}, {"time": 168242, "pitch": 66, "duration": 959, "velocity": 110}, {"time": 168482, "pitch": 45, "duration": 879, "velocity": 110}, {"time": 168721, "pitch": 57, "duration": 640, "velocity": 100}, {"time": 168961, "pitch": 59, "duration": 400, "velocity": 105}, {"time": 169201, "pitch": 66, "duration": 160, "velocity": 110}, {"time": 169381, "pitch": 43, "duration": 939, "velocity": 85}, {"time": 169391, "pitch": 47, "duration": 929, "velocity": 80}, {"time": 169401, "pitch": 50, "duration": 919, "velocity": 85}, {"time": 169411, "pitch": 55, "duration": 909, "velocity": 90}, {"time": 169421, "pitch": 59, "duration": 899, "velocity": 95}, {"time": 169431, "pitch": 64, "duration": 889, "velocity": 100}, {"time": 170340, "pitch": 45, "duration": 940, "velocity": 85}, {"time": 170350, "pitch": 47, "duration": 930, "velocity": 80}, {"time": 170360, "pitch": 50, "duration": 920, "velocity": 85}, {"time": 170370, "pitch": 55, "duration": 910, "velocity": 90}, {"time": 170380, "pitch": 59, "duration": 900, "velocity": 95}, {"time": 170390, "pitch": 66, "duration": 890, "velocity": 100}, {"time": 171300, "pitch": 42, "duration": 1928, "velocity": 85}, {"time": 171320, "pitch": 45, "duration": 1938, "velocity": 80}, {"time": 171340, "pitch": 50, "duration": 1918, "velocity": 85}, {"time": 171360, "pitch": 57, "duration": 1898, "velocity": 90}, {"time": 171370, "pitch": 61, "duration": 1888, "velocity": 95}, {"time": 171380, "pitch": 66, "duration": 1878, "velocity": 100}, {"time": 173278, "pitch": 53, "duration": 959, "velocity": 90}, {"time": 173518, "pitch": 55, "duration": 480, "velocity": 95}, {"time": 173758, "pitch": 62, "duration": 959, "velocity": 100}, {"time": 173998, "pitch": 55, "duration": 479, "velocity": 95}, {"time": 174237, "pitch": 53, "duration": 966, "velocity": 90}, {"time": 174477, "pitch": 55, "duration": 483, "velocity": 95}, {"time": 174717, "pitch": 62, "duration": 486, "velocity": 100}, {"time": 174960, "pitch": 55, "duration": 243, "velocity": 95}, {"time": 175203, "pitch": 52, "duration": 959, "velocity": 90}, {"time": 175443, "pitch": 55, "duration": 479, "velocity": 95}, {"time": 175682, "pitch": 62, "duration": 960, "velocity": 100}, {"time": 175922, "pitch": 55, "duration": 480, "velocity": 95}, {"time": 176162, "pitch": 52, "duration": 959, "velocity": 90}, {"time": 176402, "pitch": 55, "duration": 480, "velocity": 95}, {"time": 176642, "pitch": 62, "duration": 479, "velocity": 100}, {"time": 176882, "pitch": 55, "duration": 239, "velocity": 95}, {"time": 177121, "pitch": 50, "duration": 960, "velocity": 90}, {"time": 177361, "pitch": 55, "duration": 480, "velocity": 95}, {"time": 177601, "pitch": 62, "duration": 959, "velocity": 100}, {"time": 177841, "pitch": 55, "duration": 480, "velocity": 95}, {"time": 178081, "pitch": 50, "duration": 959, "velocity": 90}, {"time": 178321, "pitch": 55, "duration": 479, "velocity": 95}, {"time": 178560, "pitch": 62, "duration": 480, "velocity": 100}, {"time": 178800, "pitch": 55, "duration": 240, "velocity": 95}, {"time": 179040, "pitch": 52, "duration": 959, "velocity": 90}, {"time": 179280, "pitch": 55, "duration": 479, "velocity": 95}, {"time": 179520, "pitch": 62, "duration": 959, "velocity": 100}, {"time": 179759, "pitch": 55, "duration": 480, "velocity": 95}, {"time": 179999, "pitch": 52, "duration": 960, "velocity": 90}, {"time": 180239, "pitch": 55, "duration": 480, "velocity": 95}, {"time": 180479, "pitch": 62, "duration": 480, "velocity": 100}, {"time": 180719, "pitch": 55, "duration": 240, "velocity": 95}, {"time": 180959, "pitch": 53, "duration": 959, "velocity": 90}, {"time": 181198, "pitch": 55, "duration": 480, "velocity": 95}, {"time": 181438, "pitch": 62, "duration": 960, "velocity": 100}, {"time": 181678, "pitch": 55, "duration": 480, "velocity": 95}, {"time": 181918, "pitch": 53, "duration": 959, "velocity": 90}, {"time": 182158, "pitch": 55, "duration": 479, "velocity": 95}, {"time": 182398, "pitch": 62, "duration": 479, "velocity": 100}, {"time": 182637, "pitch": 55, "duration": 240, "velocity": 95}, {"time": 182877, "pitch": 52, "duration": 966, "velocity": 90}, {"time": 183120, "pitch": 55, "duration": 483, "velocity": 95}, {"time": 183363, "pitch": 62, "duration": 959, "velocity": 100}, {"time": 183603, "pitch": 55, "duration": 479, "velocity": 95}, {"time": 183843, "pitch": 52, "duration": 959, "velocity": 90}, {"time": 184082, "pitch": 55, "duration": 480, "velocity": 95}, {"time": 184322, "pitch": 62, "duration": 480, "velocity": 100}, {"time": 184562, "pitch": 55, "duration": 240, "velocity": 95}, {"time": 184802, "pitch": 50, "duration": 959, "velocity": 90}, {"time": 185042, "pitch": 55, "duration": 479, "velocity": 95}, {"time": 185281, "pitch": 62, "duration": 960, "velocity": 100}, {"time": 185521, "pitch": 55, "duration": 480, "velocity": 95}, {"time": 185761, "pitch": 50, "duration": 959, "velocity": 90}, {"time": 186001, "pitch": 55, "duration": 480, "velocity": 95}, {"time": 186241, "pitch": 62, "duration": 479, "velocity": 100}, {"time": 186481, "pitch": 55, "duration": 239, "velocity": 95}, {"time": 186720, "pitch": 52, "duration": 960, "velocity": 90}, {"time": 186960, "pitch": 55, "duration": 480, "velocity": 95}, {"time": 187200, "pitch": 62, "duration": 959, "velocity": 100}, {"time": 187440, "pitch": 55, "duration": 480, "velocity": 95}, {"time": 187680, "pitch": 52, "duration": 959, "velocity": 90}, {"time": 187920, "pitch": 55, "duration": 479, "velocity": 95}, {"time": 188159, "pitch": 62, "duration": 480, "velocity": 100}, {"time": 188399, "pitch": 55, "duration": 240, "velocity": 95}, {"time": 188639, "pitch": 53, "duration": 959, "velocity": 90}, {"time": 188879, "pitch": 55, "duration": 480, "velocity": 95}, {"time": 189119, "pitch": 62, "duration": 959, "velocity": 100}, {"time": 189359, "pitch": 55, "duration": 479, "velocity": 95}, {"time": 189598, "pitch": 53, "duration": 960, "velocity": 90}, {"time": 189838, "pitch": 55, "duration": 480, "velocity": 95}, {"time": 190078, "pitch": 62, "duration": 480, "velocity": 100}, {"time": 190318, "pitch": 55, "duration": 240, "velocity": 95}, {"time": 190558, "pitch": 52, "duration": 959, "velocity": 90}, {"time": 190797, "pitch": 55, "duration": 480, "velocity": 95}, {"time": 191037, "pitch": 62, "duration": 960, "velocity": 100}, {"time": 191277, "pitch": 55, "duration": 480, "velocity": 95}, {"time": 191517, "pitch": 52, "duration": 959, "velocity": 90}, {"time": 191757, "pitch": 55, "duration": 479, "velocity": 95}, {"time": 191997, "pitch": 62, "duration": 479, "velocity": 100}, {"time": 192236, "pitch": 55, "duration": 240, "velocity": 95}, {"time": 192476, "pitch": 50, "duration": 960, "velocity": 90}, {"time": 192716, "pitch": 55, "duration": 480, "velocity": 95}, {"time": 192956, "pitch": 62, "duration": 959, "velocity": 100}, {"time": 193196, "pitch": 55, "duration": 479, "velocity": 95}, {"time": 193436, "pitch": 50, "duration": 959, "velocity": 90}, {"time": 193675, "pitch": 55, "duration": 480, "velocity": 95}, {"time": 193915, "pitch": 62, "duration": 480, "velocity": 100}, {"time": 194155, "pitch": 55, "duration": 240, "velocity": 95}, {"time": 194395, "pitch": 52, "duration": 959, "velocity": 90}, {"time": 194635, "pitch": 55, "duration": 479, "velocity": 95}, {"time": 194874, "pitch": 62, "duration": 960, "velocity": 100}, {"time": 195114, "pitch": 55, "duration": 480, "velocity": 95}, {"time": 195354, "pitch": 52, "duration": 959, "velocity": 90}, {"time": 195594, "pitch": 55, "duration": 480, "velocity": 95}, {"time": 195834, "pitch": 62, "duration": 479, "velocity": 100}, {"time": 196074, "pitch": 55, "duration": 239, "velocity": 95}, {"time": 31199, "pitch": 76, "duration": 659, "velocity": 90}, {"time": 31918, "pitch": 76, "duration": 220, "velocity": 85}, {"time": 32158, "pitch": 77, "duration": 220, "velocity": 90}, {"time": 32398, "pitch": 76, "duration": 120, "velocity": 85}, {"time": 32518, "pitch": 74, "duration": 240, "velocity": 90}, {"time": 32758, "pitch": 76, "duration": 240, "velocity": 85}, {"time": 32998, "pitch": 72, "duration": 842, "velocity": 90}, {"time": 33840, "pitch": 74, "duration": 122, "velocity": 85}, {"time": 33962, "pitch": 76, "duration": 481, "velocity": 90}, {"time": 34563, "pitch": 72, "duration": 159, "velocity": 90}, {"time": 34722, "pitch": 74, "duration": 160, "velocity": 85}, {"time": 34882, "pitch": 76, "duration": 160, "velocity": 85}, {"time": 35042, "pitch": 81, "duration": 960, "velocity": 90}, {"time": 36002, "pitch": 79, "duration": 479, "velocity": 90}, {"time": 36481, "pitch": 79, "duration": 240, "velocity": 90}, {"time": 36721, "pitch": 84, "duration": 240, "velocity": 85}, {"time": 36961, "pitch": 76, "duration": 639, "velocity": 90}, {"time": 37600, "pitch": 74, "duration": 160, "velocity": 85}, {"time": 37760, "pitch": 72, "duration": 160, "velocity": 85}, {"time": 37920, "pitch": 74, "duration": 720, "velocity": 80}, {"time": 38879, "pitch": 81, "duration": 240, "velocity": 90}, {"time": 39119, "pitch": 79, "duration": 240, "velocity": 85}, {"time": 39359, "pitch": 76, "duration": 240, "velocity": 90}, {"time": 39599, "pitch": 74, "duration": 120, "velocity": 85}, {"time": 39719, "pitch": 72, "duration": 719, "velocity": 80}, {"time": 40558, "pitch": 72, "duration": 240, "velocity": 80}, {"time": 40798, "pitch": 81, "duration": 240, "velocity": 90}, {"time": 41038, "pitch": 79, "duration": 240, "velocity": 85}, {"time": 41278, "pitch": 79, "duration": 239, "velocity": 90}, {"time": 41517, "pitch": 79, "duration": 120, "velocity": 90}, {"time": 41637, "pitch": 84, "duration": 242, "velocity": 85}, {"time": 41879, "pitch": 76, "duration": 484, "velocity": 80}, {"time": 42363, "pitch": 72, "duration": 120, "velocity": 85}, {"time": 42483, "pitch": 74, "duration": 120, "velocity": 90}, {"time": 42603, "pitch": 76, "duration": 120, "velocity": 85}, {"time": 42723, "pitch": 77, "duration": 479, "velocity": 90}, {"time": 43202, "pitch": 76, "duration": 480, "velocity": 85}, {"time": 43682, "pitch": 74, "duration": 480, "velocity": 90}, {"time": 44162, "pitch": 72, "duration": 239, "velocity": 85}, {"time": 44401, "pitch": 72, "duration": 1679, "velocity": 80}, {"time": 46560, "pitch": 74, "duration": 719, "velocity": 90}, {"time": 47279, "pitch": 74, "duration": 240, "velocity": 85}, {"time": 47519, "pitch": 76, "duration": 240, "velocity": 90}, {"time": 47759, "pitch": 74, "duration": 120, "velocity": 85}, {"time": 47879, "pitch": 76, "duration": 240, "velocity": 90}, {"time": 48119, "pitch": 78, "duration": 359, "velocity": 85}, {"time": 48478, "pitch": 74, "duration": 720, "velocity": 90}, {"time": 49198, "pitch": 74, "duration": 240, "velocity": 85}, {"time": 49438, "pitch": 76, "duration": 240, "velocity": 90}, {"time": 49678, "pitch": 74, "duration": 119, "velocity": 85}, {"time": 49797, "pitch": 76, "duration": 240, "velocity": 90}, {"time": 50037, "pitch": 78, "duration": 360, "velocity": 85}, {"time": 50397, "pitch": 79, "duration": 726, "velocity": 90}, {"time": 51123, "pitch": 79, "duration": 120, "velocity": 90}, {"time": 51243, "pitch": 79, "duration": 119, "velocity": 85}, {"time": 51362, "pitch": 78, "duration": 240, "velocity": 90}, {"time": 51602, "pitch": 69, "duration": 120, "velocity": 90}, {"time": 51722, "pitch": 69, "duration": 360, "velocity": 90}, {"time": 52082, "pitch": 69, "duration": 240, "velocity": 85}, {"time": 52322, "pitch": 76, "duration": 719, "velocity": 90}, {"time": 53041, "pitch": 74, "duration": 240, "velocity": 85}, {"time": 53281, "pitch": 71, "duration": 480, "velocity": 80}, {"time": 54240, "pitch": 74, "duration": 720, "velocity": 90}, {"time": 54960, "pitch": 74, "duration": 240, "velocity": 85}, {"time": 55200, "pitch": 76, "duration": 239, "velocity": 90}, {"time": 55439, "pitch": 74, "duration": 120, "velocity": 85}, {"time": 55559, "pitch": 76, "duration": 240, "velocity": 90}, {"time": 55799, "pitch": 78, "duration": 360, "velocity": 85}, {"time": 56159, "pitch": 74, "duration": 719, "velocity": 90}, {"time": 56878, "pitch": 74, "duration": 240, "velocity": 85}, {"time": 57118, "pitch": 76, "duration": 240, "velocity": 90}, {"time": 57358, "pitch": 74, "duration": 120, "velocity": 85}, {"time": 57478, "pitch": 76, "duration": 240, "velocity": 90}, {"time": 57718, "pitch": 78, "duration": 360, "velocity": 85}, {"time": 58078, "pitch": 79, "duration": 722, "velocity": 90}, {"time": 58800, "pitch": 79, "duration": 121, "velocity": 90}, {"time": 58921, "pitch": 79, "duration": 122, "velocity": 85}, {"time": 59043, "pitch": 78, "duration": 240, "velocity": 90}, {"time": 59283, "pitch": 69, "duration": 120, "velocity": 90}, {"time": 59403, "pitch": 69, "duration": 359, "velocity": 90}, {"time": 59762, "pitch": 69, "duration": 240, "velocity": 85}, {"time": 60002, "pitch": 76, "duration": 720, "velocity": 90}, {"time": 60722, "pitch": 74, "duration": 80, "velocity": 90}, {"time": 60802, "pitch": 76, "duration": 80, "velocity": 85}, {"time": 60882, "pitch": 74, "duration": 79, "velocity": 85}, {"time": 60961, "pitch": 70, "duration": 720, "velocity": 80}, {"time": 90718, "pitch": 76, "duration": 659, "velocity": 90}, {"time": 91437, "pitch": 76, "duration": 220, "velocity": 85}, {"time": 91677, "pitch": 77, "duration": 223, "velocity": 90}, {"time": 91920, "pitch": 76, "duration": 121, "velocity": 90}, {"time": 92041, "pitch": 74, "duration": 242, "velocity": 90}, {"time": 92283, "pitch": 76, "duration": 360, "velocity": 90}, {"time": 92643, "pitch": 72, "duration": 719, "velocity": 90}, {"time": 93362, "pitch": 74, "duration": 120, "velocity": 85}, {"time": 93482, "pitch": 76, "duration": 480, "velocity": 90}, {"time": 94081, "pitch": 72, "duration": 160, "velocity": 90}, {"time": 94241, "pitch": 74, "duration": 160, "velocity": 85}, {"time": 94401, "pitch": 76, "duration": 160, "velocity": 85}, {"time": 94561, "pitch": 79, "duration": 720, "velocity": 90}, {"time": 95281, "pitch": 79, "duration": 239, "velocity": 85}, {"time": 95520, "pitch": 81, "duration": 240, "velocity": 90}, {"time": 95760, "pitch": 79, "duration": 120, "velocity": 85}, {"time": 95880, "pitch": 84, "duration": 360, "velocity": 90}, {"time": 96240, "pitch": 76, "duration": 240, "velocity": 85}, {"time": 96480, "pitch": 76, "duration": 639, "velocity": 90}, {"time": 97119, "pitch": 74, "duration": 160, "velocity": 90}, {"time": 97279, "pitch": 72, "duration": 160, "velocity": 85}, {"time": 97439, "pitch": 74, "duration": 720, "velocity": 80}, {"time": 98398, "pitch": 81, "duration": 240, "velocity": 90}, {"time": 98638, "pitch": 79, "duration": 240, "velocity": 85}, {"time": 98878, "pitch": 76, "duration": 240, "velocity": 90}, {"time": 99118, "pitch": 74, "duration": 120, "velocity": 85}, {"time": 99238, "pitch": 72, "duration": 721, "velocity": 80}, {"time": 100080, "pitch": 72, "duration": 243, "velocity": 80}, {"time": 100323, "pitch": 81, "duration": 240, "velocity": 90}, {"time": 100563, "pitch": 79, "duration": 240, "velocity": 85}, {"time": 100803, "pitch": 79, "duration": 239, "velocity": 90}, {"time": 101042, "pitch": 79, "duration": 120, "velocity": 90}, {"time": 101162, "pitch": 84, "duration": 240, "velocity": 85}, {"time": 101402, "pitch": 76, "duration": 480, "velocity": 80}, {"time": 101882, "pitch": 72, "duration": 120, "velocity": 85}, {"time": 102002, "pitch": 74, "duration": 120, "velocity": 90}, {"time": 102122, "pitch": 76, "duration": 120, "velocity": 85}, {"time": 102242, "pitch": 77, "duration": 479, "velocity": 90}, {"time": 102721, "pitch": 76, "duration": 480, "velocity": 85}, {"time": 103201, "pitch": 74, "duration": 480, "velocity": 90}, {"time": 103681, "pitch": 72, "duration": 239, "velocity": 85}, {"time": 103920, "pitch": 74, "duration": 1679, "velocity": 80}, {"time": 121440, "pitch": 74, "duration": 719, "velocity": 90}, {"time": 122159, "pitch": 74, "duration": 240, "velocity": 85}, {"time": 122399, "pitch": 76, "duration": 240, "velocity": 90}, {"time": 122639, "pitch": 74, "duration": 120, "velocity": 85}, {"time": 122759, "pitch": 76, "duration": 240, "velocity": 90}, {"time": 122999, "pitch": 78, "duration": 359, "velocity": 85}, {"time": 123358, "pitch": 74, "duration": 720, "velocity": 90}, {"time": 124078, "pitch": 74, "duration": 240, "velocity": 85}, {"time": 124318, "pitch": 76, "duration": 239, "velocity": 90}, {"time": 124557, "pitch": 74, "duration": 120, "velocity": 85}, {"time": 124677, "pitch": 76, "duration": 242, "velocity": 90}, {"time": 124919, "pitch": 78, "duration": 364, "velocity": 85}, {"time": 125283, "pitch": 79, "duration": 719, "velocity": 90}, {"time": 126002, "pitch": 79, "duration": 120, "velocity": 90}, {"time": 126122, "pitch": 79, "duration": 120, "velocity": 85}, {"time": 126242, "pitch": 78, "duration": 240, "velocity": 90}, {"time": 126482, "pitch": 69, "duration": 120, "velocity": 90}, {"time": 126602, "pitch": 69, "duration": 360, "velocity": 90}, {"time": 126962, "pitch": 69, "duration": 240, "velocity": 85}, {"time": 127202, "pitch": 76, "duration": 719, "velocity": 90}, {"time": 127921, "pitch": 74, "duration": 240, "velocity": 85}, {"time": 128161, "pitch": 71, "duration": 479, "velocity": 80}, {"time": 129120, "pitch": 74, "duration": 720, "velocity": 90}, {"time": 129840, "pitch": 74, "duration": 239, "velocity": 85}, {"time": 130079, "pitch": 76, "duration": 240, "velocity": 90}, {"time": 130319, "pitch": 74, "duration": 120, "velocity": 85}, {"time": 130439, "pitch": 76, "duration": 240, "velocity": 90}, {"time": 130679, "pitch": 78, "duration": 360, "velocity": 85}, {"time": 131039, "pitch": 74, "duration": 719, "velocity": 90}, {"time": 131758, "pitch": 74, "duration": 240, "velocity": 85}, {"time": 131998, "pitch": 76, "duration": 240, "velocity": 90}, {"time": 132238, "pitch": 74, "duration": 120, "velocity": 85}, {"time": 132358, "pitch": 76, "duration": 240, "velocity": 90}, {"time": 132598, "pitch": 78, "duration": 359, "velocity": 85}, {"time": 132957, "pitch": 79, "duration": 726, "velocity": 90}, {"time": 133683, "pitch": 79, "duration": 120, "velocity": 90}, {"time": 133803, "pitch": 79, "duration": 120, "velocity": 85}, {"time": 133923, "pitch": 78, "duration": 240, "velocity": 90}, {"time": 134163, "pitch": 69, "duration": 119, "velocity": 90}, {"time": 134282, "pitch": 69, "duration": 360, "velocity": 90}, {"time": 134642, "pitch": 69, "duration": 240, "velocity": 85}, {"time": 134882, "pitch": 76, "duration": 240, "velocity": 90}, {"time": 135122, "pitch": 74, "duration": 240, "velocity": 85}, {"time": 135362, "pitch": 71, "duration": 239, "velocity": 85}, {"time": 135601, "pitch": 67, "duration": 960, "velocity": 80}, {"time": 138719, "pitch": 81, "duration": 220, "velocity": 90}, {"time": 138959, "pitch": 81, "duration": 120, "velocity": 90}, {"time": 139079, "pitch": 78, "duration": 120, "velocity": 85}, {"time": 139199, "pitch": 81, "duration": 120, "velocity": 90}, {"time": 139319, "pitch": 81, "duration": 240, "velocity": 85}, {"time": 139559, "pitch": 83, "duration": 359, "velocity": 90}, {"time": 139918, "pitch": 78, "duration": 240, "velocity": 85}, {"time": 140158, "pitch": 76, "duration": 240, "velocity": 91}, {"time": 140398, "pitch": 74, "duration": 240, "velocity": 85}, {"time": 140638, "pitch": 74, "duration": 220, "velocity": 90}, {"time": 140878, "pitch": 74, "duration": 119, "velocity": 90}, {"time": 140997, "pitch": 71, "duration": 120, "velocity": 85}, {"time": 141117, "pitch": 74, "duration": 120, "velocity": 90}, {"time": 141237, "pitch": 71, "duration": 120, "velocity": 85}, {"time": 141357, "pitch": 74, "duration": 120, "velocity": 90}, {"time": 141477, "pitch": 73, "duration": 241, "velocity": 90}, {"time": 141718, "pitch": 69, "duration": 605, "velocity": 85}, {"time": 142562, "pitch": 78, "duration": 700, "velocity": 90}, {"time": 143282, "pitch": 78, "duration": 220, "velocity": 85}, {"time": 143522, "pitch": 76, "duration": 699, "velocity": 90}, {"time": 144241, "pitch": 76, "duration": 220, "velocity": 85}, {"time": 144481, "pitch": 74, "duration": 600, "velocity": 90}, {"time": 145081, "pitch": 71, "duration": 119, "velocity": 85}, {"time": 145200, "pitch": 74, "duration": 120, "velocity": 90}, {"time": 145320, "pitch": 78, "duration": 600, "velocity": 85}, {"time": 146400, "pitch": 81, "duration": 219, "velocity": 90}, {"time": 146639, "pitch": 81, "duration": 120, "velocity": 90}, {"time": 146759, "pitch": 78, "duration": 120, "velocity": 85}, {"time": 146879, "pitch": 81, "duration": 120, "velocity": 90}, {"time": 146999, "pitch": 81, "duration": 240, "velocity": 85}, {"time": 147239, "pitch": 83, "duration": 360, "velocity": 90}, {"time": 147599, "pitch": 78, "duration": 240, "velocity": 85}, {"time": 147839, "pitch": 76, "duration": 239, "velocity": 91}, {"time": 148078, "pitch": 74, "duration": 240, "velocity": 85}, {"time": 148318, "pitch": 83, "duration": 460, "velocity": 90}, {"time": 148798, "pitch": 83, "duration": 220, "velocity": 90}, {"time": 149038, "pitch": 86, "duration": 120, "velocity": 90}, {"time": 149158, "pitch": 85, "duration": 239, "velocity": 90}, {"time": 149397, "pitch": 81, "duration": 360, "velocity": 85}, {"time": 149879, "pitch": 69, "duration": 121, "velocity": 85}, {"time": 150000, "pitch": 74, "duration": 121, "velocity": 90}, {"time": 150121, "pitch": 76, "duration": 122, "velocity": 85}, {"time": 150243, "pitch": 78, "duration": 699, "velocity": 90}, {"time": 150962, "pitch": 78, "duration": 220, "velocity": 85}, {"time": 151202, "pitch": 76, "duration": 700, "velocity": 90}, {"time": 151922, "pitch": 76, "duration": 219, "velocity": 85}, {"time": 152161, "pitch": 77, "duration": 2379, "velocity": 90}, {"time": 154560, "pitch": 77, "duration": 240, "velocity": 90}, {"time": 154800, "pitch": 74, "duration": 239, "velocity": 85}, {"time": 155039, "pitch": 81, "duration": 480, "velocity": 90}, {"time": 155519, "pitch": 79, "duration": 480, "velocity": 90}, {"time": 168002, "pitch": 81, "duration": 1199, "velocity": 85}, {"time": 169201, "pitch": 78, "duration": 240, "velocity": 85}, {"time": 169441, "pitch": 76, "duration": 240, "velocity": 90}, {"time": 169681, "pitch": 78, "duration": 120, "velocity": 90}, {"time": 169801, "pitch": 74, "duration": 479, "velocity": 85}, {"time": 170400, "pitch": 78, "duration": 240, "velocity": 90}, {"time": 170640, "pitch": 79, "duration": 120, "velocity": 85}, {"time": 170760, "pitch": 76, "duration": 360, "velocity": 90}, {"time": 171120, "pitch": 74, "duration": 120, "velocity": 85}, {"time": 171240, "pitch": 74, "duration": 1, "velocity": 85}, {"time": 73918, "pitch": 83, "duration": 480, "velocity": 105}, {"time": 74398, "pitch": 84, "duration": 479, "velocity": 110}, {"time": 74877, "pitch": 86, "duration": 480, "velocity": 105}, {"time": 75357, "pitch": 88, "duration": 1445, "velocity": 100}, {"time": 76802, "pitch": 84, "duration": 480, "velocity": 95}, {"time": 77282, "pitch": 91, "duration": 1419, "velocity": 100}, {"time": 78721, "pitch": 84, "duration": 459, "velocity": 95}, {"time": 79200, "pitch": 83, "duration": 960, "velocity": 100}, {"time": 80160, "pitch": 84, "duration": 479, "velocity": 100}, {"time": 80639, "pitch": 86, "duration": 480, "velocity": 95}, {"time": 81119, "pitch": 88, "duration": 1439, "velocity": 90}, {"time": 82558, "pitch": 86, "duration": 80, "velocity": 110}, {"time": 82638, "pitch": 84, "duration": 80, "velocity": 105}, {"time": 82718, "pitch": 83, "duration": 80, "velocity": 105}, {"time": 82798, "pitch": 81, "duration": 80, "velocity": 110}, {"time": 82878, "pitch": 79, "duration": 79, "velocity": 105}, {"time": 82957, "pitch": 77, "duration": 80, "velocity": 105}, {"time": 83037, "pitch": 76, "duration": 1445, "velocity": 90}, {"time": 84482, "pitch": 72, "duration": 480, "velocity": 85}, {"time": 84962, "pitch": 79, "duration": 1439, "velocity": 90}, {"time": 86401, "pitch": 84, "duration": 480, "velocity": 85}, {"time": 86881, "pitch": 83, "duration": 959, "velocity": 90}, {"time": 87840, "pitch": 84, "duration": 959, "velocity": 85}, {"time": 88799, "pitch": 91, "duration": 1899, "velocity": 80}, {"time": 108477, "pitch": 71, "duration": 486, "velocity": 110}, {"time": 108963, "pitch": 72, "duration": 479, "velocity": 90}, {"time": 109442, "pitch": 74, "duration": 480, "velocity": 85}, {"time": 109922, "pitch": 76, "duration": 959, "velocity": 90}, {"time": 110881, "pitch": 74, "duration": 480, "velocity": 90}, {"time": 111361, "pitch": 79, "duration": 480, "velocity": 85}, {"time": 111841, "pitch": 84, "duration": 959, "velocity": 80}, {"time": 112800, "pitch": 83, "duration": 959, "velocity": 80}, {"time": 113759, "pitch": 84, "duration": 1199, "velocity": 80}, {"time": 114958, "pitch": 83, "duration": 240, "velocity": 80}, {"time": 115198, "pitch": 79, "duration": 240, "velocity": 75}, {"time": 115438, "pitch": 76, "duration": 240, "velocity": 70}, {"time": 115678, "pitch": 72, "duration": 1924, "velocity": 80}, {"time": 117602, "pitch": 81, "duration": 480, "velocity": 70}, {"time": 118082, "pitch": 79, "duration": 480, "velocity": 65}, {"time": 118562, "pitch": 77, "duration": 479, "velocity": 70}, {"time": 119041, "pitch": 77, "duration": 120, "velocity": 70}, {"time": 119281, "pitch": 76, "duration": 1679, "velocity": 65}, {"time": 136801, "pitch": 67, "duration": 99, "velocity": 85}, {"time": 136881, "pitch": 65, "duration": 99, "velocity": 80}, {"time": 136960, "pitch": 64, "duration": 100, "velocity": 85}, {"time": 137040, "pitch": 65, "duration": 100, "velocity": 80}, {"time": 137120, "pitch": 67, "duration": 100, "velocity": 85}, {"time": 137200, "pitch": 69, "duration": 100, "velocity": 80}, {"time": 137280, "pitch": 70, "duration": 100, "velocity": 85}, {"time": 137360, "pitch": 69, "duration": 100, "velocity": 80}, {"time": 137440, "pitch": 67, "duration": 100, "velocity": 85}, {"time": 137520, "pitch": 69, "duration": 100, "velocity": 80}, {"time": 137600, "pitch": 70, "duration": 100, "velocity": 85}, {"time": 137680, "pitch": 72, "duration": 100, "velocity": 80}, {"time": 137760, "pitch": 74, "duration": 100, "velocity": 85}, {"time": 137840, "pitch": 72, "duration": 100, "velocity": 80}, {"time": 137920, "pitch": 70, "duration": 100, "velocity": 85}, {"time": 138000, "pitch": 72, "duration": 100, "velocity": 80}, {"time": 138080, "pitch": 74, "duration": 100, "velocity": 85}, {"time": 138160, "pitch": 76, "duration": 99, "velocity": 90}, {"time": 138240, "pitch": 78, "duration": 99, "velocity": 95}, {"time": 138319, "pitch": 76, "duration": 100, "velocity": 90}, {"time": 138399, "pitch": 74, "duration": 100, "velocity": 95}, {"time": 138479, "pitch": 76, "duration": 100, "velocity": 90}, {"time": 138559, "pitch": 78, "duration": 100, "velocity": 95}, {"time": 138639, "pitch": 79, "duration": 100, "velocity": 100}, {"time": 138719, "pitch": 81, "duration": 100, "velocity": 90}, {"time": 138959, "pitch": 81, "duration": 100, "velocity": 80}, {"time": 139199, "pitch": 81, "duration": 100, "velocity": 80}, {"time": 139439, "pitch": 81, "duration": 100, "velocity": 80}, {"time": 139678, "pitch": 81, "duration": 100, "velocity": 80}, {"time": 139918, "pitch": 81, "duration": 100, "velocity": 80}, {"time": 140158, "pitch": 81, "duration": 100, "velocity": 80}, {"time": 140398, "pitch": 81, "duration": 100, "velocity": 80}, {"time": 140638, "pitch": 79, "duration": 100, "velocity": 80}, {"time": 140878, "pitch": 79, "duration": 100, "velocity": 80}, {"time": 141117, "pitch": 79, "duration": 100, "velocity": 80}, {"time": 141357, "pitch": 79, "duration": 100, "velocity": 80}, {"time": 141597, "pitch": 78, "duration": 101, "velocity": 80}, {"time": 141840, "pitch": 78, "duration": 101, "velocity": 80}, {"time": 142083, "pitch": 78, "duration": 100, "velocity": 80}, {"time": 142323, "pitch": 78, "duration": 100, "velocity": 90}, {"time": 142403, "pitch": 79, "duration": 99, "velocity": 80}, {"time": 142482, "pitch": 81, "duration": 100, "velocity": 80}, {"time": 142562, "pitch": 83, "duration": 100, "velocity": 80}, {"time": 142802, "pitch": 83, "duration": 100, "velocity": 80}, {"time": 143042, "pitch": 83, "duration": 100, "velocity": 80}, {"time": 143282, "pitch": 83, "duration": 100, "velocity": 80}, {"time": 143522, "pitch": 81, "duration": 100, "velocity": 80}, {"time": 143762, "pitch": 81, "duration": 99, "velocity": 80}, {"time": 144001, "pitch": 81, "duration": 100, "velocity": 80}, {"time": 144241, "pitch": 81, "duration": 100, "velocity": 80}, {"time": 144481, "pitch": 79, "duration": 100, "velocity": 80}, {"time": 144721, "pitch": 79, "duration": 100, "velocity": 80}, {"time": 144961, "pitch": 79, "duration": 100, "velocity": 80}, {"time": 145200, "pitch": 79, "duration": 100, "velocity": 80}, {"time": 145440, "pitch": 78, "duration": 100, "velocity": 85}, {"time": 145520, "pitch": 76, "duration": 100, "velocity": 80}, {"time": 145600, "pitch": 74, "duration": 100, "velocity": 85}, {"time": 145680, "pitch": 76, "duration": 100, "velocity": 80}, {"time": 145760, "pitch": 78, "duration": 100, "velocity": 85}, {"time": 145840, "pitch": 79, "duration": 100, "velocity": 90}, {"time": 145920, "pitch": 81, "duration": 100, "velocity": 95}, {"time": 146000, "pitch": 79, "duration": 100, "velocity": 90}, {"time": 146080, "pitch": 78, "duration": 100, "velocity": 95}, {"time": 146160, "pitch": 79, "duration": 100, "velocity": 90}, {"time": 146240, "pitch": 81, "duration": 100, "velocity": 95}, {"time": 146320, "pitch": 83, "duration": 100, "velocity": 100}, {"time": 146400, "pitch": 81, "duration": 100, "velocity": 90}, {"time": 146639, "pitch": 81, "duration": 100, "velocity": 80}, {"time": 146879, "pitch": 81, "duration": 100, "velocity": 80}, {"time": 147119, "pitch": 81, "duration": 100, "velocity": 80}, {"time": 147359, "pitch": 81, "duration": 100, "velocity": 80}, {"time": 147599, "pitch": 81, "duration": 100, "velocity": 80}, {"time": 147839, "pitch": 81, "duration": 99, "velocity": 80}, {"time": 148078, "pitch": 81, "duration": 100, "velocity": 80}, {"time": 148318, "pitch": 79, "duration": 100, "velocity": 80}, {"time": 148558, "pitch": 79, "duration": 100, "velocity": 80}, {"time": 148798, "pitch": 79, "duration": 100, "velocity": 80}, {"time": 149038, "pitch": 79, "duration": 100, "velocity": 80}, {"time": 149277, "pitch": 78, "duration": 100, "velocity": 80}, {"time": 149517, "pitch": 78, "duration": 100, "velocity": 80}, {"time": 149757, "pitch": 78, "duration": 101, "velocity": 80}, {"time": 150000, "pitch": 78, "duration": 101, "velocity": 90}, {"time": 150081, "pitch": 79, "duration": 101, "velocity": 80}, {"time": 150162, "pitch": 81, "duration": 101, "velocity": 80}, {"time": 150243, "pitch": 83, "duration": 100, "velocity": 80}, {"time": 150483, "pitch": 83, "duration": 100, "velocity": 80}, {"time": 150723, "pitch": 83, "duration": 99, "velocity": 80}, {"time": 150962, "pitch": 83, "duration": 100, "velocity": 80}, {"time": 151202, "pitch": 81, "duration": 100, "velocity": 80}, {"time": 151442, "pitch": 81, "duration": 100, "velocity": 80}, {"time": 151682, "pitch": 81, "duration": 100, "velocity": 80}, {"time": 151922, "pitch": 81, "duration": 100, "velocity": 80}, {"time": 152161, "pitch": 81, "duration": 100, "velocity": 80}, {"time": 152401, "pitch": 81, "duration": 100, "velocity": 80}, {"time": 152641, "pitch": 81, "duration": 100, "velocity": 80}, {"time": 152881, "pitch": 81, "duration": 100, "velocity": 80}, {"time": 153121, "pitch": 81, "duration": 100, "velocity": 80}, {"time": 153361, "pitch": 81, "duration": 100, "velocity": 80}, {"time": 153600, "pitch": 81, "duration": 100, "velocity": 80}, {"time": 153840, "pitch": 81, "duration": 100, "velocity": 80}, {"time": 154080, "pitch": 77, "duration": 1919, "velocity": 70}, {"time": 155999, "pitch": 78, "duration": 939, "velocity": 70}, {"time": 156958, "pitch": 76, "duration": 939, "velocity": 70}, {"time": 157917, "pitch": 74, "duration": 966, "velocity": 70}, {"time": 158883, "pitch": 76, "duration": 239, "velocity": 70}, {"time": 159122, "pitch": 78, "duration": 240, "velocity": 70}, {"time": 159362, "pitch": 79, "duration": 240, "velocity": 70}, {"time": 159602, "pitch": 81, "duration": 240, "velocity": 70}, {"time": 159842, "pitch": 83, "duration": 939, "velocity": 70}, {"time": 160801, "pitch": 81, "duration": 940, "velocity": 70}, {"time": 161761, "pitch": 79, "duration": 1199, "velocity": 70}, {"time": 162960, "pitch": 76, "duration": 239, "velocity": 70}, {"time": 163199, "pitch": 78, "duration": 240, "velocity": 75}, {"time": 163439, "pitch": 79, "duration": 240, "velocity": 80}, {"time": 163679, "pitch": 81, "duration": 1899, "velocity": 70}, {"time": 165598, "pitch": 79, "duration": 1904, "velocity": 70}, {"time": 167522, "pitch": 81, "duration": 1919, "velocity": 70}, {"time": 169441, "pitch": 83, "duration": 1899, "velocity": 70}, {"time": 171360, "pitch": 81, "duration": 1898, "velocity": 70}, {"time": 71999, "pitch": 74, "duration": 480, "velocity": 105}, {"time": 72479, "pitch": 76, "duration": 480, "velocity": 110}, {"time": 72959, "pitch": 77, "duration": 479, "velocity": 105}, {"time": 73438, "pitch": 79, "duration": 1919, "velocity": 100}, {"time": 75357, "pitch": 81, "duration": 1925, "velocity": 100}, {"time": 77282, "pitch": 83, "duration": 1419, "velocity": 100}, {"time": 78721, "pitch": 76, "duration": 459, "velocity": 95}, {"time": 79200, "pitch": 74, "duration": 960, "velocity": 100}, {"time": 80160, "pitch": 76, "duration": 479, "velocity": 100}, {"time": 80639, "pitch": 77, "duration": 480, "velocity": 95}, {"time": 81119, "pitch": 79, "duration": 959, "velocity": 90}, {"time": 82078, "pitch": 77, "duration": 80, "velocity": 110}, {"time": 82158, "pitch": 76, "duration": 80, "velocity": 105}, {"time": 82238, "pitch": 74, "duration": 80, "velocity": 105}, {"time": 82318, "pitch": 72, "duration": 80, "velocity": 110}, {"time": 82398, "pitch": 71, "duration": 80, "velocity": 105}, {"time": 82478, "pitch": 69, "duration": 80, "velocity": 105}, {"time": 82558, "pitch": 67, "duration": 479, "velocity": 90}, {"time": 83037, "pitch": 69, "duration": 1925, "velocity": 90}, {"time": 84962, "pitch": 71, "duration": 1439, "velocity": 90}, {"time": 86401, "pitch": 76, "duration": 480, "velocity": 85}, {"time": 86881, "pitch": 74, "duration": 959, "velocity": 90}, {"time": 87840, "pitch": 76, "duration": 959, "velocity": 85}, {"time": 88799, "pitch": 77, "duration": 1899, "velocity": 80}, {"time": 110881, "pitch": 71, "duration": 480, "velocity": 80}, {"time": 111361, "pitch": 72, "duration": 480, "velocity": 85}, {"time": 111841, "pitch": 76, "duration": 939, "velocity": 80}, {"time": 112800, "pitch": 74, "duration": 939, "velocity": 80}, {"time": 113759, "pitch": 76, "duration": 1679, "velocity": 80}, {"time": 115438, "pitch": 72, "duration": 240, "velocity": 70}, {"time": 115678, "pitch": 67, "duration": 1924, "velocity": 80}, {"time": 117602, "pitch": 65, "duration": 480, "velocity": 70}, {"time": 118082, "pitch": 64, "duration": 480, "velocity": 65}, {"time": 118562, "pitch": 62, "duration": 479, "velocity": 70}, {"time": 119041, "pitch": 62, "duration": 120, "velocity": 70}, {"time": 119281, "pitch": 60, "duration": 1679, "velocity": 65}, {"time": 137280, "pitch": 67, "duration": 100, "velocity": 85}, {"time": 137360, "pitch": 66, "duration": 100, "velocity": 80}, {"time": 137440, "pitch": 64, "duration": 100, "velocity": 85}, {"time": 137520, "pitch": 66, "duration": 100, "velocity": 80}, {"time": 137600, "pitch": 67, "duration": 100, "velocity": 85}, {"time": 137680, "pitch": 69, "duration": 100, "velocity": 80}, {"time": 137760, "pitch": 70, "duration": 100, "velocity": 85}, {"time": 137840, "pitch": 69, "duration": 100, "velocity": 80}, {"time": 137920, "pitch": 67, "duration": 100, "velocity": 85}, {"time": 138000, "pitch": 69, "duration": 100, "velocity": 80}, {"time": 138080, "pitch": 70, "duration": 100, "velocity": 85}, {"time": 138160, "pitch": 72, "duration": 99, "velocity": 90}, {"time": 138240, "pitch": 74, "duration": 99, "velocity": 95}, {"time": 138319, "pitch": 72, "duration": 100, "velocity": 90}, {"time": 138399, "pitch": 70, "duration": 100, "velocity": 95}, {"time": 138479, "pitch": 72, "duration": 100, "velocity": 90}, {"time": 138559, "pitch": 74, "duration": 100, "velocity": 95}, {"time": 138639, "pitch": 76, "duration": 80, "velocity": 100}, {"time": 138719, "pitch": 76, "duration": 80, "velocity": 90}, {"time": 138959, "pitch": 76, "duration": 80, "velocity": 80}, {"time": 139199, "pitch": 76, "duration": 80, "velocity": 80}, {"time": 139439, "pitch": 76, "duration": 80, "velocity": 80}, {"time": 139678, "pitch": 74, "duration": 80, "velocity": 80}, {"time": 139918, "pitch": 74, "duration": 80, "velocity": 80}, {"time": 140158, "pitch": 74, "duration": 80, "velocity": 80}, {"time": 140398, "pitch": 74, "duration": 80, "velocity": 90}, {"time": 140638, "pitch": 76, "duration": 80, "velocity": 80}, {"time": 140878, "pitch": 76, "duration": 80, "velocity": 80}, {"time": 141117, "pitch": 76, "duration": 80, "velocity": 80}, {"time": 141357, "pitch": 76, "duration": 80, "velocity": 80}, {"time": 141597, "pitch": 76, "duration": 81, "velocity": 80}, {"time": 141840, "pitch": 76, "duration": 81, "velocity": 80}, {"time": 142083, "pitch": 76, "duration": 80, "velocity": 80}, {"time": 142323, "pitch": 73, "duration": 100, "velocity": 90}, {"time": 142403, "pitch": 74, "duration": 99, "velocity": 80}, {"time": 142482, "pitch": 76, "duration": 100, "velocity": 80}, {"time": 142562, "pitch": 78, "duration": 80, "velocity": 80}, {"time": 142802, "pitch": 78, "duration": 80, "velocity": 80}, {"time": 143042, "pitch": 78, "duration": 80, "velocity": 80}, {"time": 143282, "pitch": 78, "duration": 80, "velocity": 80}, {"time": 143522, "pitch": 76, "duration": 80, "velocity": 80}, {"time": 143762, "pitch": 76, "duration": 79, "velocity": 80}, {"time": 144001, "pitch": 76, "duration": 80, "velocity": 80}, {"time": 144241, "pitch": 76, "duration": 80, "velocity": 80}, {"time": 144481, "pitch": 74, "duration": 80, "velocity": 80}, {"time": 144721, "pitch": 74, "duration": 80, "velocity": 80}, {"time": 144961, "pitch": 74, "duration": 80, "velocity": 80}, {"time": 145200, "pitch": 74, "duration": 80, "velocity": 80}, {"time": 145440, "pitch": 74, "duration": 100, "velocity": 85}, {"time": 145520, "pitch": 73, "duration": 100, "velocity": 80}, {"time": 145600, "pitch": 71, "duration": 100, "velocity": 85}, {"time": 145680, "pitch": 73, "duration": 100, "velocity": 80}, {"time": 145760, "pitch": 74, "duration": 100, "velocity": 85}, {"time": 145840, "pitch": 76, "duration": 100, "velocity": 90}, {"time": 145920, "pitch": 78, "duration": 100, "velocity": 95}, {"time": 146000, "pitch": 76, "duration": 100, "velocity": 90}, {"time": 146080, "pitch": 74, "duration": 100, "velocity": 95}, {"time": 146160, "pitch": 76, "duration": 100, "velocity": 90}, {"time": 146240, "pitch": 78, "duration": 100, "velocity": 95}, {"time": 146320, "pitch": 79, "duration": 100, "velocity": 100}, {"time": 146400, "pitch": 72, "duration": 80, "velocity": 90}, {"time": 146639, "pitch": 76, "duration": 80, "velocity": 80}, {"time": 146879, "pitch": 76, "duration": 80, "velocity": 80}, {"time": 147119, "pitch": 76, "duration": 80, "velocity": 80}, {"time": 147359, "pitch": 74, "duration": 80, "velocity": 80}, {"time": 147599, "pitch": 74, "duration": 80, "velocity": 80}, {"time": 147839, "pitch": 74, "duration": 79, "velocity": 80}, {"time": 148078, "pitch": 74, "duration": 80, "velocity": 80}, {"time": 148318, "pitch": 76, "duration": 80, "velocity": 80}, {"time": 148558, "pitch": 76, "duration": 80, "velocity": 80}, {"time": 148798, "pitch": 76, "duration": 80, "velocity": 80}, {"time": 149038, "pitch": 76, "duration": 80, "velocity": 80}, {"time": 149277, "pitch": 76, "duration": 80, "velocity": 80}, {"time": 149517, "pitch": 76, "duration": 80, "velocity": 80}, {"time": 149757, "pitch": 76, "duration": 81, "velocity": 80}, {"time": 150000, "pitch": 73, "duration": 101, "velocity": 90}, {"time": 150081, "pitch": 74, "duration": 101, "velocity": 80}, {"time": 150162, "pitch": 76, "duration": 101, "velocity": 80}, {"time": 150243, "pitch": 78, "duration": 80, "velocity": 80}, {"time": 150483, "pitch": 78, "duration": 80, "velocity": 80}, {"time": 150723, "pitch": 78, "duration": 79, "velocity": 80}, {"time": 150962, "pitch": 78, "duration": 80, "velocity": 80}, {"time": 151202, "pitch": 76, "duration": 80, "velocity": 80}, {"time": 151442, "pitch": 76, "duration": 80, "velocity": 80}, {"time": 151682, "pitch": 76, "duration": 80, "velocity": 80}, {"time": 151922, "pitch": 76, "duration": 80, "velocity": 80}, {"time": 152161, "pitch": 74, "duration": 80, "velocity": 80}, {"time": 152401, "pitch": 74, "duration": 80, "velocity": 80}, {"time": 152641, "pitch": 74, "duration": 80, "velocity": 80}, {"time": 152881, "pitch": 74, "duration": 80, "velocity": 80}, {"time": 153121, "pitch": 74, "duration": 80, "velocity": 80}, {"time": 153361, "pitch": 74, "duration": 80, "velocity": 80}, {"time": 153600, "pitch": 74, "duration": 80, "velocity": 80}, {"time": 153840, "pitch": 74, "duration": 80, "velocity": 80}, {"time": 154080, "pitch": 74, "duration": 1419, "velocity": 70}, {"time": 155519, "pitch": 73, "duration": 1439, "velocity": 70}, {"time": 156958, "pitch": 70, "duration": 959, "velocity": 70}, {"time": 157917, "pitch": 69, "duration": 1925, "velocity": 70}, {"time": 159842, "pitch": 74, "duration": 939, "velocity": 70}, {"time": 160801, "pitch": 73, "duration": 480, "velocity": 70}, {"time": 161281, "pitch": 74, "duration": 480, "velocity": 70}, {"time": 161761, "pitch": 71, "duration": 939, "velocity": 70}, {"time": 162720, "pitch": 73, "duration": 2858, "velocity": 70}, {"time": 165598, "pitch": 71, "duration": 1904, "velocity": 80}, {"time": 167522, "pitch": 74, "duration": 1899, "velocity": 80}, {"time": 169441, "pitch": 76, "duration": 1919, "velocity": 80}, {"time": 171360, "pitch": 74, "duration": 1898, "velocity": 80}, {"time": 70081, "pitch": 67, "duration": 480, "velocity": 105}, {"time": 70561, "pitch": 69, "duration": 479, "velocity": 110}, {"time": 71040, "pitch": 71, "duration": 480, "velocity": 105}, {"time": 71520, "pitch": 72, "duration": 3817, "velocity": 100}, {"time": 75357, "pitch": 76, "duration": 1445, "velocity": 100}, {"time": 76802, "pitch": 72, "duration": 480, "velocity": 95}, {"time": 77282, "pitch": 79, "duration": 1419, "velocity": 100}, {"time": 78721, "pitch": 72, "duration": 459, "velocity": 95}, {"time": 79200, "pitch": 71, "duration": 960, "velocity": 100}, {"time": 80160, "pitch": 72, "duration": 479, "velocity": 100}, {"time": 80639, "pitch": 74, "duration": 480, "velocity": 95}, {"time": 81119, "pitch": 76, "duration": 489, "velocity": 90}, {"time": 81598, "pitch": 74, "duration": 80, "velocity": 110}, {"time": 81678, "pitch": 72, "duration": 80, "velocity": 105}, {"time": 81758, "pitch": 71, "duration": 80, "velocity": 105}, {"time": 81838, "pitch": 69, "duration": 80, "velocity": 110}, {"time": 81918, "pitch": 67, "duration": 80, "velocity": 105}, {"time": 81998, "pitch": 65, "duration": 80, "velocity": 105}, {"time": 82078, "pitch": 64, "duration": 2404, "velocity": 90}, {"time": 84482, "pitch": 60, "duration": 480, "velocity": 85}, {"time": 84962, "pitch": 67, "duration": 1439, "velocity": 90}, {"time": 86401, "pitch": 72, "duration": 480, "velocity": 85}, {"time": 86881, "pitch": 71, "duration": 959, "velocity": 90}, {"time": 87840, "pitch": 72, "duration": 959, "velocity": 85}, {"time": 88799, "pitch": 69, "duration": 1899, "velocity": 80}, {"time": 137760, "pitch": 67, "duration": 100, "velocity": 85}, {"time": 137840, "pitch": 66, "duration": 100, "velocity": 80}, {"time": 137920, "pitch": 64, "duration": 100, "velocity": 85}, {"time": 138000, "pitch": 66, "duration": 100, "velocity": 80}, {"time": 138080, "pitch": 67, "duration": 100, "velocity": 85}, {"time": 138160, "pitch": 69, "duration": 99, "velocity": 90}, {"time": 138240, "pitch": 70, "duration": 99, "velocity": 95}, {"time": 138319, "pitch": 69, "duration": 100, "velocity": 90}, {"time": 138399, "pitch": 67, "duration": 100, "velocity": 95}, {"time": 138479, "pitch": 69, "duration": 100, "velocity": 90}, {"time": 138559, "pitch": 70, "duration": 100, "velocity": 95}, {"time": 138639, "pitch": 72, "duration": 100, "velocity": 100}, {"time": 138719, "pitch": 73, "duration": 100, "velocity": 90}, {"time": 138959, "pitch": 73, "duration": 100, "velocity": 80}, {"time": 139199, "pitch": 73, "duration": 100, "velocity": 80}, {"time": 139439, "pitch": 73, "duration": 100, "velocity": 80}, {"time": 139678, "pitch": 71, "duration": 100, "velocity": 80}, {"time": 139918, "pitch": 71, "duration": 100, "velocity": 80}, {"time": 140158, "pitch": 71, "duration": 100, "velocity": 80}, {"time": 140398, "pitch": 71, "duration": 100, "velocity": 80}, {"time": 140638, "pitch": 71, "duration": 100, "velocity": 80}, {"time": 140878, "pitch": 71, "duration": 100, "velocity": 80}, {"time": 141117, "pitch": 71, "duration": 100, "velocity": 80}, {"time": 141357, "pitch": 71, "duration": 100, "velocity": 80}, {"time": 141597, "pitch": 69, "duration": 101, "velocity": 80}, {"time": 141840, "pitch": 69, "duration": 101, "velocity": 80}, {"time": 142083, "pitch": 69, "duration": 100, "velocity": 80}, {"time": 142323, "pitch": 69, "duration": 100, "velocity": 90}, {"time": 142403, "pitch": 71, "duration": 99, "velocity": 80}, {"time": 142482, "pitch": 73, "duration": 100, "velocity": 80}, {"time": 142562, "pitch": 74, "duration": 100, "velocity": 80}, {"time": 142802, "pitch": 74, "duration": 100, "velocity": 80}, {"time": 143042, "pitch": 74, "duration": 100, "velocity": 80}, {"time": 143282, "pitch": 74, "duration": 100, "velocity": 80}, {"time": 143522, "pitch": 73, "duration": 100, "velocity": 80}, {"time": 143762, "pitch": 73, "duration": 99, "velocity": 80}, {"time": 144001, "pitch": 73, "duration": 100, "velocity": 80}, {"time": 144241, "pitch": 73, "duration": 100, "velocity": 80}, {"time": 144481, "pitch": 71, "duration": 100, "velocity": 80}, {"time": 144721, "pitch": 71, "duration": 100, "velocity": 80}, {"time": 144961, "pitch": 71, "duration": 100, "velocity": 80}, {"time": 145200, "pitch": 71, "duration": 100, "velocity": 80}, {"time": 145440, "pitch": 66, "duration": 100, "velocity": 85}, {"time": 145520, "pitch": 64, "duration": 100, "velocity": 80}, {"time": 145600, "pitch": 62, "duration": 100, "velocity": 75}, {"time": 145680, "pitch": 64, "duration": 100, "velocity": 80}, {"time": 145760, "pitch": 66, "duration": 100, "velocity": 85}, {"time": 145840, "pitch": 67, "duration": 100, "velocity": 90}, {"time": 145920, "pitch": 69, "duration": 100, "velocity": 95}, {"time": 146000, "pitch": 67, "duration": 100, "velocity": 90}, {"time": 146080, "pitch": 66, "duration": 100, "velocity": 85}, {"time": 146160, "pitch": 67, "duration": 100, "velocity": 90}, {"time": 146240, "pitch": 69, "duration": 100, "velocity": 95}, {"time": 146320, "pitch": 71, "duration": 100, "velocity": 100}, {"time": 146400, "pitch": 73, "duration": 100, "velocity": 90}, {"time": 146639, "pitch": 73, "duration": 100, "velocity": 80}, {"time": 146879, "pitch": 73, "duration": 100, "velocity": 80}, {"time": 147119, "pitch": 73, "duration": 100, "velocity": 80}, {"time": 147359, "pitch": 71, "duration": 100, "velocity": 80}, {"time": 147599, "pitch": 71, "duration": 100, "velocity": 80}, {"time": 147839, "pitch": 71, "duration": 99, "velocity": 80}, {"time": 148078, "pitch": 71, "duration": 100, "velocity": 80}, {"time": 148318, "pitch": 71, "duration": 100, "velocity": 80}, {"time": 148558, "pitch": 71, "duration": 100, "velocity": 80}, {"time": 148798, "pitch": 71, "duration": 100, "velocity": 80}, {"time": 149038, "pitch": 71, "duration": 100, "velocity": 80}, {"time": 149277, "pitch": 69, "duration": 100, "velocity": 80}, {"time": 149517, "pitch": 69, "duration": 100, "velocity": 80}, {"time": 149757, "pitch": 69, "duration": 101, "velocity": 80}, {"time": 150000, "pitch": 69, "duration": 101, "velocity": 90}, {"time": 150081, "pitch": 71, "duration": 101, "velocity": 80}, {"time": 150162, "pitch": 73, "duration": 101, "velocity": 80}, {"time": 150243, "pitch": 74, "duration": 100, "velocity": 80}, {"time": 150483, "pitch": 74, "duration": 100, "velocity": 80}, {"time": 150723, "pitch": 74, "duration": 99, "velocity": 80}, {"time": 150962, "pitch": 74, "duration": 100, "velocity": 80}, {"time": 151202, "pitch": 73, "duration": 100, "velocity": 80}, {"time": 151442, "pitch": 73, "duration": 100, "velocity": 80}, {"time": 151682, "pitch": 73, "duration": 100, "velocity": 80}, {"time": 151922, "pitch": 73, "duration": 100, "velocity": 80}, {"time": 152161, "pitch": 70, "duration": 100, "velocity": 80}, {"time": 152401, "pitch": 70, "duration": 100, "velocity": 80}, {"time": 152641, "pitch": 70, "duration": 100, "velocity": 80}, {"time": 152881, "pitch": 70, "duration": 100, "velocity": 80}, {"time": 153121, "pitch": 70, "duration": 100, "velocity": 80}, {"time": 153361, "pitch": 70, "duration": 100, "velocity": 80}, {"time": 153600, "pitch": 70, "duration": 100, "velocity": 80}, {"time": 153840, "pitch": 70, "duration": 100, "velocity": 80}, {"time": 154080, "pitch": 67, "duration": 1919, "velocity": 70}, {"time": 155999, "pitch": 69, "duration": 939, "velocity": 70}, {"time": 156958, "pitch": 66, "duration": 2884, "velocity": 70}, {"time": 159842, "pitch": 66, "duration": 959, "velocity": 70}, {"time": 160801, "pitch": 64, "duration": 480, "velocity": 70}, {"time": 161281, "pitch": 66, "duration": 480, "velocity": 70}, {"time": 161761, "pitch": 64, "duration": 1918, "velocity": 70}, {"time": 163679, "pitch": 66, "duration": 1899, "velocity": 80}, {"time": 165598, "pitch": 64, "duration": 1904, "velocity": 80}, {"time": 167522, "pitch": 66, "duration": 1899, "velocity": 80}, {"time": 169441, "pitch": 67, "duration": 1919, "velocity": 80}, {"time": 171360, "pitch": 66, "duration": 1898, "velocity": 80}, {"time": 9363, "pitch": 81, "duration": 10, "velocity": 92}, {"time": 9603, "pitch": 80, "duration": 10, "velocity": 64}, {"time": 9723, "pitch": 80, "duration": 10, "velocity": 64}, {"time": 9842, "pitch": 81, "duration": 10, "velocity": 92}, {"time": 13200, "pitch": 81, "duration": 10, "velocity": 92}, {"time": 13440, "pitch": 80, "duration": 10, "velocity": 64}, {"time": 13560, "pitch": 80, "duration": 10, "velocity": 64}, {"time": 13680, "pitch": 81, "duration": 10, "velocity": 92}, {"time": 31679, "pitch": 42, "duration": 10, "velocity": 78}, {"time": 32638, "pitch": 37, "duration": 10, "velocity": 78}, {"time": 32638, "pitch": 42, "duration": 10, "velocity": 78}, {"time": 33597, "pitch": 42, "duration": 10, "velocity": 78}, {"time": 34563, "pitch": 37, "duration": 10, "velocity": 78}, {"time": 34563, "pitch": 42, "duration": 10, "velocity": 78}, {"time": 35522, "pitch": 42, "duration": 10, "velocity": 78}, {"time": 36481, "pitch": 37, "duration": 10, "velocity": 78}, {"time": 36481, "pitch": 42, "duration": 10, "velocity": 78}, {"time": 37440, "pitch": 42, "duration": 10, "velocity": 78}, {"time": 38400, "pitch": 37, "duration": 10, "velocity": 78}, {"time": 38400, "pitch": 42, "duration": 10, "velocity": 78}, {"time": 39359, "pitch": 42, "duration": 10, "velocity": 78}, {"time": 40318, "pitch": 37, "duration": 10, "velocity": 78}, {"time": 40318, "pitch": 42, "duration": 10, "velocity": 78}, {"time": 41278, "pitch": 42, "duration": 10, "velocity": 78}, {"time": 42243, "pitch": 37, "duration": 10, "velocity": 78}, {"time": 42243, "pitch": 42, "duration": 10, "velocity": 78}, {"time": 43202, "pitch": 42, "duration": 10, "velocity": 78}, {"time": 44162, "pitch": 37, "duration": 10, "velocity": 78}, {"time": 44162, "pitch": 42, "duration": 10, "velocity": 78}, {"time": 44881, "pitch": 42, "duration": 1, "velocity": 92}, {"time": 45001, "pitch": 42, "duration": 1, "velocity": 36}, {"time": 45121, "pitch": 46, "duration": 1, "velocity": 92}, {"time": 45601, "pitch": 44, "duration": 1, "velocity": 92}, {"time": 45840, "pitch": 45, "duration": 10, "velocity": 78}, {"time": 45850, "pitch": 45, "duration": 10, "velocity": 92}, {"time": 46080, "pitch": 41, "duration": 10, "velocity": 78}, {"time": 46090, "pitch": 41, "duration": 10, "velocity": 92}, {"time": 46320, "pitch": 46, "duration": 1, "velocity": 78}, {"time": 46560, "pitch": 36, "duration": 10, "velocity": 92}, {"time": 46560, "pitch": 44, "duration": 1, "velocity": 8}, {"time": 46560, "pitch": 49, "duration": 10, "velocity": 50}, {"time": 46800, "pitch": 42, "duration": 10, "velocity": 36}, {"time": 47040, "pitch": 42, "duration": 10, "velocity": 92}, {"time": 47279, "pitch": 36, "duration": 10, "velocity": 78}, {"time": 47279, "pitch": 42, "duration": 10, "velocity": 36}, {"time": 47519, "pitch": 36, "duration": 10, "velocity": 92}, {"time": 47519, "pitch": 42, "duration": 10, "velocity": 92}, {"time": 47759, "pitch": 42, "duration": 10, "velocity": 36}, {"time": 47999, "pitch": 40, "duration": 10, "velocity": 92}, {"time": 47999, "pitch": 42, "duration": 10, "velocity": 92}, {"time": 48239, "pitch": 36, "duration": 10, "velocity": 78}, {"time": 48239, "pitch": 42, "duration": 10, "velocity": 36}, {"time": 48478, "pitch": 36, "duration": 10, "velocity": 92}, {"time": 48478, "pitch": 42, "duration": 10, "velocity": 92}, {"time": 48718, "pitch": 42, "duration": 10, "velocity": 36}, {"time": 48958, "pitch": 42, "duration": 10, "velocity": 92}, {"time": 49198, "pitch": 36, "duration": 10, "velocity": 78}, {"time": 49198, "pitch": 42, "duration": 10, "velocity": 36}, {"time": 49438, "pitch": 36, "duration": 10, "velocity": 92}, {"time": 49438, "pitch": 42, "duration": 10, "velocity": 92}, {"time": 49678, "pitch": 42, "duration": 10, "velocity": 36}, {"time": 49917, "pitch": 40, "duration": 10, "velocity": 92}, {"time": 49917, "pitch": 42, "duration": 10, "velocity": 92}, {"time": 50157, "pitch": 36, "duration": 10, "velocity": 78}, {"time": 50157, "pitch": 42, "duration": 10, "velocity": 36}, {"time": 50397, "pitch": 36, "duration": 10, "velocity": 92}, {"time": 50397, "pitch": 42, "duration": 10, "velocity": 92}, {"time": 50640, "pitch": 42, "duration": 10, "velocity": 36}, {"time": 50883, "pitch": 42, "duration": 10, "velocity": 92}, {"time": 51123, "pitch": 36, "duration": 10, "velocity": 78}, {"time": 51123, "pitch": 42, "duration": 10, "velocity": 36}, {"time": 51362, "pitch": 36, "duration": 10, "velocity": 92}, {"time": 51362, "pitch": 42, "duration": 10, "velocity": 92}, {"time": 51602, "pitch": 42, "duration": 10, "velocity": 36}, {"time": 51842, "pitch": 40, "duration": 10, "velocity": 92}, {"time": 51842, "pitch": 42, "duration": 10, "velocity": 92}, {"time": 52082, "pitch": 36, "duration": 10, "velocity": 78}, {"time": 52082, "pitch": 42, "duration": 10, "velocity": 36}, {"time": 52322, "pitch": 36, "duration": 10, "velocity": 92}, {"time": 52322, "pitch": 42, "duration": 10, "velocity": 92}, {"time": 52562, "pitch": 42, "duration": 10, "velocity": 36}, {"time": 52801, "pitch": 42, "duration": 10, "velocity": 92}, {"time": 53041, "pitch": 36, "duration": 10, "velocity": 78}, {"time": 53041, "pitch": 42, "duration": 10, "velocity": 36}, {"time": 53281, "pitch": 36, "duration": 10, "velocity": 92}, {"time": 53281, "pitch": 42, "duration": 10, "velocity": 92}, {"time": 53521, "pitch": 42, "duration": 10, "velocity": 36}, {"time": 53761, "pitch": 40, "duration": 10, "velocity": 92}, {"time": 53761, "pitch": 42, "duration": 10, "velocity": 92}, {"time": 53881, "pitch": 42, "duration": 1, "velocity": 50}, {"time": 54000, "pitch": 36, "duration": 10, "velocity": 78}, {"time": 54000, "pitch": 46, "duration": 1, "velocity": 78}, {"time": 54240, "pitch": 36, "duration": 10, "velocity": 92}, {"time": 54240, "pitch": 42, "duration": 10, "velocity": 92}, {"time": 54480, "pitch": 42, "duration": 10, "velocity": 36}, {"time": 54720, "pitch": 42, "duration": 10, "velocity": 92}, {"time": 54960, "pitch": 36, "duration": 10, "velocity": 78}, {"time": 54960, "pitch": 42, "duration": 10, "velocity": 36}, {"time": 55200, "pitch": 36, "duration": 10, "velocity": 92}, {"time": 55200, "pitch": 42, "duration": 10, "velocity": 92}, {"time": 55439, "pitch": 42, "duration": 10, "velocity": 36}, {"time": 55679, "pitch": 40, "duration": 10, "velocity": 92}, {"time": 55679, "pitch": 42, "duration": 10, "velocity": 92}, {"time": 55919, "pitch": 36, "duration": 10, "velocity": 78}, {"time": 55919, "pitch": 42, "duration": 10, "velocity": 36}, {"time": 56159, "pitch": 36, "duration": 10, "velocity": 92}, {"time": 56159, "pitch": 42, "duration": 10, "velocity": 92}, {"time": 56399, "pitch": 42, "duration": 10, "velocity": 36}, {"time": 56639, "pitch": 42, "duration": 10, "velocity": 92}, {"time": 56878, "pitch": 36, "duration": 10, "velocity": 78}, {"time": 56878, "pitch": 42, "duration": 10, "velocity": 36}, {"time": 57118, "pitch": 36, "duration": 10, "velocity": 92}, {"time": 57118, "pitch": 42, "duration": 10, "velocity": 92}, {"time": 57358, "pitch": 42, "duration": 10, "velocity": 36}, {"time": 57598, "pitch": 40, "duration": 10, "velocity": 92}, {"time": 57598, "pitch": 42, "duration": 10, "velocity": 92}, {"time": 57838, "pitch": 36, "duration": 10, "velocity": 78}, {"time": 57838, "pitch": 42, "duration": 10, "velocity": 36}, {"time": 57958, "pitch": 42, "duration": 1, "velocity": 36}, {"time": 58078, "pitch": 36, "duration": 9, "velocity": 92}, {"time": 58078, "pitch": 42, "duration": 9, "velocity": 92}, {"time": 58317, "pitch": 42, "duration": 10, "velocity": 36}, {"time": 58557, "pitch": 42, "duration": 10, "velocity": 92}, {"time": 58800, "pitch": 36, "duration": 10, "velocity": 78}, {"time": 58800, "pitch": 42, "duration": 10, "velocity": 36}, {"time": 59043, "pitch": 36, "duration": 10, "velocity": 92}, {"time": 59043, "pitch": 42, "duration": 10, "velocity": 92}, {"time": 59283, "pitch": 42, "duration": 10, "velocity": 36}, {"time": 59523, "pitch": 40, "duration": 10, "velocity": 92}, {"time": 59523, "pitch": 42, "duration": 10, "velocity": 92}, {"time": 59762, "pitch": 36, "duration": 10, "velocity": 78}, {"time": 59762, "pitch": 42, "duration": 10, "velocity": 36}, {"time": 60002, "pitch": 36, "duration": 10, "velocity": 92}, {"time": 60002, "pitch": 42, "duration": 10, "velocity": 92}, {"time": 60242, "pitch": 42, "duration": 10, "velocity": 36}, {"time": 60482, "pitch": 40, "duration": 10, "velocity": 92}, {"time": 60482, "pitch": 42, "duration": 10, "velocity": 92}, {"time": 60722, "pitch": 42, "duration": 10, "velocity": 50}, {"time": 60842, "pitch": 42, "duration": 1, "velocity": 50}, {"time": 60961, "pitch": 36, "duration": 10, "velocity": 92}, {"time": 60961, "pitch": 46, "duration": 10, "velocity": 92}, {"time": 61441, "pitch": 44, "duration": 1, "velocity": 92}, {"time": 61921, "pitch": 36, "duration": 10, "velocity": 92}, {"time": 61921, "pitch": 49, "duration": 10, "velocity": 64}, {"time": 63240, "pitch": 42, "duration": 1, "velocity": 36}, {"time": 63280, "pitch": 42, "duration": 1, "velocity": 50}, {"time": 63320, "pitch": 42, "duration": 1, "velocity": 78}, {"time": 63360, "pitch": 46, "duration": 1, "velocity": 106}, {"time": 63839, "pitch": 36, "duration": 10, "velocity": 92}, {"time": 63839, "pitch": 49, "duration": 10, "velocity": 64}, {"time": 64799, "pitch": 36, "duration": 10, "velocity": 92}, {"time": 64799, "pitch": 49, "duration": 10, "velocity": 64}, {"time": 65758, "pitch": 36, "duration": 10, "velocity": 92}, {"time": 65758, "pitch": 49, "duration": 10, "velocity": 64}, {"time": 66238, "pitch": 40, "duration": 10, "velocity": 106}, {"time": 66238, "pitch": 46, "duration": 10, "velocity": 106}, {"time": 66960, "pitch": 48, "duration": 10, "velocity": 92}, {"time": 67203, "pitch": 45, "duration": 10, "velocity": 50}, {"time": 67443, "pitch": 41, "duration": 10, "velocity": 78}, {"time": 67563, "pitch": 41, "duration": 10, "velocity": 120}, {"time": 67683, "pitch": 36, "duration": 10, "velocity": 106}, {"time": 67683, "pitch": 49, "duration": 10, "velocity": 78}, {"time": 67922, "pitch": 51, "duration": 10, "velocity": 92}, {"time": 68162, "pitch": 40, "duration": 10, "velocity": 106}, {"time": 68162, "pitch": 51, "duration": 10, "velocity": 106}, {"time": 68402, "pitch": 36, "duration": 10, "velocity": 92}, {"time": 68402, "pitch": 51, "duration": 10, "velocity": 92}, {"time": 68642, "pitch": 51, "duration": 10, "velocity": 106}, {"time": 68882, "pitch": 36, "duration": 10, "velocity": 92}, {"time": 68882, "pitch": 51, "duration": 10, "velocity": 92}, {"time": 69122, "pitch": 40, "duration": 10, "velocity": 106}, {"time": 69122, "pitch": 51, "duration": 10, "velocity": 106}, {"time": 69122, "pitch": 80, "duration": 1, "velocity": 64}, {"time": 69241, "pitch": 80, "duration": 1, "velocity": 64}, {"time": 69361, "pitch": 36, "duration": 10, "velocity": 92}, {"time": 69361, "pitch": 51, "duration": 10, "velocity": 92}, {"time": 69361, "pitch": 81, "duration": 1, "velocity": 92}, {"time": 69601, "pitch": 36, "duration": 10, "velocity": 106}, {"time": 69601, "pitch": 51, "duration": 10, "velocity": 106}, {"time": 69841, "pitch": 51, "duration": 10, "velocity": 92}, {"time": 70081, "pitch": 40, "duration": 10, "velocity": 106}, {"time": 70081, "pitch": 51, "duration": 10, "velocity": 106}, {"time": 70321, "pitch": 36, "duration": 10, "velocity": 92}, {"time": 70321, "pitch": 51, "duration": 10, "velocity": 92}, {"time": 70561, "pitch": 51, "duration": 9, "velocity": 106}, {"time": 70800, "pitch": 36, "duration": 10, "velocity": 92}, {"time": 70800, "pitch": 51, "duration": 10, "velocity": 92}, {"time": 71040, "pitch": 40, "duration": 10, "velocity": 106}, {"time": 71040, "pitch": 51, "duration": 10, "velocity": 106}, {"time": 71040, "pitch": 80, "duration": 1, "velocity": 64}, {"time": 71160, "pitch": 80, "duration": 1, "velocity": 64}, {"time": 71280, "pitch": 36, "duration": 10, "velocity": 92}, {"time": 71280, "pitch": 51, "duration": 10, "velocity": 92}, {"time": 71280, "pitch": 81, "duration": 1, "velocity": 92}, {"time": 71520, "pitch": 36, "duration": 10, "velocity": 106}, {"time": 71520, "pitch": 51, "duration": 10, "velocity": 106}, {"time": 71760, "pitch": 51, "duration": 10, "velocity": 92}, {"time": 71999, "pitch": 40, "duration": 10, "velocity": 106}, {"time": 71999, "pitch": 51, "duration": 10, "velocity": 106}, {"time": 72239, "pitch": 36, "duration": 10, "velocity": 92}, {"time": 72239, "pitch": 51, "duration": 10, "velocity": 92}, {"time": 72479, "pitch": 51, "duration": 10, "velocity": 106}, {"time": 72719, "pitch": 36, "duration": 10, "velocity": 92}, {"time": 72719, "pitch": 51, "duration": 10, "velocity": 92}, {"time": 72959, "pitch": 40, "duration": 10, "velocity": 106}, {"time": 72959, "pitch": 51, "duration": 10, "velocity": 106}, {"time": 72959, "pitch": 80, "duration": 1, "velocity": 64}, {"time": 73079, "pitch": 80, "duration": 1, "velocity": 64}, {"time": 73199, "pitch": 36, "duration": 10, "velocity": 92}, {"time": 73199, "pitch": 51, "duration": 10, "velocity": 92}, {"time": 73199, "pitch": 81, "duration": 1, "velocity": 92}, {"time": 73438, "pitch": 36, "duration": 10, "velocity": 106}, {"time": 73438, "pitch": 51, "duration": 10, "velocity": 106}, {"time": 73678, "pitch": 51, "duration": 10, "velocity": 92}, {"time": 73918, "pitch": 40, "duration": 10, "velocity": 106}, {"time": 73918, "pitch": 51, "duration": 10, "velocity": 106}, {"time": 74158, "pitch": 36, "duration": 10, "velocity": 92}, {"time": 74158, "pitch": 51, "duration": 10, "velocity": 92}, {"time": 74398, "pitch": 51, "duration": 10, "velocity": 106}, {"time": 74638, "pitch": 36, "duration": 10, "velocity": 92}, {"time": 74638, "pitch": 51, "duration": 10, "velocity": 92}, {"time": 74877, "pitch": 40, "duration": 10, "velocity": 106}, {"time": 74877, "pitch": 51, "duration": 10, "velocity": 106}, {"time": 74877, "pitch": 80, "duration": 1, "velocity": 64}, {"time": 74997, "pitch": 80, "duration": 1, "velocity": 64}, {"time": 75117, "pitch": 36, "duration": 10, "velocity": 92}, {"time": 75117, "pitch": 51, "duration": 10, "velocity": 92}, {"time": 75117, "pitch": 81, "duration": 1, "velocity": 92}, {"time": 75357, "pitch": 36, "duration": 10, "velocity": 106}, {"time": 75357, "pitch": 51, "duration": 10, "velocity": 106}, {"time": 75600, "pitch": 51, "duration": 10, "velocity": 92}, {"time": 75843, "pitch": 40, "duration": 10, "velocity": 106}, {"time": 75843, "pitch": 51, "duration": 10, "velocity": 106}, {"time": 76083, "pitch": 36, "duration": 10, "velocity": 92}, {"time": 76083, "pitch": 51, "duration": 10, "velocity": 92}, {"time": 76322, "pitch": 51, "duration": 10, "velocity": 106}, {"time": 76562, "pitch": 36, "duration": 10, "velocity": 92}, {"time": 76562, "pitch": 51, "duration": 10, "velocity": 92}, {"time": 76802, "pitch": 40, "duration": 10, "velocity": 106}, {"time": 76802, "pitch": 51, "duration": 10, "velocity": 106}, {"time": 76802, "pitch": 80, "duration": 1, "velocity": 64}, {"time": 76922, "pitch": 80, "duration": 1, "velocity": 64}, {"time": 77042, "pitch": 36, "duration": 10, "velocity": 92}, {"time": 77042, "pitch": 51, "duration": 10, "velocity": 92}, {"time": 77042, "pitch": 81, "duration": 1, "velocity": 92}, {"time": 77282, "pitch": 36, "duration": 10, "velocity": 106}, {"time": 77282, "pitch": 51, "duration": 10, "velocity": 106}, {"time": 77521, "pitch": 51, "duration": 10, "velocity": 92}, {"time": 77761, "pitch": 40, "duration": 10, "velocity": 106}, {"time": 77761, "pitch": 51, "duration": 10, "velocity": 106}, {"time": 78001, "pitch": 36, "duration": 10, "velocity": 92}, {"time": 78001, "pitch": 51, "duration": 10, "velocity": 92}, {"time": 78241, "pitch": 51, "duration": 10, "velocity": 106}, {"time": 78481, "pitch": 36, "duration": 10, "velocity": 92}, {"time": 78481, "pitch": 51, "duration": 10, "velocity": 92}, {"time": 78721, "pitch": 40, "duration": 10, "velocity": 106}, {"time": 78721, "pitch": 51, "duration": 10, "velocity": 106}, {"time": 78721, "pitch": 80, "duration": 1, "velocity": 64}, {"time": 78841, "pitch": 80, "duration": 1, "velocity": 64}, {"time": 78960, "pitch": 36, "duration": 10, "velocity": 92}, {"time": 78960, "pitch": 51, "duration": 10, "velocity": 92}, {"time": 78960, "pitch": 81, "duration": 1, "velocity": 92}, {"time": 79200, "pitch": 36, "duration": 10, "velocity": 106}, {"time": 79200, "pitch": 51, "duration": 10, "velocity": 106}, {"time": 79440, "pitch": 51, "duration": 10, "velocity": 92}, {"time": 79680, "pitch": 40, "duration": 10, "velocity": 106}, {"time": 79680, "pitch": 51, "duration": 10, "velocity": 106}, {"time": 79920, "pitch": 36, "duration": 10, "velocity": 92}, {"time": 79920, "pitch": 51, "duration": 10, "velocity": 92}, {"time": 80160, "pitch": 51, "duration": 10, "velocity": 106}, {"time": 80399, "pitch": 36, "duration": 10, "velocity": 92}, {"time": 80399, "pitch": 51, "duration": 10, "velocity": 92}, {"time": 80639, "pitch": 40, "duration": 10, "velocity": 106}, {"time": 80639, "pitch": 51, "duration": 10, "velocity": 106}, {"time": 80639, "pitch": 80, "duration": 1, "velocity": 64}, {"time": 80759, "pitch": 80, "duration": 1, "velocity": 64}, {"time": 80879, "pitch": 36, "duration": 10, "velocity": 92}, {"time": 80879, "pitch": 51, "duration": 10, "velocity": 92}, {"time": 80879, "pitch": 81, "duration": 1, "velocity": 92}, {"time": 81119, "pitch": 36, "duration": 10, "velocity": 106}, {"time": 81119, "pitch": 51, "duration": 10, "velocity": 106}, {"time": 81359, "pitch": 51, "duration": 10, "velocity": 92}, {"time": 81598, "pitch": 40, "duration": 10, "velocity": 106}, {"time": 81598, "pitch": 51, "duration": 10, "velocity": 106}, {"time": 81838, "pitch": 36, "duration": 10, "velocity": 92}, {"time": 81838, "pitch": 51, "duration": 10, "velocity": 92}, {"time": 82078, "pitch": 51, "duration": 10, "velocity": 106}, {"time": 82318, "pitch": 36, "duration": 10, "velocity": 92}, {"time": 82318, "pitch": 51, "duration": 10, "velocity": 92}, {"time": 82558, "pitch": 40, "duration": 10, "velocity": 106}, {"time": 82558, "pitch": 51, "duration": 10, "velocity": 106}, {"time": 82558, "pitch": 80, "duration": 1, "velocity": 64}, {"time": 82678, "pitch": 80, "duration": 1, "velocity": 64}, {"time": 82798, "pitch": 36, "duration": 10, "velocity": 92}, {"time": 82798, "pitch": 51, "duration": 10, "velocity": 92}, {"time": 82798, "pitch": 81, "duration": 1, "velocity": 92}, {"time": 83037, "pitch": 36, "duration": 10, "velocity": 106}, {"time": 83037, "pitch": 49, "duration": 10, "velocity": 78}, {"time": 83277, "pitch": 51, "duration": 10, "velocity": 92}, {"time": 83517, "pitch": 40, "duration": 10, "velocity": 106}, {"time": 83517, "pitch": 51, "duration": 10, "velocity": 106}, {"time": 83760, "pitch": 36, "duration": 10, "velocity": 92}, {"time": 83760, "pitch": 51, "duration": 10, "velocity": 92}, {"time": 84003, "pitch": 51, "duration": 10, "velocity": 106}, {"time": 84243, "pitch": 36, "duration": 10, "velocity": 92}, {"time": 84243, "pitch": 51, "duration": 10, "velocity": 92}, {"time": 84482, "pitch": 40, "duration": 10, "velocity": 106}, {"time": 84482, "pitch": 51, "duration": 10, "velocity": 106}, {"time": 84482, "pitch": 80, "duration": 1, "velocity": 64}, {"time": 84602, "pitch": 80, "duration": 1, "velocity": 64}, {"time": 84722, "pitch": 36, "duration": 10, "velocity": 92}, {"time": 84722, "pitch": 51, "duration": 10, "velocity": 92}, {"time": 84722, "pitch": 81, "duration": 1, "velocity": 92}, {"time": 84962, "pitch": 36, "duration": 10, "velocity": 106}, {"time": 84962, "pitch": 51, "duration": 10, "velocity": 106}, {"time": 85202, "pitch": 51, "duration": 10, "velocity": 92}, {"time": 85442, "pitch": 40, "duration": 10, "velocity": 106}, {"time": 85442, "pitch": 51, "duration": 10, "velocity": 106}, {"time": 85682, "pitch": 36, "duration": 10, "velocity": 92}, {"time": 85682, "pitch": 51, "duration": 10, "velocity": 92}, {"time": 85921, "pitch": 51, "duration": 10, "velocity": 106}, {"time": 86161, "pitch": 36, "duration": 10, "velocity": 92}, {"time": 86161, "pitch": 51, "duration": 10, "velocity": 92}, {"time": 86401, "pitch": 40, "duration": 10, "velocity": 106}, {"time": 86401, "pitch": 51, "duration": 10, "velocity": 106}, {"time": 86401, "pitch": 80, "duration": 1, "velocity": 64}, {"time": 86521, "pitch": 80, "duration": 1, "velocity": 64}, {"time": 86641, "pitch": 36, "duration": 10, "velocity": 92}, {"time": 86641, "pitch": 51, "duration": 10, "velocity": 92}, {"time": 86641, "pitch": 81, "duration": 1, "velocity": 92}, {"time": 86881, "pitch": 36, "duration": 10, "velocity": 106}, {"time": 86881, "pitch": 51, "duration": 10, "velocity": 106}, {"time": 87121, "pitch": 51, "duration": 10, "velocity": 92}, {"time": 87360, "pitch": 40, "duration": 10, "velocity": 106}, {"time": 87360, "pitch": 51, "duration": 10, "velocity": 106}, {"time": 87600, "pitch": 36, "duration": 10, "velocity": 92}, {"time": 87600, "pitch": 51, "duration": 10, "velocity": 92}, {"time": 87840, "pitch": 51, "duration": 10, "velocity": 106}, {"time": 88080, "pitch": 36, "duration": 10, "velocity": 92}, {"time": 88080, "pitch": 51, "duration": 10, "velocity": 92}, {"time": 88320, "pitch": 40, "duration": 10, "velocity": 106}, {"time": 88320, "pitch": 80, "duration": 1, "velocity": 64}, {"time": 88440, "pitch": 80, "duration": 1, "velocity": 64}, {"time": 88559, "pitch": 41, "duration": 10, "velocity": 106}, {"time": 88559, "pitch": 81, "duration": 1, "velocity": 92}, {"time": 88799, "pitch": 36, "duration": 10, "velocity": 106}, {"time": 88799, "pitch": 49, "duration": 10, "velocity": 78}, {"time": 89998, "pitch": 42, "duration": 1, "velocity": 78}, {"time": 90058, "pitch": 42, "duration": 1, "velocity": 50}, {"time": 90118, "pitch": 42, "duration": 1, "velocity": 64}, {"time": 90178, "pitch": 42, "duration": 1, "velocity": 78}, {"time": 90238, "pitch": 46, "duration": 10, "velocity": 92}, {"time": 90718, "pitch": 36, "duration": 10, "velocity": 92}, {"time": 90718, "pitch": 42, "duration": 10, "velocity": 92}, {"time": 91198, "pitch": 42, "duration": 10, "velocity": 92}, {"time": 91437, "pitch": 36, "duration": 10, "velocity": 78}, {"time": 91677, "pitch": 36, "duration": 10, "velocity": 92}, {"time": 91677, "pitch": 42, "duration": 10, "velocity": 92}, {"time": 92163, "pitch": 37, "duration": 10, "velocity": 106}, {"time": 92163, "pitch": 42, "duration": 10, "velocity": 92}, {"time": 92403, "pitch": 42, "duration": 1, "velocity": 50}, {"time": 92643, "pitch": 36, "duration": 10, "velocity": 92}, {"time": 92643, "pitch": 42, "duration": 10, "velocity": 92}, {"time": 93122, "pitch": 42, "duration": 10, "velocity": 92}, {"time": 93362, "pitch": 36, "duration": 10, "velocity": 78}, {"time": 93602, "pitch": 36, "duration": 10, "velocity": 92}, {"time": 93602, "pitch": 42, "duration": 10, "velocity": 92}, {"time": 94081, "pitch": 37, "duration": 10, "velocity": 106}, {"time": 94081, "pitch": 42, "duration": 10, "velocity": 92}, {"time": 94321, "pitch": 42, "duration": 1, "velocity": 50}, {"time": 94561, "pitch": 36, "duration": 10, "velocity": 92}, {"time": 94561, "pitch": 42, "duration": 10, "velocity": 92}, {"time": 95041, "pitch": 42, "duration": 10, "velocity": 92}, {"time": 95281, "pitch": 36, "duration": 10, "velocity": 78}, {"time": 95520, "pitch": 36, "duration": 10, "velocity": 92}, {"time": 95520, "pitch": 42, "duration": 10, "velocity": 92}, {"time": 96000, "pitch": 37, "duration": 10, "velocity": 106}, {"time": 96000, "pitch": 42, "duration": 10, "velocity": 92}, {"time": 96240, "pitch": 42, "duration": 1, "velocity": 50}, {"time": 96480, "pitch": 36, "duration": 10, "velocity": 92}, {"time": 96480, "pitch": 42, "duration": 10, "velocity": 92}, {"time": 96959, "pitch": 42, "duration": 10, "velocity": 92}, {"time": 97199, "pitch": 36, "duration": 10, "velocity": 78}, {"time": 97439, "pitch": 36, "duration": 10, "velocity": 92}, {"time": 97439, "pitch": 42, "duration": 10, "velocity": 92}, {"time": 97919, "pitch": 37, "duration": 10, "velocity": 106}, {"time": 97919, "pitch": 42, "duration": 10, "velocity": 92}, {"time": 98159, "pitch": 42, "duration": 1, "velocity": 50}, {"time": 98398, "pitch": 36, "duration": 10, "velocity": 92}, {"time": 98398, "pitch": 42, "duration": 10, "velocity": 92}, {"time": 98878, "pitch": 42, "duration": 10, "velocity": 92}, {"time": 99118, "pitch": 36, "duration": 10, "velocity": 78}, {"time": 99358, "pitch": 36, "duration": 10, "velocity": 92}, {"time": 99358, "pitch": 42, "duration": 10, "velocity": 92}, {"time": 99837, "pitch": 37, "duration": 10, "velocity": 106}, {"time": 99837, "pitch": 42, "duration": 10, "velocity": 92}, {"time": 100080, "pitch": 42, "duration": 1, "velocity": 50}, {"time": 100323, "pitch": 36, "duration": 10, "velocity": 92}, {"time": 100323, "pitch": 42, "duration": 10, "velocity": 92}, {"time": 100803, "pitch": 42, "duration": 10, "velocity": 92}, {"time": 101042, "pitch": 36, "duration": 10, "velocity": 78}, {"time": 101282, "pitch": 36, "duration": 10, "velocity": 92}, {"time": 101282, "pitch": 42, "duration": 10, "velocity": 92}, {"time": 101762, "pitch": 37, "duration": 10, "velocity": 106}, {"time": 101762, "pitch": 42, "duration": 10, "velocity": 92}, {"time": 102002, "pitch": 42, "duration": 1, "velocity": 50}, {"time": 102242, "pitch": 36, "duration": 10, "velocity": 92}, {"time": 102242, "pitch": 42, "duration": 10, "velocity": 92}, {"time": 102721, "pitch": 36, "duration": 10, "velocity": 92}, {"time": 102721, "pitch": 46, "duration": 10, "velocity": 92}, {"time": 103201, "pitch": 36, "duration": 10, "velocity": 92}, {"time": 103201, "pitch": 42, "duration": 10, "velocity": 92}, {"time": 103441, "pitch": 46, "duration": 10, "velocity": 92}, {"time": 103681, "pitch": 40, "duration": 10, "velocity": 92}, {"time": 103681, "pitch": 42, "duration": 10, "velocity": 92}, {"time": 103920, "pitch": 36, "duration": 10, "velocity": 92}, {"time": 103920, "pitch": 49, "duration": 10, "velocity": 78}, {"time": 104880, "pitch": 48, "duration": 10, "velocity": 64}, {"time": 104890, "pitch": 48, "duration": 10, "velocity": 78}, {"time": 105359, "pitch": 45, "duration": 10, "velocity": 78}, {"time": 105369, "pitch": 45, "duration": 10, "velocity": 92}, {"time": 105599, "pitch": 41, "duration": 10, "velocity": 106}, {"time": 105609, "pitch": 41, "duration": 10, "velocity": 120}, {"time": 106079, "pitch": 36, "duration": 10, "velocity": 92}, {"time": 106079, "pitch": 42, "duration": 10, "velocity": 92}, {"time": 106558, "pitch": 42, "duration": 10, "velocity": 92}, {"time": 106798, "pitch": 36, "duration": 10, "velocity": 78}, {"time": 107038, "pitch": 36, "duration": 10, "velocity": 92}, {"time": 107038, "pitch": 42, "duration": 10, "velocity": 92}, {"time": 107518, "pitch": 40, "duration": 10, "velocity": 78}, {"time": 107518, "pitch": 42, "duration": 10, "velocity": 92}, {"time": 107758, "pitch": 42, "duration": 1, "velocity": 50}, {"time": 107997, "pitch": 36, "duration": 10, "velocity": 92}, {"time": 107997, "pitch": 42, "duration": 10, "velocity": 92}, {"time": 108477, "pitch": 42, "duration": 10, "velocity": 92}, {"time": 108720, "pitch": 36, "duration": 10, "velocity": 78}, {"time": 108963, "pitch": 36, "duration": 10, "velocity": 92}, {"time": 108963, "pitch": 42, "duration": 10, "velocity": 92}, {"time": 109442, "pitch": 40, "duration": 10, "velocity": 78}, {"time": 109442, "pitch": 42, "duration": 10, "velocity": 92}, {"time": 109682, "pitch": 42, "duration": 1, "velocity": 50}, {"time": 109922, "pitch": 36, "duration": 10, "velocity": 92}, {"time": 109922, "pitch": 42, "duration": 10, "velocity": 92}, {"time": 110402, "pitch": 42, "duration": 10, "velocity": 92}, {"time": 110642, "pitch": 36, "duration": 10, "velocity": 78}, {"time": 110881, "pitch": 36, "duration": 10, "velocity": 92}, {"time": 110881, "pitch": 42, "duration": 10, "velocity": 92}, {"time": 111361, "pitch": 40, "duration": 10, "velocity": 78}, {"time": 111361, "pitch": 42, "duration": 10, "velocity": 92}, {"time": 111601, "pitch": 42, "duration": 1, "velocity": 50}, {"time": 111841, "pitch": 36, "duration": 10, "velocity": 92}, {"time": 111841, "pitch": 42, "duration": 10, "velocity": 92}, {"time": 112320, "pitch": 42, "duration": 10, "velocity": 92}, {"time": 112560, "pitch": 36, "duration": 10, "velocity": 78}, {"time": 112800, "pitch": 36, "duration": 10, "velocity": 92}, {"time": 112800, "pitch": 42, "duration": 10, "velocity": 92}, {"time": 113280, "pitch": 40, "duration": 10, "velocity": 78}, {"time": 113280, "pitch": 42, "duration": 10, "velocity": 92}, {"time": 113519, "pitch": 42, "duration": 1, "velocity": 50}, {"time": 113759, "pitch": 36, "duration": 10, "velocity": 92}, {"time": 113759, "pitch": 42, "duration": 10, "velocity": 92}, {"time": 114239, "pitch": 42, "duration": 10, "velocity": 92}, {"time": 114479, "pitch": 36, "duration": 10, "velocity": 78}, {"time": 114719, "pitch": 36, "duration": 10, "velocity": 92}, {"time": 114719, "pitch": 42, "duration": 10, "velocity": 92}, {"time": 115198, "pitch": 40, "duration": 10, "velocity": 78}, {"time": 115198, "pitch": 42, "duration": 10, "velocity": 92}, {"time": 115438, "pitch": 42, "duration": 1, "velocity": 50}, {"time": 115678, "pitch": 36, "duration": 10, "velocity": 92}, {"time": 115678, "pitch": 42, "duration": 10, "velocity": 92}, {"time": 116157, "pitch": 42, "duration": 10, "velocity": 92}, {"time": 116397, "pitch": 36, "duration": 10, "velocity": 78}, {"time": 116637, "pitch": 36, "duration": 10, "velocity": 92}, {"time": 116637, "pitch": 42, "duration": 10, "velocity": 92}, {"time": 117123, "pitch": 40, "duration": 10, "velocity": 78}, {"time": 117123, "pitch": 42, "duration": 10, "velocity": 92}, {"time": 117363, "pitch": 42, "duration": 1, "velocity": 50}, {"time": 117602, "pitch": 36, "duration": 10, "velocity": 106}, {"time": 117602, "pitch": 42, "duration": 10, "velocity": 78}, {"time": 117842, "pitch": 42, "duration": 10, "velocity": 64}, {"time": 118082, "pitch": 40, "duration": 10, "velocity": 78}, {"time": 118082, "pitch": 42, "duration": 10, "velocity": 78}, {"time": 118322, "pitch": 42, "duration": 10, "velocity": 64}, {"time": 118562, "pitch": 36, "duration": 10, "velocity": 106}, {"time": 118562, "pitch": 42, "duration": 10, "velocity": 78}, {"time": 118802, "pitch": 46, "duration": 10, "velocity": 78}, {"time": 119041, "pitch": 40, "duration": 10, "velocity": 78}, {"time": 119041, "pitch": 42, "duration": 10, "velocity": 78}, {"time": 119281, "pitch": 36, "duration": 10, "velocity": 106}, {"time": 119281, "pitch": 49, "duration": 10, "velocity": 78}, {"time": 120960, "pitch": 36, "duration": 10, "velocity": 92}, {"time": 121200, "pitch": 46, "duration": 1, "velocity": 92}, {"time": 121440, "pitch": 36, "duration": 10, "velocity": 92}, {"time": 121440, "pitch": 44, "duration": 1, "velocity": 8}, {"time": 121440, "pitch": 49, "duration": 10, "velocity": 50}, {"time": 121679, "pitch": 42, "duration": 10, "velocity": 36}, {"time": 121919, "pitch": 40, "duration": 10, "velocity": 92}, {"time": 121919, "pitch": 42, "duration": 10, "velocity": 92}, {"time": 122159, "pitch": 36, "duration": 10, "velocity": 78}, {"time": 122159, "pitch": 42, "duration": 10, "velocity": 36}, {"time": 122399, "pitch": 36, "duration": 10, "velocity": 92}, {"time": 122399, "pitch": 42, "duration": 10, "velocity": 92}, {"time": 122639, "pitch": 42, "duration": 10, "velocity": 36}, {"time": 122879, "pitch": 40, "duration": 10, "velocity": 92}, {"time": 122879, "pitch": 42, "duration": 10, "velocity": 92}, {"time": 123118, "pitch": 36, "duration": 10, "velocity": 78}, {"time": 123118, "pitch": 42, "duration": 10, "velocity": 50}, {"time": 123238, "pitch": 42, "duration": 1, "velocity": 50}, {"time": 123358, "pitch": 36, "duration": 10, "velocity": 92}, {"time": 123358, "pitch": 42, "duration": 10, "velocity": 92}, {"time": 123598, "pitch": 42, "duration": 10, "velocity": 36}, {"time": 123838, "pitch": 40, "duration": 10, "velocity": 92}, {"time": 123838, "pitch": 42, "duration": 10, "velocity": 92}, {"time": 124078, "pitch": 36, "duration": 10, "velocity": 78}, {"time": 124078, "pitch": 42, "duration": 10, "velocity": 36}, {"time": 124318, "pitch": 36, "duration": 10, "velocity": 92}, {"time": 124318, "pitch": 42, "duration": 10, "velocity": 92}, {"time": 124557, "pitch": 42, "duration": 10, "velocity": 36}, {"time": 124797, "pitch": 40, "duration": 10, "velocity": 92}, {"time": 124797, "pitch": 42, "duration": 10, "velocity": 92}, {"time": 125040, "pitch": 36, "duration": 10, "velocity": 78}, {"time": 125040, "pitch": 42, "duration": 10, "velocity": 36}, {"time": 125162, "pitch": 42, "duration": 1, "velocity": 36}, {"time": 125283, "pitch": 36, "duration": 10, "velocity": 92}, {"time": 125283, "pitch": 42, "duration": 10, "velocity": 92}, {"time": 125523, "pitch": 42, "duration": 10, "velocity": 36}, {"time": 125763, "pitch": 40, "duration": 10, "velocity": 92}, {"time": 125763, "pitch": 42, "duration": 10, "velocity": 92}, {"time": 126002, "pitch": 36, "duration": 10, "velocity": 78}, {"time": 126002, "pitch": 42, "duration": 10, "velocity": 36}, {"time": 126242, "pitch": 36, "duration": 10, "velocity": 92}, {"time": 126242, "pitch": 42, "duration": 10, "velocity": 92}, {"time": 126482, "pitch": 42, "duration": 10, "velocity": 36}, {"time": 126722, "pitch": 40, "duration": 10, "velocity": 92}, {"time": 126722, "pitch": 42, "duration": 10, "velocity": 92}, {"time": 126962, "pitch": 36, "duration": 10, "velocity": 78}, {"time": 126962, "pitch": 42, "duration": 10, "velocity": 36}, {"time": 127202, "pitch": 36, "duration": 10, "velocity": 92}, {"time": 127202, "pitch": 42, "duration": 10, "velocity": 92}, {"time": 127441, "pitch": 42, "duration": 10, "velocity": 36}, {"time": 127681, "pitch": 40, "duration": 10, "velocity": 92}, {"time": 127681, "pitch": 42, "duration": 10, "velocity": 92}, {"time": 127921, "pitch": 36, "duration": 10, "velocity": 78}, {"time": 127921, "pitch": 42, "duration": 10, "velocity": 36}, {"time": 128161, "pitch": 36, "duration": 10, "velocity": 92}, {"time": 128161, "pitch": 42, "duration": 10, "velocity": 92}, {"time": 128401, "pitch": 46, "duration": 1, "velocity": 92}, {"time": 128640, "pitch": 40, "duration": 10, "velocity": 92}, {"time": 128640, "pitch": 42, "duration": 10, "velocity": 78}, {"time": 128760, "pitch": 42, "duration": 1, "velocity": 50}, {"time": 128880, "pitch": 36, "duration": 10, "velocity": 78}, {"time": 128880, "pitch": 46, "duration": 1, "velocity": 92}, {"time": 129120, "pitch": 36, "duration": 10, "velocity": 92}, {"time": 129120, "pitch": 44, "duration": 1, "velocity": 78}, {"time": 129360, "pitch": 42, "duration": 10, "velocity": 36}, {"time": 129600, "pitch": 40, "duration": 10, "velocity": 92}, {"time": 129600, "pitch": 42, "duration": 10, "velocity": 92}, {"time": 129840, "pitch": 36, "duration": 10, "velocity": 78}, {"time": 129840, "pitch": 42, "duration": 10, "velocity": 36}, {"time": 130079, "pitch": 36, "duration": 10, "velocity": 92}, {"time": 130079, "pitch": 42, "duration": 10, "velocity": 92}, {"time": 130319, "pitch": 42, "duration": 10, "velocity": 36}, {"time": 130559, "pitch": 40, "duration": 10, "velocity": 92}, {"time": 130559, "pitch": 42, "duration": 10, "velocity": 92}, {"time": 130799, "pitch": 36, "duration": 10, "velocity": 78}, {"time": 130799, "pitch": 42, "duration": 10, "velocity": 36}, {"time": 131039, "pitch": 36, "duration": 10, "velocity": 92}, {"time": 131039, "pitch": 42, "duration": 10, "velocity": 92}, {"time": 131279, "pitch": 42, "duration": 10, "velocity": 36}, {"time": 131518, "pitch": 40, "duration": 10, "velocity": 92}, {"time": 131518, "pitch": 42, "duration": 10, "velocity": 92}, {"time": 131758, "pitch": 36, "duration": 10, "velocity": 78}, {"time": 131758, "pitch": 42, "duration": 10, "velocity": 36}, {"time": 131998, "pitch": 36, "duration": 10, "velocity": 92}, {"time": 131998, "pitch": 42, "duration": 10, "velocity": 92}, {"time": 132238, "pitch": 42, "duration": 10, "velocity": 36}, {"time": 132478, "pitch": 40, "duration": 10, "velocity": 92}, {"time": 132478, "pitch": 42, "duration": 10, "velocity": 92}, {"time": 132717, "pitch": 36, "duration": 10, "velocity": 78}, {"time": 132717, "pitch": 42, "duration": 10, "velocity": 36}, {"time": 132957, "pitch": 36, "duration": 10, "velocity": 92}, {"time": 132957, "pitch": 42, "duration": 10, "velocity": 92}, {"time": 133200, "pitch": 42, "duration": 10, "velocity": 36}, {"time": 133443, "pitch": 40, "duration": 10, "velocity": 92}, {"time": 133443, "pitch": 42, "duration": 10, "velocity": 92}, {"time": 133683, "pitch": 36, "duration": 10, "velocity": 78}, {"time": 133683, "pitch": 42, "duration": 10, "velocity": 36}, {"time": 133923, "pitch": 36, "duration": 10, "velocity": 92}, {"time": 133923, "pitch": 42, "duration": 10, "velocity": 92}, {"time": 134163, "pitch": 42, "duration": 9, "velocity": 36}, {"time": 134402, "pitch": 40, "duration": 10, "velocity": 92}, {"time": 134402, "pitch": 42, "duration": 10, "velocity": 92}, {"time": 134642, "pitch": 36, "duration": 10, "velocity": 78}, {"time": 134642, "pitch": 42, "duration": 10, "velocity": 36}, {"time": 134882, "pitch": 36, "duration": 10, "velocity": 92}, {"time": 134882, "pitch": 42, "duration": 10, "velocity": 92}, {"time": 135122, "pitch": 42, "duration": 10, "velocity": 36}, {"time": 135362, "pitch": 40, "duration": 10, "velocity": 92}, {"time": 135362, "pitch": 42, "duration": 10, "velocity": 92}, {"time": 135601, "pitch": 36, "duration": 10, "velocity": 92}, {"time": 135601, "pitch": 46, "duration": 10, "velocity": 92}, {"time": 136801, "pitch": 44, "duration": 1, "velocity": 92}, {"time": 136861, "pitch": 83, "duration": 1, "velocity": 10}, {"time": 136920, "pitch": 83, "duration": 1, "velocity": 20}, {"time": 136980, "pitch": 83, "duration": 1, "velocity": 30}, {"time": 137040, "pitch": 83, "duration": 1, "velocity": 40}, {"time": 137100, "pitch": 83, "duration": 1, "velocity": 43}, {"time": 137160, "pitch": 83, "duration": 1, "velocity": 40}, {"time": 137220, "pitch": 83, "duration": 1, "velocity": 44}, {"time": 137280, "pitch": 83, "duration": 1, "velocity": 42}, {"time": 137340, "pitch": 83, "duration": 1, "velocity": 45}, {"time": 137400, "pitch": 83, "duration": 1, "velocity": 43}, {"time": 137460, "pitch": 83, "duration": 1, "velocity": 46}, {"time": 137520, "pitch": 83, "duration": 1, "velocity": 41}, {"time": 137580, "pitch": 83, "duration": 1, "velocity": 46}, {"time": 137640, "pitch": 83, "duration": 1, "velocity": 41}, {"time": 137700, "pitch": 83, "duration": 1, "velocity": 47}, {"time": 137760, "pitch": 83, "duration": 1, "velocity": 43}, {"time": 137820, "pitch": 83, "duration": 1, "velocity": 48}, {"time": 137880, "pitch": 83, "duration": 1, "velocity": 43}, {"time": 137940, "pitch": 83, "duration": 1, "velocity": 50}, {"time": 138000, "pitch": 83, "duration": 1, "velocity": 45}, {"time": 138060, "pitch": 83, "duration": 1, "velocity": 52}, {"time": 138120, "pitch": 83, "duration": 1, "velocity": 48}, {"time": 138180, "pitch": 83, "duration": 1, "velocity": 53}, {"time": 138240, "pitch": 83, "duration": 1, "velocity": 47}, {"time": 138299, "pitch": 83, "duration": 1, "velocity": 54}, {"time": 138359, "pitch": 83, "duration": 1, "velocity": 50}, {"time": 138419, "pitch": 83, "duration": 1, "velocity": 45}, {"time": 138479, "pitch": 83, "duration": 1, "velocity": 40}, {"time": 138539, "pitch": 83, "duration": 1, "velocity": 35}, {"time": 138599, "pitch": 83, "duration": 1, "velocity": 30}, {"time": 138659, "pitch": 83, "duration": 1, "velocity": 25}, {"time": 138719, "pitch": 36, "duration": 10, "velocity": 92}, {"time": 138719, "pitch": 49, "duration": 10, "velocity": 78}, {"time": 139199, "pitch": 36, "duration": 10, "velocity": 92}, {"time": 139199, "pitch": 40, "duration": 10, "velocity": 92}, {"time": 139439, "pitch": 42, "duration": 10, "velocity": 50}, {"time": 139559, "pitch": 42, "duration": 10, "velocity": 92}, {"time": 139678, "pitch": 36, "duration": 10, "velocity": 92}, {"time": 139918, "pitch": 42, "duration": 10, "velocity": 64}, {"time": 140038, "pitch": 46, "duration": 1, "velocity": 92}, {"time": 140158, "pitch": 36, "duration": 10, "velocity": 92}, {"time": 140158, "pitch": 40, "duration": 10, "velocity": 92}, {"time": 140158, "pitch": 42, "duration": 1, "velocity": 36}, {"time": 140398, "pitch": 42, "duration": 10, "velocity": 50}, {"time": 140518, "pitch": 42, "duration": 10, "velocity": 92}, {"time": 140638, "pitch": 36, "duration": 10, "velocity": 92}, {"time": 140878, "pitch": 42, "duration": 10, "velocity": 50}, {"time": 140997, "pitch": 46, "duration": 1, "velocity": 92}, {"time": 141117, "pitch": 36, "duration": 10, "velocity": 92}, {"time": 141117, "pitch": 40, "duration": 10, "velocity": 92}, {"time": 141117, "pitch": 42, "duration": 1, "velocity": 36}, {"time": 141357, "pitch": 42, "duration": 1, "velocity": 50}, {"time": 141477, "pitch": 42, "duration": 10, "velocity": 92}, {"time": 141597, "pitch": 36, "duration": 10, "velocity": 92}, {"time": 141840, "pitch": 42, "duration": 10, "velocity": 50}, {"time": 141961, "pitch": 46, "duration": 1, "velocity": 92}, {"time": 142083, "pitch": 36, "duration": 10, "velocity": 92}, {"time": 142083, "pitch": 40, "duration": 10, "velocity": 92}, {"time": 142083, "pitch": 42, "duration": 1, "velocity": 36}, {"time": 142323, "pitch": 42, "duration": 10, "velocity": 50}, {"time": 142443, "pitch": 42, "duration": 10, "velocity": 92}, {"time": 142562, "pitch": 36, "duration": 10, "velocity": 92}, {"time": 142802, "pitch": 42, "duration": 10, "velocity": 50}, {"time": 142922, "pitch": 46, "duration": 1, "velocity": 92}, {"time": 143042, "pitch": 36, "duration": 10, "velocity": 92}, {"time": 143042, "pitch": 40, "duration": 10, "velocity": 92}, {"time": 143042, "pitch": 42, "duration": 1, "velocity": 36}, {"time": 143282, "pitch": 42, "duration": 10, "velocity": 50}, {"time": 143402, "pitch": 42, "duration": 10, "velocity": 92}, {"time": 143522, "pitch": 36, "duration": 10, "velocity": 92}, {"time": 143762, "pitch": 42, "duration": 10, "velocity": 50}, {"time": 143881, "pitch": 46, "duration": 1, "velocity": 92}, {"time": 144001, "pitch": 36, "duration": 10, "velocity": 92}, {"time": 144001, "pitch": 40, "duration": 10, "velocity": 92}, {"time": 144001, "pitch": 42, "duration": 1, "velocity": 36}, {"time": 144241, "pitch": 42, "duration": 10, "velocity": 50}, {"time": 144361, "pitch": 42, "duration": 10, "velocity": 92}, {"time": 144481, "pitch": 36, "duration": 10, "velocity": 92}, {"time": 144721, "pitch": 42, "duration": 10, "velocity": 50}, {"time": 144841, "pitch": 46, "duration": 1, "velocity": 92}, {"time": 144961, "pitch": 36, "duration": 10, "velocity": 92}, {"time": 144961, "pitch": 40, "duration": 10, "velocity": 92}, {"time": 144961, "pitch": 42, "duration": 1, "velocity": 36}, {"time": 145200, "pitch": 42, "duration": 10, "velocity": 50}, {"time": 145320, "pitch": 42, "duration": 10, "velocity": 92}, {"time": 145440, "pitch": 36, "duration": 10, "velocity": 92}, {"time": 145680, "pitch": 42, "duration": 10, "velocity": 50}, {"time": 145800, "pitch": 46, "duration": 1, "velocity": 92}, {"time": 145920, "pitch": 36, "duration": 10, "velocity": 92}, {"time": 145920, "pitch": 40, "duration": 10, "velocity": 92}, {"time": 145920, "pitch": 42, "duration": 1, "velocity": 36}, {"time": 146160, "pitch": 40, "duration": 10, "velocity": 92}, {"time": 146280, "pitch": 40, "duration": 10, "velocity": 78}, {"time": 146400, "pitch": 36, "duration": 10, "velocity": 92}, {"time": 146400, "pitch": 49, "duration": 10, "velocity": 78}, {"time": 146639, "pitch": 42, "duration": 10, "velocity": 50}, {"time": 146759, "pitch": 46, "duration": 1, "velocity": 92}, {"time": 146879, "pitch": 36, "duration": 10, "velocity": 92}, {"time": 146879, "pitch": 40, "duration": 10, "velocity": 92}, {"time": 146879, "pitch": 42, "duration": 1, "velocity": 36}, {"time": 147119, "pitch": 42, "duration": 10, "velocity": 50}, {"time": 147239, "pitch": 42, "duration": 10, "velocity": 92}, {"time": 147359, "pitch": 36, "duration": 10, "velocity": 92}, {"time": 147599, "pitch": 42, "duration": 10, "velocity": 50}, {"time": 147719, "pitch": 46, "duration": 1, "velocity": 92}, {"time": 147839, "pitch": 36, "duration": 10, "velocity": 92}, {"time": 147839, "pitch": 40, "duration": 10, "velocity": 92}, {"time": 147839, "pitch": 42, "duration": 1, "velocity": 36}, {"time": 148078, "pitch": 42, "duration": 10, "velocity": 50}, {"time": 148198, "pitch": 42, "duration": 10, "velocity": 92}, {"time": 148318, "pitch": 36, "duration": 10, "velocity": 92}, {"time": 148558, "pitch": 42, "duration": 10, "velocity": 50}, {"time": 148678, "pitch": 46, "duration": 1, "velocity": 92}, {"time": 148798, "pitch": 36, "duration": 10, "velocity": 92}, {"time": 148798, "pitch": 40, "duration": 10, "velocity": 92}, {"time": 148798, "pitch": 42, "duration": 1, "velocity": 36}, {"time": 149038, "pitch": 42, "duration": 10, "velocity": 50}, {"time": 149158, "pitch": 42, "duration": 10, "velocity": 92}, {"time": 149277, "pitch": 36, "duration": 10, "velocity": 92}, {"time": 149517, "pitch": 42, "duration": 10, "velocity": 50}, {"time": 149637, "pitch": 46, "duration": 1, "velocity": 92}, {"time": 149757, "pitch": 36, "duration": 10, "velocity": 92}, {"time": 149757, "pitch": 40, "duration": 10, "velocity": 92}, {"time": 149757, "pitch": 42, "duration": 1, "velocity": 36}, {"time": 150000, "pitch": 42, "duration": 10, "velocity": 50}, {"time": 150121, "pitch": 42, "duration": 11, "velocity": 92}, {"time": 150243, "pitch": 36, "duration": 10, "velocity": 92}, {"time": 150483, "pitch": 42, "duration": 10, "velocity": 50}, {"time": 150603, "pitch": 46, "duration": 1, "velocity": 92}, {"time": 150723, "pitch": 36, "duration": 10, "velocity": 92}, {"time": 150723, "pitch": 40, "duration": 10, "velocity": 92}, {"time": 150723, "pitch": 42, "duration": 1, "velocity": 36}, {"time": 150962, "pitch": 42, "duration": 10, "velocity": 50}, {"time": 151082, "pitch": 42, "duration": 10, "velocity": 92}, {"time": 151202, "pitch": 36, "duration": 10, "velocity": 92}, {"time": 151442, "pitch": 42, "duration": 10, "velocity": 50}, {"time": 151562, "pitch": 46, "duration": 1, "velocity": 92}, {"time": 151682, "pitch": 36, "duration": 10, "velocity": 92}, {"time": 151682, "pitch": 40, "duration": 10, "velocity": 92}, {"time": 151682, "pitch": 42, "duration": 1, "velocity": 36}, {"time": 151922, "pitch": 42, "duration": 10, "velocity": 50}, {"time": 152042, "pitch": 42, "duration": 10, "velocity": 92}, {"time": 152161, "pitch": 36, "duration": 10, "velocity": 92}, {"time": 152401, "pitch": 42, "duration": 10, "velocity": 50}, {"time": 152521, "pitch": 46, "duration": 1, "velocity": 92}, {"time": 152641, "pitch": 36, "duration": 10, "velocity": 92}, {"time": 152641, "pitch": 40, "duration": 10, "velocity": 92}, {"time": 152641, "pitch": 42, "duration": 1, "velocity": 36}, {"time": 152881, "pitch": 42, "duration": 10, "velocity": 50}, {"time": 153001, "pitch": 42, "duration": 10, "velocity": 92}, {"time": 153121, "pitch": 36, "duration": 10, "velocity": 92}, {"time": 153361, "pitch": 42, "duration": 10, "velocity": 50}, {"time": 153480, "pitch": 46, "duration": 1, "velocity": 92}, {"time": 153600, "pitch": 36, "duration": 10, "velocity": 92}, {"time": 153600, "pitch": 40, "duration": 10, "velocity": 92}, {"time": 153600, "pitch": 42, "duration": 1, "velocity": 36}, {"time": 153840, "pitch": 45, "duration": 10, "velocity": 92}, {"time": 153960, "pitch": 41, "duration": 10, "velocity": 78}, {"time": 154080, "pitch": 36, "duration": 10, "velocity": 92}, {"time": 154080, "pitch": 49, "duration": 10, "velocity": 78}, {"time": 154560, "pitch": 51, "duration": 10, "velocity": 78}, {"time": 155039, "pitch": 51, "duration": 10, "velocity": 78}, {"time": 155279, "pitch": 42, "duration": 1, "velocity": 78}, {"time": 155519, "pitch": 36, "duration": 10, "velocity": 92}, {"time": 155519, "pitch": 46, "duration": 10, "velocity": 92}, {"time": 155999, "pitch": 36, "duration": 10, "velocity": 92}, {"time": 155999, "pitch": 42, "duration": 10, "velocity": 92}, {"time": 156238, "pitch": 42, "duration": 10, "velocity": 36}, {"time": 156478, "pitch": 40, "duration": 10, "velocity": 78}, {"time": 156478, "pitch": 42, "duration": 10, "velocity": 92}, {"time": 156718, "pitch": 36, "duration": 10, "velocity": 78}, {"time": 156718, "pitch": 42, "duration": 10, "velocity": 36}, {"time": 156958, "pitch": 36, "duration": 10, "velocity": 92}, {"time": 156958, "pitch": 42, "duration": 10, "velocity": 92}, {"time": 157198, "pitch": 42, "duration": 10, "velocity": 36}, {"time": 157438, "pitch": 40, "duration": 10, "velocity": 78}, {"time": 157438, "pitch": 42, "duration": 10, "velocity": 92}, {"time": 157677, "pitch": 36, "duration": 10, "velocity": 78}, {"time": 157677, "pitch": 42, "duration": 10, "velocity": 36}, {"time": 157917, "pitch": 36, "duration": 10, "velocity": 92}, {"time": 157917, "pitch": 42, "duration": 10, "velocity": 92}, {"time": 158160, "pitch": 42, "duration": 10, "velocity": 36}, {"time": 158403, "pitch": 40, "duration": 10, "velocity": 78}, {"time": 158403, "pitch": 42, "duration": 10, "velocity": 92}, {"time": 158643, "pitch": 36, "duration": 10, "velocity": 78}, {"time": 158643, "pitch": 42, "duration": 10, "velocity": 36}, {"time": 158883, "pitch": 36, "duration": 10, "velocity": 92}, {"time": 158883, "pitch": 42, "duration": 10, "velocity": 92}, {"time": 159122, "pitch": 42, "duration": 10, "velocity": 36}, {"time": 159362, "pitch": 40, "duration": 10, "velocity": 78}, {"time": 159362, "pitch": 42, "duration": 10, "velocity": 92}, {"time": 159602, "pitch": 36, "duration": 10, "velocity": 78}, {"time": 159602, "pitch": 42, "duration": 10, "velocity": 36}, {"time": 159842, "pitch": 36, "duration": 10, "velocity": 92}, {"time": 159842, "pitch": 42, "duration": 10, "velocity": 92}, {"time": 160082, "pitch": 42, "duration": 10, "velocity": 36}, {"time": 160322, "pitch": 40, "duration": 10, "velocity": 78}, {"time": 160322, "pitch": 42, "duration": 10, "velocity": 92}, {"time": 160561, "pitch": 36, "duration": 10, "velocity": 78}, {"time": 160561, "pitch": 42, "duration": 10, "velocity": 36}, {"time": 160801, "pitch": 36, "duration": 10, "velocity": 92}, {"time": 160801, "pitch": 42, "duration": 10, "velocity": 92}, {"time": 161041, "pitch": 42, "duration": 10, "velocity": 36}, {"time": 161281, "pitch": 40, "duration": 10, "velocity": 78}, {"time": 161281, "pitch": 42, "duration": 10, "velocity": 92}, {"time": 161521, "pitch": 36, "duration": 10, "velocity": 78}, {"time": 161521, "pitch": 42, "duration": 10, "velocity": 36}, {"time": 161761, "pitch": 36, "duration": 9, "velocity": 92}, {"time": 161761, "pitch": 42, "duration": 9, "velocity": 92}, {"time": 162000, "pitch": 42, "duration": 10, "velocity": 36}, {"time": 162240, "pitch": 40, "duration": 10, "velocity": 78}, {"time": 162240, "pitch": 42, "duration": 10, "velocity": 92}, {"time": 162480, "pitch": 36, "duration": 10, "velocity": 78}, {"time": 162480, "pitch": 42, "duration": 10, "velocity": 36}, {"time": 162720, "pitch": 36, "duration": 10, "velocity": 92}, {"time": 162720, "pitch": 42, "duration": 10, "velocity": 92}, {"time": 162960, "pitch": 42, "duration": 10, "velocity": 36}, {"time": 163199, "pitch": 40, "duration": 10, "velocity": 78}, {"time": 163199, "pitch": 42, "duration": 10, "velocity": 92}, {"time": 163439, "pitch": 36, "duration": 10, "velocity": 78}, {"time": 163439, "pitch": 42, "duration": 10, "velocity": 36}, {"time": 163679, "pitch": 36, "duration": 10, "velocity": 92}, {"time": 163679, "pitch": 49, "duration": 10, "velocity": 64}, {"time": 165598, "pitch": 36, "duration": 10, "velocity": 92}, {"time": 165598, "pitch": 49, "duration": 10, "velocity": 64}, {"time": 166557, "pitch": 36, "duration": 10, "velocity": 92}, {"time": 166557, "pitch": 49, "duration": 10, "velocity": 64}, {"time": 167522, "pitch": 36, "duration": 10, "velocity": 92}, {"time": 167522, "pitch": 49, "duration": 10, "velocity": 64}, {"time": 168002, "pitch": 40, "duration": 10, "velocity": 92}, {"time": 168002, "pitch": 42, "duration": 10, "velocity": 92}, {"time": 168242, "pitch": 36, "duration": 10, "velocity": 78}, {"time": 168242, "pitch": 42, "duration": 10, "velocity": 36}, {"time": 168482, "pitch": 36, "duration": 10, "velocity": 92}, {"time": 168482, "pitch": 42, "duration": 10, "velocity": 92}, {"time": 168721, "pitch": 42, "duration": 10, "velocity": 36}, {"time": 168961, "pitch": 40, "duration": 10, "velocity": 92}, {"time": 168961, "pitch": 46, "duration": 1, "velocity": 92}, {"time": 169201, "pitch": 36, "duration": 10, "velocity": 78}, {"time": 169201, "pitch": 41, "duration": 10, "velocity": 92}, {"time": 169441, "pitch": 36, "duration": 10, "velocity": 92}, {"time": 169441, "pitch": 49, "duration": 10, "velocity": 64}, {"time": 170400, "pitch": 36, "duration": 10, "velocity": 92}, {"time": 170400, "pitch": 49, "duration": 10, "velocity": 64}, {"time": 171360, "pitch": 36, "duration": 10, "velocity": 92}, {"time": 171360, "pitch": 51, "duration": 10, "velocity": 78}, {"time": 174477, "pitch": 81, "duration": 10, "velocity": 92}, {"time": 174717, "pitch": 80, "duration": 10, "velocity": 64}, {"time": 174838, "pitch": 80, "duration": 11, "velocity": 64}, {"time": 174960, "pitch": 81, "duration": 10, "velocity": 92}, {"time": 178321, "pitch": 81, "duration": 10, "velocity": 92}, {"time": 178560, "pitch": 80, "duration": 10, "velocity": 64}, {"time": 178680, "pitch": 80, "duration": 10, "velocity": 64}, {"time": 178800, "pitch": 81, "duration": 10, "velocity": 92}, {"time": 182158, "pitch": 81, "duration": 10, "velocity": 92}, {"time": 182398, "pitch": 80, "duration": 10, "velocity": 64}, {"time": 182517, "pitch": 80, "duration": 10, "velocity": 64}, {"time": 182637, "pitch": 81, "duration": 10, "velocity": 92}, {"time": 186001, "pitch": 81, "duration": 10, "velocity": 92}, {"time": 186241, "pitch": 80, "duration": 10, "velocity": 64}, {"time": 186361, "pitch": 80, "duration": 10, "velocity": 64}, {"time": 186481, "pitch": 81, "duration": 10, "velocity": 92}, {"time": 189838, "pitch": 81, "duration": 10, "velocity": 92}, {"time": 190078, "pitch": 80, "duration": 10, "velocity": 64}, {"time": 190198, "pitch": 80, "duration": 10, "velocity": 64}, {"time": 190318, "pitch": 81, "duration": 10, "velocity": 92}, {"time": 193675, "pitch": 81, "duration": 10, "velocity": 92}, {"time": 193915, "pitch": 80, "duration": 10, "velocity": 64}, {"time": 194035, "pitch": 80, "duration": 10, "velocity": 64}, {"time": 194155, "pitch": 81, "duration": 10, "velocity": 92}, {"time": 3601, "pitch": 62, "duration": 10, "velocity": 88}, {"time": 4081, "pitch": 64, "duration": 10, "velocity": 78}, {"time": 7438, "pitch": 62, "duration": 10, "velocity": 88}, {"time": 7918, "pitch": 64, "duration": 10, "velocity": 78}, {"time": 11281, "pitch": 62, "duration": 10, "velocity": 88}, {"time": 11761, "pitch": 64, "duration": 10, "velocity": 78}, {"time": 15119, "pitch": 62, "duration": 10, "velocity": 88}, {"time": 15598, "pitch": 64, "duration": 10, "velocity": 78}, {"time": 18962, "pitch": 62, "duration": 10, "velocity": 88}, {"time": 19442, "pitch": 64, "duration": 10, "velocity": 78}, {"time": 22799, "pitch": 62, "duration": 10, "velocity": 88}, {"time": 23279, "pitch": 64, "duration": 10, "velocity": 78}, {"time": 26642, "pitch": 62, "duration": 10, "velocity": 88}, {"time": 27122, "pitch": 64, "duration": 10, "velocity": 78}, {"time": 30480, "pitch": 62, "duration": 9, "velocity": 88}, {"time": 30959, "pitch": 64, "duration": 10, "velocity": 78}, {"time": 34323, "pitch": 62, "duration": 10, "velocity": 88}, {"time": 34802, "pitch": 64, "duration": 10, "velocity": 78}, {"time": 38160, "pitch": 62, "duration": 10, "velocity": 88}, {"time": 38640, "pitch": 64, "duration": 10, "velocity": 78}, {"time": 42000, "pitch": 62, "duration": 10, "velocity": 88}, {"time": 42483, "pitch": 64, "duration": 10, "velocity": 78}, {"time": 45840, "pitch": 62, "duration": 10, "velocity": 88}, {"time": 46320, "pitch": 64, "duration": 10, "velocity": 78}, {"time": 49678, "pitch": 62, "duration": 10, "velocity": 88}, {"time": 50157, "pitch": 64, "duration": 10, "velocity": 78}, {"time": 53521, "pitch": 62, "duration": 10, "velocity": 88}, {"time": 54000, "pitch": 64, "duration": 10, "velocity": 78}, {"time": 57358, "pitch": 62, "duration": 10, "velocity": 88}, {"time": 57838, "pitch": 64, "duration": 10, "velocity": 78}, {"time": 61201, "pitch": 62, "duration": 10, "velocity": 88}, {"time": 61681, "pitch": 64, "duration": 10, "velocity": 78}, {"time": 65038, "pitch": 62, "duration": 10, "velocity": 88}, {"time": 65518, "pitch": 64, "duration": 10, "velocity": 78}, {"time": 68882, "pitch": 75, "duration": 10, "velocity": 92}, {"time": 70800, "pitch": 75, "duration": 10, "velocity": 92}, {"time": 72719, "pitch": 75, "duration": 10, "velocity": 92}, {"time": 74638, "pitch": 75, "duration": 10, "velocity": 92}, {"time": 76562, "pitch": 75, "duration": 10, "velocity": 92}, {"time": 78481, "pitch": 75, "duration": 10, "velocity": 92}, {"time": 80399, "pitch": 75, "duration": 10, "velocity": 92}, {"time": 82318, "pitch": 75, "duration": 10, "velocity": 92}, {"time": 84243, "pitch": 75, "duration": 10, "velocity": 92}, {"time": 86161, "pitch": 75, "duration": 10, "velocity": 92}, {"time": 88080, "pitch": 75, "duration": 10, "velocity": 92}, {"time": 89998, "pitch": 62, "duration": 10, "velocity": 88}, {"time": 90478, "pitch": 64, "duration": 10, "velocity": 78}, {"time": 93842, "pitch": 62, "duration": 10, "velocity": 88}, {"time": 94321, "pitch": 64, "duration": 10, "velocity": 78}, {"time": 97679, "pitch": 62, "duration": 10, "velocity": 88}, {"time": 98159, "pitch": 64, "duration": 9, "velocity": 78}, {"time": 101522, "pitch": 62, "duration": 10, "velocity": 88}, {"time": 102002, "pitch": 64, "duration": 10, "velocity": 78}, {"time": 105359, "pitch": 62, "duration": 10, "velocity": 88}, {"time": 105839, "pitch": 64, "duration": 10, "velocity": 78}, {"time": 109203, "pitch": 62, "duration": 10, "velocity": 88}, {"time": 109682, "pitch": 64, "duration": 10, "velocity": 78}, {"time": 113040, "pitch": 62, "duration": 10, "velocity": 88}, {"time": 113519, "pitch": 64, "duration": 10, "velocity": 78}, {"time": 116880, "pitch": 62, "duration": 10, "velocity": 88}, {"time": 117363, "pitch": 64, "duration": 10, "velocity": 78}, {"time": 120720, "pitch": 62, "duration": 10, "velocity": 88}, {"time": 121200, "pitch": 64, "duration": 10, "velocity": 78}, {"time": 124557, "pitch": 62, "duration": 10, "velocity": 88}, {"time": 125040, "pitch": 64, "duration": 10, "velocity": 78}, {"time": 128401, "pitch": 62, "duration": 10, "velocity": 88}, {"time": 128880, "pitch": 64, "duration": 10, "velocity": 78}, {"time": 132238, "pitch": 62, "duration": 10, "velocity": 88}, {"time": 132717, "pitch": 64, "duration": 10, "velocity": 78}, {"time": 139199, "pitch": 54, "duration": 10, "velocity": 107}, {"time": 140158, "pitch": 54, "duration": 10, "velocity": 107}, {"time": 141117, "pitch": 54, "duration": 10, "velocity": 107}, {"time": 142083, "pitch": 54, "duration": 10, "velocity": 107}, {"time": 143042, "pitch": 54, "duration": 10, "velocity": 107}, {"time": 144001, "pitch": 54, "duration": 10, "velocity": 107}, {"time": 144961, "pitch": 54, "duration": 10, "velocity": 107}, {"time": 145920, "pitch": 54, "duration": 10, "velocity": 107}, {"time": 146879, "pitch": 54, "duration": 10, "velocity": 107}, {"time": 147839, "pitch": 54, "duration": 10, "velocity": 107}, {"time": 148798, "pitch": 54, "duration": 10, "velocity": 107}, {"time": 149757, "pitch": 54, "duration": 10, "velocity": 107}, {"time": 150723, "pitch": 54, "duration": 10, "velocity": 107}, {"time": 151682, "pitch": 54, "duration": 10, "velocity": 107}, {"time": 152641, "pitch": 54, "duration": 10, "velocity": 107}, {"time": 153600, "pitch": 54, "duration": 10, "velocity": 107}, {"time": 157198, "pitch": 62, "duration": 10, "velocity": 88}, {"time": 157677, "pitch": 64, "duration": 10, "velocity": 78}, {"time": 161041, "pitch": 62, "duration": 10, "velocity": 88}, {"time": 161521, "pitch": 64, "duration": 10, "velocity": 78}, {"time": 166800, "pitch": 62, "duration": 10, "velocity": 88}, {"time": 167283, "pitch": 64, "duration": 10, "velocity": 78}, {"time": 172559, "pitch": 62, "duration": 10, "velocity": 88}, {"time": 173038, "pitch": 64, "duration": 10, "velocity": 78}, {"time": 176402, "pitch": 62, "duration": 10, "velocity": 88}, {"time": 176882, "pitch": 64, "duration": 10, "velocity": 78}, {"time": 180239, "pitch": 62, "duration": 10, "velocity": 88}, {"time": 180719, "pitch": 64, "duration": 10, "velocity": 78}, {"time": 184082, "pitch": 62, "duration": 10, "velocity": 88}, {"time": 184562, "pitch": 64, "duration": 10, "velocity": 78}, {"time": 187920, "pitch": 62, "duration": 10, "velocity": 88}, {"time": 188399, "pitch": 64, "duration": 10, "velocity": 78}, {"time": 191757, "pitch": 62, "duration": 10, "velocity": 88}, {"time": 192236, "pitch": 64, "duration": 10, "velocity": 78}, {"time": 195594, "pitch": 62, "duration": 10, "velocity": 88}, {"time": 196074, "pitch": 64, "duration": 10, "velocity": 78}, {"time": 68162, "pitch": 59, "duration": 480, "velocity": 105}, {"time": 68642, "pitch": 60, "duration": 480, "velocity": 110}, {"time": 69122, "pitch": 62, "duration": 479, "velocity": 105}, {"time": 69601, "pitch": 64, "duration": 5736, "velocity": 100}, {"time": 75357, "pitch": 65, "duration": 1905, "velocity": 90}, {"time": 77282, "pitch": 64, "duration": 1898, "velocity": 90}, {"time": 79200, "pitch": 62, "duration": 1899, "velocity": 90}, {"time": 81119, "pitch": 62, "duration": 80, "velocity": 110}, {"time": 81199, "pitch": 60, "duration": 80, "velocity": 105}, {"time": 81279, "pitch": 59, "duration": 80, "velocity": 105}, {"time": 81359, "pitch": 57, "duration": 80, "velocity": 110}, {"time": 81439, "pitch": 55, "duration": 80, "velocity": 105}, {"time": 81519, "pitch": 53, "duration": 79, "velocity": 105}, {"time": 81598, "pitch": 52, "duration": 1439, "velocity": 90}, {"time": 83037, "pitch": 53, "duration": 1905, "velocity": 90}, {"time": 84962, "pitch": 52, "duration": 1899, "velocity": 90}, {"time": 86881, "pitch": 50, "duration": 1898, "velocity": 90}, {"time": 88799, "pitch": 55, "duration": 1899, "velocity": 80}, {"time": 128161, "pitch": 59, "duration": 479, "velocity": 90}, {"time": 128640, "pitch": 61, "duration": 480, "velocity": 90}, {"time": 129120, "pitch": 62, "duration": 480, "velocity": 90}, {"time": 129600, "pitch": 57, "duration": 479, "velocity": 90}, {"time": 130079, "pitch": 59, "duration": 480, "velocity": 90}, {"time": 130559, "pitch": 61, "duration": 480, "velocity": 90}, {"time": 131039, "pitch": 62, "duration": 959, "velocity": 90}, {"time": 131998, "pitch": 64, "duration": 480, "velocity": 90}, {"time": 132478, "pitch": 66, "duration": 479, "velocity": 90}, {"time": 132957, "pitch": 67, "duration": 966, "velocity": 90}, {"time": 133923, "pitch": 66, "duration": 959, "velocity": 90}, {"time": 134882, "pitch": 64, "duration": 480, "velocity": 90}, {"time": 135362, "pitch": 62, "duration": 120, "velocity": 90}, {"time": 135601, "pitch": 58, "duration": 3098, "velocity": 90}, {"time": 138719, "pitch": 54, "duration": 160, "velocity": 100}, {"time": 139199, "pitch": 49, "duration": 160, "velocity": 100}, {"time": 139678, "pitch": 47, "duration": 160, "velocity": 100}, {"time": 140158, "pitch": 54, "duration": 160, "velocity": 100}, {"time": 140638, "pitch": 52, "duration": 160, "velocity": 100}, {"time": 141117, "pitch": 45, "duration": 160, "velocity": 100}, {"time": 141597, "pitch": 50, "duration": 162, "velocity": 100}, {"time": 142083, "pitch": 45, "duration": 160, "velocity": 100}, {"time": 142562, "pitch": 43, "duration": 160, "velocity": 100}, {"time": 143042, "pitch": 50, "duration": 160, "velocity": 100}, {"time": 143522, "pitch": 42, "duration": 160, "velocity": 100}, {"time": 144001, "pitch": 49, "duration": 160, "velocity": 100}, {"time": 144481, "pitch": 52, "duration": 160, "velocity": 100}, {"time": 144961, "pitch": 45, "duration": 160, "velocity": 100}, {"time": 145440, "pitch": 50, "duration": 160, "velocity": 100}, {"time": 145920, "pitch": 45, "duration": 160, "velocity": 100}, {"time": 146400, "pitch": 54, "duration": 159, "velocity": 100}, {"time": 146879, "pitch": 49, "duration": 160, "velocity": 100}, {"time": 147359, "pitch": 47, "duration": 160, "velocity": 100}, {"time": 147839, "pitch": 54, "duration": 159, "velocity": 100}, {"time": 148318, "pitch": 52, "duration": 160, "velocity": 100}, {"time": 148798, "pitch": 45, "duration": 160, "velocity": 100}, {"time": 149277, "pitch": 50, "duration": 160, "velocity": 100}, {"time": 149757, "pitch": 45, "duration": 162, "velocity": 100}, {"time": 150243, "pitch": 43, "duration": 160, "velocity": 100}, {"time": 150723, "pitch": 50, "duration": 159, "velocity": 100}, {"time": 151202, "pitch": 42, "duration": 160, "velocity": 100}, {"time": 151682, "pitch": 49, "duration": 160, "velocity": 100}, {"time": 152161, "pitch": 46, "duration": 160, "velocity": 100}, {"time": 152641, "pitch": 53, "duration": 160, "velocity": 100}, {"time": 153121, "pitch": 46, "duration": 160, "velocity": 100}, {"time": 153600, "pitch": 53, "duration": 160, "velocity": 100}, {"time": 154080, "pitch": 51, "duration": 1419, "velocity": 100}, {"time": 155519, "pitch": 63, "duration": 460, "velocity": 100}, {"time": 155999, "pitch": 62, "duration": 939, "velocity": 70}, {"time": 156958, "pitch": 61, "duration": 939, "velocity": 70}, {"time": 157917, "pitch": 59, "duration": 966, "velocity": 70}, {"time": 158883, "pitch": 57, "duration": 959, "velocity": 70}, {"time": 159842, "pitch": 55, "duration": 959, "velocity": 70}, {"time": 160801, "pitch": 54, "duration": 460, "velocity": 70}, {"time": 161281, "pitch": 47, "duration": 460, "velocity": 70}, {"time": 161761, "pitch": 52, "duration": 939, "velocity": 70}, {"time": 162720, "pitch": 45, "duration": 459, "velocity": 70}, {"time": 163199, "pitch": 43, "duration": 460, "velocity": 70}, {"time": 163679, "pitch": 42, "duration": 1899, "velocity": 70}, {"time": 165598, "pitch": 52, "duration": 939, "velocity": 70}, {"time": 166557, "pitch": 45, "duration": 945, "velocity": 70}, {"time": 167522, "pitch": 47, "duration": 1899, "velocity": 70}, {"time": 169441, "pitch": 43, "duration": 939, "velocity": 70}, {"time": 170400, "pitch": 45, "duration": 940, "velocity": 70}, {"time": 171360, "pitch": 45, "duration": 1898, "velocity": 70}, {"time": 139199, "pitch": 69, "duration": 479, "velocity": 95}, {"time": 139199, "pitch": 73, "duration": 479, "velocity": 100}, {"time": 139678, "pitch": 66, "duration": 940, "velocity": 95}, {"time": 139678, "pitch": 71, "duration": 940, "velocity": 100}, {"time": 141117, "pitch": 64, "duration": 480, "velocity": 95}, {"time": 141117, "pitch": 67, "duration": 480, "velocity": 100}, {"time": 141597, "pitch": 61, "duration": 945, "velocity": 95}, {"time": 141597, "pitch": 66, "duration": 945, "velocity": 100}, {"time": 142562, "pitch": 67, "duration": 940, "velocity": 100}, {"time": 142562, "pitch": 71, "duration": 940, "velocity": 100}, {"time": 143522, "pitch": 69, "duration": 939, "velocity": 100}, {"time": 143522, "pitch": 73, "duration": 939, "velocity": 100}, {"time": 144481, "pitch": 67, "duration": 939, "velocity": 100}, {"time": 144481, "pitch": 71, "duration": 939, "velocity": 100}, {"time": 145440, "pitch": 66, "duration": 940, "velocity": 100}, {"time": 145440, "pitch": 69, "duration": 940, "velocity": 100}, {"time": 146879, "pitch": 69, "duration": 480, "velocity": 95}, {"time": 146879, "pitch": 73, "duration": 480, "velocity": 100}, {"time": 147359, "pitch": 66, "duration": 939, "velocity": 95}, {"time": 147359, "pitch": 71, "duration": 939, "velocity": 100}, {"time": 148798, "pitch": 64, "duration": 479, "velocity": 95}, {"time": 148798, "pitch": 67, "duration": 479, "velocity": 100}, {"time": 149277, "pitch": 61, "duration": 946, "velocity": 95}, {"time": 149277, "pitch": 66, "duration": 946, "velocity": 100}, {"time": 150243, "pitch": 67, "duration": 939, "velocity": 95}, {"time": 150243, "pitch": 71, "duration": 939, "velocity": 100}, {"time": 151202, "pitch": 69, "duration": 939, "velocity": 95}, {"time": 151202, "pitch": 73, "duration": 939, "velocity": 100}, {"time": 152161, "pitch": 70, "duration": 1899, "velocity": 95}, {"time": 152161, "pitch": 74, "duration": 1899, "velocity": 100}]}]}