{"metadata": {"schema_version": "0.1", "title": "RWC-MDB-P-2001 No. 68: Nichiyoubi / Makiko Hattori", "copyright": "RWC Music Database. Copyright (C) 2001 Real World Computing Partnership (contact: Masataka GOTO <m.goto@aist.go.jp>)", "source_filename": "RM-P068.SMF_SYNC.MID", "source_format": "midi"}, "resolution": 480, "tempos": [{"time": 0, "qpm": 58.8235294117647}, {"time": 480, "qpm": 92.3076923076923}, {"time": 1920, "qpm": 90.9090909090909}, {"time": 2400, "qpm": 92.3076923076923}, {"time": 3840, "qpm": 90.9090909090909}, {"time": 4320, "qpm": 92.3076923076923}, {"time": 5760, "qpm": 90.9090909090909}, {"time": 6240, "qpm": 92.3076923076923}, {"time": 7680, "qpm": 90.9090909090909}, {"time": 8160, "qpm": 93.75}, {"time": 8640, "qpm": 90.9090909090909}, {"time": 9120, "qpm": 92.3076923076923}, {"time": 10560, "qpm": 90.9090909090909}, {"time": 11040, "qpm": 92.3076923076923}, {"time": 12480, "qpm": 90.9090909090909}, {"time": 12960, "qpm": 92.3076923076923}, {"time": 14400, "qpm": 90.9090909090909}, {"time": 14880, "qpm": 93.75}, {"time": 15360, "qpm": 90.9090909090909}, {"time": 15840, "qpm": 92.3076923076923}, {"time": 16320, "qpm": 90.9090909090909}, {"time": 16800, "qpm": 93.75}, {"time": 17280, "qpm": 90.9090909090909}, {"time": 17760, "qpm": 93.75}, {"time": 18240, "qpm": 90.9090909090909}, {"time": 18720, "qpm": 92.3076923076923}, {"time": 20160, "qpm": 90.9090909090909}, {"time": 20640, "qpm": 92.3076923076923}, {"time": 22080, "qpm": 90.9090909090909}, {"time": 22560, "qpm": 92.3076923076923}, {"time": 23040, "qpm": 90.9090909090909}, {"time": 23520, "qpm": 93.75}, {"time": 24000, "qpm": 90.9090909090909}, {"time": 24480, "qpm": 92.3076923076923}, {"time": 24960, "qpm": 90.9090909090909}, {"time": 25440, "qpm": 93.75}, {"time": 25920, "qpm": 90.9090909090909}, {"time": 26400, "qpm": 92.3076923076923}, {"time": 27840, "qpm": 90.9090909090909}, {"time": 28320, "qpm": 93.75}, {"time": 28800, "qpm": 90.9090909090909}, {"time": 29280, "qpm": 92.3076923076923}, {"time": 30240, "qpm": 90.9090909090909}, {"time": 30720, "qpm": 92.3076923076923}, {"time": 32640, "qpm": 90.9090909090909}, {"time": 33120, "qpm": 93.75}, {"time": 33600, "qpm": 90.9090909090909}, {"time": 34080, "qpm": 92.3076923076923}, {"time": 36000, "qpm": 90.9090909090909}, {"time": 36480, "qpm": 92.3076923076923}, {"time": 37440, "qpm": 90.9090909090909}, {"time": 37920, "qpm": 92.3076923076923}, {"time": 39360, "qpm": 90.9090909090909}, {"time": 39840, "qpm": 92.3076923076923}, {"time": 42240, "qpm": 90.9090909090909}, {"time": 42720, "qpm": 92.3076923076923}, {"time": 45120, "qpm": 90.9090909090909}, {"time": 45600, "qpm": 92.3076923076923}, {"time": 46080, "qpm": 90.9090909090909}, {"time": 46560, "qpm": 93.75}, {"time": 47040, "qpm": 90.9090909090909}, {"time": 47520, "qpm": 92.3076923076923}, {"time": 48000, "qpm": 90.9090909090909}, {"time": 48480, "qpm": 92.3076923076923}, {"time": 50880, "qpm": 90.9090909090909}, {"time": 51360, "qpm": 92.3076923076923}, {"time": 53280, "qpm": 90.9090909090909}, {"time": 53760, "qpm": 92.3076923076923}, {"time": 55200, "qpm": 90.9090909090909}, {"time": 55680, "qpm": 92.3076923076923}, {"time": 57600, "qpm": 90.9090909090909}, {"time": 58080, "qpm": 92.3076923076923}, {"time": 60960, "qpm": 90.9090909090909}, {"time": 61920, "qpm": 93.75}, {"time": 62400, "qpm": 92.3076923076923}, {"time": 62880, "qpm": 90.9090909090909}, {"time": 63840, "qpm": 93.75}, {"time": 64320, "qpm": 90.9090909090909}, {"time": 64800, "qpm": 93.75}, {"time": 65280, "qpm": 90.9090909090909}, {"time": 65760, "qpm": 92.3076923076923}, {"time": 66720, "qpm": 90.9090909090909}, {"time": 67200, "qpm": 92.3076923076923}, {"time": 69120, "qpm": 90.9090909090909}, {"time": 69600, "qpm": 92.3076923076923}, {"time": 70560, "qpm": 90.9090909090909}, {"time": 71040, "qpm": 92.3076923076923}, {"time": 71520, "qpm": 93.75}, {"time": 72000, "qpm": 90.9090909090909}, {"time": 72480, "qpm": 92.3076923076923}, {"time": 73920, "qpm": 90.9090909090909}, {"time": 74400, "qpm": 92.3076923076923}, {"time": 76320, "qpm": 90.9090909090909}, {"time": 76800, "qpm": 92.3076923076923}, {"time": 78240, "qpm": 90.9090909090909}, {"time": 78720, "qpm": 92.3076923076923}, {"time": 80640, "qpm": 90.9090909090909}, {"time": 81120, "qpm": 92.3076923076923}, {"time": 82560, "qpm": 90.9090909090909}, {"time": 83040, "qpm": 92.3076923076923}, {"time": 85440, "qpm": 90.9090909090909}, {"time": 85920, "qpm": 92.3076923076923}, {"time": 87840, "qpm": 90.9090909090909}, {"time": 88320, "qpm": 92.3076923076923}, {"time": 89760, "qpm": 90.9090909090909}, {"time": 90720, "qpm": 93.75}, {"time": 91200, "qpm": 90.9090909090909}, {"time": 91680, "qpm": 92.3076923076923}, {"time": 93600, "qpm": 90.9090909090909}, {"time": 94080, "qpm": 92.3076923076923}, {"time": 96000, "qpm": 90.9090909090909}, {"time": 96480, "qpm": 92.3076923076923}, {"time": 97920, "qpm": 90.9090909090909}, {"time": 98400, "qpm": 93.75}, {"time": 98880, "qpm": 90.9090909090909}, {"time": 99360, "qpm": 92.3076923076923}, {"time": 99840, "qpm": 90.9090909090909}, {"time": 100320, "qpm": 93.75}, {"time": 100800, "qpm": 90.9090909090909}, {"time": 101280, "qpm": 92.3076923076923}, {"time": 102720, "qpm": 90.9090909090909}, {"time": 103200, "qpm": 93.75}, {"time": 103680, "qpm": 90.9090909090909}, {"time": 104160, "qpm": 92.3076923076923}, {"time": 104640, "qpm": 90.9090909090909}, {"time": 105120, "qpm": 92.3076923076923}, {"time": 105600, "qpm": 90.9090909090909}, {"time": 106080, "qpm": 93.75}, {"time": 106560, "qpm": 90.9090909090909}, {"time": 107040, "qpm": 93.75}, {"time": 107520, "qpm": 90.9090909090909}, {"time": 108000, "qpm": 92.3076923076923}, {"time": 108480, "qpm": 90.9090909090909}, {"time": 108960, "qpm": 93.75}, {"time": 109440, "qpm": 90.9090909090909}, {"time": 109920, "qpm": 92.3076923076923}, {"time": 111360, "qpm": 90.9090909090909}, {"time": 111840, "qpm": 93.75}, {"time": 112320, "qpm": 90.9090909090909}, {"time": 112800, "qpm": 92.3076923076923}, {"time": 113280, "qpm": 90.9090909090909}, {"time": 113760, "qpm": 92.3076923076923}, {"time": 114240, "qpm": 93.75}, {"time": 114720, "qpm": 90.9090909090909}, {"time": 115200, "qpm": 92.3076923076923}, {"time": 116640, "qpm": 90.9090909090909}, {"time": 117120, "qpm": 92.3076923076923}, {"time": 119040, "qpm": 90.9090909090909}, {"time": 119520, "qpm": 92.3076923076923}, {"time": 120000, "qpm": 90.9090909090909}, {"time": 120480, "qpm": 92.3076923076923}, {"time": 122400, "qpm": 90.9090909090909}, {"time": 122880, "qpm": 92.3076923076923}, {"time": 124800, "qpm": 90.9090909090909}, {"time": 125280, "qpm": 92.3076923076923}, {"time": 127680, "qpm": 90.9090909090909}, {"time": 128160, "qpm": 92.3076923076923}, {"time": 128640, "qpm": 90.9090909090909}, {"time": 129120, "qpm": 93.75}, {"time": 129600, "qpm": 90.9090909090909}, {"time": 130080, "qpm": 92.3076923076923}, {"time": 131520, "qpm": 90.9090909090909}, {"time": 132000, "qpm": 92.3076923076923}, {"time": 134400, "qpm": 90.9090909090909}, {"time": 134880, "qpm": 92.3076923076923}, {"time": 136320, "qpm": 90.9090909090909}, {"time": 136800, "qpm": 92.3076923076923}, {"time": 138240, "qpm": 90.9090909090909}, {"time": 138720, "qpm": 93.75}, {"time": 139200, "qpm": 90.9090909090909}, {"time": 139680, "qpm": 92.3076923076923}, {"time": 141120, "qpm": 90.9090909090909}, {"time": 141600, "qpm": 92.3076923076923}, {"time": 143520, "qpm": 90.9090909090909}, {"time": 144480, "qpm": 93.75}, {"time": 144960, "qpm": 92.3076923076923}, {"time": 145440, "qpm": 90.9090909090909}, {"time": 146400, "qpm": 93.75}, {"time": 146880, "qpm": 92.3076923076923}, {"time": 147840, "qpm": 90.9090909090909}, {"time": 148320, "qpm": 92.3076923076923}, {"time": 149760, "qpm": 90.9090909090909}, {"time": 150240, "qpm": 92.3076923076923}, {"time": 151680, "qpm": 90.9090909090909}, {"time": 152160, "qpm": 93.75}, {"time": 152640, "qpm": 90.9090909090909}, {"time": 153120, "qpm": 92.3076923076923}, {"time": 153600, "qpm": 90.9090909090909}, {"time": 154080, "qpm": 93.75}, {"time": 154560, "qpm": 90.9090909090909}, {"time": 155040, "qpm": 92.3076923076923}, {"time": 156960, "qpm": 90.9090909090909}, {"time": 157440, "qpm": 92.3076923076923}, {"time": 158880, "qpm": 90.9090909090909}, {"time": 159360, "qpm": 92.3076923076923}, {"time": 161760, "qpm": 90.9090909090909}, {"time": 162240, "qpm": 92.3076923076923}, {"time": 163200, "qpm": 90.9090909090909}, {"time": 163680, "qpm": 93.75}, {"time": 164160, "qpm": 90.9090909090909}, {"time": 164640, "qpm": 92.3076923076923}, {"time": 165120, "qpm": 90.9090909090909}, {"time": 165600, "qpm": 92.3076923076923}, {"time": 168000, "qpm": 90.9090909090909}, {"time": 168480, "qpm": 92.3076923076923}, {"time": 170400, "qpm": 90.9090909090909}, {"time": 170880, "qpm": 92.3076923076923}, {"time": 172320, "qpm": 90.9090909090909}, {"time": 172800, "qpm": 92.3076923076923}, {"time": 174720, "qpm": 90.9090909090909}, {"time": 175200, "qpm": 92.3076923076923}, {"time": 176640, "qpm": 90.9090909090909}, {"time": 177120, "qpm": 92.3076923076923}, {"time": 178560, "qpm": 90.9090909090909}, {"time": 179040, "qpm": 93.75}, {"time": 179520, "qpm": 92.3076923076923}, {"time": 180000, "qpm": 90.9090909090909}, {"time": 180960, "qpm": 92.3076923076923}, {"time": 183360, "qpm": 90.9090909090909}, {"time": 183840, "qpm": 92.3076923076923}, {"time": 185760, "qpm": 90.9090909090909}, {"time": 186240, "qpm": 92.3076923076923}, {"time": 187680, "qpm": 90.9090909090909}, {"time": 188160, "qpm": 92.3076923076923}, {"time": 190080, "qpm": 90.9090909090909}, {"time": 190560, "qpm": 92.3076923076923}, {"time": 192960, "qpm": 90.9090909090909}, {"time": 193440, "qpm": 92.3076923076923}, {"time": 194880, "qpm": 90.9090909090909}, {"time": 195360, "qpm": 92.3076923076923}, {"time": 196800, "qpm": 90.9090909090909}, {"time": 197280, "qpm": 92.3076923076923}, {"time": 197760, "qpm": 90.9090909090909}, {"time": 198240, "qpm": 93.75}, {"time": 198720, "qpm": 90.9090909090909}, {"time": 199200, "qpm": 92.3076923076923}, {"time": 200640, "qpm": 90.9090909090909}, {"time": 201120, "qpm": 93.75}, {"time": 201600, "qpm": 90.9090909090909}, {"time": 202080, "qpm": 92.3076923076923}, {"time": 203520, "qpm": 90.9090909090909}, {"time": 204000, "qpm": 92.3076923076923}, {"time": 205440, "qpm": 90.9090909090909}, {"time": 205920, "qpm": 92.3076923076923}, {"time": 207360, "qpm": 90.9090909090909}, {"time": 207840, "qpm": 93.75}, {"time": 208320, "qpm": 90.9090909090909}, {"time": 208800, "qpm": 92.3076923076923}, {"time": 210240, "qpm": 90.9090909090909}, {"time": 210720, "qpm": 92.3076923076923}, {"time": 212160, "qpm": 90.9090909090909}], "key_signatures": [{"time": 0, "root": 0, "mode": "major"}], "time_signatures": [{"time": 0, "numerator": 1, "denominator": 4}, {"time": 480, "numerator": 4, "denominator": 4}], "tracks": [{"program": 0, "is_drum": false, "name": "Piano", "notes": [{"time": 479, "pitch": 71, "duration": 993, "velocity": 101}, {"time": 479, "pitch": 76, "duration": 993, "velocity": 95}, {"time": 479, "pitch": 79, "duration": 1003, "velocity": 111}, {"time": 1442, "pitch": 72, "duration": 966, "velocity": 99}, {"time": 1442, "pitch": 77, "duration": 966, "velocity": 92}, {"time": 1442, "pitch": 81, "duration": 966, "velocity": 106}, {"time": 2398, "pitch": 74, "duration": 973, "velocity": 103}, {"time": 2398, "pitch": 79, "duration": 913, "velocity": 102}, {"time": 2398, "pitch": 83, "duration": 1003, "velocity": 110}, {"time": 3361, "pitch": 72, "duration": 887, "velocity": 92}, {"time": 3361, "pitch": 77, "duration": 867, "velocity": 103}, {"time": 3361, "pitch": 81, "duration": 857, "velocity": 105}, {"time": 4317, "pitch": 71, "duration": 953, "velocity": 103}, {"time": 4317, "pitch": 76, "duration": 963, "velocity": 105}, {"time": 4317, "pitch": 79, "duration": 943, "velocity": 112}, {"time": 5280, "pitch": 69, "duration": 973, "velocity": 96}, {"time": 5280, "pitch": 72, "duration": 973, "velocity": 98}, {"time": 5280, "pitch": 77, "duration": 1023, "velocity": 106}, {"time": 6243, "pitch": 67, "duration": 966, "velocity": 98}, {"time": 6243, "pitch": 71, "duration": 956, "velocity": 96}, {"time": 6243, "pitch": 74, "duration": 966, "velocity": 108}, {"time": 7199, "pitch": 65, "duration": 853, "velocity": 99}, {"time": 7199, "pitch": 69, "duration": 873, "velocity": 99}, {"time": 7199, "pitch": 72, "duration": 863, "velocity": 107}, {"time": 8162, "pitch": 60, "duration": 3688, "velocity": 97}, {"time": 8162, "pitch": 64, "duration": 956, "velocity": 95}, {"time": 8162, "pitch": 67, "duration": 936, "velocity": 97}, {"time": 8162, "pitch": 71, "duration": 966, "velocity": 102}, {"time": 9118, "pitch": 65, "duration": 1003, "velocity": 105}, {"time": 9118, "pitch": 69, "duration": 973, "velocity": 110}, {"time": 9118, "pitch": 72, "duration": 1003, "velocity": 98}, {"time": 10081, "pitch": 67, "duration": 956, "velocity": 101}, {"time": 10081, "pitch": 71, "duration": 926, "velocity": 107}, {"time": 10081, "pitch": 74, "duration": 966, "velocity": 113}, {"time": 11037, "pitch": 65, "duration": 803, "velocity": 95}, {"time": 11037, "pitch": 69, "duration": 853, "velocity": 105}, {"time": 11037, "pitch": 72, "duration": 823, "velocity": 109}, {"time": 12000, "pitch": 48, "duration": 3728, "velocity": 100}, {"time": 12000, "pitch": 64, "duration": 973, "velocity": 99}, {"time": 12000, "pitch": 67, "duration": 1003, "velocity": 103}, {"time": 12000, "pitch": 71, "duration": 993, "velocity": 110}, {"time": 12963, "pitch": 60, "duration": 956, "velocity": 103}, {"time": 12963, "pitch": 65, "duration": 966, "velocity": 101}, {"time": 12963, "pitch": 69, "duration": 976, "velocity": 109}, {"time": 13919, "pitch": 59, "duration": 953, "velocity": 102}, {"time": 13919, "pitch": 62, "duration": 953, "velocity": 92}, {"time": 13919, "pitch": 67, "duration": 963, "velocity": 107}, {"time": 14882, "pitch": 57, "duration": 876, "velocity": 99}, {"time": 14882, "pitch": 60, "duration": 866, "velocity": 98}, {"time": 14882, "pitch": 65, "duration": 886, "velocity": 103}, {"time": 15838, "pitch": 48, "duration": 963, "velocity": 90}, {"time": 15838, "pitch": 59, "duration": 943, "velocity": 101}, {"time": 15838, "pitch": 64, "duration": 963, "velocity": 89}, {"time": 15838, "pitch": 67, "duration": 953, "velocity": 108}, {"time": 16801, "pitch": 53, "duration": 956, "velocity": 97}, {"time": 16801, "pitch": 57, "duration": 857, "velocity": 101}, {"time": 16801, "pitch": 64, "duration": 887, "velocity": 88}, {"time": 16801, "pitch": 67, "duration": 877, "velocity": 105}, {"time": 17757, "pitch": 52, "duration": 933, "velocity": 93}, {"time": 17757, "pitch": 59, "duration": 923, "velocity": 104}, {"time": 17757, "pitch": 62, "duration": 923, "velocity": 88}, {"time": 17757, "pitch": 67, "duration": 923, "velocity": 116}, {"time": 18720, "pitch": 57, "duration": 903, "velocity": 92}, {"time": 18720, "pitch": 60, "duration": 954, "velocity": 105}, {"time": 18720, "pitch": 64, "duration": 923, "velocity": 95}, {"time": 18720, "pitch": 67, "duration": 883, "velocity": 113}, {"time": 19684, "pitch": 50, "duration": 1909, "velocity": 95}, {"time": 19684, "pitch": 57, "duration": 805, "velocity": 106}, {"time": 19684, "pitch": 60, "duration": 825, "velocity": 105}, {"time": 19684, "pitch": 65, "duration": 885, "velocity": 112}, {"time": 20639, "pitch": 60, "duration": 923, "velocity": 110}, {"time": 20639, "pitch": 65, "duration": 923, "velocity": 95}, {"time": 20639, "pitch": 69, "duration": 913, "velocity": 114}, {"time": 21603, "pitch": 55, "duration": 975, "velocity": 89}, {"time": 21603, "pitch": 60, "duration": 895, "velocity": 107}, {"time": 21603, "pitch": 65, "duration": 915, "velocity": 101}, {"time": 21603, "pitch": 69, "duration": 915, "velocity": 112}, {"time": 22558, "pitch": 43, "duration": 964, "velocity": 90}, {"time": 22558, "pitch": 59, "duration": 382, "velocity": 100}, {"time": 22558, "pitch": 62, "duration": 502, "velocity": 100}, {"time": 22558, "pitch": 67, "duration": 372, "velocity": 110}, {"time": 23040, "pitch": 57, "duration": 441, "velocity": 95}, {"time": 23040, "pitch": 60, "duration": 451, "velocity": 99}, {"time": 23040, "pitch": 65, "duration": 441, "velocity": 107}, {"time": 23522, "pitch": 48, "duration": 995, "velocity": 102}, {"time": 23522, "pitch": 59, "duration": 857, "velocity": 106}, {"time": 23522, "pitch": 64, "duration": 896, "velocity": 95}, {"time": 23522, "pitch": 67, "duration": 857, "velocity": 110}, {"time": 24477, "pitch": 53, "duration": 954, "velocity": 99}, {"time": 24477, "pitch": 57, "duration": 893, "velocity": 107}, {"time": 24477, "pitch": 64, "duration": 893, "velocity": 100}, {"time": 24477, "pitch": 67, "duration": 943, "velocity": 112}, {"time": 25441, "pitch": 52, "duration": 975, "velocity": 103}, {"time": 25441, "pitch": 59, "duration": 876, "velocity": 105}, {"time": 25441, "pitch": 64, "duration": 906, "velocity": 93}, {"time": 25441, "pitch": 67, "duration": 876, "velocity": 111}, {"time": 26396, "pitch": 57, "duration": 893, "velocity": 93}, {"time": 26396, "pitch": 60, "duration": 883, "velocity": 107}, {"time": 26396, "pitch": 64, "duration": 893, "velocity": 84}, {"time": 26396, "pitch": 67, "duration": 913, "velocity": 111}, {"time": 27360, "pitch": 50, "duration": 1919, "velocity": 93}, {"time": 27360, "pitch": 57, "duration": 822, "velocity": 105}, {"time": 27360, "pitch": 60, "duration": 832, "velocity": 99}, {"time": 27360, "pitch": 65, "duration": 892, "velocity": 113}, {"time": 28323, "pitch": 60, "duration": 905, "velocity": 105}, {"time": 28323, "pitch": 65, "duration": 905, "velocity": 99}, {"time": 28323, "pitch": 69, "duration": 895, "velocity": 117}, {"time": 29279, "pitch": 55, "duration": 1454, "velocity": 91}, {"time": 29279, "pitch": 60, "duration": 862, "velocity": 103}, {"time": 29279, "pitch": 65, "duration": 892, "velocity": 98}, {"time": 29279, "pitch": 69, "duration": 822, "velocity": 114}, {"time": 30242, "pitch": 59, "duration": 461, "velocity": 106}, {"time": 30242, "pitch": 62, "duration": 471, "velocity": 101}, {"time": 30242, "pitch": 67, "duration": 461, "velocity": 113}, {"time": 30723, "pitch": 43, "duration": 455, "velocity": 96}, {"time": 30723, "pitch": 57, "duration": 455, "velocity": 100}, {"time": 30723, "pitch": 60, "duration": 425, "velocity": 100}, {"time": 30723, "pitch": 65, "duration": 435, "velocity": 110}, {"time": 31198, "pitch": 40, "duration": 501, "velocity": 107}, {"time": 31438, "pitch": 55, "duration": 311, "velocity": 109}, {"time": 31679, "pitch": 47, "duration": 291, "velocity": 98}, {"time": 31679, "pitch": 62, "duration": 291, "velocity": 105}, {"time": 31920, "pitch": 52, "duration": 1177, "velocity": 103}, {"time": 31920, "pitch": 67, "duration": 1167, "velocity": 115}, {"time": 33117, "pitch": 45, "duration": 712, "velocity": 115}, {"time": 33357, "pitch": 59, "duration": 301, "velocity": 109}, {"time": 33598, "pitch": 60, "duration": 341, "velocity": 119}, {"time": 33839, "pitch": 52, "duration": 903, "velocity": 109}, {"time": 33839, "pitch": 67, "duration": 903, "velocity": 112}, {"time": 34802, "pitch": 50, "duration": 815, "velocity": 108}, {"time": 34802, "pitch": 57, "duration": 856, "velocity": 107}, {"time": 34802, "pitch": 60, "duration": 866, "velocity": 111}, {"time": 34802, "pitch": 65, "duration": 845, "velocity": 113}, {"time": 35758, "pitch": 43, "duration": 913, "velocity": 102}, {"time": 35758, "pitch": 53, "duration": 893, "velocity": 106}, {"time": 35758, "pitch": 57, "duration": 833, "velocity": 102}, {"time": 35758, "pitch": 60, "duration": 833, "velocity": 106}, {"time": 35758, "pitch": 62, "duration": 863, "velocity": 112}, {"time": 36721, "pitch": 48, "duration": 1108, "velocity": 111}, {"time": 36721, "pitch": 55, "duration": 1088, "velocity": 103}, {"time": 36721, "pitch": 59, "duration": 1068, "velocity": 102}, {"time": 36721, "pitch": 64, "duration": 1068, "velocity": 116}, {"time": 37918, "pitch": 47, "duration": 441, "velocity": 100}, {"time": 37918, "pitch": 57, "duration": 371, "velocity": 110}, {"time": 37918, "pitch": 62, "duration": 361, "velocity": 94}, {"time": 37918, "pitch": 65, "duration": 381, "velocity": 115}, {"time": 38399, "pitch": 52, "duration": 422, "velocity": 108}, {"time": 38399, "pitch": 56, "duration": 361, "velocity": 108}, {"time": 38399, "pitch": 62, "duration": 392, "velocity": 100}, {"time": 38399, "pitch": 64, "duration": 392, "velocity": 117}, {"time": 38881, "pitch": 45, "duration": 996, "velocity": 104}, {"time": 38881, "pitch": 55, "duration": 768, "velocity": 107}, {"time": 38881, "pitch": 60, "duration": 857, "velocity": 109}, {"time": 38881, "pitch": 64, "duration": 867, "velocity": 115}, {"time": 39837, "pitch": 43, "duration": 481, "velocity": 100}, {"time": 39837, "pitch": 58, "duration": 381, "velocity": 111}, {"time": 39837, "pitch": 65, "duration": 431, "velocity": 115}, {"time": 40318, "pitch": 48, "duration": 462, "velocity": 106}, {"time": 40318, "pitch": 58, "duration": 351, "velocity": 104}, {"time": 40318, "pitch": 60, "duration": 371, "velocity": 102}, {"time": 40318, "pitch": 64, "duration": 422, "velocity": 112}, {"time": 40800, "pitch": 41, "duration": 451, "velocity": 115}, {"time": 40800, "pitch": 60, "duration": 481, "velocity": 114}, {"time": 40800, "pitch": 64, "duration": 501, "velocity": 107}, {"time": 40800, "pitch": 69, "duration": 431, "velocity": 119}, {"time": 41281, "pitch": 53, "duration": 311, "velocity": 111}, {"time": 41522, "pitch": 52, "duration": 280, "velocity": 111}, {"time": 41522, "pitch": 59, "duration": 241, "velocity": 105}, {"time": 41522, "pitch": 62, "duration": 241, "velocity": 96}, {"time": 41522, "pitch": 67, "duration": 251, "velocity": 117}, {"time": 42000, "pitch": 50, "duration": 458, "velocity": 110}, {"time": 42000, "pitch": 57, "duration": 598, "velocity": 106}, {"time": 42000, "pitch": 60, "duration": 618, "velocity": 105}, {"time": 42000, "pitch": 65, "duration": 618, "velocity": 123}, {"time": 42478, "pitch": 48, "duration": 150, "velocity": 108}, {"time": 42719, "pitch": 46, "duration": 1504, "velocity": 108}, {"time": 42719, "pitch": 57, "duration": 1524, "velocity": 104}, {"time": 42719, "pitch": 58, "duration": 1494, "velocity": 104}, {"time": 42719, "pitch": 60, "duration": 1494, "velocity": 101}, {"time": 42719, "pitch": 65, "duration": 1514, "velocity": 119}, {"time": 44401, "pitch": 45, "duration": 829, "velocity": 105}, {"time": 44401, "pitch": 52, "duration": 819, "velocity": 108}, {"time": 44401, "pitch": 59, "duration": 829, "velocity": 107}, {"time": 44401, "pitch": 62, "duration": 859, "velocity": 100}, {"time": 44401, "pitch": 67, "duration": 899, "velocity": 115}, {"time": 45360, "pitch": 45, "duration": 1049, "velocity": 109}, {"time": 45360, "pitch": 52, "duration": 1058, "velocity": 105}, {"time": 45360, "pitch": 62, "duration": 1029, "velocity": 101}, {"time": 45360, "pitch": 67, "duration": 970, "velocity": 103}, {"time": 45360, "pitch": 71, "duration": 970, "velocity": 120}, {"time": 46557, "pitch": 45, "duration": 1896, "velocity": 107}, {"time": 46557, "pitch": 57, "duration": 1896, "velocity": 111}, {"time": 46557, "pitch": 62, "duration": 411, "velocity": 108}, {"time": 46557, "pitch": 67, "duration": 421, "velocity": 104}, {"time": 46557, "pitch": 71, "duration": 431, "velocity": 107}, {"time": 46557, "pitch": 74, "duration": 421, "velocity": 119}, {"time": 47038, "pitch": 61, "duration": 422, "velocity": 118}, {"time": 47038, "pitch": 67, "duration": 412, "velocity": 98}, {"time": 47038, "pitch": 69, "duration": 402, "velocity": 99}, {"time": 47038, "pitch": 73, "duration": 402, "velocity": 108}, {"time": 47520, "pitch": 62, "duration": 401, "velocity": 99}, {"time": 47520, "pitch": 67, "duration": 431, "velocity": 99}, {"time": 47520, "pitch": 71, "duration": 431, "velocity": 104}, {"time": 47520, "pitch": 74, "duration": 431, "velocity": 118}, {"time": 48002, "pitch": 64, "duration": 431, "velocity": 99}, {"time": 48002, "pitch": 67, "duration": 441, "velocity": 105}, {"time": 48002, "pitch": 73, "duration": 431, "velocity": 104}, {"time": 48002, "pitch": 76, "duration": 441, "velocity": 120}, {"time": 48483, "pitch": 50, "duration": 1578, "velocity": 96}, {"time": 48483, "pitch": 57, "duration": 1598, "velocity": 97}, {"time": 48483, "pitch": 64, "duration": 247, "velocity": 88}, {"time": 48483, "pitch": 66, "duration": 247, "velocity": 86}, {"time": 48483, "pitch": 69, "duration": 237, "velocity": 112}, {"time": 48720, "pitch": 62, "duration": 247, "velocity": 78}, {"time": 48957, "pitch": 64, "duration": 231, "velocity": 84}, {"time": 48957, "pitch": 66, "duration": 251, "velocity": 92}, {"time": 48957, "pitch": 69, "duration": 241, "velocity": 105}, {"time": 49198, "pitch": 62, "duration": 271, "velocity": 84}, {"time": 49439, "pitch": 64, "duration": 251, "velocity": 79}, {"time": 49439, "pitch": 66, "duration": 271, "velocity": 100}, {"time": 49439, "pitch": 69, "duration": 231, "velocity": 109}, {"time": 49680, "pitch": 62, "duration": 281, "velocity": 84}, {"time": 49921, "pitch": 64, "duration": 250, "velocity": 83}, {"time": 49921, "pitch": 66, "duration": 270, "velocity": 91}, {"time": 49921, "pitch": 69, "duration": 230, "velocity": 111}, {"time": 50161, "pitch": 50, "duration": 2050, "velocity": 95}, {"time": 50161, "pitch": 61, "duration": 2040, "velocity": 100}, {"time": 50161, "pitch": 62, "duration": 251, "velocity": 83}, {"time": 50402, "pitch": 64, "duration": 247, "velocity": 84}, {"time": 50402, "pitch": 66, "duration": 247, "velocity": 95}, {"time": 50402, "pitch": 69, "duration": 208, "velocity": 104}, {"time": 50639, "pitch": 62, "duration": 267, "velocity": 86}, {"time": 50876, "pitch": 64, "duration": 261, "velocity": 78}, {"time": 50876, "pitch": 66, "duration": 261, "velocity": 91}, {"time": 50876, "pitch": 69, "duration": 221, "velocity": 99}, {"time": 51117, "pitch": 62, "duration": 251, "velocity": 91}, {"time": 51358, "pitch": 64, "duration": 251, "velocity": 78}, {"time": 51358, "pitch": 66, "duration": 261, "velocity": 93}, {"time": 51358, "pitch": 69, "duration": 241, "velocity": 96}, {"time": 51599, "pitch": 62, "duration": 311, "velocity": 86}, {"time": 51839, "pitch": 64, "duration": 261, "velocity": 81}, {"time": 51839, "pitch": 66, "duration": 281, "velocity": 90}, {"time": 51839, "pitch": 69, "duration": 241, "velocity": 98}, {"time": 52080, "pitch": 62, "duration": 251, "velocity": 85}, {"time": 52321, "pitch": 50, "duration": 1558, "velocity": 100}, {"time": 52321, "pitch": 61, "duration": 1548, "velocity": 104}, {"time": 52321, "pitch": 64, "duration": 241, "velocity": 83}, {"time": 52321, "pitch": 66, "duration": 241, "velocity": 95}, {"time": 52321, "pitch": 69, "duration": 211, "velocity": 102}, {"time": 52562, "pitch": 62, "duration": 280, "velocity": 87}, {"time": 52803, "pitch": 64, "duration": 257, "velocity": 80}, {"time": 52803, "pitch": 66, "duration": 247, "velocity": 91}, {"time": 52803, "pitch": 69, "duration": 207, "velocity": 100}, {"time": 53040, "pitch": 62, "duration": 287, "velocity": 86}, {"time": 53277, "pitch": 64, "duration": 261, "velocity": 75}, {"time": 53277, "pitch": 66, "duration": 271, "velocity": 90}, {"time": 53277, "pitch": 69, "duration": 231, "velocity": 102}, {"time": 53518, "pitch": 62, "duration": 281, "velocity": 91}, {"time": 53758, "pitch": 64, "duration": 281, "velocity": 75}, {"time": 53758, "pitch": 66, "duration": 291, "velocity": 93}, {"time": 53758, "pitch": 69, "duration": 261, "velocity": 99}, {"time": 53999, "pitch": 50, "duration": 2070, "velocity": 99}, {"time": 53999, "pitch": 60, "duration": 2090, "velocity": 104}, {"time": 53999, "pitch": 62, "duration": 251, "velocity": 95}, {"time": 54240, "pitch": 64, "duration": 241, "velocity": 76}, {"time": 54240, "pitch": 66, "duration": 231, "velocity": 90}, {"time": 54240, "pitch": 69, "duration": 201, "velocity": 100}, {"time": 54481, "pitch": 62, "duration": 291, "velocity": 90}, {"time": 54722, "pitch": 64, "duration": 261, "velocity": 77}, {"time": 54722, "pitch": 66, "duration": 271, "velocity": 92}, {"time": 54722, "pitch": 69, "duration": 240, "velocity": 97}, {"time": 54962, "pitch": 62, "duration": 291, "velocity": 87}, {"time": 55203, "pitch": 64, "duration": 277, "velocity": 74}, {"time": 55203, "pitch": 66, "duration": 287, "velocity": 92}, {"time": 55203, "pitch": 69, "duration": 267, "velocity": 96}, {"time": 55440, "pitch": 62, "duration": 298, "velocity": 90}, {"time": 55678, "pitch": 64, "duration": 250, "velocity": 77}, {"time": 55678, "pitch": 66, "duration": 250, "velocity": 92}, {"time": 55678, "pitch": 69, "duration": 190, "velocity": 98}, {"time": 55918, "pitch": 62, "duration": 261, "velocity": 88}, {"time": 56159, "pitch": 55, "duration": 1819, "velocity": 91}, {"time": 56159, "pitch": 59, "duration": 1799, "velocity": 92}, {"time": 56159, "pitch": 67, "duration": 251, "velocity": 103}, {"time": 56159, "pitch": 69, "duration": 221, "velocity": 110}, {"time": 56400, "pitch": 62, "duration": 291, "velocity": 80}, {"time": 56641, "pitch": 67, "duration": 271, "velocity": 96}, {"time": 56641, "pitch": 69, "duration": 250, "velocity": 104}, {"time": 56881, "pitch": 62, "duration": 320, "velocity": 85}, {"time": 57122, "pitch": 67, "duration": 297, "velocity": 96}, {"time": 57122, "pitch": 69, "duration": 267, "velocity": 105}, {"time": 57359, "pitch": 62, "duration": 318, "velocity": 86}, {"time": 57597, "pitch": 67, "duration": 240, "velocity": 98}, {"time": 57597, "pitch": 69, "duration": 230, "velocity": 103}, {"time": 57837, "pitch": 62, "duration": 251, "velocity": 87}, {"time": 58078, "pitch": 54, "duration": 1929, "velocity": 98}, {"time": 58078, "pitch": 57, "duration": 1919, "velocity": 85}, {"time": 58078, "pitch": 64, "duration": 251, "velocity": 92}, {"time": 58078, "pitch": 69, "duration": 241, "velocity": 107}, {"time": 58319, "pitch": 62, "duration": 281, "velocity": 84}, {"time": 58560, "pitch": 64, "duration": 271, "velocity": 94}, {"time": 58560, "pitch": 69, "duration": 260, "velocity": 106}, {"time": 58800, "pitch": 62, "duration": 291, "velocity": 89}, {"time": 59041, "pitch": 64, "duration": 271, "velocity": 97}, {"time": 59041, "pitch": 69, "duration": 241, "velocity": 106}, {"time": 59282, "pitch": 62, "duration": 261, "velocity": 87}, {"time": 59523, "pitch": 64, "duration": 247, "velocity": 92}, {"time": 59523, "pitch": 69, "duration": 178, "velocity": 104}, {"time": 59760, "pitch": 62, "duration": 168, "velocity": 86}, {"time": 59997, "pitch": 52, "duration": 1856, "velocity": 101}, {"time": 59997, "pitch": 62, "duration": 241, "velocity": 92}, {"time": 59997, "pitch": 67, "duration": 241, "velocity": 107}, {"time": 60238, "pitch": 59, "duration": 281, "velocity": 95}, {"time": 60479, "pitch": 62, "duration": 260, "velocity": 96}, {"time": 60479, "pitch": 67, "duration": 230, "velocity": 105}, {"time": 60719, "pitch": 59, "duration": 311, "velocity": 96}, {"time": 60960, "pitch": 62, "duration": 261, "velocity": 95}, {"time": 60960, "pitch": 67, "duration": 251, "velocity": 104}, {"time": 61201, "pitch": 59, "duration": 281, "velocity": 100}, {"time": 61442, "pitch": 62, "duration": 291, "velocity": 97}, {"time": 61442, "pitch": 67, "duration": 180, "velocity": 101}, {"time": 61683, "pitch": 59, "duration": 170, "velocity": 99}, {"time": 61923, "pitch": 45, "duration": 565, "velocity": 100}, {"time": 61923, "pitch": 55, "duration": 555, "velocity": 108}, {"time": 61923, "pitch": 59, "duration": 505, "velocity": 84}, {"time": 61923, "pitch": 62, "duration": 565, "velocity": 90}, {"time": 61923, "pitch": 66, "duration": 515, "velocity": 105}, {"time": 62638, "pitch": 45, "duration": 412, "velocity": 104}, {"time": 62638, "pitch": 55, "duration": 402, "velocity": 101}, {"time": 62638, "pitch": 59, "duration": 402, "velocity": 99}, {"time": 62638, "pitch": 62, "duration": 442, "velocity": 111}, {"time": 63120, "pitch": 45, "duration": 622, "velocity": 99}, {"time": 63120, "pitch": 57, "duration": 582, "velocity": 104}, {"time": 63120, "pitch": 61, "duration": 602, "velocity": 106}, {"time": 63120, "pitch": 64, "duration": 612, "velocity": 112}, {"time": 63842, "pitch": 50, "duration": 1448, "velocity": 104}, {"time": 63842, "pitch": 57, "duration": 1468, "velocity": 95}, {"time": 63842, "pitch": 64, "duration": 198, "velocity": 80}, {"time": 63842, "pitch": 66, "duration": 208, "velocity": 98}, {"time": 63842, "pitch": 69, "duration": 188, "velocity": 110}, {"time": 64079, "pitch": 62, "duration": 258, "velocity": 86}, {"time": 64317, "pitch": 64, "duration": 270, "velocity": 87}, {"time": 64317, "pitch": 66, "duration": 270, "velocity": 94}, {"time": 64317, "pitch": 69, "duration": 240, "velocity": 103}, {"time": 64557, "pitch": 62, "duration": 311, "velocity": 85}, {"time": 64798, "pitch": 64, "duration": 241, "velocity": 71}, {"time": 64798, "pitch": 66, "duration": 251, "velocity": 96}, {"time": 64798, "pitch": 69, "duration": 211, "velocity": 110}, {"time": 65039, "pitch": 62, "duration": 301, "velocity": 90}, {"time": 65280, "pitch": 64, "duration": 271, "velocity": 77}, {"time": 65280, "pitch": 66, "duration": 281, "velocity": 96}, {"time": 65280, "pitch": 69, "duration": 180, "velocity": 94}, {"time": 65521, "pitch": 50, "duration": 1989, "velocity": 104}, {"time": 65521, "pitch": 61, "duration": 1989, "velocity": 104}, {"time": 65521, "pitch": 62, "duration": 270, "velocity": 96}, {"time": 65761, "pitch": 64, "duration": 261, "velocity": 75}, {"time": 65761, "pitch": 66, "duration": 261, "velocity": 93}, {"time": 65761, "pitch": 69, "duration": 191, "velocity": 103}, {"time": 66002, "pitch": 62, "duration": 280, "velocity": 91}, {"time": 66243, "pitch": 64, "duration": 227, "velocity": 75}, {"time": 66243, "pitch": 66, "duration": 247, "velocity": 92}, {"time": 66243, "pitch": 69, "duration": 207, "velocity": 102}, {"time": 66480, "pitch": 62, "duration": 307, "velocity": 90}, {"time": 66717, "pitch": 64, "duration": 281, "velocity": 75}, {"time": 66717, "pitch": 66, "duration": 301, "velocity": 90}, {"time": 66717, "pitch": 69, "duration": 231, "velocity": 100}, {"time": 66958, "pitch": 62, "duration": 291, "velocity": 89}, {"time": 67199, "pitch": 64, "duration": 271, "velocity": 78}, {"time": 67199, "pitch": 66, "duration": 281, "velocity": 92}, {"time": 67199, "pitch": 69, "duration": 220, "velocity": 99}, {"time": 67440, "pitch": 62, "duration": 280, "velocity": 83}, {"time": 67680, "pitch": 50, "duration": 1528, "velocity": 94}, {"time": 67680, "pitch": 61, "duration": 1508, "velocity": 100}, {"time": 67680, "pitch": 64, "duration": 231, "velocity": 81}, {"time": 67680, "pitch": 66, "duration": 221, "velocity": 97}, {"time": 67680, "pitch": 69, "duration": 191, "velocity": 106}, {"time": 67921, "pitch": 62, "duration": 311, "velocity": 92}, {"time": 68162, "pitch": 64, "duration": 291, "velocity": 78}, {"time": 68162, "pitch": 66, "duration": 281, "velocity": 95}, {"time": 68162, "pitch": 69, "duration": 251, "velocity": 102}, {"time": 68403, "pitch": 62, "duration": 310, "velocity": 88}, {"time": 68643, "pitch": 64, "duration": 277, "velocity": 83}, {"time": 68643, "pitch": 66, "duration": 287, "velocity": 94}, {"time": 68643, "pitch": 69, "duration": 238, "velocity": 101}, {"time": 68881, "pitch": 62, "duration": 307, "velocity": 89}, {"time": 69118, "pitch": 64, "duration": 261, "velocity": 75}, {"time": 69118, "pitch": 66, "duration": 271, "velocity": 91}, {"time": 69118, "pitch": 69, "duration": 200, "velocity": 98}, {"time": 69359, "pitch": 50, "duration": 2079, "velocity": 97}, {"time": 69359, "pitch": 60, "duration": 2029, "velocity": 96}, {"time": 69359, "pitch": 62, "duration": 250, "velocity": 98}, {"time": 69599, "pitch": 64, "duration": 251, "velocity": 70}, {"time": 69599, "pitch": 66, "duration": 241, "velocity": 87}, {"time": 69599, "pitch": 69, "duration": 171, "velocity": 102}, {"time": 69840, "pitch": 62, "duration": 301, "velocity": 90}, {"time": 70081, "pitch": 64, "duration": 281, "velocity": 84}, {"time": 70081, "pitch": 66, "duration": 251, "velocity": 88}, {"time": 70081, "pitch": 69, "duration": 211, "velocity": 101}, {"time": 70322, "pitch": 62, "duration": 280, "velocity": 88}, {"time": 70562, "pitch": 64, "duration": 267, "velocity": 81}, {"time": 70562, "pitch": 66, "duration": 248, "velocity": 89}, {"time": 70562, "pitch": 69, "duration": 228, "velocity": 103}, {"time": 70800, "pitch": 62, "duration": 307, "velocity": 89}, {"time": 71037, "pitch": 64, "duration": 251, "velocity": 71}, {"time": 71037, "pitch": 66, "duration": 241, "velocity": 95}, {"time": 71037, "pitch": 69, "duration": 200, "velocity": 104}, {"time": 71278, "pitch": 62, "duration": 250, "velocity": 87}, {"time": 71518, "pitch": 55, "duration": 1840, "velocity": 94}, {"time": 71518, "pitch": 59, "duration": 1821, "velocity": 94}, {"time": 71518, "pitch": 67, "duration": 231, "velocity": 103}, {"time": 71518, "pitch": 69, "duration": 211, "velocity": 108}, {"time": 71759, "pitch": 62, "duration": 301, "velocity": 81}, {"time": 72000, "pitch": 67, "duration": 281, "velocity": 95}, {"time": 72000, "pitch": 69, "duration": 261, "velocity": 103}, {"time": 72241, "pitch": 62, "duration": 301, "velocity": 90}, {"time": 72481, "pitch": 67, "duration": 281, "velocity": 96}, {"time": 72481, "pitch": 69, "duration": 261, "velocity": 101}, {"time": 72722, "pitch": 62, "duration": 320, "velocity": 86}, {"time": 72963, "pitch": 67, "duration": 217, "velocity": 99}, {"time": 72963, "pitch": 69, "duration": 208, "velocity": 102}, {"time": 73200, "pitch": 62, "duration": 218, "velocity": 84}, {"time": 73437, "pitch": 54, "duration": 1856, "velocity": 96}, {"time": 73437, "pitch": 57, "duration": 1866, "velocity": 88}, {"time": 73437, "pitch": 64, "duration": 251, "velocity": 101}, {"time": 73437, "pitch": 69, "duration": 221, "velocity": 108}, {"time": 73678, "pitch": 62, "duration": 281, "velocity": 85}, {"time": 73919, "pitch": 64, "duration": 251, "velocity": 94}, {"time": 73919, "pitch": 69, "duration": 241, "velocity": 108}, {"time": 74160, "pitch": 62, "duration": 301, "velocity": 90}, {"time": 74400, "pitch": 64, "duration": 281, "velocity": 95}, {"time": 74400, "pitch": 69, "duration": 261, "velocity": 107}, {"time": 74641, "pitch": 62, "duration": 301, "velocity": 88}, {"time": 74882, "pitch": 64, "duration": 281, "velocity": 95}, {"time": 74882, "pitch": 69, "duration": 161, "velocity": 104}, {"time": 75123, "pitch": 62, "duration": 180, "velocity": 90}, {"time": 75364, "pitch": 52, "duration": 1838, "velocity": 101}, {"time": 75364, "pitch": 62, "duration": 247, "velocity": 94}, {"time": 75364, "pitch": 67, "duration": 217, "velocity": 106}, {"time": 75601, "pitch": 59, "duration": 277, "velocity": 93}, {"time": 75838, "pitch": 62, "duration": 281, "velocity": 97}, {"time": 75838, "pitch": 67, "duration": 221, "velocity": 102}, {"time": 76079, "pitch": 59, "duration": 291, "velocity": 91}, {"time": 76319, "pitch": 62, "duration": 261, "velocity": 98}, {"time": 76319, "pitch": 67, "duration": 221, "velocity": 101}, {"time": 76560, "pitch": 59, "duration": 281, "velocity": 97}, {"time": 76801, "pitch": 62, "duration": 251, "velocity": 92}, {"time": 76801, "pitch": 67, "duration": 191, "velocity": 103}, {"time": 77042, "pitch": 59, "duration": 170, "velocity": 96}, {"time": 77283, "pitch": 55, "duration": 614, "velocity": 99}, {"time": 77283, "pitch": 58, "duration": 604, "velocity": 115}, {"time": 77283, "pitch": 62, "duration": 614, "velocity": 91}, {"time": 77283, "pitch": 67, "duration": 604, "velocity": 110}, {"time": 77998, "pitch": 55, "duration": 431, "velocity": 96}, {"time": 77998, "pitch": 58, "duration": 421, "velocity": 110}, {"time": 77998, "pitch": 62, "duration": 401, "velocity": 89}, {"time": 77998, "pitch": 66, "duration": 471, "velocity": 116}, {"time": 78479, "pitch": 55, "duration": 402, "velocity": 90}, {"time": 78479, "pitch": 58, "duration": 432, "velocity": 105}, {"time": 78479, "pitch": 62, "duration": 432, "velocity": 115}, {"time": 78961, "pitch": 44, "duration": 4079, "velocity": 103}, {"time": 78961, "pitch": 51, "duration": 4069, "velocity": 101}, {"time": 78961, "pitch": 58, "duration": 4059, "velocity": 112}, {"time": 78961, "pitch": 62, "duration": 4069, "velocity": 84}, {"time": 78961, "pitch": 67, "duration": 4079, "velocity": 118}, {"time": 83040, "pitch": 68, "duration": 1929, "velocity": 106}, {"time": 83280, "pitch": 72, "duration": 1659, "velocity": 100}, {"time": 83521, "pitch": 75, "duration": 1397, "velocity": 108}, {"time": 83762, "pitch": 79, "duration": 1166, "velocity": 101}, {"time": 84959, "pitch": 67, "duration": 1929, "velocity": 96}, {"time": 85199, "pitch": 70, "duration": 1699, "velocity": 97}, {"time": 85440, "pitch": 74, "duration": 1428, "velocity": 103}, {"time": 85681, "pitch": 77, "duration": 1217, "velocity": 93}, {"time": 86878, "pitch": 65, "duration": 1929, "velocity": 95}, {"time": 87118, "pitch": 68, "duration": 1679, "velocity": 99}, {"time": 87359, "pitch": 72, "duration": 1428, "velocity": 97}, {"time": 87600, "pitch": 75, "duration": 1207, "velocity": 108}, {"time": 88797, "pitch": 63, "duration": 1916, "velocity": 103}, {"time": 89037, "pitch": 67, "duration": 1706, "velocity": 100}, {"time": 89278, "pitch": 70, "duration": 1455, "velocity": 99}, {"time": 89519, "pitch": 74, "duration": 1204, "velocity": 94}, {"time": 90723, "pitch": 53, "duration": 1929, "velocity": 93}, {"time": 90723, "pitch": 60, "duration": 1929, "velocity": 95}, {"time": 90723, "pitch": 76, "duration": 385, "velocity": 103}, {"time": 90723, "pitch": 81, "duration": 484, "velocity": 102}, {"time": 91197, "pitch": 69, "duration": 482, "velocity": 99}, {"time": 91197, "pitch": 76, "duration": 502, "velocity": 102}, {"time": 91679, "pitch": 65, "duration": 391, "velocity": 96}, {"time": 91679, "pitch": 72, "duration": 511, "velocity": 105}, {"time": 92160, "pitch": 64, "duration": 341, "velocity": 88}, {"time": 92160, "pitch": 69, "duration": 392, "velocity": 104}, {"time": 92642, "pitch": 52, "duration": 1879, "velocity": 92}, {"time": 92642, "pitch": 59, "duration": 1889, "velocity": 88}, {"time": 92642, "pitch": 74, "duration": 401, "velocity": 114}, {"time": 92642, "pitch": 79, "duration": 491, "velocity": 112}, {"time": 93123, "pitch": 67, "duration": 475, "velocity": 102}, {"time": 93123, "pitch": 74, "duration": 505, "velocity": 112}, {"time": 93598, "pitch": 64, "duration": 371, "velocity": 96}, {"time": 93598, "pitch": 71, "duration": 501, "velocity": 111}, {"time": 94079, "pitch": 62, "duration": 341, "velocity": 91}, {"time": 94079, "pitch": 67, "duration": 422, "velocity": 102}, {"time": 94561, "pitch": 50, "duration": 1879, "velocity": 95}, {"time": 94561, "pitch": 57, "duration": 1718, "velocity": 101}, {"time": 94561, "pitch": 72, "duration": 381, "velocity": 108}, {"time": 94561, "pitch": 77, "duration": 481, "velocity": 110}, {"time": 95042, "pitch": 65, "duration": 495, "velocity": 98}, {"time": 95042, "pitch": 72, "duration": 495, "velocity": 110}, {"time": 95517, "pitch": 62, "duration": 351, "velocity": 95}, {"time": 95517, "pitch": 69, "duration": 481, "velocity": 110}, {"time": 95998, "pitch": 60, "duration": 311, "velocity": 106}, {"time": 95998, "pitch": 65, "duration": 412, "velocity": 108}, {"time": 96480, "pitch": 43, "duration": 1859, "velocity": 100}, {"time": 96480, "pitch": 55, "duration": 853, "velocity": 103}, {"time": 96480, "pitch": 59, "duration": 863, "velocity": 105}, {"time": 96480, "pitch": 64, "duration": 933, "velocity": 108}, {"time": 97443, "pitch": 57, "duration": 886, "velocity": 92}, {"time": 97443, "pitch": 60, "duration": 886, "velocity": 101}, {"time": 97443, "pitch": 65, "duration": 906, "velocity": 111}, {"time": 98399, "pitch": 48, "duration": 963, "velocity": 90}, {"time": 98399, "pitch": 59, "duration": 943, "velocity": 101}, {"time": 98399, "pitch": 64, "duration": 963, "velocity": 89}, {"time": 98399, "pitch": 67, "duration": 953, "velocity": 108}, {"time": 99362, "pitch": 53, "duration": 956, "velocity": 97}, {"time": 99362, "pitch": 57, "duration": 857, "velocity": 101}, {"time": 99362, "pitch": 64, "duration": 887, "velocity": 88}, {"time": 99362, "pitch": 67, "duration": 877, "velocity": 105}, {"time": 100318, "pitch": 52, "duration": 933, "velocity": 93}, {"time": 100318, "pitch": 59, "duration": 923, "velocity": 104}, {"time": 100318, "pitch": 62, "duration": 923, "velocity": 88}, {"time": 100318, "pitch": 67, "duration": 923, "velocity": 116}, {"time": 101281, "pitch": 57, "duration": 897, "velocity": 92}, {"time": 101281, "pitch": 60, "duration": 946, "velocity": 105}, {"time": 101281, "pitch": 64, "duration": 916, "velocity": 95}, {"time": 101281, "pitch": 67, "duration": 877, "velocity": 113}, {"time": 102237, "pitch": 50, "duration": 1916, "velocity": 95}, {"time": 102237, "pitch": 57, "duration": 813, "velocity": 106}, {"time": 102237, "pitch": 60, "duration": 833, "velocity": 105}, {"time": 102237, "pitch": 65, "duration": 893, "velocity": 112}, {"time": 103200, "pitch": 60, "duration": 923, "velocity": 110}, {"time": 103200, "pitch": 65, "duration": 923, "velocity": 95}, {"time": 103200, "pitch": 69, "duration": 913, "velocity": 114}, {"time": 104163, "pitch": 55, "duration": 976, "velocity": 89}, {"time": 104163, "pitch": 60, "duration": 896, "velocity": 107}, {"time": 104163, "pitch": 65, "duration": 916, "velocity": 101}, {"time": 104163, "pitch": 69, "duration": 916, "velocity": 112}, {"time": 105119, "pitch": 43, "duration": 963, "velocity": 90}, {"time": 105119, "pitch": 59, "duration": 381, "velocity": 100}, {"time": 105119, "pitch": 62, "duration": 502, "velocity": 100}, {"time": 105119, "pitch": 67, "duration": 371, "velocity": 110}, {"time": 105601, "pitch": 57, "duration": 441, "velocity": 95}, {"time": 105601, "pitch": 60, "duration": 451, "velocity": 99}, {"time": 105601, "pitch": 65, "duration": 441, "velocity": 107}, {"time": 106082, "pitch": 48, "duration": 996, "velocity": 102}, {"time": 106082, "pitch": 59, "duration": 856, "velocity": 106}, {"time": 106082, "pitch": 64, "duration": 896, "velocity": 95}, {"time": 106082, "pitch": 67, "duration": 856, "velocity": 110}, {"time": 107038, "pitch": 53, "duration": 953, "velocity": 99}, {"time": 107038, "pitch": 57, "duration": 893, "velocity": 107}, {"time": 107038, "pitch": 64, "duration": 893, "velocity": 100}, {"time": 107038, "pitch": 67, "duration": 943, "velocity": 112}, {"time": 108001, "pitch": 52, "duration": 976, "velocity": 103}, {"time": 108001, "pitch": 59, "duration": 877, "velocity": 105}, {"time": 108001, "pitch": 64, "duration": 907, "velocity": 93}, {"time": 108001, "pitch": 67, "duration": 877, "velocity": 111}, {"time": 108957, "pitch": 57, "duration": 893, "velocity": 93}, {"time": 108957, "pitch": 60, "duration": 883, "velocity": 107}, {"time": 108957, "pitch": 64, "duration": 893, "velocity": 84}, {"time": 108957, "pitch": 67, "duration": 913, "velocity": 111}, {"time": 109920, "pitch": 50, "duration": 1919, "velocity": 93}, {"time": 109920, "pitch": 57, "duration": 823, "velocity": 105}, {"time": 109920, "pitch": 60, "duration": 833, "velocity": 99}, {"time": 109920, "pitch": 65, "duration": 893, "velocity": 113}, {"time": 110883, "pitch": 60, "duration": 906, "velocity": 105}, {"time": 110883, "pitch": 65, "duration": 906, "velocity": 99}, {"time": 110883, "pitch": 69, "duration": 896, "velocity": 117}, {"time": 111839, "pitch": 55, "duration": 1448, "velocity": 91}, {"time": 111839, "pitch": 60, "duration": 863, "velocity": 103}, {"time": 111839, "pitch": 65, "duration": 893, "velocity": 98}, {"time": 111839, "pitch": 69, "duration": 823, "velocity": 114}, {"time": 112802, "pitch": 59, "duration": 455, "velocity": 106}, {"time": 112802, "pitch": 62, "duration": 465, "velocity": 101}, {"time": 112802, "pitch": 67, "duration": 455, "velocity": 113}, {"time": 113277, "pitch": 43, "duration": 461, "velocity": 96}, {"time": 113277, "pitch": 57, "duration": 461, "velocity": 100}, {"time": 113277, "pitch": 60, "duration": 431, "velocity": 100}, {"time": 113277, "pitch": 65, "duration": 441, "velocity": 110}, {"time": 113758, "pitch": 40, "duration": 502, "velocity": 107}, {"time": 113999, "pitch": 55, "duration": 311, "velocity": 109}, {"time": 114240, "pitch": 47, "duration": 291, "velocity": 98}, {"time": 114240, "pitch": 62, "duration": 291, "velocity": 105}, {"time": 114480, "pitch": 52, "duration": 1177, "velocity": 103}, {"time": 114480, "pitch": 67, "duration": 1167, "velocity": 115}, {"time": 115677, "pitch": 45, "duration": 712, "velocity": 115}, {"time": 115918, "pitch": 59, "duration": 301, "velocity": 109}, {"time": 116159, "pitch": 60, "duration": 341, "velocity": 119}, {"time": 116399, "pitch": 52, "duration": 903, "velocity": 109}, {"time": 116399, "pitch": 67, "duration": 903, "velocity": 112}, {"time": 117363, "pitch": 50, "duration": 815, "velocity": 108}, {"time": 117363, "pitch": 57, "duration": 855, "velocity": 107}, {"time": 117363, "pitch": 60, "duration": 865, "velocity": 111}, {"time": 117363, "pitch": 65, "duration": 845, "velocity": 113}, {"time": 118318, "pitch": 43, "duration": 913, "velocity": 102}, {"time": 118318, "pitch": 53, "duration": 893, "velocity": 106}, {"time": 118318, "pitch": 57, "duration": 833, "velocity": 102}, {"time": 118318, "pitch": 60, "duration": 833, "velocity": 106}, {"time": 118318, "pitch": 62, "duration": 863, "velocity": 112}, {"time": 119282, "pitch": 48, "duration": 1106, "velocity": 111}, {"time": 119282, "pitch": 55, "duration": 1086, "velocity": 103}, {"time": 119282, "pitch": 59, "duration": 1066, "velocity": 102}, {"time": 119282, "pitch": 64, "duration": 1066, "velocity": 116}, {"time": 120478, "pitch": 47, "duration": 442, "velocity": 100}, {"time": 120478, "pitch": 57, "duration": 371, "velocity": 110}, {"time": 120478, "pitch": 62, "duration": 361, "velocity": 94}, {"time": 120478, "pitch": 65, "duration": 382, "velocity": 115}, {"time": 120960, "pitch": 52, "duration": 421, "velocity": 108}, {"time": 120960, "pitch": 56, "duration": 361, "velocity": 108}, {"time": 120960, "pitch": 62, "duration": 391, "velocity": 100}, {"time": 120960, "pitch": 64, "duration": 391, "velocity": 117}, {"time": 121441, "pitch": 45, "duration": 996, "velocity": 104}, {"time": 121441, "pitch": 55, "duration": 769, "velocity": 107}, {"time": 121441, "pitch": 60, "duration": 857, "velocity": 109}, {"time": 121441, "pitch": 64, "duration": 867, "velocity": 115}, {"time": 122397, "pitch": 43, "duration": 482, "velocity": 100}, {"time": 122397, "pitch": 58, "duration": 381, "velocity": 111}, {"time": 122397, "pitch": 65, "duration": 432, "velocity": 115}, {"time": 122879, "pitch": 48, "duration": 461, "velocity": 106}, {"time": 122879, "pitch": 58, "duration": 351, "velocity": 104}, {"time": 122879, "pitch": 60, "duration": 371, "velocity": 102}, {"time": 122879, "pitch": 64, "duration": 421, "velocity": 112}, {"time": 123360, "pitch": 41, "duration": 452, "velocity": 115}, {"time": 123360, "pitch": 60, "duration": 482, "velocity": 114}, {"time": 123360, "pitch": 64, "duration": 502, "velocity": 107}, {"time": 123360, "pitch": 69, "duration": 432, "velocity": 119}, {"time": 123842, "pitch": 53, "duration": 311, "velocity": 111}, {"time": 124083, "pitch": 52, "duration": 280, "velocity": 111}, {"time": 124083, "pitch": 59, "duration": 241, "velocity": 105}, {"time": 124083, "pitch": 62, "duration": 241, "velocity": 96}, {"time": 124083, "pitch": 67, "duration": 250, "velocity": 117}, {"time": 124561, "pitch": 50, "duration": 458, "velocity": 110}, {"time": 124561, "pitch": 57, "duration": 598, "velocity": 106}, {"time": 124561, "pitch": 60, "duration": 618, "velocity": 105}, {"time": 124561, "pitch": 65, "duration": 618, "velocity": 123}, {"time": 125039, "pitch": 48, "duration": 150, "velocity": 108}, {"time": 125279, "pitch": 46, "duration": 1498, "velocity": 108}, {"time": 125279, "pitch": 57, "duration": 1518, "velocity": 104}, {"time": 125279, "pitch": 58, "duration": 1488, "velocity": 104}, {"time": 125279, "pitch": 60, "duration": 1488, "velocity": 101}, {"time": 125279, "pitch": 65, "duration": 1508, "velocity": 119}, {"time": 126958, "pitch": 45, "duration": 832, "velocity": 105}, {"time": 126958, "pitch": 52, "duration": 822, "velocity": 108}, {"time": 126958, "pitch": 59, "duration": 832, "velocity": 107}, {"time": 126958, "pitch": 62, "duration": 862, "velocity": 100}, {"time": 126958, "pitch": 67, "duration": 903, "velocity": 115}, {"time": 127921, "pitch": 45, "duration": 1048, "velocity": 109}, {"time": 127921, "pitch": 52, "duration": 1058, "velocity": 105}, {"time": 127921, "pitch": 62, "duration": 1028, "velocity": 101}, {"time": 127921, "pitch": 67, "duration": 969, "velocity": 103}, {"time": 127921, "pitch": 71, "duration": 969, "velocity": 120}, {"time": 129117, "pitch": 45, "duration": 1890, "velocity": 107}, {"time": 129117, "pitch": 57, "duration": 1890, "velocity": 111}, {"time": 129117, "pitch": 62, "duration": 412, "velocity": 108}, {"time": 129117, "pitch": 67, "duration": 422, "velocity": 104}, {"time": 129117, "pitch": 71, "duration": 432, "velocity": 107}, {"time": 129117, "pitch": 74, "duration": 422, "velocity": 119}, {"time": 129599, "pitch": 61, "duration": 421, "velocity": 118}, {"time": 129599, "pitch": 67, "duration": 411, "velocity": 98}, {"time": 129599, "pitch": 69, "duration": 401, "velocity": 99}, {"time": 129599, "pitch": 73, "duration": 401, "velocity": 108}, {"time": 130081, "pitch": 62, "duration": 401, "velocity": 99}, {"time": 130081, "pitch": 67, "duration": 431, "velocity": 99}, {"time": 130081, "pitch": 71, "duration": 431, "velocity": 104}, {"time": 130081, "pitch": 74, "duration": 431, "velocity": 118}, {"time": 130562, "pitch": 64, "duration": 425, "velocity": 99}, {"time": 130562, "pitch": 67, "duration": 435, "velocity": 105}, {"time": 130562, "pitch": 73, "duration": 425, "velocity": 104}, {"time": 130562, "pitch": 76, "duration": 435, "velocity": 120}, {"time": 131036, "pitch": 50, "duration": 1586, "velocity": 96}, {"time": 131036, "pitch": 57, "duration": 1606, "velocity": 97}, {"time": 131036, "pitch": 64, "duration": 251, "velocity": 88}, {"time": 131036, "pitch": 66, "duration": 251, "velocity": 86}, {"time": 131036, "pitch": 69, "duration": 241, "velocity": 112}, {"time": 131277, "pitch": 62, "duration": 251, "velocity": 78}, {"time": 131518, "pitch": 64, "duration": 231, "velocity": 84}, {"time": 131518, "pitch": 66, "duration": 251, "velocity": 92}, {"time": 131518, "pitch": 69, "duration": 241, "velocity": 105}, {"time": 131759, "pitch": 62, "duration": 271, "velocity": 84}, {"time": 132000, "pitch": 64, "duration": 250, "velocity": 79}, {"time": 132000, "pitch": 66, "duration": 270, "velocity": 100}, {"time": 132000, "pitch": 69, "duration": 230, "velocity": 109}, {"time": 132240, "pitch": 62, "duration": 281, "velocity": 84}, {"time": 132481, "pitch": 64, "duration": 251, "velocity": 83}, {"time": 132481, "pitch": 66, "duration": 271, "velocity": 91}, {"time": 132481, "pitch": 69, "duration": 231, "velocity": 111}, {"time": 132722, "pitch": 50, "duration": 2049, "velocity": 95}, {"time": 132722, "pitch": 61, "duration": 2039, "velocity": 100}, {"time": 132722, "pitch": 62, "duration": 251, "velocity": 83}, {"time": 132963, "pitch": 64, "duration": 247, "velocity": 84}, {"time": 132963, "pitch": 66, "duration": 247, "velocity": 95}, {"time": 132963, "pitch": 69, "duration": 207, "velocity": 104}, {"time": 133200, "pitch": 62, "duration": 267, "velocity": 86}, {"time": 133437, "pitch": 64, "duration": 261, "velocity": 78}, {"time": 133437, "pitch": 66, "duration": 261, "velocity": 91}, {"time": 133437, "pitch": 69, "duration": 221, "velocity": 99}, {"time": 133678, "pitch": 62, "duration": 251, "velocity": 91}, {"time": 133919, "pitch": 64, "duration": 250, "velocity": 78}, {"time": 133919, "pitch": 66, "duration": 260, "velocity": 93}, {"time": 133919, "pitch": 69, "duration": 240, "velocity": 96}, {"time": 134159, "pitch": 62, "duration": 311, "velocity": 86}, {"time": 134400, "pitch": 64, "duration": 261, "velocity": 81}, {"time": 134400, "pitch": 66, "duration": 281, "velocity": 90}, {"time": 134400, "pitch": 69, "duration": 241, "velocity": 98}, {"time": 134641, "pitch": 62, "duration": 251, "velocity": 85}, {"time": 134882, "pitch": 50, "duration": 1557, "velocity": 100}, {"time": 134882, "pitch": 61, "duration": 1547, "velocity": 104}, {"time": 134882, "pitch": 64, "duration": 240, "velocity": 83}, {"time": 134882, "pitch": 66, "duration": 240, "velocity": 95}, {"time": 134882, "pitch": 69, "duration": 210, "velocity": 102}, {"time": 135122, "pitch": 62, "duration": 281, "velocity": 87}, {"time": 135363, "pitch": 64, "duration": 257, "velocity": 80}, {"time": 135363, "pitch": 66, "duration": 247, "velocity": 91}, {"time": 135363, "pitch": 69, "duration": 208, "velocity": 100}, {"time": 135600, "pitch": 62, "duration": 288, "velocity": 86}, {"time": 135838, "pitch": 64, "duration": 260, "velocity": 75}, {"time": 135838, "pitch": 66, "duration": 270, "velocity": 90}, {"time": 135838, "pitch": 69, "duration": 230, "velocity": 102}, {"time": 136078, "pitch": 62, "duration": 281, "velocity": 91}, {"time": 136319, "pitch": 64, "duration": 281, "velocity": 75}, {"time": 136319, "pitch": 66, "duration": 291, "velocity": 93}, {"time": 136319, "pitch": 69, "duration": 261, "velocity": 99}, {"time": 136560, "pitch": 50, "duration": 2069, "velocity": 99}, {"time": 136560, "pitch": 60, "duration": 2089, "velocity": 104}, {"time": 136560, "pitch": 62, "duration": 251, "velocity": 95}, {"time": 136801, "pitch": 64, "duration": 240, "velocity": 76}, {"time": 136801, "pitch": 66, "duration": 230, "velocity": 90}, {"time": 136801, "pitch": 69, "duration": 200, "velocity": 100}, {"time": 137041, "pitch": 62, "duration": 291, "velocity": 90}, {"time": 137282, "pitch": 64, "duration": 257, "velocity": 77}, {"time": 137282, "pitch": 66, "duration": 267, "velocity": 92}, {"time": 137282, "pitch": 69, "duration": 237, "velocity": 97}, {"time": 137519, "pitch": 62, "duration": 288, "velocity": 87}, {"time": 137757, "pitch": 64, "duration": 280, "velocity": 74}, {"time": 137757, "pitch": 66, "duration": 290, "velocity": 92}, {"time": 137757, "pitch": 69, "duration": 270, "velocity": 96}, {"time": 137997, "pitch": 62, "duration": 301, "velocity": 90}, {"time": 138238, "pitch": 64, "duration": 251, "velocity": 77}, {"time": 138238, "pitch": 66, "duration": 251, "velocity": 92}, {"time": 138238, "pitch": 69, "duration": 191, "velocity": 98}, {"time": 138479, "pitch": 62, "duration": 261, "velocity": 88}, {"time": 138720, "pitch": 55, "duration": 1818, "velocity": 91}, {"time": 138720, "pitch": 59, "duration": 1798, "velocity": 92}, {"time": 138720, "pitch": 67, "duration": 250, "velocity": 103}, {"time": 138720, "pitch": 69, "duration": 220, "velocity": 110}, {"time": 138960, "pitch": 62, "duration": 291, "velocity": 80}, {"time": 139201, "pitch": 67, "duration": 271, "velocity": 96}, {"time": 139201, "pitch": 69, "duration": 251, "velocity": 104}, {"time": 139442, "pitch": 62, "duration": 320, "velocity": 85}, {"time": 139683, "pitch": 67, "duration": 296, "velocity": 96}, {"time": 139683, "pitch": 69, "duration": 267, "velocity": 105}, {"time": 139920, "pitch": 62, "duration": 317, "velocity": 86}, {"time": 140157, "pitch": 67, "duration": 241, "velocity": 98}, {"time": 140157, "pitch": 69, "duration": 231, "velocity": 103}, {"time": 140398, "pitch": 62, "duration": 251, "velocity": 87}, {"time": 140639, "pitch": 54, "duration": 1929, "velocity": 98}, {"time": 140639, "pitch": 57, "duration": 1919, "velocity": 85}, {"time": 140639, "pitch": 64, "duration": 250, "velocity": 92}, {"time": 140639, "pitch": 69, "duration": 240, "velocity": 107}, {"time": 140879, "pitch": 62, "duration": 281, "velocity": 84}, {"time": 141120, "pitch": 64, "duration": 271, "velocity": 94}, {"time": 141120, "pitch": 69, "duration": 261, "velocity": 106}, {"time": 141361, "pitch": 62, "duration": 291, "velocity": 89}, {"time": 141602, "pitch": 64, "duration": 271, "velocity": 97}, {"time": 141602, "pitch": 69, "duration": 241, "velocity": 106}, {"time": 141843, "pitch": 62, "duration": 260, "velocity": 87}, {"time": 142083, "pitch": 64, "duration": 247, "velocity": 92}, {"time": 142083, "pitch": 69, "duration": 178, "velocity": 104}, {"time": 142321, "pitch": 62, "duration": 168, "velocity": 86}, {"time": 142558, "pitch": 52, "duration": 1850, "velocity": 101}, {"time": 142558, "pitch": 62, "duration": 240, "velocity": 92}, {"time": 142558, "pitch": 67, "duration": 240, "velocity": 107}, {"time": 142798, "pitch": 59, "duration": 281, "velocity": 95}, {"time": 143039, "pitch": 62, "duration": 261, "velocity": 96}, {"time": 143039, "pitch": 67, "duration": 231, "velocity": 105}, {"time": 143280, "pitch": 59, "duration": 311, "velocity": 96}, {"time": 143521, "pitch": 62, "duration": 261, "velocity": 95}, {"time": 143521, "pitch": 67, "duration": 251, "velocity": 104}, {"time": 143762, "pitch": 59, "duration": 280, "velocity": 100}, {"time": 144002, "pitch": 62, "duration": 287, "velocity": 97}, {"time": 144002, "pitch": 67, "duration": 178, "velocity": 101}, {"time": 144240, "pitch": 59, "duration": 168, "velocity": 99}, {"time": 144477, "pitch": 45, "duration": 572, "velocity": 100}, {"time": 144477, "pitch": 55, "duration": 561, "velocity": 108}, {"time": 144477, "pitch": 59, "duration": 511, "velocity": 84}, {"time": 144477, "pitch": 62, "duration": 572, "velocity": 90}, {"time": 144477, "pitch": 66, "duration": 521, "velocity": 105}, {"time": 145199, "pitch": 45, "duration": 411, "velocity": 104}, {"time": 145199, "pitch": 55, "duration": 401, "velocity": 101}, {"time": 145199, "pitch": 59, "duration": 401, "velocity": 99}, {"time": 145199, "pitch": 62, "duration": 441, "velocity": 111}, {"time": 145681, "pitch": 45, "duration": 622, "velocity": 99}, {"time": 145681, "pitch": 57, "duration": 582, "velocity": 104}, {"time": 145681, "pitch": 61, "duration": 602, "velocity": 106}, {"time": 145681, "pitch": 64, "duration": 612, "velocity": 112}, {"time": 146403, "pitch": 50, "duration": 1447, "velocity": 104}, {"time": 146403, "pitch": 57, "duration": 1467, "velocity": 95}, {"time": 146403, "pitch": 64, "duration": 198, "velocity": 80}, {"time": 146403, "pitch": 66, "duration": 207, "velocity": 98}, {"time": 146403, "pitch": 69, "duration": 188, "velocity": 110}, {"time": 146640, "pitch": 62, "duration": 257, "velocity": 86}, {"time": 146877, "pitch": 64, "duration": 271, "velocity": 87}, {"time": 146877, "pitch": 66, "duration": 271, "velocity": 94}, {"time": 146877, "pitch": 69, "duration": 241, "velocity": 103}, {"time": 147118, "pitch": 62, "duration": 311, "velocity": 85}, {"time": 147359, "pitch": 64, "duration": 241, "velocity": 71}, {"time": 147359, "pitch": 66, "duration": 251, "velocity": 96}, {"time": 147359, "pitch": 69, "duration": 210, "velocity": 110}, {"time": 147600, "pitch": 62, "duration": 301, "velocity": 90}, {"time": 147840, "pitch": 64, "duration": 271, "velocity": 77}, {"time": 147840, "pitch": 66, "duration": 281, "velocity": 96}, {"time": 147840, "pitch": 69, "duration": 181, "velocity": 94}, {"time": 148081, "pitch": 50, "duration": 1989, "velocity": 104}, {"time": 148081, "pitch": 61, "duration": 1989, "velocity": 104}, {"time": 148081, "pitch": 62, "duration": 271, "velocity": 96}, {"time": 148322, "pitch": 64, "duration": 261, "velocity": 75}, {"time": 148322, "pitch": 66, "duration": 261, "velocity": 93}, {"time": 148322, "pitch": 69, "duration": 191, "velocity": 103}, {"time": 148563, "pitch": 62, "duration": 280, "velocity": 91}, {"time": 148804, "pitch": 64, "duration": 227, "velocity": 75}, {"time": 148804, "pitch": 66, "duration": 247, "velocity": 92}, {"time": 148804, "pitch": 69, "duration": 207, "velocity": 102}, {"time": 149041, "pitch": 62, "duration": 307, "velocity": 90}, {"time": 149278, "pitch": 64, "duration": 281, "velocity": 75}, {"time": 149278, "pitch": 66, "duration": 301, "velocity": 90}, {"time": 149278, "pitch": 69, "duration": 231, "velocity": 100}, {"time": 149519, "pitch": 62, "duration": 291, "velocity": 89}, {"time": 149759, "pitch": 64, "duration": 271, "velocity": 78}, {"time": 149759, "pitch": 66, "duration": 281, "velocity": 92}, {"time": 149759, "pitch": 69, "duration": 221, "velocity": 99}, {"time": 150000, "pitch": 62, "duration": 281, "velocity": 83}, {"time": 150241, "pitch": 50, "duration": 1528, "velocity": 94}, {"time": 150241, "pitch": 61, "duration": 1508, "velocity": 100}, {"time": 150241, "pitch": 64, "duration": 231, "velocity": 81}, {"time": 150241, "pitch": 66, "duration": 221, "velocity": 97}, {"time": 150241, "pitch": 69, "duration": 191, "velocity": 106}, {"time": 150482, "pitch": 62, "duration": 310, "velocity": 92}, {"time": 150723, "pitch": 64, "duration": 286, "velocity": 78}, {"time": 150723, "pitch": 66, "duration": 276, "velocity": 95}, {"time": 150723, "pitch": 69, "duration": 247, "velocity": 102}, {"time": 150960, "pitch": 62, "duration": 307, "velocity": 88}, {"time": 151197, "pitch": 64, "duration": 281, "velocity": 83}, {"time": 151197, "pitch": 66, "duration": 291, "velocity": 94}, {"time": 151197, "pitch": 69, "duration": 241, "velocity": 101}, {"time": 151438, "pitch": 62, "duration": 311, "velocity": 89}, {"time": 151678, "pitch": 64, "duration": 261, "velocity": 75}, {"time": 151678, "pitch": 66, "duration": 271, "velocity": 91}, {"time": 151678, "pitch": 69, "duration": 201, "velocity": 98}, {"time": 151919, "pitch": 50, "duration": 2080, "velocity": 97}, {"time": 151919, "pitch": 60, "duration": 2029, "velocity": 96}, {"time": 151919, "pitch": 62, "duration": 251, "velocity": 98}, {"time": 152160, "pitch": 64, "duration": 251, "velocity": 70}, {"time": 152160, "pitch": 66, "duration": 241, "velocity": 87}, {"time": 152160, "pitch": 69, "duration": 171, "velocity": 102}, {"time": 152401, "pitch": 62, "duration": 301, "velocity": 90}, {"time": 152642, "pitch": 64, "duration": 280, "velocity": 84}, {"time": 152642, "pitch": 66, "duration": 250, "velocity": 88}, {"time": 152642, "pitch": 69, "duration": 210, "velocity": 101}, {"time": 152882, "pitch": 62, "duration": 281, "velocity": 88}, {"time": 153123, "pitch": 64, "duration": 267, "velocity": 81}, {"time": 153123, "pitch": 66, "duration": 247, "velocity": 89}, {"time": 153123, "pitch": 69, "duration": 227, "velocity": 103}, {"time": 153360, "pitch": 62, "duration": 308, "velocity": 89}, {"time": 153597, "pitch": 64, "duration": 251, "velocity": 71}, {"time": 153597, "pitch": 66, "duration": 241, "velocity": 95}, {"time": 153597, "pitch": 69, "duration": 201, "velocity": 104}, {"time": 153838, "pitch": 62, "duration": 251, "velocity": 87}, {"time": 154079, "pitch": 55, "duration": 1839, "velocity": 94}, {"time": 154079, "pitch": 59, "duration": 1819, "velocity": 94}, {"time": 154079, "pitch": 67, "duration": 231, "velocity": 103}, {"time": 154079, "pitch": 69, "duration": 211, "velocity": 108}, {"time": 154320, "pitch": 62, "duration": 301, "velocity": 81}, {"time": 154561, "pitch": 67, "duration": 280, "velocity": 95}, {"time": 154561, "pitch": 69, "duration": 260, "velocity": 103}, {"time": 154801, "pitch": 62, "duration": 300, "velocity": 90}, {"time": 155042, "pitch": 67, "duration": 277, "velocity": 96}, {"time": 155042, "pitch": 69, "duration": 257, "velocity": 101}, {"time": 155279, "pitch": 62, "duration": 318, "velocity": 86}, {"time": 155516, "pitch": 67, "duration": 221, "velocity": 99}, {"time": 155516, "pitch": 69, "duration": 211, "velocity": 102}, {"time": 155757, "pitch": 62, "duration": 221, "velocity": 84}, {"time": 155998, "pitch": 54, "duration": 1850, "velocity": 96}, {"time": 155998, "pitch": 57, "duration": 1860, "velocity": 88}, {"time": 155998, "pitch": 64, "duration": 251, "velocity": 101}, {"time": 155998, "pitch": 69, "duration": 221, "velocity": 108}, {"time": 156239, "pitch": 62, "duration": 281, "velocity": 85}, {"time": 156480, "pitch": 64, "duration": 250, "velocity": 94}, {"time": 156480, "pitch": 69, "duration": 240, "velocity": 108}, {"time": 156720, "pitch": 62, "duration": 301, "velocity": 90}, {"time": 156961, "pitch": 64, "duration": 281, "velocity": 95}, {"time": 156961, "pitch": 69, "duration": 261, "velocity": 107}, {"time": 157202, "pitch": 62, "duration": 300, "velocity": 88}, {"time": 157443, "pitch": 64, "duration": 276, "velocity": 95}, {"time": 157443, "pitch": 69, "duration": 158, "velocity": 104}, {"time": 157680, "pitch": 62, "duration": 178, "velocity": 90}, {"time": 157917, "pitch": 52, "duration": 1846, "velocity": 101}, {"time": 157917, "pitch": 62, "duration": 251, "velocity": 94}, {"time": 157917, "pitch": 67, "duration": 221, "velocity": 106}, {"time": 158158, "pitch": 59, "duration": 281, "velocity": 93}, {"time": 158398, "pitch": 62, "duration": 281, "velocity": 97}, {"time": 158398, "pitch": 67, "duration": 221, "velocity": 102}, {"time": 158639, "pitch": 59, "duration": 291, "velocity": 91}, {"time": 158880, "pitch": 62, "duration": 261, "velocity": 98}, {"time": 158880, "pitch": 67, "duration": 221, "velocity": 101}, {"time": 159121, "pitch": 59, "duration": 281, "velocity": 97}, {"time": 159362, "pitch": 62, "duration": 250, "velocity": 92}, {"time": 159362, "pitch": 67, "duration": 190, "velocity": 103}, {"time": 159602, "pitch": 59, "duration": 171, "velocity": 96}, {"time": 159843, "pitch": 55, "duration": 615, "velocity": 99}, {"time": 159843, "pitch": 58, "duration": 605, "velocity": 115}, {"time": 159843, "pitch": 62, "duration": 615, "velocity": 91}, {"time": 159843, "pitch": 67, "duration": 605, "velocity": 110}, {"time": 160558, "pitch": 55, "duration": 432, "velocity": 96}, {"time": 160558, "pitch": 58, "duration": 422, "velocity": 110}, {"time": 160558, "pitch": 62, "duration": 402, "velocity": 89}, {"time": 160558, "pitch": 66, "duration": 472, "velocity": 116}, {"time": 161040, "pitch": 55, "duration": 391, "velocity": 90}, {"time": 161040, "pitch": 58, "duration": 401, "velocity": 105}, {"time": 161040, "pitch": 62, "duration": 401, "velocity": 115}, {"time": 161521, "pitch": 52, "duration": 2140, "velocity": 102}, {"time": 161521, "pitch": 59, "duration": 2140, "velocity": 108}, {"time": 161521, "pitch": 62, "duration": 2140, "velocity": 84}, {"time": 161521, "pitch": 67, "duration": 2140, "velocity": 111}, {"time": 163681, "pitch": 45, "duration": 887, "velocity": 102}, {"time": 163681, "pitch": 57, "duration": 847, "velocity": 106}, {"time": 163681, "pitch": 61, "duration": 877, "velocity": 104}, {"time": 163681, "pitch": 66, "duration": 857, "velocity": 109}, {"time": 164637, "pitch": 45, "duration": 963, "velocity": 100}, {"time": 164637, "pitch": 59, "duration": 973, "velocity": 98}, {"time": 164637, "pitch": 62, "duration": 923, "velocity": 95}, {"time": 164637, "pitch": 67, "duration": 963, "velocity": 112}, {"time": 165600, "pitch": 50, "duration": 1578, "velocity": 96}, {"time": 165600, "pitch": 57, "duration": 1598, "velocity": 97}, {"time": 165600, "pitch": 64, "duration": 251, "velocity": 88}, {"time": 165600, "pitch": 66, "duration": 251, "velocity": 86}, {"time": 165600, "pitch": 69, "duration": 241, "velocity": 112}, {"time": 165841, "pitch": 62, "duration": 251, "velocity": 78}, {"time": 166082, "pitch": 64, "duration": 231, "velocity": 84}, {"time": 166082, "pitch": 66, "duration": 251, "velocity": 92}, {"time": 166082, "pitch": 69, "duration": 241, "velocity": 105}, {"time": 166323, "pitch": 62, "duration": 270, "velocity": 84}, {"time": 166563, "pitch": 64, "duration": 247, "velocity": 79}, {"time": 166563, "pitch": 66, "duration": 267, "velocity": 100}, {"time": 166563, "pitch": 69, "duration": 228, "velocity": 109}, {"time": 166800, "pitch": 62, "duration": 278, "velocity": 84}, {"time": 167038, "pitch": 64, "duration": 250, "velocity": 83}, {"time": 167038, "pitch": 66, "duration": 271, "velocity": 91}, {"time": 167038, "pitch": 69, "duration": 230, "velocity": 111}, {"time": 167278, "pitch": 50, "duration": 2050, "velocity": 95}, {"time": 167278, "pitch": 61, "duration": 2040, "velocity": 100}, {"time": 167278, "pitch": 62, "duration": 251, "velocity": 83}, {"time": 167519, "pitch": 64, "duration": 251, "velocity": 84}, {"time": 167519, "pitch": 66, "duration": 251, "velocity": 95}, {"time": 167519, "pitch": 69, "duration": 211, "velocity": 104}, {"time": 167760, "pitch": 62, "duration": 271, "velocity": 86}, {"time": 168001, "pitch": 64, "duration": 261, "velocity": 78}, {"time": 168001, "pitch": 66, "duration": 261, "velocity": 91}, {"time": 168001, "pitch": 69, "duration": 221, "velocity": 99}, {"time": 168242, "pitch": 62, "duration": 250, "velocity": 91}, {"time": 168482, "pitch": 64, "duration": 247, "velocity": 78}, {"time": 168482, "pitch": 66, "duration": 257, "velocity": 93}, {"time": 168482, "pitch": 69, "duration": 237, "velocity": 96}, {"time": 168719, "pitch": 62, "duration": 308, "velocity": 86}, {"time": 168957, "pitch": 64, "duration": 260, "velocity": 81}, {"time": 168957, "pitch": 66, "duration": 281, "velocity": 90}, {"time": 168957, "pitch": 69, "duration": 240, "velocity": 98}, {"time": 169197, "pitch": 62, "duration": 251, "velocity": 85}, {"time": 169438, "pitch": 50, "duration": 1563, "velocity": 100}, {"time": 169438, "pitch": 61, "duration": 1554, "velocity": 104}, {"time": 169438, "pitch": 64, "duration": 241, "velocity": 83}, {"time": 169438, "pitch": 66, "duration": 241, "velocity": 95}, {"time": 169438, "pitch": 69, "duration": 211, "velocity": 102}, {"time": 169679, "pitch": 62, "duration": 281, "velocity": 87}, {"time": 169920, "pitch": 64, "duration": 261, "velocity": 80}, {"time": 169920, "pitch": 66, "duration": 251, "velocity": 91}, {"time": 169920, "pitch": 69, "duration": 210, "velocity": 100}, {"time": 170161, "pitch": 62, "duration": 291, "velocity": 86}, {"time": 170401, "pitch": 64, "duration": 261, "velocity": 75}, {"time": 170401, "pitch": 66, "duration": 271, "velocity": 90}, {"time": 170401, "pitch": 69, "duration": 231, "velocity": 102}, {"time": 170642, "pitch": 62, "duration": 280, "velocity": 91}, {"time": 170883, "pitch": 64, "duration": 277, "velocity": 75}, {"time": 170883, "pitch": 66, "duration": 286, "velocity": 93}, {"time": 170883, "pitch": 69, "duration": 257, "velocity": 99}, {"time": 171120, "pitch": 50, "duration": 2073, "velocity": 99}, {"time": 171120, "pitch": 60, "duration": 2093, "velocity": 104}, {"time": 171120, "pitch": 62, "duration": 247, "velocity": 95}, {"time": 171357, "pitch": 64, "duration": 241, "velocity": 76}, {"time": 171357, "pitch": 66, "duration": 231, "velocity": 90}, {"time": 171357, "pitch": 69, "duration": 201, "velocity": 100}, {"time": 171598, "pitch": 62, "duration": 291, "velocity": 90}, {"time": 171839, "pitch": 64, "duration": 261, "velocity": 77}, {"time": 171839, "pitch": 66, "duration": 271, "velocity": 92}, {"time": 171839, "pitch": 69, "duration": 241, "velocity": 97}, {"time": 172080, "pitch": 62, "duration": 291, "velocity": 87}, {"time": 172320, "pitch": 64, "duration": 281, "velocity": 74}, {"time": 172320, "pitch": 66, "duration": 291, "velocity": 92}, {"time": 172320, "pitch": 69, "duration": 271, "velocity": 96}, {"time": 172561, "pitch": 62, "duration": 301, "velocity": 90}, {"time": 172802, "pitch": 64, "duration": 251, "velocity": 77}, {"time": 172802, "pitch": 66, "duration": 251, "velocity": 92}, {"time": 172802, "pitch": 69, "duration": 191, "velocity": 98}, {"time": 173043, "pitch": 62, "duration": 260, "velocity": 88}, {"time": 173283, "pitch": 55, "duration": 1819, "velocity": 91}, {"time": 173283, "pitch": 59, "duration": 1799, "velocity": 92}, {"time": 173283, "pitch": 67, "duration": 248, "velocity": 103}, {"time": 173283, "pitch": 69, "duration": 218, "velocity": 110}, {"time": 173521, "pitch": 62, "duration": 287, "velocity": 80}, {"time": 173758, "pitch": 67, "duration": 271, "velocity": 96}, {"time": 173758, "pitch": 69, "duration": 251, "velocity": 104}, {"time": 173999, "pitch": 62, "duration": 321, "velocity": 85}, {"time": 174239, "pitch": 67, "duration": 301, "velocity": 96}, {"time": 174239, "pitch": 69, "duration": 271, "velocity": 105}, {"time": 174480, "pitch": 62, "duration": 321, "velocity": 86}, {"time": 174721, "pitch": 67, "duration": 241, "velocity": 98}, {"time": 174721, "pitch": 69, "duration": 231, "velocity": 103}, {"time": 174962, "pitch": 62, "duration": 250, "velocity": 87}, {"time": 175202, "pitch": 54, "duration": 1930, "velocity": 98}, {"time": 175202, "pitch": 57, "duration": 1920, "velocity": 85}, {"time": 175202, "pitch": 64, "duration": 248, "velocity": 92}, {"time": 175202, "pitch": 69, "duration": 238, "velocity": 107}, {"time": 175440, "pitch": 62, "duration": 277, "velocity": 84}, {"time": 175677, "pitch": 64, "duration": 271, "velocity": 94}, {"time": 175677, "pitch": 69, "duration": 261, "velocity": 106}, {"time": 175918, "pitch": 62, "duration": 290, "velocity": 89}, {"time": 176158, "pitch": 64, "duration": 271, "velocity": 97}, {"time": 176158, "pitch": 69, "duration": 241, "velocity": 106}, {"time": 176399, "pitch": 62, "duration": 261, "velocity": 87}, {"time": 176640, "pitch": 64, "duration": 251, "velocity": 92}, {"time": 176640, "pitch": 69, "duration": 181, "velocity": 104}, {"time": 176881, "pitch": 62, "duration": 170, "velocity": 86}, {"time": 177122, "pitch": 52, "duration": 1848, "velocity": 101}, {"time": 177122, "pitch": 62, "duration": 240, "velocity": 92}, {"time": 177122, "pitch": 67, "duration": 240, "velocity": 107}, {"time": 177362, "pitch": 59, "duration": 281, "velocity": 95}, {"time": 177603, "pitch": 62, "duration": 257, "velocity": 96}, {"time": 177603, "pitch": 67, "duration": 227, "velocity": 105}, {"time": 177840, "pitch": 59, "duration": 308, "velocity": 96}, {"time": 178077, "pitch": 62, "duration": 261, "velocity": 95}, {"time": 178077, "pitch": 67, "duration": 251, "velocity": 104}, {"time": 178318, "pitch": 59, "duration": 281, "velocity": 100}, {"time": 178559, "pitch": 62, "duration": 291, "velocity": 97}, {"time": 178559, "pitch": 67, "duration": 180, "velocity": 101}, {"time": 178800, "pitch": 59, "duration": 170, "velocity": 99}, {"time": 179040, "pitch": 45, "duration": 572, "velocity": 100}, {"time": 179040, "pitch": 55, "duration": 562, "velocity": 108}, {"time": 179040, "pitch": 59, "duration": 512, "velocity": 84}, {"time": 179040, "pitch": 62, "duration": 572, "velocity": 90}, {"time": 179040, "pitch": 66, "duration": 522, "velocity": 105}, {"time": 179763, "pitch": 45, "duration": 409, "velocity": 104}, {"time": 179763, "pitch": 55, "duration": 399, "velocity": 101}, {"time": 179763, "pitch": 59, "duration": 399, "velocity": 99}, {"time": 179763, "pitch": 62, "duration": 438, "velocity": 111}, {"time": 180241, "pitch": 45, "duration": 618, "velocity": 99}, {"time": 180241, "pitch": 57, "duration": 578, "velocity": 104}, {"time": 180241, "pitch": 61, "duration": 598, "velocity": 106}, {"time": 180241, "pitch": 64, "duration": 608, "velocity": 112}, {"time": 180959, "pitch": 50, "duration": 1448, "velocity": 104}, {"time": 180959, "pitch": 57, "duration": 1468, "velocity": 95}, {"time": 180959, "pitch": 64, "duration": 201, "velocity": 80}, {"time": 180959, "pitch": 66, "duration": 211, "velocity": 98}, {"time": 180959, "pitch": 69, "duration": 191, "velocity": 110}, {"time": 181200, "pitch": 62, "duration": 261, "velocity": 86}, {"time": 181441, "pitch": 64, "duration": 271, "velocity": 87}, {"time": 181441, "pitch": 66, "duration": 271, "velocity": 94}, {"time": 181441, "pitch": 69, "duration": 241, "velocity": 103}, {"time": 181682, "pitch": 62, "duration": 310, "velocity": 85}, {"time": 181923, "pitch": 64, "duration": 237, "velocity": 71}, {"time": 181923, "pitch": 66, "duration": 247, "velocity": 96}, {"time": 181923, "pitch": 69, "duration": 207, "velocity": 110}, {"time": 182160, "pitch": 62, "duration": 297, "velocity": 90}, {"time": 182397, "pitch": 64, "duration": 271, "velocity": 77}, {"time": 182397, "pitch": 66, "duration": 281, "velocity": 96}, {"time": 182397, "pitch": 69, "duration": 180, "velocity": 94}, {"time": 182638, "pitch": 50, "duration": 1991, "velocity": 104}, {"time": 182638, "pitch": 61, "duration": 1991, "velocity": 104}, {"time": 182638, "pitch": 62, "duration": 271, "velocity": 96}, {"time": 182878, "pitch": 64, "duration": 261, "velocity": 75}, {"time": 182878, "pitch": 66, "duration": 261, "velocity": 93}, {"time": 182878, "pitch": 69, "duration": 191, "velocity": 103}, {"time": 183119, "pitch": 62, "duration": 281, "velocity": 91}, {"time": 183360, "pitch": 64, "duration": 231, "velocity": 75}, {"time": 183360, "pitch": 66, "duration": 251, "velocity": 92}, {"time": 183360, "pitch": 69, "duration": 211, "velocity": 102}, {"time": 183601, "pitch": 62, "duration": 311, "velocity": 90}, {"time": 183842, "pitch": 64, "duration": 281, "velocity": 75}, {"time": 183842, "pitch": 66, "duration": 301, "velocity": 90}, {"time": 183842, "pitch": 69, "duration": 230, "velocity": 100}, {"time": 184082, "pitch": 62, "duration": 291, "velocity": 89}, {"time": 184323, "pitch": 64, "duration": 267, "velocity": 78}, {"time": 184323, "pitch": 66, "duration": 277, "velocity": 92}, {"time": 184323, "pitch": 69, "duration": 218, "velocity": 99}, {"time": 184560, "pitch": 62, "duration": 278, "velocity": 83}, {"time": 184797, "pitch": 50, "duration": 1534, "velocity": 94}, {"time": 184797, "pitch": 61, "duration": 1514, "velocity": 100}, {"time": 184797, "pitch": 64, "duration": 231, "velocity": 81}, {"time": 184797, "pitch": 66, "duration": 221, "velocity": 97}, {"time": 184797, "pitch": 69, "duration": 191, "velocity": 106}, {"time": 185038, "pitch": 62, "duration": 311, "velocity": 92}, {"time": 185279, "pitch": 64, "duration": 291, "velocity": 78}, {"time": 185279, "pitch": 66, "duration": 281, "velocity": 95}, {"time": 185279, "pitch": 69, "duration": 251, "velocity": 102}, {"time": 185520, "pitch": 62, "duration": 311, "velocity": 88}, {"time": 185761, "pitch": 64, "duration": 281, "velocity": 83}, {"time": 185761, "pitch": 66, "duration": 291, "velocity": 94}, {"time": 185761, "pitch": 69, "duration": 240, "velocity": 101}, {"time": 186001, "pitch": 62, "duration": 310, "velocity": 89}, {"time": 186242, "pitch": 64, "duration": 257, "velocity": 75}, {"time": 186242, "pitch": 66, "duration": 267, "velocity": 91}, {"time": 186242, "pitch": 69, "duration": 198, "velocity": 98}, {"time": 186479, "pitch": 50, "duration": 2084, "velocity": 97}, {"time": 186479, "pitch": 60, "duration": 2033, "velocity": 96}, {"time": 186479, "pitch": 62, "duration": 247, "velocity": 98}, {"time": 186716, "pitch": 64, "duration": 251, "velocity": 70}, {"time": 186716, "pitch": 66, "duration": 241, "velocity": 87}, {"time": 186716, "pitch": 69, "duration": 171, "velocity": 102}, {"time": 186957, "pitch": 62, "duration": 301, "velocity": 90}, {"time": 187198, "pitch": 64, "duration": 281, "velocity": 84}, {"time": 187198, "pitch": 66, "duration": 251, "velocity": 88}, {"time": 187198, "pitch": 69, "duration": 211, "velocity": 101}, {"time": 187439, "pitch": 62, "duration": 281, "velocity": 88}, {"time": 187680, "pitch": 64, "duration": 270, "velocity": 81}, {"time": 187680, "pitch": 66, "duration": 250, "velocity": 89}, {"time": 187680, "pitch": 69, "duration": 230, "velocity": 103}, {"time": 187920, "pitch": 62, "duration": 311, "velocity": 89}, {"time": 188161, "pitch": 64, "duration": 251, "velocity": 71}, {"time": 188161, "pitch": 66, "duration": 241, "velocity": 95}, {"time": 188161, "pitch": 69, "duration": 201, "velocity": 104}, {"time": 188402, "pitch": 62, "duration": 251, "velocity": 87}, {"time": 188643, "pitch": 55, "duration": 1839, "velocity": 94}, {"time": 188643, "pitch": 59, "duration": 1818, "velocity": 94}, {"time": 188643, "pitch": 67, "duration": 227, "velocity": 103}, {"time": 188643, "pitch": 69, "duration": 207, "velocity": 108}, {"time": 188880, "pitch": 62, "duration": 297, "velocity": 81}, {"time": 189117, "pitch": 67, "duration": 281, "velocity": 95}, {"time": 189117, "pitch": 69, "duration": 261, "velocity": 103}, {"time": 189358, "pitch": 62, "duration": 301, "velocity": 90}, {"time": 189599, "pitch": 67, "duration": 281, "velocity": 96}, {"time": 189599, "pitch": 69, "duration": 260, "velocity": 101}, {"time": 189839, "pitch": 62, "duration": 321, "velocity": 86}, {"time": 190080, "pitch": 67, "duration": 221, "velocity": 99}, {"time": 190080, "pitch": 69, "duration": 211, "velocity": 102}, {"time": 190321, "pitch": 62, "duration": 221, "velocity": 84}, {"time": 190562, "pitch": 54, "duration": 1849, "velocity": 96}, {"time": 190562, "pitch": 57, "duration": 1859, "velocity": 88}, {"time": 190562, "pitch": 64, "duration": 251, "velocity": 101}, {"time": 190562, "pitch": 69, "duration": 221, "velocity": 108}, {"time": 190803, "pitch": 62, "duration": 280, "velocity": 85}, {"time": 191043, "pitch": 64, "duration": 247, "velocity": 94}, {"time": 191043, "pitch": 69, "duration": 237, "velocity": 108}, {"time": 191280, "pitch": 62, "duration": 298, "velocity": 90}, {"time": 191518, "pitch": 64, "duration": 281, "velocity": 95}, {"time": 191518, "pitch": 69, "duration": 260, "velocity": 107}, {"time": 191758, "pitch": 62, "duration": 301, "velocity": 88}, {"time": 191999, "pitch": 64, "duration": 281, "velocity": 95}, {"time": 191999, "pitch": 69, "duration": 161, "velocity": 104}, {"time": 192240, "pitch": 62, "duration": 181, "velocity": 90}, {"time": 192481, "pitch": 52, "duration": 1838, "velocity": 101}, {"time": 192481, "pitch": 62, "duration": 251, "velocity": 94}, {"time": 192481, "pitch": 67, "duration": 220, "velocity": 106}, {"time": 192722, "pitch": 59, "duration": 280, "velocity": 93}, {"time": 192962, "pitch": 62, "duration": 277, "velocity": 97}, {"time": 192962, "pitch": 67, "duration": 218, "velocity": 102}, {"time": 193199, "pitch": 59, "duration": 288, "velocity": 91}, {"time": 193437, "pitch": 62, "duration": 260, "velocity": 98}, {"time": 193437, "pitch": 67, "duration": 220, "velocity": 101}, {"time": 193677, "pitch": 59, "duration": 281, "velocity": 97}, {"time": 193918, "pitch": 62, "duration": 251, "velocity": 92}, {"time": 193918, "pitch": 67, "duration": 191, "velocity": 103}, {"time": 194159, "pitch": 59, "duration": 171, "velocity": 96}, {"time": 194400, "pitch": 55, "duration": 622, "velocity": 99}, {"time": 194400, "pitch": 58, "duration": 612, "velocity": 115}, {"time": 194400, "pitch": 62, "duration": 622, "velocity": 91}, {"time": 194400, "pitch": 67, "duration": 612, "velocity": 110}, {"time": 195122, "pitch": 55, "duration": 429, "velocity": 96}, {"time": 195122, "pitch": 58, "duration": 419, "velocity": 110}, {"time": 195122, "pitch": 62, "duration": 399, "velocity": 89}, {"time": 195122, "pitch": 66, "duration": 439, "velocity": 116}, {"time": 195600, "pitch": 55, "duration": 388, "velocity": 90}, {"time": 195600, "pitch": 58, "duration": 398, "velocity": 105}, {"time": 195600, "pitch": 62, "duration": 398, "velocity": 115}, {"time": 196078, "pitch": 50, "duration": 2140, "velocity": 96}, {"time": 196078, "pitch": 57, "duration": 2140, "velocity": 106}, {"time": 196078, "pitch": 62, "duration": 2140, "velocity": 87}, {"time": 196078, "pitch": 66, "duration": 2140, "velocity": 113}, {"time": 198238, "pitch": 73, "duration": 983, "velocity": 93}, {"time": 198238, "pitch": 78, "duration": 983, "velocity": 107}, {"time": 198238, "pitch": 81, "duration": 983, "velocity": 98}, {"time": 199201, "pitch": 74, "duration": 966, "velocity": 104}, {"time": 199201, "pitch": 79, "duration": 956, "velocity": 101}, {"time": 199201, "pitch": 83, "duration": 976, "velocity": 108}, {"time": 200157, "pitch": 76, "duration": 963, "velocity": 98}, {"time": 200157, "pitch": 81, "duration": 973, "velocity": 101}, {"time": 200157, "pitch": 85, "duration": 963, "velocity": 110}, {"time": 201120, "pitch": 74, "duration": 973, "velocity": 98}, {"time": 201120, "pitch": 79, "duration": 973, "velocity": 100}, {"time": 201120, "pitch": 83, "duration": 983, "velocity": 108}, {"time": 202083, "pitch": 73, "duration": 976, "velocity": 93}, {"time": 202083, "pitch": 78, "duration": 976, "velocity": 107}, {"time": 202083, "pitch": 81, "duration": 976, "velocity": 98}, {"time": 203039, "pitch": 74, "duration": 973, "velocity": 104}, {"time": 203039, "pitch": 79, "duration": 963, "velocity": 101}, {"time": 203039, "pitch": 83, "duration": 983, "velocity": 108}, {"time": 204002, "pitch": 76, "duration": 956, "velocity": 98}, {"time": 204002, "pitch": 81, "duration": 966, "velocity": 101}, {"time": 204002, "pitch": 85, "duration": 956, "velocity": 110}, {"time": 204958, "pitch": 74, "duration": 973, "velocity": 98}, {"time": 204958, "pitch": 79, "duration": 973, "velocity": 100}, {"time": 204958, "pitch": 83, "duration": 983, "velocity": 108}, {"time": 205921, "pitch": 73, "duration": 976, "velocity": 93}, {"time": 205921, "pitch": 78, "duration": 976, "velocity": 107}, {"time": 205921, "pitch": 81, "duration": 976, "velocity": 98}, {"time": 206877, "pitch": 74, "duration": 973, "velocity": 104}, {"time": 206877, "pitch": 79, "duration": 963, "velocity": 101}, {"time": 206877, "pitch": 83, "duration": 983, "velocity": 108}, {"time": 207840, "pitch": 76, "duration": 963, "velocity": 98}, {"time": 207840, "pitch": 81, "duration": 973, "velocity": 101}, {"time": 207840, "pitch": 85, "duration": 963, "velocity": 110}, {"time": 208803, "pitch": 74, "duration": 966, "velocity": 98}, {"time": 208803, "pitch": 79, "duration": 966, "velocity": 100}, {"time": 208803, "pitch": 83, "duration": 976, "velocity": 108}, {"time": 209759, "pitch": 73, "duration": 983, "velocity": 93}, {"time": 209759, "pitch": 78, "duration": 983, "velocity": 107}, {"time": 209759, "pitch": 81, "duration": 983, "velocity": 98}, {"time": 210722, "pitch": 74, "duration": 966, "velocity": 104}, {"time": 210722, "pitch": 79, "duration": 956, "velocity": 101}, {"time": 210722, "pitch": 83, "duration": 976, "velocity": 108}, {"time": 211678, "pitch": 76, "duration": 963, "velocity": 98}, {"time": 211678, "pitch": 81, "duration": 973, "velocity": 101}, {"time": 211678, "pitch": 85, "duration": 963, "velocity": 110}, {"time": 212641, "pitch": 74, "duration": 959, "velocity": 98}, {"time": 212641, "pitch": 79, "duration": 959, "velocity": 100}, {"time": 212641, "pitch": 83, "duration": 968, "velocity": 108}, {"time": 213590, "pitch": 73, "duration": 968, "velocity": 93}, {"time": 213590, "pitch": 78, "duration": 968, "velocity": 107}, {"time": 213590, "pitch": 81, "duration": 968, "velocity": 98}, {"time": 214538, "pitch": 74, "duration": 959, "velocity": 104}, {"time": 214538, "pitch": 79, "duration": 949, "velocity": 101}, {"time": 214538, "pitch": 83, "duration": 969, "velocity": 108}, {"time": 215487, "pitch": 76, "duration": 949, "velocity": 98}, {"time": 215487, "pitch": 81, "duration": 958, "velocity": 101}, {"time": 215487, "pitch": 85, "duration": 949, "velocity": 110}, {"time": 216436, "pitch": 74, "duration": 909, "velocity": 98}, {"time": 216436, "pitch": 79, "duration": 909, "velocity": 100}, {"time": 216436, "pitch": 83, "duration": 909, "velocity": 108}, {"time": 8162, "pitch": 36, "duration": 575, "velocity": 107}, {"time": 8877, "pitch": 36, "duration": 121, "velocity": 100}, {"time": 9118, "pitch": 36, "duration": 482, "velocity": 106}, {"time": 10081, "pitch": 36, "duration": 581, "velocity": 108}, {"time": 10800, "pitch": 36, "duration": 119, "velocity": 98}, {"time": 11037, "pitch": 36, "duration": 492, "velocity": 104}, {"time": 12000, "pitch": 36, "duration": 592, "velocity": 105}, {"time": 12723, "pitch": 36, "duration": 120, "velocity": 98}, {"time": 12963, "pitch": 36, "duration": 465, "velocity": 104}, {"time": 13919, "pitch": 36, "duration": 532, "velocity": 104}, {"time": 14642, "pitch": 36, "duration": 120, "velocity": 102}, {"time": 14882, "pitch": 36, "duration": 475, "velocity": 105}, {"time": 15838, "pitch": 36, "duration": 572, "velocity": 108}, {"time": 16561, "pitch": 36, "duration": 120, "velocity": 97}, {"time": 16801, "pitch": 41, "duration": 561, "velocity": 109}, {"time": 17520, "pitch": 41, "duration": 119, "velocity": 99}, {"time": 17757, "pitch": 40, "duration": 612, "velocity": 106}, {"time": 18480, "pitch": 40, "duration": 120, "velocity": 99}, {"time": 18720, "pitch": 45, "duration": 562, "velocity": 106}, {"time": 19443, "pitch": 45, "duration": 120, "velocity": 99}, {"time": 19684, "pitch": 38, "duration": 544, "velocity": 107}, {"time": 20399, "pitch": 38, "duration": 120, "velocity": 101}, {"time": 20639, "pitch": 38, "duration": 582, "velocity": 107}, {"time": 21362, "pitch": 38, "duration": 120, "velocity": 101}, {"time": 21603, "pitch": 43, "duration": 584, "velocity": 106}, {"time": 22318, "pitch": 43, "duration": 130, "velocity": 95}, {"time": 22558, "pitch": 43, "duration": 442, "velocity": 108}, {"time": 23040, "pitch": 38, "duration": 191, "velocity": 107}, {"time": 23281, "pitch": 37, "duration": 190, "velocity": 100}, {"time": 23522, "pitch": 36, "duration": 610, "velocity": 107}, {"time": 24240, "pitch": 36, "duration": 129, "velocity": 98}, {"time": 24477, "pitch": 41, "duration": 562, "velocity": 107}, {"time": 25200, "pitch": 41, "duration": 130, "velocity": 105}, {"time": 25441, "pitch": 40, "duration": 580, "velocity": 107}, {"time": 26159, "pitch": 40, "duration": 119, "velocity": 98}, {"time": 26396, "pitch": 45, "duration": 572, "velocity": 106}, {"time": 27119, "pitch": 45, "duration": 150, "velocity": 99}, {"time": 27360, "pitch": 38, "duration": 551, "velocity": 106}, {"time": 28082, "pitch": 38, "duration": 130, "velocity": 103}, {"time": 28323, "pitch": 38, "duration": 434, "velocity": 107}, {"time": 28797, "pitch": 40, "duration": 201, "velocity": 104}, {"time": 29038, "pitch": 41, "duration": 200, "velocity": 97}, {"time": 29279, "pitch": 43, "duration": 581, "velocity": 105}, {"time": 30001, "pitch": 43, "duration": 140, "velocity": 98}, {"time": 30242, "pitch": 43, "duration": 431, "velocity": 108}, {"time": 30723, "pitch": 31, "duration": 455, "velocity": 107}, {"time": 31198, "pitch": 28, "duration": 1404, "velocity": 110}, {"time": 32642, "pitch": 40, "duration": 425, "velocity": 105}, {"time": 33117, "pitch": 33, "duration": 581, "velocity": 106}, {"time": 33839, "pitch": 33, "duration": 883, "velocity": 109}, {"time": 34802, "pitch": 38, "duration": 896, "velocity": 106}, {"time": 35758, "pitch": 43, "duration": 873, "velocity": 108}, {"time": 36721, "pitch": 36, "duration": 811, "velocity": 106}, {"time": 37681, "pitch": 36, "duration": 118, "velocity": 102}, {"time": 37918, "pitch": 35, "duration": 441, "velocity": 109}, {"time": 38399, "pitch": 40, "duration": 402, "velocity": 104}, {"time": 38881, "pitch": 33, "duration": 600, "velocity": 108}, {"time": 39600, "pitch": 33, "duration": 138, "velocity": 100}, {"time": 39837, "pitch": 31, "duration": 441, "velocity": 108}, {"time": 40318, "pitch": 36, "duration": 452, "velocity": 98}, {"time": 40800, "pitch": 29, "duration": 451, "velocity": 103}, {"time": 41281, "pitch": 41, "duration": 211, "velocity": 114}, {"time": 41522, "pitch": 40, "duration": 251, "velocity": 109}, {"time": 42000, "pitch": 38, "duration": 428, "velocity": 107}, {"time": 42478, "pitch": 36, "duration": 181, "velocity": 104}, {"time": 42719, "pitch": 34, "duration": 602, "velocity": 109}, {"time": 43441, "pitch": 34, "duration": 652, "velocity": 108}, {"time": 44164, "pitch": 34, "duration": 217, "velocity": 105}, {"time": 44401, "pitch": 33, "duration": 809, "velocity": 107}, {"time": 45360, "pitch": 33, "duration": 1078, "velocity": 104}, {"time": 46557, "pitch": 33, "duration": 933, "velocity": 107}, {"time": 47520, "pitch": 45, "duration": 903, "velocity": 102}, {"time": 48483, "pitch": 38, "duration": 555, "velocity": 109}, {"time": 49198, "pitch": 38, "duration": 141, "velocity": 101}, {"time": 49439, "pitch": 38, "duration": 612, "velocity": 108}, {"time": 50161, "pitch": 38, "duration": 191, "velocity": 101}, {"time": 50639, "pitch": 50, "duration": 257, "velocity": 110}, {"time": 51117, "pitch": 38, "duration": 161, "velocity": 100}, {"time": 51358, "pitch": 38, "duration": 552, "velocity": 107}, {"time": 52321, "pitch": 38, "duration": 561, "velocity": 106}, {"time": 53040, "pitch": 38, "duration": 138, "velocity": 100}, {"time": 53277, "pitch": 38, "duration": 522, "velocity": 108}, {"time": 53999, "pitch": 38, "duration": 382, "velocity": 105}, {"time": 54481, "pitch": 50, "duration": 190, "velocity": 106}, {"time": 54962, "pitch": 38, "duration": 161, "velocity": 103}, {"time": 55203, "pitch": 38, "duration": 386, "velocity": 107}, {"time": 55678, "pitch": 40, "duration": 200, "velocity": 103}, {"time": 55918, "pitch": 42, "duration": 221, "velocity": 101}, {"time": 56159, "pitch": 43, "duration": 592, "velocity": 104}, {"time": 56881, "pitch": 43, "duration": 161, "velocity": 99}, {"time": 57122, "pitch": 43, "duration": 735, "velocity": 104}, {"time": 58078, "pitch": 42, "duration": 572, "velocity": 105}, {"time": 58800, "pitch": 42, "duration": 141, "velocity": 97}, {"time": 59041, "pitch": 42, "duration": 729, "velocity": 103}, {"time": 59997, "pitch": 40, "duration": 562, "velocity": 109}, {"time": 60719, "pitch": 40, "duration": 141, "velocity": 106}, {"time": 60960, "pitch": 40, "duration": 632, "velocity": 109}, {"time": 61923, "pitch": 33, "duration": 645, "velocity": 107}, {"time": 62638, "pitch": 33, "duration": 452, "velocity": 108}, {"time": 63120, "pitch": 33, "duration": 201, "velocity": 100}, {"time": 63361, "pitch": 35, "duration": 210, "velocity": 105}, {"time": 63602, "pitch": 37, "duration": 200, "velocity": 107}, {"time": 63842, "pitch": 38, "duration": 565, "velocity": 108}, {"time": 64557, "pitch": 38, "duration": 151, "velocity": 102}, {"time": 64798, "pitch": 38, "duration": 572, "velocity": 107}, {"time": 65521, "pitch": 38, "duration": 210, "velocity": 102}, {"time": 66002, "pitch": 50, "duration": 201, "velocity": 107}, {"time": 66480, "pitch": 38, "duration": 148, "velocity": 101}, {"time": 66717, "pitch": 38, "duration": 602, "velocity": 106}, {"time": 67680, "pitch": 38, "duration": 552, "velocity": 105}, {"time": 68403, "pitch": 38, "duration": 160, "velocity": 98}, {"time": 68643, "pitch": 38, "duration": 555, "velocity": 103}, {"time": 69359, "pitch": 38, "duration": 391, "velocity": 104}, {"time": 69840, "pitch": 50, "duration": 191, "velocity": 108}, {"time": 70322, "pitch": 38, "duration": 190, "velocity": 100}, {"time": 70562, "pitch": 38, "duration": 396, "velocity": 104}, {"time": 71037, "pitch": 40, "duration": 190, "velocity": 104}, {"time": 71278, "pitch": 42, "duration": 210, "velocity": 99}, {"time": 71518, "pitch": 43, "duration": 602, "velocity": 107}, {"time": 72241, "pitch": 43, "duration": 150, "velocity": 98}, {"time": 72481, "pitch": 43, "duration": 571, "velocity": 105}, {"time": 73437, "pitch": 42, "duration": 542, "velocity": 107}, {"time": 74160, "pitch": 42, "duration": 140, "velocity": 100}, {"time": 74400, "pitch": 42, "duration": 592, "velocity": 105}, {"time": 75364, "pitch": 40, "duration": 524, "velocity": 113}, {"time": 76079, "pitch": 40, "duration": 140, "velocity": 108}, {"time": 76319, "pitch": 40, "duration": 412, "velocity": 113}, {"time": 76801, "pitch": 28, "duration": 221, "velocity": 112}, {"time": 77042, "pitch": 30, "duration": 231, "velocity": 107}, {"time": 77283, "pitch": 31, "duration": 644, "velocity": 108}, {"time": 77998, "pitch": 43, "duration": 200, "velocity": 103}, {"time": 78479, "pitch": 31, "duration": 422, "velocity": 110}, {"time": 78961, "pitch": 32, "duration": 4079, "velocity": 108}, {"time": 90723, "pitch": 53, "duration": 1899, "velocity": 105}, {"time": 92642, "pitch": 52, "duration": 1899, "velocity": 103}, {"time": 94561, "pitch": 50, "duration": 1899, "velocity": 102}, {"time": 96480, "pitch": 43, "duration": 923, "velocity": 103}, {"time": 97443, "pitch": 31, "duration": 886, "velocity": 100}, {"time": 98399, "pitch": 36, "duration": 572, "velocity": 108}, {"time": 99121, "pitch": 36, "duration": 121, "velocity": 97}, {"time": 99362, "pitch": 41, "duration": 561, "velocity": 109}, {"time": 100081, "pitch": 41, "duration": 118, "velocity": 99}, {"time": 100318, "pitch": 40, "duration": 612, "velocity": 106}, {"time": 101040, "pitch": 40, "duration": 121, "velocity": 99}, {"time": 101281, "pitch": 45, "duration": 561, "velocity": 106}, {"time": 102000, "pitch": 45, "duration": 118, "velocity": 99}, {"time": 102237, "pitch": 38, "duration": 552, "velocity": 107}, {"time": 102959, "pitch": 38, "duration": 121, "velocity": 101}, {"time": 103200, "pitch": 38, "duration": 582, "velocity": 107}, {"time": 103922, "pitch": 38, "duration": 121, "velocity": 101}, {"time": 104163, "pitch": 43, "duration": 585, "velocity": 106}, {"time": 104878, "pitch": 43, "duration": 131, "velocity": 95}, {"time": 105119, "pitch": 43, "duration": 441, "velocity": 108}, {"time": 105601, "pitch": 38, "duration": 190, "velocity": 107}, {"time": 105841, "pitch": 37, "duration": 191, "velocity": 100}, {"time": 106082, "pitch": 36, "duration": 605, "velocity": 107}, {"time": 106797, "pitch": 36, "duration": 131, "velocity": 98}, {"time": 107038, "pitch": 41, "duration": 562, "velocity": 107}, {"time": 107760, "pitch": 41, "duration": 131, "velocity": 105}, {"time": 108001, "pitch": 40, "duration": 581, "velocity": 107}, {"time": 108720, "pitch": 40, "duration": 118, "velocity": 98}, {"time": 108957, "pitch": 45, "duration": 572, "velocity": 106}, {"time": 109679, "pitch": 45, "duration": 151, "velocity": 99}, {"time": 109920, "pitch": 38, "duration": 552, "velocity": 106}, {"time": 110643, "pitch": 38, "duration": 130, "velocity": 103}, {"time": 110883, "pitch": 38, "duration": 435, "velocity": 107}, {"time": 111358, "pitch": 40, "duration": 200, "velocity": 104}, {"time": 111598, "pitch": 41, "duration": 201, "velocity": 97}, {"time": 111839, "pitch": 43, "duration": 582, "velocity": 105}, {"time": 112562, "pitch": 43, "duration": 140, "velocity": 98}, {"time": 112802, "pitch": 43, "duration": 425, "velocity": 108}, {"time": 113277, "pitch": 31, "duration": 461, "velocity": 107}, {"time": 113758, "pitch": 28, "duration": 1405, "velocity": 110}, {"time": 115203, "pitch": 40, "duration": 425, "velocity": 105}, {"time": 115677, "pitch": 33, "duration": 582, "velocity": 106}, {"time": 116399, "pitch": 33, "duration": 883, "velocity": 109}, {"time": 117363, "pitch": 38, "duration": 895, "velocity": 106}, {"time": 118318, "pitch": 43, "duration": 873, "velocity": 108}, {"time": 119282, "pitch": 36, "duration": 805, "velocity": 106}, {"time": 120237, "pitch": 36, "duration": 121, "velocity": 102}, {"time": 120478, "pitch": 35, "duration": 442, "velocity": 109}, {"time": 120960, "pitch": 40, "duration": 401, "velocity": 104}, {"time": 121441, "pitch": 33, "duration": 601, "velocity": 108}, {"time": 122160, "pitch": 33, "duration": 138, "velocity": 100}, {"time": 122397, "pitch": 31, "duration": 442, "velocity": 108}, {"time": 122879, "pitch": 36, "duration": 451, "velocity": 98}, {"time": 123360, "pitch": 29, "duration": 452, "velocity": 103}, {"time": 123842, "pitch": 41, "duration": 211, "velocity": 114}, {"time": 124083, "pitch": 40, "duration": 250, "velocity": 109}, {"time": 124561, "pitch": 38, "duration": 427, "velocity": 107}, {"time": 125039, "pitch": 36, "duration": 180, "velocity": 104}, {"time": 125279, "pitch": 34, "duration": 602, "velocity": 109}, {"time": 126002, "pitch": 34, "duration": 646, "velocity": 108}, {"time": 126717, "pitch": 34, "duration": 221, "velocity": 105}, {"time": 126958, "pitch": 33, "duration": 812, "velocity": 107}, {"time": 127921, "pitch": 33, "duration": 1078, "velocity": 104}, {"time": 129117, "pitch": 33, "duration": 933, "velocity": 107}, {"time": 130081, "pitch": 45, "duration": 896, "velocity": 102}, {"time": 131036, "pitch": 38, "duration": 562, "velocity": 109}, {"time": 131759, "pitch": 38, "duration": 140, "velocity": 101}, {"time": 132000, "pitch": 38, "duration": 612, "velocity": 108}, {"time": 132722, "pitch": 38, "duration": 191, "velocity": 101}, {"time": 133200, "pitch": 50, "duration": 257, "velocity": 110}, {"time": 133678, "pitch": 38, "duration": 160, "velocity": 100}, {"time": 133919, "pitch": 38, "duration": 551, "velocity": 107}, {"time": 134882, "pitch": 38, "duration": 560, "velocity": 106}, {"time": 135600, "pitch": 38, "duration": 139, "velocity": 100}, {"time": 135838, "pitch": 38, "duration": 521, "velocity": 108}, {"time": 136560, "pitch": 38, "duration": 381, "velocity": 105}, {"time": 137041, "pitch": 50, "duration": 191, "velocity": 106}, {"time": 137519, "pitch": 38, "duration": 158, "velocity": 103}, {"time": 137757, "pitch": 38, "duration": 391, "velocity": 107}, {"time": 138238, "pitch": 40, "duration": 201, "velocity": 103}, {"time": 138479, "pitch": 42, "duration": 221, "velocity": 101}, {"time": 138720, "pitch": 43, "duration": 592, "velocity": 104}, {"time": 139442, "pitch": 43, "duration": 161, "velocity": 99}, {"time": 139683, "pitch": 43, "duration": 735, "velocity": 104}, {"time": 140639, "pitch": 42, "duration": 572, "velocity": 105}, {"time": 141361, "pitch": 42, "duration": 141, "velocity": 97}, {"time": 141602, "pitch": 42, "duration": 728, "velocity": 103}, {"time": 142558, "pitch": 40, "duration": 561, "velocity": 109}, {"time": 143280, "pitch": 40, "duration": 140, "velocity": 106}, {"time": 143521, "pitch": 40, "duration": 630, "velocity": 109}, {"time": 144477, "pitch": 33, "duration": 652, "velocity": 107}, {"time": 145199, "pitch": 33, "duration": 452, "velocity": 108}, {"time": 145681, "pitch": 33, "duration": 200, "velocity": 100}, {"time": 145921, "pitch": 35, "duration": 211, "velocity": 105}, {"time": 146162, "pitch": 37, "duration": 201, "velocity": 107}, {"time": 146403, "pitch": 38, "duration": 564, "velocity": 108}, {"time": 147118, "pitch": 38, "duration": 150, "velocity": 102}, {"time": 147359, "pitch": 38, "duration": 572, "velocity": 107}, {"time": 148081, "pitch": 38, "duration": 211, "velocity": 102}, {"time": 148563, "pitch": 50, "duration": 200, "velocity": 107}, {"time": 149041, "pitch": 38, "duration": 148, "velocity": 101}, {"time": 149278, "pitch": 38, "duration": 602, "velocity": 106}, {"time": 150241, "pitch": 38, "duration": 551, "velocity": 105}, {"time": 150960, "pitch": 38, "duration": 158, "velocity": 98}, {"time": 151197, "pitch": 38, "duration": 562, "velocity": 103}, {"time": 151919, "pitch": 38, "duration": 391, "velocity": 104}, {"time": 152401, "pitch": 50, "duration": 190, "velocity": 108}, {"time": 152882, "pitch": 38, "duration": 191, "velocity": 100}, {"time": 153123, "pitch": 38, "duration": 395, "velocity": 104}, {"time": 153597, "pitch": 40, "duration": 191, "velocity": 104}, {"time": 153838, "pitch": 42, "duration": 211, "velocity": 99}, {"time": 154079, "pitch": 43, "duration": 602, "velocity": 107}, {"time": 154801, "pitch": 43, "duration": 151, "velocity": 98}, {"time": 155042, "pitch": 43, "duration": 565, "velocity": 105}, {"time": 155998, "pitch": 42, "duration": 542, "velocity": 107}, {"time": 156720, "pitch": 42, "duration": 141, "velocity": 100}, {"time": 156961, "pitch": 42, "duration": 590, "velocity": 105}, {"time": 157917, "pitch": 40, "duration": 532, "velocity": 113}, {"time": 158639, "pitch": 40, "duration": 141, "velocity": 108}, {"time": 158880, "pitch": 40, "duration": 411, "velocity": 113}, {"time": 159362, "pitch": 28, "duration": 220, "velocity": 112}, {"time": 159602, "pitch": 30, "duration": 231, "velocity": 107}, {"time": 159843, "pitch": 31, "duration": 665, "velocity": 106}, {"time": 160558, "pitch": 43, "duration": 231, "velocity": 106}, {"time": 161040, "pitch": 43, "duration": 311, "velocity": 104}, {"time": 161521, "pitch": 40, "duration": 2140, "velocity": 104}, {"time": 163681, "pitch": 45, "duration": 887, "velocity": 102}, {"time": 164637, "pitch": 33, "duration": 873, "velocity": 98}, {"time": 165600, "pitch": 38, "duration": 562, "velocity": 109}, {"time": 166323, "pitch": 38, "duration": 140, "velocity": 101}, {"time": 166563, "pitch": 38, "duration": 605, "velocity": 108}, {"time": 167278, "pitch": 38, "duration": 191, "velocity": 101}, {"time": 167760, "pitch": 50, "duration": 261, "velocity": 110}, {"time": 168242, "pitch": 38, "duration": 160, "velocity": 100}, {"time": 168482, "pitch": 38, "duration": 545, "velocity": 107}, {"time": 169438, "pitch": 38, "duration": 562, "velocity": 106}, {"time": 170161, "pitch": 38, "duration": 140, "velocity": 100}, {"time": 170401, "pitch": 38, "duration": 521, "velocity": 108}, {"time": 171120, "pitch": 38, "duration": 378, "velocity": 105}, {"time": 171598, "pitch": 50, "duration": 191, "velocity": 106}, {"time": 172080, "pitch": 38, "duration": 160, "velocity": 103}, {"time": 172320, "pitch": 38, "duration": 392, "velocity": 107}, {"time": 172802, "pitch": 40, "duration": 201, "velocity": 103}, {"time": 173043, "pitch": 42, "duration": 220, "velocity": 101}, {"time": 173283, "pitch": 43, "duration": 585, "velocity": 104}, {"time": 173999, "pitch": 43, "duration": 160, "velocity": 99}, {"time": 174239, "pitch": 43, "duration": 743, "velocity": 104}, {"time": 175202, "pitch": 42, "duration": 565, "velocity": 105}, {"time": 175918, "pitch": 42, "duration": 140, "velocity": 97}, {"time": 176158, "pitch": 42, "duration": 733, "velocity": 103}, {"time": 177122, "pitch": 40, "duration": 560, "velocity": 109}, {"time": 177840, "pitch": 40, "duration": 139, "velocity": 106}, {"time": 178077, "pitch": 40, "duration": 632, "velocity": 109}, {"time": 179040, "pitch": 33, "duration": 653, "velocity": 107}, {"time": 179763, "pitch": 33, "duration": 448, "velocity": 108}, {"time": 180241, "pitch": 33, "duration": 197, "velocity": 100}, {"time": 180478, "pitch": 35, "duration": 211, "velocity": 105}, {"time": 180719, "pitch": 37, "duration": 200, "velocity": 107}, {"time": 180959, "pitch": 38, "duration": 572, "velocity": 108}, {"time": 181682, "pitch": 38, "duration": 150, "velocity": 102}, {"time": 181923, "pitch": 38, "duration": 564, "velocity": 107}, {"time": 182638, "pitch": 38, "duration": 210, "velocity": 102}, {"time": 183119, "pitch": 50, "duration": 201, "velocity": 107}, {"time": 183601, "pitch": 38, "duration": 150, "velocity": 101}, {"time": 183842, "pitch": 38, "duration": 600, "velocity": 106}, {"time": 184797, "pitch": 38, "duration": 552, "velocity": 105}, {"time": 185520, "pitch": 38, "duration": 160, "velocity": 98}, {"time": 185761, "pitch": 38, "duration": 560, "velocity": 103}, {"time": 186479, "pitch": 38, "duration": 388, "velocity": 104}, {"time": 186957, "pitch": 50, "duration": 191, "velocity": 108}, {"time": 187439, "pitch": 38, "duration": 190, "velocity": 100}, {"time": 187680, "pitch": 38, "duration": 401, "velocity": 104}, {"time": 188161, "pitch": 40, "duration": 191, "velocity": 104}, {"time": 188402, "pitch": 42, "duration": 211, "velocity": 99}, {"time": 188643, "pitch": 43, "duration": 594, "velocity": 107}, {"time": 189358, "pitch": 43, "duration": 150, "velocity": 98}, {"time": 189599, "pitch": 43, "duration": 571, "velocity": 105}, {"time": 190562, "pitch": 42, "duration": 541, "velocity": 107}, {"time": 191280, "pitch": 42, "duration": 139, "velocity": 100}, {"time": 191518, "pitch": 42, "duration": 592, "velocity": 105}, {"time": 192481, "pitch": 40, "duration": 531, "velocity": 113}, {"time": 193199, "pitch": 40, "duration": 139, "velocity": 108}, {"time": 193437, "pitch": 40, "duration": 411, "velocity": 113}, {"time": 193918, "pitch": 28, "duration": 221, "velocity": 112}, {"time": 194159, "pitch": 30, "duration": 231, "velocity": 107}, {"time": 194400, "pitch": 43, "duration": 592, "velocity": 101}, {"time": 195122, "pitch": 43, "duration": 399, "velocity": 102}, {"time": 195600, "pitch": 43, "duration": 428, "velocity": 104}, {"time": 196078, "pitch": 38, "duration": 2160, "velocity": 105}, {"time": 8162, "pitch": 55, "duration": 79, "velocity": 90}, {"time": 8281, "pitch": 55, "duration": 79, "velocity": 98}, {"time": 8518, "pitch": 55, "duration": 79, "velocity": 87}, {"time": 8637, "pitch": 55, "duration": 80, "velocity": 98}, {"time": 8877, "pitch": 55, "duration": 81, "velocity": 90}, {"time": 8998, "pitch": 55, "duration": 80, "velocity": 89}, {"time": 9239, "pitch": 55, "duration": 80, "velocity": 90}, {"time": 9359, "pitch": 55, "duration": 80, "velocity": 95}, {"time": 9600, "pitch": 55, "duration": 80, "velocity": 99}, {"time": 9840, "pitch": 55, "duration": 11, "velocity": 82}, {"time": 9961, "pitch": 55, "duration": 10, "velocity": 64}, {"time": 10081, "pitch": 55, "duration": 81, "velocity": 90}, {"time": 10202, "pitch": 55, "duration": 80, "velocity": 98}, {"time": 10442, "pitch": 55, "duration": 81, "velocity": 87}, {"time": 10563, "pitch": 55, "duration": 79, "velocity": 98}, {"time": 10800, "pitch": 55, "duration": 79, "velocity": 90}, {"time": 10919, "pitch": 55, "duration": 79, "velocity": 89}, {"time": 11157, "pitch": 55, "duration": 81, "velocity": 90}, {"time": 11278, "pitch": 55, "duration": 80, "velocity": 95}, {"time": 11519, "pitch": 55, "duration": 80, "velocity": 99}, {"time": 11759, "pitch": 55, "duration": 11, "velocity": 82}, {"time": 11880, "pitch": 55, "duration": 10, "velocity": 64}, {"time": 12000, "pitch": 55, "duration": 81, "velocity": 90}, {"time": 12121, "pitch": 55, "duration": 80, "velocity": 98}, {"time": 12361, "pitch": 55, "duration": 81, "velocity": 87}, {"time": 12482, "pitch": 55, "duration": 80, "velocity": 98}, {"time": 12723, "pitch": 55, "duration": 80, "velocity": 90}, {"time": 12843, "pitch": 55, "duration": 80, "velocity": 89}, {"time": 13082, "pitch": 55, "duration": 79, "velocity": 90}, {"time": 13201, "pitch": 55, "duration": 79, "velocity": 95}, {"time": 13438, "pitch": 55, "duration": 80, "velocity": 99}, {"time": 13678, "pitch": 55, "duration": 10, "velocity": 82}, {"time": 13799, "pitch": 55, "duration": 10, "velocity": 64}, {"time": 13919, "pitch": 55, "duration": 81, "velocity": 90}, {"time": 14040, "pitch": 55, "duration": 80, "velocity": 98}, {"time": 14280, "pitch": 55, "duration": 81, "velocity": 87}, {"time": 14401, "pitch": 55, "duration": 80, "velocity": 98}, {"time": 14642, "pitch": 55, "duration": 80, "velocity": 90}, {"time": 14762, "pitch": 55, "duration": 80, "velocity": 89}, {"time": 15001, "pitch": 55, "duration": 79, "velocity": 90}, {"time": 15120, "pitch": 55, "duration": 79, "velocity": 95}, {"time": 15357, "pitch": 55, "duration": 80, "velocity": 99}, {"time": 15597, "pitch": 55, "duration": 10, "velocity": 82}, {"time": 15718, "pitch": 55, "duration": 10, "velocity": 64}, {"time": 15838, "pitch": 67, "duration": 452, "velocity": 89}, {"time": 16320, "pitch": 72, "duration": 451, "velocity": 88}, {"time": 16801, "pitch": 71, "duration": 452, "velocity": 88}, {"time": 17283, "pitch": 69, "duration": 445, "velocity": 90}, {"time": 17757, "pitch": 67, "duration": 963, "velocity": 87}, {"time": 18961, "pitch": 67, "duration": 221, "velocity": 86}, {"time": 19202, "pitch": 72, "duration": 221, "velocity": 86}, {"time": 19443, "pitch": 76, "duration": 221, "velocity": 89}, {"time": 19684, "pitch": 77, "duration": 444, "velocity": 88}, {"time": 20158, "pitch": 76, "duration": 451, "velocity": 91}, {"time": 20639, "pitch": 74, "duration": 452, "velocity": 90}, {"time": 21121, "pitch": 72, "duration": 451, "velocity": 81}, {"time": 21603, "pitch": 72, "duration": 474, "velocity": 88}, {"time": 22077, "pitch": 71, "duration": 221, "velocity": 87}, {"time": 22318, "pitch": 72, "duration": 220, "velocity": 86}, {"time": 22558, "pitch": 74, "duration": 592, "velocity": 92}, {"time": 23522, "pitch": 67, "duration": 451, "velocity": 92}, {"time": 24003, "pitch": 72, "duration": 445, "velocity": 90}, {"time": 24477, "pitch": 71, "duration": 452, "velocity": 89}, {"time": 24959, "pitch": 69, "duration": 451, "velocity": 90}, {"time": 25441, "pitch": 67, "duration": 896, "velocity": 86}, {"time": 26637, "pitch": 67, "duration": 221, "velocity": 87}, {"time": 26878, "pitch": 72, "duration": 221, "velocity": 86}, {"time": 27119, "pitch": 76, "duration": 220, "velocity": 85}, {"time": 27360, "pitch": 77, "duration": 451, "velocity": 82}, {"time": 27841, "pitch": 76, "duration": 452, "velocity": 89}, {"time": 28323, "pitch": 74, "duration": 444, "velocity": 95}, {"time": 28797, "pitch": 72, "duration": 451, "velocity": 84}, {"time": 29279, "pitch": 72, "duration": 451, "velocity": 87}, {"time": 29760, "pitch": 71, "duration": 221, "velocity": 92}, {"time": 30001, "pitch": 72, "duration": 221, "velocity": 88}, {"time": 30242, "pitch": 79, "duration": 956, "velocity": 92}, {"time": 31679, "pitch": 74, "duration": 241, "velocity": 95}, {"time": 31920, "pitch": 72, "duration": 221, "velocity": 90}, {"time": 32161, "pitch": 74, "duration": 679, "velocity": 96}, {"time": 32879, "pitch": 76, "duration": 218, "velocity": 88}, {"time": 33117, "pitch": 74, "duration": 471, "velocity": 97}, {"time": 33598, "pitch": 72, "duration": 151, "velocity": 81}, {"time": 33839, "pitch": 72, "duration": 451, "velocity": 85}, {"time": 34320, "pitch": 71, "duration": 221, "velocity": 92}, {"time": 34561, "pitch": 72, "duration": 221, "velocity": 84}, {"time": 34802, "pitch": 79, "duration": 448, "velocity": 96}, {"time": 35280, "pitch": 71, "duration": 217, "velocity": 86}, {"time": 35517, "pitch": 72, "duration": 221, "velocity": 83}, {"time": 35758, "pitch": 79, "duration": 451, "velocity": 95}, {"time": 36239, "pitch": 77, "duration": 452, "velocity": 87}, {"time": 36721, "pitch": 76, "duration": 821, "velocity": 85}, {"time": 37918, "pitch": 77, "duration": 260, "velocity": 93}, {"time": 38158, "pitch": 76, "duration": 261, "velocity": 85}, {"time": 38399, "pitch": 74, "duration": 231, "velocity": 91}, {"time": 38640, "pitch": 72, "duration": 191, "velocity": 79}, {"time": 38881, "pitch": 72, "duration": 511, "velocity": 87}, {"time": 39837, "pitch": 77, "duration": 250, "velocity": 93}, {"time": 40077, "pitch": 76, "duration": 241, "velocity": 85}, {"time": 40318, "pitch": 74, "duration": 241, "velocity": 91}, {"time": 40559, "pitch": 72, "duration": 251, "velocity": 82}, {"time": 40800, "pitch": 71, "duration": 221, "velocity": 86}, {"time": 41041, "pitch": 72, "duration": 250, "velocity": 85}, {"time": 41281, "pitch": 67, "duration": 251, "velocity": 81}, {"time": 41522, "pitch": 72, "duration": 488, "velocity": 87}, {"time": 42000, "pitch": 81, "duration": 699, "velocity": 83}, {"time": 43200, "pitch": 76, "duration": 231, "velocity": 93}, {"time": 43441, "pitch": 74, "duration": 472, "velocity": 92}, {"time": 43923, "pitch": 72, "duration": 241, "velocity": 82}, {"time": 44164, "pitch": 74, "duration": 108, "velocity": 91}, {"time": 44401, "pitch": 74, "duration": 1691, "velocity": 95}, {"time": 48483, "pitch": 78, "duration": 119, "velocity": 95}, {"time": 48720, "pitch": 78, "duration": 378, "velocity": 96}, {"time": 49198, "pitch": 78, "duration": 442, "velocity": 94}, {"time": 49680, "pitch": 76, "duration": 241, "velocity": 85}, {"time": 49921, "pitch": 74, "duration": 270, "velocity": 91}, {"time": 50161, "pitch": 78, "duration": 458, "velocity": 93}, {"time": 50639, "pitch": 81, "duration": 277, "velocity": 82}, {"time": 50876, "pitch": 78, "duration": 502, "velocity": 92}, {"time": 51599, "pitch": 74, "duration": 271, "velocity": 95}, {"time": 51839, "pitch": 76, "duration": 492, "velocity": 87}, {"time": 52321, "pitch": 78, "duration": 401, "velocity": 99}, {"time": 52803, "pitch": 78, "duration": 128, "velocity": 95}, {"time": 53040, "pitch": 78, "duration": 448, "velocity": 96}, {"time": 53518, "pitch": 76, "duration": 251, "velocity": 86}, {"time": 53758, "pitch": 74, "duration": 261, "velocity": 91}, {"time": 53999, "pitch": 78, "duration": 452, "velocity": 92}, {"time": 54481, "pitch": 81, "duration": 261, "velocity": 84}, {"time": 54722, "pitch": 78, "duration": 431, "velocity": 90}, {"time": 55440, "pitch": 78, "duration": 247, "velocity": 98}, {"time": 55678, "pitch": 76, "duration": 220, "velocity": 86}, {"time": 55918, "pitch": 78, "duration": 111, "velocity": 88}, {"time": 56039, "pitch": 76, "duration": 120, "velocity": 82}, {"time": 56159, "pitch": 74, "duration": 732, "velocity": 92}, {"time": 57122, "pitch": 74, "duration": 227, "velocity": 90}, {"time": 57359, "pitch": 71, "duration": 468, "velocity": 87}, {"time": 57837, "pitch": 74, "duration": 1184, "velocity": 96}, {"time": 59282, "pitch": 69, "duration": 241, "velocity": 90}, {"time": 59523, "pitch": 68, "duration": 247, "velocity": 87}, {"time": 59760, "pitch": 67, "duration": 518, "velocity": 89}, {"time": 60238, "pitch": 76, "duration": 1615, "velocity": 91}, {"time": 62160, "pitch": 78, "duration": 228, "velocity": 96}, {"time": 62398, "pitch": 74, "duration": 90, "velocity": 90}, {"time": 62638, "pitch": 74, "duration": 512, "velocity": 91}, {"time": 63120, "pitch": 76, "duration": 562, "velocity": 86}, {"time": 63842, "pitch": 78, "duration": 109, "velocity": 101}, {"time": 64079, "pitch": 78, "duration": 388, "velocity": 101}, {"time": 64557, "pitch": 78, "duration": 442, "velocity": 99}, {"time": 65039, "pitch": 76, "duration": 261, "velocity": 86}, {"time": 65280, "pitch": 74, "duration": 251, "velocity": 90}, {"time": 65521, "pitch": 78, "duration": 471, "velocity": 98}, {"time": 66002, "pitch": 81, "duration": 280, "velocity": 85}, {"time": 66243, "pitch": 78, "duration": 484, "velocity": 91}, {"time": 66958, "pitch": 74, "duration": 291, "velocity": 93}, {"time": 67199, "pitch": 76, "duration": 491, "velocity": 88}, {"time": 67680, "pitch": 78, "duration": 372, "velocity": 96}, {"time": 68162, "pitch": 78, "duration": 120, "velocity": 95}, {"time": 68403, "pitch": 78, "duration": 458, "velocity": 97}, {"time": 68881, "pitch": 76, "duration": 247, "velocity": 90}, {"time": 69118, "pitch": 74, "duration": 261, "velocity": 92}, {"time": 69359, "pitch": 78, "duration": 441, "velocity": 94}, {"time": 69840, "pitch": 81, "duration": 512, "velocity": 88}, {"time": 70322, "pitch": 83, "duration": 458, "velocity": 97}, {"time": 70800, "pitch": 81, "duration": 247, "velocity": 84}, {"time": 71037, "pitch": 78, "duration": 220, "velocity": 96}, {"time": 71278, "pitch": 76, "duration": 240, "velocity": 86}, {"time": 71518, "pitch": 74, "duration": 753, "velocity": 92}, {"time": 72481, "pitch": 74, "duration": 241, "velocity": 98}, {"time": 72722, "pitch": 71, "duration": 488, "velocity": 102}, {"time": 73200, "pitch": 74, "duration": 1180, "velocity": 99}, {"time": 74641, "pitch": 69, "duration": 231, "velocity": 92}, {"time": 74882, "pitch": 68, "duration": 261, "velocity": 92}, {"time": 75123, "pitch": 67, "duration": 507, "velocity": 91}, {"time": 75601, "pitch": 76, "duration": 1210, "velocity": 90}, {"time": 77042, "pitch": 76, "duration": 250, "velocity": 87}, {"time": 77283, "pitch": 79, "duration": 444, "velocity": 94}, {"time": 77757, "pitch": 78, "duration": 231, "velocity": 88}, {"time": 77998, "pitch": 74, "duration": 421, "velocity": 84}, {"time": 78479, "pitch": 70, "duration": 231, "velocity": 90}, {"time": 78720, "pitch": 70, "duration": 281, "velocity": 84}, {"time": 78961, "pitch": 74, "duration": 2160, "velocity": 96}, {"time": 98399, "pitch": 67, "duration": 512, "velocity": 89}, {"time": 98880, "pitch": 72, "duration": 512, "velocity": 88}, {"time": 99362, "pitch": 71, "duration": 491, "velocity": 88}, {"time": 99844, "pitch": 69, "duration": 474, "velocity": 90}, {"time": 100318, "pitch": 67, "duration": 963, "velocity": 87}, {"time": 101522, "pitch": 67, "duration": 250, "velocity": 86}, {"time": 101763, "pitch": 72, "duration": 237, "velocity": 86}, {"time": 102000, "pitch": 76, "duration": 267, "velocity": 89}, {"time": 102237, "pitch": 77, "duration": 471, "velocity": 88}, {"time": 102718, "pitch": 76, "duration": 492, "velocity": 91}, {"time": 103200, "pitch": 74, "duration": 462, "velocity": 90}, {"time": 103682, "pitch": 72, "duration": 431, "velocity": 81}, {"time": 104163, "pitch": 72, "duration": 474, "velocity": 88}, {"time": 104637, "pitch": 71, "duration": 241, "velocity": 87}, {"time": 104878, "pitch": 72, "duration": 261, "velocity": 86}, {"time": 105119, "pitch": 74, "duration": 592, "velocity": 92}, {"time": 106082, "pitch": 67, "duration": 474, "velocity": 92}, {"time": 106556, "pitch": 72, "duration": 502, "velocity": 90}, {"time": 107038, "pitch": 71, "duration": 492, "velocity": 89}, {"time": 107520, "pitch": 69, "duration": 471, "velocity": 90}, {"time": 108001, "pitch": 67, "duration": 966, "velocity": 86}, {"time": 109198, "pitch": 67, "duration": 271, "velocity": 87}, {"time": 109439, "pitch": 72, "duration": 240, "velocity": 86}, {"time": 109679, "pitch": 76, "duration": 251, "velocity": 85}, {"time": 109920, "pitch": 77, "duration": 482, "velocity": 82}, {"time": 110402, "pitch": 76, "duration": 501, "velocity": 89}, {"time": 110883, "pitch": 74, "duration": 465, "velocity": 95}, {"time": 111358, "pitch": 72, "duration": 391, "velocity": 84}, {"time": 111839, "pitch": 72, "duration": 482, "velocity": 87}, {"time": 112321, "pitch": 71, "duration": 261, "velocity": 92}, {"time": 112562, "pitch": 72, "duration": 260, "velocity": 88}, {"time": 112802, "pitch": 79, "duration": 956, "velocity": 92}, {"time": 114240, "pitch": 74, "duration": 240, "velocity": 95}, {"time": 114480, "pitch": 72, "duration": 261, "velocity": 90}, {"time": 114721, "pitch": 74, "duration": 749, "velocity": 96}, {"time": 115440, "pitch": 76, "duration": 247, "velocity": 88}, {"time": 115677, "pitch": 74, "duration": 472, "velocity": 97}, {"time": 116159, "pitch": 72, "duration": 150, "velocity": 81}, {"time": 116399, "pitch": 72, "duration": 492, "velocity": 85}, {"time": 116881, "pitch": 71, "duration": 271, "velocity": 92}, {"time": 117122, "pitch": 72, "duration": 291, "velocity": 84}, {"time": 117363, "pitch": 79, "duration": 448, "velocity": 96}, {"time": 117841, "pitch": 71, "duration": 257, "velocity": 86}, {"time": 118078, "pitch": 72, "duration": 271, "velocity": 83}, {"time": 118318, "pitch": 79, "duration": 512, "velocity": 95}, {"time": 118800, "pitch": 77, "duration": 502, "velocity": 87}, {"time": 119282, "pitch": 76, "duration": 815, "velocity": 85}, {"time": 120478, "pitch": 77, "duration": 261, "velocity": 93}, {"time": 120719, "pitch": 76, "duration": 261, "velocity": 85}, {"time": 120960, "pitch": 74, "duration": 231, "velocity": 91}, {"time": 121201, "pitch": 72, "duration": 190, "velocity": 79}, {"time": 121441, "pitch": 72, "duration": 512, "velocity": 87}, {"time": 122397, "pitch": 77, "duration": 251, "velocity": 93}, {"time": 122638, "pitch": 76, "duration": 241, "velocity": 85}, {"time": 122879, "pitch": 74, "duration": 241, "velocity": 91}, {"time": 123120, "pitch": 72, "duration": 250, "velocity": 82}, {"time": 123360, "pitch": 71, "duration": 221, "velocity": 86}, {"time": 123601, "pitch": 72, "duration": 251, "velocity": 85}, {"time": 123842, "pitch": 67, "duration": 251, "velocity": 81}, {"time": 124083, "pitch": 72, "duration": 488, "velocity": 87}, {"time": 124561, "pitch": 81, "duration": 698, "velocity": 83}, {"time": 125761, "pitch": 76, "duration": 231, "velocity": 93}, {"time": 126002, "pitch": 74, "duration": 468, "velocity": 92}, {"time": 126480, "pitch": 72, "duration": 237, "velocity": 82}, {"time": 126717, "pitch": 74, "duration": 110, "velocity": 91}, {"time": 126958, "pitch": 74, "duration": 1695, "velocity": 95}, {"time": 131036, "pitch": 78, "duration": 121, "velocity": 95}, {"time": 131277, "pitch": 78, "duration": 381, "velocity": 96}, {"time": 131759, "pitch": 78, "duration": 441, "velocity": 94}, {"time": 132240, "pitch": 76, "duration": 241, "velocity": 85}, {"time": 132481, "pitch": 74, "duration": 271, "velocity": 91}, {"time": 132722, "pitch": 78, "duration": 458, "velocity": 93}, {"time": 133200, "pitch": 81, "duration": 277, "velocity": 82}, {"time": 133437, "pitch": 78, "duration": 502, "velocity": 92}, {"time": 134159, "pitch": 74, "duration": 271, "velocity": 95}, {"time": 134400, "pitch": 76, "duration": 492, "velocity": 87}, {"time": 134882, "pitch": 78, "duration": 401, "velocity": 99}, {"time": 135363, "pitch": 78, "duration": 129, "velocity": 95}, {"time": 135600, "pitch": 78, "duration": 448, "velocity": 96}, {"time": 136078, "pitch": 76, "duration": 251, "velocity": 86}, {"time": 136319, "pitch": 74, "duration": 261, "velocity": 91}, {"time": 136560, "pitch": 78, "duration": 451, "velocity": 92}, {"time": 137041, "pitch": 81, "duration": 261, "velocity": 84}, {"time": 137282, "pitch": 78, "duration": 425, "velocity": 90}, {"time": 137997, "pitch": 78, "duration": 251, "velocity": 98}, {"time": 138238, "pitch": 76, "duration": 221, "velocity": 86}, {"time": 138479, "pitch": 78, "duration": 110, "velocity": 88}, {"time": 138599, "pitch": 76, "duration": 121, "velocity": 82}, {"time": 138720, "pitch": 74, "duration": 732, "velocity": 92}, {"time": 139683, "pitch": 74, "duration": 227, "velocity": 90}, {"time": 139920, "pitch": 71, "duration": 468, "velocity": 87}, {"time": 140398, "pitch": 74, "duration": 1184, "velocity": 96}, {"time": 141843, "pitch": 69, "duration": 240, "velocity": 90}, {"time": 142083, "pitch": 68, "duration": 247, "velocity": 87}, {"time": 142321, "pitch": 67, "duration": 518, "velocity": 89}, {"time": 142798, "pitch": 76, "duration": 1610, "velocity": 91}, {"time": 144717, "pitch": 78, "duration": 231, "velocity": 96}, {"time": 144958, "pitch": 74, "duration": 91, "velocity": 90}, {"time": 145199, "pitch": 74, "duration": 512, "velocity": 91}, {"time": 145681, "pitch": 76, "duration": 561, "velocity": 86}, {"time": 146403, "pitch": 78, "duration": 109, "velocity": 101}, {"time": 146640, "pitch": 78, "duration": 388, "velocity": 101}, {"time": 147118, "pitch": 78, "duration": 441, "velocity": 99}, {"time": 147600, "pitch": 76, "duration": 260, "velocity": 86}, {"time": 147840, "pitch": 74, "duration": 251, "velocity": 90}, {"time": 148081, "pitch": 78, "duration": 472, "velocity": 98}, {"time": 148563, "pitch": 81, "duration": 280, "velocity": 85}, {"time": 148804, "pitch": 78, "duration": 484, "velocity": 91}, {"time": 149519, "pitch": 74, "duration": 291, "velocity": 93}, {"time": 149759, "pitch": 76, "duration": 492, "velocity": 88}, {"time": 150241, "pitch": 78, "duration": 371, "velocity": 96}, {"time": 150723, "pitch": 78, "duration": 118, "velocity": 95}, {"time": 150960, "pitch": 78, "duration": 457, "velocity": 97}, {"time": 151438, "pitch": 76, "duration": 250, "velocity": 90}, {"time": 151678, "pitch": 74, "duration": 261, "velocity": 92}, {"time": 151919, "pitch": 78, "duration": 442, "velocity": 94}, {"time": 152401, "pitch": 81, "duration": 511, "velocity": 88}, {"time": 152882, "pitch": 83, "duration": 458, "velocity": 97}, {"time": 153360, "pitch": 81, "duration": 247, "velocity": 84}, {"time": 153597, "pitch": 78, "duration": 221, "velocity": 96}, {"time": 153838, "pitch": 76, "duration": 241, "velocity": 86}, {"time": 154079, "pitch": 74, "duration": 752, "velocity": 92}, {"time": 155042, "pitch": 74, "duration": 237, "velocity": 98}, {"time": 155279, "pitch": 71, "duration": 488, "velocity": 102}, {"time": 155757, "pitch": 74, "duration": 1184, "velocity": 99}, {"time": 157202, "pitch": 69, "duration": 231, "velocity": 92}, {"time": 157443, "pitch": 68, "duration": 257, "velocity": 92}, {"time": 157680, "pitch": 67, "duration": 508, "velocity": 91}, {"time": 158158, "pitch": 76, "duration": 1214, "velocity": 90}, {"time": 159602, "pitch": 76, "duration": 251, "velocity": 87}, {"time": 159843, "pitch": 79, "duration": 445, "velocity": 98}, {"time": 160318, "pitch": 78, "duration": 220, "velocity": 95}, {"time": 160558, "pitch": 74, "duration": 181, "velocity": 92}, {"time": 160799, "pitch": 74, "duration": 241, "velocity": 95}, {"time": 161040, "pitch": 70, "duration": 221, "velocity": 90}, {"time": 161281, "pitch": 70, "duration": 240, "velocity": 93}, {"time": 161521, "pitch": 74, "duration": 2140, "velocity": 102}, {"time": 165600, "pitch": 78, "duration": 121, "velocity": 98}, {"time": 165841, "pitch": 78, "duration": 321, "velocity": 98}, {"time": 166323, "pitch": 78, "duration": 438, "velocity": 98}, {"time": 166800, "pitch": 76, "duration": 248, "velocity": 91}, {"time": 167038, "pitch": 74, "duration": 271, "velocity": 96}, {"time": 167278, "pitch": 78, "duration": 462, "velocity": 97}, {"time": 167760, "pitch": 81, "duration": 271, "velocity": 86}, {"time": 168001, "pitch": 78, "duration": 501, "velocity": 98}, {"time": 168719, "pitch": 74, "duration": 268, "velocity": 94}, {"time": 168957, "pitch": 76, "duration": 471, "velocity": 92}, {"time": 169438, "pitch": 78, "duration": 351, "velocity": 95}, {"time": 169920, "pitch": 78, "duration": 90, "velocity": 94}, {"time": 170161, "pitch": 78, "duration": 441, "velocity": 102}, {"time": 170642, "pitch": 76, "duration": 241, "velocity": 88}, {"time": 170883, "pitch": 74, "duration": 237, "velocity": 88}, {"time": 171120, "pitch": 78, "duration": 438, "velocity": 99}, {"time": 171598, "pitch": 81, "duration": 281, "velocity": 85}, {"time": 171839, "pitch": 78, "duration": 471, "velocity": 99}, {"time": 172561, "pitch": 78, "duration": 241, "velocity": 99}, {"time": 172802, "pitch": 76, "duration": 231, "velocity": 85}, {"time": 173043, "pitch": 78, "duration": 80, "velocity": 94}, {"time": 173163, "pitch": 76, "duration": 110, "velocity": 93}, {"time": 173283, "pitch": 74, "duration": 736, "velocity": 90}, {"time": 174239, "pitch": 74, "duration": 241, "velocity": 94}, {"time": 174480, "pitch": 71, "duration": 512, "velocity": 97}, {"time": 174962, "pitch": 74, "duration": 1136, "velocity": 98}, {"time": 176399, "pitch": 69, "duration": 231, "velocity": 83}, {"time": 176640, "pitch": 68, "duration": 261, "velocity": 90}, {"time": 176881, "pitch": 67, "duration": 501, "velocity": 92}, {"time": 177362, "pitch": 76, "duration": 1678, "velocity": 96}, {"time": 179281, "pitch": 78, "duration": 221, "velocity": 100}, {"time": 179522, "pitch": 74, "duration": 141, "velocity": 86}, {"time": 179763, "pitch": 74, "duration": 527, "velocity": 93}, {"time": 180241, "pitch": 76, "duration": 518, "velocity": 90}, {"time": 180959, "pitch": 78, "duration": 121, "velocity": 98}, {"time": 181200, "pitch": 78, "duration": 382, "velocity": 99}, {"time": 181682, "pitch": 78, "duration": 488, "velocity": 104}, {"time": 182160, "pitch": 76, "duration": 237, "velocity": 90}, {"time": 182397, "pitch": 74, "duration": 261, "velocity": 94}, {"time": 182638, "pitch": 78, "duration": 431, "velocity": 100}, {"time": 183119, "pitch": 81, "duration": 281, "velocity": 85}, {"time": 183360, "pitch": 78, "duration": 542, "velocity": 97}, {"time": 184082, "pitch": 74, "duration": 281, "velocity": 97}, {"time": 184323, "pitch": 76, "duration": 484, "velocity": 94}, {"time": 184797, "pitch": 78, "duration": 372, "velocity": 99}, {"time": 185279, "pitch": 78, "duration": 100, "velocity": 98}, {"time": 185520, "pitch": 78, "duration": 461, "velocity": 101}, {"time": 186001, "pitch": 76, "duration": 231, "velocity": 91}, {"time": 186242, "pitch": 74, "duration": 267, "velocity": 89}, {"time": 186479, "pitch": 78, "duration": 448, "velocity": 99}, {"time": 186957, "pitch": 81, "duration": 492, "velocity": 91}, {"time": 187439, "pitch": 83, "duration": 451, "velocity": 98}, {"time": 187920, "pitch": 81, "duration": 261, "velocity": 88}, {"time": 188161, "pitch": 78, "duration": 221, "velocity": 98}, {"time": 188402, "pitch": 76, "duration": 241, "velocity": 88}, {"time": 188643, "pitch": 74, "duration": 775, "velocity": 93}, {"time": 189599, "pitch": 74, "duration": 240, "velocity": 97}, {"time": 189839, "pitch": 71, "duration": 482, "velocity": 91}, {"time": 190321, "pitch": 74, "duration": 1177, "velocity": 99}, {"time": 191758, "pitch": 69, "duration": 251, "velocity": 91}, {"time": 191999, "pitch": 68, "duration": 261, "velocity": 91}, {"time": 192240, "pitch": 67, "duration": 492, "velocity": 92}, {"time": 192722, "pitch": 76, "duration": 1246, "velocity": 95}, {"time": 194159, "pitch": 76, "duration": 251, "velocity": 95}, {"time": 194400, "pitch": 79, "duration": 461, "velocity": 101}, {"time": 194881, "pitch": 78, "duration": 241, "velocity": 98}, {"time": 195122, "pitch": 74, "duration": 439, "velocity": 84}, {"time": 195600, "pitch": 70, "duration": 237, "velocity": 91}, {"time": 195837, "pitch": 70, "duration": 271, "velocity": 82}, {"time": 196078, "pitch": 74, "duration": 2140, "velocity": 98}, {"time": 479, "pitch": 76, "duration": 221, "velocity": 95}, {"time": 720, "pitch": 67, "duration": 221, "velocity": 83}, {"time": 961, "pitch": 71, "duration": 220, "velocity": 89}, {"time": 1201, "pitch": 76, "duration": 221, "velocity": 81}, {"time": 1442, "pitch": 77, "duration": 218, "velocity": 89}, {"time": 1679, "pitch": 69, "duration": 218, "velocity": 85}, {"time": 1916, "pitch": 72, "duration": 221, "velocity": 90}, {"time": 2157, "pitch": 77, "duration": 221, "velocity": 81}, {"time": 2398, "pitch": 79, "duration": 221, "velocity": 92}, {"time": 2639, "pitch": 71, "duration": 220, "velocity": 86}, {"time": 2880, "pitch": 74, "duration": 220, "velocity": 94}, {"time": 3120, "pitch": 79, "duration": 221, "velocity": 88}, {"time": 3361, "pitch": 77, "duration": 221, "velocity": 92}, {"time": 3602, "pitch": 69, "duration": 221, "velocity": 80}, {"time": 3843, "pitch": 72, "duration": 217, "velocity": 89}, {"time": 4080, "pitch": 77, "duration": 217, "velocity": 82}, {"time": 4317, "pitch": 76, "duration": 221, "velocity": 91}, {"time": 4558, "pitch": 67, "duration": 220, "velocity": 83}, {"time": 4799, "pitch": 71, "duration": 220, "velocity": 90}, {"time": 5039, "pitch": 76, "duration": 221, "velocity": 82}, {"time": 5280, "pitch": 77, "duration": 221, "velocity": 90}, {"time": 5521, "pitch": 69, "duration": 221, "velocity": 85}, {"time": 5762, "pitch": 72, "duration": 220, "velocity": 89}, {"time": 6003, "pitch": 77, "duration": 220, "velocity": 85}, {"time": 6243, "pitch": 79, "duration": 218, "velocity": 92}, {"time": 6480, "pitch": 71, "duration": 218, "velocity": 85}, {"time": 6718, "pitch": 74, "duration": 220, "velocity": 94}, {"time": 6958, "pitch": 79, "duration": 221, "velocity": 89}, {"time": 7199, "pitch": 77, "duration": 221, "velocity": 93}, {"time": 7440, "pitch": 69, "duration": 221, "velocity": 84}, {"time": 7681, "pitch": 72, "duration": 220, "velocity": 92}, {"time": 7922, "pitch": 77, "duration": 220, "velocity": 82}, {"time": 8162, "pitch": 76, "duration": 218, "velocity": 92}, {"time": 8399, "pitch": 67, "duration": 218, "velocity": 87}, {"time": 8637, "pitch": 71, "duration": 220, "velocity": 90}, {"time": 8877, "pitch": 76, "duration": 221, "velocity": 78}, {"time": 9118, "pitch": 77, "duration": 221, "velocity": 90}, {"time": 9359, "pitch": 69, "duration": 221, "velocity": 84}, {"time": 9600, "pitch": 72, "duration": 220, "velocity": 87}, {"time": 9840, "pitch": 77, "duration": 221, "velocity": 84}, {"time": 10081, "pitch": 79, "duration": 221, "velocity": 94}, {"time": 10322, "pitch": 71, "duration": 221, "velocity": 81}, {"time": 10563, "pitch": 74, "duration": 217, "velocity": 92}, {"time": 10800, "pitch": 79, "duration": 217, "velocity": 86}, {"time": 11037, "pitch": 77, "duration": 221, "velocity": 91}, {"time": 11278, "pitch": 69, "duration": 221, "velocity": 81}, {"time": 11519, "pitch": 72, "duration": 220, "velocity": 91}, {"time": 11759, "pitch": 77, "duration": 221, "velocity": 84}, {"time": 12000, "pitch": 76, "duration": 221, "velocity": 91}, {"time": 12241, "pitch": 67, "duration": 221, "velocity": 82}, {"time": 12482, "pitch": 71, "duration": 221, "velocity": 89}, {"time": 12723, "pitch": 76, "duration": 220, "velocity": 83}, {"time": 12963, "pitch": 77, "duration": 218, "velocity": 90}, {"time": 13201, "pitch": 69, "duration": 217, "velocity": 85}, {"time": 13438, "pitch": 72, "duration": 220, "velocity": 91}, {"time": 13678, "pitch": 77, "duration": 221, "velocity": 84}, {"time": 13919, "pitch": 79, "duration": 221, "velocity": 93}, {"time": 14160, "pitch": 71, "duration": 221, "velocity": 84}, {"time": 14401, "pitch": 74, "duration": 221, "velocity": 91}, {"time": 14642, "pitch": 79, "duration": 220, "velocity": 88}, {"time": 14882, "pitch": 77, "duration": 218, "velocity": 92}, {"time": 15120, "pitch": 69, "duration": 217, "velocity": 81}, {"time": 15357, "pitch": 72, "duration": 220, "velocity": 85}, {"time": 15597, "pitch": 77, "duration": 221, "velocity": 70}, {"time": 15838, "pitch": 76, "duration": 482, "velocity": 85}, {"time": 81361, "pitch": 60, "duration": 101, "velocity": 91}, {"time": 81482, "pitch": 62, "duration": 100, "velocity": 82}, {"time": 81602, "pitch": 63, "duration": 99, "velocity": 91}, {"time": 81721, "pitch": 65, "duration": 99, "velocity": 85}, {"time": 81839, "pitch": 67, "duration": 99, "velocity": 91}, {"time": 81958, "pitch": 69, "duration": 99, "velocity": 86}, {"time": 82076, "pitch": 70, "duration": 101, "velocity": 84}, {"time": 82197, "pitch": 72, "duration": 100, "velocity": 93}, {"time": 82317, "pitch": 74, "duration": 101, "velocity": 92}, {"time": 82438, "pitch": 75, "duration": 100, "velocity": 97}, {"time": 82558, "pitch": 77, "duration": 100, "velocity": 90}, {"time": 82678, "pitch": 79, "duration": 101, "velocity": 97}, {"time": 82799, "pitch": 81, "duration": 100, "velocity": 94}, {"time": 82919, "pitch": 82, "duration": 101, "velocity": 92}, {"time": 83040, "pitch": 84, "duration": 220, "velocity": 95}, {"time": 83280, "pitch": 75, "duration": 221, "velocity": 91}, {"time": 83521, "pitch": 79, "duration": 221, "velocity": 87}, {"time": 83762, "pitch": 84, "duration": 448, "velocity": 97}, {"time": 84240, "pitch": 75, "duration": 217, "velocity": 94}, {"time": 84477, "pitch": 79, "duration": 221, "velocity": 89}, {"time": 84718, "pitch": 84, "duration": 221, "velocity": 91}, {"time": 84959, "pitch": 82, "duration": 220, "velocity": 100}, {"time": 85199, "pitch": 74, "duration": 221, "velocity": 93}, {"time": 85440, "pitch": 77, "duration": 221, "velocity": 87}, {"time": 85681, "pitch": 82, "duration": 451, "velocity": 96}, {"time": 86163, "pitch": 74, "duration": 220, "velocity": 88}, {"time": 86403, "pitch": 77, "duration": 218, "velocity": 94}, {"time": 86640, "pitch": 82, "duration": 218, "velocity": 97}, {"time": 86878, "pitch": 80, "duration": 220, "velocity": 88}, {"time": 87118, "pitch": 72, "duration": 221, "velocity": 94}, {"time": 87359, "pitch": 75, "duration": 221, "velocity": 90}, {"time": 87600, "pitch": 80, "duration": 451, "velocity": 95}, {"time": 88082, "pitch": 72, "duration": 220, "velocity": 92}, {"time": 88322, "pitch": 75, "duration": 218, "velocity": 99}, {"time": 88559, "pitch": 80, "duration": 218, "velocity": 94}, {"time": 88797, "pitch": 79, "duration": 220, "velocity": 91}, {"time": 89037, "pitch": 70, "duration": 221, "velocity": 95}, {"time": 89278, "pitch": 74, "duration": 221, "velocity": 91}, {"time": 89519, "pitch": 79, "duration": 451, "velocity": 95}, {"time": 90001, "pitch": 70, "duration": 220, "velocity": 86}, {"time": 90241, "pitch": 79, "duration": 221, "velocity": 96}, {"time": 90482, "pitch": 80, "duration": 221, "velocity": 90}, {"time": 90723, "pitch": 81, "duration": 217, "velocity": 92}, {"time": 90960, "pitch": 72, "duration": 217, "velocity": 93}, {"time": 91197, "pitch": 76, "duration": 221, "velocity": 86}, {"time": 91438, "pitch": 81, "duration": 451, "velocity": 95}, {"time": 91920, "pitch": 72, "duration": 220, "velocity": 86}, {"time": 92160, "pitch": 76, "duration": 221, "velocity": 93}, {"time": 92401, "pitch": 81, "duration": 221, "velocity": 87}, {"time": 92642, "pitch": 79, "duration": 221, "velocity": 93}, {"time": 92883, "pitch": 71, "duration": 220, "velocity": 95}, {"time": 93123, "pitch": 74, "duration": 218, "velocity": 90}, {"time": 93361, "pitch": 79, "duration": 447, "velocity": 96}, {"time": 93838, "pitch": 71, "duration": 221, "velocity": 91}, {"time": 94079, "pitch": 74, "duration": 221, "velocity": 96}, {"time": 94320, "pitch": 79, "duration": 221, "velocity": 91}, {"time": 94561, "pitch": 77, "duration": 221, "velocity": 93}, {"time": 94802, "pitch": 69, "duration": 220, "velocity": 92}, {"time": 95042, "pitch": 72, "duration": 218, "velocity": 88}, {"time": 95280, "pitch": 77, "duration": 1200, "velocity": 96}, {"time": 198238, "pitch": 78, "duration": 220, "velocity": 93}, {"time": 198479, "pitch": 69, "duration": 220, "velocity": 81}, {"time": 198719, "pitch": 73, "duration": 221, "velocity": 87}, {"time": 198960, "pitch": 78, "duration": 221, "velocity": 83}, {"time": 199201, "pitch": 79, "duration": 221, "velocity": 91}, {"time": 199442, "pitch": 71, "duration": 220, "velocity": 82}, {"time": 199682, "pitch": 74, "duration": 218, "velocity": 91}, {"time": 199920, "pitch": 79, "duration": 217, "velocity": 87}, {"time": 200157, "pitch": 81, "duration": 220, "velocity": 91}, {"time": 200397, "pitch": 73, "duration": 221, "velocity": 85}, {"time": 200638, "pitch": 76, "duration": 221, "velocity": 89}, {"time": 200879, "pitch": 81, "duration": 221, "velocity": 80}, {"time": 201120, "pitch": 79, "duration": 221, "velocity": 89}, {"time": 201361, "pitch": 71, "duration": 220, "velocity": 84}, {"time": 201601, "pitch": 74, "duration": 221, "velocity": 91}, {"time": 201842, "pitch": 79, "duration": 221, "velocity": 81}, {"time": 202083, "pitch": 78, "duration": 217, "velocity": 93}, {"time": 202320, "pitch": 69, "duration": 218, "velocity": 81}, {"time": 202557, "pitch": 73, "duration": 221, "velocity": 87}, {"time": 202798, "pitch": 78, "duration": 221, "velocity": 83}, {"time": 203039, "pitch": 79, "duration": 221, "velocity": 91}, {"time": 203280, "pitch": 71, "duration": 220, "velocity": 82}, {"time": 203520, "pitch": 74, "duration": 221, "velocity": 91}, {"time": 203761, "pitch": 79, "duration": 221, "velocity": 87}, {"time": 204002, "pitch": 81, "duration": 221, "velocity": 91}, {"time": 204243, "pitch": 73, "duration": 221, "velocity": 85}, {"time": 204484, "pitch": 76, "duration": 217, "velocity": 89}, {"time": 204721, "pitch": 81, "duration": 217, "velocity": 80}, {"time": 204958, "pitch": 79, "duration": 221, "velocity": 89}, {"time": 205199, "pitch": 71, "duration": 220, "velocity": 84}, {"time": 205439, "pitch": 74, "duration": 221, "velocity": 91}, {"time": 205680, "pitch": 79, "duration": 221, "velocity": 81}, {"time": 205921, "pitch": 78, "duration": 221, "velocity": 93}, {"time": 206162, "pitch": 69, "duration": 221, "velocity": 81}, {"time": 206403, "pitch": 73, "duration": 217, "velocity": 87}, {"time": 206640, "pitch": 78, "duration": 217, "velocity": 83}, {"time": 206877, "pitch": 79, "duration": 221, "velocity": 91}, {"time": 207118, "pitch": 71, "duration": 220, "velocity": 82}, {"time": 207358, "pitch": 74, "duration": 221, "velocity": 91}, {"time": 207599, "pitch": 79, "duration": 221, "velocity": 87}, {"time": 207840, "pitch": 81, "duration": 221, "velocity": 91}, {"time": 208081, "pitch": 73, "duration": 221, "velocity": 85}, {"time": 208322, "pitch": 76, "duration": 220, "velocity": 89}, {"time": 208562, "pitch": 81, "duration": 221, "velocity": 80}, {"time": 208803, "pitch": 79, "duration": 218, "velocity": 89}, {"time": 209040, "pitch": 71, "duration": 218, "velocity": 84}, {"time": 209277, "pitch": 74, "duration": 221, "velocity": 91}, {"time": 209518, "pitch": 79, "duration": 221, "velocity": 81}, {"time": 209759, "pitch": 78, "duration": 221, "velocity": 93}, {"time": 210000, "pitch": 69, "duration": 221, "velocity": 81}, {"time": 210241, "pitch": 73, "duration": 220, "velocity": 87}, {"time": 210481, "pitch": 78, "duration": 221, "velocity": 83}, {"time": 210722, "pitch": 79, "duration": 218, "velocity": 91}, {"time": 210959, "pitch": 71, "duration": 218, "velocity": 82}, {"time": 211196, "pitch": 74, "duration": 221, "velocity": 91}, {"time": 211437, "pitch": 79, "duration": 221, "velocity": 87}, {"time": 211678, "pitch": 81, "duration": 221, "velocity": 91}, {"time": 211919, "pitch": 73, "duration": 221, "velocity": 85}, {"time": 212160, "pitch": 76, "duration": 220, "velocity": 89}, {"time": 212400, "pitch": 81, "duration": 221, "velocity": 80}, {"time": 212641, "pitch": 79, "duration": 218, "velocity": 89}, {"time": 212878, "pitch": 71, "duration": 218, "velocity": 84}, {"time": 213115, "pitch": 74, "duration": 218, "velocity": 91}, {"time": 213353, "pitch": 79, "duration": 217, "velocity": 81}, {"time": 213590, "pitch": 78, "duration": 217, "velocity": 93}, {"time": 213827, "pitch": 69, "duration": 217, "velocity": 81}, {"time": 214064, "pitch": 73, "duration": 217, "velocity": 87}, {"time": 214301, "pitch": 78, "duration": 218, "velocity": 83}, {"time": 214538, "pitch": 79, "duration": 218, "velocity": 91}, {"time": 214775, "pitch": 71, "duration": 218, "velocity": 82}, {"time": 215013, "pitch": 74, "duration": 217, "velocity": 91}, {"time": 215250, "pitch": 79, "duration": 217, "velocity": 87}, {"time": 215487, "pitch": 81, "duration": 217, "velocity": 91}, {"time": 215724, "pitch": 73, "duration": 217, "velocity": 85}, {"time": 215961, "pitch": 76, "duration": 218, "velocity": 89}, {"time": 216198, "pitch": 81, "duration": 218, "velocity": 80}, {"time": 216436, "pitch": 79, "duration": 217, "velocity": 89}, {"time": 216673, "pitch": 71, "duration": 217, "velocity": 84}, {"time": 216910, "pitch": 74, "duration": 217, "velocity": 91}, {"time": 217147, "pitch": 79, "duration": 217, "velocity": 81}, {"time": 31198, "pitch": 59, "duration": 1909, "velocity": 75}, {"time": 31198, "pitch": 62, "duration": 1909, "velocity": 79}, {"time": 31198, "pitch": 67, "duration": 1909, "velocity": 91}, {"time": 33117, "pitch": 55, "duration": 1645, "velocity": 74}, {"time": 33117, "pitch": 60, "duration": 1655, "velocity": 76}, {"time": 33117, "pitch": 64, "duration": 1635, "velocity": 89}, {"time": 34802, "pitch": 57, "duration": 916, "velocity": 83}, {"time": 34802, "pitch": 60, "duration": 916, "velocity": 91}, {"time": 35758, "pitch": 57, "duration": 943, "velocity": 76}, {"time": 35758, "pitch": 60, "duration": 943, "velocity": 91}, {"time": 36721, "pitch": 59, "duration": 1357, "velocity": 70}, {"time": 36721, "pitch": 64, "duration": 1357, "velocity": 88}, {"time": 43200, "pitch": 65, "duration": 492, "velocity": 110}, {"time": 43682, "pitch": 69, "duration": 491, "velocity": 104}, {"time": 44164, "pitch": 72, "duration": 474, "velocity": 107}, {"time": 44638, "pitch": 71, "duration": 973, "velocity": 110}, {"time": 45601, "pitch": 69, "duration": 491, "velocity": 110}, {"time": 46083, "pitch": 67, "duration": 474, "velocity": 107}, {"time": 46557, "pitch": 69, "duration": 1535, "velocity": 108}, {"time": 48957, "pitch": 74, "duration": 933, "velocity": 113}, {"time": 49921, "pitch": 74, "duration": 240, "velocity": 111}, {"time": 50161, "pitch": 73, "duration": 1689, "velocity": 108}, {"time": 52803, "pitch": 73, "duration": 925, "velocity": 112}, {"time": 53758, "pitch": 73, "duration": 221, "velocity": 110}, {"time": 53999, "pitch": 72, "duration": 1729, "velocity": 106}, {"time": 56159, "pitch": 71, "duration": 963, "velocity": 113}, {"time": 57122, "pitch": 67, "duration": 715, "velocity": 111}, {"time": 57837, "pitch": 69, "duration": 723, "velocity": 107}, {"time": 58560, "pitch": 71, "duration": 511, "velocity": 111}, {"time": 59041, "pitch": 73, "duration": 492, "velocity": 111}, {"time": 59523, "pitch": 74, "duration": 1196, "velocity": 113}, {"time": 60719, "pitch": 67, "duration": 1204, "velocity": 108}, {"time": 61923, "pitch": 74, "duration": 705, "velocity": 105}, {"time": 62638, "pitch": 71, "duration": 482, "velocity": 108}, {"time": 63120, "pitch": 73, "duration": 722, "velocity": 107}, {"time": 64317, "pitch": 74, "duration": 933, "velocity": 113}, {"time": 65280, "pitch": 74, "duration": 241, "velocity": 111}, {"time": 65521, "pitch": 73, "duration": 1688, "velocity": 108}, {"time": 68162, "pitch": 73, "duration": 926, "velocity": 112}, {"time": 69118, "pitch": 73, "duration": 220, "velocity": 110}, {"time": 69359, "pitch": 72, "duration": 1728, "velocity": 106}, {"time": 71518, "pitch": 71, "duration": 963, "velocity": 113}, {"time": 72481, "pitch": 67, "duration": 719, "velocity": 111}, {"time": 73200, "pitch": 69, "duration": 719, "velocity": 107}, {"time": 73919, "pitch": 71, "duration": 512, "velocity": 111}, {"time": 74400, "pitch": 73, "duration": 492, "velocity": 111}, {"time": 74882, "pitch": 74, "duration": 1197, "velocity": 113}, {"time": 76079, "pitch": 67, "duration": 722, "velocity": 103}, {"time": 76801, "pitch": 69, "duration": 482, "velocity": 105}, {"time": 77283, "pitch": 70, "duration": 1507, "velocity": 107}, {"time": 78961, "pitch": 67, "duration": 4079, "velocity": 104}, {"time": 113758, "pitch": 59, "duration": 1909, "velocity": 96}, {"time": 113758, "pitch": 62, "duration": 1909, "velocity": 100}, {"time": 113758, "pitch": 67, "duration": 1909, "velocity": 112}, {"time": 115677, "pitch": 55, "duration": 1646, "velocity": 95}, {"time": 115677, "pitch": 60, "duration": 1656, "velocity": 97}, {"time": 115677, "pitch": 64, "duration": 1635, "velocity": 110}, {"time": 117363, "pitch": 57, "duration": 915, "velocity": 104}, {"time": 117363, "pitch": 60, "duration": 915, "velocity": 112}, {"time": 118318, "pitch": 57, "duration": 944, "velocity": 97}, {"time": 118318, "pitch": 60, "duration": 944, "velocity": 112}, {"time": 119282, "pitch": 59, "duration": 1357, "velocity": 91}, {"time": 119282, "pitch": 64, "duration": 1357, "velocity": 109}, {"time": 125761, "pitch": 65, "duration": 491, "velocity": 110}, {"time": 126243, "pitch": 69, "duration": 484, "velocity": 104}, {"time": 126717, "pitch": 72, "duration": 481, "velocity": 107}, {"time": 127198, "pitch": 71, "duration": 974, "velocity": 110}, {"time": 128162, "pitch": 69, "duration": 491, "velocity": 110}, {"time": 128643, "pitch": 67, "duration": 474, "velocity": 107}, {"time": 129117, "pitch": 69, "duration": 1534, "velocity": 108}, {"time": 131518, "pitch": 74, "duration": 933, "velocity": 113}, {"time": 132481, "pitch": 74, "duration": 241, "velocity": 111}, {"time": 132722, "pitch": 73, "duration": 1688, "velocity": 108}, {"time": 135363, "pitch": 73, "duration": 926, "velocity": 112}, {"time": 136319, "pitch": 73, "duration": 221, "velocity": 110}, {"time": 136560, "pitch": 72, "duration": 1728, "velocity": 106}, {"time": 138720, "pitch": 71, "duration": 963, "velocity": 113}, {"time": 139683, "pitch": 67, "duration": 715, "velocity": 111}, {"time": 140398, "pitch": 69, "duration": 722, "velocity": 107}, {"time": 141120, "pitch": 71, "duration": 512, "velocity": 111}, {"time": 141602, "pitch": 73, "duration": 491, "velocity": 111}, {"time": 142083, "pitch": 74, "duration": 1197, "velocity": 113}, {"time": 143280, "pitch": 67, "duration": 1197, "velocity": 108}, {"time": 144477, "pitch": 74, "duration": 712, "velocity": 105}, {"time": 145199, "pitch": 71, "duration": 482, "velocity": 108}, {"time": 145681, "pitch": 73, "duration": 722, "velocity": 107}, {"time": 146877, "pitch": 74, "duration": 933, "velocity": 113}, {"time": 147840, "pitch": 74, "duration": 241, "velocity": 111}, {"time": 148081, "pitch": 73, "duration": 1688, "velocity": 108}, {"time": 150723, "pitch": 73, "duration": 925, "velocity": 112}, {"time": 151678, "pitch": 73, "duration": 221, "velocity": 110}, {"time": 151919, "pitch": 72, "duration": 1728, "velocity": 106}, {"time": 154079, "pitch": 71, "duration": 963, "velocity": 113}, {"time": 155042, "pitch": 67, "duration": 715, "velocity": 111}, {"time": 155757, "pitch": 69, "duration": 723, "velocity": 107}, {"time": 156480, "pitch": 71, "duration": 511, "velocity": 111}, {"time": 156961, "pitch": 73, "duration": 492, "velocity": 111}, {"time": 157443, "pitch": 74, "duration": 1196, "velocity": 113}, {"time": 158639, "pitch": 67, "duration": 723, "velocity": 103}, {"time": 159362, "pitch": 69, "duration": 481, "velocity": 105}, {"time": 159843, "pitch": 70, "duration": 1508, "velocity": 107}, {"time": 162237, "pitch": 67, "duration": 501, "velocity": 105}, {"time": 162718, "pitch": 71, "duration": 502, "velocity": 106}, {"time": 163200, "pitch": 74, "duration": 471, "velocity": 110}, {"time": 163681, "pitch": 74, "duration": 976, "velocity": 106}, {"time": 164637, "pitch": 73, "duration": 963, "velocity": 102}, {"time": 166082, "pitch": 74, "duration": 926, "velocity": 113}, {"time": 167038, "pitch": 74, "duration": 240, "velocity": 111}, {"time": 167278, "pitch": 73, "duration": 1689, "velocity": 108}, {"time": 169920, "pitch": 73, "duration": 933, "velocity": 112}, {"time": 170883, "pitch": 73, "duration": 217, "velocity": 110}, {"time": 171120, "pitch": 72, "duration": 1732, "velocity": 106}, {"time": 173283, "pitch": 71, "duration": 956, "velocity": 113}, {"time": 174239, "pitch": 67, "duration": 723, "velocity": 111}, {"time": 174962, "pitch": 69, "duration": 715, "velocity": 107}, {"time": 175677, "pitch": 71, "duration": 511, "velocity": 111}, {"time": 176158, "pitch": 73, "duration": 492, "velocity": 111}, {"time": 176640, "pitch": 74, "duration": 1200, "velocity": 113}, {"time": 177840, "pitch": 67, "duration": 1200, "velocity": 108}, {"time": 179040, "pitch": 74, "duration": 713, "velocity": 105}, {"time": 179763, "pitch": 71, "duration": 478, "velocity": 108}, {"time": 180241, "pitch": 73, "duration": 718, "velocity": 107}, {"time": 181441, "pitch": 74, "duration": 926, "velocity": 113}, {"time": 182397, "pitch": 74, "duration": 241, "velocity": 111}, {"time": 182638, "pitch": 73, "duration": 1695, "velocity": 108}, {"time": 185279, "pitch": 73, "duration": 933, "velocity": 112}, {"time": 186242, "pitch": 73, "duration": 218, "velocity": 110}, {"time": 186479, "pitch": 72, "duration": 1732, "velocity": 106}, {"time": 188643, "pitch": 71, "duration": 956, "velocity": 113}, {"time": 189599, "pitch": 67, "duration": 722, "velocity": 111}, {"time": 190321, "pitch": 69, "duration": 722, "velocity": 107}, {"time": 191043, "pitch": 71, "duration": 505, "velocity": 111}, {"time": 191518, "pitch": 73, "duration": 491, "velocity": 111}, {"time": 191999, "pitch": 74, "duration": 1200, "velocity": 113}, {"time": 193199, "pitch": 67, "duration": 719, "velocity": 103}, {"time": 193918, "pitch": 69, "duration": 482, "velocity": 105}, {"time": 194400, "pitch": 70, "duration": 1507, "velocity": 107}, {"time": 196078, "pitch": 69, "duration": 2160, "velocity": 104}, {"time": 479, "pitch": 84, "duration": 15359, "velocity": 83}, {"time": 22799, "pitch": 83, "duration": 251, "velocity": 77}, {"time": 23040, "pitch": 84, "duration": 261, "velocity": 72}, {"time": 23281, "pitch": 86, "duration": 251, "velocity": 81}, {"time": 23522, "pitch": 88, "duration": 1919, "velocity": 81}, {"time": 25441, "pitch": 86, "duration": 955, "velocity": 84}, {"time": 26396, "pitch": 84, "duration": 482, "velocity": 73}, {"time": 26878, "pitch": 83, "duration": 492, "velocity": 69}, {"time": 27360, "pitch": 81, "duration": 963, "velocity": 67}, {"time": 28323, "pitch": 83, "duration": 484, "velocity": 79}, {"time": 28797, "pitch": 84, "duration": 492, "velocity": 72}, {"time": 29279, "pitch": 86, "duration": 1563, "velocity": 69}, {"time": 48002, "pitch": 69, "duration": 90, "velocity": 98}, {"time": 48092, "pitch": 71, "duration": 80, "velocity": 79}, {"time": 48172, "pitch": 73, "duration": 70, "velocity": 83}, {"time": 48242, "pitch": 74, "duration": 61, "velocity": 88}, {"time": 48303, "pitch": 76, "duration": 60, "velocity": 83}, {"time": 48363, "pitch": 78, "duration": 60, "velocity": 81}, {"time": 48423, "pitch": 79, "duration": 60, "velocity": 85}, {"time": 48483, "pitch": 81, "duration": 7215, "velocity": 83}, {"time": 55678, "pitch": 86, "duration": 481, "velocity": 87}, {"time": 56159, "pitch": 86, "duration": 3043, "velocity": 79}, {"time": 63361, "pitch": 69, "duration": 90, "velocity": 98}, {"time": 63451, "pitch": 71, "duration": 80, "velocity": 79}, {"time": 63531, "pitch": 73, "duration": 71, "velocity": 83}, {"time": 63602, "pitch": 74, "duration": 60, "velocity": 88}, {"time": 63662, "pitch": 76, "duration": 60, "velocity": 83}, {"time": 63722, "pitch": 78, "duration": 60, "velocity": 81}, {"time": 63782, "pitch": 79, "duration": 60, "velocity": 85}, {"time": 63842, "pitch": 81, "duration": 7215, "velocity": 83}, {"time": 71037, "pitch": 86, "duration": 481, "velocity": 87}, {"time": 71518, "pitch": 86, "duration": 3364, "velocity": 79}, {"time": 78961, "pitch": 56, "duration": 4079, "velocity": 57}, {"time": 78961, "pitch": 63, "duration": 4079, "velocity": 66}, {"time": 78961, "pitch": 67, "duration": 4079, "velocity": 54}, {"time": 78961, "pitch": 74, "duration": 4079, "velocity": 71}, {"time": 78961, "pitch": 82, "duration": 4079, "velocity": 85}, {"time": 90241, "pitch": 79, "duration": 492, "velocity": 71}, {"time": 90723, "pitch": 91, "duration": 6399, "velocity": 70}, {"time": 105360, "pitch": 83, "duration": 251, "velocity": 77}, {"time": 105601, "pitch": 84, "duration": 260, "velocity": 72}, {"time": 105841, "pitch": 86, "duration": 251, "velocity": 81}, {"time": 106082, "pitch": 88, "duration": 1919, "velocity": 81}, {"time": 108001, "pitch": 86, "duration": 956, "velocity": 84}, {"time": 108957, "pitch": 84, "duration": 482, "velocity": 73}, {"time": 109439, "pitch": 83, "duration": 491, "velocity": 69}, {"time": 109920, "pitch": 81, "duration": 963, "velocity": 67}, {"time": 110883, "pitch": 83, "duration": 485, "velocity": 79}, {"time": 111358, "pitch": 84, "duration": 491, "velocity": 72}, {"time": 111839, "pitch": 86, "duration": 1558, "velocity": 69}, {"time": 130562, "pitch": 69, "duration": 89, "velocity": 98}, {"time": 130651, "pitch": 71, "duration": 79, "velocity": 79}, {"time": 130730, "pitch": 73, "duration": 69, "velocity": 83}, {"time": 130799, "pitch": 74, "duration": 60, "velocity": 88}, {"time": 130859, "pitch": 76, "duration": 59, "velocity": 83}, {"time": 130918, "pitch": 78, "duration": 59, "velocity": 81}, {"time": 130977, "pitch": 79, "duration": 59, "velocity": 85}, {"time": 131036, "pitch": 81, "duration": 7222, "velocity": 83}, {"time": 138238, "pitch": 86, "duration": 482, "velocity": 87}, {"time": 138720, "pitch": 86, "duration": 3042, "velocity": 79}, {"time": 145921, "pitch": 69, "duration": 91, "velocity": 98}, {"time": 146012, "pitch": 71, "duration": 80, "velocity": 79}, {"time": 146092, "pitch": 73, "duration": 70, "velocity": 83}, {"time": 146162, "pitch": 74, "duration": 60, "velocity": 88}, {"time": 146222, "pitch": 76, "duration": 61, "velocity": 83}, {"time": 146283, "pitch": 78, "duration": 60, "velocity": 81}, {"time": 146343, "pitch": 79, "duration": 60, "velocity": 85}, {"time": 146403, "pitch": 81, "duration": 7214, "velocity": 83}, {"time": 153597, "pitch": 86, "duration": 482, "velocity": 87}, {"time": 154079, "pitch": 86, "duration": 3364, "velocity": 79}, {"time": 161521, "pitch": 59, "duration": 2160, "velocity": 52}, {"time": 161521, "pitch": 62, "duration": 2160, "velocity": 65}, {"time": 161521, "pitch": 67, "duration": 2160, "velocity": 74}, {"time": 165119, "pitch": 69, "duration": 90, "velocity": 98}, {"time": 165209, "pitch": 71, "duration": 80, "velocity": 79}, {"time": 165289, "pitch": 73, "duration": 70, "velocity": 83}, {"time": 165359, "pitch": 74, "duration": 61, "velocity": 88}, {"time": 165420, "pitch": 76, "duration": 60, "velocity": 83}, {"time": 165480, "pitch": 78, "duration": 60, "velocity": 81}, {"time": 165540, "pitch": 79, "duration": 60, "velocity": 85}, {"time": 165600, "pitch": 81, "duration": 7222, "velocity": 83}, {"time": 172802, "pitch": 86, "duration": 481, "velocity": 87}, {"time": 173283, "pitch": 86, "duration": 3036, "velocity": 79}, {"time": 180478, "pitch": 69, "duration": 90, "velocity": 98}, {"time": 180568, "pitch": 71, "duration": 80, "velocity": 79}, {"time": 180648, "pitch": 73, "duration": 71, "velocity": 83}, {"time": 180719, "pitch": 74, "duration": 60, "velocity": 88}, {"time": 180779, "pitch": 76, "duration": 60, "velocity": 83}, {"time": 180839, "pitch": 78, "duration": 60, "velocity": 81}, {"time": 180899, "pitch": 79, "duration": 60, "velocity": 85}, {"time": 180959, "pitch": 81, "duration": 7222, "velocity": 83}, {"time": 188161, "pitch": 86, "duration": 482, "velocity": 87}, {"time": 188643, "pitch": 86, "duration": 3356, "velocity": 79}, {"time": 196078, "pitch": 62, "duration": 2160, "velocity": 56}, {"time": 196078, "pitch": 66, "duration": 2160, "velocity": 59}, {"time": 196078, "pitch": 69, "duration": 2160, "velocity": 71}, {"time": 198238, "pitch": 86, "duration": 19146, "velocity": 64}, {"time": 479, "pitch": 72, "duration": 15359, "velocity": 78}, {"time": 22799, "pitch": 71, "duration": 251, "velocity": 72}, {"time": 23040, "pitch": 72, "duration": 261, "velocity": 67}, {"time": 23281, "pitch": 74, "duration": 251, "velocity": 76}, {"time": 23522, "pitch": 76, "duration": 1919, "velocity": 76}, {"time": 25441, "pitch": 74, "duration": 955, "velocity": 79}, {"time": 26396, "pitch": 72, "duration": 482, "velocity": 68}, {"time": 26878, "pitch": 71, "duration": 492, "velocity": 64}, {"time": 27360, "pitch": 69, "duration": 963, "velocity": 62}, {"time": 28323, "pitch": 71, "duration": 484, "velocity": 74}, {"time": 28797, "pitch": 72, "duration": 492, "velocity": 67}, {"time": 29279, "pitch": 74, "duration": 1563, "velocity": 64}, {"time": 48002, "pitch": 57, "duration": 90, "velocity": 93}, {"time": 48092, "pitch": 59, "duration": 80, "velocity": 74}, {"time": 48172, "pitch": 61, "duration": 70, "velocity": 78}, {"time": 48242, "pitch": 62, "duration": 61, "velocity": 83}, {"time": 48303, "pitch": 64, "duration": 60, "velocity": 78}, {"time": 48363, "pitch": 66, "duration": 60, "velocity": 76}, {"time": 48423, "pitch": 67, "duration": 60, "velocity": 80}, {"time": 48483, "pitch": 69, "duration": 7215, "velocity": 78}, {"time": 55678, "pitch": 74, "duration": 481, "velocity": 82}, {"time": 56159, "pitch": 74, "duration": 3043, "velocity": 74}, {"time": 63361, "pitch": 57, "duration": 90, "velocity": 93}, {"time": 63451, "pitch": 59, "duration": 80, "velocity": 74}, {"time": 63531, "pitch": 61, "duration": 71, "velocity": 78}, {"time": 63602, "pitch": 62, "duration": 60, "velocity": 83}, {"time": 63662, "pitch": 64, "duration": 60, "velocity": 78}, {"time": 63722, "pitch": 66, "duration": 60, "velocity": 76}, {"time": 63782, "pitch": 67, "duration": 60, "velocity": 80}, {"time": 63842, "pitch": 69, "duration": 7215, "velocity": 78}, {"time": 71037, "pitch": 74, "duration": 481, "velocity": 82}, {"time": 71518, "pitch": 74, "duration": 3364, "velocity": 74}, {"time": 78961, "pitch": 44, "duration": 4079, "velocity": 52}, {"time": 78961, "pitch": 51, "duration": 4079, "velocity": 61}, {"time": 78961, "pitch": 55, "duration": 251, "velocity": 49}, {"time": 78961, "pitch": 62, "duration": 251, "velocity": 66}, {"time": 78961, "pitch": 70, "duration": 4079, "velocity": 80}, {"time": 90241, "pitch": 67, "duration": 492, "velocity": 66}, {"time": 90723, "pitch": 79, "duration": 6399, "velocity": 65}, {"time": 105360, "pitch": 71, "duration": 251, "velocity": 72}, {"time": 105601, "pitch": 72, "duration": 260, "velocity": 67}, {"time": 105841, "pitch": 74, "duration": 251, "velocity": 76}, {"time": 106082, "pitch": 76, "duration": 1919, "velocity": 76}, {"time": 108001, "pitch": 74, "duration": 956, "velocity": 79}, {"time": 108957, "pitch": 72, "duration": 482, "velocity": 68}, {"time": 109439, "pitch": 71, "duration": 491, "velocity": 64}, {"time": 109920, "pitch": 69, "duration": 963, "velocity": 62}, {"time": 110883, "pitch": 71, "duration": 485, "velocity": 74}, {"time": 111358, "pitch": 72, "duration": 491, "velocity": 67}, {"time": 111839, "pitch": 74, "duration": 1558, "velocity": 64}, {"time": 130562, "pitch": 57, "duration": 89, "velocity": 93}, {"time": 130651, "pitch": 59, "duration": 79, "velocity": 74}, {"time": 130730, "pitch": 61, "duration": 69, "velocity": 78}, {"time": 130799, "pitch": 62, "duration": 60, "velocity": 83}, {"time": 130859, "pitch": 64, "duration": 59, "velocity": 78}, {"time": 130918, "pitch": 66, "duration": 59, "velocity": 76}, {"time": 130977, "pitch": 67, "duration": 59, "velocity": 80}, {"time": 131036, "pitch": 69, "duration": 7222, "velocity": 78}, {"time": 138238, "pitch": 74, "duration": 482, "velocity": 82}, {"time": 138720, "pitch": 74, "duration": 3042, "velocity": 74}, {"time": 145921, "pitch": 57, "duration": 91, "velocity": 93}, {"time": 146012, "pitch": 59, "duration": 80, "velocity": 74}, {"time": 146092, "pitch": 61, "duration": 70, "velocity": 78}, {"time": 146162, "pitch": 62, "duration": 60, "velocity": 83}, {"time": 146222, "pitch": 64, "duration": 61, "velocity": 78}, {"time": 146283, "pitch": 66, "duration": 60, "velocity": 76}, {"time": 146343, "pitch": 67, "duration": 60, "velocity": 80}, {"time": 146403, "pitch": 69, "duration": 7214, "velocity": 78}, {"time": 153597, "pitch": 74, "duration": 482, "velocity": 82}, {"time": 154079, "pitch": 74, "duration": 3364, "velocity": 74}, {"time": 161521, "pitch": 43, "duration": 2160, "velocity": 60}, {"time": 161521, "pitch": 55, "duration": 2160, "velocity": 69}, {"time": 165119, "pitch": 57, "duration": 90, "velocity": 93}, {"time": 165209, "pitch": 59, "duration": 80, "velocity": 74}, {"time": 165289, "pitch": 61, "duration": 70, "velocity": 78}, {"time": 165359, "pitch": 62, "duration": 61, "velocity": 83}, {"time": 165420, "pitch": 64, "duration": 60, "velocity": 78}, {"time": 165480, "pitch": 66, "duration": 60, "velocity": 76}, {"time": 165540, "pitch": 67, "duration": 60, "velocity": 80}, {"time": 165600, "pitch": 69, "duration": 7222, "velocity": 78}, {"time": 172802, "pitch": 74, "duration": 481, "velocity": 82}, {"time": 173283, "pitch": 74, "duration": 3036, "velocity": 74}, {"time": 180478, "pitch": 57, "duration": 90, "velocity": 93}, {"time": 180568, "pitch": 59, "duration": 80, "velocity": 74}, {"time": 180648, "pitch": 61, "duration": 71, "velocity": 78}, {"time": 180719, "pitch": 62, "duration": 60, "velocity": 83}, {"time": 180779, "pitch": 64, "duration": 60, "velocity": 78}, {"time": 180839, "pitch": 66, "duration": 60, "velocity": 76}, {"time": 180899, "pitch": 67, "duration": 60, "velocity": 80}, {"time": 180959, "pitch": 69, "duration": 7222, "velocity": 78}, {"time": 188161, "pitch": 74, "duration": 482, "velocity": 82}, {"time": 188643, "pitch": 74, "duration": 3356, "velocity": 74}, {"time": 196078, "pitch": 50, "duration": 2160, "velocity": 51}, {"time": 196078, "pitch": 57, "duration": 2160, "velocity": 66}, {"time": 198238, "pitch": 74, "duration": 19146, "velocity": 59}, {"time": 8162, "pitch": 67, "duration": 336, "velocity": 120}, {"time": 8518, "pitch": 67, "duration": 1042, "velocity": 110}, {"time": 9600, "pitch": 72, "duration": 220, "velocity": 120}, {"time": 9840, "pitch": 67, "duration": 121, "velocity": 110}, {"time": 10081, "pitch": 67, "duration": 341, "velocity": 120}, {"time": 10442, "pitch": 67, "duration": 836, "velocity": 110}, {"time": 11278, "pitch": 64, "duration": 120, "velocity": 110}, {"time": 11519, "pitch": 64, "duration": 220, "velocity": 120}, {"time": 11759, "pitch": 60, "duration": 121, "velocity": 110}, {"time": 12000, "pitch": 62, "duration": 341, "velocity": 120}, {"time": 12361, "pitch": 67, "duration": 1037, "velocity": 110}, {"time": 13438, "pitch": 55, "duration": 220, "velocity": 120}, {"time": 13678, "pitch": 60, "duration": 121, "velocity": 110}, {"time": 13919, "pitch": 60, "duration": 341, "velocity": 120}, {"time": 14280, "pitch": 60, "duration": 840, "velocity": 110}, {"time": 15120, "pitch": 55, "duration": 437, "velocity": 110}, {"time": 15357, "pitch": 63, "duration": 220, "velocity": 120}, {"time": 15597, "pitch": 53, "duration": 221, "velocity": 110}, {"time": 15838, "pitch": 55, "duration": 1900, "velocity": 110}, {"time": 15838, "pitch": 64, "duration": 1900, "velocity": 110}, {"time": 83762, "pitch": 65, "duration": 241, "velocity": 120}, {"time": 84003, "pitch": 67, "duration": 336, "velocity": 120}, {"time": 84358, "pitch": 67, "duration": 340, "velocity": 100}, {"time": 84718, "pitch": 72, "duration": 120, "velocity": 120}, {"time": 84838, "pitch": 67, "duration": 121, "velocity": 110}, {"time": 84959, "pitch": 70, "duration": 341, "velocity": 120}, {"time": 85320, "pitch": 70, "duration": 1043, "velocity": 110}, {"time": 86640, "pitch": 63, "duration": 99, "velocity": 120}, {"time": 86759, "pitch": 65, "duration": 99, "velocity": 110}, {"time": 86878, "pitch": 65, "duration": 341, "velocity": 120}, {"time": 87239, "pitch": 67, "duration": 1222, "velocity": 110}, {"time": 88559, "pitch": 65, "duration": 99, "velocity": 120}, {"time": 88678, "pitch": 63, "duration": 99, "velocity": 110}, {"time": 88797, "pitch": 62, "duration": 341, "velocity": 110}, {"time": 89158, "pitch": 62, "duration": 341, "velocity": 110}, {"time": 89519, "pitch": 60, "duration": 221, "velocity": 100}, {"time": 89760, "pitch": 58, "duration": 341, "velocity": 100}, {"time": 90121, "pitch": 58, "duration": 542, "velocity": 90}, {"time": 91438, "pitch": 67, "duration": 241, "velocity": 120}, {"time": 91679, "pitch": 69, "duration": 341, "velocity": 120}, {"time": 92040, "pitch": 71, "duration": 341, "velocity": 110}, {"time": 92401, "pitch": 72, "duration": 221, "velocity": 117}, {"time": 92642, "pitch": 74, "duration": 341, "velocity": 120}, {"time": 93003, "pitch": 74, "duration": 338, "velocity": 110}, {"time": 93361, "pitch": 67, "duration": 217, "velocity": 100}, {"time": 93598, "pitch": 67, "duration": 682, "velocity": 100}, {"time": 94320, "pitch": 60, "duration": 482, "velocity": 120}, {"time": 94561, "pitch": 69, "duration": 221, "velocity": 120}, {"time": 94802, "pitch": 62, "duration": 478, "velocity": 120}, {"time": 95042, "pitch": 70, "duration": 218, "velocity": 120}, {"time": 95280, "pitch": 64, "duration": 477, "velocity": 120}, {"time": 95517, "pitch": 73, "duration": 220, "velocity": 120}, {"time": 95757, "pitch": 65, "duration": 482, "velocity": 120}, {"time": 95998, "pitch": 74, "duration": 221, "velocity": 120}, {"time": 96239, "pitch": 65, "duration": 221, "velocity": 120}, {"time": 96480, "pitch": 67, "duration": 943, "velocity": 120}, {"time": 96480, "pitch": 76, "duration": 943, "velocity": 120}, {"time": 97443, "pitch": 67, "duration": 916, "velocity": 110}, {"time": 97443, "pitch": 76, "duration": 916, "velocity": 110}, {"time": 7440, "pitch": 38, "duration": 10, "velocity": 40}, {"time": 7520, "pitch": 38, "duration": 10, "velocity": 45}, {"time": 7600, "pitch": 38, "duration": 10, "velocity": 40}, {"time": 7681, "pitch": 38, "duration": 10, "velocity": 84}, {"time": 7801, "pitch": 38, "duration": 10, "velocity": 70}, {"time": 7922, "pitch": 41, "duration": 100, "velocity": 88}, {"time": 8162, "pitch": 36, "duration": 10, "velocity": 116}, {"time": 8162, "pitch": 49, "duration": 10, "velocity": 46}, {"time": 8399, "pitch": 42, "duration": 10, "velocity": 60}, {"time": 8637, "pitch": 38, "duration": 10, "velocity": 98}, {"time": 8637, "pitch": 42, "duration": 10, "velocity": 74}, {"time": 8877, "pitch": 36, "duration": 10, "velocity": 88}, {"time": 8877, "pitch": 42, "duration": 10, "velocity": 60}, {"time": 9118, "pitch": 36, "duration": 10, "velocity": 116}, {"time": 9118, "pitch": 42, "duration": 10, "velocity": 88}, {"time": 9359, "pitch": 42, "duration": 10, "velocity": 60}, {"time": 9600, "pitch": 38, "duration": 10, "velocity": 98}, {"time": 9600, "pitch": 42, "duration": 10, "velocity": 74}, {"time": 9840, "pitch": 42, "duration": 11, "velocity": 60}, {"time": 10081, "pitch": 36, "duration": 10, "velocity": 116}, {"time": 10081, "pitch": 42, "duration": 10, "velocity": 88}, {"time": 10322, "pitch": 42, "duration": 10, "velocity": 60}, {"time": 10563, "pitch": 38, "duration": 10, "velocity": 98}, {"time": 10563, "pitch": 42, "duration": 10, "velocity": 74}, {"time": 10800, "pitch": 36, "duration": 10, "velocity": 88}, {"time": 10800, "pitch": 42, "duration": 10, "velocity": 60}, {"time": 11037, "pitch": 36, "duration": 10, "velocity": 116}, {"time": 11037, "pitch": 42, "duration": 10, "velocity": 88}, {"time": 11278, "pitch": 42, "duration": 10, "velocity": 60}, {"time": 11519, "pitch": 38, "duration": 10, "velocity": 98}, {"time": 11519, "pitch": 42, "duration": 10, "velocity": 74}, {"time": 11759, "pitch": 42, "duration": 11, "velocity": 60}, {"time": 12000, "pitch": 36, "duration": 10, "velocity": 116}, {"time": 12000, "pitch": 42, "duration": 10, "velocity": 88}, {"time": 12241, "pitch": 42, "duration": 10, "velocity": 60}, {"time": 12482, "pitch": 38, "duration": 10, "velocity": 98}, {"time": 12482, "pitch": 42, "duration": 10, "velocity": 74}, {"time": 12723, "pitch": 36, "duration": 10, "velocity": 88}, {"time": 12723, "pitch": 42, "duration": 10, "velocity": 60}, {"time": 12963, "pitch": 36, "duration": 10, "velocity": 116}, {"time": 12963, "pitch": 42, "duration": 10, "velocity": 88}, {"time": 13201, "pitch": 42, "duration": 9, "velocity": 60}, {"time": 13438, "pitch": 38, "duration": 10, "velocity": 98}, {"time": 13438, "pitch": 42, "duration": 10, "velocity": 74}, {"time": 13678, "pitch": 42, "duration": 10, "velocity": 60}, {"time": 13919, "pitch": 36, "duration": 10, "velocity": 116}, {"time": 13919, "pitch": 42, "duration": 10, "velocity": 88}, {"time": 14160, "pitch": 42, "duration": 10, "velocity": 60}, {"time": 14401, "pitch": 38, "duration": 10, "velocity": 98}, {"time": 14401, "pitch": 42, "duration": 10, "velocity": 74}, {"time": 14642, "pitch": 36, "duration": 10, "velocity": 88}, {"time": 14642, "pitch": 42, "duration": 10, "velocity": 60}, {"time": 14882, "pitch": 36, "duration": 10, "velocity": 116}, {"time": 14882, "pitch": 42, "duration": 10, "velocity": 88}, {"time": 15120, "pitch": 48, "duration": 9, "velocity": 102}, {"time": 15357, "pitch": 36, "duration": 10, "velocity": 116}, {"time": 15357, "pitch": 42, "duration": 10, "velocity": 88}, {"time": 15597, "pitch": 38, "duration": 10, "velocity": 98}, {"time": 15718, "pitch": 38, "duration": 10, "velocity": 70}, {"time": 15838, "pitch": 36, "duration": 10, "velocity": 116}, {"time": 15838, "pitch": 49, "duration": 10, "velocity": 46}, {"time": 16079, "pitch": 42, "duration": 10, "velocity": 46}, {"time": 16320, "pitch": 37, "duration": 10, "velocity": 88}, {"time": 16320, "pitch": 42, "duration": 10, "velocity": 60}, {"time": 16561, "pitch": 36, "duration": 10, "velocity": 88}, {"time": 16561, "pitch": 42, "duration": 10, "velocity": 46}, {"time": 16801, "pitch": 36, "duration": 10, "velocity": 116}, {"time": 16801, "pitch": 42, "duration": 10, "velocity": 74}, {"time": 17042, "pitch": 37, "duration": 10, "velocity": 74}, {"time": 17042, "pitch": 42, "duration": 10, "velocity": 46}, {"time": 17283, "pitch": 42, "duration": 10, "velocity": 60}, {"time": 17520, "pitch": 36, "duration": 10, "velocity": 88}, {"time": 17520, "pitch": 42, "duration": 10, "velocity": 46}, {"time": 17757, "pitch": 36, "duration": 10, "velocity": 116}, {"time": 17757, "pitch": 42, "duration": 10, "velocity": 74}, {"time": 17998, "pitch": 42, "duration": 10, "velocity": 46}, {"time": 18239, "pitch": 37, "duration": 10, "velocity": 88}, {"time": 18239, "pitch": 42, "duration": 10, "velocity": 60}, {"time": 18480, "pitch": 36, "duration": 10, "velocity": 88}, {"time": 18480, "pitch": 42, "duration": 10, "velocity": 46}, {"time": 18720, "pitch": 36, "duration": 10, "velocity": 116}, {"time": 18720, "pitch": 42, "duration": 10, "velocity": 74}, {"time": 18961, "pitch": 37, "duration": 10, "velocity": 74}, {"time": 18961, "pitch": 42, "duration": 10, "velocity": 46}, {"time": 19202, "pitch": 42, "duration": 10, "velocity": 60}, {"time": 19443, "pitch": 36, "duration": 10, "velocity": 88}, {"time": 19443, "pitch": 42, "duration": 10, "velocity": 46}, {"time": 19684, "pitch": 36, "duration": 9, "velocity": 116}, {"time": 19684, "pitch": 42, "duration": 9, "velocity": 74}, {"time": 19921, "pitch": 42, "duration": 10, "velocity": 46}, {"time": 20158, "pitch": 37, "duration": 10, "velocity": 88}, {"time": 20158, "pitch": 42, "duration": 10, "velocity": 60}, {"time": 20399, "pitch": 36, "duration": 10, "velocity": 88}, {"time": 20399, "pitch": 42, "duration": 10, "velocity": 46}, {"time": 20639, "pitch": 36, "duration": 10, "velocity": 116}, {"time": 20639, "pitch": 42, "duration": 10, "velocity": 74}, {"time": 20880, "pitch": 37, "duration": 10, "velocity": 74}, {"time": 20880, "pitch": 42, "duration": 10, "velocity": 46}, {"time": 21121, "pitch": 42, "duration": 10, "velocity": 60}, {"time": 21362, "pitch": 36, "duration": 10, "velocity": 88}, {"time": 21362, "pitch": 42, "duration": 10, "velocity": 46}, {"time": 21603, "pitch": 36, "duration": 9, "velocity": 116}, {"time": 21603, "pitch": 42, "duration": 9, "velocity": 74}, {"time": 21840, "pitch": 42, "duration": 10, "velocity": 46}, {"time": 22077, "pitch": 37, "duration": 10, "velocity": 88}, {"time": 22077, "pitch": 42, "duration": 10, "velocity": 60}, {"time": 22318, "pitch": 36, "duration": 10, "velocity": 88}, {"time": 22318, "pitch": 42, "duration": 10, "velocity": 46}, {"time": 22558, "pitch": 36, "duration": 10, "velocity": 116}, {"time": 22558, "pitch": 42, "duration": 10, "velocity": 74}, {"time": 22799, "pitch": 42, "duration": 10, "velocity": 46}, {"time": 22799, "pitch": 48, "duration": 10, "velocity": 88}, {"time": 23040, "pitch": 42, "duration": 10, "velocity": 60}, {"time": 23040, "pitch": 45, "duration": 10, "velocity": 74}, {"time": 23281, "pitch": 46, "duration": 10, "velocity": 60}, {"time": 23522, "pitch": 36, "duration": 10, "velocity": 116}, {"time": 23522, "pitch": 42, "duration": 10, "velocity": 74}, {"time": 23762, "pitch": 42, "duration": 10, "velocity": 46}, {"time": 24003, "pitch": 37, "duration": 10, "velocity": 88}, {"time": 24003, "pitch": 42, "duration": 10, "velocity": 60}, {"time": 24240, "pitch": 36, "duration": 10, "velocity": 88}, {"time": 24240, "pitch": 42, "duration": 10, "velocity": 46}, {"time": 24477, "pitch": 36, "duration": 10, "velocity": 116}, {"time": 24477, "pitch": 42, "duration": 10, "velocity": 74}, {"time": 24718, "pitch": 37, "duration": 10, "velocity": 74}, {"time": 24718, "pitch": 42, "duration": 10, "velocity": 46}, {"time": 24959, "pitch": 42, "duration": 10, "velocity": 60}, {"time": 25200, "pitch": 36, "duration": 10, "velocity": 88}, {"time": 25200, "pitch": 42, "duration": 10, "velocity": 46}, {"time": 25441, "pitch": 36, "duration": 10, "velocity": 116}, {"time": 25441, "pitch": 42, "duration": 10, "velocity": 74}, {"time": 25681, "pitch": 42, "duration": 10, "velocity": 46}, {"time": 25922, "pitch": 37, "duration": 10, "velocity": 88}, {"time": 25922, "pitch": 42, "duration": 10, "velocity": 60}, {"time": 26159, "pitch": 36, "duration": 10, "velocity": 88}, {"time": 26159, "pitch": 42, "duration": 10, "velocity": 46}, {"time": 26396, "pitch": 36, "duration": 10, "velocity": 116}, {"time": 26396, "pitch": 42, "duration": 10, "velocity": 74}, {"time": 26637, "pitch": 37, "duration": 10, "velocity": 74}, {"time": 26637, "pitch": 42, "duration": 10, "velocity": 46}, {"time": 26878, "pitch": 42, "duration": 10, "velocity": 60}, {"time": 27119, "pitch": 36, "duration": 10, "velocity": 88}, {"time": 27119, "pitch": 42, "duration": 10, "velocity": 46}, {"time": 27360, "pitch": 36, "duration": 10, "velocity": 116}, {"time": 27360, "pitch": 42, "duration": 10, "velocity": 74}, {"time": 27600, "pitch": 42, "duration": 10, "velocity": 46}, {"time": 27841, "pitch": 37, "duration": 10, "velocity": 88}, {"time": 27841, "pitch": 42, "duration": 10, "velocity": 60}, {"time": 28082, "pitch": 36, "duration": 10, "velocity": 88}, {"time": 28082, "pitch": 42, "duration": 10, "velocity": 46}, {"time": 28323, "pitch": 36, "duration": 10, "velocity": 116}, {"time": 28323, "pitch": 42, "duration": 10, "velocity": 74}, {"time": 28560, "pitch": 37, "duration": 10, "velocity": 74}, {"time": 28560, "pitch": 42, "duration": 10, "velocity": 46}, {"time": 28797, "pitch": 42, "duration": 10, "velocity": 60}, {"time": 29038, "pitch": 36, "duration": 10, "velocity": 88}, {"time": 29038, "pitch": 42, "duration": 10, "velocity": 46}, {"time": 29279, "pitch": 36, "duration": 10, "velocity": 116}, {"time": 29279, "pitch": 42, "duration": 10, "velocity": 74}, {"time": 29519, "pitch": 42, "duration": 10, "velocity": 46}, {"time": 29760, "pitch": 37, "duration": 10, "velocity": 88}, {"time": 29760, "pitch": 42, "duration": 10, "velocity": 60}, {"time": 30001, "pitch": 36, "duration": 10, "velocity": 88}, {"time": 30001, "pitch": 42, "duration": 10, "velocity": 46}, {"time": 30242, "pitch": 36, "duration": 10, "velocity": 116}, {"time": 30242, "pitch": 42, "duration": 10, "velocity": 74}, {"time": 30482, "pitch": 48, "duration": 11, "velocity": 102}, {"time": 30723, "pitch": 45, "duration": 10, "velocity": 88}, {"time": 30960, "pitch": 41, "duration": 10, "velocity": 74}, {"time": 31079, "pitch": 41, "duration": 10, "velocity": 60}, {"time": 31198, "pitch": 36, "duration": 10, "velocity": 116}, {"time": 31198, "pitch": 51, "duration": 10, "velocity": 102}, {"time": 31438, "pitch": 42, "duration": 10, "velocity": 60}, {"time": 31679, "pitch": 42, "duration": 10, "velocity": 74}, {"time": 31920, "pitch": 42, "duration": 10, "velocity": 60}, {"time": 32161, "pitch": 38, "duration": 10, "velocity": 98}, {"time": 32161, "pitch": 42, "duration": 10, "velocity": 88}, {"time": 32401, "pitch": 42, "duration": 11, "velocity": 60}, {"time": 32642, "pitch": 42, "duration": 10, "velocity": 74}, {"time": 32879, "pitch": 36, "duration": 10, "velocity": 88}, {"time": 32879, "pitch": 46, "duration": 10, "velocity": 60}, {"time": 33117, "pitch": 36, "duration": 10, "velocity": 116}, {"time": 33117, "pitch": 42, "duration": 10, "velocity": 88}, {"time": 33357, "pitch": 42, "duration": 10, "velocity": 60}, {"time": 33598, "pitch": 42, "duration": 10, "velocity": 74}, {"time": 33839, "pitch": 36, "duration": 10, "velocity": 116}, {"time": 33839, "pitch": 46, "duration": 10, "velocity": 60}, {"time": 34080, "pitch": 38, "duration": 10, "velocity": 98}, {"time": 34080, "pitch": 42, "duration": 10, "velocity": 88}, {"time": 34320, "pitch": 42, "duration": 10, "velocity": 60}, {"time": 34561, "pitch": 42, "duration": 10, "velocity": 74}, {"time": 34802, "pitch": 36, "duration": 10, "velocity": 116}, {"time": 34802, "pitch": 49, "duration": 10, "velocity": 60}, {"time": 35280, "pitch": 48, "duration": 10, "velocity": 88}, {"time": 35517, "pitch": 45, "duration": 10, "velocity": 74}, {"time": 35758, "pitch": 36, "duration": 10, "velocity": 116}, {"time": 35758, "pitch": 49, "duration": 10, "velocity": 60}, {"time": 36239, "pitch": 48, "duration": 10, "velocity": 88}, {"time": 36360, "pitch": 48, "duration": 10, "velocity": 60}, {"time": 36480, "pitch": 45, "duration": 10, "velocity": 74}, {"time": 36721, "pitch": 36, "duration": 10, "velocity": 116}, {"time": 36721, "pitch": 49, "duration": 10, "velocity": 60}, {"time": 37203, "pitch": 42, "duration": 10, "velocity": 60}, {"time": 37443, "pitch": 42, "duration": 10, "velocity": 74}, {"time": 37681, "pitch": 36, "duration": 9, "velocity": 116}, {"time": 37681, "pitch": 46, "duration": 9, "velocity": 60}, {"time": 37918, "pitch": 51, "duration": 10, "velocity": 102}, {"time": 38399, "pitch": 36, "duration": 10, "velocity": 116}, {"time": 38399, "pitch": 51, "duration": 10, "velocity": 88}, {"time": 38881, "pitch": 36, "duration": 10, "velocity": 116}, {"time": 38881, "pitch": 42, "duration": 10, "velocity": 88}, {"time": 39122, "pitch": 42, "duration": 10, "velocity": 60}, {"time": 39362, "pitch": 42, "duration": 10, "velocity": 74}, {"time": 39600, "pitch": 36, "duration": 9, "velocity": 88}, {"time": 39600, "pitch": 42, "duration": 9, "velocity": 60}, {"time": 39837, "pitch": 38, "duration": 10, "velocity": 98}, {"time": 39837, "pitch": 51, "duration": 10, "velocity": 102}, {"time": 40318, "pitch": 36, "duration": 10, "velocity": 88}, {"time": 40318, "pitch": 51, "duration": 10, "velocity": 88}, {"time": 40800, "pitch": 36, "duration": 10, "velocity": 116}, {"time": 40800, "pitch": 46, "duration": 10, "velocity": 88}, {"time": 41041, "pitch": 42, "duration": 10, "velocity": 60}, {"time": 41281, "pitch": 42, "duration": 10, "velocity": 74}, {"time": 41522, "pitch": 36, "duration": 10, "velocity": 88}, {"time": 41522, "pitch": 46, "duration": 10, "velocity": 88}, {"time": 41763, "pitch": 42, "duration": 10, "velocity": 74}, {"time": 42000, "pitch": 36, "duration": 10, "velocity": 116}, {"time": 42000, "pitch": 51, "duration": 10, "velocity": 88}, {"time": 42719, "pitch": 36, "duration": 10, "velocity": 116}, {"time": 42719, "pitch": 42, "duration": 10, "velocity": 88}, {"time": 42960, "pitch": 42, "duration": 10, "velocity": 60}, {"time": 43200, "pitch": 42, "duration": 10, "velocity": 74}, {"time": 43441, "pitch": 36, "duration": 10, "velocity": 116}, {"time": 43441, "pitch": 42, "duration": 10, "velocity": 60}, {"time": 43682, "pitch": 38, "duration": 10, "velocity": 98}, {"time": 43682, "pitch": 42, "duration": 10, "velocity": 88}, {"time": 43923, "pitch": 42, "duration": 10, "velocity": 60}, {"time": 44164, "pitch": 42, "duration": 9, "velocity": 74}, {"time": 44401, "pitch": 36, "duration": 10, "velocity": 127}, {"time": 44401, "pitch": 49, "duration": 10, "velocity": 60}, {"time": 44879, "pitch": 38, "duration": 10, "velocity": 98}, {"time": 44999, "pitch": 38, "duration": 10, "velocity": 70}, {"time": 45119, "pitch": 45, "duration": 10, "velocity": 88}, {"time": 45360, "pitch": 36, "duration": 10, "velocity": 116}, {"time": 45360, "pitch": 49, "duration": 10, "velocity": 60}, {"time": 45842, "pitch": 48, "duration": 10, "velocity": 88}, {"time": 46083, "pitch": 45, "duration": 9, "velocity": 88}, {"time": 46557, "pitch": 36, "duration": 10, "velocity": 116}, {"time": 46557, "pitch": 49, "duration": 10, "velocity": 60}, {"time": 47038, "pitch": 51, "duration": 10, "velocity": 102}, {"time": 47520, "pitch": 36, "duration": 10, "velocity": 116}, {"time": 47520, "pitch": 49, "duration": 10, "velocity": 60}, {"time": 48002, "pitch": 38, "duration": 10, "velocity": 98}, {"time": 48002, "pitch": 51, "duration": 10, "velocity": 88}, {"time": 48122, "pitch": 38, "duration": 10, "velocity": 70}, {"time": 48242, "pitch": 45, "duration": 10, "velocity": 74}, {"time": 48483, "pitch": 36, "duration": 10, "velocity": 116}, {"time": 48483, "pitch": 49, "duration": 10, "velocity": 60}, {"time": 48720, "pitch": 42, "duration": 10, "velocity": 60}, {"time": 48957, "pitch": 38, "duration": 10, "velocity": 98}, {"time": 48957, "pitch": 42, "duration": 10, "velocity": 74}, {"time": 49198, "pitch": 36, "duration": 10, "velocity": 88}, {"time": 49198, "pitch": 42, "duration": 10, "velocity": 60}, {"time": 49439, "pitch": 36, "duration": 10, "velocity": 116}, {"time": 49439, "pitch": 42, "duration": 10, "velocity": 88}, {"time": 49680, "pitch": 42, "duration": 10, "velocity": 60}, {"time": 49921, "pitch": 38, "duration": 10, "velocity": 98}, {"time": 49921, "pitch": 42, "duration": 10, "velocity": 74}, {"time": 50161, "pitch": 36, "duration": 10, "velocity": 88}, {"time": 50161, "pitch": 46, "duration": 10, "velocity": 60}, {"time": 50402, "pitch": 42, "duration": 10, "velocity": 88}, {"time": 50639, "pitch": 36, "duration": 10, "velocity": 116}, {"time": 50639, "pitch": 42, "duration": 10, "velocity": 60}, {"time": 50876, "pitch": 38, "duration": 10, "velocity": 98}, {"time": 50876, "pitch": 42, "duration": 10, "velocity": 74}, {"time": 51117, "pitch": 36, "duration": 10, "velocity": 88}, {"time": 51117, "pitch": 42, "duration": 10, "velocity": 60}, {"time": 51358, "pitch": 36, "duration": 10, "velocity": 116}, {"time": 51358, "pitch": 42, "duration": 10, "velocity": 88}, {"time": 51599, "pitch": 42, "duration": 10, "velocity": 60}, {"time": 51839, "pitch": 38, "duration": 11, "velocity": 98}, {"time": 51960, "pitch": 38, "duration": 10, "velocity": 70}, {"time": 52080, "pitch": 45, "duration": 10, "velocity": 88}, {"time": 52321, "pitch": 36, "duration": 10, "velocity": 116}, {"time": 52321, "pitch": 49, "duration": 10, "velocity": 60}, {"time": 52562, "pitch": 42, "duration": 10, "velocity": 60}, {"time": 52803, "pitch": 38, "duration": 10, "velocity": 98}, {"time": 52803, "pitch": 42, "duration": 10, "velocity": 74}, {"time": 53040, "pitch": 36, "duration": 10, "velocity": 88}, {"time": 53040, "pitch": 42, "duration": 10, "velocity": 60}, {"time": 53277, "pitch": 36, "duration": 10, "velocity": 116}, {"time": 53277, "pitch": 42, "duration": 10, "velocity": 88}, {"time": 53518, "pitch": 42, "duration": 10, "velocity": 60}, {"time": 53758, "pitch": 38, "duration": 11, "velocity": 98}, {"time": 53758, "pitch": 42, "duration": 11, "velocity": 74}, {"time": 53999, "pitch": 36, "duration": 10, "velocity": 88}, {"time": 53999, "pitch": 46, "duration": 10, "velocity": 60}, {"time": 54240, "pitch": 42, "duration": 10, "velocity": 88}, {"time": 54481, "pitch": 36, "duration": 10, "velocity": 116}, {"time": 54481, "pitch": 42, "duration": 10, "velocity": 60}, {"time": 54722, "pitch": 38, "duration": 10, "velocity": 98}, {"time": 54722, "pitch": 42, "duration": 10, "velocity": 74}, {"time": 54962, "pitch": 36, "duration": 10, "velocity": 88}, {"time": 54962, "pitch": 42, "duration": 10, "velocity": 60}, {"time": 55203, "pitch": 36, "duration": 10, "velocity": 116}, {"time": 55203, "pitch": 42, "duration": 10, "velocity": 88}, {"time": 55440, "pitch": 42, "duration": 10, "velocity": 60}, {"time": 55678, "pitch": 38, "duration": 9, "velocity": 98}, {"time": 55798, "pitch": 38, "duration": 10, "velocity": 70}, {"time": 55918, "pitch": 45, "duration": 10, "velocity": 88}, {"time": 56159, "pitch": 36, "duration": 10, "velocity": 116}, {"time": 56159, "pitch": 49, "duration": 10, "velocity": 60}, {"time": 56400, "pitch": 42, "duration": 10, "velocity": 60}, {"time": 56641, "pitch": 38, "duration": 10, "velocity": 98}, {"time": 56641, "pitch": 42, "duration": 10, "velocity": 74}, {"time": 56881, "pitch": 36, "duration": 10, "velocity": 88}, {"time": 56881, "pitch": 42, "duration": 10, "velocity": 60}, {"time": 57122, "pitch": 36, "duration": 10, "velocity": 116}, {"time": 57122, "pitch": 42, "duration": 10, "velocity": 88}, {"time": 57359, "pitch": 42, "duration": 10, "velocity": 60}, {"time": 57597, "pitch": 38, "duration": 9, "velocity": 98}, {"time": 57597, "pitch": 42, "duration": 9, "velocity": 74}, {"time": 57837, "pitch": 42, "duration": 10, "velocity": 60}, {"time": 58078, "pitch": 36, "duration": 10, "velocity": 116}, {"time": 58078, "pitch": 42, "duration": 10, "velocity": 88}, {"time": 58319, "pitch": 42, "duration": 10, "velocity": 60}, {"time": 58560, "pitch": 38, "duration": 10, "velocity": 98}, {"time": 58560, "pitch": 42, "duration": 10, "velocity": 74}, {"time": 58800, "pitch": 36, "duration": 10, "velocity": 88}, {"time": 58800, "pitch": 42, "duration": 10, "velocity": 60}, {"time": 59041, "pitch": 36, "duration": 10, "velocity": 116}, {"time": 59041, "pitch": 42, "duration": 10, "velocity": 88}, {"time": 59282, "pitch": 42, "duration": 10, "velocity": 60}, {"time": 59523, "pitch": 38, "duration": 10, "velocity": 98}, {"time": 59523, "pitch": 42, "duration": 10, "velocity": 74}, {"time": 59760, "pitch": 42, "duration": 10, "velocity": 60}, {"time": 59997, "pitch": 36, "duration": 10, "velocity": 116}, {"time": 59997, "pitch": 42, "duration": 10, "velocity": 88}, {"time": 60238, "pitch": 42, "duration": 10, "velocity": 60}, {"time": 60479, "pitch": 38, "duration": 10, "velocity": 98}, {"time": 60479, "pitch": 42, "duration": 10, "velocity": 74}, {"time": 60719, "pitch": 36, "duration": 10, "velocity": 88}, {"time": 60719, "pitch": 42, "duration": 10, "velocity": 60}, {"time": 60960, "pitch": 36, "duration": 10, "velocity": 116}, {"time": 60960, "pitch": 42, "duration": 10, "velocity": 88}, {"time": 61201, "pitch": 42, "duration": 10, "velocity": 60}, {"time": 61442, "pitch": 38, "duration": 10, "velocity": 98}, {"time": 61442, "pitch": 42, "duration": 10, "velocity": 74}, {"time": 61683, "pitch": 42, "duration": 10, "velocity": 60}, {"time": 61923, "pitch": 36, "duration": 10, "velocity": 116}, {"time": 61923, "pitch": 42, "duration": 10, "velocity": 88}, {"time": 62160, "pitch": 42, "duration": 10, "velocity": 60}, {"time": 62398, "pitch": 38, "duration": 10, "velocity": 98}, {"time": 62398, "pitch": 42, "duration": 10, "velocity": 74}, {"time": 62638, "pitch": 36, "duration": 10, "velocity": 88}, {"time": 62638, "pitch": 46, "duration": 10, "velocity": 60}, {"time": 62879, "pitch": 42, "duration": 10, "velocity": 88}, {"time": 63120, "pitch": 36, "duration": 10, "velocity": 88}, {"time": 63120, "pitch": 49, "duration": 10, "velocity": 60}, {"time": 63361, "pitch": 38, "duration": 10, "velocity": 98}, {"time": 63361, "pitch": 48, "duration": 10, "velocity": 88}, {"time": 63602, "pitch": 45, "duration": 10, "velocity": 74}, {"time": 63842, "pitch": 36, "duration": 10, "velocity": 116}, {"time": 63842, "pitch": 51, "duration": 10, "velocity": 102}, {"time": 64079, "pitch": 42, "duration": 10, "velocity": 60}, {"time": 64317, "pitch": 38, "duration": 10, "velocity": 98}, {"time": 64317, "pitch": 42, "duration": 10, "velocity": 74}, {"time": 64557, "pitch": 36, "duration": 10, "velocity": 88}, {"time": 64557, "pitch": 42, "duration": 10, "velocity": 60}, {"time": 64798, "pitch": 36, "duration": 10, "velocity": 116}, {"time": 64798, "pitch": 42, "duration": 10, "velocity": 88}, {"time": 65039, "pitch": 42, "duration": 10, "velocity": 60}, {"time": 65280, "pitch": 38, "duration": 10, "velocity": 98}, {"time": 65280, "pitch": 42, "duration": 10, "velocity": 74}, {"time": 65521, "pitch": 36, "duration": 10, "velocity": 88}, {"time": 65521, "pitch": 42, "duration": 10, "velocity": 60}, {"time": 65761, "pitch": 42, "duration": 10, "velocity": 88}, {"time": 66002, "pitch": 36, "duration": 10, "velocity": 116}, {"time": 66002, "pitch": 42, "duration": 10, "velocity": 60}, {"time": 66243, "pitch": 38, "duration": 10, "velocity": 98}, {"time": 66243, "pitch": 42, "duration": 10, "velocity": 74}, {"time": 66480, "pitch": 36, "duration": 10, "velocity": 88}, {"time": 66480, "pitch": 42, "duration": 10, "velocity": 60}, {"time": 66717, "pitch": 36, "duration": 10, "velocity": 116}, {"time": 66717, "pitch": 42, "duration": 10, "velocity": 88}, {"time": 66958, "pitch": 42, "duration": 10, "velocity": 60}, {"time": 67199, "pitch": 38, "duration": 10, "velocity": 98}, {"time": 67319, "pitch": 38, "duration": 10, "velocity": 70}, {"time": 67440, "pitch": 45, "duration": 10, "velocity": 88}, {"time": 67680, "pitch": 36, "duration": 10, "velocity": 116}, {"time": 67680, "pitch": 51, "duration": 10, "velocity": 102}, {"time": 67921, "pitch": 42, "duration": 10, "velocity": 60}, {"time": 68162, "pitch": 38, "duration": 10, "velocity": 98}, {"time": 68162, "pitch": 42, "duration": 10, "velocity": 74}, {"time": 68403, "pitch": 36, "duration": 10, "velocity": 88}, {"time": 68403, "pitch": 42, "duration": 10, "velocity": 60}, {"time": 68643, "pitch": 36, "duration": 10, "velocity": 116}, {"time": 68643, "pitch": 42, "duration": 10, "velocity": 88}, {"time": 68881, "pitch": 42, "duration": 10, "velocity": 60}, {"time": 69118, "pitch": 38, "duration": 10, "velocity": 98}, {"time": 69118, "pitch": 42, "duration": 10, "velocity": 74}, {"time": 69359, "pitch": 36, "duration": 10, "velocity": 88}, {"time": 69359, "pitch": 42, "duration": 10, "velocity": 60}, {"time": 69599, "pitch": 42, "duration": 10, "velocity": 88}, {"time": 69840, "pitch": 36, "duration": 10, "velocity": 116}, {"time": 69840, "pitch": 42, "duration": 10, "velocity": 60}, {"time": 70081, "pitch": 38, "duration": 10, "velocity": 98}, {"time": 70081, "pitch": 42, "duration": 10, "velocity": 74}, {"time": 70322, "pitch": 36, "duration": 10, "velocity": 88}, {"time": 70322, "pitch": 42, "duration": 10, "velocity": 60}, {"time": 70562, "pitch": 36, "duration": 10, "velocity": 116}, {"time": 70562, "pitch": 42, "duration": 10, "velocity": 88}, {"time": 70800, "pitch": 42, "duration": 10, "velocity": 60}, {"time": 71037, "pitch": 38, "duration": 10, "velocity": 98}, {"time": 71157, "pitch": 38, "duration": 10, "velocity": 70}, {"time": 71278, "pitch": 45, "duration": 10, "velocity": 88}, {"time": 71518, "pitch": 36, "duration": 10, "velocity": 116}, {"time": 71518, "pitch": 49, "duration": 10, "velocity": 60}, {"time": 71759, "pitch": 42, "duration": 10, "velocity": 60}, {"time": 72000, "pitch": 38, "duration": 10, "velocity": 98}, {"time": 72000, "pitch": 42, "duration": 10, "velocity": 74}, {"time": 72241, "pitch": 36, "duration": 10, "velocity": 88}, {"time": 72241, "pitch": 42, "duration": 10, "velocity": 60}, {"time": 72481, "pitch": 36, "duration": 11, "velocity": 116}, {"time": 72481, "pitch": 42, "duration": 11, "velocity": 88}, {"time": 72722, "pitch": 42, "duration": 10, "velocity": 60}, {"time": 72963, "pitch": 38, "duration": 10, "velocity": 98}, {"time": 72963, "pitch": 42, "duration": 10, "velocity": 74}, {"time": 73200, "pitch": 42, "duration": 10, "velocity": 60}, {"time": 73437, "pitch": 36, "duration": 10, "velocity": 116}, {"time": 73437, "pitch": 42, "duration": 10, "velocity": 88}, {"time": 73678, "pitch": 42, "duration": 10, "velocity": 60}, {"time": 73919, "pitch": 38, "duration": 10, "velocity": 98}, {"time": 73919, "pitch": 42, "duration": 10, "velocity": 74}, {"time": 74160, "pitch": 36, "duration": 10, "velocity": 88}, {"time": 74160, "pitch": 42, "duration": 10, "velocity": 60}, {"time": 74400, "pitch": 36, "duration": 11, "velocity": 116}, {"time": 74400, "pitch": 42, "duration": 11, "velocity": 88}, {"time": 74641, "pitch": 42, "duration": 10, "velocity": 60}, {"time": 74882, "pitch": 38, "duration": 10, "velocity": 98}, {"time": 74882, "pitch": 42, "duration": 10, "velocity": 74}, {"time": 75123, "pitch": 42, "duration": 10, "velocity": 60}, {"time": 75364, "pitch": 36, "duration": 9, "velocity": 116}, {"time": 75364, "pitch": 42, "duration": 9, "velocity": 88}, {"time": 75601, "pitch": 42, "duration": 10, "velocity": 60}, {"time": 75838, "pitch": 38, "duration": 10, "velocity": 98}, {"time": 75838, "pitch": 42, "duration": 10, "velocity": 74}, {"time": 76079, "pitch": 36, "duration": 10, "velocity": 88}, {"time": 76079, "pitch": 42, "duration": 10, "velocity": 60}, {"time": 76319, "pitch": 36, "duration": 10, "velocity": 116}, {"time": 76319, "pitch": 42, "duration": 10, "velocity": 88}, {"time": 76560, "pitch": 42, "duration": 10, "velocity": 60}, {"time": 76801, "pitch": 38, "duration": 10, "velocity": 98}, {"time": 76801, "pitch": 42, "duration": 10, "velocity": 74}, {"time": 77042, "pitch": 42, "duration": 10, "velocity": 60}, {"time": 77283, "pitch": 36, "duration": 9, "velocity": 116}, {"time": 77283, "pitch": 42, "duration": 9, "velocity": 88}, {"time": 77520, "pitch": 42, "duration": 10, "velocity": 60}, {"time": 77757, "pitch": 38, "duration": 10, "velocity": 98}, {"time": 77757, "pitch": 42, "duration": 10, "velocity": 74}, {"time": 77998, "pitch": 36, "duration": 10, "velocity": 88}, {"time": 77998, "pitch": 46, "duration": 10, "velocity": 60}, {"time": 78238, "pitch": 42, "duration": 10, "velocity": 88}, {"time": 78479, "pitch": 36, "duration": 10, "velocity": 116}, {"time": 78479, "pitch": 46, "duration": 10, "velocity": 74}, {"time": 78720, "pitch": 42, "duration": 10, "velocity": 74}, {"time": 78961, "pitch": 36, "duration": 10, "velocity": 127}, {"time": 78961, "pitch": 49, "duration": 10, "velocity": 88}, {"time": 83040, "pitch": 51, "duration": 10, "velocity": 116}, {"time": 83762, "pitch": 51, "duration": 10, "velocity": 116}, {"time": 84959, "pitch": 51, "duration": 10, "velocity": 116}, {"time": 85681, "pitch": 51, "duration": 10, "velocity": 116}, {"time": 86878, "pitch": 51, "duration": 10, "velocity": 116}, {"time": 87600, "pitch": 51, "duration": 10, "velocity": 116}, {"time": 88797, "pitch": 51, "duration": 10, "velocity": 116}, {"time": 89519, "pitch": 51, "duration": 10, "velocity": 116}, {"time": 90723, "pitch": 36, "duration": 10, "velocity": 116}, {"time": 90723, "pitch": 51, "duration": 10, "velocity": 116}, {"time": 91438, "pitch": 51, "duration": 10, "velocity": 116}, {"time": 92160, "pitch": 42, "duration": 10, "velocity": 88}, {"time": 92281, "pitch": 42, "duration": 10, "velocity": 60}, {"time": 92401, "pitch": 46, "duration": 10, "velocity": 74}, {"time": 92642, "pitch": 36, "duration": 10, "velocity": 116}, {"time": 92642, "pitch": 51, "duration": 10, "velocity": 116}, {"time": 93361, "pitch": 51, "duration": 9, "velocity": 116}, {"time": 94079, "pitch": 42, "duration": 10, "velocity": 88}, {"time": 94200, "pitch": 42, "duration": 10, "velocity": 60}, {"time": 94320, "pitch": 46, "duration": 10, "velocity": 74}, {"time": 94561, "pitch": 36, "duration": 10, "velocity": 116}, {"time": 94561, "pitch": 51, "duration": 10, "velocity": 116}, {"time": 95280, "pitch": 51, "duration": 9, "velocity": 116}, {"time": 95998, "pitch": 42, "duration": 10, "velocity": 88}, {"time": 96119, "pitch": 42, "duration": 10, "velocity": 60}, {"time": 96239, "pitch": 46, "duration": 10, "velocity": 74}, {"time": 96480, "pitch": 36, "duration": 10, "velocity": 116}, {"time": 96480, "pitch": 51, "duration": 10, "velocity": 116}, {"time": 97443, "pitch": 36, "duration": 10, "velocity": 116}, {"time": 97443, "pitch": 49, "duration": 10, "velocity": 88}, {"time": 97680, "pitch": 45, "duration": 10, "velocity": 92}, {"time": 97917, "pitch": 41, "duration": 10, "velocity": 78}, {"time": 98399, "pitch": 36, "duration": 10, "velocity": 116}, {"time": 98399, "pitch": 49, "duration": 10, "velocity": 46}, {"time": 98640, "pitch": 42, "duration": 10, "velocity": 46}, {"time": 98880, "pitch": 37, "duration": 10, "velocity": 88}, {"time": 98880, "pitch": 42, "duration": 10, "velocity": 60}, {"time": 99121, "pitch": 36, "duration": 10, "velocity": 88}, {"time": 99121, "pitch": 42, "duration": 10, "velocity": 46}, {"time": 99362, "pitch": 36, "duration": 10, "velocity": 116}, {"time": 99362, "pitch": 42, "duration": 10, "velocity": 74}, {"time": 99603, "pitch": 37, "duration": 10, "velocity": 74}, {"time": 99603, "pitch": 42, "duration": 10, "velocity": 46}, {"time": 99844, "pitch": 42, "duration": 9, "velocity": 60}, {"time": 100081, "pitch": 36, "duration": 10, "velocity": 88}, {"time": 100081, "pitch": 42, "duration": 10, "velocity": 46}, {"time": 100318, "pitch": 36, "duration": 10, "velocity": 116}, {"time": 100318, "pitch": 42, "duration": 10, "velocity": 74}, {"time": 100559, "pitch": 42, "duration": 10, "velocity": 46}, {"time": 100799, "pitch": 37, "duration": 10, "velocity": 88}, {"time": 100799, "pitch": 42, "duration": 10, "velocity": 60}, {"time": 101040, "pitch": 36, "duration": 10, "velocity": 88}, {"time": 101040, "pitch": 42, "duration": 10, "velocity": 46}, {"time": 101281, "pitch": 36, "duration": 10, "velocity": 116}, {"time": 101281, "pitch": 42, "duration": 10, "velocity": 74}, {"time": 101522, "pitch": 37, "duration": 10, "velocity": 74}, {"time": 101522, "pitch": 42, "duration": 10, "velocity": 46}, {"time": 101763, "pitch": 42, "duration": 9, "velocity": 60}, {"time": 102000, "pitch": 36, "duration": 10, "velocity": 88}, {"time": 102000, "pitch": 42, "duration": 10, "velocity": 46}, {"time": 102237, "pitch": 36, "duration": 10, "velocity": 116}, {"time": 102237, "pitch": 42, "duration": 10, "velocity": 74}, {"time": 102478, "pitch": 42, "duration": 10, "velocity": 46}, {"time": 102718, "pitch": 37, "duration": 10, "velocity": 88}, {"time": 102718, "pitch": 42, "duration": 10, "velocity": 60}, {"time": 102959, "pitch": 36, "duration": 10, "velocity": 88}, {"time": 102959, "pitch": 42, "duration": 10, "velocity": 46}, {"time": 103200, "pitch": 36, "duration": 10, "velocity": 116}, {"time": 103200, "pitch": 42, "duration": 10, "velocity": 74}, {"time": 103441, "pitch": 37, "duration": 10, "velocity": 74}, {"time": 103441, "pitch": 42, "duration": 10, "velocity": 46}, {"time": 103682, "pitch": 42, "duration": 10, "velocity": 60}, {"time": 103922, "pitch": 36, "duration": 10, "velocity": 88}, {"time": 103922, "pitch": 42, "duration": 10, "velocity": 46}, {"time": 104163, "pitch": 36, "duration": 10, "velocity": 116}, {"time": 104163, "pitch": 42, "duration": 10, "velocity": 74}, {"time": 104400, "pitch": 42, "duration": 10, "velocity": 46}, {"time": 104637, "pitch": 37, "duration": 10, "velocity": 88}, {"time": 104637, "pitch": 42, "duration": 10, "velocity": 60}, {"time": 104878, "pitch": 36, "duration": 10, "velocity": 88}, {"time": 104878, "pitch": 42, "duration": 10, "velocity": 46}, {"time": 105119, "pitch": 36, "duration": 10, "velocity": 116}, {"time": 105119, "pitch": 42, "duration": 10, "velocity": 74}, {"time": 105360, "pitch": 42, "duration": 10, "velocity": 46}, {"time": 105360, "pitch": 48, "duration": 10, "velocity": 88}, {"time": 105601, "pitch": 42, "duration": 10, "velocity": 60}, {"time": 105601, "pitch": 45, "duration": 10, "velocity": 74}, {"time": 105841, "pitch": 46, "duration": 10, "velocity": 60}, {"time": 106082, "pitch": 36, "duration": 10, "velocity": 116}, {"time": 106082, "pitch": 42, "duration": 10, "velocity": 74}, {"time": 106319, "pitch": 42, "duration": 10, "velocity": 46}, {"time": 106556, "pitch": 37, "duration": 10, "velocity": 88}, {"time": 106556, "pitch": 42, "duration": 10, "velocity": 60}, {"time": 106797, "pitch": 36, "duration": 10, "velocity": 88}, {"time": 106797, "pitch": 42, "duration": 10, "velocity": 46}, {"time": 107038, "pitch": 36, "duration": 10, "velocity": 116}, {"time": 107038, "pitch": 42, "duration": 10, "velocity": 74}, {"time": 107279, "pitch": 37, "duration": 10, "velocity": 74}, {"time": 107279, "pitch": 42, "duration": 10, "velocity": 46}, {"time": 107520, "pitch": 42, "duration": 10, "velocity": 60}, {"time": 107760, "pitch": 36, "duration": 10, "velocity": 88}, {"time": 107760, "pitch": 42, "duration": 10, "velocity": 46}, {"time": 108001, "pitch": 36, "duration": 10, "velocity": 116}, {"time": 108001, "pitch": 42, "duration": 10, "velocity": 74}, {"time": 108242, "pitch": 42, "duration": 10, "velocity": 46}, {"time": 108483, "pitch": 37, "duration": 10, "velocity": 88}, {"time": 108483, "pitch": 42, "duration": 10, "velocity": 60}, {"time": 108720, "pitch": 36, "duration": 10, "velocity": 88}, {"time": 108720, "pitch": 42, "duration": 10, "velocity": 46}, {"time": 108957, "pitch": 36, "duration": 10, "velocity": 116}, {"time": 108957, "pitch": 42, "duration": 10, "velocity": 74}, {"time": 109198, "pitch": 37, "duration": 10, "velocity": 74}, {"time": 109198, "pitch": 42, "duration": 10, "velocity": 46}, {"time": 109439, "pitch": 42, "duration": 10, "velocity": 60}, {"time": 109679, "pitch": 36, "duration": 10, "velocity": 88}, {"time": 109679, "pitch": 42, "duration": 10, "velocity": 46}, {"time": 109920, "pitch": 36, "duration": 10, "velocity": 116}, {"time": 109920, "pitch": 42, "duration": 10, "velocity": 74}, {"time": 110161, "pitch": 42, "duration": 10, "velocity": 46}, {"time": 110402, "pitch": 37, "duration": 10, "velocity": 88}, {"time": 110402, "pitch": 42, "duration": 10, "velocity": 60}, {"time": 110643, "pitch": 36, "duration": 10, "velocity": 88}, {"time": 110643, "pitch": 42, "duration": 10, "velocity": 46}, {"time": 110883, "pitch": 36, "duration": 10, "velocity": 116}, {"time": 110883, "pitch": 42, "duration": 10, "velocity": 74}, {"time": 111120, "pitch": 37, "duration": 10, "velocity": 74}, {"time": 111120, "pitch": 42, "duration": 10, "velocity": 46}, {"time": 111358, "pitch": 42, "duration": 10, "velocity": 60}, {"time": 111598, "pitch": 36, "duration": 10, "velocity": 88}, {"time": 111598, "pitch": 42, "duration": 10, "velocity": 46}, {"time": 111839, "pitch": 36, "duration": 10, "velocity": 116}, {"time": 111839, "pitch": 42, "duration": 10, "velocity": 74}, {"time": 112080, "pitch": 42, "duration": 10, "velocity": 46}, {"time": 112321, "pitch": 37, "duration": 10, "velocity": 88}, {"time": 112321, "pitch": 42, "duration": 10, "velocity": 60}, {"time": 112562, "pitch": 36, "duration": 10, "velocity": 88}, {"time": 112562, "pitch": 42, "duration": 10, "velocity": 46}, {"time": 112802, "pitch": 36, "duration": 10, "velocity": 116}, {"time": 112802, "pitch": 42, "duration": 10, "velocity": 74}, {"time": 113039, "pitch": 48, "duration": 10, "velocity": 102}, {"time": 113277, "pitch": 45, "duration": 10, "velocity": 88}, {"time": 113517, "pitch": 41, "duration": 10, "velocity": 74}, {"time": 113638, "pitch": 41, "duration": 10, "velocity": 60}, {"time": 113758, "pitch": 36, "duration": 10, "velocity": 116}, {"time": 113758, "pitch": 51, "duration": 10, "velocity": 102}, {"time": 113999, "pitch": 42, "duration": 10, "velocity": 60}, {"time": 114240, "pitch": 42, "duration": 10, "velocity": 74}, {"time": 114480, "pitch": 42, "duration": 11, "velocity": 60}, {"time": 114721, "pitch": 38, "duration": 10, "velocity": 98}, {"time": 114721, "pitch": 42, "duration": 10, "velocity": 88}, {"time": 114962, "pitch": 42, "duration": 10, "velocity": 60}, {"time": 115203, "pitch": 42, "duration": 10, "velocity": 74}, {"time": 115440, "pitch": 36, "duration": 10, "velocity": 88}, {"time": 115440, "pitch": 46, "duration": 10, "velocity": 60}, {"time": 115677, "pitch": 36, "duration": 10, "velocity": 116}, {"time": 115677, "pitch": 42, "duration": 10, "velocity": 88}, {"time": 115918, "pitch": 42, "duration": 10, "velocity": 60}, {"time": 116159, "pitch": 42, "duration": 10, "velocity": 74}, {"time": 116399, "pitch": 36, "duration": 11, "velocity": 116}, {"time": 116399, "pitch": 46, "duration": 11, "velocity": 60}, {"time": 116640, "pitch": 38, "duration": 10, "velocity": 98}, {"time": 116640, "pitch": 42, "duration": 10, "velocity": 88}, {"time": 116881, "pitch": 42, "duration": 10, "velocity": 60}, {"time": 117122, "pitch": 42, "duration": 10, "velocity": 74}, {"time": 117363, "pitch": 36, "duration": 10, "velocity": 116}, {"time": 117363, "pitch": 49, "duration": 10, "velocity": 60}, {"time": 117841, "pitch": 48, "duration": 9, "velocity": 88}, {"time": 118078, "pitch": 45, "duration": 10, "velocity": 74}, {"time": 118318, "pitch": 36, "duration": 10, "velocity": 116}, {"time": 118318, "pitch": 49, "duration": 10, "velocity": 60}, {"time": 118800, "pitch": 48, "duration": 10, "velocity": 88}, {"time": 118920, "pitch": 48, "duration": 10, "velocity": 60}, {"time": 119041, "pitch": 45, "duration": 10, "velocity": 74}, {"time": 119282, "pitch": 36, "duration": 10, "velocity": 116}, {"time": 119282, "pitch": 49, "duration": 10, "velocity": 60}, {"time": 119760, "pitch": 42, "duration": 9, "velocity": 60}, {"time": 119997, "pitch": 42, "duration": 10, "velocity": 74}, {"time": 120237, "pitch": 36, "duration": 10, "velocity": 116}, {"time": 120237, "pitch": 46, "duration": 10, "velocity": 60}, {"time": 120478, "pitch": 51, "duration": 10, "velocity": 102}, {"time": 120960, "pitch": 36, "duration": 10, "velocity": 116}, {"time": 120960, "pitch": 51, "duration": 10, "velocity": 88}, {"time": 121441, "pitch": 36, "duration": 10, "velocity": 116}, {"time": 121441, "pitch": 42, "duration": 10, "velocity": 88}, {"time": 121682, "pitch": 42, "duration": 10, "velocity": 60}, {"time": 121923, "pitch": 42, "duration": 10, "velocity": 74}, {"time": 122160, "pitch": 36, "duration": 10, "velocity": 88}, {"time": 122160, "pitch": 42, "duration": 10, "velocity": 60}, {"time": 122397, "pitch": 38, "duration": 10, "velocity": 98}, {"time": 122397, "pitch": 51, "duration": 10, "velocity": 102}, {"time": 122879, "pitch": 36, "duration": 10, "velocity": 88}, {"time": 122879, "pitch": 51, "duration": 10, "velocity": 88}, {"time": 123360, "pitch": 36, "duration": 10, "velocity": 116}, {"time": 123360, "pitch": 46, "duration": 10, "velocity": 88}, {"time": 123601, "pitch": 42, "duration": 10, "velocity": 60}, {"time": 123842, "pitch": 42, "duration": 10, "velocity": 74}, {"time": 124083, "pitch": 36, "duration": 10, "velocity": 88}, {"time": 124083, "pitch": 46, "duration": 10, "velocity": 88}, {"time": 124324, "pitch": 42, "duration": 9, "velocity": 74}, {"time": 124561, "pitch": 36, "duration": 10, "velocity": 116}, {"time": 124561, "pitch": 51, "duration": 10, "velocity": 88}, {"time": 125279, "pitch": 36, "duration": 10, "velocity": 116}, {"time": 125279, "pitch": 42, "duration": 10, "velocity": 88}, {"time": 125520, "pitch": 42, "duration": 10, "velocity": 60}, {"time": 125761, "pitch": 42, "duration": 10, "velocity": 74}, {"time": 126002, "pitch": 36, "duration": 10, "velocity": 116}, {"time": 126002, "pitch": 42, "duration": 10, "velocity": 60}, {"time": 126243, "pitch": 38, "duration": 9, "velocity": 98}, {"time": 126243, "pitch": 42, "duration": 9, "velocity": 88}, {"time": 126480, "pitch": 42, "duration": 10, "velocity": 60}, {"time": 126717, "pitch": 42, "duration": 10, "velocity": 74}, {"time": 126958, "pitch": 36, "duration": 10, "velocity": 127}, {"time": 126958, "pitch": 49, "duration": 10, "velocity": 60}, {"time": 127439, "pitch": 38, "duration": 10, "velocity": 98}, {"time": 127560, "pitch": 38, "duration": 10, "velocity": 70}, {"time": 127680, "pitch": 45, "duration": 10, "velocity": 88}, {"time": 127921, "pitch": 36, "duration": 10, "velocity": 116}, {"time": 127921, "pitch": 49, "duration": 10, "velocity": 60}, {"time": 128402, "pitch": 48, "duration": 10, "velocity": 88}, {"time": 128643, "pitch": 45, "duration": 10, "velocity": 88}, {"time": 129117, "pitch": 36, "duration": 10, "velocity": 116}, {"time": 129117, "pitch": 49, "duration": 10, "velocity": 60}, {"time": 129599, "pitch": 51, "duration": 10, "velocity": 102}, {"time": 130081, "pitch": 36, "duration": 10, "velocity": 116}, {"time": 130081, "pitch": 49, "duration": 10, "velocity": 60}, {"time": 130562, "pitch": 38, "duration": 10, "velocity": 98}, {"time": 130562, "pitch": 51, "duration": 10, "velocity": 88}, {"time": 130681, "pitch": 38, "duration": 10, "velocity": 70}, {"time": 130799, "pitch": 45, "duration": 10, "velocity": 74}, {"time": 131036, "pitch": 36, "duration": 10, "velocity": 116}, {"time": 131036, "pitch": 49, "duration": 10, "velocity": 60}, {"time": 131277, "pitch": 42, "duration": 10, "velocity": 60}, {"time": 131518, "pitch": 38, "duration": 10, "velocity": 98}, {"time": 131518, "pitch": 42, "duration": 10, "velocity": 74}, {"time": 131759, "pitch": 36, "duration": 10, "velocity": 88}, {"time": 131759, "pitch": 42, "duration": 10, "velocity": 60}, {"time": 132000, "pitch": 36, "duration": 10, "velocity": 116}, {"time": 132000, "pitch": 42, "duration": 10, "velocity": 88}, {"time": 132240, "pitch": 42, "duration": 10, "velocity": 60}, {"time": 132481, "pitch": 38, "duration": 10, "velocity": 98}, {"time": 132481, "pitch": 42, "duration": 10, "velocity": 74}, {"time": 132722, "pitch": 36, "duration": 10, "velocity": 88}, {"time": 132722, "pitch": 46, "duration": 10, "velocity": 60}, {"time": 132963, "pitch": 42, "duration": 10, "velocity": 88}, {"time": 133200, "pitch": 36, "duration": 10, "velocity": 116}, {"time": 133200, "pitch": 42, "duration": 10, "velocity": 60}, {"time": 133437, "pitch": 38, "duration": 10, "velocity": 98}, {"time": 133437, "pitch": 42, "duration": 10, "velocity": 74}, {"time": 133678, "pitch": 36, "duration": 10, "velocity": 88}, {"time": 133678, "pitch": 42, "duration": 10, "velocity": 60}, {"time": 133919, "pitch": 36, "duration": 10, "velocity": 116}, {"time": 133919, "pitch": 42, "duration": 10, "velocity": 88}, {"time": 134159, "pitch": 42, "duration": 10, "velocity": 60}, {"time": 134400, "pitch": 38, "duration": 10, "velocity": 98}, {"time": 134521, "pitch": 38, "duration": 10, "velocity": 70}, {"time": 134641, "pitch": 45, "duration": 10, "velocity": 88}, {"time": 134882, "pitch": 36, "duration": 10, "velocity": 116}, {"time": 134882, "pitch": 49, "duration": 10, "velocity": 60}, {"time": 135122, "pitch": 42, "duration": 11, "velocity": 60}, {"time": 135363, "pitch": 38, "duration": 10, "velocity": 98}, {"time": 135363, "pitch": 42, "duration": 10, "velocity": 74}, {"time": 135600, "pitch": 36, "duration": 10, "velocity": 88}, {"time": 135600, "pitch": 42, "duration": 10, "velocity": 60}, {"time": 135838, "pitch": 36, "duration": 10, "velocity": 116}, {"time": 135838, "pitch": 42, "duration": 10, "velocity": 88}, {"time": 136078, "pitch": 42, "duration": 10, "velocity": 60}, {"time": 136319, "pitch": 38, "duration": 10, "velocity": 98}, {"time": 136319, "pitch": 42, "duration": 10, "velocity": 74}, {"time": 136560, "pitch": 36, "duration": 10, "velocity": 88}, {"time": 136560, "pitch": 46, "duration": 10, "velocity": 60}, {"time": 136801, "pitch": 42, "duration": 10, "velocity": 88}, {"time": 137041, "pitch": 36, "duration": 11, "velocity": 116}, {"time": 137041, "pitch": 42, "duration": 11, "velocity": 60}, {"time": 137282, "pitch": 38, "duration": 10, "velocity": 98}, {"time": 137282, "pitch": 42, "duration": 10, "velocity": 74}, {"time": 137519, "pitch": 36, "duration": 10, "velocity": 88}, {"time": 137519, "pitch": 42, "duration": 10, "velocity": 60}, {"time": 137757, "pitch": 36, "duration": 10, "velocity": 116}, {"time": 137757, "pitch": 42, "duration": 10, "velocity": 88}, {"time": 137997, "pitch": 42, "duration": 10, "velocity": 60}, {"time": 138238, "pitch": 38, "duration": 10, "velocity": 98}, {"time": 138358, "pitch": 38, "duration": 11, "velocity": 70}, {"time": 138479, "pitch": 45, "duration": 10, "velocity": 88}, {"time": 138720, "pitch": 36, "duration": 10, "velocity": 116}, {"time": 138720, "pitch": 49, "duration": 10, "velocity": 60}, {"time": 138960, "pitch": 42, "duration": 10, "velocity": 60}, {"time": 139201, "pitch": 38, "duration": 10, "velocity": 98}, {"time": 139201, "pitch": 42, "duration": 10, "velocity": 74}, {"time": 139442, "pitch": 36, "duration": 10, "velocity": 88}, {"time": 139442, "pitch": 42, "duration": 10, "velocity": 60}, {"time": 139683, "pitch": 36, "duration": 10, "velocity": 116}, {"time": 139683, "pitch": 42, "duration": 10, "velocity": 88}, {"time": 139920, "pitch": 42, "duration": 10, "velocity": 60}, {"time": 140157, "pitch": 38, "duration": 10, "velocity": 98}, {"time": 140157, "pitch": 42, "duration": 10, "velocity": 74}, {"time": 140398, "pitch": 42, "duration": 10, "velocity": 60}, {"time": 140639, "pitch": 36, "duration": 10, "velocity": 116}, {"time": 140639, "pitch": 42, "duration": 10, "velocity": 88}, {"time": 140879, "pitch": 42, "duration": 10, "velocity": 60}, {"time": 141120, "pitch": 38, "duration": 10, "velocity": 98}, {"time": 141120, "pitch": 42, "duration": 10, "velocity": 74}, {"time": 141361, "pitch": 36, "duration": 10, "velocity": 88}, {"time": 141361, "pitch": 42, "duration": 10, "velocity": 60}, {"time": 141602, "pitch": 36, "duration": 10, "velocity": 116}, {"time": 141602, "pitch": 42, "duration": 10, "velocity": 88}, {"time": 141843, "pitch": 42, "duration": 10, "velocity": 60}, {"time": 142083, "pitch": 38, "duration": 10, "velocity": 98}, {"time": 142083, "pitch": 42, "duration": 10, "velocity": 74}, {"time": 142321, "pitch": 42, "duration": 9, "velocity": 60}, {"time": 142558, "pitch": 36, "duration": 10, "velocity": 116}, {"time": 142558, "pitch": 42, "duration": 10, "velocity": 88}, {"time": 142798, "pitch": 42, "duration": 10, "velocity": 60}, {"time": 143039, "pitch": 38, "duration": 10, "velocity": 98}, {"time": 143039, "pitch": 42, "duration": 10, "velocity": 74}, {"time": 143280, "pitch": 36, "duration": 10, "velocity": 88}, {"time": 143280, "pitch": 42, "duration": 10, "velocity": 60}, {"time": 143521, "pitch": 36, "duration": 10, "velocity": 116}, {"time": 143521, "pitch": 42, "duration": 10, "velocity": 88}, {"time": 143762, "pitch": 42, "duration": 10, "velocity": 60}, {"time": 144002, "pitch": 38, "duration": 10, "velocity": 98}, {"time": 144002, "pitch": 42, "duration": 10, "velocity": 74}, {"time": 144240, "pitch": 42, "duration": 9, "velocity": 60}, {"time": 144477, "pitch": 36, "duration": 10, "velocity": 116}, {"time": 144477, "pitch": 42, "duration": 10, "velocity": 88}, {"time": 144717, "pitch": 42, "duration": 10, "velocity": 60}, {"time": 144958, "pitch": 38, "duration": 10, "velocity": 98}, {"time": 144958, "pitch": 42, "duration": 10, "velocity": 74}, {"time": 145199, "pitch": 36, "duration": 10, "velocity": 88}, {"time": 145199, "pitch": 46, "duration": 10, "velocity": 60}, {"time": 145440, "pitch": 42, "duration": 10, "velocity": 88}, {"time": 145681, "pitch": 36, "duration": 10, "velocity": 88}, {"time": 145681, "pitch": 49, "duration": 10, "velocity": 60}, {"time": 145921, "pitch": 38, "duration": 10, "velocity": 98}, {"time": 145921, "pitch": 48, "duration": 10, "velocity": 88}, {"time": 146162, "pitch": 45, "duration": 10, "velocity": 74}, {"time": 146403, "pitch": 36, "duration": 10, "velocity": 116}, {"time": 146403, "pitch": 51, "duration": 10, "velocity": 102}, {"time": 146640, "pitch": 42, "duration": 10, "velocity": 60}, {"time": 146877, "pitch": 38, "duration": 10, "velocity": 98}, {"time": 146877, "pitch": 42, "duration": 10, "velocity": 74}, {"time": 147118, "pitch": 36, "duration": 10, "velocity": 88}, {"time": 147118, "pitch": 42, "duration": 10, "velocity": 60}, {"time": 147359, "pitch": 36, "duration": 10, "velocity": 116}, {"time": 147359, "pitch": 42, "duration": 10, "velocity": 88}, {"time": 147600, "pitch": 42, "duration": 10, "velocity": 60}, {"time": 147840, "pitch": 38, "duration": 10, "velocity": 98}, {"time": 147840, "pitch": 42, "duration": 10, "velocity": 74}, {"time": 148081, "pitch": 36, "duration": 10, "velocity": 88}, {"time": 148081, "pitch": 42, "duration": 10, "velocity": 60}, {"time": 148322, "pitch": 42, "duration": 10, "velocity": 88}, {"time": 148563, "pitch": 36, "duration": 10, "velocity": 116}, {"time": 148563, "pitch": 42, "duration": 10, "velocity": 60}, {"time": 148804, "pitch": 38, "duration": 9, "velocity": 98}, {"time": 148804, "pitch": 42, "duration": 9, "velocity": 74}, {"time": 149041, "pitch": 36, "duration": 10, "velocity": 88}, {"time": 149041, "pitch": 42, "duration": 10, "velocity": 60}, {"time": 149278, "pitch": 36, "duration": 10, "velocity": 116}, {"time": 149278, "pitch": 42, "duration": 10, "velocity": 88}, {"time": 149519, "pitch": 42, "duration": 10, "velocity": 60}, {"time": 149759, "pitch": 38, "duration": 10, "velocity": 98}, {"time": 149880, "pitch": 38, "duration": 10, "velocity": 70}, {"time": 150000, "pitch": 45, "duration": 10, "velocity": 88}, {"time": 150241, "pitch": 36, "duration": 10, "velocity": 116}, {"time": 150241, "pitch": 51, "duration": 10, "velocity": 102}, {"time": 150482, "pitch": 42, "duration": 10, "velocity": 60}, {"time": 150723, "pitch": 38, "duration": 9, "velocity": 98}, {"time": 150723, "pitch": 42, "duration": 9, "velocity": 74}, {"time": 150960, "pitch": 36, "duration": 10, "velocity": 88}, {"time": 150960, "pitch": 42, "duration": 10, "velocity": 60}, {"time": 151197, "pitch": 36, "duration": 10, "velocity": 116}, {"time": 151197, "pitch": 42, "duration": 10, "velocity": 88}, {"time": 151438, "pitch": 42, "duration": 10, "velocity": 60}, {"time": 151678, "pitch": 38, "duration": 10, "velocity": 98}, {"time": 151678, "pitch": 42, "duration": 10, "velocity": 74}, {"time": 151919, "pitch": 36, "duration": 10, "velocity": 88}, {"time": 151919, "pitch": 42, "duration": 10, "velocity": 60}, {"time": 152160, "pitch": 42, "duration": 10, "velocity": 88}, {"time": 152401, "pitch": 36, "duration": 10, "velocity": 116}, {"time": 152401, "pitch": 42, "duration": 10, "velocity": 60}, {"time": 152642, "pitch": 38, "duration": 10, "velocity": 98}, {"time": 152642, "pitch": 42, "duration": 10, "velocity": 74}, {"time": 152882, "pitch": 36, "duration": 10, "velocity": 88}, {"time": 152882, "pitch": 42, "duration": 10, "velocity": 60}, {"time": 153123, "pitch": 36, "duration": 10, "velocity": 116}, {"time": 153123, "pitch": 42, "duration": 10, "velocity": 88}, {"time": 153360, "pitch": 42, "duration": 10, "velocity": 60}, {"time": 153597, "pitch": 38, "duration": 10, "velocity": 98}, {"time": 153718, "pitch": 38, "duration": 10, "velocity": 70}, {"time": 153838, "pitch": 45, "duration": 10, "velocity": 88}, {"time": 154079, "pitch": 36, "duration": 10, "velocity": 116}, {"time": 154079, "pitch": 49, "duration": 10, "velocity": 60}, {"time": 154320, "pitch": 42, "duration": 10, "velocity": 60}, {"time": 154561, "pitch": 38, "duration": 10, "velocity": 98}, {"time": 154561, "pitch": 42, "duration": 10, "velocity": 74}, {"time": 154801, "pitch": 36, "duration": 10, "velocity": 88}, {"time": 154801, "pitch": 42, "duration": 10, "velocity": 60}, {"time": 155042, "pitch": 36, "duration": 10, "velocity": 116}, {"time": 155042, "pitch": 42, "duration": 10, "velocity": 88}, {"time": 155279, "pitch": 42, "duration": 10, "velocity": 60}, {"time": 155516, "pitch": 38, "duration": 10, "velocity": 98}, {"time": 155516, "pitch": 42, "duration": 10, "velocity": 74}, {"time": 155757, "pitch": 42, "duration": 10, "velocity": 60}, {"time": 155998, "pitch": 36, "duration": 10, "velocity": 116}, {"time": 155998, "pitch": 42, "duration": 10, "velocity": 88}, {"time": 156239, "pitch": 42, "duration": 10, "velocity": 60}, {"time": 156480, "pitch": 38, "duration": 10, "velocity": 98}, {"time": 156480, "pitch": 42, "duration": 10, "velocity": 74}, {"time": 156720, "pitch": 36, "duration": 10, "velocity": 88}, {"time": 156720, "pitch": 42, "duration": 10, "velocity": 60}, {"time": 156961, "pitch": 36, "duration": 10, "velocity": 116}, {"time": 156961, "pitch": 42, "duration": 10, "velocity": 88}, {"time": 157202, "pitch": 42, "duration": 10, "velocity": 60}, {"time": 157443, "pitch": 38, "duration": 10, "velocity": 98}, {"time": 157443, "pitch": 42, "duration": 10, "velocity": 74}, {"time": 157680, "pitch": 42, "duration": 10, "velocity": 60}, {"time": 157917, "pitch": 36, "duration": 10, "velocity": 116}, {"time": 157917, "pitch": 42, "duration": 10, "velocity": 88}, {"time": 158158, "pitch": 42, "duration": 10, "velocity": 60}, {"time": 158398, "pitch": 38, "duration": 11, "velocity": 98}, {"time": 158398, "pitch": 42, "duration": 11, "velocity": 74}, {"time": 158639, "pitch": 36, "duration": 10, "velocity": 88}, {"time": 158639, "pitch": 42, "duration": 10, "velocity": 60}, {"time": 158880, "pitch": 36, "duration": 10, "velocity": 116}, {"time": 158880, "pitch": 42, "duration": 10, "velocity": 88}, {"time": 159121, "pitch": 42, "duration": 10, "velocity": 60}, {"time": 159362, "pitch": 38, "duration": 10, "velocity": 98}, {"time": 159362, "pitch": 42, "duration": 10, "velocity": 74}, {"time": 159602, "pitch": 42, "duration": 10, "velocity": 60}, {"time": 159843, "pitch": 36, "duration": 10, "velocity": 116}, {"time": 159843, "pitch": 42, "duration": 10, "velocity": 88}, {"time": 160080, "pitch": 42, "duration": 10, "velocity": 60}, {"time": 160318, "pitch": 38, "duration": 10, "velocity": 98}, {"time": 160318, "pitch": 42, "duration": 10, "velocity": 74}, {"time": 160558, "pitch": 36, "duration": 10, "velocity": 88}, {"time": 160558, "pitch": 46, "duration": 10, "velocity": 60}, {"time": 160799, "pitch": 42, "duration": 10, "velocity": 88}, {"time": 161040, "pitch": 36, "duration": 10, "velocity": 116}, {"time": 161040, "pitch": 46, "duration": 10, "velocity": 74}, {"time": 161281, "pitch": 42, "duration": 10, "velocity": 74}, {"time": 161521, "pitch": 36, "duration": 10, "velocity": 116}, {"time": 161521, "pitch": 42, "duration": 10, "velocity": 88}, {"time": 161521, "pitch": 49, "duration": 10, "velocity": 74}, {"time": 162718, "pitch": 38, "duration": 10, "velocity": 102}, {"time": 162959, "pitch": 48, "duration": 10, "velocity": 92}, {"time": 163200, "pitch": 45, "duration": 10, "velocity": 92}, {"time": 163440, "pitch": 37, "duration": 10, "velocity": 92}, {"time": 163440, "pitch": 41, "duration": 10, "velocity": 92}, {"time": 163681, "pitch": 36, "duration": 10, "velocity": 116}, {"time": 163681, "pitch": 51, "duration": 10, "velocity": 116}, {"time": 164163, "pitch": 38, "duration": 10, "velocity": 102}, {"time": 164637, "pitch": 36, "duration": 10, "velocity": 116}, {"time": 164637, "pitch": 49, "duration": 10, "velocity": 88}, {"time": 164998, "pitch": 38, "duration": 10, "velocity": 74}, {"time": 165119, "pitch": 38, "duration": 10, "velocity": 102}, {"time": 165359, "pitch": 48, "duration": 10, "velocity": 92}, {"time": 165600, "pitch": 36, "duration": 10, "velocity": 116}, {"time": 165600, "pitch": 49, "duration": 10, "velocity": 60}, {"time": 165841, "pitch": 42, "duration": 10, "velocity": 60}, {"time": 166082, "pitch": 38, "duration": 10, "velocity": 98}, {"time": 166082, "pitch": 42, "duration": 10, "velocity": 74}, {"time": 166323, "pitch": 36, "duration": 10, "velocity": 88}, {"time": 166323, "pitch": 42, "duration": 10, "velocity": 60}, {"time": 166563, "pitch": 36, "duration": 10, "velocity": 116}, {"time": 166563, "pitch": 42, "duration": 10, "velocity": 88}, {"time": 166800, "pitch": 42, "duration": 10, "velocity": 60}, {"time": 167038, "pitch": 38, "duration": 10, "velocity": 98}, {"time": 167038, "pitch": 42, "duration": 10, "velocity": 74}, {"time": 167278, "pitch": 36, "duration": 10, "velocity": 88}, {"time": 167278, "pitch": 46, "duration": 10, "velocity": 60}, {"time": 167519, "pitch": 42, "duration": 10, "velocity": 88}, {"time": 167760, "pitch": 36, "duration": 10, "velocity": 116}, {"time": 167760, "pitch": 42, "duration": 10, "velocity": 60}, {"time": 168001, "pitch": 38, "duration": 10, "velocity": 98}, {"time": 168001, "pitch": 42, "duration": 10, "velocity": 74}, {"time": 168242, "pitch": 36, "duration": 10, "velocity": 88}, {"time": 168242, "pitch": 42, "duration": 10, "velocity": 60}, {"time": 168482, "pitch": 36, "duration": 10, "velocity": 116}, {"time": 168482, "pitch": 42, "duration": 10, "velocity": 88}, {"time": 168719, "pitch": 42, "duration": 10, "velocity": 60}, {"time": 168957, "pitch": 38, "duration": 10, "velocity": 98}, {"time": 169077, "pitch": 38, "duration": 10, "velocity": 70}, {"time": 169197, "pitch": 45, "duration": 10, "velocity": 88}, {"time": 169438, "pitch": 36, "duration": 10, "velocity": 116}, {"time": 169438, "pitch": 49, "duration": 10, "velocity": 60}, {"time": 169679, "pitch": 42, "duration": 10, "velocity": 60}, {"time": 169920, "pitch": 38, "duration": 10, "velocity": 98}, {"time": 169920, "pitch": 42, "duration": 10, "velocity": 74}, {"time": 170161, "pitch": 36, "duration": 10, "velocity": 88}, {"time": 170161, "pitch": 42, "duration": 10, "velocity": 60}, {"time": 170401, "pitch": 36, "duration": 10, "velocity": 116}, {"time": 170401, "pitch": 42, "duration": 10, "velocity": 88}, {"time": 170642, "pitch": 42, "duration": 10, "velocity": 60}, {"time": 170883, "pitch": 38, "duration": 10, "velocity": 98}, {"time": 170883, "pitch": 42, "duration": 10, "velocity": 74}, {"time": 171120, "pitch": 36, "duration": 10, "velocity": 88}, {"time": 171120, "pitch": 46, "duration": 10, "velocity": 60}, {"time": 171357, "pitch": 42, "duration": 10, "velocity": 88}, {"time": 171598, "pitch": 36, "duration": 10, "velocity": 116}, {"time": 171598, "pitch": 42, "duration": 10, "velocity": 60}, {"time": 171839, "pitch": 38, "duration": 10, "velocity": 98}, {"time": 171839, "pitch": 42, "duration": 10, "velocity": 74}, {"time": 172080, "pitch": 36, "duration": 10, "velocity": 88}, {"time": 172080, "pitch": 42, "duration": 10, "velocity": 60}, {"time": 172320, "pitch": 36, "duration": 10, "velocity": 116}, {"time": 172320, "pitch": 42, "duration": 10, "velocity": 88}, {"time": 172561, "pitch": 42, "duration": 10, "velocity": 60}, {"time": 172802, "pitch": 38, "duration": 10, "velocity": 98}, {"time": 172922, "pitch": 38, "duration": 10, "velocity": 70}, {"time": 173043, "pitch": 45, "duration": 10, "velocity": 88}, {"time": 173283, "pitch": 36, "duration": 10, "velocity": 116}, {"time": 173283, "pitch": 49, "duration": 10, "velocity": 60}, {"time": 173521, "pitch": 42, "duration": 10, "velocity": 60}, {"time": 173758, "pitch": 38, "duration": 10, "velocity": 98}, {"time": 173758, "pitch": 42, "duration": 10, "velocity": 74}, {"time": 173999, "pitch": 36, "duration": 10, "velocity": 88}, {"time": 173999, "pitch": 42, "duration": 10, "velocity": 60}, {"time": 174239, "pitch": 36, "duration": 10, "velocity": 116}, {"time": 174239, "pitch": 42, "duration": 10, "velocity": 88}, {"time": 174480, "pitch": 42, "duration": 10, "velocity": 60}, {"time": 174721, "pitch": 38, "duration": 10, "velocity": 98}, {"time": 174721, "pitch": 42, "duration": 10, "velocity": 74}, {"time": 174962, "pitch": 42, "duration": 10, "velocity": 60}, {"time": 175202, "pitch": 36, "duration": 10, "velocity": 116}, {"time": 175202, "pitch": 42, "duration": 10, "velocity": 88}, {"time": 175440, "pitch": 42, "duration": 10, "velocity": 60}, {"time": 175677, "pitch": 38, "duration": 10, "velocity": 98}, {"time": 175677, "pitch": 42, "duration": 10, "velocity": 74}, {"time": 175918, "pitch": 36, "duration": 10, "velocity": 88}, {"time": 175918, "pitch": 42, "duration": 10, "velocity": 60}, {"time": 176158, "pitch": 36, "duration": 10, "velocity": 116}, {"time": 176158, "pitch": 42, "duration": 10, "velocity": 88}, {"time": 176399, "pitch": 42, "duration": 10, "velocity": 60}, {"time": 176640, "pitch": 38, "duration": 10, "velocity": 98}, {"time": 176640, "pitch": 42, "duration": 10, "velocity": 74}, {"time": 176881, "pitch": 42, "duration": 10, "velocity": 60}, {"time": 177122, "pitch": 36, "duration": 10, "velocity": 116}, {"time": 177122, "pitch": 42, "duration": 10, "velocity": 88}, {"time": 177362, "pitch": 42, "duration": 10, "velocity": 60}, {"time": 177603, "pitch": 38, "duration": 10, "velocity": 98}, {"time": 177603, "pitch": 42, "duration": 10, "velocity": 74}, {"time": 177840, "pitch": 36, "duration": 10, "velocity": 88}, {"time": 177840, "pitch": 42, "duration": 10, "velocity": 60}, {"time": 178077, "pitch": 36, "duration": 10, "velocity": 116}, {"time": 178077, "pitch": 42, "duration": 10, "velocity": 88}, {"time": 178318, "pitch": 42, "duration": 10, "velocity": 60}, {"time": 178559, "pitch": 38, "duration": 10, "velocity": 98}, {"time": 178559, "pitch": 42, "duration": 10, "velocity": 74}, {"time": 178800, "pitch": 42, "duration": 10, "velocity": 60}, {"time": 179040, "pitch": 36, "duration": 11, "velocity": 116}, {"time": 179040, "pitch": 42, "duration": 11, "velocity": 88}, {"time": 179281, "pitch": 42, "duration": 10, "velocity": 60}, {"time": 179522, "pitch": 38, "duration": 10, "velocity": 98}, {"time": 179522, "pitch": 42, "duration": 10, "velocity": 74}, {"time": 179763, "pitch": 36, "duration": 10, "velocity": 88}, {"time": 179763, "pitch": 46, "duration": 10, "velocity": 60}, {"time": 180004, "pitch": 42, "duration": 9, "velocity": 88}, {"time": 180241, "pitch": 36, "duration": 10, "velocity": 88}, {"time": 180241, "pitch": 49, "duration": 10, "velocity": 60}, {"time": 180478, "pitch": 38, "duration": 10, "velocity": 98}, {"time": 180478, "pitch": 48, "duration": 10, "velocity": 88}, {"time": 180719, "pitch": 45, "duration": 10, "velocity": 74}, {"time": 180959, "pitch": 36, "duration": 11, "velocity": 116}, {"time": 180959, "pitch": 51, "duration": 11, "velocity": 102}, {"time": 181200, "pitch": 42, "duration": 10, "velocity": 60}, {"time": 181441, "pitch": 38, "duration": 10, "velocity": 98}, {"time": 181441, "pitch": 42, "duration": 10, "velocity": 74}, {"time": 181682, "pitch": 36, "duration": 10, "velocity": 88}, {"time": 181682, "pitch": 42, "duration": 10, "velocity": 60}, {"time": 181923, "pitch": 36, "duration": 9, "velocity": 116}, {"time": 181923, "pitch": 42, "duration": 9, "velocity": 88}, {"time": 182160, "pitch": 42, "duration": 10, "velocity": 60}, {"time": 182397, "pitch": 38, "duration": 10, "velocity": 98}, {"time": 182397, "pitch": 42, "duration": 10, "velocity": 74}, {"time": 182638, "pitch": 36, "duration": 10, "velocity": 88}, {"time": 182638, "pitch": 42, "duration": 10, "velocity": 60}, {"time": 182878, "pitch": 42, "duration": 10, "velocity": 88}, {"time": 183119, "pitch": 36, "duration": 10, "velocity": 116}, {"time": 183119, "pitch": 42, "duration": 10, "velocity": 60}, {"time": 183360, "pitch": 38, "duration": 10, "velocity": 98}, {"time": 183360, "pitch": 42, "duration": 10, "velocity": 74}, {"time": 183601, "pitch": 36, "duration": 10, "velocity": 88}, {"time": 183601, "pitch": 42, "duration": 10, "velocity": 60}, {"time": 183842, "pitch": 36, "duration": 10, "velocity": 116}, {"time": 183842, "pitch": 42, "duration": 10, "velocity": 88}, {"time": 184082, "pitch": 42, "duration": 10, "velocity": 60}, {"time": 184323, "pitch": 38, "duration": 10, "velocity": 98}, {"time": 184442, "pitch": 38, "duration": 10, "velocity": 70}, {"time": 184560, "pitch": 45, "duration": 10, "velocity": 88}, {"time": 184797, "pitch": 36, "duration": 10, "velocity": 116}, {"time": 184797, "pitch": 51, "duration": 10, "velocity": 102}, {"time": 185038, "pitch": 42, "duration": 10, "velocity": 60}, {"time": 185279, "pitch": 38, "duration": 10, "velocity": 98}, {"time": 185279, "pitch": 42, "duration": 10, "velocity": 74}, {"time": 185520, "pitch": 36, "duration": 10, "velocity": 88}, {"time": 185520, "pitch": 42, "duration": 10, "velocity": 60}, {"time": 185761, "pitch": 36, "duration": 10, "velocity": 116}, {"time": 185761, "pitch": 42, "duration": 10, "velocity": 88}, {"time": 186001, "pitch": 42, "duration": 10, "velocity": 60}, {"time": 186242, "pitch": 38, "duration": 10, "velocity": 98}, {"time": 186242, "pitch": 42, "duration": 10, "velocity": 74}, {"time": 186479, "pitch": 36, "duration": 10, "velocity": 88}, {"time": 186479, "pitch": 42, "duration": 10, "velocity": 60}, {"time": 186716, "pitch": 42, "duration": 10, "velocity": 88}, {"time": 186957, "pitch": 36, "duration": 10, "velocity": 116}, {"time": 186957, "pitch": 42, "duration": 10, "velocity": 60}, {"time": 187198, "pitch": 38, "duration": 10, "velocity": 98}, {"time": 187198, "pitch": 42, "duration": 10, "velocity": 74}, {"time": 187439, "pitch": 36, "duration": 10, "velocity": 88}, {"time": 187439, "pitch": 42, "duration": 10, "velocity": 60}, {"time": 187680, "pitch": 36, "duration": 10, "velocity": 116}, {"time": 187680, "pitch": 42, "duration": 10, "velocity": 88}, {"time": 187920, "pitch": 42, "duration": 10, "velocity": 60}, {"time": 188161, "pitch": 38, "duration": 10, "velocity": 98}, {"time": 188282, "pitch": 38, "duration": 10, "velocity": 70}, {"time": 188402, "pitch": 45, "duration": 10, "velocity": 88}, {"time": 188643, "pitch": 36, "duration": 10, "velocity": 116}, {"time": 188643, "pitch": 49, "duration": 10, "velocity": 60}, {"time": 188880, "pitch": 42, "duration": 10, "velocity": 60}, {"time": 189117, "pitch": 38, "duration": 10, "velocity": 98}, {"time": 189117, "pitch": 42, "duration": 10, "velocity": 74}, {"time": 189358, "pitch": 36, "duration": 10, "velocity": 88}, {"time": 189358, "pitch": 42, "duration": 10, "velocity": 60}, {"time": 189599, "pitch": 36, "duration": 10, "velocity": 116}, {"time": 189599, "pitch": 42, "duration": 10, "velocity": 88}, {"time": 189839, "pitch": 42, "duration": 10, "velocity": 60}, {"time": 190080, "pitch": 38, "duration": 10, "velocity": 98}, {"time": 190080, "pitch": 42, "duration": 10, "velocity": 74}, {"time": 190321, "pitch": 42, "duration": 10, "velocity": 60}, {"time": 190562, "pitch": 36, "duration": 10, "velocity": 116}, {"time": 190562, "pitch": 42, "duration": 10, "velocity": 88}, {"time": 190803, "pitch": 42, "duration": 10, "velocity": 60}, {"time": 191043, "pitch": 38, "duration": 10, "velocity": 98}, {"time": 191043, "pitch": 42, "duration": 10, "velocity": 74}, {"time": 191280, "pitch": 36, "duration": 10, "velocity": 88}, {"time": 191280, "pitch": 42, "duration": 10, "velocity": 60}, {"time": 191518, "pitch": 36, "duration": 10, "velocity": 116}, {"time": 191518, "pitch": 42, "duration": 10, "velocity": 88}, {"time": 191758, "pitch": 42, "duration": 10, "velocity": 60}, {"time": 191999, "pitch": 38, "duration": 10, "velocity": 98}, {"time": 191999, "pitch": 42, "duration": 10, "velocity": 74}, {"time": 192240, "pitch": 42, "duration": 10, "velocity": 60}, {"time": 192481, "pitch": 36, "duration": 10, "velocity": 116}, {"time": 192481, "pitch": 42, "duration": 10, "velocity": 88}, {"time": 192722, "pitch": 42, "duration": 10, "velocity": 60}, {"time": 192962, "pitch": 38, "duration": 10, "velocity": 98}, {"time": 192962, "pitch": 42, "duration": 10, "velocity": 74}, {"time": 193199, "pitch": 36, "duration": 10, "velocity": 88}, {"time": 193199, "pitch": 42, "duration": 10, "velocity": 60}, {"time": 193437, "pitch": 36, "duration": 10, "velocity": 116}, {"time": 193437, "pitch": 42, "duration": 10, "velocity": 88}, {"time": 193677, "pitch": 42, "duration": 10, "velocity": 60}, {"time": 193918, "pitch": 38, "duration": 10, "velocity": 98}, {"time": 193918, "pitch": 42, "duration": 10, "velocity": 74}, {"time": 194159, "pitch": 42, "duration": 10, "velocity": 60}, {"time": 194400, "pitch": 36, "duration": 10, "velocity": 116}, {"time": 194400, "pitch": 42, "duration": 10, "velocity": 88}, {"time": 194641, "pitch": 42, "duration": 10, "velocity": 60}, {"time": 194881, "pitch": 38, "duration": 10, "velocity": 98}, {"time": 194881, "pitch": 42, "duration": 10, "velocity": 74}, {"time": 195122, "pitch": 36, "duration": 10, "velocity": 88}, {"time": 195122, "pitch": 46, "duration": 10, "velocity": 60}, {"time": 195363, "pitch": 42, "duration": 10, "velocity": 88}, {"time": 195600, "pitch": 36, "duration": 10, "velocity": 116}, {"time": 195600, "pitch": 46, "duration": 10, "velocity": 74}, {"time": 195837, "pitch": 42, "duration": 10, "velocity": 74}, {"time": 196078, "pitch": 36, "duration": 10, "velocity": 116}, {"time": 196078, "pitch": 49, "duration": 10, "velocity": 88}, {"time": 16320, "pitch": 60, "duration": 100, "velocity": 93}, {"time": 16320, "pitch": 64, "duration": 100, "velocity": 103}, {"time": 16330, "pitch": 67, "duration": 100, "velocity": 108}, {"time": 17042, "pitch": 57, "duration": 101, "velocity": 93}, {"time": 17042, "pitch": 60, "duration": 101, "velocity": 103}, {"time": 17052, "pitch": 67, "duration": 101, "velocity": 108}, {"time": 18239, "pitch": 59, "duration": 100, "velocity": 93}, {"time": 18239, "pitch": 62, "duration": 100, "velocity": 103}, {"time": 18249, "pitch": 67, "duration": 100, "velocity": 108}, {"time": 18961, "pitch": 57, "duration": 101, "velocity": 93}, {"time": 18961, "pitch": 60, "duration": 101, "velocity": 103}, {"time": 18971, "pitch": 67, "duration": 101, "velocity": 108}, {"time": 20158, "pitch": 57, "duration": 100, "velocity": 93}, {"time": 20158, "pitch": 60, "duration": 100, "velocity": 103}, {"time": 20168, "pitch": 65, "duration": 100, "velocity": 108}, {"time": 20880, "pitch": 57, "duration": 101, "velocity": 93}, {"time": 20880, "pitch": 60, "duration": 101, "velocity": 103}, {"time": 20890, "pitch": 65, "duration": 101, "velocity": 108}, {"time": 22077, "pitch": 57, "duration": 100, "velocity": 93}, {"time": 22077, "pitch": 60, "duration": 100, "velocity": 103}, {"time": 22087, "pitch": 65, "duration": 100, "velocity": 108}, {"time": 22799, "pitch": 59, "duration": 101, "velocity": 93}, {"time": 22799, "pitch": 62, "duration": 101, "velocity": 103}, {"time": 22809, "pitch": 67, "duration": 101, "velocity": 108}, {"time": 24003, "pitch": 60, "duration": 99, "velocity": 93}, {"time": 24003, "pitch": 64, "duration": 99, "velocity": 103}, {"time": 24013, "pitch": 67, "duration": 99, "velocity": 108}, {"time": 24718, "pitch": 57, "duration": 100, "velocity": 93}, {"time": 24718, "pitch": 60, "duration": 100, "velocity": 103}, {"time": 24728, "pitch": 67, "duration": 101, "velocity": 108}, {"time": 25922, "pitch": 59, "duration": 99, "velocity": 93}, {"time": 25922, "pitch": 62, "duration": 99, "velocity": 103}, {"time": 25932, "pitch": 67, "duration": 99, "velocity": 108}, {"time": 26637, "pitch": 57, "duration": 100, "velocity": 93}, {"time": 26637, "pitch": 60, "duration": 100, "velocity": 103}, {"time": 26647, "pitch": 67, "duration": 101, "velocity": 108}, {"time": 27841, "pitch": 57, "duration": 100, "velocity": 93}, {"time": 27841, "pitch": 60, "duration": 100, "velocity": 103}, {"time": 27851, "pitch": 65, "duration": 100, "velocity": 108}, {"time": 28560, "pitch": 57, "duration": 99, "velocity": 93}, {"time": 28560, "pitch": 60, "duration": 99, "velocity": 103}, {"time": 28570, "pitch": 65, "duration": 99, "velocity": 108}, {"time": 29760, "pitch": 57, "duration": 100, "velocity": 93}, {"time": 29760, "pitch": 60, "duration": 100, "velocity": 103}, {"time": 29770, "pitch": 65, "duration": 100, "velocity": 108}, {"time": 30482, "pitch": 59, "duration": 101, "velocity": 93}, {"time": 30482, "pitch": 62, "duration": 101, "velocity": 103}, {"time": 30493, "pitch": 67, "duration": 100, "velocity": 108}, {"time": 31198, "pitch": 40, "duration": 1899, "velocity": 100}, {"time": 31438, "pitch": 55, "duration": 994, "velocity": 90}, {"time": 31679, "pitch": 62, "duration": 1398, "velocity": 100}, {"time": 31920, "pitch": 59, "duration": 1177, "velocity": 105}, {"time": 32401, "pitch": 64, "duration": 716, "velocity": 110}, {"time": 33117, "pitch": 57, "duration": 1565, "velocity": 99}, {"time": 33357, "pitch": 60, "duration": 1274, "velocity": 100}, {"time": 33598, "pitch": 67, "duration": 1074, "velocity": 110}, {"time": 33839, "pitch": 64, "duration": 813, "velocity": 100}, {"time": 34802, "pitch": 57, "duration": 916, "velocity": 93}, {"time": 34802, "pitch": 60, "duration": 916, "velocity": 80}, {"time": 34802, "pitch": 62, "duration": 916, "velocity": 78}, {"time": 34802, "pitch": 65, "duration": 916, "velocity": 107}, {"time": 35758, "pitch": 55, "duration": 923, "velocity": 94}, {"time": 35758, "pitch": 60, "duration": 923, "velocity": 93}, {"time": 35758, "pitch": 62, "duration": 923, "velocity": 81}, {"time": 35758, "pitch": 65, "duration": 923, "velocity": 107}, {"time": 36721, "pitch": 55, "duration": 462, "velocity": 94}, {"time": 36721, "pitch": 59, "duration": 522, "velocity": 83}, {"time": 36721, "pitch": 60, "duration": 522, "velocity": 83}, {"time": 36721, "pitch": 64, "duration": 920, "velocity": 106}, {"time": 37203, "pitch": 55, "duration": 408, "velocity": 82}, {"time": 37443, "pitch": 60, "duration": 415, "velocity": 92}, {"time": 37681, "pitch": 64, "duration": 197, "velocity": 85}, {"time": 37918, "pitch": 56, "duration": 371, "velocity": 75}, {"time": 37918, "pitch": 59, "duration": 371, "velocity": 86}, {"time": 37918, "pitch": 62, "duration": 361, "velocity": 69}, {"time": 37918, "pitch": 65, "duration": 361, "velocity": 93}, {"time": 38399, "pitch": 56, "duration": 392, "velocity": 75}, {"time": 38399, "pitch": 59, "duration": 392, "velocity": 72}, {"time": 38399, "pitch": 62, "duration": 412, "velocity": 78}, {"time": 38399, "pitch": 64, "duration": 402, "velocity": 92}, {"time": 38881, "pitch": 45, "duration": 916, "velocity": 100}, {"time": 39122, "pitch": 55, "duration": 695, "velocity": 90}, {"time": 39362, "pitch": 60, "duration": 475, "velocity": 110}, {"time": 39600, "pitch": 64, "duration": 237, "velocity": 100}, {"time": 39837, "pitch": 58, "duration": 903, "velocity": 100}, {"time": 40077, "pitch": 60, "duration": 482, "velocity": 90}, {"time": 40318, "pitch": 64, "duration": 452, "velocity": 108}, {"time": 40559, "pitch": 60, "duration": 221, "velocity": 98}, {"time": 40800, "pitch": 53, "duration": 702, "velocity": 97}, {"time": 41041, "pitch": 57, "duration": 481, "velocity": 100}, {"time": 41281, "pitch": 60, "duration": 221, "velocity": 91}, {"time": 41522, "pitch": 50, "duration": 201, "velocity": 94}, {"time": 41522, "pitch": 55, "duration": 201, "velocity": 90}, {"time": 41522, "pitch": 59, "duration": 201, "velocity": 85}, {"time": 41522, "pitch": 64, "duration": 201, "velocity": 101}, {"time": 42000, "pitch": 50, "duration": 679, "velocity": 94}, {"time": 42000, "pitch": 57, "duration": 679, "velocity": 92}, {"time": 42000, "pitch": 60, "duration": 679, "velocity": 95}, {"time": 42000, "pitch": 65, "duration": 679, "velocity": 97}, {"time": 42719, "pitch": 46, "duration": 1204, "velocity": 100}, {"time": 42719, "pitch": 65, "duration": 883, "velocity": 100}, {"time": 42960, "pitch": 57, "duration": 481, "velocity": 90}, {"time": 43200, "pitch": 60, "duration": 883, "velocity": 100}, {"time": 43441, "pitch": 57, "duration": 482, "velocity": 90}, {"time": 43682, "pitch": 65, "duration": 699, "velocity": 110}, {"time": 43923, "pitch": 57, "duration": 478, "velocity": 90}, {"time": 44164, "pitch": 60, "duration": 217, "velocity": 100}, {"time": 44401, "pitch": 45, "duration": 939, "velocity": 100}, {"time": 44401, "pitch": 59, "duration": 478, "velocity": 90}, {"time": 44401, "pitch": 62, "duration": 718, "velocity": 101}, {"time": 44401, "pitch": 67, "duration": 939, "velocity": 100}, {"time": 44879, "pitch": 59, "duration": 220, "velocity": 100}, {"time": 45119, "pitch": 62, "duration": 221, "velocity": 90}, {"time": 45360, "pitch": 45, "duration": 1197, "velocity": 100}, {"time": 45360, "pitch": 59, "duration": 401, "velocity": 90}, {"time": 45360, "pitch": 62, "duration": 702, "velocity": 101}, {"time": 45360, "pitch": 67, "duration": 1197, "velocity": 100}, {"time": 45842, "pitch": 59, "duration": 478, "velocity": 100}, {"time": 46083, "pitch": 62, "duration": 474, "velocity": 90}, {"time": 46320, "pitch": 59, "duration": 217, "velocity": 90}, {"time": 46557, "pitch": 62, "duration": 451, "velocity": 100}, {"time": 46798, "pitch": 55, "duration": 451, "velocity": 90}, {"time": 47038, "pitch": 61, "duration": 452, "velocity": 100}, {"time": 47279, "pitch": 55, "duration": 452, "velocity": 90}, {"time": 47520, "pitch": 62, "duration": 451, "velocity": 100}, {"time": 47761, "pitch": 55, "duration": 451, "velocity": 90}, {"time": 48002, "pitch": 64, "duration": 451, "velocity": 100}, {"time": 48242, "pitch": 55, "duration": 221, "velocity": 90}, {"time": 48483, "pitch": 62, "duration": 1598, "velocity": 100}, {"time": 48720, "pitch": 66, "duration": 1100, "velocity": 90}, {"time": 48957, "pitch": 69, "duration": 703, "velocity": 100}, {"time": 49198, "pitch": 74, "duration": 702, "velocity": 110}, {"time": 49680, "pitch": 69, "duration": 702, "velocity": 100}, {"time": 49921, "pitch": 66, "duration": 481, "velocity": 90}, {"time": 50161, "pitch": 61, "duration": 1839, "velocity": 100}, {"time": 50639, "pitch": 66, "duration": 1100, "velocity": 90}, {"time": 50876, "pitch": 69, "duration": 703, "velocity": 100}, {"time": 51117, "pitch": 74, "duration": 702, "velocity": 110}, {"time": 51599, "pitch": 69, "duration": 702, "velocity": 100}, {"time": 51839, "pitch": 66, "duration": 452, "velocity": 90}, {"time": 52321, "pitch": 61, "duration": 1598, "velocity": 100}, {"time": 52562, "pitch": 66, "duration": 1096, "velocity": 90}, {"time": 52803, "pitch": 69, "duration": 695, "velocity": 100}, {"time": 53040, "pitch": 74, "duration": 698, "velocity": 110}, {"time": 53518, "pitch": 69, "duration": 702, "velocity": 100}, {"time": 53758, "pitch": 66, "duration": 221, "velocity": 90}, {"time": 53999, "pitch": 60, "duration": 1839, "velocity": 100}, {"time": 54481, "pitch": 66, "duration": 1098, "velocity": 90}, {"time": 54722, "pitch": 69, "duration": 699, "velocity": 100}, {"time": 54962, "pitch": 74, "duration": 696, "velocity": 110}, {"time": 55440, "pitch": 69, "duration": 699, "velocity": 100}, {"time": 55678, "pitch": 66, "duration": 451, "velocity": 90}, {"time": 56159, "pitch": 59, "duration": 1598, "velocity": 100}, {"time": 56400, "pitch": 62, "duration": 1098, "velocity": 90}, {"time": 56641, "pitch": 67, "duration": 699, "velocity": 100}, {"time": 56881, "pitch": 74, "duration": 696, "velocity": 110}, {"time": 57359, "pitch": 67, "duration": 699, "velocity": 100}, {"time": 57597, "pitch": 62, "duration": 451, "velocity": 90}, {"time": 58078, "pitch": 62, "duration": 1603, "velocity": 100}, {"time": 58319, "pitch": 66, "duration": 1103, "velocity": 90}, {"time": 58560, "pitch": 69, "duration": 702, "velocity": 100}, {"time": 58800, "pitch": 74, "duration": 703, "velocity": 110}, {"time": 59282, "pitch": 69, "duration": 695, "velocity": 100}, {"time": 59523, "pitch": 66, "duration": 444, "velocity": 90}, {"time": 59997, "pitch": 59, "duration": 1605, "velocity": 100}, {"time": 60238, "pitch": 62, "duration": 1103, "velocity": 90}, {"time": 60479, "pitch": 67, "duration": 702, "velocity": 100}, {"time": 60719, "pitch": 71, "duration": 703, "velocity": 110}, {"time": 61201, "pitch": 67, "duration": 702, "velocity": 100}, {"time": 61442, "pitch": 62, "duration": 451, "velocity": 90}, {"time": 61923, "pitch": 59, "duration": 1197, "velocity": 100}, {"time": 62160, "pitch": 62, "duration": 900, "velocity": 90}, {"time": 62398, "pitch": 67, "duration": 602, "velocity": 100}, {"time": 62638, "pitch": 71, "duration": 281, "velocity": 110}, {"time": 63120, "pitch": 64, "duration": 682, "velocity": 100}, {"time": 63120, "pitch": 69, "duration": 682, "velocity": 100}, {"time": 63120, "pitch": 73, "duration": 682, "velocity": 104}, {"time": 63842, "pitch": 62, "duration": 1598, "velocity": 100}, {"time": 64079, "pitch": 66, "duration": 1100, "velocity": 90}, {"time": 64317, "pitch": 69, "duration": 702, "velocity": 100}, {"time": 64557, "pitch": 74, "duration": 703, "velocity": 110}, {"time": 65039, "pitch": 69, "duration": 702, "velocity": 100}, {"time": 65280, "pitch": 66, "duration": 481, "velocity": 90}, {"time": 65521, "pitch": 61, "duration": 1838, "velocity": 100}, {"time": 66002, "pitch": 66, "duration": 1096, "velocity": 90}, {"time": 66243, "pitch": 69, "duration": 695, "velocity": 100}, {"time": 66480, "pitch": 74, "duration": 699, "velocity": 110}, {"time": 66958, "pitch": 69, "duration": 702, "velocity": 100}, {"time": 67199, "pitch": 66, "duration": 451, "velocity": 90}, {"time": 67680, "pitch": 61, "duration": 1598, "velocity": 100}, {"time": 67921, "pitch": 66, "duration": 1098, "velocity": 90}, {"time": 68162, "pitch": 69, "duration": 699, "velocity": 100}, {"time": 68403, "pitch": 74, "duration": 695, "velocity": 110}, {"time": 68881, "pitch": 69, "duration": 698, "velocity": 100}, {"time": 69118, "pitch": 66, "duration": 220, "velocity": 90}, {"time": 69359, "pitch": 60, "duration": 1838, "velocity": 100}, {"time": 69840, "pitch": 66, "duration": 1098, "velocity": 90}, {"time": 70081, "pitch": 69, "duration": 699, "velocity": 100}, {"time": 70322, "pitch": 74, "duration": 695, "velocity": 110}, {"time": 70800, "pitch": 69, "duration": 698, "velocity": 100}, {"time": 71037, "pitch": 66, "duration": 451, "velocity": 90}, {"time": 71518, "pitch": 59, "duration": 1603, "velocity": 100}, {"time": 71759, "pitch": 62, "duration": 1104, "velocity": 90}, {"time": 72000, "pitch": 67, "duration": 702, "velocity": 100}, {"time": 72241, "pitch": 74, "duration": 702, "velocity": 110}, {"time": 72722, "pitch": 67, "duration": 696, "velocity": 100}, {"time": 72963, "pitch": 62, "duration": 445, "velocity": 90}, {"time": 73437, "pitch": 62, "duration": 1606, "velocity": 100}, {"time": 73678, "pitch": 66, "duration": 1104, "velocity": 90}, {"time": 73919, "pitch": 69, "duration": 702, "velocity": 100}, {"time": 74160, "pitch": 74, "duration": 702, "velocity": 110}, {"time": 74641, "pitch": 69, "duration": 703, "velocity": 100}, {"time": 74882, "pitch": 66, "duration": 452, "velocity": 90}, {"time": 75364, "pitch": 59, "duration": 1598, "velocity": 100}, {"time": 75601, "pitch": 62, "duration": 1100, "velocity": 90}, {"time": 75838, "pitch": 67, "duration": 702, "velocity": 100}, {"time": 76079, "pitch": 71, "duration": 702, "velocity": 110}, {"time": 76560, "pitch": 67, "duration": 703, "velocity": 100}, {"time": 76801, "pitch": 62, "duration": 452, "velocity": 90}, {"time": 77283, "pitch": 58, "duration": 1598, "velocity": 100}, {"time": 77520, "pitch": 62, "duration": 1100, "velocity": 90}, {"time": 77757, "pitch": 67, "duration": 702, "velocity": 100}, {"time": 77998, "pitch": 70, "duration": 702, "velocity": 110}, {"time": 78479, "pitch": 67, "duration": 482, "velocity": 100}, {"time": 78720, "pitch": 62, "duration": 221, "velocity": 90}, {"time": 78961, "pitch": 56, "duration": 4059, "velocity": 81}, {"time": 78961, "pitch": 63, "duration": 4059, "velocity": 89}, {"time": 78961, "pitch": 67, "duration": 4059, "velocity": 84}, {"time": 78961, "pitch": 70, "duration": 4059, "velocity": 96}, {"time": 90723, "pitch": 67, "duration": 675, "velocity": 100}, {"time": 90960, "pitch": 57, "duration": 1682, "velocity": 90}, {"time": 91197, "pitch": 60, "duration": 1425, "velocity": 100}, {"time": 91438, "pitch": 67, "duration": 1204, "velocity": 100}, {"time": 92642, "pitch": 67, "duration": 679, "velocity": 100}, {"time": 92883, "pitch": 55, "duration": 1678, "velocity": 90}, {"time": 93123, "pitch": 59, "duration": 1418, "velocity": 100}, {"time": 93361, "pitch": 67, "duration": 1200, "velocity": 100}, {"time": 94561, "pitch": 67, "duration": 679, "velocity": 100}, {"time": 94802, "pitch": 57, "duration": 1678, "velocity": 90}, {"time": 95042, "pitch": 60, "duration": 1418, "velocity": 100}, {"time": 95280, "pitch": 67, "duration": 1200, "velocity": 100}, {"time": 98880, "pitch": 60, "duration": 101, "velocity": 93}, {"time": 98880, "pitch": 64, "duration": 101, "velocity": 103}, {"time": 98890, "pitch": 67, "duration": 101, "velocity": 108}, {"time": 99603, "pitch": 57, "duration": 100, "velocity": 93}, {"time": 99603, "pitch": 60, "duration": 100, "velocity": 103}, {"time": 99613, "pitch": 67, "duration": 100, "velocity": 108}, {"time": 100799, "pitch": 59, "duration": 101, "velocity": 93}, {"time": 100799, "pitch": 62, "duration": 101, "velocity": 103}, {"time": 100809, "pitch": 67, "duration": 101, "velocity": 108}, {"time": 101522, "pitch": 57, "duration": 100, "velocity": 93}, {"time": 101522, "pitch": 60, "duration": 100, "velocity": 103}, {"time": 101532, "pitch": 67, "duration": 100, "velocity": 108}, {"time": 102718, "pitch": 57, "duration": 101, "velocity": 93}, {"time": 102718, "pitch": 60, "duration": 101, "velocity": 103}, {"time": 102728, "pitch": 65, "duration": 101, "velocity": 108}, {"time": 103441, "pitch": 57, "duration": 100, "velocity": 93}, {"time": 103441, "pitch": 60, "duration": 100, "velocity": 103}, {"time": 103451, "pitch": 65, "duration": 100, "velocity": 108}, {"time": 104637, "pitch": 57, "duration": 101, "velocity": 93}, {"time": 104637, "pitch": 60, "duration": 101, "velocity": 103}, {"time": 104647, "pitch": 65, "duration": 101, "velocity": 108}, {"time": 105360, "pitch": 59, "duration": 100, "velocity": 93}, {"time": 105360, "pitch": 62, "duration": 100, "velocity": 103}, {"time": 105370, "pitch": 67, "duration": 100, "velocity": 108}, {"time": 106556, "pitch": 60, "duration": 101, "velocity": 93}, {"time": 106556, "pitch": 64, "duration": 101, "velocity": 103}, {"time": 106566, "pitch": 67, "duration": 101, "velocity": 108}, {"time": 107279, "pitch": 57, "duration": 100, "velocity": 93}, {"time": 107279, "pitch": 60, "duration": 100, "velocity": 103}, {"time": 107289, "pitch": 67, "duration": 100, "velocity": 108}, {"time": 108483, "pitch": 59, "duration": 99, "velocity": 93}, {"time": 108483, "pitch": 62, "duration": 99, "velocity": 103}, {"time": 108493, "pitch": 67, "duration": 98, "velocity": 108}, {"time": 109198, "pitch": 57, "duration": 100, "velocity": 93}, {"time": 109198, "pitch": 60, "duration": 100, "velocity": 103}, {"time": 109208, "pitch": 67, "duration": 100, "velocity": 108}, {"time": 110402, "pitch": 57, "duration": 100, "velocity": 93}, {"time": 110402, "pitch": 60, "duration": 100, "velocity": 103}, {"time": 110412, "pitch": 65, "duration": 100, "velocity": 108}, {"time": 111120, "pitch": 57, "duration": 99, "velocity": 93}, {"time": 111120, "pitch": 60, "duration": 99, "velocity": 103}, {"time": 111130, "pitch": 65, "duration": 99, "velocity": 108}, {"time": 112321, "pitch": 57, "duration": 100, "velocity": 93}, {"time": 112321, "pitch": 60, "duration": 100, "velocity": 103}, {"time": 112331, "pitch": 65, "duration": 100, "velocity": 108}, {"time": 113039, "pitch": 59, "duration": 99, "velocity": 93}, {"time": 113039, "pitch": 62, "duration": 99, "velocity": 103}, {"time": 113049, "pitch": 67, "duration": 99, "velocity": 108}, {"time": 113758, "pitch": 40, "duration": 1899, "velocity": 100}, {"time": 113999, "pitch": 55, "duration": 993, "velocity": 90}, {"time": 114240, "pitch": 62, "duration": 1398, "velocity": 100}, {"time": 114480, "pitch": 59, "duration": 1177, "velocity": 105}, {"time": 114962, "pitch": 64, "duration": 715, "velocity": 110}, {"time": 115677, "pitch": 57, "duration": 1565, "velocity": 99}, {"time": 115918, "pitch": 60, "duration": 1274, "velocity": 100}, {"time": 116159, "pitch": 67, "duration": 1073, "velocity": 110}, {"time": 116399, "pitch": 64, "duration": 813, "velocity": 100}, {"time": 117363, "pitch": 57, "duration": 915, "velocity": 93}, {"time": 117363, "pitch": 60, "duration": 915, "velocity": 80}, {"time": 117363, "pitch": 62, "duration": 915, "velocity": 78}, {"time": 117363, "pitch": 65, "duration": 915, "velocity": 107}, {"time": 118318, "pitch": 55, "duration": 924, "velocity": 94}, {"time": 118318, "pitch": 60, "duration": 924, "velocity": 93}, {"time": 118318, "pitch": 62, "duration": 924, "velocity": 81}, {"time": 118318, "pitch": 65, "duration": 924, "velocity": 107}, {"time": 119282, "pitch": 55, "duration": 458, "velocity": 94}, {"time": 119282, "pitch": 59, "duration": 517, "velocity": 83}, {"time": 119282, "pitch": 60, "duration": 517, "velocity": 83}, {"time": 119282, "pitch": 64, "duration": 915, "velocity": 106}, {"time": 119760, "pitch": 55, "duration": 407, "velocity": 82}, {"time": 119997, "pitch": 60, "duration": 421, "velocity": 92}, {"time": 120237, "pitch": 64, "duration": 201, "velocity": 85}, {"time": 120478, "pitch": 56, "duration": 371, "velocity": 75}, {"time": 120478, "pitch": 59, "duration": 371, "velocity": 86}, {"time": 120478, "pitch": 62, "duration": 361, "velocity": 69}, {"time": 120478, "pitch": 65, "duration": 361, "velocity": 93}, {"time": 120960, "pitch": 56, "duration": 391, "velocity": 75}, {"time": 120960, "pitch": 59, "duration": 391, "velocity": 72}, {"time": 120960, "pitch": 62, "duration": 411, "velocity": 78}, {"time": 120960, "pitch": 64, "duration": 401, "velocity": 92}, {"time": 121441, "pitch": 45, "duration": 917, "velocity": 100}, {"time": 121682, "pitch": 55, "duration": 696, "velocity": 90}, {"time": 121923, "pitch": 60, "duration": 474, "velocity": 110}, {"time": 122160, "pitch": 64, "duration": 237, "velocity": 100}, {"time": 122397, "pitch": 58, "duration": 903, "velocity": 100}, {"time": 122638, "pitch": 60, "duration": 482, "velocity": 90}, {"time": 122879, "pitch": 64, "duration": 451, "velocity": 108}, {"time": 123120, "pitch": 60, "duration": 220, "velocity": 98}, {"time": 123360, "pitch": 53, "duration": 703, "velocity": 97}, {"time": 123601, "pitch": 57, "duration": 482, "velocity": 100}, {"time": 123842, "pitch": 60, "duration": 221, "velocity": 91}, {"time": 124083, "pitch": 50, "duration": 200, "velocity": 94}, {"time": 124083, "pitch": 55, "duration": 200, "velocity": 90}, {"time": 124083, "pitch": 59, "duration": 200, "velocity": 85}, {"time": 124083, "pitch": 64, "duration": 200, "velocity": 101}, {"time": 124561, "pitch": 50, "duration": 678, "velocity": 94}, {"time": 124561, "pitch": 57, "duration": 678, "velocity": 92}, {"time": 124561, "pitch": 60, "duration": 678, "velocity": 95}, {"time": 124561, "pitch": 65, "duration": 678, "velocity": 97}, {"time": 125279, "pitch": 46, "duration": 1201, "velocity": 100}, {"time": 125279, "pitch": 65, "duration": 883, "velocity": 100}, {"time": 125520, "pitch": 57, "duration": 482, "velocity": 90}, {"time": 125761, "pitch": 60, "duration": 877, "velocity": 100}, {"time": 126002, "pitch": 57, "duration": 478, "velocity": 90}, {"time": 126243, "pitch": 65, "duration": 695, "velocity": 110}, {"time": 126480, "pitch": 57, "duration": 478, "velocity": 90}, {"time": 126717, "pitch": 60, "duration": 221, "velocity": 100}, {"time": 126958, "pitch": 45, "duration": 943, "velocity": 100}, {"time": 126958, "pitch": 59, "duration": 481, "velocity": 90}, {"time": 126958, "pitch": 62, "duration": 722, "velocity": 101}, {"time": 126958, "pitch": 67, "duration": 943, "velocity": 100}, {"time": 127439, "pitch": 59, "duration": 221, "velocity": 100}, {"time": 127680, "pitch": 62, "duration": 221, "velocity": 90}, {"time": 127921, "pitch": 45, "duration": 1196, "velocity": 100}, {"time": 127921, "pitch": 59, "duration": 401, "velocity": 90}, {"time": 127921, "pitch": 62, "duration": 702, "velocity": 101}, {"time": 127921, "pitch": 67, "duration": 1196, "velocity": 100}, {"time": 128402, "pitch": 59, "duration": 478, "velocity": 100}, {"time": 128643, "pitch": 62, "duration": 474, "velocity": 90}, {"time": 128880, "pitch": 59, "duration": 218, "velocity": 90}, {"time": 129117, "pitch": 62, "duration": 452, "velocity": 100}, {"time": 129358, "pitch": 55, "duration": 452, "velocity": 90}, {"time": 129599, "pitch": 61, "duration": 451, "velocity": 100}, {"time": 129840, "pitch": 55, "duration": 451, "velocity": 90}, {"time": 130081, "pitch": 62, "duration": 451, "velocity": 100}, {"time": 130321, "pitch": 55, "duration": 449, "velocity": 90}, {"time": 130562, "pitch": 64, "duration": 445, "velocity": 100}, {"time": 130799, "pitch": 55, "duration": 218, "velocity": 90}, {"time": 131036, "pitch": 62, "duration": 1606, "velocity": 100}, {"time": 131277, "pitch": 66, "duration": 1104, "velocity": 90}, {"time": 131518, "pitch": 69, "duration": 702, "velocity": 100}, {"time": 131759, "pitch": 74, "duration": 702, "velocity": 110}, {"time": 132240, "pitch": 69, "duration": 703, "velocity": 100}, {"time": 132481, "pitch": 66, "duration": 482, "velocity": 90}, {"time": 132722, "pitch": 61, "duration": 1839, "velocity": 100}, {"time": 133200, "pitch": 66, "duration": 1100, "velocity": 90}, {"time": 133437, "pitch": 69, "duration": 702, "velocity": 100}, {"time": 133678, "pitch": 74, "duration": 702, "velocity": 110}, {"time": 134159, "pitch": 69, "duration": 703, "velocity": 100}, {"time": 134400, "pitch": 66, "duration": 452, "velocity": 90}, {"time": 134882, "pitch": 61, "duration": 1598, "velocity": 100}, {"time": 135122, "pitch": 66, "duration": 1097, "velocity": 90}, {"time": 135363, "pitch": 69, "duration": 695, "velocity": 100}, {"time": 135600, "pitch": 74, "duration": 699, "velocity": 110}, {"time": 136078, "pitch": 69, "duration": 703, "velocity": 100}, {"time": 136319, "pitch": 66, "duration": 221, "velocity": 90}, {"time": 136560, "pitch": 60, "duration": 1839, "velocity": 100}, {"time": 137041, "pitch": 66, "duration": 1097, "velocity": 90}, {"time": 137282, "pitch": 69, "duration": 695, "velocity": 100}, {"time": 137519, "pitch": 74, "duration": 699, "velocity": 110}, {"time": 137997, "pitch": 69, "duration": 703, "velocity": 100}, {"time": 138238, "pitch": 66, "duration": 452, "velocity": 90}, {"time": 138720, "pitch": 59, "duration": 1598, "velocity": 100}, {"time": 138960, "pitch": 62, "duration": 1098, "velocity": 90}, {"time": 139201, "pitch": 67, "duration": 699, "velocity": 100}, {"time": 139442, "pitch": 74, "duration": 695, "velocity": 110}, {"time": 139920, "pitch": 67, "duration": 699, "velocity": 100}, {"time": 140157, "pitch": 62, "duration": 452, "velocity": 90}, {"time": 140639, "pitch": 62, "duration": 1602, "velocity": 100}, {"time": 140879, "pitch": 66, "duration": 1104, "velocity": 90}, {"time": 141120, "pitch": 69, "duration": 703, "velocity": 100}, {"time": 141361, "pitch": 74, "duration": 702, "velocity": 110}, {"time": 141843, "pitch": 69, "duration": 695, "velocity": 100}, {"time": 142083, "pitch": 66, "duration": 445, "velocity": 90}, {"time": 142558, "pitch": 59, "duration": 1602, "velocity": 100}, {"time": 142798, "pitch": 62, "duration": 1104, "velocity": 90}, {"time": 143039, "pitch": 67, "duration": 703, "velocity": 100}, {"time": 143280, "pitch": 71, "duration": 702, "velocity": 110}, {"time": 143762, "pitch": 67, "duration": 695, "velocity": 100}, {"time": 144002, "pitch": 62, "duration": 445, "velocity": 90}, {"time": 144477, "pitch": 59, "duration": 1204, "velocity": 100}, {"time": 144717, "pitch": 62, "duration": 903, "velocity": 90}, {"time": 144958, "pitch": 67, "duration": 602, "velocity": 100}, {"time": 145199, "pitch": 71, "duration": 281, "velocity": 110}, {"time": 145681, "pitch": 64, "duration": 682, "velocity": 100}, {"time": 145681, "pitch": 69, "duration": 682, "velocity": 100}, {"time": 145681, "pitch": 73, "duration": 682, "velocity": 104}, {"time": 146403, "pitch": 62, "duration": 1598, "velocity": 100}, {"time": 146640, "pitch": 66, "duration": 1100, "velocity": 90}, {"time": 146877, "pitch": 69, "duration": 703, "velocity": 100}, {"time": 147118, "pitch": 74, "duration": 702, "velocity": 110}, {"time": 147600, "pitch": 69, "duration": 702, "velocity": 100}, {"time": 147840, "pitch": 66, "duration": 482, "velocity": 90}, {"time": 148081, "pitch": 61, "duration": 1839, "velocity": 100}, {"time": 148563, "pitch": 66, "duration": 1096, "velocity": 90}, {"time": 148804, "pitch": 69, "duration": 695, "velocity": 100}, {"time": 149041, "pitch": 74, "duration": 698, "velocity": 110}, {"time": 149519, "pitch": 69, "duration": 702, "velocity": 100}, {"time": 149759, "pitch": 66, "duration": 452, "velocity": 90}, {"time": 150241, "pitch": 61, "duration": 1598, "velocity": 100}, {"time": 150482, "pitch": 66, "duration": 1096, "velocity": 90}, {"time": 150723, "pitch": 69, "duration": 694, "velocity": 100}, {"time": 150960, "pitch": 74, "duration": 698, "velocity": 110}, {"time": 151438, "pitch": 69, "duration": 702, "velocity": 100}, {"time": 151678, "pitch": 66, "duration": 221, "velocity": 90}, {"time": 151919, "pitch": 60, "duration": 1839, "velocity": 100}, {"time": 152401, "pitch": 66, "duration": 1098, "velocity": 90}, {"time": 152642, "pitch": 69, "duration": 698, "velocity": 100}, {"time": 152882, "pitch": 74, "duration": 696, "velocity": 110}, {"time": 153360, "pitch": 69, "duration": 699, "velocity": 100}, {"time": 153597, "pitch": 66, "duration": 452, "velocity": 90}, {"time": 154079, "pitch": 59, "duration": 1598, "velocity": 100}, {"time": 154320, "pitch": 62, "duration": 1098, "velocity": 90}, {"time": 154561, "pitch": 67, "duration": 698, "velocity": 100}, {"time": 154801, "pitch": 74, "duration": 696, "velocity": 110}, {"time": 155279, "pitch": 67, "duration": 699, "velocity": 100}, {"time": 155516, "pitch": 62, "duration": 452, "velocity": 90}, {"time": 155998, "pitch": 62, "duration": 1603, "velocity": 100}, {"time": 156239, "pitch": 66, "duration": 1103, "velocity": 90}, {"time": 156480, "pitch": 69, "duration": 702, "velocity": 100}, {"time": 156720, "pitch": 74, "duration": 703, "velocity": 110}, {"time": 157202, "pitch": 69, "duration": 695, "velocity": 100}, {"time": 157443, "pitch": 66, "duration": 444, "velocity": 90}, {"time": 157917, "pitch": 59, "duration": 1605, "velocity": 100}, {"time": 158158, "pitch": 62, "duration": 1103, "velocity": 90}, {"time": 158398, "pitch": 67, "duration": 703, "velocity": 100}, {"time": 158639, "pitch": 71, "duration": 703, "velocity": 110}, {"time": 159121, "pitch": 67, "duration": 702, "velocity": 100}, {"time": 159362, "pitch": 62, "duration": 451, "velocity": 90}, {"time": 159843, "pitch": 58, "duration": 1598, "velocity": 100}, {"time": 160080, "pitch": 62, "duration": 1100, "velocity": 90}, {"time": 160318, "pitch": 67, "duration": 702, "velocity": 100}, {"time": 160558, "pitch": 70, "duration": 703, "velocity": 110}, {"time": 161040, "pitch": 67, "duration": 481, "velocity": 100}, {"time": 161281, "pitch": 62, "duration": 220, "velocity": 90}, {"time": 161521, "pitch": 59, "duration": 2140, "velocity": 81}, {"time": 161521, "pitch": 62, "duration": 2140, "velocity": 89}, {"time": 161521, "pitch": 67, "duration": 2140, "velocity": 84}, {"time": 161521, "pitch": 71, "duration": 2140, "velocity": 96}, {"time": 163681, "pitch": 57, "duration": 917, "velocity": 100}, {"time": 163681, "pitch": 64, "duration": 917, "velocity": 90}, {"time": 163681, "pitch": 69, "duration": 917, "velocity": 90}, {"time": 163681, "pitch": 73, "duration": 917, "velocity": 100}, {"time": 164637, "pitch": 57, "duration": 923, "velocity": 100}, {"time": 164637, "pitch": 62, "duration": 923, "velocity": 90}, {"time": 164637, "pitch": 67, "duration": 923, "velocity": 90}, {"time": 164637, "pitch": 71, "duration": 923, "velocity": 100}, {"time": 165600, "pitch": 62, "duration": 1598, "velocity": 100}, {"time": 165841, "pitch": 66, "duration": 1098, "velocity": 90}, {"time": 166082, "pitch": 69, "duration": 699, "velocity": 100}, {"time": 166323, "pitch": 74, "duration": 695, "velocity": 110}, {"time": 166800, "pitch": 69, "duration": 699, "velocity": 100}, {"time": 167038, "pitch": 66, "duration": 481, "velocity": 90}, {"time": 167278, "pitch": 61, "duration": 1839, "velocity": 100}, {"time": 167760, "pitch": 66, "duration": 1098, "velocity": 90}, {"time": 168001, "pitch": 69, "duration": 699, "velocity": 100}, {"time": 168242, "pitch": 74, "duration": 695, "velocity": 110}, {"time": 168719, "pitch": 69, "duration": 699, "velocity": 100}, {"time": 168957, "pitch": 66, "duration": 451, "velocity": 90}, {"time": 169438, "pitch": 61, "duration": 1603, "velocity": 100}, {"time": 169679, "pitch": 66, "duration": 1104, "velocity": 90}, {"time": 169920, "pitch": 69, "duration": 702, "velocity": 100}, {"time": 170161, "pitch": 74, "duration": 702, "velocity": 110}, {"time": 170642, "pitch": 69, "duration": 695, "velocity": 100}, {"time": 170883, "pitch": 66, "duration": 217, "velocity": 90}, {"time": 171120, "pitch": 60, "duration": 1842, "velocity": 100}, {"time": 171598, "pitch": 66, "duration": 1104, "velocity": 90}, {"time": 171839, "pitch": 69, "duration": 702, "velocity": 100}, {"time": 172080, "pitch": 74, "duration": 702, "velocity": 110}, {"time": 172561, "pitch": 69, "duration": 702, "velocity": 100}, {"time": 172802, "pitch": 66, "duration": 451, "velocity": 90}, {"time": 173283, "pitch": 59, "duration": 1598, "velocity": 100}, {"time": 173521, "pitch": 62, "duration": 1100, "velocity": 90}, {"time": 173758, "pitch": 67, "duration": 702, "velocity": 100}, {"time": 173999, "pitch": 74, "duration": 702, "velocity": 110}, {"time": 174480, "pitch": 67, "duration": 702, "velocity": 100}, {"time": 174721, "pitch": 62, "duration": 451, "velocity": 90}, {"time": 175202, "pitch": 62, "duration": 1598, "velocity": 100}, {"time": 175440, "pitch": 66, "duration": 1100, "velocity": 90}, {"time": 175677, "pitch": 69, "duration": 702, "velocity": 100}, {"time": 175918, "pitch": 74, "duration": 702, "velocity": 110}, {"time": 176399, "pitch": 69, "duration": 702, "velocity": 100}, {"time": 176640, "pitch": 66, "duration": 451, "velocity": 90}, {"time": 177122, "pitch": 59, "duration": 1597, "velocity": 100}, {"time": 177362, "pitch": 62, "duration": 1097, "velocity": 90}, {"time": 177603, "pitch": 67, "duration": 695, "velocity": 100}, {"time": 177840, "pitch": 71, "duration": 699, "velocity": 110}, {"time": 178318, "pitch": 67, "duration": 702, "velocity": 100}, {"time": 178559, "pitch": 62, "duration": 451, "velocity": 90}, {"time": 179040, "pitch": 59, "duration": 1201, "velocity": 100}, {"time": 179281, "pitch": 62, "duration": 900, "velocity": 90}, {"time": 179522, "pitch": 67, "duration": 600, "velocity": 100}, {"time": 179763, "pitch": 71, "duration": 280, "velocity": 110}, {"time": 180241, "pitch": 64, "duration": 678, "velocity": 100}, {"time": 180241, "pitch": 69, "duration": 678, "velocity": 100}, {"time": 180241, "pitch": 73, "duration": 678, "velocity": 104}, {"time": 180959, "pitch": 62, "duration": 1598, "velocity": 100}, {"time": 181200, "pitch": 66, "duration": 1098, "velocity": 90}, {"time": 181441, "pitch": 69, "duration": 699, "velocity": 100}, {"time": 181682, "pitch": 74, "duration": 695, "velocity": 110}, {"time": 182160, "pitch": 69, "duration": 698, "velocity": 100}, {"time": 182397, "pitch": 66, "duration": 481, "velocity": 90}, {"time": 182638, "pitch": 61, "duration": 1843, "velocity": 100}, {"time": 183119, "pitch": 66, "duration": 1104, "velocity": 90}, {"time": 183360, "pitch": 69, "duration": 702, "velocity": 100}, {"time": 183601, "pitch": 74, "duration": 702, "velocity": 110}, {"time": 184082, "pitch": 69, "duration": 696, "velocity": 100}, {"time": 184323, "pitch": 66, "duration": 445, "velocity": 90}, {"time": 184797, "pitch": 61, "duration": 1603, "velocity": 100}, {"time": 185038, "pitch": 66, "duration": 1104, "velocity": 90}, {"time": 185279, "pitch": 69, "duration": 702, "velocity": 100}, {"time": 185520, "pitch": 74, "duration": 702, "velocity": 110}, {"time": 186001, "pitch": 69, "duration": 696, "velocity": 100}, {"time": 186242, "pitch": 66, "duration": 218, "velocity": 90}, {"time": 186479, "pitch": 60, "duration": 1843, "velocity": 100}, {"time": 186957, "pitch": 66, "duration": 1104, "velocity": 90}, {"time": 187198, "pitch": 69, "duration": 702, "velocity": 100}, {"time": 187439, "pitch": 74, "duration": 702, "velocity": 110}, {"time": 187920, "pitch": 69, "duration": 703, "velocity": 100}, {"time": 188161, "pitch": 66, "duration": 452, "velocity": 90}, {"time": 188643, "pitch": 59, "duration": 1598, "velocity": 100}, {"time": 188880, "pitch": 62, "duration": 1100, "velocity": 90}, {"time": 189117, "pitch": 67, "duration": 702, "velocity": 100}, {"time": 189358, "pitch": 74, "duration": 702, "velocity": 110}, {"time": 189839, "pitch": 67, "duration": 703, "velocity": 100}, {"time": 190080, "pitch": 62, "duration": 452, "velocity": 90}, {"time": 190562, "pitch": 62, "duration": 1598, "velocity": 100}, {"time": 190803, "pitch": 66, "duration": 1096, "velocity": 90}, {"time": 191043, "pitch": 69, "duration": 695, "velocity": 100}, {"time": 191280, "pitch": 74, "duration": 699, "velocity": 110}, {"time": 191758, "pitch": 69, "duration": 703, "velocity": 100}, {"time": 191999, "pitch": 66, "duration": 452, "velocity": 90}, {"time": 192481, "pitch": 59, "duration": 1598, "velocity": 100}, {"time": 192722, "pitch": 62, "duration": 1096, "velocity": 90}, {"time": 192962, "pitch": 67, "duration": 695, "velocity": 100}, {"time": 193199, "pitch": 71, "duration": 699, "velocity": 110}, {"time": 193677, "pitch": 67, "duration": 703, "velocity": 100}, {"time": 193918, "pitch": 62, "duration": 452, "velocity": 90}, {"time": 194400, "pitch": 58, "duration": 1598, "velocity": 100}, {"time": 194641, "pitch": 62, "duration": 1097, "velocity": 90}, {"time": 194881, "pitch": 67, "duration": 699, "velocity": 100}, {"time": 195122, "pitch": 70, "duration": 695, "velocity": 110}, {"time": 195600, "pitch": 67, "duration": 478, "velocity": 100}, {"time": 195837, "pitch": 62, "duration": 221, "velocity": 90}, {"time": 196078, "pitch": 57, "duration": 2140, "velocity": 81}, {"time": 196078, "pitch": 62, "duration": 2140, "velocity": 89}, {"time": 196078, "pitch": 66, "duration": 2140, "velocity": 84}, {"time": 196078, "pitch": 69, "duration": 2140, "velocity": 96}, {"time": 48483, "pitch": 50, "duration": 217, "velocity": 100}, {"time": 48483, "pitch": 57, "duration": 217, "velocity": 80}, {"time": 48493, "pitch": 62, "duration": 217, "velocity": 90}, {"time": 48493, "pitch": 66, "duration": 217, "velocity": 100}, {"time": 48720, "pitch": 62, "duration": 218, "velocity": 80}, {"time": 48720, "pitch": 66, "duration": 218, "velocity": 90}, {"time": 48730, "pitch": 50, "duration": 217, "velocity": 80}, {"time": 48730, "pitch": 57, "duration": 217, "velocity": 70}, {"time": 48957, "pitch": 50, "duration": 10, "velocity": 100}, {"time": 48957, "pitch": 57, "duration": 10, "velocity": 80}, {"time": 48967, "pitch": 62, "duration": 10, "velocity": 90}, {"time": 48967, "pitch": 66, "duration": 10, "velocity": 100}, {"time": 49198, "pitch": 62, "duration": 221, "velocity": 80}, {"time": 49198, "pitch": 66, "duration": 221, "velocity": 90}, {"time": 49208, "pitch": 50, "duration": 221, "velocity": 80}, {"time": 49208, "pitch": 57, "duration": 221, "velocity": 70}, {"time": 49439, "pitch": 50, "duration": 221, "velocity": 100}, {"time": 49439, "pitch": 57, "duration": 221, "velocity": 80}, {"time": 49449, "pitch": 62, "duration": 221, "velocity": 90}, {"time": 49449, "pitch": 66, "duration": 221, "velocity": 100}, {"time": 49680, "pitch": 62, "duration": 220, "velocity": 80}, {"time": 49680, "pitch": 66, "duration": 220, "velocity": 90}, {"time": 49690, "pitch": 50, "duration": 220, "velocity": 80}, {"time": 49690, "pitch": 57, "duration": 220, "velocity": 70}, {"time": 49921, "pitch": 50, "duration": 10, "velocity": 100}, {"time": 49921, "pitch": 57, "duration": 10, "velocity": 80}, {"time": 49931, "pitch": 62, "duration": 10, "velocity": 90}, {"time": 49931, "pitch": 66, "duration": 10, "velocity": 100}, {"time": 50161, "pitch": 61, "duration": 468, "velocity": 90}, {"time": 50161, "pitch": 66, "duration": 468, "velocity": 100}, {"time": 50171, "pitch": 50, "duration": 448, "velocity": 90}, {"time": 50171, "pitch": 57, "duration": 448, "velocity": 80}, {"time": 50639, "pitch": 61, "duration": 218, "velocity": 80}, {"time": 50639, "pitch": 66, "duration": 218, "velocity": 90}, {"time": 50649, "pitch": 50, "duration": 217, "velocity": 80}, {"time": 50649, "pitch": 57, "duration": 217, "velocity": 70}, {"time": 50876, "pitch": 50, "duration": 10, "velocity": 100}, {"time": 50876, "pitch": 57, "duration": 10, "velocity": 80}, {"time": 50886, "pitch": 61, "duration": 10, "velocity": 90}, {"time": 50886, "pitch": 66, "duration": 10, "velocity": 100}, {"time": 51117, "pitch": 61, "duration": 221, "velocity": 80}, {"time": 51117, "pitch": 66, "duration": 221, "velocity": 90}, {"time": 51127, "pitch": 50, "duration": 221, "velocity": 80}, {"time": 51127, "pitch": 57, "duration": 221, "velocity": 70}, {"time": 51358, "pitch": 50, "duration": 221, "velocity": 100}, {"time": 51358, "pitch": 57, "duration": 221, "velocity": 80}, {"time": 51368, "pitch": 61, "duration": 221, "velocity": 90}, {"time": 51368, "pitch": 66, "duration": 221, "velocity": 100}, {"time": 51599, "pitch": 61, "duration": 220, "velocity": 80}, {"time": 51599, "pitch": 66, "duration": 220, "velocity": 90}, {"time": 51609, "pitch": 50, "duration": 220, "velocity": 80}, {"time": 51609, "pitch": 57, "duration": 220, "velocity": 70}, {"time": 51839, "pitch": 50, "duration": 11, "velocity": 100}, {"time": 51839, "pitch": 57, "duration": 11, "velocity": 80}, {"time": 51850, "pitch": 61, "duration": 10, "velocity": 90}, {"time": 51850, "pitch": 66, "duration": 10, "velocity": 100}, {"time": 52080, "pitch": 61, "duration": 221, "velocity": 90}, {"time": 52080, "pitch": 66, "duration": 221, "velocity": 90}, {"time": 52090, "pitch": 50, "duration": 221, "velocity": 80}, {"time": 52090, "pitch": 57, "duration": 221, "velocity": 70}, {"time": 52321, "pitch": 50, "duration": 221, "velocity": 100}, {"time": 52321, "pitch": 57, "duration": 221, "velocity": 80}, {"time": 52331, "pitch": 61, "duration": 221, "velocity": 90}, {"time": 52331, "pitch": 66, "duration": 221, "velocity": 100}, {"time": 52562, "pitch": 61, "duration": 221, "velocity": 80}, {"time": 52562, "pitch": 66, "duration": 221, "velocity": 90}, {"time": 52572, "pitch": 50, "duration": 221, "velocity": 80}, {"time": 52572, "pitch": 57, "duration": 221, "velocity": 70}, {"time": 52803, "pitch": 50, "duration": 10, "velocity": 100}, {"time": 52803, "pitch": 57, "duration": 10, "velocity": 80}, {"time": 52813, "pitch": 61, "duration": 9, "velocity": 90}, {"time": 52813, "pitch": 66, "duration": 9, "velocity": 100}, {"time": 53040, "pitch": 61, "duration": 217, "velocity": 80}, {"time": 53040, "pitch": 66, "duration": 217, "velocity": 90}, {"time": 53050, "pitch": 50, "duration": 217, "velocity": 80}, {"time": 53050, "pitch": 57, "duration": 217, "velocity": 70}, {"time": 53277, "pitch": 50, "duration": 221, "velocity": 100}, {"time": 53277, "pitch": 57, "duration": 221, "velocity": 80}, {"time": 53287, "pitch": 61, "duration": 221, "velocity": 90}, {"time": 53287, "pitch": 66, "duration": 221, "velocity": 100}, {"time": 53518, "pitch": 61, "duration": 220, "velocity": 80}, {"time": 53518, "pitch": 66, "duration": 220, "velocity": 90}, {"time": 53528, "pitch": 50, "duration": 220, "velocity": 80}, {"time": 53528, "pitch": 57, "duration": 220, "velocity": 70}, {"time": 53758, "pitch": 50, "duration": 11, "velocity": 100}, {"time": 53758, "pitch": 57, "duration": 11, "velocity": 80}, {"time": 53769, "pitch": 61, "duration": 10, "velocity": 90}, {"time": 53769, "pitch": 66, "duration": 10, "velocity": 100}, {"time": 53999, "pitch": 60, "duration": 472, "velocity": 90}, {"time": 53999, "pitch": 66, "duration": 472, "velocity": 100}, {"time": 54009, "pitch": 50, "duration": 452, "velocity": 90}, {"time": 54009, "pitch": 57, "duration": 452, "velocity": 80}, {"time": 54481, "pitch": 60, "duration": 221, "velocity": 80}, {"time": 54481, "pitch": 66, "duration": 221, "velocity": 90}, {"time": 54491, "pitch": 50, "duration": 221, "velocity": 80}, {"time": 54491, "pitch": 57, "duration": 221, "velocity": 70}, {"time": 54722, "pitch": 50, "duration": 10, "velocity": 100}, {"time": 54722, "pitch": 57, "duration": 10, "velocity": 80}, {"time": 54732, "pitch": 60, "duration": 10, "velocity": 90}, {"time": 54732, "pitch": 66, "duration": 10, "velocity": 100}, {"time": 54962, "pitch": 60, "duration": 221, "velocity": 80}, {"time": 54962, "pitch": 66, "duration": 221, "velocity": 90}, {"time": 54972, "pitch": 50, "duration": 221, "velocity": 80}, {"time": 54972, "pitch": 57, "duration": 221, "velocity": 70}, {"time": 55203, "pitch": 50, "duration": 218, "velocity": 100}, {"time": 55203, "pitch": 57, "duration": 218, "velocity": 80}, {"time": 55213, "pitch": 60, "duration": 217, "velocity": 90}, {"time": 55213, "pitch": 66, "duration": 217, "velocity": 100}, {"time": 55440, "pitch": 60, "duration": 218, "velocity": 80}, {"time": 55440, "pitch": 66, "duration": 218, "velocity": 90}, {"time": 55450, "pitch": 50, "duration": 218, "velocity": 80}, {"time": 55450, "pitch": 57, "duration": 218, "velocity": 70}, {"time": 55678, "pitch": 50, "duration": 9, "velocity": 100}, {"time": 55678, "pitch": 57, "duration": 9, "velocity": 80}, {"time": 55687, "pitch": 60, "duration": 11, "velocity": 90}, {"time": 55687, "pitch": 66, "duration": 11, "velocity": 100}, {"time": 55918, "pitch": 60, "duration": 221, "velocity": 90}, {"time": 55918, "pitch": 66, "duration": 221, "velocity": 90}, {"time": 55928, "pitch": 50, "duration": 221, "velocity": 80}, {"time": 55928, "pitch": 57, "duration": 221, "velocity": 70}, {"time": 56159, "pitch": 50, "duration": 221, "velocity": 100}, {"time": 56159, "pitch": 55, "duration": 221, "velocity": 80}, {"time": 56169, "pitch": 59, "duration": 221, "velocity": 90}, {"time": 56169, "pitch": 67, "duration": 221, "velocity": 100}, {"time": 56400, "pitch": 59, "duration": 221, "velocity": 80}, {"time": 56400, "pitch": 67, "duration": 221, "velocity": 90}, {"time": 56410, "pitch": 50, "duration": 221, "velocity": 80}, {"time": 56410, "pitch": 55, "duration": 221, "velocity": 70}, {"time": 56641, "pitch": 50, "duration": 10, "velocity": 100}, {"time": 56641, "pitch": 55, "duration": 10, "velocity": 80}, {"time": 56651, "pitch": 59, "duration": 10, "velocity": 90}, {"time": 56651, "pitch": 67, "duration": 10, "velocity": 100}, {"time": 56881, "pitch": 59, "duration": 221, "velocity": 80}, {"time": 56881, "pitch": 67, "duration": 221, "velocity": 90}, {"time": 56891, "pitch": 50, "duration": 221, "velocity": 80}, {"time": 56891, "pitch": 55, "duration": 221, "velocity": 70}, {"time": 57122, "pitch": 50, "duration": 218, "velocity": 100}, {"time": 57122, "pitch": 55, "duration": 218, "velocity": 80}, {"time": 57132, "pitch": 59, "duration": 217, "velocity": 90}, {"time": 57132, "pitch": 67, "duration": 217, "velocity": 100}, {"time": 57359, "pitch": 59, "duration": 218, "velocity": 80}, {"time": 57359, "pitch": 67, "duration": 218, "velocity": 90}, {"time": 57369, "pitch": 50, "duration": 218, "velocity": 80}, {"time": 57369, "pitch": 55, "duration": 218, "velocity": 70}, {"time": 57597, "pitch": 50, "duration": 9, "velocity": 100}, {"time": 57597, "pitch": 55, "duration": 9, "velocity": 80}, {"time": 57606, "pitch": 59, "duration": 11, "velocity": 90}, {"time": 57606, "pitch": 67, "duration": 11, "velocity": 100}, {"time": 57837, "pitch": 59, "duration": 221, "velocity": 90}, {"time": 57837, "pitch": 67, "duration": 221, "velocity": 90}, {"time": 57847, "pitch": 50, "duration": 221, "velocity": 80}, {"time": 57847, "pitch": 55, "duration": 221, "velocity": 70}, {"time": 58078, "pitch": 50, "duration": 221, "velocity": 100}, {"time": 58078, "pitch": 57, "duration": 221, "velocity": 80}, {"time": 58088, "pitch": 62, "duration": 221, "velocity": 90}, {"time": 58088, "pitch": 66, "duration": 221, "velocity": 100}, {"time": 58319, "pitch": 62, "duration": 221, "velocity": 80}, {"time": 58319, "pitch": 66, "duration": 221, "velocity": 90}, {"time": 58329, "pitch": 50, "duration": 221, "velocity": 80}, {"time": 58329, "pitch": 57, "duration": 221, "velocity": 70}, {"time": 58560, "pitch": 50, "duration": 10, "velocity": 100}, {"time": 58560, "pitch": 57, "duration": 10, "velocity": 80}, {"time": 58570, "pitch": 62, "duration": 10, "velocity": 90}, {"time": 58570, "pitch": 66, "duration": 10, "velocity": 100}, {"time": 58800, "pitch": 62, "duration": 221, "velocity": 80}, {"time": 58800, "pitch": 66, "duration": 221, "velocity": 90}, {"time": 58810, "pitch": 50, "duration": 221, "velocity": 80}, {"time": 58810, "pitch": 57, "duration": 221, "velocity": 70}, {"time": 59041, "pitch": 50, "duration": 221, "velocity": 100}, {"time": 59041, "pitch": 57, "duration": 221, "velocity": 80}, {"time": 59051, "pitch": 62, "duration": 221, "velocity": 90}, {"time": 59051, "pitch": 66, "duration": 221, "velocity": 100}, {"time": 59282, "pitch": 62, "duration": 221, "velocity": 80}, {"time": 59282, "pitch": 66, "duration": 221, "velocity": 90}, {"time": 59292, "pitch": 50, "duration": 221, "velocity": 80}, {"time": 59292, "pitch": 57, "duration": 221, "velocity": 70}, {"time": 59523, "pitch": 50, "duration": 10, "velocity": 100}, {"time": 59523, "pitch": 57, "duration": 10, "velocity": 80}, {"time": 59533, "pitch": 62, "duration": 10, "velocity": 90}, {"time": 59533, "pitch": 66, "duration": 10, "velocity": 100}, {"time": 59760, "pitch": 62, "duration": 217, "velocity": 90}, {"time": 59760, "pitch": 66, "duration": 217, "velocity": 100}, {"time": 59770, "pitch": 50, "duration": 217, "velocity": 90}, {"time": 59770, "pitch": 57, "duration": 217, "velocity": 80}, {"time": 59997, "pitch": 50, "duration": 221, "velocity": 100}, {"time": 59997, "pitch": 55, "duration": 221, "velocity": 80}, {"time": 60007, "pitch": 59, "duration": 221, "velocity": 90}, {"time": 60007, "pitch": 67, "duration": 221, "velocity": 100}, {"time": 60238, "pitch": 59, "duration": 221, "velocity": 80}, {"time": 60238, "pitch": 67, "duration": 221, "velocity": 90}, {"time": 60248, "pitch": 50, "duration": 221, "velocity": 80}, {"time": 60248, "pitch": 55, "duration": 221, "velocity": 70}, {"time": 60479, "pitch": 50, "duration": 10, "velocity": 100}, {"time": 60479, "pitch": 55, "duration": 10, "velocity": 80}, {"time": 60489, "pitch": 59, "duration": 10, "velocity": 90}, {"time": 60489, "pitch": 67, "duration": 10, "velocity": 100}, {"time": 60719, "pitch": 59, "duration": 221, "velocity": 80}, {"time": 60719, "pitch": 67, "duration": 221, "velocity": 90}, {"time": 60729, "pitch": 50, "duration": 221, "velocity": 80}, {"time": 60729, "pitch": 55, "duration": 221, "velocity": 70}, {"time": 60960, "pitch": 50, "duration": 221, "velocity": 100}, {"time": 60960, "pitch": 55, "duration": 221, "velocity": 80}, {"time": 60970, "pitch": 59, "duration": 221, "velocity": 90}, {"time": 60970, "pitch": 67, "duration": 221, "velocity": 100}, {"time": 61201, "pitch": 59, "duration": 221, "velocity": 80}, {"time": 61201, "pitch": 67, "duration": 221, "velocity": 90}, {"time": 61211, "pitch": 50, "duration": 221, "velocity": 80}, {"time": 61211, "pitch": 55, "duration": 221, "velocity": 70}, {"time": 61442, "pitch": 50, "duration": 10, "velocity": 100}, {"time": 61442, "pitch": 55, "duration": 10, "velocity": 80}, {"time": 61452, "pitch": 59, "duration": 10, "velocity": 90}, {"time": 61452, "pitch": 67, "duration": 10, "velocity": 100}, {"time": 61683, "pitch": 59, "duration": 220, "velocity": 90}, {"time": 61683, "pitch": 67, "duration": 220, "velocity": 90}, {"time": 61693, "pitch": 50, "duration": 220, "velocity": 80}, {"time": 61693, "pitch": 55, "duration": 220, "velocity": 70}, {"time": 61923, "pitch": 50, "duration": 218, "velocity": 100}, {"time": 61923, "pitch": 55, "duration": 218, "velocity": 80}, {"time": 61933, "pitch": 59, "duration": 218, "velocity": 90}, {"time": 61933, "pitch": 64, "duration": 218, "velocity": 100}, {"time": 62160, "pitch": 59, "duration": 218, "velocity": 80}, {"time": 62160, "pitch": 64, "duration": 218, "velocity": 90}, {"time": 62170, "pitch": 50, "duration": 218, "velocity": 80}, {"time": 62170, "pitch": 55, "duration": 218, "velocity": 70}, {"time": 62398, "pitch": 50, "duration": 10, "velocity": 100}, {"time": 62398, "pitch": 55, "duration": 10, "velocity": 80}, {"time": 62408, "pitch": 59, "duration": 10, "velocity": 90}, {"time": 62408, "pitch": 64, "duration": 10, "velocity": 100}, {"time": 62638, "pitch": 59, "duration": 221, "velocity": 80}, {"time": 62638, "pitch": 64, "duration": 221, "velocity": 90}, {"time": 62648, "pitch": 50, "duration": 221, "velocity": 80}, {"time": 62648, "pitch": 55, "duration": 221, "velocity": 70}, {"time": 62879, "pitch": 50, "duration": 10, "velocity": 100}, {"time": 62879, "pitch": 55, "duration": 10, "velocity": 80}, {"time": 62889, "pitch": 59, "duration": 10, "velocity": 90}, {"time": 62889, "pitch": 64, "duration": 10, "velocity": 100}, {"time": 63120, "pitch": 61, "duration": 682, "velocity": 90}, {"time": 63120, "pitch": 64, "duration": 682, "velocity": 100}, {"time": 63130, "pitch": 52, "duration": 682, "velocity": 90}, {"time": 63130, "pitch": 57, "duration": 682, "velocity": 80}, {"time": 63842, "pitch": 50, "duration": 218, "velocity": 100}, {"time": 63842, "pitch": 57, "duration": 218, "velocity": 80}, {"time": 63852, "pitch": 62, "duration": 218, "velocity": 90}, {"time": 63852, "pitch": 66, "duration": 218, "velocity": 100}, {"time": 64079, "pitch": 62, "duration": 218, "velocity": 80}, {"time": 64079, "pitch": 66, "duration": 218, "velocity": 90}, {"time": 64089, "pitch": 50, "duration": 218, "velocity": 80}, {"time": 64089, "pitch": 57, "duration": 218, "velocity": 70}, {"time": 64317, "pitch": 50, "duration": 10, "velocity": 100}, {"time": 64317, "pitch": 57, "duration": 10, "velocity": 80}, {"time": 64327, "pitch": 62, "duration": 10, "velocity": 90}, {"time": 64327, "pitch": 66, "duration": 10, "velocity": 100}, {"time": 64557, "pitch": 62, "duration": 221, "velocity": 80}, {"time": 64557, "pitch": 66, "duration": 221, "velocity": 90}, {"time": 64567, "pitch": 50, "duration": 221, "velocity": 80}, {"time": 64567, "pitch": 57, "duration": 221, "velocity": 70}, {"time": 64798, "pitch": 50, "duration": 221, "velocity": 100}, {"time": 64798, "pitch": 57, "duration": 221, "velocity": 80}, {"time": 64808, "pitch": 62, "duration": 221, "velocity": 90}, {"time": 64808, "pitch": 66, "duration": 221, "velocity": 100}, {"time": 65039, "pitch": 62, "duration": 221, "velocity": 80}, {"time": 65039, "pitch": 66, "duration": 221, "velocity": 90}, {"time": 65049, "pitch": 50, "duration": 221, "velocity": 80}, {"time": 65049, "pitch": 57, "duration": 221, "velocity": 70}, {"time": 65280, "pitch": 50, "duration": 10, "velocity": 100}, {"time": 65280, "pitch": 57, "duration": 10, "velocity": 80}, {"time": 65290, "pitch": 62, "duration": 10, "velocity": 90}, {"time": 65290, "pitch": 66, "duration": 10, "velocity": 100}, {"time": 65521, "pitch": 61, "duration": 471, "velocity": 90}, {"time": 65521, "pitch": 66, "duration": 471, "velocity": 100}, {"time": 65531, "pitch": 50, "duration": 451, "velocity": 90}, {"time": 65531, "pitch": 57, "duration": 451, "velocity": 80}, {"time": 66002, "pitch": 61, "duration": 221, "velocity": 80}, {"time": 66002, "pitch": 66, "duration": 221, "velocity": 90}, {"time": 66012, "pitch": 50, "duration": 221, "velocity": 80}, {"time": 66012, "pitch": 57, "duration": 221, "velocity": 70}, {"time": 66243, "pitch": 50, "duration": 10, "velocity": 100}, {"time": 66243, "pitch": 57, "duration": 10, "velocity": 80}, {"time": 66253, "pitch": 61, "duration": 10, "velocity": 90}, {"time": 66253, "pitch": 66, "duration": 10, "velocity": 100}, {"time": 66480, "pitch": 61, "duration": 217, "velocity": 80}, {"time": 66480, "pitch": 66, "duration": 217, "velocity": 90}, {"time": 66490, "pitch": 50, "duration": 217, "velocity": 80}, {"time": 66490, "pitch": 57, "duration": 217, "velocity": 70}, {"time": 66717, "pitch": 50, "duration": 221, "velocity": 100}, {"time": 66717, "pitch": 57, "duration": 221, "velocity": 80}, {"time": 66727, "pitch": 61, "duration": 221, "velocity": 90}, {"time": 66727, "pitch": 66, "duration": 221, "velocity": 100}, {"time": 66958, "pitch": 61, "duration": 221, "velocity": 80}, {"time": 66958, "pitch": 66, "duration": 221, "velocity": 90}, {"time": 66968, "pitch": 50, "duration": 221, "velocity": 80}, {"time": 66968, "pitch": 57, "duration": 221, "velocity": 70}, {"time": 67199, "pitch": 50, "duration": 10, "velocity": 100}, {"time": 67199, "pitch": 57, "duration": 10, "velocity": 80}, {"time": 67209, "pitch": 61, "duration": 10, "velocity": 90}, {"time": 67209, "pitch": 66, "duration": 10, "velocity": 100}, {"time": 67440, "pitch": 61, "duration": 220, "velocity": 90}, {"time": 67440, "pitch": 66, "duration": 220, "velocity": 90}, {"time": 67450, "pitch": 50, "duration": 220, "velocity": 80}, {"time": 67450, "pitch": 57, "duration": 220, "velocity": 70}, {"time": 67680, "pitch": 50, "duration": 221, "velocity": 100}, {"time": 67680, "pitch": 57, "duration": 221, "velocity": 80}, {"time": 67690, "pitch": 61, "duration": 221, "velocity": 90}, {"time": 67690, "pitch": 66, "duration": 221, "velocity": 100}, {"time": 67921, "pitch": 61, "duration": 221, "velocity": 80}, {"time": 67921, "pitch": 66, "duration": 221, "velocity": 90}, {"time": 67931, "pitch": 50, "duration": 221, "velocity": 80}, {"time": 67931, "pitch": 57, "duration": 221, "velocity": 70}, {"time": 68162, "pitch": 50, "duration": 10, "velocity": 100}, {"time": 68162, "pitch": 57, "duration": 10, "velocity": 80}, {"time": 68172, "pitch": 61, "duration": 10, "velocity": 90}, {"time": 68172, "pitch": 66, "duration": 10, "velocity": 100}, {"time": 68403, "pitch": 61, "duration": 220, "velocity": 80}, {"time": 68403, "pitch": 66, "duration": 220, "velocity": 90}, {"time": 68413, "pitch": 50, "duration": 220, "velocity": 80}, {"time": 68413, "pitch": 57, "duration": 220, "velocity": 70}, {"time": 68643, "pitch": 50, "duration": 218, "velocity": 100}, {"time": 68643, "pitch": 57, "duration": 218, "velocity": 80}, {"time": 68653, "pitch": 61, "duration": 218, "velocity": 90}, {"time": 68653, "pitch": 66, "duration": 218, "velocity": 100}, {"time": 68881, "pitch": 61, "duration": 217, "velocity": 80}, {"time": 68881, "pitch": 66, "duration": 217, "velocity": 90}, {"time": 68891, "pitch": 50, "duration": 217, "velocity": 80}, {"time": 68891, "pitch": 57, "duration": 217, "velocity": 70}, {"time": 69118, "pitch": 50, "duration": 10, "velocity": 100}, {"time": 69118, "pitch": 57, "duration": 10, "velocity": 80}, {"time": 69128, "pitch": 61, "duration": 10, "velocity": 90}, {"time": 69128, "pitch": 66, "duration": 10, "velocity": 100}, {"time": 69359, "pitch": 60, "duration": 471, "velocity": 90}, {"time": 69359, "pitch": 66, "duration": 471, "velocity": 100}, {"time": 69369, "pitch": 50, "duration": 451, "velocity": 90}, {"time": 69369, "pitch": 57, "duration": 451, "velocity": 80}, {"time": 69840, "pitch": 60, "duration": 221, "velocity": 80}, {"time": 69840, "pitch": 66, "duration": 221, "velocity": 90}, {"time": 69850, "pitch": 50, "duration": 221, "velocity": 80}, {"time": 69850, "pitch": 57, "duration": 221, "velocity": 70}, {"time": 70081, "pitch": 50, "duration": 10, "velocity": 100}, {"time": 70081, "pitch": 57, "duration": 10, "velocity": 80}, {"time": 70091, "pitch": 60, "duration": 10, "velocity": 90}, {"time": 70091, "pitch": 66, "duration": 10, "velocity": 100}, {"time": 70322, "pitch": 60, "duration": 220, "velocity": 80}, {"time": 70322, "pitch": 66, "duration": 220, "velocity": 90}, {"time": 70332, "pitch": 50, "duration": 220, "velocity": 80}, {"time": 70332, "pitch": 57, "duration": 220, "velocity": 70}, {"time": 70562, "pitch": 50, "duration": 218, "velocity": 100}, {"time": 70562, "pitch": 57, "duration": 218, "velocity": 80}, {"time": 70572, "pitch": 60, "duration": 218, "velocity": 90}, {"time": 70572, "pitch": 66, "duration": 218, "velocity": 100}, {"time": 70800, "pitch": 60, "duration": 217, "velocity": 80}, {"time": 70800, "pitch": 66, "duration": 217, "velocity": 90}, {"time": 70810, "pitch": 50, "duration": 217, "velocity": 80}, {"time": 70810, "pitch": 57, "duration": 217, "velocity": 70}, {"time": 71037, "pitch": 50, "duration": 10, "velocity": 100}, {"time": 71037, "pitch": 57, "duration": 10, "velocity": 80}, {"time": 71047, "pitch": 60, "duration": 10, "velocity": 90}, {"time": 71047, "pitch": 66, "duration": 10, "velocity": 100}, {"time": 71278, "pitch": 60, "duration": 220, "velocity": 90}, {"time": 71278, "pitch": 66, "duration": 220, "velocity": 90}, {"time": 71288, "pitch": 50, "duration": 220, "velocity": 80}, {"time": 71288, "pitch": 57, "duration": 220, "velocity": 70}, {"time": 71518, "pitch": 50, "duration": 221, "velocity": 100}, {"time": 71518, "pitch": 55, "duration": 221, "velocity": 80}, {"time": 71528, "pitch": 59, "duration": 221, "velocity": 90}, {"time": 71528, "pitch": 67, "duration": 221, "velocity": 100}, {"time": 71759, "pitch": 59, "duration": 221, "velocity": 80}, {"time": 71759, "pitch": 67, "duration": 221, "velocity": 90}, {"time": 71769, "pitch": 50, "duration": 221, "velocity": 80}, {"time": 71769, "pitch": 55, "duration": 221, "velocity": 70}, {"time": 72000, "pitch": 50, "duration": 10, "velocity": 100}, {"time": 72000, "pitch": 55, "duration": 10, "velocity": 80}, {"time": 72010, "pitch": 59, "duration": 10, "velocity": 90}, {"time": 72010, "pitch": 67, "duration": 10, "velocity": 100}, {"time": 72241, "pitch": 59, "duration": 220, "velocity": 80}, {"time": 72241, "pitch": 67, "duration": 220, "velocity": 90}, {"time": 72251, "pitch": 50, "duration": 220, "velocity": 80}, {"time": 72251, "pitch": 55, "duration": 220, "velocity": 70}, {"time": 72481, "pitch": 50, "duration": 221, "velocity": 100}, {"time": 72481, "pitch": 55, "duration": 221, "velocity": 80}, {"time": 72492, "pitch": 59, "duration": 220, "velocity": 90}, {"time": 72492, "pitch": 67, "duration": 220, "velocity": 100}, {"time": 72722, "pitch": 59, "duration": 221, "velocity": 80}, {"time": 72722, "pitch": 67, "duration": 221, "velocity": 90}, {"time": 72732, "pitch": 50, "duration": 221, "velocity": 80}, {"time": 72732, "pitch": 55, "duration": 221, "velocity": 70}, {"time": 72963, "pitch": 50, "duration": 10, "velocity": 100}, {"time": 72963, "pitch": 55, "duration": 10, "velocity": 80}, {"time": 72973, "pitch": 59, "duration": 10, "velocity": 90}, {"time": 72973, "pitch": 67, "duration": 10, "velocity": 100}, {"time": 73200, "pitch": 59, "duration": 218, "velocity": 90}, {"time": 73200, "pitch": 67, "duration": 218, "velocity": 90}, {"time": 73210, "pitch": 50, "duration": 217, "velocity": 80}, {"time": 73210, "pitch": 55, "duration": 217, "velocity": 70}, {"time": 73437, "pitch": 50, "duration": 221, "velocity": 100}, {"time": 73437, "pitch": 57, "duration": 221, "velocity": 80}, {"time": 73447, "pitch": 62, "duration": 221, "velocity": 90}, {"time": 73447, "pitch": 66, "duration": 221, "velocity": 100}, {"time": 73678, "pitch": 62, "duration": 221, "velocity": 80}, {"time": 73678, "pitch": 66, "duration": 221, "velocity": 90}, {"time": 73688, "pitch": 50, "duration": 221, "velocity": 80}, {"time": 73688, "pitch": 57, "duration": 221, "velocity": 70}, {"time": 73919, "pitch": 50, "duration": 10, "velocity": 100}, {"time": 73919, "pitch": 57, "duration": 10, "velocity": 80}, {"time": 73929, "pitch": 62, "duration": 10, "velocity": 90}, {"time": 73929, "pitch": 66, "duration": 10, "velocity": 100}, {"time": 74160, "pitch": 62, "duration": 220, "velocity": 80}, {"time": 74160, "pitch": 66, "duration": 220, "velocity": 90}, {"time": 74170, "pitch": 50, "duration": 220, "velocity": 80}, {"time": 74170, "pitch": 57, "duration": 220, "velocity": 70}, {"time": 74400, "pitch": 50, "duration": 221, "velocity": 100}, {"time": 74400, "pitch": 57, "duration": 221, "velocity": 80}, {"time": 74411, "pitch": 62, "duration": 220, "velocity": 90}, {"time": 74411, "pitch": 66, "duration": 220, "velocity": 100}, {"time": 74641, "pitch": 62, "duration": 221, "velocity": 80}, {"time": 74641, "pitch": 66, "duration": 221, "velocity": 90}, {"time": 74651, "pitch": 50, "duration": 221, "velocity": 80}, {"time": 74651, "pitch": 57, "duration": 221, "velocity": 70}, {"time": 74882, "pitch": 50, "duration": 10, "velocity": 100}, {"time": 74882, "pitch": 57, "duration": 10, "velocity": 80}, {"time": 74892, "pitch": 62, "duration": 10, "velocity": 90}, {"time": 74892, "pitch": 66, "duration": 10, "velocity": 100}, {"time": 75123, "pitch": 62, "duration": 221, "velocity": 90}, {"time": 75123, "pitch": 66, "duration": 221, "velocity": 100}, {"time": 75133, "pitch": 50, "duration": 221, "velocity": 90}, {"time": 75133, "pitch": 57, "duration": 221, "velocity": 80}, {"time": 75364, "pitch": 50, "duration": 217, "velocity": 100}, {"time": 75364, "pitch": 55, "duration": 217, "velocity": 80}, {"time": 75373, "pitch": 59, "duration": 218, "velocity": 90}, {"time": 75373, "pitch": 67, "duration": 218, "velocity": 100}, {"time": 75601, "pitch": 59, "duration": 217, "velocity": 80}, {"time": 75601, "pitch": 67, "duration": 217, "velocity": 90}, {"time": 75611, "pitch": 50, "duration": 217, "velocity": 80}, {"time": 75611, "pitch": 55, "duration": 217, "velocity": 70}, {"time": 75838, "pitch": 50, "duration": 10, "velocity": 100}, {"time": 75838, "pitch": 55, "duration": 10, "velocity": 80}, {"time": 75848, "pitch": 59, "duration": 10, "velocity": 90}, {"time": 75848, "pitch": 67, "duration": 10, "velocity": 100}, {"time": 76079, "pitch": 59, "duration": 220, "velocity": 80}, {"time": 76079, "pitch": 67, "duration": 220, "velocity": 90}, {"time": 76089, "pitch": 50, "duration": 220, "velocity": 80}, {"time": 76089, "pitch": 55, "duration": 220, "velocity": 70}, {"time": 76319, "pitch": 50, "duration": 221, "velocity": 100}, {"time": 76319, "pitch": 55, "duration": 221, "velocity": 80}, {"time": 76329, "pitch": 59, "duration": 221, "velocity": 90}, {"time": 76329, "pitch": 67, "duration": 221, "velocity": 100}, {"time": 76560, "pitch": 59, "duration": 221, "velocity": 80}, {"time": 76560, "pitch": 67, "duration": 221, "velocity": 90}, {"time": 76570, "pitch": 50, "duration": 221, "velocity": 80}, {"time": 76570, "pitch": 55, "duration": 221, "velocity": 70}, {"time": 76801, "pitch": 50, "duration": 10, "velocity": 100}, {"time": 76801, "pitch": 55, "duration": 10, "velocity": 80}, {"time": 76811, "pitch": 59, "duration": 10, "velocity": 90}, {"time": 76811, "pitch": 67, "duration": 10, "velocity": 100}, {"time": 77042, "pitch": 59, "duration": 221, "velocity": 90}, {"time": 77042, "pitch": 67, "duration": 221, "velocity": 90}, {"time": 77052, "pitch": 50, "duration": 221, "velocity": 80}, {"time": 77052, "pitch": 55, "duration": 221, "velocity": 70}, {"time": 77283, "pitch": 55, "duration": 217, "velocity": 100}, {"time": 77283, "pitch": 58, "duration": 217, "velocity": 80}, {"time": 77292, "pitch": 62, "duration": 218, "velocity": 90}, {"time": 77292, "pitch": 67, "duration": 218, "velocity": 100}, {"time": 77520, "pitch": 62, "duration": 217, "velocity": 80}, {"time": 77520, "pitch": 67, "duration": 217, "velocity": 90}, {"time": 77530, "pitch": 55, "duration": 217, "velocity": 80}, {"time": 77530, "pitch": 58, "duration": 217, "velocity": 70}, {"time": 77757, "pitch": 55, "duration": 10, "velocity": 100}, {"time": 77757, "pitch": 58, "duration": 10, "velocity": 80}, {"time": 77767, "pitch": 62, "duration": 10, "velocity": 90}, {"time": 77767, "pitch": 67, "duration": 10, "velocity": 100}, {"time": 77998, "pitch": 62, "duration": 451, "velocity": 90}, {"time": 77998, "pitch": 67, "duration": 451, "velocity": 100}, {"time": 78008, "pitch": 54, "duration": 451, "velocity": 90}, {"time": 78008, "pitch": 58, "duration": 451, "velocity": 80}, {"time": 78479, "pitch": 55, "duration": 452, "velocity": 100}, {"time": 78479, "pitch": 58, "duration": 452, "velocity": 80}, {"time": 78489, "pitch": 62, "duration": 452, "velocity": 90}, {"time": 78489, "pitch": 67, "duration": 452, "velocity": 100}, {"time": 78961, "pitch": 63, "duration": 4059, "velocity": 100}, {"time": 78961, "pitch": 67, "duration": 4059, "velocity": 100}, {"time": 78971, "pitch": 44, "duration": 4049, "velocity": 100}, {"time": 78971, "pitch": 58, "duration": 4049, "velocity": 80}, {"time": 131036, "pitch": 50, "duration": 221, "velocity": 100}, {"time": 131036, "pitch": 57, "duration": 221, "velocity": 80}, {"time": 131046, "pitch": 62, "duration": 221, "velocity": 90}, {"time": 131046, "pitch": 66, "duration": 221, "velocity": 100}, {"time": 131277, "pitch": 62, "duration": 221, "velocity": 80}, {"time": 131277, "pitch": 66, "duration": 221, "velocity": 90}, {"time": 131287, "pitch": 50, "duration": 221, "velocity": 80}, {"time": 131287, "pitch": 57, "duration": 221, "velocity": 70}, {"time": 131518, "pitch": 50, "duration": 10, "velocity": 100}, {"time": 131518, "pitch": 57, "duration": 10, "velocity": 80}, {"time": 131528, "pitch": 62, "duration": 10, "velocity": 90}, {"time": 131528, "pitch": 66, "duration": 10, "velocity": 100}, {"time": 131759, "pitch": 62, "duration": 220, "velocity": 80}, {"time": 131759, "pitch": 66, "duration": 220, "velocity": 90}, {"time": 131769, "pitch": 50, "duration": 220, "velocity": 80}, {"time": 131769, "pitch": 57, "duration": 220, "velocity": 70}, {"time": 132000, "pitch": 50, "duration": 220, "velocity": 100}, {"time": 132000, "pitch": 57, "duration": 220, "velocity": 80}, {"time": 132010, "pitch": 62, "duration": 220, "velocity": 90}, {"time": 132010, "pitch": 66, "duration": 220, "velocity": 100}, {"time": 132240, "pitch": 62, "duration": 221, "velocity": 80}, {"time": 132240, "pitch": 66, "duration": 221, "velocity": 90}, {"time": 132250, "pitch": 50, "duration": 221, "velocity": 80}, {"time": 132250, "pitch": 57, "duration": 221, "velocity": 70}, {"time": 132481, "pitch": 50, "duration": 10, "velocity": 100}, {"time": 132481, "pitch": 57, "duration": 10, "velocity": 80}, {"time": 132491, "pitch": 62, "duration": 10, "velocity": 90}, {"time": 132491, "pitch": 66, "duration": 10, "velocity": 100}, {"time": 132722, "pitch": 61, "duration": 468, "velocity": 90}, {"time": 132722, "pitch": 66, "duration": 468, "velocity": 100}, {"time": 132732, "pitch": 50, "duration": 448, "velocity": 90}, {"time": 132732, "pitch": 57, "duration": 448, "velocity": 80}, {"time": 133200, "pitch": 61, "duration": 217, "velocity": 80}, {"time": 133200, "pitch": 66, "duration": 217, "velocity": 90}, {"time": 133210, "pitch": 50, "duration": 217, "velocity": 80}, {"time": 133210, "pitch": 57, "duration": 217, "velocity": 70}, {"time": 133437, "pitch": 50, "duration": 10, "velocity": 100}, {"time": 133437, "pitch": 57, "duration": 10, "velocity": 80}, {"time": 133447, "pitch": 61, "duration": 10, "velocity": 90}, {"time": 133447, "pitch": 66, "duration": 10, "velocity": 100}, {"time": 133678, "pitch": 61, "duration": 220, "velocity": 80}, {"time": 133678, "pitch": 66, "duration": 220, "velocity": 90}, {"time": 133688, "pitch": 50, "duration": 220, "velocity": 80}, {"time": 133688, "pitch": 57, "duration": 220, "velocity": 70}, {"time": 133919, "pitch": 50, "duration": 220, "velocity": 100}, {"time": 133919, "pitch": 57, "duration": 220, "velocity": 80}, {"time": 133929, "pitch": 61, "duration": 220, "velocity": 90}, {"time": 133929, "pitch": 66, "duration": 220, "velocity": 100}, {"time": 134159, "pitch": 61, "duration": 221, "velocity": 80}, {"time": 134159, "pitch": 66, "duration": 221, "velocity": 90}, {"time": 134169, "pitch": 50, "duration": 221, "velocity": 80}, {"time": 134169, "pitch": 57, "duration": 221, "velocity": 70}, {"time": 134400, "pitch": 50, "duration": 10, "velocity": 100}, {"time": 134400, "pitch": 57, "duration": 10, "velocity": 80}, {"time": 134410, "pitch": 61, "duration": 10, "velocity": 90}, {"time": 134410, "pitch": 66, "duration": 10, "velocity": 100}, {"time": 134641, "pitch": 61, "duration": 221, "velocity": 90}, {"time": 134641, "pitch": 66, "duration": 221, "velocity": 90}, {"time": 134651, "pitch": 50, "duration": 221, "velocity": 80}, {"time": 134651, "pitch": 57, "duration": 221, "velocity": 70}, {"time": 134882, "pitch": 50, "duration": 220, "velocity": 100}, {"time": 134882, "pitch": 57, "duration": 220, "velocity": 80}, {"time": 134892, "pitch": 61, "duration": 220, "velocity": 90}, {"time": 134892, "pitch": 66, "duration": 220, "velocity": 100}, {"time": 135122, "pitch": 61, "duration": 221, "velocity": 80}, {"time": 135122, "pitch": 66, "duration": 221, "velocity": 90}, {"time": 135133, "pitch": 50, "duration": 220, "velocity": 80}, {"time": 135133, "pitch": 57, "duration": 220, "velocity": 70}, {"time": 135363, "pitch": 50, "duration": 10, "velocity": 100}, {"time": 135363, "pitch": 57, "duration": 10, "velocity": 80}, {"time": 135373, "pitch": 61, "duration": 10, "velocity": 90}, {"time": 135373, "pitch": 66, "duration": 10, "velocity": 100}, {"time": 135600, "pitch": 61, "duration": 218, "velocity": 80}, {"time": 135600, "pitch": 66, "duration": 218, "velocity": 90}, {"time": 135610, "pitch": 50, "duration": 218, "velocity": 80}, {"time": 135610, "pitch": 57, "duration": 218, "velocity": 70}, {"time": 135838, "pitch": 50, "duration": 220, "velocity": 100}, {"time": 135838, "pitch": 57, "duration": 220, "velocity": 80}, {"time": 135848, "pitch": 61, "duration": 220, "velocity": 90}, {"time": 135848, "pitch": 66, "duration": 220, "velocity": 100}, {"time": 136078, "pitch": 61, "duration": 221, "velocity": 80}, {"time": 136078, "pitch": 66, "duration": 221, "velocity": 90}, {"time": 136088, "pitch": 50, "duration": 221, "velocity": 80}, {"time": 136088, "pitch": 57, "duration": 221, "velocity": 70}, {"time": 136319, "pitch": 50, "duration": 10, "velocity": 100}, {"time": 136319, "pitch": 57, "duration": 10, "velocity": 80}, {"time": 136329, "pitch": 61, "duration": 10, "velocity": 90}, {"time": 136329, "pitch": 66, "duration": 10, "velocity": 100}, {"time": 136560, "pitch": 60, "duration": 471, "velocity": 90}, {"time": 136560, "pitch": 66, "duration": 471, "velocity": 100}, {"time": 136570, "pitch": 50, "duration": 451, "velocity": 90}, {"time": 136570, "pitch": 57, "duration": 451, "velocity": 80}, {"time": 137041, "pitch": 60, "duration": 221, "velocity": 80}, {"time": 137041, "pitch": 66, "duration": 221, "velocity": 90}, {"time": 137052, "pitch": 50, "duration": 220, "velocity": 80}, {"time": 137052, "pitch": 57, "duration": 220, "velocity": 70}, {"time": 137282, "pitch": 50, "duration": 10, "velocity": 100}, {"time": 137282, "pitch": 57, "duration": 10, "velocity": 80}, {"time": 137292, "pitch": 60, "duration": 10, "velocity": 90}, {"time": 137292, "pitch": 66, "duration": 10, "velocity": 100}, {"time": 137519, "pitch": 60, "duration": 218, "velocity": 80}, {"time": 137519, "pitch": 66, "duration": 218, "velocity": 90}, {"time": 137529, "pitch": 50, "duration": 218, "velocity": 80}, {"time": 137529, "pitch": 57, "duration": 218, "velocity": 70}, {"time": 137757, "pitch": 50, "duration": 220, "velocity": 100}, {"time": 137757, "pitch": 57, "duration": 220, "velocity": 80}, {"time": 137767, "pitch": 60, "duration": 220, "velocity": 90}, {"time": 137767, "pitch": 66, "duration": 220, "velocity": 100}, {"time": 137997, "pitch": 60, "duration": 221, "velocity": 80}, {"time": 137997, "pitch": 66, "duration": 221, "velocity": 90}, {"time": 138007, "pitch": 50, "duration": 221, "velocity": 80}, {"time": 138007, "pitch": 57, "duration": 221, "velocity": 70}, {"time": 138238, "pitch": 50, "duration": 10, "velocity": 100}, {"time": 138238, "pitch": 57, "duration": 10, "velocity": 80}, {"time": 138248, "pitch": 60, "duration": 10, "velocity": 90}, {"time": 138248, "pitch": 66, "duration": 10, "velocity": 100}, {"time": 138479, "pitch": 60, "duration": 221, "velocity": 90}, {"time": 138479, "pitch": 66, "duration": 221, "velocity": 90}, {"time": 138489, "pitch": 50, "duration": 221, "velocity": 80}, {"time": 138489, "pitch": 57, "duration": 221, "velocity": 70}, {"time": 138720, "pitch": 50, "duration": 220, "velocity": 100}, {"time": 138720, "pitch": 55, "duration": 220, "velocity": 80}, {"time": 138730, "pitch": 59, "duration": 220, "velocity": 90}, {"time": 138730, "pitch": 67, "duration": 220, "velocity": 100}, {"time": 138960, "pitch": 59, "duration": 221, "velocity": 80}, {"time": 138960, "pitch": 67, "duration": 221, "velocity": 90}, {"time": 138970, "pitch": 50, "duration": 221, "velocity": 80}, {"time": 138970, "pitch": 55, "duration": 221, "velocity": 70}, {"time": 139201, "pitch": 50, "duration": 10, "velocity": 100}, {"time": 139201, "pitch": 55, "duration": 10, "velocity": 80}, {"time": 139211, "pitch": 59, "duration": 10, "velocity": 90}, {"time": 139211, "pitch": 67, "duration": 10, "velocity": 100}, {"time": 139442, "pitch": 59, "duration": 221, "velocity": 80}, {"time": 139442, "pitch": 67, "duration": 221, "velocity": 90}, {"time": 139452, "pitch": 50, "duration": 221, "velocity": 80}, {"time": 139452, "pitch": 55, "duration": 221, "velocity": 70}, {"time": 139683, "pitch": 50, "duration": 217, "velocity": 100}, {"time": 139683, "pitch": 55, "duration": 217, "velocity": 80}, {"time": 139693, "pitch": 59, "duration": 217, "velocity": 90}, {"time": 139693, "pitch": 67, "duration": 217, "velocity": 100}, {"time": 139920, "pitch": 59, "duration": 217, "velocity": 80}, {"time": 139920, "pitch": 67, "duration": 217, "velocity": 90}, {"time": 139930, "pitch": 50, "duration": 217, "velocity": 80}, {"time": 139930, "pitch": 55, "duration": 217, "velocity": 70}, {"time": 140157, "pitch": 50, "duration": 10, "velocity": 100}, {"time": 140157, "pitch": 55, "duration": 10, "velocity": 80}, {"time": 140167, "pitch": 59, "duration": 10, "velocity": 90}, {"time": 140167, "pitch": 67, "duration": 10, "velocity": 100}, {"time": 140398, "pitch": 59, "duration": 221, "velocity": 90}, {"time": 140398, "pitch": 67, "duration": 221, "velocity": 90}, {"time": 140408, "pitch": 50, "duration": 221, "velocity": 80}, {"time": 140408, "pitch": 55, "duration": 221, "velocity": 70}, {"time": 140639, "pitch": 50, "duration": 220, "velocity": 100}, {"time": 140639, "pitch": 57, "duration": 220, "velocity": 80}, {"time": 140649, "pitch": 62, "duration": 220, "velocity": 90}, {"time": 140649, "pitch": 66, "duration": 220, "velocity": 100}, {"time": 140879, "pitch": 62, "duration": 221, "velocity": 80}, {"time": 140879, "pitch": 66, "duration": 221, "velocity": 90}, {"time": 140889, "pitch": 50, "duration": 221, "velocity": 80}, {"time": 140889, "pitch": 57, "duration": 221, "velocity": 70}, {"time": 141120, "pitch": 50, "duration": 10, "velocity": 100}, {"time": 141120, "pitch": 57, "duration": 10, "velocity": 80}, {"time": 141130, "pitch": 62, "duration": 10, "velocity": 90}, {"time": 141130, "pitch": 66, "duration": 10, "velocity": 100}, {"time": 141361, "pitch": 62, "duration": 221, "velocity": 80}, {"time": 141361, "pitch": 66, "duration": 221, "velocity": 90}, {"time": 141371, "pitch": 50, "duration": 221, "velocity": 80}, {"time": 141371, "pitch": 57, "duration": 221, "velocity": 70}, {"time": 141602, "pitch": 50, "duration": 221, "velocity": 100}, {"time": 141602, "pitch": 57, "duration": 221, "velocity": 80}, {"time": 141612, "pitch": 62, "duration": 221, "velocity": 90}, {"time": 141612, "pitch": 66, "duration": 221, "velocity": 100}, {"time": 141843, "pitch": 62, "duration": 220, "velocity": 80}, {"time": 141843, "pitch": 66, "duration": 220, "velocity": 90}, {"time": 141853, "pitch": 50, "duration": 220, "velocity": 80}, {"time": 141853, "pitch": 57, "duration": 220, "velocity": 70}, {"time": 142083, "pitch": 50, "duration": 10, "velocity": 100}, {"time": 142083, "pitch": 57, "duration": 10, "velocity": 80}, {"time": 142093, "pitch": 62, "duration": 10, "velocity": 90}, {"time": 142093, "pitch": 66, "duration": 10, "velocity": 100}, {"time": 142321, "pitch": 62, "duration": 217, "velocity": 90}, {"time": 142321, "pitch": 66, "duration": 217, "velocity": 100}, {"time": 142330, "pitch": 50, "duration": 218, "velocity": 90}, {"time": 142330, "pitch": 57, "duration": 218, "velocity": 80}, {"time": 142558, "pitch": 50, "duration": 220, "velocity": 100}, {"time": 142558, "pitch": 55, "duration": 220, "velocity": 80}, {"time": 142568, "pitch": 59, "duration": 220, "velocity": 90}, {"time": 142568, "pitch": 67, "duration": 220, "velocity": 100}, {"time": 142798, "pitch": 59, "duration": 221, "velocity": 80}, {"time": 142798, "pitch": 67, "duration": 221, "velocity": 90}, {"time": 142808, "pitch": 50, "duration": 221, "velocity": 80}, {"time": 142808, "pitch": 55, "duration": 221, "velocity": 70}, {"time": 143039, "pitch": 50, "duration": 10, "velocity": 100}, {"time": 143039, "pitch": 55, "duration": 10, "velocity": 80}, {"time": 143049, "pitch": 59, "duration": 10, "velocity": 90}, {"time": 143049, "pitch": 67, "duration": 10, "velocity": 100}, {"time": 143280, "pitch": 59, "duration": 221, "velocity": 80}, {"time": 143280, "pitch": 67, "duration": 221, "velocity": 90}, {"time": 143290, "pitch": 50, "duration": 221, "velocity": 80}, {"time": 143290, "pitch": 55, "duration": 221, "velocity": 70}, {"time": 143521, "pitch": 50, "duration": 221, "velocity": 100}, {"time": 143521, "pitch": 55, "duration": 221, "velocity": 80}, {"time": 143531, "pitch": 59, "duration": 221, "velocity": 90}, {"time": 143531, "pitch": 67, "duration": 221, "velocity": 100}, {"time": 143762, "pitch": 59, "duration": 220, "velocity": 80}, {"time": 143762, "pitch": 67, "duration": 220, "velocity": 90}, {"time": 143772, "pitch": 50, "duration": 220, "velocity": 80}, {"time": 143772, "pitch": 55, "duration": 220, "velocity": 70}, {"time": 144002, "pitch": 50, "duration": 10, "velocity": 100}, {"time": 144002, "pitch": 55, "duration": 10, "velocity": 80}, {"time": 144012, "pitch": 59, "duration": 10, "velocity": 90}, {"time": 144012, "pitch": 67, "duration": 10, "velocity": 100}, {"time": 144240, "pitch": 59, "duration": 217, "velocity": 90}, {"time": 144240, "pitch": 67, "duration": 217, "velocity": 90}, {"time": 144249, "pitch": 50, "duration": 218, "velocity": 80}, {"time": 144249, "pitch": 55, "duration": 218, "velocity": 70}, {"time": 144477, "pitch": 50, "duration": 220, "velocity": 100}, {"time": 144477, "pitch": 55, "duration": 220, "velocity": 80}, {"time": 144487, "pitch": 59, "duration": 220, "velocity": 90}, {"time": 144487, "pitch": 64, "duration": 220, "velocity": 100}, {"time": 144717, "pitch": 59, "duration": 221, "velocity": 80}, {"time": 144717, "pitch": 64, "duration": 221, "velocity": 90}, {"time": 144727, "pitch": 50, "duration": 221, "velocity": 80}, {"time": 144727, "pitch": 55, "duration": 221, "velocity": 70}, {"time": 144958, "pitch": 50, "duration": 10, "velocity": 100}, {"time": 144958, "pitch": 55, "duration": 10, "velocity": 80}, {"time": 144968, "pitch": 59, "duration": 10, "velocity": 90}, {"time": 144968, "pitch": 64, "duration": 10, "velocity": 100}, {"time": 145199, "pitch": 59, "duration": 221, "velocity": 80}, {"time": 145199, "pitch": 64, "duration": 221, "velocity": 90}, {"time": 145209, "pitch": 50, "duration": 221, "velocity": 80}, {"time": 145209, "pitch": 55, "duration": 221, "velocity": 70}, {"time": 145440, "pitch": 50, "duration": 10, "velocity": 100}, {"time": 145440, "pitch": 55, "duration": 10, "velocity": 80}, {"time": 145450, "pitch": 59, "duration": 10, "velocity": 90}, {"time": 145450, "pitch": 64, "duration": 10, "velocity": 100}, {"time": 145681, "pitch": 61, "duration": 682, "velocity": 90}, {"time": 145681, "pitch": 64, "duration": 682, "velocity": 100}, {"time": 145691, "pitch": 52, "duration": 682, "velocity": 90}, {"time": 145691, "pitch": 57, "duration": 682, "velocity": 80}, {"time": 146403, "pitch": 50, "duration": 217, "velocity": 100}, {"time": 146403, "pitch": 57, "duration": 217, "velocity": 80}, {"time": 146413, "pitch": 62, "duration": 217, "velocity": 90}, {"time": 146413, "pitch": 66, "duration": 217, "velocity": 100}, {"time": 146640, "pitch": 62, "duration": 217, "velocity": 80}, {"time": 146640, "pitch": 66, "duration": 217, "velocity": 90}, {"time": 146650, "pitch": 50, "duration": 217, "velocity": 80}, {"time": 146650, "pitch": 57, "duration": 217, "velocity": 70}, {"time": 146877, "pitch": 50, "duration": 10, "velocity": 100}, {"time": 146877, "pitch": 57, "duration": 10, "velocity": 80}, {"time": 146887, "pitch": 62, "duration": 10, "velocity": 90}, {"time": 146887, "pitch": 66, "duration": 10, "velocity": 100}, {"time": 147118, "pitch": 62, "duration": 221, "velocity": 80}, {"time": 147118, "pitch": 66, "duration": 221, "velocity": 90}, {"time": 147128, "pitch": 50, "duration": 221, "velocity": 80}, {"time": 147128, "pitch": 57, "duration": 221, "velocity": 70}, {"time": 147359, "pitch": 50, "duration": 221, "velocity": 100}, {"time": 147359, "pitch": 57, "duration": 221, "velocity": 80}, {"time": 147369, "pitch": 62, "duration": 221, "velocity": 90}, {"time": 147369, "pitch": 66, "duration": 221, "velocity": 100}, {"time": 147600, "pitch": 62, "duration": 220, "velocity": 80}, {"time": 147600, "pitch": 66, "duration": 220, "velocity": 90}, {"time": 147610, "pitch": 50, "duration": 220, "velocity": 80}, {"time": 147610, "pitch": 57, "duration": 220, "velocity": 70}, {"time": 147840, "pitch": 50, "duration": 10, "velocity": 100}, {"time": 147840, "pitch": 57, "duration": 10, "velocity": 80}, {"time": 147850, "pitch": 62, "duration": 10, "velocity": 90}, {"time": 147850, "pitch": 66, "duration": 10, "velocity": 100}, {"time": 148081, "pitch": 61, "duration": 472, "velocity": 90}, {"time": 148081, "pitch": 66, "duration": 472, "velocity": 100}, {"time": 148091, "pitch": 50, "duration": 452, "velocity": 90}, {"time": 148091, "pitch": 57, "duration": 452, "velocity": 80}, {"time": 148563, "pitch": 61, "duration": 220, "velocity": 80}, {"time": 148563, "pitch": 66, "duration": 220, "velocity": 90}, {"time": 148573, "pitch": 50, "duration": 221, "velocity": 80}, {"time": 148573, "pitch": 57, "duration": 221, "velocity": 70}, {"time": 148804, "pitch": 50, "duration": 9, "velocity": 100}, {"time": 148804, "pitch": 57, "duration": 9, "velocity": 80}, {"time": 148813, "pitch": 61, "duration": 10, "velocity": 90}, {"time": 148813, "pitch": 66, "duration": 10, "velocity": 100}, {"time": 149041, "pitch": 61, "duration": 217, "velocity": 80}, {"time": 149041, "pitch": 66, "duration": 217, "velocity": 90}, {"time": 149051, "pitch": 50, "duration": 217, "velocity": 80}, {"time": 149051, "pitch": 57, "duration": 217, "velocity": 70}, {"time": 149278, "pitch": 50, "duration": 221, "velocity": 100}, {"time": 149278, "pitch": 57, "duration": 221, "velocity": 80}, {"time": 149288, "pitch": 61, "duration": 221, "velocity": 90}, {"time": 149288, "pitch": 66, "duration": 221, "velocity": 100}, {"time": 149519, "pitch": 61, "duration": 220, "velocity": 80}, {"time": 149519, "pitch": 66, "duration": 220, "velocity": 90}, {"time": 149529, "pitch": 50, "duration": 220, "velocity": 80}, {"time": 149529, "pitch": 57, "duration": 220, "velocity": 70}, {"time": 149759, "pitch": 50, "duration": 10, "velocity": 100}, {"time": 149759, "pitch": 57, "duration": 10, "velocity": 80}, {"time": 149769, "pitch": 61, "duration": 10, "velocity": 90}, {"time": 149769, "pitch": 66, "duration": 10, "velocity": 100}, {"time": 150000, "pitch": 61, "duration": 221, "velocity": 90}, {"time": 150000, "pitch": 66, "duration": 221, "velocity": 90}, {"time": 150010, "pitch": 50, "duration": 221, "velocity": 80}, {"time": 150010, "pitch": 57, "duration": 221, "velocity": 70}, {"time": 150241, "pitch": 50, "duration": 221, "velocity": 100}, {"time": 150241, "pitch": 57, "duration": 221, "velocity": 80}, {"time": 150251, "pitch": 61, "duration": 221, "velocity": 90}, {"time": 150251, "pitch": 66, "duration": 221, "velocity": 100}, {"time": 150482, "pitch": 61, "duration": 220, "velocity": 80}, {"time": 150482, "pitch": 66, "duration": 220, "velocity": 90}, {"time": 150492, "pitch": 50, "duration": 221, "velocity": 80}, {"time": 150492, "pitch": 57, "duration": 221, "velocity": 70}, {"time": 150723, "pitch": 50, "duration": 9, "velocity": 100}, {"time": 150723, "pitch": 57, "duration": 9, "velocity": 80}, {"time": 150732, "pitch": 61, "duration": 10, "velocity": 90}, {"time": 150732, "pitch": 66, "duration": 10, "velocity": 100}, {"time": 150960, "pitch": 61, "duration": 217, "velocity": 80}, {"time": 150960, "pitch": 66, "duration": 217, "velocity": 90}, {"time": 150970, "pitch": 50, "duration": 217, "velocity": 80}, {"time": 150970, "pitch": 57, "duration": 217, "velocity": 70}, {"time": 151197, "pitch": 50, "duration": 220, "velocity": 100}, {"time": 151197, "pitch": 57, "duration": 220, "velocity": 80}, {"time": 151207, "pitch": 61, "duration": 221, "velocity": 90}, {"time": 151207, "pitch": 66, "duration": 221, "velocity": 100}, {"time": 151438, "pitch": 61, "duration": 220, "velocity": 80}, {"time": 151438, "pitch": 66, "duration": 220, "velocity": 90}, {"time": 151448, "pitch": 50, "duration": 220, "velocity": 80}, {"time": 151448, "pitch": 57, "duration": 220, "velocity": 70}, {"time": 151678, "pitch": 50, "duration": 10, "velocity": 100}, {"time": 151678, "pitch": 57, "duration": 10, "velocity": 80}, {"time": 151688, "pitch": 61, "duration": 10, "velocity": 90}, {"time": 151688, "pitch": 66, "duration": 10, "velocity": 100}, {"time": 151919, "pitch": 60, "duration": 472, "velocity": 90}, {"time": 151919, "pitch": 66, "duration": 472, "velocity": 100}, {"time": 151929, "pitch": 50, "duration": 452, "velocity": 90}, {"time": 151929, "pitch": 57, "duration": 452, "velocity": 80}, {"time": 152401, "pitch": 60, "duration": 220, "velocity": 80}, {"time": 152401, "pitch": 66, "duration": 220, "velocity": 90}, {"time": 152411, "pitch": 50, "duration": 220, "velocity": 80}, {"time": 152411, "pitch": 57, "duration": 220, "velocity": 70}, {"time": 152642, "pitch": 50, "duration": 10, "velocity": 100}, {"time": 152642, "pitch": 57, "duration": 10, "velocity": 80}, {"time": 152652, "pitch": 60, "duration": 10, "velocity": 90}, {"time": 152652, "pitch": 66, "duration": 10, "velocity": 100}, {"time": 152882, "pitch": 60, "duration": 221, "velocity": 80}, {"time": 152882, "pitch": 66, "duration": 221, "velocity": 90}, {"time": 152892, "pitch": 50, "duration": 221, "velocity": 80}, {"time": 152892, "pitch": 57, "duration": 221, "velocity": 70}, {"time": 153123, "pitch": 50, "duration": 217, "velocity": 100}, {"time": 153123, "pitch": 57, "duration": 217, "velocity": 80}, {"time": 153133, "pitch": 60, "duration": 217, "velocity": 90}, {"time": 153133, "pitch": 66, "duration": 217, "velocity": 100}, {"time": 153360, "pitch": 60, "duration": 218, "velocity": 80}, {"time": 153360, "pitch": 66, "duration": 218, "velocity": 90}, {"time": 153370, "pitch": 50, "duration": 217, "velocity": 80}, {"time": 153370, "pitch": 57, "duration": 217, "velocity": 70}, {"time": 153597, "pitch": 50, "duration": 10, "velocity": 100}, {"time": 153597, "pitch": 57, "duration": 10, "velocity": 80}, {"time": 153607, "pitch": 60, "duration": 10, "velocity": 90}, {"time": 153607, "pitch": 66, "duration": 10, "velocity": 100}, {"time": 153838, "pitch": 60, "duration": 221, "velocity": 90}, {"time": 153838, "pitch": 66, "duration": 221, "velocity": 90}, {"time": 153848, "pitch": 50, "duration": 221, "velocity": 80}, {"time": 153848, "pitch": 57, "duration": 221, "velocity": 70}, {"time": 154079, "pitch": 50, "duration": 221, "velocity": 100}, {"time": 154079, "pitch": 55, "duration": 221, "velocity": 80}, {"time": 154089, "pitch": 59, "duration": 221, "velocity": 90}, {"time": 154089, "pitch": 67, "duration": 221, "velocity": 100}, {"time": 154320, "pitch": 59, "duration": 220, "velocity": 80}, {"time": 154320, "pitch": 67, "duration": 220, "velocity": 90}, {"time": 154330, "pitch": 50, "duration": 220, "velocity": 80}, {"time": 154330, "pitch": 55, "duration": 220, "velocity": 70}, {"time": 154561, "pitch": 50, "duration": 10, "velocity": 100}, {"time": 154561, "pitch": 55, "duration": 10, "velocity": 80}, {"time": 154571, "pitch": 59, "duration": 10, "velocity": 90}, {"time": 154571, "pitch": 67, "duration": 10, "velocity": 100}, {"time": 154801, "pitch": 59, "duration": 221, "velocity": 80}, {"time": 154801, "pitch": 67, "duration": 221, "velocity": 90}, {"time": 154811, "pitch": 50, "duration": 221, "velocity": 80}, {"time": 154811, "pitch": 55, "duration": 221, "velocity": 70}, {"time": 155042, "pitch": 50, "duration": 217, "velocity": 100}, {"time": 155042, "pitch": 55, "duration": 217, "velocity": 80}, {"time": 155052, "pitch": 59, "duration": 217, "velocity": 90}, {"time": 155052, "pitch": 67, "duration": 217, "velocity": 100}, {"time": 155279, "pitch": 59, "duration": 218, "velocity": 80}, {"time": 155279, "pitch": 67, "duration": 218, "velocity": 90}, {"time": 155289, "pitch": 50, "duration": 217, "velocity": 80}, {"time": 155289, "pitch": 55, "duration": 217, "velocity": 70}, {"time": 155516, "pitch": 50, "duration": 10, "velocity": 100}, {"time": 155516, "pitch": 55, "duration": 10, "velocity": 80}, {"time": 155526, "pitch": 59, "duration": 10, "velocity": 90}, {"time": 155526, "pitch": 67, "duration": 10, "velocity": 100}, {"time": 155757, "pitch": 59, "duration": 221, "velocity": 90}, {"time": 155757, "pitch": 67, "duration": 221, "velocity": 90}, {"time": 155767, "pitch": 50, "duration": 221, "velocity": 80}, {"time": 155767, "pitch": 55, "duration": 221, "velocity": 70}, {"time": 155998, "pitch": 50, "duration": 221, "velocity": 100}, {"time": 155998, "pitch": 57, "duration": 221, "velocity": 80}, {"time": 156008, "pitch": 62, "duration": 221, "velocity": 90}, {"time": 156008, "pitch": 66, "duration": 221, "velocity": 100}, {"time": 156239, "pitch": 62, "duration": 220, "velocity": 80}, {"time": 156239, "pitch": 66, "duration": 220, "velocity": 90}, {"time": 156249, "pitch": 50, "duration": 220, "velocity": 80}, {"time": 156249, "pitch": 57, "duration": 220, "velocity": 70}, {"time": 156480, "pitch": 50, "duration": 10, "velocity": 100}, {"time": 156480, "pitch": 57, "duration": 10, "velocity": 80}, {"time": 156490, "pitch": 62, "duration": 10, "velocity": 90}, {"time": 156490, "pitch": 66, "duration": 10, "velocity": 100}, {"time": 156720, "pitch": 62, "duration": 221, "velocity": 80}, {"time": 156720, "pitch": 66, "duration": 221, "velocity": 90}, {"time": 156730, "pitch": 50, "duration": 221, "velocity": 80}, {"time": 156730, "pitch": 57, "duration": 221, "velocity": 70}, {"time": 156961, "pitch": 50, "duration": 221, "velocity": 100}, {"time": 156961, "pitch": 57, "duration": 221, "velocity": 80}, {"time": 156971, "pitch": 62, "duration": 221, "velocity": 90}, {"time": 156971, "pitch": 66, "duration": 221, "velocity": 100}, {"time": 157202, "pitch": 62, "duration": 221, "velocity": 80}, {"time": 157202, "pitch": 66, "duration": 221, "velocity": 90}, {"time": 157212, "pitch": 50, "duration": 221, "velocity": 80}, {"time": 157212, "pitch": 57, "duration": 221, "velocity": 70}, {"time": 157443, "pitch": 50, "duration": 10, "velocity": 100}, {"time": 157443, "pitch": 57, "duration": 10, "velocity": 80}, {"time": 157453, "pitch": 62, "duration": 9, "velocity": 90}, {"time": 157453, "pitch": 66, "duration": 9, "velocity": 100}, {"time": 157680, "pitch": 62, "duration": 217, "velocity": 90}, {"time": 157680, "pitch": 66, "duration": 217, "velocity": 100}, {"time": 157690, "pitch": 50, "duration": 217, "velocity": 90}, {"time": 157690, "pitch": 57, "duration": 217, "velocity": 80}, {"time": 157917, "pitch": 50, "duration": 221, "velocity": 100}, {"time": 157917, "pitch": 55, "duration": 221, "velocity": 80}, {"time": 157927, "pitch": 59, "duration": 221, "velocity": 90}, {"time": 157927, "pitch": 67, "duration": 221, "velocity": 100}, {"time": 158158, "pitch": 59, "duration": 220, "velocity": 80}, {"time": 158158, "pitch": 67, "duration": 220, "velocity": 90}, {"time": 158168, "pitch": 50, "duration": 220, "velocity": 80}, {"time": 158168, "pitch": 55, "duration": 220, "velocity": 70}, {"time": 158398, "pitch": 50, "duration": 11, "velocity": 100}, {"time": 158398, "pitch": 55, "duration": 11, "velocity": 80}, {"time": 158409, "pitch": 59, "duration": 10, "velocity": 90}, {"time": 158409, "pitch": 67, "duration": 10, "velocity": 100}, {"time": 158639, "pitch": 59, "duration": 221, "velocity": 80}, {"time": 158639, "pitch": 67, "duration": 221, "velocity": 90}, {"time": 158649, "pitch": 50, "duration": 221, "velocity": 80}, {"time": 158649, "pitch": 55, "duration": 221, "velocity": 70}, {"time": 158880, "pitch": 50, "duration": 221, "velocity": 100}, {"time": 158880, "pitch": 55, "duration": 221, "velocity": 80}, {"time": 158890, "pitch": 59, "duration": 221, "velocity": 90}, {"time": 158890, "pitch": 67, "duration": 221, "velocity": 100}, {"time": 159121, "pitch": 59, "duration": 221, "velocity": 80}, {"time": 159121, "pitch": 67, "duration": 221, "velocity": 90}, {"time": 159131, "pitch": 50, "duration": 221, "velocity": 80}, {"time": 159131, "pitch": 55, "duration": 221, "velocity": 70}, {"time": 159362, "pitch": 50, "duration": 10, "velocity": 100}, {"time": 159362, "pitch": 55, "duration": 10, "velocity": 80}, {"time": 159372, "pitch": 59, "duration": 10, "velocity": 90}, {"time": 159372, "pitch": 67, "duration": 10, "velocity": 100}, {"time": 159602, "pitch": 59, "duration": 221, "velocity": 90}, {"time": 159602, "pitch": 67, "duration": 221, "velocity": 90}, {"time": 159612, "pitch": 50, "duration": 221, "velocity": 80}, {"time": 159612, "pitch": 55, "duration": 221, "velocity": 70}, {"time": 159843, "pitch": 55, "duration": 218, "velocity": 100}, {"time": 159843, "pitch": 58, "duration": 218, "velocity": 80}, {"time": 159853, "pitch": 62, "duration": 217, "velocity": 90}, {"time": 159853, "pitch": 67, "duration": 217, "velocity": 100}, {"time": 160080, "pitch": 62, "duration": 218, "velocity": 80}, {"time": 160080, "pitch": 67, "duration": 218, "velocity": 90}, {"time": 160090, "pitch": 55, "duration": 218, "velocity": 80}, {"time": 160090, "pitch": 58, "duration": 218, "velocity": 70}, {"time": 160318, "pitch": 55, "duration": 10, "velocity": 100}, {"time": 160318, "pitch": 58, "duration": 10, "velocity": 80}, {"time": 160328, "pitch": 62, "duration": 10, "velocity": 90}, {"time": 160328, "pitch": 67, "duration": 10, "velocity": 100}, {"time": 160558, "pitch": 62, "duration": 452, "velocity": 90}, {"time": 160558, "pitch": 67, "duration": 452, "velocity": 100}, {"time": 160568, "pitch": 54, "duration": 452, "velocity": 90}, {"time": 160568, "pitch": 58, "duration": 452, "velocity": 80}, {"time": 161040, "pitch": 55, "duration": 451, "velocity": 100}, {"time": 161040, "pitch": 58, "duration": 451, "velocity": 80}, {"time": 161050, "pitch": 62, "duration": 451, "velocity": 90}, {"time": 161050, "pitch": 67, "duration": 451, "velocity": 100}, {"time": 161521, "pitch": 59, "duration": 2140, "velocity": 100}, {"time": 161521, "pitch": 64, "duration": 2140, "velocity": 100}, {"time": 161531, "pitch": 50, "duration": 2130, "velocity": 100}, {"time": 161531, "pitch": 55, "duration": 2130, "velocity": 80}, {"time": 163681, "pitch": 45, "duration": 917, "velocity": 100}, {"time": 163681, "pitch": 52, "duration": 917, "velocity": 93}, {"time": 163691, "pitch": 57, "duration": 916, "velocity": 90}, {"time": 163691, "pitch": 61, "duration": 916, "velocity": 100}, {"time": 163691, "pitch": 66, "duration": 916, "velocity": 100}, {"time": 164637, "pitch": 45, "duration": 923, "velocity": 100}, {"time": 164637, "pitch": 50, "duration": 923, "velocity": 93}, {"time": 164647, "pitch": 55, "duration": 923, "velocity": 90}, {"time": 164647, "pitch": 59, "duration": 923, "velocity": 100}, {"time": 164647, "pitch": 64, "duration": 923, "velocity": 100}, {"time": 165600, "pitch": 50, "duration": 221, "velocity": 100}, {"time": 165600, "pitch": 57, "duration": 221, "velocity": 80}, {"time": 165610, "pitch": 62, "duration": 221, "velocity": 90}, {"time": 165610, "pitch": 66, "duration": 221, "velocity": 100}, {"time": 165841, "pitch": 62, "duration": 221, "velocity": 80}, {"time": 165841, "pitch": 66, "duration": 221, "velocity": 90}, {"time": 165851, "pitch": 50, "duration": 221, "velocity": 80}, {"time": 165851, "pitch": 57, "duration": 221, "velocity": 70}, {"time": 166082, "pitch": 50, "duration": 10, "velocity": 100}, {"time": 166082, "pitch": 57, "duration": 10, "velocity": 80}, {"time": 166092, "pitch": 62, "duration": 10, "velocity": 90}, {"time": 166092, "pitch": 66, "duration": 10, "velocity": 100}, {"time": 166323, "pitch": 62, "duration": 220, "velocity": 80}, {"time": 166323, "pitch": 66, "duration": 220, "velocity": 90}, {"time": 166333, "pitch": 50, "duration": 220, "velocity": 80}, {"time": 166333, "pitch": 57, "duration": 220, "velocity": 70}, {"time": 166563, "pitch": 50, "duration": 218, "velocity": 100}, {"time": 166563, "pitch": 57, "duration": 218, "velocity": 80}, {"time": 166573, "pitch": 62, "duration": 218, "velocity": 90}, {"time": 166573, "pitch": 66, "duration": 218, "velocity": 100}, {"time": 166800, "pitch": 62, "duration": 218, "velocity": 80}, {"time": 166800, "pitch": 66, "duration": 218, "velocity": 90}, {"time": 166810, "pitch": 50, "duration": 218, "velocity": 80}, {"time": 166810, "pitch": 57, "duration": 218, "velocity": 70}, {"time": 167038, "pitch": 50, "duration": 10, "velocity": 100}, {"time": 167038, "pitch": 57, "duration": 10, "velocity": 80}, {"time": 167048, "pitch": 62, "duration": 10, "velocity": 90}, {"time": 167048, "pitch": 66, "duration": 10, "velocity": 100}, {"time": 167278, "pitch": 61, "duration": 472, "velocity": 90}, {"time": 167278, "pitch": 66, "duration": 472, "velocity": 100}, {"time": 167288, "pitch": 50, "duration": 452, "velocity": 90}, {"time": 167288, "pitch": 57, "duration": 452, "velocity": 80}, {"time": 167760, "pitch": 61, "duration": 221, "velocity": 80}, {"time": 167760, "pitch": 66, "duration": 221, "velocity": 90}, {"time": 167770, "pitch": 50, "duration": 221, "velocity": 80}, {"time": 167770, "pitch": 57, "duration": 221, "velocity": 70}, {"time": 168001, "pitch": 50, "duration": 10, "velocity": 100}, {"time": 168001, "pitch": 57, "duration": 10, "velocity": 80}, {"time": 168011, "pitch": 61, "duration": 10, "velocity": 90}, {"time": 168011, "pitch": 66, "duration": 10, "velocity": 100}, {"time": 168242, "pitch": 61, "duration": 220, "velocity": 80}, {"time": 168242, "pitch": 66, "duration": 220, "velocity": 90}, {"time": 168252, "pitch": 50, "duration": 220, "velocity": 80}, {"time": 168252, "pitch": 57, "duration": 220, "velocity": 70}, {"time": 168482, "pitch": 50, "duration": 218, "velocity": 100}, {"time": 168482, "pitch": 57, "duration": 218, "velocity": 80}, {"time": 168492, "pitch": 61, "duration": 218, "velocity": 90}, {"time": 168492, "pitch": 66, "duration": 218, "velocity": 100}, {"time": 168719, "pitch": 61, "duration": 218, "velocity": 80}, {"time": 168719, "pitch": 66, "duration": 218, "velocity": 90}, {"time": 168729, "pitch": 50, "duration": 218, "velocity": 80}, {"time": 168729, "pitch": 57, "duration": 218, "velocity": 70}, {"time": 168957, "pitch": 50, "duration": 10, "velocity": 100}, {"time": 168957, "pitch": 57, "duration": 10, "velocity": 80}, {"time": 168967, "pitch": 61, "duration": 10, "velocity": 90}, {"time": 168967, "pitch": 66, "duration": 10, "velocity": 100}, {"time": 169197, "pitch": 61, "duration": 221, "velocity": 90}, {"time": 169197, "pitch": 66, "duration": 221, "velocity": 90}, {"time": 169207, "pitch": 50, "duration": 221, "velocity": 80}, {"time": 169207, "pitch": 57, "duration": 221, "velocity": 70}, {"time": 169438, "pitch": 50, "duration": 221, "velocity": 100}, {"time": 169438, "pitch": 57, "duration": 221, "velocity": 80}, {"time": 169448, "pitch": 61, "duration": 221, "velocity": 90}, {"time": 169448, "pitch": 66, "duration": 221, "velocity": 100}, {"time": 169679, "pitch": 61, "duration": 221, "velocity": 80}, {"time": 169679, "pitch": 66, "duration": 221, "velocity": 90}, {"time": 169689, "pitch": 50, "duration": 221, "velocity": 80}, {"time": 169689, "pitch": 57, "duration": 221, "velocity": 70}, {"time": 169920, "pitch": 50, "duration": 10, "velocity": 100}, {"time": 169920, "pitch": 57, "duration": 10, "velocity": 80}, {"time": 169930, "pitch": 61, "duration": 10, "velocity": 90}, {"time": 169930, "pitch": 66, "duration": 10, "velocity": 100}, {"time": 170161, "pitch": 61, "duration": 220, "velocity": 80}, {"time": 170161, "pitch": 66, "duration": 220, "velocity": 90}, {"time": 170171, "pitch": 50, "duration": 220, "velocity": 80}, {"time": 170171, "pitch": 57, "duration": 220, "velocity": 70}, {"time": 170401, "pitch": 50, "duration": 221, "velocity": 100}, {"time": 170401, "pitch": 57, "duration": 221, "velocity": 80}, {"time": 170411, "pitch": 61, "duration": 221, "velocity": 90}, {"time": 170411, "pitch": 66, "duration": 221, "velocity": 100}, {"time": 170642, "pitch": 61, "duration": 221, "velocity": 80}, {"time": 170642, "pitch": 66, "duration": 221, "velocity": 90}, {"time": 170652, "pitch": 50, "duration": 221, "velocity": 80}, {"time": 170652, "pitch": 57, "duration": 221, "velocity": 70}, {"time": 170883, "pitch": 50, "duration": 10, "velocity": 100}, {"time": 170883, "pitch": 57, "duration": 10, "velocity": 80}, {"time": 170893, "pitch": 61, "duration": 10, "velocity": 90}, {"time": 170893, "pitch": 66, "duration": 10, "velocity": 100}, {"time": 171120, "pitch": 60, "duration": 468, "velocity": 90}, {"time": 171120, "pitch": 66, "duration": 468, "velocity": 100}, {"time": 171130, "pitch": 50, "duration": 448, "velocity": 90}, {"time": 171130, "pitch": 57, "duration": 448, "velocity": 80}, {"time": 171598, "pitch": 60, "duration": 221, "velocity": 80}, {"time": 171598, "pitch": 66, "duration": 221, "velocity": 90}, {"time": 171608, "pitch": 50, "duration": 221, "velocity": 80}, {"time": 171608, "pitch": 57, "duration": 221, "velocity": 70}, {"time": 171839, "pitch": 50, "duration": 10, "velocity": 100}, {"time": 171839, "pitch": 57, "duration": 10, "velocity": 80}, {"time": 171849, "pitch": 60, "duration": 10, "velocity": 90}, {"time": 171849, "pitch": 66, "duration": 10, "velocity": 100}, {"time": 172080, "pitch": 60, "duration": 220, "velocity": 80}, {"time": 172080, "pitch": 66, "duration": 220, "velocity": 90}, {"time": 172090, "pitch": 50, "duration": 220, "velocity": 80}, {"time": 172090, "pitch": 57, "duration": 220, "velocity": 70}, {"time": 172320, "pitch": 50, "duration": 221, "velocity": 100}, {"time": 172320, "pitch": 57, "duration": 221, "velocity": 80}, {"time": 172330, "pitch": 60, "duration": 221, "velocity": 90}, {"time": 172330, "pitch": 66, "duration": 221, "velocity": 100}, {"time": 172561, "pitch": 60, "duration": 221, "velocity": 80}, {"time": 172561, "pitch": 66, "duration": 221, "velocity": 90}, {"time": 172571, "pitch": 50, "duration": 221, "velocity": 80}, {"time": 172571, "pitch": 57, "duration": 221, "velocity": 70}, {"time": 172802, "pitch": 50, "duration": 10, "velocity": 100}, {"time": 172802, "pitch": 57, "duration": 10, "velocity": 80}, {"time": 172812, "pitch": 60, "duration": 10, "velocity": 90}, {"time": 172812, "pitch": 66, "duration": 10, "velocity": 100}, {"time": 173043, "pitch": 60, "duration": 220, "velocity": 90}, {"time": 173043, "pitch": 66, "duration": 220, "velocity": 90}, {"time": 173053, "pitch": 50, "duration": 220, "velocity": 80}, {"time": 173053, "pitch": 57, "duration": 220, "velocity": 70}, {"time": 173283, "pitch": 50, "duration": 218, "velocity": 100}, {"time": 173283, "pitch": 55, "duration": 218, "velocity": 80}, {"time": 173293, "pitch": 59, "duration": 218, "velocity": 90}, {"time": 173293, "pitch": 67, "duration": 218, "velocity": 100}, {"time": 173521, "pitch": 59, "duration": 217, "velocity": 80}, {"time": 173521, "pitch": 67, "duration": 217, "velocity": 90}, {"time": 173531, "pitch": 50, "duration": 217, "velocity": 80}, {"time": 173531, "pitch": 55, "duration": 217, "velocity": 70}, {"time": 173758, "pitch": 50, "duration": 10, "velocity": 100}, {"time": 173758, "pitch": 55, "duration": 10, "velocity": 80}, {"time": 173768, "pitch": 59, "duration": 10, "velocity": 90}, {"time": 173768, "pitch": 67, "duration": 10, "velocity": 100}, {"time": 173999, "pitch": 59, "duration": 220, "velocity": 80}, {"time": 173999, "pitch": 67, "duration": 220, "velocity": 90}, {"time": 174009, "pitch": 50, "duration": 220, "velocity": 80}, {"time": 174009, "pitch": 55, "duration": 220, "velocity": 70}, {"time": 174239, "pitch": 50, "duration": 221, "velocity": 100}, {"time": 174239, "pitch": 55, "duration": 221, "velocity": 80}, {"time": 174249, "pitch": 59, "duration": 221, "velocity": 90}, {"time": 174249, "pitch": 67, "duration": 221, "velocity": 100}, {"time": 174480, "pitch": 59, "duration": 221, "velocity": 80}, {"time": 174480, "pitch": 67, "duration": 221, "velocity": 90}, {"time": 174490, "pitch": 50, "duration": 221, "velocity": 80}, {"time": 174490, "pitch": 55, "duration": 221, "velocity": 70}, {"time": 174721, "pitch": 50, "duration": 10, "velocity": 100}, {"time": 174721, "pitch": 55, "duration": 10, "velocity": 80}, {"time": 174731, "pitch": 59, "duration": 10, "velocity": 90}, {"time": 174731, "pitch": 67, "duration": 10, "velocity": 100}, {"time": 174962, "pitch": 59, "duration": 220, "velocity": 90}, {"time": 174962, "pitch": 67, "duration": 220, "velocity": 90}, {"time": 174972, "pitch": 50, "duration": 220, "velocity": 80}, {"time": 174972, "pitch": 55, "duration": 220, "velocity": 70}, {"time": 175202, "pitch": 50, "duration": 218, "velocity": 100}, {"time": 175202, "pitch": 57, "duration": 218, "velocity": 80}, {"time": 175212, "pitch": 62, "duration": 218, "velocity": 90}, {"time": 175212, "pitch": 66, "duration": 218, "velocity": 100}, {"time": 175440, "pitch": 62, "duration": 217, "velocity": 80}, {"time": 175440, "pitch": 66, "duration": 217, "velocity": 90}, {"time": 175450, "pitch": 50, "duration": 217, "velocity": 80}, {"time": 175450, "pitch": 57, "duration": 217, "velocity": 70}, {"time": 175677, "pitch": 50, "duration": 10, "velocity": 100}, {"time": 175677, "pitch": 57, "duration": 10, "velocity": 80}, {"time": 175687, "pitch": 62, "duration": 10, "velocity": 90}, {"time": 175687, "pitch": 66, "duration": 10, "velocity": 100}, {"time": 175918, "pitch": 62, "duration": 220, "velocity": 80}, {"time": 175918, "pitch": 66, "duration": 220, "velocity": 90}, {"time": 175928, "pitch": 50, "duration": 220, "velocity": 80}, {"time": 175928, "pitch": 57, "duration": 220, "velocity": 70}, {"time": 176158, "pitch": 50, "duration": 221, "velocity": 100}, {"time": 176158, "pitch": 57, "duration": 221, "velocity": 80}, {"time": 176168, "pitch": 62, "duration": 221, "velocity": 90}, {"time": 176168, "pitch": 66, "duration": 221, "velocity": 100}, {"time": 176399, "pitch": 62, "duration": 221, "velocity": 80}, {"time": 176399, "pitch": 66, "duration": 221, "velocity": 90}, {"time": 176409, "pitch": 50, "duration": 221, "velocity": 80}, {"time": 176409, "pitch": 57, "duration": 221, "velocity": 70}, {"time": 176640, "pitch": 50, "duration": 10, "velocity": 100}, {"time": 176640, "pitch": 57, "duration": 10, "velocity": 80}, {"time": 176650, "pitch": 62, "duration": 10, "velocity": 90}, {"time": 176650, "pitch": 66, "duration": 10, "velocity": 100}, {"time": 176881, "pitch": 62, "duration": 220, "velocity": 90}, {"time": 176881, "pitch": 66, "duration": 220, "velocity": 100}, {"time": 176891, "pitch": 50, "duration": 220, "velocity": 90}, {"time": 176891, "pitch": 57, "duration": 220, "velocity": 80}, {"time": 177122, "pitch": 50, "duration": 220, "velocity": 100}, {"time": 177122, "pitch": 55, "duration": 220, "velocity": 80}, {"time": 177132, "pitch": 59, "duration": 220, "velocity": 90}, {"time": 177132, "pitch": 67, "duration": 220, "velocity": 100}, {"time": 177362, "pitch": 59, "duration": 221, "velocity": 80}, {"time": 177362, "pitch": 67, "duration": 221, "velocity": 90}, {"time": 177372, "pitch": 50, "duration": 221, "velocity": 80}, {"time": 177372, "pitch": 55, "duration": 221, "velocity": 70}, {"time": 177603, "pitch": 50, "duration": 10, "velocity": 100}, {"time": 177603, "pitch": 55, "duration": 10, "velocity": 80}, {"time": 177613, "pitch": 59, "duration": 10, "velocity": 90}, {"time": 177613, "pitch": 67, "duration": 10, "velocity": 100}, {"time": 177840, "pitch": 59, "duration": 218, "velocity": 80}, {"time": 177840, "pitch": 67, "duration": 218, "velocity": 90}, {"time": 177850, "pitch": 50, "duration": 217, "velocity": 80}, {"time": 177850, "pitch": 55, "duration": 217, "velocity": 70}, {"time": 178077, "pitch": 50, "duration": 221, "velocity": 100}, {"time": 178077, "pitch": 55, "duration": 221, "velocity": 80}, {"time": 178087, "pitch": 59, "duration": 221, "velocity": 90}, {"time": 178087, "pitch": 67, "duration": 221, "velocity": 100}, {"time": 178318, "pitch": 59, "duration": 221, "velocity": 80}, {"time": 178318, "pitch": 67, "duration": 221, "velocity": 90}, {"time": 178328, "pitch": 50, "duration": 221, "velocity": 80}, {"time": 178328, "pitch": 55, "duration": 221, "velocity": 70}, {"time": 178559, "pitch": 50, "duration": 10, "velocity": 100}, {"time": 178559, "pitch": 55, "duration": 10, "velocity": 80}, {"time": 178569, "pitch": 59, "duration": 10, "velocity": 90}, {"time": 178569, "pitch": 67, "duration": 10, "velocity": 100}, {"time": 178800, "pitch": 59, "duration": 220, "velocity": 90}, {"time": 178800, "pitch": 67, "duration": 220, "velocity": 90}, {"time": 178810, "pitch": 50, "duration": 220, "velocity": 80}, {"time": 178810, "pitch": 55, "duration": 220, "velocity": 70}, {"time": 179040, "pitch": 50, "duration": 221, "velocity": 100}, {"time": 179040, "pitch": 55, "duration": 221, "velocity": 80}, {"time": 179051, "pitch": 59, "duration": 220, "velocity": 90}, {"time": 179051, "pitch": 64, "duration": 220, "velocity": 100}, {"time": 179281, "pitch": 59, "duration": 221, "velocity": 80}, {"time": 179281, "pitch": 64, "duration": 221, "velocity": 90}, {"time": 179291, "pitch": 50, "duration": 221, "velocity": 80}, {"time": 179291, "pitch": 55, "duration": 221, "velocity": 70}, {"time": 179522, "pitch": 50, "duration": 10, "velocity": 100}, {"time": 179522, "pitch": 55, "duration": 10, "velocity": 80}, {"time": 179532, "pitch": 59, "duration": 10, "velocity": 90}, {"time": 179532, "pitch": 64, "duration": 10, "velocity": 100}, {"time": 179763, "pitch": 59, "duration": 221, "velocity": 80}, {"time": 179763, "pitch": 64, "duration": 221, "velocity": 90}, {"time": 179773, "pitch": 50, "duration": 221, "velocity": 80}, {"time": 179773, "pitch": 55, "duration": 221, "velocity": 70}, {"time": 180004, "pitch": 50, "duration": 9, "velocity": 100}, {"time": 180004, "pitch": 55, "duration": 9, "velocity": 80}, {"time": 180013, "pitch": 59, "duration": 10, "velocity": 90}, {"time": 180013, "pitch": 64, "duration": 10, "velocity": 100}, {"time": 180241, "pitch": 61, "duration": 678, "velocity": 90}, {"time": 180241, "pitch": 64, "duration": 678, "velocity": 100}, {"time": 180251, "pitch": 52, "duration": 678, "velocity": 90}, {"time": 180251, "pitch": 57, "duration": 678, "velocity": 80}, {"time": 180959, "pitch": 50, "duration": 221, "velocity": 100}, {"time": 180959, "pitch": 57, "duration": 221, "velocity": 80}, {"time": 180970, "pitch": 62, "duration": 220, "velocity": 90}, {"time": 180970, "pitch": 66, "duration": 220, "velocity": 100}, {"time": 181200, "pitch": 62, "duration": 221, "velocity": 80}, {"time": 181200, "pitch": 66, "duration": 221, "velocity": 90}, {"time": 181210, "pitch": 50, "duration": 221, "velocity": 80}, {"time": 181210, "pitch": 57, "duration": 221, "velocity": 70}, {"time": 181441, "pitch": 50, "duration": 10, "velocity": 100}, {"time": 181441, "pitch": 57, "duration": 10, "velocity": 80}, {"time": 181451, "pitch": 62, "duration": 10, "velocity": 90}, {"time": 181451, "pitch": 66, "duration": 10, "velocity": 100}, {"time": 181682, "pitch": 62, "duration": 221, "velocity": 80}, {"time": 181682, "pitch": 66, "duration": 221, "velocity": 90}, {"time": 181692, "pitch": 50, "duration": 221, "velocity": 80}, {"time": 181692, "pitch": 57, "duration": 221, "velocity": 70}, {"time": 181923, "pitch": 50, "duration": 217, "velocity": 100}, {"time": 181923, "pitch": 57, "duration": 217, "velocity": 80}, {"time": 181932, "pitch": 62, "duration": 218, "velocity": 90}, {"time": 181932, "pitch": 66, "duration": 218, "velocity": 100}, {"time": 182160, "pitch": 62, "duration": 217, "velocity": 80}, {"time": 182160, "pitch": 66, "duration": 217, "velocity": 90}, {"time": 182170, "pitch": 50, "duration": 217, "velocity": 80}, {"time": 182170, "pitch": 57, "duration": 217, "velocity": 70}, {"time": 182397, "pitch": 50, "duration": 10, "velocity": 100}, {"time": 182397, "pitch": 57, "duration": 10, "velocity": 80}, {"time": 182407, "pitch": 62, "duration": 10, "velocity": 90}, {"time": 182407, "pitch": 66, "duration": 10, "velocity": 100}, {"time": 182638, "pitch": 61, "duration": 471, "velocity": 90}, {"time": 182638, "pitch": 66, "duration": 471, "velocity": 100}, {"time": 182648, "pitch": 50, "duration": 451, "velocity": 90}, {"time": 182648, "pitch": 57, "duration": 451, "velocity": 80}, {"time": 183119, "pitch": 61, "duration": 221, "velocity": 80}, {"time": 183119, "pitch": 66, "duration": 221, "velocity": 90}, {"time": 183129, "pitch": 50, "duration": 221, "velocity": 80}, {"time": 183129, "pitch": 57, "duration": 221, "velocity": 70}, {"time": 183360, "pitch": 50, "duration": 10, "velocity": 100}, {"time": 183360, "pitch": 57, "duration": 10, "velocity": 80}, {"time": 183370, "pitch": 61, "duration": 10, "velocity": 90}, {"time": 183370, "pitch": 66, "duration": 10, "velocity": 100}, {"time": 183601, "pitch": 61, "duration": 221, "velocity": 80}, {"time": 183601, "pitch": 66, "duration": 221, "velocity": 90}, {"time": 183611, "pitch": 50, "duration": 221, "velocity": 80}, {"time": 183611, "pitch": 57, "duration": 221, "velocity": 70}, {"time": 183842, "pitch": 50, "duration": 220, "velocity": 100}, {"time": 183842, "pitch": 57, "duration": 220, "velocity": 80}, {"time": 183852, "pitch": 61, "duration": 220, "velocity": 90}, {"time": 183852, "pitch": 66, "duration": 220, "velocity": 100}, {"time": 184082, "pitch": 61, "duration": 221, "velocity": 80}, {"time": 184082, "pitch": 66, "duration": 221, "velocity": 90}, {"time": 184092, "pitch": 50, "duration": 221, "velocity": 80}, {"time": 184092, "pitch": 57, "duration": 221, "velocity": 70}, {"time": 184323, "pitch": 50, "duration": 10, "velocity": 100}, {"time": 184323, "pitch": 57, "duration": 10, "velocity": 80}, {"time": 184333, "pitch": 61, "duration": 10, "velocity": 90}, {"time": 184333, "pitch": 66, "duration": 10, "velocity": 100}, {"time": 184560, "pitch": 61, "duration": 218, "velocity": 90}, {"time": 184560, "pitch": 66, "duration": 218, "velocity": 90}, {"time": 184570, "pitch": 50, "duration": 218, "velocity": 80}, {"time": 184570, "pitch": 57, "duration": 218, "velocity": 70}, {"time": 184797, "pitch": 50, "duration": 221, "velocity": 100}, {"time": 184797, "pitch": 57, "duration": 221, "velocity": 80}, {"time": 184807, "pitch": 61, "duration": 221, "velocity": 90}, {"time": 184807, "pitch": 66, "duration": 221, "velocity": 100}, {"time": 185038, "pitch": 61, "duration": 221, "velocity": 80}, {"time": 185038, "pitch": 66, "duration": 221, "velocity": 90}, {"time": 185048, "pitch": 50, "duration": 221, "velocity": 80}, {"time": 185048, "pitch": 57, "duration": 221, "velocity": 70}, {"time": 185279, "pitch": 50, "duration": 10, "velocity": 100}, {"time": 185279, "pitch": 57, "duration": 10, "velocity": 80}, {"time": 185289, "pitch": 61, "duration": 10, "velocity": 90}, {"time": 185289, "pitch": 66, "duration": 10, "velocity": 100}, {"time": 185520, "pitch": 61, "duration": 221, "velocity": 80}, {"time": 185520, "pitch": 66, "duration": 221, "velocity": 90}, {"time": 185530, "pitch": 50, "duration": 221, "velocity": 80}, {"time": 185530, "pitch": 57, "duration": 221, "velocity": 70}, {"time": 185761, "pitch": 50, "duration": 220, "velocity": 100}, {"time": 185761, "pitch": 57, "duration": 220, "velocity": 80}, {"time": 185771, "pitch": 61, "duration": 220, "velocity": 90}, {"time": 185771, "pitch": 66, "duration": 220, "velocity": 100}, {"time": 186001, "pitch": 61, "duration": 221, "velocity": 80}, {"time": 186001, "pitch": 66, "duration": 221, "velocity": 90}, {"time": 186011, "pitch": 50, "duration": 221, "velocity": 80}, {"time": 186011, "pitch": 57, "duration": 221, "velocity": 70}, {"time": 186242, "pitch": 50, "duration": 10, "velocity": 100}, {"time": 186242, "pitch": 57, "duration": 10, "velocity": 80}, {"time": 186252, "pitch": 61, "duration": 10, "velocity": 90}, {"time": 186252, "pitch": 66, "duration": 10, "velocity": 100}, {"time": 186479, "pitch": 60, "duration": 468, "velocity": 90}, {"time": 186479, "pitch": 66, "duration": 468, "velocity": 100}, {"time": 186489, "pitch": 50, "duration": 448, "velocity": 90}, {"time": 186489, "pitch": 57, "duration": 448, "velocity": 80}, {"time": 186957, "pitch": 60, "duration": 221, "velocity": 80}, {"time": 186957, "pitch": 66, "duration": 221, "velocity": 90}, {"time": 186967, "pitch": 50, "duration": 221, "velocity": 80}, {"time": 186967, "pitch": 57, "duration": 221, "velocity": 70}, {"time": 187198, "pitch": 50, "duration": 10, "velocity": 100}, {"time": 187198, "pitch": 57, "duration": 10, "velocity": 80}, {"time": 187208, "pitch": 60, "duration": 10, "velocity": 90}, {"time": 187208, "pitch": 66, "duration": 10, "velocity": 100}, {"time": 187439, "pitch": 60, "duration": 221, "velocity": 80}, {"time": 187439, "pitch": 66, "duration": 221, "velocity": 90}, {"time": 187449, "pitch": 50, "duration": 221, "velocity": 80}, {"time": 187449, "pitch": 57, "duration": 221, "velocity": 70}, {"time": 187680, "pitch": 50, "duration": 220, "velocity": 100}, {"time": 187680, "pitch": 57, "duration": 220, "velocity": 80}, {"time": 187690, "pitch": 60, "duration": 220, "velocity": 90}, {"time": 187690, "pitch": 66, "duration": 220, "velocity": 100}, {"time": 187920, "pitch": 60, "duration": 221, "velocity": 80}, {"time": 187920, "pitch": 66, "duration": 221, "velocity": 90}, {"time": 187930, "pitch": 50, "duration": 221, "velocity": 80}, {"time": 187930, "pitch": 57, "duration": 221, "velocity": 70}, {"time": 188161, "pitch": 50, "duration": 10, "velocity": 100}, {"time": 188161, "pitch": 57, "duration": 10, "velocity": 80}, {"time": 188171, "pitch": 60, "duration": 10, "velocity": 90}, {"time": 188171, "pitch": 66, "duration": 10, "velocity": 100}, {"time": 188402, "pitch": 60, "duration": 221, "velocity": 90}, {"time": 188402, "pitch": 66, "duration": 221, "velocity": 90}, {"time": 188412, "pitch": 50, "duration": 221, "velocity": 80}, {"time": 188412, "pitch": 57, "duration": 221, "velocity": 70}, {"time": 188643, "pitch": 50, "duration": 217, "velocity": 100}, {"time": 188643, "pitch": 55, "duration": 217, "velocity": 80}, {"time": 188653, "pitch": 59, "duration": 217, "velocity": 90}, {"time": 188653, "pitch": 67, "duration": 217, "velocity": 100}, {"time": 188880, "pitch": 59, "duration": 217, "velocity": 80}, {"time": 188880, "pitch": 67, "duration": 217, "velocity": 90}, {"time": 188890, "pitch": 50, "duration": 217, "velocity": 80}, {"time": 188890, "pitch": 55, "duration": 217, "velocity": 70}, {"time": 189117, "pitch": 50, "duration": 10, "velocity": 100}, {"time": 189117, "pitch": 55, "duration": 10, "velocity": 80}, {"time": 189127, "pitch": 59, "duration": 10, "velocity": 90}, {"time": 189127, "pitch": 67, "duration": 10, "velocity": 100}, {"time": 189358, "pitch": 59, "duration": 221, "velocity": 80}, {"time": 189358, "pitch": 67, "duration": 221, "velocity": 90}, {"time": 189368, "pitch": 50, "duration": 221, "velocity": 80}, {"time": 189368, "pitch": 55, "duration": 221, "velocity": 70}, {"time": 189599, "pitch": 50, "duration": 220, "velocity": 100}, {"time": 189599, "pitch": 55, "duration": 220, "velocity": 80}, {"time": 189609, "pitch": 59, "duration": 220, "velocity": 90}, {"time": 189609, "pitch": 67, "duration": 220, "velocity": 100}, {"time": 189839, "pitch": 59, "duration": 221, "velocity": 80}, {"time": 189839, "pitch": 67, "duration": 221, "velocity": 90}, {"time": 189849, "pitch": 50, "duration": 221, "velocity": 80}, {"time": 189849, "pitch": 55, "duration": 221, "velocity": 70}, {"time": 190080, "pitch": 50, "duration": 10, "velocity": 100}, {"time": 190080, "pitch": 55, "duration": 10, "velocity": 80}, {"time": 190090, "pitch": 59, "duration": 10, "velocity": 90}, {"time": 190090, "pitch": 67, "duration": 10, "velocity": 100}, {"time": 190321, "pitch": 59, "duration": 221, "velocity": 90}, {"time": 190321, "pitch": 67, "duration": 221, "velocity": 90}, {"time": 190331, "pitch": 50, "duration": 221, "velocity": 80}, {"time": 190331, "pitch": 55, "duration": 221, "velocity": 70}, {"time": 190562, "pitch": 50, "duration": 221, "velocity": 100}, {"time": 190562, "pitch": 57, "duration": 221, "velocity": 80}, {"time": 190572, "pitch": 62, "duration": 221, "velocity": 90}, {"time": 190572, "pitch": 66, "duration": 221, "velocity": 100}, {"time": 190803, "pitch": 62, "duration": 220, "velocity": 80}, {"time": 190803, "pitch": 66, "duration": 220, "velocity": 90}, {"time": 190813, "pitch": 50, "duration": 220, "velocity": 80}, {"time": 190813, "pitch": 57, "duration": 220, "velocity": 70}, {"time": 191043, "pitch": 50, "duration": 10, "velocity": 100}, {"time": 191043, "pitch": 57, "duration": 10, "velocity": 80}, {"time": 191053, "pitch": 62, "duration": 10, "velocity": 90}, {"time": 191053, "pitch": 66, "duration": 10, "velocity": 100}, {"time": 191280, "pitch": 62, "duration": 218, "velocity": 80}, {"time": 191280, "pitch": 66, "duration": 218, "velocity": 90}, {"time": 191290, "pitch": 50, "duration": 218, "velocity": 80}, {"time": 191290, "pitch": 57, "duration": 218, "velocity": 70}, {"time": 191518, "pitch": 50, "duration": 220, "velocity": 100}, {"time": 191518, "pitch": 57, "duration": 220, "velocity": 80}, {"time": 191528, "pitch": 62, "duration": 220, "velocity": 90}, {"time": 191528, "pitch": 66, "duration": 220, "velocity": 100}, {"time": 191758, "pitch": 62, "duration": 221, "velocity": 80}, {"time": 191758, "pitch": 66, "duration": 221, "velocity": 90}, {"time": 191768, "pitch": 50, "duration": 221, "velocity": 80}, {"time": 191768, "pitch": 57, "duration": 221, "velocity": 70}, {"time": 191999, "pitch": 50, "duration": 10, "velocity": 100}, {"time": 191999, "pitch": 57, "duration": 10, "velocity": 80}, {"time": 192009, "pitch": 62, "duration": 10, "velocity": 90}, {"time": 192009, "pitch": 66, "duration": 10, "velocity": 100}, {"time": 192240, "pitch": 62, "duration": 221, "velocity": 90}, {"time": 192240, "pitch": 66, "duration": 221, "velocity": 100}, {"time": 192250, "pitch": 50, "duration": 221, "velocity": 90}, {"time": 192250, "pitch": 57, "duration": 221, "velocity": 80}, {"time": 192481, "pitch": 50, "duration": 220, "velocity": 100}, {"time": 192481, "pitch": 55, "duration": 220, "velocity": 80}, {"time": 192491, "pitch": 59, "duration": 221, "velocity": 90}, {"time": 192491, "pitch": 67, "duration": 221, "velocity": 100}, {"time": 192722, "pitch": 59, "duration": 220, "velocity": 80}, {"time": 192722, "pitch": 67, "duration": 220, "velocity": 90}, {"time": 192732, "pitch": 50, "duration": 220, "velocity": 80}, {"time": 192732, "pitch": 55, "duration": 220, "velocity": 70}, {"time": 192962, "pitch": 50, "duration": 10, "velocity": 100}, {"time": 192962, "pitch": 55, "duration": 10, "velocity": 80}, {"time": 192972, "pitch": 59, "duration": 10, "velocity": 90}, {"time": 192972, "pitch": 67, "duration": 10, "velocity": 100}, {"time": 193199, "pitch": 59, "duration": 218, "velocity": 80}, {"time": 193199, "pitch": 67, "duration": 218, "velocity": 90}, {"time": 193209, "pitch": 50, "duration": 218, "velocity": 80}, {"time": 193209, "pitch": 55, "duration": 218, "velocity": 70}, {"time": 193437, "pitch": 50, "duration": 220, "velocity": 100}, {"time": 193437, "pitch": 55, "duration": 220, "velocity": 80}, {"time": 193447, "pitch": 59, "duration": 220, "velocity": 90}, {"time": 193447, "pitch": 67, "duration": 220, "velocity": 100}, {"time": 193677, "pitch": 59, "duration": 221, "velocity": 80}, {"time": 193677, "pitch": 67, "duration": 221, "velocity": 90}, {"time": 193687, "pitch": 50, "duration": 221, "velocity": 80}, {"time": 193687, "pitch": 55, "duration": 221, "velocity": 70}, {"time": 193918, "pitch": 50, "duration": 10, "velocity": 100}, {"time": 193918, "pitch": 55, "duration": 10, "velocity": 80}, {"time": 193928, "pitch": 59, "duration": 10, "velocity": 90}, {"time": 193928, "pitch": 67, "duration": 10, "velocity": 100}, {"time": 194159, "pitch": 59, "duration": 221, "velocity": 90}, {"time": 194159, "pitch": 67, "duration": 221, "velocity": 90}, {"time": 194169, "pitch": 50, "duration": 221, "velocity": 80}, {"time": 194169, "pitch": 55, "duration": 221, "velocity": 70}, {"time": 194400, "pitch": 55, "duration": 220, "velocity": 100}, {"time": 194400, "pitch": 58, "duration": 220, "velocity": 80}, {"time": 194410, "pitch": 62, "duration": 221, "velocity": 90}, {"time": 194410, "pitch": 67, "duration": 221, "velocity": 100}, {"time": 194641, "pitch": 62, "duration": 220, "velocity": 80}, {"time": 194641, "pitch": 67, "duration": 220, "velocity": 90}, {"time": 194651, "pitch": 55, "duration": 220, "velocity": 80}, {"time": 194651, "pitch": 58, "duration": 220, "velocity": 70}, {"time": 194881, "pitch": 55, "duration": 10, "velocity": 100}, {"time": 194881, "pitch": 58, "duration": 10, "velocity": 80}, {"time": 194891, "pitch": 62, "duration": 10, "velocity": 90}, {"time": 194891, "pitch": 67, "duration": 10, "velocity": 100}, {"time": 195122, "pitch": 62, "duration": 448, "velocity": 90}, {"time": 195122, "pitch": 67, "duration": 448, "velocity": 100}, {"time": 195132, "pitch": 54, "duration": 448, "velocity": 90}, {"time": 195132, "pitch": 58, "duration": 448, "velocity": 80}, {"time": 195600, "pitch": 55, "duration": 448, "velocity": 100}, {"time": 195600, "pitch": 58, "duration": 448, "velocity": 80}, {"time": 195610, "pitch": 62, "duration": 448, "velocity": 90}, {"time": 195610, "pitch": 67, "duration": 448, "velocity": 100}, {"time": 196078, "pitch": 62, "duration": 2140, "velocity": 100}, {"time": 196078, "pitch": 66, "duration": 2140, "velocity": 100}, {"time": 196088, "pitch": 50, "duration": 2130, "velocity": 100}, {"time": 196088, "pitch": 57, "duration": 2130, "velocity": 80}, {"time": 48483, "pitch": 50, "duration": 217, "velocity": 100}, {"time": 48483, "pitch": 57, "duration": 217, "velocity": 80}, {"time": 48493, "pitch": 62, "duration": 217, "velocity": 90}, {"time": 48493, "pitch": 66, "duration": 217, "velocity": 100}, {"time": 48720, "pitch": 62, "duration": 218, "velocity": 80}, {"time": 48720, "pitch": 66, "duration": 218, "velocity": 90}, {"time": 48730, "pitch": 50, "duration": 217, "velocity": 80}, {"time": 48730, "pitch": 57, "duration": 217, "velocity": 70}, {"time": 48957, "pitch": 50, "duration": 10, "velocity": 100}, {"time": 48957, "pitch": 57, "duration": 10, "velocity": 80}, {"time": 48967, "pitch": 62, "duration": 10, "velocity": 90}, {"time": 48967, "pitch": 66, "duration": 10, "velocity": 100}, {"time": 49198, "pitch": 62, "duration": 221, "velocity": 80}, {"time": 49198, "pitch": 66, "duration": 221, "velocity": 90}, {"time": 49208, "pitch": 50, "duration": 221, "velocity": 80}, {"time": 49208, "pitch": 57, "duration": 221, "velocity": 70}, {"time": 49439, "pitch": 50, "duration": 221, "velocity": 100}, {"time": 49439, "pitch": 57, "duration": 221, "velocity": 80}, {"time": 49449, "pitch": 62, "duration": 221, "velocity": 90}, {"time": 49449, "pitch": 66, "duration": 221, "velocity": 100}, {"time": 49680, "pitch": 62, "duration": 220, "velocity": 80}, {"time": 49680, "pitch": 66, "duration": 220, "velocity": 90}, {"time": 49690, "pitch": 50, "duration": 220, "velocity": 80}, {"time": 49690, "pitch": 57, "duration": 220, "velocity": 70}, {"time": 49921, "pitch": 50, "duration": 10, "velocity": 100}, {"time": 49921, "pitch": 57, "duration": 10, "velocity": 80}, {"time": 49931, "pitch": 62, "duration": 10, "velocity": 90}, {"time": 49931, "pitch": 66, "duration": 10, "velocity": 100}, {"time": 50161, "pitch": 61, "duration": 468, "velocity": 90}, {"time": 50161, "pitch": 66, "duration": 468, "velocity": 100}, {"time": 50171, "pitch": 50, "duration": 448, "velocity": 90}, {"time": 50171, "pitch": 57, "duration": 448, "velocity": 80}, {"time": 50639, "pitch": 61, "duration": 218, "velocity": 80}, {"time": 50639, "pitch": 66, "duration": 218, "velocity": 90}, {"time": 50649, "pitch": 50, "duration": 217, "velocity": 80}, {"time": 50649, "pitch": 57, "duration": 217, "velocity": 70}, {"time": 50876, "pitch": 50, "duration": 10, "velocity": 100}, {"time": 50876, "pitch": 57, "duration": 10, "velocity": 80}, {"time": 50886, "pitch": 61, "duration": 10, "velocity": 90}, {"time": 50886, "pitch": 66, "duration": 10, "velocity": 100}, {"time": 51117, "pitch": 61, "duration": 221, "velocity": 80}, {"time": 51117, "pitch": 66, "duration": 221, "velocity": 90}, {"time": 51127, "pitch": 50, "duration": 221, "velocity": 80}, {"time": 51127, "pitch": 57, "duration": 221, "velocity": 70}, {"time": 51358, "pitch": 50, "duration": 221, "velocity": 100}, {"time": 51358, "pitch": 57, "duration": 221, "velocity": 80}, {"time": 51368, "pitch": 61, "duration": 221, "velocity": 90}, {"time": 51368, "pitch": 66, "duration": 221, "velocity": 100}, {"time": 51599, "pitch": 61, "duration": 220, "velocity": 80}, {"time": 51599, "pitch": 66, "duration": 220, "velocity": 90}, {"time": 51609, "pitch": 50, "duration": 220, "velocity": 80}, {"time": 51609, "pitch": 57, "duration": 220, "velocity": 70}, {"time": 51839, "pitch": 50, "duration": 11, "velocity": 100}, {"time": 51839, "pitch": 57, "duration": 11, "velocity": 80}, {"time": 51850, "pitch": 61, "duration": 10, "velocity": 90}, {"time": 51850, "pitch": 66, "duration": 10, "velocity": 100}, {"time": 52080, "pitch": 61, "duration": 221, "velocity": 90}, {"time": 52080, "pitch": 66, "duration": 221, "velocity": 90}, {"time": 52090, "pitch": 50, "duration": 221, "velocity": 80}, {"time": 52090, "pitch": 57, "duration": 221, "velocity": 70}, {"time": 52321, "pitch": 50, "duration": 221, "velocity": 100}, {"time": 52321, "pitch": 57, "duration": 221, "velocity": 80}, {"time": 52331, "pitch": 61, "duration": 221, "velocity": 90}, {"time": 52331, "pitch": 66, "duration": 221, "velocity": 100}, {"time": 52562, "pitch": 61, "duration": 221, "velocity": 80}, {"time": 52562, "pitch": 66, "duration": 221, "velocity": 90}, {"time": 52572, "pitch": 50, "duration": 221, "velocity": 80}, {"time": 52572, "pitch": 57, "duration": 221, "velocity": 70}, {"time": 52803, "pitch": 50, "duration": 10, "velocity": 100}, {"time": 52803, "pitch": 57, "duration": 10, "velocity": 80}, {"time": 52813, "pitch": 61, "duration": 9, "velocity": 90}, {"time": 52813, "pitch": 66, "duration": 9, "velocity": 100}, {"time": 53040, "pitch": 61, "duration": 217, "velocity": 80}, {"time": 53040, "pitch": 66, "duration": 217, "velocity": 90}, {"time": 53050, "pitch": 50, "duration": 217, "velocity": 80}, {"time": 53050, "pitch": 57, "duration": 217, "velocity": 70}, {"time": 53277, "pitch": 50, "duration": 221, "velocity": 100}, {"time": 53277, "pitch": 57, "duration": 221, "velocity": 80}, {"time": 53287, "pitch": 61, "duration": 221, "velocity": 90}, {"time": 53287, "pitch": 66, "duration": 221, "velocity": 100}, {"time": 53518, "pitch": 61, "duration": 220, "velocity": 80}, {"time": 53518, "pitch": 66, "duration": 220, "velocity": 90}, {"time": 53528, "pitch": 50, "duration": 220, "velocity": 80}, {"time": 53528, "pitch": 57, "duration": 220, "velocity": 70}, {"time": 53758, "pitch": 50, "duration": 11, "velocity": 100}, {"time": 53758, "pitch": 57, "duration": 11, "velocity": 80}, {"time": 53769, "pitch": 61, "duration": 10, "velocity": 90}, {"time": 53769, "pitch": 66, "duration": 10, "velocity": 100}, {"time": 53999, "pitch": 60, "duration": 472, "velocity": 90}, {"time": 53999, "pitch": 66, "duration": 472, "velocity": 100}, {"time": 54009, "pitch": 50, "duration": 452, "velocity": 90}, {"time": 54009, "pitch": 57, "duration": 452, "velocity": 80}, {"time": 54481, "pitch": 60, "duration": 221, "velocity": 80}, {"time": 54481, "pitch": 66, "duration": 221, "velocity": 90}, {"time": 54491, "pitch": 50, "duration": 221, "velocity": 80}, {"time": 54491, "pitch": 57, "duration": 221, "velocity": 70}, {"time": 54722, "pitch": 50, "duration": 10, "velocity": 100}, {"time": 54722, "pitch": 57, "duration": 10, "velocity": 80}, {"time": 54732, "pitch": 60, "duration": 10, "velocity": 90}, {"time": 54732, "pitch": 66, "duration": 10, "velocity": 100}, {"time": 54962, "pitch": 60, "duration": 221, "velocity": 80}, {"time": 54962, "pitch": 66, "duration": 221, "velocity": 90}, {"time": 54972, "pitch": 50, "duration": 221, "velocity": 80}, {"time": 54972, "pitch": 57, "duration": 221, "velocity": 70}, {"time": 55203, "pitch": 50, "duration": 218, "velocity": 100}, {"time": 55203, "pitch": 57, "duration": 218, "velocity": 80}, {"time": 55213, "pitch": 60, "duration": 217, "velocity": 90}, {"time": 55213, "pitch": 66, "duration": 217, "velocity": 100}, {"time": 55440, "pitch": 60, "duration": 218, "velocity": 80}, {"time": 55440, "pitch": 66, "duration": 218, "velocity": 90}, {"time": 55450, "pitch": 50, "duration": 218, "velocity": 80}, {"time": 55450, "pitch": 57, "duration": 218, "velocity": 70}, {"time": 55678, "pitch": 50, "duration": 9, "velocity": 100}, {"time": 55678, "pitch": 57, "duration": 9, "velocity": 80}, {"time": 55687, "pitch": 60, "duration": 11, "velocity": 90}, {"time": 55687, "pitch": 66, "duration": 11, "velocity": 100}, {"time": 55918, "pitch": 60, "duration": 221, "velocity": 90}, {"time": 55918, "pitch": 66, "duration": 221, "velocity": 90}, {"time": 55928, "pitch": 50, "duration": 221, "velocity": 80}, {"time": 55928, "pitch": 57, "duration": 221, "velocity": 70}, {"time": 56159, "pitch": 50, "duration": 221, "velocity": 100}, {"time": 56159, "pitch": 55, "duration": 221, "velocity": 80}, {"time": 56169, "pitch": 59, "duration": 221, "velocity": 90}, {"time": 56169, "pitch": 67, "duration": 221, "velocity": 100}, {"time": 56400, "pitch": 59, "duration": 221, "velocity": 80}, {"time": 56400, "pitch": 67, "duration": 221, "velocity": 90}, {"time": 56410, "pitch": 50, "duration": 221, "velocity": 80}, {"time": 56410, "pitch": 55, "duration": 221, "velocity": 70}, {"time": 56641, "pitch": 50, "duration": 10, "velocity": 100}, {"time": 56641, "pitch": 55, "duration": 10, "velocity": 80}, {"time": 56651, "pitch": 59, "duration": 10, "velocity": 90}, {"time": 56651, "pitch": 67, "duration": 10, "velocity": 100}, {"time": 56881, "pitch": 59, "duration": 221, "velocity": 80}, {"time": 56881, "pitch": 67, "duration": 221, "velocity": 90}, {"time": 56891, "pitch": 50, "duration": 221, "velocity": 80}, {"time": 56891, "pitch": 55, "duration": 221, "velocity": 70}, {"time": 57122, "pitch": 50, "duration": 218, "velocity": 100}, {"time": 57122, "pitch": 55, "duration": 218, "velocity": 80}, {"time": 57132, "pitch": 59, "duration": 217, "velocity": 90}, {"time": 57132, "pitch": 67, "duration": 217, "velocity": 100}, {"time": 57359, "pitch": 59, "duration": 218, "velocity": 80}, {"time": 57359, "pitch": 67, "duration": 218, "velocity": 90}, {"time": 57369, "pitch": 50, "duration": 218, "velocity": 80}, {"time": 57369, "pitch": 55, "duration": 218, "velocity": 70}, {"time": 57597, "pitch": 50, "duration": 9, "velocity": 100}, {"time": 57597, "pitch": 55, "duration": 9, "velocity": 80}, {"time": 57606, "pitch": 59, "duration": 11, "velocity": 90}, {"time": 57606, "pitch": 67, "duration": 11, "velocity": 100}, {"time": 57837, "pitch": 59, "duration": 221, "velocity": 90}, {"time": 57837, "pitch": 67, "duration": 221, "velocity": 90}, {"time": 57847, "pitch": 50, "duration": 221, "velocity": 80}, {"time": 57847, "pitch": 55, "duration": 221, "velocity": 70}, {"time": 58078, "pitch": 50, "duration": 221, "velocity": 100}, {"time": 58078, "pitch": 57, "duration": 221, "velocity": 80}, {"time": 58088, "pitch": 62, "duration": 221, "velocity": 90}, {"time": 58088, "pitch": 66, "duration": 221, "velocity": 100}, {"time": 58319, "pitch": 62, "duration": 221, "velocity": 80}, {"time": 58319, "pitch": 66, "duration": 221, "velocity": 90}, {"time": 58329, "pitch": 50, "duration": 221, "velocity": 80}, {"time": 58329, "pitch": 57, "duration": 221, "velocity": 70}, {"time": 58560, "pitch": 50, "duration": 10, "velocity": 100}, {"time": 58560, "pitch": 57, "duration": 10, "velocity": 80}, {"time": 58570, "pitch": 62, "duration": 10, "velocity": 90}, {"time": 58570, "pitch": 66, "duration": 10, "velocity": 100}, {"time": 58800, "pitch": 62, "duration": 221, "velocity": 80}, {"time": 58800, "pitch": 66, "duration": 221, "velocity": 90}, {"time": 58810, "pitch": 50, "duration": 221, "velocity": 80}, {"time": 58810, "pitch": 57, "duration": 221, "velocity": 70}, {"time": 59041, "pitch": 50, "duration": 221, "velocity": 100}, {"time": 59041, "pitch": 57, "duration": 221, "velocity": 80}, {"time": 59051, "pitch": 62, "duration": 221, "velocity": 90}, {"time": 59051, "pitch": 66, "duration": 221, "velocity": 100}, {"time": 59282, "pitch": 62, "duration": 221, "velocity": 80}, {"time": 59282, "pitch": 66, "duration": 221, "velocity": 90}, {"time": 59292, "pitch": 50, "duration": 221, "velocity": 80}, {"time": 59292, "pitch": 57, "duration": 221, "velocity": 70}, {"time": 59523, "pitch": 50, "duration": 10, "velocity": 100}, {"time": 59523, "pitch": 57, "duration": 10, "velocity": 80}, {"time": 59533, "pitch": 62, "duration": 10, "velocity": 90}, {"time": 59533, "pitch": 66, "duration": 10, "velocity": 100}, {"time": 59760, "pitch": 62, "duration": 217, "velocity": 90}, {"time": 59760, "pitch": 66, "duration": 217, "velocity": 100}, {"time": 59770, "pitch": 50, "duration": 217, "velocity": 90}, {"time": 59770, "pitch": 57, "duration": 217, "velocity": 80}, {"time": 59997, "pitch": 50, "duration": 221, "velocity": 100}, {"time": 59997, "pitch": 55, "duration": 221, "velocity": 80}, {"time": 60007, "pitch": 59, "duration": 221, "velocity": 90}, {"time": 60007, "pitch": 67, "duration": 221, "velocity": 100}, {"time": 60238, "pitch": 59, "duration": 221, "velocity": 80}, {"time": 60238, "pitch": 67, "duration": 221, "velocity": 90}, {"time": 60248, "pitch": 50, "duration": 221, "velocity": 80}, {"time": 60248, "pitch": 55, "duration": 221, "velocity": 70}, {"time": 60479, "pitch": 50, "duration": 10, "velocity": 100}, {"time": 60479, "pitch": 55, "duration": 10, "velocity": 80}, {"time": 60489, "pitch": 59, "duration": 10, "velocity": 90}, {"time": 60489, "pitch": 67, "duration": 10, "velocity": 100}, {"time": 60719, "pitch": 59, "duration": 221, "velocity": 80}, {"time": 60719, "pitch": 67, "duration": 221, "velocity": 90}, {"time": 60729, "pitch": 50, "duration": 221, "velocity": 80}, {"time": 60729, "pitch": 55, "duration": 221, "velocity": 70}, {"time": 60960, "pitch": 50, "duration": 221, "velocity": 100}, {"time": 60960, "pitch": 55, "duration": 221, "velocity": 80}, {"time": 60970, "pitch": 59, "duration": 221, "velocity": 90}, {"time": 60970, "pitch": 67, "duration": 221, "velocity": 100}, {"time": 61201, "pitch": 59, "duration": 221, "velocity": 80}, {"time": 61201, "pitch": 67, "duration": 221, "velocity": 90}, {"time": 61211, "pitch": 50, "duration": 221, "velocity": 80}, {"time": 61211, "pitch": 55, "duration": 221, "velocity": 70}, {"time": 61442, "pitch": 50, "duration": 10, "velocity": 100}, {"time": 61442, "pitch": 55, "duration": 10, "velocity": 80}, {"time": 61452, "pitch": 59, "duration": 10, "velocity": 90}, {"time": 61452, "pitch": 67, "duration": 10, "velocity": 100}, {"time": 61683, "pitch": 59, "duration": 220, "velocity": 90}, {"time": 61683, "pitch": 67, "duration": 220, "velocity": 90}, {"time": 61693, "pitch": 50, "duration": 220, "velocity": 80}, {"time": 61693, "pitch": 55, "duration": 220, "velocity": 70}, {"time": 61923, "pitch": 50, "duration": 218, "velocity": 100}, {"time": 61923, "pitch": 55, "duration": 218, "velocity": 80}, {"time": 61933, "pitch": 59, "duration": 218, "velocity": 90}, {"time": 61933, "pitch": 64, "duration": 218, "velocity": 100}, {"time": 62160, "pitch": 59, "duration": 218, "velocity": 80}, {"time": 62160, "pitch": 64, "duration": 218, "velocity": 90}, {"time": 62170, "pitch": 50, "duration": 218, "velocity": 80}, {"time": 62170, "pitch": 55, "duration": 218, "velocity": 70}, {"time": 62398, "pitch": 50, "duration": 10, "velocity": 100}, {"time": 62398, "pitch": 55, "duration": 10, "velocity": 80}, {"time": 62408, "pitch": 59, "duration": 10, "velocity": 90}, {"time": 62408, "pitch": 64, "duration": 10, "velocity": 100}, {"time": 62638, "pitch": 59, "duration": 221, "velocity": 80}, {"time": 62638, "pitch": 64, "duration": 221, "velocity": 90}, {"time": 62648, "pitch": 50, "duration": 221, "velocity": 80}, {"time": 62648, "pitch": 55, "duration": 221, "velocity": 70}, {"time": 62879, "pitch": 50, "duration": 10, "velocity": 100}, {"time": 62879, "pitch": 55, "duration": 10, "velocity": 80}, {"time": 62889, "pitch": 59, "duration": 10, "velocity": 90}, {"time": 62889, "pitch": 64, "duration": 10, "velocity": 100}, {"time": 63120, "pitch": 61, "duration": 682, "velocity": 90}, {"time": 63120, "pitch": 64, "duration": 682, "velocity": 100}, {"time": 63130, "pitch": 52, "duration": 682, "velocity": 90}, {"time": 63130, "pitch": 57, "duration": 682, "velocity": 80}, {"time": 63842, "pitch": 50, "duration": 218, "velocity": 100}, {"time": 63842, "pitch": 57, "duration": 218, "velocity": 80}, {"time": 63852, "pitch": 62, "duration": 218, "velocity": 90}, {"time": 63852, "pitch": 66, "duration": 218, "velocity": 100}, {"time": 64079, "pitch": 62, "duration": 218, "velocity": 80}, {"time": 64079, "pitch": 66, "duration": 218, "velocity": 90}, {"time": 64089, "pitch": 50, "duration": 218, "velocity": 80}, {"time": 64089, "pitch": 57, "duration": 218, "velocity": 70}, {"time": 64317, "pitch": 50, "duration": 10, "velocity": 100}, {"time": 64317, "pitch": 57, "duration": 10, "velocity": 80}, {"time": 64327, "pitch": 62, "duration": 10, "velocity": 90}, {"time": 64327, "pitch": 66, "duration": 10, "velocity": 100}, {"time": 64557, "pitch": 62, "duration": 221, "velocity": 80}, {"time": 64557, "pitch": 66, "duration": 221, "velocity": 90}, {"time": 64567, "pitch": 50, "duration": 221, "velocity": 80}, {"time": 64567, "pitch": 57, "duration": 221, "velocity": 70}, {"time": 64798, "pitch": 50, "duration": 221, "velocity": 100}, {"time": 64798, "pitch": 57, "duration": 221, "velocity": 80}, {"time": 64808, "pitch": 62, "duration": 221, "velocity": 90}, {"time": 64808, "pitch": 66, "duration": 221, "velocity": 100}, {"time": 65039, "pitch": 62, "duration": 221, "velocity": 80}, {"time": 65039, "pitch": 66, "duration": 221, "velocity": 90}, {"time": 65049, "pitch": 50, "duration": 221, "velocity": 80}, {"time": 65049, "pitch": 57, "duration": 221, "velocity": 70}, {"time": 65280, "pitch": 50, "duration": 10, "velocity": 100}, {"time": 65280, "pitch": 57, "duration": 10, "velocity": 80}, {"time": 65290, "pitch": 62, "duration": 10, "velocity": 90}, {"time": 65290, "pitch": 66, "duration": 10, "velocity": 100}, {"time": 65521, "pitch": 61, "duration": 471, "velocity": 90}, {"time": 65521, "pitch": 66, "duration": 471, "velocity": 100}, {"time": 65531, "pitch": 50, "duration": 451, "velocity": 90}, {"time": 65531, "pitch": 57, "duration": 451, "velocity": 80}, {"time": 66002, "pitch": 61, "duration": 221, "velocity": 80}, {"time": 66002, "pitch": 66, "duration": 221, "velocity": 90}, {"time": 66012, "pitch": 50, "duration": 221, "velocity": 80}, {"time": 66012, "pitch": 57, "duration": 221, "velocity": 70}, {"time": 66243, "pitch": 50, "duration": 10, "velocity": 100}, {"time": 66243, "pitch": 57, "duration": 10, "velocity": 80}, {"time": 66253, "pitch": 61, "duration": 10, "velocity": 90}, {"time": 66253, "pitch": 66, "duration": 10, "velocity": 100}, {"time": 66480, "pitch": 61, "duration": 217, "velocity": 80}, {"time": 66480, "pitch": 66, "duration": 217, "velocity": 90}, {"time": 66490, "pitch": 50, "duration": 217, "velocity": 80}, {"time": 66490, "pitch": 57, "duration": 217, "velocity": 70}, {"time": 66717, "pitch": 50, "duration": 221, "velocity": 100}, {"time": 66717, "pitch": 57, "duration": 221, "velocity": 80}, {"time": 66727, "pitch": 61, "duration": 221, "velocity": 90}, {"time": 66727, "pitch": 66, "duration": 221, "velocity": 100}, {"time": 66958, "pitch": 61, "duration": 221, "velocity": 80}, {"time": 66958, "pitch": 66, "duration": 221, "velocity": 90}, {"time": 66968, "pitch": 50, "duration": 221, "velocity": 80}, {"time": 66968, "pitch": 57, "duration": 221, "velocity": 70}, {"time": 67199, "pitch": 50, "duration": 10, "velocity": 100}, {"time": 67199, "pitch": 57, "duration": 10, "velocity": 80}, {"time": 67209, "pitch": 61, "duration": 10, "velocity": 90}, {"time": 67209, "pitch": 66, "duration": 10, "velocity": 100}, {"time": 67440, "pitch": 61, "duration": 220, "velocity": 90}, {"time": 67440, "pitch": 66, "duration": 220, "velocity": 90}, {"time": 67450, "pitch": 50, "duration": 220, "velocity": 80}, {"time": 67450, "pitch": 57, "duration": 220, "velocity": 70}, {"time": 67680, "pitch": 50, "duration": 221, "velocity": 100}, {"time": 67680, "pitch": 57, "duration": 221, "velocity": 80}, {"time": 67690, "pitch": 61, "duration": 221, "velocity": 90}, {"time": 67690, "pitch": 66, "duration": 221, "velocity": 100}, {"time": 67921, "pitch": 61, "duration": 221, "velocity": 80}, {"time": 67921, "pitch": 66, "duration": 221, "velocity": 90}, {"time": 67931, "pitch": 50, "duration": 221, "velocity": 80}, {"time": 67931, "pitch": 57, "duration": 221, "velocity": 70}, {"time": 68162, "pitch": 50, "duration": 10, "velocity": 100}, {"time": 68162, "pitch": 57, "duration": 10, "velocity": 80}, {"time": 68172, "pitch": 61, "duration": 10, "velocity": 90}, {"time": 68172, "pitch": 66, "duration": 10, "velocity": 100}, {"time": 68403, "pitch": 61, "duration": 220, "velocity": 80}, {"time": 68403, "pitch": 66, "duration": 220, "velocity": 90}, {"time": 68413, "pitch": 50, "duration": 220, "velocity": 80}, {"time": 68413, "pitch": 57, "duration": 220, "velocity": 70}, {"time": 68643, "pitch": 50, "duration": 218, "velocity": 100}, {"time": 68643, "pitch": 57, "duration": 218, "velocity": 80}, {"time": 68653, "pitch": 61, "duration": 218, "velocity": 90}, {"time": 68653, "pitch": 66, "duration": 218, "velocity": 100}, {"time": 68881, "pitch": 61, "duration": 217, "velocity": 80}, {"time": 68881, "pitch": 66, "duration": 217, "velocity": 90}, {"time": 68891, "pitch": 50, "duration": 217, "velocity": 80}, {"time": 68891, "pitch": 57, "duration": 217, "velocity": 70}, {"time": 69118, "pitch": 50, "duration": 10, "velocity": 100}, {"time": 69118, "pitch": 57, "duration": 10, "velocity": 80}, {"time": 69128, "pitch": 61, "duration": 10, "velocity": 90}, {"time": 69128, "pitch": 66, "duration": 10, "velocity": 100}, {"time": 69359, "pitch": 60, "duration": 471, "velocity": 90}, {"time": 69359, "pitch": 66, "duration": 471, "velocity": 100}, {"time": 69369, "pitch": 50, "duration": 451, "velocity": 90}, {"time": 69369, "pitch": 57, "duration": 451, "velocity": 80}, {"time": 69840, "pitch": 60, "duration": 221, "velocity": 80}, {"time": 69840, "pitch": 66, "duration": 221, "velocity": 90}, {"time": 69850, "pitch": 50, "duration": 221, "velocity": 80}, {"time": 69850, "pitch": 57, "duration": 221, "velocity": 70}, {"time": 70081, "pitch": 50, "duration": 10, "velocity": 100}, {"time": 70081, "pitch": 57, "duration": 10, "velocity": 80}, {"time": 70091, "pitch": 60, "duration": 10, "velocity": 90}, {"time": 70091, "pitch": 66, "duration": 10, "velocity": 100}, {"time": 70322, "pitch": 60, "duration": 220, "velocity": 80}, {"time": 70322, "pitch": 66, "duration": 220, "velocity": 90}, {"time": 70332, "pitch": 50, "duration": 220, "velocity": 80}, {"time": 70332, "pitch": 57, "duration": 220, "velocity": 70}, {"time": 70562, "pitch": 50, "duration": 218, "velocity": 100}, {"time": 70562, "pitch": 57, "duration": 218, "velocity": 80}, {"time": 70572, "pitch": 60, "duration": 218, "velocity": 90}, {"time": 70572, "pitch": 66, "duration": 218, "velocity": 100}, {"time": 70800, "pitch": 60, "duration": 217, "velocity": 80}, {"time": 70800, "pitch": 66, "duration": 217, "velocity": 90}, {"time": 70810, "pitch": 50, "duration": 217, "velocity": 80}, {"time": 70810, "pitch": 57, "duration": 217, "velocity": 70}, {"time": 71037, "pitch": 50, "duration": 10, "velocity": 100}, {"time": 71037, "pitch": 57, "duration": 10, "velocity": 80}, {"time": 71047, "pitch": 60, "duration": 10, "velocity": 90}, {"time": 71047, "pitch": 66, "duration": 10, "velocity": 100}, {"time": 71278, "pitch": 60, "duration": 220, "velocity": 90}, {"time": 71278, "pitch": 66, "duration": 220, "velocity": 90}, {"time": 71288, "pitch": 50, "duration": 220, "velocity": 80}, {"time": 71288, "pitch": 57, "duration": 220, "velocity": 70}, {"time": 71518, "pitch": 50, "duration": 221, "velocity": 100}, {"time": 71518, "pitch": 55, "duration": 221, "velocity": 80}, {"time": 71528, "pitch": 59, "duration": 221, "velocity": 90}, {"time": 71528, "pitch": 67, "duration": 221, "velocity": 100}, {"time": 71759, "pitch": 59, "duration": 221, "velocity": 80}, {"time": 71759, "pitch": 67, "duration": 221, "velocity": 90}, {"time": 71769, "pitch": 50, "duration": 221, "velocity": 80}, {"time": 71769, "pitch": 55, "duration": 221, "velocity": 70}, {"time": 72000, "pitch": 50, "duration": 10, "velocity": 100}, {"time": 72000, "pitch": 55, "duration": 10, "velocity": 80}, {"time": 72010, "pitch": 59, "duration": 10, "velocity": 90}, {"time": 72010, "pitch": 67, "duration": 10, "velocity": 100}, {"time": 72241, "pitch": 59, "duration": 220, "velocity": 80}, {"time": 72241, "pitch": 67, "duration": 220, "velocity": 90}, {"time": 72251, "pitch": 50, "duration": 220, "velocity": 80}, {"time": 72251, "pitch": 55, "duration": 220, "velocity": 70}, {"time": 72481, "pitch": 50, "duration": 221, "velocity": 100}, {"time": 72481, "pitch": 55, "duration": 221, "velocity": 80}, {"time": 72492, "pitch": 59, "duration": 220, "velocity": 90}, {"time": 72492, "pitch": 67, "duration": 220, "velocity": 100}, {"time": 72722, "pitch": 59, "duration": 221, "velocity": 80}, {"time": 72722, "pitch": 67, "duration": 221, "velocity": 90}, {"time": 72732, "pitch": 50, "duration": 221, "velocity": 80}, {"time": 72732, "pitch": 55, "duration": 221, "velocity": 70}, {"time": 72963, "pitch": 50, "duration": 10, "velocity": 100}, {"time": 72963, "pitch": 55, "duration": 10, "velocity": 80}, {"time": 72973, "pitch": 59, "duration": 10, "velocity": 90}, {"time": 72973, "pitch": 67, "duration": 10, "velocity": 100}, {"time": 73200, "pitch": 59, "duration": 218, "velocity": 90}, {"time": 73200, "pitch": 67, "duration": 218, "velocity": 90}, {"time": 73210, "pitch": 50, "duration": 217, "velocity": 80}, {"time": 73210, "pitch": 55, "duration": 217, "velocity": 70}, {"time": 73437, "pitch": 50, "duration": 221, "velocity": 100}, {"time": 73437, "pitch": 57, "duration": 221, "velocity": 80}, {"time": 73447, "pitch": 62, "duration": 221, "velocity": 90}, {"time": 73447, "pitch": 66, "duration": 221, "velocity": 100}, {"time": 73678, "pitch": 62, "duration": 221, "velocity": 80}, {"time": 73678, "pitch": 66, "duration": 221, "velocity": 90}, {"time": 73688, "pitch": 50, "duration": 221, "velocity": 80}, {"time": 73688, "pitch": 57, "duration": 221, "velocity": 70}, {"time": 73919, "pitch": 50, "duration": 10, "velocity": 100}, {"time": 73919, "pitch": 57, "duration": 10, "velocity": 80}, {"time": 73929, "pitch": 62, "duration": 10, "velocity": 90}, {"time": 73929, "pitch": 66, "duration": 10, "velocity": 100}, {"time": 74160, "pitch": 62, "duration": 220, "velocity": 80}, {"time": 74160, "pitch": 66, "duration": 220, "velocity": 90}, {"time": 74170, "pitch": 50, "duration": 220, "velocity": 80}, {"time": 74170, "pitch": 57, "duration": 220, "velocity": 70}, {"time": 74400, "pitch": 50, "duration": 221, "velocity": 100}, {"time": 74400, "pitch": 57, "duration": 221, "velocity": 80}, {"time": 74411, "pitch": 62, "duration": 220, "velocity": 90}, {"time": 74411, "pitch": 66, "duration": 220, "velocity": 100}, {"time": 74641, "pitch": 62, "duration": 221, "velocity": 80}, {"time": 74641, "pitch": 66, "duration": 221, "velocity": 90}, {"time": 74651, "pitch": 50, "duration": 221, "velocity": 80}, {"time": 74651, "pitch": 57, "duration": 221, "velocity": 70}, {"time": 74882, "pitch": 50, "duration": 10, "velocity": 100}, {"time": 74882, "pitch": 57, "duration": 10, "velocity": 80}, {"time": 74892, "pitch": 62, "duration": 10, "velocity": 90}, {"time": 74892, "pitch": 66, "duration": 10, "velocity": 100}, {"time": 75123, "pitch": 62, "duration": 221, "velocity": 90}, {"time": 75123, "pitch": 66, "duration": 221, "velocity": 100}, {"time": 75133, "pitch": 50, "duration": 221, "velocity": 90}, {"time": 75133, "pitch": 57, "duration": 221, "velocity": 80}, {"time": 75364, "pitch": 50, "duration": 217, "velocity": 100}, {"time": 75364, "pitch": 55, "duration": 217, "velocity": 80}, {"time": 75373, "pitch": 59, "duration": 218, "velocity": 90}, {"time": 75373, "pitch": 67, "duration": 218, "velocity": 100}, {"time": 75601, "pitch": 59, "duration": 217, "velocity": 80}, {"time": 75601, "pitch": 67, "duration": 217, "velocity": 90}, {"time": 75611, "pitch": 50, "duration": 217, "velocity": 80}, {"time": 75611, "pitch": 55, "duration": 217, "velocity": 70}, {"time": 75838, "pitch": 50, "duration": 10, "velocity": 100}, {"time": 75838, "pitch": 55, "duration": 10, "velocity": 80}, {"time": 75848, "pitch": 59, "duration": 10, "velocity": 90}, {"time": 75848, "pitch": 67, "duration": 10, "velocity": 100}, {"time": 76079, "pitch": 59, "duration": 220, "velocity": 80}, {"time": 76079, "pitch": 67, "duration": 220, "velocity": 90}, {"time": 76089, "pitch": 50, "duration": 220, "velocity": 80}, {"time": 76089, "pitch": 55, "duration": 220, "velocity": 70}, {"time": 76319, "pitch": 50, "duration": 221, "velocity": 100}, {"time": 76319, "pitch": 55, "duration": 221, "velocity": 80}, {"time": 76329, "pitch": 59, "duration": 221, "velocity": 90}, {"time": 76329, "pitch": 67, "duration": 221, "velocity": 100}, {"time": 76560, "pitch": 59, "duration": 221, "velocity": 80}, {"time": 76560, "pitch": 67, "duration": 221, "velocity": 90}, {"time": 76570, "pitch": 50, "duration": 221, "velocity": 80}, {"time": 76570, "pitch": 55, "duration": 221, "velocity": 70}, {"time": 76801, "pitch": 50, "duration": 10, "velocity": 100}, {"time": 76801, "pitch": 55, "duration": 10, "velocity": 80}, {"time": 76811, "pitch": 59, "duration": 10, "velocity": 90}, {"time": 76811, "pitch": 67, "duration": 10, "velocity": 100}, {"time": 77042, "pitch": 59, "duration": 221, "velocity": 90}, {"time": 77042, "pitch": 67, "duration": 221, "velocity": 90}, {"time": 77052, "pitch": 50, "duration": 221, "velocity": 80}, {"time": 77052, "pitch": 55, "duration": 221, "velocity": 70}, {"time": 77283, "pitch": 55, "duration": 217, "velocity": 100}, {"time": 77283, "pitch": 58, "duration": 217, "velocity": 80}, {"time": 77292, "pitch": 62, "duration": 218, "velocity": 90}, {"time": 77292, "pitch": 67, "duration": 218, "velocity": 100}, {"time": 77520, "pitch": 62, "duration": 217, "velocity": 80}, {"time": 77520, "pitch": 67, "duration": 217, "velocity": 90}, {"time": 77530, "pitch": 55, "duration": 217, "velocity": 80}, {"time": 77530, "pitch": 58, "duration": 217, "velocity": 70}, {"time": 77757, "pitch": 55, "duration": 10, "velocity": 100}, {"time": 77757, "pitch": 58, "duration": 10, "velocity": 80}, {"time": 77767, "pitch": 62, "duration": 10, "velocity": 90}, {"time": 77767, "pitch": 67, "duration": 10, "velocity": 100}, {"time": 77998, "pitch": 62, "duration": 451, "velocity": 90}, {"time": 77998, "pitch": 67, "duration": 451, "velocity": 100}, {"time": 78008, "pitch": 54, "duration": 451, "velocity": 90}, {"time": 78008, "pitch": 58, "duration": 451, "velocity": 80}, {"time": 78479, "pitch": 55, "duration": 452, "velocity": 100}, {"time": 78479, "pitch": 58, "duration": 452, "velocity": 80}, {"time": 78489, "pitch": 62, "duration": 452, "velocity": 90}, {"time": 78489, "pitch": 67, "duration": 452, "velocity": 100}, {"time": 78961, "pitch": 63, "duration": 4059, "velocity": 100}, {"time": 78961, "pitch": 67, "duration": 4059, "velocity": 100}, {"time": 78971, "pitch": 44, "duration": 4049, "velocity": 100}, {"time": 78971, "pitch": 58, "duration": 4049, "velocity": 80}, {"time": 131036, "pitch": 50, "duration": 221, "velocity": 100}, {"time": 131036, "pitch": 57, "duration": 221, "velocity": 80}, {"time": 131046, "pitch": 62, "duration": 221, "velocity": 90}, {"time": 131046, "pitch": 66, "duration": 221, "velocity": 100}, {"time": 131277, "pitch": 62, "duration": 221, "velocity": 80}, {"time": 131277, "pitch": 66, "duration": 221, "velocity": 90}, {"time": 131287, "pitch": 50, "duration": 221, "velocity": 80}, {"time": 131287, "pitch": 57, "duration": 221, "velocity": 70}, {"time": 131518, "pitch": 50, "duration": 10, "velocity": 100}, {"time": 131518, "pitch": 57, "duration": 10, "velocity": 80}, {"time": 131528, "pitch": 62, "duration": 10, "velocity": 90}, {"time": 131528, "pitch": 66, "duration": 10, "velocity": 100}, {"time": 131759, "pitch": 62, "duration": 220, "velocity": 80}, {"time": 131759, "pitch": 66, "duration": 220, "velocity": 90}, {"time": 131769, "pitch": 50, "duration": 220, "velocity": 80}, {"time": 131769, "pitch": 57, "duration": 220, "velocity": 70}, {"time": 132000, "pitch": 50, "duration": 220, "velocity": 100}, {"time": 132000, "pitch": 57, "duration": 220, "velocity": 80}, {"time": 132010, "pitch": 62, "duration": 220, "velocity": 90}, {"time": 132010, "pitch": 66, "duration": 220, "velocity": 100}, {"time": 132240, "pitch": 62, "duration": 221, "velocity": 80}, {"time": 132240, "pitch": 66, "duration": 221, "velocity": 90}, {"time": 132250, "pitch": 50, "duration": 221, "velocity": 80}, {"time": 132250, "pitch": 57, "duration": 221, "velocity": 70}, {"time": 132481, "pitch": 50, "duration": 10, "velocity": 100}, {"time": 132481, "pitch": 57, "duration": 10, "velocity": 80}, {"time": 132491, "pitch": 62, "duration": 10, "velocity": 90}, {"time": 132491, "pitch": 66, "duration": 10, "velocity": 100}, {"time": 132722, "pitch": 61, "duration": 468, "velocity": 90}, {"time": 132722, "pitch": 66, "duration": 468, "velocity": 100}, {"time": 132732, "pitch": 50, "duration": 448, "velocity": 90}, {"time": 132732, "pitch": 57, "duration": 448, "velocity": 80}, {"time": 133200, "pitch": 61, "duration": 217, "velocity": 80}, {"time": 133200, "pitch": 66, "duration": 217, "velocity": 90}, {"time": 133210, "pitch": 50, "duration": 217, "velocity": 80}, {"time": 133210, "pitch": 57, "duration": 217, "velocity": 70}, {"time": 133437, "pitch": 50, "duration": 10, "velocity": 100}, {"time": 133437, "pitch": 57, "duration": 10, "velocity": 80}, {"time": 133447, "pitch": 61, "duration": 10, "velocity": 90}, {"time": 133447, "pitch": 66, "duration": 10, "velocity": 100}, {"time": 133678, "pitch": 61, "duration": 220, "velocity": 80}, {"time": 133678, "pitch": 66, "duration": 220, "velocity": 90}, {"time": 133688, "pitch": 50, "duration": 220, "velocity": 80}, {"time": 133688, "pitch": 57, "duration": 220, "velocity": 70}, {"time": 133919, "pitch": 50, "duration": 220, "velocity": 100}, {"time": 133919, "pitch": 57, "duration": 220, "velocity": 80}, {"time": 133929, "pitch": 61, "duration": 220, "velocity": 90}, {"time": 133929, "pitch": 66, "duration": 220, "velocity": 100}, {"time": 134159, "pitch": 61, "duration": 221, "velocity": 80}, {"time": 134159, "pitch": 66, "duration": 221, "velocity": 90}, {"time": 134169, "pitch": 50, "duration": 221, "velocity": 80}, {"time": 134169, "pitch": 57, "duration": 221, "velocity": 70}, {"time": 134400, "pitch": 50, "duration": 10, "velocity": 100}, {"time": 134400, "pitch": 57, "duration": 10, "velocity": 80}, {"time": 134410, "pitch": 61, "duration": 10, "velocity": 90}, {"time": 134410, "pitch": 66, "duration": 10, "velocity": 100}, {"time": 134641, "pitch": 61, "duration": 221, "velocity": 90}, {"time": 134641, "pitch": 66, "duration": 221, "velocity": 90}, {"time": 134651, "pitch": 50, "duration": 221, "velocity": 80}, {"time": 134651, "pitch": 57, "duration": 221, "velocity": 70}, {"time": 134882, "pitch": 50, "duration": 220, "velocity": 100}, {"time": 134882, "pitch": 57, "duration": 220, "velocity": 80}, {"time": 134892, "pitch": 61, "duration": 220, "velocity": 90}, {"time": 134892, "pitch": 66, "duration": 220, "velocity": 100}, {"time": 135122, "pitch": 61, "duration": 221, "velocity": 80}, {"time": 135122, "pitch": 66, "duration": 221, "velocity": 90}, {"time": 135133, "pitch": 50, "duration": 220, "velocity": 80}, {"time": 135133, "pitch": 57, "duration": 220, "velocity": 70}, {"time": 135363, "pitch": 50, "duration": 10, "velocity": 100}, {"time": 135363, "pitch": 57, "duration": 10, "velocity": 80}, {"time": 135373, "pitch": 61, "duration": 10, "velocity": 90}, {"time": 135373, "pitch": 66, "duration": 10, "velocity": 100}, {"time": 135600, "pitch": 61, "duration": 218, "velocity": 80}, {"time": 135600, "pitch": 66, "duration": 218, "velocity": 90}, {"time": 135610, "pitch": 50, "duration": 218, "velocity": 80}, {"time": 135610, "pitch": 57, "duration": 218, "velocity": 70}, {"time": 135838, "pitch": 50, "duration": 220, "velocity": 100}, {"time": 135838, "pitch": 57, "duration": 220, "velocity": 80}, {"time": 135848, "pitch": 61, "duration": 220, "velocity": 90}, {"time": 135848, "pitch": 66, "duration": 220, "velocity": 100}, {"time": 136078, "pitch": 61, "duration": 221, "velocity": 80}, {"time": 136078, "pitch": 66, "duration": 221, "velocity": 90}, {"time": 136088, "pitch": 50, "duration": 221, "velocity": 80}, {"time": 136088, "pitch": 57, "duration": 221, "velocity": 70}, {"time": 136319, "pitch": 50, "duration": 10, "velocity": 100}, {"time": 136319, "pitch": 57, "duration": 10, "velocity": 80}, {"time": 136329, "pitch": 61, "duration": 10, "velocity": 90}, {"time": 136329, "pitch": 66, "duration": 10, "velocity": 100}, {"time": 136560, "pitch": 60, "duration": 471, "velocity": 90}, {"time": 136560, "pitch": 66, "duration": 471, "velocity": 100}, {"time": 136570, "pitch": 50, "duration": 451, "velocity": 90}, {"time": 136570, "pitch": 57, "duration": 451, "velocity": 80}, {"time": 137041, "pitch": 60, "duration": 221, "velocity": 80}, {"time": 137041, "pitch": 66, "duration": 221, "velocity": 90}, {"time": 137052, "pitch": 50, "duration": 220, "velocity": 80}, {"time": 137052, "pitch": 57, "duration": 220, "velocity": 70}, {"time": 137282, "pitch": 50, "duration": 10, "velocity": 100}, {"time": 137282, "pitch": 57, "duration": 10, "velocity": 80}, {"time": 137292, "pitch": 60, "duration": 10, "velocity": 90}, {"time": 137292, "pitch": 66, "duration": 10, "velocity": 100}, {"time": 137519, "pitch": 60, "duration": 218, "velocity": 80}, {"time": 137519, "pitch": 66, "duration": 218, "velocity": 90}, {"time": 137529, "pitch": 50, "duration": 218, "velocity": 80}, {"time": 137529, "pitch": 57, "duration": 218, "velocity": 70}, {"time": 137757, "pitch": 50, "duration": 220, "velocity": 100}, {"time": 137757, "pitch": 57, "duration": 220, "velocity": 80}, {"time": 137767, "pitch": 60, "duration": 220, "velocity": 90}, {"time": 137767, "pitch": 66, "duration": 220, "velocity": 100}, {"time": 137997, "pitch": 60, "duration": 221, "velocity": 80}, {"time": 137997, "pitch": 66, "duration": 221, "velocity": 90}, {"time": 138007, "pitch": 50, "duration": 221, "velocity": 80}, {"time": 138007, "pitch": 57, "duration": 221, "velocity": 70}, {"time": 138238, "pitch": 50, "duration": 10, "velocity": 100}, {"time": 138238, "pitch": 57, "duration": 10, "velocity": 80}, {"time": 138248, "pitch": 60, "duration": 10, "velocity": 90}, {"time": 138248, "pitch": 66, "duration": 10, "velocity": 100}, {"time": 138479, "pitch": 60, "duration": 221, "velocity": 90}, {"time": 138479, "pitch": 66, "duration": 221, "velocity": 90}, {"time": 138489, "pitch": 50, "duration": 221, "velocity": 80}, {"time": 138489, "pitch": 57, "duration": 221, "velocity": 70}, {"time": 138720, "pitch": 50, "duration": 220, "velocity": 100}, {"time": 138720, "pitch": 55, "duration": 220, "velocity": 80}, {"time": 138730, "pitch": 59, "duration": 220, "velocity": 90}, {"time": 138730, "pitch": 67, "duration": 220, "velocity": 100}, {"time": 138960, "pitch": 59, "duration": 221, "velocity": 80}, {"time": 138960, "pitch": 67, "duration": 221, "velocity": 90}, {"time": 138970, "pitch": 50, "duration": 221, "velocity": 80}, {"time": 138970, "pitch": 55, "duration": 221, "velocity": 70}, {"time": 139201, "pitch": 50, "duration": 10, "velocity": 100}, {"time": 139201, "pitch": 55, "duration": 10, "velocity": 80}, {"time": 139211, "pitch": 59, "duration": 10, "velocity": 90}, {"time": 139211, "pitch": 67, "duration": 10, "velocity": 100}, {"time": 139442, "pitch": 59, "duration": 221, "velocity": 80}, {"time": 139442, "pitch": 67, "duration": 221, "velocity": 90}, {"time": 139452, "pitch": 50, "duration": 221, "velocity": 80}, {"time": 139452, "pitch": 55, "duration": 221, "velocity": 70}, {"time": 139683, "pitch": 50, "duration": 217, "velocity": 100}, {"time": 139683, "pitch": 55, "duration": 217, "velocity": 80}, {"time": 139693, "pitch": 59, "duration": 217, "velocity": 90}, {"time": 139693, "pitch": 67, "duration": 217, "velocity": 100}, {"time": 139920, "pitch": 59, "duration": 217, "velocity": 80}, {"time": 139920, "pitch": 67, "duration": 217, "velocity": 90}, {"time": 139930, "pitch": 50, "duration": 217, "velocity": 80}, {"time": 139930, "pitch": 55, "duration": 217, "velocity": 70}, {"time": 140157, "pitch": 50, "duration": 10, "velocity": 100}, {"time": 140157, "pitch": 55, "duration": 10, "velocity": 80}, {"time": 140167, "pitch": 59, "duration": 10, "velocity": 90}, {"time": 140167, "pitch": 67, "duration": 10, "velocity": 100}, {"time": 140398, "pitch": 59, "duration": 221, "velocity": 90}, {"time": 140398, "pitch": 67, "duration": 221, "velocity": 90}, {"time": 140408, "pitch": 50, "duration": 221, "velocity": 80}, {"time": 140408, "pitch": 55, "duration": 221, "velocity": 70}, {"time": 140639, "pitch": 50, "duration": 220, "velocity": 100}, {"time": 140639, "pitch": 57, "duration": 220, "velocity": 80}, {"time": 140649, "pitch": 62, "duration": 220, "velocity": 90}, {"time": 140649, "pitch": 66, "duration": 220, "velocity": 100}, {"time": 140879, "pitch": 62, "duration": 221, "velocity": 80}, {"time": 140879, "pitch": 66, "duration": 221, "velocity": 90}, {"time": 140889, "pitch": 50, "duration": 221, "velocity": 80}, {"time": 140889, "pitch": 57, "duration": 221, "velocity": 70}, {"time": 141120, "pitch": 50, "duration": 10, "velocity": 100}, {"time": 141120, "pitch": 57, "duration": 10, "velocity": 80}, {"time": 141130, "pitch": 62, "duration": 10, "velocity": 90}, {"time": 141130, "pitch": 66, "duration": 10, "velocity": 100}, {"time": 141361, "pitch": 62, "duration": 221, "velocity": 80}, {"time": 141361, "pitch": 66, "duration": 221, "velocity": 90}, {"time": 141371, "pitch": 50, "duration": 221, "velocity": 80}, {"time": 141371, "pitch": 57, "duration": 221, "velocity": 70}, {"time": 141602, "pitch": 50, "duration": 221, "velocity": 100}, {"time": 141602, "pitch": 57, "duration": 221, "velocity": 80}, {"time": 141612, "pitch": 62, "duration": 221, "velocity": 90}, {"time": 141612, "pitch": 66, "duration": 221, "velocity": 100}, {"time": 141843, "pitch": 62, "duration": 220, "velocity": 80}, {"time": 141843, "pitch": 66, "duration": 220, "velocity": 90}, {"time": 141853, "pitch": 50, "duration": 220, "velocity": 80}, {"time": 141853, "pitch": 57, "duration": 220, "velocity": 70}, {"time": 142083, "pitch": 50, "duration": 10, "velocity": 100}, {"time": 142083, "pitch": 57, "duration": 10, "velocity": 80}, {"time": 142093, "pitch": 62, "duration": 10, "velocity": 90}, {"time": 142093, "pitch": 66, "duration": 10, "velocity": 100}, {"time": 142321, "pitch": 62, "duration": 217, "velocity": 90}, {"time": 142321, "pitch": 66, "duration": 217, "velocity": 100}, {"time": 142330, "pitch": 50, "duration": 218, "velocity": 90}, {"time": 142330, "pitch": 57, "duration": 218, "velocity": 80}, {"time": 142558, "pitch": 50, "duration": 220, "velocity": 100}, {"time": 142558, "pitch": 55, "duration": 220, "velocity": 80}, {"time": 142568, "pitch": 59, "duration": 220, "velocity": 90}, {"time": 142568, "pitch": 67, "duration": 220, "velocity": 100}, {"time": 142798, "pitch": 59, "duration": 221, "velocity": 80}, {"time": 142798, "pitch": 67, "duration": 221, "velocity": 90}, {"time": 142808, "pitch": 50, "duration": 221, "velocity": 80}, {"time": 142808, "pitch": 55, "duration": 221, "velocity": 70}, {"time": 143039, "pitch": 50, "duration": 10, "velocity": 100}, {"time": 143039, "pitch": 55, "duration": 10, "velocity": 80}, {"time": 143049, "pitch": 59, "duration": 10, "velocity": 90}, {"time": 143049, "pitch": 67, "duration": 10, "velocity": 100}, {"time": 143280, "pitch": 59, "duration": 221, "velocity": 80}, {"time": 143280, "pitch": 67, "duration": 221, "velocity": 90}, {"time": 143290, "pitch": 50, "duration": 221, "velocity": 80}, {"time": 143290, "pitch": 55, "duration": 221, "velocity": 70}, {"time": 143521, "pitch": 50, "duration": 221, "velocity": 100}, {"time": 143521, "pitch": 55, "duration": 221, "velocity": 80}, {"time": 143531, "pitch": 59, "duration": 221, "velocity": 90}, {"time": 143531, "pitch": 67, "duration": 221, "velocity": 100}, {"time": 143762, "pitch": 59, "duration": 220, "velocity": 80}, {"time": 143762, "pitch": 67, "duration": 220, "velocity": 90}, {"time": 143772, "pitch": 50, "duration": 220, "velocity": 80}, {"time": 143772, "pitch": 55, "duration": 220, "velocity": 70}, {"time": 144002, "pitch": 50, "duration": 10, "velocity": 100}, {"time": 144002, "pitch": 55, "duration": 10, "velocity": 80}, {"time": 144012, "pitch": 59, "duration": 10, "velocity": 90}, {"time": 144012, "pitch": 67, "duration": 10, "velocity": 100}, {"time": 144240, "pitch": 59, "duration": 217, "velocity": 90}, {"time": 144240, "pitch": 67, "duration": 217, "velocity": 90}, {"time": 144249, "pitch": 50, "duration": 218, "velocity": 80}, {"time": 144249, "pitch": 55, "duration": 218, "velocity": 70}, {"time": 144477, "pitch": 50, "duration": 220, "velocity": 100}, {"time": 144477, "pitch": 55, "duration": 220, "velocity": 80}, {"time": 144487, "pitch": 59, "duration": 220, "velocity": 90}, {"time": 144487, "pitch": 64, "duration": 220, "velocity": 100}, {"time": 144717, "pitch": 59, "duration": 221, "velocity": 80}, {"time": 144717, "pitch": 64, "duration": 221, "velocity": 90}, {"time": 144727, "pitch": 50, "duration": 221, "velocity": 80}, {"time": 144727, "pitch": 55, "duration": 221, "velocity": 70}, {"time": 144958, "pitch": 50, "duration": 10, "velocity": 100}, {"time": 144958, "pitch": 55, "duration": 10, "velocity": 80}, {"time": 144968, "pitch": 59, "duration": 10, "velocity": 90}, {"time": 144968, "pitch": 64, "duration": 10, "velocity": 100}, {"time": 145199, "pitch": 59, "duration": 221, "velocity": 80}, {"time": 145199, "pitch": 64, "duration": 221, "velocity": 90}, {"time": 145209, "pitch": 50, "duration": 221, "velocity": 80}, {"time": 145209, "pitch": 55, "duration": 221, "velocity": 70}, {"time": 145440, "pitch": 50, "duration": 10, "velocity": 100}, {"time": 145440, "pitch": 55, "duration": 10, "velocity": 80}, {"time": 145450, "pitch": 59, "duration": 10, "velocity": 90}, {"time": 145450, "pitch": 64, "duration": 10, "velocity": 100}, {"time": 145681, "pitch": 61, "duration": 682, "velocity": 90}, {"time": 145681, "pitch": 64, "duration": 682, "velocity": 100}, {"time": 145691, "pitch": 52, "duration": 682, "velocity": 90}, {"time": 145691, "pitch": 57, "duration": 682, "velocity": 80}, {"time": 146403, "pitch": 50, "duration": 217, "velocity": 100}, {"time": 146403, "pitch": 57, "duration": 217, "velocity": 80}, {"time": 146413, "pitch": 62, "duration": 217, "velocity": 90}, {"time": 146413, "pitch": 66, "duration": 217, "velocity": 100}, {"time": 146640, "pitch": 62, "duration": 217, "velocity": 80}, {"time": 146640, "pitch": 66, "duration": 217, "velocity": 90}, {"time": 146650, "pitch": 50, "duration": 217, "velocity": 80}, {"time": 146650, "pitch": 57, "duration": 217, "velocity": 70}, {"time": 146877, "pitch": 50, "duration": 10, "velocity": 100}, {"time": 146877, "pitch": 57, "duration": 10, "velocity": 80}, {"time": 146887, "pitch": 62, "duration": 10, "velocity": 90}, {"time": 146887, "pitch": 66, "duration": 10, "velocity": 100}, {"time": 147118, "pitch": 62, "duration": 221, "velocity": 80}, {"time": 147118, "pitch": 66, "duration": 221, "velocity": 90}, {"time": 147128, "pitch": 50, "duration": 221, "velocity": 80}, {"time": 147128, "pitch": 57, "duration": 221, "velocity": 70}, {"time": 147359, "pitch": 50, "duration": 221, "velocity": 100}, {"time": 147359, "pitch": 57, "duration": 221, "velocity": 80}, {"time": 147369, "pitch": 62, "duration": 221, "velocity": 90}, {"time": 147369, "pitch": 66, "duration": 221, "velocity": 100}, {"time": 147600, "pitch": 62, "duration": 220, "velocity": 80}, {"time": 147600, "pitch": 66, "duration": 220, "velocity": 90}, {"time": 147610, "pitch": 50, "duration": 220, "velocity": 80}, {"time": 147610, "pitch": 57, "duration": 220, "velocity": 70}, {"time": 147840, "pitch": 50, "duration": 10, "velocity": 100}, {"time": 147840, "pitch": 57, "duration": 10, "velocity": 80}, {"time": 147850, "pitch": 62, "duration": 10, "velocity": 90}, {"time": 147850, "pitch": 66, "duration": 10, "velocity": 100}, {"time": 148081, "pitch": 61, "duration": 472, "velocity": 90}, {"time": 148081, "pitch": 66, "duration": 472, "velocity": 100}, {"time": 148091, "pitch": 50, "duration": 452, "velocity": 90}, {"time": 148091, "pitch": 57, "duration": 452, "velocity": 80}, {"time": 148563, "pitch": 61, "duration": 220, "velocity": 80}, {"time": 148563, "pitch": 66, "duration": 220, "velocity": 90}, {"time": 148573, "pitch": 50, "duration": 221, "velocity": 80}, {"time": 148573, "pitch": 57, "duration": 221, "velocity": 70}, {"time": 148804, "pitch": 50, "duration": 9, "velocity": 100}, {"time": 148804, "pitch": 57, "duration": 9, "velocity": 80}, {"time": 148813, "pitch": 61, "duration": 10, "velocity": 90}, {"time": 148813, "pitch": 66, "duration": 10, "velocity": 100}, {"time": 149041, "pitch": 61, "duration": 217, "velocity": 80}, {"time": 149041, "pitch": 66, "duration": 217, "velocity": 90}, {"time": 149051, "pitch": 50, "duration": 217, "velocity": 80}, {"time": 149051, "pitch": 57, "duration": 217, "velocity": 70}, {"time": 149278, "pitch": 50, "duration": 221, "velocity": 100}, {"time": 149278, "pitch": 57, "duration": 221, "velocity": 80}, {"time": 149288, "pitch": 61, "duration": 221, "velocity": 90}, {"time": 149288, "pitch": 66, "duration": 221, "velocity": 100}, {"time": 149519, "pitch": 61, "duration": 220, "velocity": 80}, {"time": 149519, "pitch": 66, "duration": 220, "velocity": 90}, {"time": 149529, "pitch": 50, "duration": 220, "velocity": 80}, {"time": 149529, "pitch": 57, "duration": 220, "velocity": 70}, {"time": 149759, "pitch": 50, "duration": 10, "velocity": 100}, {"time": 149759, "pitch": 57, "duration": 10, "velocity": 80}, {"time": 149769, "pitch": 61, "duration": 10, "velocity": 90}, {"time": 149769, "pitch": 66, "duration": 10, "velocity": 100}, {"time": 150000, "pitch": 61, "duration": 221, "velocity": 90}, {"time": 150000, "pitch": 66, "duration": 221, "velocity": 90}, {"time": 150010, "pitch": 50, "duration": 221, "velocity": 80}, {"time": 150010, "pitch": 57, "duration": 221, "velocity": 70}, {"time": 150241, "pitch": 50, "duration": 221, "velocity": 100}, {"time": 150241, "pitch": 57, "duration": 221, "velocity": 80}, {"time": 150251, "pitch": 61, "duration": 221, "velocity": 90}, {"time": 150251, "pitch": 66, "duration": 221, "velocity": 100}, {"time": 150482, "pitch": 61, "duration": 220, "velocity": 80}, {"time": 150482, "pitch": 66, "duration": 220, "velocity": 90}, {"time": 150492, "pitch": 50, "duration": 221, "velocity": 80}, {"time": 150492, "pitch": 57, "duration": 221, "velocity": 70}, {"time": 150723, "pitch": 50, "duration": 9, "velocity": 100}, {"time": 150723, "pitch": 57, "duration": 9, "velocity": 80}, {"time": 150732, "pitch": 61, "duration": 10, "velocity": 90}, {"time": 150732, "pitch": 66, "duration": 10, "velocity": 100}, {"time": 150960, "pitch": 61, "duration": 217, "velocity": 80}, {"time": 150960, "pitch": 66, "duration": 217, "velocity": 90}, {"time": 150970, "pitch": 50, "duration": 217, "velocity": 80}, {"time": 150970, "pitch": 57, "duration": 217, "velocity": 70}, {"time": 151197, "pitch": 50, "duration": 220, "velocity": 100}, {"time": 151197, "pitch": 57, "duration": 220, "velocity": 80}, {"time": 151207, "pitch": 61, "duration": 221, "velocity": 90}, {"time": 151207, "pitch": 66, "duration": 221, "velocity": 100}, {"time": 151438, "pitch": 61, "duration": 220, "velocity": 80}, {"time": 151438, "pitch": 66, "duration": 220, "velocity": 90}, {"time": 151448, "pitch": 50, "duration": 220, "velocity": 80}, {"time": 151448, "pitch": 57, "duration": 220, "velocity": 70}, {"time": 151678, "pitch": 50, "duration": 10, "velocity": 100}, {"time": 151678, "pitch": 57, "duration": 10, "velocity": 80}, {"time": 151688, "pitch": 61, "duration": 10, "velocity": 90}, {"time": 151688, "pitch": 66, "duration": 10, "velocity": 100}, {"time": 151919, "pitch": 60, "duration": 472, "velocity": 90}, {"time": 151919, "pitch": 66, "duration": 472, "velocity": 100}, {"time": 151929, "pitch": 50, "duration": 452, "velocity": 90}, {"time": 151929, "pitch": 57, "duration": 452, "velocity": 80}, {"time": 152401, "pitch": 60, "duration": 220, "velocity": 80}, {"time": 152401, "pitch": 66, "duration": 220, "velocity": 90}, {"time": 152411, "pitch": 50, "duration": 220, "velocity": 80}, {"time": 152411, "pitch": 57, "duration": 220, "velocity": 70}, {"time": 152642, "pitch": 50, "duration": 10, "velocity": 100}, {"time": 152642, "pitch": 57, "duration": 10, "velocity": 80}, {"time": 152652, "pitch": 60, "duration": 10, "velocity": 90}, {"time": 152652, "pitch": 66, "duration": 10, "velocity": 100}, {"time": 152882, "pitch": 60, "duration": 221, "velocity": 80}, {"time": 152882, "pitch": 66, "duration": 221, "velocity": 90}, {"time": 152892, "pitch": 50, "duration": 221, "velocity": 80}, {"time": 152892, "pitch": 57, "duration": 221, "velocity": 70}, {"time": 153123, "pitch": 50, "duration": 217, "velocity": 100}, {"time": 153123, "pitch": 57, "duration": 217, "velocity": 80}, {"time": 153133, "pitch": 60, "duration": 217, "velocity": 90}, {"time": 153133, "pitch": 66, "duration": 217, "velocity": 100}, {"time": 153360, "pitch": 60, "duration": 218, "velocity": 80}, {"time": 153360, "pitch": 66, "duration": 218, "velocity": 90}, {"time": 153370, "pitch": 50, "duration": 217, "velocity": 80}, {"time": 153370, "pitch": 57, "duration": 217, "velocity": 70}, {"time": 153597, "pitch": 50, "duration": 10, "velocity": 100}, {"time": 153597, "pitch": 57, "duration": 10, "velocity": 80}, {"time": 153607, "pitch": 60, "duration": 10, "velocity": 90}, {"time": 153607, "pitch": 66, "duration": 10, "velocity": 100}, {"time": 153838, "pitch": 60, "duration": 221, "velocity": 90}, {"time": 153838, "pitch": 66, "duration": 221, "velocity": 90}, {"time": 153848, "pitch": 50, "duration": 221, "velocity": 80}, {"time": 153848, "pitch": 57, "duration": 221, "velocity": 70}, {"time": 154079, "pitch": 50, "duration": 221, "velocity": 100}, {"time": 154079, "pitch": 55, "duration": 221, "velocity": 80}, {"time": 154089, "pitch": 59, "duration": 221, "velocity": 90}, {"time": 154089, "pitch": 67, "duration": 221, "velocity": 100}, {"time": 154320, "pitch": 59, "duration": 220, "velocity": 80}, {"time": 154320, "pitch": 67, "duration": 220, "velocity": 90}, {"time": 154330, "pitch": 50, "duration": 220, "velocity": 80}, {"time": 154330, "pitch": 55, "duration": 220, "velocity": 70}, {"time": 154561, "pitch": 50, "duration": 10, "velocity": 100}, {"time": 154561, "pitch": 55, "duration": 10, "velocity": 80}, {"time": 154571, "pitch": 59, "duration": 10, "velocity": 90}, {"time": 154571, "pitch": 67, "duration": 10, "velocity": 100}, {"time": 154801, "pitch": 59, "duration": 221, "velocity": 80}, {"time": 154801, "pitch": 67, "duration": 221, "velocity": 90}, {"time": 154811, "pitch": 50, "duration": 221, "velocity": 80}, {"time": 154811, "pitch": 55, "duration": 221, "velocity": 70}, {"time": 155042, "pitch": 50, "duration": 217, "velocity": 100}, {"time": 155042, "pitch": 55, "duration": 217, "velocity": 80}, {"time": 155052, "pitch": 59, "duration": 217, "velocity": 90}, {"time": 155052, "pitch": 67, "duration": 217, "velocity": 100}, {"time": 155279, "pitch": 59, "duration": 218, "velocity": 80}, {"time": 155279, "pitch": 67, "duration": 218, "velocity": 90}, {"time": 155289, "pitch": 50, "duration": 217, "velocity": 80}, {"time": 155289, "pitch": 55, "duration": 217, "velocity": 70}, {"time": 155516, "pitch": 50, "duration": 10, "velocity": 100}, {"time": 155516, "pitch": 55, "duration": 10, "velocity": 80}, {"time": 155526, "pitch": 59, "duration": 10, "velocity": 90}, {"time": 155526, "pitch": 67, "duration": 10, "velocity": 100}, {"time": 155757, "pitch": 59, "duration": 221, "velocity": 90}, {"time": 155757, "pitch": 67, "duration": 221, "velocity": 90}, {"time": 155767, "pitch": 50, "duration": 221, "velocity": 80}, {"time": 155767, "pitch": 55, "duration": 221, "velocity": 70}, {"time": 155998, "pitch": 50, "duration": 221, "velocity": 100}, {"time": 155998, "pitch": 57, "duration": 221, "velocity": 80}, {"time": 156008, "pitch": 62, "duration": 221, "velocity": 90}, {"time": 156008, "pitch": 66, "duration": 221, "velocity": 100}, {"time": 156239, "pitch": 62, "duration": 220, "velocity": 80}, {"time": 156239, "pitch": 66, "duration": 220, "velocity": 90}, {"time": 156249, "pitch": 50, "duration": 220, "velocity": 80}, {"time": 156249, "pitch": 57, "duration": 220, "velocity": 70}, {"time": 156480, "pitch": 50, "duration": 10, "velocity": 100}, {"time": 156480, "pitch": 57, "duration": 10, "velocity": 80}, {"time": 156490, "pitch": 62, "duration": 10, "velocity": 90}, {"time": 156490, "pitch": 66, "duration": 10, "velocity": 100}, {"time": 156720, "pitch": 62, "duration": 221, "velocity": 80}, {"time": 156720, "pitch": 66, "duration": 221, "velocity": 90}, {"time": 156730, "pitch": 50, "duration": 221, "velocity": 80}, {"time": 156730, "pitch": 57, "duration": 221, "velocity": 70}, {"time": 156961, "pitch": 50, "duration": 221, "velocity": 100}, {"time": 156961, "pitch": 57, "duration": 221, "velocity": 80}, {"time": 156971, "pitch": 62, "duration": 221, "velocity": 90}, {"time": 156971, "pitch": 66, "duration": 221, "velocity": 100}, {"time": 157202, "pitch": 62, "duration": 221, "velocity": 80}, {"time": 157202, "pitch": 66, "duration": 221, "velocity": 90}, {"time": 157212, "pitch": 50, "duration": 221, "velocity": 80}, {"time": 157212, "pitch": 57, "duration": 221, "velocity": 70}, {"time": 157443, "pitch": 50, "duration": 10, "velocity": 100}, {"time": 157443, "pitch": 57, "duration": 10, "velocity": 80}, {"time": 157453, "pitch": 62, "duration": 9, "velocity": 90}, {"time": 157453, "pitch": 66, "duration": 9, "velocity": 100}, {"time": 157680, "pitch": 62, "duration": 217, "velocity": 90}, {"time": 157680, "pitch": 66, "duration": 217, "velocity": 100}, {"time": 157690, "pitch": 50, "duration": 217, "velocity": 90}, {"time": 157690, "pitch": 57, "duration": 217, "velocity": 80}, {"time": 157917, "pitch": 50, "duration": 221, "velocity": 100}, {"time": 157917, "pitch": 55, "duration": 221, "velocity": 80}, {"time": 157927, "pitch": 59, "duration": 221, "velocity": 90}, {"time": 157927, "pitch": 67, "duration": 221, "velocity": 100}, {"time": 158158, "pitch": 59, "duration": 220, "velocity": 80}, {"time": 158158, "pitch": 67, "duration": 220, "velocity": 90}, {"time": 158168, "pitch": 50, "duration": 220, "velocity": 80}, {"time": 158168, "pitch": 55, "duration": 220, "velocity": 70}, {"time": 158398, "pitch": 50, "duration": 11, "velocity": 100}, {"time": 158398, "pitch": 55, "duration": 11, "velocity": 80}, {"time": 158409, "pitch": 59, "duration": 10, "velocity": 90}, {"time": 158409, "pitch": 67, "duration": 10, "velocity": 100}, {"time": 158639, "pitch": 59, "duration": 221, "velocity": 80}, {"time": 158639, "pitch": 67, "duration": 221, "velocity": 90}, {"time": 158649, "pitch": 50, "duration": 221, "velocity": 80}, {"time": 158649, "pitch": 55, "duration": 221, "velocity": 70}, {"time": 158880, "pitch": 50, "duration": 221, "velocity": 100}, {"time": 158880, "pitch": 55, "duration": 221, "velocity": 80}, {"time": 158890, "pitch": 59, "duration": 221, "velocity": 90}, {"time": 158890, "pitch": 67, "duration": 221, "velocity": 100}, {"time": 159121, "pitch": 59, "duration": 221, "velocity": 80}, {"time": 159121, "pitch": 67, "duration": 221, "velocity": 90}, {"time": 159131, "pitch": 50, "duration": 221, "velocity": 80}, {"time": 159131, "pitch": 55, "duration": 221, "velocity": 70}, {"time": 159362, "pitch": 50, "duration": 10, "velocity": 100}, {"time": 159362, "pitch": 55, "duration": 10, "velocity": 80}, {"time": 159372, "pitch": 59, "duration": 10, "velocity": 90}, {"time": 159372, "pitch": 67, "duration": 10, "velocity": 100}, {"time": 159602, "pitch": 59, "duration": 221, "velocity": 90}, {"time": 159602, "pitch": 67, "duration": 221, "velocity": 90}, {"time": 159612, "pitch": 50, "duration": 221, "velocity": 80}, {"time": 159612, "pitch": 55, "duration": 221, "velocity": 70}, {"time": 159843, "pitch": 55, "duration": 218, "velocity": 100}, {"time": 159843, "pitch": 58, "duration": 218, "velocity": 80}, {"time": 159853, "pitch": 62, "duration": 217, "velocity": 90}, {"time": 159853, "pitch": 67, "duration": 217, "velocity": 100}, {"time": 160080, "pitch": 62, "duration": 218, "velocity": 80}, {"time": 160080, "pitch": 67, "duration": 218, "velocity": 90}, {"time": 160090, "pitch": 55, "duration": 218, "velocity": 80}, {"time": 160090, "pitch": 58, "duration": 218, "velocity": 70}, {"time": 160318, "pitch": 55, "duration": 10, "velocity": 100}, {"time": 160318, "pitch": 58, "duration": 10, "velocity": 80}, {"time": 160328, "pitch": 62, "duration": 10, "velocity": 90}, {"time": 160328, "pitch": 67, "duration": 10, "velocity": 100}, {"time": 160558, "pitch": 62, "duration": 452, "velocity": 90}, {"time": 160558, "pitch": 67, "duration": 452, "velocity": 100}, {"time": 160568, "pitch": 54, "duration": 452, "velocity": 90}, {"time": 160568, "pitch": 58, "duration": 452, "velocity": 80}, {"time": 161040, "pitch": 55, "duration": 451, "velocity": 100}, {"time": 161040, "pitch": 58, "duration": 451, "velocity": 80}, {"time": 161050, "pitch": 62, "duration": 451, "velocity": 90}, {"time": 161050, "pitch": 67, "duration": 451, "velocity": 100}, {"time": 161521, "pitch": 59, "duration": 2140, "velocity": 100}, {"time": 161521, "pitch": 64, "duration": 2140, "velocity": 100}, {"time": 161531, "pitch": 50, "duration": 2130, "velocity": 100}, {"time": 161531, "pitch": 55, "duration": 2130, "velocity": 80}, {"time": 163681, "pitch": 45, "duration": 917, "velocity": 100}, {"time": 163681, "pitch": 52, "duration": 917, "velocity": 93}, {"time": 163691, "pitch": 57, "duration": 916, "velocity": 90}, {"time": 163691, "pitch": 61, "duration": 916, "velocity": 100}, {"time": 163691, "pitch": 66, "duration": 916, "velocity": 100}, {"time": 164637, "pitch": 45, "duration": 923, "velocity": 100}, {"time": 164637, "pitch": 50, "duration": 923, "velocity": 93}, {"time": 164647, "pitch": 55, "duration": 923, "velocity": 90}, {"time": 164647, "pitch": 59, "duration": 923, "velocity": 100}, {"time": 164647, "pitch": 64, "duration": 923, "velocity": 100}, {"time": 165600, "pitch": 50, "duration": 221, "velocity": 100}, {"time": 165600, "pitch": 57, "duration": 221, "velocity": 80}, {"time": 165610, "pitch": 62, "duration": 221, "velocity": 90}, {"time": 165610, "pitch": 66, "duration": 221, "velocity": 100}, {"time": 165841, "pitch": 62, "duration": 221, "velocity": 80}, {"time": 165841, "pitch": 66, "duration": 221, "velocity": 90}, {"time": 165851, "pitch": 50, "duration": 221, "velocity": 80}, {"time": 165851, "pitch": 57, "duration": 221, "velocity": 70}, {"time": 166082, "pitch": 50, "duration": 10, "velocity": 100}, {"time": 166082, "pitch": 57, "duration": 10, "velocity": 80}, {"time": 166092, "pitch": 62, "duration": 10, "velocity": 90}, {"time": 166092, "pitch": 66, "duration": 10, "velocity": 100}, {"time": 166323, "pitch": 62, "duration": 220, "velocity": 80}, {"time": 166323, "pitch": 66, "duration": 220, "velocity": 90}, {"time": 166333, "pitch": 50, "duration": 220, "velocity": 80}, {"time": 166333, "pitch": 57, "duration": 220, "velocity": 70}, {"time": 166563, "pitch": 50, "duration": 218, "velocity": 100}, {"time": 166563, "pitch": 57, "duration": 218, "velocity": 80}, {"time": 166573, "pitch": 62, "duration": 218, "velocity": 90}, {"time": 166573, "pitch": 66, "duration": 218, "velocity": 100}, {"time": 166800, "pitch": 62, "duration": 218, "velocity": 80}, {"time": 166800, "pitch": 66, "duration": 218, "velocity": 90}, {"time": 166810, "pitch": 50, "duration": 218, "velocity": 80}, {"time": 166810, "pitch": 57, "duration": 218, "velocity": 70}, {"time": 167038, "pitch": 50, "duration": 10, "velocity": 100}, {"time": 167038, "pitch": 57, "duration": 10, "velocity": 80}, {"time": 167048, "pitch": 62, "duration": 10, "velocity": 90}, {"time": 167048, "pitch": 66, "duration": 10, "velocity": 100}, {"time": 167278, "pitch": 61, "duration": 472, "velocity": 90}, {"time": 167278, "pitch": 66, "duration": 472, "velocity": 100}, {"time": 167288, "pitch": 50, "duration": 452, "velocity": 90}, {"time": 167288, "pitch": 57, "duration": 452, "velocity": 80}, {"time": 167760, "pitch": 61, "duration": 221, "velocity": 80}, {"time": 167760, "pitch": 66, "duration": 221, "velocity": 90}, {"time": 167770, "pitch": 50, "duration": 221, "velocity": 80}, {"time": 167770, "pitch": 57, "duration": 221, "velocity": 70}, {"time": 168001, "pitch": 50, "duration": 10, "velocity": 100}, {"time": 168001, "pitch": 57, "duration": 10, "velocity": 80}, {"time": 168011, "pitch": 61, "duration": 10, "velocity": 90}, {"time": 168011, "pitch": 66, "duration": 10, "velocity": 100}, {"time": 168242, "pitch": 61, "duration": 220, "velocity": 80}, {"time": 168242, "pitch": 66, "duration": 220, "velocity": 90}, {"time": 168252, "pitch": 50, "duration": 220, "velocity": 80}, {"time": 168252, "pitch": 57, "duration": 220, "velocity": 70}, {"time": 168482, "pitch": 50, "duration": 218, "velocity": 100}, {"time": 168482, "pitch": 57, "duration": 218, "velocity": 80}, {"time": 168492, "pitch": 61, "duration": 218, "velocity": 90}, {"time": 168492, "pitch": 66, "duration": 218, "velocity": 100}, {"time": 168719, "pitch": 61, "duration": 218, "velocity": 80}, {"time": 168719, "pitch": 66, "duration": 218, "velocity": 90}, {"time": 168729, "pitch": 50, "duration": 218, "velocity": 80}, {"time": 168729, "pitch": 57, "duration": 218, "velocity": 70}, {"time": 168957, "pitch": 50, "duration": 10, "velocity": 100}, {"time": 168957, "pitch": 57, "duration": 10, "velocity": 80}, {"time": 168967, "pitch": 61, "duration": 10, "velocity": 90}, {"time": 168967, "pitch": 66, "duration": 10, "velocity": 100}, {"time": 169197, "pitch": 61, "duration": 221, "velocity": 90}, {"time": 169197, "pitch": 66, "duration": 221, "velocity": 90}, {"time": 169207, "pitch": 50, "duration": 221, "velocity": 80}, {"time": 169207, "pitch": 57, "duration": 221, "velocity": 70}, {"time": 169438, "pitch": 50, "duration": 221, "velocity": 100}, {"time": 169438, "pitch": 57, "duration": 221, "velocity": 80}, {"time": 169448, "pitch": 61, "duration": 221, "velocity": 90}, {"time": 169448, "pitch": 66, "duration": 221, "velocity": 100}, {"time": 169679, "pitch": 61, "duration": 221, "velocity": 80}, {"time": 169679, "pitch": 66, "duration": 221, "velocity": 90}, {"time": 169689, "pitch": 50, "duration": 221, "velocity": 80}, {"time": 169689, "pitch": 57, "duration": 221, "velocity": 70}, {"time": 169920, "pitch": 50, "duration": 10, "velocity": 100}, {"time": 169920, "pitch": 57, "duration": 10, "velocity": 80}, {"time": 169930, "pitch": 61, "duration": 10, "velocity": 90}, {"time": 169930, "pitch": 66, "duration": 10, "velocity": 100}, {"time": 170161, "pitch": 61, "duration": 220, "velocity": 80}, {"time": 170161, "pitch": 66, "duration": 220, "velocity": 90}, {"time": 170171, "pitch": 50, "duration": 220, "velocity": 80}, {"time": 170171, "pitch": 57, "duration": 220, "velocity": 70}, {"time": 170401, "pitch": 50, "duration": 221, "velocity": 100}, {"time": 170401, "pitch": 57, "duration": 221, "velocity": 80}, {"time": 170411, "pitch": 61, "duration": 221, "velocity": 90}, {"time": 170411, "pitch": 66, "duration": 221, "velocity": 100}, {"time": 170642, "pitch": 61, "duration": 221, "velocity": 80}, {"time": 170642, "pitch": 66, "duration": 221, "velocity": 90}, {"time": 170652, "pitch": 50, "duration": 221, "velocity": 80}, {"time": 170652, "pitch": 57, "duration": 221, "velocity": 70}, {"time": 170883, "pitch": 50, "duration": 10, "velocity": 100}, {"time": 170883, "pitch": 57, "duration": 10, "velocity": 80}, {"time": 170893, "pitch": 61, "duration": 10, "velocity": 90}, {"time": 170893, "pitch": 66, "duration": 10, "velocity": 100}, {"time": 171120, "pitch": 60, "duration": 468, "velocity": 90}, {"time": 171120, "pitch": 66, "duration": 468, "velocity": 100}, {"time": 171130, "pitch": 50, "duration": 448, "velocity": 90}, {"time": 171130, "pitch": 57, "duration": 448, "velocity": 80}, {"time": 171598, "pitch": 60, "duration": 221, "velocity": 80}, {"time": 171598, "pitch": 66, "duration": 221, "velocity": 90}, {"time": 171608, "pitch": 50, "duration": 221, "velocity": 80}, {"time": 171608, "pitch": 57, "duration": 221, "velocity": 70}, {"time": 171839, "pitch": 50, "duration": 10, "velocity": 100}, {"time": 171839, "pitch": 57, "duration": 10, "velocity": 80}, {"time": 171849, "pitch": 60, "duration": 10, "velocity": 90}, {"time": 171849, "pitch": 66, "duration": 10, "velocity": 100}, {"time": 172080, "pitch": 60, "duration": 220, "velocity": 80}, {"time": 172080, "pitch": 66, "duration": 220, "velocity": 90}, {"time": 172090, "pitch": 50, "duration": 220, "velocity": 80}, {"time": 172090, "pitch": 57, "duration": 220, "velocity": 70}, {"time": 172320, "pitch": 50, "duration": 221, "velocity": 100}, {"time": 172320, "pitch": 57, "duration": 221, "velocity": 80}, {"time": 172330, "pitch": 60, "duration": 221, "velocity": 90}, {"time": 172330, "pitch": 66, "duration": 221, "velocity": 100}, {"time": 172561, "pitch": 60, "duration": 221, "velocity": 80}, {"time": 172561, "pitch": 66, "duration": 221, "velocity": 90}, {"time": 172571, "pitch": 50, "duration": 221, "velocity": 80}, {"time": 172571, "pitch": 57, "duration": 221, "velocity": 70}, {"time": 172802, "pitch": 50, "duration": 10, "velocity": 100}, {"time": 172802, "pitch": 57, "duration": 10, "velocity": 80}, {"time": 172812, "pitch": 60, "duration": 10, "velocity": 90}, {"time": 172812, "pitch": 66, "duration": 10, "velocity": 100}, {"time": 173043, "pitch": 60, "duration": 220, "velocity": 90}, {"time": 173043, "pitch": 66, "duration": 220, "velocity": 90}, {"time": 173053, "pitch": 50, "duration": 220, "velocity": 80}, {"time": 173053, "pitch": 57, "duration": 220, "velocity": 70}, {"time": 173283, "pitch": 50, "duration": 218, "velocity": 100}, {"time": 173283, "pitch": 55, "duration": 218, "velocity": 80}, {"time": 173293, "pitch": 59, "duration": 218, "velocity": 90}, {"time": 173293, "pitch": 67, "duration": 218, "velocity": 100}, {"time": 173521, "pitch": 59, "duration": 217, "velocity": 80}, {"time": 173521, "pitch": 67, "duration": 217, "velocity": 90}, {"time": 173531, "pitch": 50, "duration": 217, "velocity": 80}, {"time": 173531, "pitch": 55, "duration": 217, "velocity": 70}, {"time": 173758, "pitch": 50, "duration": 10, "velocity": 100}, {"time": 173758, "pitch": 55, "duration": 10, "velocity": 80}, {"time": 173768, "pitch": 59, "duration": 10, "velocity": 90}, {"time": 173768, "pitch": 67, "duration": 10, "velocity": 100}, {"time": 173999, "pitch": 59, "duration": 220, "velocity": 80}, {"time": 173999, "pitch": 67, "duration": 220, "velocity": 90}, {"time": 174009, "pitch": 50, "duration": 220, "velocity": 80}, {"time": 174009, "pitch": 55, "duration": 220, "velocity": 70}, {"time": 174239, "pitch": 50, "duration": 221, "velocity": 100}, {"time": 174239, "pitch": 55, "duration": 221, "velocity": 80}, {"time": 174249, "pitch": 59, "duration": 221, "velocity": 90}, {"time": 174249, "pitch": 67, "duration": 221, "velocity": 100}, {"time": 174480, "pitch": 59, "duration": 221, "velocity": 80}, {"time": 174480, "pitch": 67, "duration": 221, "velocity": 90}, {"time": 174490, "pitch": 50, "duration": 221, "velocity": 80}, {"time": 174490, "pitch": 55, "duration": 221, "velocity": 70}, {"time": 174721, "pitch": 50, "duration": 10, "velocity": 100}, {"time": 174721, "pitch": 55, "duration": 10, "velocity": 80}, {"time": 174731, "pitch": 59, "duration": 10, "velocity": 90}, {"time": 174731, "pitch": 67, "duration": 10, "velocity": 100}, {"time": 174962, "pitch": 59, "duration": 220, "velocity": 90}, {"time": 174962, "pitch": 67, "duration": 220, "velocity": 90}, {"time": 174972, "pitch": 50, "duration": 220, "velocity": 80}, {"time": 174972, "pitch": 55, "duration": 220, "velocity": 70}, {"time": 175202, "pitch": 50, "duration": 218, "velocity": 100}, {"time": 175202, "pitch": 57, "duration": 218, "velocity": 80}, {"time": 175212, "pitch": 62, "duration": 218, "velocity": 90}, {"time": 175212, "pitch": 66, "duration": 218, "velocity": 100}, {"time": 175440, "pitch": 62, "duration": 217, "velocity": 80}, {"time": 175440, "pitch": 66, "duration": 217, "velocity": 90}, {"time": 175450, "pitch": 50, "duration": 217, "velocity": 80}, {"time": 175450, "pitch": 57, "duration": 217, "velocity": 70}, {"time": 175677, "pitch": 50, "duration": 10, "velocity": 100}, {"time": 175677, "pitch": 57, "duration": 10, "velocity": 80}, {"time": 175687, "pitch": 62, "duration": 10, "velocity": 90}, {"time": 175687, "pitch": 66, "duration": 10, "velocity": 100}, {"time": 175918, "pitch": 62, "duration": 220, "velocity": 80}, {"time": 175918, "pitch": 66, "duration": 220, "velocity": 90}, {"time": 175928, "pitch": 50, "duration": 220, "velocity": 80}, {"time": 175928, "pitch": 57, "duration": 220, "velocity": 70}, {"time": 176158, "pitch": 50, "duration": 221, "velocity": 100}, {"time": 176158, "pitch": 57, "duration": 221, "velocity": 80}, {"time": 176168, "pitch": 62, "duration": 221, "velocity": 90}, {"time": 176168, "pitch": 66, "duration": 221, "velocity": 100}, {"time": 176399, "pitch": 62, "duration": 221, "velocity": 80}, {"time": 176399, "pitch": 66, "duration": 221, "velocity": 90}, {"time": 176409, "pitch": 50, "duration": 221, "velocity": 80}, {"time": 176409, "pitch": 57, "duration": 221, "velocity": 70}, {"time": 176640, "pitch": 50, "duration": 10, "velocity": 100}, {"time": 176640, "pitch": 57, "duration": 10, "velocity": 80}, {"time": 176650, "pitch": 62, "duration": 10, "velocity": 90}, {"time": 176650, "pitch": 66, "duration": 10, "velocity": 100}, {"time": 176881, "pitch": 62, "duration": 220, "velocity": 90}, {"time": 176881, "pitch": 66, "duration": 220, "velocity": 100}, {"time": 176891, "pitch": 50, "duration": 220, "velocity": 90}, {"time": 176891, "pitch": 57, "duration": 220, "velocity": 80}, {"time": 177122, "pitch": 50, "duration": 220, "velocity": 100}, {"time": 177122, "pitch": 55, "duration": 220, "velocity": 80}, {"time": 177132, "pitch": 59, "duration": 220, "velocity": 90}, {"time": 177132, "pitch": 67, "duration": 220, "velocity": 100}, {"time": 177362, "pitch": 59, "duration": 221, "velocity": 80}, {"time": 177362, "pitch": 67, "duration": 221, "velocity": 90}, {"time": 177372, "pitch": 50, "duration": 221, "velocity": 80}, {"time": 177372, "pitch": 55, "duration": 221, "velocity": 70}, {"time": 177603, "pitch": 50, "duration": 10, "velocity": 100}, {"time": 177603, "pitch": 55, "duration": 10, "velocity": 80}, {"time": 177613, "pitch": 59, "duration": 10, "velocity": 90}, {"time": 177613, "pitch": 67, "duration": 10, "velocity": 100}, {"time": 177840, "pitch": 59, "duration": 218, "velocity": 80}, {"time": 177840, "pitch": 67, "duration": 218, "velocity": 90}, {"time": 177850, "pitch": 50, "duration": 217, "velocity": 80}, {"time": 177850, "pitch": 55, "duration": 217, "velocity": 70}, {"time": 178077, "pitch": 50, "duration": 221, "velocity": 100}, {"time": 178077, "pitch": 55, "duration": 221, "velocity": 80}, {"time": 178087, "pitch": 59, "duration": 221, "velocity": 90}, {"time": 178087, "pitch": 67, "duration": 221, "velocity": 100}, {"time": 178318, "pitch": 59, "duration": 221, "velocity": 80}, {"time": 178318, "pitch": 67, "duration": 221, "velocity": 90}, {"time": 178328, "pitch": 50, "duration": 221, "velocity": 80}, {"time": 178328, "pitch": 55, "duration": 221, "velocity": 70}, {"time": 178559, "pitch": 50, "duration": 10, "velocity": 100}, {"time": 178559, "pitch": 55, "duration": 10, "velocity": 80}, {"time": 178569, "pitch": 59, "duration": 10, "velocity": 90}, {"time": 178569, "pitch": 67, "duration": 10, "velocity": 100}, {"time": 178800, "pitch": 59, "duration": 220, "velocity": 90}, {"time": 178800, "pitch": 67, "duration": 220, "velocity": 90}, {"time": 178810, "pitch": 50, "duration": 220, "velocity": 80}, {"time": 178810, "pitch": 55, "duration": 220, "velocity": 70}, {"time": 179040, "pitch": 50, "duration": 221, "velocity": 100}, {"time": 179040, "pitch": 55, "duration": 221, "velocity": 80}, {"time": 179051, "pitch": 59, "duration": 220, "velocity": 90}, {"time": 179051, "pitch": 64, "duration": 220, "velocity": 100}, {"time": 179281, "pitch": 59, "duration": 221, "velocity": 80}, {"time": 179281, "pitch": 64, "duration": 221, "velocity": 90}, {"time": 179291, "pitch": 50, "duration": 221, "velocity": 80}, {"time": 179291, "pitch": 55, "duration": 221, "velocity": 70}, {"time": 179522, "pitch": 50, "duration": 10, "velocity": 100}, {"time": 179522, "pitch": 55, "duration": 10, "velocity": 80}, {"time": 179532, "pitch": 59, "duration": 10, "velocity": 90}, {"time": 179532, "pitch": 64, "duration": 10, "velocity": 100}, {"time": 179763, "pitch": 59, "duration": 221, "velocity": 80}, {"time": 179763, "pitch": 64, "duration": 221, "velocity": 90}, {"time": 179773, "pitch": 50, "duration": 221, "velocity": 80}, {"time": 179773, "pitch": 55, "duration": 221, "velocity": 70}, {"time": 180004, "pitch": 50, "duration": 9, "velocity": 100}, {"time": 180004, "pitch": 55, "duration": 9, "velocity": 80}, {"time": 180013, "pitch": 59, "duration": 10, "velocity": 90}, {"time": 180013, "pitch": 64, "duration": 10, "velocity": 100}, {"time": 180241, "pitch": 61, "duration": 678, "velocity": 90}, {"time": 180241, "pitch": 64, "duration": 678, "velocity": 100}, {"time": 180251, "pitch": 52, "duration": 678, "velocity": 90}, {"time": 180251, "pitch": 57, "duration": 678, "velocity": 80}, {"time": 180959, "pitch": 50, "duration": 221, "velocity": 100}, {"time": 180959, "pitch": 57, "duration": 221, "velocity": 80}, {"time": 180970, "pitch": 62, "duration": 220, "velocity": 90}, {"time": 180970, "pitch": 66, "duration": 220, "velocity": 100}, {"time": 181200, "pitch": 62, "duration": 221, "velocity": 80}, {"time": 181200, "pitch": 66, "duration": 221, "velocity": 90}, {"time": 181210, "pitch": 50, "duration": 221, "velocity": 80}, {"time": 181210, "pitch": 57, "duration": 221, "velocity": 70}, {"time": 181441, "pitch": 50, "duration": 10, "velocity": 100}, {"time": 181441, "pitch": 57, "duration": 10, "velocity": 80}, {"time": 181451, "pitch": 62, "duration": 10, "velocity": 90}, {"time": 181451, "pitch": 66, "duration": 10, "velocity": 100}, {"time": 181682, "pitch": 62, "duration": 221, "velocity": 80}, {"time": 181682, "pitch": 66, "duration": 221, "velocity": 90}, {"time": 181692, "pitch": 50, "duration": 221, "velocity": 80}, {"time": 181692, "pitch": 57, "duration": 221, "velocity": 70}, {"time": 181923, "pitch": 50, "duration": 217, "velocity": 100}, {"time": 181923, "pitch": 57, "duration": 217, "velocity": 80}, {"time": 181932, "pitch": 62, "duration": 218, "velocity": 90}, {"time": 181932, "pitch": 66, "duration": 218, "velocity": 100}, {"time": 182160, "pitch": 62, "duration": 217, "velocity": 80}, {"time": 182160, "pitch": 66, "duration": 217, "velocity": 90}, {"time": 182170, "pitch": 50, "duration": 217, "velocity": 80}, {"time": 182170, "pitch": 57, "duration": 217, "velocity": 70}, {"time": 182397, "pitch": 50, "duration": 10, "velocity": 100}, {"time": 182397, "pitch": 57, "duration": 10, "velocity": 80}, {"time": 182407, "pitch": 62, "duration": 10, "velocity": 90}, {"time": 182407, "pitch": 66, "duration": 10, "velocity": 100}, {"time": 182638, "pitch": 61, "duration": 471, "velocity": 90}, {"time": 182638, "pitch": 66, "duration": 471, "velocity": 100}, {"time": 182648, "pitch": 50, "duration": 451, "velocity": 90}, {"time": 182648, "pitch": 57, "duration": 451, "velocity": 80}, {"time": 183119, "pitch": 61, "duration": 221, "velocity": 80}, {"time": 183119, "pitch": 66, "duration": 221, "velocity": 90}, {"time": 183129, "pitch": 50, "duration": 221, "velocity": 80}, {"time": 183129, "pitch": 57, "duration": 221, "velocity": 70}, {"time": 183360, "pitch": 50, "duration": 10, "velocity": 100}, {"time": 183360, "pitch": 57, "duration": 10, "velocity": 80}, {"time": 183370, "pitch": 61, "duration": 10, "velocity": 90}, {"time": 183370, "pitch": 66, "duration": 10, "velocity": 100}, {"time": 183601, "pitch": 61, "duration": 221, "velocity": 80}, {"time": 183601, "pitch": 66, "duration": 221, "velocity": 90}, {"time": 183611, "pitch": 50, "duration": 221, "velocity": 80}, {"time": 183611, "pitch": 57, "duration": 221, "velocity": 70}, {"time": 183842, "pitch": 50, "duration": 220, "velocity": 100}, {"time": 183842, "pitch": 57, "duration": 220, "velocity": 80}, {"time": 183852, "pitch": 61, "duration": 220, "velocity": 90}, {"time": 183852, "pitch": 66, "duration": 220, "velocity": 100}, {"time": 184082, "pitch": 61, "duration": 221, "velocity": 80}, {"time": 184082, "pitch": 66, "duration": 221, "velocity": 90}, {"time": 184092, "pitch": 50, "duration": 221, "velocity": 80}, {"time": 184092, "pitch": 57, "duration": 221, "velocity": 70}, {"time": 184323, "pitch": 50, "duration": 10, "velocity": 100}, {"time": 184323, "pitch": 57, "duration": 10, "velocity": 80}, {"time": 184333, "pitch": 61, "duration": 10, "velocity": 90}, {"time": 184333, "pitch": 66, "duration": 10, "velocity": 100}, {"time": 184560, "pitch": 61, "duration": 218, "velocity": 90}, {"time": 184560, "pitch": 66, "duration": 218, "velocity": 90}, {"time": 184570, "pitch": 50, "duration": 218, "velocity": 80}, {"time": 184570, "pitch": 57, "duration": 218, "velocity": 70}, {"time": 184797, "pitch": 50, "duration": 221, "velocity": 100}, {"time": 184797, "pitch": 57, "duration": 221, "velocity": 80}, {"time": 184807, "pitch": 61, "duration": 221, "velocity": 90}, {"time": 184807, "pitch": 66, "duration": 221, "velocity": 100}, {"time": 185038, "pitch": 61, "duration": 221, "velocity": 80}, {"time": 185038, "pitch": 66, "duration": 221, "velocity": 90}, {"time": 185048, "pitch": 50, "duration": 221, "velocity": 80}, {"time": 185048, "pitch": 57, "duration": 221, "velocity": 70}, {"time": 185279, "pitch": 50, "duration": 10, "velocity": 100}, {"time": 185279, "pitch": 57, "duration": 10, "velocity": 80}, {"time": 185289, "pitch": 61, "duration": 10, "velocity": 90}, {"time": 185289, "pitch": 66, "duration": 10, "velocity": 100}, {"time": 185520, "pitch": 61, "duration": 221, "velocity": 80}, {"time": 185520, "pitch": 66, "duration": 221, "velocity": 90}, {"time": 185530, "pitch": 50, "duration": 221, "velocity": 80}, {"time": 185530, "pitch": 57, "duration": 221, "velocity": 70}, {"time": 185761, "pitch": 50, "duration": 220, "velocity": 100}, {"time": 185761, "pitch": 57, "duration": 220, "velocity": 80}, {"time": 185771, "pitch": 61, "duration": 220, "velocity": 90}, {"time": 185771, "pitch": 66, "duration": 220, "velocity": 100}, {"time": 186001, "pitch": 61, "duration": 221, "velocity": 80}, {"time": 186001, "pitch": 66, "duration": 221, "velocity": 90}, {"time": 186011, "pitch": 50, "duration": 221, "velocity": 80}, {"time": 186011, "pitch": 57, "duration": 221, "velocity": 70}, {"time": 186242, "pitch": 50, "duration": 10, "velocity": 100}, {"time": 186242, "pitch": 57, "duration": 10, "velocity": 80}, {"time": 186252, "pitch": 61, "duration": 10, "velocity": 90}, {"time": 186252, "pitch": 66, "duration": 10, "velocity": 100}, {"time": 186479, "pitch": 60, "duration": 468, "velocity": 90}, {"time": 186479, "pitch": 66, "duration": 468, "velocity": 100}, {"time": 186489, "pitch": 50, "duration": 448, "velocity": 90}, {"time": 186489, "pitch": 57, "duration": 448, "velocity": 80}, {"time": 186957, "pitch": 60, "duration": 221, "velocity": 80}, {"time": 186957, "pitch": 66, "duration": 221, "velocity": 90}, {"time": 186967, "pitch": 50, "duration": 221, "velocity": 80}, {"time": 186967, "pitch": 57, "duration": 221, "velocity": 70}, {"time": 187198, "pitch": 50, "duration": 10, "velocity": 100}, {"time": 187198, "pitch": 57, "duration": 10, "velocity": 80}, {"time": 187208, "pitch": 60, "duration": 10, "velocity": 90}, {"time": 187208, "pitch": 66, "duration": 10, "velocity": 100}, {"time": 187439, "pitch": 60, "duration": 221, "velocity": 80}, {"time": 187439, "pitch": 66, "duration": 221, "velocity": 90}, {"time": 187449, "pitch": 50, "duration": 221, "velocity": 80}, {"time": 187449, "pitch": 57, "duration": 221, "velocity": 70}, {"time": 187680, "pitch": 50, "duration": 220, "velocity": 100}, {"time": 187680, "pitch": 57, "duration": 220, "velocity": 80}, {"time": 187690, "pitch": 60, "duration": 220, "velocity": 90}, {"time": 187690, "pitch": 66, "duration": 220, "velocity": 100}, {"time": 187920, "pitch": 60, "duration": 221, "velocity": 80}, {"time": 187920, "pitch": 66, "duration": 221, "velocity": 90}, {"time": 187930, "pitch": 50, "duration": 221, "velocity": 80}, {"time": 187930, "pitch": 57, "duration": 221, "velocity": 70}, {"time": 188161, "pitch": 50, "duration": 10, "velocity": 100}, {"time": 188161, "pitch": 57, "duration": 10, "velocity": 80}, {"time": 188171, "pitch": 60, "duration": 10, "velocity": 90}, {"time": 188171, "pitch": 66, "duration": 10, "velocity": 100}, {"time": 188402, "pitch": 60, "duration": 221, "velocity": 90}, {"time": 188402, "pitch": 66, "duration": 221, "velocity": 90}, {"time": 188412, "pitch": 50, "duration": 221, "velocity": 80}, {"time": 188412, "pitch": 57, "duration": 221, "velocity": 70}, {"time": 188643, "pitch": 50, "duration": 217, "velocity": 100}, {"time": 188643, "pitch": 55, "duration": 217, "velocity": 80}, {"time": 188653, "pitch": 59, "duration": 217, "velocity": 90}, {"time": 188653, "pitch": 67, "duration": 217, "velocity": 100}, {"time": 188880, "pitch": 59, "duration": 217, "velocity": 80}, {"time": 188880, "pitch": 67, "duration": 217, "velocity": 90}, {"time": 188890, "pitch": 50, "duration": 217, "velocity": 80}, {"time": 188890, "pitch": 55, "duration": 217, "velocity": 70}, {"time": 189117, "pitch": 50, "duration": 10, "velocity": 100}, {"time": 189117, "pitch": 55, "duration": 10, "velocity": 80}, {"time": 189127, "pitch": 59, "duration": 10, "velocity": 90}, {"time": 189127, "pitch": 67, "duration": 10, "velocity": 100}, {"time": 189358, "pitch": 59, "duration": 221, "velocity": 80}, {"time": 189358, "pitch": 67, "duration": 221, "velocity": 90}, {"time": 189368, "pitch": 50, "duration": 221, "velocity": 80}, {"time": 189368, "pitch": 55, "duration": 221, "velocity": 70}, {"time": 189599, "pitch": 50, "duration": 220, "velocity": 100}, {"time": 189599, "pitch": 55, "duration": 220, "velocity": 80}, {"time": 189609, "pitch": 59, "duration": 220, "velocity": 90}, {"time": 189609, "pitch": 67, "duration": 220, "velocity": 100}, {"time": 189839, "pitch": 59, "duration": 221, "velocity": 80}, {"time": 189839, "pitch": 67, "duration": 221, "velocity": 90}, {"time": 189849, "pitch": 50, "duration": 221, "velocity": 80}, {"time": 189849, "pitch": 55, "duration": 221, "velocity": 70}, {"time": 190080, "pitch": 50, "duration": 10, "velocity": 100}, {"time": 190080, "pitch": 55, "duration": 10, "velocity": 80}, {"time": 190090, "pitch": 59, "duration": 10, "velocity": 90}, {"time": 190090, "pitch": 67, "duration": 10, "velocity": 100}, {"time": 190321, "pitch": 59, "duration": 221, "velocity": 90}, {"time": 190321, "pitch": 67, "duration": 221, "velocity": 90}, {"time": 190331, "pitch": 50, "duration": 221, "velocity": 80}, {"time": 190331, "pitch": 55, "duration": 221, "velocity": 70}, {"time": 190562, "pitch": 50, "duration": 221, "velocity": 100}, {"time": 190562, "pitch": 57, "duration": 221, "velocity": 80}, {"time": 190572, "pitch": 62, "duration": 221, "velocity": 90}, {"time": 190572, "pitch": 66, "duration": 221, "velocity": 100}, {"time": 190803, "pitch": 62, "duration": 220, "velocity": 80}, {"time": 190803, "pitch": 66, "duration": 220, "velocity": 90}, {"time": 190813, "pitch": 50, "duration": 220, "velocity": 80}, {"time": 190813, "pitch": 57, "duration": 220, "velocity": 70}, {"time": 191043, "pitch": 50, "duration": 10, "velocity": 100}, {"time": 191043, "pitch": 57, "duration": 10, "velocity": 80}, {"time": 191053, "pitch": 62, "duration": 10, "velocity": 90}, {"time": 191053, "pitch": 66, "duration": 10, "velocity": 100}, {"time": 191280, "pitch": 62, "duration": 218, "velocity": 80}, {"time": 191280, "pitch": 66, "duration": 218, "velocity": 90}, {"time": 191290, "pitch": 50, "duration": 218, "velocity": 80}, {"time": 191290, "pitch": 57, "duration": 218, "velocity": 70}, {"time": 191518, "pitch": 50, "duration": 220, "velocity": 100}, {"time": 191518, "pitch": 57, "duration": 220, "velocity": 80}, {"time": 191528, "pitch": 62, "duration": 220, "velocity": 90}, {"time": 191528, "pitch": 66, "duration": 220, "velocity": 100}, {"time": 191758, "pitch": 62, "duration": 221, "velocity": 80}, {"time": 191758, "pitch": 66, "duration": 221, "velocity": 90}, {"time": 191768, "pitch": 50, "duration": 221, "velocity": 80}, {"time": 191768, "pitch": 57, "duration": 221, "velocity": 70}, {"time": 191999, "pitch": 50, "duration": 10, "velocity": 100}, {"time": 191999, "pitch": 57, "duration": 10, "velocity": 80}, {"time": 192009, "pitch": 62, "duration": 10, "velocity": 90}, {"time": 192009, "pitch": 66, "duration": 10, "velocity": 100}, {"time": 192240, "pitch": 62, "duration": 221, "velocity": 90}, {"time": 192240, "pitch": 66, "duration": 221, "velocity": 100}, {"time": 192250, "pitch": 50, "duration": 221, "velocity": 90}, {"time": 192250, "pitch": 57, "duration": 221, "velocity": 80}, {"time": 192481, "pitch": 50, "duration": 220, "velocity": 100}, {"time": 192481, "pitch": 55, "duration": 220, "velocity": 80}, {"time": 192491, "pitch": 59, "duration": 221, "velocity": 90}, {"time": 192491, "pitch": 67, "duration": 221, "velocity": 100}, {"time": 192722, "pitch": 59, "duration": 220, "velocity": 80}, {"time": 192722, "pitch": 67, "duration": 220, "velocity": 90}, {"time": 192732, "pitch": 50, "duration": 220, "velocity": 80}, {"time": 192732, "pitch": 55, "duration": 220, "velocity": 70}, {"time": 192962, "pitch": 50, "duration": 10, "velocity": 100}, {"time": 192962, "pitch": 55, "duration": 10, "velocity": 80}, {"time": 192972, "pitch": 59, "duration": 10, "velocity": 90}, {"time": 192972, "pitch": 67, "duration": 10, "velocity": 100}, {"time": 193199, "pitch": 59, "duration": 218, "velocity": 80}, {"time": 193199, "pitch": 67, "duration": 218, "velocity": 90}, {"time": 193209, "pitch": 50, "duration": 218, "velocity": 80}, {"time": 193209, "pitch": 55, "duration": 218, "velocity": 70}, {"time": 193437, "pitch": 50, "duration": 220, "velocity": 100}, {"time": 193437, "pitch": 55, "duration": 220, "velocity": 80}, {"time": 193447, "pitch": 59, "duration": 220, "velocity": 90}, {"time": 193447, "pitch": 67, "duration": 220, "velocity": 100}, {"time": 193677, "pitch": 59, "duration": 221, "velocity": 80}, {"time": 193677, "pitch": 67, "duration": 221, "velocity": 90}, {"time": 193687, "pitch": 50, "duration": 221, "velocity": 80}, {"time": 193687, "pitch": 55, "duration": 221, "velocity": 70}, {"time": 193918, "pitch": 50, "duration": 10, "velocity": 100}, {"time": 193918, "pitch": 55, "duration": 10, "velocity": 80}, {"time": 193928, "pitch": 59, "duration": 10, "velocity": 90}, {"time": 193928, "pitch": 67, "duration": 10, "velocity": 100}, {"time": 194159, "pitch": 59, "duration": 221, "velocity": 90}, {"time": 194159, "pitch": 67, "duration": 221, "velocity": 90}, {"time": 194169, "pitch": 50, "duration": 221, "velocity": 80}, {"time": 194169, "pitch": 55, "duration": 221, "velocity": 70}, {"time": 194400, "pitch": 55, "duration": 220, "velocity": 100}, {"time": 194400, "pitch": 58, "duration": 220, "velocity": 80}, {"time": 194410, "pitch": 62, "duration": 221, "velocity": 90}, {"time": 194410, "pitch": 67, "duration": 221, "velocity": 100}, {"time": 194641, "pitch": 62, "duration": 220, "velocity": 80}, {"time": 194641, "pitch": 67, "duration": 220, "velocity": 90}, {"time": 194651, "pitch": 55, "duration": 220, "velocity": 80}, {"time": 194651, "pitch": 58, "duration": 220, "velocity": 70}, {"time": 194881, "pitch": 55, "duration": 10, "velocity": 100}, {"time": 194881, "pitch": 58, "duration": 10, "velocity": 80}, {"time": 194891, "pitch": 62, "duration": 10, "velocity": 90}, {"time": 194891, "pitch": 67, "duration": 10, "velocity": 100}, {"time": 195122, "pitch": 62, "duration": 448, "velocity": 90}, {"time": 195122, "pitch": 67, "duration": 448, "velocity": 100}, {"time": 195132, "pitch": 54, "duration": 448, "velocity": 90}, {"time": 195132, "pitch": 58, "duration": 448, "velocity": 80}, {"time": 195600, "pitch": 55, "duration": 448, "velocity": 100}, {"time": 195600, "pitch": 58, "duration": 448, "velocity": 80}, {"time": 195610, "pitch": 62, "duration": 448, "velocity": 90}, {"time": 195610, "pitch": 67, "duration": 448, "velocity": 100}, {"time": 196078, "pitch": 62, "duration": 2140, "velocity": 100}, {"time": 196078, "pitch": 66, "duration": 2140, "velocity": 100}, {"time": 196088, "pitch": 50, "duration": 2130, "velocity": 100}, {"time": 196088, "pitch": 57, "duration": 2130, "velocity": 80}, {"time": 48483, "pitch": 62, "duration": 119, "velocity": 95}, {"time": 48720, "pitch": 62, "duration": 378, "velocity": 96}, {"time": 49198, "pitch": 62, "duration": 442, "velocity": 94}, {"time": 49680, "pitch": 61, "duration": 200, "velocity": 85}, {"time": 49921, "pitch": 57, "duration": 210, "velocity": 91}, {"time": 50161, "pitch": 62, "duration": 458, "velocity": 93}, {"time": 50639, "pitch": 62, "duration": 237, "velocity": 82}, {"time": 50876, "pitch": 62, "duration": 502, "velocity": 92}, {"time": 51599, "pitch": 57, "duration": 220, "velocity": 95}, {"time": 51839, "pitch": 57, "duration": 492, "velocity": 87}, {"time": 52321, "pitch": 62, "duration": 401, "velocity": 99}, {"time": 52803, "pitch": 62, "duration": 128, "velocity": 95}, {"time": 53040, "pitch": 62, "duration": 448, "velocity": 96}, {"time": 53518, "pitch": 57, "duration": 220, "velocity": 86}, {"time": 53758, "pitch": 57, "duration": 221, "velocity": 91}, {"time": 53999, "pitch": 60, "duration": 452, "velocity": 92}, {"time": 54481, "pitch": 60, "duration": 221, "velocity": 84}, {"time": 54722, "pitch": 60, "duration": 431, "velocity": 90}, {"time": 63842, "pitch": 62, "duration": 109, "velocity": 101}, {"time": 64079, "pitch": 62, "duration": 388, "velocity": 101}, {"time": 64557, "pitch": 62, "duration": 442, "velocity": 99}, {"time": 65039, "pitch": 61, "duration": 221, "velocity": 86}, {"time": 65280, "pitch": 57, "duration": 220, "velocity": 90}, {"time": 65521, "pitch": 62, "duration": 471, "velocity": 98}, {"time": 66002, "pitch": 62, "duration": 221, "velocity": 85}, {"time": 66243, "pitch": 62, "duration": 484, "velocity": 91}, {"time": 131036, "pitch": 62, "duration": 121, "velocity": 95}, {"time": 131277, "pitch": 62, "duration": 381, "velocity": 96}, {"time": 131759, "pitch": 62, "duration": 441, "velocity": 94}, {"time": 132240, "pitch": 61, "duration": 201, "velocity": 85}, {"time": 132481, "pitch": 57, "duration": 211, "velocity": 91}, {"time": 132722, "pitch": 62, "duration": 458, "velocity": 93}, {"time": 133200, "pitch": 62, "duration": 237, "velocity": 82}, {"time": 133437, "pitch": 62, "duration": 502, "velocity": 92}, {"time": 134159, "pitch": 57, "duration": 221, "velocity": 95}, {"time": 134400, "pitch": 57, "duration": 482, "velocity": 87}, {"time": 134882, "pitch": 62, "duration": 401, "velocity": 99}, {"time": 135363, "pitch": 62, "duration": 129, "velocity": 95}, {"time": 135600, "pitch": 62, "duration": 448, "velocity": 96}, {"time": 136078, "pitch": 57, "duration": 221, "velocity": 86}, {"time": 136319, "pitch": 57, "duration": 221, "velocity": 91}, {"time": 136560, "pitch": 60, "duration": 451, "velocity": 92}, {"time": 137041, "pitch": 60, "duration": 221, "velocity": 84}, {"time": 137282, "pitch": 60, "duration": 425, "velocity": 90}, {"time": 146403, "pitch": 62, "duration": 109, "velocity": 101}, {"time": 146640, "pitch": 62, "duration": 388, "velocity": 101}, {"time": 147118, "pitch": 62, "duration": 441, "velocity": 99}, {"time": 147600, "pitch": 61, "duration": 220, "velocity": 86}, {"time": 147840, "pitch": 57, "duration": 221, "velocity": 90}, {"time": 148081, "pitch": 62, "duration": 472, "velocity": 98}, {"time": 148563, "pitch": 62, "duration": 220, "velocity": 85}, {"time": 148804, "pitch": 62, "duration": 484, "velocity": 91}, {"time": 165600, "pitch": 62, "duration": 121, "velocity": 95}, {"time": 165841, "pitch": 62, "duration": 381, "velocity": 96}, {"time": 166323, "pitch": 62, "duration": 438, "velocity": 94}, {"time": 166800, "pitch": 61, "duration": 198, "velocity": 85}, {"time": 167038, "pitch": 57, "duration": 210, "velocity": 91}, {"time": 167278, "pitch": 62, "duration": 462, "velocity": 93}, {"time": 167760, "pitch": 62, "duration": 241, "velocity": 82}, {"time": 168001, "pitch": 62, "duration": 501, "velocity": 92}, {"time": 168719, "pitch": 57, "duration": 218, "velocity": 95}, {"time": 168957, "pitch": 57, "duration": 481, "velocity": 87}, {"time": 169438, "pitch": 62, "duration": 402, "velocity": 99}, {"time": 169920, "pitch": 62, "duration": 130, "velocity": 95}, {"time": 170161, "pitch": 62, "duration": 451, "velocity": 96}, {"time": 170642, "pitch": 57, "duration": 221, "velocity": 86}, {"time": 170883, "pitch": 57, "duration": 217, "velocity": 91}, {"time": 171120, "pitch": 60, "duration": 448, "velocity": 92}, {"time": 171598, "pitch": 60, "duration": 221, "velocity": 84}, {"time": 171839, "pitch": 60, "duration": 431, "velocity": 90}, {"time": 180959, "pitch": 62, "duration": 111, "velocity": 101}, {"time": 181200, "pitch": 62, "duration": 392, "velocity": 101}, {"time": 181682, "pitch": 62, "duration": 438, "velocity": 99}, {"time": 182160, "pitch": 61, "duration": 217, "velocity": 86}, {"time": 182397, "pitch": 57, "duration": 221, "velocity": 90}, {"time": 182638, "pitch": 62, "duration": 471, "velocity": 98}, {"time": 183119, "pitch": 62, "duration": 221, "velocity": 85}, {"time": 183360, "pitch": 62, "duration": 492, "velocity": 91}]}]}