{"metadata": {"schema_version": "0.1", "title": "RWC-MDB-P-2001 No. 39: SPUL / Kousuke Morimoto", "copyright": "RWC Music Database. Copyright (C) 2001 Real World Computing Partnership (contact: Masataka GOTO <m.goto@aist.go.jp>)", "source_filename": "RM-P039.SMF_SYNC.MID", "source_format": "midi"}, "resolution": 480, "tempos": [{"time": 0, "qpm": 58.8235294117647}, {"time": 480, "qpm": 73.17073170731707}, {"time": 2880, "qpm": 72.28915662650603}, {"time": 3360, "qpm": 73.17073170731707}, {"time": 5280, "qpm": 72.28915662650603}, {"time": 5760, "qpm": 73.17073170731707}, {"time": 8160, "qpm": 72.28915662650603}, {"time": 8640, "qpm": 73.17073170731707}, {"time": 10560, "qpm": 72.28915662650603}, {"time": 11040, "qpm": 73.17073170731707}, {"time": 12960, "qpm": 72.28915662650603}, {"time": 13440, "qpm": 73.17073170731707}, {"time": 15360, "qpm": 72.28915662650603}, {"time": 15840, "qpm": 73.17073170731707}, {"time": 18240, "qpm": 72.28915662650603}, {"time": 18720, "qpm": 73.17073170731707}, {"time": 20640, "qpm": 72.28915662650603}, {"time": 21120, "qpm": 73.17073170731707}, {"time": 23040, "qpm": 72.28915662650603}, {"time": 23520, "qpm": 73.17073170731707}, {"time": 25440, "qpm": 72.28915662650603}, {"time": 25920, "qpm": 73.17073170731707}, {"time": 27840, "qpm": 72.28915662650603}, {"time": 28320, "qpm": 73.17073170731707}, {"time": 30720, "qpm": 72.28915662650603}, {"time": 31200, "qpm": 73.17073170731707}, {"time": 33120, "qpm": 72.28915662650603}, {"time": 33600, "qpm": 73.17073170731707}, {"time": 35520, "qpm": 72.28915662650603}, {"time": 36000, "qpm": 73.17073170731707}, {"time": 38400, "qpm": 72.28915662650603}, {"time": 38880, "qpm": 73.17073170731707}, {"time": 40320, "qpm": 72.28915662650603}, {"time": 40800, "qpm": 73.17073170731707}, {"time": 43200, "qpm": 72.28915662650603}, {"time": 43680, "qpm": 73.17073170731707}, {"time": 45600, "qpm": 72.28915662650603}, {"time": 46080, "qpm": 73.17073170731707}, {"time": 48000, "qpm": 72.28915662650603}, {"time": 48480, "qpm": 73.17073170731707}, {"time": 50400, "qpm": 72.28915662650603}, {"time": 50880, "qpm": 73.17073170731707}, {"time": 53280, "qpm": 72.28915662650603}, {"time": 53760, "qpm": 73.17073170731707}, {"time": 55680, "qpm": 72.28915662650603}, {"time": 56160, "qpm": 73.17073170731707}, {"time": 58560, "qpm": 72.28915662650603}, {"time": 59040, "qpm": 73.17073170731707}, {"time": 60960, "qpm": 72.28915662650603}, {"time": 61440, "qpm": 73.17073170731707}, {"time": 63360, "qpm": 72.28915662650603}, {"time": 63840, "qpm": 73.17073170731707}, {"time": 66240, "qpm": 72.28915662650603}, {"time": 66720, "qpm": 73.17073170731707}, {"time": 68640, "qpm": 72.28915662650603}, {"time": 69120, "qpm": 73.17073170731707}, {"time": 71040, "qpm": 72.28915662650603}, {"time": 71520, "qpm": 73.17073170731707}, {"time": 73440, "qpm": 72.28915662650603}, {"time": 73920, "qpm": 73.17073170731707}, {"time": 75840, "qpm": 72.28915662650603}, {"time": 76320, "qpm": 73.17073170731707}, {"time": 78720, "qpm": 72.28915662650603}, {"time": 79200, "qpm": 73.17073170731707}, {"time": 81120, "qpm": 72.28915662650603}, {"time": 81600, "qpm": 73.17073170731707}, {"time": 83520, "qpm": 72.28915662650603}, {"time": 84000, "qpm": 73.17073170731707}, {"time": 85920, "qpm": 72.28915662650603}, {"time": 86400, "qpm": 73.17073170731707}, {"time": 88800, "qpm": 72.28915662650603}, {"time": 89280, "qpm": 73.17073170731707}, {"time": 91200, "qpm": 72.28915662650603}, {"time": 91680, "qpm": 73.17073170731707}, {"time": 93600, "qpm": 72.28915662650603}, {"time": 94080, "qpm": 73.17073170731707}, {"time": 96480, "qpm": 72.28915662650603}, {"time": 96960, "qpm": 73.17073170731707}, {"time": 98880, "qpm": 72.28915662650603}, {"time": 99360, "qpm": 73.17073170731707}, {"time": 101280, "qpm": 72.28915662650603}, {"time": 101760, "qpm": 73.17073170731707}, {"time": 103680, "qpm": 72.28915662650603}, {"time": 104160, "qpm": 73.17073170731707}, {"time": 106560, "qpm": 72.28915662650603}, {"time": 107040, "qpm": 73.17073170731707}, {"time": 108480, "qpm": 72.28915662650603}, {"time": 108960, "qpm": 73.17073170731707}, {"time": 111360, "qpm": 72.28915662650603}, {"time": 111840, "qpm": 73.17073170731707}, {"time": 113760, "qpm": 72.28915662650603}, {"time": 114240, "qpm": 73.17073170731707}, {"time": 116160, "qpm": 72.28915662650603}, {"time": 116640, "qpm": 73.17073170731707}, {"time": 119040, "qpm": 72.28915662650603}, {"time": 119520, "qpm": 73.17073170731707}, {"time": 121440, "qpm": 72.28915662650603}, {"time": 121920, "qpm": 73.17073170731707}, {"time": 124320, "qpm": 72.28915662650603}, {"time": 124800, "qpm": 73.17073170731707}, {"time": 126240, "qpm": 72.28915662650603}, {"time": 126720, "qpm": 73.17073170731707}, {"time": 129120, "qpm": 72.28915662650603}, {"time": 129600, "qpm": 73.17073170731707}, {"time": 132000, "qpm": 72.28915662650603}, {"time": 132480, "qpm": 73.17073170731707}, {"time": 133920, "qpm": 72.28915662650603}, {"time": 134400, "qpm": 73.17073170731707}, {"time": 136800, "qpm": 72.28915662650603}, {"time": 137280, "qpm": 73.17073170731707}, {"time": 138720, "qpm": 72.28915662650603}, {"time": 139200, "qpm": 73.17073170731707}, {"time": 142080, "qpm": 72.28915662650603}, {"time": 142560, "qpm": 73.17073170731707}, {"time": 144000, "qpm": 72.28915662650603}, {"time": 144480, "qpm": 73.17073170731707}, {"time": 146880, "qpm": 72.28915662650603}, {"time": 147360, "qpm": 73.17073170731707}, {"time": 149280, "qpm": 72.28915662650603}, {"time": 149760, "qpm": 73.17073170731707}, {"time": 151680, "qpm": 72.28915662650603}, {"time": 152160, "qpm": 73.17073170731707}, {"time": 154080, "qpm": 72.28915662650603}, {"time": 154560, "qpm": 73.17073170731707}, {"time": 156960, "qpm": 72.28915662650603}, {"time": 157440, "qpm": 73.17073170731707}, {"time": 159360, "qpm": 72.28915662650603}, {"time": 159840, "qpm": 73.17073170731707}, {"time": 160800, "qpm": 68.18181818181819}, {"time": 161280, "qpm": 65.93406593406593}, {"time": 161760, "qpm": 63.829787234042556}, {"time": 162720, "qpm": 64.51612903225806}, {"time": 163200, "qpm": 63.829787234042556}, {"time": 163680, "qpm": 61.855670103092784}, {"time": 164160, "qpm": 58.25242718446602}, {"time": 164640, "qpm": 65.93406593406593}], "key_signatures": [{"time": 0, "root": 2, "mode": "major"}], "time_signatures": [{"time": 0, "numerator": 1, "denominator": 4}, {"time": 480, "numerator": 4, "denominator": 4}, {"time": 159840, "numerator": 3, "denominator": 4}, {"time": 161280, "numerator": 2, "denominator": 4}, {"time": 162240, "numerator": 4, "denominator": 4}], "tracks": [{"program": 0, "is_drum": false, "name": "Piano", "notes": [{"time": 15357, "pitch": 60, "duration": 2406, "velocity": 90}, {"time": 15357, "pitch": 72, "duration": 2406, "velocity": 90}, {"time": 15357, "pitch": 84, "duration": 2406, "velocity": 80}, {"time": 26645, "pitch": 45, "duration": 230, "velocity": 103}, {"time": 26887, "pitch": 50, "duration": 130, "velocity": 103}, {"time": 27040, "pitch": 50, "duration": 71, "velocity": 98}, {"time": 27121, "pitch": 49, "duration": 160, "velocity": 102}, {"time": 27361, "pitch": 47, "duration": 927, "velocity": 80}, {"time": 27361, "pitch": 57, "duration": 937, "velocity": 90}, {"time": 27361, "pitch": 62, "duration": 937, "velocity": 95}, {"time": 27361, "pitch": 66, "duration": 937, "velocity": 100}, {"time": 27361, "pitch": 69, "duration": 937, "velocity": 105}, {"time": 28318, "pitch": 47, "duration": 461, "velocity": 75}, {"time": 28318, "pitch": 57, "duration": 461, "velocity": 85}, {"time": 28318, "pitch": 62, "duration": 461, "velocity": 90}, {"time": 28318, "pitch": 66, "duration": 461, "velocity": 95}, {"time": 28318, "pitch": 69, "duration": 461, "velocity": 100}, {"time": 28799, "pitch": 47, "duration": 461, "velocity": 75}, {"time": 28799, "pitch": 57, "duration": 160, "velocity": 85}, {"time": 28799, "pitch": 62, "duration": 150, "velocity": 90}, {"time": 28799, "pitch": 66, "duration": 230, "velocity": 85}, {"time": 28799, "pitch": 69, "duration": 461, "velocity": 85}, {"time": 28959, "pitch": 62, "duration": 160, "velocity": 90}, {"time": 29044, "pitch": 66, "duration": 231, "velocity": 85}, {"time": 29280, "pitch": 45, "duration": 946, "velocity": 80}, {"time": 29280, "pitch": 57, "duration": 946, "velocity": 90}, {"time": 29280, "pitch": 61, "duration": 946, "velocity": 95}, {"time": 29280, "pitch": 64, "duration": 946, "velocity": 100}, {"time": 29280, "pitch": 69, "duration": 946, "velocity": 105}, {"time": 30242, "pitch": 45, "duration": 455, "velocity": 80}, {"time": 30242, "pitch": 57, "duration": 455, "velocity": 85}, {"time": 30242, "pitch": 61, "duration": 455, "velocity": 95}, {"time": 30242, "pitch": 64, "duration": 455, "velocity": 100}, {"time": 30252, "pitch": 69, "duration": 918, "velocity": 95}, {"time": 30717, "pitch": 45, "duration": 461, "velocity": 80}, {"time": 30717, "pitch": 57, "duration": 461, "velocity": 90}, {"time": 30717, "pitch": 61, "duration": 171, "velocity": 95}, {"time": 30717, "pitch": 64, "duration": 160, "velocity": 90}, {"time": 30877, "pitch": 62, "duration": 121, "velocity": 85}, {"time": 30963, "pitch": 61, "duration": 210, "velocity": 80}, {"time": 31198, "pitch": 43, "duration": 926, "velocity": 80}, {"time": 31198, "pitch": 55, "duration": 926, "velocity": 90}, {"time": 31198, "pitch": 59, "duration": 926, "velocity": 95}, {"time": 31198, "pitch": 62, "duration": 926, "velocity": 100}, {"time": 31198, "pitch": 67, "duration": 926, "velocity": 105}, {"time": 32160, "pitch": 43, "duration": 461, "velocity": 80}, {"time": 32160, "pitch": 55, "duration": 461, "velocity": 85}, {"time": 32160, "pitch": 59, "duration": 461, "velocity": 95}, {"time": 32160, "pitch": 62, "duration": 461, "velocity": 100}, {"time": 32170, "pitch": 67, "duration": 461, "velocity": 95}, {"time": 32641, "pitch": 43, "duration": 451, "velocity": 70}, {"time": 32641, "pitch": 55, "duration": 451, "velocity": 80}, {"time": 32641, "pitch": 62, "duration": 451, "velocity": 80}, {"time": 32641, "pitch": 67, "duration": 451, "velocity": 85}, {"time": 32641, "pitch": 71, "duration": 451, "velocity": 90}, {"time": 33124, "pitch": 50, "duration": 932, "velocity": 80}, {"time": 33124, "pitch": 57, "duration": 933, "velocity": 85}, {"time": 33124, "pitch": 64, "duration": 933, "velocity": 90}, {"time": 33124, "pitch": 66, "duration": 933, "velocity": 95}, {"time": 33125, "pitch": 69, "duration": 933, "velocity": 100}, {"time": 34079, "pitch": 50, "duration": 461, "velocity": 80}, {"time": 34080, "pitch": 57, "duration": 461, "velocity": 85}, {"time": 34080, "pitch": 64, "duration": 461, "velocity": 90}, {"time": 34080, "pitch": 66, "duration": 461, "velocity": 95}, {"time": 34081, "pitch": 69, "duration": 461, "velocity": 100}, {"time": 34561, "pitch": 57, "duration": 453, "velocity": 85}, {"time": 34561, "pitch": 64, "duration": 230, "velocity": 90}, {"time": 34561, "pitch": 66, "duration": 226, "velocity": 95}, {"time": 34562, "pitch": 69, "duration": 230, "velocity": 100}, {"time": 34801, "pitch": 50, "duration": 150, "velocity": 75}, {"time": 34802, "pitch": 64, "duration": 222, "velocity": 90}, {"time": 34802, "pitch": 66, "duration": 222, "velocity": 95}, {"time": 34803, "pitch": 69, "duration": 222, "velocity": 95}, {"time": 35041, "pitch": 52, "duration": 937, "velocity": 80}, {"time": 35041, "pitch": 59, "duration": 937, "velocity": 90}, {"time": 35041, "pitch": 62, "duration": 937, "velocity": 95}, {"time": 35042, "pitch": 67, "duration": 937, "velocity": 100}, {"time": 35997, "pitch": 47, "duration": 461, "velocity": 80}, {"time": 35997, "pitch": 59, "duration": 461, "velocity": 90}, {"time": 35997, "pitch": 62, "duration": 461, "velocity": 95}, {"time": 35997, "pitch": 67, "duration": 461, "velocity": 100}, {"time": 36238, "pitch": 52, "duration": 200, "velocity": 72}, {"time": 36478, "pitch": 47, "duration": 462, "velocity": 75}, {"time": 36478, "pitch": 59, "duration": 151, "velocity": 90}, {"time": 36478, "pitch": 62, "duration": 462, "velocity": 95}, {"time": 36478, "pitch": 67, "duration": 462, "velocity": 100}, {"time": 36639, "pitch": 59, "duration": 120, "velocity": 85}, {"time": 36719, "pitch": 55, "duration": 170, "velocity": 75}, {"time": 36960, "pitch": 47, "duration": 946, "velocity": 80}, {"time": 36960, "pitch": 57, "duration": 946, "velocity": 90}, {"time": 36960, "pitch": 62, "duration": 946, "velocity": 95}, {"time": 36960, "pitch": 66, "duration": 946, "velocity": 100}, {"time": 36960, "pitch": 69, "duration": 946, "velocity": 105}, {"time": 37922, "pitch": 47, "duration": 461, "velocity": 80}, {"time": 37922, "pitch": 57, "duration": 461, "velocity": 90}, {"time": 37922, "pitch": 62, "duration": 456, "velocity": 95}, {"time": 37922, "pitch": 66, "duration": 461, "velocity": 100}, {"time": 38167, "pitch": 54, "duration": 221, "velocity": 80}, {"time": 38403, "pitch": 47, "duration": 218, "velocity": 80}, {"time": 38403, "pitch": 57, "duration": 228, "velocity": 90}, {"time": 38403, "pitch": 62, "duration": 148, "velocity": 95}, {"time": 38403, "pitch": 66, "duration": 148, "velocity": 100}, {"time": 38561, "pitch": 62, "duration": 70, "velocity": 95}, {"time": 38561, "pitch": 66, "duration": 70, "velocity": 100}, {"time": 38561, "pitch": 69, "duration": 70, "velocity": 105}, {"time": 38640, "pitch": 47, "duration": 189, "velocity": 80}, {"time": 38640, "pitch": 57, "duration": 189, "velocity": 85}, {"time": 38640, "pitch": 66, "duration": 189, "velocity": 96}, {"time": 38645, "pitch": 62, "duration": 181, "velocity": 90}, {"time": 38878, "pitch": 45, "duration": 461, "velocity": 80}, {"time": 38880, "pitch": 57, "duration": 221, "velocity": 95}, {"time": 38880, "pitch": 61, "duration": 445, "velocity": 103}, {"time": 38880, "pitch": 64, "duration": 463, "velocity": 108}, {"time": 38880, "pitch": 69, "duration": 475, "velocity": 103}, {"time": 39124, "pitch": 57, "duration": 216, "velocity": 85}, {"time": 39129, "pitch": 52, "duration": 220, "velocity": 80}, {"time": 39359, "pitch": 45, "duration": 221, "velocity": 80}, {"time": 39359, "pitch": 57, "duration": 465, "velocity": 88}, {"time": 39359, "pitch": 61, "duration": 465, "velocity": 86}, {"time": 39359, "pitch": 64, "duration": 465, "velocity": 101}, {"time": 39359, "pitch": 69, "duration": 452, "velocity": 106}, {"time": 39600, "pitch": 45, "duration": 218, "velocity": 80}, {"time": 39600, "pitch": 52, "duration": 210, "velocity": 80}, {"time": 39840, "pitch": 45, "duration": 461, "velocity": 80}, {"time": 39842, "pitch": 57, "duration": 466, "velocity": 98}, {"time": 39842, "pitch": 61, "duration": 466, "velocity": 103}, {"time": 39842, "pitch": 64, "duration": 466, "velocity": 108}, {"time": 39842, "pitch": 69, "duration": 466, "velocity": 103}, {"time": 40081, "pitch": 52, "duration": 220, "velocity": 80}, {"time": 40321, "pitch": 45, "duration": 451, "velocity": 80}, {"time": 40321, "pitch": 55, "duration": 466, "velocity": 95}, {"time": 40321, "pitch": 59, "duration": 466, "velocity": 103}, {"time": 40321, "pitch": 62, "duration": 466, "velocity": 108}, {"time": 40321, "pitch": 67, "duration": 466, "velocity": 103}, {"time": 40802, "pitch": 45, "duration": 456, "velocity": 80}, {"time": 40804, "pitch": 57, "duration": 456, "velocity": 100}, {"time": 40804, "pitch": 61, "duration": 456, "velocity": 105}, {"time": 40804, "pitch": 64, "duration": 456, "velocity": 110}, {"time": 40804, "pitch": 69, "duration": 456, "velocity": 105}, {"time": 41045, "pitch": 52, "duration": 218, "velocity": 82}, {"time": 41278, "pitch": 45, "duration": 461, "velocity": 80}, {"time": 41280, "pitch": 57, "duration": 461, "velocity": 101}, {"time": 41280, "pitch": 61, "duration": 461, "velocity": 106}, {"time": 41280, "pitch": 64, "duration": 461, "velocity": 111}, {"time": 41280, "pitch": 69, "duration": 461, "velocity": 106}, {"time": 41523, "pitch": 52, "duration": 131, "velocity": 86}, {"time": 41679, "pitch": 52, "duration": 233, "velocity": 75}, {"time": 41759, "pitch": 45, "duration": 461, "velocity": 80}, {"time": 41761, "pitch": 57, "duration": 461, "velocity": 100}, {"time": 41761, "pitch": 61, "duration": 461, "velocity": 108}, {"time": 41761, "pitch": 64, "duration": 461, "velocity": 113}, {"time": 41761, "pitch": 69, "duration": 461, "velocity": 108}, {"time": 42240, "pitch": 45, "duration": 120, "velocity": 80}, {"time": 42240, "pitch": 57, "duration": 120, "velocity": 70}, {"time": 42240, "pitch": 61, "duration": 120, "velocity": 96}, {"time": 42240, "pitch": 64, "duration": 120, "velocity": 101}, {"time": 42240, "pitch": 69, "duration": 120, "velocity": 106}, {"time": 42400, "pitch": 45, "duration": 70, "velocity": 75}, {"time": 42400, "pitch": 57, "duration": 70, "velocity": 70}, {"time": 42400, "pitch": 61, "duration": 70, "velocity": 91}, {"time": 42400, "pitch": 64, "duration": 70, "velocity": 96}, {"time": 42400, "pitch": 69, "duration": 70, "velocity": 101}, {"time": 42480, "pitch": 45, "duration": 161, "velocity": 80}, {"time": 42480, "pitch": 57, "duration": 161, "velocity": 91}, {"time": 42480, "pitch": 61, "duration": 161, "velocity": 96}, {"time": 42480, "pitch": 64, "duration": 161, "velocity": 101}, {"time": 42721, "pitch": 50, "duration": 925, "velocity": 70}, {"time": 42721, "pitch": 57, "duration": 926, "velocity": 95}, {"time": 42721, "pitch": 62, "duration": 453, "velocity": 85}, {"time": 42721, "pitch": 64, "duration": 459, "velocity": 100}, {"time": 42721, "pitch": 66, "duration": 930, "velocity": 105}, {"time": 43202, "pitch": 62, "duration": 464, "velocity": 94}, {"time": 43202, "pitch": 64, "duration": 458, "velocity": 99}, {"time": 43677, "pitch": 50, "duration": 908, "velocity": 68}, {"time": 43677, "pitch": 57, "duration": 912, "velocity": 88}, {"time": 43677, "pitch": 66, "duration": 215, "velocity": 103}, {"time": 43678, "pitch": 62, "duration": 215, "velocity": 88}, {"time": 43678, "pitch": 64, "duration": 215, "velocity": 98}, {"time": 43920, "pitch": 66, "duration": 671, "velocity": 95}, {"time": 43921, "pitch": 62, "duration": 656, "velocity": 90}, {"time": 44639, "pitch": 47, "duration": 939, "velocity": 70}, {"time": 44639, "pitch": 57, "duration": 916, "velocity": 95}, {"time": 44639, "pitch": 62, "duration": 454, "velocity": 85}, {"time": 44639, "pitch": 64, "duration": 460, "velocity": 100}, {"time": 44639, "pitch": 66, "duration": 934, "velocity": 105}, {"time": 45121, "pitch": 62, "duration": 458, "velocity": 99}, {"time": 45121, "pitch": 64, "duration": 451, "velocity": 104}, {"time": 45602, "pitch": 47, "duration": 895, "velocity": 70}, {"time": 45602, "pitch": 57, "duration": 899, "velocity": 88}, {"time": 45602, "pitch": 66, "duration": 202, "velocity": 103}, {"time": 45603, "pitch": 62, "duration": 202, "velocity": 88}, {"time": 45603, "pitch": 64, "duration": 202, "velocity": 98}, {"time": 45844, "pitch": 66, "duration": 657, "velocity": 95}, {"time": 45845, "pitch": 62, "duration": 657, "velocity": 90}, {"time": 46558, "pitch": 43, "duration": 1914, "velocity": 70}, {"time": 46558, "pitch": 55, "duration": 928, "velocity": 95}, {"time": 46558, "pitch": 58, "duration": 449, "velocity": 90}, {"time": 46558, "pitch": 62, "duration": 456, "velocity": 85}, {"time": 46558, "pitch": 67, "duration": 447, "velocity": 100}, {"time": 47040, "pitch": 62, "duration": 459, "velocity": 85}, {"time": 47041, "pitch": 58, "duration": 449, "velocity": 90}, {"time": 47041, "pitch": 67, "duration": 443, "velocity": 100}, {"time": 47520, "pitch": 55, "duration": 922, "velocity": 95}, {"time": 47520, "pitch": 58, "duration": 201, "velocity": 93}, {"time": 47520, "pitch": 62, "duration": 201, "velocity": 83}, {"time": 47520, "pitch": 67, "duration": 201, "velocity": 103}, {"time": 47761, "pitch": 58, "duration": 704, "velocity": 80}, {"time": 47761, "pitch": 62, "duration": 707, "velocity": 75}, {"time": 47762, "pitch": 67, "duration": 699, "velocity": 92}, {"time": 48482, "pitch": 64, "duration": 454, "velocity": 101}, {"time": 48483, "pitch": 55, "duration": 456, "velocity": 88}, {"time": 48483, "pitch": 61, "duration": 456, "velocity": 96}, {"time": 48484, "pitch": 45, "duration": 937, "velocity": 70}, {"time": 48958, "pitch": 64, "duration": 451, "velocity": 106}, {"time": 48959, "pitch": 55, "duration": 461, "velocity": 84}, {"time": 48959, "pitch": 61, "duration": 461, "velocity": 101}, {"time": 49439, "pitch": 62, "duration": 461, "velocity": 101}, {"time": 49440, "pitch": 55, "duration": 461, "velocity": 96}, {"time": 49440, "pitch": 64, "duration": 461, "velocity": 88}, {"time": 49441, "pitch": 45, "duration": 942, "velocity": 70}, {"time": 49920, "pitch": 61, "duration": 461, "velocity": 101}, {"time": 49920, "pitch": 64, "duration": 461, "velocity": 106}, {"time": 49921, "pitch": 55, "duration": 461, "velocity": 93}, {"time": 50401, "pitch": 50, "duration": 909, "velocity": 70}, {"time": 50401, "pitch": 57, "duration": 926, "velocity": 95}, {"time": 50401, "pitch": 62, "duration": 453, "velocity": 85}, {"time": 50401, "pitch": 64, "duration": 459, "velocity": 100}, {"time": 50401, "pitch": 66, "duration": 930, "velocity": 105}, {"time": 50882, "pitch": 62, "duration": 464, "velocity": 94}, {"time": 50882, "pitch": 64, "duration": 457, "velocity": 99}, {"time": 51357, "pitch": 50, "duration": 910, "velocity": 65}, {"time": 51357, "pitch": 57, "duration": 912, "velocity": 88}, {"time": 51357, "pitch": 66, "duration": 215, "velocity": 103}, {"time": 51358, "pitch": 62, "duration": 215, "velocity": 88}, {"time": 51358, "pitch": 64, "duration": 215, "velocity": 98}, {"time": 51600, "pitch": 66, "duration": 671, "velocity": 95}, {"time": 51601, "pitch": 62, "duration": 656, "velocity": 90}, {"time": 52319, "pitch": 47, "duration": 931, "velocity": 70}, {"time": 52319, "pitch": 57, "duration": 915, "velocity": 95}, {"time": 52319, "pitch": 62, "duration": 453, "velocity": 85}, {"time": 52319, "pitch": 64, "duration": 459, "velocity": 100}, {"time": 52319, "pitch": 66, "duration": 934, "velocity": 105}, {"time": 52801, "pitch": 62, "duration": 458, "velocity": 99}, {"time": 52801, "pitch": 64, "duration": 451, "velocity": 104}, {"time": 53282, "pitch": 47, "duration": 910, "velocity": 70}, {"time": 53282, "pitch": 57, "duration": 899, "velocity": 88}, {"time": 53282, "pitch": 66, "duration": 202, "velocity": 103}, {"time": 53283, "pitch": 62, "duration": 202, "velocity": 88}, {"time": 53283, "pitch": 64, "duration": 202, "velocity": 98}, {"time": 53524, "pitch": 66, "duration": 657, "velocity": 95}, {"time": 53525, "pitch": 62, "duration": 657, "velocity": 90}, {"time": 54238, "pitch": 62, "duration": 449, "velocity": 95}, {"time": 54238, "pitch": 67, "duration": 441, "velocity": 100}, {"time": 54239, "pitch": 55, "duration": 934, "velocity": 85}, {"time": 54239, "pitch": 58, "duration": 461, "velocity": 90}, {"time": 54240, "pitch": 50, "duration": 942, "velocity": 70}, {"time": 54719, "pitch": 62, "duration": 465, "velocity": 95}, {"time": 54720, "pitch": 58, "duration": 461, "velocity": 87}, {"time": 54723, "pitch": 67, "duration": 461, "velocity": 100}, {"time": 55200, "pitch": 62, "duration": 461, "velocity": 95}, {"time": 55200, "pitch": 67, "duration": 461, "velocity": 100}, {"time": 55201, "pitch": 55, "duration": 942, "velocity": 85}, {"time": 55201, "pitch": 59, "duration": 461, "velocity": 90}, {"time": 55202, "pitch": 45, "duration": 910, "velocity": 70}, {"time": 55681, "pitch": 61, "duration": 461, "velocity": 95}, {"time": 55681, "pitch": 66, "duration": 461, "velocity": 100}, {"time": 55682, "pitch": 57, "duration": 461, "velocity": 90}, {"time": 56162, "pitch": 57, "duration": 1835, "velocity": 90}, {"time": 56162, "pitch": 64, "duration": 1835, "velocity": 100}, {"time": 56162, "pitch": 66, "duration": 1835, "velocity": 105}, {"time": 56164, "pitch": 50, "duration": 1889, "velocity": 70}, {"time": 58081, "pitch": 57, "duration": 1834, "velocity": 100}, {"time": 58081, "pitch": 62, "duration": 1834, "velocity": 105}, {"time": 58081, "pitch": 64, "duration": 1834, "velocity": 110}, {"time": 58083, "pitch": 48, "duration": 1888, "velocity": 80}, {"time": 59999, "pitch": 57, "duration": 1836, "velocity": 100}, {"time": 59999, "pitch": 62, "duration": 1836, "velocity": 105}, {"time": 59999, "pitch": 64, "duration": 1836, "velocity": 110}, {"time": 60001, "pitch": 47, "duration": 1889, "velocity": 80}, {"time": 61918, "pitch": 43, "duration": 120, "velocity": 75}, {"time": 61918, "pitch": 53, "duration": 120, "velocity": 95}, {"time": 61918, "pitch": 58, "duration": 100, "velocity": 100}, {"time": 61918, "pitch": 62, "duration": 120, "velocity": 105}, {"time": 62158, "pitch": 43, "duration": 231, "velocity": 75}, {"time": 62158, "pitch": 53, "duration": 231, "velocity": 95}, {"time": 62158, "pitch": 58, "duration": 231, "velocity": 100}, {"time": 62158, "pitch": 62, "duration": 231, "velocity": 100}, {"time": 62639, "pitch": 45, "duration": 1177, "velocity": 80}, {"time": 62639, "pitch": 55, "duration": 1134, "velocity": 95}, {"time": 62639, "pitch": 59, "duration": 1133, "velocity": 100}, {"time": 62639, "pitch": 62, "duration": 1122, "velocity": 105}, {"time": 63842, "pitch": 50, "duration": 924, "velocity": 75}, {"time": 63842, "pitch": 64, "duration": 469, "velocity": 90}, {"time": 63842, "pitch": 66, "duration": 456, "velocity": 95}, {"time": 63842, "pitch": 69, "duration": 470, "velocity": 100}, {"time": 63846, "pitch": 57, "duration": 456, "velocity": 85}, {"time": 64317, "pitch": 57, "duration": 461, "velocity": 75}, {"time": 64317, "pitch": 64, "duration": 461, "velocity": 85}, {"time": 64317, "pitch": 69, "duration": 461, "velocity": 97}, {"time": 64318, "pitch": 66, "duration": 461, "velocity": 90}, {"time": 64799, "pitch": 48, "duration": 937, "velocity": 80}, {"time": 64799, "pitch": 57, "duration": 461, "velocity": 85}, {"time": 64799, "pitch": 62, "duration": 461, "velocity": 90}, {"time": 64799, "pitch": 66, "duration": 461, "velocity": 95}, {"time": 64800, "pitch": 69, "duration": 461, "velocity": 100}, {"time": 65280, "pitch": 62, "duration": 461, "velocity": 90}, {"time": 65280, "pitch": 66, "duration": 461, "velocity": 95}, {"time": 65281, "pitch": 57, "duration": 461, "velocity": 80}, {"time": 65281, "pitch": 69, "duration": 461, "velocity": 100}, {"time": 65761, "pitch": 47, "duration": 932, "velocity": 85}, {"time": 65761, "pitch": 57, "duration": 461, "velocity": 75}, {"time": 65761, "pitch": 64, "duration": 461, "velocity": 90}, {"time": 65761, "pitch": 66, "duration": 461, "velocity": 95}, {"time": 65761, "pitch": 69, "duration": 461, "velocity": 100}, {"time": 66242, "pitch": 57, "duration": 461, "velocity": 75}, {"time": 66242, "pitch": 64, "duration": 461, "velocity": 85}, {"time": 66242, "pitch": 66, "duration": 461, "velocity": 90}, {"time": 66242, "pitch": 69, "duration": 461, "velocity": 95}, {"time": 66723, "pitch": 45, "duration": 910, "velocity": 75}, {"time": 66723, "pitch": 57, "duration": 470, "velocity": 85}, {"time": 66723, "pitch": 62, "duration": 466, "velocity": 90}, {"time": 66723, "pitch": 66, "duration": 470, "velocity": 95}, {"time": 66724, "pitch": 69, "duration": 924, "velocity": 100}, {"time": 67198, "pitch": 57, "duration": 443, "velocity": 80}, {"time": 67198, "pitch": 62, "duration": 432, "velocity": 85}, {"time": 67198, "pitch": 66, "duration": 433, "velocity": 90}, {"time": 67679, "pitch": 43, "duration": 1881, "velocity": 75}, {"time": 67679, "pitch": 55, "duration": 1418, "velocity": 85}, {"time": 67679, "pitch": 62, "duration": 461, "velocity": 90}, {"time": 67679, "pitch": 66, "duration": 461, "velocity": 95}, {"time": 67679, "pitch": 69, "duration": 461, "velocity": 100}, {"time": 68160, "pitch": 62, "duration": 221, "velocity": 85}, {"time": 68160, "pitch": 66, "duration": 221, "velocity": 95}, {"time": 68160, "pitch": 69, "duration": 221, "velocity": 90}, {"time": 68410, "pitch": 59, "duration": 701, "velocity": 85}, {"time": 68410, "pitch": 62, "duration": 696, "velocity": 90}, {"time": 68410, "pitch": 67, "duration": 1147, "velocity": 95}, {"time": 69122, "pitch": 55, "duration": 456, "velocity": 70}, {"time": 69122, "pitch": 59, "duration": 456, "velocity": 80}, {"time": 69122, "pitch": 62, "duration": 456, "velocity": 85}, {"time": 69598, "pitch": 43, "duration": 1859, "velocity": 75}, {"time": 69598, "pitch": 55, "duration": 1429, "velocity": 75}, {"time": 69598, "pitch": 58, "duration": 1392, "velocity": 90}, {"time": 69598, "pitch": 62, "duration": 442, "velocity": 95}, {"time": 69598, "pitch": 64, "duration": 447, "velocity": 100}, {"time": 69598, "pitch": 67, "duration": 447, "velocity": 100}, {"time": 70079, "pitch": 62, "duration": 220, "velocity": 80}, {"time": 70079, "pitch": 64, "duration": 220, "velocity": 85}, {"time": 70081, "pitch": 67, "duration": 220, "velocity": 90}, {"time": 70319, "pitch": 62, "duration": 702, "velocity": 95}, {"time": 70319, "pitch": 70, "duration": 1183, "velocity": 90}, {"time": 70324, "pitch": 67, "duration": 1173, "velocity": 85}, {"time": 71041, "pitch": 55, "duration": 461, "velocity": 70}, {"time": 71041, "pitch": 58, "duration": 458, "velocity": 85}, {"time": 71041, "pitch": 62, "duration": 465, "velocity": 80}, {"time": 71522, "pitch": 50, "duration": 1879, "velocity": 75}, {"time": 71522, "pitch": 57, "duration": 456, "velocity": 90}, {"time": 71522, "pitch": 62, "duration": 465, "velocity": 95}, {"time": 71522, "pitch": 64, "duration": 456, "velocity": 100}, {"time": 71522, "pitch": 69, "duration": 696, "velocity": 85}, {"time": 72002, "pitch": 57, "duration": 943, "velocity": 80}, {"time": 72002, "pitch": 62, "duration": 221, "velocity": 90}, {"time": 72002, "pitch": 64, "duration": 221, "velocity": 95}, {"time": 72238, "pitch": 62, "duration": 703, "velocity": 90}, {"time": 72238, "pitch": 64, "duration": 1183, "velocity": 85}, {"time": 72238, "pitch": 66, "duration": 1183, "velocity": 95}, {"time": 72960, "pitch": 57, "duration": 461, "velocity": 85}, {"time": 72960, "pitch": 62, "duration": 461, "velocity": 90}, {"time": 73441, "pitch": 50, "duration": 1878, "velocity": 75}, {"time": 73441, "pitch": 57, "duration": 461, "velocity": 90}, {"time": 73441, "pitch": 62, "duration": 471, "velocity": 95}, {"time": 73441, "pitch": 64, "duration": 461, "velocity": 100}, {"time": 73441, "pitch": 69, "duration": 715, "velocity": 85}, {"time": 73927, "pitch": 57, "duration": 699, "velocity": 80}, {"time": 73927, "pitch": 62, "duration": 220, "velocity": 90}, {"time": 73927, "pitch": 64, "duration": 220, "velocity": 95}, {"time": 74162, "pitch": 62, "duration": 696, "velocity": 90}, {"time": 74162, "pitch": 64, "duration": 1177, "velocity": 85}, {"time": 74162, "pitch": 66, "duration": 707, "velocity": 95}, {"time": 74640, "pitch": 57, "duration": 689, "velocity": 72}, {"time": 74880, "pitch": 62, "duration": 441, "velocity": 80}, {"time": 74880, "pitch": 67, "duration": 441, "velocity": 88}, {"time": 75359, "pitch": 50, "duration": 930, "velocity": 75}, {"time": 75359, "pitch": 64, "duration": 474, "velocity": 90}, {"time": 75359, "pitch": 66, "duration": 461, "velocity": 95}, {"time": 75359, "pitch": 69, "duration": 475, "velocity": 100}, {"time": 75363, "pitch": 57, "duration": 461, "velocity": 85}, {"time": 75840, "pitch": 57, "duration": 461, "velocity": 75}, {"time": 75840, "pitch": 64, "duration": 461, "velocity": 85}, {"time": 75840, "pitch": 69, "duration": 461, "velocity": 97}, {"time": 75841, "pitch": 66, "duration": 461, "velocity": 90}, {"time": 76321, "pitch": 48, "duration": 932, "velocity": 80}, {"time": 76321, "pitch": 57, "duration": 461, "velocity": 85}, {"time": 76321, "pitch": 62, "duration": 461, "velocity": 90}, {"time": 76321, "pitch": 66, "duration": 461, "velocity": 95}, {"time": 76322, "pitch": 69, "duration": 461, "velocity": 100}, {"time": 76802, "pitch": 62, "duration": 456, "velocity": 90}, {"time": 76802, "pitch": 66, "duration": 456, "velocity": 95}, {"time": 76803, "pitch": 57, "duration": 456, "velocity": 80}, {"time": 76803, "pitch": 69, "duration": 456, "velocity": 100}, {"time": 77278, "pitch": 47, "duration": 932, "velocity": 85}, {"time": 77278, "pitch": 57, "duration": 461, "velocity": 75}, {"time": 77278, "pitch": 64, "duration": 461, "velocity": 90}, {"time": 77278, "pitch": 66, "duration": 461, "velocity": 95}, {"time": 77278, "pitch": 69, "duration": 461, "velocity": 100}, {"time": 77759, "pitch": 57, "duration": 461, "velocity": 75}, {"time": 77759, "pitch": 64, "duration": 461, "velocity": 85}, {"time": 77759, "pitch": 66, "duration": 461, "velocity": 90}, {"time": 77759, "pitch": 69, "duration": 461, "velocity": 95}, {"time": 78240, "pitch": 45, "duration": 916, "velocity": 75}, {"time": 78240, "pitch": 57, "duration": 476, "velocity": 85}, {"time": 78240, "pitch": 62, "duration": 472, "velocity": 90}, {"time": 78240, "pitch": 66, "duration": 476, "velocity": 95}, {"time": 78241, "pitch": 69, "duration": 930, "velocity": 100}, {"time": 78721, "pitch": 57, "duration": 443, "velocity": 80}, {"time": 78721, "pitch": 62, "duration": 432, "velocity": 85}, {"time": 78721, "pitch": 66, "duration": 433, "velocity": 90}, {"time": 79202, "pitch": 43, "duration": 1852, "velocity": 80}, {"time": 79202, "pitch": 55, "duration": 1419, "velocity": 85}, {"time": 79202, "pitch": 58, "duration": 456, "velocity": 90}, {"time": 79202, "pitch": 62, "duration": 456, "velocity": 85}, {"time": 79202, "pitch": 64, "duration": 456, "velocity": 95}, {"time": 79202, "pitch": 69, "duration": 456, "velocity": 100}, {"time": 79677, "pitch": 58, "duration": 221, "velocity": 85}, {"time": 79677, "pitch": 62, "duration": 221, "velocity": 85}, {"time": 79677, "pitch": 64, "duration": 221, "velocity": 90}, {"time": 79677, "pitch": 69, "duration": 221, "velocity": 95}, {"time": 79928, "pitch": 58, "duration": 701, "velocity": 80}, {"time": 79928, "pitch": 62, "duration": 703, "velocity": 85}, {"time": 79928, "pitch": 67, "duration": 1143, "velocity": 90}, {"time": 80639, "pitch": 55, "duration": 451, "velocity": 70}, {"time": 80639, "pitch": 58, "duration": 428, "velocity": 80}, {"time": 80639, "pitch": 62, "duration": 438, "velocity": 85}, {"time": 81121, "pitch": 43, "duration": 1859, "velocity": 75}, {"time": 81121, "pitch": 55, "duration": 1878, "velocity": 75}, {"time": 81121, "pitch": 58, "duration": 1427, "velocity": 90}, {"time": 81121, "pitch": 62, "duration": 460, "velocity": 95}, {"time": 81121, "pitch": 64, "duration": 464, "velocity": 95}, {"time": 81121, "pitch": 67, "duration": 464, "velocity": 100}, {"time": 81602, "pitch": 62, "duration": 220, "velocity": 80}, {"time": 81602, "pitch": 64, "duration": 220, "velocity": 85}, {"time": 81602, "pitch": 67, "duration": 220, "velocity": 90}, {"time": 81852, "pitch": 62, "duration": 706, "velocity": 80}, {"time": 81852, "pitch": 67, "duration": 706, "velocity": 85}, {"time": 81852, "pitch": 70, "duration": 1177, "velocity": 90}, {"time": 82558, "pitch": 58, "duration": 471, "velocity": 80}, {"time": 82559, "pitch": 64, "duration": 461, "velocity": 85}, {"time": 82560, "pitch": 67, "duration": 461, "velocity": 90}, {"time": 83039, "pitch": 50, "duration": 1879, "velocity": 75}, {"time": 83039, "pitch": 57, "duration": 461, "velocity": 90}, {"time": 83039, "pitch": 62, "duration": 471, "velocity": 95}, {"time": 83039, "pitch": 64, "duration": 461, "velocity": 100}, {"time": 83039, "pitch": 69, "duration": 702, "velocity": 85}, {"time": 83525, "pitch": 57, "duration": 942, "velocity": 80}, {"time": 83525, "pitch": 62, "duration": 221, "velocity": 90}, {"time": 83525, "pitch": 64, "duration": 221, "velocity": 95}, {"time": 83771, "pitch": 62, "duration": 702, "velocity": 90}, {"time": 83771, "pitch": 64, "duration": 1177, "velocity": 85}, {"time": 83771, "pitch": 66, "duration": 1177, "velocity": 95}, {"time": 84482, "pitch": 57, "duration": 456, "velocity": 85}, {"time": 84482, "pitch": 62, "duration": 456, "velocity": 90}, {"time": 84958, "pitch": 50, "duration": 1267, "velocity": 80}, {"time": 84958, "pitch": 57, "duration": 711, "velocity": 80}, {"time": 84958, "pitch": 62, "duration": 473, "velocity": 90}, {"time": 84958, "pitch": 64, "duration": 477, "velocity": 95}, {"time": 84958, "pitch": 67, "duration": 478, "velocity": 100}, {"time": 85439, "pitch": 62, "duration": 238, "velocity": 85}, {"time": 85439, "pitch": 64, "duration": 224, "velocity": 90}, {"time": 85439, "pitch": 67, "duration": 229, "velocity": 95}, {"time": 85684, "pitch": 62, "duration": 1099, "velocity": 90}, {"time": 85689, "pitch": 57, "duration": 1112, "velocity": 85}, {"time": 85689, "pitch": 66, "duration": 1139, "velocity": 95}, {"time": 86165, "pitch": 45, "duration": 231, "velocity": 88}, {"time": 86408, "pitch": 50, "duration": 150, "velocity": 85}, {"time": 86561, "pitch": 50, "duration": 70, "velocity": 70}, {"time": 86641, "pitch": 49, "duration": 161, "velocity": 89}, {"time": 86882, "pitch": 47, "duration": 444, "velocity": 80}, {"time": 86882, "pitch": 57, "duration": 455, "velocity": 90}, {"time": 86882, "pitch": 62, "duration": 455, "velocity": 95}, {"time": 86882, "pitch": 66, "duration": 455, "velocity": 100}, {"time": 86882, "pitch": 69, "duration": 455, "velocity": 105}, {"time": 87357, "pitch": 47, "duration": 461, "velocity": 75}, {"time": 87357, "pitch": 57, "duration": 461, "velocity": 85}, {"time": 87357, "pitch": 62, "duration": 461, "velocity": 90}, {"time": 87357, "pitch": 66, "duration": 461, "velocity": 95}, {"time": 87357, "pitch": 69, "duration": 461, "velocity": 100}, {"time": 87838, "pitch": 47, "duration": 461, "velocity": 75}, {"time": 87838, "pitch": 57, "duration": 461, "velocity": 85}, {"time": 87838, "pitch": 62, "duration": 461, "velocity": 90}, {"time": 87838, "pitch": 66, "duration": 461, "velocity": 95}, {"time": 87838, "pitch": 69, "duration": 461, "velocity": 100}, {"time": 88319, "pitch": 47, "duration": 461, "velocity": 75}, {"time": 88319, "pitch": 57, "duration": 161, "velocity": 85}, {"time": 88319, "pitch": 62, "duration": 151, "velocity": 90}, {"time": 88319, "pitch": 66, "duration": 231, "velocity": 85}, {"time": 88319, "pitch": 69, "duration": 461, "velocity": 85}, {"time": 88480, "pitch": 62, "duration": 160, "velocity": 90}, {"time": 88565, "pitch": 66, "duration": 230, "velocity": 85}, {"time": 88800, "pitch": 45, "duration": 462, "velocity": 80}, {"time": 88800, "pitch": 57, "duration": 462, "velocity": 90}, {"time": 88800, "pitch": 61, "duration": 462, "velocity": 95}, {"time": 88800, "pitch": 64, "duration": 462, "velocity": 100}, {"time": 88800, "pitch": 69, "duration": 462, "velocity": 105}, {"time": 89282, "pitch": 45, "duration": 461, "velocity": 80}, {"time": 89282, "pitch": 57, "duration": 461, "velocity": 90}, {"time": 89282, "pitch": 61, "duration": 461, "velocity": 95}, {"time": 89282, "pitch": 64, "duration": 461, "velocity": 100}, {"time": 89282, "pitch": 69, "duration": 461, "velocity": 105}, {"time": 89763, "pitch": 45, "duration": 455, "velocity": 80}, {"time": 89763, "pitch": 57, "duration": 455, "velocity": 85}, {"time": 89763, "pitch": 61, "duration": 455, "velocity": 95}, {"time": 89763, "pitch": 64, "duration": 455, "velocity": 100}, {"time": 89773, "pitch": 69, "duration": 918, "velocity": 95}, {"time": 90238, "pitch": 45, "duration": 461, "velocity": 80}, {"time": 90238, "pitch": 57, "duration": 461, "velocity": 90}, {"time": 90238, "pitch": 61, "duration": 171, "velocity": 95}, {"time": 90238, "pitch": 64, "duration": 160, "velocity": 90}, {"time": 90398, "pitch": 62, "duration": 121, "velocity": 85}, {"time": 90483, "pitch": 61, "duration": 211, "velocity": 80}, {"time": 90719, "pitch": 43, "duration": 461, "velocity": 80}, {"time": 90719, "pitch": 55, "duration": 461, "velocity": 90}, {"time": 90719, "pitch": 59, "duration": 461, "velocity": 95}, {"time": 90719, "pitch": 62, "duration": 461, "velocity": 100}, {"time": 90719, "pitch": 67, "duration": 461, "velocity": 105}, {"time": 91200, "pitch": 43, "duration": 461, "velocity": 80}, {"time": 91200, "pitch": 55, "duration": 461, "velocity": 90}, {"time": 91200, "pitch": 59, "duration": 461, "velocity": 95}, {"time": 91200, "pitch": 62, "duration": 461, "velocity": 100}, {"time": 91200, "pitch": 67, "duration": 461, "velocity": 105}, {"time": 91681, "pitch": 43, "duration": 461, "velocity": 80}, {"time": 91681, "pitch": 55, "duration": 461, "velocity": 85}, {"time": 91681, "pitch": 59, "duration": 461, "velocity": 95}, {"time": 91681, "pitch": 62, "duration": 461, "velocity": 100}, {"time": 91691, "pitch": 67, "duration": 461, "velocity": 95}, {"time": 92162, "pitch": 43, "duration": 446, "velocity": 70}, {"time": 92162, "pitch": 55, "duration": 446, "velocity": 80}, {"time": 92162, "pitch": 62, "duration": 446, "velocity": 80}, {"time": 92162, "pitch": 67, "duration": 446, "velocity": 85}, {"time": 92162, "pitch": 71, "duration": 446, "velocity": 86}, {"time": 92639, "pitch": 50, "duration": 938, "velocity": 80}, {"time": 92640, "pitch": 57, "duration": 938, "velocity": 85}, {"time": 92640, "pitch": 64, "duration": 938, "velocity": 90}, {"time": 92640, "pitch": 66, "duration": 938, "velocity": 95}, {"time": 92641, "pitch": 69, "duration": 938, "velocity": 100}, {"time": 93600, "pitch": 50, "duration": 461, "velocity": 80}, {"time": 93601, "pitch": 57, "duration": 461, "velocity": 85}, {"time": 93601, "pitch": 64, "duration": 461, "velocity": 90}, {"time": 93601, "pitch": 66, "duration": 461, "velocity": 95}, {"time": 93602, "pitch": 69, "duration": 461, "velocity": 100}, {"time": 94082, "pitch": 57, "duration": 453, "velocity": 85}, {"time": 94082, "pitch": 64, "duration": 230, "velocity": 90}, {"time": 94082, "pitch": 66, "duration": 226, "velocity": 95}, {"time": 94083, "pitch": 69, "duration": 230, "velocity": 100}, {"time": 94321, "pitch": 50, "duration": 151, "velocity": 75}, {"time": 94322, "pitch": 64, "duration": 223, "velocity": 90}, {"time": 94322, "pitch": 66, "duration": 223, "velocity": 95}, {"time": 94323, "pitch": 69, "duration": 223, "velocity": 95}, {"time": 94562, "pitch": 52, "duration": 455, "velocity": 80}, {"time": 94562, "pitch": 59, "duration": 455, "velocity": 90}, {"time": 94562, "pitch": 62, "duration": 455, "velocity": 95}, {"time": 94563, "pitch": 67, "duration": 455, "velocity": 100}, {"time": 95037, "pitch": 52, "duration": 461, "velocity": 80}, {"time": 95037, "pitch": 59, "duration": 461, "velocity": 95}, {"time": 95037, "pitch": 62, "duration": 461, "velocity": 100}, {"time": 95037, "pitch": 67, "duration": 461, "velocity": 105}, {"time": 95518, "pitch": 47, "duration": 461, "velocity": 80}, {"time": 95518, "pitch": 59, "duration": 461, "velocity": 90}, {"time": 95518, "pitch": 62, "duration": 461, "velocity": 95}, {"time": 95518, "pitch": 67, "duration": 461, "velocity": 100}, {"time": 95759, "pitch": 52, "duration": 200, "velocity": 72}, {"time": 95999, "pitch": 47, "duration": 461, "velocity": 75}, {"time": 95999, "pitch": 59, "duration": 151, "velocity": 90}, {"time": 95999, "pitch": 62, "duration": 461, "velocity": 95}, {"time": 95999, "pitch": 67, "duration": 461, "velocity": 100}, {"time": 96160, "pitch": 59, "duration": 120, "velocity": 85}, {"time": 96240, "pitch": 55, "duration": 170, "velocity": 75}, {"time": 96480, "pitch": 47, "duration": 461, "velocity": 80}, {"time": 96480, "pitch": 57, "duration": 461, "velocity": 90}, {"time": 96480, "pitch": 62, "duration": 461, "velocity": 95}, {"time": 96480, "pitch": 66, "duration": 461, "velocity": 100}, {"time": 96480, "pitch": 69, "duration": 461, "velocity": 105}, {"time": 96961, "pitch": 47, "duration": 462, "velocity": 75}, {"time": 96961, "pitch": 57, "duration": 462, "velocity": 85}, {"time": 96961, "pitch": 62, "duration": 462, "velocity": 90}, {"time": 96961, "pitch": 66, "duration": 462, "velocity": 95}, {"time": 96961, "pitch": 69, "duration": 462, "velocity": 100}, {"time": 97443, "pitch": 47, "duration": 455, "velocity": 80}, {"time": 97443, "pitch": 57, "duration": 455, "velocity": 90}, {"time": 97443, "pitch": 62, "duration": 408, "velocity": 95}, {"time": 97443, "pitch": 66, "duration": 455, "velocity": 100}, {"time": 97685, "pitch": 54, "duration": 218, "velocity": 80}, {"time": 97918, "pitch": 47, "duration": 230, "velocity": 80}, {"time": 97918, "pitch": 57, "duration": 230, "velocity": 90}, {"time": 97918, "pitch": 62, "duration": 150, "velocity": 95}, {"time": 97918, "pitch": 66, "duration": 150, "velocity": 100}, {"time": 98078, "pitch": 62, "duration": 70, "velocity": 95}, {"time": 98078, "pitch": 66, "duration": 70, "velocity": 100}, {"time": 98078, "pitch": 69, "duration": 70, "velocity": 105}, {"time": 98158, "pitch": 47, "duration": 191, "velocity": 80}, {"time": 98158, "pitch": 57, "duration": 191, "velocity": 85}, {"time": 98158, "pitch": 66, "duration": 191, "velocity": 96}, {"time": 98163, "pitch": 62, "duration": 183, "velocity": 90}, {"time": 98399, "pitch": 45, "duration": 461, "velocity": 80}, {"time": 98401, "pitch": 57, "duration": 220, "velocity": 95}, {"time": 98401, "pitch": 61, "duration": 445, "velocity": 100}, {"time": 98401, "pitch": 64, "duration": 463, "velocity": 105}, {"time": 98401, "pitch": 69, "duration": 475, "velocity": 100}, {"time": 98644, "pitch": 57, "duration": 217, "velocity": 85}, {"time": 98649, "pitch": 52, "duration": 221, "velocity": 80}, {"time": 98880, "pitch": 45, "duration": 220, "velocity": 80}, {"time": 98880, "pitch": 57, "duration": 465, "velocity": 91}, {"time": 98880, "pitch": 61, "duration": 465, "velocity": 86}, {"time": 98880, "pitch": 64, "duration": 465, "velocity": 101}, {"time": 98880, "pitch": 69, "duration": 452, "velocity": 106}, {"time": 99121, "pitch": 45, "duration": 218, "velocity": 80}, {"time": 99121, "pitch": 52, "duration": 210, "velocity": 80}, {"time": 99361, "pitch": 45, "duration": 461, "velocity": 80}, {"time": 99363, "pitch": 57, "duration": 466, "velocity": 101}, {"time": 99363, "pitch": 61, "duration": 466, "velocity": 106}, {"time": 99363, "pitch": 64, "duration": 466, "velocity": 111}, {"time": 99363, "pitch": 69, "duration": 466, "velocity": 106}, {"time": 99602, "pitch": 52, "duration": 220, "velocity": 80}, {"time": 99842, "pitch": 45, "duration": 446, "velocity": 80}, {"time": 99842, "pitch": 55, "duration": 461, "velocity": 101}, {"time": 99842, "pitch": 59, "duration": 461, "velocity": 106}, {"time": 99842, "pitch": 62, "duration": 461, "velocity": 111}, {"time": 99842, "pitch": 67, "duration": 461, "velocity": 106}, {"time": 100317, "pitch": 45, "duration": 461, "velocity": 80}, {"time": 100319, "pitch": 57, "duration": 461, "velocity": 103}, {"time": 100319, "pitch": 61, "duration": 461, "velocity": 108}, {"time": 100319, "pitch": 64, "duration": 461, "velocity": 113}, {"time": 100319, "pitch": 69, "duration": 461, "velocity": 108}, {"time": 100563, "pitch": 52, "duration": 220, "velocity": 82}, {"time": 100799, "pitch": 45, "duration": 461, "velocity": 80}, {"time": 100801, "pitch": 57, "duration": 461, "velocity": 103}, {"time": 100801, "pitch": 61, "duration": 461, "velocity": 108}, {"time": 100801, "pitch": 64, "duration": 461, "velocity": 113}, {"time": 100801, "pitch": 69, "duration": 461, "velocity": 108}, {"time": 101044, "pitch": 52, "duration": 130, "velocity": 86}, {"time": 101199, "pitch": 52, "duration": 234, "velocity": 75}, {"time": 101280, "pitch": 45, "duration": 461, "velocity": 80}, {"time": 101282, "pitch": 57, "duration": 220, "velocity": 103}, {"time": 101282, "pitch": 61, "duration": 220, "velocity": 108}, {"time": 101282, "pitch": 64, "duration": 220, "velocity": 113}, {"time": 101282, "pitch": 69, "duration": 461, "velocity": 108}, {"time": 101525, "pitch": 57, "duration": 221, "velocity": 80}, {"time": 101525, "pitch": 61, "duration": 221, "velocity": 85}, {"time": 101525, "pitch": 64, "duration": 221, "velocity": 92}, {"time": 101761, "pitch": 45, "duration": 120, "velocity": 70}, {"time": 101761, "pitch": 57, "duration": 120, "velocity": 94}, {"time": 101761, "pitch": 61, "duration": 120, "velocity": 99}, {"time": 101761, "pitch": 64, "duration": 120, "velocity": 104}, {"time": 101761, "pitch": 69, "duration": 120, "velocity": 109}, {"time": 101921, "pitch": 45, "duration": 70, "velocity": 75}, {"time": 101921, "pitch": 57, "duration": 70, "velocity": 73}, {"time": 101921, "pitch": 61, "duration": 70, "velocity": 94}, {"time": 101921, "pitch": 64, "duration": 70, "velocity": 99}, {"time": 101921, "pitch": 69, "duration": 70, "velocity": 104}, {"time": 102001, "pitch": 45, "duration": 161, "velocity": 80}, {"time": 102001, "pitch": 57, "duration": 161, "velocity": 94}, {"time": 102001, "pitch": 61, "duration": 161, "velocity": 99}, {"time": 102001, "pitch": 64, "duration": 161, "velocity": 104}, {"time": 102242, "pitch": 50, "duration": 924, "velocity": 70}, {"time": 102242, "pitch": 57, "duration": 925, "velocity": 95}, {"time": 102242, "pitch": 62, "duration": 453, "velocity": 85}, {"time": 102242, "pitch": 64, "duration": 459, "velocity": 100}, {"time": 102242, "pitch": 66, "duration": 929, "velocity": 105}, {"time": 102723, "pitch": 62, "duration": 464, "velocity": 94}, {"time": 102723, "pitch": 64, "duration": 457, "velocity": 99}, {"time": 103198, "pitch": 50, "duration": 908, "velocity": 68}, {"time": 103198, "pitch": 57, "duration": 912, "velocity": 88}, {"time": 103198, "pitch": 66, "duration": 215, "velocity": 103}, {"time": 103199, "pitch": 62, "duration": 215, "velocity": 88}, {"time": 103199, "pitch": 64, "duration": 215, "velocity": 98}, {"time": 103441, "pitch": 66, "duration": 671, "velocity": 95}, {"time": 103442, "pitch": 62, "duration": 656, "velocity": 90}, {"time": 104160, "pitch": 47, "duration": 938, "velocity": 70}, {"time": 104160, "pitch": 57, "duration": 915, "velocity": 95}, {"time": 104160, "pitch": 62, "duration": 453, "velocity": 85}, {"time": 104160, "pitch": 64, "duration": 459, "velocity": 100}, {"time": 104160, "pitch": 66, "duration": 933, "velocity": 105}, {"time": 104641, "pitch": 62, "duration": 458, "velocity": 99}, {"time": 104641, "pitch": 64, "duration": 451, "velocity": 104}, {"time": 105122, "pitch": 47, "duration": 895, "velocity": 70}, {"time": 105122, "pitch": 57, "duration": 899, "velocity": 88}, {"time": 105122, "pitch": 66, "duration": 200, "velocity": 103}, {"time": 105123, "pitch": 62, "duration": 200, "velocity": 88}, {"time": 105123, "pitch": 64, "duration": 200, "velocity": 98}, {"time": 105362, "pitch": 66, "duration": 659, "velocity": 95}, {"time": 105363, "pitch": 62, "duration": 659, "velocity": 90}, {"time": 106079, "pitch": 43, "duration": 1908, "velocity": 70}, {"time": 106079, "pitch": 55, "duration": 928, "velocity": 95}, {"time": 106079, "pitch": 58, "duration": 449, "velocity": 90}, {"time": 106079, "pitch": 62, "duration": 456, "velocity": 85}, {"time": 106079, "pitch": 67, "duration": 447, "velocity": 100}, {"time": 106561, "pitch": 62, "duration": 459, "velocity": 85}, {"time": 106562, "pitch": 58, "duration": 449, "velocity": 90}, {"time": 106562, "pitch": 67, "duration": 443, "velocity": 100}, {"time": 107041, "pitch": 55, "duration": 917, "velocity": 95}, {"time": 107041, "pitch": 58, "duration": 200, "velocity": 93}, {"time": 107041, "pitch": 62, "duration": 200, "velocity": 83}, {"time": 107041, "pitch": 67, "duration": 200, "velocity": 103}, {"time": 107282, "pitch": 58, "duration": 699, "velocity": 80}, {"time": 107282, "pitch": 62, "duration": 702, "velocity": 75}, {"time": 107283, "pitch": 67, "duration": 694, "velocity": 92}, {"time": 107997, "pitch": 64, "duration": 459, "velocity": 101}, {"time": 107998, "pitch": 55, "duration": 461, "velocity": 88}, {"time": 107998, "pitch": 61, "duration": 461, "velocity": 96}, {"time": 107999, "pitch": 45, "duration": 942, "velocity": 70}, {"time": 108478, "pitch": 64, "duration": 451, "velocity": 106}, {"time": 108479, "pitch": 55, "duration": 461, "velocity": 88}, {"time": 108479, "pitch": 61, "duration": 461, "velocity": 101}, {"time": 108960, "pitch": 62, "duration": 461, "velocity": 105}, {"time": 108961, "pitch": 55, "duration": 461, "velocity": 100}, {"time": 108961, "pitch": 64, "duration": 461, "velocity": 95}, {"time": 108962, "pitch": 45, "duration": 942, "velocity": 70}, {"time": 109441, "pitch": 61, "duration": 461, "velocity": 95}, {"time": 109441, "pitch": 64, "duration": 461, "velocity": 100}, {"time": 109442, "pitch": 55, "duration": 461, "velocity": 85}, {"time": 109922, "pitch": 50, "duration": 909, "velocity": 70}, {"time": 109922, "pitch": 57, "duration": 910, "velocity": 95}, {"time": 109922, "pitch": 62, "duration": 453, "velocity": 85}, {"time": 109922, "pitch": 64, "duration": 459, "velocity": 100}, {"time": 109922, "pitch": 66, "duration": 929, "velocity": 105}, {"time": 110403, "pitch": 62, "duration": 464, "velocity": 94}, {"time": 110403, "pitch": 64, "duration": 457, "velocity": 99}, {"time": 110878, "pitch": 50, "duration": 910, "velocity": 65}, {"time": 110878, "pitch": 57, "duration": 918, "velocity": 88}, {"time": 110878, "pitch": 66, "duration": 221, "velocity": 103}, {"time": 110879, "pitch": 62, "duration": 221, "velocity": 88}, {"time": 110879, "pitch": 64, "duration": 221, "velocity": 98}, {"time": 111121, "pitch": 66, "duration": 671, "velocity": 95}, {"time": 111122, "pitch": 62, "duration": 656, "velocity": 90}, {"time": 111840, "pitch": 47, "duration": 930, "velocity": 70}, {"time": 111840, "pitch": 57, "duration": 907, "velocity": 95}, {"time": 111840, "pitch": 62, "duration": 453, "velocity": 85}, {"time": 111840, "pitch": 64, "duration": 459, "velocity": 100}, {"time": 111840, "pitch": 66, "duration": 933, "velocity": 105}, {"time": 112321, "pitch": 62, "duration": 458, "velocity": 95}, {"time": 112321, "pitch": 64, "duration": 451, "velocity": 100}, {"time": 112802, "pitch": 47, "duration": 911, "velocity": 70}, {"time": 112802, "pitch": 57, "duration": 891, "velocity": 88}, {"time": 112802, "pitch": 66, "duration": 212, "velocity": 103}, {"time": 112803, "pitch": 62, "duration": 212, "velocity": 88}, {"time": 112803, "pitch": 64, "duration": 212, "velocity": 98}, {"time": 113042, "pitch": 66, "duration": 659, "velocity": 95}, {"time": 113043, "pitch": 62, "duration": 659, "velocity": 90}, {"time": 113759, "pitch": 62, "duration": 473, "velocity": 95}, {"time": 113759, "pitch": 67, "duration": 441, "velocity": 100}, {"time": 113760, "pitch": 55, "duration": 461, "velocity": 85}, {"time": 113760, "pitch": 58, "duration": 461, "velocity": 90}, {"time": 113761, "pitch": 50, "duration": 942, "velocity": 70}, {"time": 114240, "pitch": 62, "duration": 465, "velocity": 95}, {"time": 114241, "pitch": 55, "duration": 461, "velocity": 82}, {"time": 114241, "pitch": 58, "duration": 461, "velocity": 87}, {"time": 114244, "pitch": 67, "duration": 461, "velocity": 100}, {"time": 114721, "pitch": 62, "duration": 461, "velocity": 95}, {"time": 114721, "pitch": 67, "duration": 461, "velocity": 100}, {"time": 114722, "pitch": 55, "duration": 909, "velocity": 85}, {"time": 114722, "pitch": 59, "duration": 461, "velocity": 90}, {"time": 114723, "pitch": 45, "duration": 905, "velocity": 70}, {"time": 115202, "pitch": 61, "duration": 455, "velocity": 95}, {"time": 115202, "pitch": 66, "duration": 455, "velocity": 100}, {"time": 115203, "pitch": 57, "duration": 455, "velocity": 90}, {"time": 115677, "pitch": 57, "duration": 461, "velocity": 90}, {"time": 115677, "pitch": 62, "duration": 461, "velocity": 100}, {"time": 115677, "pitch": 66, "duration": 461, "velocity": 105}, {"time": 115679, "pitch": 50, "duration": 461, "velocity": 70}, {"time": 116158, "pitch": 57, "duration": 461, "velocity": 90}, {"time": 116158, "pitch": 62, "duration": 461, "velocity": 100}, {"time": 116158, "pitch": 66, "duration": 461, "velocity": 105}, {"time": 116160, "pitch": 50, "duration": 461, "velocity": 70}, {"time": 116639, "pitch": 57, "duration": 461, "velocity": 90}, {"time": 116639, "pitch": 62, "duration": 461, "velocity": 100}, {"time": 116639, "pitch": 66, "duration": 461, "velocity": 105}, {"time": 116641, "pitch": 50, "duration": 461, "velocity": 70}, {"time": 117121, "pitch": 57, "duration": 461, "velocity": 90}, {"time": 117121, "pitch": 62, "duration": 461, "velocity": 100}, {"time": 117121, "pitch": 66, "duration": 461, "velocity": 105}, {"time": 117123, "pitch": 50, "duration": 461, "velocity": 70}, {"time": 117602, "pitch": 41, "duration": 865, "velocity": 70}, {"time": 117602, "pitch": 60, "duration": 701, "velocity": 90}, {"time": 117602, "pitch": 65, "duration": 705, "velocity": 100}, {"time": 117602, "pitch": 69, "duration": 705, "velocity": 105}, {"time": 117604, "pitch": 53, "duration": 693, "velocity": 80}, {"time": 118320, "pitch": 53, "duration": 218, "velocity": 75}, {"time": 118320, "pitch": 60, "duration": 218, "velocity": 85}, {"time": 118320, "pitch": 65, "duration": 218, "velocity": 90}, {"time": 118320, "pitch": 69, "duration": 218, "velocity": 95}, {"time": 118558, "pitch": 60, "duration": 430, "velocity": 94}, {"time": 118558, "pitch": 65, "duration": 416, "velocity": 90}, {"time": 118558, "pitch": 69, "duration": 403, "velocity": 94}, {"time": 118566, "pitch": 41, "duration": 915, "velocity": 80}, {"time": 118566, "pitch": 53, "duration": 424, "velocity": 79}, {"time": 119039, "pitch": 60, "duration": 231, "velocity": 94}, {"time": 119039, "pitch": 65, "duration": 153, "velocity": 90}, {"time": 119039, "pitch": 69, "duration": 158, "velocity": 92}, {"time": 119044, "pitch": 53, "duration": 406, "velocity": 72}, {"time": 119199, "pitch": 65, "duration": 71, "velocity": 86}, {"time": 119199, "pitch": 69, "duration": 77, "velocity": 94}, {"time": 119199, "pitch": 72, "duration": 71, "velocity": 94}, {"time": 119281, "pitch": 65, "duration": 218, "velocity": 78}, {"time": 119281, "pitch": 69, "duration": 227, "velocity": 73}, {"time": 119282, "pitch": 60, "duration": 228, "velocity": 83}, {"time": 119520, "pitch": 39, "duration": 886, "velocity": 71}, {"time": 119520, "pitch": 51, "duration": 695, "velocity": 75}, {"time": 119520, "pitch": 58, "duration": 717, "velocity": 90}, {"time": 119520, "pitch": 63, "duration": 712, "velocity": 100}, {"time": 119520, "pitch": 67, "duration": 717, "velocity": 105}, {"time": 120242, "pitch": 51, "duration": 207, "velocity": 75}, {"time": 120242, "pitch": 58, "duration": 173, "velocity": 84}, {"time": 120242, "pitch": 63, "duration": 188, "velocity": 86}, {"time": 120242, "pitch": 67, "duration": 184, "velocity": 88}, {"time": 120483, "pitch": 39, "duration": 917, "velocity": 70}, {"time": 120483, "pitch": 58, "duration": 408, "velocity": 95}, {"time": 120483, "pitch": 63, "duration": 405, "velocity": 100}, {"time": 120483, "pitch": 67, "duration": 400, "velocity": 105}, {"time": 120487, "pitch": 51, "duration": 438, "velocity": 76}, {"time": 120958, "pitch": 51, "duration": 421, "velocity": 75}, {"time": 120958, "pitch": 63, "duration": 442, "velocity": 90}, {"time": 120958, "pitch": 67, "duration": 442, "velocity": 100}, {"time": 120959, "pitch": 58, "duration": 439, "velocity": 95}, {"time": 121118, "pitch": 70, "duration": 70, "velocity": 92}, {"time": 121439, "pitch": 49, "duration": 186, "velocity": 75}, {"time": 121439, "pitch": 56, "duration": 177, "velocity": 80}, {"time": 121439, "pitch": 61, "duration": 385, "velocity": 90}, {"time": 121439, "pitch": 65, "duration": 386, "velocity": 95}, {"time": 121439, "pitch": 68, "duration": 380, "velocity": 100}, {"time": 121679, "pitch": 49, "duration": 416, "velocity": 69}, {"time": 121679, "pitch": 56, "duration": 399, "velocity": 77}, {"time": 121920, "pitch": 61, "duration": 416, "velocity": 90}, {"time": 121920, "pitch": 65, "duration": 431, "velocity": 95}, {"time": 121920, "pitch": 68, "duration": 414, "velocity": 100}, {"time": 122160, "pitch": 49, "duration": 413, "velocity": 70}, {"time": 122160, "pitch": 56, "duration": 420, "velocity": 75}, {"time": 122401, "pitch": 61, "duration": 417, "velocity": 95}, {"time": 122401, "pitch": 68, "duration": 445, "velocity": 105}, {"time": 122402, "pitch": 65, "duration": 415, "velocity": 100}, {"time": 122642, "pitch": 49, "duration": 375, "velocity": 70}, {"time": 122642, "pitch": 56, "duration": 390, "velocity": 75}, {"time": 122882, "pitch": 61, "duration": 417, "velocity": 90}, {"time": 122882, "pitch": 65, "duration": 397, "velocity": 95}, {"time": 122882, "pitch": 68, "duration": 420, "velocity": 100}, {"time": 123120, "pitch": 49, "duration": 217, "velocity": 70}, {"time": 123120, "pitch": 56, "duration": 217, "velocity": 75}, {"time": 123357, "pitch": 43, "duration": 221, "velocity": 70}, {"time": 123357, "pitch": 59, "duration": 455, "velocity": 90}, {"time": 123357, "pitch": 62, "duration": 455, "velocity": 100}, {"time": 123357, "pitch": 67, "duration": 455, "velocity": 105}, {"time": 123359, "pitch": 55, "duration": 231, "velocity": 80}, {"time": 123598, "pitch": 43, "duration": 430, "velocity": 73}, {"time": 123598, "pitch": 55, "duration": 421, "velocity": 71}, {"time": 123838, "pitch": 59, "duration": 443, "velocity": 97}, {"time": 123838, "pitch": 62, "duration": 432, "velocity": 94}, {"time": 123838, "pitch": 67, "duration": 432, "velocity": 94}, {"time": 124079, "pitch": 43, "duration": 406, "velocity": 80}, {"time": 124079, "pitch": 55, "duration": 424, "velocity": 79}, {"time": 124319, "pitch": 59, "duration": 430, "velocity": 94}, {"time": 124319, "pitch": 62, "duration": 416, "velocity": 90}, {"time": 124319, "pitch": 67, "duration": 403, "velocity": 94}, {"time": 124560, "pitch": 43, "duration": 375, "velocity": 75}, {"time": 124560, "pitch": 55, "duration": 446, "velocity": 72}, {"time": 124800, "pitch": 59, "duration": 231, "velocity": 94}, {"time": 124800, "pitch": 62, "duration": 154, "velocity": 90}, {"time": 124800, "pitch": 67, "duration": 159, "velocity": 92}, {"time": 124961, "pitch": 62, "duration": 70, "velocity": 86}, {"time": 124961, "pitch": 67, "duration": 76, "velocity": 94}, {"time": 125041, "pitch": 43, "duration": 223, "velocity": 62}, {"time": 125041, "pitch": 55, "duration": 204, "velocity": 73}, {"time": 125042, "pitch": 62, "duration": 218, "velocity": 78}, {"time": 125042, "pitch": 67, "duration": 228, "velocity": 73}, {"time": 125043, "pitch": 59, "duration": 229, "velocity": 83}, {"time": 125282, "pitch": 59, "duration": 461, "velocity": 90}, {"time": 125282, "pitch": 62, "duration": 461, "velocity": 100}, {"time": 125282, "pitch": 67, "duration": 461, "velocity": 105}, {"time": 125284, "pitch": 43, "duration": 461, "velocity": 70}, {"time": 125284, "pitch": 55, "duration": 461, "velocity": 80}, {"time": 125763, "pitch": 59, "duration": 194, "velocity": 90}, {"time": 125763, "pitch": 62, "duration": 194, "velocity": 100}, {"time": 125763, "pitch": 67, "duration": 194, "velocity": 105}, {"time": 125765, "pitch": 43, "duration": 194, "velocity": 70}, {"time": 125765, "pitch": 55, "duration": 194, "velocity": 80}, {"time": 126000, "pitch": 59, "duration": 1148, "velocity": 90}, {"time": 126000, "pitch": 62, "duration": 1148, "velocity": 100}, {"time": 126000, "pitch": 67, "duration": 1148, "velocity": 105}, {"time": 126002, "pitch": 43, "duration": 1148, "velocity": 70}, {"time": 126002, "pitch": 55, "duration": 1148, "velocity": 80}, {"time": 127200, "pitch": 40, "duration": 1877, "velocity": 70}, {"time": 127200, "pitch": 52, "duration": 1866, "velocity": 80}, {"time": 127200, "pitch": 62, "duration": 952, "velocity": 90}, {"time": 127200, "pitch": 67, "duration": 952, "velocity": 95}, {"time": 127200, "pitch": 71, "duration": 1872, "velocity": 100}, {"time": 128172, "pitch": 59, "duration": 906, "velocity": 80}, {"time": 128172, "pitch": 62, "duration": 898, "velocity": 85}, {"time": 128172, "pitch": 67, "duration": 903, "velocity": 90}, {"time": 129119, "pitch": 45, "duration": 1882, "velocity": 64}, {"time": 129119, "pitch": 57, "duration": 686, "velocity": 80}, {"time": 129119, "pitch": 64, "duration": 690, "velocity": 99}, {"time": 129119, "pitch": 67, "duration": 691, "velocity": 104}, {"time": 129119, "pitch": 72, "duration": 704, "velocity": 94}, {"time": 129840, "pitch": 57, "duration": 1151, "velocity": 85}, {"time": 129840, "pitch": 64, "duration": 1151, "velocity": 90}, {"time": 129840, "pitch": 67, "duration": 1150, "velocity": 95}, {"time": 129845, "pitch": 72, "duration": 1136, "velocity": 80}, {"time": 131037, "pitch": 46, "duration": 1860, "velocity": 70}, {"time": 131037, "pitch": 58, "duration": 1674, "velocity": 90}, {"time": 131037, "pitch": 62, "duration": 702, "velocity": 97}, {"time": 131037, "pitch": 65, "duration": 702, "velocity": 105}, {"time": 131037, "pitch": 70, "duration": 702, "velocity": 96}, {"time": 131762, "pitch": 65, "duration": 946, "velocity": 95}, {"time": 131763, "pitch": 62, "duration": 945, "velocity": 90}, {"time": 131764, "pitch": 70, "duration": 939, "velocity": 100}, {"time": 132721, "pitch": 58, "duration": 220, "velocity": 80}, {"time": 132721, "pitch": 62, "duration": 220, "velocity": 90}, {"time": 132721, "pitch": 65, "duration": 220, "velocity": 95}, {"time": 132727, "pitch": 70, "duration": 220, "velocity": 100}, {"time": 132961, "pitch": 43, "duration": 441, "velocity": 70}, {"time": 132961, "pitch": 62, "duration": 461, "velocity": 90}, {"time": 132961, "pitch": 67, "duration": 461, "velocity": 95}, {"time": 132961, "pitch": 71, "duration": 461, "velocity": 105}, {"time": 133202, "pitch": 50, "duration": 210, "velocity": 80}, {"time": 133443, "pitch": 43, "duration": 441, "velocity": 70}, {"time": 133443, "pitch": 62, "duration": 455, "velocity": 90}, {"time": 133443, "pitch": 67, "duration": 455, "velocity": 95}, {"time": 133443, "pitch": 71, "duration": 455, "velocity": 100}, {"time": 133680, "pitch": 50, "duration": 218, "velocity": 80}, {"time": 133918, "pitch": 43, "duration": 430, "velocity": 70}, {"time": 133918, "pitch": 67, "duration": 461, "velocity": 95}, {"time": 133922, "pitch": 62, "duration": 461, "velocity": 90}, {"time": 133922, "pitch": 71, "duration": 461, "velocity": 100}, {"time": 134158, "pitch": 50, "duration": 204, "velocity": 85}, {"time": 134399, "pitch": 43, "duration": 213, "velocity": 78}, {"time": 134399, "pitch": 67, "duration": 461, "velocity": 95}, {"time": 134403, "pitch": 62, "duration": 461, "velocity": 90}, {"time": 134403, "pitch": 71, "duration": 461, "velocity": 100}, {"time": 134639, "pitch": 45, "duration": 161, "velocity": 80}, {"time": 134880, "pitch": 46, "duration": 453, "velocity": 70}, {"time": 134880, "pitch": 63, "duration": 461, "velocity": 95}, {"time": 134880, "pitch": 68, "duration": 461, "velocity": 100}, {"time": 134880, "pitch": 72, "duration": 461, "velocity": 105}, {"time": 135121, "pitch": 53, "duration": 196, "velocity": 80}, {"time": 135361, "pitch": 46, "duration": 449, "velocity": 70}, {"time": 135361, "pitch": 63, "duration": 461, "velocity": 90}, {"time": 135361, "pitch": 68, "duration": 461, "velocity": 95}, {"time": 135361, "pitch": 72, "duration": 461, "velocity": 100}, {"time": 135602, "pitch": 53, "duration": 210, "velocity": 80}, {"time": 135842, "pitch": 46, "duration": 456, "velocity": 75}, {"time": 135842, "pitch": 63, "duration": 456, "velocity": 90}, {"time": 135842, "pitch": 68, "duration": 456, "velocity": 95}, {"time": 135842, "pitch": 72, "duration": 456, "velocity": 100}, {"time": 136080, "pitch": 53, "duration": 200, "velocity": 80}, {"time": 136317, "pitch": 46, "duration": 121, "velocity": 80}, {"time": 136317, "pitch": 63, "duration": 121, "velocity": 90}, {"time": 136317, "pitch": 68, "duration": 121, "velocity": 95}, {"time": 136317, "pitch": 72, "duration": 121, "velocity": 100}, {"time": 136478, "pitch": 46, "duration": 70, "velocity": 75}, {"time": 136478, "pitch": 63, "duration": 70, "velocity": 85}, {"time": 136478, "pitch": 68, "duration": 70, "velocity": 90}, {"time": 136478, "pitch": 72, "duration": 70, "velocity": 95}, {"time": 136558, "pitch": 46, "duration": 160, "velocity": 80}, {"time": 136558, "pitch": 63, "duration": 160, "velocity": 90}, {"time": 136558, "pitch": 68, "duration": 160, "velocity": 95}, {"time": 136558, "pitch": 72, "duration": 160, "velocity": 85}, {"time": 136798, "pitch": 51, "duration": 931, "velocity": 70}, {"time": 136798, "pitch": 58, "duration": 932, "velocity": 95}, {"time": 136798, "pitch": 63, "duration": 454, "velocity": 85}, {"time": 136798, "pitch": 65, "duration": 460, "velocity": 100}, {"time": 136798, "pitch": 67, "duration": 936, "velocity": 105}, {"time": 137280, "pitch": 63, "duration": 470, "velocity": 94}, {"time": 137280, "pitch": 65, "duration": 463, "velocity": 99}, {"time": 137761, "pitch": 51, "duration": 908, "velocity": 68}, {"time": 137761, "pitch": 58, "duration": 912, "velocity": 88}, {"time": 137761, "pitch": 67, "duration": 214, "velocity": 103}, {"time": 137762, "pitch": 63, "duration": 214, "velocity": 88}, {"time": 137762, "pitch": 65, "duration": 214, "velocity": 98}, {"time": 138003, "pitch": 67, "duration": 672, "velocity": 95}, {"time": 138004, "pitch": 63, "duration": 657, "velocity": 90}, {"time": 138723, "pitch": 48, "duration": 932, "velocity": 70}, {"time": 138723, "pitch": 58, "duration": 909, "velocity": 95}, {"time": 138723, "pitch": 63, "duration": 447, "velocity": 85}, {"time": 138723, "pitch": 65, "duration": 453, "velocity": 100}, {"time": 138723, "pitch": 67, "duration": 927, "velocity": 105}, {"time": 139198, "pitch": 63, "duration": 458, "velocity": 99}, {"time": 139198, "pitch": 65, "duration": 451, "velocity": 104}, {"time": 139679, "pitch": 48, "duration": 900, "velocity": 70}, {"time": 139679, "pitch": 58, "duration": 904, "velocity": 88}, {"time": 139679, "pitch": 67, "duration": 203, "velocity": 103}, {"time": 139680, "pitch": 63, "duration": 203, "velocity": 88}, {"time": 139680, "pitch": 65, "duration": 203, "velocity": 98}, {"time": 139922, "pitch": 67, "duration": 661, "velocity": 95}, {"time": 139923, "pitch": 63, "duration": 661, "velocity": 90}, {"time": 140641, "pitch": 59, "duration": 449, "velocity": 90}, {"time": 140641, "pitch": 63, "duration": 456, "velocity": 85}, {"time": 141123, "pitch": 63, "duration": 454, "velocity": 85}, {"time": 141124, "pitch": 59, "duration": 444, "velocity": 90}, {"time": 141124, "pitch": 68, "duration": 438, "velocity": 100}, {"time": 141598, "pitch": 53, "duration": 926, "velocity": 95}, {"time": 141598, "pitch": 59, "duration": 200, "velocity": 93}, {"time": 141598, "pitch": 63, "duration": 200, "velocity": 83}, {"time": 141598, "pitch": 68, "duration": 200, "velocity": 103}, {"time": 141838, "pitch": 59, "duration": 705, "velocity": 80}, {"time": 141838, "pitch": 63, "duration": 708, "velocity": 75}, {"time": 141839, "pitch": 68, "duration": 700, "velocity": 92}, {"time": 142560, "pitch": 65, "duration": 459, "velocity": 101}, {"time": 142562, "pitch": 46, "duration": 942, "velocity": 70}, {"time": 143041, "pitch": 65, "duration": 451, "velocity": 106}, {"time": 143042, "pitch": 56, "duration": 461, "velocity": 88}, {"time": 143042, "pitch": 62, "duration": 461, "velocity": 101}, {"time": 143522, "pitch": 63, "duration": 456, "velocity": 101}, {"time": 143523, "pitch": 56, "duration": 456, "velocity": 96}, {"time": 143523, "pitch": 65, "duration": 456, "velocity": 88}, {"time": 143524, "pitch": 46, "duration": 928, "velocity": 70}, {"time": 143997, "pitch": 62, "duration": 461, "velocity": 101}, {"time": 143997, "pitch": 65, "duration": 461, "velocity": 106}, {"time": 143998, "pitch": 56, "duration": 461, "velocity": 93}, {"time": 144478, "pitch": 58, "duration": 932, "velocity": 95}, {"time": 144478, "pitch": 63, "duration": 453, "velocity": 85}, {"time": 144478, "pitch": 65, "duration": 459, "velocity": 100}, {"time": 144959, "pitch": 63, "duration": 471, "velocity": 94}, {"time": 144959, "pitch": 65, "duration": 464, "velocity": 99}, {"time": 145441, "pitch": 51, "duration": 908, "velocity": 68}, {"time": 145441, "pitch": 58, "duration": 912, "velocity": 88}, {"time": 145441, "pitch": 67, "duration": 214, "velocity": 103}, {"time": 145442, "pitch": 63, "duration": 214, "velocity": 88}, {"time": 145442, "pitch": 65, "duration": 214, "velocity": 98}, {"time": 145683, "pitch": 67, "duration": 672, "velocity": 95}, {"time": 145684, "pitch": 63, "duration": 657, "velocity": 90}, {"time": 146403, "pitch": 48, "duration": 932, "velocity": 70}, {"time": 146403, "pitch": 63, "duration": 447, "velocity": 85}, {"time": 146403, "pitch": 67, "duration": 927, "velocity": 105}, {"time": 146878, "pitch": 63, "duration": 458, "velocity": 99}, {"time": 146878, "pitch": 65, "duration": 451, "velocity": 104}, {"time": 147359, "pitch": 48, "duration": 900, "velocity": 70}, {"time": 147359, "pitch": 58, "duration": 904, "velocity": 88}, {"time": 147359, "pitch": 67, "duration": 203, "velocity": 103}, {"time": 147360, "pitch": 63, "duration": 203, "velocity": 88}, {"time": 147360, "pitch": 65, "duration": 203, "velocity": 98}, {"time": 147602, "pitch": 67, "duration": 661, "velocity": 95}, {"time": 147603, "pitch": 63, "duration": 661, "velocity": 90}, {"time": 148321, "pitch": 44, "duration": 1909, "velocity": 70}, {"time": 148321, "pitch": 53, "duration": 907, "velocity": 95}, {"time": 148321, "pitch": 59, "duration": 449, "velocity": 90}, {"time": 148803, "pitch": 63, "duration": 454, "velocity": 85}, {"time": 148804, "pitch": 59, "duration": 444, "velocity": 90}, {"time": 148804, "pitch": 68, "duration": 438, "velocity": 100}, {"time": 149278, "pitch": 53, "duration": 922, "velocity": 95}, {"time": 149278, "pitch": 59, "duration": 200, "velocity": 93}, {"time": 149278, "pitch": 63, "duration": 200, "velocity": 83}, {"time": 149278, "pitch": 68, "duration": 200, "velocity": 103}, {"time": 149518, "pitch": 59, "duration": 705, "velocity": 80}, {"time": 149518, "pitch": 63, "duration": 708, "velocity": 75}, {"time": 149519, "pitch": 68, "duration": 700, "velocity": 92}, {"time": 150240, "pitch": 65, "duration": 459, "velocity": 101}, {"time": 150241, "pitch": 46, "duration": 942, "velocity": 70}, {"time": 150241, "pitch": 62, "duration": 461, "velocity": 96}, {"time": 150720, "pitch": 65, "duration": 451, "velocity": 106}, {"time": 150721, "pitch": 56, "duration": 461, "velocity": 88}, {"time": 150721, "pitch": 62, "duration": 461, "velocity": 101}, {"time": 151201, "pitch": 63, "duration": 455, "velocity": 101}, {"time": 151202, "pitch": 56, "duration": 455, "velocity": 96}, {"time": 151202, "pitch": 65, "duration": 455, "velocity": 88}, {"time": 151203, "pitch": 46, "duration": 928, "velocity": 70}, {"time": 151676, "pitch": 62, "duration": 461, "velocity": 101}, {"time": 151676, "pitch": 65, "duration": 461, "velocity": 106}, {"time": 151677, "pitch": 56, "duration": 461, "velocity": 93}, {"time": 152158, "pitch": 53, "duration": 1834, "velocity": 85}, {"time": 152158, "pitch": 59, "duration": 937, "velocity": 90}, {"time": 152160, "pitch": 43, "duration": 1840, "velocity": 70}, {"time": 153120, "pitch": 59, "duration": 161, "velocity": 88}, {"time": 153120, "pitch": 62, "duration": 161, "velocity": 93}, {"time": 153120, "pitch": 65, "duration": 161, "velocity": 98}, {"time": 153361, "pitch": 59, "duration": 669, "velocity": 79}, {"time": 153362, "pitch": 62, "duration": 663, "velocity": 90}, {"time": 153362, "pitch": 65, "duration": 664, "velocity": 92}, {"time": 154083, "pitch": 63, "duration": 669, "velocity": 95}, {"time": 154083, "pitch": 67, "duration": 695, "velocity": 100}, {"time": 154084, "pitch": 48, "duration": 1876, "velocity": 70}, {"time": 154798, "pitch": 58, "duration": 445, "velocity": 90}, {"time": 154798, "pitch": 63, "duration": 445, "velocity": 95}, {"time": 154798, "pitch": 67, "duration": 445, "velocity": 100}, {"time": 155280, "pitch": 58, "duration": 668, "velocity": 79}, {"time": 155281, "pitch": 63, "duration": 662, "velocity": 90}, {"time": 155281, "pitch": 67, "duration": 663, "velocity": 92}, {"time": 156001, "pitch": 63, "duration": 473, "velocity": 95}, {"time": 156002, "pitch": 56, "duration": 929, "velocity": 85}, {"time": 156003, "pitch": 44, "duration": 937, "velocity": 70}, {"time": 156482, "pitch": 63, "duration": 460, "velocity": 95}, {"time": 156483, "pitch": 59, "duration": 456, "velocity": 87}, {"time": 156486, "pitch": 68, "duration": 456, "velocity": 100}, {"time": 156958, "pitch": 63, "duration": 461, "velocity": 95}, {"time": 156958, "pitch": 68, "duration": 461, "velocity": 100}, {"time": 156959, "pitch": 56, "duration": 922, "velocity": 85}, {"time": 156959, "pitch": 60, "duration": 461, "velocity": 90}, {"time": 156960, "pitch": 46, "duration": 926, "velocity": 70}, {"time": 157439, "pitch": 63, "duration": 461, "velocity": 95}, {"time": 157439, "pitch": 67, "duration": 461, "velocity": 100}, {"time": 157440, "pitch": 60, "duration": 461, "velocity": 90}, {"time": 157920, "pitch": 58, "duration": 716, "velocity": 90}, {"time": 157920, "pitch": 63, "duration": 711, "velocity": 100}, {"time": 157920, "pitch": 68, "duration": 695, "velocity": 105}, {"time": 158641, "pitch": 51, "duration": 1137, "velocity": 70}, {"time": 158641, "pitch": 58, "duration": 680, "velocity": 96}, {"time": 158641, "pitch": 67, "duration": 680, "velocity": 104}, {"time": 159358, "pitch": 67, "duration": 450, "velocity": 90}, {"time": 159359, "pitch": 58, "duration": 451, "velocity": 80}, {"time": 159359, "pitch": 63, "duration": 445, "velocity": 85}, {"time": 159359, "pitch": 70, "duration": 441, "velocity": 90}, {"time": 159838, "pitch": 63, "duration": 1410, "velocity": 95}, {"time": 159838, "pitch": 68, "duration": 1410, "velocity": 100}, {"time": 159839, "pitch": 56, "duration": 1410, "velocity": 85}, {"time": 159839, "pitch": 59, "duration": 1410, "velocity": 90}, {"time": 159840, "pitch": 51, "duration": 1410, "velocity": 70}, {"time": 161292, "pitch": 65, "duration": 913, "velocity": 95}, {"time": 161292, "pitch": 68, "duration": 913, "velocity": 100}, {"time": 161293, "pitch": 56, "duration": 914, "velocity": 85}, {"time": 161293, "pitch": 61, "duration": 914, "velocity": 90}, {"time": 161294, "pitch": 49, "duration": 914, "velocity": 70}, {"time": 162250, "pitch": 58, "duration": 3791, "velocity": 90}, {"time": 162250, "pitch": 65, "duration": 3791, "velocity": 100}, {"time": 162250, "pitch": 67, "duration": 3791, "velocity": 105}, {"time": 162252, "pitch": 51, "duration": 3793, "velocity": 70}, {"time": 27361, "pitch": 35, "duration": 1648, "velocity": 113}, {"time": 29039, "pitch": 38, "duration": 100, "velocity": 107}, {"time": 29280, "pitch": 33, "duration": 1648, "velocity": 115}, {"time": 30958, "pitch": 37, "duration": 110, "velocity": 104}, {"time": 31198, "pitch": 31, "duration": 1544, "velocity": 116}, {"time": 32802, "pitch": 38, "duration": 301, "velocity": 105}, {"time": 33123, "pitch": 38, "duration": 1647, "velocity": 114}, {"time": 34802, "pitch": 38, "duration": 120, "velocity": 107}, {"time": 35041, "pitch": 40, "duration": 1548, "velocity": 113}, {"time": 36719, "pitch": 40, "duration": 110, "velocity": 104}, {"time": 36960, "pitch": 35, "duration": 1641, "velocity": 117}, {"time": 38645, "pitch": 38, "duration": 129, "velocity": 106}, {"time": 38878, "pitch": 33, "duration": 702, "velocity": 113}, {"time": 39605, "pitch": 40, "duration": 200, "velocity": 105}, {"time": 39840, "pitch": 33, "duration": 451, "velocity": 115}, {"time": 40321, "pitch": 33, "duration": 441, "velocity": 112}, {"time": 40802, "pitch": 33, "duration": 456, "velocity": 120}, {"time": 41278, "pitch": 33, "duration": 461, "velocity": 117}, {"time": 41769, "pitch": 33, "duration": 458, "velocity": 114}, {"time": 42245, "pitch": 40, "duration": 140, "velocity": 112}, {"time": 42400, "pitch": 40, "duration": 70, "velocity": 94}, {"time": 42490, "pitch": 37, "duration": 131, "velocity": 107}, {"time": 42721, "pitch": 38, "duration": 461, "velocity": 123}, {"time": 43202, "pitch": 38, "duration": 376, "velocity": 113}, {"time": 43598, "pitch": 33, "duration": 69, "velocity": 97}, {"time": 43677, "pitch": 40, "duration": 121, "velocity": 117}, {"time": 43838, "pitch": 40, "duration": 70, "velocity": 110}, {"time": 43918, "pitch": 38, "duration": 601, "velocity": 115}, {"time": 44569, "pitch": 33, "duration": 60, "velocity": 100}, {"time": 44639, "pitch": 35, "duration": 462, "velocity": 122}, {"time": 45121, "pitch": 35, "duration": 380, "velocity": 115}, {"time": 45521, "pitch": 30, "duration": 71, "velocity": 93}, {"time": 45602, "pitch": 37, "duration": 120, "velocity": 120}, {"time": 45762, "pitch": 37, "duration": 70, "velocity": 114}, {"time": 45842, "pitch": 35, "duration": 449, "velocity": 116}, {"time": 46320, "pitch": 35, "duration": 129, "velocity": 109}, {"time": 46489, "pitch": 33, "duration": 59, "velocity": 104}, {"time": 46558, "pitch": 31, "duration": 461, "velocity": 123}, {"time": 47039, "pitch": 31, "duration": 381, "velocity": 115}, {"time": 47440, "pitch": 31, "duration": 70, "velocity": 107}, {"time": 47520, "pitch": 31, "duration": 201, "velocity": 122}, {"time": 47761, "pitch": 38, "duration": 150, "velocity": 112}, {"time": 47921, "pitch": 31, "duration": 441, "velocity": 107}, {"time": 48412, "pitch": 31, "duration": 60, "velocity": 103}, {"time": 48482, "pitch": 33, "duration": 446, "velocity": 122}, {"time": 48958, "pitch": 33, "duration": 100, "velocity": 117}, {"time": 49118, "pitch": 33, "duration": 200, "velocity": 112}, {"time": 49359, "pitch": 33, "duration": 70, "velocity": 107}, {"time": 49439, "pitch": 33, "duration": 170, "velocity": 120}, {"time": 49679, "pitch": 33, "duration": 151, "velocity": 109}, {"time": 49920, "pitch": 33, "duration": 100, "velocity": 119}, {"time": 50080, "pitch": 33, "duration": 70, "velocity": 117}, {"time": 50160, "pitch": 38, "duration": 131, "velocity": 112}, {"time": 50321, "pitch": 33, "duration": 70, "velocity": 109}, {"time": 50401, "pitch": 38, "duration": 461, "velocity": 123}, {"time": 50882, "pitch": 38, "duration": 376, "velocity": 113}, {"time": 51278, "pitch": 33, "duration": 69, "velocity": 97}, {"time": 51357, "pitch": 40, "duration": 120, "velocity": 117}, {"time": 51518, "pitch": 40, "duration": 70, "velocity": 110}, {"time": 51598, "pitch": 38, "duration": 601, "velocity": 115}, {"time": 52249, "pitch": 33, "duration": 60, "velocity": 100}, {"time": 52319, "pitch": 35, "duration": 461, "velocity": 122}, {"time": 52801, "pitch": 35, "duration": 380, "velocity": 117}, {"time": 53201, "pitch": 30, "duration": 71, "velocity": 105}, {"time": 53282, "pitch": 37, "duration": 120, "velocity": 119}, {"time": 53442, "pitch": 37, "duration": 70, "velocity": 112}, {"time": 53522, "pitch": 35, "duration": 627, "velocity": 116}, {"time": 54169, "pitch": 31, "duration": 59, "velocity": 107}, {"time": 54238, "pitch": 31, "duration": 170, "velocity": 122}, {"time": 54478, "pitch": 31, "duration": 612, "velocity": 117}, {"time": 55120, "pitch": 31, "duration": 70, "velocity": 107}, {"time": 55200, "pitch": 33, "duration": 170, "velocity": 120}, {"time": 55441, "pitch": 33, "duration": 381, "velocity": 109}, {"time": 55842, "pitch": 33, "duration": 230, "velocity": 117}, {"time": 56082, "pitch": 33, "duration": 70, "velocity": 112}, {"time": 56162, "pitch": 38, "duration": 1668, "velocity": 117}, {"time": 57845, "pitch": 38, "duration": 85, "velocity": 112}, {"time": 58081, "pitch": 36, "duration": 1658, "velocity": 117}, {"time": 59759, "pitch": 36, "duration": 90, "velocity": 109}, {"time": 59999, "pitch": 35, "duration": 1666, "velocity": 117}, {"time": 61683, "pitch": 35, "duration": 89, "velocity": 107}, {"time": 61918, "pitch": 31, "duration": 120, "velocity": 115}, {"time": 62163, "pitch": 31, "duration": 301, "velocity": 107}, {"time": 62644, "pitch": 33, "duration": 702, "velocity": 112}, {"time": 63361, "pitch": 33, "duration": 431, "velocity": 107}, {"time": 63842, "pitch": 38, "duration": 936, "velocity": 116}, {"time": 64799, "pitch": 36, "duration": 942, "velocity": 115}, {"time": 65761, "pitch": 35, "duration": 942, "velocity": 115}, {"time": 66723, "pitch": 33, "duration": 936, "velocity": 115}, {"time": 67679, "pitch": 31, "duration": 682, "velocity": 112}, {"time": 68401, "pitch": 31, "duration": 691, "velocity": 107}, {"time": 69122, "pitch": 38, "duration": 436, "velocity": 107}, {"time": 69598, "pitch": 31, "duration": 681, "velocity": 112}, {"time": 70319, "pitch": 38, "duration": 692, "velocity": 107}, {"time": 71041, "pitch": 31, "duration": 441, "velocity": 107}, {"time": 71532, "pitch": 38, "duration": 446, "velocity": 112}, {"time": 71999, "pitch": 33, "duration": 121, "velocity": 105}, {"time": 72244, "pitch": 38, "duration": 691, "velocity": 110}, {"time": 72970, "pitch": 33, "duration": 441, "velocity": 107}, {"time": 73441, "pitch": 38, "duration": 220, "velocity": 112}, {"time": 73681, "pitch": 33, "duration": 221, "velocity": 104}, {"time": 73924, "pitch": 40, "duration": 100, "velocity": 102}, {"time": 74167, "pitch": 38, "duration": 1157, "velocity": 109}, {"time": 75359, "pitch": 38, "duration": 942, "velocity": 116}, {"time": 76321, "pitch": 36, "duration": 937, "velocity": 115}, {"time": 77278, "pitch": 35, "duration": 942, "velocity": 115}, {"time": 78240, "pitch": 33, "duration": 942, "velocity": 115}, {"time": 79202, "pitch": 31, "duration": 676, "velocity": 112}, {"time": 79918, "pitch": 31, "duration": 691, "velocity": 107}, {"time": 80639, "pitch": 38, "duration": 441, "velocity": 107}, {"time": 81121, "pitch": 31, "duration": 681, "velocity": 112}, {"time": 81842, "pitch": 38, "duration": 686, "velocity": 107}, {"time": 82558, "pitch": 31, "duration": 441, "velocity": 107}, {"time": 83049, "pitch": 38, "duration": 451, "velocity": 112}, {"time": 83520, "pitch": 33, "duration": 140, "velocity": 107}, {"time": 83766, "pitch": 38, "duration": 691, "velocity": 107}, {"time": 84492, "pitch": 33, "duration": 436, "velocity": 107}, {"time": 84958, "pitch": 38, "duration": 220, "velocity": 112}, {"time": 85198, "pitch": 33, "duration": 221, "velocity": 105}, {"time": 85439, "pitch": 40, "duration": 80, "velocity": 102}, {"time": 85684, "pitch": 38, "duration": 461, "velocity": 107}, {"time": 86160, "pitch": 33, "duration": 211, "velocity": 104}, {"time": 86403, "pitch": 38, "duration": 150, "velocity": 109}, {"time": 86561, "pitch": 38, "duration": 70, "velocity": 104}, {"time": 86641, "pitch": 37, "duration": 121, "velocity": 105}, {"time": 86882, "pitch": 35, "duration": 686, "velocity": 112}, {"time": 87598, "pitch": 40, "duration": 902, "velocity": 102}, {"time": 88560, "pitch": 38, "duration": 120, "velocity": 110}, {"time": 88800, "pitch": 40, "duration": 702, "velocity": 115}, {"time": 89522, "pitch": 37, "duration": 896, "velocity": 109}, {"time": 90479, "pitch": 37, "duration": 111, "velocity": 107}, {"time": 90719, "pitch": 38, "duration": 702, "velocity": 112}, {"time": 91441, "pitch": 43, "duration": 691, "velocity": 108}, {"time": 92162, "pitch": 38, "duration": 426, "velocity": 105}, {"time": 92638, "pitch": 42, "duration": 882, "velocity": 112}, {"time": 93600, "pitch": 42, "duration": 220, "velocity": 106}, {"time": 93840, "pitch": 45, "duration": 131, "velocity": 99}, {"time": 94001, "pitch": 49, "duration": 220, "velocity": 103}, {"time": 94241, "pitch": 49, "duration": 70, "velocity": 102}, {"time": 94322, "pitch": 45, "duration": 171, "velocity": 99}, {"time": 94562, "pitch": 40, "duration": 455, "velocity": 111}, {"time": 95037, "pitch": 40, "duration": 60, "velocity": 105}, {"time": 95278, "pitch": 47, "duration": 451, "velocity": 107}, {"time": 95759, "pitch": 40, "duration": 220, "velocity": 104}, {"time": 96004, "pitch": 47, "duration": 91, "velocity": 103}, {"time": 96160, "pitch": 47, "duration": 70, "velocity": 97}, {"time": 96240, "pitch": 43, "duration": 110, "velocity": 107}, {"time": 96480, "pitch": 35, "duration": 231, "velocity": 114}, {"time": 96726, "pitch": 38, "duration": 200, "velocity": 108}, {"time": 96961, "pitch": 42, "duration": 81, "velocity": 104}, {"time": 97202, "pitch": 38, "duration": 448, "velocity": 107}, {"time": 97680, "pitch": 30, "duration": 218, "velocity": 105}, {"time": 97918, "pitch": 33, "duration": 120, "velocity": 99}, {"time": 98078, "pitch": 38, "duration": 70, "velocity": 94}, {"time": 98158, "pitch": 33, "duration": 101, "velocity": 102}, {"time": 98399, "pitch": 37, "duration": 220, "velocity": 113}, {"time": 98639, "pitch": 33, "duration": 221, "velocity": 107}, {"time": 98880, "pitch": 37, "duration": 220, "velocity": 110}, {"time": 99121, "pitch": 33, "duration": 220, "velocity": 102}, {"time": 99361, "pitch": 37, "duration": 221, "velocity": 115}, {"time": 99602, "pitch": 40, "duration": 220, "velocity": 107}, {"time": 99842, "pitch": 45, "duration": 218, "velocity": 110}, {"time": 100080, "pitch": 40, "duration": 218, "velocity": 106}, {"time": 100317, "pitch": 45, "duration": 221, "velocity": 118}, {"time": 100558, "pitch": 40, "duration": 220, "velocity": 112}, {"time": 100799, "pitch": 45, "duration": 220, "velocity": 120}, {"time": 101039, "pitch": 40, "duration": 221, "velocity": 112}, {"time": 101290, "pitch": 33, "duration": 220, "velocity": 118}, {"time": 101525, "pitch": 40, "duration": 211, "velocity": 110}, {"time": 101766, "pitch": 45, "duration": 120, "velocity": 114}, {"time": 101921, "pitch": 45, "duration": 70, "velocity": 99}, {"time": 102011, "pitch": 40, "duration": 131, "velocity": 107}, {"time": 102242, "pitch": 38, "duration": 461, "velocity": 123}, {"time": 102723, "pitch": 38, "duration": 376, "velocity": 113}, {"time": 103119, "pitch": 33, "duration": 69, "velocity": 97}, {"time": 103198, "pitch": 40, "duration": 120, "velocity": 117}, {"time": 103358, "pitch": 40, "duration": 71, "velocity": 110}, {"time": 103439, "pitch": 38, "duration": 601, "velocity": 115}, {"time": 104090, "pitch": 33, "duration": 60, "velocity": 100}, {"time": 104160, "pitch": 35, "duration": 461, "velocity": 122}, {"time": 104641, "pitch": 35, "duration": 381, "velocity": 115}, {"time": 105042, "pitch": 30, "duration": 70, "velocity": 93}, {"time": 105122, "pitch": 37, "duration": 119, "velocity": 120}, {"time": 105281, "pitch": 37, "duration": 69, "velocity": 114}, {"time": 105360, "pitch": 35, "duration": 448, "velocity": 116}, {"time": 105838, "pitch": 35, "duration": 131, "velocity": 109}, {"time": 106009, "pitch": 33, "duration": 60, "velocity": 104}, {"time": 106079, "pitch": 31, "duration": 461, "velocity": 123}, {"time": 106560, "pitch": 31, "duration": 381, "velocity": 115}, {"time": 106961, "pitch": 31, "duration": 70, "velocity": 107}, {"time": 107041, "pitch": 31, "duration": 200, "velocity": 122}, {"time": 107282, "pitch": 31, "duration": 150, "velocity": 112}, {"time": 107442, "pitch": 38, "duration": 437, "velocity": 107}, {"time": 107928, "pitch": 31, "duration": 59, "velocity": 103}, {"time": 107997, "pitch": 33, "duration": 451, "velocity": 122}, {"time": 108478, "pitch": 33, "duration": 101, "velocity": 117}, {"time": 108639, "pitch": 33, "duration": 200, "velocity": 112}, {"time": 108879, "pitch": 33, "duration": 70, "velocity": 107}, {"time": 108960, "pitch": 33, "duration": 170, "velocity": 120}, {"time": 109200, "pitch": 33, "duration": 150, "velocity": 109}, {"time": 109441, "pitch": 33, "duration": 100, "velocity": 119}, {"time": 109601, "pitch": 33, "duration": 70, "velocity": 117}, {"time": 109681, "pitch": 38, "duration": 130, "velocity": 112}, {"time": 109842, "pitch": 33, "duration": 70, "velocity": 109}, {"time": 109922, "pitch": 38, "duration": 461, "velocity": 123}, {"time": 110403, "pitch": 38, "duration": 376, "velocity": 113}, {"time": 110799, "pitch": 33, "duration": 69, "velocity": 97}, {"time": 110878, "pitch": 40, "duration": 120, "velocity": 117}, {"time": 111038, "pitch": 40, "duration": 71, "velocity": 110}, {"time": 111119, "pitch": 38, "duration": 601, "velocity": 115}, {"time": 111770, "pitch": 33, "duration": 60, "velocity": 100}, {"time": 111840, "pitch": 35, "duration": 461, "velocity": 122}, {"time": 112321, "pitch": 35, "duration": 381, "velocity": 117}, {"time": 112722, "pitch": 30, "duration": 70, "velocity": 105}, {"time": 112802, "pitch": 37, "duration": 119, "velocity": 119}, {"time": 112961, "pitch": 37, "duration": 69, "velocity": 112}, {"time": 113040, "pitch": 35, "duration": 629, "velocity": 116}, {"time": 113689, "pitch": 31, "duration": 60, "velocity": 107}, {"time": 113759, "pitch": 31, "duration": 170, "velocity": 122}, {"time": 113999, "pitch": 31, "duration": 614, "velocity": 117}, {"time": 114641, "pitch": 31, "duration": 70, "velocity": 107}, {"time": 114721, "pitch": 33, "duration": 170, "velocity": 120}, {"time": 114961, "pitch": 33, "duration": 380, "velocity": 109}, {"time": 115360, "pitch": 33, "duration": 228, "velocity": 117}, {"time": 115598, "pitch": 33, "duration": 69, "velocity": 112}, {"time": 115677, "pitch": 38, "duration": 1183, "velocity": 117}, {"time": 116880, "pitch": 33, "duration": 220, "velocity": 109}, {"time": 117121, "pitch": 38, "duration": 140, "velocity": 104}, {"time": 117281, "pitch": 38, "duration": 70, "velocity": 97}, {"time": 117361, "pitch": 36, "duration": 221, "velocity": 100}, {"time": 117602, "pitch": 41, "duration": 220, "velocity": 117}, {"time": 117842, "pitch": 41, "duration": 221, "velocity": 110}, {"time": 118083, "pitch": 41, "duration": 218, "velocity": 117}, {"time": 118320, "pitch": 41, "duration": 218, "velocity": 109}, {"time": 118558, "pitch": 41, "duration": 220, "velocity": 117}, {"time": 118798, "pitch": 41, "duration": 221, "velocity": 110}, {"time": 119039, "pitch": 41, "duration": 221, "velocity": 117}, {"time": 119280, "pitch": 41, "duration": 220, "velocity": 109}, {"time": 119520, "pitch": 39, "duration": 221, "velocity": 117}, {"time": 119761, "pitch": 39, "duration": 220, "velocity": 110}, {"time": 120001, "pitch": 39, "duration": 221, "velocity": 117}, {"time": 120242, "pitch": 39, "duration": 220, "velocity": 109}, {"time": 120482, "pitch": 39, "duration": 218, "velocity": 117}, {"time": 120720, "pitch": 39, "duration": 218, "velocity": 110}, {"time": 120958, "pitch": 39, "duration": 220, "velocity": 117}, {"time": 121198, "pitch": 39, "duration": 221, "velocity": 109}, {"time": 121440, "pitch": 37, "duration": 220, "velocity": 112}, {"time": 121679, "pitch": 32, "duration": 221, "velocity": 102}, {"time": 121927, "pitch": 37, "duration": 220, "velocity": 112}, {"time": 122167, "pitch": 32, "duration": 221, "velocity": 102}, {"time": 122401, "pitch": 37, "duration": 215, "velocity": 112}, {"time": 122646, "pitch": 44, "duration": 221, "velocity": 104}, {"time": 122887, "pitch": 41, "duration": 138, "velocity": 110}, {"time": 123040, "pitch": 41, "duration": 70, "velocity": 104}, {"time": 123120, "pitch": 37, "duration": 209, "velocity": 107}, {"time": 123357, "pitch": 43, "duration": 231, "velocity": 112}, {"time": 123608, "pitch": 38, "duration": 210, "velocity": 127}, {"time": 123838, "pitch": 43, "duration": 231, "velocity": 112}, {"time": 124088, "pitch": 38, "duration": 220, "velocity": 127}, {"time": 124319, "pitch": 43, "duration": 221, "velocity": 112}, {"time": 124565, "pitch": 38, "duration": 220, "velocity": 127}, {"time": 124800, "pitch": 43, "duration": 221, "velocity": 112}, {"time": 125041, "pitch": 38, "duration": 210, "velocity": 127}, {"time": 125282, "pitch": 43, "duration": 224, "velocity": 115}, {"time": 125523, "pitch": 38, "duration": 221, "velocity": 107}, {"time": 125763, "pitch": 43, "duration": 99, "velocity": 112}, {"time": 126005, "pitch": 43, "duration": 919, "velocity": 113}, {"time": 126960, "pitch": 38, "duration": 220, "velocity": 104}, {"time": 127200, "pitch": 40, "duration": 942, "velocity": 117}, {"time": 128162, "pitch": 35, "duration": 449, "velocity": 110}, {"time": 128638, "pitch": 38, "duration": 440, "velocity": 106}, {"time": 129129, "pitch": 33, "duration": 220, "velocity": 110}, {"time": 129359, "pitch": 40, "duration": 201, "velocity": 107}, {"time": 129600, "pitch": 35, "duration": 80, "velocity": 100}, {"time": 129840, "pitch": 33, "duration": 880, "velocity": 107}, {"time": 130799, "pitch": 33, "duration": 90, "velocity": 102}, {"time": 131037, "pitch": 34, "duration": 201, "velocity": 112}, {"time": 131278, "pitch": 32, "duration": 227, "velocity": 107}, {"time": 131518, "pitch": 31, "duration": 218, "velocity": 104}, {"time": 131759, "pitch": 29, "duration": 888, "velocity": 115}, {"time": 132721, "pitch": 29, "duration": 220, "velocity": 110}, {"time": 132963, "pitch": 31, "duration": 221, "velocity": 117}, {"time": 133207, "pitch": 31, "duration": 221, "velocity": 106}, {"time": 133443, "pitch": 31, "duration": 217, "velocity": 112}, {"time": 133685, "pitch": 31, "duration": 218, "velocity": 104}, {"time": 133918, "pitch": 31, "duration": 220, "velocity": 117}, {"time": 134163, "pitch": 31, "duration": 221, "velocity": 110}, {"time": 134399, "pitch": 31, "duration": 220, "velocity": 112}, {"time": 134644, "pitch": 33, "duration": 111, "velocity": 107}, {"time": 134880, "pitch": 34, "duration": 220, "velocity": 117}, {"time": 135121, "pitch": 34, "duration": 220, "velocity": 110}, {"time": 135361, "pitch": 34, "duration": 221, "velocity": 112}, {"time": 135602, "pitch": 34, "duration": 220, "velocity": 110}, {"time": 135842, "pitch": 34, "duration": 218, "velocity": 116}, {"time": 136080, "pitch": 34, "duration": 218, "velocity": 110}, {"time": 136317, "pitch": 34, "duration": 121, "velocity": 107}, {"time": 136478, "pitch": 34, "duration": 70, "velocity": 104}, {"time": 136563, "pitch": 41, "duration": 159, "velocity": 107}, {"time": 136798, "pitch": 39, "duration": 131, "velocity": 122}, {"time": 137039, "pitch": 39, "duration": 451, "velocity": 117}, {"time": 137530, "pitch": 39, "duration": 130, "velocity": 111}, {"time": 137680, "pitch": 34, "duration": 71, "velocity": 105}, {"time": 137761, "pitch": 41, "duration": 120, "velocity": 119}, {"time": 137921, "pitch": 41, "duration": 70, "velocity": 112}, {"time": 138001, "pitch": 39, "duration": 451, "velocity": 116}, {"time": 138482, "pitch": 39, "duration": 131, "velocity": 114}, {"time": 138653, "pitch": 34, "duration": 60, "velocity": 107}, {"time": 138723, "pitch": 36, "duration": 129, "velocity": 122}, {"time": 138960, "pitch": 36, "duration": 449, "velocity": 117}, {"time": 139449, "pitch": 31, "duration": 140, "velocity": 111}, {"time": 139599, "pitch": 36, "duration": 70, "velocity": 105}, {"time": 139679, "pitch": 38, "duration": 120, "velocity": 119}, {"time": 139840, "pitch": 38, "duration": 70, "velocity": 112}, {"time": 139920, "pitch": 36, "duration": 451, "velocity": 116}, {"time": 140401, "pitch": 36, "duration": 130, "velocity": 114}, {"time": 140571, "pitch": 34, "duration": 60, "velocity": 107}, {"time": 140641, "pitch": 32, "duration": 131, "velocity": 123}, {"time": 140882, "pitch": 32, "duration": 448, "velocity": 117}, {"time": 141360, "pitch": 39, "duration": 129, "velocity": 113}, {"time": 141519, "pitch": 32, "duration": 69, "velocity": 107}, {"time": 141598, "pitch": 32, "duration": 130, "velocity": 122}, {"time": 141758, "pitch": 32, "duration": 70, "velocity": 117}, {"time": 141838, "pitch": 32, "duration": 451, "velocity": 119}, {"time": 142319, "pitch": 32, "duration": 131, "velocity": 114}, {"time": 142490, "pitch": 32, "duration": 60, "velocity": 107}, {"time": 142560, "pitch": 34, "duration": 170, "velocity": 122}, {"time": 142800, "pitch": 34, "duration": 161, "velocity": 117}, {"time": 143041, "pitch": 34, "duration": 100, "velocity": 117}, {"time": 143201, "pitch": 34, "duration": 201, "velocity": 112}, {"time": 143442, "pitch": 34, "duration": 70, "velocity": 107}, {"time": 143522, "pitch": 34, "duration": 168, "velocity": 120}, {"time": 143760, "pitch": 34, "duration": 148, "velocity": 109}, {"time": 143997, "pitch": 34, "duration": 101, "velocity": 119}, {"time": 144158, "pitch": 34, "duration": 70, "velocity": 117}, {"time": 144238, "pitch": 39, "duration": 130, "velocity": 109}, {"time": 144398, "pitch": 34, "duration": 70, "velocity": 112}, {"time": 144478, "pitch": 39, "duration": 131, "velocity": 123}, {"time": 144719, "pitch": 39, "duration": 451, "velocity": 117}, {"time": 145210, "pitch": 39, "duration": 130, "velocity": 111}, {"time": 145360, "pitch": 34, "duration": 71, "velocity": 105}, {"time": 145441, "pitch": 41, "duration": 120, "velocity": 119}, {"time": 145601, "pitch": 41, "duration": 70, "velocity": 112}, {"time": 145681, "pitch": 39, "duration": 451, "velocity": 116}, {"time": 146162, "pitch": 39, "duration": 131, "velocity": 114}, {"time": 146333, "pitch": 34, "duration": 60, "velocity": 107}, {"time": 146403, "pitch": 36, "duration": 128, "velocity": 122}, {"time": 146640, "pitch": 36, "duration": 448, "velocity": 117}, {"time": 147129, "pitch": 31, "duration": 140, "velocity": 111}, {"time": 147279, "pitch": 36, "duration": 70, "velocity": 105}, {"time": 147359, "pitch": 38, "duration": 120, "velocity": 119}, {"time": 147519, "pitch": 38, "duration": 71, "velocity": 112}, {"time": 147600, "pitch": 36, "duration": 451, "velocity": 116}, {"time": 148081, "pitch": 36, "duration": 130, "velocity": 114}, {"time": 148251, "pitch": 32, "duration": 60, "velocity": 107}, {"time": 148321, "pitch": 32, "duration": 131, "velocity": 123}, {"time": 148562, "pitch": 32, "duration": 448, "velocity": 117}, {"time": 149040, "pitch": 39, "duration": 129, "velocity": 113}, {"time": 149198, "pitch": 32, "duration": 70, "velocity": 107}, {"time": 149278, "pitch": 32, "duration": 130, "velocity": 122}, {"time": 149438, "pitch": 32, "duration": 70, "velocity": 117}, {"time": 149518, "pitch": 32, "duration": 451, "velocity": 119}, {"time": 149999, "pitch": 32, "duration": 131, "velocity": 114}, {"time": 150170, "pitch": 34, "duration": 60, "velocity": 107}, {"time": 150240, "pitch": 34, "duration": 170, "velocity": 122}, {"time": 150480, "pitch": 34, "duration": 161, "velocity": 117}, {"time": 150721, "pitch": 34, "duration": 100, "velocity": 117}, {"time": 150881, "pitch": 34, "duration": 201, "velocity": 112}, {"time": 151122, "pitch": 34, "duration": 70, "velocity": 107}, {"time": 151202, "pitch": 34, "duration": 168, "velocity": 120}, {"time": 151440, "pitch": 34, "duration": 148, "velocity": 109}, {"time": 151677, "pitch": 34, "duration": 100, "velocity": 119}, {"time": 151838, "pitch": 34, "duration": 230, "velocity": 117}, {"time": 152078, "pitch": 34, "duration": 70, "velocity": 112}, {"time": 152158, "pitch": 31, "duration": 171, "velocity": 123}, {"time": 152399, "pitch": 31, "duration": 451, "velocity": 117}, {"time": 152880, "pitch": 31, "duration": 140, "velocity": 113}, {"time": 153030, "pitch": 38, "duration": 80, "velocity": 107}, {"time": 153120, "pitch": 31, "duration": 166, "velocity": 122}, {"time": 153361, "pitch": 31, "duration": 451, "velocity": 117}, {"time": 153842, "pitch": 38, "duration": 150, "velocity": 113}, {"time": 154013, "pitch": 31, "duration": 60, "velocity": 107}, {"time": 154083, "pitch": 36, "duration": 168, "velocity": 123}, {"time": 154320, "pitch": 36, "duration": 378, "velocity": 117}, {"time": 154718, "pitch": 43, "duration": 70, "velocity": 101}, {"time": 154798, "pitch": 36, "duration": 431, "velocity": 113}, {"time": 155280, "pitch": 36, "duration": 120, "velocity": 117}, {"time": 155520, "pitch": 36, "duration": 100, "velocity": 119}, {"time": 155680, "pitch": 36, "duration": 231, "velocity": 114}, {"time": 155931, "pitch": 34, "duration": 60, "velocity": 107}, {"time": 156001, "pitch": 32, "duration": 171, "velocity": 122}, {"time": 156242, "pitch": 32, "duration": 379, "velocity": 117}, {"time": 156641, "pitch": 32, "duration": 198, "velocity": 112}, {"time": 156878, "pitch": 32, "duration": 70, "velocity": 107}, {"time": 156958, "pitch": 34, "duration": 170, "velocity": 120}, {"time": 157198, "pitch": 34, "duration": 381, "velocity": 109}, {"time": 157599, "pitch": 34, "duration": 231, "velocity": 117}, {"time": 157840, "pitch": 34, "duration": 70, "velocity": 112}, {"time": 157920, "pitch": 39, "duration": 220, "velocity": 117}, {"time": 158160, "pitch": 34, "duration": 221, "velocity": 110}, {"time": 158403, "pitch": 41, "duration": 80, "velocity": 104}, {"time": 158641, "pitch": 39, "duration": 686, "velocity": 112}, {"time": 159357, "pitch": 34, "duration": 451, "velocity": 102}, {"time": 159838, "pitch": 32, "duration": 1425, "velocity": 105}, {"time": 161292, "pitch": 37, "duration": 928, "velocity": 102}, {"time": 162250, "pitch": 39, "duration": 3831, "velocity": 107}, {"time": 479, "pitch": 62, "duration": 3832, "velocity": 80}, {"time": 479, "pitch": 74, "duration": 2640, "velocity": 85}, {"time": 479, "pitch": 81, "duration": 8401, "velocity": 90}, {"time": 1441, "pitch": 55, "duration": 1678, "velocity": 80}, {"time": 2403, "pitch": 79, "duration": 1918, "velocity": 80}, {"time": 3119, "pitch": 57, "duration": 1202, "velocity": 85}, {"time": 3119, "pitch": 72, "duration": 1202, "velocity": 80}, {"time": 4323, "pitch": 74, "duration": 957, "velocity": 85}, {"time": 4323, "pitch": 78, "duration": 4559, "velocity": 85}, {"time": 5281, "pitch": 72, "duration": 962, "velocity": 85}, {"time": 6242, "pitch": 71, "duration": 962, "velocity": 85}, {"time": 7203, "pitch": 69, "duration": 956, "velocity": 85}, {"time": 8158, "pitch": 67, "duration": 3843, "velocity": 80}, {"time": 8880, "pitch": 74, "duration": 3121, "velocity": 80}, {"time": 8880, "pitch": 79, "duration": 3121, "velocity": 80}, {"time": 10083, "pitch": 70, "duration": 1918, "velocity": 75}, {"time": 12001, "pitch": 69, "duration": 3837, "velocity": 90}, {"time": 12001, "pitch": 76, "duration": 719, "velocity": 97}, {"time": 12001, "pitch": 81, "duration": 3356, "velocity": 88}, {"time": 12720, "pitch": 74, "duration": 1200, "velocity": 86}, {"time": 13940, "pitch": 76, "duration": 701, "velocity": 95}, {"time": 14651, "pitch": 74, "duration": 2150, "velocity": 82}, {"time": 15367, "pitch": 79, "duration": 461, "velocity": 104}, {"time": 15840, "pitch": 78, "duration": 963, "velocity": 85}, {"time": 15840, "pitch": 81, "duration": 4562, "velocity": 90}, {"time": 16801, "pitch": 76, "duration": 962, "velocity": 80}, {"time": 16804, "pitch": 72, "duration": 962, "velocity": 85}, {"time": 17765, "pitch": 71, "duration": 956, "velocity": 85}, {"time": 17765, "pitch": 74, "duration": 956, "velocity": 80}, {"time": 18720, "pitch": 69, "duration": 962, "velocity": 85}, {"time": 18720, "pitch": 73, "duration": 962, "velocity": 80}, {"time": 19681, "pitch": 67, "duration": 3837, "velocity": 80}, {"time": 19681, "pitch": 74, "duration": 3837, "velocity": 80}, {"time": 20400, "pitch": 79, "duration": 3118, "velocity": 80}, {"time": 21600, "pitch": 70, "duration": 1918, "velocity": 75}, {"time": 23518, "pitch": 69, "duration": 3843, "velocity": 90}, {"time": 23518, "pitch": 76, "duration": 722, "velocity": 97}, {"time": 23518, "pitch": 81, "duration": 3362, "velocity": 88}, {"time": 24240, "pitch": 74, "duration": 1203, "velocity": 86}, {"time": 25443, "pitch": 76, "duration": 715, "velocity": 97}, {"time": 26158, "pitch": 74, "duration": 1203, "velocity": 85}, {"time": 26880, "pitch": 79, "duration": 481, "velocity": 95}, {"time": 27361, "pitch": 71, "duration": 1919, "velocity": 90}, {"time": 27361, "pitch": 78, "duration": 1919, "velocity": 100}, {"time": 29280, "pitch": 69, "duration": 1918, "velocity": 85}, {"time": 29280, "pitch": 73, "duration": 1918, "velocity": 90}, {"time": 29280, "pitch": 76, "duration": 1918, "velocity": 95}, {"time": 31198, "pitch": 67, "duration": 1925, "velocity": 85}, {"time": 31198, "pitch": 71, "duration": 1925, "velocity": 90}, {"time": 31198, "pitch": 74, "duration": 3843, "velocity": 95}, {"time": 33123, "pitch": 66, "duration": 1918, "velocity": 85}, {"time": 33123, "pitch": 69, "duration": 1918, "velocity": 90}, {"time": 35041, "pitch": 67, "duration": 1919, "velocity": 85}, {"time": 35041, "pitch": 71, "duration": 3837, "velocity": 90}, {"time": 35041, "pitch": 76, "duration": 1919, "velocity": 95}, {"time": 36960, "pitch": 74, "duration": 1918, "velocity": 90}, {"time": 36960, "pitch": 78, "duration": 1918, "velocity": 95}, {"time": 38878, "pitch": 73, "duration": 1443, "velocity": 85}, {"time": 38878, "pitch": 76, "duration": 1443, "velocity": 90}, {"time": 38878, "pitch": 81, "duration": 7680, "velocity": 100}, {"time": 40321, "pitch": 71, "duration": 481, "velocity": 85}, {"time": 40321, "pitch": 74, "duration": 481, "velocity": 90}, {"time": 40802, "pitch": 73, "duration": 1919, "velocity": 85}, {"time": 40802, "pitch": 76, "duration": 5756, "velocity": 95}, {"time": 46558, "pitch": 74, "duration": 1924, "velocity": 90}, {"time": 46558, "pitch": 79, "duration": 3843, "velocity": 90}, {"time": 48482, "pitch": 73, "duration": 957, "velocity": 80}, {"time": 49439, "pitch": 74, "duration": 481, "velocity": 80}, {"time": 49920, "pitch": 73, "duration": 481, "velocity": 80}, {"time": 50401, "pitch": 81, "duration": 3837, "velocity": 90}, {"time": 50403, "pitch": 76, "duration": 3837, "velocity": 85}, {"time": 54238, "pitch": 74, "duration": 1443, "velocity": 85}, {"time": 54238, "pitch": 79, "duration": 1924, "velocity": 90}, {"time": 55681, "pitch": 73, "duration": 481, "velocity": 85}, {"time": 56162, "pitch": 74, "duration": 1919, "velocity": 80}, {"time": 56162, "pitch": 81, "duration": 5756, "velocity": 85}, {"time": 56162, "pitch": 86, "duration": 5756, "velocity": 90}, {"time": 58081, "pitch": 72, "duration": 1918, "velocity": 85}, {"time": 59999, "pitch": 71, "duration": 1919, "velocity": 85}, {"time": 61918, "pitch": 74, "duration": 2881, "velocity": 85}, {"time": 61918, "pitch": 79, "duration": 721, "velocity": 85}, {"time": 61918, "pitch": 82, "duration": 721, "velocity": 90}, {"time": 62639, "pitch": 78, "duration": 5762, "velocity": 90}, {"time": 62639, "pitch": 81, "duration": 5762, "velocity": 90}, {"time": 64802, "pitch": 72, "duration": 962, "velocity": 85}, {"time": 65763, "pitch": 71, "duration": 962, "velocity": 85}, {"time": 66724, "pitch": 69, "duration": 956, "velocity": 85}, {"time": 67679, "pitch": 67, "duration": 1919, "velocity": 80}, {"time": 68416, "pitch": 74, "duration": 3106, "velocity": 80}, {"time": 68416, "pitch": 79, "duration": 3106, "velocity": 80}, {"time": 69598, "pitch": 70, "duration": 1924, "velocity": 75}, {"time": 71522, "pitch": 69, "duration": 3837, "velocity": 90}, {"time": 71522, "pitch": 76, "duration": 716, "velocity": 97}, {"time": 71522, "pitch": 81, "duration": 3356, "velocity": 88}, {"time": 72243, "pitch": 74, "duration": 1198, "velocity": 86}, {"time": 73441, "pitch": 76, "duration": 721, "velocity": 97}, {"time": 74167, "pitch": 74, "duration": 2154, "velocity": 82}, {"time": 74878, "pitch": 79, "duration": 481, "velocity": 104}, {"time": 75361, "pitch": 78, "duration": 962, "velocity": 85}, {"time": 75361, "pitch": 81, "duration": 4559, "velocity": 90}, {"time": 76321, "pitch": 76, "duration": 957, "velocity": 80}, {"time": 76324, "pitch": 72, "duration": 957, "velocity": 85}, {"time": 77280, "pitch": 71, "duration": 962, "velocity": 85}, {"time": 77280, "pitch": 74, "duration": 962, "velocity": 80}, {"time": 78241, "pitch": 69, "duration": 962, "velocity": 85}, {"time": 78241, "pitch": 73, "duration": 962, "velocity": 80}, {"time": 79202, "pitch": 67, "duration": 3837, "velocity": 80}, {"time": 79202, "pitch": 74, "duration": 3837, "velocity": 80}, {"time": 79923, "pitch": 79, "duration": 3116, "velocity": 80}, {"time": 81121, "pitch": 70, "duration": 1918, "velocity": 75}, {"time": 83039, "pitch": 69, "duration": 3843, "velocity": 90}, {"time": 83039, "pitch": 76, "duration": 722, "velocity": 97}, {"time": 83039, "pitch": 81, "duration": 3362, "velocity": 88}, {"time": 83766, "pitch": 74, "duration": 1192, "velocity": 88}, {"time": 84958, "pitch": 76, "duration": 721, "velocity": 95}, {"time": 85684, "pitch": 74, "duration": 3116, "velocity": 82}, {"time": 86401, "pitch": 79, "duration": 481, "velocity": 95}, {"time": 86882, "pitch": 71, "duration": 1918, "velocity": 90}, {"time": 86882, "pitch": 78, "duration": 1918, "velocity": 100}, {"time": 88800, "pitch": 69, "duration": 1919, "velocity": 85}, {"time": 88800, "pitch": 73, "duration": 1919, "velocity": 90}, {"time": 88800, "pitch": 76, "duration": 1919, "velocity": 95}, {"time": 90719, "pitch": 67, "duration": 1919, "velocity": 85}, {"time": 90719, "pitch": 71, "duration": 1919, "velocity": 90}, {"time": 90719, "pitch": 74, "duration": 3843, "velocity": 95}, {"time": 92638, "pitch": 66, "duration": 1924, "velocity": 85}, {"time": 92638, "pitch": 69, "duration": 1924, "velocity": 90}, {"time": 94562, "pitch": 67, "duration": 1918, "velocity": 85}, {"time": 94562, "pitch": 71, "duration": 3837, "velocity": 90}, {"time": 94562, "pitch": 76, "duration": 1918, "velocity": 95}, {"time": 96480, "pitch": 74, "duration": 1919, "velocity": 90}, {"time": 96480, "pitch": 78, "duration": 1919, "velocity": 95}, {"time": 98399, "pitch": 73, "duration": 1443, "velocity": 87}, {"time": 98399, "pitch": 76, "duration": 1443, "velocity": 92}, {"time": 98399, "pitch": 81, "duration": 7680, "velocity": 102}, {"time": 99842, "pitch": 71, "duration": 475, "velocity": 85}, {"time": 99842, "pitch": 74, "duration": 475, "velocity": 90}, {"time": 100317, "pitch": 73, "duration": 1925, "velocity": 85}, {"time": 100317, "pitch": 76, "duration": 5762, "velocity": 95}, {"time": 106079, "pitch": 74, "duration": 1918, "velocity": 90}, {"time": 106079, "pitch": 79, "duration": 3843, "velocity": 85}, {"time": 107997, "pitch": 73, "duration": 963, "velocity": 80}, {"time": 108960, "pitch": 74, "duration": 481, "velocity": 80}, {"time": 109441, "pitch": 73, "duration": 481, "velocity": 80}, {"time": 109922, "pitch": 81, "duration": 3837, "velocity": 90}, {"time": 109924, "pitch": 76, "duration": 3837, "velocity": 85}, {"time": 113759, "pitch": 74, "duration": 1443, "velocity": 85}, {"time": 113759, "pitch": 79, "duration": 962, "velocity": 90}, {"time": 114721, "pitch": 81, "duration": 4799, "velocity": 85}, {"time": 115202, "pitch": 73, "duration": 475, "velocity": 85}, {"time": 115677, "pitch": 74, "duration": 1925, "velocity": 80}, {"time": 115677, "pitch": 86, "duration": 1925, "velocity": 90}, {"time": 117602, "pitch": 72, "duration": 1918, "velocity": 98}, {"time": 117602, "pitch": 84, "duration": 1918, "velocity": 103}, {"time": 119520, "pitch": 70, "duration": 1919, "velocity": 88}, {"time": 119520, "pitch": 79, "duration": 1919, "velocity": 98}, {"time": 119520, "pitch": 82, "duration": 1919, "velocity": 103}, {"time": 121439, "pitch": 68, "duration": 1918, "velocity": 88}, {"time": 121439, "pitch": 77, "duration": 1918, "velocity": 98}, {"time": 121439, "pitch": 80, "duration": 1918, "velocity": 103}, {"time": 123357, "pitch": 67, "duration": 5762, "velocity": 88}, {"time": 123357, "pitch": 74, "duration": 3843, "velocity": 98}, {"time": 123357, "pitch": 79, "duration": 3843, "velocity": 103}, {"time": 127200, "pitch": 71, "duration": 1919, "velocity": 85}, {"time": 127200, "pitch": 76, "duration": 3837, "velocity": 90}, {"time": 129119, "pitch": 69, "duration": 1918, "velocity": 85}, {"time": 129119, "pitch": 72, "duration": 1918, "velocity": 90}, {"time": 131037, "pitch": 65, "duration": 1924, "velocity": 85}, {"time": 131037, "pitch": 70, "duration": 1924, "velocity": 90}, {"time": 131037, "pitch": 74, "duration": 3843, "velocity": 95}, {"time": 132961, "pitch": 67, "duration": 1919, "velocity": 85}, {"time": 132961, "pitch": 71, "duration": 1919, "velocity": 90}, {"time": 134880, "pitch": 68, "duration": 1918, "velocity": 85}, {"time": 134880, "pitch": 72, "duration": 1918, "velocity": 90}, {"time": 134880, "pitch": 75, "duration": 1918, "velocity": 95}, {"time": 136798, "pitch": 77, "duration": 3843, "velocity": 90}, {"time": 136798, "pitch": 82, "duration": 3843, "velocity": 85}, {"time": 140641, "pitch": 75, "duration": 1919, "velocity": 90}, {"time": 140641, "pitch": 80, "duration": 3837, "velocity": 85}, {"time": 142560, "pitch": 74, "duration": 962, "velocity": 80}, {"time": 143522, "pitch": 75, "duration": 475, "velocity": 80}, {"time": 143997, "pitch": 74, "duration": 481, "velocity": 80}, {"time": 144478, "pitch": 77, "duration": 3843, "velocity": 85}, {"time": 144478, "pitch": 82, "duration": 3843, "velocity": 90}, {"time": 148321, "pitch": 75, "duration": 1919, "velocity": 90}, {"time": 148321, "pitch": 80, "duration": 3837, "velocity": 85}, {"time": 150240, "pitch": 74, "duration": 962, "velocity": 80}, {"time": 151202, "pitch": 75, "duration": 475, "velocity": 80}, {"time": 151677, "pitch": 74, "duration": 2406, "velocity": 80}, {"time": 152158, "pitch": 79, "duration": 3843, "velocity": 90}, {"time": 154083, "pitch": 75, "duration": 7209, "velocity": 80}, {"time": 156001, "pitch": 80, "duration": 957, "velocity": 90}, {"time": 156958, "pitch": 82, "duration": 2880, "velocity": 85}, {"time": 159838, "pitch": 80, "duration": 2412, "velocity": 85}, {"time": 161292, "pitch": 73, "duration": 958, "velocity": 90}, {"time": 162250, "pitch": 70, "duration": 3821, "velocity": 85}, {"time": 162250, "pitch": 79, "duration": 3821, "velocity": 85}, {"time": 4802, "pitch": 66, "duration": 228, "velocity": 127}, {"time": 5040, "pitch": 64, "duration": 228, "velocity": 127}, {"time": 5278, "pitch": 67, "duration": 230, "velocity": 127}, {"time": 5518, "pitch": 66, "duration": 231, "velocity": 127}, {"time": 5759, "pitch": 64, "duration": 230, "velocity": 127}, {"time": 5999, "pitch": 62, "duration": 235, "velocity": 127}, {"time": 6241, "pitch": 64, "duration": 150, "velocity": 127}, {"time": 6400, "pitch": 62, "duration": 80, "velocity": 127}, {"time": 6480, "pitch": 62, "duration": 151, "velocity": 127}, {"time": 6641, "pitch": 62, "duration": 220, "velocity": 127}, {"time": 6871, "pitch": 59, "duration": 71, "velocity": 127}, {"time": 6962, "pitch": 62, "duration": 956, "velocity": 127}, {"time": 8640, "pitch": 62, "duration": 220, "velocity": 127}, {"time": 8880, "pitch": 62, "duration": 221, "velocity": 127}, {"time": 9122, "pitch": 62, "duration": 235, "velocity": 127}, {"time": 9361, "pitch": 61, "duration": 140, "velocity": 127}, {"time": 9522, "pitch": 59, "duration": 634, "velocity": 127}, {"time": 10559, "pitch": 62, "duration": 150, "velocity": 127}, {"time": 10718, "pitch": 62, "duration": 191, "velocity": 127}, {"time": 10919, "pitch": 62, "duration": 110, "velocity": 127}, {"time": 11040, "pitch": 65, "duration": 214, "velocity": 127}, {"time": 11281, "pitch": 64, "duration": 150, "velocity": 127}, {"time": 11440, "pitch": 62, "duration": 321, "velocity": 127}, {"time": 11762, "pitch": 57, "duration": 220, "velocity": 127}, {"time": 12001, "pitch": 57, "duration": 221, "velocity": 127}, {"time": 12242, "pitch": 66, "duration": 140, "velocity": 127}, {"time": 12392, "pitch": 66, "duration": 846, "velocity": 127}, {"time": 13440, "pitch": 69, "duration": 441, "velocity": 127}, {"time": 13940, "pitch": 67, "duration": 150, "velocity": 127}, {"time": 14100, "pitch": 66, "duration": 100, "velocity": 127}, {"time": 14210, "pitch": 62, "duration": 1098, "velocity": 127}, {"time": 16319, "pitch": 66, "duration": 228, "velocity": 127}, {"time": 16560, "pitch": 64, "duration": 220, "velocity": 127}, {"time": 16801, "pitch": 67, "duration": 230, "velocity": 127}, {"time": 17041, "pitch": 66, "duration": 221, "velocity": 127}, {"time": 17282, "pitch": 64, "duration": 215, "velocity": 127}, {"time": 17522, "pitch": 62, "duration": 235, "velocity": 127}, {"time": 17764, "pitch": 64, "duration": 148, "velocity": 127}, {"time": 17921, "pitch": 62, "duration": 69, "velocity": 127}, {"time": 18000, "pitch": 62, "duration": 1367, "velocity": 127}, {"time": 20163, "pitch": 58, "duration": 129, "velocity": 127}, {"time": 20321, "pitch": 62, "duration": 218, "velocity": 127}, {"time": 20558, "pitch": 58, "duration": 80, "velocity": 127}, {"time": 20639, "pitch": 62, "duration": 230, "velocity": 127}, {"time": 20878, "pitch": 62, "duration": 682, "velocity": 127}, {"time": 22082, "pitch": 58, "duration": 140, "velocity": 127}, {"time": 22241, "pitch": 62, "duration": 202, "velocity": 127}, {"time": 22472, "pitch": 58, "duration": 70, "velocity": 127}, {"time": 22563, "pitch": 67, "duration": 218, "velocity": 127}, {"time": 22801, "pitch": 66, "duration": 458, "velocity": 127}, {"time": 23428, "pitch": 64, "duration": 1, "velocity": 125}, {"time": 23518, "pitch": 64, "duration": 221, "velocity": 115}, {"time": 23760, "pitch": 62, "duration": 137, "velocity": 127}, {"time": 23909, "pitch": 62, "duration": 962, "velocity": 127}, {"time": 24963, "pitch": 66, "duration": 230, "velocity": 127}, {"time": 25204, "pitch": 67, "duration": 140, "velocity": 127}, {"time": 25352, "pitch": 67, "duration": 63, "velocity": 125}, {"time": 25443, "pitch": 69, "duration": 148, "velocity": 127}, {"time": 25591, "pitch": 67, "duration": 79, "velocity": 127}, {"time": 25681, "pitch": 66, "duration": 149, "velocity": 127}, {"time": 25829, "pitch": 62, "duration": 1003, "velocity": 127}, {"time": 27842, "pitch": 62, "duration": 228, "velocity": 127}, {"time": 28081, "pitch": 66, "duration": 222, "velocity": 127}, {"time": 28318, "pitch": 64, "duration": 223, "velocity": 127}, {"time": 28558, "pitch": 62, "duration": 140, "velocity": 127}, {"time": 28718, "pitch": 61, "duration": 309, "velocity": 127}, {"time": 29039, "pitch": 59, "duration": 236, "velocity": 127}, {"time": 29280, "pitch": 62, "duration": 220, "velocity": 127}, {"time": 29521, "pitch": 61, "duration": 141, "velocity": 127}, {"time": 29671, "pitch": 61, "duration": 320, "velocity": 127}, {"time": 30001, "pitch": 59, "duration": 151, "velocity": 127}, {"time": 30162, "pitch": 57, "duration": 836, "velocity": 127}, {"time": 31679, "pitch": 62, "duration": 131, "velocity": 127}, {"time": 31840, "pitch": 62, "duration": 220, "velocity": 127}, {"time": 32080, "pitch": 62, "duration": 297, "velocity": 127}, {"time": 32401, "pitch": 61, "duration": 138, "velocity": 127}, {"time": 32561, "pitch": 59, "duration": 534, "velocity": 127}, {"time": 33123, "pitch": 57, "duration": 227, "velocity": 127}, {"time": 33361, "pitch": 55, "duration": 141, "velocity": 127}, {"time": 33519, "pitch": 54, "duration": 1195, "velocity": 127}, {"time": 35041, "pitch": 67, "duration": 699, "velocity": 127}, {"time": 35760, "pitch": 67, "duration": 218, "velocity": 127}, {"time": 35997, "pitch": 67, "duration": 221, "velocity": 127}, {"time": 36238, "pitch": 66, "duration": 214, "velocity": 127}, {"time": 36478, "pitch": 64, "duration": 221, "velocity": 127}, {"time": 36719, "pitch": 62, "duration": 208, "velocity": 127}, {"time": 36960, "pitch": 66, "duration": 140, "velocity": 127}, {"time": 37120, "pitch": 64, "duration": 70, "velocity": 127}, {"time": 37200, "pitch": 62, "duration": 950, "velocity": 127}, {"time": 38640, "pitch": 62, "duration": 228, "velocity": 127}, {"time": 38878, "pitch": 61, "duration": 712, "velocity": 127}, {"time": 39600, "pitch": 61, "duration": 222, "velocity": 127}, {"time": 39840, "pitch": 61, "duration": 451, "velocity": 127}, {"time": 40321, "pitch": 61, "duration": 211, "velocity": 127}, {"time": 40562, "pitch": 62, "duration": 468, "velocity": 127}, {"time": 41041, "pitch": 64, "duration": 1600, "velocity": 127}, {"time": 42962, "pitch": 66, "duration": 147, "velocity": 127}, {"time": 43122, "pitch": 64, "duration": 70, "velocity": 115}, {"time": 43212, "pitch": 64, "duration": 446, "velocity": 120}, {"time": 43677, "pitch": 67, "duration": 151, "velocity": 127}, {"time": 43838, "pitch": 66, "duration": 70, "velocity": 115}, {"time": 43918, "pitch": 66, "duration": 691, "velocity": 120}, {"time": 44880, "pitch": 66, "duration": 140, "velocity": 127}, {"time": 45040, "pitch": 64, "duration": 75, "velocity": 115}, {"time": 45131, "pitch": 64, "duration": 451, "velocity": 120}, {"time": 45602, "pitch": 67, "duration": 150, "velocity": 127}, {"time": 45762, "pitch": 66, "duration": 70, "velocity": 115}, {"time": 45842, "pitch": 66, "duration": 389, "velocity": 127}, {"time": 46320, "pitch": 64, "duration": 154, "velocity": 127}, {"time": 46479, "pitch": 66, "duration": 69, "velocity": 125}, {"time": 46559, "pitch": 67, "duration": 221, "velocity": 125}, {"time": 46799, "pitch": 66, "duration": 230, "velocity": 122}, {"time": 47040, "pitch": 64, "duration": 231, "velocity": 127}, {"time": 47280, "pitch": 62, "duration": 230, "velocity": 127}, {"time": 47520, "pitch": 62, "duration": 231, "velocity": 127}, {"time": 47761, "pitch": 58, "duration": 142, "velocity": 127}, {"time": 47921, "pitch": 62, "duration": 276, "velocity": 127}, {"time": 48242, "pitch": 66, "duration": 230, "velocity": 127}, {"time": 48482, "pitch": 66, "duration": 228, "velocity": 127}, {"time": 48720, "pitch": 67, "duration": 149, "velocity": 127}, {"time": 48878, "pitch": 64, "duration": 230, "velocity": 120}, {"time": 49118, "pitch": 62, "duration": 70, "velocity": 118}, {"time": 49198, "pitch": 62, "duration": 151, "velocity": 120}, {"time": 49349, "pitch": 64, "duration": 1026, "velocity": 115}, {"time": 50641, "pitch": 66, "duration": 148, "velocity": 127}, {"time": 50802, "pitch": 64, "duration": 70, "velocity": 127}, {"time": 50892, "pitch": 64, "duration": 445, "velocity": 127}, {"time": 51357, "pitch": 67, "duration": 157, "velocity": 127}, {"time": 51518, "pitch": 66, "duration": 70, "velocity": 127}, {"time": 51598, "pitch": 66, "duration": 683, "velocity": 127}, {"time": 52560, "pitch": 66, "duration": 143, "velocity": 127}, {"time": 52720, "pitch": 64, "duration": 70, "velocity": 127}, {"time": 52811, "pitch": 64, "duration": 230, "velocity": 127}, {"time": 53041, "pitch": 64, "duration": 231, "velocity": 127}, {"time": 53282, "pitch": 67, "duration": 150, "velocity": 127}, {"time": 53442, "pitch": 66, "duration": 70, "velocity": 127}, {"time": 53522, "pitch": 66, "duration": 449, "velocity": 127}, {"time": 54000, "pitch": 67, "duration": 149, "velocity": 127}, {"time": 54149, "pitch": 66, "duration": 79, "velocity": 115}, {"time": 54238, "pitch": 67, "duration": 451, "velocity": 127}, {"time": 54719, "pitch": 67, "duration": 451, "velocity": 122}, {"time": 55200, "pitch": 67, "duration": 451, "velocity": 127}, {"time": 55681, "pitch": 66, "duration": 451, "velocity": 127}, {"time": 56162, "pitch": 62, "duration": 2261, "velocity": 127}, {"time": 64317, "pitch": 66, "duration": 231, "velocity": 127}, {"time": 64558, "pitch": 64, "duration": 231, "velocity": 125}, {"time": 64799, "pitch": 67, "duration": 230, "velocity": 127}, {"time": 65039, "pitch": 66, "duration": 231, "velocity": 116}, {"time": 65280, "pitch": 64, "duration": 230, "velocity": 127}, {"time": 65520, "pitch": 62, "duration": 235, "velocity": 127}, {"time": 65762, "pitch": 64, "duration": 150, "velocity": 127}, {"time": 65921, "pitch": 62, "duration": 80, "velocity": 127}, {"time": 66001, "pitch": 62, "duration": 151, "velocity": 127}, {"time": 66162, "pitch": 62, "duration": 220, "velocity": 127}, {"time": 66392, "pitch": 59, "duration": 70, "velocity": 127}, {"time": 66482, "pitch": 62, "duration": 1089, "velocity": 127}, {"time": 68160, "pitch": 62, "duration": 221, "velocity": 127}, {"time": 68401, "pitch": 62, "duration": 220, "velocity": 127}, {"time": 68642, "pitch": 62, "duration": 236, "velocity": 127}, {"time": 68882, "pitch": 61, "duration": 140, "velocity": 127}, {"time": 69042, "pitch": 59, "duration": 546, "velocity": 127}, {"time": 70080, "pitch": 62, "duration": 150, "velocity": 127}, {"time": 70239, "pitch": 62, "duration": 231, "velocity": 120}, {"time": 70470, "pitch": 62, "duration": 70, "velocity": 115}, {"time": 70561, "pitch": 65, "duration": 213, "velocity": 118}, {"time": 70801, "pitch": 64, "duration": 151, "velocity": 127}, {"time": 70961, "pitch": 62, "duration": 321, "velocity": 127}, {"time": 71282, "pitch": 57, "duration": 220, "velocity": 127}, {"time": 71522, "pitch": 57, "duration": 218, "velocity": 127}, {"time": 71761, "pitch": 66, "duration": 138, "velocity": 127}, {"time": 71907, "pitch": 66, "duration": 851, "velocity": 127}, {"time": 72960, "pitch": 69, "duration": 441, "velocity": 127}, {"time": 73451, "pitch": 67, "duration": 150, "velocity": 127}, {"time": 73601, "pitch": 66, "duration": 100, "velocity": 127}, {"time": 73691, "pitch": 62, "duration": 1440, "velocity": 127}, {"time": 75840, "pitch": 66, "duration": 228, "velocity": 127}, {"time": 76081, "pitch": 64, "duration": 220, "velocity": 127}, {"time": 76321, "pitch": 67, "duration": 231, "velocity": 127}, {"time": 76562, "pitch": 66, "duration": 220, "velocity": 127}, {"time": 76802, "pitch": 64, "duration": 213, "velocity": 127}, {"time": 77040, "pitch": 62, "duration": 232, "velocity": 127}, {"time": 77279, "pitch": 64, "duration": 160, "velocity": 127}, {"time": 77438, "pitch": 62, "duration": 70, "velocity": 127}, {"time": 77518, "pitch": 62, "duration": 1373, "velocity": 127}, {"time": 79678, "pitch": 58, "duration": 131, "velocity": 127}, {"time": 79838, "pitch": 62, "duration": 220, "velocity": 127}, {"time": 80078, "pitch": 58, "duration": 80, "velocity": 127}, {"time": 80159, "pitch": 62, "duration": 231, "velocity": 127}, {"time": 80399, "pitch": 58, "duration": 140, "velocity": 115}, {"time": 80549, "pitch": 62, "duration": 612, "velocity": 127}, {"time": 81603, "pitch": 58, "duration": 140, "velocity": 127}, {"time": 81762, "pitch": 62, "duration": 201, "velocity": 127}, {"time": 81993, "pitch": 58, "duration": 70, "velocity": 127}, {"time": 82084, "pitch": 67, "duration": 218, "velocity": 127}, {"time": 82321, "pitch": 66, "duration": 458, "velocity": 127}, {"time": 82949, "pitch": 64, "duration": 1, "velocity": 125}, {"time": 83039, "pitch": 64, "duration": 221, "velocity": 115}, {"time": 83281, "pitch": 62, "duration": 137, "velocity": 127}, {"time": 83430, "pitch": 62, "duration": 962, "velocity": 127}, {"time": 84483, "pitch": 66, "duration": 228, "velocity": 127}, {"time": 84722, "pitch": 67, "duration": 218, "velocity": 127}, {"time": 84958, "pitch": 69, "duration": 150, "velocity": 127}, {"time": 85108, "pitch": 67, "duration": 80, "velocity": 127}, {"time": 85199, "pitch": 66, "duration": 150, "velocity": 127}, {"time": 85348, "pitch": 62, "duration": 1005, "velocity": 127}, {"time": 87357, "pitch": 62, "duration": 231, "velocity": 127}, {"time": 87599, "pitch": 66, "duration": 224, "velocity": 127}, {"time": 87838, "pitch": 64, "duration": 224, "velocity": 127}, {"time": 88079, "pitch": 62, "duration": 140, "velocity": 127}, {"time": 88239, "pitch": 61, "duration": 309, "velocity": 127}, {"time": 88560, "pitch": 59, "duration": 235, "velocity": 127}, {"time": 88800, "pitch": 62, "duration": 221, "velocity": 127}, {"time": 89042, "pitch": 61, "duration": 144, "velocity": 127}, {"time": 89191, "pitch": 61, "duration": 241, "velocity": 127}, {"time": 89442, "pitch": 59, "duration": 70, "velocity": 122}, {"time": 89522, "pitch": 59, "duration": 468, "velocity": 120}, {"time": 90000, "pitch": 57, "duration": 699, "velocity": 118}, {"time": 91200, "pitch": 62, "duration": 150, "velocity": 127}, {"time": 91360, "pitch": 62, "duration": 221, "velocity": 127}, {"time": 91601, "pitch": 62, "duration": 311, "velocity": 127}, {"time": 91922, "pitch": 61, "duration": 150, "velocity": 127}, {"time": 92082, "pitch": 59, "duration": 308, "velocity": 127}, {"time": 92400, "pitch": 59, "duration": 228, "velocity": 127}, {"time": 92638, "pitch": 57, "duration": 230, "velocity": 127}, {"time": 92879, "pitch": 55, "duration": 163, "velocity": 127}, {"time": 93038, "pitch": 54, "duration": 1003, "velocity": 127}, {"time": 94321, "pitch": 64, "duration": 151, "velocity": 120}, {"time": 94472, "pitch": 66, "duration": 80, "velocity": 115}, {"time": 94562, "pitch": 67, "duration": 696, "velocity": 127}, {"time": 95278, "pitch": 67, "duration": 230, "velocity": 127}, {"time": 95518, "pitch": 67, "duration": 231, "velocity": 127}, {"time": 95759, "pitch": 66, "duration": 214, "velocity": 127}, {"time": 95999, "pitch": 64, "duration": 221, "velocity": 127}, {"time": 96240, "pitch": 62, "duration": 207, "velocity": 127}, {"time": 96480, "pitch": 66, "duration": 141, "velocity": 127}, {"time": 96641, "pitch": 64, "duration": 70, "velocity": 127}, {"time": 96721, "pitch": 62, "duration": 965, "velocity": 127}, {"time": 98158, "pitch": 62, "duration": 229, "velocity": 127}, {"time": 98399, "pitch": 61, "duration": 952, "velocity": 127}, {"time": 99361, "pitch": 61, "duration": 451, "velocity": 120}, {"time": 99842, "pitch": 61, "duration": 218, "velocity": 127}, {"time": 100080, "pitch": 62, "duration": 468, "velocity": 127}, {"time": 100559, "pitch": 64, "duration": 1646, "velocity": 127}, {"time": 102482, "pitch": 66, "duration": 148, "velocity": 127}, {"time": 102643, "pitch": 64, "duration": 70, "velocity": 127}, {"time": 102733, "pitch": 64, "duration": 455, "velocity": 127}, {"time": 103198, "pitch": 67, "duration": 150, "velocity": 127}, {"time": 103358, "pitch": 66, "duration": 71, "velocity": 127}, {"time": 103439, "pitch": 66, "duration": 689, "velocity": 127}, {"time": 104401, "pitch": 66, "duration": 143, "velocity": 127}, {"time": 104561, "pitch": 64, "duration": 80, "velocity": 127}, {"time": 104651, "pitch": 64, "duration": 221, "velocity": 127}, {"time": 104882, "pitch": 64, "duration": 230, "velocity": 120}, {"time": 105122, "pitch": 67, "duration": 155, "velocity": 127}, {"time": 105281, "pitch": 66, "duration": 69, "velocity": 127}, {"time": 105360, "pitch": 66, "duration": 392, "velocity": 127}, {"time": 105838, "pitch": 64, "duration": 151, "velocity": 127}, {"time": 105999, "pitch": 66, "duration": 70, "velocity": 127}, {"time": 106080, "pitch": 67, "duration": 220, "velocity": 127}, {"time": 106319, "pitch": 66, "duration": 221, "velocity": 127}, {"time": 106561, "pitch": 64, "duration": 220, "velocity": 127}, {"time": 106800, "pitch": 62, "duration": 211, "velocity": 127}, {"time": 107041, "pitch": 62, "duration": 210, "velocity": 127}, {"time": 107282, "pitch": 58, "duration": 150, "velocity": 127}, {"time": 107442, "pitch": 62, "duration": 273, "velocity": 127}, {"time": 107760, "pitch": 66, "duration": 237, "velocity": 127}, {"time": 107997, "pitch": 66, "duration": 241, "velocity": 127}, {"time": 108238, "pitch": 67, "duration": 150, "velocity": 120}, {"time": 108398, "pitch": 64, "duration": 231, "velocity": 125}, {"time": 108639, "pitch": 62, "duration": 70, "velocity": 120}, {"time": 108719, "pitch": 62, "duration": 150, "velocity": 118}, {"time": 108869, "pitch": 64, "duration": 882, "velocity": 115}, {"time": 110162, "pitch": 66, "duration": 148, "velocity": 127}, {"time": 110323, "pitch": 64, "duration": 70, "velocity": 127}, {"time": 110413, "pitch": 64, "duration": 445, "velocity": 127}, {"time": 110878, "pitch": 67, "duration": 150, "velocity": 127}, {"time": 111038, "pitch": 66, "duration": 71, "velocity": 127}, {"time": 111119, "pitch": 66, "duration": 651, "velocity": 127}, {"time": 112081, "pitch": 66, "duration": 143, "velocity": 127}, {"time": 112241, "pitch": 64, "duration": 70, "velocity": 127}, {"time": 112331, "pitch": 64, "duration": 221, "velocity": 127}, {"time": 112562, "pitch": 64, "duration": 230, "velocity": 120}, {"time": 112802, "pitch": 67, "duration": 149, "velocity": 127}, {"time": 112961, "pitch": 66, "duration": 69, "velocity": 127}, {"time": 113040, "pitch": 66, "duration": 358, "velocity": 127}, {"time": 113518, "pitch": 67, "duration": 156, "velocity": 127}, {"time": 113679, "pitch": 66, "duration": 70, "velocity": 127}, {"time": 113759, "pitch": 67, "duration": 451, "velocity": 127}, {"time": 114240, "pitch": 67, "duration": 451, "velocity": 127}, {"time": 114721, "pitch": 67, "duration": 451, "velocity": 127}, {"time": 115202, "pitch": 66, "duration": 446, "velocity": 127}, {"time": 115677, "pitch": 62, "duration": 1744, "velocity": 127}, {"time": 117602, "pitch": 69, "duration": 220, "velocity": 127}, {"time": 117843, "pitch": 69, "duration": 221, "velocity": 127}, {"time": 118083, "pitch": 69, "duration": 218, "velocity": 127}, {"time": 118320, "pitch": 69, "duration": 218, "velocity": 127}, {"time": 118558, "pitch": 69, "duration": 150, "velocity": 127}, {"time": 118718, "pitch": 67, "duration": 70, "velocity": 127}, {"time": 118798, "pitch": 65, "duration": 592, "velocity": 127}, {"time": 119520, "pitch": 67, "duration": 221, "velocity": 127}, {"time": 119761, "pitch": 67, "duration": 220, "velocity": 127}, {"time": 120001, "pitch": 67, "duration": 231, "velocity": 127}, {"time": 120242, "pitch": 63, "duration": 230, "velocity": 127}, {"time": 120482, "pitch": 63, "duration": 149, "velocity": 120}, {"time": 120641, "pitch": 65, "duration": 69, "velocity": 127}, {"time": 120720, "pitch": 67, "duration": 598, "velocity": 127}, {"time": 121439, "pitch": 65, "duration": 220, "velocity": 127}, {"time": 121679, "pitch": 65, "duration": 221, "velocity": 127}, {"time": 121921, "pitch": 65, "duration": 220, "velocity": 127}, {"time": 122160, "pitch": 65, "duration": 151, "velocity": 127}, {"time": 122311, "pitch": 65, "duration": 70, "velocity": 120}, {"time": 122402, "pitch": 68, "duration": 220, "velocity": 127}, {"time": 122643, "pitch": 68, "duration": 221, "velocity": 127}, {"time": 122882, "pitch": 68, "duration": 148, "velocity": 127}, {"time": 123040, "pitch": 67, "duration": 70, "velocity": 127}, {"time": 123120, "pitch": 65, "duration": 225, "velocity": 127}, {"time": 123357, "pitch": 67, "duration": 1083, "velocity": 127}, {"time": 124560, "pitch": 67, "duration": 391, "velocity": 127}, {"time": 124961, "pitch": 69, "duration": 311, "velocity": 127}, {"time": 125282, "pitch": 71, "duration": 1678, "velocity": 127}, {"time": 137039, "pitch": 67, "duration": 147, "velocity": 127}, {"time": 137199, "pitch": 65, "duration": 71, "velocity": 115}, {"time": 137290, "pitch": 65, "duration": 451, "velocity": 120}, {"time": 137761, "pitch": 68, "duration": 150, "velocity": 127}, {"time": 137921, "pitch": 67, "duration": 70, "velocity": 115}, {"time": 138001, "pitch": 67, "duration": 692, "velocity": 120}, {"time": 138960, "pitch": 67, "duration": 139, "velocity": 127}, {"time": 139119, "pitch": 65, "duration": 73, "velocity": 115}, {"time": 139208, "pitch": 65, "duration": 451, "velocity": 120}, {"time": 139679, "pitch": 68, "duration": 151, "velocity": 127}, {"time": 139840, "pitch": 67, "duration": 70, "velocity": 115}, {"time": 139920, "pitch": 67, "duration": 391, "velocity": 127}, {"time": 140401, "pitch": 65, "duration": 155, "velocity": 127}, {"time": 140561, "pitch": 67, "duration": 70, "velocity": 125}, {"time": 140642, "pitch": 68, "duration": 221, "velocity": 125}, {"time": 140882, "pitch": 67, "duration": 230, "velocity": 122}, {"time": 141123, "pitch": 65, "duration": 228, "velocity": 127}, {"time": 141360, "pitch": 63, "duration": 228, "velocity": 127}, {"time": 141598, "pitch": 63, "duration": 230, "velocity": 127}, {"time": 141838, "pitch": 59, "duration": 143, "velocity": 127}, {"time": 141999, "pitch": 63, "duration": 275, "velocity": 127}, {"time": 142319, "pitch": 67, "duration": 231, "velocity": 127}, {"time": 142560, "pitch": 67, "duration": 230, "velocity": 127}, {"time": 142800, "pitch": 68, "duration": 151, "velocity": 127}, {"time": 142961, "pitch": 65, "duration": 230, "velocity": 120}, {"time": 143201, "pitch": 63, "duration": 70, "velocity": 118}, {"time": 143282, "pitch": 63, "duration": 150, "velocity": 120}, {"time": 143432, "pitch": 65, "duration": 1004, "velocity": 115}, {"time": 144719, "pitch": 67, "duration": 147, "velocity": 127}, {"time": 144879, "pitch": 65, "duration": 70, "velocity": 127}, {"time": 144970, "pitch": 65, "duration": 451, "velocity": 127}, {"time": 145441, "pitch": 68, "duration": 156, "velocity": 127}, {"time": 145601, "pitch": 67, "duration": 70, "velocity": 127}, {"time": 145681, "pitch": 67, "duration": 676, "velocity": 127}, {"time": 146640, "pitch": 67, "duration": 142, "velocity": 127}, {"time": 146799, "pitch": 65, "duration": 69, "velocity": 127}, {"time": 146888, "pitch": 65, "duration": 221, "velocity": 127}, {"time": 147119, "pitch": 65, "duration": 220, "velocity": 120}, {"time": 147359, "pitch": 68, "duration": 150, "velocity": 127}, {"time": 147519, "pitch": 67, "duration": 71, "velocity": 127}, {"time": 147600, "pitch": 67, "duration": 451, "velocity": 127}, {"time": 148081, "pitch": 65, "duration": 155, "velocity": 127}, {"time": 148241, "pitch": 67, "duration": 70, "velocity": 127}, {"time": 148321, "pitch": 68, "duration": 221, "velocity": 127}, {"time": 148562, "pitch": 67, "duration": 220, "velocity": 127}, {"time": 148802, "pitch": 65, "duration": 218, "velocity": 127}, {"time": 149040, "pitch": 63, "duration": 208, "velocity": 127}, {"time": 149278, "pitch": 63, "duration": 210, "velocity": 127}, {"time": 149518, "pitch": 59, "duration": 142, "velocity": 127}, {"time": 149679, "pitch": 63, "duration": 300, "velocity": 127}, {"time": 149999, "pitch": 67, "duration": 141, "velocity": 120}, {"time": 150160, "pitch": 67, "duration": 70, "velocity": 120}, {"time": 150240, "pitch": 67, "duration": 451, "velocity": 127}, {"time": 150721, "pitch": 68, "duration": 220, "velocity": 127}, {"time": 150961, "pitch": 65, "duration": 1157, "velocity": 127}, {"time": 152399, "pitch": 67, "duration": 220, "velocity": 127}, {"time": 152639, "pitch": 67, "duration": 221, "velocity": 127}, {"time": 152880, "pitch": 68, "duration": 220, "velocity": 127}, {"time": 153120, "pitch": 67, "duration": 231, "velocity": 127}, {"time": 153361, "pitch": 65, "duration": 227, "velocity": 127}, {"time": 153602, "pitch": 65, "duration": 220, "velocity": 127}, {"time": 153842, "pitch": 65, "duration": 231, "velocity": 127}, {"time": 154083, "pitch": 67, "duration": 217, "velocity": 127}, {"time": 154320, "pitch": 65, "duration": 218, "velocity": 127}, {"time": 154558, "pitch": 63, "duration": 220, "velocity": 127}, {"time": 154798, "pitch": 62, "duration": 131, "velocity": 127}, {"time": 154959, "pitch": 63, "duration": 822, "velocity": 127}, {"time": 155911, "pitch": 63, "duration": 82, "velocity": 127}, {"time": 156001, "pitch": 68, "duration": 221, "velocity": 127}, {"time": 156242, "pitch": 68, "duration": 140, "velocity": 127}, {"time": 156402, "pitch": 68, "duration": 348, "velocity": 127}, {"time": 156878, "pitch": 67, "duration": 70, "velocity": 120}, {"time": 156958, "pitch": 67, "duration": 220, "velocity": 127}, {"time": 157208, "pitch": 65, "duration": 221, "velocity": 127}, {"time": 157439, "pitch": 63, "duration": 220, "velocity": 127}, {"time": 157679, "pitch": 62, "duration": 461, "velocity": 127}, {"time": 158160, "pitch": 63, "duration": 1217, "velocity": 127}, {"time": 159758, "pitch": 67, "duration": 70, "velocity": 127}, {"time": 159838, "pitch": 67, "duration": 221, "velocity": 127}, {"time": 160079, "pitch": 68, "duration": 150, "velocity": 127}, {"time": 160239, "pitch": 63, "duration": 953, "velocity": 127}, {"time": 161292, "pitch": 65, "duration": 440, "velocity": 127}, {"time": 161761, "pitch": 65, "duration": 479, "velocity": 127}, {"time": 162250, "pitch": 63, "duration": 1787, "velocity": 127}, {"time": 479, "pitch": 86, "duration": 5761, "velocity": 110}, {"time": 27361, "pitch": 93, "duration": 3837, "velocity": 105}, {"time": 31198, "pitch": 91, "duration": 1925, "velocity": 105}, {"time": 33123, "pitch": 90, "duration": 1918, "velocity": 105}, {"time": 35041, "pitch": 88, "duration": 956, "velocity": 105}, {"time": 35997, "pitch": 95, "duration": 481, "velocity": 105}, {"time": 36478, "pitch": 88, "duration": 482, "velocity": 105}, {"time": 36960, "pitch": 90, "duration": 1443, "velocity": 105}, {"time": 38403, "pitch": 86, "duration": 475, "velocity": 107}, {"time": 38878, "pitch": 93, "duration": 1684, "velocity": 110}, {"time": 40562, "pitch": 86, "duration": 240, "velocity": 107}, {"time": 40802, "pitch": 93, "duration": 957, "velocity": 110}, {"time": 41759, "pitch": 91, "duration": 481, "velocity": 109}, {"time": 42240, "pitch": 90, "duration": 481, "velocity": 110}, {"time": 86882, "pitch": 93, "duration": 3837, "velocity": 100}, {"time": 90719, "pitch": 91, "duration": 1919, "velocity": 100}, {"time": 92638, "pitch": 90, "duration": 1924, "velocity": 100}, {"time": 94562, "pitch": 88, "duration": 956, "velocity": 100}, {"time": 95518, "pitch": 95, "duration": 481, "velocity": 100}, {"time": 95999, "pitch": 88, "duration": 481, "velocity": 100}, {"time": 96480, "pitch": 90, "duration": 1438, "velocity": 100}, {"time": 97918, "pitch": 86, "duration": 481, "velocity": 102}, {"time": 98399, "pitch": 93, "duration": 1681, "velocity": 105}, {"time": 100080, "pitch": 86, "duration": 237, "velocity": 102}, {"time": 100317, "pitch": 93, "duration": 963, "velocity": 105}, {"time": 101280, "pitch": 91, "duration": 481, "velocity": 104}, {"time": 101761, "pitch": 90, "duration": 481, "velocity": 105}, {"time": 127200, "pitch": 59, "duration": 120, "velocity": 118}, {"time": 127441, "pitch": 59, "duration": 471, "velocity": 122}, {"time": 127922, "pitch": 62, "duration": 160, "velocity": 118}, {"time": 128082, "pitch": 64, "duration": 80, "velocity": 110}, {"time": 128162, "pitch": 62, "duration": 99, "velocity": 116}, {"time": 128400, "pitch": 59, "duration": 468, "velocity": 120}, {"time": 128878, "pitch": 55, "duration": 100, "velocity": 116}, {"time": 129119, "pitch": 57, "duration": 230, "velocity": 122}, {"time": 129359, "pitch": 57, "duration": 100, "velocity": 116}, {"time": 129600, "pitch": 70, "duration": 120, "velocity": 118}, {"time": 129840, "pitch": 69, "duration": 1158, "velocity": 124}, {"time": 131197, "pitch": 53, "duration": 81, "velocity": 114}, {"time": 131278, "pitch": 51, "duration": 160, "velocity": 112}, {"time": 131438, "pitch": 53, "duration": 80, "velocity": 110}, {"time": 131518, "pitch": 58, "duration": 161, "velocity": 114}, {"time": 131679, "pitch": 60, "duration": 120, "velocity": 112}, {"time": 131759, "pitch": 65, "duration": 160, "velocity": 110}, {"time": 131919, "pitch": 58, "duration": 80, "velocity": 108}, {"time": 131999, "pitch": 67, "duration": 121, "velocity": 116}, {"time": 132240, "pitch": 65, "duration": 701, "velocity": 118}, {"time": 132961, "pitch": 50, "duration": 241, "velocity": 118}, {"time": 133202, "pitch": 55, "duration": 241, "velocity": 110}, {"time": 133443, "pitch": 59, "duration": 237, "velocity": 118}, {"time": 133680, "pitch": 53, "duration": 228, "velocity": 114}, {"time": 133918, "pitch": 62, "duration": 240, "velocity": 118}, {"time": 134158, "pitch": 59, "duration": 241, "velocity": 114}, {"time": 134399, "pitch": 67, "duration": 240, "velocity": 116}, {"time": 134639, "pitch": 62, "duration": 241, "velocity": 112}, {"time": 134880, "pitch": 56, "duration": 241, "velocity": 120}, {"time": 135121, "pitch": 60, "duration": 240, "velocity": 116}, {"time": 135361, "pitch": 63, "duration": 241, "velocity": 118}, {"time": 135602, "pitch": 60, "duration": 240, "velocity": 116}, {"time": 135842, "pitch": 68, "duration": 238, "velocity": 120}, {"time": 136080, "pitch": 63, "duration": 237, "velocity": 118}, {"time": 136317, "pitch": 63, "duration": 241, "velocity": 120}, {"time": 136558, "pitch": 68, "duration": 240, "velocity": 118}, {"time": 136798, "pitch": 67, "duration": 1734, "velocity": 122}, {"time": 43202, "pitch": 86, "duration": 475, "velocity": 100}, {"time": 43677, "pitch": 81, "duration": 481, "velocity": 100}, {"time": 45121, "pitch": 86, "duration": 481, "velocity": 100}, {"time": 45602, "pitch": 81, "duration": 481, "velocity": 100}, {"time": 47039, "pitch": 86, "duration": 481, "velocity": 100}, {"time": 47520, "pitch": 82, "duration": 481, "velocity": 100}, {"time": 48958, "pitch": 85, "duration": 481, "velocity": 100}, {"time": 49439, "pitch": 86, "duration": 481, "velocity": 100}, {"time": 49920, "pitch": 85, "duration": 481, "velocity": 100}, {"time": 50882, "pitch": 86, "duration": 475, "velocity": 100}, {"time": 51357, "pitch": 81, "duration": 481, "velocity": 100}, {"time": 52801, "pitch": 86, "duration": 481, "velocity": 100}, {"time": 53282, "pitch": 81, "duration": 481, "velocity": 100}, {"time": 54478, "pitch": 86, "duration": 241, "velocity": 100}, {"time": 54719, "pitch": 82, "duration": 241, "velocity": 100}, {"time": 54960, "pitch": 79, "duration": 240, "velocity": 100}, {"time": 55200, "pitch": 91, "duration": 481, "velocity": 100}, {"time": 55681, "pitch": 90, "duration": 481, "velocity": 100}, {"time": 56162, "pitch": 86, "duration": 476, "velocity": 100}, {"time": 102723, "pitch": 86, "duration": 475, "velocity": 100}, {"time": 103198, "pitch": 81, "duration": 481, "velocity": 100}, {"time": 104641, "pitch": 86, "duration": 481, "velocity": 100}, {"time": 105122, "pitch": 81, "duration": 476, "velocity": 100}, {"time": 106560, "pitch": 86, "duration": 481, "velocity": 100}, {"time": 107041, "pitch": 82, "duration": 481, "velocity": 100}, {"time": 108478, "pitch": 85, "duration": 482, "velocity": 100}, {"time": 108960, "pitch": 86, "duration": 481, "velocity": 100}, {"time": 109441, "pitch": 85, "duration": 481, "velocity": 100}, {"time": 110403, "pitch": 86, "duration": 475, "velocity": 100}, {"time": 110878, "pitch": 81, "duration": 481, "velocity": 100}, {"time": 112321, "pitch": 86, "duration": 481, "velocity": 100}, {"time": 112802, "pitch": 81, "duration": 476, "velocity": 100}, {"time": 113999, "pitch": 86, "duration": 241, "velocity": 100}, {"time": 114240, "pitch": 82, "duration": 240, "velocity": 100}, {"time": 114480, "pitch": 79, "duration": 241, "velocity": 100}, {"time": 114721, "pitch": 91, "duration": 481, "velocity": 100}, {"time": 115202, "pitch": 90, "duration": 475, "velocity": 100}, {"time": 115677, "pitch": 86, "duration": 481, "velocity": 100}, {"time": 137280, "pitch": 87, "duration": 481, "velocity": 100}, {"time": 137761, "pitch": 82, "duration": 481, "velocity": 100}, {"time": 139198, "pitch": 87, "duration": 481, "velocity": 100}, {"time": 139679, "pitch": 82, "duration": 481, "velocity": 100}, {"time": 141122, "pitch": 87, "duration": 476, "velocity": 100}, {"time": 141598, "pitch": 83, "duration": 481, "velocity": 100}, {"time": 143041, "pitch": 86, "duration": 481, "velocity": 100}, {"time": 143522, "pitch": 87, "duration": 475, "velocity": 100}, {"time": 143997, "pitch": 86, "duration": 481, "velocity": 100}, {"time": 144959, "pitch": 87, "duration": 482, "velocity": 100}, {"time": 145441, "pitch": 82, "duration": 481, "velocity": 100}, {"time": 146878, "pitch": 87, "duration": 481, "velocity": 100}, {"time": 147359, "pitch": 82, "duration": 481, "velocity": 100}, {"time": 148802, "pitch": 87, "duration": 476, "velocity": 100}, {"time": 149278, "pitch": 83, "duration": 481, "velocity": 100}, {"time": 150721, "pitch": 86, "duration": 481, "velocity": 100}, {"time": 151202, "pitch": 87, "duration": 475, "velocity": 100}, {"time": 151677, "pitch": 86, "duration": 481, "velocity": 100}, {"time": 152639, "pitch": 91, "duration": 361, "velocity": 100}, {"time": 153120, "pitch": 86, "duration": 361, "velocity": 100}, {"time": 154558, "pitch": 86, "duration": 240, "velocity": 100}, {"time": 154798, "pitch": 87, "duration": 361, "velocity": 100}, {"time": 156242, "pitch": 87, "duration": 240, "velocity": 100}, {"time": 156482, "pitch": 83, "duration": 238, "velocity": 100}, {"time": 156720, "pitch": 80, "duration": 238, "velocity": 100}, {"time": 156958, "pitch": 92, "duration": 240, "velocity": 100}, {"time": 157439, "pitch": 91, "duration": 240, "velocity": 100}, {"time": 157920, "pitch": 92, "duration": 481, "velocity": 100}, {"time": 158641, "pitch": 91, "duration": 479, "velocity": 100}, {"time": 84958, "pitch": 64, "duration": 471, "velocity": 115}, {"time": 85449, "pitch": 74, "duration": 220, "velocity": 110}, {"time": 88800, "pitch": 45, "duration": 1889, "velocity": 110}, {"time": 92162, "pitch": 62, "duration": 228, "velocity": 115}, {"time": 93610, "pitch": 74, "duration": 220, "velocity": 110}, {"time": 94091, "pitch": 69, "duration": 220, "velocity": 102}, {"time": 97452, "pitch": 62, "duration": 218, "velocity": 115}, {"time": 97680, "pitch": 62, "duration": 709, "velocity": 105}, {"time": 719, "pitch": 69, "duration": 231, "velocity": 106}, {"time": 960, "pitch": 66, "duration": 230, "velocity": 113}, {"time": 1200, "pitch": 62, "duration": 231, "velocity": 109}, {"time": 1441, "pitch": 67, "duration": 230, "velocity": 117}, {"time": 1681, "pitch": 66, "duration": 231, "velocity": 105}, {"time": 1922, "pitch": 62, "duration": 230, "velocity": 113}, {"time": 2162, "pitch": 57, "duration": 231, "velocity": 105}, {"time": 2406, "pitch": 67, "duration": 228, "velocity": 116}, {"time": 2640, "pitch": 58, "duration": 228, "velocity": 105}, {"time": 2883, "pitch": 65, "duration": 231, "velocity": 119}, {"time": 3125, "pitch": 64, "duration": 1222, "velocity": 117}, {"time": 41040, "pitch": 45, "duration": 238, "velocity": 100}, {"time": 41040, "pitch": 57, "duration": 238, "velocity": 75}, {"time": 41040, "pitch": 69, "duration": 238, "velocity": 105}, {"time": 41040, "pitch": 81, "duration": 238, "velocity": 95}, {"time": 41278, "pitch": 50, "duration": 240, "velocity": 98}, {"time": 41278, "pitch": 62, "duration": 240, "velocity": 73}, {"time": 41278, "pitch": 74, "duration": 240, "velocity": 103}, {"time": 41278, "pitch": 86, "duration": 240, "velocity": 93}, {"time": 41518, "pitch": 55, "duration": 241, "velocity": 99}, {"time": 41518, "pitch": 67, "duration": 241, "velocity": 74}, {"time": 41518, "pitch": 79, "duration": 241, "velocity": 104}, {"time": 41518, "pitch": 91, "duration": 241, "velocity": 94}, {"time": 41759, "pitch": 54, "duration": 240, "velocity": 100}, {"time": 41759, "pitch": 66, "duration": 240, "velocity": 75}, {"time": 41759, "pitch": 78, "duration": 240, "velocity": 105}, {"time": 41759, "pitch": 90, "duration": 240, "velocity": 95}, {"time": 41999, "pitch": 50, "duration": 241, "velocity": 98}, {"time": 41999, "pitch": 62, "duration": 241, "velocity": 73}, {"time": 41999, "pitch": 74, "duration": 241, "velocity": 103}, {"time": 41999, "pitch": 86, "duration": 241, "velocity": 93}, {"time": 42240, "pitch": 52, "duration": 120, "velocity": 95}, {"time": 42240, "pitch": 64, "duration": 120, "velocity": 70}, {"time": 42240, "pitch": 76, "duration": 120, "velocity": 100}, {"time": 42240, "pitch": 88, "duration": 120, "velocity": 90}, {"time": 42480, "pitch": 49, "duration": 121, "velocity": 95}, {"time": 42480, "pitch": 61, "duration": 121, "velocity": 70}, {"time": 42480, "pitch": 73, "duration": 121, "velocity": 100}, {"time": 42480, "pitch": 85, "duration": 121, "velocity": 90}, {"time": 42721, "pitch": 50, "duration": 1197, "velocity": 95}, {"time": 42721, "pitch": 62, "duration": 1197, "velocity": 70}, {"time": 42721, "pitch": 74, "duration": 1197, "velocity": 100}, {"time": 42721, "pitch": 86, "duration": 1197, "velocity": 90}, {"time": 43918, "pitch": 45, "duration": 200, "velocity": 95}, {"time": 43918, "pitch": 57, "duration": 200, "velocity": 70}, {"time": 43918, "pitch": 69, "duration": 200, "velocity": 100}, {"time": 43918, "pitch": 81, "duration": 200, "velocity": 90}, {"time": 44158, "pitch": 52, "duration": 121, "velocity": 93}, {"time": 44158, "pitch": 64, "duration": 121, "velocity": 68}, {"time": 44158, "pitch": 76, "duration": 121, "velocity": 98}, {"time": 44158, "pitch": 88, "duration": 121, "velocity": 88}, {"time": 44399, "pitch": 49, "duration": 120, "velocity": 94}, {"time": 44399, "pitch": 61, "duration": 120, "velocity": 69}, {"time": 44399, "pitch": 73, "duration": 120, "velocity": 99}, {"time": 44399, "pitch": 85, "duration": 120, "velocity": 89}, {"time": 44639, "pitch": 50, "duration": 1203, "velocity": 95}, {"time": 44639, "pitch": 62, "duration": 1203, "velocity": 70}, {"time": 44639, "pitch": 74, "duration": 1203, "velocity": 100}, {"time": 44639, "pitch": 86, "duration": 1203, "velocity": 90}, {"time": 45842, "pitch": 45, "duration": 201, "velocity": 93}, {"time": 45842, "pitch": 57, "duration": 201, "velocity": 68}, {"time": 45842, "pitch": 69, "duration": 201, "velocity": 98}, {"time": 45842, "pitch": 81, "duration": 201, "velocity": 88}, {"time": 46083, "pitch": 52, "duration": 119, "velocity": 93}, {"time": 46083, "pitch": 64, "duration": 119, "velocity": 68}, {"time": 46083, "pitch": 76, "duration": 119, "velocity": 98}, {"time": 46083, "pitch": 88, "duration": 119, "velocity": 88}, {"time": 46320, "pitch": 49, "duration": 119, "velocity": 94}, {"time": 46320, "pitch": 61, "duration": 119, "velocity": 69}, {"time": 46320, "pitch": 73, "duration": 119, "velocity": 99}, {"time": 46320, "pitch": 85, "duration": 119, "velocity": 89}, {"time": 46558, "pitch": 50, "duration": 1203, "velocity": 95}, {"time": 46558, "pitch": 62, "duration": 1203, "velocity": 70}, {"time": 46558, "pitch": 74, "duration": 1203, "velocity": 100}, {"time": 46558, "pitch": 86, "duration": 1203, "velocity": 90}, {"time": 47761, "pitch": 43, "duration": 200, "velocity": 94}, {"time": 47761, "pitch": 55, "duration": 200, "velocity": 69}, {"time": 47761, "pitch": 67, "duration": 200, "velocity": 99}, {"time": 47761, "pitch": 79, "duration": 200, "velocity": 89}, {"time": 48001, "pitch": 50, "duration": 121, "velocity": 94}, {"time": 48001, "pitch": 62, "duration": 121, "velocity": 69}, {"time": 48001, "pitch": 74, "duration": 121, "velocity": 99}, {"time": 48001, "pitch": 86, "duration": 121, "velocity": 89}, {"time": 48242, "pitch": 46, "duration": 120, "velocity": 95}, {"time": 48242, "pitch": 58, "duration": 120, "velocity": 70}, {"time": 48242, "pitch": 70, "duration": 120, "velocity": 100}, {"time": 48242, "pitch": 82, "duration": 120, "velocity": 90}, {"time": 48482, "pitch": 45, "duration": 119, "velocity": 96}, {"time": 48482, "pitch": 57, "duration": 119, "velocity": 71}, {"time": 48482, "pitch": 69, "duration": 119, "velocity": 101}, {"time": 48482, "pitch": 81, "duration": 119, "velocity": 91}, {"time": 48720, "pitch": 49, "duration": 478, "velocity": 96}, {"time": 48720, "pitch": 61, "duration": 478, "velocity": 71}, {"time": 48720, "pitch": 73, "duration": 478, "velocity": 101}, {"time": 48720, "pitch": 85, "duration": 478, "velocity": 91}, {"time": 49198, "pitch": 45, "duration": 201, "velocity": 95}, {"time": 49198, "pitch": 57, "duration": 201, "velocity": 70}, {"time": 49198, "pitch": 69, "duration": 201, "velocity": 100}, {"time": 49198, "pitch": 81, "duration": 201, "velocity": 90}, {"time": 49439, "pitch": 50, "duration": 200, "velocity": 97}, {"time": 49439, "pitch": 62, "duration": 200, "velocity": 72}, {"time": 49439, "pitch": 74, "duration": 200, "velocity": 102}, {"time": 49439, "pitch": 86, "duration": 200, "velocity": 92}, {"time": 49679, "pitch": 49, "duration": 201, "velocity": 95}, {"time": 49679, "pitch": 61, "duration": 201, "velocity": 70}, {"time": 49679, "pitch": 73, "duration": 201, "velocity": 100}, {"time": 49679, "pitch": 85, "duration": 201, "velocity": 90}, {"time": 49920, "pitch": 52, "duration": 120, "velocity": 97}, {"time": 49920, "pitch": 64, "duration": 120, "velocity": 72}, {"time": 49920, "pitch": 76, "duration": 120, "velocity": 102}, {"time": 49920, "pitch": 88, "duration": 120, "velocity": 92}, {"time": 50160, "pitch": 49, "duration": 121, "velocity": 95}, {"time": 50160, "pitch": 61, "duration": 121, "velocity": 70}, {"time": 50160, "pitch": 73, "duration": 121, "velocity": 100}, {"time": 50160, "pitch": 85, "duration": 121, "velocity": 90}, {"time": 50401, "pitch": 50, "duration": 1197, "velocity": 95}, {"time": 50401, "pitch": 62, "duration": 1197, "velocity": 70}, {"time": 50401, "pitch": 74, "duration": 1197, "velocity": 100}, {"time": 50401, "pitch": 86, "duration": 1197, "velocity": 90}, {"time": 51598, "pitch": 45, "duration": 200, "velocity": 93}, {"time": 51598, "pitch": 57, "duration": 200, "velocity": 68}, {"time": 51598, "pitch": 69, "duration": 200, "velocity": 98}, {"time": 51598, "pitch": 81, "duration": 200, "velocity": 88}, {"time": 51838, "pitch": 52, "duration": 121, "velocity": 93}, {"time": 51838, "pitch": 64, "duration": 121, "velocity": 68}, {"time": 51838, "pitch": 76, "duration": 121, "velocity": 98}, {"time": 51838, "pitch": 88, "duration": 121, "velocity": 88}, {"time": 52079, "pitch": 49, "duration": 120, "velocity": 94}, {"time": 52079, "pitch": 61, "duration": 120, "velocity": 69}, {"time": 52079, "pitch": 73, "duration": 120, "velocity": 99}, {"time": 52079, "pitch": 85, "duration": 120, "velocity": 89}, {"time": 52319, "pitch": 50, "duration": 1203, "velocity": 95}, {"time": 52319, "pitch": 62, "duration": 1203, "velocity": 70}, {"time": 52319, "pitch": 74, "duration": 1203, "velocity": 100}, {"time": 52319, "pitch": 86, "duration": 1203, "velocity": 90}, {"time": 53522, "pitch": 45, "duration": 201, "velocity": 93}, {"time": 53522, "pitch": 57, "duration": 201, "velocity": 68}, {"time": 53522, "pitch": 69, "duration": 201, "velocity": 98}, {"time": 53522, "pitch": 81, "duration": 201, "velocity": 88}, {"time": 53763, "pitch": 52, "duration": 118, "velocity": 93}, {"time": 53763, "pitch": 64, "duration": 118, "velocity": 68}, {"time": 53763, "pitch": 76, "duration": 118, "velocity": 98}, {"time": 53763, "pitch": 88, "duration": 118, "velocity": 88}, {"time": 54000, "pitch": 54, "duration": 119, "velocity": 94}, {"time": 54000, "pitch": 66, "duration": 119, "velocity": 69}, {"time": 54000, "pitch": 78, "duration": 119, "velocity": 99}, {"time": 54000, "pitch": 90, "duration": 119, "velocity": 89}, {"time": 54238, "pitch": 55, "duration": 1443, "velocity": 95}, {"time": 54238, "pitch": 67, "duration": 1443, "velocity": 70}, {"time": 54238, "pitch": 79, "duration": 1443, "velocity": 100}, {"time": 54238, "pitch": 91, "duration": 1443, "velocity": 90}, {"time": 55681, "pitch": 54, "duration": 481, "velocity": 93}, {"time": 55681, "pitch": 66, "duration": 481, "velocity": 68}, {"time": 55681, "pitch": 78, "duration": 481, "velocity": 98}, {"time": 55681, "pitch": 90, "duration": 481, "velocity": 88}, {"time": 56162, "pitch": 50, "duration": 2400, "velocity": 95}, {"time": 56162, "pitch": 62, "duration": 2400, "velocity": 70}, {"time": 56162, "pitch": 74, "duration": 2400, "velocity": 100}, {"time": 56162, "pitch": 86, "duration": 2400, "velocity": 90}, {"time": 100558, "pitch": 45, "duration": 241, "velocity": 100}, {"time": 100558, "pitch": 57, "duration": 241, "velocity": 75}, {"time": 100558, "pitch": 69, "duration": 241, "velocity": 105}, {"time": 100558, "pitch": 81, "duration": 241, "velocity": 95}, {"time": 100799, "pitch": 50, "duration": 240, "velocity": 98}, {"time": 100799, "pitch": 62, "duration": 240, "velocity": 73}, {"time": 100799, "pitch": 74, "duration": 240, "velocity": 103}, {"time": 100799, "pitch": 86, "duration": 240, "velocity": 93}, {"time": 101039, "pitch": 55, "duration": 241, "velocity": 99}, {"time": 101039, "pitch": 67, "duration": 241, "velocity": 74}, {"time": 101039, "pitch": 79, "duration": 241, "velocity": 104}, {"time": 101039, "pitch": 91, "duration": 241, "velocity": 94}, {"time": 101280, "pitch": 54, "duration": 240, "velocity": 100}, {"time": 101280, "pitch": 66, "duration": 240, "velocity": 75}, {"time": 101280, "pitch": 78, "duration": 240, "velocity": 105}, {"time": 101280, "pitch": 90, "duration": 240, "velocity": 95}, {"time": 101520, "pitch": 50, "duration": 241, "velocity": 98}, {"time": 101520, "pitch": 62, "duration": 241, "velocity": 73}, {"time": 101520, "pitch": 74, "duration": 241, "velocity": 103}, {"time": 101520, "pitch": 86, "duration": 241, "velocity": 93}, {"time": 101761, "pitch": 52, "duration": 120, "velocity": 95}, {"time": 101761, "pitch": 64, "duration": 120, "velocity": 70}, {"time": 101761, "pitch": 76, "duration": 120, "velocity": 100}, {"time": 101761, "pitch": 88, "duration": 120, "velocity": 90}, {"time": 102001, "pitch": 49, "duration": 121, "velocity": 95}, {"time": 102001, "pitch": 61, "duration": 121, "velocity": 70}, {"time": 102001, "pitch": 73, "duration": 121, "velocity": 100}, {"time": 102001, "pitch": 85, "duration": 121, "velocity": 90}, {"time": 102242, "pitch": 50, "duration": 1197, "velocity": 95}, {"time": 102242, "pitch": 62, "duration": 1197, "velocity": 70}, {"time": 102242, "pitch": 74, "duration": 1197, "velocity": 100}, {"time": 102242, "pitch": 86, "duration": 1197, "velocity": 90}, {"time": 103439, "pitch": 45, "duration": 200, "velocity": 95}, {"time": 103439, "pitch": 57, "duration": 200, "velocity": 70}, {"time": 103439, "pitch": 69, "duration": 200, "velocity": 100}, {"time": 103439, "pitch": 81, "duration": 200, "velocity": 90}, {"time": 103679, "pitch": 52, "duration": 120, "velocity": 93}, {"time": 103679, "pitch": 64, "duration": 120, "velocity": 68}, {"time": 103679, "pitch": 76, "duration": 120, "velocity": 98}, {"time": 103679, "pitch": 88, "duration": 120, "velocity": 88}, {"time": 103920, "pitch": 49, "duration": 120, "velocity": 94}, {"time": 103920, "pitch": 61, "duration": 120, "velocity": 69}, {"time": 103920, "pitch": 73, "duration": 120, "velocity": 99}, {"time": 103920, "pitch": 85, "duration": 120, "velocity": 89}, {"time": 104160, "pitch": 50, "duration": 1200, "velocity": 95}, {"time": 104160, "pitch": 62, "duration": 1200, "velocity": 70}, {"time": 104160, "pitch": 74, "duration": 1200, "velocity": 100}, {"time": 104160, "pitch": 86, "duration": 1200, "velocity": 90}, {"time": 105360, "pitch": 45, "duration": 198, "velocity": 93}, {"time": 105360, "pitch": 57, "duration": 198, "velocity": 68}, {"time": 105360, "pitch": 69, "duration": 198, "velocity": 98}, {"time": 105360, "pitch": 81, "duration": 198, "velocity": 88}, {"time": 105598, "pitch": 52, "duration": 120, "velocity": 93}, {"time": 105598, "pitch": 64, "duration": 120, "velocity": 68}, {"time": 105598, "pitch": 76, "duration": 120, "velocity": 98}, {"time": 105598, "pitch": 88, "duration": 120, "velocity": 88}, {"time": 105838, "pitch": 49, "duration": 121, "velocity": 94}, {"time": 105838, "pitch": 61, "duration": 121, "velocity": 69}, {"time": 105838, "pitch": 73, "duration": 121, "velocity": 99}, {"time": 105838, "pitch": 85, "duration": 121, "velocity": 89}, {"time": 106079, "pitch": 50, "duration": 1203, "velocity": 95}, {"time": 106079, "pitch": 62, "duration": 1203, "velocity": 70}, {"time": 106079, "pitch": 74, "duration": 1203, "velocity": 100}, {"time": 106079, "pitch": 86, "duration": 1203, "velocity": 90}, {"time": 107282, "pitch": 43, "duration": 200, "velocity": 94}, {"time": 107282, "pitch": 55, "duration": 200, "velocity": 69}, {"time": 107282, "pitch": 67, "duration": 200, "velocity": 99}, {"time": 107282, "pitch": 79, "duration": 200, "velocity": 89}, {"time": 107522, "pitch": 50, "duration": 119, "velocity": 94}, {"time": 107522, "pitch": 62, "duration": 119, "velocity": 69}, {"time": 107522, "pitch": 74, "duration": 119, "velocity": 99}, {"time": 107522, "pitch": 86, "duration": 119, "velocity": 89}, {"time": 107760, "pitch": 46, "duration": 119, "velocity": 95}, {"time": 107760, "pitch": 58, "duration": 119, "velocity": 70}, {"time": 107760, "pitch": 70, "duration": 119, "velocity": 100}, {"time": 107760, "pitch": 82, "duration": 119, "velocity": 90}, {"time": 107997, "pitch": 45, "duration": 121, "velocity": 96}, {"time": 107997, "pitch": 57, "duration": 121, "velocity": 71}, {"time": 107997, "pitch": 69, "duration": 121, "velocity": 101}, {"time": 107997, "pitch": 81, "duration": 121, "velocity": 91}, {"time": 108238, "pitch": 49, "duration": 481, "velocity": 96}, {"time": 108238, "pitch": 61, "duration": 481, "velocity": 71}, {"time": 108238, "pitch": 73, "duration": 481, "velocity": 101}, {"time": 108238, "pitch": 85, "duration": 481, "velocity": 91}, {"time": 108719, "pitch": 45, "duration": 200, "velocity": 95}, {"time": 108719, "pitch": 57, "duration": 200, "velocity": 70}, {"time": 108719, "pitch": 69, "duration": 200, "velocity": 100}, {"time": 108719, "pitch": 81, "duration": 200, "velocity": 90}, {"time": 108960, "pitch": 50, "duration": 200, "velocity": 97}, {"time": 108960, "pitch": 62, "duration": 200, "velocity": 72}, {"time": 108960, "pitch": 74, "duration": 200, "velocity": 102}, {"time": 108960, "pitch": 86, "duration": 200, "velocity": 92}, {"time": 109200, "pitch": 49, "duration": 201, "velocity": 95}, {"time": 109200, "pitch": 61, "duration": 201, "velocity": 70}, {"time": 109200, "pitch": 73, "duration": 201, "velocity": 100}, {"time": 109200, "pitch": 85, "duration": 201, "velocity": 90}, {"time": 109441, "pitch": 52, "duration": 120, "velocity": 97}, {"time": 109441, "pitch": 64, "duration": 120, "velocity": 72}, {"time": 109441, "pitch": 76, "duration": 120, "velocity": 102}, {"time": 109441, "pitch": 88, "duration": 120, "velocity": 92}, {"time": 109681, "pitch": 49, "duration": 120, "velocity": 95}, {"time": 109681, "pitch": 61, "duration": 120, "velocity": 70}, {"time": 109681, "pitch": 73, "duration": 120, "velocity": 100}, {"time": 109681, "pitch": 85, "duration": 120, "velocity": 90}, {"time": 109922, "pitch": 50, "duration": 1197, "velocity": 95}, {"time": 109922, "pitch": 62, "duration": 1197, "velocity": 70}, {"time": 109922, "pitch": 74, "duration": 1197, "velocity": 100}, {"time": 109922, "pitch": 86, "duration": 1197, "velocity": 90}, {"time": 111119, "pitch": 45, "duration": 200, "velocity": 93}, {"time": 111119, "pitch": 57, "duration": 200, "velocity": 68}, {"time": 111119, "pitch": 69, "duration": 200, "velocity": 98}, {"time": 111119, "pitch": 81, "duration": 200, "velocity": 88}, {"time": 111359, "pitch": 52, "duration": 120, "velocity": 93}, {"time": 111359, "pitch": 64, "duration": 120, "velocity": 68}, {"time": 111359, "pitch": 76, "duration": 120, "velocity": 98}, {"time": 111359, "pitch": 88, "duration": 120, "velocity": 88}, {"time": 111600, "pitch": 49, "duration": 120, "velocity": 94}, {"time": 111600, "pitch": 61, "duration": 120, "velocity": 69}, {"time": 111600, "pitch": 73, "duration": 120, "velocity": 99}, {"time": 111600, "pitch": 85, "duration": 120, "velocity": 89}, {"time": 111840, "pitch": 50, "duration": 1200, "velocity": 95}, {"time": 111840, "pitch": 62, "duration": 1200, "velocity": 70}, {"time": 111840, "pitch": 74, "duration": 1200, "velocity": 100}, {"time": 111840, "pitch": 86, "duration": 1200, "velocity": 90}, {"time": 113040, "pitch": 45, "duration": 198, "velocity": 93}, {"time": 113040, "pitch": 57, "duration": 198, "velocity": 68}, {"time": 113040, "pitch": 69, "duration": 198, "velocity": 98}, {"time": 113040, "pitch": 81, "duration": 198, "velocity": 88}, {"time": 113278, "pitch": 52, "duration": 120, "velocity": 93}, {"time": 113278, "pitch": 64, "duration": 120, "velocity": 68}, {"time": 113278, "pitch": 76, "duration": 120, "velocity": 98}, {"time": 113278, "pitch": 88, "duration": 120, "velocity": 88}, {"time": 113518, "pitch": 54, "duration": 120, "velocity": 94}, {"time": 113518, "pitch": 66, "duration": 120, "velocity": 69}, {"time": 113518, "pitch": 78, "duration": 120, "velocity": 99}, {"time": 113518, "pitch": 90, "duration": 120, "velocity": 89}, {"time": 113759, "pitch": 55, "duration": 1443, "velocity": 95}, {"time": 113759, "pitch": 67, "duration": 1443, "velocity": 70}, {"time": 113759, "pitch": 79, "duration": 1443, "velocity": 100}, {"time": 113759, "pitch": 91, "duration": 1443, "velocity": 90}, {"time": 115202, "pitch": 54, "duration": 475, "velocity": 93}, {"time": 115202, "pitch": 66, "duration": 475, "velocity": 68}, {"time": 115202, "pitch": 78, "duration": 475, "velocity": 98}, {"time": 115202, "pitch": 90, "duration": 475, "velocity": 88}, {"time": 115677, "pitch": 50, "duration": 1925, "velocity": 95}, {"time": 115677, "pitch": 62, "duration": 1925, "velocity": 70}, {"time": 115677, "pitch": 74, "duration": 1925, "velocity": 100}, {"time": 115677, "pitch": 86, "duration": 1925, "velocity": 90}, {"time": 118798, "pitch": 41, "duration": 121, "velocity": 83}, {"time": 118798, "pitch": 53, "duration": 121, "velocity": 103}, {"time": 118959, "pitch": 43, "duration": 70, "velocity": 80}, {"time": 118959, "pitch": 55, "duration": 70, "velocity": 100}, {"time": 119039, "pitch": 45, "duration": 80, "velocity": 82}, {"time": 119039, "pitch": 57, "duration": 80, "velocity": 101}, {"time": 119280, "pitch": 53, "duration": 80, "velocity": 83}, {"time": 119280, "pitch": 65, "duration": 80, "velocity": 102}, {"time": 119520, "pitch": 51, "duration": 1200, "velocity": 84}, {"time": 119520, "pitch": 63, "duration": 1200, "velocity": 104}, {"time": 120720, "pitch": 51, "duration": 119, "velocity": 85}, {"time": 120720, "pitch": 63, "duration": 119, "velocity": 105}, {"time": 120878, "pitch": 53, "duration": 70, "velocity": 83}, {"time": 120878, "pitch": 65, "duration": 70, "velocity": 103}, {"time": 120958, "pitch": 51, "duration": 80, "velocity": 83}, {"time": 120958, "pitch": 63, "duration": 80, "velocity": 105}, {"time": 121198, "pitch": 46, "duration": 80, "velocity": 84}, {"time": 121198, "pitch": 58, "duration": 80, "velocity": 102}, {"time": 121439, "pitch": 49, "duration": 1202, "velocity": 85}, {"time": 121439, "pitch": 61, "duration": 1202, "velocity": 105}, {"time": 122641, "pitch": 49, "duration": 121, "velocity": 85}, {"time": 122641, "pitch": 61, "duration": 121, "velocity": 108}, {"time": 122802, "pitch": 53, "duration": 70, "velocity": 84}, {"time": 122802, "pitch": 65, "duration": 70, "velocity": 105}, {"time": 122882, "pitch": 56, "duration": 79, "velocity": 87}, {"time": 122882, "pitch": 68, "duration": 79, "velocity": 110}, {"time": 123120, "pitch": 53, "duration": 79, "velocity": 86}, {"time": 123120, "pitch": 65, "duration": 79, "velocity": 114}, {"time": 123357, "pitch": 55, "duration": 1203, "velocity": 86}, {"time": 123357, "pitch": 67, "duration": 1203, "velocity": 110}, {"time": 124560, "pitch": 47, "duration": 120, "velocity": 87}, {"time": 124560, "pitch": 67, "duration": 120, "velocity": 108}, {"time": 124720, "pitch": 50, "duration": 70, "velocity": 85}, {"time": 124720, "pitch": 62, "duration": 70, "velocity": 108}, {"time": 124800, "pitch": 55, "duration": 81, "velocity": 86}, {"time": 124800, "pitch": 67, "duration": 81, "velocity": 110}, {"time": 125041, "pitch": 57, "duration": 80, "velocity": 85}, {"time": 125041, "pitch": 69, "duration": 80, "velocity": 108}, {"time": 125282, "pitch": 55, "duration": 200, "velocity": 85}, {"time": 125282, "pitch": 67, "duration": 200, "velocity": 105}, {"time": 125522, "pitch": 50, "duration": 201, "velocity": 83}, {"time": 125522, "pitch": 62, "duration": 201, "velocity": 103}, {"time": 125763, "pitch": 57, "duration": 79, "velocity": 84}, {"time": 125763, "pitch": 69, "duration": 79, "velocity": 104}, {"time": 126000, "pitch": 55, "duration": 1200, "velocity": 85}, {"time": 126000, "pitch": 67, "duration": 1320, "velocity": 105}, {"time": 130321, "pitch": 38, "duration": 121, "velocity": 80}, {"time": 130321, "pitch": 50, "duration": 121, "velocity": 110}, {"time": 130482, "pitch": 41, "duration": 80, "velocity": 78}, {"time": 130482, "pitch": 53, "duration": 80, "velocity": 108}, {"time": 130562, "pitch": 45, "duration": 79, "velocity": 80}, {"time": 130562, "pitch": 57, "duration": 79, "velocity": 110}, {"time": 130799, "pitch": 41, "duration": 80, "velocity": 81}, {"time": 130799, "pitch": 53, "duration": 80, "velocity": 111}, {"time": 131037, "pitch": 46, "duration": 1203, "velocity": 82}, {"time": 131037, "pitch": 58, "duration": 1203, "velocity": 112}, {"time": 132240, "pitch": 50, "duration": 120, "velocity": 75}, {"time": 132240, "pitch": 62, "duration": 120, "velocity": 105}, {"time": 132400, "pitch": 53, "duration": 80, "velocity": 73}, {"time": 132400, "pitch": 65, "duration": 80, "velocity": 103}, {"time": 132480, "pitch": 58, "duration": 81, "velocity": 75}, {"time": 132480, "pitch": 70, "duration": 81, "velocity": 105}, {"time": 132721, "pitch": 53, "duration": 80, "velocity": 76}, {"time": 132721, "pitch": 65, "duration": 80, "velocity": 106}, {"time": 132961, "pitch": 55, "duration": 61, "velocity": 85}, {"time": 132961, "pitch": 67, "duration": 61, "velocity": 115}, {"time": 132961, "pitch": 79, "duration": 61, "velocity": 105}, {"time": 133022, "pitch": 38, "duration": 60, "velocity": 80}, {"time": 133022, "pitch": 50, "duration": 60, "velocity": 110}, {"time": 133022, "pitch": 62, "duration": 60, "velocity": 100}, {"time": 133082, "pitch": 43, "duration": 60, "velocity": 82}, {"time": 133082, "pitch": 55, "duration": 60, "velocity": 112}, {"time": 133082, "pitch": 67, "duration": 60, "velocity": 102}, {"time": 133142, "pitch": 47, "duration": 60, "velocity": 80}, {"time": 133142, "pitch": 59, "duration": 60, "velocity": 110}, {"time": 133142, "pitch": 71, "duration": 60, "velocity": 100}, {"time": 133202, "pitch": 50, "duration": 60, "velocity": 83}, {"time": 133202, "pitch": 62, "duration": 60, "velocity": 113}, {"time": 133202, "pitch": 74, "duration": 60, "velocity": 100}, {"time": 133262, "pitch": 43, "duration": 60, "velocity": 80}, {"time": 133262, "pitch": 55, "duration": 60, "velocity": 110}, {"time": 133262, "pitch": 67, "duration": 60, "velocity": 100}, {"time": 133322, "pitch": 47, "duration": 60, "velocity": 80}, {"time": 133322, "pitch": 59, "duration": 60, "velocity": 110}, {"time": 133322, "pitch": 71, "duration": 60, "velocity": 100}, {"time": 133382, "pitch": 50, "duration": 61, "velocity": 80}, {"time": 133382, "pitch": 62, "duration": 61, "velocity": 110}, {"time": 133382, "pitch": 74, "duration": 61, "velocity": 100}, {"time": 133443, "pitch": 59, "duration": 59, "velocity": 85}, {"time": 133443, "pitch": 71, "duration": 59, "velocity": 115}, {"time": 133443, "pitch": 83, "duration": 59, "velocity": 105}, {"time": 133502, "pitch": 43, "duration": 59, "velocity": 80}, {"time": 133502, "pitch": 55, "duration": 59, "velocity": 110}, {"time": 133502, "pitch": 67, "duration": 59, "velocity": 100}, {"time": 133561, "pitch": 47, "duration": 60, "velocity": 82}, {"time": 133561, "pitch": 59, "duration": 60, "velocity": 112}, {"time": 133561, "pitch": 71, "duration": 60, "velocity": 102}, {"time": 133621, "pitch": 50, "duration": 59, "velocity": 80}, {"time": 133621, "pitch": 62, "duration": 59, "velocity": 110}, {"time": 133621, "pitch": 74, "duration": 59, "velocity": 100}, {"time": 133680, "pitch": 55, "duration": 60, "velocity": 83}, {"time": 133680, "pitch": 67, "duration": 60, "velocity": 113}, {"time": 133680, "pitch": 79, "duration": 60, "velocity": 100}, {"time": 133740, "pitch": 47, "duration": 59, "velocity": 80}, {"time": 133740, "pitch": 59, "duration": 59, "velocity": 110}, {"time": 133740, "pitch": 71, "duration": 59, "velocity": 100}, {"time": 133799, "pitch": 50, "duration": 59, "velocity": 80}, {"time": 133799, "pitch": 62, "duration": 59, "velocity": 110}, {"time": 133799, "pitch": 74, "duration": 59, "velocity": 100}, {"time": 133858, "pitch": 55, "duration": 60, "velocity": 80}, {"time": 133858, "pitch": 67, "duration": 60, "velocity": 110}, {"time": 133858, "pitch": 79, "duration": 60, "velocity": 100}, {"time": 133918, "pitch": 62, "duration": 60, "velocity": 85}, {"time": 133918, "pitch": 74, "duration": 60, "velocity": 115}, {"time": 133918, "pitch": 86, "duration": 60, "velocity": 105}, {"time": 133978, "pitch": 47, "duration": 60, "velocity": 80}, {"time": 133978, "pitch": 59, "duration": 60, "velocity": 110}, {"time": 133978, "pitch": 71, "duration": 60, "velocity": 100}, {"time": 134038, "pitch": 50, "duration": 60, "velocity": 82}, {"time": 134038, "pitch": 62, "duration": 60, "velocity": 112}, {"time": 134038, "pitch": 74, "duration": 60, "velocity": 102}, {"time": 134098, "pitch": 55, "duration": 60, "velocity": 80}, {"time": 134098, "pitch": 67, "duration": 60, "velocity": 110}, {"time": 134098, "pitch": 79, "duration": 60, "velocity": 100}, {"time": 134158, "pitch": 59, "duration": 60, "velocity": 83}, {"time": 134158, "pitch": 71, "duration": 60, "velocity": 113}, {"time": 134158, "pitch": 83, "duration": 60, "velocity": 100}, {"time": 134218, "pitch": 50, "duration": 61, "velocity": 80}, {"time": 134218, "pitch": 62, "duration": 61, "velocity": 110}, {"time": 134218, "pitch": 74, "duration": 61, "velocity": 100}, {"time": 134279, "pitch": 55, "duration": 60, "velocity": 80}, {"time": 134279, "pitch": 67, "duration": 60, "velocity": 110}, {"time": 134279, "pitch": 79, "duration": 60, "velocity": 100}, {"time": 134339, "pitch": 59, "duration": 60, "velocity": 80}, {"time": 134339, "pitch": 71, "duration": 60, "velocity": 110}, {"time": 134339, "pitch": 83, "duration": 60, "velocity": 100}, {"time": 134399, "pitch": 67, "duration": 60, "velocity": 87}, {"time": 134399, "pitch": 79, "duration": 60, "velocity": 117}, {"time": 134399, "pitch": 91, "duration": 60, "velocity": 107}, {"time": 134459, "pitch": 50, "duration": 60, "velocity": 82}, {"time": 134459, "pitch": 62, "duration": 60, "velocity": 112}, {"time": 134459, "pitch": 74, "duration": 60, "velocity": 102}, {"time": 134519, "pitch": 55, "duration": 60, "velocity": 84}, {"time": 134519, "pitch": 67, "duration": 60, "velocity": 114}, {"time": 134519, "pitch": 79, "duration": 60, "velocity": 104}, {"time": 134579, "pitch": 59, "duration": 60, "velocity": 82}, {"time": 134579, "pitch": 71, "duration": 60, "velocity": 112}, {"time": 134579, "pitch": 83, "duration": 60, "velocity": 102}, {"time": 134639, "pitch": 62, "duration": 61, "velocity": 85}, {"time": 134639, "pitch": 74, "duration": 61, "velocity": 115}, {"time": 134639, "pitch": 86, "duration": 61, "velocity": 102}, {"time": 134700, "pitch": 55, "duration": 60, "velocity": 82}, {"time": 134700, "pitch": 67, "duration": 60, "velocity": 112}, {"time": 134700, "pitch": 79, "duration": 60, "velocity": 102}, {"time": 134760, "pitch": 59, "duration": 60, "velocity": 82}, {"time": 134760, "pitch": 71, "duration": 60, "velocity": 112}, {"time": 134760, "pitch": 83, "duration": 60, "velocity": 102}, {"time": 134820, "pitch": 62, "duration": 60, "velocity": 82}, {"time": 134820, "pitch": 74, "duration": 60, "velocity": 112}, {"time": 134820, "pitch": 86, "duration": 60, "velocity": 102}, {"time": 134880, "pitch": 60, "duration": 60, "velocity": 85}, {"time": 134880, "pitch": 72, "duration": 60, "velocity": 115}, {"time": 134880, "pitch": 84, "duration": 60, "velocity": 95}, {"time": 134940, "pitch": 44, "duration": 60, "velocity": 80}, {"time": 134940, "pitch": 56, "duration": 60, "velocity": 110}, {"time": 134940, "pitch": 68, "duration": 60, "velocity": 90}, {"time": 135000, "pitch": 48, "duration": 60, "velocity": 82}, {"time": 135000, "pitch": 60, "duration": 60, "velocity": 112}, {"time": 135000, "pitch": 72, "duration": 60, "velocity": 92}, {"time": 135060, "pitch": 51, "duration": 61, "velocity": 80}, {"time": 135060, "pitch": 63, "duration": 61, "velocity": 110}, {"time": 135060, "pitch": 75, "duration": 61, "velocity": 90}, {"time": 135121, "pitch": 56, "duration": 60, "velocity": 83}, {"time": 135121, "pitch": 68, "duration": 60, "velocity": 113}, {"time": 135121, "pitch": 80, "duration": 60, "velocity": 93}, {"time": 135181, "pitch": 51, "duration": 60, "velocity": 80}, {"time": 135181, "pitch": 63, "duration": 60, "velocity": 110}, {"time": 135181, "pitch": 75, "duration": 60, "velocity": 90}, {"time": 135241, "pitch": 56, "duration": 60, "velocity": 80}, {"time": 135241, "pitch": 68, "duration": 60, "velocity": 110}, {"time": 135241, "pitch": 80, "duration": 60, "velocity": 90}, {"time": 135301, "pitch": 60, "duration": 60, "velocity": 80}, {"time": 135301, "pitch": 72, "duration": 60, "velocity": 110}, {"time": 135301, "pitch": 84, "duration": 60, "velocity": 90}, {"time": 135361, "pitch": 63, "duration": 60, "velocity": 85}, {"time": 135361, "pitch": 75, "duration": 60, "velocity": 115}, {"time": 135361, "pitch": 87, "duration": 60, "velocity": 95}, {"time": 135421, "pitch": 48, "duration": 60, "velocity": 80}, {"time": 135421, "pitch": 60, "duration": 60, "velocity": 110}, {"time": 135421, "pitch": 72, "duration": 60, "velocity": 90}, {"time": 135481, "pitch": 51, "duration": 60, "velocity": 82}, {"time": 135481, "pitch": 63, "duration": 60, "velocity": 112}, {"time": 135481, "pitch": 75, "duration": 60, "velocity": 92}, {"time": 135541, "pitch": 56, "duration": 61, "velocity": 80}, {"time": 135541, "pitch": 68, "duration": 61, "velocity": 110}, {"time": 135541, "pitch": 80, "duration": 61, "velocity": 90}, {"time": 135602, "pitch": 60, "duration": 60, "velocity": 83}, {"time": 135602, "pitch": 72, "duration": 60, "velocity": 113}, {"time": 135602, "pitch": 84, "duration": 60, "velocity": 93}, {"time": 135662, "pitch": 51, "duration": 60, "velocity": 80}, {"time": 135662, "pitch": 63, "duration": 60, "velocity": 110}, {"time": 135662, "pitch": 75, "duration": 60, "velocity": 90}, {"time": 135722, "pitch": 56, "duration": 60, "velocity": 80}, {"time": 135722, "pitch": 68, "duration": 60, "velocity": 110}, {"time": 135722, "pitch": 80, "duration": 60, "velocity": 90}, {"time": 135782, "pitch": 60, "duration": 60, "velocity": 80}, {"time": 135782, "pitch": 72, "duration": 60, "velocity": 110}, {"time": 135782, "pitch": 84, "duration": 60, "velocity": 90}, {"time": 135842, "pitch": 68, "duration": 60, "velocity": 85}, {"time": 135842, "pitch": 80, "duration": 60, "velocity": 115}, {"time": 135842, "pitch": 92, "duration": 60, "velocity": 95}, {"time": 135902, "pitch": 51, "duration": 59, "velocity": 80}, {"time": 135902, "pitch": 63, "duration": 59, "velocity": 110}, {"time": 135902, "pitch": 75, "duration": 59, "velocity": 90}, {"time": 135961, "pitch": 56, "duration": 59, "velocity": 82}, {"time": 135961, "pitch": 68, "duration": 59, "velocity": 112}, {"time": 135961, "pitch": 80, "duration": 59, "velocity": 92}, {"time": 136020, "pitch": 60, "duration": 60, "velocity": 80}, {"time": 136020, "pitch": 72, "duration": 60, "velocity": 110}, {"time": 136020, "pitch": 84, "duration": 60, "velocity": 90}, {"time": 136080, "pitch": 63, "duration": 59, "velocity": 83}, {"time": 136080, "pitch": 75, "duration": 59, "velocity": 113}, {"time": 136080, "pitch": 87, "duration": 59, "velocity": 93}, {"time": 136139, "pitch": 56, "duration": 60, "velocity": 80}, {"time": 136139, "pitch": 68, "duration": 60, "velocity": 110}, {"time": 136139, "pitch": 80, "duration": 60, "velocity": 90}, {"time": 136199, "pitch": 60, "duration": 59, "velocity": 80}, {"time": 136199, "pitch": 72, "duration": 59, "velocity": 110}, {"time": 136199, "pitch": 84, "duration": 59, "velocity": 90}, {"time": 136258, "pitch": 63, "duration": 59, "velocity": 80}, {"time": 136258, "pitch": 75, "duration": 59, "velocity": 110}, {"time": 136258, "pitch": 87, "duration": 59, "velocity": 90}, {"time": 136317, "pitch": 75, "duration": 61, "velocity": 85}, {"time": 136317, "pitch": 87, "duration": 61, "velocity": 115}, {"time": 136317, "pitch": 99, "duration": 61, "velocity": 95}, {"time": 136378, "pitch": 72, "duration": 60, "velocity": 80}, {"time": 136378, "pitch": 84, "duration": 60, "velocity": 110}, {"time": 136378, "pitch": 96, "duration": 60, "velocity": 90}, {"time": 136438, "pitch": 68, "duration": 60, "velocity": 82}, {"time": 136438, "pitch": 80, "duration": 60, "velocity": 112}, {"time": 136438, "pitch": 92, "duration": 60, "velocity": 92}, {"time": 136498, "pitch": 63, "duration": 60, "velocity": 80}, {"time": 136498, "pitch": 75, "duration": 60, "velocity": 110}, {"time": 136498, "pitch": 87, "duration": 60, "velocity": 90}, {"time": 136558, "pitch": 72, "duration": 60, "velocity": 83}, {"time": 136558, "pitch": 84, "duration": 60, "velocity": 113}, {"time": 136558, "pitch": 96, "duration": 60, "velocity": 93}, {"time": 136618, "pitch": 68, "duration": 60, "velocity": 80}, {"time": 136618, "pitch": 80, "duration": 60, "velocity": 110}, {"time": 136618, "pitch": 92, "duration": 60, "velocity": 90}, {"time": 136678, "pitch": 63, "duration": 60, "velocity": 82}, {"time": 136678, "pitch": 75, "duration": 60, "velocity": 112}, {"time": 136678, "pitch": 87, "duration": 60, "velocity": 92}, {"time": 136738, "pitch": 60, "duration": 60, "velocity": 80}, {"time": 136738, "pitch": 72, "duration": 60, "velocity": 110}, {"time": 136738, "pitch": 84, "duration": 60, "velocity": 90}, {"time": 136798, "pitch": 55, "duration": 151, "velocity": 90}, {"time": 136798, "pitch": 67, "duration": 151, "velocity": 70}, {"time": 136798, "pitch": 79, "duration": 151, "velocity": 100}, {"time": 136798, "pitch": 91, "duration": 151, "velocity": 90}, {"time": 137039, "pitch": 53, "duration": 150, "velocity": 87}, {"time": 137039, "pitch": 65, "duration": 150, "velocity": 67}, {"time": 137039, "pitch": 77, "duration": 150, "velocity": 97}, {"time": 137039, "pitch": 89, "duration": 150, "velocity": 87}, {"time": 137280, "pitch": 51, "duration": 150, "velocity": 88}, {"time": 137280, "pitch": 63, "duration": 150, "velocity": 68}, {"time": 137280, "pitch": 75, "duration": 150, "velocity": 98}, {"time": 137280, "pitch": 87, "duration": 150, "velocity": 88}, {"time": 137520, "pitch": 53, "duration": 962, "velocity": 90}, {"time": 137520, "pitch": 65, "duration": 962, "velocity": 70}, {"time": 137520, "pitch": 77, "duration": 962, "velocity": 100}, {"time": 137520, "pitch": 89, "duration": 962, "velocity": 90}, {"time": 138482, "pitch": 55, "duration": 151, "velocity": 88}, {"time": 138482, "pitch": 67, "duration": 151, "velocity": 68}, {"time": 138482, "pitch": 79, "duration": 151, "velocity": 98}, {"time": 138482, "pitch": 91, "duration": 151, "velocity": 88}, {"time": 138643, "pitch": 56, "duration": 80, "velocity": 89}, {"time": 138643, "pitch": 68, "duration": 80, "velocity": 69}, {"time": 138643, "pitch": 80, "duration": 80, "velocity": 99}, {"time": 138643, "pitch": 92, "duration": 80, "velocity": 89}, {"time": 138723, "pitch": 55, "duration": 148, "velocity": 90}, {"time": 138723, "pitch": 67, "duration": 148, "velocity": 70}, {"time": 138723, "pitch": 79, "duration": 148, "velocity": 100}, {"time": 138723, "pitch": 91, "duration": 148, "velocity": 90}, {"time": 138960, "pitch": 53, "duration": 149, "velocity": 90}, {"time": 138960, "pitch": 65, "duration": 149, "velocity": 70}, {"time": 138960, "pitch": 77, "duration": 149, "velocity": 100}, {"time": 138960, "pitch": 89, "duration": 149, "velocity": 90}, {"time": 139198, "pitch": 51, "duration": 150, "velocity": 88}, {"time": 139198, "pitch": 63, "duration": 150, "velocity": 68}, {"time": 139198, "pitch": 75, "duration": 150, "velocity": 98}, {"time": 139198, "pitch": 87, "duration": 150, "velocity": 88}, {"time": 139439, "pitch": 53, "duration": 962, "velocity": 90}, {"time": 139439, "pitch": 65, "duration": 962, "velocity": 70}, {"time": 139439, "pitch": 77, "duration": 962, "velocity": 100}, {"time": 139439, "pitch": 89, "duration": 962, "velocity": 90}, {"time": 140401, "pitch": 55, "duration": 150, "velocity": 89}, {"time": 140401, "pitch": 67, "duration": 150, "velocity": 69}, {"time": 140401, "pitch": 79, "duration": 150, "velocity": 99}, {"time": 140401, "pitch": 91, "duration": 150, "velocity": 89}, {"time": 140561, "pitch": 56, "duration": 80, "velocity": 87}, {"time": 140561, "pitch": 68, "duration": 80, "velocity": 67}, {"time": 140561, "pitch": 80, "duration": 80, "velocity": 97}, {"time": 140561, "pitch": 92, "duration": 80, "velocity": 87}, {"time": 140641, "pitch": 55, "duration": 151, "velocity": 88}, {"time": 140641, "pitch": 67, "duration": 151, "velocity": 68}, {"time": 140641, "pitch": 79, "duration": 151, "velocity": 98}, {"time": 140641, "pitch": 91, "duration": 151, "velocity": 88}, {"time": 140882, "pitch": 53, "duration": 150, "velocity": 89}, {"time": 140882, "pitch": 65, "duration": 150, "velocity": 69}, {"time": 140882, "pitch": 77, "duration": 150, "velocity": 99}, {"time": 140882, "pitch": 89, "duration": 150, "velocity": 89}, {"time": 141122, "pitch": 51, "duration": 149, "velocity": 90}, {"time": 141122, "pitch": 63, "duration": 149, "velocity": 70}, {"time": 141122, "pitch": 75, "duration": 149, "velocity": 100}, {"time": 141122, "pitch": 87, "duration": 149, "velocity": 90}, {"time": 141360, "pitch": 47, "duration": 478, "velocity": 90}, {"time": 141360, "pitch": 59, "duration": 478, "velocity": 70}, {"time": 141360, "pitch": 71, "duration": 478, "velocity": 100}, {"time": 141360, "pitch": 83, "duration": 478, "velocity": 90}, {"time": 141838, "pitch": 44, "duration": 201, "velocity": 88}, {"time": 141838, "pitch": 56, "duration": 201, "velocity": 68}, {"time": 141838, "pitch": 68, "duration": 201, "velocity": 98}, {"time": 141838, "pitch": 80, "duration": 201, "velocity": 88}, {"time": 142079, "pitch": 51, "duration": 120, "velocity": 90}, {"time": 142079, "pitch": 63, "duration": 120, "velocity": 70}, {"time": 142079, "pitch": 75, "duration": 120, "velocity": 100}, {"time": 142079, "pitch": 87, "duration": 120, "velocity": 90}, {"time": 142319, "pitch": 47, "duration": 121, "velocity": 89}, {"time": 142319, "pitch": 59, "duration": 121, "velocity": 69}, {"time": 142319, "pitch": 71, "duration": 121, "velocity": 99}, {"time": 142319, "pitch": 83, "duration": 121, "velocity": 89}, {"time": 142560, "pitch": 51, "duration": 160, "velocity": 89}, {"time": 142560, "pitch": 63, "duration": 160, "velocity": 69}, {"time": 142560, "pitch": 75, "duration": 160, "velocity": 99}, {"time": 142560, "pitch": 87, "duration": 160, "velocity": 89}, {"time": 142800, "pitch": 50, "duration": 482, "velocity": 90}, {"time": 142800, "pitch": 62, "duration": 482, "velocity": 70}, {"time": 142800, "pitch": 74, "duration": 482, "velocity": 100}, {"time": 142800, "pitch": 86, "duration": 482, "velocity": 90}, {"time": 143282, "pitch": 46, "duration": 160, "velocity": 87}, {"time": 143282, "pitch": 58, "duration": 160, "velocity": 67}, {"time": 143282, "pitch": 70, "duration": 160, "velocity": 97}, {"time": 143282, "pitch": 82, "duration": 160, "velocity": 87}, {"time": 143522, "pitch": 51, "duration": 149, "velocity": 90}, {"time": 143522, "pitch": 63, "duration": 149, "velocity": 70}, {"time": 143522, "pitch": 75, "duration": 149, "velocity": 100}, {"time": 143522, "pitch": 87, "duration": 149, "velocity": 90}, {"time": 143760, "pitch": 50, "duration": 148, "velocity": 86}, {"time": 143760, "pitch": 62, "duration": 148, "velocity": 66}, {"time": 143760, "pitch": 74, "duration": 148, "velocity": 96}, {"time": 143760, "pitch": 86, "duration": 148, "velocity": 86}, {"time": 143997, "pitch": 53, "duration": 151, "velocity": 89}, {"time": 143997, "pitch": 65, "duration": 151, "velocity": 69}, {"time": 143997, "pitch": 77, "duration": 151, "velocity": 99}, {"time": 143997, "pitch": 89, "duration": 151, "velocity": 89}, {"time": 144238, "pitch": 50, "duration": 150, "velocity": 85}, {"time": 144238, "pitch": 62, "duration": 150, "velocity": 65}, {"time": 144238, "pitch": 74, "duration": 150, "velocity": 95}, {"time": 144238, "pitch": 86, "duration": 150, "velocity": 85}, {"time": 144478, "pitch": 55, "duration": 151, "velocity": 88}, {"time": 144478, "pitch": 67, "duration": 151, "velocity": 68}, {"time": 144478, "pitch": 79, "duration": 151, "velocity": 98}, {"time": 144478, "pitch": 91, "duration": 151, "velocity": 88}, {"time": 144719, "pitch": 53, "duration": 150, "velocity": 86}, {"time": 144719, "pitch": 65, "duration": 150, "velocity": 66}, {"time": 144719, "pitch": 77, "duration": 150, "velocity": 96}, {"time": 144719, "pitch": 89, "duration": 150, "velocity": 86}, {"time": 144959, "pitch": 51, "duration": 151, "velocity": 88}, {"time": 144959, "pitch": 63, "duration": 151, "velocity": 68}, {"time": 144959, "pitch": 75, "duration": 151, "velocity": 98}, {"time": 144959, "pitch": 87, "duration": 151, "velocity": 88}, {"time": 145200, "pitch": 53, "duration": 962, "velocity": 90}, {"time": 145200, "pitch": 65, "duration": 962, "velocity": 70}, {"time": 145200, "pitch": 77, "duration": 962, "velocity": 100}, {"time": 145200, "pitch": 89, "duration": 962, "velocity": 90}, {"time": 146162, "pitch": 55, "duration": 151, "velocity": 88}, {"time": 146162, "pitch": 67, "duration": 151, "velocity": 68}, {"time": 146162, "pitch": 79, "duration": 151, "velocity": 98}, {"time": 146162, "pitch": 91, "duration": 151, "velocity": 88}, {"time": 146323, "pitch": 56, "duration": 80, "velocity": 87}, {"time": 146323, "pitch": 68, "duration": 80, "velocity": 67}, {"time": 146323, "pitch": 80, "duration": 80, "velocity": 97}, {"time": 146323, "pitch": 92, "duration": 80, "velocity": 87}, {"time": 146403, "pitch": 55, "duration": 148, "velocity": 90}, {"time": 146403, "pitch": 67, "duration": 148, "velocity": 70}, {"time": 146403, "pitch": 79, "duration": 148, "velocity": 100}, {"time": 146403, "pitch": 91, "duration": 148, "velocity": 90}, {"time": 146640, "pitch": 53, "duration": 149, "velocity": 88}, {"time": 146640, "pitch": 65, "duration": 149, "velocity": 68}, {"time": 146640, "pitch": 77, "duration": 149, "velocity": 98}, {"time": 146640, "pitch": 89, "duration": 149, "velocity": 88}, {"time": 146878, "pitch": 51, "duration": 150, "velocity": 89}, {"time": 146878, "pitch": 63, "duration": 150, "velocity": 69}, {"time": 146878, "pitch": 75, "duration": 150, "velocity": 99}, {"time": 146878, "pitch": 87, "duration": 150, "velocity": 89}, {"time": 147119, "pitch": 53, "duration": 962, "velocity": 90}, {"time": 147119, "pitch": 65, "duration": 962, "velocity": 70}, {"time": 147119, "pitch": 77, "duration": 962, "velocity": 100}, {"time": 147119, "pitch": 89, "duration": 962, "velocity": 90}, {"time": 148081, "pitch": 55, "duration": 150, "velocity": 89}, {"time": 148081, "pitch": 67, "duration": 150, "velocity": 69}, {"time": 148081, "pitch": 79, "duration": 150, "velocity": 99}, {"time": 148081, "pitch": 91, "duration": 150, "velocity": 89}, {"time": 148241, "pitch": 56, "duration": 80, "velocity": 90}, {"time": 148241, "pitch": 68, "duration": 80, "velocity": 70}, {"time": 148241, "pitch": 80, "duration": 80, "velocity": 100}, {"time": 148241, "pitch": 92, "duration": 80, "velocity": 90}, {"time": 148321, "pitch": 55, "duration": 151, "velocity": 90}, {"time": 148321, "pitch": 67, "duration": 151, "velocity": 70}, {"time": 148321, "pitch": 79, "duration": 151, "velocity": 100}, {"time": 148321, "pitch": 91, "duration": 151, "velocity": 90}, {"time": 148562, "pitch": 53, "duration": 150, "velocity": 88}, {"time": 148562, "pitch": 65, "duration": 150, "velocity": 68}, {"time": 148562, "pitch": 77, "duration": 150, "velocity": 98}, {"time": 148562, "pitch": 89, "duration": 150, "velocity": 88}, {"time": 148802, "pitch": 51, "duration": 149, "velocity": 89}, {"time": 148802, "pitch": 63, "duration": 149, "velocity": 69}, {"time": 148802, "pitch": 75, "duration": 149, "velocity": 99}, {"time": 148802, "pitch": 87, "duration": 149, "velocity": 89}, {"time": 149040, "pitch": 47, "duration": 478, "velocity": 90}, {"time": 149040, "pitch": 59, "duration": 478, "velocity": 70}, {"time": 149040, "pitch": 71, "duration": 478, "velocity": 100}, {"time": 149040, "pitch": 83, "duration": 478, "velocity": 90}, {"time": 149518, "pitch": 44, "duration": 201, "velocity": 87}, {"time": 149518, "pitch": 56, "duration": 201, "velocity": 67}, {"time": 149518, "pitch": 68, "duration": 201, "velocity": 97}, {"time": 149518, "pitch": 80, "duration": 201, "velocity": 87}, {"time": 149759, "pitch": 51, "duration": 120, "velocity": 88}, {"time": 149759, "pitch": 63, "duration": 120, "velocity": 68}, {"time": 149759, "pitch": 75, "duration": 120, "velocity": 98}, {"time": 149759, "pitch": 87, "duration": 120, "velocity": 88}, {"time": 149999, "pitch": 47, "duration": 121, "velocity": 89}, {"time": 149999, "pitch": 59, "duration": 121, "velocity": 69}, {"time": 149999, "pitch": 71, "duration": 121, "velocity": 99}, {"time": 149999, "pitch": 83, "duration": 121, "velocity": 89}, {"time": 150240, "pitch": 51, "duration": 160, "velocity": 89}, {"time": 150240, "pitch": 63, "duration": 160, "velocity": 69}, {"time": 150240, "pitch": 75, "duration": 160, "velocity": 99}, {"time": 150240, "pitch": 87, "duration": 160, "velocity": 89}, {"time": 150480, "pitch": 50, "duration": 481, "velocity": 90}, {"time": 150480, "pitch": 62, "duration": 481, "velocity": 70}, {"time": 150480, "pitch": 74, "duration": 481, "velocity": 100}, {"time": 150480, "pitch": 86, "duration": 481, "velocity": 90}, {"time": 150961, "pitch": 46, "duration": 161, "velocity": 88}, {"time": 150961, "pitch": 58, "duration": 161, "velocity": 68}, {"time": 150961, "pitch": 70, "duration": 161, "velocity": 98}, {"time": 150961, "pitch": 82, "duration": 161, "velocity": 88}, {"time": 151202, "pitch": 51, "duration": 178, "velocity": 90}, {"time": 151202, "pitch": 63, "duration": 178, "velocity": 70}, {"time": 151202, "pitch": 75, "duration": 178, "velocity": 100}, {"time": 151202, "pitch": 87, "duration": 178, "velocity": 90}, {"time": 151440, "pitch": 50, "duration": 158, "velocity": 87}, {"time": 151440, "pitch": 62, "duration": 158, "velocity": 67}, {"time": 151440, "pitch": 74, "duration": 158, "velocity": 97}, {"time": 151440, "pitch": 86, "duration": 158, "velocity": 87}, {"time": 151677, "pitch": 55, "duration": 181, "velocity": 89}, {"time": 151677, "pitch": 67, "duration": 181, "velocity": 69}, {"time": 151677, "pitch": 79, "duration": 181, "velocity": 99}, {"time": 151677, "pitch": 91, "duration": 181, "velocity": 89}, {"time": 151918, "pitch": 53, "duration": 160, "velocity": 85}, {"time": 151918, "pitch": 65, "duration": 160, "velocity": 65}, {"time": 151918, "pitch": 77, "duration": 160, "velocity": 95}, {"time": 151918, "pitch": 89, "duration": 160, "velocity": 85}, {"time": 152158, "pitch": 55, "duration": 722, "velocity": 88}, {"time": 152158, "pitch": 67, "duration": 722, "velocity": 68}, {"time": 152158, "pitch": 79, "duration": 722, "velocity": 98}, {"time": 152158, "pitch": 91, "duration": 722, "velocity": 88}, {"time": 152880, "pitch": 50, "duration": 481, "velocity": 84}, {"time": 152880, "pitch": 62, "duration": 481, "velocity": 64}, {"time": 152880, "pitch": 74, "duration": 481, "velocity": 94}, {"time": 152880, "pitch": 86, "duration": 481, "velocity": 84}, {"time": 153361, "pitch": 47, "duration": 200, "velocity": 84}, {"time": 153361, "pitch": 59, "duration": 200, "velocity": 64}, {"time": 153361, "pitch": 71, "duration": 200, "velocity": 94}, {"time": 153361, "pitch": 83, "duration": 200, "velocity": 84}, {"time": 153602, "pitch": 53, "duration": 180, "velocity": 88}, {"time": 153602, "pitch": 65, "duration": 180, "velocity": 68}, {"time": 153602, "pitch": 77, "duration": 180, "velocity": 98}, {"time": 153602, "pitch": 89, "duration": 180, "velocity": 88}, {"time": 153842, "pitch": 50, "duration": 161, "velocity": 86}, {"time": 153842, "pitch": 62, "duration": 161, "velocity": 66}, {"time": 153842, "pitch": 74, "duration": 161, "velocity": 96}, {"time": 153842, "pitch": 86, "duration": 161, "velocity": 86}, {"time": 154083, "pitch": 51, "duration": 158, "velocity": 88}, {"time": 154083, "pitch": 63, "duration": 158, "velocity": 68}, {"time": 154083, "pitch": 75, "duration": 158, "velocity": 98}, {"time": 154083, "pitch": 87, "duration": 158, "velocity": 88}, {"time": 154320, "pitch": 50, "duration": 159, "velocity": 85}, {"time": 154320, "pitch": 62, "duration": 159, "velocity": 65}, {"time": 154320, "pitch": 74, "duration": 159, "velocity": 95}, {"time": 154320, "pitch": 86, "duration": 159, "velocity": 85}, {"time": 154558, "pitch": 53, "duration": 160, "velocity": 87}, {"time": 154558, "pitch": 65, "duration": 160, "velocity": 67}, {"time": 154558, "pitch": 77, "duration": 160, "velocity": 97}, {"time": 154558, "pitch": 89, "duration": 160, "velocity": 87}, {"time": 154798, "pitch": 51, "duration": 482, "velocity": 88}, {"time": 154798, "pitch": 63, "duration": 482, "velocity": 68}, {"time": 154798, "pitch": 75, "duration": 482, "velocity": 98}, {"time": 154798, "pitch": 87, "duration": 482, "velocity": 88}, {"time": 155280, "pitch": 48, "duration": 210, "velocity": 83}, {"time": 155280, "pitch": 60, "duration": 210, "velocity": 63}, {"time": 155280, "pitch": 72, "duration": 210, "velocity": 93}, {"time": 155280, "pitch": 84, "duration": 210, "velocity": 83}, {"time": 155520, "pitch": 50, "duration": 160, "velocity": 84}, {"time": 155520, "pitch": 62, "duration": 160, "velocity": 64}, {"time": 155520, "pitch": 74, "duration": 160, "velocity": 94}, {"time": 155520, "pitch": 86, "duration": 160, "velocity": 84}, {"time": 155761, "pitch": 51, "duration": 160, "velocity": 85}, {"time": 155761, "pitch": 63, "duration": 160, "velocity": 65}, {"time": 155761, "pitch": 75, "duration": 160, "velocity": 95}, {"time": 155761, "pitch": 87, "duration": 160, "velocity": 85}, {"time": 156001, "pitch": 56, "duration": 1438, "velocity": 88}, {"time": 156001, "pitch": 68, "duration": 1438, "velocity": 68}, {"time": 156001, "pitch": 80, "duration": 1438, "velocity": 98}, {"time": 156001, "pitch": 92, "duration": 1438, "velocity": 88}, {"time": 157439, "pitch": 55, "duration": 481, "velocity": 87}, {"time": 157439, "pitch": 67, "duration": 481, "velocity": 67}, {"time": 157439, "pitch": 79, "duration": 481, "velocity": 97}, {"time": 157439, "pitch": 91, "duration": 481, "velocity": 87}, {"time": 157920, "pitch": 56, "duration": 721, "velocity": 86}, {"time": 157920, "pitch": 68, "duration": 721, "velocity": 66}, {"time": 157920, "pitch": 80, "duration": 721, "velocity": 96}, {"time": 157920, "pitch": 92, "duration": 721, "velocity": 86}, {"time": 158641, "pitch": 55, "duration": 1197, "velocity": 83}, {"time": 158641, "pitch": 67, "duration": 1197, "velocity": 63}, {"time": 158641, "pitch": 79, "duration": 1197, "velocity": 93}, {"time": 158641, "pitch": 91, "duration": 1197, "velocity": 83}, {"time": 159838, "pitch": 56, "duration": 2412, "velocity": 75}, {"time": 159838, "pitch": 68, "duration": 2412, "velocity": 55}, {"time": 159838, "pitch": 80, "duration": 2412, "velocity": 85}, {"time": 159838, "pitch": 92, "duration": 2412, "velocity": 75}, {"time": 162250, "pitch": 55, "duration": 3831, "velocity": 75}, {"time": 162250, "pitch": 67, "duration": 3831, "velocity": 55}, {"time": 162250, "pitch": 79, "duration": 3831, "velocity": 85}, {"time": 162250, "pitch": 91, "duration": 3831, "velocity": 75}, {"time": 73481, "pitch": 74, "duration": 2817, "velocity": 115}, {"time": 117521, "pitch": 41, "duration": 31, "velocity": 120}, {"time": 117552, "pitch": 41, "duration": 30, "velocity": 110}, {"time": 117582, "pitch": 41, "duration": 20, "velocity": 115}, {"time": 117602, "pitch": 41, "duration": 481, "velocity": 120}, {"time": 118798, "pitch": 41, "duration": 161, "velocity": 110}, {"time": 118959, "pitch": 43, "duration": 80, "velocity": 110}, {"time": 119039, "pitch": 45, "duration": 241, "velocity": 110}, {"time": 119280, "pitch": 41, "duration": 180, "velocity": 110}, {"time": 119480, "pitch": 43, "duration": 20, "velocity": 110}, {"time": 119500, "pitch": 43, "duration": 20, "velocity": 105}, {"time": 119520, "pitch": 43, "duration": 30, "velocity": 120}, {"time": 119550, "pitch": 43, "duration": 481, "velocity": 120}, {"time": 120720, "pitch": 39, "duration": 158, "velocity": 110}, {"time": 120878, "pitch": 41, "duration": 80, "velocity": 110}, {"time": 120958, "pitch": 39, "duration": 240, "velocity": 110}, {"time": 121198, "pitch": 46, "duration": 181, "velocity": 110}, {"time": 121399, "pitch": 44, "duration": 20, "velocity": 110}, {"time": 121419, "pitch": 44, "duration": 20, "velocity": 105}, {"time": 121439, "pitch": 44, "duration": 30, "velocity": 120}, {"time": 121469, "pitch": 44, "duration": 481, "velocity": 120}, {"time": 122641, "pitch": 41, "duration": 161, "velocity": 110}, {"time": 122802, "pitch": 41, "duration": 80, "velocity": 110}, {"time": 122882, "pitch": 44, "duration": 238, "velocity": 110}, {"time": 123120, "pitch": 41, "duration": 178, "velocity": 110}, {"time": 123318, "pitch": 43, "duration": 19, "velocity": 110}, {"time": 123337, "pitch": 43, "duration": 20, "velocity": 105}, {"time": 123357, "pitch": 43, "duration": 30, "velocity": 120}, {"time": 123387, "pitch": 43, "duration": 481, "velocity": 120}, {"time": 124560, "pitch": 43, "duration": 160, "velocity": 110}, {"time": 124720, "pitch": 38, "duration": 80, "velocity": 110}, {"time": 124800, "pitch": 43, "duration": 241, "velocity": 110}, {"time": 125041, "pitch": 45, "duration": 180, "velocity": 110}, {"time": 125261, "pitch": 43, "duration": 11, "velocity": 105}, {"time": 125282, "pitch": 43, "duration": 30, "velocity": 120}, {"time": 125312, "pitch": 43, "duration": 30, "velocity": 120}, {"time": 125522, "pitch": 38, "duration": 201, "velocity": 115}, {"time": 125763, "pitch": 43, "duration": 9, "velocity": 120}, {"time": 125782, "pitch": 43, "duration": 218, "velocity": 105}, {"time": 126000, "pitch": 43, "duration": 228, "velocity": 115}, {"time": 126238, "pitch": 38, "duration": 30, "velocity": 66}, {"time": 126278, "pitch": 43, "duration": 30, "velocity": 66}, {"time": 126318, "pitch": 38, "duration": 30, "velocity": 66}, {"time": 126358, "pitch": 43, "duration": 30, "velocity": 67}, {"time": 126398, "pitch": 38, "duration": 30, "velocity": 68}, {"time": 126438, "pitch": 43, "duration": 30, "velocity": 69}, {"time": 126478, "pitch": 38, "duration": 30, "velocity": 70}, {"time": 126519, "pitch": 43, "duration": 30, "velocity": 71}, {"time": 126559, "pitch": 38, "duration": 30, "velocity": 73}, {"time": 126599, "pitch": 43, "duration": 30, "velocity": 74}, {"time": 126639, "pitch": 38, "duration": 30, "velocity": 76}, {"time": 126679, "pitch": 43, "duration": 30, "velocity": 78}, {"time": 126719, "pitch": 38, "duration": 30, "velocity": 81}, {"time": 126759, "pitch": 43, "duration": 30, "velocity": 83}, {"time": 126799, "pitch": 38, "duration": 30, "velocity": 86}, {"time": 126839, "pitch": 43, "duration": 30, "velocity": 88}, {"time": 126879, "pitch": 38, "duration": 30, "velocity": 91}, {"time": 126919, "pitch": 43, "duration": 30, "velocity": 94}, {"time": 126960, "pitch": 38, "duration": 30, "velocity": 98}, {"time": 127000, "pitch": 43, "duration": 30, "velocity": 101}, {"time": 127040, "pitch": 38, "duration": 30, "velocity": 105}, {"time": 127080, "pitch": 43, "duration": 30, "velocity": 109}, {"time": 127120, "pitch": 38, "duration": 30, "velocity": 113}, {"time": 127160, "pitch": 43, "duration": 30, "velocity": 117}, {"time": 127200, "pitch": 38, "duration": 30, "velocity": 121}, {"time": 132961, "pitch": 38, "duration": 31, "velocity": 63}, {"time": 133002, "pitch": 43, "duration": 30, "velocity": 58}, {"time": 133042, "pitch": 38, "duration": 30, "velocity": 52}, {"time": 133082, "pitch": 43, "duration": 30, "velocity": 46}, {"time": 133122, "pitch": 38, "duration": 30, "velocity": 40}, {"time": 133162, "pitch": 43, "duration": 30, "velocity": 40}, {"time": 133202, "pitch": 38, "duration": 30, "velocity": 40}, {"time": 133242, "pitch": 43, "duration": 30, "velocity": 40}, {"time": 133282, "pitch": 38, "duration": 30, "velocity": 40}, {"time": 133322, "pitch": 43, "duration": 30, "velocity": 40}, {"time": 133362, "pitch": 38, "duration": 30, "velocity": 40}, {"time": 133402, "pitch": 43, "duration": 31, "velocity": 40}, {"time": 133443, "pitch": 38, "duration": 29, "velocity": 41}, {"time": 133482, "pitch": 43, "duration": 30, "velocity": 41}, {"time": 133522, "pitch": 38, "duration": 29, "velocity": 41}, {"time": 133561, "pitch": 43, "duration": 30, "velocity": 41}, {"time": 133601, "pitch": 38, "duration": 30, "velocity": 42}, {"time": 133641, "pitch": 43, "duration": 29, "velocity": 42}, {"time": 133680, "pitch": 38, "duration": 30, "velocity": 43}, {"time": 133720, "pitch": 43, "duration": 29, "velocity": 43}, {"time": 133759, "pitch": 38, "duration": 30, "velocity": 44}, {"time": 133799, "pitch": 43, "duration": 30, "velocity": 44}, {"time": 133839, "pitch": 38, "duration": 29, "velocity": 45}, {"time": 133878, "pitch": 43, "duration": 30, "velocity": 45}, {"time": 133918, "pitch": 38, "duration": 30, "velocity": 46}, {"time": 133958, "pitch": 43, "duration": 30, "velocity": 46}, {"time": 133998, "pitch": 38, "duration": 30, "velocity": 47}, {"time": 134038, "pitch": 43, "duration": 30, "velocity": 48}, {"time": 134078, "pitch": 38, "duration": 30, "velocity": 49}, {"time": 134118, "pitch": 43, "duration": 30, "velocity": 49}, {"time": 134158, "pitch": 38, "duration": 30, "velocity": 50}, {"time": 134198, "pitch": 43, "duration": 30, "velocity": 51}, {"time": 134239, "pitch": 38, "duration": 30, "velocity": 52}, {"time": 134279, "pitch": 43, "duration": 30, "velocity": 53}, {"time": 134319, "pitch": 38, "duration": 30, "velocity": 54}, {"time": 134359, "pitch": 43, "duration": 30, "velocity": 55}, {"time": 134399, "pitch": 38, "duration": 30, "velocity": 56}, {"time": 134439, "pitch": 43, "duration": 30, "velocity": 57}, {"time": 134479, "pitch": 38, "duration": 30, "velocity": 58}, {"time": 134519, "pitch": 43, "duration": 30, "velocity": 59}, {"time": 134559, "pitch": 38, "duration": 30, "velocity": 60}, {"time": 134599, "pitch": 43, "duration": 30, "velocity": 61}, {"time": 134639, "pitch": 38, "duration": 30, "velocity": 62}, {"time": 134680, "pitch": 43, "duration": 30, "velocity": 64}, {"time": 134720, "pitch": 38, "duration": 30, "velocity": 65}, {"time": 134760, "pitch": 43, "duration": 30, "velocity": 66}, {"time": 134800, "pitch": 38, "duration": 30, "velocity": 65}, {"time": 134840, "pitch": 43, "duration": 30, "velocity": 65}, {"time": 134880, "pitch": 36, "duration": 30, "velocity": 76}, {"time": 134920, "pitch": 44, "duration": 30, "velocity": 73}, {"time": 134960, "pitch": 36, "duration": 30, "velocity": 71}, {"time": 135000, "pitch": 44, "duration": 30, "velocity": 68}, {"time": 135040, "pitch": 36, "duration": 30, "velocity": 65}, {"time": 135080, "pitch": 44, "duration": 30, "velocity": 62}, {"time": 135121, "pitch": 36, "duration": 30, "velocity": 65}, {"time": 135161, "pitch": 44, "duration": 30, "velocity": 66}, {"time": 135201, "pitch": 36, "duration": 30, "velocity": 66}, {"time": 135241, "pitch": 44, "duration": 30, "velocity": 67}, {"time": 135281, "pitch": 36, "duration": 30, "velocity": 68}, {"time": 135321, "pitch": 44, "duration": 30, "velocity": 68}, {"time": 135361, "pitch": 36, "duration": 30, "velocity": 69}, {"time": 135401, "pitch": 44, "duration": 30, "velocity": 69}, {"time": 135441, "pitch": 36, "duration": 30, "velocity": 70}, {"time": 135481, "pitch": 44, "duration": 30, "velocity": 71}, {"time": 135521, "pitch": 36, "duration": 30, "velocity": 71}, {"time": 135562, "pitch": 44, "duration": 30, "velocity": 72}, {"time": 135602, "pitch": 36, "duration": 30, "velocity": 72}, {"time": 135642, "pitch": 44, "duration": 30, "velocity": 72}, {"time": 135682, "pitch": 36, "duration": 30, "velocity": 72}, {"time": 135722, "pitch": 44, "duration": 30, "velocity": 72}, {"time": 135762, "pitch": 36, "duration": 30, "velocity": 72}, {"time": 135802, "pitch": 44, "duration": 30, "velocity": 76}, {"time": 135842, "pitch": 36, "duration": 30, "velocity": 76}, {"time": 135882, "pitch": 44, "duration": 29, "velocity": 76}, {"time": 135921, "pitch": 36, "duration": 30, "velocity": 76}, {"time": 135961, "pitch": 44, "duration": 30, "velocity": 76}, {"time": 136001, "pitch": 36, "duration": 29, "velocity": 77}, {"time": 136040, "pitch": 44, "duration": 30, "velocity": 78}, {"time": 136080, "pitch": 36, "duration": 29, "velocity": 78}, {"time": 136119, "pitch": 44, "duration": 30, "velocity": 79}, {"time": 136159, "pitch": 36, "duration": 30, "velocity": 80}, {"time": 136199, "pitch": 44, "duration": 29, "velocity": 81}, {"time": 136238, "pitch": 36, "duration": 30, "velocity": 82}, {"time": 136278, "pitch": 44, "duration": 30, "velocity": 83}, {"time": 136317, "pitch": 36, "duration": 30, "velocity": 85}, {"time": 136357, "pitch": 44, "duration": 31, "velocity": 86}, {"time": 136398, "pitch": 36, "duration": 30, "velocity": 88}, {"time": 136438, "pitch": 44, "duration": 30, "velocity": 89}, {"time": 136478, "pitch": 36, "duration": 30, "velocity": 91}, {"time": 136518, "pitch": 44, "duration": 30, "velocity": 93}, {"time": 136558, "pitch": 36, "duration": 30, "velocity": 95}, {"time": 136598, "pitch": 44, "duration": 30, "velocity": 97}, {"time": 136638, "pitch": 36, "duration": 30, "velocity": 99}, {"time": 136678, "pitch": 44, "duration": 30, "velocity": 101}, {"time": 136718, "pitch": 36, "duration": 30, "velocity": 103}, {"time": 136758, "pitch": 44, "duration": 30, "velocity": 106}, {"time": 29520, "pitch": 74, "duration": 161, "velocity": 105}, {"time": 29681, "pitch": 74, "duration": 80, "velocity": 90}, {"time": 29761, "pitch": 73, "duration": 230, "velocity": 100}, {"time": 30001, "pitch": 73, "duration": 161, "velocity": 110}, {"time": 30162, "pitch": 73, "duration": 80, "velocity": 100}, {"time": 30242, "pitch": 73, "duration": 158, "velocity": 105}, {"time": 30400, "pitch": 74, "duration": 79, "velocity": 100}, {"time": 30479, "pitch": 71, "duration": 159, "velocity": 100}, {"time": 30638, "pitch": 71, "duration": 79, "velocity": 90}, {"time": 30717, "pitch": 71, "duration": 160, "velocity": 105}, {"time": 30877, "pitch": 73, "duration": 81, "velocity": 90}, {"time": 30958, "pitch": 67, "duration": 190, "velocity": 100}, {"time": 31168, "pitch": 62, "duration": 1935, "velocity": 100}, {"time": 31168, "pitch": 67, "duration": 1935, "velocity": 85}, {"time": 31178, "pitch": 71, "duration": 1925, "velocity": 75}, {"time": 37681, "pitch": 64, "duration": 161, "velocity": 110}, {"time": 37842, "pitch": 62, "duration": 80, "velocity": 100}, {"time": 37922, "pitch": 64, "duration": 148, "velocity": 105}, {"time": 38082, "pitch": 62, "duration": 76, "velocity": 80}, {"time": 38162, "pitch": 59, "duration": 141, "velocity": 100}, {"time": 38323, "pitch": 62, "duration": 1036, "velocity": 100}, {"time": 41040, "pitch": 59, "duration": 159, "velocity": 110}, {"time": 41199, "pitch": 62, "duration": 79, "velocity": 90}, {"time": 41278, "pitch": 62, "duration": 240, "velocity": 100}, {"time": 41518, "pitch": 66, "duration": 60, "velocity": 105}, {"time": 41578, "pitch": 67, "duration": 61, "velocity": 90}, {"time": 41639, "pitch": 69, "duration": 60, "velocity": 80}, {"time": 41699, "pitch": 67, "duration": 60, "velocity": 90}, {"time": 41759, "pitch": 71, "duration": 240, "velocity": 100}, {"time": 41999, "pitch": 74, "duration": 225, "velocity": 127}, {"time": 42240, "pitch": 74, "duration": 152, "velocity": 110}, {"time": 42400, "pitch": 71, "duration": 68, "velocity": 127}, {"time": 42480, "pitch": 74, "duration": 237, "velocity": 110}, {"time": 42721, "pitch": 71, "duration": 241, "velocity": 115}, {"time": 42962, "pitch": 69, "duration": 1437, "velocity": 100}, {"time": 49920, "pitch": 66, "duration": 192, "velocity": 105}, {"time": 50160, "pitch": 64, "duration": 161, "velocity": 100}, {"time": 50321, "pitch": 62, "duration": 80, "velocity": 90}, {"time": 50401, "pitch": 64, "duration": 132, "velocity": 110}, {"time": 50561, "pitch": 62, "duration": 1688, "velocity": 100}, {"time": 89041, "pitch": 74, "duration": 160, "velocity": 110}, {"time": 89201, "pitch": 74, "duration": 81, "velocity": 100}, {"time": 89282, "pitch": 73, "duration": 240, "velocity": 110}, {"time": 89522, "pitch": 73, "duration": 160, "velocity": 100}, {"time": 89682, "pitch": 73, "duration": 81, "velocity": 90}, {"time": 89763, "pitch": 71, "duration": 237, "velocity": 100}, {"time": 90000, "pitch": 71, "duration": 159, "velocity": 105}, {"time": 90159, "pitch": 71, "duration": 79, "velocity": 90}, {"time": 90238, "pitch": 69, "duration": 240, "velocity": 100}, {"time": 90478, "pitch": 67, "duration": 241, "velocity": 105}, {"time": 90719, "pitch": 62, "duration": 10, "velocity": 64}, {"time": 90719, "pitch": 67, "duration": 10, "velocity": 100}, {"time": 90719, "pitch": 71, "duration": 10, "velocity": 64}, {"time": 90729, "pitch": 62, "duration": 962, "velocity": 64}, {"time": 90729, "pitch": 67, "duration": 962, "velocity": 100}, {"time": 90729, "pitch": 71, "duration": 962, "velocity": 64}, {"time": 93369, "pitch": 57, "duration": 80, "velocity": 100}, {"time": 93449, "pitch": 59, "duration": 81, "velocity": 100}, {"time": 93530, "pitch": 62, "duration": 80, "velocity": 100}, {"time": 93610, "pitch": 64, "duration": 80, "velocity": 100}, {"time": 93690, "pitch": 66, "duration": 80, "velocity": 100}, {"time": 93770, "pitch": 69, "duration": 241, "velocity": 100}, {"time": 94011, "pitch": 65, "duration": 80, "velocity": 100}, {"time": 94091, "pitch": 64, "duration": 160, "velocity": 100}, {"time": 94251, "pitch": 62, "duration": 80, "velocity": 100}, {"time": 94331, "pitch": 64, "duration": 161, "velocity": 100}, {"time": 94492, "pitch": 62, "duration": 555, "velocity": 100}, {"time": 96731, "pitch": 66, "duration": 160, "velocity": 100}, {"time": 96891, "pitch": 69, "duration": 81, "velocity": 100}, {"time": 97132, "pitch": 71, "duration": 80, "velocity": 100}, {"time": 97372, "pitch": 71, "duration": 10, "velocity": 127}, {"time": 97452, "pitch": 71, "duration": 159, "velocity": 100}, {"time": 97611, "pitch": 74, "duration": 64, "velocity": 100}, {"time": 97690, "pitch": 76, "duration": 159, "velocity": 100}, {"time": 97849, "pitch": 74, "duration": 64, "velocity": 100}, {"time": 97928, "pitch": 76, "duration": 160, "velocity": 100}, {"time": 98088, "pitch": 74, "duration": 65, "velocity": 100}, {"time": 98168, "pitch": 76, "duration": 161, "velocity": 100}, {"time": 98329, "pitch": 74, "duration": 1042, "velocity": 100}, {"time": 108729, "pitch": 59, "duration": 160, "velocity": 127}, {"time": 108889, "pitch": 62, "duration": 81, "velocity": 127}, {"time": 108970, "pitch": 62, "duration": 160, "velocity": 127}, {"time": 109130, "pitch": 64, "duration": 80, "velocity": 127}, {"time": 109210, "pitch": 66, "duration": 135, "velocity": 127}, {"time": 109370, "pitch": 69, "duration": 241, "velocity": 127}, {"time": 109611, "pitch": 66, "duration": 80, "velocity": 127}, {"time": 109691, "pitch": 64, "duration": 161, "velocity": 127}, {"time": 109852, "pitch": 62, "duration": 1036, "velocity": 127}, {"time": 115928, "pitch": 57, "duration": 160, "velocity": 100}, {"time": 116088, "pitch": 59, "duration": 80, "velocity": 90}, {"time": 116168, "pitch": 64, "duration": 161, "velocity": 105}, {"time": 116329, "pitch": 66, "duration": 80, "velocity": 90}, {"time": 116409, "pitch": 67, "duration": 160, "velocity": 100}, {"time": 116569, "pitch": 69, "duration": 241, "velocity": 105}, {"time": 116810, "pitch": 65, "duration": 80, "velocity": 110}, {"time": 116890, "pitch": 64, "duration": 160, "velocity": 90}, {"time": 117050, "pitch": 62, "duration": 81, "velocity": 80}, {"time": 117131, "pitch": 64, "duration": 160, "velocity": 100}, {"time": 117291, "pitch": 62, "duration": 321, "velocity": 90}, {"time": 127210, "pitch": 67, "duration": 120, "velocity": 118}, {"time": 127451, "pitch": 67, "duration": 471, "velocity": 122}, {"time": 127932, "pitch": 71, "duration": 160, "velocity": 118}, {"time": 128092, "pitch": 72, "duration": 80, "velocity": 110}, {"time": 128172, "pitch": 71, "duration": 99, "velocity": 116}, {"time": 128410, "pitch": 67, "duration": 468, "velocity": 120}, {"time": 128888, "pitch": 64, "duration": 100, "velocity": 116}, {"time": 129129, "pitch": 67, "duration": 230, "velocity": 122}, {"time": 129369, "pitch": 67, "duration": 100, "velocity": 116}, {"time": 129610, "pitch": 73, "duration": 120, "velocity": 118}, {"time": 129850, "pitch": 72, "duration": 1157, "velocity": 124}, {"time": 131207, "pitch": 58, "duration": 81, "velocity": 114}, {"time": 131288, "pitch": 56, "duration": 160, "velocity": 112}, {"time": 131448, "pitch": 58, "duration": 80, "velocity": 110}, {"time": 131528, "pitch": 62, "duration": 161, "velocity": 114}, {"time": 131689, "pitch": 65, "duration": 120, "velocity": 112}, {"time": 131769, "pitch": 70, "duration": 160, "velocity": 110}, {"time": 131929, "pitch": 65, "duration": 80, "velocity": 108}, {"time": 132009, "pitch": 72, "duration": 121, "velocity": 116}, {"time": 132250, "pitch": 70, "duration": 701, "velocity": 118}, {"time": 132971, "pitch": 55, "duration": 241, "velocity": 118}, {"time": 133212, "pitch": 59, "duration": 240, "velocity": 110}, {"time": 133452, "pitch": 62, "duration": 238, "velocity": 118}, {"time": 133690, "pitch": 57, "duration": 228, "velocity": 114}, {"time": 133928, "pitch": 67, "duration": 240, "velocity": 118}, {"time": 134168, "pitch": 62, "duration": 241, "velocity": 114}, {"time": 134409, "pitch": 71, "duration": 240, "velocity": 116}, {"time": 134649, "pitch": 67, "duration": 241, "velocity": 112}, {"time": 134890, "pitch": 60, "duration": 241, "velocity": 120}, {"time": 135131, "pitch": 63, "duration": 240, "velocity": 116}, {"time": 135371, "pitch": 68, "duration": 241, "velocity": 118}, {"time": 135612, "pitch": 63, "duration": 240, "velocity": 116}, {"time": 135852, "pitch": 72, "duration": 238, "velocity": 120}, {"time": 136090, "pitch": 68, "duration": 237, "velocity": 118}, {"time": 136327, "pitch": 68, "duration": 241, "velocity": 120}, {"time": 136568, "pitch": 72, "duration": 241, "velocity": 118}, {"time": 136809, "pitch": 70, "duration": 1733, "velocity": 122}, {"time": 140411, "pitch": 60, "duration": 160, "velocity": 110}, {"time": 140571, "pitch": 63, "duration": 40, "velocity": 105}, {"time": 140651, "pitch": 63, "duration": 486, "velocity": 110}, {"time": 142810, "pitch": 72, "duration": 161, "velocity": 110}, {"time": 142971, "pitch": 75, "duration": 30, "velocity": 100}, {"time": 143051, "pitch": 75, "duration": 160, "velocity": 105}, {"time": 143211, "pitch": 72, "duration": 40, "velocity": 90}, {"time": 143292, "pitch": 75, "duration": 160, "velocity": 110}, {"time": 143452, "pitch": 72, "duration": 40, "velocity": 90}, {"time": 143532, "pitch": 79, "duration": 228, "velocity": 110}, {"time": 143770, "pitch": 79, "duration": 227, "velocity": 100}, {"time": 144007, "pitch": 77, "duration": 161, "velocity": 110}, {"time": 144168, "pitch": 75, "duration": 40, "velocity": 95}, {"time": 144248, "pitch": 77, "duration": 135, "velocity": 105}, {"time": 144408, "pitch": 75, "duration": 1043, "velocity": 100}, {"time": 146172, "pitch": 67, "duration": 161, "velocity": 100}, {"time": 146333, "pitch": 70, "duration": 65, "velocity": 100}, {"time": 146413, "pitch": 70, "duration": 956, "velocity": 100}, {"time": 57359, "pitch": 66, "duration": 1411, "velocity": 85}, {"time": 57359, "pitch": 69, "duration": 1411, "velocity": 120}, {"time": 57364, "pitch": 74, "duration": 1401, "velocity": 105}, {"time": 58800, "pitch": 72, "duration": 468, "velocity": 118}, {"time": 59278, "pitch": 71, "duration": 350, "velocity": 118}, {"time": 59639, "pitch": 69, "duration": 120, "velocity": 114}, {"time": 59759, "pitch": 66, "duration": 471, "velocity": 116}, {"time": 60240, "pitch": 76, "duration": 351, "velocity": 120}, {"time": 60601, "pitch": 74, "duration": 591, "velocity": 116}, {"time": 61202, "pitch": 69, "duration": 706, "velocity": 120}, {"time": 61928, "pitch": 53, "duration": 120, "velocity": 95}, {"time": 61928, "pitch": 58, "duration": 120, "velocity": 90}, {"time": 61938, "pitch": 62, "duration": 110, "velocity": 85}, {"time": 62168, "pitch": 53, "duration": 231, "velocity": 95}, {"time": 62168, "pitch": 58, "duration": 231, "velocity": 90}, {"time": 62178, "pitch": 62, "duration": 221, "velocity": 85}, {"time": 62650, "pitch": 55, "duration": 1192, "velocity": 95}, {"time": 62650, "pitch": 59, "duration": 1192, "velocity": 90}, {"time": 62660, "pitch": 62, "duration": 1182, "velocity": 85}, {"time": 70800, "pitch": 57, "duration": 241, "velocity": 100}, {"time": 71041, "pitch": 62, "duration": 241, "velocity": 90}, {"time": 71282, "pitch": 64, "duration": 240, "velocity": 95}, {"time": 71522, "pitch": 66, "duration": 357, "velocity": 105}, {"time": 71884, "pitch": 69, "duration": 1271, "velocity": 100}, {"time": 83039, "pitch": 64, "duration": 144, "velocity": 105}, {"time": 83199, "pitch": 62, "duration": 786, "velocity": 90}, {"time": 84001, "pitch": 59, "duration": 145, "velocity": 110}, {"time": 84162, "pitch": 62, "duration": 542, "velocity": 100}, {"time": 84720, "pitch": 66, "duration": 222, "velocity": 110}, {"time": 84958, "pitch": 69, "duration": 701, "velocity": 100}, {"time": 85679, "pitch": 71, "duration": 145, "velocity": 110}, {"time": 85840, "pitch": 74, "duration": 801, "velocity": 100}, {"time": 26750, "pitch": 42, "duration": 10, "velocity": 64}, {"time": 26810, "pitch": 42, "duration": 10, "velocity": 84}, {"time": 26880, "pitch": 46, "duration": 10, "velocity": 76}, {"time": 27361, "pitch": 36, "duration": 10, "velocity": 115}, {"time": 27361, "pitch": 51, "duration": 10, "velocity": 120}, {"time": 27842, "pitch": 37, "duration": 10, "velocity": 120}, {"time": 27844, "pitch": 42, "duration": 10, "velocity": 96}, {"time": 28085, "pitch": 42, "duration": 10, "velocity": 66}, {"time": 28241, "pitch": 42, "duration": 10, "velocity": 53}, {"time": 28318, "pitch": 36, "duration": 10, "velocity": 110}, {"time": 28318, "pitch": 42, "duration": 10, "velocity": 91}, {"time": 28558, "pitch": 42, "duration": 10, "velocity": 66}, {"time": 28799, "pitch": 37, "duration": 10, "velocity": 120}, {"time": 28799, "pitch": 54, "duration": 10, "velocity": 115}, {"time": 28801, "pitch": 42, "duration": 10, "velocity": 96}, {"time": 29044, "pitch": 42, "duration": 10, "velocity": 61}, {"time": 29280, "pitch": 36, "duration": 10, "velocity": 115}, {"time": 29280, "pitch": 42, "duration": 10, "velocity": 91}, {"time": 29523, "pitch": 42, "duration": 10, "velocity": 66}, {"time": 29761, "pitch": 37, "duration": 10, "velocity": 120}, {"time": 29763, "pitch": 42, "duration": 10, "velocity": 96}, {"time": 30006, "pitch": 42, "duration": 10, "velocity": 66}, {"time": 30165, "pitch": 42, "duration": 10, "velocity": 53}, {"time": 30242, "pitch": 36, "duration": 10, "velocity": 110}, {"time": 30242, "pitch": 42, "duration": 10, "velocity": 91}, {"time": 30479, "pitch": 42, "duration": 10, "velocity": 66}, {"time": 30717, "pitch": 37, "duration": 10, "velocity": 120}, {"time": 30717, "pitch": 54, "duration": 10, "velocity": 115}, {"time": 30719, "pitch": 42, "duration": 10, "velocity": 96}, {"time": 30963, "pitch": 42, "duration": 10, "velocity": 61}, {"time": 31198, "pitch": 36, "duration": 10, "velocity": 115}, {"time": 31198, "pitch": 42, "duration": 10, "velocity": 91}, {"time": 31442, "pitch": 42, "duration": 10, "velocity": 66}, {"time": 31679, "pitch": 37, "duration": 10, "velocity": 120}, {"time": 31681, "pitch": 42, "duration": 10, "velocity": 96}, {"time": 31925, "pitch": 42, "duration": 10, "velocity": 66}, {"time": 32083, "pitch": 42, "duration": 10, "velocity": 53}, {"time": 32160, "pitch": 36, "duration": 10, "velocity": 110}, {"time": 32160, "pitch": 42, "duration": 10, "velocity": 91}, {"time": 32401, "pitch": 42, "duration": 10, "velocity": 66}, {"time": 32641, "pitch": 37, "duration": 10, "velocity": 120}, {"time": 32641, "pitch": 54, "duration": 10, "velocity": 115}, {"time": 32643, "pitch": 42, "duration": 10, "velocity": 96}, {"time": 32887, "pitch": 42, "duration": 10, "velocity": 61}, {"time": 33123, "pitch": 36, "duration": 9, "velocity": 115}, {"time": 33123, "pitch": 42, "duration": 9, "velocity": 91}, {"time": 33363, "pitch": 42, "duration": 10, "velocity": 66}, {"time": 33598, "pitch": 37, "duration": 10, "velocity": 120}, {"time": 33600, "pitch": 42, "duration": 10, "velocity": 96}, {"time": 33843, "pitch": 42, "duration": 10, "velocity": 66}, {"time": 34002, "pitch": 42, "duration": 10, "velocity": 53}, {"time": 34079, "pitch": 36, "duration": 10, "velocity": 110}, {"time": 34079, "pitch": 42, "duration": 10, "velocity": 91}, {"time": 34319, "pitch": 42, "duration": 10, "velocity": 66}, {"time": 34560, "pitch": 37, "duration": 10, "velocity": 120}, {"time": 34560, "pitch": 54, "duration": 10, "velocity": 115}, {"time": 34562, "pitch": 42, "duration": 10, "velocity": 96}, {"time": 34806, "pitch": 46, "duration": 10, "velocity": 64}, {"time": 35041, "pitch": 36, "duration": 10, "velocity": 115}, {"time": 35041, "pitch": 44, "duration": 10, "velocity": 91}, {"time": 35285, "pitch": 42, "duration": 10, "velocity": 66}, {"time": 35522, "pitch": 37, "duration": 10, "velocity": 120}, {"time": 35524, "pitch": 42, "duration": 10, "velocity": 96}, {"time": 35765, "pitch": 42, "duration": 10, "velocity": 66}, {"time": 35921, "pitch": 42, "duration": 10, "velocity": 53}, {"time": 35997, "pitch": 36, "duration": 10, "velocity": 110}, {"time": 35997, "pitch": 42, "duration": 10, "velocity": 91}, {"time": 36238, "pitch": 42, "duration": 10, "velocity": 66}, {"time": 36478, "pitch": 37, "duration": 11, "velocity": 120}, {"time": 36478, "pitch": 54, "duration": 11, "velocity": 115}, {"time": 36480, "pitch": 42, "duration": 11, "velocity": 96}, {"time": 36724, "pitch": 42, "duration": 10, "velocity": 61}, {"time": 36960, "pitch": 36, "duration": 10, "velocity": 115}, {"time": 36960, "pitch": 42, "duration": 10, "velocity": 91}, {"time": 37203, "pitch": 42, "duration": 10, "velocity": 66}, {"time": 37441, "pitch": 37, "duration": 10, "velocity": 120}, {"time": 37443, "pitch": 42, "duration": 10, "velocity": 96}, {"time": 37686, "pitch": 42, "duration": 10, "velocity": 66}, {"time": 37845, "pitch": 42, "duration": 10, "velocity": 53}, {"time": 37922, "pitch": 36, "duration": 10, "velocity": 110}, {"time": 37922, "pitch": 42, "duration": 10, "velocity": 91}, {"time": 38162, "pitch": 42, "duration": 10, "velocity": 66}, {"time": 38403, "pitch": 37, "duration": 10, "velocity": 120}, {"time": 38403, "pitch": 54, "duration": 10, "velocity": 115}, {"time": 38405, "pitch": 42, "duration": 10, "velocity": 96}, {"time": 38645, "pitch": 42, "duration": 10, "velocity": 61}, {"time": 38878, "pitch": 36, "duration": 10, "velocity": 115}, {"time": 38878, "pitch": 42, "duration": 10, "velocity": 91}, {"time": 39122, "pitch": 42, "duration": 10, "velocity": 66}, {"time": 39359, "pitch": 37, "duration": 10, "velocity": 120}, {"time": 39361, "pitch": 42, "duration": 10, "velocity": 96}, {"time": 39605, "pitch": 42, "duration": 10, "velocity": 66}, {"time": 39763, "pitch": 42, "duration": 10, "velocity": 53}, {"time": 39840, "pitch": 36, "duration": 10, "velocity": 110}, {"time": 39840, "pitch": 42, "duration": 10, "velocity": 91}, {"time": 40081, "pitch": 42, "duration": 10, "velocity": 66}, {"time": 40321, "pitch": 37, "duration": 10, "velocity": 120}, {"time": 40321, "pitch": 54, "duration": 10, "velocity": 115}, {"time": 40323, "pitch": 42, "duration": 10, "velocity": 96}, {"time": 40567, "pitch": 42, "duration": 10, "velocity": 61}, {"time": 40802, "pitch": 36, "duration": 10, "velocity": 115}, {"time": 40802, "pitch": 42, "duration": 10, "velocity": 91}, {"time": 41043, "pitch": 42, "duration": 10, "velocity": 66}, {"time": 41278, "pitch": 37, "duration": 10, "velocity": 120}, {"time": 41280, "pitch": 46, "duration": 10, "velocity": 81}, {"time": 41679, "pitch": 42, "duration": 10, "velocity": 11}, {"time": 41759, "pitch": 36, "duration": 10, "velocity": 110}, {"time": 41769, "pitch": 46, "duration": 10, "velocity": 88}, {"time": 42004, "pitch": 40, "duration": 10, "velocity": 105}, {"time": 42240, "pitch": 40, "duration": 10, "velocity": 110}, {"time": 42240, "pitch": 54, "duration": 10, "velocity": 115}, {"time": 42240, "pitch": 80, "duration": 10, "velocity": 102}, {"time": 42400, "pitch": 40, "duration": 10, "velocity": 85}, {"time": 42400, "pitch": 80, "duration": 10, "velocity": 97}, {"time": 42480, "pitch": 81, "duration": 10, "velocity": 100}, {"time": 42485, "pitch": 40, "duration": 10, "velocity": 100}, {"time": 42722, "pitch": 49, "duration": 10, "velocity": 80}, {"time": 42722, "pitch": 57, "duration": 10, "velocity": 82}, {"time": 42723, "pitch": 36, "duration": 10, "velocity": 115}, {"time": 43202, "pitch": 37, "duration": 10, "velocity": 125}, {"time": 43202, "pitch": 40, "duration": 10, "velocity": 50}, {"time": 43202, "pitch": 54, "duration": 10, "velocity": 115}, {"time": 43212, "pitch": 53, "duration": 10, "velocity": 124}, {"time": 43679, "pitch": 36, "duration": 10, "velocity": 105}, {"time": 43682, "pitch": 53, "duration": 10, "velocity": 127}, {"time": 43682, "pitch": 59, "duration": 10, "velocity": 108}, {"time": 44078, "pitch": 36, "duration": 10, "velocity": 90}, {"time": 44158, "pitch": 54, "duration": 10, "velocity": 115}, {"time": 44158, "pitch": 80, "duration": 10, "velocity": 102}, {"time": 44163, "pitch": 40, "duration": 10, "velocity": 115}, {"time": 44169, "pitch": 53, "duration": 10, "velocity": 120}, {"time": 44319, "pitch": 80, "duration": 10, "velocity": 97}, {"time": 44399, "pitch": 81, "duration": 10, "velocity": 100}, {"time": 44403, "pitch": 53, "duration": 10, "velocity": 100}, {"time": 44554, "pitch": 53, "duration": 10, "velocity": 85}, {"time": 44641, "pitch": 36, "duration": 11, "velocity": 115}, {"time": 44645, "pitch": 53, "duration": 10, "velocity": 127}, {"time": 44645, "pitch": 59, "duration": 10, "velocity": 99}, {"time": 45121, "pitch": 37, "duration": 10, "velocity": 125}, {"time": 45121, "pitch": 40, "duration": 10, "velocity": 50}, {"time": 45121, "pitch": 54, "duration": 10, "velocity": 115}, {"time": 45135, "pitch": 53, "duration": 10, "velocity": 124}, {"time": 45604, "pitch": 36, "duration": 10, "velocity": 105}, {"time": 45607, "pitch": 59, "duration": 10, "velocity": 108}, {"time": 45608, "pitch": 53, "duration": 10, "velocity": 127}, {"time": 45847, "pitch": 36, "duration": 10, "velocity": 80}, {"time": 46003, "pitch": 36, "duration": 10, "velocity": 90}, {"time": 46083, "pitch": 54, "duration": 10, "velocity": 115}, {"time": 46083, "pitch": 80, "duration": 10, "velocity": 102}, {"time": 46088, "pitch": 40, "duration": 10, "velocity": 115}, {"time": 46095, "pitch": 53, "duration": 10, "velocity": 120}, {"time": 46241, "pitch": 80, "duration": 10, "velocity": 97}, {"time": 46320, "pitch": 81, "duration": 10, "velocity": 100}, {"time": 46560, "pitch": 36, "duration": 10, "velocity": 115}, {"time": 46561, "pitch": 53, "duration": 10, "velocity": 127}, {"time": 46564, "pitch": 59, "duration": 10, "velocity": 99}, {"time": 47039, "pitch": 37, "duration": 10, "velocity": 125}, {"time": 47039, "pitch": 40, "duration": 10, "velocity": 50}, {"time": 47039, "pitch": 54, "duration": 10, "velocity": 115}, {"time": 47051, "pitch": 53, "duration": 10, "velocity": 124}, {"time": 47523, "pitch": 36, "duration": 10, "velocity": 105}, {"time": 47524, "pitch": 53, "duration": 10, "velocity": 127}, {"time": 47527, "pitch": 59, "duration": 10, "velocity": 108}, {"time": 47921, "pitch": 36, "duration": 10, "velocity": 90}, {"time": 48001, "pitch": 54, "duration": 10, "velocity": 115}, {"time": 48001, "pitch": 80, "duration": 10, "velocity": 102}, {"time": 48006, "pitch": 40, "duration": 10, "velocity": 115}, {"time": 48011, "pitch": 53, "duration": 10, "velocity": 120}, {"time": 48162, "pitch": 80, "duration": 10, "velocity": 97}, {"time": 48242, "pitch": 81, "duration": 10, "velocity": 100}, {"time": 48245, "pitch": 53, "duration": 10, "velocity": 100}, {"time": 48397, "pitch": 53, "duration": 10, "velocity": 88}, {"time": 48484, "pitch": 36, "duration": 10, "velocity": 115}, {"time": 48486, "pitch": 53, "duration": 10, "velocity": 127}, {"time": 48489, "pitch": 59, "duration": 10, "velocity": 99}, {"time": 48958, "pitch": 37, "duration": 10, "velocity": 125}, {"time": 48958, "pitch": 40, "duration": 10, "velocity": 50}, {"time": 48958, "pitch": 54, "duration": 10, "velocity": 115}, {"time": 48971, "pitch": 53, "duration": 10, "velocity": 124}, {"time": 49442, "pitch": 36, "duration": 10, "velocity": 105}, {"time": 49444, "pitch": 53, "duration": 10, "velocity": 126}, {"time": 49446, "pitch": 59, "duration": 10, "velocity": 108}, {"time": 49679, "pitch": 81, "duration": 10, "velocity": 98}, {"time": 49684, "pitch": 36, "duration": 10, "velocity": 90}, {"time": 49920, "pitch": 36, "duration": 10, "velocity": 107}, {"time": 49920, "pitch": 40, "duration": 10, "velocity": 110}, {"time": 49920, "pitch": 54, "duration": 10, "velocity": 115}, {"time": 49920, "pitch": 80, "duration": 10, "velocity": 102}, {"time": 49931, "pitch": 53, "duration": 10, "velocity": 120}, {"time": 50080, "pitch": 40, "duration": 10, "velocity": 100}, {"time": 50080, "pitch": 80, "duration": 10, "velocity": 97}, {"time": 50160, "pitch": 81, "duration": 10, "velocity": 100}, {"time": 50165, "pitch": 40, "duration": 10, "velocity": 105}, {"time": 50402, "pitch": 49, "duration": 10, "velocity": 73}, {"time": 50402, "pitch": 57, "duration": 10, "velocity": 70}, {"time": 50403, "pitch": 36, "duration": 10, "velocity": 116}, {"time": 50882, "pitch": 37, "duration": 10, "velocity": 125}, {"time": 50882, "pitch": 40, "duration": 10, "velocity": 50}, {"time": 50882, "pitch": 54, "duration": 10, "velocity": 115}, {"time": 50895, "pitch": 53, "duration": 10, "velocity": 124}, {"time": 51360, "pitch": 36, "duration": 10, "velocity": 105}, {"time": 51362, "pitch": 53, "duration": 10, "velocity": 127}, {"time": 51362, "pitch": 59, "duration": 10, "velocity": 108}, {"time": 51768, "pitch": 36, "duration": 10, "velocity": 80}, {"time": 51838, "pitch": 54, "duration": 10, "velocity": 115}, {"time": 51838, "pitch": 80, "duration": 10, "velocity": 102}, {"time": 51843, "pitch": 40, "duration": 10, "velocity": 115}, {"time": 51849, "pitch": 53, "duration": 10, "velocity": 120}, {"time": 51999, "pitch": 80, "duration": 10, "velocity": 97}, {"time": 52079, "pitch": 81, "duration": 10, "velocity": 100}, {"time": 52083, "pitch": 53, "duration": 10, "velocity": 101}, {"time": 52234, "pitch": 53, "duration": 10, "velocity": 87}, {"time": 52321, "pitch": 36, "duration": 10, "velocity": 116}, {"time": 52324, "pitch": 53, "duration": 10, "velocity": 127}, {"time": 52324, "pitch": 59, "duration": 10, "velocity": 99}, {"time": 52801, "pitch": 37, "duration": 10, "velocity": 125}, {"time": 52801, "pitch": 40, "duration": 10, "velocity": 50}, {"time": 52801, "pitch": 54, "duration": 10, "velocity": 115}, {"time": 52815, "pitch": 53, "duration": 10, "velocity": 124}, {"time": 53284, "pitch": 36, "duration": 10, "velocity": 105}, {"time": 53287, "pitch": 59, "duration": 10, "velocity": 108}, {"time": 53288, "pitch": 53, "duration": 10, "velocity": 127}, {"time": 53693, "pitch": 36, "duration": 10, "velocity": 80}, {"time": 53763, "pitch": 54, "duration": 10, "velocity": 115}, {"time": 53763, "pitch": 80, "duration": 10, "velocity": 102}, {"time": 53768, "pitch": 40, "duration": 10, "velocity": 115}, {"time": 53775, "pitch": 53, "duration": 9, "velocity": 120}, {"time": 53921, "pitch": 80, "duration": 10, "velocity": 97}, {"time": 54000, "pitch": 81, "duration": 10, "velocity": 100}, {"time": 54005, "pitch": 53, "duration": 10, "velocity": 100}, {"time": 54159, "pitch": 53, "duration": 10, "velocity": 87}, {"time": 54238, "pitch": 36, "duration": 10, "velocity": 116}, {"time": 54243, "pitch": 53, "duration": 10, "velocity": 127}, {"time": 54243, "pitch": 59, "duration": 10, "velocity": 99}, {"time": 54649, "pitch": 36, "duration": 10, "velocity": 80}, {"time": 54649, "pitch": 53, "duration": 10, "velocity": 80}, {"time": 54719, "pitch": 37, "duration": 10, "velocity": 125}, {"time": 54719, "pitch": 40, "duration": 10, "velocity": 50}, {"time": 54719, "pitch": 54, "duration": 10, "velocity": 115}, {"time": 54733, "pitch": 53, "duration": 10, "velocity": 124}, {"time": 55130, "pitch": 53, "duration": 10, "velocity": 75}, {"time": 55202, "pitch": 36, "duration": 10, "velocity": 105}, {"time": 55206, "pitch": 53, "duration": 10, "velocity": 127}, {"time": 55207, "pitch": 59, "duration": 10, "velocity": 108}, {"time": 55681, "pitch": 54, "duration": 10, "velocity": 115}, {"time": 55681, "pitch": 80, "duration": 10, "velocity": 102}, {"time": 55686, "pitch": 40, "duration": 10, "velocity": 80}, {"time": 55693, "pitch": 53, "duration": 10, "velocity": 120}, {"time": 55694, "pitch": 59, "duration": 10, "velocity": 90}, {"time": 55842, "pitch": 80, "duration": 10, "velocity": 97}, {"time": 55922, "pitch": 81, "duration": 10, "velocity": 100}, {"time": 56162, "pitch": 49, "duration": 10, "velocity": 75}, {"time": 56162, "pitch": 81, "duration": 10, "velocity": 105}, {"time": 56164, "pitch": 36, "duration": 10, "velocity": 116}, {"time": 56878, "pitch": 51, "duration": 10, "velocity": 104}, {"time": 57028, "pitch": 51, "duration": 10, "velocity": 102}, {"time": 57359, "pitch": 51, "duration": 10, "velocity": 110}, {"time": 57843, "pitch": 51, "duration": 10, "velocity": 115}, {"time": 58081, "pitch": 53, "duration": 10, "velocity": 98}, {"time": 58081, "pitch": 59, "duration": 10, "velocity": 80}, {"time": 58804, "pitch": 51, "duration": 10, "velocity": 102}, {"time": 58958, "pitch": 51, "duration": 10, "velocity": 102}, {"time": 59283, "pitch": 51, "duration": 10, "velocity": 111}, {"time": 59764, "pitch": 51, "duration": 10, "velocity": 115}, {"time": 59999, "pitch": 53, "duration": 10, "velocity": 98}, {"time": 59999, "pitch": 59, "duration": 10, "velocity": 80}, {"time": 60726, "pitch": 51, "duration": 10, "velocity": 108}, {"time": 60871, "pitch": 51, "duration": 10, "velocity": 100}, {"time": 61207, "pitch": 51, "duration": 10, "velocity": 110}, {"time": 61690, "pitch": 51, "duration": 10, "velocity": 114}, {"time": 61931, "pitch": 51, "duration": 10, "velocity": 114}, {"time": 61931, "pitch": 53, "duration": 10, "velocity": 94}, {"time": 62163, "pitch": 51, "duration": 10, "velocity": 111}, {"time": 62640, "pitch": 51, "duration": 11, "velocity": 108}, {"time": 62640, "pitch": 59, "duration": 11, "velocity": 100}, {"time": 63368, "pitch": 42, "duration": 10, "velocity": 86}, {"time": 63533, "pitch": 42, "duration": 10, "velocity": 74}, {"time": 63602, "pitch": 46, "duration": 10, "velocity": 81}, {"time": 63842, "pitch": 36, "duration": 10, "velocity": 102}, {"time": 63842, "pitch": 42, "duration": 10, "velocity": 96}, {"time": 64083, "pitch": 42, "duration": 10, "velocity": 66}, {"time": 64317, "pitch": 37, "duration": 10, "velocity": 120}, {"time": 64319, "pitch": 42, "duration": 10, "velocity": 106}, {"time": 64563, "pitch": 42, "duration": 10, "velocity": 66}, {"time": 64721, "pitch": 42, "duration": 10, "velocity": 53}, {"time": 64799, "pitch": 36, "duration": 10, "velocity": 100}, {"time": 64799, "pitch": 42, "duration": 10, "velocity": 91}, {"time": 65039, "pitch": 42, "duration": 10, "velocity": 66}, {"time": 65280, "pitch": 37, "duration": 10, "velocity": 120}, {"time": 65280, "pitch": 42, "duration": 10, "velocity": 96}, {"time": 65520, "pitch": 42, "duration": 10, "velocity": 66}, {"time": 65761, "pitch": 36, "duration": 10, "velocity": 100}, {"time": 65761, "pitch": 42, "duration": 10, "velocity": 96}, {"time": 66004, "pitch": 42, "duration": 10, "velocity": 66}, {"time": 66242, "pitch": 37, "duration": 10, "velocity": 120}, {"time": 66244, "pitch": 42, "duration": 10, "velocity": 106}, {"time": 66487, "pitch": 42, "duration": 10, "velocity": 66}, {"time": 66646, "pitch": 42, "duration": 10, "velocity": 53}, {"time": 66723, "pitch": 36, "duration": 10, "velocity": 100}, {"time": 66723, "pitch": 42, "duration": 10, "velocity": 91}, {"time": 66961, "pitch": 42, "duration": 9, "velocity": 66}, {"time": 67129, "pitch": 42, "duration": 10, "velocity": 71}, {"time": 67198, "pitch": 37, "duration": 10, "velocity": 120}, {"time": 67439, "pitch": 42, "duration": 10, "velocity": 66}, {"time": 67679, "pitch": 36, "duration": 10, "velocity": 102}, {"time": 67679, "pitch": 42, "duration": 10, "velocity": 96}, {"time": 67923, "pitch": 42, "duration": 10, "velocity": 66}, {"time": 68160, "pitch": 37, "duration": 10, "velocity": 120}, {"time": 68162, "pitch": 42, "duration": 10, "velocity": 106}, {"time": 68406, "pitch": 42, "duration": 10, "velocity": 66}, {"time": 68564, "pitch": 42, "duration": 10, "velocity": 53}, {"time": 68641, "pitch": 36, "duration": 10, "velocity": 100}, {"time": 68641, "pitch": 42, "duration": 10, "velocity": 91}, {"time": 68882, "pitch": 42, "duration": 10, "velocity": 66}, {"time": 69122, "pitch": 37, "duration": 10, "velocity": 120}, {"time": 69122, "pitch": 42, "duration": 10, "velocity": 96}, {"time": 69360, "pitch": 42, "duration": 10, "velocity": 66}, {"time": 69598, "pitch": 36, "duration": 10, "velocity": 100}, {"time": 69598, "pitch": 42, "duration": 10, "velocity": 96}, {"time": 69841, "pitch": 42, "duration": 10, "velocity": 66}, {"time": 70079, "pitch": 37, "duration": 10, "velocity": 120}, {"time": 70081, "pitch": 42, "duration": 10, "velocity": 106}, {"time": 70324, "pitch": 42, "duration": 10, "velocity": 66}, {"time": 70483, "pitch": 42, "duration": 10, "velocity": 53}, {"time": 70560, "pitch": 36, "duration": 10, "velocity": 100}, {"time": 70560, "pitch": 42, "duration": 10, "velocity": 91}, {"time": 70800, "pitch": 42, "duration": 11, "velocity": 66}, {"time": 70971, "pitch": 42, "duration": 10, "velocity": 76}, {"time": 71041, "pitch": 37, "duration": 10, "velocity": 120}, {"time": 71282, "pitch": 42, "duration": 10, "velocity": 66}, {"time": 71522, "pitch": 36, "duration": 10, "velocity": 102}, {"time": 71522, "pitch": 42, "duration": 10, "velocity": 96}, {"time": 71763, "pitch": 42, "duration": 10, "velocity": 66}, {"time": 71997, "pitch": 37, "duration": 10, "velocity": 120}, {"time": 71999, "pitch": 42, "duration": 10, "velocity": 96}, {"time": 72243, "pitch": 42, "duration": 10, "velocity": 68}, {"time": 72401, "pitch": 42, "duration": 10, "velocity": 53}, {"time": 72478, "pitch": 42, "duration": 10, "velocity": 91}, {"time": 72719, "pitch": 42, "duration": 10, "velocity": 66}, {"time": 72960, "pitch": 37, "duration": 10, "velocity": 120}, {"time": 72960, "pitch": 42, "duration": 10, "velocity": 96}, {"time": 73200, "pitch": 42, "duration": 10, "velocity": 69}, {"time": 73441, "pitch": 36, "duration": 10, "velocity": 102}, {"time": 73441, "pitch": 42, "duration": 10, "velocity": 96}, {"time": 73684, "pitch": 42, "duration": 10, "velocity": 66}, {"time": 73922, "pitch": 37, "duration": 10, "velocity": 120}, {"time": 73924, "pitch": 42, "duration": 10, "velocity": 106}, {"time": 74167, "pitch": 42, "duration": 10, "velocity": 66}, {"time": 74326, "pitch": 42, "duration": 10, "velocity": 61}, {"time": 74403, "pitch": 42, "duration": 10, "velocity": 91}, {"time": 74640, "pitch": 42, "duration": 10, "velocity": 66}, {"time": 74878, "pitch": 37, "duration": 10, "velocity": 120}, {"time": 74878, "pitch": 42, "duration": 10, "velocity": 91}, {"time": 74878, "pitch": 80, "duration": 10, "velocity": 124}, {"time": 75038, "pitch": 80, "duration": 10, "velocity": 118}, {"time": 75119, "pitch": 46, "duration": 10, "velocity": 74}, {"time": 75119, "pitch": 81, "duration": 10, "velocity": 118}, {"time": 75359, "pitch": 36, "duration": 10, "velocity": 102}, {"time": 75359, "pitch": 42, "duration": 10, "velocity": 96}, {"time": 75603, "pitch": 42, "duration": 10, "velocity": 66}, {"time": 75840, "pitch": 37, "duration": 10, "velocity": 120}, {"time": 75842, "pitch": 42, "duration": 10, "velocity": 106}, {"time": 76086, "pitch": 42, "duration": 10, "velocity": 66}, {"time": 76244, "pitch": 42, "duration": 10, "velocity": 53}, {"time": 76321, "pitch": 36, "duration": 10, "velocity": 100}, {"time": 76321, "pitch": 42, "duration": 10, "velocity": 91}, {"time": 76562, "pitch": 42, "duration": 10, "velocity": 66}, {"time": 76802, "pitch": 37, "duration": 10, "velocity": 122}, {"time": 76802, "pitch": 42, "duration": 10, "velocity": 96}, {"time": 77040, "pitch": 42, "duration": 10, "velocity": 66}, {"time": 77278, "pitch": 36, "duration": 10, "velocity": 100}, {"time": 77278, "pitch": 42, "duration": 10, "velocity": 96}, {"time": 77521, "pitch": 42, "duration": 10, "velocity": 66}, {"time": 77759, "pitch": 37, "duration": 10, "velocity": 120}, {"time": 77761, "pitch": 42, "duration": 10, "velocity": 106}, {"time": 78004, "pitch": 42, "duration": 10, "velocity": 68}, {"time": 78163, "pitch": 42, "duration": 10, "velocity": 53}, {"time": 78240, "pitch": 36, "duration": 10, "velocity": 100}, {"time": 78240, "pitch": 42, "duration": 10, "velocity": 91}, {"time": 78480, "pitch": 42, "duration": 10, "velocity": 66}, {"time": 78651, "pitch": 42, "duration": 10, "velocity": 76}, {"time": 78721, "pitch": 37, "duration": 10, "velocity": 122}, {"time": 78961, "pitch": 42, "duration": 11, "velocity": 66}, {"time": 79202, "pitch": 36, "duration": 10, "velocity": 102}, {"time": 79202, "pitch": 42, "duration": 10, "velocity": 96}, {"time": 79443, "pitch": 42, "duration": 10, "velocity": 66}, {"time": 79677, "pitch": 37, "duration": 10, "velocity": 120}, {"time": 79679, "pitch": 42, "duration": 10, "velocity": 106}, {"time": 79923, "pitch": 42, "duration": 10, "velocity": 66}, {"time": 80081, "pitch": 42, "duration": 10, "velocity": 54}, {"time": 80158, "pitch": 36, "duration": 10, "velocity": 100}, {"time": 80158, "pitch": 42, "duration": 10, "velocity": 91}, {"time": 80399, "pitch": 42, "duration": 10, "velocity": 66}, {"time": 80639, "pitch": 37, "duration": 10, "velocity": 122}, {"time": 80639, "pitch": 42, "duration": 10, "velocity": 96}, {"time": 80880, "pitch": 42, "duration": 10, "velocity": 66}, {"time": 81121, "pitch": 36, "duration": 10, "velocity": 100}, {"time": 81121, "pitch": 42, "duration": 10, "velocity": 96}, {"time": 81364, "pitch": 42, "duration": 10, "velocity": 66}, {"time": 81602, "pitch": 37, "duration": 10, "velocity": 120}, {"time": 81604, "pitch": 42, "duration": 10, "velocity": 106}, {"time": 81847, "pitch": 42, "duration": 10, "velocity": 66}, {"time": 82006, "pitch": 42, "duration": 10, "velocity": 53}, {"time": 82083, "pitch": 36, "duration": 10, "velocity": 100}, {"time": 82083, "pitch": 42, "duration": 10, "velocity": 91}, {"time": 82320, "pitch": 42, "duration": 10, "velocity": 66}, {"time": 82489, "pitch": 42, "duration": 10, "velocity": 71}, {"time": 82558, "pitch": 37, "duration": 10, "velocity": 122}, {"time": 82799, "pitch": 42, "duration": 10, "velocity": 66}, {"time": 83039, "pitch": 36, "duration": 10, "velocity": 102}, {"time": 83039, "pitch": 42, "duration": 10, "velocity": 96}, {"time": 83283, "pitch": 42, "duration": 10, "velocity": 66}, {"time": 83520, "pitch": 37, "duration": 10, "velocity": 120}, {"time": 83522, "pitch": 42, "duration": 10, "velocity": 96}, {"time": 83766, "pitch": 42, "duration": 10, "velocity": 74}, {"time": 83931, "pitch": 42, "duration": 10, "velocity": 64}, {"time": 84001, "pitch": 42, "duration": 10, "velocity": 91}, {"time": 84242, "pitch": 42, "duration": 10, "velocity": 66}, {"time": 84482, "pitch": 37, "duration": 10, "velocity": 122}, {"time": 84482, "pitch": 42, "duration": 10, "velocity": 96}, {"time": 84720, "pitch": 42, "duration": 10, "velocity": 66}, {"time": 84958, "pitch": 36, "duration": 10, "velocity": 100}, {"time": 84958, "pitch": 42, "duration": 10, "velocity": 96}, {"time": 85201, "pitch": 42, "duration": 10, "velocity": 66}, {"time": 85439, "pitch": 37, "duration": 10, "velocity": 120}, {"time": 85441, "pitch": 42, "duration": 10, "velocity": 96}, {"time": 85684, "pitch": 42, "duration": 10, "velocity": 76}, {"time": 85843, "pitch": 42, "duration": 10, "velocity": 65}, {"time": 85920, "pitch": 42, "duration": 10, "velocity": 91}, {"time": 86160, "pitch": 36, "duration": 10, "velocity": 100}, {"time": 86160, "pitch": 42, "duration": 10, "velocity": 66}, {"time": 86401, "pitch": 36, "duration": 10, "velocity": 100}, {"time": 86401, "pitch": 40, "duration": 10, "velocity": 100}, {"time": 86561, "pitch": 40, "duration": 10, "velocity": 90}, {"time": 86641, "pitch": 36, "duration": 10, "velocity": 100}, {"time": 86641, "pitch": 40, "duration": 10, "velocity": 85}, {"time": 86882, "pitch": 36, "duration": 10, "velocity": 105}, {"time": 86882, "pitch": 51, "duration": 10, "velocity": 100}, {"time": 86882, "pitch": 59, "duration": 10, "velocity": 115}, {"time": 87123, "pitch": 42, "duration": 9, "velocity": 66}, {"time": 87359, "pitch": 42, "duration": 10, "velocity": 106}, {"time": 87362, "pitch": 40, "duration": 10, "velocity": 115}, {"time": 87603, "pitch": 42, "duration": 10, "velocity": 61}, {"time": 87761, "pitch": 42, "duration": 10, "velocity": 66}, {"time": 87838, "pitch": 36, "duration": 10, "velocity": 100}, {"time": 87838, "pitch": 42, "duration": 10, "velocity": 91}, {"time": 88079, "pitch": 42, "duration": 10, "velocity": 66}, {"time": 88084, "pitch": 36, "duration": 10, "velocity": 90}, {"time": 88319, "pitch": 42, "duration": 10, "velocity": 96}, {"time": 88319, "pitch": 54, "duration": 10, "velocity": 115}, {"time": 88324, "pitch": 40, "duration": 10, "velocity": 115}, {"time": 88560, "pitch": 42, "duration": 10, "velocity": 66}, {"time": 88800, "pitch": 36, "duration": 10, "velocity": 105}, {"time": 88800, "pitch": 42, "duration": 10, "velocity": 96}, {"time": 89044, "pitch": 42, "duration": 10, "velocity": 66}, {"time": 89284, "pitch": 42, "duration": 10, "velocity": 106}, {"time": 89287, "pitch": 40, "duration": 10, "velocity": 115}, {"time": 89527, "pitch": 42, "duration": 10, "velocity": 61}, {"time": 89685, "pitch": 42, "duration": 11, "velocity": 66}, {"time": 89763, "pitch": 36, "duration": 10, "velocity": 100}, {"time": 89763, "pitch": 42, "duration": 10, "velocity": 91}, {"time": 90000, "pitch": 42, "duration": 10, "velocity": 66}, {"time": 90005, "pitch": 36, "duration": 10, "velocity": 90}, {"time": 90169, "pitch": 42, "duration": 10, "velocity": 76}, {"time": 90238, "pitch": 54, "duration": 10, "velocity": 115}, {"time": 90243, "pitch": 40, "duration": 10, "velocity": 115}, {"time": 90478, "pitch": 42, "duration": 10, "velocity": 66}, {"time": 90719, "pitch": 36, "duration": 10, "velocity": 105}, {"time": 90719, "pitch": 42, "duration": 10, "velocity": 96}, {"time": 90963, "pitch": 42, "duration": 10, "velocity": 66}, {"time": 91202, "pitch": 42, "duration": 10, "velocity": 106}, {"time": 91205, "pitch": 40, "duration": 10, "velocity": 115}, {"time": 91446, "pitch": 42, "duration": 10, "velocity": 61}, {"time": 91604, "pitch": 42, "duration": 10, "velocity": 66}, {"time": 91681, "pitch": 36, "duration": 10, "velocity": 100}, {"time": 91681, "pitch": 42, "duration": 10, "velocity": 91}, {"time": 91922, "pitch": 42, "duration": 10, "velocity": 66}, {"time": 91927, "pitch": 36, "duration": 10, "velocity": 90}, {"time": 92162, "pitch": 42, "duration": 10, "velocity": 96}, {"time": 92162, "pitch": 54, "duration": 10, "velocity": 115}, {"time": 92167, "pitch": 40, "duration": 10, "velocity": 115}, {"time": 92400, "pitch": 42, "duration": 10, "velocity": 66}, {"time": 92638, "pitch": 36, "duration": 10, "velocity": 105}, {"time": 92638, "pitch": 42, "duration": 10, "velocity": 96}, {"time": 92881, "pitch": 42, "duration": 10, "velocity": 66}, {"time": 93121, "pitch": 42, "duration": 10, "velocity": 106}, {"time": 93124, "pitch": 40, "duration": 10, "velocity": 115}, {"time": 93364, "pitch": 42, "duration": 10, "velocity": 61}, {"time": 93523, "pitch": 42, "duration": 10, "velocity": 66}, {"time": 93600, "pitch": 36, "duration": 10, "velocity": 100}, {"time": 93600, "pitch": 42, "duration": 10, "velocity": 91}, {"time": 93840, "pitch": 42, "duration": 10, "velocity": 66}, {"time": 93845, "pitch": 36, "duration": 10, "velocity": 90}, {"time": 94011, "pitch": 42, "duration": 10, "velocity": 56}, {"time": 94081, "pitch": 54, "duration": 10, "velocity": 115}, {"time": 94086, "pitch": 40, "duration": 10, "velocity": 115}, {"time": 94321, "pitch": 40, "duration": 10, "velocity": 110}, {"time": 94482, "pitch": 40, "duration": 10, "velocity": 105}, {"time": 94562, "pitch": 36, "duration": 10, "velocity": 105}, {"time": 94802, "pitch": 42, "duration": 10, "velocity": 66}, {"time": 95039, "pitch": 42, "duration": 10, "velocity": 106}, {"time": 95042, "pitch": 40, "duration": 10, "velocity": 115}, {"time": 95283, "pitch": 42, "duration": 10, "velocity": 61}, {"time": 95441, "pitch": 42, "duration": 10, "velocity": 66}, {"time": 95518, "pitch": 36, "duration": 10, "velocity": 100}, {"time": 95518, "pitch": 42, "duration": 10, "velocity": 91}, {"time": 95759, "pitch": 42, "duration": 10, "velocity": 66}, {"time": 95764, "pitch": 36, "duration": 10, "velocity": 90}, {"time": 95999, "pitch": 42, "duration": 10, "velocity": 96}, {"time": 95999, "pitch": 54, "duration": 10, "velocity": 115}, {"time": 96004, "pitch": 40, "duration": 10, "velocity": 115}, {"time": 96240, "pitch": 42, "duration": 10, "velocity": 66}, {"time": 96480, "pitch": 36, "duration": 10, "velocity": 105}, {"time": 96480, "pitch": 42, "duration": 10, "velocity": 96}, {"time": 96724, "pitch": 42, "duration": 10, "velocity": 66}, {"time": 96963, "pitch": 42, "duration": 11, "velocity": 106}, {"time": 96966, "pitch": 40, "duration": 11, "velocity": 115}, {"time": 97207, "pitch": 42, "duration": 10, "velocity": 61}, {"time": 97365, "pitch": 42, "duration": 10, "velocity": 66}, {"time": 97443, "pitch": 36, "duration": 9, "velocity": 100}, {"time": 97443, "pitch": 42, "duration": 9, "velocity": 91}, {"time": 97680, "pitch": 42, "duration": 10, "velocity": 66}, {"time": 97685, "pitch": 36, "duration": 10, "velocity": 90}, {"time": 97849, "pitch": 42, "duration": 9, "velocity": 76}, {"time": 97918, "pitch": 54, "duration": 10, "velocity": 115}, {"time": 97923, "pitch": 40, "duration": 10, "velocity": 115}, {"time": 98158, "pitch": 42, "duration": 10, "velocity": 66}, {"time": 98399, "pitch": 36, "duration": 10, "velocity": 108}, {"time": 98399, "pitch": 53, "duration": 10, "velocity": 116}, {"time": 98399, "pitch": 59, "duration": 10, "velocity": 106}, {"time": 98885, "pitch": 40, "duration": 10, "velocity": 115}, {"time": 98886, "pitch": 53, "duration": 10, "velocity": 111}, {"time": 98886, "pitch": 59, "duration": 10, "velocity": 101}, {"time": 99121, "pitch": 53, "duration": 10, "velocity": 90}, {"time": 99121, "pitch": 59, "duration": 10, "velocity": 80}, {"time": 99361, "pitch": 36, "duration": 10, "velocity": 104}, {"time": 99361, "pitch": 53, "duration": 10, "velocity": 119}, {"time": 99361, "pitch": 59, "duration": 10, "velocity": 109}, {"time": 99602, "pitch": 53, "duration": 10, "velocity": 90}, {"time": 99602, "pitch": 59, "duration": 10, "velocity": 80}, {"time": 99607, "pitch": 36, "duration": 10, "velocity": 90}, {"time": 99842, "pitch": 53, "duration": 10, "velocity": 121}, {"time": 99842, "pitch": 54, "duration": 10, "velocity": 115}, {"time": 99842, "pitch": 59, "duration": 10, "velocity": 111}, {"time": 99847, "pitch": 40, "duration": 10, "velocity": 115}, {"time": 100080, "pitch": 53, "duration": 10, "velocity": 90}, {"time": 100080, "pitch": 59, "duration": 10, "velocity": 80}, {"time": 100248, "pitch": 53, "duration": 10, "velocity": 70}, {"time": 100248, "pitch": 59, "duration": 10, "velocity": 60}, {"time": 100317, "pitch": 36, "duration": 10, "velocity": 105}, {"time": 100322, "pitch": 53, "duration": 10, "velocity": 125}, {"time": 100322, "pitch": 59, "duration": 10, "velocity": 115}, {"time": 100563, "pitch": 40, "duration": 10, "velocity": 105}, {"time": 100804, "pitch": 53, "duration": 10, "velocity": 122}, {"time": 100804, "pitch": 59, "duration": 10, "velocity": 112}, {"time": 100809, "pitch": 48, "duration": 10, "velocity": 85}, {"time": 101199, "pitch": 40, "duration": 10, "velocity": 95}, {"time": 101280, "pitch": 36, "duration": 10, "velocity": 100}, {"time": 101280, "pitch": 53, "duration": 10, "velocity": 127}, {"time": 101280, "pitch": 59, "duration": 10, "velocity": 121}, {"time": 101300, "pitch": 47, "duration": 10, "velocity": 75}, {"time": 101525, "pitch": 36, "duration": 10, "velocity": 90}, {"time": 101525, "pitch": 40, "duration": 10, "velocity": 110}, {"time": 101761, "pitch": 40, "duration": 10, "velocity": 115}, {"time": 101761, "pitch": 54, "duration": 10, "velocity": 115}, {"time": 101761, "pitch": 80, "duration": 10, "velocity": 102}, {"time": 101921, "pitch": 40, "duration": 10, "velocity": 105}, {"time": 101921, "pitch": 80, "duration": 10, "velocity": 97}, {"time": 102001, "pitch": 81, "duration": 10, "velocity": 100}, {"time": 102006, "pitch": 40, "duration": 10, "velocity": 110}, {"time": 102243, "pitch": 49, "duration": 10, "velocity": 75}, {"time": 102243, "pitch": 57, "duration": 10, "velocity": 82}, {"time": 102244, "pitch": 36, "duration": 10, "velocity": 110}, {"time": 102653, "pitch": 53, "duration": 10, "velocity": 80}, {"time": 102723, "pitch": 54, "duration": 10, "velocity": 115}, {"time": 102728, "pitch": 40, "duration": 10, "velocity": 120}, {"time": 102736, "pitch": 53, "duration": 10, "velocity": 124}, {"time": 102963, "pitch": 53, "duration": 10, "velocity": 95}, {"time": 103142, "pitch": 53, "duration": 10, "velocity": 75}, {"time": 103200, "pitch": 36, "duration": 10, "velocity": 100}, {"time": 103203, "pitch": 51, "duration": 10, "velocity": 108}, {"time": 103203, "pitch": 53, "duration": 10, "velocity": 127}, {"time": 103599, "pitch": 36, "duration": 10, "velocity": 90}, {"time": 103609, "pitch": 53, "duration": 10, "velocity": 80}, {"time": 103679, "pitch": 54, "duration": 10, "velocity": 115}, {"time": 103679, "pitch": 80, "duration": 10, "velocity": 102}, {"time": 103689, "pitch": 40, "duration": 10, "velocity": 120}, {"time": 103690, "pitch": 53, "duration": 10, "velocity": 120}, {"time": 103840, "pitch": 80, "duration": 10, "velocity": 97}, {"time": 103920, "pitch": 81, "duration": 10, "velocity": 100}, {"time": 103924, "pitch": 53, "duration": 10, "velocity": 92}, {"time": 104090, "pitch": 53, "duration": 10, "velocity": 75}, {"time": 104162, "pitch": 36, "duration": 10, "velocity": 110}, {"time": 104165, "pitch": 51, "duration": 10, "velocity": 99}, {"time": 104165, "pitch": 53, "duration": 10, "velocity": 127}, {"time": 104571, "pitch": 53, "duration": 10, "velocity": 80}, {"time": 104641, "pitch": 54, "duration": 10, "velocity": 115}, {"time": 104646, "pitch": 40, "duration": 10, "velocity": 120}, {"time": 104655, "pitch": 53, "duration": 10, "velocity": 124}, {"time": 104886, "pitch": 53, "duration": 10, "velocity": 95}, {"time": 105052, "pitch": 53, "duration": 10, "velocity": 75}, {"time": 105124, "pitch": 36, "duration": 10, "velocity": 102}, {"time": 105127, "pitch": 51, "duration": 10, "velocity": 108}, {"time": 105128, "pitch": 53, "duration": 10, "velocity": 127}, {"time": 105365, "pitch": 36, "duration": 10, "velocity": 80}, {"time": 105519, "pitch": 36, "duration": 9, "velocity": 90}, {"time": 105528, "pitch": 53, "duration": 10, "velocity": 80}, {"time": 105598, "pitch": 54, "duration": 10, "velocity": 115}, {"time": 105598, "pitch": 80, "duration": 10, "velocity": 102}, {"time": 105603, "pitch": 40, "duration": 10, "velocity": 120}, {"time": 105610, "pitch": 53, "duration": 10, "velocity": 120}, {"time": 105758, "pitch": 80, "duration": 10, "velocity": 97}, {"time": 105838, "pitch": 81, "duration": 10, "velocity": 100}, {"time": 105843, "pitch": 53, "duration": 10, "velocity": 92}, {"time": 106009, "pitch": 53, "duration": 10, "velocity": 75}, {"time": 106081, "pitch": 36, "duration": 10, "velocity": 110}, {"time": 106082, "pitch": 53, "duration": 10, "velocity": 127}, {"time": 106085, "pitch": 51, "duration": 10, "velocity": 99}, {"time": 106490, "pitch": 53, "duration": 10, "velocity": 80}, {"time": 106560, "pitch": 54, "duration": 10, "velocity": 115}, {"time": 106565, "pitch": 40, "duration": 10, "velocity": 120}, {"time": 106572, "pitch": 53, "duration": 10, "velocity": 124}, {"time": 106802, "pitch": 53, "duration": 10, "velocity": 95}, {"time": 106971, "pitch": 53, "duration": 10, "velocity": 75}, {"time": 107044, "pitch": 36, "duration": 10, "velocity": 100}, {"time": 107045, "pitch": 53, "duration": 10, "velocity": 127}, {"time": 107048, "pitch": 51, "duration": 10, "velocity": 108}, {"time": 107443, "pitch": 36, "duration": 10, "velocity": 90}, {"time": 107452, "pitch": 53, "duration": 10, "velocity": 80}, {"time": 107522, "pitch": 54, "duration": 10, "velocity": 115}, {"time": 107522, "pitch": 80, "duration": 10, "velocity": 102}, {"time": 107527, "pitch": 40, "duration": 10, "velocity": 120}, {"time": 107532, "pitch": 53, "duration": 10, "velocity": 120}, {"time": 107681, "pitch": 80, "duration": 9, "velocity": 97}, {"time": 107760, "pitch": 81, "duration": 10, "velocity": 100}, {"time": 107763, "pitch": 53, "duration": 10, "velocity": 92}, {"time": 107928, "pitch": 53, "duration": 10, "velocity": 75}, {"time": 107999, "pitch": 36, "duration": 10, "velocity": 110}, {"time": 108001, "pitch": 53, "duration": 10, "velocity": 127}, {"time": 108004, "pitch": 51, "duration": 10, "velocity": 99}, {"time": 108408, "pitch": 53, "duration": 10, "velocity": 80}, {"time": 108478, "pitch": 54, "duration": 10, "velocity": 115}, {"time": 108488, "pitch": 40, "duration": 10, "velocity": 120}, {"time": 108491, "pitch": 53, "duration": 10, "velocity": 124}, {"time": 108722, "pitch": 53, "duration": 10, "velocity": 95}, {"time": 108889, "pitch": 53, "duration": 10, "velocity": 75}, {"time": 108963, "pitch": 36, "duration": 10, "velocity": 100}, {"time": 108965, "pitch": 53, "duration": 10, "velocity": 126}, {"time": 108967, "pitch": 51, "duration": 10, "velocity": 108}, {"time": 109200, "pitch": 81, "duration": 10, "velocity": 98}, {"time": 109205, "pitch": 36, "duration": 10, "velocity": 90}, {"time": 109370, "pitch": 53, "duration": 10, "velocity": 80}, {"time": 109441, "pitch": 36, "duration": 10, "velocity": 107}, {"time": 109441, "pitch": 40, "duration": 10, "velocity": 115}, {"time": 109441, "pitch": 54, "duration": 10, "velocity": 115}, {"time": 109441, "pitch": 80, "duration": 10, "velocity": 102}, {"time": 109452, "pitch": 53, "duration": 10, "velocity": 120}, {"time": 109601, "pitch": 40, "duration": 10, "velocity": 110}, {"time": 109601, "pitch": 80, "duration": 10, "velocity": 97}, {"time": 109681, "pitch": 81, "duration": 10, "velocity": 100}, {"time": 109685, "pitch": 53, "duration": 10, "velocity": 92}, {"time": 109686, "pitch": 40, "duration": 10, "velocity": 105}, {"time": 109923, "pitch": 49, "duration": 10, "velocity": 80}, {"time": 109924, "pitch": 36, "duration": 10, "velocity": 116}, {"time": 109926, "pitch": 51, "duration": 10, "velocity": 99}, {"time": 110333, "pitch": 53, "duration": 10, "velocity": 80}, {"time": 110403, "pitch": 54, "duration": 10, "velocity": 115}, {"time": 110408, "pitch": 40, "duration": 10, "velocity": 120}, {"time": 110416, "pitch": 53, "duration": 10, "velocity": 124}, {"time": 110643, "pitch": 53, "duration": 10, "velocity": 95}, {"time": 110822, "pitch": 53, "duration": 10, "velocity": 75}, {"time": 110881, "pitch": 36, "duration": 10, "velocity": 100}, {"time": 110883, "pitch": 51, "duration": 10, "velocity": 108}, {"time": 110883, "pitch": 53, "duration": 10, "velocity": 127}, {"time": 111289, "pitch": 36, "duration": 10, "velocity": 80}, {"time": 111289, "pitch": 53, "duration": 10, "velocity": 80}, {"time": 111359, "pitch": 40, "duration": 10, "velocity": 120}, {"time": 111359, "pitch": 54, "duration": 10, "velocity": 115}, {"time": 111359, "pitch": 80, "duration": 10, "velocity": 102}, {"time": 111370, "pitch": 53, "duration": 10, "velocity": 120}, {"time": 111519, "pitch": 80, "duration": 11, "velocity": 97}, {"time": 111600, "pitch": 81, "duration": 10, "velocity": 100}, {"time": 111604, "pitch": 53, "duration": 10, "velocity": 92}, {"time": 111770, "pitch": 53, "duration": 10, "velocity": 75}, {"time": 111842, "pitch": 36, "duration": 10, "velocity": 116}, {"time": 111845, "pitch": 51, "duration": 10, "velocity": 99}, {"time": 111845, "pitch": 53, "duration": 10, "velocity": 127}, {"time": 112251, "pitch": 53, "duration": 10, "velocity": 80}, {"time": 112321, "pitch": 54, "duration": 10, "velocity": 115}, {"time": 112326, "pitch": 40, "duration": 10, "velocity": 120}, {"time": 112335, "pitch": 53, "duration": 10, "velocity": 124}, {"time": 112566, "pitch": 53, "duration": 10, "velocity": 95}, {"time": 112732, "pitch": 53, "duration": 10, "velocity": 75}, {"time": 112804, "pitch": 36, "duration": 10, "velocity": 100}, {"time": 112807, "pitch": 51, "duration": 10, "velocity": 108}, {"time": 112808, "pitch": 53, "duration": 10, "velocity": 127}, {"time": 113208, "pitch": 36, "duration": 10, "velocity": 80}, {"time": 113208, "pitch": 53, "duration": 10, "velocity": 80}, {"time": 113278, "pitch": 40, "duration": 10, "velocity": 120}, {"time": 113278, "pitch": 54, "duration": 10, "velocity": 115}, {"time": 113278, "pitch": 80, "duration": 10, "velocity": 102}, {"time": 113290, "pitch": 53, "duration": 10, "velocity": 120}, {"time": 113438, "pitch": 80, "duration": 10, "velocity": 97}, {"time": 113518, "pitch": 81, "duration": 10, "velocity": 100}, {"time": 113523, "pitch": 53, "duration": 10, "velocity": 92}, {"time": 113689, "pitch": 53, "duration": 10, "velocity": 75}, {"time": 113761, "pitch": 36, "duration": 10, "velocity": 116}, {"time": 113764, "pitch": 51, "duration": 10, "velocity": 99}, {"time": 113764, "pitch": 53, "duration": 10, "velocity": 127}, {"time": 114170, "pitch": 36, "duration": 10, "velocity": 80}, {"time": 114170, "pitch": 53, "duration": 10, "velocity": 80}, {"time": 114240, "pitch": 40, "duration": 10, "velocity": 120}, {"time": 114240, "pitch": 54, "duration": 10, "velocity": 115}, {"time": 114254, "pitch": 53, "duration": 10, "velocity": 124}, {"time": 114651, "pitch": 53, "duration": 10, "velocity": 75}, {"time": 114723, "pitch": 36, "duration": 10, "velocity": 100}, {"time": 114727, "pitch": 53, "duration": 10, "velocity": 127}, {"time": 114728, "pitch": 51, "duration": 10, "velocity": 108}, {"time": 115202, "pitch": 40, "duration": 10, "velocity": 120}, {"time": 115202, "pitch": 54, "duration": 10, "velocity": 115}, {"time": 115202, "pitch": 80, "duration": 10, "velocity": 102}, {"time": 115214, "pitch": 53, "duration": 10, "velocity": 120}, {"time": 115215, "pitch": 51, "duration": 10, "velocity": 90}, {"time": 115360, "pitch": 80, "duration": 10, "velocity": 97}, {"time": 115440, "pitch": 81, "duration": 10, "velocity": 100}, {"time": 115677, "pitch": 49, "duration": 10, "velocity": 80}, {"time": 115677, "pitch": 81, "duration": 10, "velocity": 105}, {"time": 115679, "pitch": 36, "duration": 10, "velocity": 116}, {"time": 115682, "pitch": 53, "duration": 10, "velocity": 120}, {"time": 116158, "pitch": 40, "duration": 10, "velocity": 115}, {"time": 116160, "pitch": 42, "duration": 10, "velocity": 106}, {"time": 116404, "pitch": 42, "duration": 10, "velocity": 61}, {"time": 116639, "pitch": 36, "duration": 10, "velocity": 110}, {"time": 116639, "pitch": 42, "duration": 10, "velocity": 91}, {"time": 116880, "pitch": 48, "duration": 10, "velocity": 85}, {"time": 117124, "pitch": 48, "duration": 10, "velocity": 80}, {"time": 117366, "pitch": 47, "duration": 10, "velocity": 75}, {"time": 117602, "pitch": 36, "duration": 10, "velocity": 116}, {"time": 117602, "pitch": 51, "duration": 10, "velocity": 110}, {"time": 117845, "pitch": 42, "duration": 10, "velocity": 66}, {"time": 118085, "pitch": 42, "duration": 10, "velocity": 96}, {"time": 118093, "pitch": 36, "duration": 9, "velocity": 115}, {"time": 118325, "pitch": 42, "duration": 10, "velocity": 78}, {"time": 118479, "pitch": 42, "duration": 10, "velocity": 66}, {"time": 118558, "pitch": 36, "duration": 10, "velocity": 116}, {"time": 118558, "pitch": 42, "duration": 10, "velocity": 91}, {"time": 118798, "pitch": 42, "duration": 11, "velocity": 66}, {"time": 119039, "pitch": 40, "duration": 10, "velocity": 120}, {"time": 119039, "pitch": 42, "duration": 10, "velocity": 96}, {"time": 119049, "pitch": 36, "duration": 10, "velocity": 115}, {"time": 119199, "pitch": 42, "duration": 10, "velocity": 66}, {"time": 119280, "pitch": 36, "duration": 10, "velocity": 103}, {"time": 119280, "pitch": 46, "duration": 10, "velocity": 76}, {"time": 119520, "pitch": 36, "duration": 10, "velocity": 116}, {"time": 119520, "pitch": 42, "duration": 10, "velocity": 96}, {"time": 119764, "pitch": 42, "duration": 10, "velocity": 66}, {"time": 120003, "pitch": 42, "duration": 10, "velocity": 96}, {"time": 120011, "pitch": 36, "duration": 10, "velocity": 115}, {"time": 120247, "pitch": 42, "duration": 10, "velocity": 78}, {"time": 120402, "pitch": 42, "duration": 10, "velocity": 66}, {"time": 120482, "pitch": 36, "duration": 10, "velocity": 116}, {"time": 120482, "pitch": 42, "duration": 10, "velocity": 91}, {"time": 120720, "pitch": 42, "duration": 10, "velocity": 66}, {"time": 120958, "pitch": 40, "duration": 10, "velocity": 120}, {"time": 120958, "pitch": 42, "duration": 10, "velocity": 96}, {"time": 120968, "pitch": 36, "duration": 10, "velocity": 115}, {"time": 121118, "pitch": 42, "duration": 10, "velocity": 66}, {"time": 121198, "pitch": 36, "duration": 10, "velocity": 103}, {"time": 121198, "pitch": 46, "duration": 10, "velocity": 76}, {"time": 121439, "pitch": 36, "duration": 10, "velocity": 110}, {"time": 121439, "pitch": 42, "duration": 10, "velocity": 96}, {"time": 121679, "pitch": 36, "duration": 10, "velocity": 100}, {"time": 121682, "pitch": 42, "duration": 10, "velocity": 66}, {"time": 121920, "pitch": 40, "duration": 10, "velocity": 120}, {"time": 121922, "pitch": 42, "duration": 10, "velocity": 96}, {"time": 122165, "pitch": 42, "duration": 10, "velocity": 78}, {"time": 122321, "pitch": 42, "duration": 10, "velocity": 66}, {"time": 122401, "pitch": 36, "duration": 10, "velocity": 110}, {"time": 122401, "pitch": 42, "duration": 10, "velocity": 86}, {"time": 122641, "pitch": 36, "duration": 10, "velocity": 100}, {"time": 122645, "pitch": 48, "duration": 10, "velocity": 80}, {"time": 122882, "pitch": 47, "duration": 10, "velocity": 85}, {"time": 123045, "pitch": 47, "duration": 10, "velocity": 75}, {"time": 123120, "pitch": 36, "duration": 9, "velocity": 105}, {"time": 123125, "pitch": 45, "duration": 9, "velocity": 70}, {"time": 123357, "pitch": 36, "duration": 10, "velocity": 110}, {"time": 123357, "pitch": 51, "duration": 10, "velocity": 112}, {"time": 123598, "pitch": 36, "duration": 10, "velocity": 105}, {"time": 123838, "pitch": 40, "duration": 10, "velocity": 120}, {"time": 123840, "pitch": 51, "duration": 10, "velocity": 116}, {"time": 124085, "pitch": 51, "duration": 10, "velocity": 60}, {"time": 124319, "pitch": 36, "duration": 10, "velocity": 110}, {"time": 124319, "pitch": 51, "duration": 10, "velocity": 122}, {"time": 124560, "pitch": 36, "duration": 10, "velocity": 105}, {"time": 124565, "pitch": 51, "duration": 10, "velocity": 65}, {"time": 124800, "pitch": 40, "duration": 10, "velocity": 120}, {"time": 124800, "pitch": 51, "duration": 10, "velocity": 127}, {"time": 125041, "pitch": 51, "duration": 10, "velocity": 80}, {"time": 125282, "pitch": 36, "duration": 10, "velocity": 110}, {"time": 125282, "pitch": 51, "duration": 10, "velocity": 127}, {"time": 125522, "pitch": 36, "duration": 10, "velocity": 100}, {"time": 125763, "pitch": 40, "duration": 9, "velocity": 120}, {"time": 125763, "pitch": 51, "duration": 9, "velocity": 124}, {"time": 126000, "pitch": 36, "duration": 10, "velocity": 105}, {"time": 126000, "pitch": 49, "duration": 10, "velocity": 79}, {"time": 126000, "pitch": 57, "duration": 10, "velocity": 75}, {"time": 126298, "pitch": 57, "duration": 10, "velocity": 18}, {"time": 126328, "pitch": 49, "duration": 10, "velocity": 20}, {"time": 126358, "pitch": 57, "duration": 10, "velocity": 22}, {"time": 126388, "pitch": 49, "duration": 10, "velocity": 23}, {"time": 126418, "pitch": 57, "duration": 10, "velocity": 25}, {"time": 126448, "pitch": 49, "duration": 10, "velocity": 27}, {"time": 126478, "pitch": 57, "duration": 10, "velocity": 29}, {"time": 126508, "pitch": 49, "duration": 11, "velocity": 30}, {"time": 126539, "pitch": 57, "duration": 10, "velocity": 32}, {"time": 126569, "pitch": 49, "duration": 10, "velocity": 34}, {"time": 126599, "pitch": 57, "duration": 10, "velocity": 36}, {"time": 126629, "pitch": 49, "duration": 10, "velocity": 38}, {"time": 126659, "pitch": 57, "duration": 10, "velocity": 39}, {"time": 126689, "pitch": 49, "duration": 10, "velocity": 41}, {"time": 126719, "pitch": 57, "duration": 10, "velocity": 43}, {"time": 126749, "pitch": 49, "duration": 10, "velocity": 45}, {"time": 126779, "pitch": 57, "duration": 10, "velocity": 46}, {"time": 126809, "pitch": 49, "duration": 10, "velocity": 48}, {"time": 126839, "pitch": 57, "duration": 10, "velocity": 50}, {"time": 126869, "pitch": 49, "duration": 10, "velocity": 52}, {"time": 126899, "pitch": 57, "duration": 10, "velocity": 54}, {"time": 126929, "pitch": 49, "duration": 10, "velocity": 55}, {"time": 126960, "pitch": 57, "duration": 10, "velocity": 57}, {"time": 126990, "pitch": 49, "duration": 10, "velocity": 59}, {"time": 127020, "pitch": 57, "duration": 10, "velocity": 61}, {"time": 127050, "pitch": 49, "duration": 10, "velocity": 63}, {"time": 127080, "pitch": 57, "duration": 10, "velocity": 64}, {"time": 127110, "pitch": 49, "duration": 10, "velocity": 67}, {"time": 127140, "pitch": 57, "duration": 10, "velocity": 66}, {"time": 127170, "pitch": 49, "duration": 10, "velocity": 66}, {"time": 127200, "pitch": 57, "duration": 10, "velocity": 65}, {"time": 127204, "pitch": 36, "duration": 10, "velocity": 116}, {"time": 127230, "pitch": 49, "duration": 10, "velocity": 64}, {"time": 127260, "pitch": 57, "duration": 10, "velocity": 63}, {"time": 127290, "pitch": 49, "duration": 10, "velocity": 64}, {"time": 127320, "pitch": 57, "duration": 10, "velocity": 61}, {"time": 127350, "pitch": 49, "duration": 10, "velocity": 59}, {"time": 127380, "pitch": 57, "duration": 10, "velocity": 56}, {"time": 127411, "pitch": 49, "duration": 10, "velocity": 53}, {"time": 127441, "pitch": 57, "duration": 10, "velocity": 51}, {"time": 127471, "pitch": 49, "duration": 10, "velocity": 48}, {"time": 127501, "pitch": 57, "duration": 10, "velocity": 46}, {"time": 127531, "pitch": 49, "duration": 10, "velocity": 43}, {"time": 127561, "pitch": 57, "duration": 10, "velocity": 40}, {"time": 127591, "pitch": 49, "duration": 10, "velocity": 38}, {"time": 127621, "pitch": 57, "duration": 10, "velocity": 35}, {"time": 127651, "pitch": 49, "duration": 10, "velocity": 33}, {"time": 127681, "pitch": 40, "duration": 10, "velocity": 115}, {"time": 127681, "pitch": 57, "duration": 10, "velocity": 30}, {"time": 127711, "pitch": 49, "duration": 10, "velocity": 27}, {"time": 127741, "pitch": 57, "duration": 10, "velocity": 25}, {"time": 127771, "pitch": 49, "duration": 10, "velocity": 22}, {"time": 127801, "pitch": 57, "duration": 10, "velocity": 19}, {"time": 127831, "pitch": 49, "duration": 11, "velocity": 17}, {"time": 127862, "pitch": 57, "duration": 10, "velocity": 14}, {"time": 127892, "pitch": 49, "duration": 10, "velocity": 12}, {"time": 127922, "pitch": 57, "duration": 10, "velocity": 9}, {"time": 127927, "pitch": 42, "duration": 10, "velocity": 66}, {"time": 127952, "pitch": 49, "duration": 10, "velocity": 6}, {"time": 128162, "pitch": 42, "duration": 10, "velocity": 89}, {"time": 128166, "pitch": 36, "duration": 10, "velocity": 114}, {"time": 128405, "pitch": 42, "duration": 10, "velocity": 66}, {"time": 128638, "pitch": 40, "duration": 9, "velocity": 115}, {"time": 128639, "pitch": 42, "duration": 11, "velocity": 96}, {"time": 128883, "pitch": 42, "duration": 10, "velocity": 61}, {"time": 129119, "pitch": 42, "duration": 10, "velocity": 91}, {"time": 129123, "pitch": 36, "duration": 10, "velocity": 116}, {"time": 129362, "pitch": 42, "duration": 10, "velocity": 66}, {"time": 129600, "pitch": 40, "duration": 10, "velocity": 115}, {"time": 129602, "pitch": 42, "duration": 10, "velocity": 96}, {"time": 129840, "pitch": 36, "duration": 10, "velocity": 110}, {"time": 129845, "pitch": 42, "duration": 10, "velocity": 66}, {"time": 130081, "pitch": 42, "duration": 10, "velocity": 88}, {"time": 130326, "pitch": 42, "duration": 10, "velocity": 66}, {"time": 130562, "pitch": 40, "duration": 10, "velocity": 115}, {"time": 130564, "pitch": 42, "duration": 10, "velocity": 96}, {"time": 130804, "pitch": 42, "duration": 10, "velocity": 61}, {"time": 131037, "pitch": 42, "duration": 10, "velocity": 91}, {"time": 131042, "pitch": 36, "duration": 10, "velocity": 116}, {"time": 131281, "pitch": 42, "duration": 10, "velocity": 66}, {"time": 131518, "pitch": 40, "duration": 10, "velocity": 115}, {"time": 131520, "pitch": 42, "duration": 10, "velocity": 96}, {"time": 131760, "pitch": 36, "duration": 10, "velocity": 108}, {"time": 131764, "pitch": 42, "duration": 10, "velocity": 66}, {"time": 131999, "pitch": 42, "duration": 10, "velocity": 88}, {"time": 132245, "pitch": 42, "duration": 10, "velocity": 66}, {"time": 132480, "pitch": 40, "duration": 10, "velocity": 115}, {"time": 132482, "pitch": 42, "duration": 10, "velocity": 96}, {"time": 132726, "pitch": 42, "duration": 10, "velocity": 61}, {"time": 132961, "pitch": 36, "duration": 10, "velocity": 105}, {"time": 132961, "pitch": 40, "duration": 10, "velocity": 90}, {"time": 132961, "pitch": 51, "duration": 10, "velocity": 116}, {"time": 133202, "pitch": 36, "duration": 10, "velocity": 90}, {"time": 133443, "pitch": 36, "duration": 9, "velocity": 100}, {"time": 133447, "pitch": 40, "duration": 10, "velocity": 110}, {"time": 133449, "pitch": 51, "duration": 10, "velocity": 111}, {"time": 133680, "pitch": 36, "duration": 10, "velocity": 90}, {"time": 133680, "pitch": 51, "duration": 10, "velocity": 90}, {"time": 133918, "pitch": 36, "duration": 10, "velocity": 100}, {"time": 133918, "pitch": 51, "duration": 10, "velocity": 119}, {"time": 133923, "pitch": 40, "duration": 10, "velocity": 115}, {"time": 134158, "pitch": 51, "duration": 10, "velocity": 90}, {"time": 134163, "pitch": 36, "duration": 10, "velocity": 90}, {"time": 134399, "pitch": 36, "duration": 10, "velocity": 100}, {"time": 134399, "pitch": 51, "duration": 10, "velocity": 116}, {"time": 134404, "pitch": 40, "duration": 10, "velocity": 115}, {"time": 134639, "pitch": 36, "duration": 10, "velocity": 90}, {"time": 134639, "pitch": 51, "duration": 10, "velocity": 90}, {"time": 134810, "pitch": 51, "duration": 10, "velocity": 80}, {"time": 134880, "pitch": 36, "duration": 10, "velocity": 105}, {"time": 134880, "pitch": 40, "duration": 10, "velocity": 115}, {"time": 134885, "pitch": 49, "duration": 10, "velocity": 55}, {"time": 134885, "pitch": 57, "duration": 10, "velocity": 45}, {"time": 135121, "pitch": 36, "duration": 10, "velocity": 90}, {"time": 135121, "pitch": 48, "duration": 10, "velocity": 85}, {"time": 135361, "pitch": 36, "duration": 10, "velocity": 100}, {"time": 135366, "pitch": 40, "duration": 10, "velocity": 120}, {"time": 135366, "pitch": 51, "duration": 10, "velocity": 110}, {"time": 135521, "pitch": 47, "duration": 10, "velocity": 85}, {"time": 135602, "pitch": 36, "duration": 10, "velocity": 90}, {"time": 135842, "pitch": 36, "duration": 10, "velocity": 100}, {"time": 135842, "pitch": 45, "duration": 10, "velocity": 85}, {"time": 135842, "pitch": 49, "duration": 10, "velocity": 65}, {"time": 135847, "pitch": 40, "duration": 10, "velocity": 115}, {"time": 136085, "pitch": 36, "duration": 10, "velocity": 90}, {"time": 136085, "pitch": 40, "duration": 10, "velocity": 110}, {"time": 136317, "pitch": 80, "duration": 10, "velocity": 102}, {"time": 136322, "pitch": 40, "duration": 10, "velocity": 115}, {"time": 136478, "pitch": 40, "duration": 10, "velocity": 110}, {"time": 136478, "pitch": 80, "duration": 10, "velocity": 97}, {"time": 136558, "pitch": 81, "duration": 10, "velocity": 100}, {"time": 136563, "pitch": 40, "duration": 10, "velocity": 105}, {"time": 136799, "pitch": 49, "duration": 11, "velocity": 63}, {"time": 136799, "pitch": 57, "duration": 11, "velocity": 61}, {"time": 136800, "pitch": 36, "duration": 11, "velocity": 115}, {"time": 137209, "pitch": 53, "duration": 10, "velocity": 86}, {"time": 137280, "pitch": 54, "duration": 10, "velocity": 115}, {"time": 137285, "pitch": 40, "duration": 10, "velocity": 120}, {"time": 137293, "pitch": 53, "duration": 10, "velocity": 127}, {"time": 137523, "pitch": 53, "duration": 10, "velocity": 101}, {"time": 137704, "pitch": 53, "duration": 10, "velocity": 81}, {"time": 137763, "pitch": 36, "duration": 10, "velocity": 105}, {"time": 137766, "pitch": 51, "duration": 10, "velocity": 108}, {"time": 137766, "pitch": 53, "duration": 10, "velocity": 127}, {"time": 138162, "pitch": 36, "duration": 10, "velocity": 90}, {"time": 138172, "pitch": 53, "duration": 10, "velocity": 86}, {"time": 138242, "pitch": 54, "duration": 10, "velocity": 115}, {"time": 138242, "pitch": 80, "duration": 10, "velocity": 102}, {"time": 138252, "pitch": 40, "duration": 10, "velocity": 120}, {"time": 138253, "pitch": 53, "duration": 10, "velocity": 126}, {"time": 138402, "pitch": 80, "duration": 10, "velocity": 97}, {"time": 138482, "pitch": 81, "duration": 10, "velocity": 100}, {"time": 138486, "pitch": 53, "duration": 10, "velocity": 98}, {"time": 138653, "pitch": 53, "duration": 10, "velocity": 81}, {"time": 138725, "pitch": 36, "duration": 10, "velocity": 115}, {"time": 138728, "pitch": 51, "duration": 10, "velocity": 99}, {"time": 138728, "pitch": 53, "duration": 10, "velocity": 127}, {"time": 139129, "pitch": 53, "duration": 10, "velocity": 86}, {"time": 139198, "pitch": 54, "duration": 10, "velocity": 115}, {"time": 139203, "pitch": 40, "duration": 10, "velocity": 120}, {"time": 139212, "pitch": 53, "duration": 10, "velocity": 127}, {"time": 139443, "pitch": 53, "duration": 10, "velocity": 101}, {"time": 139609, "pitch": 53, "duration": 10, "velocity": 81}, {"time": 139681, "pitch": 36, "duration": 10, "velocity": 105}, {"time": 139684, "pitch": 51, "duration": 10, "velocity": 108}, {"time": 139685, "pitch": 53, "duration": 10, "velocity": 127}, {"time": 139925, "pitch": 36, "duration": 10, "velocity": 80}, {"time": 140080, "pitch": 36, "duration": 10, "velocity": 90}, {"time": 140090, "pitch": 53, "duration": 10, "velocity": 86}, {"time": 140160, "pitch": 54, "duration": 10, "velocity": 115}, {"time": 140160, "pitch": 80, "duration": 10, "velocity": 102}, {"time": 140165, "pitch": 40, "duration": 10, "velocity": 120}, {"time": 140172, "pitch": 53, "duration": 10, "velocity": 126}, {"time": 140321, "pitch": 80, "duration": 10, "velocity": 97}, {"time": 140401, "pitch": 81, "duration": 10, "velocity": 100}, {"time": 140406, "pitch": 53, "duration": 10, "velocity": 98}, {"time": 140571, "pitch": 53, "duration": 10, "velocity": 81}, {"time": 140643, "pitch": 36, "duration": 10, "velocity": 115}, {"time": 140644, "pitch": 53, "duration": 10, "velocity": 127}, {"time": 140647, "pitch": 51, "duration": 10, "velocity": 99}, {"time": 141052, "pitch": 53, "duration": 10, "velocity": 86}, {"time": 141122, "pitch": 54, "duration": 10, "velocity": 115}, {"time": 141127, "pitch": 40, "duration": 10, "velocity": 120}, {"time": 141134, "pitch": 53, "duration": 10, "velocity": 127}, {"time": 141362, "pitch": 53, "duration": 10, "velocity": 101}, {"time": 141528, "pitch": 53, "duration": 10, "velocity": 81}, {"time": 141601, "pitch": 36, "duration": 10, "velocity": 105}, {"time": 141602, "pitch": 53, "duration": 10, "velocity": 127}, {"time": 141605, "pitch": 51, "duration": 10, "velocity": 108}, {"time": 142000, "pitch": 36, "duration": 10, "velocity": 90}, {"time": 142009, "pitch": 53, "duration": 10, "velocity": 86}, {"time": 142079, "pitch": 54, "duration": 10, "velocity": 115}, {"time": 142079, "pitch": 80, "duration": 10, "velocity": 102}, {"time": 142089, "pitch": 40, "duration": 10, "velocity": 120}, {"time": 142089, "pitch": 53, "duration": 10, "velocity": 126}, {"time": 142239, "pitch": 80, "duration": 10, "velocity": 97}, {"time": 142319, "pitch": 81, "duration": 10, "velocity": 100}, {"time": 142322, "pitch": 53, "duration": 10, "velocity": 98}, {"time": 142490, "pitch": 53, "duration": 10, "velocity": 81}, {"time": 142562, "pitch": 36, "duration": 10, "velocity": 115}, {"time": 142564, "pitch": 53, "duration": 10, "velocity": 127}, {"time": 142567, "pitch": 51, "duration": 10, "velocity": 99}, {"time": 142971, "pitch": 53, "duration": 10, "velocity": 86}, {"time": 143041, "pitch": 54, "duration": 10, "velocity": 115}, {"time": 143051, "pitch": 40, "duration": 10, "velocity": 120}, {"time": 143054, "pitch": 53, "duration": 10, "velocity": 127}, {"time": 143285, "pitch": 53, "duration": 10, "velocity": 101}, {"time": 143452, "pitch": 53, "duration": 10, "velocity": 81}, {"time": 143525, "pitch": 36, "duration": 10, "velocity": 105}, {"time": 143527, "pitch": 53, "duration": 10, "velocity": 127}, {"time": 143529, "pitch": 51, "duration": 10, "velocity": 108}, {"time": 143760, "pitch": 81, "duration": 10, "velocity": 98}, {"time": 143765, "pitch": 36, "duration": 10, "velocity": 90}, {"time": 143928, "pitch": 53, "duration": 10, "velocity": 86}, {"time": 143997, "pitch": 36, "duration": 10, "velocity": 107}, {"time": 143997, "pitch": 40, "duration": 10, "velocity": 115}, {"time": 143997, "pitch": 54, "duration": 10, "velocity": 115}, {"time": 143997, "pitch": 80, "duration": 10, "velocity": 102}, {"time": 144008, "pitch": 53, "duration": 10, "velocity": 126}, {"time": 144158, "pitch": 40, "duration": 10, "velocity": 105}, {"time": 144158, "pitch": 80, "duration": 10, "velocity": 97}, {"time": 144238, "pitch": 81, "duration": 10, "velocity": 100}, {"time": 144242, "pitch": 53, "duration": 10, "velocity": 98}, {"time": 144243, "pitch": 40, "duration": 10, "velocity": 110}, {"time": 144479, "pitch": 49, "duration": 10, "velocity": 56}, {"time": 144480, "pitch": 36, "duration": 10, "velocity": 115}, {"time": 144482, "pitch": 57, "duration": 10, "velocity": 53}, {"time": 144889, "pitch": 53, "duration": 10, "velocity": 86}, {"time": 144959, "pitch": 54, "duration": 11, "velocity": 115}, {"time": 144965, "pitch": 40, "duration": 10, "velocity": 120}, {"time": 144973, "pitch": 53, "duration": 10, "velocity": 127}, {"time": 145203, "pitch": 53, "duration": 10, "velocity": 101}, {"time": 145383, "pitch": 53, "duration": 10, "velocity": 81}, {"time": 145443, "pitch": 36, "duration": 10, "velocity": 105}, {"time": 145446, "pitch": 51, "duration": 10, "velocity": 108}, {"time": 145446, "pitch": 53, "duration": 10, "velocity": 127}, {"time": 145841, "pitch": 36, "duration": 11, "velocity": 90}, {"time": 145852, "pitch": 53, "duration": 10, "velocity": 86}, {"time": 145922, "pitch": 40, "duration": 10, "velocity": 120}, {"time": 145922, "pitch": 54, "duration": 10, "velocity": 115}, {"time": 145922, "pitch": 80, "duration": 10, "velocity": 102}, {"time": 145933, "pitch": 53, "duration": 10, "velocity": 126}, {"time": 146082, "pitch": 80, "duration": 10, "velocity": 97}, {"time": 146162, "pitch": 81, "duration": 10, "velocity": 100}, {"time": 146166, "pitch": 53, "duration": 10, "velocity": 98}, {"time": 146333, "pitch": 53, "duration": 10, "velocity": 81}, {"time": 146405, "pitch": 36, "duration": 10, "velocity": 115}, {"time": 146408, "pitch": 51, "duration": 10, "velocity": 99}, {"time": 146408, "pitch": 53, "duration": 10, "velocity": 127}, {"time": 146809, "pitch": 53, "duration": 10, "velocity": 86}, {"time": 146878, "pitch": 54, "duration": 10, "velocity": 115}, {"time": 146883, "pitch": 40, "duration": 10, "velocity": 120}, {"time": 146892, "pitch": 53, "duration": 10, "velocity": 127}, {"time": 147123, "pitch": 53, "duration": 10, "velocity": 101}, {"time": 147289, "pitch": 53, "duration": 10, "velocity": 81}, {"time": 147361, "pitch": 36, "duration": 10, "velocity": 105}, {"time": 147364, "pitch": 51, "duration": 10, "velocity": 108}, {"time": 147365, "pitch": 53, "duration": 10, "velocity": 127}, {"time": 147605, "pitch": 36, "duration": 10, "velocity": 80}, {"time": 147760, "pitch": 36, "duration": 10, "velocity": 90}, {"time": 147770, "pitch": 53, "duration": 10, "velocity": 86}, {"time": 147840, "pitch": 54, "duration": 10, "velocity": 115}, {"time": 147840, "pitch": 80, "duration": 10, "velocity": 102}, {"time": 147845, "pitch": 40, "duration": 10, "velocity": 120}, {"time": 147852, "pitch": 53, "duration": 10, "velocity": 126}, {"time": 148001, "pitch": 80, "duration": 10, "velocity": 97}, {"time": 148081, "pitch": 81, "duration": 10, "velocity": 100}, {"time": 148086, "pitch": 53, "duration": 10, "velocity": 98}, {"time": 148251, "pitch": 53, "duration": 10, "velocity": 81}, {"time": 148323, "pitch": 36, "duration": 10, "velocity": 115}, {"time": 148325, "pitch": 51, "duration": 10, "velocity": 99}, {"time": 148732, "pitch": 53, "duration": 10, "velocity": 86}, {"time": 148802, "pitch": 54, "duration": 10, "velocity": 115}, {"time": 148807, "pitch": 40, "duration": 10, "velocity": 120}, {"time": 148815, "pitch": 53, "duration": 10, "velocity": 127}, {"time": 149043, "pitch": 53, "duration": 10, "velocity": 101}, {"time": 149221, "pitch": 53, "duration": 10, "velocity": 81}, {"time": 149281, "pitch": 36, "duration": 10, "velocity": 105}, {"time": 149283, "pitch": 51, "duration": 10, "velocity": 108}, {"time": 149283, "pitch": 53, "duration": 10, "velocity": 127}, {"time": 149680, "pitch": 36, "duration": 10, "velocity": 90}, {"time": 149689, "pitch": 53, "duration": 10, "velocity": 86}, {"time": 149759, "pitch": 40, "duration": 10, "velocity": 120}, {"time": 149759, "pitch": 54, "duration": 10, "velocity": 115}, {"time": 149759, "pitch": 80, "duration": 10, "velocity": 102}, {"time": 149770, "pitch": 53, "duration": 10, "velocity": 126}, {"time": 149919, "pitch": 80, "duration": 10, "velocity": 97}, {"time": 149999, "pitch": 81, "duration": 10, "velocity": 100}, {"time": 150003, "pitch": 53, "duration": 10, "velocity": 98}, {"time": 150170, "pitch": 53, "duration": 10, "velocity": 81}, {"time": 150242, "pitch": 36, "duration": 10, "velocity": 115}, {"time": 150245, "pitch": 51, "duration": 10, "velocity": 99}, {"time": 150245, "pitch": 53, "duration": 10, "velocity": 127}, {"time": 150651, "pitch": 53, "duration": 10, "velocity": 86}, {"time": 150721, "pitch": 54, "duration": 10, "velocity": 115}, {"time": 150726, "pitch": 40, "duration": 10, "velocity": 120}, {"time": 150735, "pitch": 53, "duration": 10, "velocity": 127}, {"time": 150965, "pitch": 53, "duration": 10, "velocity": 101}, {"time": 151132, "pitch": 53, "duration": 10, "velocity": 81}, {"time": 151205, "pitch": 36, "duration": 10, "velocity": 105}, {"time": 151207, "pitch": 51, "duration": 10, "velocity": 108}, {"time": 151208, "pitch": 53, "duration": 10, "velocity": 127}, {"time": 151440, "pitch": 81, "duration": 10, "velocity": 98}, {"time": 151445, "pitch": 36, "duration": 9, "velocity": 90}, {"time": 151608, "pitch": 53, "duration": 10, "velocity": 86}, {"time": 151677, "pitch": 36, "duration": 10, "velocity": 107}, {"time": 151677, "pitch": 54, "duration": 10, "velocity": 115}, {"time": 151677, "pitch": 80, "duration": 10, "velocity": 102}, {"time": 151682, "pitch": 40, "duration": 10, "velocity": 120}, {"time": 151689, "pitch": 53, "duration": 10, "velocity": 126}, {"time": 151838, "pitch": 80, "duration": 10, "velocity": 97}, {"time": 151918, "pitch": 81, "duration": 10, "velocity": 100}, {"time": 151923, "pitch": 53, "duration": 10, "velocity": 98}, {"time": 152088, "pitch": 53, "duration": 10, "velocity": 81}, {"time": 152160, "pitch": 36, "duration": 10, "velocity": 115}, {"time": 152163, "pitch": 51, "duration": 10, "velocity": 99}, {"time": 152163, "pitch": 53, "duration": 10, "velocity": 127}, {"time": 152569, "pitch": 53, "duration": 10, "velocity": 86}, {"time": 152639, "pitch": 54, "duration": 10, "velocity": 115}, {"time": 152644, "pitch": 40, "duration": 10, "velocity": 120}, {"time": 152653, "pitch": 53, "duration": 10, "velocity": 127}, {"time": 152884, "pitch": 53, "duration": 10, "velocity": 101}, {"time": 153050, "pitch": 53, "duration": 10, "velocity": 81}, {"time": 153123, "pitch": 36, "duration": 10, "velocity": 105}, {"time": 153126, "pitch": 51, "duration": 10, "velocity": 108}, {"time": 153127, "pitch": 53, "duration": 10, "velocity": 127}, {"time": 153521, "pitch": 36, "duration": 10, "velocity": 90}, {"time": 153531, "pitch": 53, "duration": 10, "velocity": 86}, {"time": 153602, "pitch": 40, "duration": 10, "velocity": 120}, {"time": 153602, "pitch": 54, "duration": 10, "velocity": 115}, {"time": 153602, "pitch": 80, "duration": 10, "velocity": 102}, {"time": 153614, "pitch": 53, "duration": 10, "velocity": 126}, {"time": 153762, "pitch": 80, "duration": 10, "velocity": 97}, {"time": 153842, "pitch": 81, "duration": 10, "velocity": 100}, {"time": 153847, "pitch": 53, "duration": 10, "velocity": 98}, {"time": 154013, "pitch": 53, "duration": 10, "velocity": 81}, {"time": 154085, "pitch": 36, "duration": 10, "velocity": 115}, {"time": 154088, "pitch": 51, "duration": 10, "velocity": 99}, {"time": 154088, "pitch": 53, "duration": 10, "velocity": 127}, {"time": 154489, "pitch": 53, "duration": 10, "velocity": 86}, {"time": 154558, "pitch": 54, "duration": 10, "velocity": 115}, {"time": 154563, "pitch": 40, "duration": 10, "velocity": 120}, {"time": 154572, "pitch": 53, "duration": 10, "velocity": 127}, {"time": 154802, "pitch": 53, "duration": 10, "velocity": 101}, {"time": 154969, "pitch": 53, "duration": 10, "velocity": 81}, {"time": 155041, "pitch": 36, "duration": 10, "velocity": 105}, {"time": 155044, "pitch": 51, "duration": 10, "velocity": 108}, {"time": 155045, "pitch": 53, "duration": 10, "velocity": 127}, {"time": 155285, "pitch": 36, "duration": 10, "velocity": 80}, {"time": 155440, "pitch": 36, "duration": 10, "velocity": 90}, {"time": 155450, "pitch": 53, "duration": 10, "velocity": 86}, {"time": 155520, "pitch": 54, "duration": 10, "velocity": 115}, {"time": 155520, "pitch": 80, "duration": 10, "velocity": 102}, {"time": 155525, "pitch": 40, "duration": 10, "velocity": 120}, {"time": 155532, "pitch": 53, "duration": 10, "velocity": 126}, {"time": 155680, "pitch": 80, "duration": 10, "velocity": 97}, {"time": 155761, "pitch": 81, "duration": 10, "velocity": 100}, {"time": 155766, "pitch": 53, "duration": 10, "velocity": 98}, {"time": 155931, "pitch": 53, "duration": 10, "velocity": 81}, {"time": 156003, "pitch": 36, "duration": 10, "velocity": 115}, {"time": 156006, "pitch": 51, "duration": 10, "velocity": 99}, {"time": 156006, "pitch": 53, "duration": 10, "velocity": 127}, {"time": 156412, "pitch": 53, "duration": 10, "velocity": 86}, {"time": 156482, "pitch": 54, "duration": 10, "velocity": 115}, {"time": 156487, "pitch": 40, "duration": 10, "velocity": 115}, {"time": 156496, "pitch": 53, "duration": 10, "velocity": 127}, {"time": 156888, "pitch": 53, "duration": 10, "velocity": 81}, {"time": 156961, "pitch": 36, "duration": 10, "velocity": 105}, {"time": 156964, "pitch": 53, "duration": 10, "velocity": 127}, {"time": 156965, "pitch": 51, "duration": 10, "velocity": 108}, {"time": 157198, "pitch": 81, "duration": 10, "velocity": 98}, {"time": 157439, "pitch": 54, "duration": 10, "velocity": 60}, {"time": 157439, "pitch": 80, "duration": 10, "velocity": 102}, {"time": 157444, "pitch": 40, "duration": 10, "velocity": 75}, {"time": 157451, "pitch": 53, "duration": 10, "velocity": 111}, {"time": 157452, "pitch": 51, "duration": 10, "velocity": 123}, {"time": 157599, "pitch": 80, "duration": 10, "velocity": 97}, {"time": 157679, "pitch": 81, "duration": 10, "velocity": 100}, {"time": 157920, "pitch": 51, "duration": 10, "velocity": 127}, {"time": 157920, "pitch": 81, "duration": 10, "velocity": 98}, {"time": 158165, "pitch": 53, "duration": 10, "velocity": 101}, {"time": 158401, "pitch": 80, "duration": 10, "velocity": 98}, {"time": 158411, "pitch": 53, "duration": 10, "velocity": 93}, {"time": 158641, "pitch": 81, "duration": 10, "velocity": 100}, {"time": 158651, "pitch": 51, "duration": 10, "velocity": 120}, {"time": 159357, "pitch": 53, "duration": 10, "velocity": 100}, {"time": 159397, "pitch": 53, "duration": 10, "velocity": 70}, {"time": 159457, "pitch": 53, "duration": 10, "velocity": 90}, {"time": 159858, "pitch": 51, "duration": 10, "velocity": 80}, {"time": 132961, "pitch": 50, "duration": 189, "velocity": 82}, {"time": 133002, "pitch": 52, "duration": 190, "velocity": 83}, {"time": 133042, "pitch": 54, "duration": 176, "velocity": 85}, {"time": 133082, "pitch": 55, "duration": 176, "velocity": 86}, {"time": 133122, "pitch": 57, "duration": 176, "velocity": 87}, {"time": 133162, "pitch": 48, "duration": 214, "velocity": 90}, {"time": 133202, "pitch": 50, "duration": 176, "velocity": 91}, {"time": 133242, "pitch": 52, "duration": 152, "velocity": 92}, {"time": 133282, "pitch": 54, "duration": 120, "velocity": 94}, {"time": 133322, "pitch": 55, "duration": 121, "velocity": 95}, {"time": 133352, "pitch": 57, "duration": 120, "velocity": 96}, {"time": 133382, "pitch": 59, "duration": 120, "velocity": 95}, {"time": 133412, "pitch": 52, "duration": 244, "velocity": 81}, {"time": 133443, "pitch": 54, "duration": 211, "velocity": 83}, {"time": 133482, "pitch": 55, "duration": 166, "velocity": 85}, {"time": 133512, "pitch": 57, "duration": 172, "velocity": 88}, {"time": 133542, "pitch": 59, "duration": 182, "velocity": 90}, {"time": 133571, "pitch": 60, "duration": 169, "velocity": 92}, {"time": 133601, "pitch": 62, "duration": 158, "velocity": 95}, {"time": 133660, "pitch": 54, "duration": 258, "velocity": 88}, {"time": 133690, "pitch": 55, "duration": 258, "velocity": 91}, {"time": 133720, "pitch": 57, "duration": 258, "velocity": 94}, {"time": 133749, "pitch": 59, "duration": 259, "velocity": 97}, {"time": 133779, "pitch": 60, "duration": 259, "velocity": 100}, {"time": 133809, "pitch": 62, "duration": 259, "velocity": 103}, {"time": 133839, "pitch": 64, "duration": 259, "velocity": 106}, {"time": 133868, "pitch": 66, "duration": 270, "velocity": 107}, {"time": 133918, "pitch": 50, "duration": 701, "velocity": 99}, {"time": 133948, "pitch": 52, "duration": 673, "velocity": 99}, {"time": 133978, "pitch": 54, "duration": 631, "velocity": 99}, {"time": 134008, "pitch": 56, "duration": 573, "velocity": 99}, {"time": 134038, "pitch": 57, "duration": 524, "velocity": 100}, {"time": 134068, "pitch": 59, "duration": 482, "velocity": 100}, {"time": 134098, "pitch": 61, "duration": 425, "velocity": 100}, {"time": 134128, "pitch": 62, "duration": 384, "velocity": 101}, {"time": 134158, "pitch": 64, "duration": 333, "velocity": 101}, {"time": 134188, "pitch": 66, "duration": 273, "velocity": 101}, {"time": 134218, "pitch": 67, "duration": 233, "velocity": 101}, {"time": 134249, "pitch": 69, "duration": 187, "velocity": 102}, {"time": 134279, "pitch": 71, "duration": 128, "velocity": 102}, {"time": 134399, "pitch": 74, "duration": 448, "velocity": 103}, {"time": 134419, "pitch": 73, "duration": 442, "velocity": 100}, {"time": 134439, "pitch": 71, "duration": 417, "velocity": 96}, {"time": 134459, "pitch": 69, "duration": 383, "velocity": 93}, {"time": 134479, "pitch": 67, "duration": 371, "velocity": 96}, {"time": 134499, "pitch": 66, "duration": 351, "velocity": 97}, {"time": 134519, "pitch": 64, "duration": 333, "velocity": 97}, {"time": 134539, "pitch": 62, "duration": 312, "velocity": 98}, {"time": 134559, "pitch": 60, "duration": 291, "velocity": 98}, {"time": 134579, "pitch": 59, "duration": 272, "velocity": 97}, {"time": 134599, "pitch": 57, "duration": 245, "velocity": 97}, {"time": 134619, "pitch": 55, "duration": 231, "velocity": 97}, {"time": 134639, "pitch": 54, "duration": 81, "velocity": 97}, {"time": 134659, "pitch": 52, "duration": 207, "velocity": 98}, {"time": 134680, "pitch": 50, "duration": 187, "velocity": 97}, {"time": 134700, "pitch": 48, "duration": 160, "velocity": 97}, {"time": 134720, "pitch": 47, "duration": 20, "velocity": 97}, {"time": 134740, "pitch": 45, "duration": 20, "velocity": 97}, {"time": 134760, "pitch": 43, "duration": 100, "velocity": 79}, {"time": 134880, "pitch": 51, "duration": 188, "velocity": 88}, {"time": 134920, "pitch": 53, "duration": 154, "velocity": 89}, {"time": 134960, "pitch": 55, "duration": 138, "velocity": 90}, {"time": 135000, "pitch": 56, "duration": 117, "velocity": 91}, {"time": 135040, "pitch": 58, "duration": 116, "velocity": 92}, {"time": 135080, "pitch": 53, "duration": 215, "velocity": 93}, {"time": 135121, "pitch": 55, "duration": 208, "velocity": 94}, {"time": 135161, "pitch": 56, "duration": 164, "velocity": 95}, {"time": 135201, "pitch": 58, "duration": 144, "velocity": 96}, {"time": 135241, "pitch": 60, "duration": 120, "velocity": 97}, {"time": 135271, "pitch": 61, "duration": 120, "velocity": 96}, {"time": 135301, "pitch": 63, "duration": 120, "velocity": 95}, {"time": 135331, "pitch": 55, "duration": 247, "velocity": 97}, {"time": 135361, "pitch": 56, "duration": 215, "velocity": 96}, {"time": 135401, "pitch": 58, "duration": 201, "velocity": 94}, {"time": 135431, "pitch": 60, "duration": 175, "velocity": 92}, {"time": 135461, "pitch": 61, "duration": 185, "velocity": 93}, {"time": 135491, "pitch": 63, "duration": 199, "velocity": 94}, {"time": 135521, "pitch": 65, "duration": 197, "velocity": 94}, {"time": 135582, "pitch": 55, "duration": 204, "velocity": 95}, {"time": 135612, "pitch": 56, "duration": 204, "velocity": 90}, {"time": 135642, "pitch": 58, "duration": 204, "velocity": 86}, {"time": 135672, "pitch": 60, "duration": 204, "velocity": 97}, {"time": 135702, "pitch": 61, "duration": 203, "velocity": 100}, {"time": 135732, "pitch": 63, "duration": 203, "velocity": 103}, {"time": 135762, "pitch": 65, "duration": 203, "velocity": 106}, {"time": 135792, "pitch": 67, "duration": 183, "velocity": 107}, {"time": 135842, "pitch": 56, "duration": 696, "velocity": 99}, {"time": 135872, "pitch": 58, "duration": 668, "velocity": 99}, {"time": 135902, "pitch": 60, "duration": 620, "velocity": 99}, {"time": 135931, "pitch": 61, "duration": 599, "velocity": 99}, {"time": 135961, "pitch": 63, "duration": 505, "velocity": 100}, {"time": 135991, "pitch": 65, "duration": 487, "velocity": 100}, {"time": 136020, "pitch": 67, "duration": 440, "velocity": 100}, {"time": 136050, "pitch": 68, "duration": 402, "velocity": 101}, {"time": 136080, "pitch": 70, "duration": 348, "velocity": 101}, {"time": 136109, "pitch": 72, "duration": 271, "velocity": 101}, {"time": 136139, "pitch": 73, "duration": 231, "velocity": 101}, {"time": 136169, "pitch": 75, "duration": 201, "velocity": 102}, {"time": 136199, "pitch": 77, "duration": 126, "velocity": 102}, {"time": 136317, "pitch": 80, "duration": 677, "velocity": 100}, {"time": 136337, "pitch": 79, "duration": 652, "velocity": 96}, {"time": 136357, "pitch": 77, "duration": 618, "velocity": 93}, {"time": 136378, "pitch": 75, "duration": 605, "velocity": 96}, {"time": 136398, "pitch": 73, "duration": 585, "velocity": 97}, {"time": 136418, "pitch": 72, "duration": 567, "velocity": 97}, {"time": 136438, "pitch": 70, "duration": 546, "velocity": 98}, {"time": 136458, "pitch": 68, "duration": 525, "velocity": 98}, {"time": 136478, "pitch": 67, "duration": 506, "velocity": 97}, {"time": 136498, "pitch": 65, "duration": 479, "velocity": 97}, {"time": 136518, "pitch": 63, "duration": 465, "velocity": 97}, {"time": 136538, "pitch": 61, "duration": 100, "velocity": 97}, {"time": 136558, "pitch": 60, "duration": 441, "velocity": 98}, {"time": 136578, "pitch": 58, "duration": 422, "velocity": 97}, {"time": 136598, "pitch": 56, "duration": 395, "velocity": 97}, {"time": 136618, "pitch": 55, "duration": 381, "velocity": 97}, {"time": 136638, "pitch": 53, "duration": 20, "velocity": 97}, {"time": 136658, "pitch": 51, "duration": 140, "velocity": 79}, {"time": 136798, "pitch": 53, "duration": 1, "velocity": 97}, {"time": 136798, "pitch": 61, "duration": 177, "velocity": 97}, {"time": 48242, "pitch": 66, "duration": 230, "velocity": 127}, {"time": 48482, "pitch": 66, "duration": 228, "velocity": 127}, {"time": 48720, "pitch": 67, "duration": 149, "velocity": 127}, {"time": 48878, "pitch": 69, "duration": 230, "velocity": 120}, {"time": 49118, "pitch": 67, "duration": 70, "velocity": 118}, {"time": 49198, "pitch": 66, "duration": 151, "velocity": 120}, {"time": 49349, "pitch": 64, "duration": 1026, "velocity": 115}, {"time": 54000, "pitch": 67, "duration": 149, "velocity": 127}, {"time": 54149, "pitch": 66, "duration": 79, "velocity": 115}, {"time": 54238, "pitch": 67, "duration": 451, "velocity": 127}, {"time": 54719, "pitch": 67, "duration": 451, "velocity": 122}, {"time": 55200, "pitch": 67, "duration": 451, "velocity": 127}, {"time": 55681, "pitch": 66, "duration": 451, "velocity": 127}, {"time": 56162, "pitch": 66, "duration": 2261, "velocity": 127}, {"time": 107442, "pitch": 66, "duration": 273, "velocity": 127}, {"time": 107760, "pitch": 66, "duration": 237, "velocity": 127}, {"time": 107997, "pitch": 66, "duration": 241, "velocity": 127}, {"time": 108238, "pitch": 67, "duration": 150, "velocity": 120}, {"time": 108398, "pitch": 69, "duration": 231, "velocity": 125}, {"time": 108639, "pitch": 67, "duration": 70, "velocity": 120}, {"time": 108719, "pitch": 66, "duration": 150, "velocity": 118}, {"time": 108869, "pitch": 64, "duration": 882, "velocity": 115}, {"time": 113518, "pitch": 67, "duration": 156, "velocity": 127}, {"time": 113679, "pitch": 66, "duration": 70, "velocity": 127}, {"time": 113759, "pitch": 67, "duration": 451, "velocity": 127}, {"time": 114240, "pitch": 67, "duration": 451, "velocity": 127}, {"time": 114721, "pitch": 67, "duration": 451, "velocity": 127}, {"time": 115202, "pitch": 66, "duration": 446, "velocity": 127}, {"time": 115677, "pitch": 66, "duration": 1744, "velocity": 127}, {"time": 117602, "pitch": 41, "duration": 718, "velocity": 115}, {"time": 118320, "pitch": 41, "duration": 238, "velocity": 110}, {"time": 118558, "pitch": 48, "duration": 240, "velocity": 115}, {"time": 118798, "pitch": 48, "duration": 722, "velocity": 116}, {"time": 119520, "pitch": 50, "duration": 231, "velocity": 116}, {"time": 119761, "pitch": 50, "duration": 240, "velocity": 112}, {"time": 120001, "pitch": 51, "duration": 241, "velocity": 114}, {"time": 120242, "pitch": 51, "duration": 1187, "velocity": 116}, {"time": 121439, "pitch": 49, "duration": 240, "velocity": 112}, {"time": 121679, "pitch": 54, "duration": 241, "velocity": 114}, {"time": 121920, "pitch": 54, "duration": 240, "velocity": 116}, {"time": 122160, "pitch": 53, "duration": 481, "velocity": 112}, {"time": 122641, "pitch": 49, "duration": 706, "velocity": 114}, {"time": 123357, "pitch": 43, "duration": 241, "velocity": 114}, {"time": 123598, "pitch": 47, "duration": 240, "velocity": 112}, {"time": 123838, "pitch": 48, "duration": 241, "velocity": 114}, {"time": 124079, "pitch": 48, "duration": 471, "velocity": 116}, {"time": 124560, "pitch": 48, "duration": 481, "velocity": 114}, {"time": 125041, "pitch": 47, "duration": 241, "velocity": 112}, {"time": 125282, "pitch": 53, "duration": 230, "velocity": 116}, {"time": 125522, "pitch": 50, "duration": 241, "velocity": 114}, {"time": 125763, "pitch": 57, "duration": 237, "velocity": 112}, {"time": 126000, "pitch": 55, "duration": 709, "velocity": 116}, {"time": 126719, "pitch": 41, "duration": 421, "velocity": 110}, {"time": 126719, "pitch": 53, "duration": 421, "velocity": 60}, {"time": 129119, "pitch": 45, "duration": 240, "velocity": 95}, {"time": 129119, "pitch": 52, "duration": 230, "velocity": 90}, {"time": 129129, "pitch": 57, "duration": 220, "velocity": 85}, {"time": 129359, "pitch": 52, "duration": 231, "velocity": 80}, {"time": 129359, "pitch": 57, "duration": 231, "velocity": 75}, {"time": 129369, "pitch": 45, "duration": 221, "velocity": 85}, {"time": 129600, "pitch": 45, "duration": 60, "velocity": 90}, {"time": 129600, "pitch": 52, "duration": 60, "velocity": 85}, {"time": 129840, "pitch": 45, "duration": 950, "velocity": 95}, {"time": 129840, "pitch": 52, "duration": 950, "velocity": 90}, {"time": 129850, "pitch": 57, "duration": 940, "velocity": 85}, {"time": 130799, "pitch": 45, "duration": 80, "velocity": 90}, {"time": 130799, "pitch": 52, "duration": 80, "velocity": 85}, {"time": 131037, "pitch": 46, "duration": 241, "velocity": 95}, {"time": 131037, "pitch": 53, "duration": 231, "velocity": 90}, {"time": 131047, "pitch": 58, "duration": 221, "velocity": 85}, {"time": 131278, "pitch": 53, "duration": 220, "velocity": 80}, {"time": 131278, "pitch": 58, "duration": 230, "velocity": 75}, {"time": 131288, "pitch": 46, "duration": 220, "velocity": 85}, {"time": 131518, "pitch": 46, "duration": 60, "velocity": 90}, {"time": 131518, "pitch": 53, "duration": 60, "velocity": 85}, {"time": 131759, "pitch": 46, "duration": 952, "velocity": 95}, {"time": 131759, "pitch": 53, "duration": 952, "velocity": 90}, {"time": 131769, "pitch": 58, "duration": 942, "velocity": 85}, {"time": 132721, "pitch": 46, "duration": 80, "velocity": 90}, {"time": 132721, "pitch": 53, "duration": 80, "velocity": 85}, {"time": 132961, "pitch": 43, "duration": 20, "velocity": 95}, {"time": 132961, "pitch": 50, "duration": 20, "velocity": 90}, {"time": 133202, "pitch": 43, "duration": 20, "velocity": 90}, {"time": 133202, "pitch": 50, "duration": 20, "velocity": 85}, {"time": 133443, "pitch": 43, "duration": 19, "velocity": 95}, {"time": 133443, "pitch": 50, "duration": 19, "velocity": 90}, {"time": 133680, "pitch": 43, "duration": 20, "velocity": 90}, {"time": 133680, "pitch": 50, "duration": 20, "velocity": 85}, {"time": 133918, "pitch": 43, "duration": 230, "velocity": 95}, {"time": 133918, "pitch": 50, "duration": 230, "velocity": 90}, {"time": 134158, "pitch": 43, "duration": 231, "velocity": 90}, {"time": 134158, "pitch": 50, "duration": 231, "velocity": 85}, {"time": 134399, "pitch": 43, "duration": 230, "velocity": 95}, {"time": 134399, "pitch": 50, "duration": 230, "velocity": 90}, {"time": 134639, "pitch": 43, "duration": 81, "velocity": 90}, {"time": 134639, "pitch": 50, "duration": 81, "velocity": 85}, {"time": 134880, "pitch": 43, "duration": 20, "velocity": 95}, {"time": 134880, "pitch": 56, "duration": 20, "velocity": 90}, {"time": 135121, "pitch": 46, "duration": 20, "velocity": 90}, {"time": 135121, "pitch": 56, "duration": 20, "velocity": 85}, {"time": 135361, "pitch": 46, "duration": 20, "velocity": 95}, {"time": 135361, "pitch": 56, "duration": 20, "velocity": 90}, {"time": 135602, "pitch": 46, "duration": 20, "velocity": 90}, {"time": 135602, "pitch": 56, "duration": 20, "velocity": 85}, {"time": 135842, "pitch": 46, "duration": 228, "velocity": 95}, {"time": 135842, "pitch": 56, "duration": 228, "velocity": 90}, {"time": 136080, "pitch": 46, "duration": 228, "velocity": 90}, {"time": 136080, "pitch": 56, "duration": 228, "velocity": 85}, {"time": 136317, "pitch": 46, "duration": 231, "velocity": 95}, {"time": 136317, "pitch": 56, "duration": 231, "velocity": 90}, {"time": 136558, "pitch": 46, "duration": 80, "velocity": 90}, {"time": 136558, "pitch": 56, "duration": 80, "velocity": 85}, {"time": 136788, "pitch": 51, "duration": 1434, "velocity": 100}, {"time": 136788, "pitch": 58, "duration": 1434, "velocity": 85}, {"time": 136798, "pitch": 67, "duration": 1424, "velocity": 80}, {"time": 138242, "pitch": 51, "duration": 451, "velocity": 105}, {"time": 138242, "pitch": 58, "duration": 451, "velocity": 90}, {"time": 138242, "pitch": 67, "duration": 451, "velocity": 85}, {"time": 138713, "pitch": 48, "duration": 1427, "velocity": 105}, {"time": 138713, "pitch": 55, "duration": 1427, "velocity": 90}, {"time": 138723, "pitch": 65, "duration": 1417, "velocity": 80}, {"time": 140160, "pitch": 48, "duration": 451, "velocity": 105}, {"time": 140160, "pitch": 55, "duration": 451, "velocity": 90}, {"time": 140160, "pitch": 65, "duration": 451, "velocity": 85}, {"time": 140631, "pitch": 44, "duration": 1428, "velocity": 85}, {"time": 140631, "pitch": 51, "duration": 1428, "velocity": 85}, {"time": 140641, "pitch": 63, "duration": 1418, "velocity": 85}, {"time": 142079, "pitch": 44, "duration": 451, "velocity": 100}, {"time": 142079, "pitch": 51, "duration": 451, "velocity": 85}, {"time": 142079, "pitch": 63, "duration": 451, "velocity": 90}, {"time": 142550, "pitch": 50, "duration": 1428, "velocity": 100}, {"time": 142550, "pitch": 58, "duration": 1428, "velocity": 90}, {"time": 142560, "pitch": 62, "duration": 1418, "velocity": 90}, {"time": 142560, "pitch": 68, "duration": 1418, "velocity": 70}, {"time": 143997, "pitch": 50, "duration": 451, "velocity": 100}, {"time": 143997, "pitch": 58, "duration": 451, "velocity": 90}, {"time": 143997, "pitch": 62, "duration": 451, "velocity": 100}, {"time": 143997, "pitch": 68, "duration": 451, "velocity": 80}, {"time": 144468, "pitch": 51, "duration": 1434, "velocity": 95}, {"time": 144468, "pitch": 58, "duration": 1434, "velocity": 80}, {"time": 144478, "pitch": 63, "duration": 1424, "velocity": 85}, {"time": 144478, "pitch": 67, "duration": 1424, "velocity": 75}, {"time": 145922, "pitch": 51, "duration": 451, "velocity": 100}, {"time": 145922, "pitch": 58, "duration": 451, "velocity": 90}, {"time": 145922, "pitch": 63, "duration": 451, "velocity": 85}, {"time": 145922, "pitch": 67, "duration": 451, "velocity": 80}, {"time": 146393, "pitch": 48, "duration": 1427, "velocity": 100}, {"time": 146393, "pitch": 55, "duration": 1427, "velocity": 85}, {"time": 146403, "pitch": 60, "duration": 1417, "velocity": 90}, {"time": 146403, "pitch": 65, "duration": 1417, "velocity": 80}, {"time": 147840, "pitch": 60, "duration": 451, "velocity": 90}, {"time": 147840, "pitch": 65, "duration": 451, "velocity": 80}, {"time": 148311, "pitch": 51, "duration": 11, "velocity": 100}, {"time": 148321, "pitch": 56, "duration": 1418, "velocity": 85}, {"time": 148321, "pitch": 59, "duration": 1418, "velocity": 80}, {"time": 148321, "pitch": 63, "duration": 1418, "velocity": 100}, {"time": 149759, "pitch": 56, "duration": 451, "velocity": 75}, {"time": 149759, "pitch": 59, "duration": 451, "velocity": 70}, {"time": 149759, "pitch": 63, "duration": 451, "velocity": 90}, {"time": 150230, "pitch": 58, "duration": 1427, "velocity": 80}, {"time": 150230, "pitch": 62, "duration": 1427, "velocity": 70}, {"time": 150240, "pitch": 65, "duration": 1417, "velocity": 85}, {"time": 150240, "pitch": 70, "duration": 1417, "velocity": 90}, {"time": 151677, "pitch": 62, "duration": 451, "velocity": 80}, {"time": 151677, "pitch": 65, "duration": 451, "velocity": 60}, {"time": 151677, "pitch": 70, "duration": 451, "velocity": 70}, {"time": 152148, "pitch": 53, "duration": 1926, "velocity": 80}, {"time": 152148, "pitch": 67, "duration": 1926, "velocity": 85}, {"time": 152158, "pitch": 59, "duration": 1916, "velocity": 70}, {"time": 152158, "pitch": 62, "duration": 1916, "velocity": 90}, {"time": 154073, "pitch": 58, "duration": 1919, "velocity": 90}, {"time": 154073, "pitch": 63, "duration": 1919, "velocity": 85}, {"time": 154083, "pitch": 67, "duration": 1909, "velocity": 80}, {"time": 155991, "pitch": 51, "duration": 967, "velocity": 65}, {"time": 155991, "pitch": 59, "duration": 967, "velocity": 80}, {"time": 156001, "pitch": 63, "duration": 957, "velocity": 85}, {"time": 156001, "pitch": 68, "duration": 957, "velocity": 75}, {"time": 156958, "pitch": 53, "duration": 953, "velocity": 90}, {"time": 156958, "pitch": 63, "duration": 953, "velocity": 80}, {"time": 156958, "pitch": 65, "duration": 953, "velocity": 85}, {"time": 156958, "pitch": 70, "duration": 953, "velocity": 70}, {"time": 157920, "pitch": 51, "duration": 721, "velocity": 85}, {"time": 157920, "pitch": 58, "duration": 721, "velocity": 90}, {"time": 157920, "pitch": 63, "duration": 721, "velocity": 85}, {"time": 157920, "pitch": 68, "duration": 721, "velocity": 80}, {"time": 158651, "pitch": 58, "duration": 1188, "velocity": 70}, {"time": 158651, "pitch": 63, "duration": 1187, "velocity": 90}, {"time": 158651, "pitch": 67, "duration": 1188, "velocity": 80}, {"time": 159838, "pitch": 51, "duration": 1446, "velocity": 90}, {"time": 159838, "pitch": 59, "duration": 1446, "velocity": 90}, {"time": 159838, "pitch": 63, "duration": 1446, "velocity": 70}, {"time": 159838, "pitch": 68, "duration": 1446, "velocity": 60}, {"time": 161292, "pitch": 49, "duration": 469, "velocity": 100}, {"time": 161292, "pitch": 61, "duration": 469, "velocity": 85}, {"time": 161292, "pitch": 65, "duration": 469, "velocity": 90}, {"time": 161292, "pitch": 68, "duration": 469, "velocity": 80}, {"time": 161761, "pitch": 49, "duration": 480, "velocity": 80}, {"time": 161761, "pitch": 61, "duration": 480, "velocity": 85}, {"time": 161761, "pitch": 65, "duration": 480, "velocity": 100}, {"time": 161761, "pitch": 68, "duration": 480, "velocity": 90}, {"time": 162250, "pitch": 51, "duration": 1901, "velocity": 90}, {"time": 162250, "pitch": 58, "duration": 872, "velocity": 85}, {"time": 162250, "pitch": 63, "duration": 791, "velocity": 80}, {"time": 162250, "pitch": 67, "duration": 710, "velocity": 100}, {"time": 162971, "pitch": 67, "duration": 241, "velocity": 100}, {"time": 163051, "pitch": 63, "duration": 640, "velocity": 85}, {"time": 163132, "pitch": 58, "duration": 1028, "velocity": 85}, {"time": 163212, "pitch": 68, "duration": 240, "velocity": 110}, {"time": 163452, "pitch": 67, "duration": 708, "velocity": 90}, {"time": 163691, "pitch": 63, "duration": 469, "velocity": 85}, {"time": 4321, "pitch": 50, "duration": 947, "velocity": 110}, {"time": 4562, "pitch": 57, "duration": 230, "velocity": 98}, {"time": 4802, "pitch": 57, "duration": 159, "velocity": 100}, {"time": 4802, "pitch": 62, "duration": 149, "velocity": 105}, {"time": 4812, "pitch": 64, "duration": 139, "velocity": 110}, {"time": 4961, "pitch": 62, "duration": 69, "velocity": 95}, {"time": 4961, "pitch": 64, "duration": 79, "velocity": 100}, {"time": 4971, "pitch": 57, "duration": 59, "velocity": 90}, {"time": 5040, "pitch": 57, "duration": 468, "velocity": 95}, {"time": 5040, "pitch": 62, "duration": 709, "velocity": 100}, {"time": 5050, "pitch": 64, "duration": 699, "velocity": 105}, {"time": 5278, "pitch": 48, "duration": 952, "velocity": 110}, {"time": 5518, "pitch": 57, "duration": 231, "velocity": 98}, {"time": 5759, "pitch": 57, "duration": 160, "velocity": 100}, {"time": 5759, "pitch": 62, "duration": 150, "velocity": 105}, {"time": 5769, "pitch": 64, "duration": 140, "velocity": 110}, {"time": 5919, "pitch": 62, "duration": 70, "velocity": 95}, {"time": 5919, "pitch": 64, "duration": 80, "velocity": 100}, {"time": 5929, "pitch": 57, "duration": 60, "velocity": 90}, {"time": 5999, "pitch": 57, "duration": 471, "velocity": 95}, {"time": 5999, "pitch": 62, "duration": 712, "velocity": 105}, {"time": 6009, "pitch": 64, "duration": 702, "velocity": 100}, {"time": 6240, "pitch": 47, "duration": 952, "velocity": 110}, {"time": 6480, "pitch": 57, "duration": 231, "velocity": 98}, {"time": 6721, "pitch": 57, "duration": 160, "velocity": 100}, {"time": 6721, "pitch": 62, "duration": 150, "velocity": 110}, {"time": 6731, "pitch": 64, "duration": 140, "velocity": 105}, {"time": 6881, "pitch": 62, "duration": 71, "velocity": 95}, {"time": 6881, "pitch": 64, "duration": 81, "velocity": 100}, {"time": 6891, "pitch": 57, "duration": 61, "velocity": 90}, {"time": 6962, "pitch": 57, "duration": 468, "velocity": 95}, {"time": 6962, "pitch": 62, "duration": 705, "velocity": 100}, {"time": 6972, "pitch": 64, "duration": 695, "velocity": 105}, {"time": 7202, "pitch": 45, "duration": 946, "velocity": 110}, {"time": 7440, "pitch": 57, "duration": 227, "velocity": 98}, {"time": 7677, "pitch": 57, "duration": 161, "velocity": 100}, {"time": 7677, "pitch": 62, "duration": 151, "velocity": 105}, {"time": 7687, "pitch": 64, "duration": 141, "velocity": 110}, {"time": 7838, "pitch": 62, "duration": 70, "velocity": 95}, {"time": 7838, "pitch": 64, "duration": 80, "velocity": 100}, {"time": 7848, "pitch": 57, "duration": 60, "velocity": 90}, {"time": 7918, "pitch": 57, "duration": 230, "velocity": 95}, {"time": 7918, "pitch": 62, "duration": 230, "velocity": 105}, {"time": 7928, "pitch": 64, "duration": 220, "velocity": 100}, {"time": 8158, "pitch": 43, "duration": 1193, "velocity": 115}, {"time": 8399, "pitch": 57, "duration": 471, "velocity": 100}, {"time": 8640, "pitch": 62, "duration": 230, "velocity": 105}, {"time": 8880, "pitch": 57, "duration": 712, "velocity": 100}, {"time": 8880, "pitch": 62, "duration": 712, "velocity": 105}, {"time": 8890, "pitch": 64, "duration": 702, "velocity": 110}, {"time": 9361, "pitch": 43, "duration": 712, "velocity": 100}, {"time": 9602, "pitch": 50, "duration": 471, "velocity": 80}, {"time": 9602, "pitch": 57, "duration": 160, "velocity": 100}, {"time": 9607, "pitch": 62, "duration": 140, "velocity": 105}, {"time": 9612, "pitch": 64, "duration": 140, "velocity": 110}, {"time": 9762, "pitch": 62, "duration": 70, "velocity": 95}, {"time": 9762, "pitch": 64, "duration": 80, "velocity": 100}, {"time": 9772, "pitch": 57, "duration": 60, "velocity": 90}, {"time": 9842, "pitch": 57, "duration": 231, "velocity": 95}, {"time": 9842, "pitch": 62, "duration": 231, "velocity": 105}, {"time": 9852, "pitch": 64, "duration": 221, "velocity": 100}, {"time": 10083, "pitch": 43, "duration": 1187, "velocity": 115}, {"time": 10320, "pitch": 58, "duration": 469, "velocity": 100}, {"time": 10558, "pitch": 62, "duration": 231, "velocity": 105}, {"time": 10799, "pitch": 58, "duration": 711, "velocity": 100}, {"time": 10799, "pitch": 62, "duration": 711, "velocity": 105}, {"time": 10809, "pitch": 64, "duration": 701, "velocity": 110}, {"time": 11280, "pitch": 43, "duration": 711, "velocity": 100}, {"time": 11520, "pitch": 50, "duration": 471, "velocity": 80}, {"time": 11520, "pitch": 58, "duration": 161, "velocity": 100}, {"time": 11525, "pitch": 62, "duration": 141, "velocity": 105}, {"time": 11530, "pitch": 64, "duration": 141, "velocity": 110}, {"time": 11681, "pitch": 62, "duration": 70, "velocity": 95}, {"time": 11681, "pitch": 64, "duration": 80, "velocity": 100}, {"time": 11691, "pitch": 58, "duration": 60, "velocity": 90}, {"time": 11761, "pitch": 58, "duration": 230, "velocity": 90}, {"time": 11761, "pitch": 62, "duration": 230, "velocity": 95}, {"time": 11771, "pitch": 64, "duration": 220, "velocity": 100}, {"time": 12001, "pitch": 50, "duration": 1187, "velocity": 115}, {"time": 12242, "pitch": 57, "duration": 468, "velocity": 100}, {"time": 12482, "pitch": 62, "duration": 228, "velocity": 105}, {"time": 12720, "pitch": 57, "duration": 709, "velocity": 100}, {"time": 12720, "pitch": 62, "duration": 709, "velocity": 105}, {"time": 12730, "pitch": 64, "duration": 699, "velocity": 110}, {"time": 13439, "pitch": 50, "duration": 471, "velocity": 80}, {"time": 13439, "pitch": 57, "duration": 160, "velocity": 100}, {"time": 13444, "pitch": 62, "duration": 140, "velocity": 105}, {"time": 13449, "pitch": 64, "duration": 140, "velocity": 110}, {"time": 13599, "pitch": 62, "duration": 70, "velocity": 95}, {"time": 13599, "pitch": 64, "duration": 80, "velocity": 100}, {"time": 13609, "pitch": 57, "duration": 60, "velocity": 90}, {"time": 13679, "pitch": 57, "duration": 231, "velocity": 95}, {"time": 13679, "pitch": 62, "duration": 231, "velocity": 105}, {"time": 13689, "pitch": 64, "duration": 221, "velocity": 100}, {"time": 13920, "pitch": 50, "duration": 1190, "velocity": 115}, {"time": 14160, "pitch": 57, "duration": 231, "velocity": 100}, {"time": 14401, "pitch": 57, "duration": 230, "velocity": 105}, {"time": 14401, "pitch": 62, "duration": 230, "velocity": 110}, {"time": 14411, "pitch": 67, "duration": 220, "velocity": 115}, {"time": 14641, "pitch": 57, "duration": 1187, "velocity": 105}, {"time": 14641, "pitch": 62, "duration": 1187, "velocity": 110}, {"time": 14651, "pitch": 66, "duration": 696, "velocity": 115}, {"time": 15120, "pitch": 50, "duration": 708, "velocity": 100}, {"time": 15838, "pitch": 50, "duration": 953, "velocity": 110}, {"time": 16079, "pitch": 57, "duration": 230, "velocity": 98}, {"time": 16319, "pitch": 57, "duration": 161, "velocity": 100}, {"time": 16319, "pitch": 62, "duration": 151, "velocity": 105}, {"time": 16329, "pitch": 64, "duration": 141, "velocity": 110}, {"time": 16480, "pitch": 62, "duration": 70, "velocity": 95}, {"time": 16480, "pitch": 64, "duration": 80, "velocity": 100}, {"time": 16490, "pitch": 57, "duration": 60, "velocity": 90}, {"time": 16560, "pitch": 57, "duration": 471, "velocity": 95}, {"time": 16560, "pitch": 62, "duration": 712, "velocity": 100}, {"time": 16570, "pitch": 64, "duration": 702, "velocity": 105}, {"time": 16801, "pitch": 48, "duration": 952, "velocity": 110}, {"time": 17041, "pitch": 57, "duration": 231, "velocity": 98}, {"time": 17282, "pitch": 57, "duration": 160, "velocity": 100}, {"time": 17282, "pitch": 62, "duration": 150, "velocity": 105}, {"time": 17292, "pitch": 64, "duration": 140, "velocity": 110}, {"time": 17442, "pitch": 62, "duration": 70, "velocity": 95}, {"time": 17442, "pitch": 64, "duration": 80, "velocity": 100}, {"time": 17452, "pitch": 57, "duration": 60, "velocity": 90}, {"time": 17522, "pitch": 57, "duration": 468, "velocity": 95}, {"time": 17522, "pitch": 62, "duration": 706, "velocity": 105}, {"time": 17532, "pitch": 64, "duration": 696, "velocity": 100}, {"time": 17763, "pitch": 47, "duration": 946, "velocity": 110}, {"time": 18000, "pitch": 57, "duration": 228, "velocity": 98}, {"time": 18238, "pitch": 57, "duration": 160, "velocity": 100}, {"time": 18238, "pitch": 62, "duration": 150, "velocity": 110}, {"time": 18248, "pitch": 64, "duration": 140, "velocity": 105}, {"time": 18398, "pitch": 62, "duration": 70, "velocity": 95}, {"time": 18398, "pitch": 64, "duration": 81, "velocity": 100}, {"time": 18408, "pitch": 57, "duration": 60, "velocity": 90}, {"time": 18479, "pitch": 57, "duration": 471, "velocity": 95}, {"time": 18479, "pitch": 62, "duration": 711, "velocity": 100}, {"time": 18489, "pitch": 64, "duration": 701, "velocity": 105}, {"time": 18719, "pitch": 45, "duration": 952, "velocity": 110}, {"time": 18960, "pitch": 57, "duration": 230, "velocity": 98}, {"time": 19200, "pitch": 57, "duration": 161, "velocity": 100}, {"time": 19200, "pitch": 62, "duration": 150, "velocity": 105}, {"time": 19210, "pitch": 64, "duration": 140, "velocity": 110}, {"time": 19361, "pitch": 62, "duration": 70, "velocity": 95}, {"time": 19361, "pitch": 64, "duration": 80, "velocity": 100}, {"time": 19371, "pitch": 57, "duration": 60, "velocity": 90}, {"time": 19441, "pitch": 57, "duration": 230, "velocity": 95}, {"time": 19441, "pitch": 62, "duration": 230, "velocity": 105}, {"time": 19451, "pitch": 64, "duration": 220, "velocity": 100}, {"time": 19681, "pitch": 43, "duration": 1187, "velocity": 115}, {"time": 19922, "pitch": 50, "duration": 1187, "velocity": 100}, {"time": 20162, "pitch": 58, "duration": 228, "velocity": 105}, {"time": 20400, "pitch": 58, "duration": 709, "velocity": 100}, {"time": 20400, "pitch": 62, "duration": 709, "velocity": 105}, {"time": 20410, "pitch": 64, "duration": 699, "velocity": 110}, {"time": 20878, "pitch": 43, "duration": 712, "velocity": 100}, {"time": 21119, "pitch": 50, "duration": 471, "velocity": 80}, {"time": 21119, "pitch": 58, "duration": 160, "velocity": 100}, {"time": 21124, "pitch": 62, "duration": 140, "velocity": 105}, {"time": 21129, "pitch": 64, "duration": 140, "velocity": 110}, {"time": 21279, "pitch": 62, "duration": 70, "velocity": 95}, {"time": 21279, "pitch": 64, "duration": 80, "velocity": 100}, {"time": 21289, "pitch": 58, "duration": 60, "velocity": 90}, {"time": 21359, "pitch": 58, "duration": 231, "velocity": 95}, {"time": 21359, "pitch": 62, "duration": 231, "velocity": 105}, {"time": 21369, "pitch": 64, "duration": 221, "velocity": 100}, {"time": 21600, "pitch": 43, "duration": 1190, "velocity": 115}, {"time": 21840, "pitch": 50, "duration": 1187, "velocity": 100}, {"time": 22081, "pitch": 58, "duration": 230, "velocity": 105}, {"time": 22321, "pitch": 58, "duration": 706, "velocity": 100}, {"time": 22321, "pitch": 62, "duration": 706, "velocity": 105}, {"time": 22331, "pitch": 64, "duration": 696, "velocity": 110}, {"time": 22800, "pitch": 43, "duration": 708, "velocity": 100}, {"time": 23037, "pitch": 50, "duration": 471, "velocity": 80}, {"time": 23037, "pitch": 58, "duration": 161, "velocity": 100}, {"time": 23042, "pitch": 62, "duration": 141, "velocity": 105}, {"time": 23047, "pitch": 64, "duration": 141, "velocity": 110}, {"time": 23198, "pitch": 62, "duration": 70, "velocity": 95}, {"time": 23198, "pitch": 64, "duration": 80, "velocity": 100}, {"time": 23208, "pitch": 58, "duration": 60, "velocity": 90}, {"time": 23278, "pitch": 58, "duration": 230, "velocity": 90}, {"time": 23278, "pitch": 62, "duration": 230, "velocity": 95}, {"time": 23288, "pitch": 64, "duration": 220, "velocity": 100}, {"time": 23518, "pitch": 50, "duration": 1193, "velocity": 115}, {"time": 23759, "pitch": 57, "duration": 230, "velocity": 100}, {"time": 23999, "pitch": 57, "duration": 231, "velocity": 95}, {"time": 24004, "pitch": 62, "duration": 221, "velocity": 105}, {"time": 24009, "pitch": 66, "duration": 221, "velocity": 100}, {"time": 24240, "pitch": 57, "duration": 712, "velocity": 105}, {"time": 24240, "pitch": 62, "duration": 712, "velocity": 110}, {"time": 24250, "pitch": 64, "duration": 702, "velocity": 115}, {"time": 24962, "pitch": 50, "duration": 471, "velocity": 80}, {"time": 24962, "pitch": 57, "duration": 160, "velocity": 100}, {"time": 24967, "pitch": 62, "duration": 140, "velocity": 105}, {"time": 24972, "pitch": 64, "duration": 140, "velocity": 110}, {"time": 25122, "pitch": 62, "duration": 70, "velocity": 95}, {"time": 25122, "pitch": 64, "duration": 80, "velocity": 100}, {"time": 25132, "pitch": 57, "duration": 60, "velocity": 90}, {"time": 25202, "pitch": 57, "duration": 231, "velocity": 95}, {"time": 25202, "pitch": 62, "duration": 231, "velocity": 105}, {"time": 25212, "pitch": 64, "duration": 221, "velocity": 100}, {"time": 25443, "pitch": 50, "duration": 1186, "velocity": 115}, {"time": 25680, "pitch": 57, "duration": 228, "velocity": 100}, {"time": 25918, "pitch": 57, "duration": 230, "velocity": 105}, {"time": 25918, "pitch": 62, "duration": 230, "velocity": 110}, {"time": 25928, "pitch": 67, "duration": 220, "velocity": 115}, {"time": 26158, "pitch": 57, "duration": 702, "velocity": 105}, {"time": 26158, "pitch": 62, "duration": 702, "velocity": 110}, {"time": 26168, "pitch": 66, "duration": 702, "velocity": 115}, {"time": 26640, "pitch": 45, "duration": 240, "velocity": 105}, {"time": 26880, "pitch": 50, "duration": 160, "velocity": 120}, {"time": 27040, "pitch": 50, "duration": 81, "velocity": 115}, {"time": 27121, "pitch": 49, "duration": 160, "velocity": 105}, {"time": 27361, "pitch": 47, "duration": 947, "velocity": 110}, {"time": 27602, "pitch": 54, "duration": 230, "velocity": 98}, {"time": 27842, "pitch": 54, "duration": 396, "velocity": 100}, {"time": 27842, "pitch": 57, "duration": 386, "velocity": 105}, {"time": 27852, "pitch": 62, "duration": 376, "velocity": 110}, {"time": 28238, "pitch": 57, "duration": 70, "velocity": 95}, {"time": 28238, "pitch": 62, "duration": 80, "velocity": 100}, {"time": 28248, "pitch": 54, "duration": 60, "velocity": 90}, {"time": 28318, "pitch": 47, "duration": 952, "velocity": 85}, {"time": 28318, "pitch": 54, "duration": 471, "velocity": 80}, {"time": 28328, "pitch": 57, "duration": 461, "velocity": 95}, {"time": 28328, "pitch": 62, "duration": 461, "velocity": 100}, {"time": 28799, "pitch": 54, "duration": 160, "velocity": 95}, {"time": 28799, "pitch": 57, "duration": 150, "velocity": 100}, {"time": 28809, "pitch": 62, "duration": 140, "velocity": 105}, {"time": 28959, "pitch": 57, "duration": 70, "velocity": 90}, {"time": 28959, "pitch": 62, "duration": 80, "velocity": 95}, {"time": 28969, "pitch": 54, "duration": 60, "velocity": 85}, {"time": 29039, "pitch": 54, "duration": 231, "velocity": 85}, {"time": 29039, "pitch": 57, "duration": 231, "velocity": 90}, {"time": 29049, "pitch": 62, "duration": 221, "velocity": 95}, {"time": 29520, "pitch": 56, "duration": 141, "velocity": 105}, {"time": 29525, "pitch": 60, "duration": 141, "velocity": 105}, {"time": 29530, "pitch": 63, "duration": 131, "velocity": 110}, {"time": 29761, "pitch": 57, "duration": 401, "velocity": 105}, {"time": 29761, "pitch": 61, "duration": 391, "velocity": 105}, {"time": 29771, "pitch": 64, "duration": 381, "velocity": 110}, {"time": 30162, "pitch": 61, "duration": 70, "velocity": 85}, {"time": 30162, "pitch": 64, "duration": 80, "velocity": 90}, {"time": 30172, "pitch": 57, "duration": 60, "velocity": 80}, {"time": 30242, "pitch": 57, "duration": 138, "velocity": 105}, {"time": 30247, "pitch": 62, "duration": 138, "velocity": 105}, {"time": 30252, "pitch": 64, "duration": 128, "velocity": 110}, {"time": 30479, "pitch": 57, "duration": 228, "velocity": 105}, {"time": 30479, "pitch": 62, "duration": 228, "velocity": 105}, {"time": 30489, "pitch": 64, "duration": 218, "velocity": 110}, {"time": 30717, "pitch": 57, "duration": 160, "velocity": 100}, {"time": 30717, "pitch": 62, "duration": 150, "velocity": 105}, {"time": 30727, "pitch": 64, "duration": 140, "velocity": 110}, {"time": 30877, "pitch": 61, "duration": 71, "velocity": 95}, {"time": 30877, "pitch": 64, "duration": 81, "velocity": 100}, {"time": 30887, "pitch": 57, "duration": 61, "velocity": 90}, {"time": 30958, "pitch": 57, "duration": 230, "velocity": 95}, {"time": 30958, "pitch": 61, "duration": 230, "velocity": 100}, {"time": 30968, "pitch": 64, "duration": 220, "velocity": 105}, {"time": 31198, "pitch": 43, "duration": 1905, "velocity": 100}, {"time": 31203, "pitch": 50, "duration": 466, "velocity": 90}, {"time": 31208, "pitch": 55, "duration": 461, "velocity": 95}, {"time": 31218, "pitch": 59, "duration": 451, "velocity": 100}, {"time": 31228, "pitch": 67, "duration": 441, "velocity": 95}, {"time": 31679, "pitch": 50, "duration": 471, "velocity": 95}, {"time": 31679, "pitch": 55, "duration": 401, "velocity": 100}, {"time": 31689, "pitch": 59, "duration": 381, "velocity": 105}, {"time": 31689, "pitch": 67, "duration": 381, "velocity": 110}, {"time": 32080, "pitch": 59, "duration": 70, "velocity": 85}, {"time": 32080, "pitch": 67, "duration": 80, "velocity": 90}, {"time": 32090, "pitch": 55, "duration": 60, "velocity": 80}, {"time": 32160, "pitch": 50, "duration": 471, "velocity": 90}, {"time": 32160, "pitch": 55, "duration": 471, "velocity": 95}, {"time": 32170, "pitch": 59, "duration": 461, "velocity": 100}, {"time": 32170, "pitch": 67, "duration": 461, "velocity": 105}, {"time": 32641, "pitch": 50, "duration": 472, "velocity": 85}, {"time": 32641, "pitch": 55, "duration": 161, "velocity": 95}, {"time": 32651, "pitch": 59, "duration": 151, "velocity": 100}, {"time": 32662, "pitch": 67, "duration": 140, "velocity": 105}, {"time": 32802, "pitch": 59, "duration": 70, "velocity": 88}, {"time": 32802, "pitch": 67, "duration": 80, "velocity": 90}, {"time": 32812, "pitch": 55, "duration": 60, "velocity": 80}, {"time": 32882, "pitch": 55, "duration": 231, "velocity": 85}, {"time": 32882, "pitch": 59, "duration": 231, "velocity": 90}, {"time": 32892, "pitch": 67, "duration": 221, "velocity": 95}, {"time": 33123, "pitch": 50, "duration": 465, "velocity": 90}, {"time": 33127, "pitch": 57, "duration": 461, "velocity": 95}, {"time": 33132, "pitch": 62, "duration": 456, "velocity": 100}, {"time": 33142, "pitch": 66, "duration": 446, "velocity": 105}, {"time": 33598, "pitch": 50, "duration": 471, "velocity": 95}, {"time": 33598, "pitch": 57, "duration": 401, "velocity": 100}, {"time": 33608, "pitch": 62, "duration": 381, "velocity": 105}, {"time": 33608, "pitch": 66, "duration": 381, "velocity": 110}, {"time": 33999, "pitch": 62, "duration": 70, "velocity": 90}, {"time": 33999, "pitch": 66, "duration": 80, "velocity": 95}, {"time": 34009, "pitch": 57, "duration": 60, "velocity": 85}, {"time": 34079, "pitch": 50, "duration": 471, "velocity": 95}, {"time": 34079, "pitch": 57, "duration": 140, "velocity": 105}, {"time": 34084, "pitch": 62, "duration": 140, "velocity": 105}, {"time": 34089, "pitch": 67, "duration": 130, "velocity": 110}, {"time": 34319, "pitch": 57, "duration": 231, "velocity": 105}, {"time": 34319, "pitch": 62, "duration": 231, "velocity": 105}, {"time": 34329, "pitch": 66, "duration": 221, "velocity": 110}, {"time": 34560, "pitch": 50, "duration": 471, "velocity": 85}, {"time": 34560, "pitch": 57, "duration": 160, "velocity": 100}, {"time": 34560, "pitch": 62, "duration": 150, "velocity": 105}, {"time": 34570, "pitch": 66, "duration": 140, "velocity": 110}, {"time": 34720, "pitch": 62, "duration": 70, "velocity": 95}, {"time": 34720, "pitch": 64, "duration": 81, "velocity": 105}, {"time": 34730, "pitch": 57, "duration": 60, "velocity": 90}, {"time": 34801, "pitch": 57, "duration": 230, "velocity": 95}, {"time": 34801, "pitch": 62, "duration": 230, "velocity": 100}, {"time": 34811, "pitch": 64, "duration": 220, "velocity": 105}, {"time": 35041, "pitch": 40, "duration": 1899, "velocity": 100}, {"time": 35046, "pitch": 52, "duration": 466, "velocity": 90}, {"time": 35051, "pitch": 55, "duration": 461, "velocity": 95}, {"time": 35061, "pitch": 59, "duration": 451, "velocity": 100}, {"time": 35071, "pitch": 64, "duration": 441, "velocity": 95}, {"time": 35522, "pitch": 52, "duration": 466, "velocity": 95}, {"time": 35522, "pitch": 55, "duration": 396, "velocity": 100}, {"time": 35532, "pitch": 59, "duration": 376, "velocity": 105}, {"time": 35532, "pitch": 64, "duration": 376, "velocity": 110}, {"time": 35918, "pitch": 59, "duration": 70, "velocity": 85}, {"time": 35918, "pitch": 64, "duration": 79, "velocity": 90}, {"time": 35928, "pitch": 55, "duration": 60, "velocity": 80}, {"time": 35997, "pitch": 52, "duration": 471, "velocity": 90}, {"time": 35997, "pitch": 55, "duration": 471, "velocity": 95}, {"time": 36007, "pitch": 59, "duration": 461, "velocity": 100}, {"time": 36007, "pitch": 64, "duration": 461, "velocity": 105}, {"time": 36478, "pitch": 52, "duration": 472, "velocity": 80}, {"time": 36478, "pitch": 55, "duration": 161, "velocity": 90}, {"time": 36489, "pitch": 59, "duration": 150, "velocity": 95}, {"time": 36499, "pitch": 64, "duration": 140, "velocity": 100}, {"time": 36639, "pitch": 59, "duration": 70, "velocity": 88}, {"time": 36639, "pitch": 64, "duration": 80, "velocity": 90}, {"time": 36649, "pitch": 55, "duration": 60, "velocity": 80}, {"time": 36719, "pitch": 55, "duration": 231, "velocity": 85}, {"time": 36719, "pitch": 59, "duration": 231, "velocity": 90}, {"time": 36729, "pitch": 64, "duration": 221, "velocity": 95}, {"time": 36960, "pitch": 47, "duration": 942, "velocity": 105}, {"time": 36965, "pitch": 54, "duration": 466, "velocity": 90}, {"time": 36970, "pitch": 57, "duration": 461, "velocity": 95}, {"time": 36980, "pitch": 62, "duration": 451, "velocity": 100}, {"time": 37441, "pitch": 57, "duration": 401, "velocity": 100}, {"time": 37451, "pitch": 62, "duration": 381, "velocity": 105}, {"time": 37451, "pitch": 66, "duration": 381, "velocity": 110}, {"time": 37842, "pitch": 62, "duration": 70, "velocity": 85}, {"time": 37842, "pitch": 66, "duration": 80, "velocity": 90}, {"time": 37852, "pitch": 54, "duration": 60, "velocity": 75}, {"time": 37852, "pitch": 57, "duration": 60, "velocity": 80}, {"time": 37922, "pitch": 54, "duration": 471, "velocity": 90}, {"time": 37922, "pitch": 57, "duration": 471, "velocity": 95}, {"time": 37932, "pitch": 62, "duration": 461, "velocity": 100}, {"time": 37932, "pitch": 66, "duration": 461, "velocity": 105}, {"time": 38403, "pitch": 47, "duration": 465, "velocity": 95}, {"time": 38403, "pitch": 54, "duration": 158, "velocity": 90}, {"time": 38413, "pitch": 57, "duration": 148, "velocity": 95}, {"time": 38423, "pitch": 62, "duration": 138, "velocity": 100}, {"time": 38561, "pitch": 57, "duration": 70, "velocity": 85}, {"time": 38561, "pitch": 62, "duration": 79, "velocity": 90}, {"time": 38571, "pitch": 54, "duration": 60, "velocity": 80}, {"time": 38640, "pitch": 54, "duration": 228, "velocity": 85}, {"time": 38640, "pitch": 57, "duration": 228, "velocity": 90}, {"time": 38650, "pitch": 62, "duration": 218, "velocity": 95}, {"time": 38878, "pitch": 45, "duration": 471, "velocity": 95}, {"time": 38883, "pitch": 52, "duration": 466, "velocity": 90}, {"time": 38888, "pitch": 55, "duration": 461, "velocity": 95}, {"time": 38888, "pitch": 61, "duration": 461, "velocity": 105}, {"time": 38898, "pitch": 64, "duration": 451, "velocity": 95}, {"time": 39359, "pitch": 45, "duration": 1433, "velocity": 85}, {"time": 39364, "pitch": 55, "duration": 391, "velocity": 100}, {"time": 39369, "pitch": 61, "duration": 381, "velocity": 105}, {"time": 39369, "pitch": 64, "duration": 381, "velocity": 110}, {"time": 39760, "pitch": 61, "duration": 70, "velocity": 85}, {"time": 39760, "pitch": 64, "duration": 80, "velocity": 90}, {"time": 39770, "pitch": 52, "duration": 60, "velocity": 75}, {"time": 39770, "pitch": 55, "duration": 60, "velocity": 80}, {"time": 39840, "pitch": 52, "duration": 471, "velocity": 90}, {"time": 39840, "pitch": 55, "duration": 471, "velocity": 95}, {"time": 39850, "pitch": 61, "duration": 461, "velocity": 100}, {"time": 39850, "pitch": 64, "duration": 461, "velocity": 105}, {"time": 40321, "pitch": 52, "duration": 231, "velocity": 90}, {"time": 40321, "pitch": 55, "duration": 211, "velocity": 95}, {"time": 40341, "pitch": 61, "duration": 211, "velocity": 100}, {"time": 40562, "pitch": 50, "duration": 230, "velocity": 85}, {"time": 40562, "pitch": 55, "duration": 230, "velocity": 90}, {"time": 40572, "pitch": 59, "duration": 220, "velocity": 95}, {"time": 40802, "pitch": 45, "duration": 466, "velocity": 90}, {"time": 40807, "pitch": 52, "duration": 461, "velocity": 95}, {"time": 40812, "pitch": 55, "duration": 456, "velocity": 100}, {"time": 40812, "pitch": 61, "duration": 456, "velocity": 110}, {"time": 40822, "pitch": 64, "duration": 446, "velocity": 100}, {"time": 41278, "pitch": 45, "duration": 1433, "velocity": 90}, {"time": 41278, "pitch": 52, "duration": 391, "velocity": 100}, {"time": 41283, "pitch": 55, "duration": 391, "velocity": 105}, {"time": 41288, "pitch": 61, "duration": 381, "velocity": 110}, {"time": 41288, "pitch": 64, "duration": 381, "velocity": 115}, {"time": 41679, "pitch": 61, "duration": 70, "velocity": 90}, {"time": 41679, "pitch": 64, "duration": 80, "velocity": 95}, {"time": 41689, "pitch": 52, "duration": 60, "velocity": 80}, {"time": 41689, "pitch": 55, "duration": 60, "velocity": 85}, {"time": 41759, "pitch": 52, "duration": 471, "velocity": 95}, {"time": 41759, "pitch": 55, "duration": 471, "velocity": 100}, {"time": 41769, "pitch": 61, "duration": 461, "velocity": 105}, {"time": 41769, "pitch": 64, "duration": 461, "velocity": 110}, {"time": 42240, "pitch": 52, "duration": 160, "velocity": 95}, {"time": 42240, "pitch": 55, "duration": 160, "velocity": 100}, {"time": 42250, "pitch": 61, "duration": 150, "velocity": 105}, {"time": 42250, "pitch": 64, "duration": 140, "velocity": 115}, {"time": 42400, "pitch": 61, "duration": 70, "velocity": 95}, {"time": 42400, "pitch": 64, "duration": 80, "velocity": 100}, {"time": 42410, "pitch": 52, "duration": 60, "velocity": 85}, {"time": 42410, "pitch": 55, "duration": 60, "velocity": 90}, {"time": 42480, "pitch": 52, "duration": 161, "velocity": 95}, {"time": 42480, "pitch": 55, "duration": 161, "velocity": 100}, {"time": 42490, "pitch": 61, "duration": 151, "velocity": 105}, {"time": 42490, "pitch": 64, "duration": 141, "velocity": 115}, {"time": 42641, "pitch": 61, "duration": 70, "velocity": 95}, {"time": 42641, "pitch": 64, "duration": 70, "velocity": 100}, {"time": 42651, "pitch": 52, "duration": 60, "velocity": 85}, {"time": 42651, "pitch": 55, "duration": 60, "velocity": 90}, {"time": 42721, "pitch": 50, "duration": 241, "velocity": 95}, {"time": 42721, "pitch": 57, "duration": 241, "velocity": 105}, {"time": 42731, "pitch": 62, "duration": 221, "velocity": 105}, {"time": 42731, "pitch": 64, "duration": 221, "velocity": 110}, {"time": 42962, "pitch": 62, "duration": 240, "velocity": 95}, {"time": 42962, "pitch": 64, "duration": 240, "velocity": 100}, {"time": 42972, "pitch": 50, "duration": 220, "velocity": 85}, {"time": 42972, "pitch": 57, "duration": 220, "velocity": 90}, {"time": 43202, "pitch": 50, "duration": 158, "velocity": 100}, {"time": 43202, "pitch": 57, "duration": 158, "velocity": 105}, {"time": 43212, "pitch": 62, "duration": 148, "velocity": 110}, {"time": 43222, "pitch": 64, "duration": 138, "velocity": 115}, {"time": 43360, "pitch": 62, "duration": 80, "velocity": 90}, {"time": 43360, "pitch": 64, "duration": 80, "velocity": 95}, {"time": 43370, "pitch": 50, "duration": 60, "velocity": 80}, {"time": 43370, "pitch": 57, "duration": 60, "velocity": 85}, {"time": 43440, "pitch": 50, "duration": 227, "velocity": 90}, {"time": 43440, "pitch": 57, "duration": 227, "velocity": 95}, {"time": 43450, "pitch": 62, "duration": 227, "velocity": 100}, {"time": 43450, "pitch": 64, "duration": 227, "velocity": 105}, {"time": 43677, "pitch": 50, "duration": 241, "velocity": 95}, {"time": 43677, "pitch": 57, "duration": 241, "velocity": 105}, {"time": 43687, "pitch": 62, "duration": 221, "velocity": 105}, {"time": 43687, "pitch": 64, "duration": 221, "velocity": 110}, {"time": 43918, "pitch": 62, "duration": 240, "velocity": 95}, {"time": 43918, "pitch": 64, "duration": 240, "velocity": 100}, {"time": 43928, "pitch": 50, "duration": 220, "velocity": 85}, {"time": 43928, "pitch": 57, "duration": 220, "velocity": 90}, {"time": 44158, "pitch": 50, "duration": 161, "velocity": 100}, {"time": 44158, "pitch": 57, "duration": 161, "velocity": 105}, {"time": 44168, "pitch": 62, "duration": 151, "velocity": 110}, {"time": 44178, "pitch": 64, "duration": 141, "velocity": 115}, {"time": 44319, "pitch": 62, "duration": 80, "velocity": 90}, {"time": 44319, "pitch": 64, "duration": 80, "velocity": 95}, {"time": 44329, "pitch": 50, "duration": 60, "velocity": 80}, {"time": 44329, "pitch": 57, "duration": 60, "velocity": 85}, {"time": 44399, "pitch": 50, "duration": 230, "velocity": 90}, {"time": 44399, "pitch": 57, "duration": 230, "velocity": 95}, {"time": 44409, "pitch": 62, "duration": 230, "velocity": 100}, {"time": 44409, "pitch": 64, "duration": 230, "velocity": 105}, {"time": 44639, "pitch": 47, "duration": 472, "velocity": 90}, {"time": 44639, "pitch": 54, "duration": 241, "velocity": 95}, {"time": 44639, "pitch": 57, "duration": 241, "velocity": 105}, {"time": 44650, "pitch": 62, "duration": 220, "velocity": 105}, {"time": 44650, "pitch": 64, "duration": 220, "velocity": 110}, {"time": 44880, "pitch": 62, "duration": 241, "velocity": 95}, {"time": 44880, "pitch": 64, "duration": 241, "velocity": 100}, {"time": 44890, "pitch": 54, "duration": 221, "velocity": 85}, {"time": 44890, "pitch": 57, "duration": 221, "velocity": 90}, {"time": 45121, "pitch": 47, "duration": 471, "velocity": 95}, {"time": 45121, "pitch": 54, "duration": 160, "velocity": 100}, {"time": 45121, "pitch": 57, "duration": 160, "velocity": 105}, {"time": 45131, "pitch": 62, "duration": 150, "velocity": 110}, {"time": 45141, "pitch": 64, "duration": 140, "velocity": 115}, {"time": 45281, "pitch": 62, "duration": 80, "velocity": 90}, {"time": 45281, "pitch": 64, "duration": 80, "velocity": 95}, {"time": 45291, "pitch": 54, "duration": 60, "velocity": 80}, {"time": 45291, "pitch": 57, "duration": 60, "velocity": 85}, {"time": 45361, "pitch": 54, "duration": 231, "velocity": 90}, {"time": 45361, "pitch": 57, "duration": 231, "velocity": 95}, {"time": 45371, "pitch": 62, "duration": 231, "velocity": 100}, {"time": 45371, "pitch": 64, "duration": 231, "velocity": 105}, {"time": 45602, "pitch": 47, "duration": 471, "velocity": 90}, {"time": 45602, "pitch": 54, "duration": 240, "velocity": 95}, {"time": 45602, "pitch": 57, "duration": 240, "velocity": 105}, {"time": 45612, "pitch": 62, "duration": 220, "velocity": 105}, {"time": 45612, "pitch": 64, "duration": 220, "velocity": 110}, {"time": 45842, "pitch": 62, "duration": 241, "velocity": 95}, {"time": 45842, "pitch": 64, "duration": 241, "velocity": 100}, {"time": 45852, "pitch": 54, "duration": 221, "velocity": 85}, {"time": 45852, "pitch": 57, "duration": 221, "velocity": 90}, {"time": 46083, "pitch": 47, "duration": 465, "velocity": 95}, {"time": 46083, "pitch": 54, "duration": 158, "velocity": 100}, {"time": 46083, "pitch": 57, "duration": 158, "velocity": 105}, {"time": 46093, "pitch": 62, "duration": 148, "velocity": 110}, {"time": 46103, "pitch": 64, "duration": 138, "velocity": 115}, {"time": 46241, "pitch": 62, "duration": 79, "velocity": 90}, {"time": 46241, "pitch": 64, "duration": 79, "velocity": 95}, {"time": 46251, "pitch": 54, "duration": 59, "velocity": 80}, {"time": 46251, "pitch": 57, "duration": 59, "velocity": 85}, {"time": 46320, "pitch": 54, "duration": 228, "velocity": 90}, {"time": 46320, "pitch": 57, "duration": 228, "velocity": 95}, {"time": 46330, "pitch": 62, "duration": 228, "velocity": 100}, {"time": 46330, "pitch": 64, "duration": 228, "velocity": 105}, {"time": 46558, "pitch": 43, "duration": 471, "velocity": 90}, {"time": 46558, "pitch": 50, "duration": 241, "velocity": 95}, {"time": 46558, "pitch": 58, "duration": 241, "velocity": 105}, {"time": 46568, "pitch": 62, "duration": 221, "velocity": 105}, {"time": 46568, "pitch": 64, "duration": 221, "velocity": 110}, {"time": 46799, "pitch": 62, "duration": 240, "velocity": 95}, {"time": 46799, "pitch": 64, "duration": 240, "velocity": 100}, {"time": 46809, "pitch": 50, "duration": 220, "velocity": 85}, {"time": 46809, "pitch": 58, "duration": 220, "velocity": 90}, {"time": 47039, "pitch": 43, "duration": 471, "velocity": 95}, {"time": 47039, "pitch": 50, "duration": 160, "velocity": 100}, {"time": 47039, "pitch": 58, "duration": 160, "velocity": 105}, {"time": 47049, "pitch": 62, "duration": 150, "velocity": 110}, {"time": 47059, "pitch": 64, "duration": 140, "velocity": 115}, {"time": 47199, "pitch": 62, "duration": 81, "velocity": 90}, {"time": 47199, "pitch": 64, "duration": 81, "velocity": 95}, {"time": 47209, "pitch": 50, "duration": 61, "velocity": 80}, {"time": 47209, "pitch": 58, "duration": 61, "velocity": 85}, {"time": 47280, "pitch": 50, "duration": 230, "velocity": 90}, {"time": 47280, "pitch": 58, "duration": 230, "velocity": 95}, {"time": 47290, "pitch": 62, "duration": 230, "velocity": 100}, {"time": 47290, "pitch": 64, "duration": 230, "velocity": 105}, {"time": 47520, "pitch": 43, "duration": 471, "velocity": 90}, {"time": 47520, "pitch": 50, "duration": 241, "velocity": 95}, {"time": 47520, "pitch": 58, "duration": 241, "velocity": 105}, {"time": 47530, "pitch": 62, "duration": 221, "velocity": 105}, {"time": 47530, "pitch": 64, "duration": 221, "velocity": 110}, {"time": 47761, "pitch": 62, "duration": 240, "velocity": 95}, {"time": 47761, "pitch": 64, "duration": 240, "velocity": 100}, {"time": 47771, "pitch": 50, "duration": 220, "velocity": 85}, {"time": 47771, "pitch": 58, "duration": 220, "velocity": 90}, {"time": 48001, "pitch": 43, "duration": 471, "velocity": 95}, {"time": 48001, "pitch": 50, "duration": 161, "velocity": 100}, {"time": 48001, "pitch": 58, "duration": 161, "velocity": 105}, {"time": 48011, "pitch": 62, "duration": 151, "velocity": 110}, {"time": 48021, "pitch": 64, "duration": 141, "velocity": 115}, {"time": 48162, "pitch": 62, "duration": 80, "velocity": 90}, {"time": 48162, "pitch": 64, "duration": 80, "velocity": 95}, {"time": 48172, "pitch": 50, "duration": 60, "velocity": 80}, {"time": 48172, "pitch": 58, "duration": 60, "velocity": 85}, {"time": 48242, "pitch": 50, "duration": 230, "velocity": 90}, {"time": 48242, "pitch": 58, "duration": 230, "velocity": 95}, {"time": 48252, "pitch": 62, "duration": 230, "velocity": 100}, {"time": 48252, "pitch": 64, "duration": 230, "velocity": 105}, {"time": 48482, "pitch": 45, "duration": 466, "velocity": 90}, {"time": 48482, "pitch": 52, "duration": 238, "velocity": 95}, {"time": 48482, "pitch": 55, "duration": 238, "velocity": 105}, {"time": 48492, "pitch": 61, "duration": 218, "velocity": 105}, {"time": 48492, "pitch": 64, "duration": 218, "velocity": 110}, {"time": 48720, "pitch": 61, "duration": 238, "velocity": 95}, {"time": 48720, "pitch": 64, "duration": 238, "velocity": 100}, {"time": 48730, "pitch": 52, "duration": 218, "velocity": 85}, {"time": 48730, "pitch": 55, "duration": 218, "velocity": 90}, {"time": 48958, "pitch": 45, "duration": 471, "velocity": 95}, {"time": 48958, "pitch": 52, "duration": 160, "velocity": 100}, {"time": 48958, "pitch": 55, "duration": 160, "velocity": 105}, {"time": 48968, "pitch": 61, "duration": 150, "velocity": 110}, {"time": 48978, "pitch": 64, "duration": 140, "velocity": 115}, {"time": 49118, "pitch": 61, "duration": 80, "velocity": 90}, {"time": 49118, "pitch": 64, "duration": 80, "velocity": 95}, {"time": 49128, "pitch": 52, "duration": 60, "velocity": 80}, {"time": 49128, "pitch": 55, "duration": 60, "velocity": 85}, {"time": 49198, "pitch": 52, "duration": 231, "velocity": 90}, {"time": 49198, "pitch": 55, "duration": 231, "velocity": 95}, {"time": 49208, "pitch": 61, "duration": 231, "velocity": 100}, {"time": 49208, "pitch": 64, "duration": 231, "velocity": 105}, {"time": 49439, "pitch": 45, "duration": 471, "velocity": 90}, {"time": 49439, "pitch": 52, "duration": 240, "velocity": 95}, {"time": 49439, "pitch": 55, "duration": 240, "velocity": 105}, {"time": 49449, "pitch": 62, "duration": 220, "velocity": 105}, {"time": 49449, "pitch": 64, "duration": 220, "velocity": 110}, {"time": 49679, "pitch": 62, "duration": 241, "velocity": 95}, {"time": 49679, "pitch": 64, "duration": 241, "velocity": 100}, {"time": 49689, "pitch": 52, "duration": 221, "velocity": 85}, {"time": 49689, "pitch": 55, "duration": 221, "velocity": 90}, {"time": 49920, "pitch": 45, "duration": 471, "velocity": 95}, {"time": 49920, "pitch": 52, "duration": 160, "velocity": 100}, {"time": 49920, "pitch": 55, "duration": 160, "velocity": 105}, {"time": 49930, "pitch": 62, "duration": 150, "velocity": 115}, {"time": 49940, "pitch": 64, "duration": 140, "velocity": 110}, {"time": 50080, "pitch": 61, "duration": 80, "velocity": 90}, {"time": 50080, "pitch": 64, "duration": 80, "velocity": 95}, {"time": 50090, "pitch": 52, "duration": 60, "velocity": 80}, {"time": 50090, "pitch": 55, "duration": 60, "velocity": 85}, {"time": 50160, "pitch": 52, "duration": 231, "velocity": 90}, {"time": 50160, "pitch": 55, "duration": 231, "velocity": 95}, {"time": 50170, "pitch": 61, "duration": 231, "velocity": 105}, {"time": 50170, "pitch": 64, "duration": 231, "velocity": 100}, {"time": 50401, "pitch": 50, "duration": 240, "velocity": 95}, {"time": 50401, "pitch": 57, "duration": 240, "velocity": 105}, {"time": 50411, "pitch": 62, "duration": 220, "velocity": 105}, {"time": 50411, "pitch": 64, "duration": 220, "velocity": 110}, {"time": 50641, "pitch": 62, "duration": 241, "velocity": 95}, {"time": 50641, "pitch": 64, "duration": 241, "velocity": 100}, {"time": 50651, "pitch": 50, "duration": 221, "velocity": 85}, {"time": 50651, "pitch": 57, "duration": 221, "velocity": 90}, {"time": 50882, "pitch": 50, "duration": 158, "velocity": 100}, {"time": 50882, "pitch": 57, "duration": 158, "velocity": 105}, {"time": 50892, "pitch": 62, "duration": 148, "velocity": 110}, {"time": 50902, "pitch": 64, "duration": 138, "velocity": 115}, {"time": 51040, "pitch": 62, "duration": 80, "velocity": 90}, {"time": 51040, "pitch": 64, "duration": 80, "velocity": 95}, {"time": 51050, "pitch": 50, "duration": 60, "velocity": 80}, {"time": 51050, "pitch": 57, "duration": 60, "velocity": 85}, {"time": 51120, "pitch": 50, "duration": 227, "velocity": 90}, {"time": 51120, "pitch": 57, "duration": 227, "velocity": 95}, {"time": 51130, "pitch": 62, "duration": 227, "velocity": 100}, {"time": 51130, "pitch": 64, "duration": 227, "velocity": 105}, {"time": 51357, "pitch": 50, "duration": 241, "velocity": 95}, {"time": 51357, "pitch": 57, "duration": 241, "velocity": 105}, {"time": 51367, "pitch": 62, "duration": 221, "velocity": 105}, {"time": 51367, "pitch": 64, "duration": 221, "velocity": 110}, {"time": 51598, "pitch": 62, "duration": 240, "velocity": 95}, {"time": 51598, "pitch": 64, "duration": 240, "velocity": 100}, {"time": 51608, "pitch": 50, "duration": 220, "velocity": 85}, {"time": 51608, "pitch": 57, "duration": 220, "velocity": 90}, {"time": 51838, "pitch": 50, "duration": 161, "velocity": 100}, {"time": 51838, "pitch": 57, "duration": 161, "velocity": 105}, {"time": 51848, "pitch": 62, "duration": 151, "velocity": 110}, {"time": 51858, "pitch": 64, "duration": 141, "velocity": 115}, {"time": 51999, "pitch": 62, "duration": 80, "velocity": 90}, {"time": 51999, "pitch": 64, "duration": 80, "velocity": 95}, {"time": 52009, "pitch": 50, "duration": 60, "velocity": 80}, {"time": 52009, "pitch": 57, "duration": 60, "velocity": 85}, {"time": 52079, "pitch": 50, "duration": 230, "velocity": 90}, {"time": 52079, "pitch": 57, "duration": 230, "velocity": 95}, {"time": 52089, "pitch": 62, "duration": 230, "velocity": 100}, {"time": 52089, "pitch": 64, "duration": 230, "velocity": 105}, {"time": 52319, "pitch": 47, "duration": 471, "velocity": 90}, {"time": 52319, "pitch": 54, "duration": 241, "velocity": 95}, {"time": 52319, "pitch": 57, "duration": 241, "velocity": 105}, {"time": 52329, "pitch": 62, "duration": 221, "velocity": 105}, {"time": 52329, "pitch": 64, "duration": 221, "velocity": 110}, {"time": 52560, "pitch": 62, "duration": 241, "velocity": 95}, {"time": 52560, "pitch": 64, "duration": 241, "velocity": 100}, {"time": 52570, "pitch": 54, "duration": 220, "velocity": 85}, {"time": 52570, "pitch": 57, "duration": 220, "velocity": 90}, {"time": 52801, "pitch": 47, "duration": 471, "velocity": 95}, {"time": 52801, "pitch": 54, "duration": 160, "velocity": 100}, {"time": 52801, "pitch": 57, "duration": 160, "velocity": 105}, {"time": 52811, "pitch": 62, "duration": 150, "velocity": 110}, {"time": 52821, "pitch": 64, "duration": 140, "velocity": 115}, {"time": 52961, "pitch": 62, "duration": 80, "velocity": 90}, {"time": 52961, "pitch": 64, "duration": 80, "velocity": 95}, {"time": 52971, "pitch": 54, "duration": 60, "velocity": 80}, {"time": 52971, "pitch": 57, "duration": 60, "velocity": 85}, {"time": 53041, "pitch": 54, "duration": 231, "velocity": 90}, {"time": 53041, "pitch": 57, "duration": 231, "velocity": 95}, {"time": 53051, "pitch": 62, "duration": 231, "velocity": 100}, {"time": 53051, "pitch": 64, "duration": 231, "velocity": 105}, {"time": 53282, "pitch": 47, "duration": 471, "velocity": 90}, {"time": 53282, "pitch": 54, "duration": 240, "velocity": 95}, {"time": 53282, "pitch": 57, "duration": 240, "velocity": 105}, {"time": 53292, "pitch": 62, "duration": 220, "velocity": 105}, {"time": 53292, "pitch": 64, "duration": 220, "velocity": 110}, {"time": 53522, "pitch": 62, "duration": 241, "velocity": 95}, {"time": 53522, "pitch": 64, "duration": 241, "velocity": 100}, {"time": 53532, "pitch": 54, "duration": 221, "velocity": 85}, {"time": 53532, "pitch": 57, "duration": 221, "velocity": 90}, {"time": 53763, "pitch": 47, "duration": 465, "velocity": 95}, {"time": 53763, "pitch": 54, "duration": 158, "velocity": 100}, {"time": 53763, "pitch": 57, "duration": 158, "velocity": 105}, {"time": 53773, "pitch": 62, "duration": 148, "velocity": 110}, {"time": 53782, "pitch": 64, "duration": 139, "velocity": 115}, {"time": 53921, "pitch": 62, "duration": 79, "velocity": 90}, {"time": 53921, "pitch": 64, "duration": 79, "velocity": 95}, {"time": 53931, "pitch": 54, "duration": 59, "velocity": 80}, {"time": 53931, "pitch": 57, "duration": 59, "velocity": 85}, {"time": 54000, "pitch": 54, "duration": 228, "velocity": 90}, {"time": 54000, "pitch": 57, "duration": 228, "velocity": 95}, {"time": 54010, "pitch": 62, "duration": 228, "velocity": 100}, {"time": 54010, "pitch": 64, "duration": 228, "velocity": 105}, {"time": 54238, "pitch": 43, "duration": 471, "velocity": 90}, {"time": 54238, "pitch": 50, "duration": 240, "velocity": 95}, {"time": 54238, "pitch": 58, "duration": 240, "velocity": 105}, {"time": 54248, "pitch": 62, "duration": 220, "velocity": 110}, {"time": 54248, "pitch": 67, "duration": 220, "velocity": 100}, {"time": 54478, "pitch": 62, "duration": 241, "velocity": 100}, {"time": 54478, "pitch": 67, "duration": 241, "velocity": 95}, {"time": 54488, "pitch": 50, "duration": 221, "velocity": 85}, {"time": 54488, "pitch": 58, "duration": 221, "velocity": 90}, {"time": 54719, "pitch": 43, "duration": 471, "velocity": 95}, {"time": 54719, "pitch": 50, "duration": 160, "velocity": 100}, {"time": 54719, "pitch": 58, "duration": 160, "velocity": 105}, {"time": 54729, "pitch": 62, "duration": 150, "velocity": 115}, {"time": 54739, "pitch": 67, "duration": 140, "velocity": 110}, {"time": 54879, "pitch": 62, "duration": 81, "velocity": 90}, {"time": 54879, "pitch": 67, "duration": 81, "velocity": 95}, {"time": 54889, "pitch": 50, "duration": 61, "velocity": 80}, {"time": 54889, "pitch": 58, "duration": 61, "velocity": 85}, {"time": 54960, "pitch": 50, "duration": 230, "velocity": 90}, {"time": 54960, "pitch": 58, "duration": 230, "velocity": 95}, {"time": 54970, "pitch": 62, "duration": 230, "velocity": 100}, {"time": 54970, "pitch": 67, "duration": 230, "velocity": 105}, {"time": 55200, "pitch": 45, "duration": 471, "velocity": 90}, {"time": 55200, "pitch": 55, "duration": 471, "velocity": 95}, {"time": 55205, "pitch": 59, "duration": 461, "velocity": 105}, {"time": 55210, "pitch": 62, "duration": 461, "velocity": 105}, {"time": 55210, "pitch": 67, "duration": 461, "velocity": 110}, {"time": 55681, "pitch": 45, "duration": 471, "velocity": 90}, {"time": 55681, "pitch": 52, "duration": 471, "velocity": 95}, {"time": 55686, "pitch": 55, "duration": 461, "velocity": 105}, {"time": 55696, "pitch": 61, "duration": 451, "velocity": 105}, {"time": 55711, "pitch": 66, "duration": 441, "velocity": 110}, {"time": 56162, "pitch": 50, "duration": 1909, "velocity": 95}, {"time": 56177, "pitch": 57, "duration": 1889, "velocity": 105}, {"time": 56187, "pitch": 62, "duration": 1879, "velocity": 105}, {"time": 56202, "pitch": 64, "duration": 1869, "velocity": 110}, {"time": 58081, "pitch": 48, "duration": 1908, "velocity": 95}, {"time": 58096, "pitch": 57, "duration": 1888, "velocity": 105}, {"time": 58106, "pitch": 62, "duration": 1878, "velocity": 105}, {"time": 58121, "pitch": 64, "duration": 1868, "velocity": 110}, {"time": 59999, "pitch": 47, "duration": 1909, "velocity": 95}, {"time": 60014, "pitch": 57, "duration": 1889, "velocity": 105}, {"time": 60024, "pitch": 62, "duration": 1879, "velocity": 105}, {"time": 60039, "pitch": 64, "duration": 1869, "velocity": 110}, {"time": 61918, "pitch": 43, "duration": 120, "velocity": 90}, {"time": 61918, "pitch": 53, "duration": 120, "velocity": 95}, {"time": 61928, "pitch": 58, "duration": 110, "velocity": 100}, {"time": 61928, "pitch": 62, "duration": 110, "velocity": 105}, {"time": 62158, "pitch": 43, "duration": 231, "velocity": 90}, {"time": 62158, "pitch": 53, "duration": 231, "velocity": 95}, {"time": 62168, "pitch": 58, "duration": 221, "velocity": 100}, {"time": 62168, "pitch": 62, "duration": 221, "velocity": 105}, {"time": 62639, "pitch": 45, "duration": 1193, "velocity": 80}, {"time": 62639, "pitch": 55, "duration": 1193, "velocity": 95}, {"time": 62650, "pitch": 59, "duration": 1182, "velocity": 100}, {"time": 62650, "pitch": 62, "duration": 1182, "velocity": 105}, {"time": 63842, "pitch": 50, "duration": 947, "velocity": 110}, {"time": 64080, "pitch": 57, "duration": 228, "velocity": 98}, {"time": 64317, "pitch": 57, "duration": 161, "velocity": 100}, {"time": 64317, "pitch": 62, "duration": 151, "velocity": 105}, {"time": 64327, "pitch": 64, "duration": 141, "velocity": 110}, {"time": 64478, "pitch": 62, "duration": 70, "velocity": 95}, {"time": 64478, "pitch": 64, "duration": 80, "velocity": 100}, {"time": 64488, "pitch": 57, "duration": 60, "velocity": 90}, {"time": 64558, "pitch": 57, "duration": 471, "velocity": 95}, {"time": 64558, "pitch": 62, "duration": 712, "velocity": 100}, {"time": 64568, "pitch": 64, "duration": 702, "velocity": 105}, {"time": 64799, "pitch": 48, "duration": 952, "velocity": 110}, {"time": 65039, "pitch": 57, "duration": 231, "velocity": 98}, {"time": 65280, "pitch": 57, "duration": 160, "velocity": 100}, {"time": 65280, "pitch": 62, "duration": 150, "velocity": 105}, {"time": 65290, "pitch": 64, "duration": 140, "velocity": 110}, {"time": 65440, "pitch": 62, "duration": 70, "velocity": 95}, {"time": 65440, "pitch": 64, "duration": 80, "velocity": 100}, {"time": 65450, "pitch": 57, "duration": 60, "velocity": 90}, {"time": 65520, "pitch": 57, "duration": 471, "velocity": 95}, {"time": 65520, "pitch": 62, "duration": 712, "velocity": 105}, {"time": 65530, "pitch": 64, "duration": 702, "velocity": 100}, {"time": 65761, "pitch": 47, "duration": 952, "velocity": 110}, {"time": 66001, "pitch": 57, "duration": 231, "velocity": 98}, {"time": 66242, "pitch": 57, "duration": 160, "velocity": 100}, {"time": 66242, "pitch": 62, "duration": 150, "velocity": 110}, {"time": 66252, "pitch": 64, "duration": 140, "velocity": 105}, {"time": 66402, "pitch": 62, "duration": 70, "velocity": 95}, {"time": 66402, "pitch": 64, "duration": 80, "velocity": 100}, {"time": 66412, "pitch": 57, "duration": 60, "velocity": 90}, {"time": 66482, "pitch": 57, "duration": 469, "velocity": 95}, {"time": 66482, "pitch": 62, "duration": 706, "velocity": 100}, {"time": 66492, "pitch": 64, "duration": 696, "velocity": 105}, {"time": 66723, "pitch": 45, "duration": 946, "velocity": 110}, {"time": 66961, "pitch": 57, "duration": 227, "velocity": 98}, {"time": 67198, "pitch": 57, "duration": 161, "velocity": 100}, {"time": 67198, "pitch": 62, "duration": 150, "velocity": 105}, {"time": 67208, "pitch": 64, "duration": 140, "velocity": 110}, {"time": 67359, "pitch": 62, "duration": 70, "velocity": 95}, {"time": 67359, "pitch": 64, "duration": 80, "velocity": 100}, {"time": 67369, "pitch": 57, "duration": 60, "velocity": 90}, {"time": 67439, "pitch": 57, "duration": 230, "velocity": 95}, {"time": 67439, "pitch": 62, "duration": 230, "velocity": 105}, {"time": 67449, "pitch": 64, "duration": 220, "velocity": 100}, {"time": 67679, "pitch": 43, "duration": 1193, "velocity": 115}, {"time": 67920, "pitch": 57, "duration": 471, "velocity": 100}, {"time": 68160, "pitch": 62, "duration": 231, "velocity": 105}, {"time": 68401, "pitch": 57, "duration": 711, "velocity": 100}, {"time": 68401, "pitch": 62, "duration": 711, "velocity": 105}, {"time": 68411, "pitch": 64, "duration": 701, "velocity": 110}, {"time": 68882, "pitch": 43, "duration": 706, "velocity": 100}, {"time": 69122, "pitch": 50, "duration": 466, "velocity": 80}, {"time": 69122, "pitch": 57, "duration": 159, "velocity": 100}, {"time": 69127, "pitch": 62, "duration": 139, "velocity": 105}, {"time": 69132, "pitch": 64, "duration": 139, "velocity": 110}, {"time": 69281, "pitch": 62, "duration": 69, "velocity": 95}, {"time": 69281, "pitch": 64, "duration": 79, "velocity": 100}, {"time": 69291, "pitch": 57, "duration": 59, "velocity": 90}, {"time": 69360, "pitch": 57, "duration": 228, "velocity": 95}, {"time": 69360, "pitch": 62, "duration": 228, "velocity": 105}, {"time": 69370, "pitch": 64, "duration": 218, "velocity": 100}, {"time": 69598, "pitch": 43, "duration": 1192, "velocity": 115}, {"time": 69838, "pitch": 58, "duration": 471, "velocity": 100}, {"time": 70079, "pitch": 62, "duration": 230, "velocity": 105}, {"time": 70319, "pitch": 58, "duration": 712, "velocity": 100}, {"time": 70319, "pitch": 62, "duration": 712, "velocity": 105}, {"time": 70329, "pitch": 64, "duration": 702, "velocity": 110}, {"time": 70800, "pitch": 43, "duration": 712, "velocity": 100}, {"time": 71041, "pitch": 50, "duration": 471, "velocity": 80}, {"time": 71041, "pitch": 58, "duration": 160, "velocity": 100}, {"time": 71046, "pitch": 62, "duration": 140, "velocity": 105}, {"time": 71051, "pitch": 64, "duration": 140, "velocity": 110}, {"time": 71201, "pitch": 62, "duration": 71, "velocity": 95}, {"time": 71201, "pitch": 64, "duration": 81, "velocity": 100}, {"time": 71211, "pitch": 58, "duration": 61, "velocity": 90}, {"time": 71282, "pitch": 58, "duration": 230, "velocity": 90}, {"time": 71282, "pitch": 62, "duration": 230, "velocity": 95}, {"time": 71292, "pitch": 64, "duration": 220, "velocity": 100}, {"time": 71522, "pitch": 50, "duration": 1187, "velocity": 115}, {"time": 71760, "pitch": 57, "duration": 468, "velocity": 100}, {"time": 71997, "pitch": 62, "duration": 231, "velocity": 105}, {"time": 72238, "pitch": 57, "duration": 712, "velocity": 100}, {"time": 72238, "pitch": 62, "duration": 712, "velocity": 105}, {"time": 72248, "pitch": 64, "duration": 702, "velocity": 110}, {"time": 72960, "pitch": 50, "duration": 471, "velocity": 80}, {"time": 72960, "pitch": 57, "duration": 160, "velocity": 100}, {"time": 72965, "pitch": 62, "duration": 140, "velocity": 105}, {"time": 72970, "pitch": 64, "duration": 140, "velocity": 110}, {"time": 73120, "pitch": 62, "duration": 70, "velocity": 95}, {"time": 73120, "pitch": 64, "duration": 80, "velocity": 100}, {"time": 73130, "pitch": 57, "duration": 60, "velocity": 90}, {"time": 73200, "pitch": 57, "duration": 231, "velocity": 95}, {"time": 73200, "pitch": 62, "duration": 231, "velocity": 105}, {"time": 73210, "pitch": 64, "duration": 221, "velocity": 100}, {"time": 73441, "pitch": 50, "duration": 1190, "velocity": 115}, {"time": 73681, "pitch": 57, "duration": 231, "velocity": 100}, {"time": 73922, "pitch": 57, "duration": 230, "velocity": 105}, {"time": 73922, "pitch": 62, "duration": 230, "velocity": 110}, {"time": 73932, "pitch": 67, "duration": 220, "velocity": 115}, {"time": 74162, "pitch": 57, "duration": 1187, "velocity": 105}, {"time": 74162, "pitch": 62, "duration": 1187, "velocity": 110}, {"time": 74172, "pitch": 66, "duration": 696, "velocity": 115}, {"time": 74640, "pitch": 50, "duration": 709, "velocity": 100}, {"time": 75359, "pitch": 50, "duration": 952, "velocity": 110}, {"time": 75600, "pitch": 57, "duration": 230, "velocity": 98}, {"time": 75840, "pitch": 57, "duration": 161, "velocity": 100}, {"time": 75840, "pitch": 62, "duration": 151, "velocity": 105}, {"time": 75850, "pitch": 64, "duration": 141, "velocity": 110}, {"time": 76001, "pitch": 62, "duration": 70, "velocity": 95}, {"time": 76001, "pitch": 64, "duration": 80, "velocity": 100}, {"time": 76011, "pitch": 57, "duration": 60, "velocity": 90}, {"time": 76081, "pitch": 57, "duration": 471, "velocity": 95}, {"time": 76081, "pitch": 62, "duration": 711, "velocity": 100}, {"time": 76091, "pitch": 64, "duration": 701, "velocity": 105}, {"time": 76321, "pitch": 48, "duration": 947, "velocity": 110}, {"time": 76562, "pitch": 57, "duration": 230, "velocity": 98}, {"time": 76802, "pitch": 57, "duration": 159, "velocity": 100}, {"time": 76802, "pitch": 62, "duration": 149, "velocity": 105}, {"time": 76812, "pitch": 64, "duration": 139, "velocity": 110}, {"time": 76961, "pitch": 62, "duration": 69, "velocity": 95}, {"time": 76961, "pitch": 64, "duration": 79, "velocity": 100}, {"time": 76971, "pitch": 57, "duration": 59, "velocity": 90}, {"time": 77040, "pitch": 57, "duration": 468, "velocity": 95}, {"time": 77040, "pitch": 62, "duration": 709, "velocity": 105}, {"time": 77050, "pitch": 64, "duration": 699, "velocity": 100}, {"time": 77278, "pitch": 47, "duration": 952, "velocity": 110}, {"time": 77518, "pitch": 57, "duration": 231, "velocity": 98}, {"time": 77759, "pitch": 57, "duration": 160, "velocity": 100}, {"time": 77759, "pitch": 62, "duration": 150, "velocity": 110}, {"time": 77769, "pitch": 64, "duration": 140, "velocity": 105}, {"time": 77919, "pitch": 62, "duration": 70, "velocity": 95}, {"time": 77919, "pitch": 64, "duration": 80, "velocity": 100}, {"time": 77929, "pitch": 57, "duration": 60, "velocity": 90}, {"time": 77999, "pitch": 57, "duration": 471, "velocity": 95}, {"time": 77999, "pitch": 62, "duration": 712, "velocity": 100}, {"time": 78009, "pitch": 64, "duration": 702, "velocity": 105}, {"time": 78240, "pitch": 45, "duration": 952, "velocity": 110}, {"time": 78480, "pitch": 57, "duration": 231, "velocity": 98}, {"time": 78721, "pitch": 57, "duration": 160, "velocity": 100}, {"time": 78721, "pitch": 62, "duration": 150, "velocity": 105}, {"time": 78731, "pitch": 64, "duration": 140, "velocity": 110}, {"time": 78881, "pitch": 62, "duration": 70, "velocity": 95}, {"time": 78881, "pitch": 64, "duration": 80, "velocity": 100}, {"time": 78891, "pitch": 57, "duration": 60, "velocity": 90}, {"time": 78961, "pitch": 57, "duration": 231, "velocity": 95}, {"time": 78961, "pitch": 62, "duration": 231, "velocity": 105}, {"time": 78972, "pitch": 64, "duration": 220, "velocity": 100}, {"time": 79202, "pitch": 43, "duration": 1187, "velocity": 115}, {"time": 79440, "pitch": 50, "duration": 1189, "velocity": 100}, {"time": 79677, "pitch": 58, "duration": 231, "velocity": 105}, {"time": 79918, "pitch": 58, "duration": 711, "velocity": 100}, {"time": 79918, "pitch": 62, "duration": 711, "velocity": 105}, {"time": 79928, "pitch": 64, "duration": 701, "velocity": 110}, {"time": 80399, "pitch": 43, "duration": 712, "velocity": 100}, {"time": 80639, "pitch": 50, "duration": 472, "velocity": 80}, {"time": 80639, "pitch": 58, "duration": 161, "velocity": 100}, {"time": 80644, "pitch": 62, "duration": 141, "velocity": 105}, {"time": 80649, "pitch": 64, "duration": 141, "velocity": 110}, {"time": 80800, "pitch": 62, "duration": 70, "velocity": 95}, {"time": 80800, "pitch": 64, "duration": 80, "velocity": 100}, {"time": 80810, "pitch": 58, "duration": 60, "velocity": 90}, {"time": 80880, "pitch": 58, "duration": 231, "velocity": 95}, {"time": 80880, "pitch": 62, "duration": 231, "velocity": 105}, {"time": 80890, "pitch": 64, "duration": 221, "velocity": 100}, {"time": 81121, "pitch": 43, "duration": 1189, "velocity": 115}, {"time": 81361, "pitch": 50, "duration": 1187, "velocity": 100}, {"time": 81602, "pitch": 58, "duration": 230, "velocity": 105}, {"time": 81842, "pitch": 58, "duration": 706, "velocity": 100}, {"time": 81842, "pitch": 62, "duration": 706, "velocity": 105}, {"time": 81852, "pitch": 64, "duration": 696, "velocity": 110}, {"time": 82320, "pitch": 43, "duration": 709, "velocity": 100}, {"time": 82558, "pitch": 50, "duration": 471, "velocity": 80}, {"time": 82558, "pitch": 58, "duration": 160, "velocity": 100}, {"time": 82563, "pitch": 62, "duration": 140, "velocity": 105}, {"time": 82568, "pitch": 64, "duration": 140, "velocity": 110}, {"time": 82718, "pitch": 62, "duration": 71, "velocity": 95}, {"time": 82718, "pitch": 64, "duration": 81, "velocity": 100}, {"time": 82728, "pitch": 58, "duration": 61, "velocity": 90}, {"time": 82799, "pitch": 58, "duration": 230, "velocity": 90}, {"time": 82799, "pitch": 62, "duration": 230, "velocity": 95}, {"time": 82809, "pitch": 64, "duration": 220, "velocity": 100}, {"time": 83039, "pitch": 50, "duration": 1193, "velocity": 115}, {"time": 83280, "pitch": 57, "duration": 230, "velocity": 100}, {"time": 83520, "pitch": 57, "duration": 231, "velocity": 95}, {"time": 83525, "pitch": 62, "duration": 221, "velocity": 105}, {"time": 83530, "pitch": 66, "duration": 221, "velocity": 100}, {"time": 83761, "pitch": 57, "duration": 711, "velocity": 105}, {"time": 83761, "pitch": 62, "duration": 711, "velocity": 110}, {"time": 83771, "pitch": 64, "duration": 701, "velocity": 115}, {"time": 84482, "pitch": 50, "duration": 466, "velocity": 80}, {"time": 84482, "pitch": 57, "duration": 159, "velocity": 100}, {"time": 84487, "pitch": 62, "duration": 139, "velocity": 105}, {"time": 84492, "pitch": 64, "duration": 139, "velocity": 110}, {"time": 84641, "pitch": 62, "duration": 69, "velocity": 95}, {"time": 84641, "pitch": 64, "duration": 79, "velocity": 100}, {"time": 84651, "pitch": 57, "duration": 59, "velocity": 90}, {"time": 84720, "pitch": 57, "duration": 228, "velocity": 95}, {"time": 84720, "pitch": 62, "duration": 228, "velocity": 105}, {"time": 84730, "pitch": 64, "duration": 218, "velocity": 100}, {"time": 84958, "pitch": 50, "duration": 1192, "velocity": 115}, {"time": 85198, "pitch": 57, "duration": 231, "velocity": 100}, {"time": 85439, "pitch": 57, "duration": 230, "velocity": 105}, {"time": 85439, "pitch": 62, "duration": 230, "velocity": 110}, {"time": 85449, "pitch": 67, "duration": 220, "velocity": 115}, {"time": 85679, "pitch": 57, "duration": 702, "velocity": 105}, {"time": 85679, "pitch": 62, "duration": 702, "velocity": 110}, {"time": 85689, "pitch": 66, "duration": 702, "velocity": 115}, {"time": 86160, "pitch": 45, "duration": 241, "velocity": 105}, {"time": 86401, "pitch": 50, "duration": 160, "velocity": 120}, {"time": 86561, "pitch": 50, "duration": 80, "velocity": 115}, {"time": 86641, "pitch": 49, "duration": 161, "velocity": 105}, {"time": 86882, "pitch": 47, "duration": 946, "velocity": 110}, {"time": 87120, "pitch": 54, "duration": 227, "velocity": 98}, {"time": 87357, "pitch": 54, "duration": 401, "velocity": 100}, {"time": 87357, "pitch": 57, "duration": 391, "velocity": 105}, {"time": 87367, "pitch": 62, "duration": 381, "velocity": 110}, {"time": 87758, "pitch": 57, "duration": 70, "velocity": 95}, {"time": 87758, "pitch": 62, "duration": 80, "velocity": 100}, {"time": 87768, "pitch": 54, "duration": 60, "velocity": 90}, {"time": 87838, "pitch": 47, "duration": 952, "velocity": 85}, {"time": 87838, "pitch": 54, "duration": 471, "velocity": 80}, {"time": 87848, "pitch": 57, "duration": 461, "velocity": 95}, {"time": 87848, "pitch": 62, "duration": 461, "velocity": 100}, {"time": 88319, "pitch": 54, "duration": 161, "velocity": 95}, {"time": 88319, "pitch": 57, "duration": 151, "velocity": 100}, {"time": 88329, "pitch": 62, "duration": 141, "velocity": 105}, {"time": 88480, "pitch": 57, "duration": 70, "velocity": 90}, {"time": 88480, "pitch": 62, "duration": 80, "velocity": 95}, {"time": 88490, "pitch": 54, "duration": 60, "velocity": 85}, {"time": 88560, "pitch": 54, "duration": 230, "velocity": 85}, {"time": 88560, "pitch": 57, "duration": 230, "velocity": 90}, {"time": 88570, "pitch": 62, "duration": 220, "velocity": 95}, {"time": 88800, "pitch": 45, "duration": 953, "velocity": 110}, {"time": 89041, "pitch": 52, "duration": 231, "velocity": 98}, {"time": 89282, "pitch": 52, "duration": 400, "velocity": 100}, {"time": 89282, "pitch": 57, "duration": 390, "velocity": 105}, {"time": 89292, "pitch": 61, "duration": 380, "velocity": 110}, {"time": 89682, "pitch": 57, "duration": 71, "velocity": 95}, {"time": 89682, "pitch": 61, "duration": 81, "velocity": 100}, {"time": 89692, "pitch": 52, "duration": 61, "velocity": 90}, {"time": 89763, "pitch": 45, "duration": 705, "velocity": 85}, {"time": 89763, "pitch": 52, "duration": 465, "velocity": 80}, {"time": 89773, "pitch": 57, "duration": 455, "velocity": 95}, {"time": 89773, "pitch": 61, "duration": 455, "velocity": 100}, {"time": 90238, "pitch": 52, "duration": 160, "velocity": 95}, {"time": 90238, "pitch": 57, "duration": 150, "velocity": 100}, {"time": 90248, "pitch": 61, "duration": 140, "velocity": 105}, {"time": 90398, "pitch": 57, "duration": 70, "velocity": 90}, {"time": 90398, "pitch": 61, "duration": 80, "velocity": 95}, {"time": 90408, "pitch": 52, "duration": 60, "velocity": 85}, {"time": 90478, "pitch": 52, "duration": 101, "velocity": 85}, {"time": 90478, "pitch": 57, "duration": 101, "velocity": 90}, {"time": 90488, "pitch": 61, "duration": 91, "velocity": 95}, {"time": 90719, "pitch": 43, "duration": 1899, "velocity": 100}, {"time": 90724, "pitch": 50, "duration": 466, "velocity": 90}, {"time": 90729, "pitch": 55, "duration": 461, "velocity": 95}, {"time": 90739, "pitch": 59, "duration": 451, "velocity": 100}, {"time": 90749, "pitch": 67, "duration": 441, "velocity": 95}, {"time": 91200, "pitch": 50, "duration": 471, "velocity": 95}, {"time": 91200, "pitch": 55, "duration": 401, "velocity": 100}, {"time": 91210, "pitch": 59, "duration": 381, "velocity": 105}, {"time": 91210, "pitch": 67, "duration": 381, "velocity": 110}, {"time": 91601, "pitch": 59, "duration": 70, "velocity": 85}, {"time": 91601, "pitch": 67, "duration": 80, "velocity": 90}, {"time": 91611, "pitch": 55, "duration": 60, "velocity": 80}, {"time": 91681, "pitch": 50, "duration": 471, "velocity": 90}, {"time": 91681, "pitch": 55, "duration": 471, "velocity": 95}, {"time": 91691, "pitch": 59, "duration": 461, "velocity": 100}, {"time": 91691, "pitch": 67, "duration": 461, "velocity": 105}, {"time": 92162, "pitch": 50, "duration": 466, "velocity": 85}, {"time": 92162, "pitch": 55, "duration": 159, "velocity": 95}, {"time": 92172, "pitch": 59, "duration": 149, "velocity": 100}, {"time": 92182, "pitch": 67, "duration": 139, "velocity": 105}, {"time": 92321, "pitch": 59, "duration": 69, "velocity": 88}, {"time": 92321, "pitch": 67, "duration": 79, "velocity": 90}, {"time": 92331, "pitch": 55, "duration": 59, "velocity": 80}, {"time": 92400, "pitch": 55, "duration": 228, "velocity": 85}, {"time": 92400, "pitch": 59, "duration": 228, "velocity": 90}, {"time": 92410, "pitch": 67, "duration": 218, "velocity": 95}, {"time": 92638, "pitch": 50, "duration": 471, "velocity": 90}, {"time": 92643, "pitch": 57, "duration": 466, "velocity": 95}, {"time": 92648, "pitch": 62, "duration": 461, "velocity": 100}, {"time": 92658, "pitch": 66, "duration": 451, "velocity": 105}, {"time": 93119, "pitch": 50, "duration": 471, "velocity": 95}, {"time": 93119, "pitch": 57, "duration": 401, "velocity": 100}, {"time": 93129, "pitch": 62, "duration": 380, "velocity": 105}, {"time": 93129, "pitch": 66, "duration": 380, "velocity": 110}, {"time": 93520, "pitch": 62, "duration": 70, "velocity": 90}, {"time": 93520, "pitch": 66, "duration": 80, "velocity": 95}, {"time": 93530, "pitch": 57, "duration": 60, "velocity": 85}, {"time": 93600, "pitch": 50, "duration": 471, "velocity": 95}, {"time": 93600, "pitch": 57, "duration": 140, "velocity": 105}, {"time": 93605, "pitch": 62, "duration": 140, "velocity": 105}, {"time": 93610, "pitch": 67, "duration": 130, "velocity": 110}, {"time": 93840, "pitch": 57, "duration": 231, "velocity": 105}, {"time": 93840, "pitch": 62, "duration": 231, "velocity": 105}, {"time": 93850, "pitch": 66, "duration": 221, "velocity": 110}, {"time": 94081, "pitch": 50, "duration": 471, "velocity": 85}, {"time": 94081, "pitch": 57, "duration": 160, "velocity": 100}, {"time": 94081, "pitch": 62, "duration": 150, "velocity": 105}, {"time": 94091, "pitch": 66, "duration": 140, "velocity": 110}, {"time": 94241, "pitch": 62, "duration": 70, "velocity": 95}, {"time": 94241, "pitch": 64, "duration": 80, "velocity": 105}, {"time": 94251, "pitch": 57, "duration": 60, "velocity": 90}, {"time": 94321, "pitch": 57, "duration": 231, "velocity": 95}, {"time": 94321, "pitch": 62, "duration": 231, "velocity": 100}, {"time": 94331, "pitch": 64, "duration": 221, "velocity": 105}, {"time": 94562, "pitch": 40, "duration": 1898, "velocity": 100}, {"time": 94567, "pitch": 52, "duration": 460, "velocity": 90}, {"time": 94572, "pitch": 55, "duration": 455, "velocity": 95}, {"time": 94582, "pitch": 59, "duration": 445, "velocity": 100}, {"time": 94592, "pitch": 64, "duration": 435, "velocity": 95}, {"time": 95037, "pitch": 52, "duration": 471, "velocity": 95}, {"time": 95037, "pitch": 55, "duration": 401, "velocity": 100}, {"time": 95047, "pitch": 59, "duration": 381, "velocity": 105}, {"time": 95047, "pitch": 64, "duration": 381, "velocity": 110}, {"time": 95438, "pitch": 59, "duration": 70, "velocity": 85}, {"time": 95438, "pitch": 64, "duration": 80, "velocity": 90}, {"time": 95448, "pitch": 55, "duration": 60, "velocity": 80}, {"time": 95518, "pitch": 52, "duration": 471, "velocity": 90}, {"time": 95518, "pitch": 55, "duration": 471, "velocity": 95}, {"time": 95528, "pitch": 59, "duration": 461, "velocity": 100}, {"time": 95528, "pitch": 64, "duration": 461, "velocity": 105}, {"time": 95999, "pitch": 52, "duration": 471, "velocity": 80}, {"time": 95999, "pitch": 55, "duration": 161, "velocity": 90}, {"time": 96009, "pitch": 59, "duration": 151, "velocity": 95}, {"time": 96019, "pitch": 64, "duration": 141, "velocity": 100}, {"time": 96160, "pitch": 59, "duration": 70, "velocity": 88}, {"time": 96160, "pitch": 64, "duration": 80, "velocity": 90}, {"time": 96170, "pitch": 55, "duration": 60, "velocity": 80}, {"time": 96240, "pitch": 55, "duration": 230, "velocity": 85}, {"time": 96240, "pitch": 59, "duration": 230, "velocity": 90}, {"time": 96250, "pitch": 64, "duration": 220, "velocity": 95}, {"time": 96480, "pitch": 47, "duration": 943, "velocity": 105}, {"time": 96485, "pitch": 54, "duration": 466, "velocity": 90}, {"time": 96490, "pitch": 57, "duration": 461, "velocity": 95}, {"time": 96500, "pitch": 62, "duration": 451, "velocity": 100}, {"time": 96961, "pitch": 57, "duration": 401, "velocity": 100}, {"time": 96972, "pitch": 62, "duration": 380, "velocity": 105}, {"time": 96972, "pitch": 66, "duration": 380, "velocity": 110}, {"time": 97362, "pitch": 62, "duration": 71, "velocity": 85}, {"time": 97362, "pitch": 66, "duration": 81, "velocity": 90}, {"time": 97372, "pitch": 54, "duration": 61, "velocity": 75}, {"time": 97372, "pitch": 57, "duration": 61, "velocity": 80}, {"time": 97443, "pitch": 54, "duration": 465, "velocity": 90}, {"time": 97443, "pitch": 57, "duration": 465, "velocity": 95}, {"time": 97452, "pitch": 62, "duration": 456, "velocity": 100}, {"time": 97452, "pitch": 66, "duration": 456, "velocity": 105}, {"time": 97918, "pitch": 47, "duration": 471, "velocity": 95}, {"time": 97918, "pitch": 54, "duration": 160, "velocity": 90}, {"time": 97928, "pitch": 57, "duration": 150, "velocity": 95}, {"time": 97938, "pitch": 62, "duration": 140, "velocity": 100}, {"time": 98078, "pitch": 57, "duration": 70, "velocity": 85}, {"time": 98078, "pitch": 62, "duration": 80, "velocity": 90}, {"time": 98088, "pitch": 54, "duration": 60, "velocity": 80}, {"time": 98158, "pitch": 54, "duration": 81, "velocity": 85}, {"time": 98158, "pitch": 57, "duration": 81, "velocity": 90}, {"time": 98168, "pitch": 62, "duration": 71, "velocity": 95}, {"time": 98399, "pitch": 45, "duration": 471, "velocity": 95}, {"time": 98404, "pitch": 52, "duration": 466, "velocity": 90}, {"time": 98409, "pitch": 55, "duration": 461, "velocity": 95}, {"time": 98409, "pitch": 61, "duration": 461, "velocity": 105}, {"time": 98419, "pitch": 64, "duration": 451, "velocity": 95}, {"time": 98880, "pitch": 45, "duration": 1428, "velocity": 85}, {"time": 98880, "pitch": 52, "duration": 391, "velocity": 95}, {"time": 98885, "pitch": 55, "duration": 391, "velocity": 100}, {"time": 98890, "pitch": 61, "duration": 381, "velocity": 105}, {"time": 98890, "pitch": 64, "duration": 381, "velocity": 110}, {"time": 99281, "pitch": 61, "duration": 70, "velocity": 85}, {"time": 99281, "pitch": 64, "duration": 80, "velocity": 90}, {"time": 99291, "pitch": 52, "duration": 60, "velocity": 75}, {"time": 99291, "pitch": 55, "duration": 60, "velocity": 80}, {"time": 99361, "pitch": 52, "duration": 471, "velocity": 90}, {"time": 99361, "pitch": 55, "duration": 471, "velocity": 95}, {"time": 99371, "pitch": 61, "duration": 461, "velocity": 100}, {"time": 99371, "pitch": 64, "duration": 461, "velocity": 105}, {"time": 99842, "pitch": 52, "duration": 228, "velocity": 90}, {"time": 99842, "pitch": 55, "duration": 208, "velocity": 95}, {"time": 99862, "pitch": 61, "duration": 208, "velocity": 100}, {"time": 100080, "pitch": 50, "duration": 228, "velocity": 85}, {"time": 100080, "pitch": 55, "duration": 228, "velocity": 90}, {"time": 100090, "pitch": 59, "duration": 218, "velocity": 95}, {"time": 100317, "pitch": 45, "duration": 471, "velocity": 90}, {"time": 100322, "pitch": 52, "duration": 466, "velocity": 95}, {"time": 100327, "pitch": 55, "duration": 461, "velocity": 100}, {"time": 100327, "pitch": 61, "duration": 461, "velocity": 110}, {"time": 100337, "pitch": 64, "duration": 451, "velocity": 100}, {"time": 100799, "pitch": 45, "duration": 1433, "velocity": 90}, {"time": 100804, "pitch": 55, "duration": 390, "velocity": 105}, {"time": 100809, "pitch": 61, "duration": 380, "velocity": 110}, {"time": 100809, "pitch": 64, "duration": 380, "velocity": 115}, {"time": 101199, "pitch": 61, "duration": 71, "velocity": 90}, {"time": 101199, "pitch": 64, "duration": 81, "velocity": 95}, {"time": 101209, "pitch": 52, "duration": 61, "velocity": 80}, {"time": 101209, "pitch": 55, "duration": 61, "velocity": 85}, {"time": 101280, "pitch": 52, "duration": 471, "velocity": 95}, {"time": 101280, "pitch": 55, "duration": 471, "velocity": 100}, {"time": 101290, "pitch": 61, "duration": 461, "velocity": 105}, {"time": 101290, "pitch": 64, "duration": 461, "velocity": 110}, {"time": 101761, "pitch": 52, "duration": 160, "velocity": 95}, {"time": 101761, "pitch": 55, "duration": 160, "velocity": 100}, {"time": 101771, "pitch": 61, "duration": 150, "velocity": 105}, {"time": 101771, "pitch": 64, "duration": 140, "velocity": 115}, {"time": 101921, "pitch": 61, "duration": 70, "velocity": 95}, {"time": 101921, "pitch": 64, "duration": 80, "velocity": 100}, {"time": 101931, "pitch": 52, "duration": 60, "velocity": 85}, {"time": 101931, "pitch": 55, "duration": 60, "velocity": 90}, {"time": 102001, "pitch": 52, "duration": 161, "velocity": 95}, {"time": 102001, "pitch": 55, "duration": 161, "velocity": 100}, {"time": 102011, "pitch": 61, "duration": 151, "velocity": 105}, {"time": 102011, "pitch": 64, "duration": 141, "velocity": 15}, {"time": 102162, "pitch": 61, "duration": 70, "velocity": 95}, {"time": 102162, "pitch": 64, "duration": 70, "velocity": 100}, {"time": 102172, "pitch": 52, "duration": 60, "velocity": 85}, {"time": 102172, "pitch": 55, "duration": 60, "velocity": 90}, {"time": 102242, "pitch": 50, "duration": 240, "velocity": 95}, {"time": 102242, "pitch": 57, "duration": 240, "velocity": 105}, {"time": 102252, "pitch": 62, "duration": 220, "velocity": 105}, {"time": 102252, "pitch": 64, "duration": 220, "velocity": 110}, {"time": 102482, "pitch": 62, "duration": 241, "velocity": 95}, {"time": 102482, "pitch": 64, "duration": 241, "velocity": 100}, {"time": 102492, "pitch": 50, "duration": 221, "velocity": 85}, {"time": 102492, "pitch": 57, "duration": 221, "velocity": 90}, {"time": 102723, "pitch": 50, "duration": 158, "velocity": 100}, {"time": 102723, "pitch": 57, "duration": 158, "velocity": 105}, {"time": 102733, "pitch": 62, "duration": 148, "velocity": 110}, {"time": 102743, "pitch": 64, "duration": 138, "velocity": 115}, {"time": 102881, "pitch": 62, "duration": 79, "velocity": 90}, {"time": 102881, "pitch": 64, "duration": 79, "velocity": 95}, {"time": 102891, "pitch": 50, "duration": 60, "velocity": 80}, {"time": 102891, "pitch": 57, "duration": 60, "velocity": 85}, {"time": 102960, "pitch": 50, "duration": 228, "velocity": 90}, {"time": 102960, "pitch": 57, "duration": 228, "velocity": 95}, {"time": 102970, "pitch": 62, "duration": 228, "velocity": 100}, {"time": 102970, "pitch": 64, "duration": 228, "velocity": 105}, {"time": 103198, "pitch": 50, "duration": 241, "velocity": 95}, {"time": 103198, "pitch": 57, "duration": 241, "velocity": 105}, {"time": 103208, "pitch": 62, "duration": 221, "velocity": 105}, {"time": 103208, "pitch": 64, "duration": 221, "velocity": 110}, {"time": 103439, "pitch": 62, "duration": 240, "velocity": 95}, {"time": 103439, "pitch": 64, "duration": 240, "velocity": 100}, {"time": 103449, "pitch": 50, "duration": 220, "velocity": 85}, {"time": 103449, "pitch": 57, "duration": 220, "velocity": 90}, {"time": 103679, "pitch": 50, "duration": 161, "velocity": 100}, {"time": 103679, "pitch": 57, "duration": 161, "velocity": 105}, {"time": 103689, "pitch": 62, "duration": 151, "velocity": 110}, {"time": 103699, "pitch": 64, "duration": 141, "velocity": 115}, {"time": 103840, "pitch": 62, "duration": 80, "velocity": 90}, {"time": 103840, "pitch": 64, "duration": 80, "velocity": 95}, {"time": 103850, "pitch": 50, "duration": 60, "velocity": 80}, {"time": 103850, "pitch": 57, "duration": 60, "velocity": 85}, {"time": 103920, "pitch": 50, "duration": 230, "velocity": 90}, {"time": 103920, "pitch": 57, "duration": 230, "velocity": 95}, {"time": 103930, "pitch": 62, "duration": 230, "velocity": 100}, {"time": 103930, "pitch": 64, "duration": 230, "velocity": 105}, {"time": 104160, "pitch": 47, "duration": 471, "velocity": 90}, {"time": 104160, "pitch": 54, "duration": 241, "velocity": 95}, {"time": 104160, "pitch": 57, "duration": 241, "velocity": 105}, {"time": 104170, "pitch": 62, "duration": 221, "velocity": 105}, {"time": 104170, "pitch": 64, "duration": 221, "velocity": 110}, {"time": 104401, "pitch": 62, "duration": 240, "velocity": 95}, {"time": 104401, "pitch": 64, "duration": 240, "velocity": 100}, {"time": 104411, "pitch": 54, "duration": 220, "velocity": 85}, {"time": 104411, "pitch": 57, "duration": 220, "velocity": 90}, {"time": 104641, "pitch": 47, "duration": 471, "velocity": 95}, {"time": 104641, "pitch": 54, "duration": 161, "velocity": 100}, {"time": 104641, "pitch": 57, "duration": 161, "velocity": 105}, {"time": 104651, "pitch": 62, "duration": 151, "velocity": 110}, {"time": 104661, "pitch": 64, "duration": 141, "velocity": 115}, {"time": 104802, "pitch": 62, "duration": 80, "velocity": 90}, {"time": 104802, "pitch": 64, "duration": 80, "velocity": 95}, {"time": 104812, "pitch": 54, "duration": 60, "velocity": 80}, {"time": 104812, "pitch": 57, "duration": 60, "velocity": 85}, {"time": 104882, "pitch": 54, "duration": 230, "velocity": 90}, {"time": 104882, "pitch": 57, "duration": 230, "velocity": 95}, {"time": 104892, "pitch": 62, "duration": 230, "velocity": 100}, {"time": 104892, "pitch": 64, "duration": 230, "velocity": 105}, {"time": 105122, "pitch": 47, "duration": 466, "velocity": 90}, {"time": 105122, "pitch": 54, "duration": 238, "velocity": 95}, {"time": 105122, "pitch": 57, "duration": 238, "velocity": 105}, {"time": 105132, "pitch": 62, "duration": 218, "velocity": 105}, {"time": 105132, "pitch": 64, "duration": 218, "velocity": 110}, {"time": 105360, "pitch": 62, "duration": 238, "velocity": 95}, {"time": 105360, "pitch": 64, "duration": 238, "velocity": 100}, {"time": 105370, "pitch": 54, "duration": 218, "velocity": 85}, {"time": 105370, "pitch": 57, "duration": 218, "velocity": 90}, {"time": 105598, "pitch": 47, "duration": 471, "velocity": 95}, {"time": 105598, "pitch": 54, "duration": 160, "velocity": 100}, {"time": 105598, "pitch": 57, "duration": 160, "velocity": 105}, {"time": 105608, "pitch": 62, "duration": 150, "velocity": 110}, {"time": 105618, "pitch": 64, "duration": 140, "velocity": 115}, {"time": 105758, "pitch": 62, "duration": 80, "velocity": 90}, {"time": 105758, "pitch": 64, "duration": 80, "velocity": 95}, {"time": 105768, "pitch": 54, "duration": 60, "velocity": 80}, {"time": 105768, "pitch": 57, "duration": 60, "velocity": 85}, {"time": 105838, "pitch": 54, "duration": 231, "velocity": 90}, {"time": 105838, "pitch": 57, "duration": 231, "velocity": 95}, {"time": 105848, "pitch": 62, "duration": 231, "velocity": 100}, {"time": 105848, "pitch": 64, "duration": 231, "velocity": 105}, {"time": 106079, "pitch": 43, "duration": 471, "velocity": 90}, {"time": 106079, "pitch": 50, "duration": 240, "velocity": 95}, {"time": 106079, "pitch": 58, "duration": 240, "velocity": 105}, {"time": 106089, "pitch": 62, "duration": 220, "velocity": 105}, {"time": 106089, "pitch": 64, "duration": 220, "velocity": 110}, {"time": 106319, "pitch": 62, "duration": 241, "velocity": 95}, {"time": 106319, "pitch": 64, "duration": 241, "velocity": 100}, {"time": 106329, "pitch": 50, "duration": 221, "velocity": 85}, {"time": 106329, "pitch": 58, "duration": 221, "velocity": 90}, {"time": 106560, "pitch": 43, "duration": 471, "velocity": 95}, {"time": 106560, "pitch": 50, "duration": 160, "velocity": 100}, {"time": 106560, "pitch": 58, "duration": 160, "velocity": 105}, {"time": 106570, "pitch": 62, "duration": 150, "velocity": 110}, {"time": 106580, "pitch": 64, "duration": 140, "velocity": 115}, {"time": 106720, "pitch": 62, "duration": 80, "velocity": 90}, {"time": 106720, "pitch": 64, "duration": 80, "velocity": 95}, {"time": 106730, "pitch": 50, "duration": 60, "velocity": 80}, {"time": 106730, "pitch": 58, "duration": 60, "velocity": 85}, {"time": 106800, "pitch": 50, "duration": 231, "velocity": 90}, {"time": 106800, "pitch": 58, "duration": 231, "velocity": 95}, {"time": 106810, "pitch": 62, "duration": 231, "velocity": 100}, {"time": 106810, "pitch": 64, "duration": 231, "velocity": 105}, {"time": 107041, "pitch": 43, "duration": 471, "velocity": 90}, {"time": 107041, "pitch": 50, "duration": 241, "velocity": 95}, {"time": 107041, "pitch": 58, "duration": 241, "velocity": 105}, {"time": 107051, "pitch": 62, "duration": 221, "velocity": 105}, {"time": 107051, "pitch": 64, "duration": 221, "velocity": 110}, {"time": 107282, "pitch": 62, "duration": 240, "velocity": 95}, {"time": 107282, "pitch": 64, "duration": 240, "velocity": 100}, {"time": 107292, "pitch": 50, "duration": 220, "velocity": 85}, {"time": 107292, "pitch": 58, "duration": 220, "velocity": 90}, {"time": 107522, "pitch": 43, "duration": 465, "velocity": 95}, {"time": 107522, "pitch": 50, "duration": 159, "velocity": 100}, {"time": 107522, "pitch": 58, "duration": 159, "velocity": 105}, {"time": 107532, "pitch": 62, "duration": 149, "velocity": 110}, {"time": 107542, "pitch": 64, "duration": 139, "velocity": 115}, {"time": 107681, "pitch": 62, "duration": 79, "velocity": 90}, {"time": 107681, "pitch": 64, "duration": 79, "velocity": 95}, {"time": 107690, "pitch": 50, "duration": 60, "velocity": 80}, {"time": 107690, "pitch": 58, "duration": 60, "velocity": 85}, {"time": 107760, "pitch": 50, "duration": 227, "velocity": 90}, {"time": 107760, "pitch": 58, "duration": 227, "velocity": 95}, {"time": 107770, "pitch": 62, "duration": 227, "velocity": 100}, {"time": 107770, "pitch": 64, "duration": 227, "velocity": 105}, {"time": 107997, "pitch": 45, "duration": 471, "velocity": 90}, {"time": 107997, "pitch": 52, "duration": 241, "velocity": 95}, {"time": 107997, "pitch": 55, "duration": 241, "velocity": 105}, {"time": 108007, "pitch": 61, "duration": 221, "velocity": 105}, {"time": 108007, "pitch": 64, "duration": 221, "velocity": 110}, {"time": 108238, "pitch": 61, "duration": 240, "velocity": 95}, {"time": 108238, "pitch": 64, "duration": 240, "velocity": 100}, {"time": 108248, "pitch": 52, "duration": 220, "velocity": 85}, {"time": 108248, "pitch": 55, "duration": 220, "velocity": 90}, {"time": 108478, "pitch": 45, "duration": 471, "velocity": 95}, {"time": 108478, "pitch": 52, "duration": 161, "velocity": 100}, {"time": 108478, "pitch": 55, "duration": 161, "velocity": 105}, {"time": 108488, "pitch": 61, "duration": 151, "velocity": 110}, {"time": 108498, "pitch": 64, "duration": 141, "velocity": 115}, {"time": 108639, "pitch": 61, "duration": 80, "velocity": 90}, {"time": 108639, "pitch": 64, "duration": 80, "velocity": 95}, {"time": 108649, "pitch": 52, "duration": 60, "velocity": 80}, {"time": 108649, "pitch": 55, "duration": 60, "velocity": 85}, {"time": 108719, "pitch": 52, "duration": 230, "velocity": 90}, {"time": 108719, "pitch": 55, "duration": 230, "velocity": 95}, {"time": 108729, "pitch": 61, "duration": 231, "velocity": 100}, {"time": 108729, "pitch": 64, "duration": 231, "velocity": 105}, {"time": 108960, "pitch": 45, "duration": 471, "velocity": 90}, {"time": 108960, "pitch": 52, "duration": 240, "velocity": 95}, {"time": 108960, "pitch": 55, "duration": 240, "velocity": 105}, {"time": 108970, "pitch": 62, "duration": 220, "velocity": 105}, {"time": 108970, "pitch": 64, "duration": 220, "velocity": 110}, {"time": 109200, "pitch": 62, "duration": 241, "velocity": 95}, {"time": 109200, "pitch": 64, "duration": 241, "velocity": 100}, {"time": 109210, "pitch": 52, "duration": 221, "velocity": 85}, {"time": 109210, "pitch": 55, "duration": 221, "velocity": 90}, {"time": 109441, "pitch": 45, "duration": 471, "velocity": 95}, {"time": 109441, "pitch": 52, "duration": 160, "velocity": 100}, {"time": 109441, "pitch": 55, "duration": 160, "velocity": 105}, {"time": 109451, "pitch": 62, "duration": 150, "velocity": 115}, {"time": 109461, "pitch": 64, "duration": 140, "velocity": 110}, {"time": 109601, "pitch": 61, "duration": 80, "velocity": 90}, {"time": 109601, "pitch": 64, "duration": 80, "velocity": 95}, {"time": 109611, "pitch": 52, "duration": 60, "velocity": 80}, {"time": 109611, "pitch": 55, "duration": 60, "velocity": 85}, {"time": 109681, "pitch": 52, "duration": 231, "velocity": 90}, {"time": 109681, "pitch": 55, "duration": 231, "velocity": 95}, {"time": 109691, "pitch": 61, "duration": 231, "velocity": 105}, {"time": 109691, "pitch": 64, "duration": 231, "velocity": 100}, {"time": 109922, "pitch": 50, "duration": 240, "velocity": 95}, {"time": 109922, "pitch": 57, "duration": 240, "velocity": 105}, {"time": 109932, "pitch": 62, "duration": 220, "velocity": 105}, {"time": 109932, "pitch": 64, "duration": 220, "velocity": 110}, {"time": 110162, "pitch": 62, "duration": 241, "velocity": 95}, {"time": 110162, "pitch": 64, "duration": 241, "velocity": 100}, {"time": 110172, "pitch": 50, "duration": 221, "velocity": 85}, {"time": 110172, "pitch": 57, "duration": 221, "velocity": 90}, {"time": 110403, "pitch": 50, "duration": 158, "velocity": 100}, {"time": 110403, "pitch": 57, "duration": 158, "velocity": 105}, {"time": 110413, "pitch": 62, "duration": 148, "velocity": 110}, {"time": 110423, "pitch": 64, "duration": 138, "velocity": 115}, {"time": 110561, "pitch": 62, "duration": 79, "velocity": 90}, {"time": 110561, "pitch": 64, "duration": 79, "velocity": 95}, {"time": 110571, "pitch": 50, "duration": 60, "velocity": 80}, {"time": 110571, "pitch": 57, "duration": 60, "velocity": 85}, {"time": 110640, "pitch": 50, "duration": 228, "velocity": 90}, {"time": 110640, "pitch": 57, "duration": 228, "velocity": 95}, {"time": 110650, "pitch": 62, "duration": 228, "velocity": 100}, {"time": 110650, "pitch": 64, "duration": 228, "velocity": 105}, {"time": 110878, "pitch": 50, "duration": 241, "velocity": 95}, {"time": 110878, "pitch": 57, "duration": 241, "velocity": 105}, {"time": 110888, "pitch": 62, "duration": 221, "velocity": 105}, {"time": 110888, "pitch": 64, "duration": 221, "velocity": 110}, {"time": 111119, "pitch": 62, "duration": 240, "velocity": 95}, {"time": 111119, "pitch": 64, "duration": 240, "velocity": 100}, {"time": 111129, "pitch": 50, "duration": 220, "velocity": 85}, {"time": 111129, "pitch": 57, "duration": 220, "velocity": 90}, {"time": 111359, "pitch": 50, "duration": 160, "velocity": 100}, {"time": 111359, "pitch": 57, "duration": 160, "velocity": 105}, {"time": 111369, "pitch": 62, "duration": 150, "velocity": 110}, {"time": 111379, "pitch": 64, "duration": 140, "velocity": 115}, {"time": 111519, "pitch": 62, "duration": 81, "velocity": 90}, {"time": 111519, "pitch": 64, "duration": 81, "velocity": 95}, {"time": 111530, "pitch": 50, "duration": 60, "velocity": 80}, {"time": 111530, "pitch": 57, "duration": 60, "velocity": 85}, {"time": 111600, "pitch": 50, "duration": 230, "velocity": 90}, {"time": 111600, "pitch": 57, "duration": 230, "velocity": 95}, {"time": 111610, "pitch": 62, "duration": 230, "velocity": 100}, {"time": 111610, "pitch": 64, "duration": 230, "velocity": 105}, {"time": 111840, "pitch": 47, "duration": 471, "velocity": 90}, {"time": 111840, "pitch": 54, "duration": 241, "velocity": 95}, {"time": 111840, "pitch": 57, "duration": 241, "velocity": 105}, {"time": 111850, "pitch": 62, "duration": 221, "velocity": 105}, {"time": 111850, "pitch": 64, "duration": 221, "velocity": 110}, {"time": 112081, "pitch": 62, "duration": 240, "velocity": 95}, {"time": 112081, "pitch": 64, "duration": 240, "velocity": 100}, {"time": 112091, "pitch": 54, "duration": 220, "velocity": 85}, {"time": 112091, "pitch": 57, "duration": 220, "velocity": 90}, {"time": 112321, "pitch": 47, "duration": 471, "velocity": 95}, {"time": 112321, "pitch": 54, "duration": 161, "velocity": 100}, {"time": 112321, "pitch": 57, "duration": 161, "velocity": 105}, {"time": 112331, "pitch": 62, "duration": 151, "velocity": 110}, {"time": 112341, "pitch": 64, "duration": 141, "velocity": 115}, {"time": 112482, "pitch": 62, "duration": 80, "velocity": 90}, {"time": 112482, "pitch": 64, "duration": 80, "velocity": 95}, {"time": 112492, "pitch": 54, "duration": 60, "velocity": 80}, {"time": 112492, "pitch": 57, "duration": 60, "velocity": 85}, {"time": 112562, "pitch": 54, "duration": 230, "velocity": 90}, {"time": 112562, "pitch": 57, "duration": 230, "velocity": 95}, {"time": 112572, "pitch": 62, "duration": 230, "velocity": 100}, {"time": 112572, "pitch": 64, "duration": 230, "velocity": 105}, {"time": 112802, "pitch": 47, "duration": 466, "velocity": 90}, {"time": 112802, "pitch": 54, "duration": 238, "velocity": 95}, {"time": 112802, "pitch": 57, "duration": 238, "velocity": 105}, {"time": 112812, "pitch": 62, "duration": 218, "velocity": 105}, {"time": 112812, "pitch": 64, "duration": 218, "velocity": 110}, {"time": 113040, "pitch": 62, "duration": 238, "velocity": 95}, {"time": 113040, "pitch": 64, "duration": 238, "velocity": 100}, {"time": 113050, "pitch": 54, "duration": 218, "velocity": 85}, {"time": 113050, "pitch": 57, "duration": 218, "velocity": 90}, {"time": 113278, "pitch": 47, "duration": 471, "velocity": 95}, {"time": 113278, "pitch": 54, "duration": 160, "velocity": 100}, {"time": 113278, "pitch": 57, "duration": 160, "velocity": 105}, {"time": 113288, "pitch": 62, "duration": 150, "velocity": 110}, {"time": 113298, "pitch": 64, "duration": 140, "velocity": 115}, {"time": 113438, "pitch": 62, "duration": 80, "velocity": 90}, {"time": 113438, "pitch": 64, "duration": 80, "velocity": 95}, {"time": 113448, "pitch": 54, "duration": 60, "velocity": 80}, {"time": 113448, "pitch": 57, "duration": 60, "velocity": 85}, {"time": 113518, "pitch": 54, "duration": 231, "velocity": 90}, {"time": 113518, "pitch": 57, "duration": 231, "velocity": 95}, {"time": 113528, "pitch": 62, "duration": 231, "velocity": 100}, {"time": 113528, "pitch": 64, "duration": 231, "velocity": 105}, {"time": 113759, "pitch": 43, "duration": 471, "velocity": 90}, {"time": 113759, "pitch": 50, "duration": 240, "velocity": 95}, {"time": 113759, "pitch": 58, "duration": 240, "velocity": 105}, {"time": 113769, "pitch": 62, "duration": 220, "velocity": 110}, {"time": 113769, "pitch": 67, "duration": 220, "velocity": 100}, {"time": 113999, "pitch": 62, "duration": 241, "velocity": 100}, {"time": 113999, "pitch": 67, "duration": 241, "velocity": 95}, {"time": 114009, "pitch": 50, "duration": 221, "velocity": 85}, {"time": 114009, "pitch": 58, "duration": 221, "velocity": 90}, {"time": 114240, "pitch": 43, "duration": 471, "velocity": 95}, {"time": 114240, "pitch": 50, "duration": 160, "velocity": 100}, {"time": 114240, "pitch": 58, "duration": 160, "velocity": 105}, {"time": 114250, "pitch": 62, "duration": 150, "velocity": 115}, {"time": 114260, "pitch": 67, "duration": 140, "velocity": 110}, {"time": 114400, "pitch": 62, "duration": 80, "velocity": 90}, {"time": 114400, "pitch": 67, "duration": 80, "velocity": 95}, {"time": 114410, "pitch": 50, "duration": 60, "velocity": 80}, {"time": 114410, "pitch": 58, "duration": 60, "velocity": 85}, {"time": 114480, "pitch": 50, "duration": 231, "velocity": 90}, {"time": 114480, "pitch": 58, "duration": 231, "velocity": 95}, {"time": 114490, "pitch": 62, "duration": 231, "velocity": 100}, {"time": 114490, "pitch": 67, "duration": 231, "velocity": 105}, {"time": 114721, "pitch": 45, "duration": 471, "velocity": 90}, {"time": 114721, "pitch": 55, "duration": 471, "velocity": 95}, {"time": 114726, "pitch": 59, "duration": 461, "velocity": 105}, {"time": 114731, "pitch": 62, "duration": 461, "velocity": 105}, {"time": 114731, "pitch": 67, "duration": 461, "velocity": 110}, {"time": 115202, "pitch": 45, "duration": 465, "velocity": 90}, {"time": 115202, "pitch": 52, "duration": 465, "velocity": 95}, {"time": 115207, "pitch": 55, "duration": 455, "velocity": 105}, {"time": 115217, "pitch": 61, "duration": 445, "velocity": 105}, {"time": 115232, "pitch": 66, "duration": 435, "velocity": 110}, {"time": 115677, "pitch": 50, "duration": 471, "velocity": 95}, {"time": 115677, "pitch": 57, "duration": 471, "velocity": 105}, {"time": 115687, "pitch": 62, "duration": 461, "velocity": 105}, {"time": 115687, "pitch": 66, "duration": 461, "velocity": 110}, {"time": 116158, "pitch": 50, "duration": 401, "velocity": 95}, {"time": 116158, "pitch": 57, "duration": 401, "velocity": 100}, {"time": 116168, "pitch": 62, "duration": 381, "velocity": 105}, {"time": 116168, "pitch": 66, "duration": 381, "velocity": 110}, {"time": 116559, "pitch": 62, "duration": 70, "velocity": 95}, {"time": 116559, "pitch": 66, "duration": 80, "velocity": 100}, {"time": 116569, "pitch": 50, "duration": 60, "velocity": 85}, {"time": 116569, "pitch": 57, "duration": 60, "velocity": 90}, {"time": 116639, "pitch": 50, "duration": 161, "velocity": 90}, {"time": 116639, "pitch": 57, "duration": 161, "velocity": 95}, {"time": 116649, "pitch": 62, "duration": 151, "velocity": 100}, {"time": 116649, "pitch": 67, "duration": 151, "velocity": 105}, {"time": 116880, "pitch": 50, "duration": 231, "velocity": 90}, {"time": 116880, "pitch": 57, "duration": 231, "velocity": 95}, {"time": 116890, "pitch": 62, "duration": 221, "velocity": 100}, {"time": 116890, "pitch": 66, "duration": 221, "velocity": 105}, {"time": 117121, "pitch": 50, "duration": 160, "velocity": 90}, {"time": 117121, "pitch": 57, "duration": 160, "velocity": 95}, {"time": 117131, "pitch": 62, "duration": 150, "velocity": 100}, {"time": 117141, "pitch": 66, "duration": 140, "velocity": 105}, {"time": 117281, "pitch": 62, "duration": 80, "velocity": 90}, {"time": 117281, "pitch": 66, "duration": 80, "velocity": 95}, {"time": 117291, "pitch": 50, "duration": 60, "velocity": 80}, {"time": 117291, "pitch": 57, "duration": 60, "velocity": 85}, {"time": 117361, "pitch": 50, "duration": 231, "velocity": 85}, {"time": 117361, "pitch": 57, "duration": 231, "velocity": 90}, {"time": 117371, "pitch": 62, "duration": 221, "velocity": 95}, {"time": 117371, "pitch": 64, "duration": 221, "velocity": 100}, {"time": 117602, "pitch": 41, "duration": 230, "velocity": 105}, {"time": 117602, "pitch": 48, "duration": 230, "velocity": 100}, {"time": 117612, "pitch": 53, "duration": 220, "velocity": 95}, {"time": 117842, "pitch": 41, "duration": 231, "velocity": 100}, {"time": 117842, "pitch": 48, "duration": 231, "velocity": 95}, {"time": 117852, "pitch": 53, "duration": 221, "velocity": 90}, {"time": 118083, "pitch": 41, "duration": 227, "velocity": 105}, {"time": 118083, "pitch": 48, "duration": 227, "velocity": 100}, {"time": 118093, "pitch": 53, "duration": 217, "velocity": 95}, {"time": 118320, "pitch": 41, "duration": 228, "velocity": 100}, {"time": 118320, "pitch": 48, "duration": 228, "velocity": 95}, {"time": 118330, "pitch": 53, "duration": 218, "velocity": 90}, {"time": 118558, "pitch": 41, "duration": 230, "velocity": 105}, {"time": 118558, "pitch": 48, "duration": 230, "velocity": 100}, {"time": 118568, "pitch": 53, "duration": 220, "velocity": 95}, {"time": 118798, "pitch": 41, "duration": 231, "velocity": 100}, {"time": 118798, "pitch": 48, "duration": 231, "velocity": 95}, {"time": 118809, "pitch": 53, "duration": 220, "velocity": 90}, {"time": 119039, "pitch": 41, "duration": 160, "velocity": 105}, {"time": 119039, "pitch": 48, "duration": 150, "velocity": 100}, {"time": 119049, "pitch": 53, "duration": 140, "velocity": 95}, {"time": 119199, "pitch": 48, "duration": 71, "velocity": 90}, {"time": 119199, "pitch": 53, "duration": 81, "velocity": 95}, {"time": 119209, "pitch": 41, "duration": 61, "velocity": 85}, {"time": 119280, "pitch": 41, "duration": 160, "velocity": 100}, {"time": 119280, "pitch": 48, "duration": 160, "velocity": 95}, {"time": 119290, "pitch": 53, "duration": 150, "velocity": 90}, {"time": 119520, "pitch": 51, "duration": 231, "velocity": 100}, {"time": 119520, "pitch": 58, "duration": 231, "velocity": 95}, {"time": 119530, "pitch": 63, "duration": 221, "velocity": 90}, {"time": 119761, "pitch": 51, "duration": 230, "velocity": 95}, {"time": 119761, "pitch": 58, "duration": 230, "velocity": 90}, {"time": 119771, "pitch": 63, "duration": 220, "velocity": 85}, {"time": 120001, "pitch": 51, "duration": 231, "velocity": 100}, {"time": 120001, "pitch": 58, "duration": 231, "velocity": 95}, {"time": 120011, "pitch": 63, "duration": 221, "velocity": 90}, {"time": 120242, "pitch": 51, "duration": 230, "velocity": 95}, {"time": 120242, "pitch": 58, "duration": 230, "velocity": 90}, {"time": 120252, "pitch": 63, "duration": 220, "velocity": 85}, {"time": 120482, "pitch": 51, "duration": 228, "velocity": 100}, {"time": 120482, "pitch": 58, "duration": 228, "velocity": 95}, {"time": 120492, "pitch": 63, "duration": 218, "velocity": 90}, {"time": 120720, "pitch": 51, "duration": 228, "velocity": 95}, {"time": 120720, "pitch": 58, "duration": 228, "velocity": 90}, {"time": 120730, "pitch": 63, "duration": 218, "velocity": 85}, {"time": 120958, "pitch": 51, "duration": 160, "velocity": 100}, {"time": 120958, "pitch": 58, "duration": 150, "velocity": 95}, {"time": 120968, "pitch": 63, "duration": 140, "velocity": 90}, {"time": 121118, "pitch": 58, "duration": 70, "velocity": 85}, {"time": 121118, "pitch": 63, "duration": 80, "velocity": 90}, {"time": 121128, "pitch": 51, "duration": 60, "velocity": 80}, {"time": 121198, "pitch": 51, "duration": 160, "velocity": 95}, {"time": 121198, "pitch": 58, "duration": 160, "velocity": 90}, {"time": 121208, "pitch": 63, "duration": 150, "velocity": 85}, {"time": 121439, "pitch": 49, "duration": 230, "velocity": 100}, {"time": 121439, "pitch": 56, "duration": 230, "velocity": 95}, {"time": 121449, "pitch": 61, "duration": 220, "velocity": 90}, {"time": 121679, "pitch": 49, "duration": 231, "velocity": 95}, {"time": 121679, "pitch": 56, "duration": 231, "velocity": 90}, {"time": 121689, "pitch": 61, "duration": 221, "velocity": 85}, {"time": 121920, "pitch": 49, "duration": 230, "velocity": 100}, {"time": 121920, "pitch": 56, "duration": 230, "velocity": 95}, {"time": 121930, "pitch": 61, "duration": 220, "velocity": 90}, {"time": 122160, "pitch": 49, "duration": 231, "velocity": 95}, {"time": 122160, "pitch": 56, "duration": 231, "velocity": 90}, {"time": 122170, "pitch": 61, "duration": 221, "velocity": 85}, {"time": 122401, "pitch": 49, "duration": 230, "velocity": 100}, {"time": 122401, "pitch": 56, "duration": 230, "velocity": 95}, {"time": 122411, "pitch": 61, "duration": 220, "velocity": 90}, {"time": 122641, "pitch": 49, "duration": 231, "velocity": 95}, {"time": 122641, "pitch": 56, "duration": 231, "velocity": 90}, {"time": 122651, "pitch": 61, "duration": 221, "velocity": 85}, {"time": 122882, "pitch": 49, "duration": 158, "velocity": 100}, {"time": 122882, "pitch": 56, "duration": 148, "velocity": 95}, {"time": 122892, "pitch": 61, "duration": 138, "velocity": 90}, {"time": 123040, "pitch": 56, "duration": 70, "velocity": 85}, {"time": 123040, "pitch": 61, "duration": 80, "velocity": 90}, {"time": 123050, "pitch": 49, "duration": 60, "velocity": 80}, {"time": 123120, "pitch": 49, "duration": 158, "velocity": 95}, {"time": 123120, "pitch": 56, "duration": 158, "velocity": 90}, {"time": 123129, "pitch": 61, "duration": 149, "velocity": 85}, {"time": 123357, "pitch": 43, "duration": 231, "velocity": 105}, {"time": 123357, "pitch": 50, "duration": 231, "velocity": 100}, {"time": 123367, "pitch": 55, "duration": 221, "velocity": 95}, {"time": 123367, "pitch": 59, "duration": 221, "velocity": 90}, {"time": 123598, "pitch": 43, "duration": 230, "velocity": 100}, {"time": 123598, "pitch": 50, "duration": 230, "velocity": 95}, {"time": 123608, "pitch": 55, "duration": 220, "velocity": 90}, {"time": 123608, "pitch": 59, "duration": 220, "velocity": 85}, {"time": 123838, "pitch": 43, "duration": 231, "velocity": 105}, {"time": 123838, "pitch": 50, "duration": 231, "velocity": 100}, {"time": 123848, "pitch": 55, "duration": 221, "velocity": 95}, {"time": 123848, "pitch": 59, "duration": 221, "velocity": 90}, {"time": 124079, "pitch": 43, "duration": 230, "velocity": 100}, {"time": 124079, "pitch": 50, "duration": 230, "velocity": 95}, {"time": 124089, "pitch": 55, "duration": 220, "velocity": 90}, {"time": 124089, "pitch": 59, "duration": 220, "velocity": 85}, {"time": 124319, "pitch": 43, "duration": 231, "velocity": 105}, {"time": 124319, "pitch": 50, "duration": 231, "velocity": 100}, {"time": 124329, "pitch": 55, "duration": 221, "velocity": 95}, {"time": 124329, "pitch": 59, "duration": 221, "velocity": 90}, {"time": 124560, "pitch": 43, "duration": 230, "velocity": 100}, {"time": 124560, "pitch": 50, "duration": 230, "velocity": 95}, {"time": 124570, "pitch": 55, "duration": 220, "velocity": 90}, {"time": 124570, "pitch": 59, "duration": 220, "velocity": 85}, {"time": 124800, "pitch": 43, "duration": 161, "velocity": 105}, {"time": 124800, "pitch": 50, "duration": 151, "velocity": 100}, {"time": 124810, "pitch": 55, "duration": 141, "velocity": 95}, {"time": 124961, "pitch": 50, "duration": 70, "velocity": 90}, {"time": 124961, "pitch": 55, "duration": 80, "velocity": 95}, {"time": 124971, "pitch": 43, "duration": 60, "velocity": 85}, {"time": 125041, "pitch": 43, "duration": 160, "velocity": 100}, {"time": 125041, "pitch": 50, "duration": 160, "velocity": 95}, {"time": 125051, "pitch": 55, "duration": 150, "velocity": 90}, {"time": 125282, "pitch": 43, "duration": 471, "velocity": 90}, {"time": 125282, "pitch": 50, "duration": 240, "velocity": 95}, {"time": 125282, "pitch": 55, "duration": 240, "velocity": 105}, {"time": 125292, "pitch": 59, "duration": 220, "velocity": 105}, {"time": 125292, "pitch": 62, "duration": 220, "velocity": 110}, {"time": 125522, "pitch": 59, "duration": 241, "velocity": 95}, {"time": 125522, "pitch": 62, "duration": 241, "velocity": 100}, {"time": 125532, "pitch": 50, "duration": 221, "velocity": 85}, {"time": 125532, "pitch": 55, "duration": 221, "velocity": 90}, {"time": 125763, "pitch": 50, "duration": 59, "velocity": 90}, {"time": 125763, "pitch": 55, "duration": 59, "velocity": 95}, {"time": 125772, "pitch": 59, "duration": 50, "velocity": 100}, {"time": 125772, "pitch": 62, "duration": 50, "velocity": 105}, {"time": 126000, "pitch": 50, "duration": 468, "velocity": 85}, {"time": 126000, "pitch": 55, "duration": 468, "velocity": 100}, {"time": 126000, "pitch": 59, "duration": 468, "velocity": 105}, {"time": 126010, "pitch": 62, "duration": 458, "velocity": 110}, {"time": 126010, "pitch": 67, "duration": 458, "velocity": 95}, {"time": 126478, "pitch": 50, "duration": 231, "velocity": 80}, {"time": 126478, "pitch": 55, "duration": 231, "velocity": 85}, {"time": 126488, "pitch": 59, "duration": 221, "velocity": 90}, {"time": 126488, "pitch": 62, "duration": 221, "velocity": 95}, {"time": 126719, "pitch": 50, "duration": 160, "velocity": 90}, {"time": 126719, "pitch": 55, "duration": 150, "velocity": 95}, {"time": 126729, "pitch": 59, "duration": 140, "velocity": 100}, {"time": 126879, "pitch": 55, "duration": 70, "velocity": 90}, {"time": 126879, "pitch": 59, "duration": 81, "velocity": 95}, {"time": 126889, "pitch": 50, "duration": 60, "velocity": 85}, {"time": 126960, "pitch": 50, "duration": 60, "velocity": 85}, {"time": 126960, "pitch": 55, "duration": 60, "velocity": 90}, {"time": 126970, "pitch": 59, "duration": 50, "velocity": 95}, {"time": 127200, "pitch": 40, "duration": 1899, "velocity": 100}, {"time": 127205, "pitch": 50, "duration": 466, "velocity": 90}, {"time": 127210, "pitch": 55, "duration": 461, "velocity": 95}, {"time": 127220, "pitch": 59, "duration": 451, "velocity": 100}, {"time": 127230, "pitch": 64, "duration": 441, "velocity": 95}, {"time": 127681, "pitch": 50, "duration": 471, "velocity": 95}, {"time": 127681, "pitch": 55, "duration": 401, "velocity": 100}, {"time": 127691, "pitch": 59, "duration": 381, "velocity": 105}, {"time": 127691, "pitch": 64, "duration": 381, "velocity": 110}, {"time": 128082, "pitch": 59, "duration": 70, "velocity": 85}, {"time": 128082, "pitch": 64, "duration": 80, "velocity": 90}, {"time": 128092, "pitch": 55, "duration": 60, "velocity": 80}, {"time": 128162, "pitch": 50, "duration": 466, "velocity": 90}, {"time": 128162, "pitch": 55, "duration": 466, "velocity": 95}, {"time": 128172, "pitch": 59, "duration": 456, "velocity": 100}, {"time": 128172, "pitch": 64, "duration": 456, "velocity": 105}, {"time": 128638, "pitch": 50, "duration": 471, "velocity": 80}, {"time": 128638, "pitch": 55, "duration": 160, "velocity": 90}, {"time": 128647, "pitch": 59, "duration": 151, "velocity": 95}, {"time": 128658, "pitch": 64, "duration": 140, "velocity": 100}, {"time": 128798, "pitch": 59, "duration": 70, "velocity": 88}, {"time": 128798, "pitch": 64, "duration": 80, "velocity": 90}, {"time": 128808, "pitch": 55, "duration": 60, "velocity": 80}, {"time": 128878, "pitch": 55, "duration": 231, "velocity": 85}, {"time": 128878, "pitch": 59, "duration": 231, "velocity": 90}, {"time": 128888, "pitch": 64, "duration": 221, "velocity": 95}, {"time": 129119, "pitch": 45, "duration": 471, "velocity": 85}, {"time": 129119, "pitch": 52, "duration": 240, "velocity": 90}, {"time": 129119, "pitch": 55, "duration": 240, "velocity": 100}, {"time": 129129, "pitch": 60, "duration": 220, "velocity": 100}, {"time": 129129, "pitch": 64, "duration": 220, "velocity": 105}, {"time": 129359, "pitch": 60, "duration": 241, "velocity": 90}, {"time": 129359, "pitch": 64, "duration": 241, "velocity": 95}, {"time": 129369, "pitch": 52, "duration": 221, "velocity": 80}, {"time": 129369, "pitch": 55, "duration": 221, "velocity": 85}, {"time": 129600, "pitch": 52, "duration": 60, "velocity": 90}, {"time": 129600, "pitch": 55, "duration": 60, "velocity": 95}, {"time": 129610, "pitch": 60, "duration": 50, "velocity": 100}, {"time": 129610, "pitch": 64, "duration": 50, "velocity": 105}, {"time": 129840, "pitch": 52, "duration": 471, "velocity": 85}, {"time": 129840, "pitch": 55, "duration": 471, "velocity": 100}, {"time": 129840, "pitch": 60, "duration": 471, "velocity": 105}, {"time": 129850, "pitch": 64, "duration": 461, "velocity": 110}, {"time": 130321, "pitch": 45, "duration": 706, "velocity": 80}, {"time": 130321, "pitch": 52, "duration": 231, "velocity": 85}, {"time": 130331, "pitch": 55, "duration": 221, "velocity": 90}, {"time": 130331, "pitch": 60, "duration": 221, "velocity": 95}, {"time": 130562, "pitch": 52, "duration": 148, "velocity": 80}, {"time": 130562, "pitch": 55, "duration": 148, "velocity": 85}, {"time": 130572, "pitch": 60, "duration": 138, "velocity": 90}, {"time": 130572, "pitch": 64, "duration": 138, "velocity": 95}, {"time": 130720, "pitch": 60, "duration": 70, "velocity": 85}, {"time": 130720, "pitch": 64, "duration": 79, "velocity": 90}, {"time": 130730, "pitch": 52, "duration": 60, "velocity": 75}, {"time": 130730, "pitch": 55, "duration": 60, "velocity": 80}, {"time": 130799, "pitch": 52, "duration": 80, "velocity": 80}, {"time": 130799, "pitch": 55, "duration": 80, "velocity": 85}, {"time": 130809, "pitch": 60, "duration": 70, "velocity": 90}, {"time": 130809, "pitch": 64, "duration": 70, "velocity": 95}, {"time": 131037, "pitch": 46, "duration": 471, "velocity": 85}, {"time": 131037, "pitch": 53, "duration": 241, "velocity": 90}, {"time": 131037, "pitch": 58, "duration": 241, "velocity": 100}, {"time": 131047, "pitch": 62, "duration": 221, "velocity": 100}, {"time": 131047, "pitch": 65, "duration": 221, "velocity": 105}, {"time": 131278, "pitch": 62, "duration": 240, "velocity": 90}, {"time": 131278, "pitch": 65, "duration": 240, "velocity": 95}, {"time": 131288, "pitch": 53, "duration": 220, "velocity": 80}, {"time": 131288, "pitch": 58, "duration": 220, "velocity": 85}, {"time": 131518, "pitch": 53, "duration": 60, "velocity": 90}, {"time": 131518, "pitch": 58, "duration": 60, "velocity": 95}, {"time": 131528, "pitch": 62, "duration": 50, "velocity": 100}, {"time": 131528, "pitch": 65, "duration": 50, "velocity": 105}, {"time": 131759, "pitch": 53, "duration": 471, "velocity": 85}, {"time": 131759, "pitch": 58, "duration": 471, "velocity": 100}, {"time": 131759, "pitch": 62, "duration": 471, "velocity": 105}, {"time": 131769, "pitch": 65, "duration": 461, "velocity": 110}, {"time": 132240, "pitch": 46, "duration": 711, "velocity": 80}, {"time": 132240, "pitch": 53, "duration": 230, "velocity": 85}, {"time": 132250, "pitch": 58, "duration": 220, "velocity": 90}, {"time": 132250, "pitch": 62, "duration": 220, "velocity": 95}, {"time": 132480, "pitch": 53, "duration": 151, "velocity": 95}, {"time": 132480, "pitch": 58, "duration": 151, "velocity": 90}, {"time": 132490, "pitch": 62, "duration": 141, "velocity": 85}, {"time": 132490, "pitch": 65, "duration": 141, "velocity": 80}, {"time": 132641, "pitch": 62, "duration": 70, "velocity": 85}, {"time": 132641, "pitch": 65, "duration": 80, "velocity": 85}, {"time": 132651, "pitch": 53, "duration": 60, "velocity": 75}, {"time": 132651, "pitch": 58, "duration": 60, "velocity": 80}, {"time": 132721, "pitch": 53, "duration": 80, "velocity": 95}, {"time": 132721, "pitch": 58, "duration": 80, "velocity": 90}, {"time": 132731, "pitch": 62, "duration": 70, "velocity": 85}, {"time": 132731, "pitch": 65, "duration": 70, "velocity": 80}, {"time": 132961, "pitch": 43, "duration": 231, "velocity": 95}, {"time": 132961, "pitch": 55, "duration": 231, "velocity": 100}, {"time": 132971, "pitch": 59, "duration": 221, "velocity": 105}, {"time": 132971, "pitch": 62, "duration": 221, "velocity": 100}, {"time": 133202, "pitch": 43, "duration": 231, "velocity": 85}, {"time": 133202, "pitch": 55, "duration": 231, "velocity": 90}, {"time": 133212, "pitch": 59, "duration": 221, "velocity": 95}, {"time": 133212, "pitch": 62, "duration": 221, "velocity": 85}, {"time": 133443, "pitch": 43, "duration": 227, "velocity": 95}, {"time": 133443, "pitch": 55, "duration": 227, "velocity": 100}, {"time": 133452, "pitch": 59, "duration": 218, "velocity": 105}, {"time": 133452, "pitch": 62, "duration": 218, "velocity": 100}, {"time": 133680, "pitch": 43, "duration": 228, "velocity": 85}, {"time": 133680, "pitch": 55, "duration": 228, "velocity": 90}, {"time": 133690, "pitch": 59, "duration": 218, "velocity": 95}, {"time": 133690, "pitch": 62, "duration": 218, "velocity": 85}, {"time": 133918, "pitch": 43, "duration": 230, "velocity": 95}, {"time": 133918, "pitch": 55, "duration": 230, "velocity": 100}, {"time": 133928, "pitch": 59, "duration": 220, "velocity": 105}, {"time": 133928, "pitch": 62, "duration": 220, "velocity": 100}, {"time": 134158, "pitch": 43, "duration": 231, "velocity": 85}, {"time": 134158, "pitch": 55, "duration": 231, "velocity": 90}, {"time": 134168, "pitch": 59, "duration": 221, "velocity": 95}, {"time": 134168, "pitch": 62, "duration": 221, "velocity": 85}, {"time": 134399, "pitch": 43, "duration": 230, "velocity": 95}, {"time": 134399, "pitch": 55, "duration": 230, "velocity": 100}, {"time": 134409, "pitch": 59, "duration": 220, "velocity": 105}, {"time": 134409, "pitch": 62, "duration": 220, "velocity": 100}, {"time": 134639, "pitch": 45, "duration": 61, "velocity": 100}, {"time": 134639, "pitch": 55, "duration": 61, "velocity": 95}, {"time": 134649, "pitch": 59, "duration": 51, "velocity": 90}, {"time": 134880, "pitch": 46, "duration": 230, "velocity": 95}, {"time": 134880, "pitch": 56, "duration": 230, "velocity": 100}, {"time": 134890, "pitch": 60, "duration": 220, "velocity": 105}, {"time": 134890, "pitch": 63, "duration": 220, "velocity": 100}, {"time": 135121, "pitch": 46, "duration": 230, "velocity": 85}, {"time": 135121, "pitch": 56, "duration": 230, "velocity": 90}, {"time": 135131, "pitch": 60, "duration": 220, "velocity": 95}, {"time": 135131, "pitch": 63, "duration": 220, "velocity": 85}, {"time": 135361, "pitch": 46, "duration": 231, "velocity": 95}, {"time": 135361, "pitch": 56, "duration": 231, "velocity": 100}, {"time": 135371, "pitch": 60, "duration": 221, "velocity": 105}, {"time": 135371, "pitch": 63, "duration": 221, "velocity": 100}, {"time": 135602, "pitch": 46, "duration": 230, "velocity": 85}, {"time": 135602, "pitch": 56, "duration": 230, "velocity": 90}, {"time": 135612, "pitch": 60, "duration": 220, "velocity": 95}, {"time": 135612, "pitch": 63, "duration": 220, "velocity": 85}, {"time": 135842, "pitch": 46, "duration": 228, "velocity": 95}, {"time": 135842, "pitch": 56, "duration": 228, "velocity": 100}, {"time": 135852, "pitch": 60, "duration": 218, "velocity": 105}, {"time": 135852, "pitch": 63, "duration": 218, "velocity": 100}, {"time": 136080, "pitch": 46, "duration": 228, "velocity": 85}, {"time": 136080, "pitch": 56, "duration": 228, "velocity": 90}, {"time": 136090, "pitch": 60, "duration": 218, "velocity": 95}, {"time": 136090, "pitch": 63, "duration": 218, "velocity": 85}, {"time": 136317, "pitch": 46, "duration": 151, "velocity": 105}, {"time": 136317, "pitch": 56, "duration": 151, "velocity": 100}, {"time": 136327, "pitch": 60, "duration": 141, "velocity": 95}, {"time": 136327, "pitch": 63, "duration": 141, "velocity": 90}, {"time": 136478, "pitch": 60, "duration": 70, "velocity": 95}, {"time": 136478, "pitch": 63, "duration": 80, "velocity": 95}, {"time": 136488, "pitch": 46, "duration": 60, "velocity": 85}, {"time": 136488, "pitch": 56, "duration": 60, "velocity": 90}, {"time": 136558, "pitch": 46, "duration": 80, "velocity": 105}, {"time": 136558, "pitch": 56, "duration": 80, "velocity": 100}, {"time": 136568, "pitch": 60, "duration": 70, "velocity": 95}, {"time": 136568, "pitch": 63, "duration": 70, "velocity": 90}, {"time": 136798, "pitch": 51, "duration": 241, "velocity": 95}, {"time": 136798, "pitch": 58, "duration": 241, "velocity": 105}, {"time": 136809, "pitch": 63, "duration": 220, "velocity": 105}, {"time": 136809, "pitch": 65, "duration": 220, "velocity": 110}, {"time": 137039, "pitch": 63, "duration": 241, "velocity": 95}, {"time": 137039, "pitch": 65, "duration": 241, "velocity": 100}, {"time": 137049, "pitch": 51, "duration": 221, "velocity": 85}, {"time": 137049, "pitch": 58, "duration": 221, "velocity": 90}, {"time": 137280, "pitch": 51, "duration": 160, "velocity": 100}, {"time": 137280, "pitch": 58, "duration": 160, "velocity": 105}, {"time": 137290, "pitch": 63, "duration": 150, "velocity": 110}, {"time": 137300, "pitch": 65, "duration": 140, "velocity": 115}, {"time": 137440, "pitch": 63, "duration": 80, "velocity": 90}, {"time": 137440, "pitch": 65, "duration": 80, "velocity": 95}, {"time": 137450, "pitch": 51, "duration": 60, "velocity": 80}, {"time": 137450, "pitch": 58, "duration": 60, "velocity": 85}, {"time": 137520, "pitch": 51, "duration": 231, "velocity": 90}, {"time": 137520, "pitch": 58, "duration": 231, "velocity": 95}, {"time": 137530, "pitch": 63, "duration": 231, "velocity": 100}, {"time": 137530, "pitch": 65, "duration": 231, "velocity": 105}, {"time": 137761, "pitch": 51, "duration": 240, "velocity": 95}, {"time": 137761, "pitch": 58, "duration": 240, "velocity": 105}, {"time": 137771, "pitch": 63, "duration": 220, "velocity": 105}, {"time": 137771, "pitch": 65, "duration": 220, "velocity": 110}, {"time": 138001, "pitch": 63, "duration": 241, "velocity": 95}, {"time": 138001, "pitch": 65, "duration": 241, "velocity": 100}, {"time": 138011, "pitch": 51, "duration": 221, "velocity": 85}, {"time": 138011, "pitch": 58, "duration": 221, "velocity": 90}, {"time": 138242, "pitch": 51, "duration": 160, "velocity": 100}, {"time": 138242, "pitch": 58, "duration": 160, "velocity": 105}, {"time": 138252, "pitch": 63, "duration": 150, "velocity": 110}, {"time": 138262, "pitch": 65, "duration": 140, "velocity": 115}, {"time": 138402, "pitch": 63, "duration": 80, "velocity": 90}, {"time": 138402, "pitch": 65, "duration": 80, "velocity": 95}, {"time": 138412, "pitch": 51, "duration": 60, "velocity": 80}, {"time": 138412, "pitch": 58, "duration": 60, "velocity": 85}, {"time": 138482, "pitch": 51, "duration": 231, "velocity": 90}, {"time": 138482, "pitch": 58, "duration": 231, "velocity": 95}, {"time": 138492, "pitch": 63, "duration": 231, "velocity": 100}, {"time": 138492, "pitch": 65, "duration": 231, "velocity": 105}, {"time": 138723, "pitch": 48, "duration": 465, "velocity": 90}, {"time": 138723, "pitch": 55, "duration": 237, "velocity": 95}, {"time": 138723, "pitch": 58, "duration": 237, "velocity": 105}, {"time": 138733, "pitch": 63, "duration": 218, "velocity": 105}, {"time": 138733, "pitch": 65, "duration": 218, "velocity": 110}, {"time": 138960, "pitch": 63, "duration": 238, "velocity": 95}, {"time": 138960, "pitch": 65, "duration": 238, "velocity": 100}, {"time": 138970, "pitch": 55, "duration": 218, "velocity": 85}, {"time": 138970, "pitch": 58, "duration": 218, "velocity": 90}, {"time": 139198, "pitch": 48, "duration": 471, "velocity": 95}, {"time": 139198, "pitch": 55, "duration": 160, "velocity": 100}, {"time": 139198, "pitch": 58, "duration": 160, "velocity": 105}, {"time": 139208, "pitch": 63, "duration": 150, "velocity": 110}, {"time": 139218, "pitch": 65, "duration": 140, "velocity": 115}, {"time": 139358, "pitch": 63, "duration": 81, "velocity": 90}, {"time": 139358, "pitch": 65, "duration": 81, "velocity": 95}, {"time": 139368, "pitch": 55, "duration": 61, "velocity": 80}, {"time": 139368, "pitch": 58, "duration": 61, "velocity": 85}, {"time": 139439, "pitch": 55, "duration": 230, "velocity": 90}, {"time": 139439, "pitch": 58, "duration": 230, "velocity": 95}, {"time": 139449, "pitch": 63, "duration": 230, "velocity": 100}, {"time": 139449, "pitch": 65, "duration": 230, "velocity": 105}, {"time": 139679, "pitch": 48, "duration": 471, "velocity": 90}, {"time": 139679, "pitch": 55, "duration": 241, "velocity": 95}, {"time": 139679, "pitch": 58, "duration": 241, "velocity": 105}, {"time": 139689, "pitch": 63, "duration": 221, "velocity": 105}, {"time": 139689, "pitch": 65, "duration": 221, "velocity": 110}, {"time": 139920, "pitch": 63, "duration": 240, "velocity": 95}, {"time": 139920, "pitch": 65, "duration": 240, "velocity": 100}, {"time": 139930, "pitch": 55, "duration": 220, "velocity": 85}, {"time": 139930, "pitch": 58, "duration": 220, "velocity": 90}, {"time": 140160, "pitch": 48, "duration": 471, "velocity": 95}, {"time": 140160, "pitch": 55, "duration": 161, "velocity": 100}, {"time": 140160, "pitch": 58, "duration": 161, "velocity": 105}, {"time": 140170, "pitch": 63, "duration": 151, "velocity": 110}, {"time": 140180, "pitch": 65, "duration": 141, "velocity": 115}, {"time": 140321, "pitch": 63, "duration": 80, "velocity": 90}, {"time": 140321, "pitch": 65, "duration": 80, "velocity": 95}, {"time": 140331, "pitch": 55, "duration": 60, "velocity": 80}, {"time": 140331, "pitch": 58, "duration": 60, "velocity": 85}, {"time": 140401, "pitch": 55, "duration": 230, "velocity": 90}, {"time": 140401, "pitch": 58, "duration": 230, "velocity": 95}, {"time": 140411, "pitch": 63, "duration": 230, "velocity": 100}, {"time": 140411, "pitch": 65, "duration": 230, "velocity": 105}, {"time": 140641, "pitch": 44, "duration": 471, "velocity": 90}, {"time": 140641, "pitch": 59, "duration": 241, "velocity": 105}, {"time": 140651, "pitch": 65, "duration": 221, "velocity": 110}, {"time": 140882, "pitch": 63, "duration": 240, "velocity": 95}, {"time": 140882, "pitch": 65, "duration": 240, "velocity": 100}, {"time": 140892, "pitch": 53, "duration": 220, "velocity": 85}, {"time": 140892, "pitch": 59, "duration": 220, "velocity": 90}, {"time": 141122, "pitch": 44, "duration": 466, "velocity": 95}, {"time": 141122, "pitch": 53, "duration": 159, "velocity": 100}, {"time": 141122, "pitch": 59, "duration": 159, "velocity": 105}, {"time": 141132, "pitch": 63, "duration": 149, "velocity": 110}, {"time": 141142, "pitch": 65, "duration": 139, "velocity": 115}, {"time": 141281, "pitch": 63, "duration": 79, "velocity": 90}, {"time": 141281, "pitch": 65, "duration": 79, "velocity": 95}, {"time": 141291, "pitch": 53, "duration": 59, "velocity": 80}, {"time": 141291, "pitch": 59, "duration": 59, "velocity": 85}, {"time": 141360, "pitch": 53, "duration": 228, "velocity": 90}, {"time": 141360, "pitch": 59, "duration": 228, "velocity": 95}, {"time": 141370, "pitch": 63, "duration": 228, "velocity": 100}, {"time": 141370, "pitch": 65, "duration": 228, "velocity": 105}, {"time": 141598, "pitch": 44, "duration": 471, "velocity": 90}, {"time": 141598, "pitch": 53, "duration": 240, "velocity": 95}, {"time": 141598, "pitch": 59, "duration": 240, "velocity": 105}, {"time": 141608, "pitch": 63, "duration": 220, "velocity": 105}, {"time": 141608, "pitch": 65, "duration": 220, "velocity": 110}, {"time": 141838, "pitch": 63, "duration": 241, "velocity": 95}, {"time": 141838, "pitch": 65, "duration": 241, "velocity": 100}, {"time": 141848, "pitch": 53, "duration": 221, "velocity": 85}, {"time": 141848, "pitch": 59, "duration": 221, "velocity": 90}, {"time": 142079, "pitch": 44, "duration": 471, "velocity": 95}, {"time": 142079, "pitch": 53, "duration": 160, "velocity": 100}, {"time": 142079, "pitch": 59, "duration": 160, "velocity": 105}, {"time": 142089, "pitch": 63, "duration": 150, "velocity": 110}, {"time": 142099, "pitch": 65, "duration": 140, "velocity": 115}, {"time": 142239, "pitch": 63, "duration": 80, "velocity": 90}, {"time": 142239, "pitch": 65, "duration": 80, "velocity": 95}, {"time": 142249, "pitch": 53, "duration": 60, "velocity": 80}, {"time": 142249, "pitch": 59, "duration": 60, "velocity": 85}, {"time": 142319, "pitch": 53, "duration": 231, "velocity": 90}, {"time": 142319, "pitch": 59, "duration": 231, "velocity": 95}, {"time": 142329, "pitch": 63, "duration": 231, "velocity": 100}, {"time": 142329, "pitch": 65, "duration": 231, "velocity": 105}, {"time": 142560, "pitch": 46, "duration": 471, "velocity": 90}, {"time": 142560, "pitch": 56, "duration": 240, "velocity": 105}, {"time": 142570, "pitch": 65, "duration": 220, "velocity": 110}, {"time": 142800, "pitch": 62, "duration": 241, "velocity": 95}, {"time": 142800, "pitch": 65, "duration": 241, "velocity": 100}, {"time": 142810, "pitch": 53, "duration": 221, "velocity": 85}, {"time": 142810, "pitch": 56, "duration": 221, "velocity": 90}, {"time": 143041, "pitch": 46, "duration": 471, "velocity": 95}, {"time": 143041, "pitch": 53, "duration": 160, "velocity": 100}, {"time": 143041, "pitch": 56, "duration": 160, "velocity": 105}, {"time": 143051, "pitch": 62, "duration": 150, "velocity": 110}, {"time": 143061, "pitch": 65, "duration": 140, "velocity": 115}, {"time": 143201, "pitch": 62, "duration": 81, "velocity": 90}, {"time": 143201, "pitch": 65, "duration": 81, "velocity": 95}, {"time": 143211, "pitch": 53, "duration": 60, "velocity": 80}, {"time": 143211, "pitch": 56, "duration": 60, "velocity": 85}, {"time": 143282, "pitch": 53, "duration": 230, "velocity": 90}, {"time": 143282, "pitch": 56, "duration": 230, "velocity": 95}, {"time": 143292, "pitch": 62, "duration": 230, "velocity": 100}, {"time": 143292, "pitch": 65, "duration": 230, "velocity": 105}, {"time": 143522, "pitch": 46, "duration": 465, "velocity": 90}, {"time": 143522, "pitch": 53, "duration": 238, "velocity": 95}, {"time": 143522, "pitch": 56, "duration": 238, "velocity": 105}, {"time": 143532, "pitch": 63, "duration": 218, "velocity": 105}, {"time": 143532, "pitch": 65, "duration": 218, "velocity": 110}, {"time": 143760, "pitch": 63, "duration": 237, "velocity": 95}, {"time": 143760, "pitch": 65, "duration": 237, "velocity": 100}, {"time": 143770, "pitch": 53, "duration": 217, "velocity": 85}, {"time": 143770, "pitch": 56, "duration": 217, "velocity": 90}, {"time": 143997, "pitch": 46, "duration": 471, "velocity": 95}, {"time": 143997, "pitch": 53, "duration": 161, "velocity": 100}, {"time": 143997, "pitch": 56, "duration": 161, "velocity": 105}, {"time": 144007, "pitch": 63, "duration": 151, "velocity": 115}, {"time": 144017, "pitch": 65, "duration": 141, "velocity": 110}, {"time": 144158, "pitch": 62, "duration": 80, "velocity": 90}, {"time": 144158, "pitch": 65, "duration": 80, "velocity": 95}, {"time": 144168, "pitch": 53, "duration": 60, "velocity": 80}, {"time": 144168, "pitch": 56, "duration": 60, "velocity": 85}, {"time": 144238, "pitch": 53, "duration": 230, "velocity": 90}, {"time": 144238, "pitch": 56, "duration": 230, "velocity": 95}, {"time": 144248, "pitch": 62, "duration": 230, "velocity": 105}, {"time": 144248, "pitch": 65, "duration": 230, "velocity": 100}, {"time": 144478, "pitch": 51, "duration": 241, "velocity": 95}, {"time": 144478, "pitch": 58, "duration": 241, "velocity": 105}, {"time": 144488, "pitch": 65, "duration": 221, "velocity": 110}, {"time": 144719, "pitch": 63, "duration": 240, "velocity": 95}, {"time": 144719, "pitch": 65, "duration": 240, "velocity": 100}, {"time": 144729, "pitch": 51, "duration": 220, "velocity": 85}, {"time": 144729, "pitch": 58, "duration": 220, "velocity": 90}, {"time": 144959, "pitch": 51, "duration": 161, "velocity": 100}, {"time": 144959, "pitch": 58, "duration": 161, "velocity": 105}, {"time": 144970, "pitch": 63, "duration": 150, "velocity": 110}, {"time": 144980, "pitch": 65, "duration": 140, "velocity": 115}, {"time": 145120, "pitch": 63, "duration": 80, "velocity": 90}, {"time": 145120, "pitch": 65, "duration": 80, "velocity": 95}, {"time": 145130, "pitch": 51, "duration": 60, "velocity": 80}, {"time": 145130, "pitch": 58, "duration": 60, "velocity": 85}, {"time": 145200, "pitch": 51, "duration": 231, "velocity": 90}, {"time": 145200, "pitch": 58, "duration": 231, "velocity": 95}, {"time": 145210, "pitch": 63, "duration": 231, "velocity": 100}, {"time": 145210, "pitch": 65, "duration": 231, "velocity": 105}, {"time": 145441, "pitch": 51, "duration": 240, "velocity": 95}, {"time": 145441, "pitch": 58, "duration": 240, "velocity": 105}, {"time": 145451, "pitch": 63, "duration": 220, "velocity": 105}, {"time": 145451, "pitch": 65, "duration": 220, "velocity": 110}, {"time": 145681, "pitch": 63, "duration": 241, "velocity": 95}, {"time": 145681, "pitch": 65, "duration": 241, "velocity": 100}, {"time": 145691, "pitch": 51, "duration": 221, "velocity": 85}, {"time": 145691, "pitch": 58, "duration": 221, "velocity": 90}, {"time": 145922, "pitch": 51, "duration": 160, "velocity": 100}, {"time": 145922, "pitch": 58, "duration": 160, "velocity": 105}, {"time": 145932, "pitch": 63, "duration": 150, "velocity": 110}, {"time": 145942, "pitch": 65, "duration": 140, "velocity": 115}, {"time": 146082, "pitch": 63, "duration": 80, "velocity": 90}, {"time": 146082, "pitch": 65, "duration": 80, "velocity": 95}, {"time": 146092, "pitch": 51, "duration": 60, "velocity": 80}, {"time": 146092, "pitch": 58, "duration": 60, "velocity": 85}, {"time": 146162, "pitch": 51, "duration": 231, "velocity": 90}, {"time": 146162, "pitch": 58, "duration": 231, "velocity": 95}, {"time": 146172, "pitch": 63, "duration": 231, "velocity": 100}, {"time": 146172, "pitch": 65, "duration": 231, "velocity": 105}, {"time": 146403, "pitch": 48, "duration": 465, "velocity": 90}, {"time": 146403, "pitch": 58, "duration": 237, "velocity": 105}, {"time": 146413, "pitch": 65, "duration": 217, "velocity": 110}, {"time": 146640, "pitch": 63, "duration": 238, "velocity": 95}, {"time": 146640, "pitch": 65, "duration": 238, "velocity": 100}, {"time": 146650, "pitch": 55, "duration": 218, "velocity": 85}, {"time": 146650, "pitch": 58, "duration": 218, "velocity": 90}, {"time": 146878, "pitch": 48, "duration": 471, "velocity": 95}, {"time": 146878, "pitch": 55, "duration": 160, "velocity": 100}, {"time": 146878, "pitch": 58, "duration": 160, "velocity": 105}, {"time": 146888, "pitch": 63, "duration": 150, "velocity": 110}, {"time": 146898, "pitch": 65, "duration": 140, "velocity": 115}, {"time": 147038, "pitch": 63, "duration": 81, "velocity": 90}, {"time": 147038, "pitch": 65, "duration": 81, "velocity": 95}, {"time": 147048, "pitch": 55, "duration": 61, "velocity": 80}, {"time": 147048, "pitch": 58, "duration": 61, "velocity": 85}, {"time": 147119, "pitch": 55, "duration": 230, "velocity": 90}, {"time": 147119, "pitch": 58, "duration": 230, "velocity": 95}, {"time": 147129, "pitch": 63, "duration": 230, "velocity": 100}, {"time": 147129, "pitch": 65, "duration": 230, "velocity": 105}, {"time": 147359, "pitch": 48, "duration": 471, "velocity": 90}, {"time": 147359, "pitch": 55, "duration": 241, "velocity": 95}, {"time": 147359, "pitch": 58, "duration": 241, "velocity": 105}, {"time": 147369, "pitch": 63, "duration": 221, "velocity": 105}, {"time": 147369, "pitch": 65, "duration": 221, "velocity": 110}, {"time": 147600, "pitch": 63, "duration": 240, "velocity": 95}, {"time": 147600, "pitch": 65, "duration": 240, "velocity": 100}, {"time": 147610, "pitch": 55, "duration": 220, "velocity": 85}, {"time": 147610, "pitch": 58, "duration": 220, "velocity": 90}, {"time": 147840, "pitch": 48, "duration": 471, "velocity": 95}, {"time": 147840, "pitch": 55, "duration": 161, "velocity": 100}, {"time": 147840, "pitch": 58, "duration": 161, "velocity": 105}, {"time": 147850, "pitch": 63, "duration": 151, "velocity": 110}, {"time": 147860, "pitch": 65, "duration": 141, "velocity": 115}, {"time": 148001, "pitch": 63, "duration": 80, "velocity": 90}, {"time": 148001, "pitch": 65, "duration": 80, "velocity": 95}, {"time": 148011, "pitch": 55, "duration": 60, "velocity": 80}, {"time": 148011, "pitch": 58, "duration": 60, "velocity": 85}, {"time": 148081, "pitch": 55, "duration": 230, "velocity": 90}, {"time": 148081, "pitch": 58, "duration": 230, "velocity": 95}, {"time": 148091, "pitch": 63, "duration": 230, "velocity": 100}, {"time": 148091, "pitch": 65, "duration": 230, "velocity": 105}, {"time": 148321, "pitch": 44, "duration": 471, "velocity": 90}, {"time": 148321, "pitch": 59, "duration": 241, "velocity": 105}, {"time": 148331, "pitch": 65, "duration": 221, "velocity": 110}, {"time": 148562, "pitch": 63, "duration": 240, "velocity": 95}, {"time": 148572, "pitch": 53, "duration": 220, "velocity": 85}, {"time": 148572, "pitch": 59, "duration": 220, "velocity": 90}, {"time": 148802, "pitch": 44, "duration": 466, "velocity": 95}, {"time": 148802, "pitch": 59, "duration": 159, "velocity": 105}, {"time": 148812, "pitch": 63, "duration": 149, "velocity": 110}, {"time": 148822, "pitch": 65, "duration": 139, "velocity": 115}, {"time": 148961, "pitch": 63, "duration": 79, "velocity": 90}, {"time": 148961, "pitch": 65, "duration": 79, "velocity": 95}, {"time": 148971, "pitch": 53, "duration": 59, "velocity": 80}, {"time": 149040, "pitch": 59, "duration": 228, "velocity": 95}, {"time": 149050, "pitch": 65, "duration": 228, "velocity": 105}, {"time": 149278, "pitch": 44, "duration": 471, "velocity": 90}, {"time": 149278, "pitch": 59, "duration": 240, "velocity": 105}, {"time": 149288, "pitch": 65, "duration": 220, "velocity": 110}, {"time": 149518, "pitch": 63, "duration": 241, "velocity": 95}, {"time": 149518, "pitch": 65, "duration": 241, "velocity": 100}, {"time": 149528, "pitch": 53, "duration": 221, "velocity": 85}, {"time": 149528, "pitch": 59, "duration": 221, "velocity": 90}, {"time": 149759, "pitch": 44, "duration": 471, "velocity": 95}, {"time": 149759, "pitch": 59, "duration": 160, "velocity": 105}, {"time": 149769, "pitch": 63, "duration": 150, "velocity": 110}, {"time": 149779, "pitch": 65, "duration": 140, "velocity": 115}, {"time": 149919, "pitch": 63, "duration": 80, "velocity": 90}, {"time": 149919, "pitch": 65, "duration": 80, "velocity": 95}, {"time": 149929, "pitch": 53, "duration": 60, "velocity": 80}, {"time": 149929, "pitch": 59, "duration": 60, "velocity": 85}, {"time": 149999, "pitch": 59, "duration": 231, "velocity": 95}, {"time": 150009, "pitch": 65, "duration": 231, "velocity": 105}, {"time": 150240, "pitch": 46, "duration": 471, "velocity": 90}, {"time": 150240, "pitch": 56, "duration": 240, "velocity": 105}, {"time": 150250, "pitch": 65, "duration": 220, "velocity": 110}, {"time": 150480, "pitch": 62, "duration": 241, "velocity": 95}, {"time": 150480, "pitch": 65, "duration": 241, "velocity": 100}, {"time": 150490, "pitch": 53, "duration": 221, "velocity": 85}, {"time": 150490, "pitch": 56, "duration": 221, "velocity": 90}, {"time": 150721, "pitch": 46, "duration": 471, "velocity": 95}, {"time": 150721, "pitch": 53, "duration": 160, "velocity": 100}, {"time": 150721, "pitch": 56, "duration": 160, "velocity": 105}, {"time": 150731, "pitch": 62, "duration": 150, "velocity": 110}, {"time": 150741, "pitch": 65, "duration": 140, "velocity": 115}, {"time": 150881, "pitch": 62, "duration": 80, "velocity": 90}, {"time": 150881, "pitch": 65, "duration": 80, "velocity": 95}, {"time": 150891, "pitch": 53, "duration": 60, "velocity": 80}, {"time": 150891, "pitch": 56, "duration": 60, "velocity": 85}, {"time": 150961, "pitch": 53, "duration": 231, "velocity": 90}, {"time": 150961, "pitch": 56, "duration": 231, "velocity": 95}, {"time": 150971, "pitch": 62, "duration": 231, "velocity": 100}, {"time": 150971, "pitch": 65, "duration": 231, "velocity": 105}, {"time": 151202, "pitch": 46, "duration": 465, "velocity": 90}, {"time": 151202, "pitch": 53, "duration": 238, "velocity": 95}, {"time": 151202, "pitch": 56, "duration": 238, "velocity": 105}, {"time": 151212, "pitch": 63, "duration": 218, "velocity": 105}, {"time": 151212, "pitch": 65, "duration": 218, "velocity": 110}, {"time": 151440, "pitch": 63, "duration": 237, "velocity": 95}, {"time": 151440, "pitch": 65, "duration": 237, "velocity": 100}, {"time": 151450, "pitch": 53, "duration": 217, "velocity": 85}, {"time": 151450, "pitch": 56, "duration": 217, "velocity": 90}, {"time": 151677, "pitch": 46, "duration": 471, "velocity": 95}, {"time": 151677, "pitch": 53, "duration": 161, "velocity": 100}, {"time": 151677, "pitch": 56, "duration": 161, "velocity": 105}, {"time": 151687, "pitch": 63, "duration": 151, "velocity": 115}, {"time": 151697, "pitch": 65, "duration": 141, "velocity": 110}, {"time": 151838, "pitch": 62, "duration": 80, "velocity": 90}, {"time": 151838, "pitch": 65, "duration": 80, "velocity": 95}, {"time": 151848, "pitch": 53, "duration": 60, "velocity": 80}, {"time": 151848, "pitch": 56, "duration": 60, "velocity": 85}, {"time": 151918, "pitch": 53, "duration": 230, "velocity": 90}, {"time": 151918, "pitch": 56, "duration": 230, "velocity": 95}, {"time": 151928, "pitch": 62, "duration": 230, "velocity": 105}, {"time": 151928, "pitch": 65, "duration": 230, "velocity": 100}, {"time": 152158, "pitch": 43, "duration": 471, "velocity": 90}, {"time": 152158, "pitch": 55, "duration": 241, "velocity": 105}, {"time": 152168, "pitch": 62, "duration": 221, "velocity": 110}, {"time": 152399, "pitch": 59, "duration": 240, "velocity": 95}, {"time": 152399, "pitch": 62, "duration": 240, "velocity": 100}, {"time": 152409, "pitch": 50, "duration": 220, "velocity": 85}, {"time": 152409, "pitch": 55, "duration": 220, "velocity": 90}, {"time": 152639, "pitch": 43, "duration": 471, "velocity": 95}, {"time": 152639, "pitch": 50, "duration": 161, "velocity": 100}, {"time": 152639, "pitch": 55, "duration": 161, "velocity": 105}, {"time": 152649, "pitch": 59, "duration": 151, "velocity": 110}, {"time": 152659, "pitch": 62, "duration": 141, "velocity": 115}, {"time": 152800, "pitch": 59, "duration": 80, "velocity": 90}, {"time": 152800, "pitch": 62, "duration": 80, "velocity": 95}, {"time": 152810, "pitch": 50, "duration": 60, "velocity": 80}, {"time": 152810, "pitch": 55, "duration": 60, "velocity": 85}, {"time": 152880, "pitch": 50, "duration": 230, "velocity": 90}, {"time": 152880, "pitch": 55, "duration": 230, "velocity": 95}, {"time": 152890, "pitch": 59, "duration": 230, "velocity": 100}, {"time": 152890, "pitch": 62, "duration": 230, "velocity": 105}, {"time": 153120, "pitch": 43, "duration": 472, "velocity": 90}, {"time": 153120, "pitch": 50, "duration": 241, "velocity": 95}, {"time": 153120, "pitch": 55, "duration": 241, "velocity": 105}, {"time": 153131, "pitch": 59, "duration": 220, "velocity": 105}, {"time": 153131, "pitch": 62, "duration": 220, "velocity": 110}, {"time": 153361, "pitch": 59, "duration": 241, "velocity": 95}, {"time": 153361, "pitch": 62, "duration": 241, "velocity": 100}, {"time": 153371, "pitch": 50, "duration": 221, "velocity": 85}, {"time": 153371, "pitch": 55, "duration": 221, "velocity": 90}, {"time": 153602, "pitch": 43, "duration": 471, "velocity": 95}, {"time": 153602, "pitch": 50, "duration": 160, "velocity": 100}, {"time": 153602, "pitch": 55, "duration": 160, "velocity": 105}, {"time": 153612, "pitch": 59, "duration": 150, "velocity": 110}, {"time": 153622, "pitch": 62, "duration": 140, "velocity": 115}, {"time": 153762, "pitch": 59, "duration": 80, "velocity": 90}, {"time": 153762, "pitch": 62, "duration": 80, "velocity": 95}, {"time": 153772, "pitch": 50, "duration": 60, "velocity": 80}, {"time": 153772, "pitch": 55, "duration": 60, "velocity": 85}, {"time": 153842, "pitch": 50, "duration": 231, "velocity": 90}, {"time": 153842, "pitch": 55, "duration": 231, "velocity": 95}, {"time": 153852, "pitch": 59, "duration": 231, "velocity": 100}, {"time": 153852, "pitch": 62, "duration": 231, "velocity": 105}, {"time": 154083, "pitch": 48, "duration": 237, "velocity": 90}, {"time": 154083, "pitch": 58, "duration": 237, "velocity": 105}, {"time": 154093, "pitch": 67, "duration": 217, "velocity": 110}, {"time": 154320, "pitch": 58, "duration": 238, "velocity": 95}, {"time": 154320, "pitch": 63, "duration": 238, "velocity": 100}, {"time": 154330, "pitch": 48, "duration": 218, "velocity": 85}, {"time": 154330, "pitch": 55, "duration": 218, "velocity": 90}, {"time": 154558, "pitch": 48, "duration": 60, "velocity": 90}, {"time": 154558, "pitch": 55, "duration": 60, "velocity": 95}, {"time": 154568, "pitch": 58, "duration": 50, "velocity": 100}, {"time": 154568, "pitch": 63, "duration": 50, "velocity": 105}, {"time": 154798, "pitch": 48, "duration": 472, "velocity": 85}, {"time": 154798, "pitch": 55, "duration": 472, "velocity": 100}, {"time": 154798, "pitch": 58, "duration": 472, "velocity": 105}, {"time": 154808, "pitch": 63, "duration": 462, "velocity": 110}, {"time": 154808, "pitch": 67, "duration": 462, "velocity": 95}, {"time": 155280, "pitch": 48, "duration": 230, "velocity": 80}, {"time": 155280, "pitch": 55, "duration": 230, "velocity": 85}, {"time": 155290, "pitch": 58, "duration": 220, "velocity": 90}, {"time": 155290, "pitch": 63, "duration": 220, "velocity": 95}, {"time": 155520, "pitch": 48, "duration": 160, "velocity": 90}, {"time": 155520, "pitch": 55, "duration": 150, "velocity": 95}, {"time": 155530, "pitch": 58, "duration": 140, "velocity": 100}, {"time": 155530, "pitch": 63, "duration": 140, "velocity": 90}, {"time": 155680, "pitch": 58, "duration": 81, "velocity": 95}, {"time": 155680, "pitch": 63, "duration": 81, "velocity": 80}, {"time": 155690, "pitch": 48, "duration": 61, "velocity": 85}, {"time": 155690, "pitch": 55, "duration": 61, "velocity": 90}, {"time": 155761, "pitch": 48, "duration": 60, "velocity": 85}, {"time": 155761, "pitch": 55, "duration": 60, "velocity": 90}, {"time": 155771, "pitch": 58, "duration": 50, "velocity": 95}, {"time": 155771, "pitch": 63, "duration": 50, "velocity": 85}, {"time": 156001, "pitch": 44, "duration": 471, "velocity": 90}, {"time": 156001, "pitch": 56, "duration": 241, "velocity": 100}, {"time": 156011, "pitch": 63, "duration": 221, "velocity": 110}, {"time": 156242, "pitch": 59, "duration": 240, "velocity": 95}, {"time": 156242, "pitch": 63, "duration": 240, "velocity": 100}, {"time": 156252, "pitch": 51, "duration": 220, "velocity": 85}, {"time": 156252, "pitch": 56, "duration": 220, "velocity": 90}, {"time": 156482, "pitch": 44, "duration": 466, "velocity": 95}, {"time": 156482, "pitch": 51, "duration": 159, "velocity": 100}, {"time": 156482, "pitch": 56, "duration": 159, "velocity": 105}, {"time": 156492, "pitch": 59, "duration": 149, "velocity": 110}, {"time": 156502, "pitch": 63, "duration": 139, "velocity": 115}, {"time": 156641, "pitch": 59, "duration": 79, "velocity": 90}, {"time": 156641, "pitch": 63, "duration": 79, "velocity": 95}, {"time": 156651, "pitch": 51, "duration": 59, "velocity": 80}, {"time": 156651, "pitch": 56, "duration": 59, "velocity": 85}, {"time": 156720, "pitch": 51, "duration": 79, "velocity": 90}, {"time": 156720, "pitch": 56, "duration": 79, "velocity": 95}, {"time": 156730, "pitch": 59, "duration": 69, "velocity": 100}, {"time": 156730, "pitch": 63, "duration": 69, "velocity": 105}, {"time": 156958, "pitch": 44, "duration": 471, "velocity": 90}, {"time": 156963, "pitch": 56, "duration": 461, "velocity": 95}, {"time": 156968, "pitch": 60, "duration": 461, "velocity": 100}, {"time": 156973, "pitch": 63, "duration": 451, "velocity": 105}, {"time": 156988, "pitch": 68, "duration": 441, "velocity": 95}, {"time": 157439, "pitch": 44, "duration": 471, "velocity": 85}, {"time": 157444, "pitch": 56, "duration": 461, "velocity": 90}, {"time": 157449, "pitch": 60, "duration": 461, "velocity": 95}, {"time": 157454, "pitch": 63, "duration": 451, "velocity": 100}, {"time": 157469, "pitch": 67, "duration": 441, "velocity": 105}, {"time": 157920, "pitch": 51, "duration": 471, "velocity": 90}, {"time": 157920, "pitch": 58, "duration": 471, "velocity": 95}, {"time": 157930, "pitch": 68, "duration": 461, "velocity": 105}, {"time": 158401, "pitch": 48, "duration": 60, "velocity": 75}, {"time": 158401, "pitch": 55, "duration": 60, "velocity": 80}, {"time": 158411, "pitch": 58, "duration": 50, "velocity": 85}, {"time": 158411, "pitch": 63, "duration": 50, "velocity": 90}, {"time": 158641, "pitch": 51, "duration": 1147, "velocity": 90}, {"time": 158641, "pitch": 58, "duration": 1147, "velocity": 95}, {"time": 158651, "pitch": 63, "duration": 1137, "velocity": 100}, {"time": 158651, "pitch": 67, "duration": 1137, "velocity": 105}, {"time": 159818, "pitch": 44, "duration": 1445, "velocity": 85}, {"time": 159828, "pitch": 51, "duration": 1435, "velocity": 90}, {"time": 159838, "pitch": 56, "duration": 1435, "velocity": 95}, {"time": 159853, "pitch": 59, "duration": 1425, "velocity": 90}, {"time": 159868, "pitch": 63, "duration": 1415, "velocity": 85}, {"time": 161273, "pitch": 49, "duration": 937, "velocity": 85}, {"time": 161283, "pitch": 56, "duration": 937, "velocity": 90}, {"time": 161302, "pitch": 61, "duration": 928, "velocity": 85}, {"time": 161312, "pitch": 65, "duration": 918, "velocity": 80}, {"time": 162230, "pitch": 51, "duration": 3831, "velocity": 85}, {"time": 162240, "pitch": 58, "duration": 3821, "velocity": 90}, {"time": 162250, "pitch": 63, "duration": 3801, "velocity": 85}, {"time": 162270, "pitch": 65, "duration": 3791, "velocity": 80}, {"time": 18238, "pitch": 83, "duration": 241, "velocity": 110}, {"time": 18479, "pitch": 81, "duration": 240, "velocity": 105}, {"time": 18719, "pitch": 79, "duration": 241, "velocity": 105}, {"time": 18960, "pitch": 78, "duration": 240, "velocity": 100}, {"time": 19200, "pitch": 76, "duration": 241, "velocity": 100}, {"time": 19441, "pitch": 74, "duration": 240, "velocity": 102}, {"time": 19681, "pitch": 81, "duration": 719, "velocity": 100}, {"time": 20400, "pitch": 79, "duration": 1200, "velocity": 106}, {"time": 21600, "pitch": 86, "duration": 721, "velocity": 103}, {"time": 22321, "pitch": 79, "duration": 1197, "velocity": 100}, {"time": 23518, "pitch": 81, "duration": 722, "velocity": 105}, {"time": 24240, "pitch": 86, "duration": 1203, "velocity": 100}, {"time": 25443, "pitch": 91, "duration": 715, "velocity": 100}, {"time": 26158, "pitch": 90, "duration": 1203, "velocity": 100}, {"time": 42240, "pitch": 52, "duration": 160, "velocity": 95}, {"time": 42240, "pitch": 55, "duration": 160, "velocity": 100}, {"time": 42250, "pitch": 61, "duration": 150, "velocity": 105}, {"time": 42250, "pitch": 64, "duration": 140, "velocity": 115}, {"time": 42400, "pitch": 61, "duration": 70, "velocity": 95}, {"time": 42400, "pitch": 64, "duration": 80, "velocity": 100}, {"time": 42410, "pitch": 52, "duration": 60, "velocity": 85}, {"time": 42410, "pitch": 55, "duration": 60, "velocity": 90}, {"time": 42480, "pitch": 52, "duration": 161, "velocity": 95}, {"time": 42480, "pitch": 55, "duration": 161, "velocity": 100}, {"time": 42490, "pitch": 61, "duration": 151, "velocity": 105}, {"time": 42490, "pitch": 64, "duration": 141, "velocity": 115}, {"time": 42641, "pitch": 61, "duration": 70, "velocity": 95}, {"time": 42641, "pitch": 64, "duration": 70, "velocity": 100}, {"time": 42651, "pitch": 52, "duration": 60, "velocity": 85}, {"time": 42651, "pitch": 55, "duration": 60, "velocity": 90}, {"time": 42721, "pitch": 50, "duration": 241, "velocity": 95}, {"time": 42721, "pitch": 57, "duration": 241, "velocity": 105}, {"time": 42731, "pitch": 62, "duration": 221, "velocity": 105}, {"time": 42731, "pitch": 64, "duration": 221, "velocity": 110}, {"time": 42962, "pitch": 62, "duration": 240, "velocity": 95}, {"time": 42962, "pitch": 64, "duration": 240, "velocity": 100}, {"time": 42972, "pitch": 50, "duration": 220, "velocity": 85}, {"time": 42972, "pitch": 57, "duration": 220, "velocity": 90}, {"time": 43202, "pitch": 50, "duration": 158, "velocity": 100}, {"time": 43202, "pitch": 57, "duration": 158, "velocity": 105}, {"time": 43212, "pitch": 62, "duration": 148, "velocity": 110}, {"time": 43222, "pitch": 64, "duration": 138, "velocity": 115}, {"time": 43360, "pitch": 62, "duration": 80, "velocity": 90}, {"time": 43360, "pitch": 64, "duration": 80, "velocity": 95}, {"time": 43370, "pitch": 50, "duration": 60, "velocity": 80}, {"time": 43370, "pitch": 57, "duration": 60, "velocity": 85}, {"time": 43440, "pitch": 50, "duration": 227, "velocity": 90}, {"time": 43440, "pitch": 57, "duration": 227, "velocity": 95}, {"time": 43450, "pitch": 62, "duration": 227, "velocity": 100}, {"time": 43450, "pitch": 64, "duration": 227, "velocity": 105}, {"time": 43677, "pitch": 50, "duration": 241, "velocity": 95}, {"time": 43677, "pitch": 57, "duration": 241, "velocity": 105}, {"time": 43687, "pitch": 62, "duration": 221, "velocity": 105}, {"time": 43687, "pitch": 64, "duration": 221, "velocity": 110}, {"time": 43918, "pitch": 62, "duration": 240, "velocity": 95}, {"time": 43918, "pitch": 64, "duration": 240, "velocity": 100}, {"time": 43928, "pitch": 50, "duration": 220, "velocity": 85}, {"time": 43928, "pitch": 57, "duration": 220, "velocity": 90}, {"time": 44158, "pitch": 50, "duration": 161, "velocity": 100}, {"time": 44158, "pitch": 57, "duration": 161, "velocity": 105}, {"time": 44168, "pitch": 62, "duration": 151, "velocity": 110}, {"time": 44178, "pitch": 64, "duration": 141, "velocity": 115}, {"time": 44319, "pitch": 62, "duration": 80, "velocity": 90}, {"time": 44319, "pitch": 64, "duration": 80, "velocity": 95}, {"time": 44329, "pitch": 50, "duration": 60, "velocity": 80}, {"time": 44329, "pitch": 57, "duration": 60, "velocity": 85}, {"time": 44399, "pitch": 50, "duration": 230, "velocity": 90}, {"time": 44399, "pitch": 57, "duration": 230, "velocity": 95}, {"time": 44409, "pitch": 62, "duration": 230, "velocity": 100}, {"time": 44409, "pitch": 64, "duration": 230, "velocity": 105}, {"time": 44639, "pitch": 47, "duration": 241, "velocity": 90}, {"time": 44639, "pitch": 57, "duration": 241, "velocity": 95}, {"time": 44650, "pitch": 62, "duration": 220, "velocity": 105}, {"time": 44650, "pitch": 64, "duration": 220, "velocity": 110}, {"time": 44880, "pitch": 62, "duration": 241, "velocity": 95}, {"time": 44880, "pitch": 64, "duration": 241, "velocity": 100}, {"time": 44890, "pitch": 47, "duration": 221, "velocity": 85}, {"time": 44890, "pitch": 57, "duration": 221, "velocity": 90}, {"time": 45121, "pitch": 47, "duration": 160, "velocity": 95}, {"time": 45121, "pitch": 57, "duration": 160, "velocity": 105}, {"time": 45131, "pitch": 62, "duration": 140, "velocity": 110}, {"time": 45131, "pitch": 64, "duration": 140, "velocity": 115}, {"time": 45281, "pitch": 62, "duration": 80, "velocity": 90}, {"time": 45281, "pitch": 64, "duration": 80, "velocity": 95}, {"time": 45291, "pitch": 47, "duration": 60, "velocity": 80}, {"time": 45291, "pitch": 57, "duration": 60, "velocity": 85}, {"time": 45361, "pitch": 47, "duration": 231, "velocity": 90}, {"time": 45361, "pitch": 57, "duration": 231, "velocity": 95}, {"time": 45371, "pitch": 62, "duration": 231, "velocity": 100}, {"time": 45371, "pitch": 64, "duration": 231, "velocity": 105}, {"time": 45602, "pitch": 47, "duration": 240, "velocity": 90}, {"time": 45602, "pitch": 57, "duration": 240, "velocity": 95}, {"time": 45612, "pitch": 62, "duration": 220, "velocity": 105}, {"time": 45612, "pitch": 64, "duration": 220, "velocity": 110}, {"time": 45842, "pitch": 62, "duration": 241, "velocity": 95}, {"time": 45842, "pitch": 64, "duration": 241, "velocity": 100}, {"time": 45852, "pitch": 47, "duration": 221, "velocity": 85}, {"time": 45852, "pitch": 57, "duration": 221, "velocity": 90}, {"time": 46083, "pitch": 47, "duration": 158, "velocity": 95}, {"time": 46083, "pitch": 57, "duration": 158, "velocity": 105}, {"time": 46093, "pitch": 62, "duration": 138, "velocity": 110}, {"time": 46093, "pitch": 64, "duration": 138, "velocity": 115}, {"time": 46241, "pitch": 62, "duration": 79, "velocity": 90}, {"time": 46241, "pitch": 64, "duration": 79, "velocity": 95}, {"time": 46251, "pitch": 47, "duration": 59, "velocity": 80}, {"time": 46251, "pitch": 57, "duration": 59, "velocity": 85}, {"time": 46320, "pitch": 47, "duration": 228, "velocity": 90}, {"time": 46320, "pitch": 57, "duration": 228, "velocity": 95}, {"time": 46330, "pitch": 62, "duration": 228, "velocity": 100}, {"time": 46330, "pitch": 64, "duration": 228, "velocity": 105}, {"time": 46558, "pitch": 53, "duration": 241, "velocity": 95}, {"time": 46558, "pitch": 58, "duration": 241, "velocity": 105}, {"time": 46568, "pitch": 62, "duration": 221, "velocity": 105}, {"time": 46568, "pitch": 67, "duration": 221, "velocity": 110}, {"time": 46799, "pitch": 62, "duration": 240, "velocity": 95}, {"time": 46799, "pitch": 67, "duration": 240, "velocity": 100}, {"time": 46809, "pitch": 53, "duration": 220, "velocity": 85}, {"time": 46809, "pitch": 58, "duration": 220, "velocity": 90}, {"time": 47039, "pitch": 53, "duration": 160, "velocity": 100}, {"time": 47039, "pitch": 58, "duration": 160, "velocity": 105}, {"time": 47049, "pitch": 62, "duration": 150, "velocity": 110}, {"time": 47059, "pitch": 67, "duration": 140, "velocity": 115}, {"time": 47199, "pitch": 62, "duration": 81, "velocity": 90}, {"time": 47199, "pitch": 67, "duration": 81, "velocity": 95}, {"time": 47209, "pitch": 53, "duration": 61, "velocity": 80}, {"time": 47209, "pitch": 58, "duration": 61, "velocity": 85}, {"time": 47280, "pitch": 53, "duration": 230, "velocity": 90}, {"time": 47280, "pitch": 58, "duration": 230, "velocity": 95}, {"time": 47290, "pitch": 62, "duration": 230, "velocity": 100}, {"time": 47290, "pitch": 67, "duration": 230, "velocity": 105}, {"time": 47520, "pitch": 53, "duration": 241, "velocity": 95}, {"time": 47520, "pitch": 58, "duration": 241, "velocity": 105}, {"time": 47530, "pitch": 62, "duration": 221, "velocity": 105}, {"time": 47530, "pitch": 67, "duration": 221, "velocity": 110}, {"time": 47761, "pitch": 62, "duration": 240, "velocity": 95}, {"time": 47761, "pitch": 67, "duration": 240, "velocity": 100}, {"time": 47771, "pitch": 53, "duration": 220, "velocity": 85}, {"time": 47771, "pitch": 58, "duration": 220, "velocity": 90}, {"time": 48001, "pitch": 53, "duration": 161, "velocity": 100}, {"time": 48001, "pitch": 58, "duration": 161, "velocity": 105}, {"time": 48011, "pitch": 62, "duration": 151, "velocity": 110}, {"time": 48021, "pitch": 67, "duration": 141, "velocity": 115}, {"time": 48162, "pitch": 62, "duration": 80, "velocity": 90}, {"time": 48162, "pitch": 67, "duration": 80, "velocity": 95}, {"time": 48172, "pitch": 53, "duration": 60, "velocity": 80}, {"time": 48172, "pitch": 58, "duration": 60, "velocity": 85}, {"time": 48242, "pitch": 53, "duration": 230, "velocity": 90}, {"time": 48242, "pitch": 58, "duration": 230, "velocity": 95}, {"time": 48252, "pitch": 62, "duration": 230, "velocity": 100}, {"time": 48252, "pitch": 67, "duration": 230, "velocity": 105}, {"time": 48482, "pitch": 52, "duration": 238, "velocity": 95}, {"time": 48482, "pitch": 55, "duration": 238, "velocity": 105}, {"time": 48492, "pitch": 61, "duration": 218, "velocity": 105}, {"time": 48492, "pitch": 64, "duration": 218, "velocity": 110}, {"time": 48720, "pitch": 61, "duration": 238, "velocity": 95}, {"time": 48720, "pitch": 64, "duration": 238, "velocity": 100}, {"time": 48730, "pitch": 52, "duration": 218, "velocity": 85}, {"time": 48730, "pitch": 55, "duration": 218, "velocity": 90}, {"time": 48958, "pitch": 52, "duration": 160, "velocity": 100}, {"time": 48958, "pitch": 55, "duration": 160, "velocity": 105}, {"time": 48968, "pitch": 61, "duration": 150, "velocity": 110}, {"time": 48978, "pitch": 64, "duration": 140, "velocity": 115}, {"time": 49118, "pitch": 61, "duration": 80, "velocity": 90}, {"time": 49118, "pitch": 64, "duration": 80, "velocity": 95}, {"time": 49128, "pitch": 52, "duration": 60, "velocity": 80}, {"time": 49128, "pitch": 55, "duration": 60, "velocity": 85}, {"time": 49198, "pitch": 52, "duration": 231, "velocity": 90}, {"time": 49198, "pitch": 55, "duration": 231, "velocity": 95}, {"time": 49208, "pitch": 61, "duration": 231, "velocity": 100}, {"time": 49208, "pitch": 64, "duration": 231, "velocity": 105}, {"time": 49439, "pitch": 52, "duration": 240, "velocity": 95}, {"time": 49439, "pitch": 55, "duration": 240, "velocity": 105}, {"time": 49449, "pitch": 62, "duration": 220, "velocity": 105}, {"time": 49449, "pitch": 64, "duration": 220, "velocity": 110}, {"time": 49679, "pitch": 62, "duration": 241, "velocity": 95}, {"time": 49679, "pitch": 64, "duration": 241, "velocity": 100}, {"time": 49689, "pitch": 52, "duration": 221, "velocity": 85}, {"time": 49689, "pitch": 55, "duration": 221, "velocity": 90}, {"time": 49920, "pitch": 52, "duration": 160, "velocity": 95}, {"time": 49920, "pitch": 55, "duration": 160, "velocity": 100}, {"time": 49930, "pitch": 61, "duration": 150, "velocity": 105}, {"time": 49930, "pitch": 64, "duration": 140, "velocity": 115}, {"time": 50080, "pitch": 61, "duration": 70, "velocity": 95}, {"time": 50080, "pitch": 64, "duration": 80, "velocity": 100}, {"time": 50090, "pitch": 52, "duration": 60, "velocity": 85}, {"time": 50090, "pitch": 55, "duration": 60, "velocity": 90}, {"time": 50160, "pitch": 52, "duration": 161, "velocity": 95}, {"time": 50160, "pitch": 55, "duration": 161, "velocity": 100}, {"time": 50170, "pitch": 61, "duration": 151, "velocity": 105}, {"time": 50170, "pitch": 64, "duration": 141, "velocity": 115}, {"time": 50321, "pitch": 61, "duration": 70, "velocity": 95}, {"time": 50321, "pitch": 64, "duration": 70, "velocity": 100}, {"time": 50331, "pitch": 52, "duration": 60, "velocity": 85}, {"time": 50331, "pitch": 55, "duration": 60, "velocity": 90}, {"time": 50401, "pitch": 50, "duration": 240, "velocity": 95}, {"time": 50401, "pitch": 57, "duration": 240, "velocity": 105}, {"time": 50411, "pitch": 62, "duration": 220, "velocity": 105}, {"time": 50411, "pitch": 64, "duration": 220, "velocity": 110}, {"time": 50641, "pitch": 62, "duration": 241, "velocity": 95}, {"time": 50641, "pitch": 64, "duration": 241, "velocity": 100}, {"time": 50651, "pitch": 50, "duration": 221, "velocity": 85}, {"time": 50651, "pitch": 57, "duration": 221, "velocity": 90}, {"time": 50882, "pitch": 50, "duration": 158, "velocity": 100}, {"time": 50882, "pitch": 57, "duration": 158, "velocity": 105}, {"time": 50892, "pitch": 62, "duration": 148, "velocity": 110}, {"time": 50902, "pitch": 64, "duration": 138, "velocity": 115}, {"time": 51040, "pitch": 62, "duration": 80, "velocity": 90}, {"time": 51040, "pitch": 64, "duration": 80, "velocity": 95}, {"time": 51050, "pitch": 50, "duration": 60, "velocity": 80}, {"time": 51050, "pitch": 57, "duration": 60, "velocity": 85}, {"time": 51120, "pitch": 50, "duration": 227, "velocity": 90}, {"time": 51120, "pitch": 57, "duration": 227, "velocity": 95}, {"time": 51130, "pitch": 62, "duration": 227, "velocity": 100}, {"time": 51130, "pitch": 64, "duration": 227, "velocity": 105}, {"time": 51357, "pitch": 50, "duration": 241, "velocity": 95}, {"time": 51357, "pitch": 57, "duration": 241, "velocity": 105}, {"time": 51367, "pitch": 62, "duration": 221, "velocity": 105}, {"time": 51367, "pitch": 64, "duration": 221, "velocity": 110}, {"time": 51598, "pitch": 62, "duration": 240, "velocity": 95}, {"time": 51598, "pitch": 64, "duration": 240, "velocity": 100}, {"time": 51608, "pitch": 50, "duration": 220, "velocity": 85}, {"time": 51608, "pitch": 57, "duration": 220, "velocity": 90}, {"time": 51838, "pitch": 50, "duration": 161, "velocity": 100}, {"time": 51838, "pitch": 57, "duration": 161, "velocity": 105}, {"time": 51848, "pitch": 62, "duration": 151, "velocity": 110}, {"time": 51858, "pitch": 64, "duration": 141, "velocity": 115}, {"time": 51999, "pitch": 62, "duration": 80, "velocity": 90}, {"time": 51999, "pitch": 64, "duration": 80, "velocity": 95}, {"time": 52009, "pitch": 50, "duration": 60, "velocity": 80}, {"time": 52009, "pitch": 57, "duration": 60, "velocity": 85}, {"time": 52079, "pitch": 50, "duration": 230, "velocity": 90}, {"time": 52079, "pitch": 57, "duration": 230, "velocity": 95}, {"time": 52089, "pitch": 62, "duration": 230, "velocity": 100}, {"time": 52089, "pitch": 64, "duration": 230, "velocity": 105}, {"time": 52319, "pitch": 47, "duration": 241, "velocity": 90}, {"time": 52319, "pitch": 57, "duration": 241, "velocity": 95}, {"time": 52329, "pitch": 62, "duration": 221, "velocity": 105}, {"time": 52329, "pitch": 64, "duration": 221, "velocity": 110}, {"time": 52560, "pitch": 62, "duration": 241, "velocity": 95}, {"time": 52560, "pitch": 64, "duration": 241, "velocity": 100}, {"time": 52570, "pitch": 47, "duration": 220, "velocity": 85}, {"time": 52570, "pitch": 57, "duration": 220, "velocity": 90}, {"time": 52801, "pitch": 47, "duration": 160, "velocity": 95}, {"time": 52801, "pitch": 57, "duration": 160, "velocity": 105}, {"time": 52811, "pitch": 62, "duration": 140, "velocity": 110}, {"time": 52811, "pitch": 64, "duration": 140, "velocity": 115}, {"time": 52961, "pitch": 62, "duration": 80, "velocity": 90}, {"time": 52961, "pitch": 64, "duration": 80, "velocity": 95}, {"time": 52971, "pitch": 47, "duration": 60, "velocity": 80}, {"time": 52971, "pitch": 57, "duration": 60, "velocity": 85}, {"time": 53041, "pitch": 47, "duration": 231, "velocity": 90}, {"time": 53041, "pitch": 57, "duration": 231, "velocity": 95}, {"time": 53051, "pitch": 62, "duration": 231, "velocity": 100}, {"time": 53051, "pitch": 64, "duration": 231, "velocity": 105}, {"time": 53282, "pitch": 47, "duration": 240, "velocity": 90}, {"time": 53282, "pitch": 57, "duration": 240, "velocity": 95}, {"time": 53292, "pitch": 62, "duration": 220, "velocity": 105}, {"time": 53292, "pitch": 64, "duration": 220, "velocity": 110}, {"time": 53522, "pitch": 62, "duration": 241, "velocity": 95}, {"time": 53522, "pitch": 64, "duration": 241, "velocity": 100}, {"time": 53532, "pitch": 47, "duration": 221, "velocity": 85}, {"time": 53532, "pitch": 57, "duration": 221, "velocity": 90}, {"time": 53763, "pitch": 47, "duration": 158, "velocity": 95}, {"time": 53763, "pitch": 57, "duration": 158, "velocity": 105}, {"time": 53773, "pitch": 62, "duration": 138, "velocity": 110}, {"time": 53773, "pitch": 64, "duration": 138, "velocity": 115}, {"time": 53921, "pitch": 62, "duration": 79, "velocity": 90}, {"time": 53921, "pitch": 64, "duration": 79, "velocity": 95}, {"time": 53931, "pitch": 47, "duration": 59, "velocity": 80}, {"time": 53931, "pitch": 57, "duration": 59, "velocity": 85}, {"time": 54000, "pitch": 47, "duration": 228, "velocity": 90}, {"time": 54000, "pitch": 57, "duration": 228, "velocity": 95}, {"time": 54010, "pitch": 62, "duration": 228, "velocity": 100}, {"time": 54010, "pitch": 64, "duration": 228, "velocity": 105}, {"time": 54238, "pitch": 53, "duration": 240, "velocity": 95}, {"time": 54238, "pitch": 58, "duration": 240, "velocity": 105}, {"time": 54248, "pitch": 62, "duration": 220, "velocity": 105}, {"time": 54248, "pitch": 67, "duration": 220, "velocity": 110}, {"time": 54478, "pitch": 62, "duration": 241, "velocity": 95}, {"time": 54478, "pitch": 67, "duration": 241, "velocity": 100}, {"time": 54488, "pitch": 53, "duration": 221, "velocity": 85}, {"time": 54488, "pitch": 58, "duration": 221, "velocity": 90}, {"time": 54719, "pitch": 53, "duration": 160, "velocity": 100}, {"time": 54719, "pitch": 58, "duration": 160, "velocity": 105}, {"time": 54729, "pitch": 62, "duration": 150, "velocity": 110}, {"time": 54739, "pitch": 67, "duration": 140, "velocity": 115}, {"time": 54879, "pitch": 62, "duration": 81, "velocity": 90}, {"time": 54879, "pitch": 67, "duration": 81, "velocity": 95}, {"time": 54889, "pitch": 53, "duration": 61, "velocity": 80}, {"time": 54889, "pitch": 58, "duration": 61, "velocity": 85}, {"time": 54960, "pitch": 53, "duration": 230, "velocity": 90}, {"time": 54960, "pitch": 58, "duration": 230, "velocity": 95}, {"time": 54970, "pitch": 62, "duration": 230, "velocity": 100}, {"time": 54970, "pitch": 67, "duration": 230, "velocity": 105}, {"time": 55200, "pitch": 55, "duration": 471, "velocity": 95}, {"time": 55205, "pitch": 59, "duration": 461, "velocity": 105}, {"time": 55210, "pitch": 62, "duration": 461, "velocity": 105}, {"time": 55210, "pitch": 67, "duration": 461, "velocity": 110}, {"time": 55681, "pitch": 52, "duration": 471, "velocity": 95}, {"time": 55686, "pitch": 55, "duration": 461, "velocity": 105}, {"time": 55696, "pitch": 61, "duration": 451, "velocity": 105}, {"time": 55701, "pitch": 66, "duration": 441, "velocity": 110}, {"time": 56162, "pitch": 50, "duration": 1909, "velocity": 95}, {"time": 56177, "pitch": 57, "duration": 1889, "velocity": 105}, {"time": 56187, "pitch": 62, "duration": 1879, "velocity": 105}, {"time": 56202, "pitch": 64, "duration": 1869, "velocity": 110}, {"time": 58081, "pitch": 48, "duration": 1908, "velocity": 95}, {"time": 58096, "pitch": 57, "duration": 1888, "velocity": 105}, {"time": 58106, "pitch": 62, "duration": 1878, "velocity": 105}, {"time": 58121, "pitch": 64, "duration": 1868, "velocity": 110}, {"time": 59999, "pitch": 47, "duration": 1909, "velocity": 95}, {"time": 60014, "pitch": 57, "duration": 1889, "velocity": 105}, {"time": 60024, "pitch": 62, "duration": 1879, "velocity": 105}, {"time": 60039, "pitch": 64, "duration": 1869, "velocity": 110}, {"time": 61918, "pitch": 53, "duration": 120, "velocity": 90}, {"time": 61918, "pitch": 58, "duration": 120, "velocity": 95}, {"time": 61928, "pitch": 62, "duration": 110, "velocity": 100}, {"time": 61928, "pitch": 67, "duration": 110, "velocity": 105}, {"time": 62158, "pitch": 53, "duration": 231, "velocity": 90}, {"time": 62158, "pitch": 58, "duration": 231, "velocity": 95}, {"time": 62168, "pitch": 62, "duration": 221, "velocity": 100}, {"time": 62168, "pitch": 67, "duration": 221, "velocity": 105}, {"time": 62639, "pitch": 55, "duration": 1193, "velocity": 80}, {"time": 62639, "pitch": 59, "duration": 1193, "velocity": 95}, {"time": 62650, "pitch": 62, "duration": 1182, "velocity": 100}, {"time": 62650, "pitch": 67, "duration": 1182, "velocity": 105}, {"time": 101761, "pitch": 52, "duration": 160, "velocity": 95}, {"time": 101761, "pitch": 55, "duration": 160, "velocity": 100}, {"time": 101771, "pitch": 61, "duration": 150, "velocity": 105}, {"time": 101771, "pitch": 64, "duration": 140, "velocity": 115}, {"time": 101921, "pitch": 61, "duration": 70, "velocity": 95}, {"time": 101921, "pitch": 64, "duration": 80, "velocity": 100}, {"time": 101931, "pitch": 52, "duration": 60, "velocity": 85}, {"time": 101931, "pitch": 55, "duration": 60, "velocity": 90}, {"time": 102001, "pitch": 52, "duration": 161, "velocity": 95}, {"time": 102001, "pitch": 55, "duration": 161, "velocity": 100}, {"time": 102011, "pitch": 61, "duration": 151, "velocity": 105}, {"time": 102011, "pitch": 64, "duration": 141, "velocity": 115}, {"time": 102162, "pitch": 61, "duration": 70, "velocity": 95}, {"time": 102162, "pitch": 64, "duration": 70, "velocity": 100}, {"time": 102172, "pitch": 52, "duration": 60, "velocity": 85}, {"time": 102172, "pitch": 55, "duration": 60, "velocity": 90}, {"time": 102242, "pitch": 50, "duration": 240, "velocity": 95}, {"time": 102242, "pitch": 57, "duration": 240, "velocity": 105}, {"time": 102252, "pitch": 62, "duration": 220, "velocity": 105}, {"time": 102252, "pitch": 64, "duration": 220, "velocity": 110}, {"time": 102482, "pitch": 62, "duration": 241, "velocity": 95}, {"time": 102482, "pitch": 64, "duration": 241, "velocity": 100}, {"time": 102492, "pitch": 50, "duration": 221, "velocity": 85}, {"time": 102492, "pitch": 57, "duration": 221, "velocity": 90}, {"time": 102723, "pitch": 50, "duration": 158, "velocity": 100}, {"time": 102723, "pitch": 57, "duration": 158, "velocity": 105}, {"time": 102733, "pitch": 62, "duration": 148, "velocity": 110}, {"time": 102743, "pitch": 64, "duration": 138, "velocity": 115}, {"time": 102881, "pitch": 62, "duration": 79, "velocity": 90}, {"time": 102881, "pitch": 64, "duration": 79, "velocity": 95}, {"time": 102891, "pitch": 50, "duration": 60, "velocity": 80}, {"time": 102891, "pitch": 57, "duration": 60, "velocity": 85}, {"time": 102960, "pitch": 50, "duration": 228, "velocity": 90}, {"time": 102960, "pitch": 57, "duration": 228, "velocity": 95}, {"time": 102970, "pitch": 62, "duration": 228, "velocity": 100}, {"time": 102970, "pitch": 64, "duration": 228, "velocity": 105}, {"time": 103198, "pitch": 50, "duration": 241, "velocity": 95}, {"time": 103198, "pitch": 57, "duration": 241, "velocity": 105}, {"time": 103208, "pitch": 62, "duration": 221, "velocity": 105}, {"time": 103208, "pitch": 64, "duration": 221, "velocity": 110}, {"time": 103439, "pitch": 62, "duration": 240, "velocity": 95}, {"time": 103439, "pitch": 64, "duration": 240, "velocity": 100}, {"time": 103449, "pitch": 50, "duration": 220, "velocity": 85}, {"time": 103449, "pitch": 57, "duration": 220, "velocity": 90}, {"time": 103679, "pitch": 50, "duration": 161, "velocity": 100}, {"time": 103679, "pitch": 57, "duration": 161, "velocity": 105}, {"time": 103689, "pitch": 62, "duration": 151, "velocity": 110}, {"time": 103699, "pitch": 64, "duration": 141, "velocity": 115}, {"time": 103840, "pitch": 62, "duration": 80, "velocity": 90}, {"time": 103840, "pitch": 64, "duration": 80, "velocity": 95}, {"time": 103850, "pitch": 50, "duration": 60, "velocity": 80}, {"time": 103850, "pitch": 57, "duration": 60, "velocity": 85}, {"time": 103920, "pitch": 50, "duration": 230, "velocity": 90}, {"time": 103920, "pitch": 57, "duration": 230, "velocity": 95}, {"time": 103930, "pitch": 62, "duration": 230, "velocity": 100}, {"time": 103930, "pitch": 64, "duration": 230, "velocity": 105}, {"time": 104160, "pitch": 47, "duration": 241, "velocity": 90}, {"time": 104160, "pitch": 57, "duration": 241, "velocity": 95}, {"time": 104170, "pitch": 62, "duration": 221, "velocity": 105}, {"time": 104170, "pitch": 64, "duration": 221, "velocity": 110}, {"time": 104401, "pitch": 62, "duration": 240, "velocity": 95}, {"time": 104401, "pitch": 64, "duration": 240, "velocity": 100}, {"time": 104411, "pitch": 47, "duration": 220, "velocity": 85}, {"time": 104411, "pitch": 57, "duration": 220, "velocity": 90}, {"time": 104641, "pitch": 47, "duration": 161, "velocity": 95}, {"time": 104641, "pitch": 57, "duration": 161, "velocity": 105}, {"time": 104651, "pitch": 62, "duration": 141, "velocity": 110}, {"time": 104651, "pitch": 64, "duration": 141, "velocity": 115}, {"time": 104802, "pitch": 62, "duration": 80, "velocity": 90}, {"time": 104802, "pitch": 64, "duration": 80, "velocity": 95}, {"time": 104812, "pitch": 47, "duration": 60, "velocity": 80}, {"time": 104812, "pitch": 57, "duration": 60, "velocity": 85}, {"time": 104882, "pitch": 47, "duration": 230, "velocity": 90}, {"time": 104882, "pitch": 57, "duration": 230, "velocity": 95}, {"time": 104892, "pitch": 62, "duration": 230, "velocity": 100}, {"time": 104892, "pitch": 64, "duration": 230, "velocity": 105}, {"time": 105122, "pitch": 47, "duration": 238, "velocity": 90}, {"time": 105122, "pitch": 57, "duration": 238, "velocity": 95}, {"time": 105132, "pitch": 62, "duration": 218, "velocity": 105}, {"time": 105132, "pitch": 64, "duration": 218, "velocity": 110}, {"time": 105360, "pitch": 62, "duration": 238, "velocity": 95}, {"time": 105360, "pitch": 64, "duration": 238, "velocity": 100}, {"time": 105370, "pitch": 47, "duration": 218, "velocity": 85}, {"time": 105370, "pitch": 57, "duration": 218, "velocity": 90}, {"time": 105598, "pitch": 47, "duration": 160, "velocity": 95}, {"time": 105598, "pitch": 57, "duration": 160, "velocity": 105}, {"time": 105608, "pitch": 62, "duration": 140, "velocity": 110}, {"time": 105608, "pitch": 64, "duration": 140, "velocity": 115}, {"time": 105758, "pitch": 62, "duration": 80, "velocity": 90}, {"time": 105758, "pitch": 64, "duration": 80, "velocity": 95}, {"time": 105768, "pitch": 47, "duration": 60, "velocity": 80}, {"time": 105768, "pitch": 57, "duration": 60, "velocity": 85}, {"time": 105838, "pitch": 47, "duration": 231, "velocity": 90}, {"time": 105838, "pitch": 57, "duration": 231, "velocity": 95}, {"time": 105848, "pitch": 62, "duration": 231, "velocity": 100}, {"time": 105848, "pitch": 64, "duration": 231, "velocity": 105}, {"time": 106079, "pitch": 53, "duration": 240, "velocity": 95}, {"time": 106079, "pitch": 58, "duration": 240, "velocity": 105}, {"time": 106089, "pitch": 62, "duration": 220, "velocity": 105}, {"time": 106089, "pitch": 67, "duration": 220, "velocity": 110}, {"time": 106319, "pitch": 62, "duration": 241, "velocity": 95}, {"time": 106319, "pitch": 67, "duration": 241, "velocity": 100}, {"time": 106329, "pitch": 53, "duration": 221, "velocity": 85}, {"time": 106329, "pitch": 58, "duration": 221, "velocity": 90}, {"time": 106560, "pitch": 53, "duration": 160, "velocity": 100}, {"time": 106560, "pitch": 58, "duration": 160, "velocity": 105}, {"time": 106570, "pitch": 62, "duration": 150, "velocity": 110}, {"time": 106580, "pitch": 67, "duration": 140, "velocity": 115}, {"time": 106720, "pitch": 62, "duration": 80, "velocity": 90}, {"time": 106720, "pitch": 67, "duration": 80, "velocity": 95}, {"time": 106730, "pitch": 53, "duration": 60, "velocity": 80}, {"time": 106730, "pitch": 58, "duration": 60, "velocity": 85}, {"time": 106800, "pitch": 53, "duration": 231, "velocity": 90}, {"time": 106800, "pitch": 58, "duration": 231, "velocity": 95}, {"time": 106810, "pitch": 62, "duration": 231, "velocity": 100}, {"time": 106810, "pitch": 67, "duration": 231, "velocity": 105}, {"time": 107041, "pitch": 53, "duration": 241, "velocity": 95}, {"time": 107041, "pitch": 58, "duration": 241, "velocity": 105}, {"time": 107051, "pitch": 62, "duration": 221, "velocity": 105}, {"time": 107051, "pitch": 67, "duration": 221, "velocity": 110}, {"time": 107282, "pitch": 62, "duration": 240, "velocity": 95}, {"time": 107282, "pitch": 67, "duration": 240, "velocity": 100}, {"time": 107292, "pitch": 53, "duration": 220, "velocity": 85}, {"time": 107292, "pitch": 58, "duration": 220, "velocity": 90}, {"time": 107522, "pitch": 53, "duration": 159, "velocity": 100}, {"time": 107522, "pitch": 58, "duration": 159, "velocity": 105}, {"time": 107532, "pitch": 62, "duration": 149, "velocity": 110}, {"time": 107542, "pitch": 67, "duration": 139, "velocity": 115}, {"time": 107681, "pitch": 62, "duration": 79, "velocity": 90}, {"time": 107681, "pitch": 67, "duration": 79, "velocity": 95}, {"time": 107690, "pitch": 53, "duration": 60, "velocity": 80}, {"time": 107690, "pitch": 58, "duration": 60, "velocity": 85}, {"time": 107760, "pitch": 53, "duration": 227, "velocity": 90}, {"time": 107760, "pitch": 58, "duration": 227, "velocity": 95}, {"time": 107770, "pitch": 62, "duration": 227, "velocity": 100}, {"time": 107770, "pitch": 67, "duration": 227, "velocity": 105}, {"time": 107997, "pitch": 52, "duration": 241, "velocity": 95}, {"time": 107997, "pitch": 55, "duration": 241, "velocity": 105}, {"time": 108007, "pitch": 61, "duration": 221, "velocity": 105}, {"time": 108007, "pitch": 64, "duration": 221, "velocity": 110}, {"time": 108238, "pitch": 61, "duration": 240, "velocity": 95}, {"time": 108238, "pitch": 64, "duration": 240, "velocity": 100}, {"time": 108248, "pitch": 52, "duration": 220, "velocity": 85}, {"time": 108248, "pitch": 55, "duration": 220, "velocity": 90}, {"time": 108478, "pitch": 52, "duration": 161, "velocity": 100}, {"time": 108478, "pitch": 55, "duration": 161, "velocity": 105}, {"time": 108488, "pitch": 61, "duration": 151, "velocity": 110}, {"time": 108498, "pitch": 64, "duration": 141, "velocity": 115}, {"time": 108639, "pitch": 61, "duration": 80, "velocity": 90}, {"time": 108639, "pitch": 64, "duration": 80, "velocity": 95}, {"time": 108649, "pitch": 52, "duration": 60, "velocity": 80}, {"time": 108649, "pitch": 55, "duration": 60, "velocity": 85}, {"time": 108719, "pitch": 52, "duration": 230, "velocity": 90}, {"time": 108719, "pitch": 55, "duration": 230, "velocity": 95}, {"time": 108729, "pitch": 61, "duration": 231, "velocity": 100}, {"time": 108729, "pitch": 64, "duration": 231, "velocity": 105}, {"time": 108960, "pitch": 52, "duration": 240, "velocity": 95}, {"time": 108960, "pitch": 55, "duration": 240, "velocity": 105}, {"time": 108970, "pitch": 62, "duration": 220, "velocity": 105}, {"time": 108970, "pitch": 64, "duration": 220, "velocity": 110}, {"time": 109200, "pitch": 62, "duration": 241, "velocity": 95}, {"time": 109200, "pitch": 64, "duration": 241, "velocity": 100}, {"time": 109210, "pitch": 52, "duration": 221, "velocity": 85}, {"time": 109210, "pitch": 55, "duration": 221, "velocity": 90}, {"time": 109441, "pitch": 52, "duration": 160, "velocity": 95}, {"time": 109441, "pitch": 55, "duration": 160, "velocity": 100}, {"time": 109451, "pitch": 61, "duration": 150, "velocity": 105}, {"time": 109451, "pitch": 64, "duration": 140, "velocity": 115}, {"time": 109601, "pitch": 61, "duration": 70, "velocity": 95}, {"time": 109601, "pitch": 64, "duration": 80, "velocity": 100}, {"time": 109611, "pitch": 52, "duration": 60, "velocity": 85}, {"time": 109611, "pitch": 55, "duration": 60, "velocity": 90}, {"time": 109681, "pitch": 52, "duration": 161, "velocity": 95}, {"time": 109681, "pitch": 55, "duration": 161, "velocity": 100}, {"time": 109691, "pitch": 61, "duration": 151, "velocity": 105}, {"time": 109691, "pitch": 64, "duration": 140, "velocity": 115}, {"time": 109842, "pitch": 61, "duration": 70, "velocity": 95}, {"time": 109842, "pitch": 64, "duration": 70, "velocity": 100}, {"time": 109852, "pitch": 52, "duration": 60, "velocity": 85}, {"time": 109852, "pitch": 55, "duration": 60, "velocity": 90}, {"time": 109922, "pitch": 50, "duration": 240, "velocity": 95}, {"time": 109922, "pitch": 57, "duration": 240, "velocity": 105}, {"time": 109932, "pitch": 62, "duration": 220, "velocity": 105}, {"time": 109932, "pitch": 64, "duration": 220, "velocity": 110}, {"time": 110162, "pitch": 62, "duration": 241, "velocity": 95}, {"time": 110162, "pitch": 64, "duration": 241, "velocity": 100}, {"time": 110172, "pitch": 50, "duration": 221, "velocity": 85}, {"time": 110172, "pitch": 57, "duration": 221, "velocity": 90}, {"time": 110403, "pitch": 50, "duration": 158, "velocity": 100}, {"time": 110403, "pitch": 57, "duration": 158, "velocity": 105}, {"time": 110413, "pitch": 62, "duration": 148, "velocity": 110}, {"time": 110423, "pitch": 64, "duration": 138, "velocity": 115}, {"time": 110561, "pitch": 62, "duration": 79, "velocity": 90}, {"time": 110561, "pitch": 64, "duration": 79, "velocity": 95}, {"time": 110571, "pitch": 50, "duration": 60, "velocity": 80}, {"time": 110571, "pitch": 57, "duration": 60, "velocity": 85}, {"time": 110640, "pitch": 50, "duration": 228, "velocity": 90}, {"time": 110640, "pitch": 57, "duration": 228, "velocity": 95}, {"time": 110650, "pitch": 62, "duration": 228, "velocity": 100}, {"time": 110650, "pitch": 64, "duration": 228, "velocity": 105}, {"time": 110878, "pitch": 50, "duration": 241, "velocity": 95}, {"time": 110878, "pitch": 57, "duration": 241, "velocity": 105}, {"time": 110888, "pitch": 62, "duration": 221, "velocity": 105}, {"time": 110888, "pitch": 64, "duration": 221, "velocity": 110}, {"time": 111119, "pitch": 62, "duration": 240, "velocity": 95}, {"time": 111119, "pitch": 64, "duration": 240, "velocity": 100}, {"time": 111129, "pitch": 50, "duration": 220, "velocity": 85}, {"time": 111129, "pitch": 57, "duration": 220, "velocity": 90}, {"time": 111359, "pitch": 50, "duration": 160, "velocity": 100}, {"time": 111359, "pitch": 57, "duration": 160, "velocity": 105}, {"time": 111369, "pitch": 62, "duration": 150, "velocity": 110}, {"time": 111379, "pitch": 64, "duration": 140, "velocity": 115}, {"time": 111519, "pitch": 62, "duration": 81, "velocity": 90}, {"time": 111519, "pitch": 64, "duration": 81, "velocity": 95}, {"time": 111530, "pitch": 50, "duration": 60, "velocity": 80}, {"time": 111530, "pitch": 57, "duration": 60, "velocity": 85}, {"time": 111600, "pitch": 50, "duration": 230, "velocity": 90}, {"time": 111600, "pitch": 57, "duration": 230, "velocity": 95}, {"time": 111610, "pitch": 62, "duration": 230, "velocity": 100}, {"time": 111610, "pitch": 64, "duration": 230, "velocity": 105}, {"time": 111840, "pitch": 47, "duration": 241, "velocity": 90}, {"time": 111840, "pitch": 57, "duration": 241, "velocity": 95}, {"time": 111850, "pitch": 62, "duration": 221, "velocity": 105}, {"time": 111850, "pitch": 64, "duration": 221, "velocity": 110}, {"time": 112081, "pitch": 62, "duration": 240, "velocity": 95}, {"time": 112081, "pitch": 64, "duration": 240, "velocity": 100}, {"time": 112091, "pitch": 47, "duration": 220, "velocity": 85}, {"time": 112091, "pitch": 57, "duration": 220, "velocity": 90}, {"time": 112321, "pitch": 47, "duration": 161, "velocity": 95}, {"time": 112321, "pitch": 57, "duration": 161, "velocity": 105}, {"time": 112331, "pitch": 62, "duration": 141, "velocity": 110}, {"time": 112331, "pitch": 64, "duration": 141, "velocity": 115}, {"time": 112482, "pitch": 62, "duration": 80, "velocity": 90}, {"time": 112482, "pitch": 64, "duration": 80, "velocity": 95}, {"time": 112492, "pitch": 47, "duration": 60, "velocity": 80}, {"time": 112492, "pitch": 57, "duration": 60, "velocity": 85}, {"time": 112562, "pitch": 47, "duration": 230, "velocity": 90}, {"time": 112562, "pitch": 57, "duration": 230, "velocity": 95}, {"time": 112572, "pitch": 62, "duration": 230, "velocity": 100}, {"time": 112572, "pitch": 64, "duration": 230, "velocity": 105}, {"time": 112802, "pitch": 47, "duration": 238, "velocity": 90}, {"time": 112802, "pitch": 57, "duration": 238, "velocity": 95}, {"time": 112812, "pitch": 62, "duration": 218, "velocity": 105}, {"time": 112812, "pitch": 64, "duration": 218, "velocity": 110}, {"time": 113040, "pitch": 62, "duration": 238, "velocity": 95}, {"time": 113040, "pitch": 64, "duration": 238, "velocity": 100}, {"time": 113050, "pitch": 47, "duration": 218, "velocity": 85}, {"time": 113050, "pitch": 57, "duration": 218, "velocity": 90}, {"time": 113278, "pitch": 47, "duration": 160, "velocity": 95}, {"time": 113278, "pitch": 57, "duration": 160, "velocity": 105}, {"time": 113288, "pitch": 62, "duration": 140, "velocity": 110}, {"time": 113288, "pitch": 64, "duration": 140, "velocity": 115}, {"time": 113438, "pitch": 62, "duration": 80, "velocity": 90}, {"time": 113438, "pitch": 64, "duration": 80, "velocity": 95}, {"time": 113448, "pitch": 47, "duration": 60, "velocity": 80}, {"time": 113448, "pitch": 57, "duration": 60, "velocity": 85}, {"time": 113518, "pitch": 47, "duration": 231, "velocity": 90}, {"time": 113518, "pitch": 57, "duration": 231, "velocity": 95}, {"time": 113528, "pitch": 62, "duration": 231, "velocity": 100}, {"time": 113528, "pitch": 64, "duration": 231, "velocity": 105}, {"time": 113759, "pitch": 53, "duration": 240, "velocity": 95}, {"time": 113759, "pitch": 58, "duration": 240, "velocity": 105}, {"time": 113769, "pitch": 62, "duration": 220, "velocity": 105}, {"time": 113769, "pitch": 67, "duration": 220, "velocity": 110}, {"time": 113999, "pitch": 62, "duration": 241, "velocity": 95}, {"time": 113999, "pitch": 67, "duration": 241, "velocity": 100}, {"time": 114009, "pitch": 53, "duration": 221, "velocity": 85}, {"time": 114009, "pitch": 58, "duration": 221, "velocity": 90}, {"time": 114240, "pitch": 53, "duration": 160, "velocity": 100}, {"time": 114240, "pitch": 58, "duration": 160, "velocity": 105}, {"time": 114250, "pitch": 62, "duration": 150, "velocity": 110}, {"time": 114260, "pitch": 67, "duration": 140, "velocity": 115}, {"time": 114400, "pitch": 62, "duration": 80, "velocity": 90}, {"time": 114400, "pitch": 67, "duration": 80, "velocity": 95}, {"time": 114410, "pitch": 53, "duration": 60, "velocity": 80}, {"time": 114410, "pitch": 58, "duration": 60, "velocity": 85}, {"time": 114480, "pitch": 53, "duration": 231, "velocity": 90}, {"time": 114480, "pitch": 58, "duration": 231, "velocity": 95}, {"time": 114490, "pitch": 62, "duration": 231, "velocity": 100}, {"time": 114490, "pitch": 67, "duration": 231, "velocity": 105}, {"time": 114721, "pitch": 55, "duration": 471, "velocity": 95}, {"time": 114726, "pitch": 59, "duration": 461, "velocity": 105}, {"time": 114731, "pitch": 62, "duration": 461, "velocity": 105}, {"time": 114731, "pitch": 67, "duration": 461, "velocity": 110}, {"time": 115202, "pitch": 52, "duration": 465, "velocity": 95}, {"time": 115207, "pitch": 55, "duration": 455, "velocity": 105}, {"time": 115217, "pitch": 61, "duration": 445, "velocity": 105}, {"time": 115222, "pitch": 66, "duration": 435, "velocity": 110}, {"time": 136798, "pitch": 51, "duration": 241, "velocity": 95}, {"time": 136798, "pitch": 58, "duration": 241, "velocity": 105}, {"time": 136809, "pitch": 63, "duration": 220, "velocity": 105}, {"time": 136809, "pitch": 65, "duration": 220, "velocity": 110}, {"time": 137039, "pitch": 63, "duration": 241, "velocity": 95}, {"time": 137039, "pitch": 65, "duration": 241, "velocity": 100}, {"time": 137049, "pitch": 51, "duration": 221, "velocity": 85}, {"time": 137049, "pitch": 58, "duration": 221, "velocity": 90}, {"time": 137280, "pitch": 51, "duration": 160, "velocity": 100}, {"time": 137280, "pitch": 58, "duration": 160, "velocity": 105}, {"time": 137290, "pitch": 63, "duration": 150, "velocity": 110}, {"time": 137300, "pitch": 65, "duration": 140, "velocity": 115}, {"time": 137440, "pitch": 63, "duration": 80, "velocity": 90}, {"time": 137440, "pitch": 65, "duration": 80, "velocity": 95}, {"time": 137450, "pitch": 51, "duration": 60, "velocity": 80}, {"time": 137450, "pitch": 58, "duration": 60, "velocity": 85}, {"time": 137520, "pitch": 51, "duration": 231, "velocity": 90}, {"time": 137520, "pitch": 58, "duration": 231, "velocity": 95}, {"time": 137530, "pitch": 63, "duration": 231, "velocity": 100}, {"time": 137530, "pitch": 65, "duration": 231, "velocity": 105}, {"time": 137761, "pitch": 51, "duration": 240, "velocity": 95}, {"time": 137761, "pitch": 58, "duration": 240, "velocity": 105}, {"time": 137771, "pitch": 63, "duration": 220, "velocity": 105}, {"time": 137771, "pitch": 65, "duration": 220, "velocity": 110}, {"time": 138001, "pitch": 63, "duration": 241, "velocity": 95}, {"time": 138001, "pitch": 65, "duration": 241, "velocity": 100}, {"time": 138011, "pitch": 51, "duration": 221, "velocity": 85}, {"time": 138011, "pitch": 58, "duration": 221, "velocity": 90}, {"time": 138242, "pitch": 51, "duration": 160, "velocity": 100}, {"time": 138242, "pitch": 58, "duration": 160, "velocity": 105}, {"time": 138252, "pitch": 63, "duration": 150, "velocity": 110}, {"time": 138262, "pitch": 65, "duration": 140, "velocity": 115}, {"time": 138402, "pitch": 63, "duration": 80, "velocity": 90}, {"time": 138402, "pitch": 65, "duration": 80, "velocity": 95}, {"time": 138412, "pitch": 51, "duration": 60, "velocity": 80}, {"time": 138412, "pitch": 58, "duration": 60, "velocity": 85}, {"time": 138482, "pitch": 51, "duration": 231, "velocity": 90}, {"time": 138482, "pitch": 58, "duration": 231, "velocity": 95}, {"time": 138492, "pitch": 63, "duration": 231, "velocity": 100}, {"time": 138492, "pitch": 65, "duration": 231, "velocity": 105}, {"time": 138723, "pitch": 48, "duration": 237, "velocity": 90}, {"time": 138723, "pitch": 58, "duration": 237, "velocity": 95}, {"time": 138733, "pitch": 63, "duration": 218, "velocity": 105}, {"time": 138733, "pitch": 65, "duration": 218, "velocity": 110}, {"time": 138960, "pitch": 63, "duration": 238, "velocity": 95}, {"time": 138960, "pitch": 65, "duration": 238, "velocity": 100}, {"time": 138970, "pitch": 48, "duration": 218, "velocity": 85}, {"time": 138970, "pitch": 58, "duration": 218, "velocity": 90}, {"time": 139198, "pitch": 48, "duration": 160, "velocity": 95}, {"time": 139198, "pitch": 58, "duration": 160, "velocity": 105}, {"time": 139208, "pitch": 63, "duration": 140, "velocity": 110}, {"time": 139208, "pitch": 65, "duration": 140, "velocity": 115}, {"time": 139358, "pitch": 63, "duration": 81, "velocity": 90}, {"time": 139358, "pitch": 65, "duration": 81, "velocity": 95}, {"time": 139368, "pitch": 48, "duration": 61, "velocity": 80}, {"time": 139368, "pitch": 58, "duration": 61, "velocity": 85}, {"time": 139439, "pitch": 48, "duration": 230, "velocity": 90}, {"time": 139439, "pitch": 58, "duration": 230, "velocity": 95}, {"time": 139449, "pitch": 63, "duration": 230, "velocity": 100}, {"time": 139449, "pitch": 65, "duration": 230, "velocity": 105}, {"time": 139679, "pitch": 48, "duration": 241, "velocity": 90}, {"time": 139679, "pitch": 58, "duration": 241, "velocity": 95}, {"time": 139689, "pitch": 63, "duration": 221, "velocity": 105}, {"time": 139689, "pitch": 65, "duration": 221, "velocity": 110}, {"time": 139920, "pitch": 63, "duration": 240, "velocity": 95}, {"time": 139920, "pitch": 65, "duration": 240, "velocity": 100}, {"time": 139930, "pitch": 48, "duration": 220, "velocity": 85}, {"time": 139930, "pitch": 58, "duration": 220, "velocity": 90}, {"time": 140160, "pitch": 48, "duration": 161, "velocity": 95}, {"time": 140160, "pitch": 58, "duration": 161, "velocity": 105}, {"time": 140170, "pitch": 63, "duration": 141, "velocity": 110}, {"time": 140170, "pitch": 65, "duration": 141, "velocity": 115}, {"time": 140321, "pitch": 63, "duration": 80, "velocity": 90}, {"time": 140321, "pitch": 65, "duration": 80, "velocity": 95}, {"time": 140331, "pitch": 48, "duration": 60, "velocity": 80}, {"time": 140331, "pitch": 58, "duration": 60, "velocity": 85}, {"time": 140401, "pitch": 48, "duration": 230, "velocity": 90}, {"time": 140401, "pitch": 58, "duration": 230, "velocity": 95}, {"time": 140411, "pitch": 63, "duration": 230, "velocity": 100}, {"time": 140411, "pitch": 65, "duration": 230, "velocity": 105}, {"time": 140641, "pitch": 53, "duration": 241, "velocity": 95}, {"time": 140641, "pitch": 59, "duration": 241, "velocity": 105}, {"time": 140651, "pitch": 68, "duration": 221, "velocity": 110}, {"time": 140882, "pitch": 63, "duration": 240, "velocity": 95}, {"time": 140882, "pitch": 68, "duration": 240, "velocity": 100}, {"time": 140892, "pitch": 53, "duration": 220, "velocity": 85}, {"time": 140892, "pitch": 59, "duration": 220, "velocity": 90}, {"time": 141122, "pitch": 53, "duration": 159, "velocity": 100}, {"time": 141122, "pitch": 59, "duration": 159, "velocity": 105}, {"time": 141132, "pitch": 63, "duration": 149, "velocity": 110}, {"time": 141142, "pitch": 68, "duration": 139, "velocity": 115}, {"time": 141281, "pitch": 63, "duration": 79, "velocity": 90}, {"time": 141281, "pitch": 68, "duration": 79, "velocity": 95}, {"time": 141291, "pitch": 53, "duration": 59, "velocity": 80}, {"time": 141291, "pitch": 59, "duration": 59, "velocity": 85}, {"time": 141360, "pitch": 53, "duration": 228, "velocity": 90}, {"time": 141360, "pitch": 59, "duration": 228, "velocity": 95}, {"time": 141370, "pitch": 63, "duration": 228, "velocity": 100}, {"time": 141370, "pitch": 68, "duration": 228, "velocity": 105}, {"time": 141598, "pitch": 53, "duration": 240, "velocity": 95}, {"time": 141598, "pitch": 59, "duration": 240, "velocity": 105}, {"time": 141608, "pitch": 63, "duration": 220, "velocity": 105}, {"time": 141608, "pitch": 68, "duration": 220, "velocity": 110}, {"time": 141838, "pitch": 63, "duration": 241, "velocity": 95}, {"time": 141838, "pitch": 68, "duration": 241, "velocity": 100}, {"time": 141848, "pitch": 53, "duration": 221, "velocity": 85}, {"time": 141848, "pitch": 59, "duration": 221, "velocity": 90}, {"time": 142079, "pitch": 53, "duration": 160, "velocity": 100}, {"time": 142079, "pitch": 59, "duration": 160, "velocity": 105}, {"time": 142089, "pitch": 63, "duration": 150, "velocity": 110}, {"time": 142099, "pitch": 68, "duration": 140, "velocity": 115}, {"time": 142239, "pitch": 63, "duration": 80, "velocity": 90}, {"time": 142239, "pitch": 68, "duration": 80, "velocity": 95}, {"time": 142249, "pitch": 53, "duration": 60, "velocity": 80}, {"time": 142249, "pitch": 59, "duration": 60, "velocity": 85}, {"time": 142319, "pitch": 53, "duration": 231, "velocity": 90}, {"time": 142319, "pitch": 59, "duration": 231, "velocity": 95}, {"time": 142329, "pitch": 63, "duration": 231, "velocity": 100}, {"time": 142329, "pitch": 68, "duration": 231, "velocity": 105}, {"time": 142560, "pitch": 53, "duration": 240, "velocity": 95}, {"time": 142560, "pitch": 56, "duration": 240, "velocity": 105}, {"time": 142570, "pitch": 65, "duration": 220, "velocity": 110}, {"time": 142800, "pitch": 62, "duration": 241, "velocity": 95}, {"time": 142800, "pitch": 65, "duration": 241, "velocity": 100}, {"time": 142810, "pitch": 53, "duration": 221, "velocity": 85}, {"time": 142810, "pitch": 56, "duration": 221, "velocity": 90}, {"time": 143041, "pitch": 53, "duration": 160, "velocity": 100}, {"time": 143041, "pitch": 56, "duration": 160, "velocity": 105}, {"time": 143051, "pitch": 62, "duration": 150, "velocity": 110}, {"time": 143061, "pitch": 65, "duration": 140, "velocity": 115}, {"time": 143201, "pitch": 62, "duration": 81, "velocity": 90}, {"time": 143201, "pitch": 65, "duration": 81, "velocity": 95}, {"time": 143211, "pitch": 53, "duration": 60, "velocity": 80}, {"time": 143211, "pitch": 56, "duration": 60, "velocity": 85}, {"time": 143282, "pitch": 53, "duration": 230, "velocity": 90}, {"time": 143282, "pitch": 56, "duration": 230, "velocity": 95}, {"time": 143292, "pitch": 62, "duration": 230, "velocity": 100}, {"time": 143292, "pitch": 65, "duration": 230, "velocity": 105}, {"time": 143522, "pitch": 53, "duration": 238, "velocity": 95}, {"time": 143522, "pitch": 56, "duration": 238, "velocity": 105}, {"time": 143532, "pitch": 63, "duration": 218, "velocity": 105}, {"time": 143532, "pitch": 65, "duration": 218, "velocity": 110}, {"time": 143760, "pitch": 63, "duration": 237, "velocity": 95}, {"time": 143760, "pitch": 65, "duration": 237, "velocity": 100}, {"time": 143770, "pitch": 53, "duration": 217, "velocity": 85}, {"time": 143770, "pitch": 56, "duration": 217, "velocity": 90}, {"time": 143997, "pitch": 53, "duration": 161, "velocity": 95}, {"time": 143997, "pitch": 56, "duration": 161, "velocity": 100}, {"time": 144007, "pitch": 62, "duration": 151, "velocity": 105}, {"time": 144007, "pitch": 65, "duration": 141, "velocity": 115}, {"time": 144158, "pitch": 62, "duration": 70, "velocity": 95}, {"time": 144158, "pitch": 65, "duration": 80, "velocity": 100}, {"time": 144168, "pitch": 53, "duration": 60, "velocity": 85}, {"time": 144168, "pitch": 56, "duration": 60, "velocity": 90}, {"time": 144238, "pitch": 53, "duration": 160, "velocity": 95}, {"time": 144238, "pitch": 56, "duration": 160, "velocity": 100}, {"time": 144248, "pitch": 62, "duration": 150, "velocity": 105}, {"time": 144248, "pitch": 65, "duration": 140, "velocity": 115}, {"time": 144398, "pitch": 62, "duration": 70, "velocity": 95}, {"time": 144398, "pitch": 65, "duration": 70, "velocity": 100}, {"time": 144408, "pitch": 53, "duration": 60, "velocity": 85}, {"time": 144408, "pitch": 56, "duration": 60, "velocity": 90}, {"time": 144478, "pitch": 51, "duration": 241, "velocity": 95}, {"time": 144478, "pitch": 58, "duration": 241, "velocity": 105}, {"time": 144488, "pitch": 65, "duration": 221, "velocity": 110}, {"time": 144719, "pitch": 63, "duration": 240, "velocity": 95}, {"time": 144729, "pitch": 51, "duration": 220, "velocity": 85}, {"time": 144729, "pitch": 58, "duration": 220, "velocity": 90}, {"time": 144959, "pitch": 51, "duration": 161, "velocity": 100}, {"time": 144959, "pitch": 58, "duration": 161, "velocity": 105}, {"time": 144970, "pitch": 63, "duration": 150, "velocity": 110}, {"time": 144980, "pitch": 65, "duration": 140, "velocity": 115}, {"time": 145120, "pitch": 63, "duration": 80, "velocity": 90}, {"time": 145120, "pitch": 65, "duration": 80, "velocity": 95}, {"time": 145130, "pitch": 51, "duration": 60, "velocity": 80}, {"time": 145130, "pitch": 58, "duration": 60, "velocity": 85}, {"time": 145200, "pitch": 51, "duration": 231, "velocity": 90}, {"time": 145200, "pitch": 58, "duration": 231, "velocity": 95}, {"time": 145210, "pitch": 63, "duration": 231, "velocity": 100}, {"time": 145210, "pitch": 65, "duration": 231, "velocity": 105}, {"time": 145441, "pitch": 51, "duration": 240, "velocity": 95}, {"time": 145441, "pitch": 58, "duration": 240, "velocity": 105}, {"time": 145451, "pitch": 63, "duration": 220, "velocity": 105}, {"time": 145451, "pitch": 65, "duration": 220, "velocity": 110}, {"time": 145681, "pitch": 63, "duration": 241, "velocity": 95}, {"time": 145681, "pitch": 65, "duration": 241, "velocity": 100}, {"time": 145691, "pitch": 51, "duration": 221, "velocity": 85}, {"time": 145691, "pitch": 58, "duration": 221, "velocity": 90}, {"time": 145922, "pitch": 51, "duration": 160, "velocity": 100}, {"time": 145922, "pitch": 58, "duration": 160, "velocity": 105}, {"time": 145932, "pitch": 63, "duration": 150, "velocity": 110}, {"time": 145942, "pitch": 65, "duration": 140, "velocity": 115}, {"time": 146082, "pitch": 63, "duration": 80, "velocity": 90}, {"time": 146082, "pitch": 65, "duration": 80, "velocity": 95}, {"time": 146092, "pitch": 51, "duration": 60, "velocity": 80}, {"time": 146092, "pitch": 58, "duration": 60, "velocity": 85}, {"time": 146162, "pitch": 51, "duration": 231, "velocity": 90}, {"time": 146162, "pitch": 58, "duration": 231, "velocity": 95}, {"time": 146172, "pitch": 63, "duration": 231, "velocity": 100}, {"time": 146172, "pitch": 65, "duration": 231, "velocity": 105}, {"time": 146403, "pitch": 48, "duration": 237, "velocity": 90}, {"time": 146403, "pitch": 58, "duration": 237, "velocity": 95}, {"time": 146413, "pitch": 65, "duration": 217, "velocity": 110}, {"time": 146640, "pitch": 63, "duration": 238, "velocity": 95}, {"time": 146650, "pitch": 48, "duration": 218, "velocity": 85}, {"time": 146650, "pitch": 58, "duration": 218, "velocity": 90}, {"time": 146878, "pitch": 48, "duration": 160, "velocity": 95}, {"time": 146878, "pitch": 58, "duration": 160, "velocity": 105}, {"time": 146888, "pitch": 63, "duration": 140, "velocity": 110}, {"time": 146888, "pitch": 65, "duration": 140, "velocity": 115}, {"time": 147038, "pitch": 63, "duration": 81, "velocity": 90}, {"time": 147038, "pitch": 65, "duration": 81, "velocity": 95}, {"time": 147048, "pitch": 48, "duration": 61, "velocity": 80}, {"time": 147048, "pitch": 58, "duration": 61, "velocity": 85}, {"time": 147119, "pitch": 48, "duration": 230, "velocity": 90}, {"time": 147119, "pitch": 58, "duration": 230, "velocity": 95}, {"time": 147129, "pitch": 63, "duration": 230, "velocity": 100}, {"time": 147129, "pitch": 65, "duration": 230, "velocity": 105}, {"time": 147359, "pitch": 48, "duration": 241, "velocity": 90}, {"time": 147359, "pitch": 58, "duration": 241, "velocity": 95}, {"time": 147369, "pitch": 63, "duration": 221, "velocity": 105}, {"time": 147369, "pitch": 65, "duration": 221, "velocity": 110}, {"time": 147600, "pitch": 63, "duration": 240, "velocity": 95}, {"time": 147600, "pitch": 65, "duration": 240, "velocity": 100}, {"time": 147610, "pitch": 48, "duration": 220, "velocity": 85}, {"time": 147610, "pitch": 58, "duration": 220, "velocity": 90}, {"time": 147840, "pitch": 48, "duration": 161, "velocity": 95}, {"time": 147840, "pitch": 58, "duration": 161, "velocity": 105}, {"time": 147850, "pitch": 63, "duration": 141, "velocity": 110}, {"time": 147850, "pitch": 65, "duration": 141, "velocity": 115}, {"time": 148001, "pitch": 63, "duration": 80, "velocity": 90}, {"time": 148001, "pitch": 65, "duration": 80, "velocity": 95}, {"time": 148011, "pitch": 48, "duration": 60, "velocity": 80}, {"time": 148011, "pitch": 58, "duration": 60, "velocity": 85}, {"time": 148081, "pitch": 48, "duration": 230, "velocity": 90}, {"time": 148081, "pitch": 58, "duration": 230, "velocity": 95}, {"time": 148091, "pitch": 63, "duration": 230, "velocity": 100}, {"time": 148091, "pitch": 65, "duration": 230, "velocity": 105}, {"time": 148321, "pitch": 59, "duration": 241, "velocity": 105}, {"time": 148331, "pitch": 68, "duration": 221, "velocity": 110}, {"time": 148562, "pitch": 63, "duration": 240, "velocity": 95}, {"time": 148562, "pitch": 68, "duration": 240, "velocity": 100}, {"time": 148572, "pitch": 53, "duration": 220, "velocity": 85}, {"time": 148802, "pitch": 59, "duration": 159, "velocity": 105}, {"time": 148812, "pitch": 63, "duration": 149, "velocity": 110}, {"time": 148822, "pitch": 68, "duration": 139, "velocity": 115}, {"time": 148961, "pitch": 63, "duration": 79, "velocity": 90}, {"time": 148971, "pitch": 53, "duration": 59, "velocity": 80}, {"time": 149040, "pitch": 59, "duration": 228, "velocity": 95}, {"time": 149050, "pitch": 68, "duration": 228, "velocity": 105}, {"time": 149278, "pitch": 59, "duration": 240, "velocity": 105}, {"time": 149288, "pitch": 68, "duration": 220, "velocity": 110}, {"time": 149518, "pitch": 63, "duration": 241, "velocity": 95}, {"time": 149528, "pitch": 53, "duration": 221, "velocity": 85}, {"time": 149759, "pitch": 59, "duration": 160, "velocity": 105}, {"time": 149769, "pitch": 63, "duration": 150, "velocity": 110}, {"time": 149779, "pitch": 68, "duration": 140, "velocity": 115}, {"time": 149919, "pitch": 63, "duration": 80, "velocity": 90}, {"time": 149929, "pitch": 53, "duration": 60, "velocity": 80}, {"time": 149999, "pitch": 59, "duration": 231, "velocity": 95}, {"time": 150009, "pitch": 68, "duration": 231, "velocity": 105}, {"time": 150240, "pitch": 53, "duration": 240, "velocity": 95}, {"time": 150240, "pitch": 56, "duration": 240, "velocity": 105}, {"time": 150250, "pitch": 65, "duration": 220, "velocity": 110}, {"time": 150480, "pitch": 62, "duration": 241, "velocity": 95}, {"time": 150480, "pitch": 65, "duration": 241, "velocity": 100}, {"time": 150490, "pitch": 53, "duration": 221, "velocity": 85}, {"time": 150490, "pitch": 56, "duration": 221, "velocity": 90}, {"time": 150721, "pitch": 53, "duration": 160, "velocity": 100}, {"time": 150721, "pitch": 56, "duration": 160, "velocity": 105}, {"time": 150731, "pitch": 62, "duration": 150, "velocity": 110}, {"time": 150741, "pitch": 65, "duration": 140, "velocity": 115}, {"time": 150881, "pitch": 62, "duration": 80, "velocity": 90}, {"time": 150881, "pitch": 65, "duration": 80, "velocity": 95}, {"time": 150891, "pitch": 53, "duration": 60, "velocity": 80}, {"time": 150891, "pitch": 56, "duration": 60, "velocity": 85}, {"time": 150961, "pitch": 53, "duration": 231, "velocity": 90}, {"time": 150961, "pitch": 56, "duration": 231, "velocity": 95}, {"time": 150971, "pitch": 62, "duration": 231, "velocity": 100}, {"time": 150971, "pitch": 65, "duration": 231, "velocity": 105}, {"time": 151202, "pitch": 53, "duration": 238, "velocity": 95}, {"time": 151202, "pitch": 56, "duration": 238, "velocity": 105}, {"time": 151212, "pitch": 63, "duration": 218, "velocity": 105}, {"time": 151212, "pitch": 65, "duration": 218, "velocity": 110}, {"time": 151440, "pitch": 63, "duration": 237, "velocity": 95}, {"time": 151440, "pitch": 65, "duration": 237, "velocity": 100}, {"time": 151450, "pitch": 53, "duration": 217, "velocity": 85}, {"time": 151450, "pitch": 56, "duration": 217, "velocity": 90}, {"time": 151677, "pitch": 53, "duration": 161, "velocity": 95}, {"time": 151677, "pitch": 56, "duration": 161, "velocity": 100}, {"time": 151687, "pitch": 62, "duration": 151, "velocity": 105}, {"time": 151687, "pitch": 65, "duration": 141, "velocity": 115}, {"time": 151838, "pitch": 62, "duration": 70, "velocity": 95}, {"time": 151838, "pitch": 65, "duration": 80, "velocity": 100}, {"time": 151848, "pitch": 53, "duration": 60, "velocity": 85}, {"time": 151848, "pitch": 56, "duration": 60, "velocity": 90}, {"time": 151918, "pitch": 53, "duration": 160, "velocity": 95}, {"time": 151918, "pitch": 56, "duration": 160, "velocity": 100}, {"time": 151928, "pitch": 62, "duration": 150, "velocity": 105}, {"time": 151928, "pitch": 65, "duration": 140, "velocity": 115}, {"time": 152078, "pitch": 62, "duration": 70, "velocity": 95}, {"time": 152078, "pitch": 65, "duration": 70, "velocity": 100}, {"time": 152088, "pitch": 53, "duration": 60, "velocity": 85}, {"time": 152088, "pitch": 56, "duration": 60, "velocity": 90}, {"time": 152158, "pitch": 55, "duration": 241, "velocity": 95}, {"time": 152158, "pitch": 59, "duration": 241, "velocity": 105}, {"time": 152168, "pitch": 67, "duration": 221, "velocity": 110}, {"time": 152399, "pitch": 62, "duration": 240, "velocity": 95}, {"time": 152409, "pitch": 55, "duration": 220, "velocity": 85}, {"time": 152409, "pitch": 59, "duration": 220, "velocity": 90}, {"time": 152639, "pitch": 55, "duration": 161, "velocity": 100}, {"time": 152639, "pitch": 59, "duration": 161, "velocity": 105}, {"time": 152649, "pitch": 62, "duration": 151, "velocity": 110}, {"time": 152659, "pitch": 67, "duration": 141, "velocity": 115}, {"time": 152800, "pitch": 62, "duration": 80, "velocity": 90}, {"time": 152800, "pitch": 67, "duration": 80, "velocity": 95}, {"time": 152810, "pitch": 55, "duration": 60, "velocity": 80}, {"time": 152810, "pitch": 59, "duration": 60, "velocity": 85}, {"time": 152880, "pitch": 55, "duration": 230, "velocity": 90}, {"time": 152880, "pitch": 59, "duration": 230, "velocity": 95}, {"time": 152890, "pitch": 62, "duration": 230, "velocity": 100}, {"time": 152890, "pitch": 67, "duration": 230, "velocity": 105}, {"time": 153120, "pitch": 55, "duration": 241, "velocity": 95}, {"time": 153120, "pitch": 59, "duration": 241, "velocity": 105}, {"time": 153131, "pitch": 62, "duration": 220, "velocity": 105}, {"time": 153131, "pitch": 67, "duration": 220, "velocity": 110}, {"time": 153361, "pitch": 62, "duration": 241, "velocity": 95}, {"time": 153361, "pitch": 67, "duration": 241, "velocity": 100}, {"time": 153371, "pitch": 55, "duration": 221, "velocity": 85}, {"time": 153371, "pitch": 59, "duration": 221, "velocity": 90}, {"time": 153602, "pitch": 55, "duration": 160, "velocity": 100}, {"time": 153602, "pitch": 59, "duration": 160, "velocity": 105}, {"time": 153612, "pitch": 62, "duration": 150, "velocity": 110}, {"time": 153622, "pitch": 67, "duration": 140, "velocity": 115}, {"time": 153762, "pitch": 62, "duration": 80, "velocity": 90}, {"time": 153762, "pitch": 67, "duration": 80, "velocity": 95}, {"time": 153772, "pitch": 55, "duration": 60, "velocity": 80}, {"time": 153772, "pitch": 59, "duration": 60, "velocity": 85}, {"time": 153842, "pitch": 55, "duration": 231, "velocity": 90}, {"time": 153842, "pitch": 59, "duration": 231, "velocity": 95}, {"time": 153852, "pitch": 62, "duration": 231, "velocity": 100}, {"time": 153852, "pitch": 67, "duration": 231, "velocity": 105}, {"time": 154083, "pitch": 55, "duration": 237, "velocity": 95}, {"time": 154083, "pitch": 58, "duration": 237, "velocity": 105}, {"time": 154093, "pitch": 67, "duration": 217, "velocity": 110}, {"time": 154320, "pitch": 63, "duration": 238, "velocity": 95}, {"time": 154330, "pitch": 55, "duration": 218, "velocity": 85}, {"time": 154330, "pitch": 58, "duration": 218, "velocity": 90}, {"time": 154558, "pitch": 55, "duration": 60, "velocity": 90}, {"time": 154558, "pitch": 58, "duration": 60, "velocity": 95}, {"time": 154568, "pitch": 63, "duration": 50, "velocity": 100}, {"time": 154568, "pitch": 67, "duration": 50, "velocity": 105}, {"time": 154798, "pitch": 55, "duration": 1001, "velocity": 100}, {"time": 154798, "pitch": 58, "duration": 472, "velocity": 105}, {"time": 154808, "pitch": 63, "duration": 462, "velocity": 110}, {"time": 154808, "pitch": 67, "duration": 462, "velocity": 95}, {"time": 155280, "pitch": 58, "duration": 230, "velocity": 85}, {"time": 155290, "pitch": 63, "duration": 220, "velocity": 90}, {"time": 155290, "pitch": 67, "duration": 220, "velocity": 95}, {"time": 155520, "pitch": 58, "duration": 150, "velocity": 95}, {"time": 155530, "pitch": 63, "duration": 140, "velocity": 100}, {"time": 155530, "pitch": 67, "duration": 140, "velocity": 90}, {"time": 155680, "pitch": 63, "duration": 81, "velocity": 95}, {"time": 155680, "pitch": 67, "duration": 81, "velocity": 80}, {"time": 155690, "pitch": 58, "duration": 61, "velocity": 90}, {"time": 155761, "pitch": 58, "duration": 60, "velocity": 90}, {"time": 155771, "pitch": 63, "duration": 50, "velocity": 95}, {"time": 155771, "pitch": 67, "duration": 50, "velocity": 85}, {"time": 156001, "pitch": 56, "duration": 241, "velocity": 90}, {"time": 156001, "pitch": 60, "duration": 241, "velocity": 95}, {"time": 156011, "pitch": 68, "duration": 221, "velocity": 100}, {"time": 156242, "pitch": 63, "duration": 240, "velocity": 95}, {"time": 156252, "pitch": 56, "duration": 220, "velocity": 85}, {"time": 156252, "pitch": 60, "duration": 220, "velocity": 90}, {"time": 156482, "pitch": 56, "duration": 159, "velocity": 90}, {"time": 156482, "pitch": 60, "duration": 159, "velocity": 95}, {"time": 156492, "pitch": 63, "duration": 149, "velocity": 100}, {"time": 156502, "pitch": 68, "duration": 139, "velocity": 105}, {"time": 156641, "pitch": 63, "duration": 79, "velocity": 85}, {"time": 156641, "pitch": 68, "duration": 79, "velocity": 90}, {"time": 156651, "pitch": 56, "duration": 59, "velocity": 75}, {"time": 156651, "pitch": 60, "duration": 59, "velocity": 80}, {"time": 156720, "pitch": 56, "duration": 79, "velocity": 90}, {"time": 156720, "pitch": 60, "duration": 79, "velocity": 95}, {"time": 156730, "pitch": 63, "duration": 69, "velocity": 100}, {"time": 156730, "pitch": 68, "duration": 69, "velocity": 105}, {"time": 156963, "pitch": 56, "duration": 461, "velocity": 95}, {"time": 156968, "pitch": 60, "duration": 461, "velocity": 100}, {"time": 156973, "pitch": 63, "duration": 451, "velocity": 105}, {"time": 156988, "pitch": 68, "duration": 441, "velocity": 95}, {"time": 157444, "pitch": 56, "duration": 461, "velocity": 90}, {"time": 157449, "pitch": 60, "duration": 461, "velocity": 95}, {"time": 157454, "pitch": 63, "duration": 451, "velocity": 100}, {"time": 157469, "pitch": 67, "duration": 441, "velocity": 105}, {"time": 157920, "pitch": 51, "duration": 471, "velocity": 90}, {"time": 157920, "pitch": 58, "duration": 471, "velocity": 95}, {"time": 157930, "pitch": 63, "duration": 461, "velocity": 100}, {"time": 157940, "pitch": 68, "duration": 461, "velocity": 105}, {"time": 158401, "pitch": 49, "duration": 60, "velocity": 75}, {"time": 158401, "pitch": 58, "duration": 60, "velocity": 80}, {"time": 158411, "pitch": 61, "duration": 50, "velocity": 85}, {"time": 158411, "pitch": 68, "duration": 50, "velocity": 90}, {"time": 158641, "pitch": 51, "duration": 1147, "velocity": 90}, {"time": 158641, "pitch": 58, "duration": 1147, "velocity": 95}, {"time": 158651, "pitch": 63, "duration": 1137, "velocity": 100}, {"time": 158651, "pitch": 67, "duration": 1137, "velocity": 105}, {"time": 159828, "pitch": 51, "duration": 1435, "velocity": 85}, {"time": 159838, "pitch": 56, "duration": 1435, "velocity": 90}, {"time": 159853, "pitch": 59, "duration": 1425, "velocity": 85}, {"time": 159868, "pitch": 63, "duration": 1415, "velocity": 80}, {"time": 161283, "pitch": 56, "duration": 937, "velocity": 80}, {"time": 161302, "pitch": 61, "duration": 928, "velocity": 85}, {"time": 161312, "pitch": 65, "duration": 918, "velocity": 80}, {"time": 162240, "pitch": 58, "duration": 3821, "velocity": 80}, {"time": 162250, "pitch": 63, "duration": 3801, "velocity": 85}, {"time": 162270, "pitch": 65, "duration": 3791, "velocity": 80}, {"time": 115677, "pitch": 50, "duration": 1915, "velocity": 95}, {"time": 115692, "pitch": 57, "duration": 1895, "velocity": 105}, {"time": 115702, "pitch": 62, "duration": 1885, "velocity": 105}, {"time": 115717, "pitch": 64, "duration": 1875, "velocity": 110}, {"time": 117602, "pitch": 77, "duration": 5755, "velocity": 100}, {"time": 117602, "pitch": 89, "duration": 5755, "velocity": 90}, {"time": 123357, "pitch": 79, "duration": 3843, "velocity": 105}, {"time": 123357, "pitch": 91, "duration": 3843, "velocity": 75}, {"time": 127200, "pitch": 67, "duration": 1919, "velocity": 100}, {"time": 127200, "pitch": 83, "duration": 1919, "velocity": 110}, {"time": 129119, "pitch": 69, "duration": 1918, "velocity": 100}, {"time": 129119, "pitch": 81, "duration": 1918, "velocity": 110}, {"time": 131037, "pitch": 70, "duration": 1924, "velocity": 100}, {"time": 131037, "pitch": 82, "duration": 1924, "velocity": 110}, {"time": 66961, "pitch": 52, "duration": 227, "velocity": 110}, {"time": 67198, "pitch": 57, "duration": 100, "velocity": 110}, {"time": 67439, "pitch": 62, "duration": 100, "velocity": 102}, {"time": 67689, "pitch": 62, "duration": 702, "velocity": 112}, {"time": 68401, "pitch": 64, "duration": 1187, "velocity": 105}, {"time": 68411, "pitch": 67, "duration": 1177, "velocity": 90}, {"time": 69838, "pitch": 62, "duration": 301, "velocity": 100}, {"time": 69843, "pitch": 67, "duration": 301, "velocity": 108}, {"time": 70319, "pitch": 58, "duration": 1193, "velocity": 90}, {"time": 70324, "pitch": 62, "duration": 1183, "velocity": 100}, {"time": 70329, "pitch": 64, "duration": 1183, "velocity": 85}, {"time": 71522, "pitch": 50, "duration": 706, "velocity": 115}, {"time": 71760, "pitch": 64, "duration": 1671, "velocity": 100}, {"time": 71997, "pitch": 62, "duration": 231, "velocity": 110}, {"time": 72238, "pitch": 50, "duration": 1193, "velocity": 90}, {"time": 72243, "pitch": 57, "duration": 1183, "velocity": 90}, {"time": 72248, "pitch": 62, "duration": 1183, "velocity": 95}, {"time": 73441, "pitch": 50, "duration": 1908, "velocity": 115}, {"time": 73681, "pitch": 67, "duration": 471, "velocity": 108}, {"time": 73922, "pitch": 62, "duration": 230, "velocity": 100}, {"time": 73932, "pitch": 57, "duration": 220, "velocity": 95}, {"time": 74162, "pitch": 57, "duration": 1187, "velocity": 90}, {"time": 74172, "pitch": 62, "duration": 1177, "velocity": 95}, {"time": 74182, "pitch": 66, "duration": 1167, "velocity": 100}, {"time": 77999, "pitch": 62, "duration": 281, "velocity": 100}, {"time": 78004, "pitch": 67, "duration": 281, "velocity": 95}, {"time": 78480, "pitch": 62, "duration": 241, "velocity": 108}, {"time": 78721, "pitch": 61, "duration": 240, "velocity": 106}, {"time": 78961, "pitch": 59, "duration": 61, "velocity": 95}, {"time": 79202, "pitch": 50, "duration": 706, "velocity": 90}, {"time": 79207, "pitch": 58, "duration": 696, "velocity": 95}, {"time": 79212, "pitch": 62, "duration": 696, "velocity": 100}, {"time": 79918, "pitch": 62, "duration": 701, "velocity": 100}, {"time": 79923, "pitch": 67, "duration": 701, "velocity": 105}, {"time": 79928, "pitch": 64, "duration": 701, "velocity": 85}, {"time": 81361, "pitch": 62, "duration": 281, "velocity": 100}, {"time": 81366, "pitch": 67, "duration": 281, "velocity": 95}, {"time": 81842, "pitch": 58, "duration": 1187, "velocity": 90}, {"time": 81842, "pitch": 62, "duration": 1177, "velocity": 100}, {"time": 81852, "pitch": 64, "duration": 1177, "velocity": 85}, {"time": 83039, "pitch": 50, "duration": 712, "velocity": 115}, {"time": 83520, "pitch": 62, "duration": 231, "velocity": 110}, {"time": 83761, "pitch": 50, "duration": 1187, "velocity": 90}, {"time": 83766, "pitch": 57, "duration": 1177, "velocity": 90}, {"time": 83771, "pitch": 62, "duration": 1177, "velocity": 95}, {"time": 83771, "pitch": 64, "duration": 1177, "velocity": 105}, {"time": 85198, "pitch": 69, "duration": 231, "velocity": 110}, {"time": 85439, "pitch": 62, "duration": 1433, "velocity": 110}, {"time": 85439, "pitch": 69, "duration": 240, "velocity": 120}, {"time": 85679, "pitch": 69, "duration": 1193, "velocity": 110}, {"time": 85679, "pitch": 74, "duration": 1193, "velocity": 115}, {"time": 85689, "pitch": 66, "duration": 1183, "velocity": 105}, {"time": 86882, "pitch": 47, "duration": 475, "velocity": 105}, {"time": 87120, "pitch": 54, "duration": 357, "velocity": 100}, {"time": 87357, "pitch": 57, "duration": 231, "velocity": 90}, {"time": 87598, "pitch": 55, "duration": 230, "velocity": 105}, {"time": 87598, "pitch": 60, "duration": 230, "velocity": 100}, {"time": 87608, "pitch": 64, "duration": 220, "velocity": 95}, {"time": 87838, "pitch": 57, "duration": 952, "velocity": 115}, {"time": 87848, "pitch": 62, "duration": 942, "velocity": 110}, {"time": 87858, "pitch": 66, "duration": 932, "velocity": 105}, {"time": 89041, "pitch": 56, "duration": 120, "velocity": 100}, {"time": 89041, "pitch": 60, "duration": 120, "velocity": 105}, {"time": 89051, "pitch": 63, "duration": 110, "velocity": 110}, {"time": 89282, "pitch": 57, "duration": 400, "velocity": 95}, {"time": 89282, "pitch": 61, "duration": 390, "velocity": 100}, {"time": 89292, "pitch": 64, "duration": 380, "velocity": 105}, {"time": 89682, "pitch": 61, "duration": 71, "velocity": 85}, {"time": 89682, "pitch": 64, "duration": 81, "velocity": 90}, {"time": 89692, "pitch": 57, "duration": 61, "velocity": 80}, {"time": 89763, "pitch": 57, "duration": 99, "velocity": 105}, {"time": 89768, "pitch": 62, "duration": 99, "velocity": 105}, {"time": 89773, "pitch": 64, "duration": 89, "velocity": 110}, {"time": 90000, "pitch": 57, "duration": 228, "velocity": 105}, {"time": 90000, "pitch": 62, "duration": 228, "velocity": 105}, {"time": 90010, "pitch": 64, "duration": 218, "velocity": 110}, {"time": 90238, "pitch": 57, "duration": 160, "velocity": 100}, {"time": 90238, "pitch": 62, "duration": 150, "velocity": 105}, {"time": 90248, "pitch": 64, "duration": 140, "velocity": 110}, {"time": 90398, "pitch": 61, "duration": 70, "velocity": 95}, {"time": 90398, "pitch": 64, "duration": 80, "velocity": 100}, {"time": 90408, "pitch": 57, "duration": 60, "velocity": 90}, {"time": 90478, "pitch": 57, "duration": 71, "velocity": 95}, {"time": 90478, "pitch": 61, "duration": 71, "velocity": 100}, {"time": 90488, "pitch": 64, "duration": 61, "velocity": 105}, {"time": 91441, "pitch": 57, "duration": 461, "velocity": 105}, {"time": 91922, "pitch": 59, "duration": 60, "velocity": 110}, {"time": 91922, "pitch": 62, "duration": 60, "velocity": 110}, {"time": 91932, "pitch": 67, "duration": 50, "velocity": 115}, {"time": 92162, "pitch": 59, "duration": 228, "velocity": 115}, {"time": 92172, "pitch": 67, "duration": 218, "velocity": 115}, {"time": 92400, "pitch": 62, "duration": 99, "velocity": 110}, {"time": 92400, "pitch": 67, "duration": 99, "velocity": 115}, {"time": 92410, "pitch": 59, "duration": 89, "velocity": 105}, {"time": 92878, "pitch": 56, "duration": 281, "velocity": 100}, {"time": 92878, "pitch": 61, "duration": 281, "velocity": 110}, {"time": 92888, "pitch": 65, "duration": 271, "velocity": 115}, {"time": 93359, "pitch": 66, "duration": 80, "velocity": 110}, {"time": 93364, "pitch": 69, "duration": 80, "velocity": 115}, {"time": 93369, "pitch": 74, "duration": 70, "velocity": 110}, {"time": 93600, "pitch": 66, "duration": 230, "velocity": 115}, {"time": 93600, "pitch": 69, "duration": 230, "velocity": 110}, {"time": 93840, "pitch": 66, "duration": 231, "velocity": 120}, {"time": 93840, "pitch": 69, "duration": 231, "velocity": 115}, {"time": 93850, "pitch": 74, "duration": 221, "velocity": 115}, {"time": 94081, "pitch": 66, "duration": 230, "velocity": 115}, {"time": 94321, "pitch": 66, "duration": 101, "velocity": 90}, {"time": 94326, "pitch": 69, "duration": 101, "velocity": 100}, {"time": 95278, "pitch": 57, "duration": 230, "velocity": 80}, {"time": 95278, "pitch": 62, "duration": 230, "velocity": 110}, {"time": 95283, "pitch": 67, "duration": 220, "velocity": 115}, {"time": 95518, "pitch": 64, "duration": 90, "velocity": 105}, {"time": 95523, "pitch": 69, "duration": 90, "velocity": 110}, {"time": 95759, "pitch": 59, "duration": 90, "velocity": 80}, {"time": 95759, "pitch": 62, "duration": 90, "velocity": 105}, {"time": 95764, "pitch": 67, "duration": 80, "velocity": 110}, {"time": 95999, "pitch": 59, "duration": 91, "velocity": 80}, {"time": 95999, "pitch": 62, "duration": 91, "velocity": 105}, {"time": 96004, "pitch": 66, "duration": 80, "velocity": 110}, {"time": 96240, "pitch": 55, "duration": 70, "velocity": 70}, {"time": 96240, "pitch": 59, "duration": 70, "velocity": 106}, {"time": 96250, "pitch": 64, "duration": 70, "velocity": 112}, {"time": 97202, "pitch": 47, "duration": 160, "velocity": 90}, {"time": 97202, "pitch": 57, "duration": 160, "velocity": 115}, {"time": 97212, "pitch": 62, "duration": 140, "velocity": 110}, {"time": 97212, "pitch": 66, "duration": 140, "velocity": 105}, {"time": 97362, "pitch": 62, "duration": 71, "velocity": 105}, {"time": 97362, "pitch": 66, "duration": 71, "velocity": 100}, {"time": 97372, "pitch": 47, "duration": 61, "velocity": 80}, {"time": 97372, "pitch": 57, "duration": 61, "velocity": 110}, {"time": 97443, "pitch": 47, "duration": 237, "velocity": 90}, {"time": 97443, "pitch": 57, "duration": 237, "velocity": 120}, {"time": 97452, "pitch": 66, "duration": 218, "velocity": 110}, {"time": 97680, "pitch": 66, "duration": 709, "velocity": 100}, {"time": 97690, "pitch": 47, "duration": 699, "velocity": 80}, {"time": 97690, "pitch": 57, "duration": 699, "velocity": 110}, {"time": 98399, "pitch": 45, "duration": 471, "velocity": 90}, {"time": 98404, "pitch": 55, "duration": 466, "velocity": 85}, {"time": 98409, "pitch": 61, "duration": 461, "velocity": 80}, {"time": 98880, "pitch": 45, "duration": 401, "velocity": 85}, {"time": 98880, "pitch": 55, "duration": 391, "velocity": 80}, {"time": 98885, "pitch": 61, "duration": 391, "velocity": 75}, {"time": 99281, "pitch": 55, "duration": 60, "velocity": 70}, {"time": 99281, "pitch": 61, "duration": 60, "velocity": 75}, {"time": 99291, "pitch": 45, "duration": 50, "velocity": 65}, {"time": 99361, "pitch": 45, "duration": 471, "velocity": 85}, {"time": 99366, "pitch": 55, "duration": 466, "velocity": 80}, {"time": 99371, "pitch": 61, "duration": 461, "velocity": 75}, {"time": 99842, "pitch": 45, "duration": 60, "velocity": 90}, {"time": 99842, "pitch": 55, "duration": 60, "velocity": 85}, {"time": 99847, "pitch": 61, "duration": 50, "velocity": 80}, {"time": 100080, "pitch": 45, "duration": 59, "velocity": 90}, {"time": 100080, "pitch": 55, "duration": 59, "velocity": 85}, {"time": 100085, "pitch": 61, "duration": 49, "velocity": 80}, {"time": 100317, "pitch": 45, "duration": 471, "velocity": 90}, {"time": 100322, "pitch": 55, "duration": 466, "velocity": 85}, {"time": 100327, "pitch": 61, "duration": 461, "velocity": 80}, {"time": 100799, "pitch": 45, "duration": 400, "velocity": 85}, {"time": 100799, "pitch": 55, "duration": 390, "velocity": 80}, {"time": 100804, "pitch": 61, "duration": 390, "velocity": 75}, {"time": 101199, "pitch": 55, "duration": 61, "velocity": 70}, {"time": 101199, "pitch": 61, "duration": 61, "velocity": 75}, {"time": 101209, "pitch": 45, "duration": 51, "velocity": 65}, {"time": 101280, "pitch": 45, "duration": 471, "velocity": 85}, {"time": 101285, "pitch": 55, "duration": 466, "velocity": 80}, {"time": 101290, "pitch": 61, "duration": 461, "velocity": 75}, {"time": 101761, "pitch": 45, "duration": 160, "velocity": 90}, {"time": 101761, "pitch": 55, "duration": 150, "velocity": 85}, {"time": 101771, "pitch": 61, "duration": 150, "velocity": 80}, {"time": 101921, "pitch": 55, "duration": 70, "velocity": 80}, {"time": 101921, "pitch": 61, "duration": 70, "velocity": 75}, {"time": 101931, "pitch": 45, "duration": 60, "velocity": 85}, {"time": 102001, "pitch": 45, "duration": 161, "velocity": 90}, {"time": 102001, "pitch": 55, "duration": 151, "velocity": 85}, {"time": 102011, "pitch": 61, "duration": 151, "velocity": 80}, {"time": 102162, "pitch": 55, "duration": 70, "velocity": 80}, {"time": 102162, "pitch": 61, "duration": 70, "velocity": 75}, {"time": 102172, "pitch": 45, "duration": 60, "velocity": 85}, {"time": 117602, "pitch": 41, "duration": 20, "velocity": 105}, {"time": 117602, "pitch": 48, "duration": 20, "velocity": 100}, {"time": 117842, "pitch": 41, "duration": 20, "velocity": 100}, {"time": 117842, "pitch": 48, "duration": 20, "velocity": 95}, {"time": 118083, "pitch": 41, "duration": 19, "velocity": 105}, {"time": 118083, "pitch": 48, "duration": 19, "velocity": 100}, {"time": 118320, "pitch": 41, "duration": 20, "velocity": 100}, {"time": 118320, "pitch": 48, "duration": 20, "velocity": 95}, {"time": 118558, "pitch": 41, "duration": 20, "velocity": 105}, {"time": 118558, "pitch": 48, "duration": 20, "velocity": 100}, {"time": 118798, "pitch": 41, "duration": 21, "velocity": 100}, {"time": 118798, "pitch": 48, "duration": 21, "velocity": 95}, {"time": 119039, "pitch": 41, "duration": 20, "velocity": 105}, {"time": 119039, "pitch": 48, "duration": 20, "velocity": 100}, {"time": 119199, "pitch": 48, "duration": 20, "velocity": 90}, {"time": 119209, "pitch": 41, "duration": 20, "velocity": 85}, {"time": 119280, "pitch": 41, "duration": 20, "velocity": 100}, {"time": 119280, "pitch": 48, "duration": 20, "velocity": 95}, {"time": 119520, "pitch": 51, "duration": 20, "velocity": 100}, {"time": 119520, "pitch": 58, "duration": 20, "velocity": 95}, {"time": 119761, "pitch": 51, "duration": 20, "velocity": 95}, {"time": 119761, "pitch": 58, "duration": 20, "velocity": 90}, {"time": 120001, "pitch": 51, "duration": 20, "velocity": 100}, {"time": 120001, "pitch": 58, "duration": 20, "velocity": 95}, {"time": 120242, "pitch": 51, "duration": 20, "velocity": 95}, {"time": 120242, "pitch": 58, "duration": 20, "velocity": 90}, {"time": 120482, "pitch": 51, "duration": 20, "velocity": 100}, {"time": 120482, "pitch": 58, "duration": 20, "velocity": 95}, {"time": 120720, "pitch": 51, "duration": 20, "velocity": 95}, {"time": 120720, "pitch": 58, "duration": 20, "velocity": 90}, {"time": 120958, "pitch": 51, "duration": 20, "velocity": 100}, {"time": 120958, "pitch": 58, "duration": 20, "velocity": 95}, {"time": 121118, "pitch": 58, "duration": 20, "velocity": 85}, {"time": 121128, "pitch": 51, "duration": 20, "velocity": 80}, {"time": 121198, "pitch": 51, "duration": 20, "velocity": 95}, {"time": 121198, "pitch": 58, "duration": 20, "velocity": 90}, {"time": 121439, "pitch": 49, "duration": 20, "velocity": 100}, {"time": 121439, "pitch": 56, "duration": 20, "velocity": 95}, {"time": 121679, "pitch": 49, "duration": 20, "velocity": 95}, {"time": 121679, "pitch": 56, "duration": 20, "velocity": 90}, {"time": 121920, "pitch": 49, "duration": 20, "velocity": 100}, {"time": 121920, "pitch": 56, "duration": 20, "velocity": 95}, {"time": 122160, "pitch": 49, "duration": 20, "velocity": 95}, {"time": 122160, "pitch": 56, "duration": 20, "velocity": 90}, {"time": 122401, "pitch": 49, "duration": 20, "velocity": 100}, {"time": 122401, "pitch": 56, "duration": 20, "velocity": 95}, {"time": 122641, "pitch": 49, "duration": 20, "velocity": 95}, {"time": 122641, "pitch": 56, "duration": 20, "velocity": 90}, {"time": 122882, "pitch": 49, "duration": 20, "velocity": 100}, {"time": 122882, "pitch": 56, "duration": 20, "velocity": 95}, {"time": 123040, "pitch": 56, "duration": 20, "velocity": 85}, {"time": 123050, "pitch": 49, "duration": 20, "velocity": 80}, {"time": 123120, "pitch": 49, "duration": 19, "velocity": 95}, {"time": 123120, "pitch": 56, "duration": 19, "velocity": 90}, {"time": 123357, "pitch": 43, "duration": 20, "velocity": 105}, {"time": 123357, "pitch": 50, "duration": 20, "velocity": 100}, {"time": 123598, "pitch": 43, "duration": 20, "velocity": 100}, {"time": 123598, "pitch": 50, "duration": 20, "velocity": 95}, {"time": 123838, "pitch": 43, "duration": 20, "velocity": 105}, {"time": 123838, "pitch": 50, "duration": 20, "velocity": 100}, {"time": 124079, "pitch": 43, "duration": 20, "velocity": 100}, {"time": 124079, "pitch": 50, "duration": 20, "velocity": 95}, {"time": 124319, "pitch": 43, "duration": 20, "velocity": 105}, {"time": 124319, "pitch": 50, "duration": 20, "velocity": 100}, {"time": 124560, "pitch": 43, "duration": 20, "velocity": 100}, {"time": 124560, "pitch": 50, "duration": 20, "velocity": 95}, {"time": 124800, "pitch": 43, "duration": 20, "velocity": 105}, {"time": 124800, "pitch": 50, "duration": 20, "velocity": 100}, {"time": 124961, "pitch": 50, "duration": 20, "velocity": 90}, {"time": 124971, "pitch": 43, "duration": 20, "velocity": 85}, {"time": 125041, "pitch": 43, "duration": 20, "velocity": 100}, {"time": 125041, "pitch": 50, "duration": 20, "velocity": 95}, {"time": 125282, "pitch": 43, "duration": 471, "velocity": 90}, {"time": 125282, "pitch": 50, "duration": 240, "velocity": 95}, {"time": 125282, "pitch": 55, "duration": 240, "velocity": 105}, {"time": 125532, "pitch": 50, "duration": 221, "velocity": 85}, {"time": 125532, "pitch": 55, "duration": 221, "velocity": 90}, {"time": 125763, "pitch": 50, "duration": 59, "velocity": 90}, {"time": 125763, "pitch": 55, "duration": 59, "velocity": 95}, {"time": 126000, "pitch": 43, "duration": 468, "velocity": 85}, {"time": 126000, "pitch": 50, "duration": 468, "velocity": 100}, {"time": 126000, "pitch": 55, "duration": 468, "velocity": 105}, {"time": 126478, "pitch": 43, "duration": 231, "velocity": 80}, {"time": 126478, "pitch": 50, "duration": 231, "velocity": 85}, {"time": 126488, "pitch": 55, "duration": 221, "velocity": 90}, {"time": 126719, "pitch": 43, "duration": 160, "velocity": 90}, {"time": 126719, "pitch": 50, "duration": 150, "velocity": 95}, {"time": 126729, "pitch": 55, "duration": 140, "velocity": 100}, {"time": 126879, "pitch": 50, "duration": 70, "velocity": 90}, {"time": 126879, "pitch": 55, "duration": 81, "velocity": 95}, {"time": 126889, "pitch": 43, "duration": 60, "velocity": 85}, {"time": 126960, "pitch": 43, "duration": 60, "velocity": 85}, {"time": 126960, "pitch": 50, "duration": 60, "velocity": 90}, {"time": 126970, "pitch": 55, "duration": 50, "velocity": 95}, {"time": 127200, "pitch": 40, "duration": 20, "velocity": 105}, {"time": 127200, "pitch": 47, "duration": 20, "velocity": 100}, {"time": 127441, "pitch": 40, "duration": 20, "velocity": 100}, {"time": 127441, "pitch": 47, "duration": 20, "velocity": 95}, {"time": 127681, "pitch": 40, "duration": 20, "velocity": 105}, {"time": 127681, "pitch": 47, "duration": 20, "velocity": 100}, {"time": 127922, "pitch": 40, "duration": 20, "velocity": 100}, {"time": 127922, "pitch": 47, "duration": 20, "velocity": 95}, {"time": 128162, "pitch": 40, "duration": 20, "velocity": 105}, {"time": 128162, "pitch": 47, "duration": 20, "velocity": 100}, {"time": 128400, "pitch": 40, "duration": 20, "velocity": 100}, {"time": 128400, "pitch": 47, "duration": 20, "velocity": 95}, {"time": 128638, "pitch": 40, "duration": 20, "velocity": 105}, {"time": 128638, "pitch": 47, "duration": 20, "velocity": 100}, {"time": 128878, "pitch": 40, "duration": 20, "velocity": 100}, {"time": 128878, "pitch": 47, "duration": 20, "velocity": 95}, {"time": 132961, "pitch": 43, "duration": 20, "velocity": 105}, {"time": 132961, "pitch": 50, "duration": 20, "velocity": 100}, {"time": 133202, "pitch": 43, "duration": 20, "velocity": 100}, {"time": 133202, "pitch": 50, "duration": 20, "velocity": 95}, {"time": 133443, "pitch": 43, "duration": 19, "velocity": 105}, {"time": 133443, "pitch": 50, "duration": 19, "velocity": 100}, {"time": 133680, "pitch": 43, "duration": 20, "velocity": 100}, {"time": 133680, "pitch": 50, "duration": 20, "velocity": 95}, {"time": 133918, "pitch": 43, "duration": 20, "velocity": 95}, {"time": 133918, "pitch": 50, "duration": 20, "velocity": 90}, {"time": 134158, "pitch": 43, "duration": 20, "velocity": 90}, {"time": 134158, "pitch": 50, "duration": 20, "velocity": 85}, {"time": 134399, "pitch": 43, "duration": 20, "velocity": 95}, {"time": 134399, "pitch": 50, "duration": 20, "velocity": 90}, {"time": 134639, "pitch": 43, "duration": 20, "velocity": 90}, {"time": 134639, "pitch": 50, "duration": 20, "velocity": 85}, {"time": 134880, "pitch": 46, "duration": 20, "velocity": 105}, {"time": 134880, "pitch": 56, "duration": 20, "velocity": 100}, {"time": 135121, "pitch": 46, "duration": 20, "velocity": 100}, {"time": 135121, "pitch": 56, "duration": 20, "velocity": 95}, {"time": 135361, "pitch": 46, "duration": 20, "velocity": 105}, {"time": 135361, "pitch": 56, "duration": 20, "velocity": 100}, {"time": 135602, "pitch": 46, "duration": 20, "velocity": 100}, {"time": 135602, "pitch": 56, "duration": 20, "velocity": 95}, {"time": 135842, "pitch": 46, "duration": 20, "velocity": 95}, {"time": 135842, "pitch": 56, "duration": 20, "velocity": 90}, {"time": 136080, "pitch": 46, "duration": 20, "velocity": 90}, {"time": 136080, "pitch": 56, "duration": 20, "velocity": 85}, {"time": 136317, "pitch": 46, "duration": 20, "velocity": 95}, {"time": 136317, "pitch": 56, "duration": 20, "velocity": 90}, {"time": 136558, "pitch": 46, "duration": 20, "velocity": 90}, {"time": 136558, "pitch": 56, "duration": 20, "velocity": 85}]}]}